<?xml version="1.0" encoding="utf-8"?>
<svg version="1.1" xmlns:xlink="http://www.w3.org/1999/xlink" width="17px" height="16px" xmlns="http://www.w3.org/2000/svg">
  <g transform="matrix(1 0 0 1 -43 -165 )">
    <path d="M 2.6869953824152546 12.672419333333334  C 2.238773004928682 12.955235137532178  1.9594552169913746 13.441631243736632  1.9409861292372879 13.971498774774775  C 1.930345522414489 14.037576199318368  1.923628045771234 14.104226471567141  1.9208690243644069 14.1710990990991  C 1.9208682350697908 14.171785798273044  1.9208678404223833 14.172472497845805  1.9208678404223833 14.17315919747384  C 1.9208678404223833 15.162506087038516  2.7224671589559932 15.964530206482848  3.711290030041028 15.964530206482848  C 4.470189426597133 15.964530206482848  5.146647165128443 15.48583381665546  5.399451470338982 14.76990009009009  L 11.602224956567797 14.769900090090093  C 11.855029261778336 15.48583381665546  12.531487000309644 15.964530206482852  13.290386396865753 15.964530206482852  C 14.279209267950785 15.964530206482852  15.080808586484396 15.162506087038519  15.080808586484396 14.173159197473844  C 15.080808586484396 14.172472497843966  15.08080819183699 14.17178579827489  15.080807402542373 14.1710990990991  C 15.07805034224691 14.104226332274061  15.071332853916147 14.037575944062747  15.060690297669494 13.971498774774775  C 15.023083715547134 13.446872004899285  14.747638364333232 12.968294706264864  14.313004617584745 12.672419333333332  L 15.214083206567796 7.87027027027027  C 16.154731155615032 7.808262035474602  16.88601399601046 7.0267985807600795  16.88601399601046 6.0836116224959715  C 16.88601399601046 5.094727915741487  16.084789962454163 4.293079280153629  15.096430028849442 4.293079280153629  C 14.691201783625742 4.293079280153629  14.297970190582136 4.4306820774889895  13.981072414194916 4.683374288288287  L 10.245158699152546 2.304104828828829  C 10.277736569173287 2.1675447964942376  10.294194136652546 2.02763308879539  10.294194136652546 1.887236916421256  C 10.294194136652546 0.8955741426588516  9.490718417420371 0.09167262813296757  8.49958088877119 0.09167262813296757  C 7.508443360122008 0.09167262813296757  6.7049676408898335 0.8955741426588516  6.7049676408898335 1.887236916421256  C 6.7049676408898335 2.02763308879539  6.721425208369092 2.1675447964942376  6.754003078389833 2.304104828828828  L 3.0180893633474577 4.682535621621621  C 2.7012039191084054 4.429881355579277  2.3080026041099937 4.292301124430298  1.9028076388443347 4.292301124430298  C 0.9144477052396139 4.292301124430298  0.11322367168331812 5.093949760018155  0.11322367168331812 6.08283346677264  C 0.11322367168331812 7.025667229898306  0.8439764984906727 7.806965020671165  1.7842403665254234 7.869431621621622  L 2.6869953824152546 12.672419333333334  Z M 14.483161795550844 6.091479117117117  C 14.483161795550844 5.760770468645698  14.751112121999173 5.492678136077201  15.081645606991527 5.492678126126125  C 15.412179117025099 5.492678126126125  15.68012945444915 5.760770461609226  15.68012945444915 6.091479117117117  C 15.68012945444915 6.422187772625007  15.412179117025099 6.690280108108108  15.081645624999998 6.690280108108108  C 14.7511121329749 6.690280108108108  14.483161795550844 6.422187772625007  14.483161795550844 6.091479117117117  Z M 2.520191058262712 6.090640450450451  C 2.520191058262712 6.421349098921868  2.2522407318143873 6.689441431490365  1.921707246822034 6.689441441441442  C 1.5911737367884589 6.689441441441442  1.323223399364407 6.421349105958342  1.323223399364407 6.090640450450451  C 1.323223399364407 5.75993179494256  1.5911737367884589 5.4918394594594595  1.9217072288135595 5.4918394594594595  C 2.2522407208386594 5.4918394594594595  2.520191058262712 5.75993179494256  2.520191058262712 6.090640450450451  Z M 8.499999999999998 1.3035872252252245  L 8.501676426906778 1.3027485585585588  C 8.832209918931879 1.3027485585585588  9.10016025635593 1.5708408940416587  9.10016025635593 1.9015495495495496  C 9.10016025635593 2.2322582050574398  8.832209918931879 2.5003505405405404  8.501676426906778 2.5003505405405404  C 8.171142934881678 2.5003505405405404  7.903192597457626 2.2322582050574398  7.903192597457626 1.9015495495495496  C 7.903652869738086 1.571822197855606  8.170448262596059 1.3045105114509652  8.499999999999998 1.3035872252252245  Z M 3.7146440677966104 6.091479117117118  L 3.71632049470339 6.090640450450451  C 3.715207377582292 5.955009146805369  3.698615003103292 5.819948811325881  3.666865945974576 5.6880851711711715  L 7.4027796610169485 3.309654378378379  C 8.044722205674036 3.8253453183929125  8.958630648139524 3.8253453183929125  9.60057319279661 3.309654378378379  L 13.336486907838982 5.6880851711711715  C 13.16444169916446 6.402849147075783  13.45248094300827 7.149543318052397  14.059864406779662 7.563321873873874  L 13.153756555084746 12.389791981981983  C 12.448860059968542 12.44258879361631  11.841309550991607 12.906136750842457  11.603901383474575 13.572298108108109  L 5.401127897245762 13.57229810810811  C 5.163719729728733 12.906136750842462  4.556169220751795 12.44258879361631  3.851272725635593 12.389791981981983  L 2.943488447033899 7.564160522522523  C 3.4258841342308903 7.229075125183292  3.713902043008477 6.679045264464664  3.7146440677966104 6.091479117117118  Z M 13.88383976165254 14.1710990990991  L 13.885516170550844 14.1710990990991  C 13.885516170550844 14.501807754606991  13.617565833126793 14.76990009009009  13.287032341101694 14.76990009009009  C 12.956498849076594 14.76990009009009  12.68854851165254 14.501807754606991  12.68854851165254 14.1710990990991  C 12.68854851165254 13.84039044359121  12.956498849076594 13.572298108108109  13.287032341101694 13.572298108108109  C 13.616910976819561 13.573222632046203  13.883841055821943 13.841044370099432  13.88383976165254 14.1710990990991  Z M 4.313127897245761 14.1710990990991  L 4.314804306144067 14.1710990990991  C 4.314804306144067 14.501807754606991  4.046853968720015 14.76990009009009  3.7163204766949143 14.76990009009009  C 3.3857869846698136 14.76990009009009  3.1178366472457615 14.501807754606991  3.1178366472457615 14.1710990990991  C 3.1178366472457615 13.84039044359121  3.3857869846698136 13.572298108108109  3.7163204766949143 13.572298108108109  C 4.046199112412781 13.573222632046205  4.313129191415165 13.841044370099432  4.313127897245761 14.1710990990991  Z " fill-rule="nonzero" fill="#5c79ba" stroke="none" transform="matrix(1 0 0 1 43 165 )" />
  </g>
</svg>