<?xml version="1.0" encoding="utf-8"?>
<svg version="1.1" xmlns:xlink="http://www.w3.org/1999/xlink" width="16px" height="16px" xmlns="http://www.w3.org/2000/svg">
  <g transform="matrix(1 0 0 1 -765 -1269 )">
    <path d="M 15.683616421052632 9.652541720930234  C 15.897128649122807 8.848994387596901  15.948586245614036 8.029545038759691  15.836516 7.217039255813954  C 15.728269122807017 6.432044263565891  15.470647877192983 5.67341311627907  15.070843 4.96224  C 14.267690473684212 3.5336476744186047  12.926109719298246 2.383433472868217  11.293198947368422 1.7235001705426356  C 10.940852912280704 1.581095054263566  10.524597035087721 1.718075503875969  10.363454403508772 2.029466573643411  C 10.202329315789473 2.3408266356589147  10.357315964912281 2.708696170542636  10.709662 2.8511167751937982  C 13.503753754385965 3.9803297829457365  15.021156754385965 6.721519674418604  14.317709929824561 9.369110914728681  C 13.77849247368421 11.398197751937985  12.051014771929824 12.986492108527132  9.823184649122807 13.560328294573644  L 9.818572052631579 12.462640310077518  L 6.365177543859649 14.240162356589147  L 9.833427052631578 15.994838821705429  L 9.82858645614035 14.840842852713179  C 11.15136607017544 14.563146682170544  12.369108333333333 13.989217519379846  13.373934684210525 13.165815922480622  C 14.524768035087718 12.222746294573644  15.323448263157895 11.007885627906978  15.683616421052632 9.652541720930234  Z M 9.64883561403509 1.878893472868216  L 6.180691333333333 0.12401550387596899  L 6.185461771929824 1.278026976744186  C 4.862576929824561 1.5557231472868218  3.64474696491228 2.1296833178294574  2.6398504912280694 2.9531624031007753  C 1.4889645263157891 3.896278527131783  0.6903018245614029 5.1111702015503875  0.3301687543859642 6.4665915968992245  C 0.19003710526315717 6.994256155038759  0.11974328070175363 7.528724790697674  0.11974328070175363 8.063658403100774  C 0.11974328070175363 8.34264099224806  0.1388776491228063 8.621747565891473  0.17714640350877126 8.900032697674419  C 0.28507757894736785 9.684392232558139  0.542120070175438 10.442496418604652  0.9411006491228062 11.153266542635658  C 1.7424817894736833 12.580866930232558  3.081677333333333 13.731096635658913  4.711922263157895 14.392037364341084  C 5.064057842105263 14.534814449612401  5.480524175438597 14.398267968992247  5.642070192982456 14.087062914728682  C 5.803651280701755 13.77579584496124  5.649103087719298 13.407833317829457  5.296949964912281 13.265056217054262  C 2.5081197192982456 12.134386294573641  0.9938210000000004 9.394374325581394  1.6960927719298247 6.749960403100774  C 2.2352576140350875 4.720765069767441  3.962787929824562 3.1323932248062003  6.190758368421053 2.5585570387596888  L 6.195318350877194 3.656260511627906  L 9.64883561403509 1.878893472868216  Z " fill-rule="nonzero" fill="#999999" stroke="none" transform="matrix(1 0 0 1 765 1269 )" />
  </g>
</svg>