<?xml version="1.0" encoding="utf-8"?>
<svg version="1.1" xmlns:xlink="http://www.w3.org/1999/xlink" width="23px" height="20px" xmlns="http://www.w3.org/2000/svg">
  <g transform="matrix(1 0 0 1 -414 -1342 )">
    <path d="M 17.233657508620688 9.700917107843136  L 20.321011551724137 11.53279980392157  L 20.321011551724137 3.7691064460784314  C 20.321011551724137 3.080860953963012  19.756825643104644 2.5229277450980385  19.060867054956894 2.5229277450980385  L 3.9391329698275843 2.5229277450980385  C 3.243174356895355 2.5229277450980385  2.678988448275861 3.080860953963012  2.678988448275861 3.7691064460784314  C 2.678988448275861 3.7691064460784314  2.678988448275861 3.7691064460784314  3 3.7691064460784314  L 3 16.019043161764706  L 13.33981096875 9.700917107843136  C 14.537953210147375 8.989050857987477  16.035515267223314 8.989050857987477  17.233657508620688 9.700917107843136  Z M 20.32101155172414 16.230893553921565  L 20.321011551724137 14.43639620098039  L 15.923107223060345 11.83188269607843  C 15.53321715259073 11.60927430227623  15.052852771978234 11.60927430227623  14.66296270150862 11.83188269607843  L 5.111067360991379 17.47707225490196  L 19.06086703017241 17.47707225490196  C 19.75682564310465 17.477072254901962  20.32101155172414 16.91913904603699  20.32101155172414 16.230893553921568  Z M 0.15869945474137784 3.7691064460784314  C 0.15869945474137784 1.7043699561957828  1.8512571916962524 0.030570318627450355  3.9391329698275848 0  L 19.06086703017241 0  C 19.06086703017241 0.030570318627450004  19.06086703017241 0.030570318627450004  19.06086703017241 0.030570318627450004  C 21.14874280830374 0.030570318627450004  22.84130054525862 1.7043699561957824  22.84130054525862 3.7691064460784314  L 22.84130054525862 16.230893553921568  C 22.84130054525862 18.295630043804216  21.14874280830374 19.96942968137255  19.06086703017241 20  L 3.9391329698275848 20  C 1.8512571916962524 19.96942968137255  0.15869945474137784 18.295630043804216  0.15869945474137784 16.230893553921568  L 0.15869945474137784 3.7691064460784314  Z M 8.979710981681034 6.884553235294116  C 8.979710981681034 7.91692148023544  8.133432113203597 8.753821299019606  7.08949422413793 8.753821299019606  C 6.0455563350722645 8.753821299019606  5.199277466594827 7.91692148023544  5.199277466594827 6.884553235294116  C 5.199277466594827 5.852184990352792  6.0455563350722645 5.0152851715686255  7.08949422413793 5.0152851715686255  C 8.133432113203597 5.0152851715686255  8.979710981681034 5.852184990352792  8.979710981681034 6.884553235294116  Z " fill-rule="nonzero" fill="#999999" stroke="none" transform="matrix(1 0 0 1 414 1342 )" />
  </g>
</svg>