<?xml version="1.0" encoding="utf-8"?>
<svg version="1.1" xmlns:xlink="http://www.w3.org/1999/xlink" width="380px" height="30px" xmlns="http://www.w3.org/2000/svg">
  <g transform="matrix(1 0 0 1 -1124 -892 )">
    <path d="M 1125 895  A 2 2 0 0 1 1127 893 L 1501 893  A 2 2 0 0 1 1503 895 L 1503 919  A 2 2 0 0 1 1501 921 L 1127 921  A 2 2 0 0 1 1125 919 L 1125 895  Z " fill-rule="nonzero" fill="#ffffff" stroke="none" />
    <path d="M 1124.5 895  A 2.5 2.5 0 0 1 1127 892.5 L 1501 892.5  A 2.5 2.5 0 0 1 1503.5 895 L 1503.5 919  A 2.5 2.5 0 0 1 1501 921.5 L 1127 921.5  A 2.5 2.5 0 0 1 1124.5 919 L 1124.5 895  Z " stroke-width="1" stroke-dasharray="9,4" stroke="#7f7f7f" fill="none" stroke-dashoffset="0.5" />
  </g>
</svg>