<?xml version="1.0" encoding="utf-8"?>
<svg version="1.1" xmlns:xlink="http://www.w3.org/1999/xlink" width="100px" height="100px" xmlns="http://www.w3.org/2000/svg">
  <g transform="matrix(1 0 0 1 -375 -1312 )">
    <path d="M 376 1315  A 2 2 0 0 1 378 1313 L 472 1313  A 2 2 0 0 1 474 1315 L 474 1409  A 2 2 0 0 1 472 1411 L 378 1411  A 2 2 0 0 1 376 1409 L 376 1315  Z " fill-rule="nonzero" fill="#ffffff" stroke="none" />
    <path d="M 375.5 1315  A 2.5 2.5 0 0 1 378 1312.5 L 472 1312.5  A 2.5 2.5 0 0 1 474.5 1315 L 474.5 1409  A 2.5 2.5 0 0 1 472 1411.5 L 378 1411.5  A 2.5 2.5 0 0 1 375.5 1409 L 375.5 1315  Z " stroke-width="1" stroke-dasharray="9,4" stroke="#797979" fill="none" stroke-dashoffset="0.5" />
  </g>
</svg>