<?xml version="1.0" encoding="utf-8"?>
<svg version="1.1" xmlns:xlink="http://www.w3.org/1999/xlink" width="16px" height="16px" xmlns="http://www.w3.org/2000/svg">
  <g transform="matrix(1 0 0 1 -2092 -1133 )">
    <path d="M 2100 1133  C 2104.48 1133  2108 1136.52  2108 1141  C 2108 1145.48  2104.48 1149  2100 1149  C 2095.52 1149  2092 1145.48  2092 1141  C 2092 1136.52  2095.52 1133  2100 1133  Z " fill-rule="nonzero" fill="#ffffff" stroke="none" />
    <path d="M 2100 1133.5  C 2104.2 1133.5  2107.5 1136.8  2107.5 1141  C 2107.5 1145.2  2104.2 1148.5  2100 1148.5  C 2095.8 1148.5  2092.5 1145.2  2092.5 1141  C 2092.5 1136.8  2095.8 1133.5  2100 1133.5  Z " stroke-width="1" stroke="#d7d7d7" fill="none" />
  </g>
</svg>