<?xml version="1.0" encoding="utf-8"?>
<svg version="1.1" xmlns:xlink="http://www.w3.org/1999/xlink" width="7px" height="4px" xmlns="http://www.w3.org/2000/svg">
  <g transform="matrix(1 0 0 1 -2673 -1330 )">
    <path d="M 6.859999999999999 0.1599999999999997  C 6.766666666666667 0.06857142857142895  6.673333333333334 0.022857142857142243  6.533333333333333 0.02285714285714313  C 6.3933333333333335 0.02285714285714313  6.3 0.06857142857142895  6.206666666666667 0.1600000000000006  L 3.500000000000001 2.8114285714285714  L 0.7933333333333338 0.1600000000000006  C 0.6066666666666669 -0.022857142857142243  0.3266666666666671 -0.022857142857142243  0.14000000000000032 0.1600000000000006  C -0.046666666666666495 0.34285714285714386  -0.046666666666666495 0.6171428571428579  0.14000000000000032 0.8000000000000007  L 3.173333333333334 3.7714285714285714  C 3.360000000000001 3.954285714285714  3.640000000000001 3.954285714285714  3.826666666666666 3.7714285714285714  L 6.859999999999999 0.7999999999999998  C 7.046666666666666 0.617142857142857  7.046666666666666 0.34285714285714297  6.859999999999999 0.1599999999999997  Z " fill-rule="nonzero" fill="#0066ff" stroke="none" transform="matrix(1 0 0 1 2673 1330 )" />
  </g>
</svg>