<?xml version="1.0" encoding="utf-8"?>
<svg version="1.1" xmlns:xlink="http://www.w3.org/1999/xlink" width="16px" height="16px" xmlns="http://www.w3.org/2000/svg">
  <g transform="matrix(1 0 0 1 -1751 -1063 )">
    <path d="M 15.859405940594058 8.022  C 15.857425742574257 3.6260000000000003  12.314851485148514 0.04600000000000023  7.96039603960396 0.045999999999999944  C 3.6059405940594065 0.045999999999999944  0.06336633663366315 3.6239999999999997  0.06336633663366315 8.022  C 0.06336633663366315 12.422  3.6059405940594065 16  7.96039603960396 16  C 12.314851485148514 16  15.859405940594058 12.422  15.859405940594058 8.022  Z M 9.770297029702972 11.306  C 9.346534653465346 14.876  6.2732673267326735 14.46  6.655445544554456 11.48  C 7.380198019801981 5.808  6.295049504950495 7.52  6.142574257425744 7.778  C 6.13861386138614 7.784  6.132673267326734 7.78  6.132673267326734 7.774  C 6.835643564356436 4.6339999999999995  10.037623762376239 5.492000000000001  9.631683168316833 7.8660000000000005  C 8.64950495049505 13.62  9.475247524752477 12.122  9.734653465346538 11.298  C 9.740594059405943 11.276  9.774257425742578 11.283999999999999  9.770297029702972 11.306  Z M 10 3.5940000000000007  C 10.176237623762376 4.4060000000000015  9.667326732673269 5.208000000000001  8.863366336633664 5.386  C 8.05940594059406 5.564  7.265346534653466 5.05  7.089108910891089 4.238  C 6.912871287128714 3.426  7.421782178217822 2.624000000000001  8.225742574257426 2.4460000000000006  C 9.029702970297029 2.2680000000000007  9.823762376237624 2.782000000000001  10 3.5940000000000007  Z " fill-rule="nonzero" fill="#0066ff" stroke="none" transform="matrix(1 0 0 1 1751 1063 )" />
  </g>
</svg>