<?xml version="1.0" encoding="utf-8"?>
<svg version="1.1" xmlns:xlink="http://www.w3.org/1999/xlink" width="14px" height="5px" xmlns="http://www.w3.org/2000/svg">
  <g transform="matrix(1 0 0 1 -2669 -1332 )">
    <path d="M 13.925663716814158 3.3414634146341453  C 13.876106194690264 4.2195121951219505  13.182300884955751 4.951219512195121  12.290265486725664 5  L 1.585840707964602 5  C 0.7433628318584071 4.951219512195121  0 4.2195121951219505  0 3.3414634146341453  L 0 0.5609756097560968  C 0 0.2682926829268279  0.19823008849557516 0.07317073170731639  0.49557522123893805 0.07317073170731639  C 0.792920353982301 0.07317073170731639  0.9911504424778761 0.2682926829268279  0.9911504424778761 0.5609756097560968  L 0.9911504424778761 3.3414634146341453  C 0.9911504424778761 3.6829268292682915  1.238938053097345 3.97560975609756  1.585840707964602 4  L 12.339823008849557 4  C 12.63716814159292 3.97560975609756  12.934513274336283 3.6829268292682915  12.934513274336283 3.3414634146341453  L 12.934513274336283 0.5609756097560968  C 12.934513274336283 0.2682926829268279  13.132743362831857 0.07317073170731639  13.430088495575221 0.07317073170731639  C 13.727433628318584 0.07317073170731639  13.925663716814158 0.2682926829268279  13.925663716814158 0.5609756097560968  L 13.925663716814158 3.3414634146341453  Z " fill-rule="nonzero" fill="#0066ff" stroke="none" transform="matrix(1 0 0 1 2669 1332 )" />
  </g>
</svg>