<?xml version="1.0" encoding="utf-8"?>
<svg version="1.1" xmlns:xlink="http://www.w3.org/1999/xlink" width="12px" height="12px" xmlns="http://www.w3.org/2000/svg">
  <g transform="matrix(1 0 0 1 -626 -720 )">
    <path d="M 7.998809523809522 4.5702380952380945  C 7.998809523809522 4.7940476190476184  7.953571428571427 4.991666666666666  7.860714285714286 5.161904761904762  C 7.769047619047618 5.332142857142857  7.659523809523809 5.4785714285714295  7.533333333333333 5.602380952380953  C 7.407142857142857 5.726190476190476  7.18095238095238 5.933333333333334  6.853571428571428 6.225  C 6.763095238095237 6.307142857142856  6.69047619047619 6.379761904761905  6.636904761904761 6.441666666666666  C 6.5821428571428555 6.50357142857143  6.541666666666664 6.560714285714287  6.515476190476189 6.613095238095239  C 6.489285714285711 6.664285714285713  6.467857142857142 6.716666666666667  6.453571428571426 6.767857142857142  C 6.439285714285711 6.819047619047619  6.416666666666664 6.910714285714285  6.388095238095236 7.040476190476191  C 6.338095238095235 7.316666666666667  6.179761904761903 7.454761904761904  5.914285714285712 7.454761904761904  C 5.776190476190473 7.454761904761904  5.659523809523807 7.40952380952381  5.565476190476188 7.319047619047618  C 5.47142857142857 7.228571428571428  5.423809523809521 7.095238095238095  5.423809523809521 6.916666666666666  C 5.423809523809521 6.694047619047618  5.45833333333333 6.501190476190477  5.52738095238095 6.33690476190476  C 5.596428571428569 6.173809523809523  5.688095238095235 6.03095238095238  5.8023809523809495 5.907142857142857  C 5.916666666666665 5.783333333333333  6.070238095238094 5.636904761904761  6.2642857142857125 5.467857142857142  C 6.434523809523807 5.319047619047619  6.557142857142855 5.207142857142856  6.633333333333331 5.13095238095238  C 6.709523809523807 5.054761904761904  6.772619047619046 4.9714285714285715  6.824999999999998 4.878571428571428  C 6.876190476190475 4.785714285714286  6.90238095238095 4.685714285714285  6.90238095238095 4.576190476190476  C 6.90238095238095 4.364285714285714  6.823809523809523 4.184523809523809  6.6654761904761894 4.039285714285714  C 6.507142857142856 3.8940476190476185  6.303571428571427 3.820238095238095  6.053571428571427 3.820238095238095  C 5.760714285714284 3.820238095238095  5.54642857142857 3.8940476190476185  5.408333333333332 4.041666666666667  C 5.270238095238094 4.189285714285714  5.153571428571428 4.405952380952382  5.057142857142856 4.692857142857143  C 4.966666666666665 4.992857142857142  4.795238095238094 5.142857142857142  4.542857142857142 5.142857142857142  C 4.394047619047618 5.142857142857142  4.269047619047618 5.090476190476191  4.166666666666665 4.985714285714286  C 4.064285714285712 4.880952380952381  4.013095238095238 4.767857142857142  4.013095238095238 4.645238095238096  C 4.013095238095238 4.392857142857142  4.094047619047618 4.138095238095238  4.25595238095238 3.878571428571428  C 4.417857142857142 3.6202380952380953  4.654761904761903 3.405952380952381  4.965476190476189 3.235714285714285  C 5.276190476190475 3.06547619047619  5.639285714285713 2.9809523809523806  6.053571428571427 2.9809523809523806  C 6.439285714285713 2.9809523809523806  6.778571428571427 3.052380952380952  7.073809523809523 3.1940476190476184  C 7.369047619047619 3.3357142857142854  7.59642857142857 3.528571428571428  7.757142857142856 3.773809523809523  C 7.917857142857141 4.017857142857142  7.998809523809522 4.283333333333333  7.998809523809522 4.5702380952380945  Z M 6.552380952380952 8.411904761904761  C 6.552380952380952 8.59642857142857  6.491666666666666 8.74285714285714  6.372619047619048 8.848809523809523  C 6.2523809523809515 8.954761904761904  6.114285714285712 9.008333333333333  5.958333333333333 9.008333333333333  C 5.79642857142857 9.008333333333333  5.654761904761904 8.955952380952379  5.533333333333333 8.851190476190474  C 5.411904761904761 8.74642857142857  5.352380952380952 8.599999999999998  5.352380952380952 8.411904761904761  C 5.352380952380952 8.245238095238093  5.410714285714285 8.103571428571428  5.527380952380952 7.989285714285712  C 5.644047619047618 7.874999999999998  5.788095238095238 7.817857142857141  5.958333333333333 7.817857142857141  C 6.126190476190476 7.817857142857141  6.2666666666666675 7.874999999999998  6.380952380952381 7.989285714285712  C 6.495238095238096 8.103571428571428  6.552380952380952 8.244047619047617  6.552380952380952 8.411904761904761  Z M 11.958333333333334 5.994047619047619  C 11.958333333333334 2.710714285714286  9.292857142857143 0.04880952380952408  6.005952380952381 0.0488095238095238  C 2.7190476190476187 0.0488095238095238  0.05357142857142857 2.710714285714286  0.05357142857142857 5.994047619047619  C 0.05357142857142857 9.277380952380952  2.719047619047619 11.939285714285715  6.005952380952381 11.939285714285715  C 9.292857142857143 11.939285714285715  11.958333333333334 9.277380952380952  11.958333333333334 5.994047619047619  Z " fill-rule="nonzero" fill="#595757" stroke="none" transform="matrix(1 0 0 1 626 720 )" />
  </g>
</svg>