<?xml version="1.0" encoding="utf-8"?>
<svg version="1.1" xmlns:xlink="http://www.w3.org/1999/xlink" width="16px" height="16px" xmlns="http://www.w3.org/2000/svg">
  <g transform="matrix(1 0 0 1 -340 -208 )">
    <path d="M 16 8  C 16 3.5817220013536524  12.418277998646348 0  8 0  C 3.5817220013536524 0  0 3.5817220013536524  0 8  C 0 12.418277998646348  3.5817220013536524 16  8 16  C 12.418277998646348 16  16 12.418277998646348  16 8  Z M 9.600000000000001 12.421333328125002  C 9.6 13.304988927854268  8.88365559972927 14.021333328125  8 14.021333328125  C 7.116344400270731 14.021333328125  6.4 13.304988927854268  6.4 12.421333328125  C 6.4 11.53767772839573  7.116344400270731 10.821333328125  8 10.821333328125  C 8.88365559972927 10.821333328125  9.600000000000001 11.53767772839573  9.600000000000001 12.421333328125  Z M 9.922666671875 3.8986666718749987  C 9.922666671875 4.959999999999999  9.066666671875 9.943999999999999  8 9.943999999999999  C 6.933333328125 9.943999999999999  6.077333328125 4.959999999999999  6.0773333281249995 3.8986666718749983  C 6.0773333281249995 2.8368071899905094  6.938140518115511 1.9759999999999982  7.999999999999999 1.9759999999999982  C 9.061859481884488 1.9759999999999982  9.922666671875 2.8368071899905094  9.922666671875 3.8986666718749983  Z " fill-rule="nonzero" fill="#999999" stroke="none" transform="matrix(1 0 0 1 340 208 )" />
  </g>
</svg>