<?xml version="1.0" encoding="utf-8"?>
<svg version="1.1" xmlns:xlink="http://www.w3.org/1999/xlink" width="15px" height="15px" xmlns="http://www.w3.org/2000/svg">
  <g transform="matrix(1 0 0 1 -1485 -1201 )">
    <path d="M 14.957386363636363 7.5  C 14.957386363636363 3.38779268022017  11.61220731977983 0.04261363636363637  7.5 0.04261363636363637  C 3.38830810546875 0.04261363636363637  0.04261363636363637 3.38779268022017  0.04261363636363637 7.5  C 0.04261363636363637 11.61220731977983  3.38779268022017 14.957386363636363  7.5 14.957386363636363  C 11.61169189453125 14.957386363636363  14.957386363636363 11.61220731977983  14.957386363636363 7.5  Z M 8.254801408247515 7.50211894642223  L 10.542084478204899 9.796875565962358  C 10.749826671253551 10.005677223899145  10.749282614968038 10.342331259987569  10.541025013316762 10.550073453036221  C 10.437168240633879 10.653414817116477  10.301326887650925 10.705615223277697  10.164970126065342 10.705615223277697  C 10.02806930819425 10.705615223277697  9.891712546608666 10.653414800470523  9.787827126242899 10.549013971502127  L 7.497337013938211 8.25159434925426  L 5.199401966441763 10.525047030362213  C 5.09554519375888 10.627328912908379  4.960219266024504 10.67898527943004  4.824921969327061 10.67898527943004  C 4.687505726207387 10.67898527943004  4.550604924982245 10.626240816983309  4.446204079367899 10.520780506480822  C 4.2395213512073875 10.311434792258522  4.241124872381038 9.974780756170098  4.450470603249292 9.767582619406959  L 6.745742648037998 7.497336997292257  L 4.458975003329192 5.203124417391689  C 4.25123281028054 4.9948381680575284  4.251776866566052 4.657668723366476  4.46003446821733 4.449926530317826  C 4.6683207175514925 4.241640280983664  5.004946105957033 4.242728393554686  5.213232355291194 4.450985995205965  L 7.50317841131037 6.747861561168324  L 9.80111345880682 4.4744375110973005  C 10.009915116743608 4.267239374334161  10.347628617720172 4.2693583041104395  10.554311345880684 4.478704034978692  C 10.761509482643822 4.688049749200992  10.759390552867545 5.0252191938920445  10.550044821999293 5.231901922052556  L 8.254801408247515 7.50211894642223  Z " fill-rule="nonzero" fill="#ff6666" stroke="none" transform="matrix(1 0 0 1 1485 1201 )" />
  </g>
</svg>