<?xml version="1.0" encoding="utf-8"?>
<svg version="1.1" xmlns:xlink="http://www.w3.org/1999/xlink" width="15px" height="15px" xmlns="http://www.w3.org/2000/svg">
  <g transform="matrix(1 0 0 1 -1093 -1201 )">
    <path d="M 14.457157769097222 7.711990489366317  C 14.457157769097222 3.7464330349392356  11.242741200086805 0.5336819769965269  7.27884925672743 0.5336819769965278  C 3.314957313368055 0.5336819769965278  0.10054074435763807 3.7464330512152775  0.10054072808159656 7.711990489366319  C 0.10054071180555482 11.677547927517363  3.313291802300346 14.890299001736112  7.27884925672743 14.89029901801215  C 11.244406711154515 14.890299034288192  14.457157769097222 11.677547943793401  14.457157769097222 7.711990489366317  Z M 11.617478879123265 5.095488715277778  C 11.87230050998264 5.345313845486112  11.87230050998264 5.755027045355904  11.620809884982638 6.00651765407986  L 6.804181515842014 10.823146023220488  C 6.677603455946181 10.94972408311632  6.512718869357639 11.013013113064236  6.347834299045139 11.013013113064236  C 6.182949712456597 11.013013113064236  6.018065142144097 10.94972408311632  5.891487065972222 10.823146023220488  L 3.528141411675348 8.46146586371528  C 3.274985291883681 8.209975238715277  3.274985291883681 7.800262038845486  3.528141411675348 7.548771413845486  C 3.7812975314670147 7.29561529405382  4.18934523654514 7.29561529405382  4.440835861545138 7.548771413845486  L 6.3461687879774304 9.45410435655382  L 10.704784429253472 5.095488715277778  C 10.957940549045139 4.842332595486111  11.365988254123264 4.842332595486111  11.617478879123265 5.095488715277778  Z " fill-rule="nonzero" fill="#0fc060" stroke="none" transform="matrix(1 0 0 1 1093 1201 )" />
  </g>
</svg>