<?xml version="1.0" encoding="utf-8"?>
<svg version="1.1" xmlns:xlink="http://www.w3.org/1999/xlink" width="15px" height="15px" xmlns="http://www.w3.org/2000/svg">
  <g transform="matrix(1 0 0 1 -711 -1201 )">
    <path d="M 7.5 14.906984131944448  C 3.4092356216884054 14.906984131944448  0.09301586805555534 11.590764378311597  0.09301586805555534 7.5  C 0.09301586805555534 3.4092356216884054  3.4092356216884054 0.09301586805555534  7.5 0.09301586805555534  C 11.590764378311597 0.09301586805555534  14.906984131944448 3.4092356216884054  14.906984131944448 7.5  C 14.906984131944448 11.590764378311597  11.590764378311597 14.906984131944448  7.5 14.906984131944448  Z M 7.5 13.42634920138889  C 10.772681628430089 13.42634920138889  13.42571427951389 10.77331655030509  13.42571427951389 7.500634921875001  C 13.42571427951389 4.227953293444909  10.772681628430092 1.5749206423611097  7.5 1.5749206423611097  C 4.22731837156991 1.5749206423611097  1.5742857204861105 4.2279532934449096  1.5742857204861105 7.500634921875001  C 1.5742857204861105 10.77331655030509  4.22731837156991 13.42634920138889  7.5 13.42634920138889  Z M 8.13492064236111 4.325396822916666  C 8.13492063277283 3.9747398415677915  7.850656981348877 3.6904761979166674  7.5 3.6904761979166674  C 7.149343018651122 3.6904761979166674  6.865079367227165 3.9747398415677906  6.865079357638889 4.325396822916668  L 6.865079357638889 8.134920642361113  C 6.865079367227167 8.48557762370999  7.149343018651122 8.769841267361112  7.5 8.769841267361112  L 11.309523802083334 8.769841267361112  C 11.660139784924466 8.769783289693521  11.944339454314939 8.485536621315266  11.944339454314939 8.134920633680554  C 11.944339454314939 7.784304646045847  11.660139784924466 7.500057977667589  11.309523802083334 7.5  L 8.13492064236111 7.5  L 8.13492064236111 4.325396822916666  Z " fill-rule="nonzero" fill="#e7772d" stroke="none" transform="matrix(1 0 0 1 711 1201 )" />
  </g>
</svg>