<?xml version="1.0" encoding="utf-8"?>
<svg version="1.1" xmlns:xlink="http://www.w3.org/1999/xlink" width="7px" height="3px" xmlns="http://www.w3.org/2000/svg">
  <g transform="matrix(1 0 0 1 -398 -1563 )">
    <path d="M 2.063306451612904 0.9734374999999993  C 2.061895161290323 0.234375  1.5735887096774201 0  0.9766129032258063 0  L 0.035282258064516125 0  L 0.035282258064516125 3  L 0.6844758064516129 3  L 0.6844758064516129 2  L 0.9963709677419359 2  C 1.566532258064516 2  2.063306451612904 1.6843749999999993  2.063306451612904 0.9734374999999993  Z M 1.432459677419355 0.9749999999999996  C 1.432459677419355 1.2671875000000004  1.280040322580645 1.4375  0.9639112903225808 1.4375  L 0.6844758064516129 1.4375  L 0.6844758064516129 0.5625  L 0.9455645161290323 0.5625  C 1.2588709677419354 0.5625  1.432459677419355 0.671875  1.432459677419355 0.9749999999999996  Z M 4.671370967741936 1.484375  C 4.671370967741936 0.44374999999999964  4.126612903225806 0  3.30241935483871 0  L 2.5191532258064515 0  L 2.5191532258064515 3  L 3.3391129032258067 3  C 4.126612903225806 3  4.671370967741936 2.5250000000000004  4.671370967741936 1.484375  Z M 4.005241935483872 1.4890624999999993  C 4.005241935483872 2.1999999999999993  3.69758064516129 2.421875  3.2614919354838716 2.421875  L 3.182459677419355 2.421875  L 3.182459677419355 0.578125  L 3.2614919354838716 0.578125  C 3.69758064516129 0.578125  4.005241935483872 0.7781249999999993  4.005241935483872 1.4890624999999993  Z M 5.821572580645161 0.59375  L 6.894153225806452 0.59375  L 6.894153225806452 0  L 5.172379032258064 0  L 5.172379032258064 3  L 5.821572580645161 3  L 5.821572580645161 1.859375  L 6.73891129032258 1.859375  L 6.73891129032258 1.265625  L 5.821572580645161 1.265625  L 5.821572580645161 0.59375  Z " fill-rule="nonzero" fill="#999999" stroke="none" transform="matrix(1 0 0 1 398 1563 )" />
  </g>
</svg>