<?xml version="1.0" encoding="utf-8"?>
<svg version="1.1" xmlns:xlink="http://www.w3.org/1999/xlink" width="11px" height="14px" xmlns="http://www.w3.org/2000/svg">
  <g transform="matrix(1 0 0 1 -396 -1555 )">
    <path d="M 10.992838541666668 4.8193359375  C 10.992838541666668 4.5595703125  10.892578125 4.3107421875  10.700651041666667 4.126171875  L 6.721744791666666 0.2912109375  C 6.657291666666666 0.22968750000000002  6.587109374999999 0.177734375  6.511197916666665 0.13398437500000002  C 6.491145833333332 0.123046875  6.47109375 0.11210937500000001  6.449609375 0.10253906250000001  C 6.436718749999999 0.09570312500000001  6.422395833333334 0.090234375  6.409505208333333 0.08476562500000001  C 6.280598958333333 0.030078125000000015  6.138802083333333 0  5.994140625 0  L 1.052734375 0  C 0.4826822916666665 0  0.007161458333333333 0.44023437500000007  0 0.984375  L 0 13.015625  C 0.007161458333333333 13.559765624999999  0.4826822916666665 14  1.052734375 14  L 9.975911458333332 14  C 10.545963541666666 14  10.992838541666668 13.559765624999999  10.992838541666668 13.015625  L 10.992838541666668 4.8193359375  Z M 6.524088541666667 4.265625  L 6.524088541666667 1.5093750000000001  L 9.400130208333334 4.265625  L 6.524088541666667 4.265625  Z M 9.961588541666668 5.25  L 9.961588541666668 13.015625  L 1 13.015625  L 1 0.984375  L 5.492838541666666 0.984375  L 5.492838541666666 4.265625  C 5.492838541666666 4.809765625  5.968359375 5.25  6.538411458333333 5.25  L 9.961588541666668 5.25  Z " fill-rule="nonzero" fill="#999999" stroke="none" transform="matrix(1 0 0 1 396 1555 )" />
  </g>
</svg>