<?xml version="1.0" encoding="utf-8"?>
<svg version="1.1" xmlns:xlink="http://www.w3.org/1999/xlink" width="16px" height="14px" xmlns="http://www.w3.org/2000/svg">
  <g transform="matrix(1 0 0 1 -396 -1509 )">
    <path d="M 4.564550458715597 7.502833333333334  L 8.006850146788992 4.082944450520833  L 10.512831798165138 1.5932777838541663  C 11.571433528785404 0.5429984651512534  13.286185381247055 0.5428244466287713  14.345003064220185 1.5928888828124999  C 15.402659071272762 2.644432240564542  15.402308605018822 4.348608317270579  14.344220183486238 5.3997222161458325  L 10.586422018348625 9.132666666666667  L 7.767681963302753 11.933055549479166  C 6.190189614678901 13.500277765625  3.6341039816513763 13.500277765625  2.0566116146789 11.933444450520833  C 0.4787278165137622 10.366222234375  0.47911926605504684 7.8279444505208335  2.0593516880733955 6.2576111171875  L 6.4430581100917435 1.902444450520833  C 6.513544159788188 1.8299402997244956  6.552939767974606 1.733078221612389  6.552939767974606 1.6322781497856447  C 6.552939767974606 1.4175007504295662  6.377687318047303 1.2433892669731448  6.161502465222313 1.2433892669731448  C 6.060041842466166 1.2433892669731448  5.962545019412302 1.2825283933354334  5.889565743119265 1.3525555494791666  L 1.5058593211009175 5.706944450520833  C -0.38047706422018357 7.581388901041667  -0.3808685137614679 10.6116111171875  1.5031192660550456 12.483333333333333  C 3.3859327155963297 14.3538888828125  6.438360862385322 14.3538888828125  8.321174311926606 12.483333333333333  L 11.139522935779818 9.682555549479167  L 14.897712532110095 5.949222216145833  C 16.261480110091746 4.594333333333331  16.26187155963303 2.397111098958333  14.89810398165138 1.0422222161458317  C 13.535902146788994 -0.31111111718750195  11.322324165137617 -0.31111111718750195  9.959339449541286 1.042999999999998  L 7.453357798165139 3.532277783854165  L 4.01066666055046 6.952555549479165  C 3.6036131646170233 7.355627155989647  3.3748198647386483 7.903109527344801  3.3748198647386483 8.474081362405864  C 3.3748198647386483 9.044101181572987  3.6028529735270274 9.590751180637202  4.0087094862385335 9.993666666666668  C 4.854838398211744 10.832174579718137  6.2247002995132155 10.831304408498232  7.069749229357799 9.991722216145833  L 11.764256880733946 5.328166666666665  C 11.834742611790137 5.255662566871075  11.874138019911511 5.158800714709251  11.874138019911511 5.058000899488953  C 11.874138019911511 4.843223500132875  11.698885569984212 4.669112016676453  11.48270071715922 4.669112016676453  C 11.381240352691082 4.669112016676453  11.28374375706817 4.7082509442762035  11.210764532110092 4.778277783854165  L 6.516256880733946 9.442222216145833  C 5.976920371601905 9.978174484662892  5.102617922014347 9.979044489761806  4.562201834862386 9.444166666666668  C 4.303230201853056 9.187121709050546  4.157721072491709 8.838349455731905  4.157721072491709 8.474662776874737  C 4.157721072491709 8.109834348117158  4.304142669199722 7.760064091420701  4.564550458715597 7.502833333333334  Z " fill-rule="nonzero" fill="#3d3d3d" stroke="none" transform="matrix(1 0 0 1 396 1509 )" />
  </g>
</svg>