<?xml version="1.0" encoding="utf-8"?>
<svg version="1.1" xmlns:xlink="http://www.w3.org/1999/xlink" width="20px" height="20px" xmlns="http://www.w3.org/2000/svg">
  <g transform="matrix(1 0 0 1 -2120 -792 )">
    <path d="M 1.688311681818182 0.025974022727272873  L 8.776519477272727 0.025974022727272873  C 8.895028015583922 0.025949839391352404  8.997181405787794 0.10934036336402642  9.020883113636364 0.2254545454545455  L 9.022545454545455 0.31189611363636355  L 7.950337659090909 7.491532477272727  C 7.9335414386849905 7.607666081665641  7.999989024964029 7.719796379962837  8.109922068181818 7.76083115909091  L 8.196363636363635 7.777454545454546  L 10.505350659090908 7.777454545454546  C 10.638032605726533 7.777265726861752  10.747625050703633 7.88101324969756  10.754701295454543 8.0135065  L 10.744727272727271 8.091636363636365  L 10 10.831168840909092  L 9.065766227272729 9.667532477272728  C 8.929672629496949 9.484135286796171  8.714781741563257 9.376004757444036  8.486404867011014 9.376004757444036  C 8.313405210711274 9.376004757444036  8.146165398848115 9.438169801585932  8.01516884090909 9.55116884090909  L 7.907116886363637 9.667532477272726  L 3.5152207727272726 15.392623386363638  C 3.1528311590909093 15.863064954545456  3.4254545454545453 16.542961045454547  3.9640519545454547 16.63937661363636  L 4.093714295454546 16.64935065909091  L 9.168831159090908 16.64935065909091  C 9.288887447630675 16.64979101247241  9.391585317198818 16.735721878833886  9.413194795454544 16.85381818181818  L 9.413194795454544 16.941922068181817  L 8.91116884090909 19.76789611363636  C 8.894635535389613 19.861529060601573  8.82629174097053 19.937609885689994  8.734961045454545 19.964051954545454  L 8.663480522727273 19.974025977272728  L 1.688311681818182 19.974025977272728  C 0.8455483282947547 19.973914803154436  0.13621368915152812 19.34315700961885  0.03761038636363652 18.506181818181815  L 0 18.31168831818182  L 0 1.688311681818182  C 0.02608519684556205 0.8455483282947567  0.6568429903811512 0.13621368915152682  1.493818181818182 0.03761038636363652  L 1.688311681818182 0.025974022727272873  Z M 12.190961045454545 0.025974022727272873  L 18.31168831818182 0.025974022727272873  C 19.229772056367146 0.025974022727272873  19.974025977272728 0.7702279436328525  20 1.688311681818182  L 20 18.31168831818182  C 19.97391480315444 19.154451671705242  19.34315700961885 19.86378631084847  18.50618181818182 19.962389613636365  L 18.31168831818182 19.974025977272728  L 9.850389613636363 19.974025977272728  C 9.71270073933987 19.97399248229292  9.60109961300523 19.86236420393046  9.60109961300523 19.72467532555988  C 9.60109961300523 19.68973801643491  9.608441502295992 19.655190635895284  9.62264934090909 19.623272727272727  L 10.887688318181816 16.797298704545458  C 10.927731280669695 16.707342200100086  11.016962274645884 16.64937462013675  11.115428568181818 16.64935065909091  L 15.906285704545455 16.64935065909091  C 16.518025954545454 16.64935065909091  16.867116863636365 15.921246772727272  16.49974025 15.410909090909088  L 13.530805204545453 11.284987022727272  C 13.421699566281761 11.129852476003917  13.256600279007952 11.023163765251766  13.070337659090907 10.98742856818182  L 12.937350659090907 10.975792204545456  L 12.804363636363629 10.98742856818182  C 12.617837166613 11.023577289342105  12.45269654578728 11.13088888404365  12.343896113636358 11.286649340909092  L 11.908363636363632 11.89174025  L 11.434597409090905 12.523428568181815  C 11.407656757943768 12.558696511112242  11.370510921103858 12.584814680244044  11.328207795454542 12.598233772727273  L 11.261714295454542 12.608207795454543  C 11.14257619381328 12.60790787091447  11.046154438687221 12.51124307303781  11.046154438687221 12.39210459387422  C 11.046154438687221 12.367170163533814  11.050469665114345 12.342423822541999  11.058909090909086 12.318961045454543  L 13.203324681818176 6.45090909090909  C 13.213552055390954 6.423236698406591  13.218787497859008 6.393968913027552  13.218787497859008 6.364467040595291  C 13.218787497859008 6.226754474219124  13.107149405144266 6.115116381504382  12.9694368387681 6.115116381504382  L 11.130389613636362 6.115116886363636  C 10.992913317013219 6.114783809227406  10.881643078759808 6.003243659218436  10.881643078759808 5.865766959106771  C 10.881643078759808 5.85014853960029  10.88311049323931 5.834564663392005  10.886025977272727 5.819220772727273  L 11.944935068181817 0.22877922727272643  C 11.967364469610642 0.11072779194343338  12.070798823227655 0.025464335316368582  12.190961045454545 0.025974022727272873  Z M 14.987012977272729 3.3506493409090914  C 14.068929232811435 3.3506493409090914  13.32467530681818 4.094903266902343  13.32467530681818 5.012987011363636  C 13.32467530681818 5.931070755824931  14.068929232811433 6.675324681818181  14.987012977272729 6.675324681818181  C 15.905096721734019 6.675324681818181  16.64935064772727 5.93107075582493  16.64935064772727 5.012987011363636  C 16.64935064772727 4.0949032669023415  15.905096721734022 3.3506493409090914  14.987012977272729 3.3506493409090914  Z " fill-rule="nonzero" fill="#d7d7d7" stroke="none" transform="matrix(1 0 0 1 2120 792 )" />
  </g>
</svg>