<?xml version="1.0" encoding="utf-8"?>
<svg version="1.1" xmlns:xlink="http://www.w3.org/1999/xlink" width="30px" height="30px" xmlns="http://www.w3.org/2000/svg">
  <g transform="matrix(1 0 0 1 -1485 -265 )">
    <path d="M 29.914772727272727 15  C 29.914772727272727 23.22441463955966  23.22441463955966 29.914772727272727  15 29.914772727272727  C 6.77558536044034 29.914772727272727  0.08522727272727273 23.22441463955966  0.08522727272727273 15  C 0.08522727272727273 6.77558536044034  6.77558536044034 0.08522727272727273  15 0.08522727272727273  C 23.22441463955966 0.08522727272727273  29.914772727272727 6.77558536044034  29.914772727272727 15  Z M 27.78409090909091 15  C 27.78409090909091 7.9506244562322435  22.049375543767756 2.215909090909091  15 2.215909090909091  C 7.950624456232245 2.215909090909091  2.215909090909091 7.950624456232245  2.215909090909091 15  C 2.215909090909091 22.049375543767756  7.950624456232245 27.78409090909091  15 27.78409090909091  C 22.049375543767756 27.78409090909091  27.78409090909091 22.049375543767756  27.78409090909091 15  Z M 19.984724553888498 15.79803935102983  C 20.30113406649503 15.485810336026276  20.379993064186788 15.025541847922584  20.221244251598016 14.638863614169033  C 20.220156139026987 14.634625721324573  20.214830166903408 14.63033056640625  20.212711203835227 14.626092706853694  C 20.16157024591619 14.505713911576704  20.091244295987217 14.390661088423297  19.993257568359375 14.291586248224432  C 19.99216945578835 14.29049813565341  19.9911386385831 14.29049813565341  19.990050526012077 14.289467318448152  C 19.988962413441055 14.28837920587713  19.988962413441055 14.287348388671875  19.9879315962358 14.286260276100851  L 14.697449507279833 8.98088831676136  C 14.281965121182532 8.56431581809304  13.60762623180043 8.562196888316759  13.191053733132108 8.978769386985082  C 12.774481234463783 9.394253773082385  12.773450417258527 10.068592662464487  13.188934803355828 10.485165161132809  L 17.726219005237926 15.035220303622157  L 13.151652865323154 19.559733598188917  C 12.732961436878552 19.974129871715196  12.72975439453125 20.647437943892044  13.14311981756037 21.066129372336643  C 13.35083336292614 21.27704999334162  13.625723111239349 21.38253891823508  13.900555597478695 21.38253891823508  C 14.171150190873583 21.38253891823508  14.441744784268467 21.279226185191757  14.649515591708099 21.07466242009943  L 19.984724553888498 15.79803935102983  Z " fill-rule="nonzero" fill="#999999" stroke="none" transform="matrix(1 0 0 1 1485 265 )" />
  </g>
</svg>