<?xml version="1.0" encoding="utf-8"?>
<svg version="1.1" xmlns:xlink="http://www.w3.org/1999/xlink" width="30px" height="30px" xmlns="http://www.w3.org/2000/svg">
  <g transform="matrix(1 0 0 1 -1540 -25 )">
    <path d="M 11.304408482142856 9.061104910714285  L 5.708705357142858 3.465401785714286  L 7.546037946428571 1.6280691964285714  C 7.742745535714286 1.431361607142857  7.625558035714282 1.0923549107142856  7.349330357142858 1.058872767857143  L 0.64453125 0.26785714285714285  C 0.43108258928571425 0.24274553571428573  0.24693080357142858 0.4227120535714278  0.27204241071428575 0.6403459821428572  L 1.0630580357142856 7.345145089285714  C 1.0965401785714286 7.621372767857145  1.435546875 7.738560267857143  1.6322544642857144 7.541852678571429  L 3.461216517857143 5.712890625000002  L 9.056919642857144 11.304408482142856  C 9.186662946428571 11.434151785714285  9.400111607142856 11.434151785714285  9.529854910714285 11.304408482142856  L 11.304408482142856 9.534040178571429  C 11.434151785714285 9.404296874999996  11.434151785714285 9.190848214285715  11.304408482142856 9.061104910714285  Z M 18.69559151785714 9.529854910714285  L 20.470145089285715 11.304408482142856  C 20.599888392857146 11.434151785714285  20.81333705357143 11.434151785714285  20.943080357142858 11.304408482142856  L 26.538783482142858 5.712890625000002  L 28.367745535714292 7.541852678571429  C 28.564453125000007 7.738560267857143  28.90345982142857 7.621372767857143  28.93694196428572 7.345145089285714  L 29.72795758928571 0.64453125  C 29.75306919642857 0.43108258928571425  29.57310267857143 0.24693080357142858  29.35546875 0.27204241071428575  L 22.650669642857142 1.0630580357142856  C 22.37444196428571 1.0965401785714286  22.25725446428571 1.435546875  22.453962053571423 1.6322544642857144  L 24.291294642857135 3.469587053571429  L 18.69559151785714 9.056919642857144  C 18.56584821428571 9.186662946428571  18.56584821428571 9.400111607142856  18.69559151785714 9.529854910714285  Z M 29.72795758928571 29.359654017857142  L 28.93694196428571 22.65485491071429  C 28.90345982142857 22.378627232142858  28.564453125 22.261439732142858  28.36774553571429 22.45814732142857  L 26.538783482142858 24.287109375  L 20.943080357142858 18.69559151785714  C 20.81333705357143 18.56584821428571  20.59988839285714 18.56584821428571  20.470145089285715 18.69559151785714  L 18.695591517857146 20.46595982142857  C 18.565848214285715 20.595703124999996  18.565848214285715 20.809151785714285  18.695591517857146 20.938895089285708  L 24.291294642857142 26.53459821428571  L 22.45396205357143 28.37193080357143  C 22.25725446428571 28.568638392857142  22.37444196428571 28.90764508928571  22.650669642857142 28.941127232142858  L 29.35546875 29.732142857142858  C 29.56891741071429 29.75725446428571  29.75306919642857 29.57728794642857  29.72795758928571 29.359654017857142  Z M 11.304408482142856 20.470145089285715  L 9.529854910714285 18.69559151785714  C 9.400111607142856 18.56584821428571  9.186662946428571 18.56584821428571  9.056919642857144 18.69559151785714  L 3.461216517857143 24.287109375  L 1.6322544642857157 22.45814732142857  C 1.4355468750000016 22.26143973214285  1.0965401785714286 22.378627232142858  1.0630580357142871 22.65485491071429  L 0.27204241071428575 29.35546875  C 0.24693080357142858 29.56891741071429  0.4268973214285707 29.75306919642857  0.64453125 29.72795758928571  L 7.349330357142858 28.93694196428571  C 7.625558035714286 28.90345982142857  7.742745535714286 28.564453125  7.546037946428571 28.36774553571429  L 5.708705357142858 26.53459821428571  L 11.304408482142856 20.943080357142858  C 11.434151785714285 20.81333705357143  11.434151785714285 20.59988839285714  11.304408482142856 20.470145089285715  Z " fill-rule="nonzero" fill="#000000" stroke="none" transform="matrix(1 0 0 1 1540 25 )" />
  </g>
</svg>