<?xml version="1.0" encoding="utf-8"?>
<svg version="1.1" xmlns:xlink="http://www.w3.org/1999/xlink" width="26px" height="26px" xmlns="http://www.w3.org/2000/svg">
  <g transform="matrix(1 0 0 1 -5313 -235 )">
    <path d="M 25.059073466435184 13.367450181568284  C 25.059073466435184 6.493817260561341  19.487418080150462 0.9250487601273132  12.616672044994212 0.9250487601273147  C 5.745926009837962 0.9250487601273147  0.1742706235532393 6.493817288773148  0.17427059534143405 13.367450181568287  C 0.17427056712962835 20.241083074363427  5.743039123987266 25.80985160300926  12.616672044994212 25.80985163122106  C 19.490304966001162 25.809851659432866  25.059073466435184 20.241083102575228  25.059073466435184 13.367450181568284  Z M 20.136963390480325 8.832180439814817  C 20.578654217303242 9.265210665509262  20.578654217303242 9.975380211950233  20.142737133969902 10.411297267071758  L 11.79391462745949 18.76011977358218  C 11.57451265697338 18.97952174406829  11.288712706886574 19.08922272931134  11.002912785011574 19.08922272931134  C 10.717112834924768 19.08922272931134  10.43131291304977 18.97952174406829  10.21191091435185 18.76011977358218  L 6.115445113570603 14.666540830439816  C 5.67664117259838 14.230623747106481  5.67664117259838 13.520454200665508  6.115445113570603 13.084537117332177  C 6.554249054542826 12.645733176359954  7.261531743344909 12.645733176359954  7.69744882667824 13.084537117332177  L 11.00002589916088 16.38711421802662  L 18.554959677372683 8.832180439814817  C 18.993763618344907 8.393376498842592  19.701046307146992 8.393376498842592  20.136963390480325 8.832180439814817  Z " fill-rule="nonzero" fill="#e7772d" stroke="none" transform="matrix(1 0 0 1 5313 235 )" />
  </g>
</svg>