<?xml version="1.0" encoding="utf-8"?>
<svg version="1.1" xmlns:xlink="http://www.w3.org/1999/xlink" width="26px" height="26px" xmlns="http://www.w3.org/2000/svg">
  <g transform="matrix(1 0 0 1 -5313 -592 )">
    <path d="M 5326 593  C 5332.72 593  5338 598.28  5338 605  C 5338 611.72  5332.72 617  5326 617  C 5319.28 617  5314 611.72  5314 605  C 5314 598.28  5319.28 593  5326 593  Z " fill-rule="nonzero" fill="#ffffff" stroke="none" fill-opacity="0" />
    <path d="M 5326 593  C 5332.72 593  5338 598.28  5338 605  C 5338 611.72  5332.72 617  5326 617  C 5319.28 617  5314 611.72  5314 605  C 5314 598.28  5319.28 593  5326 593  Z " stroke-width="2" stroke="#999999" fill="none" />
  </g>
</svg>