<?xml version="1.0" encoding="utf-8"?>
<svg version="1.1" xmlns:xlink="http://www.w3.org/1999/xlink" width="11px" height="11px" xmlns="http://www.w3.org/2000/svg">
  <g transform="matrix(1 0 0 1 -655 -1422 )">
    <path d="M 11 0  L 0 0  L 0 11  L 11 11  L 11 0  Z M 6.628346153846154 6.253  L 4.089884615384615 6.253  L 4.089884615384615 3.753  L 6.628346153846154 3.753  L 6.628346153846154 6.253  Z M 4.089884615384617 7.253  L 6.628346153846154 7.253  L 6.628346153846154 10  L 4.089884615384617 10  L 4.089884615384617 7.253  Z M 0.8461538461538463 6.253  L 0.8461538461538463 3.753  L 3.243730769230769 3.753  L 3.243730769230769 6.253  L 0.8461538461538463 6.253  Z M 7.474500000000001 6.253  L 7.474500000000001 3.753  L 10.153846153846155 3.753  L 10.153846153846155 6.253  L 7.474500000000001 6.253  Z M 0.8461538461538463 1  L 10.153846153846155 1  L 10.153846153846155 2.7529999999999997  L 0.8461538461538463 2.7529999999999997  L 0.8461538461538463 1  Z M 0.8461538461538463 10  L 0.8461538461538463 7.253  L 3.243730769230769 7.253  L 3.243730769230769 10  L 0.8461538461538463 10  Z M 10.153846153846155 10  L 7.474500000000001 10  L 7.474500000000001 7.253  L 10.153846153846155 7.253  L 10.153846153846155 10  Z " fill-rule="nonzero" fill="#7f7f7f" stroke="none" transform="matrix(1 0 0 1 655 1422 )" />
  </g>
</svg>