<?xml version="1.0" encoding="utf-8"?>
<svg version="1.1" xmlns:xlink="http://www.w3.org/1999/xlink" width="26px" height="26px" xmlns="http://www.w3.org/2000/svg">
  <g transform="matrix(1 0 0 1 -1220 -202 )">
    <path d="M 1233 202  C 1240.28 202  1246 207.72  1246 215  C 1246 222.28  1240.28 228  1233 228  C 1225.72 228  1220 222.28  1220 215  C 1220 207.72  1225.72 202  1233 202  Z " fill-rule="nonzero" fill="#ffffff" stroke="none" />
    <path d="M 1233 202.5  C 1240 202.5  1245.5 208  1245.5 215  C 1245.5 222  1240 227.5  1233 227.5  C 1226 227.5  1220.5 222  1220.5 215  C 1220.5 208  1226 202.5  1233 202.5  Z " stroke-width="1" stroke="#797979" fill="none" />
  </g>
</svg>