<?xml version="1.0" encoding="utf-8"?>
<svg version="1.1" xmlns:xlink="http://www.w3.org/1999/xlink" width="22px" height="22px" xmlns="http://www.w3.org/2000/svg">
  <g transform="matrix(1 0 0 1 -1485 -24 )">
    <path d="M 21.853333333333335 22  C 21.677333333333333 16.39  14.989333333333335 17.7925  13.991999999999997 15.235  C 13.904 14.3825  13.933333333333334 13.75  13.933333333333334 12.9525  C 14.343999999999998 12.7325  15.810666666666666 11.412500000000001  15.927999999999999 10.3125  C 16.250666666666667 10.285  16.778666666666666 9.9825  16.925333333333334 8.772499999999999  C 17.013333333333332 8.14  16.690666666666665 7.755  16.48533333333333 7.645  C 17.013333333333332 6.1324999999999985  17.247999999999998 1.4024999999999994  13.551999999999998 0.9349999999999996  C 13.170666666666667 0.32999999999999996  12.202666666666666 0  10.941333333333334 0  C 5.895999999999999 0.08249999999999999  4.4 3.6300000000000003  5.514666666666666 7.6725  C 5.309333333333334 7.782500000000001  4.986666666666666 8.14  5.074666666666666 8.8  C 5.221333333333333 10.01  5.7493333333333325 10.3125  6.071999999999999 10.34  C 6.189333333333333 11.4675  7.656 12.787500000000001  8.066666666666666 12.980000000000002  C 8.066666666666666 13.777500000000002  8.096 14.3825  8.008 15.262500000000003  C 7.010666666666667 17.7925  0.46933333333333327 16.4725  0.14666666666666664 22  L 21.853333333333335 22  Z " fill-rule="nonzero" fill="#ffffff" stroke="none" transform="matrix(1 0 0 1 1485 24 )" />
  </g>
</svg>