<?xml version="1.0" encoding="utf-8"?>
<svg version="1.1" xmlns:xlink="http://www.w3.org/1999/xlink" width="40px" height="40px" xmlns="http://www.w3.org/2000/svg">
  <g transform="matrix(1 0 0 1 -1416 -15 )">
    <path d="M 1436 15  C 1447.2 15  1456 23.799999999999997  1456 35  C 1456 46.2  1447.2 55  1436 55  C 1424.8 55  1416 46.2  1416 35  C 1416 23.799999999999997  1424.8 15  1436 15  Z " fill-rule="nonzero" fill="#ffffff" stroke="none" />
    <path d="M 1436 15.5  C 1446.92 15.5  1455.5 24.08  1455.5 35  C 1455.5 45.92  1446.92 54.5  1436 54.5  C 1425.08 54.5  1416.5 45.92  1416.5 35  C 1416.5 24.08  1425.08 15.5  1436 15.5  Z " stroke-width="1" stroke="#999999" fill="none" />
  </g>
</svg>