<?xml version="1.0" encoding="utf-8"?>
<svg version="1.1" xmlns:xlink="http://www.w3.org/1999/xlink" width="15px" height="18px" xmlns="http://www.w3.org/2000/svg">
  <g transform="matrix(1 0 0 1 -1429 -26 )">
    <path d="M 15 16.771428571428572  C 15 17.428571428571427  14.481818181818182 17.971428571428575  13.854545454545454 18  L 1.2272727272727273 18  C 0.6 17.97142857142857  0.08181818181818178 17.428571428571427  0 16.77142857142857  L 0 3.5999999999999996  C 0.08181818181818178 2.942857142857143  0.5999999999999998 2.3999999999999995  1.2272727272727273 2.3999999999999995  L 1.7999999999999998 2.3999999999999995  L 1.7999999999999998 4.199999999999999  C 1.7999999999999998 4.857142857142857  2.3181818181818183 5.3999999999999995  2.9454545454545458 5.3999999999999995  L 12.122727272727273 5.3999999999999995  C 12.75 5.3999999999999995  13.26818181818182 4.857142857142857  13.26818181818182 4.199999999999999  L 13.26818181818182 2.4  L 13.840909090909092 2.4  C 14.468181818181817 2.4  14.986363636363636 2.942857142857143  15 3.6  L 15 16.771428571428572  Z M 11.290909090909091 11.04285714285714  C 11.631818181818181 10.714285714285712  11.631818181818181 10.171428571428569  11.290909090909091 9.828571428571427  C 10.95 9.485714285714284  10.404545454545454 9.485714285714284  10.063636363636363 9.828571428571427  L 6.995454545454544 12.885714285714284  L 5.5636363636363635 11.457142857142856  C 5.222727272727273 11.114285714285712  4.677272727272727 11.114285714285712  4.336363636363636 11.457142857142856  C 3.995454545454545 11.8  3.995454545454545 12.342857142857142  4.336363636363636 12.67142857142857  L 6.381818181818181 14.7  C 6.722727272727273 15.042857142857143  7.268181818181818 15.042857142857143  7.6090909090909085 14.7  L 11.290909090909091 11.04285714285714  Z M 11.55 3  C 11.55 3.6714285714285713  11.045454545454545 4.199999999999999  10.404545454545454 4.199999999999999  L 4.677272727272727 4.199999999999999  C 4.05 4.199999999999999  3.5318181818181817 3.6571428571428566  3.5318181818181817 3  L 3.5318181818181817 2.4  C 5.822727272727272 0.6428571428571428  5.8500000000000005 0.6142857142857142  6.45 0.0142857142857143  L 8.727272727272727 0.0142857142857143  C 9.286363636363635 0.5714285714285714  9.272727272727273 0.6428571428571428  11.55 2.4  L 11.55 3  Z M 8.686363636363637 2.414285714285714  C 8.686363636363637 1.7428571428571427  8.168181818181818 1.214285714285714  7.54090909090909 1.2142857142857142  C 6.913636363636363 1.2142857142857142  6.395454545454545 1.7571428571428571  6.395454545454545 2.414285714285714  C 6.395454545454545 3.0714285714285716  6.913636363636363 3.614285714285714  7.54090909090909 3.614285714285714  C 8.168181818181816 3.614285714285714  8.686363636363637 3.071428571428571  8.686363636363637 2.414285714285714  Z " fill-rule="nonzero" fill="#999999" stroke="none" transform="matrix(1 0 0 1 1429 26 )" />
  </g>
</svg>