<?xml version="1.0" encoding="utf-8"?>
<svg version="1.1" xmlns:xlink="http://www.w3.org/1999/xlink" width="20px" height="18px" xmlns="http://www.w3.org/2000/svg">
  <g transform="matrix(1 0 0 1 -50 -279 )">
    <path d="M 11.319599109131405 15.128004807692308  C 11.390126206384558 15.059495192307693  11.425389755011135 14.974759615384613  11.425389755011135 14.873798076923077  L 11.425389755011135 12.818509615384617  C 11.425389755011135 12.717548076923077  11.390126206384558 12.6328125  11.319599109131405 12.564302884615383  C 11.24907201187825 12.49579326923077  11.165553080920565 12.461538461538462  11.069042316258352 12.461538461538462  L 8.930957683741648 12.461538461538462  C 8.834446919079436 12.461538461538462  8.750927988121752 12.49579326923077  8.680400890868597 12.564302884615383  C 8.609873793615442 12.6328125  8.574610244988865 12.717548076923077  8.574610244988865 12.818509615384617  L 8.574610244988865 14.873798076923077  C 8.574610244988865 14.974759615384613  8.609873793615442 15.059495192307693  8.680400890868597 15.128004807692308  C 8.750927988121752 15.196514423076922  8.834446919079436 15.23076923076923  8.930957683741648 15.23076923076923  L 11.069042316258352 15.23076923076923  C 11.165553080920565 15.23076923076923  11.24907201187825 15.196514423076922  11.319599109131405 15.128004807692308  Z M 11.28619153674833 11.006610576923077  C 11.356718634001485 10.959735576923077  11.395694135115072 10.900240384615385  11.403118040089087 10.828125  L 11.603563474387528 5.862980769230769  C 11.603563474387528 5.776442307692308  11.566443949517446 5.707932692307691  11.492204899777283 5.6574519230769225  C 11.395694135115074 5.578124999999998  11.306607275426877 5.538461538461538  11.224944320712694 5.538461538461538  L 8.775055679287306 5.538461538461538  C 8.693392724573126 5.538461538461538  8.60430586488493 5.578124999999998  8.507795100222717 5.6574519230769225  C 8.433556050482554 5.707932692307691  8.396436525612472 5.783653846153843  8.396436525612472 5.884615384615383  L 8.585746102449889 10.828125  C 8.585746102449889 10.900240384615385  8.622865627319971 10.959735576923077  8.697104677060134 11.006610576923077  C 8.771343726800298 11.053485576923075  8.860430586488494 11.076923076923077  8.96436525612472 11.076923076923077  L 11.024498886414253 11.076923076923077  C 11.128433556050483 11.076923076923077  11.215664439495175 11.053485576923075  11.28619153674833 11.006610576923077  Z M 10.723830734966594 0.19471153846153877  C 10.946547884187083 0.3245192307692306  11.121009651076468 0.5012019230769218  11.247216035634743 0.7247596153846163  L 19.79955456570156 15.955528846153847  C 20.059391239792134 16.40985576923077  20.051967334818116 16.864182692307693  19.77728285077951 17.318509615384617  C 19.651076466221234 17.52764423076923  19.478470675575355 17.693509615384617  19.25946547884187 17.81610576923077  C 19.04046028210839 17.938701923076923  18.804751299183373 18  18.552338530066812 18  L 1.447661469933185 18  C 1.1952487008166295 18  0.9595397178916111 17.938701923076923  0.7405345211581292 17.81610576923077  C 0.5215293244246474 17.693509615384617  0.34892353377876767 17.52764423076923  0.22271714922048996 17.318509615384617  C -0.05196733481811434 16.864182692307693  -0.05939123979213068 16.40985576923077  0.200445434298441 15.955528846153847  L 8.752783964365257 0.7247596153846163  C 8.878990348923535 0.5012019230769218  9.053452115812918 0.3245192307692306  9.276169265033406 0.19471153846153877  C 9.4988864142539 0.06490384615384692  9.740163325909428 0  10 0  C 10.259836674090572 0  10.501113585746102 0.06490384615384692  10.723830734966594 0.19471153846153877  Z " fill-rule="nonzero" fill="#e7772d" stroke="none" transform="matrix(1 0 0 1 50 279 )" />
  </g>
</svg>