<?xml version="1.0" encoding="utf-8"?>
<svg version="1.1" xmlns:xlink="http://www.w3.org/1999/xlink" width="16px" height="16px" xmlns="http://www.w3.org/2000/svg">
  <g transform="matrix(1 0 0 1 -2394 -15 )">
    <path d="M 15.572599629629627 14.504334864197533  L 9.020043432098767 7.932070716049384  L 15.570178567901234 1.4159148148148155  C 15.879899308641974 1.1077656049382725  15.881470864197532 0.608398246913581  15.573321654320987 0.2986774814814823  C 15.264365432098764 -0.011850271604937096  14.765805086419752 -0.012614814814813925  14.456084320987653 0.2955343950617292  L 7.904377654320988 6.812454839506173  L 1.4095861975308646 0.29787049382716013  C 1.1022440000000002 -0.01027871604938293  0.60206962962963 -0.011850246913580538  0.2923488641975313 0.29629896296296254  C -0.0166073580246912 0.6044481728395056  -0.017371876543209364 1.1045800740740739  0.2907773333333337 1.4143433086419752  L 6.78399725925926 7.9273136543209874  L 0.23704767901234605 14.439519456790123  C -0.07267306172839465 14.747668666666666  -0.07424461728395022 15.247036024691358  0.23390459259259286 15.556756790123456  C 0.3879579506172841 15.711617160493825  0.591026370370371 15.78985437037037  0.7940947901234571 15.78985437037037  C 0.9955916790123462 15.78985437037037  1.1970460740740743 15.713231185185185  1.351141925925926 15.559942345679014  L 7.899705530864198 9.046164987654322  L 14.453790765432098 15.62000064197531  C 14.607844123456788 15.77486101234568  14.810148024691356 15.852291209876546  15.013216444444444 15.852291209876546  C 15.215477851851851 15.852291209876546  15.416974740740741 15.77486101234568  15.571028098765431 15.621572197530867  C 15.879984320987655 15.313422987654324  15.880748839506172 14.814055629629632  15.572599629629627 14.504334864197533  Z " fill-rule="nonzero" fill="#555555" stroke="none" transform="matrix(1 0 0 1 2394 15 )" />
  </g>
</svg>