<?xml version="1.0" encoding="utf-8"?>
<svg version="1.1" xmlns:xlink="http://www.w3.org/1999/xlink" width="50px" height="50px" xmlns="http://www.w3.org/2000/svg">
  <g transform="matrix(1 0 0 1 -1837 -98 )">
    <path d="M 49.81563214285715 25.042314174107144  C 49.81563214285715 38.729263002232145  38.70767762276786 49.82676746651786  25.004511216517855 49.82676746651786  C 11.302601116071427 49.82676746651786  0.19858677455356794 38.729205915178575  0.19858677455356794 25.042314174107144  C 0.19858677455356794 14.536465736607143  6.73775323660714 5.560836886160717  15.972863225446424 1.9537396763392882  C 18.763199944196423 0.8281028459821451  21.811647377232138 0.2064671875000027  25.005139341517857 0.2064671875000027  C 28.202571484375 0.2064671875000027  31.248392131696427 0.8274747209821456  34.041355636160716 1.9537396763392882  C 43.275894642857146 5.560836886160714  49.81563214285715 14.536522823660714  49.81563214285715 25.042314174107144  Z M 15.469547377232143 19.815400892857145  C 15.469547377232143 23.992111941964286  17.609582142857143 27.60828872767857  20.72050150669643 29.378345814732143  C 22.01065535714286 30.112476618303575  23.46332756696429 30.53584676339286  25.004511216517855 30.53584676339286  C 26.491617243303573 30.53584676339286  27.89363811383928 30.13982957589286  29.149986272321428 29.45572193080358  C 32.334398660714285 27.719470535714297  34.543415234375004 24.05909514508929  34.543415234375004 19.816086160714292  C 34.543415234375004 13.908320200892863  30.265287220982145 9.099580524553577  25.00456830357143 9.099580524553577  C 19.747047209821428 9.09895234375  15.469547377232143 13.907749107142855  15.469547377232143 19.815400892857145  Z M 25.10530005580357 48.22065641741071  C 32.353243080357146 48.22065641741071  38.81885943080357 44.88737354910714  43.056671875 39.67091026785714  C 42.556039899553575 35.55598588169642  38.54635842633929 32.05298950892857  32.87152025669643 30.305659933035713  C 30.728230524553574 32.233724107142855  27.989915680803573 33.39385184151786  25.00382600446428 33.39385184151786  C 21.95143839285714 33.39385184151786  19.157275669642853 32.171309319196425  16.993142968749993 30.15935909598214  C 11.472942801339281 31.734919419642853  7.429569921874994 34.948626283482135  6.481527008928567 38.79950106026786  C 10.686790066964287 44.512142187500004  17.46459469866071 48.22065641741071  25.10530005580357 48.22065641741071  Z " fill-rule="nonzero" fill="#cccccc" stroke="none" transform="matrix(1 0 0 1 1837 98 )" />
  </g>
</svg>