<?xml version="1.0" encoding="utf-8"?>
<svg version="1.1" xmlns:xlink="http://www.w3.org/1999/xlink" width="8px" height="8px" xmlns="http://www.w3.org/2000/svg">
  <g transform="matrix(1 0 0 1 -299 -1047 )">
    <path d="M 303 1047  C 305.24 1047  307 1048.76  307 1051  C 307 1053.24  305.24 1055  303 1055  C 300.76 1055  299 1053.24  299 1051  C 299 1048.76  300.76 1047  303 1047  Z " fill-rule="nonzero" fill="#e7772d" stroke="none" />
    <path d="M 303 1047.5  C 304.96 1047.5  306.5 1049.04  306.5 1051  C 306.5 1052.96  304.96 1054.5  303 1054.5  C 301.04 1054.5  299.5 1052.96  299.5 1051  C 299.5 1049.04  301.04 1047.5  303 1047.5  Z " stroke-width="1" stroke="#e7772d" fill="none" />
  </g>
</svg>