<?xml version="1.0" encoding="utf-8"?>
<svg version="1.1" xmlns:xlink="http://www.w3.org/1999/xlink" width="22px" height="20px" xmlns="http://www.w3.org/2000/svg">
  <g transform="matrix(1 0 0 1 -1130 -1697 )">
    <path d="M 5.371189075630253 8  L 16.506193277310924 8  C 16.512455882352942 7.65816513761468  16.518764705882354 7.660802752293579  16.525096638655462 7.663325688073396  L 10.953319327731093 19.853807339449542  L 10.948420168067228 19.86341743119266  C 10.92498693546259 19.90522992959043  10.880564904462625 19.93115653032012  10.832357580737595 19.93115653032012  C 10.77974925946447 19.93115653032012  10.732099803334915 19.90033637589258  10.710857142857144 19.852568807339452  L 5.32968487394958 7.752912844036698  C 5.344475262832138 7.738291012369514  5.358336663476406 7.722771859777017  5.371189075630253 8  Z M 0.02310924369747899 7.730940366972478  L 4.555779411764708 7.710183486238532  L 9.590867647058824 19.031651376146787  L 0.02310924369747899 7.730940366972478  Z M 17.28871848739496 7.651811926605506  L 21.884476890756304 7.630733944954128  L 12.09131092436975 19.023188073394493  L 17.28871848739496 7.651811926605506  Z M 0.07219327731092426 7.04532110091743  L 4.63915756302521 0.8939220183486238  L 4.478409663865547 7.025114678899081  L 0.07219327731092426 7.04532110091743  Z M 10.422176470588235 0.5330963302752292  L 10.431027310924371 0.520894495412844  C 10.593207983193277 0.30438073394495413  10.900607142857144 0.25380733944954137  11.124951680672268 0.40935779816513757  C 11.17170964424366 0.44178060675830083  11.212591326512996 0.4818358273129145  11.24585924369748 0.5278211009174314  L 15.90884243697479 7  L 5.8561596638655455 7  L 10.422176470588235 0.5330963302752292  Z M 17.364724789915968 6.966055045871559  L 17.364724789915968 0.8436697247706421  L 21.67651680672269 6.946307339449541  L 17.364724789915968 6.966055045871559  Z M 11.761056722689075 0.06878440366972466  L 16.67408193277311 0.5700917431192659  L 16.67408193277311 6.855298165137615  L 11.806836134453782 0.1280733944954129  L 11.789689075630253 0.10495412844036714  C 11.780373765342114 0.09271481547885112  11.770820147981972 0.0806559727964014  11.76103361344538 0.06878440366972499  Z M 5.338466386554622 0.5715366972477061  L 9.906170168067225 0.07428899082568785  C 9.888693118946668 0.09579831933508497  9.871967522339222 0.11789857024797903  9.856023109243697 0.14055045871559602  L 5.175430672268907 6.789036697247707  L 5.338466386554622 0.5715366972477061  Z " fill-rule="nonzero" fill="#c28105" stroke="none" transform="matrix(1 0 0 1 1130 1697 )" />
  </g>
</svg>