<?xml version="1.0" encoding="utf-8"?>
<svg version="1.1" xmlns:xlink="http://www.w3.org/1999/xlink" width="30px" height="30px" xmlns="http://www.w3.org/2000/svg">
  <g transform="matrix(1 0 0 1 -659 -2187 )">
    <path d="M 28.914315538194444 15.423980978732635  C 28.914315538194444 7.492866069878471  22.48548240017361 1.0673639539930537  14.55769851345486 1.0673639539930555  C 6.62991462673611 1.0673639539930555  0.20108148871527615 7.492866102430555  0.20108145616319312 15.423980978732638  C 0.20108142361110964 23.355095855034726  6.626583604600692 29.780598003472225  14.55769851345486 29.7805980360243  C 22.48881342230903 29.780598068576385  28.914315538194444 23.355095887586803  28.914315538194444 15.423980978732635  Z M 23.23495775824653 10.190977430555556  C 23.74460101996528 10.690627690972224  23.74460101996528 11.510054090711808  23.241619769965276 12.01303530815972  L 13.608363031684028 21.646292046440976  C 13.355206911892362 21.89944816623264  13.025437738715278 22.026026226128472  12.695668598090277 22.026026226128472  C 12.365899424913193 22.026026226128472  12.036130284288195 21.89944816623264  11.782974131944444 21.646292046440976  L 7.056282823350696 16.92293172743056  C 6.549970583767362 16.419950477430554  6.549970583767362 15.600524077690972  7.056282823350696 15.097542827690972  C 7.5625950629340295 14.59123058810764  8.37869047309028 14.59123058810764  8.881671723090276 15.097542827690972  L 12.692337575954861 18.90820871310764  L 21.409568858506944 10.190977430555556  C 21.915881098090278 9.684665190972222  22.73197650824653 9.684665190972222  23.23495775824653 10.190977430555556  Z " fill-rule="nonzero" fill="#0fc060" stroke="none" transform="matrix(1 0 0 1 659 2187 )" />
  </g>
</svg>