<?xml version="1.0" encoding="utf-8"?>
<svg version="1.1" xmlns:xlink="http://www.w3.org/1999/xlink" width="20px" height="20px" xmlns="http://www.w3.org/2000/svg">
  <g transform="matrix(1 0 0 1 -243 -1766 )">
    <path d="M 253 1766  C 258.6 1766  263 1770.4  263 1776  C 263 1781.6  258.6 1786  253 1786  C 247.4 1786  243 1781.6  243 1776  C 243 1770.4  247.4 1766  253 1766  Z " fill-rule="nonzero" fill="#ffffff" stroke="none" />
    <path d="M 253 1766.5  C 258.32 1766.5  262.5 1770.68  262.5 1776  C 262.5 1781.32  258.32 1785.5  253 1785.5  C 247.68 1785.5  243.5 1781.32  243.5 1776  C 243.5 1770.68  247.68 1766.5  253 1766.5  Z " stroke-width="1" stroke="#797979" fill="none" />
  </g>
</svg>