<?xml version="1.0" encoding="utf-8"?>
<svg version="1.1" xmlns:xlink="http://www.w3.org/1999/xlink" width="16px" height="16px" xmlns="http://www.w3.org/2000/svg">
  <g transform="matrix(1 0 0 1 -643 -418 )">
    <path d="M 15.998630125 6.991401359375  L 15.935635515625 6.991401359375  L 15.936635421875 6.999400671875  L 13.86681265625 6.999400671875  L 13.865812734375 6.991401359375  L 8.94923371875 6.991401359375  L 12.200955296875001 3.7666774843749997  C 11.075260747663577 2.637203025897709  9.546220839933762 2.0023521628806336  7.951573301925164 2.0023521628806336  C 4.638148513342281 2.0023521628806336  1.9520870050501633 4.688413671172751  1.9520870050501633 8.001838459755634  C 1.9520870050501633 11.315263248338518  4.638148513342281 14.001324756630634  7.951573301925164 14.001324756630634  C 10.495035803921107 14.001324756630634  12.76208370197631 12.397521229980315  13.60883475 9.999143828125  L 15.746651687499996 9.999143828125  C 14.835225872770673 13.531659684917065  11.649195173627737 15.999998914344804  8.000994892085837 15.999998914344804  C 3.583095173975327 15.999998914344804  0.001679829585837576 12.418583569955315  0.001679829585837576 8.000683851844805  C 0.001679829585837576 3.5827841337342945  3.583095173975327 0.0013687893448054572  8.000994892085837 0.0013687893448054572  C 10.117388500195132 0.0013687893448054572  12.14753356893088 0.840070723416943  13.646831484374998 2.3338001718749997  L 15.998630125 0  L 15.998630125 6.991401359375  Z " fill-rule="nonzero" fill="#e7772d" stroke="none" transform="matrix(1 0 0 1 643 418 )" />
  </g>
</svg>