<?xml version="1.0" encoding="utf-8"?>
<svg version="1.1" xmlns:xlink="http://www.w3.org/1999/xlink" width="18px" height="18px" preserveAspectRatio="xMinYMid meet" viewBox="2269 1349  18 16" xmlns="http://www.w3.org/2000/svg">
  <path d="M 2088.5 1360  L 2088.5 1355  A 5 5 0 0 1 2093.5 1350.5 L 2266.5 1350.5  A 3.5 3.5 0 0 1 2270.5 1354 A 3.5 3.5 0 0 0 2274 1357.5 L 2280 1357.5  " stroke-width="1" stroke-dasharray="9,4" stroke="#e7772d" fill="none" />
  <path d="M 2278 1354.5  A 3 3 0 0 0 2275 1357.5 A 3 3 0 0 0 2278 1360.5 A 3 3 0 0 0 2281 1357.5 A 3 3 0 0 0 2278 1354.5 Z " fill-rule="nonzero" fill="#e7772d" stroke="none" />
</svg>