<?xml version="1.0" encoding="utf-8"?>
<svg version="1.1" xmlns:xlink="http://www.w3.org/1999/xlink" width="14px" height="14px" xmlns="http://www.w3.org/2000/svg">
  <g transform="matrix(1 0 0 1 -464 -958 )">
    <path d="M 13.922573913043477 8.58955698924731  C 13.9198959474825 9.781944099786527  12.943434796523336 10.747905668477312  11.73808695652174 10.750554838709677  C 11.331451701411538 10.750554838709677  11.001808695652173 10.42445638139934  11.001808695652173 10.022193548387099  C 11.001808695652173 9.619930715374858  11.331451701411538 9.293832258064516  11.73808695652174 9.293832258064516  C 12.131275278592584 9.293832258064516  12.450017391304346 8.978517479898038  12.450017391304346 8.589556989247313  L 12.450017391304346 2.277092473118279  C 12.450017391304346 1.888131982467557  12.131275278592577 1.5728172043010749  11.73808695652174 1.5728172043010749  L 5.3570086956521745 1.5728172043010749  C 4.963820373581333 1.5728172043010749  4.645078260869565 1.8881319824675553  4.645078260869565 2.277092473118279  C 4.645078260869565 2.6793553061305198  4.315435255110199 3.00545376344086  3.9088000000000003 3.00545376344086  C 3.5021647448898 3.00545376344086  3.172521739130435 2.6793553061305198  3.1725217391304334 2.277092473118279  C 3.1751997046914116 1.084705362579065  4.151660855650575 0.11874379388827813  5.357008695652174 0.1160946236559135  L 11.738086956521736 0.11609462365591296  C 12.943434796523333 0.11874379388827759  13.9198959474825 1.084705362579065  13.922573913043477 2.277092473118279  L 13.922573913043477 8.58955698924731  Z M 10.780730434782607 11.624395698924733  C 10.805078260869564 12.88746666666667  9.750330434782608 13.90775053763441  8.473530434782608 13.90775053763441  L 2.362226086956522 13.90775053763441  C 2.3612515561750977 13.907751760793369  2.360277024710463 13.907752372373029  2.359302493144653 13.907752372373029  C 1.0866847502997696 13.907752372373029  0.05502423227508812 12.887184978198077  0.05502423227508812 11.628251297104214  C 0.05502423227508812 11.627287244373507  0.05502485050235714 11.6263231917397  0.05502608695652217 11.62535913978495  L 0.05502608695652163 5.55568172043011  C 0.055023889510383145 5.554396521582351  0.055022790786725694 5.553111321127111  0.055022790786725694 5.55182612044093  C 0.055022790786725694 4.292892439347066  1.0866833088114072 3.2723250451721126  2.359301051656291 3.2723250451721126  C 2.3602760637174645 3.2723250451721126  2.361251075680897 3.272325657355009  2.362226086956522 3.2723268817204323  L 8.473530434782608 3.2723268817204314  C 8.474504965562417 3.2723256585614733  8.475479497030278 3.2723250469818086  8.476454028594476 3.2723250469818086  C 9.74907177143936 3.2723250469818086  10.78073228946404 4.292892441156763  10.78073228946404 5.551826122250626  C 10.78073228946404 5.552790174981863  10.780731671236772 5.5537542276146095  10.780730434782607 5.554718279569895  L 10.780730434782607 11.624395698924733  Z M 8.473530434782608 4.729049462365591  L 2.362226086956522 4.729049462365591  C 2.359944236726141 4.729030794897019  2.35766231822331 4.7290214610430485  2.355380389967432 4.7290214610430485  C 1.8981846666292446 4.7290214610430485  1.52755430301091 5.095666551934305  1.52755430301091 5.547946192225845  C 1.52755430301091 5.550203583618872  1.527563738319812 5.5524609653633785  1.5275826086956525 5.554718279569892  L 1.5275826086956525 11.624395698924733  C 1.527563738319813 11.626653013131191  1.52755430301091 11.628910394875808  1.52755430301091 11.631167786268778  C 1.52755430301091 12.08344742656032  1.8981846666292446 12.450092517451573  2.355380389967432 12.450092517451573  C 2.3576623182233694 12.450092517451573  2.3599442367260814 12.450083183597604  2.362226086956522 12.450064516129032  L 8.473530434782608 12.450064516129032  C 8.475812285013138 12.45008318359761  8.478094203515672 12.450092517451573  8.4803761317717 12.450092517451573  C 8.937571855109887 12.450092517451573  9.308202218728221 12.08344742656032  9.308202218728221 11.631167786268778  C 9.308202218728221 11.628910394875808  9.30819278341932 11.626653013131191  9.308173913043479 11.624395698924731  L 9.308173913043479 5.554718279569894  C 9.30819278341932 5.552460965363348  9.308202218728221 5.550203583618903  9.308202218728221 5.547946192225845  C 9.308202218728221 5.095666551934305  8.937571855109887 4.7290214610430485  8.4803761317717 4.7290214610430485  C 8.478094203515644 4.7290214610430485  8.475812285013168 4.729030794897017  8.473530434782608 4.729049462365591  Z " fill-rule="nonzero" fill="#999999" stroke="none" transform="matrix(1 0 0 1 464 958 )" />
  </g>
</svg>