<?xml version="1.0" encoding="utf-8"?>
<svg version="1.1" xmlns:xlink="http://www.w3.org/1999/xlink" width="17px" height="16px" xmlns="http://www.w3.org/2000/svg">
  <g transform="matrix(1 0 0 1 -1721 -566 )">
    <path d="M 3.875604363636364 10.066258113207546  L 2.9260770909090907 10.066258113207546  L 2.9260770909090907 10.06336  L 1.4995112727272728 10.06336  C 0.7547258181818179 10.06336  0.1488087272727273 10.655154716981132  0.1488087272727273 11.382484528301886  L 0.1488087272727273 14.604703396226414  C 0.1488087272727273 15.33203320754717  0.7547258181818184 15.9238279245283  1.4995112727272728 15.9238279245283  L 5.324622545454546 15.9238279245283  C 6.069408 15.9238279245283  6.675226181818181 15.332033207547168  6.675226181818181 14.604703396226414  L 6.675226181818181 11.382484528301886  C 6.675226181818181 10.65515471698113  6.069407999999999 10.06336  5.324622545454546 10.06336  L 3.875604363636364 10.06336  L 3.875604363636364 10.066258113207546  Z M 1.4995112727272728 10.990659622641509  L 5.324622545454544 10.990659622641507  C 5.546095130893271 10.990872631784349  5.72557972586625 11.166173901014337  5.725797818181818 11.382484528301886  L 5.725797818181817 14.604703396226414  C 5.72557972586625 14.821014023513962  5.5460951308932716 14.99631529274395  5.324622545454546 14.99652830188679  L 1.499511272727272 14.996528301886789  C 1.2780386872885463 14.99631529274395  1.0985540923155677 14.82101402351396  1.098336 14.604703396226414  L 1.098336 11.382484528301887  C 1.0986084871052566 11.166195941410292  1.2780612536484923 10.990925758770953  1.4995112727272728 10.990659622641509  Z M 9.068331636363636 5.874040754716981  L 10.412605090909091 5.874040754716981  C 11.157291636363636 5.874040754716981  11.763208727272728 5.282342641509434  11.763208727272728 4.554916226415095  L 11.763208727272728 1.332697358490566  C 11.763208727272728 0.6052709433962263  11.157291636363635 0.013476226415094411  10.412605090909091 0.013476226415094411  L 6.587493818181819 0.013476226415094411  C 5.842708363636364 0.013476226415094411  5.236791272727273 0.6052709433962266  5.236791272727273 1.332697358490566  L 5.236791272727273 4.554819622641509  C 5.236791272727273 5.28224603773585  5.842708363636364 5.873944150943395  6.587493818181819 5.873944150943395  L 8.128794181818183 5.873944150943395  L 9.068331636363636 5.873750943396225  Z M 6.587493818181818 4.946741132075471  C 6.365982607330123 4.946581373659758  6.186437813676384 4.7712645328990835  6.186219636363637 4.554916226415094  L 6.186219636363638 1.3326973584905666  C 6.186492123626916 1.1163554188484326  6.365989173161861 0.9410419853403836  6.587493818181819 0.9407758490566037  L 10.412605090909093 0.9407758490566037  C 10.634093674928163 0.9410420905205543  10.813562369598564 1.1163710464484655  10.813780363636363 1.332697358490566  L 10.813780363636363 4.554819622641509  C 10.813562271320794 4.771130249929055  10.634077676347816 4.946431519159045  10.412605090909091 4.946644528301887  L 6.587493818181819 4.946644528301887  Z M 16.927845818181815 11.382484528301887  C 16.927845818181815 10.655058113207549  16.321928727272727 10.063263396226416  15.577242181818182 10.063263396226416  L 14.132872727272726 10.063263396226416  L 14.132872727272726 10.066161509433963  L 13.173553454545456 10.066161509433963  L 13.173553454545456 10.063263396226416  L 11.752229818181817 10.063263396226416  C 11.007444363636365 10.063263396226416  10.401527272727272 10.655058113207549  10.401527272727272 11.382484528301887  L 10.401527272727272 14.60460679245283  C 10.401527272727272 15.331936603773586  11.007444363636365 15.923731320754717  11.752229818181817 15.923731320754717  L 15.577242181818182 15.923731320754717  C 16.321928727272727 15.923731320754717  16.927845818181815 15.331936603773585  16.927845818181815 14.60460679245283  L 16.927845818181815 11.382484528301887  Z M 15.978318545454544 11.382581132075474  L 15.978318545454544 14.604703396226414  C 15.978100453138975 14.821014023513955  15.798615858165999 14.996315292743951  15.577143272727275 14.996528301886793  L 11.752130909090909 14.996528301886794  C 11.530642264602351 14.996315388731116  11.35112932222616 14.821029649208414  11.350856727272726 14.604703396226416  L 11.35085672727273 11.382581132075476  C 11.351129214536009 11.166239192433343  11.530626264070955 10.990925758925293  11.752130909090909 10.99065962264151  L 15.577143272727271 10.99065962264151  C 15.798631856746345 10.99092586410546  15.978100551416745 11.166254820033373  15.978318545454544 11.382581132075474  Z " fill-rule="nonzero" fill="#999999" stroke="none" transform="matrix(1 0 0 1 1721 566 )" />
  </g>
</svg>