<?xml version="1.0" encoding="utf-8"?>
<svg version="1.1" xmlns:xlink="http://www.w3.org/1999/xlink" width="15px" height="4px" xmlns="http://www.w3.org/2000/svg">
  <g transform="matrix(1 0 0 1 -1722 -577 )">
    <path d="M 0.01652783505154644 0.48708571428571396  L 0.01652783505154644 3.5365942857142847  C 0.016800689713652145 3.741316796555509  0.19643841158999503 3.9071860251298296  0.4180453608247423 3.9073371428571426  L 4.245476288659795 3.907337142857141  C 4.467044591026566 3.907135635879316  4.646622085229823 3.741281137705095  4.646894845360825 3.5365942857142847  L 4.6468948453608245 0.4870857142857119  C 4.646731175334415 0.2823274521538955  4.467121783060271 0.11636167650758214  4.245476288659795 0.1161599999999997  L 0.4180453608247428 0.11616000000000172  C 0.19640638915528702 0.1164118789828653  0.016800487558769898 0.28233352141012347  0.01652783505154644 0.48708571428571396  Z M 10.275364948453609 0.48708571428571396  L 10.275364948453607 3.5365942857142847  C 10.275637803115712 3.741316796555511  10.455275524992055 3.907186025129828  10.676882474226804 3.9073371428571426  L 14.504313402061854 3.907337142857141  C 14.725881704428627 3.907135635879316  14.905459198631883 3.741281137705095  14.905731958762885 3.5365942857142847  L 14.905731958762884 0.4870857142857119  C 14.905568288736474 0.2823274521538955  14.725958896462332 0.11636167650758214  14.504313402061857 0.1161599999999997  L 10.676882474226806 0.11616000000000172  C 10.45524350255735 0.1164118789828653  10.275637600960833 0.28233352141012347  10.275364948453609 0.48708571428571396  Z " fill-rule="nonzero" fill="#999999" stroke="none" transform="matrix(1 0 0 1 1722 577 )" />
  </g>
</svg>