<?xml version="1.0" encoding="utf-8"?>
<svg version="1.1" xmlns:xlink="http://www.w3.org/1999/xlink" width="16px" height="12px" xmlns="http://www.w3.org/2000/svg">
  <g transform="matrix(1 0 0 1 -1720 -881 )">
    <path d="M 8.728571428571426 2.829629629629629  C 8.857142857142856 3.8962962962962964  9.685714285714283 4.74074074074074  10.7 4.874074074074074  C 12.2 5.066666666666666  13.442857142857143 3.748148148148148  13.242857142857142 2.2074074074074073  C 13.114285714285712 1.1407407407407406  12.299999999999999 0.2962962962962963  11.285714285714285 0.16296296296296264  C 9.785714285714285 -0.02962962962963005  8.528571428571428 1.2740740740740737  8.728571428571426 2.829629629629629  Z M 2.8857142857142866 2.829629629629629  C 3.02857142857143 3.8962962962962964  3.8428571428571443 4.74074074074074  4.871428571428572 4.874074074074074  C 6.371428571428572 5.066666666666666  7.614285714285715 3.748148148148148  7.414285714285715 2.2074074074074073  C 7.285714285714286 1.1407407407407406  6.457142857142856 0.2962962962962963  5.442857142857143 0.16296296296296264  C 3.9428571428571435 -0.02962962962963005  2.6857142857142864 1.2740740740740737  2.8857142857142866 2.829629629629629  Z M 10.142857142857142 8.77037037037037  C 10.142857142857142 6.977777777777776  6.757142857142856 6.074074074074074  5.071428571428572 6.074074074074074  C 3.3857142857142852 6.074074074074074  0 6.977777777777776  0 8.77037037037037  L 0 11.703703703703704  C 0 11.866666666666665  0.12857142857142861 12  0.2857142857142857 12  L 9.857142857142856 12  C 10.014285714285712 12  10.142857142857142 11.866666666666665  10.142857142857142 11.703703703703704  L 10.142857142857142 8.77037037037037  Z M 16 8.77037037037037  C 15.999999999999998 6.977777777777776  12.557142857142857 6.074074074074074  10.82857142857143 6.074074074074074  C 10.614285714285714 6.074074074074074  10.371428571428572 6.088888888888888  10.114285714285714 6.118518518518519  C 10.971428571428572 6.755555555555555  11.571428571428571 7.62962962962963  11.571428571428571 8.770370370370369  L 11.571428571428571 11.703703703703704  C 11.571428571428571 11.866666666666665  11.700000000000001 12  11.857142857142858 12  L 15.714285714285714 12  C 15.87142857142857 12  16 11.866666666666665  16 11.703703703703704  L 16 8.77037037037037  Z " fill-rule="nonzero" fill="#999999" stroke="none" transform="matrix(1 0 0 1 1720 881 )" />
  </g>
</svg>