<?xml version="1.0" encoding="utf-8"?>
<svg version="1.1" xmlns:xlink="http://www.w3.org/1999/xlink" width="16px" height="16px" xmlns="http://www.w3.org/2000/svg">
  <g transform="matrix(1 0 0 1 -7754 -381 )">
    <path d="M 8 0.06451612903226002  C 12.382645161290323 0.06451612903226002  15.9354838709678 3.617354838709677  15.9354838709678 8  C 15.9354838709678 12.382645161290323  12.382645161290323 15.93548387096774  8 15.93548387096774  C 3.617354838709677 15.93548387096774  0.06451612903219939 12.382645161290323  0.06451612903219939 8  C 0.06451612903219939 3.617354838709677  3.617354838709677 0.06451612903226002  8 0.06451612903226002  Z M 8.008064516129041 1.3225806451612925  C 4.31577419354835 1.3225806451612925  1.3225806451612394 4.31577419354838  1.3225806451612394 8.008064516129041  C 1.3225806451612394 11.700354838709684  4.31577419354835 14.69354838709678  8.008064516129041 14.69354838709678  C 11.70035483870973 14.69354838709678  14.693548387096719 11.700354838709684  14.693548387096719 8.008064516129041  C 14.693548387096719 4.31577419354838  11.70035483870973 1.3225806451612925  8.008064516129041 1.3225806451612925  Z M 8.266666666666667 12.781818181818183  C 7.8708625959546525 12.781818181818183  7.55 12.431786258958619  7.55 12  C 7.55 11.568213741041381  7.8708625959546525 11.218181818181817  8.266666666666667 11.218181818181817  C 8.66247073737868 11.218181818181817  8.983333333333333 11.568213741041381  8.983333333333333 12  C 8.983333333333333 12.431786258958619  8.66247073737868 12.781818181818183  8.266666666666667 12.781818181818183  Z M 5.416666666666667 6.112643678160915  C 5.416666666666667 6.086751724137927  5.4187166666666595 6.06132643678161  5.422649999999946 6.036496551724137  C 5.463933333333383 5.252319540229882  5.71921666666664 4.6221908045977065  6.188483333333352 4.146142528735633  C 6.711750000000029 3.590487356321842  7.444316666666661 3.3126436781609225  8.386199999999977 3.3126436781609225  C 9.232133333333332 3.3126436781609225  9.903666666666686 3.535758620689656  10.400766666666701 3.9819724137931036  C 10.889150000000033 4.41133793103448  11.133333333333333 5.004873563218386  11.133333333333333 5.762627586206903  C 11.133333333333333 6.326698850574712  10.967633333333287 6.8192252873563275  10.636233333333317 7.240190804597705  C 10.48796666666664 7.408560919540226  10.134766666666716 7.732701149425293  9.576616666666693 8.212595402298849  C 9.297550000000047 8.439910344827588  9.092616666666679 8.671441379310348  8.961783333333369 8.907172413793099  C 8.815549999999954 9.144947126436788  8.733833333333314 9.412234482758626  8.716666666666667 9.709034482758625  L 8.716666666666667 10.063218390804604  C 8.716666666666667 10.343170114942525  8.48161666666662 10.570114942528743  8.191666666666666 10.570114942528743  C 7.921433333333335 10.570114942528743  7.698900000000019 10.372988505747132  7.669866666666712 10.119540229885054  L 7.666666666666667 9.6448275862069  C 7.666666666666667 9.603889655172422  7.6717000000000555 9.564094252873565  7.68116666666671 9.52597241379311  C 7.710466666666616 9.229832183908048  7.784133333333375 8.9646367816092  7.902166666666623 8.730386206896553  C 8.085316666666646 8.351517241379316  8.525733333333362 7.863190804597707  9.223416666666648 7.2654390804597675  C 9.467599999999948 7.029691954022989  9.615866666666625 6.878154022988505  9.668199999999949 6.810809195402301  C 9.929816666666618 6.490885057471269  10.060633333333318 6.158328735632192  10.060633333333318 5.813140229885054  C 10.060633333333318 5.316397701149436  9.91238333333337 4.924912643678166  9.615866666666625 4.638668965517248  C 9.319350000000002 4.343993103448278  8.892016666666677 4.1966551724137995  8.333866666666655 4.1966551724137995  C 7.679783333333277 4.1966551724137995  7.195766666666653 4.402921839080469  6.881800000000052 4.8154712643678215  C 6.594016666666721 5.169075862068969  6.45011666666663 5.653170114942531  6.45011666666663 6.267770114942535  C 6.45011666666663 6.5432643678160884  6.21866666666671 6.788505747126434  5.933333333333334 6.788505747126434  C 5.647999999999956 6.788505747126434  5.416666666666667 6.565149425287351  5.416666666666667 6.289655172413799  L 5.416666666666667 6.112643678160915  Z " fill-rule="nonzero" fill="#000000" stroke="none" transform="matrix(1 0 0 1 7754 381 )" />
  </g>
</svg>