<?xml version="1.0" encoding="utf-8"?>
<svg version="1.1" xmlns:xlink="http://www.w3.org/1999/xlink" width="14px" height="16px" xmlns="http://www.w3.org/2000/svg">
  <g transform="matrix(1 0 0 1 -1060 -275 )">
    <path d="M 8.6275 15.96701030927835  C 8.575000000000001 15.983505154639174  8.504999999999999 16  8.435 16  C 8.295 16  8.155000000000001 15.950515463917526  8.049999999999999 15.851546391752576  L 5.25 13.096907216494847  C 5.1625000000000005 12.997938144329899  5.11 12.882474226804126  5.11 12.750515463917528  L 5.11 5.591752577319587  L 0.19250000000000025 1.0061855670103095  C 0.035000000000000496 0.8577319587628871  0 0.6597938144329897  0.07000000000000038 0.4618556701030929  C 0.1575000000000004 0.2804123711340205  0.3500000000000006 0.14845360824742274  0.5600000000000005 0.14845360824742274  L 13.44 0.14845360824742274  C 13.65 0.14845360824742274  13.8425 0.2639175257731961  13.929999999999998 0.4618556701030929  C 14.0175 0.6432989690721653  13.965 0.8577319587628864  13.807499999999997 1.0061855670103095  L 8.96 5.575257731958763  L 8.96 15.505154639175258  C 8.96 15.703092783505156  8.8375 15.884536082474227  8.6275 15.96701030927835  Z M 6.177499999999998 12.552577319587629  L 6.160000000000001 12.552577319587629  L 7.910000000000001 14.268041237113403  L 7.910000000000001 5.377319587628866  C 7.910000000000001 5.245360824742269  7.9624999999999995 5.11340206185567  8.067500000000003 5.030927835051546  L 12.179999999999998 1.1546391752577319  L 1.8549999999999989 1.1546391752577319  L 6.019999999999999 5.030927835051546  C 6.124999999999998 5.129896907216495  6.177499999999998 5.245360824742267  6.177499999999998 5.377319587628866  L 6.177499999999998 12.552577319587629  Z M 13.9125 13.690721649484535  C 13.9125 13.971134020618557  13.685 14.185567010309278  13.387500000000001 14.185567010309278  L 10.3775 14.185567010309278  C 10.08 14.185567010309278  9.8525 13.971134020618557  9.8525 13.690721649484535  C 9.8525 13.410309278350516  10.08 13.195876288659793  10.3775 13.195876288659793  L 13.387500000000001 13.195876288659793  C 13.685 13.195876288659793  13.9125 13.410309278350516  13.9125 13.690721649484535  Z " fill-rule="nonzero" fill="#333333" stroke="none" transform="matrix(1 0 0 1 1060 275 )" />
  </g>
</svg>