<?xml version="1.0" encoding="utf-8"?>
<svg version="1.1" xmlns:xlink="http://www.w3.org/1999/xlink" width="18px" height="14px" xmlns="http://www.w3.org/2000/svg">
  <g transform="matrix(1 0 0 1 -1294 -420 )">
    <path d="M 1.2857142857142856 7  C 2.404017857142857 8.791666666666666  3.833705357142857 10.09375  5.5747767857142865 10.90625  L 6.358258928571429 9.4375  C 5.775669642857142 9  5.3203125 8.447916666666668  4.9921875 7.78125  C 4.664062500000001 7.114583333333334  4.5 6.409722222222221  4.5 5.666666666666667  C 4.5 4.826388888888889  4.704241071428572 4.0451388888888875  5.1127232142857135 3.3229166666666665  C 3.579241071428572 4.135416666666667  2.303571428571429 5.361111111111111  1.2857142857142856 7  Z M 9.341517857142858 3.354166666666667  C 9.435267857142858 3.256944444444442  9.482142857142858 3.1388888888888884  9.482142857142858 3  C 9.482142857142858 2.8611111111111103  9.435267857142858 2.7430555555555554  9.341517857142858 2.645833333333333  C 9.24776785714286 2.54861111111111  9.133928571428571 2.5000000000000004  9 2.5000000000000004  C 8.162946428571429 2.5000000000000004  7.444754464285715 2.8107638888888884  6.845424107142858 3.4322916666666665  C 6.246093750000001 4.053819444444445  5.946428571428571 4.798611111111111  5.946428571428571 5.666666666666667  C 5.946428571428571 5.805555555555555  5.993303571428573 5.923611111111111  6.087053571428571 6.020833333333334  C 6.180803571428572 6.118055555555554  6.294642857142858 6.166666666666666  6.428571428571429 6.166666666666666  C 6.562500000000001 6.166666666666666  6.6763392857142865 6.118055555555554  6.7700892857142865 6.020833333333334  C 6.863839285714286 5.923611111111111  6.9107142857142865 5.805555555555555  6.9107142857142865 5.666666666666667  C 6.9107142857142865 5.069444444444444  7.114955357142857 4.559027777777778  7.5234375 4.135416666666667  C 7.931919642857144 3.711805555555554  8.424107142857144 3.4999999999999982  9 3.5  C 9.133928571428571 3.4999999999999982  9.24776785714286 3.4513888888888875  9.341517857142858 3.354166666666667  Z M 12.967633928571427 0.7291666666666672  C 13.074776785714286 0.7986111111111098  13.128348214285715 0.8923611111111103  13.128348214285715 1.010416666666667  C 13.128348214285715 1.0590277777777763  13.125000000000002 1.0902777777777755  13.118303571428573 1.1041666666666674  C 12.408482142857146 2.4166666666666674  11.350446428571427 4.385416666666668  9.944196428571427 7.010416666666668  C 8.53794642857143 9.635416666666668  7.48325892857143 11.600694444444446  6.780133928571429 12.90625  L 6.287946428571429 13.833333333333334  C 6.220982142857143 13.944444444444445  6.127232142857142 14  6.006696428571429 14  C 5.9263392857142865 14  5.477678571428572 13.756944444444445  4.6607142857142865 13.270833333333332  C 4.55357142857143 13.20138888888889  4.5 13.104166666666666  4.5 12.979166666666668  C 4.5 12.895833333333332  4.647321428571429 12.59375  4.9419642857142865 12.072916666666666  C 3.9843750000000004 11.621527777777779  3.1021205357142865 11.020833333333332  2.2952008928571432 10.270833333333332  C 1.48828125 9.520833333333334  0.7901785714285716 8.67013888888889  0.20089285714285715 7.71875  C 0.06696428571428571 7.503472222222221  0 7.2638888888888875  0 7  C 0 6.736111111111111  0.06696428571428571 6.496527777777777  0.20089285714285715 6.28125  C 1.2254464285714288 4.649305555555555  2.497767857142857 3.36111111111111  4.017857142857143 2.4166666666666674  C 5.53794642857143 1.4722222222222217  7.198660714285715 0.9999999999999996  9 0.9999999999999996  C 9.595982142857142 0.9999999999999996  10.198660714285715 1.0590277777777763  10.808035714285715 1.177083333333333  L 11.350446428571427 0.16666666666666607  C 11.417410714285714 0.05555555555555536  11.511160714285715 0  11.631696428571427 0  C 11.665178571428573 0  11.72544642857143 0.02083333333333326  11.8125 0.06249999999999978  C 11.899553571428571 0.1041666666666663  12.003348214285715 0.15798611111110938  12.123883928571427 0.2239583333333337  C 12.244419642857142 0.2899305555555549  12.354910714285715 0.35416666666666696  12.455357142857142 0.41666666666666674  C 12.555803571428573 0.4791666666666665  12.661272321428573 0.5434027777777755  12.771763392857142 0.6093749999999998  C 12.882254464285715 0.675347222222221  12.947544642857142 0.7152777777777768  12.967633928571427 0.7291666666666672  Z M 13.419642857142858 4.791666666666667  C 13.473214285714288 5.104166666666667  13.5 5.395833333333333  13.5 5.666666666666667  C 13.5 6.631944444444445  13.235491071428571 7.512152777777777  12.706473214285715 8.307291666666666  C 12.177455357142858 9.102430555555555  11.477678571428571 9.673611111111109  10.607142857142858 10.020833333333334  L 13.419642857142858 4.791666666666667  Z M 17.799107142857142 6.28125  C 17.933035714285715 6.517361111111111  18 6.756944444444444  18 7  C 18 7.2430555555555545  17.933035714285715 7.4826388888888875  17.799107142857142 7.71875  C 17.537946428571427 8.163194444444443  17.172991071428573 8.666666666666668  16.704241071428573 9.229166666666666  C 15.699776785714285 10.423611111111112  14.536272321428571 11.350694444444445  13.213727678571427 12.010416666666666  C 11.891183035714288 12.670138888888888  10.486607142857142 13  9 13  L 9.743303571428573 11.625  C 11.16294642857143 11.5  12.477120535714286 11.024305555555554  13.685825892857142 10.197916666666668  C 14.89453125 9.371527777777777  15.904017857142858 8.305555555555554  16.714285714285715 7  C 15.94419642857143 5.756944444444445  15 4.736111111111112  13.881696428571427 3.9375  L 14.514508928571427 2.770833333333333  C 15.150669642857146 3.215277777777776  15.761718750000002 3.746527777777776  16.34765625 4.364583333333332  C 16.93359375 4.9826388888888875  17.417410714285715 5.621527777777777  17.799107142857142 6.28125  Z " fill-rule="nonzero" fill="#999999" stroke="none" transform="matrix(1 0 0 1 1294 420 )" />
  </g>
</svg>