<?xml version="1.0" encoding="utf-8"?>
<svg version="1.1" xmlns:xlink="http://www.w3.org/1999/xlink" width="10px" height="20px" xmlns="http://www.w3.org/2000/svg">
  <g transform="matrix(1 0 0 1 -1022 -241 )">
    <path d="M 9.665178571428571 19.207589285714285  C 9.53125 19.274553571428573  9.397321428571429 19.341517857142858  9.296875 19.341517857142858  C 9.16294642857143 19.341517857142858  9.02901785714286 19.308035714285715  8.928571428571429 19.207589285714285  L 0.2566964285714298 10.502232142857142  C 0.12276785714285779 10.368303571428573  0.055803571428572694 10.167410714285714  0.055803571428572694 10  C 0.055803571428572694 9.832589285714286  0.12276785714285779 9.631696428571429  0.2566964285714298 9.497767857142858  L 8.928571428571429 0.7924107142857142  C 9.129464285714286 0.5915178571428571  9.430803571428571 0.5915178571428571  9.631696428571429 0.7924107142857142  C 9.832589285714288 0.9933035714285714  9.832589285714288 1.2946428571428572  9.631696428571429 1.4955357142857142  L 1.1607142857142858 10  L 9.665178571428571 18.504464285714285  C 9.866071428571429 18.705357142857142  9.866071428571429 19.006696428571427  9.665178571428571 19.207589285714285  Z " fill-rule="nonzero" fill="#3e3a39" stroke="none" transform="matrix(1 0 0 1 1022 241 )" />
  </g>
</svg>