<?xml version="1.0" encoding="utf-8"?>
<svg version="1.1" xmlns:xlink="http://www.w3.org/1999/xlink" width="14px" height="20px" xmlns="http://www.w3.org/2000/svg">
  <g transform="matrix(1 0 0 1 -289 -273 )">
    <path d="M 1.773433613636363 0.399941238938053  C 1.604890431818181 0.2122143584070797  1.3576224318181818 0.09299466814159274  1.0809809090909086 0.09299466814159274  C 0.8790174772727268 0.09299466814159274  0.692543181818182 0.15708714601769894  0.5411403863636359 0.26414942477876074  C 0.4968823863636361 0.29441845132743344  0.4548570681818176 0.32760798672566327  0.4155528181818175 0.36616309734513247  C 0.1886114090909084 0.5873964601769909  0.1565633181818178 0.8545427654867254  0.16030768181818125 1.1810951769911502  L 0.16030768181818125 18.743678362831858  C 0.14830709090909008 19.010530353982297  0.1886114090909084 19.337150685840705  0.4155528181818175 19.558655730088496  C 0.7778497272727263 19.913077389380533  1.3657856590909085 19.913077389380533  1.7280592954545453 19.558655730088496  L 13.68243859090909 10.617653650442477  C 13.867703522727272 10.437035575221238  13.95782425 10.199184800884955  13.954172909090909 9.962239623893804  C 13.95782425 9.725294424778761  13.867657022727274 9.487421017699116  13.68243859090909 9.306802942477875  L 1.773433613636363 0.399941238938053  Z " fill-rule="nonzero" fill="#e7772d" stroke="none" transform="matrix(1 0 0 1 289 273 )" />
  </g>
</svg>