<?xml version="1.0" encoding="utf-8"?>
<svg version="1.1" xmlns:xlink="http://www.w3.org/1999/xlink" width="14px" height="20px" xmlns="http://www.w3.org/2000/svg">
  <g transform="matrix(1 0 0 1 -367 -273 )">
    <path d="M 3.8070175361842113 0.12345678240740698  C 4.48494635275578 0.12422218396005838  5.0343263538502585 0.6765089575470995  5 1.3580246990740739  L 5 18.641975300925925  C 5.0343263538502585 19.323491042452897  4.48494635275578 19.875777816039943  3.8070175361842113 19.87654321759259  L 1.350877200657895 19.87654321759259  C 0.6729483840863253 19.875777816039943  0.12356838299184754 19.323491042452897  0.12280700986842129 18.641975300925925  L 0.12280700986842129 1.3580246990740739  C 0.12356838299184819 0.6765089575470995  0.672948384086326 0.12422218396005771  1.350877200657895 0.12345678240740698  L 3.8070175361842113 0.12345678240740698  Z M 13.877192990131574 1.3580246990740739  C 13.87643161700815 0.6765089575471002  13.327051615913671 0.12422218396005905  12.649122799342106 0.12345678240740698  L 10.19298246381579 0.12345678240740698  C 9.515053647244219 0.12422218396005771  8.965673646149742 0.6765089575470995  9 1.3580246990740739  L 9 18.641975300925925  C 8.96567364614974 19.323491042452897  9.515053647244219 19.875777816039943  10.19298246381579 19.87654321759259  L 12.649122799342104 19.87654321759259  C 13.327051615913671 19.875777816039943  13.876431617008153 19.323491042452897  13.877192990131578 18.641975300925925  L 13.877192990131574 1.3580246990740739  Z " fill-rule="nonzero" fill="#e7772d" stroke="none" transform="matrix(1 0 0 1 367 273 )" />
  </g>
</svg>