<?xml version="1.0" encoding="utf-8"?>
<svg version="1.1" xmlns:xlink="http://www.w3.org/1999/xlink" width="19px" height="20px" xmlns="http://www.w3.org/2000/svg">
  <g transform="matrix(1 0 0 1 -445 -273 )">
    <path d="M 13.442573644791668 3.6395352654264572  C 13.386642485413887 1.6129244414653399  11.705215309031729 -0.001003054948259438  9.650821703124999 0  C 7.593990695833333 0  5.919869761458333 1.610698105842601  5.849172087499999 3.6293027070720107  L 1.0492713187500005 3.629302707072011  C 0.5149796268526423 3.629302446350893  0.0817047216310803 4.056460022248615  0.08118448645833337 4.583721298032754  C 0.08170473254667766 5.110982566187932  0.5149796345726912 5.538140130193855  1.0492713187500002 5.5381398694622455  L 2.118220145833334 5.5381398694622455  L 2.118220145833334 16.237209384873488  C 2.118220145833334 18.246046544925072  3.5001240291666673 19.886511623747843  5.203937985416667 19.886511623747843  L 13.896452710416668 19.886511623747843  C 15.600266666666668 19.886511623747843  16.982170530208336 18.255813986102897  17 16.237209384873488  L 17 5.548837544993315  L 17.950257362500004 5.548837544993315  C 18.484732945935466 5.548837618285967  18.918083982215034 5.1213967915118115  18.918344194791665 4.5939538563872  C 18.91782395961892 4.066692580603062  18.48454905439736 3.6395350047053405  17.9502573625 3.6395352654264572  L 13.442573644791668 3.6395352654264572  Z M 11.471051153124998 3.4586050352827815  L 7.5284775281249985 3.4586050352827815  C 7.598703883333331 2.4865120306728814  8.451317839583332 1.729302751506354  9.5047131875 1.729302751506354  C 10.558108535416666 1.729302751506354  11.411193810416666 2.486046913496259  11.471051153124998 3.4586050352827815  Z M 5.3118697614583334 18.156744222794792  L 5.311869761458333 18.14697678161697  C 4.698685274999999 18.14697678161697  4.023758131249999 17.382325627624482  4 16.290697762528833  L 4 6  L 15.413624797916667 6  L 15.413624797916667 16.300465203706658  C 15.413624797916667 17.392558205510177  14.739168992708333 18.156744222794792  14.125984486458336 18.156744222794792  L 5.3118697614583334 18.156744222794792  Z " fill-rule="nonzero" fill="#e7772d" stroke="none" transform="matrix(1 0 0 1 445 273 )" />
  </g>
</svg>