<?xml version="1.0" encoding="utf-8"?>
<svg version="1.1" xmlns:xlink="http://www.w3.org/1999/xlink" width="14px" height="14px" xmlns="http://www.w3.org/2000/svg">
  <g transform="matrix(1 0 0 1 -2720 -883 )">
    <path d="M 14 7  C 14 3.1340067511844456  10.865993248815554 0  7 0  C 3.1340067511844456 0  0 3.1340067511844456  0 7  C 0 10.865993248815554  3.1340067511844456 14  7 14  C 10.865993248815554 14  14 10.865993248815554  14 7  Z M 8.400000000000002 10.868666662109376  C 8.4 11.641865311872484  7.773198649763112 12.268666662109375  7 12.268666662109375  C 6.226801350236889 12.268666662109375  5.6000000000000005 11.641865311872484  5.6000000000000005 10.868666662109375  C 5.6000000000000005 10.095468012346263  6.226801350236889 9.468666662109374  7 9.468666662109374  C 7.773198649763112 9.468666662109374  8.400000000000002 10.095468012346263  8.400000000000002 10.868666662109375  Z M 8.682333337890626 3.411333337890624  C 8.682333337890626 4.339999999999999  7.933333337890625 8.700999999999999  7 8.700999999999999  C 6.066666662109375 8.700999999999999  5.317666662109375 4.339999999999999  5.317666662109374 3.4113333378906234  C 5.317666662109374 2.482206291241696  6.070872953351072 1.7289999999999983  6.999999999999999 1.7289999999999983  C 7.929127046648927 1.7289999999999983  8.682333337890626 2.482206291241696  8.682333337890626 3.4113333378906234  Z " fill-rule="nonzero" fill="#f59a23" stroke="none" transform="matrix(1 0 0 1 2720 883 )" />
  </g>
</svg>