<?xml version="1.0" encoding="utf-8"?>
<svg version="1.1" xmlns:xlink="http://www.w3.org/1999/xlink" width="36px" height="36px" preserveAspectRatio="xMinYMid meet" viewBox="661 787  36 34" xmlns="http://www.w3.org/2000/svg">
  <path d="M 678 738.5  L 668 738.5  A 5 5 0 0 0 663.5 743.5 L 663.5 799  A 5 5 0 0 0 668.5 804.5 L 679 804.5  " stroke-width="3" stroke="#e7772d" fill="none" />
  <path d="M 677 734.5  A 4 4 0 0 0 673 738.5 A 4 4 0 0 0 677 742.5 A 4 4 0 0 0 681 738.5 A 4 4 0 0 0 677 734.5 Z M 669.9 814.5  L 682 804.5  L 669.9 794.5  L 674.8 804.5  L 669.9 814.5  Z " fill-rule="nonzero" fill="#e7772d" stroke="none" />
</svg>