<?xml version="1.0" encoding="utf-8"?>
<svg version="1.1" xmlns:xlink="http://www.w3.org/1999/xlink" width="24px" height="12px" preserveAspectRatio="xMinYMid meet" viewBox="657 815  24 10" xmlns="http://www.w3.org/2000/svg">
  <path d="M 678 820.5  L 668 820.5  A 5 5 0 0 0 663.5 825.5 L 663.5 897  A 5 5 0 0 0 668.5 902.5 L 678 902.5  " stroke-width="3" stroke="#e7772d" fill="none" />
  <path d="M 677 816.5  A 4 4 0 0 0 673 820.5 A 4 4 0 0 0 677 824.5 A 4 4 0 0 0 681 820.5 A 4 4 0 0 0 677 816.5 Z M 668.9 912.5  L 681 902.5  L 668.9 892.5  L 673.8 902.5  L 668.9 912.5  Z " fill-rule="nonzero" fill="#e7772d" stroke="none" />
</svg>