<?xml version="1.0" encoding="utf-8"?>
<svg version="1.1" xmlns:xlink="http://www.w3.org/1999/xlink" width="55px" height="10px" preserveAspectRatio="xMinYMid meet" viewBox="3344 2180  55 8" xmlns="http://www.w3.org/2000/svg">
  <path d="M 3302 2445  L 3344 2445  A 5 5 0 0 0 3349 2440 L 3349 2189  A 5 5 0 0 1 3354 2184 L 3397 2184  " stroke-width="2" stroke="#e7772d" fill="none" />
  <path d="M 3303.5 2441.5  A 3.5 3.5 0 0 0 3300 2445 A 3.5 3.5 0 0 0 3303.5 2448.5 A 3.5 3.5 0 0 0 3307 2445 A 3.5 3.5 0 0 0 3303.5 2441.5 Z M 3389.6 2192  L 3399 2184  L 3389.6 2176  L 3393.2 2184  L 3389.6 2192  Z " fill-rule="nonzero" fill="#e7772d" stroke="none" />
</svg>