<?xml version="1.0" encoding="utf-8"?>
<svg version="1.1" xmlns:xlink="http://www.w3.org/1999/xlink" width="20px" height="20px" xmlns="http://www.w3.org/2000/svg">
  <g transform="matrix(1 0 0 1 -2580 -1789 )">
    <path d="M 2590 1789  C 2595.6 1789  2600 1793.4  2600 1799  C 2600 1804.6  2595.6 1809  2590 1809  C 2584.4 1809  2580 1804.6  2580 1799  C 2580 1793.4  2584.4 1789  2590 1789  Z " fill-rule="nonzero" fill="#ffffff" stroke="none" />
    <path d="M 2590 1789.5  C 2595.32 1789.5  2599.5 1793.68  2599.5 1799  C 2599.5 1804.32  2595.32 1808.5  2590 1808.5  C 2584.68 1808.5  2580.5 1804.32  2580.5 1799  C 2580.5 1793.68  2584.68 1789.5  2590 1789.5  Z " stroke-width="1" stroke="#ff6666" fill="none" />
  </g>
</svg>