<?xml version="1.0" encoding="utf-8"?>
<svg version="1.1" xmlns:xlink="http://www.w3.org/1999/xlink" width="100px" height="44px" xmlns="http://www.w3.org/2000/svg">
  <defs>
    <mask fill="white" id="clip5931">
      <path d="M 0 41  L 0 9  C 0 7.32000000000005  1.3199999999999363 6  3 6  L 10.37541528239467 6  L 15.35880398671361 0.6943521594685079  L 20.674418604653738 6  L 97 6  C 98.68000000000006 6  100 7.32000000000005  100 9  L 100 41  C 100 42.67999999999995  98.68000000000006 44  97 44  L 3 44  C 1.3199999999999363 44  0 42.67999999999995  0 41  Z " fill-rule="evenodd" />
    </mask>
  </defs>
  <g transform="matrix(1 0 0 1 -1777 -691 )">
    <path d="M 0 41  L 0 9  C 0 7.32000000000005  1.3199999999999363 6  3 6  L 10.37541528239467 6  L 15.35880398671361 0.6943521594685079  L 20.674418604653738 6  L 97 6  C 98.68000000000006 6  100 7.32000000000005  100 9  L 100 41  C 100 42.67999999999995  98.68000000000006 44  97 44  L 3 44  C 1.3199999999999363 44  0 42.67999999999995  0 41  Z " fill-rule="nonzero" fill="#ffffff" stroke="none" transform="matrix(1 0 0 1 1777 691 )" />
    <path d="M 0 41  L 0 9  C 0 7.32000000000005  1.3199999999999363 6  3 6  L 10.37541528239467 6  L 15.35880398671361 0.6943521594685079  L 20.674418604653738 6  L 97 6  C 98.68000000000006 6  100 7.32000000000005  100 9  L 100 41  C 100 42.67999999999995  98.68000000000006 44  97 44  L 3 44  C 1.3199999999999363 44  0 42.67999999999995  0 41  Z " stroke-width="2" stroke="#ff6666" fill="none" transform="matrix(1 0 0 1 1777 691 )" mask="url(#clip5931)" />
  </g>
</svg>