<?xml version="1.0" encoding="utf-8"?>
<svg version="1.1" xmlns:xlink="http://www.w3.org/1999/xlink" width="100px" height="56px" xmlns="http://www.w3.org/2000/svg">
  <defs>
    <mask fill="white" id="clip5932">
      <path d="M 0 52.18181818181818  L 0 11.454545454545455  C 0 9.3163636363637  1.3199999999999363 7.636363636363636  3 7.636363636363636  L 10.37541528239467 7.636363636363636  L 15.35880398671361 0.8837209302326465  L 20.674418604653738 8  L 97 8  C 98.68000000000006 7.636363636363636  100 9.3163636363637  100 11.454545454545455  L 100 52.18181818181818  C 100 54.319999999999936  98.68000000000006 56  97 56  L 3 56  C 1.3199999999999363 56  0 54.319999999999936  0 52.18181818181818  Z " fill-rule="evenodd" />
    </mask>
  </defs>
  <g transform="matrix(1 0 0 1 -1954 -691 )">
    <path d="M 0 52.18181818181818  L 0 11.454545454545455  C 0 9.3163636363637  1.3199999999999363 7.636363636363636  3 7.636363636363636  L 10.37541528239467 7.636363636363636  L 15.35880398671361 0.8837209302326465  L 20.674418604653738 8  L 97 8  C 98.68000000000006 7.636363636363636  100 9.3163636363637  100 11.454545454545455  L 100 52.18181818181818  C 100 54.319999999999936  98.68000000000006 56  97 56  L 3 56  C 1.3199999999999363 56  0 54.319999999999936  0 52.18181818181818  Z " fill-rule="nonzero" fill="#ffffff" stroke="none" transform="matrix(1 0 0 1 1954 691 )" />
    <path d="M 0 52.18181818181818  L 0 11.454545454545455  C 0 9.3163636363637  1.3199999999999363 7.636363636363636  3 7.636363636363636  L 10.37541528239467 7.636363636363636  L 15.35880398671361 0.8837209302326465  L 20.674418604653738 8  L 97 8  C 98.68000000000006 7.636363636363636  100 9.3163636363637  100 11.454545454545455  L 100 52.18181818181818  C 100 54.319999999999936  98.68000000000006 56  97 56  L 3 56  C 1.3199999999999363 56  0 54.319999999999936  0 52.18181818181818  Z " stroke-width="2" stroke="#ff6666" fill="none" transform="matrix(1 0 0 1 1954 691 )" mask="url(#clip5932)" />
  </g>
</svg>