<?xml version="1.0" encoding="utf-8"?>
<svg version="1.1" xmlns:xlink="http://www.w3.org/1999/xlink" width="12px" height="12px" xmlns="http://www.w3.org/2000/svg">
  <g transform="matrix(1 0 0 1 -156 -49 )">
    <path d="M 11.965909090909092 6  C 11.965909090909092 2.710234144176136  9.289765855823864 0.03409090909090909  6 0.03409090909090909  C 2.710646484375 0.03409090909090909  0.03409090909090909 2.710234144176136  0.03409090909090909 6  C 0.03409090909090909 9.289765855823864  2.710234144176136 11.965909090909092  6 11.965909090909092  C 9.289353515625 11.965909090909092  11.965909090909092 9.289765855823864  11.965909090909092 6  Z M 6.603841126598011 6.0016951571377835  L 8.43366758256392 7.837500452769886  C 8.59986133700284 8.004541779119316  8.599426091974431 8.273865007990056  8.43282001065341 8.440058762428976  C 8.349734592507103 8.522731853693182  8.241061510120739 8.564492178622158  8.131976100852274 8.564492178622158  C 8.022455446555398 8.564492178622158  7.913370037286933 8.522731840376418  7.830261700994319 8.439211177201702  L 5.99786961115057 6.601275479403408  L 4.159521573153411 8.42003762428977  C 4.076436155007103 8.501863130326702  3.968175412819604 8.543188223544034  3.8599375754616485 8.543188223544034  C 3.7500045809659097 8.543188223544034  3.6404839399857964 8.500992653586646  3.5569632634943193 8.416624405184658  C 3.3916170809659096 8.249147833806818  3.3928998979048304 7.979824604936079  3.560376482599433 7.814066095525567  L 5.396594118430398 5.997869597833805  L 3.5671800026633536 4.162499533913351  C 3.400986248224432 3.9958705344460226  3.401421493252842 3.726134978693181  3.5680275745738643 3.5599412242542607  C 3.7346565740411943 3.393312224786931  4.003956884765626 3.394182714843749  4.170585884232956 3.560788796164772  L 6.0025427290482956 5.398289248934659  L 7.8408907670454555 3.57955000887784  C 8.007932093394887 3.4137914994673286  8.278102894176138 3.4154866432883515  8.443449076704546 3.5829632279829537  C 8.609207586115058 3.7504397993607936  8.607512442294036 4.020175355113636  8.440035857599433 4.185521537642044  L 6.603841126598011 6.0016951571377835  Z " fill-rule="nonzero" fill="#272636" stroke="none" transform="matrix(1 0 0 1 156 49 )" />
  </g>
</svg>