<?xml version="1.0" encoding="utf-8"?>
<svg version="1.1" xmlns:xlink="http://www.w3.org/1999/xlink" width="20px" height="20px" xmlns="http://www.w3.org/2000/svg">
  <g transform="matrix(1 0 0 1 -195 -1153 )">
    <path d="M 10 0.08064516129032502  C 15.478306451612905 0.08064516129032502  19.91935483870975 4.521693548387097  19.91935483870975 10  C 19.91935483870975 15.478306451612905  15.478306451612905 19.919354838709676  10 19.919354838709676  C 4.521693548387097 19.919354838709676  0.08064516129024923 15.478306451612905  0.08064516129024923 10  C 0.08064516129024923 4.521693548387097  4.521693548387097 0.08064516129032502  10 0.08064516129032502  Z M 10.0100806451613 1.6532258064516157  C 5.3947177419354375 1.6532258064516157  1.6532258064515493 5.394717741935475  1.6532258064515493 10.0100806451613  C 1.6532258064515493 14.625443548387105  5.3947177419354375 18.366935483870975  10.0100806451613 18.366935483870975  C 14.625443548387162 18.366935483870975  18.366935483870897 14.625443548387105  18.366935483870897 10.0100806451613  C 18.366935483870897 5.394717741935475  14.625443548387162 1.6532258064516157  10.0100806451613 1.6532258064516157  Z M 10.333333333333334 15.977272727272728  C 9.838578244943315 15.977272727272728  9.4375 15.539732823698273  9.4375 15  C 9.4375 14.460267176301727  9.838578244943315 14.022727272727272  10.333333333333334 14.022727272727272  C 10.82808842172335 14.022727272727272  11.229166666666666 14.460267176301727  11.229166666666666 15  C 11.229166666666666 15.539732823698273  10.82808842172335 15.977272727272728  10.333333333333334 15.977272727272728  Z M 6.770833333333334 7.640804597701144  C 6.770833333333334 7.6084396551724085  6.773395833333325 7.5766580459770125  6.778312499999933 7.545620689655172  C 6.829916666666729 6.565399425287353  7.1490208333333 5.777738505747133  7.73560416666669 5.182678160919542  C 8.389687500000036 4.488109195402302  9.305395833333327 4.140804597701154  10.482749999999971 4.140804597701154  C 11.540166666666664 4.140804597701154  12.379583333333358 4.41969827586207  13.000958333333376 4.977465517241379  C 13.61143750000004 5.5141724137931005  13.916666666666666 6.256091954022982  13.916666666666666 7.203284482758629  C 13.916666666666666 7.90837356321839  13.70954166666661 8.52403160919541  13.295291666666646 9.050238505747132  C 13.1099583333333 9.260701149425282  12.668458333333394 9.665876436781616  11.970770833333367 10.26574425287356  C 11.621937500000058 10.549887931034485  11.365770833333348 10.839301724137936  11.202229166666712 11.133965517241373  C 11.019437499999942 11.431183908045986  10.917291666666642 11.765293103448283  10.895833333333334 12.136293103448281  L 10.895833333333334 12.579022988505756  C 10.895833333333334 12.928962643678156  10.602020833333274 13.21264367816093  10.239583333333332 13.21264367816093  C 9.901791666666668 13.21264367816093  9.623625000000024 12.966235632183915  9.58733333333339 12.649425287356317  L 9.583333333333334 12.056034482758625  C 9.583333333333334 12.004862068965528  9.58962500000007 11.955117816091956  9.601458333333388 11.907465517241388  C 9.63808333333327 11.537290229885059  9.730166666666719 11.2057959770115  9.877708333333278 10.912982758620691  C 10.106645833333307 10.439396551724144  10.657166666666702 9.828988505747134  11.52927083333331 9.08179885057471  C 11.834499999999935 8.787114942528737  12.019833333333281 8.597692528735632  12.085249999999936 8.513511494252876  C 12.412270833333272 8.113606321839086  12.575791666666646 7.69791091954024  12.575791666666646 7.266425287356317  C 12.575791666666646 6.645497126436794  12.390479166666712 6.156140804597707  12.019833333333281 5.79833620689656  C 11.649187500000002 5.429991379310347  11.115020833333347 5.245818965517249  10.417333333333318 5.245818965517249  C 9.599729166666597 5.245818965517249  8.994708333333318 5.503652298850587  8.602250000000065 6.019339080459777  C 8.242520833333401 6.4613448275862115  8.062645833333287 7.066462643678165  8.062645833333287 7.834712643678169  C 8.062645833333287 8.17908045977011  7.773333333333388 8.485632183908043  7.416666666666667 8.485632183908043  C 7.059999999999945 8.485632183908043  6.770833333333334 8.206436781609188  6.770833333333334 7.862068965517248  L 6.770833333333334 7.640804597701144  Z " fill-rule="nonzero" fill="#000000" stroke="none" transform="matrix(1 0 0 1 195 1153 )" />
  </g>
</svg>