<?xml version="1.0" encoding="utf-8"?>
<svg version="1.1" xmlns:xlink="http://www.w3.org/1999/xlink" width="30px" height="30px" xmlns="http://www.w3.org/2000/svg">
  <g transform="matrix(1 0 0 1 -537 -3101 )">
    <path d="M 30 15  C 30 6.715728752538098  23.284271247461902 0  15 0  C 6.715728752538098 0  0 6.715728752538098  0 15  C 0 23.284271247461902  6.715728752538098 30  15 30  C 23.284271247461902 30  30 23.284271247461902  30 15  Z M 14.9018126953125 20.120845927734376  L 13.300604238281249 22.60574018554688  C 12.522279112644785 23.800286232079248  10.92330441365537 24.13833584851597  9.728096689453125 23.361027187500003  L 6.32930513671875 21.14803625976563  C 5.138459929137702 20.367178667678598  4.801118631080632 18.771554314652658  5.574018134765625 17.5755287109375  L 9.969788525390623 10.777945605468751  C 10.75350352005441 9.58614971329261  12.351485893050038 9.249022634189323  13.549848955078122 10.022658603515625  L 16.94864047851562 12.220543798828126  C 18.14412749746764 13.001737694819164  18.481958430470716 14.60305633533745  17.70392748046875 15.800604228515624  L 16.94864047851562 15.309667675781249  C 17.126518183073465 15.036307725309317  17.221205641010904 14.71718421179116  17.221205641010904 14.391045989099023  C 17.221205641010904 13.818974651387935  16.930830746806752 13.286012453689867  16.450151044921874 12.975830830078124  L 13.051359521484374 10.77794560546875  C 12.268767023152455 10.273672271295066  11.225805551640535 10.496440742717937  10.717522646484372 11.2764350390625  L 6.321752255859374 18.074018115234374  C 5.827504908350685 18.848481384351366  6.038267689083909 19.875531761335235  6.797583076171875 20.3927492578125  L 10.20392748046875 22.583081572265623  C 10.47802281184312 22.762390709137524  10.79845267887236 22.857891014357183  11.125988962735645 22.857891014357183  C 11.695815475056584 22.857891014357183  12.227003895885503 22.56977478295  12.53776435546875 22.092145019531248  L 14.146525693359376 19.6374622265625  L 14.9018126953125 20.120845927734376  Z M 24.425981865234373 11.064954697265625  L 24.433534746093752 11.019637470703126  L 20.045317207031253 17.817220546875003  C 19.56946189722791 18.557096543541956  18.749780301978348 19.003936855242348  17.870090625000003 19.003021142578127  C 17.373855391628968 19.003298921855176  16.888296541121008 18.85894358571914  16.472809658203126 18.58761328125  L 13.06646525390625 16.374622353515626  C 12.491100540868812 16.00027158882407  12.086688869015191 15.414010365549334  11.941087617187502 14.743202402343755  C 11.794074461954018 14.072319934698879  11.921924618998332 13.370504196744252  12.29607251953125 12.794561923828129  L 13.051359521484377 13.285498476562502  C 12.81732149497392 13.664407701488269  12.741381309622554 14.120048803076303  12.839879150390626 14.554380673828126  C 12.935792987715123 14.997548496565921  13.20864602439161 15.382271280079005  13.59516615234375 15.619335351562501  L 16.993957705078127 17.824773427734375  C 17.779293739248516 18.323236784210597  18.819442831851518 18.097702829184463  19.327794550781253 17.31873111328125  L 23.71601208984375 10.521148037109375  C 24.221728454989552 9.740513527368973  24.00243839240639 8.698042305573372  23.225075537109376 8.18731119140625  L 19.780966757812504 5.99697884765625  C 18.99837426541753 5.49270553337633  17.955412815973975 5.7154740028820035  17.447129912109382 6.495468281249999  L 15.8610271875 8.957703925781251  L 15.105740185546873 8.47432025390625  L 16.691842910156254 6.042296074218751  C 17.473036804868688 4.846809073308077  19.074355423254367 4.508978142209743  20.271903310546875 5.287009072265625  L 23.670694863281245 7.484894267578126  C 24.404374021635604 7.961266843638898  24.847104344949464 8.776596145215088  24.847104344949464 9.651362364628211  C 24.847104344949464 10.153474759049653  24.700763057272848 10.644702209904104  24.425981865234373 11.064954697265625  Z " fill-rule="nonzero" fill="#ffffff" stroke="none" transform="matrix(1 0 0 1 537 3101 )" />
  </g>
</svg>