<?xml version="1.0" encoding="utf-8"?>
<svg version="1.1" xmlns:xlink="http://www.w3.org/1999/xlink" width="30px" height="30px" xmlns="http://www.w3.org/2000/svg">
  <g transform="matrix(1 0 0 1 -1000 -896 )">
    <path d="M 19.542421309941847 29.0625  C 19.542421309941847 29.625  19.170328300196537 30  18.61218878557857 30  L 11.170328590672394 30  C 10.612189076054431 30  10.240096066309123 29.625  10.240096066309123 29.0625  L 10.240096066309123 25.5  C 9.495910046818503 25.125  8.751724027327887 24.75  8.193584512709924 24.375  L 5.2168404347474535 26.25  C 4.844747425002144 26.4375  4.2866079103841805 26.4375  3.914514900638872 25.875  L 0.19358480318578408 19.3125  C -0.17850820655952546 18.75  0.007538298313128956 18.1875  0.5656778129310922 18  L 3.5424218908935634 16.125  L 3.5424218908935634 13.874999999999998  L 0.5656778129310924 11.999999999999998  C 0.007538298313128956 11.8125  -0.17850820655952546 11.25  0.19358480318578336 10.6875  L 3.9145149006388715 4.125  C 4.1005614055115265 3.75  4.6587009201294896 3.5625000000000004  5.216840434747453 3.9375  L 8.193584512709924 5.8125  C 8.751724027327887 5.4375  9.495910046818505 4.875  10.240096066309123 4.6875  L 10.240096066309123 0.9375  C 10.240096066309123 0.375  10.612189076054431 0  11.170328590672394 0  L 18.61218878557857 0  C 19.170328300196537 0  19.542421309941847 0.375  19.542421309941847 0.9375  L 19.542421309941847 4.5  C 20.286607329432464 4.875  21.03079334892308 5.25  21.588932863541043 5.625  L 24.565676941503515 3.75  C 24.937769951248818 3.5625  25.495909465866788 3.5625  25.868002475612094 4.125  L 29.58893257306518 10.6875  C 29.961025582810485 11.25  29.774979077937836 11.8125  29.216839563319876 12  L 26.2400954853574 13.875  L 26.2400954853574 16.125  L 29.216839563319876 18  C 29.58893257306518 18.1875  29.774979077937836 18.75  29.58893257306518 19.312499999999996  L 25.868002475612094 25.874999999999996  C 25.681955970739438 26.249999999999996  25.123816456121475 26.4375  24.565676941503515 26.249999999999996  L 21.588932863541043 24.374999999999996  C 21.030793348923076 24.749999999999996  20.286607329432464 25.312499999999996  19.542421309941847 25.499999999999996  L 19.542421309941847 29.0625  Z M 12.100561115035669 24.750000000000007  L 12.100561115035667 28.125  L 17.6819562612153 28.125  L 17.6819562612153 24.9375  C 17.6819562612153 24.562500000000004  17.868002766087955 24.1875  18.240095775833264 24  C 19.170328300196537 23.625000000000004  20.10056082455981 23.0625  20.84474684405043 22.5  C 21.216839853795737 22.3125  21.588932863541046 22.3125  21.961025873286353 22.5  L 24.75172344637617 24.1875  L 27.542421019465987 19.3125  L 24.75172344637617 17.625  C 24.379630436630862 17.250000000000004  24.193583931758205 16.875  24.379630436630862 16.5  C 24.379630436630862 15.9375  24.565676941503515 15.562500000000002  24.565676941503515 15  C 24.565676941503515 14.437499999999998  24.565676941503515 14.0625  24.379630436630862 13.5  C 24.379630436630862 13.125  24.565676941503515 12.75  24.75172344637617 12.5625  L 27.542421019465987 10.875  L 24.75172344637617 5.999999999999999  L 21.961025873286353 7.687499999999999  C 21.588932863541046 7.874999999999998  21.216839853795737 7.874999999999998  20.84474684405043 7.687499999999999  C 20.10056082455981 7.125  19.170328300196537 6.562499999999999  18.240095775833264 6.1875  C 17.868002766087958 5.812499999999999  17.6819562612153 5.4375  17.6819562612153 5.062499999999999  L 17.6819562612153 1.875  L 12.100561115035667 1.875  L 12.100561115035667 5.0625  C 12.100561115035667 5.437500000000001  11.914514610163012 5.8125  11.542421600417704 6  C 10.612189076054431 6.375000000000001  9.681956551691158 6.9375  8.937770532200544 7.5  C 8.565677522455234 7.687499999999999  8.193584512709924 7.687499999999999  7.821491502964616 7.5  L 5.0307939298748 6  L 2.2400963567849836 10.875000000000002  L 5.0307939298748 12.562500000000002  C 5.402886939620109 12.750000000000002  5.5889334444927625 13.125000000000002  5.402886939620109 13.500000000000002  C 5.402886939620109 14.062500000000002  5.216840434747454 14.437500000000002  5.216840434747454 15.000000000000004  C 5.216840434747454 15.562500000000005  5.216840434747454 15.937500000000004  5.402886939620109 16.500000000000004  C 5.588933444492763 16.875000000000004  5.402886939620109 17.250000000000007  5.0307939298748 17.437500000000004  L 2.2400963567849836 19.125000000000007  L 5.0307939298748 24.000000000000004  L 7.821491502964616 22.312500000000004  C 8.193584512709926 22.125000000000004  8.565677522455236 22.125000000000004  8.937770532200544 22.312500000000004  C 9.68195655169116 22.875000000000007  10.612189076054433 23.437500000000004  11.542421600417704 23.812500000000007  C 11.914514610163014 24.000000000000004  12.100561115035669 24.375000000000007  12.100561115035669 24.750000000000007  Z " fill-rule="nonzero" fill="#000000" stroke="none" transform="matrix(1 0 0 1 1000 896 )" />
  </g>
</svg>