<?xml version="1.0" encoding="utf-8"?>
<svg version="1.1" xmlns:xlink="http://www.w3.org/1999/xlink" width="13px" height="16px" xmlns="http://www.w3.org/2000/svg">
  <g transform="matrix(1 0 0 1 -2199 -916 )">
    <path d="M 1.7727272727272725 15.428571428571429  C 1.7727272727272725 15.047714285714287  1.9697954545454546 14.857142857142858  2.3636363636363638 14.857142857142858  L 10.636363636363637 14.857142857142858  C 11.030204545454545 14.857142857142858  11.227272727272727 15.047714285714287  11.227272727272727 15.428571428571429  C 11.227272727272727 15.80942857142857  11.030204545454545 16  10.636363636363637 16  L 2.3636363636363638 16  C 1.9697954545454546 16  1.7727272727272725 15.80942857142857  1.7727272727272725 15.428571428571429  Z M 10.498090909090909 9.919428571428572  C 11.378545454545453 8.55657142857143  11.818772727272727 7.345142857142859  11.818181818181818 6.285714285714286  C 11.78125 4.833142857142858  11.260954545454544 3.622  10.25759090909091 2.652  C 9.254227272727274 1.6820000000000002  8.001795454545455 1.1791428571428573  6.5 1.1428571428571428  C 4.997909090909091 1.1785714285714286  3.7454772727272725 1.6817142857142855  2.742409090909091 2.652  C 1.739340909090909 3.6222857142857143  1.2193409090909093 4.833428571428572  1.1818181818181819 6.285714285714286  C 1.1818181818181819 7.345142857142856  1.6220454545454546 8.556285714285716  2.501909090909091 9.919428571428572  C 3.3820681818181817 11.282285714285715  4.714863636363636 12.791428571428572  6.5 14.446285714285716  C 8.284840909090908 12.791428571428572  9.617636363636363 11.28257142857143  10.498090909090909 9.919428571428572  Z M 13 6.285714285714286  C 13 8.952285714285713  10.833431818181818 12.19057142857143  6.5 16  C 2.1665681818181812 12.19057142857143  0 8.952285714285713  0 6.285714285714286  C 0.04934090909090903 4.5  0.6833863636363638 3.0177142857142853  1.9021363636363633 1.8394285714285716  C 3.1208863636363633 0.6611428571428571  4.653704545454546 0.04800000000000004  6.5 0  C 8.34659090909091 0.04771428571428566  9.879409090909093 0.660857142857143  11.097863636363636 1.8394285714285712  C 12.31631818181818 3.0180000000000002  12.950363636363637 4.500285714285715  13 6.285714285714286  Z M 7.09090909090909 4  L 7.09090909090909 5.714285714285714  L 8.863636363636363 5.714285714285714  C 9.03618181818182 5.714285714285714  9.177704545454546 5.767714285714286  9.2885 5.874857142857143  C 9.399295454545456 5.982  9.454545454545455 6.118857142857143  9.454545454545455 6.285714285714286  C 9.454545454545455 6.452571428571429  9.399295454545456 6.589428571428571  9.2885 6.696571428571429  C 9.177704545454546 6.803714285714285  9.03618181818182 6.857142857142857  8.863636363636363 6.857142857142857  L 7.09090909090909 6.857142857142857  L 7.09090909090909 8.571428571428571  C 7.09090909090909 8.738285714285714  7.035659090909093 8.875142857142858  6.9248636363636376 8.982285714285714  C 6.8140681818181825 9.089428571428572  6.672545454545455 9.142857142857142  6.500000000000002 9.142857142857142  C 6.327454545454547 9.142857142857142  6.185931818181819 9.089428571428572  6.075136363636365 8.982285714285714  C 5.964340909090909 8.875142857142858  5.909090909090909 8.738285714285714  5.909090909090909 8.571428571428571  L 5.909090909090909 6.857142857142857  L 4.136363636363637 6.857142857142857  C 3.9638181818181817 6.857142857142857  3.822295454545455 6.803714285714285  3.7115000000000005 6.696571428571429  C 3.6007045454545454 6.589428571428571  3.545454545454545 6.452571428571429  3.545454545454545 6.285714285714286  C 3.545454545454545 6.118857142857143  3.6007045454545454 5.982  3.7115000000000005 5.874857142857143  C 3.822295454545455 5.767714285714286  3.9638181818181817 5.714285714285714  4.136363636363637 5.714285714285714  L 5.909090909090909 5.714285714285714  L 5.909090909090909 4  C 5.909090909090909 3.833142857142857  5.964340909090909 3.6962857142857146  6.075136363636364 3.5891428571428574  C 6.185931818181818 3.482  6.327454545454546 3.4285714285714284  6.5 3.4285714285714284  C 6.672545454545454 3.4285714285714284  6.8140681818181825 3.482  6.9248636363636376 3.5891428571428574  C 7.035659090909093 3.6962857142857146  7.09090909090909 3.833142857142857  7.09090909090909 4  Z " fill-rule="nonzero" fill="#000000" stroke="none" transform="matrix(1 0 0 1 2199 916 )" />
  </g>
</svg>