<?xml version="1.0" encoding="utf-8"?>
<svg version="1.1" xmlns:xlink="http://www.w3.org/1999/xlink" width="22px" height="20px" xmlns="http://www.w3.org/2000/svg">
  <g transform="matrix(1 0 0 1 -1804 -1083 )">
    <path d="M 18.574336000000002 0.41486725663717117  C 19.21262933333334 0.6414159292035431  19.802112000000005 1.026548672566375  20.342784 1.5702654867256638  C 20.883456000000002 2.113982300884956  21.285205333333337 2.7218879056047203  21.548032 3.3939823008849563  C 21.810858666666668 4.066076696165192  21.942272000000003 4.757050147492627  21.942272 5.4669026548672575  C 21.942272000000003 6.17675516224189  21.810858666666668 6.867728613569324  21.548032 7.539823008849559  C 21.285205333333337 8.211917404129796  20.883456000000002 8.81982300884956  20.342784 9.363539823008852  L 11.714560000000002 17.972389380530977  C 11.173888 18.516106194690266  10.509312 18.969203539823013  9.720832 19.331681415929207  C 8.932352 19.6941592920354  8.098816 19.905604719764018  7.220224 19.96601769911505  C 6.3416320000000015 20.026430678466085  5.4442666666666675 19.905604719764018  4.528128000000001 19.603539823008852  C 3.611989333333333 19.301474926253693  2.763434666666666 18.7577581120944  1.9824640000000002 17.972389380530977  C 1.2165120000000003 17.202123893805318  0.6833493333333336 16.36766961651918  0.3829760000000003 15.46902654867257  C 0.08260266666666703 14.570383480825964  -0.0375466666666663 13.675516224188796  0.022528000000000332 12.784424778761068  C 0.08260266666666696 11.89333333333334  0.2891093333333336 11.055103244837765  0.6420480000000004 10.269734513274342  C 0.9949866666666671 9.48436578171092  1.4417920000000006 8.819823008849562  1.9824640000000002 8.276106194690271  L 9.641984 0.6414159292035453  C 9.777152000000001 0.5054867256637224  9.976149333333336 0.4715044247787667  10.238976000000003 0.5394690265486779  C 10.501802666666668 0.6074336283185895  10.700800000000003 0.7093805309734569  10.835968000000001 0.8453097345132797  C 10.956117333333337 0.9812389380531028  11.05373866666667 1.1813569321533977  11.128832000000003 1.4456637168141646  C 11.203925333333336 1.7099705014749316  11.173888000000003 1.9100884955752264  11.038720000000001 2.04601769911505  L 3.4017280000000016 9.658053097345139  C 2.996224000000002 10.065840707964606  2.658304000000002 10.541592920353988  2.3879680000000016 11.085309734513281  C 2.117632000000002 11.629026548672572  1.959936000000002 12.21050147492626  1.9148800000000017 12.829734513274342  C 1.8698240000000017 13.448967551622424  1.959936000000002 14.075752212389382  2.1852160000000014 14.710088495575224  C 2.410496000000002 15.344424778761068  2.816000000000002 15.956106194690271  3.4017280000000016 16.545132743362835  C 3.927381333333335 17.07374631268437  4.509354666666669 17.447551622418885  5.147648000000002 17.666548672566375  C 5.785941333333336 17.885545722713868  6.420480000000003 17.976165191740417  7.051264000000003 17.938407079646023  C 7.682048000000003 17.900648967551625  8.28279466666667 17.760943952802364  8.853504000000003 17.519292035398234  C 9.424213333333338 17.277640117994107  9.912320000000005 16.952920353982307  10.317824000000003 16.545132743362835  L 18.92352 7.958938053097349  C 19.329024000000004 7.551150442477878  19.61813333333334 7.128259587020652  19.790848 6.690265486725667  C 19.963562666666668 6.2522713864306825  20.046165333333335 5.818053097345136  20.038656000000003 5.387610619469029  C 20.031146666666668 4.957168141592923  19.92977066666667 4.538053097345135  19.734528000000005 4.130265486725667  C 19.53928533333334 3.7224778761061987  19.268949333333335 3.344896755162247  18.92352 2.9975221238938095  C 18.27771733333334 2.363185840707968  17.55306666666667 2.0648967551622452  16.749568 2.102654867256641  C 15.946069333333336 2.1404129793510362  15.138816000000002 2.5670796460177026  14.327808000000001 3.3826548672566408  L 6.555648000000001 11.15327433628319  C 6.210218666666668 11.500648967551628  6.041258666666667 11.885781710914461  6.048768000000001 12.308672566371685  C 6.056277333333334 12.731563421828916  6.195200000000001 13.078938053097353  6.465536000000001 13.350796460176998  C 6.795946666666669 13.683067846607678  7.175168000000001 13.818997050147498  7.6032 13.758584070796466  C 8.031232000000001 13.698171091445433  8.380416 13.532035398230093  8.650752 13.260176991150448  L 15.702016 6.214513274336289  C 15.837184 6.078584070796467  16.036181333333335 6.04460176991151  16.299008 6.112566371681422  C 16.56183466666667 6.180530973451333  16.760832 6.282477876106202  16.896 6.418407079646023  C 17.031168000000005 6.554336283185847  17.136298666666672 6.754454277286142  17.211392 7.0187610619469085  C 17.286485333333335 7.283067846607677  17.256448 7.483185840707971  17.121280000000002 7.619115044247794  L 10.047488 14.664778761061953  C 9.506816 15.208495575221248  8.988672 15.5860766961652  8.493056 15.797522123893813  C 7.997439999999999 16.008967551622426  7.531861333333333 16.103362831858416  7.09632 16.08070796460178  C 6.660778666666667 16.05805309734514  6.2552746666666685 15.941002949852516  5.879808 15.729557522123901  C 5.5043413333333335 15.518112094395292  5.158912000000001 15.2613569321534  4.843520000000001 14.959292035398237  C 4.5882026666666675 14.717640117994108  4.359168000000001 14.408023598820066  4.156416 14.030442477876113  C 3.9536640000000007 13.652861356932158  3.8372693333333348 13.237522123893811  3.807232000000001 12.784424778761068  C 3.777194666666668 12.331327433628323  3.8560426666666676 11.848023598820063  4.043776000000001 11.334513274336286  C 4.231509333333335 10.821002949852511  4.595712000000002 10.299941002949854  5.1363840000000005 9.771327433628322  C 5.406720000000001 9.499469026548676  5.647018666666668 9.250265486725668  5.857280000000001 9.023716814159297  C 6.037504 8.827374631268443  6.206464000000002 8.653687315634222  6.364160000000001 8.502654867256641  C 6.521856000000002 8.35162241887906  6.608213333333334 8.268554572271391  6.623232000000001 8.253451327433632  L 12.908544000000001 1.9553982300884984  C 13.449216000000002 1.4116814159292066  14.038698666666669 0.9850147492625396  14.676992000000002 0.6753982300884985  C 15.315285333333337 0.3657817109144574  15.96484266666667 0.1883185840707996  16.625664 0.14300884955752508  C 17.28648533333334 0.0976991150442507  17.936042666666673 0.1883185840707993  18.574336000000002 0.41486725663717117  Z " fill-rule="nonzero" fill="#000000" stroke="none" transform="matrix(1 0 0 1 1804 1083 )" />
  </g>
</svg>