<?xml version="1.0" encoding="utf-8"?>
<svg version="1.1" xmlns:xlink="http://www.w3.org/1999/xlink" width="7px" height="12px" xmlns="http://www.w3.org/2000/svg">
  <g transform="matrix(1 0 0 1 -1953 -1219 )">
    <path d="M 5.968958333333333 11.835267857142858  C 6.196458333333333 12.04419642857143  6.566875 12.04419642857143  6.794375 11.835267857142858  C 7.0218750000000005 11.626339285714286  7.0218750000000005 11.287500000000001  6.794375 11.077232142857143  L 1.2658333333333334 6  L 6.794375000000001 0.9227678571428568  C 7.021875000000001 0.7138392857142855  7.021875000000001 0.3749999999999996  6.794375000000001 0.16473214285714263  C 6.5668750000000005 -0.04553571428571436  6.197916666666668 -0.04419642857142882  5.968958333333335 0.16473214285714263  L 0.3310416666666665 5.342410714285714  C 0.13416666666666652 5.523214285714285  0.03499999999999967 5.761607142857143  0.03499999999999967 6  C 0.03499999999999967 6.2383928571428555  0.13416666666666652 6.476785714285715  0.3310416666666665 6.657589285714286  L 5.968958333333333 11.835267857142858  Z " fill-rule="nonzero" fill="#000000" stroke="none" transform="matrix(1 0 0 1 1953 1219 )" />
  </g>
</svg>