<?xml version="1.0" encoding="utf-8"?>
<svg version="1.1" xmlns:xlink="http://www.w3.org/1999/xlink" width="20px" height="20px" xmlns="http://www.w3.org/2000/svg">
  <g transform="matrix(1 0 0 1 -171 -901 )">
    <path d="M 19.847820389597043 10.03691318873355  C 19.849500256990133 9.582947239925984  19.4819156301398 9.213726922286185  19.02878962787829 9.212091257195723  L 10.87336166221217 9.214655299136512  L 10.87336166221217 1.0263370168585526  C 10.87336166221217 0.5723710937499995  10.504937063116778 0.20394649465460546  10.050971140008224 0.20394649465460546  C 9.597005216899671 0.20394649465460546  9.228624820106909 0.57237109375  9.228624820106909 1.0263370168585526  L 9.228624820106909 9.208908331620066  L 0.9440669973273017 9.204354980468748  C 0.9432270507812492 9.204354980468748  0.9424313322368412 9.204354980468748  0.9415913856907887 9.204354980468748  C 0.488465383429276 9.204354980468748  0.12088073087993334 9.570303942228618  0.11920086348684156 10.024269891036184  C 0.11672525185032817 10.478235814144735  0.48435410670230156 10.847456157483553  0.9382758275082226 10.84909182257401  L 9.228580617804274 10.85364517372533  L 9.228580617804274 19.055933002672695  C 9.228580617804274 19.510694670024673  9.59700521689967 19.878323524876645  10.050926937705588 19.878323524876645  C 10.504848658511508 19.878323524876645  10.873317459909536 19.510738872327302  10.873317459909536 19.055933002672695  L 10.87331745990954 10.859392141241775  L 19.022158511513155 10.856828099300985  C 19.02379417660362 10.856828099300985  19.02463412314967 10.856828099300985  19.02542986739309 10.856828099300985  C 19.478555869654606 10.856828099300985  19.846140522203946 10.490879137541116  19.847820389597043 10.03691318873355  Z " fill-rule="nonzero" fill="#272636" stroke="none" transform="matrix(1 0 0 1 171 901 )" />
  </g>
</svg>