<?xml version="1.0" encoding="utf-8"?>
<svg version="1.1" xmlns:xlink="http://www.w3.org/1999/xlink" width="11px" height="14px" xmlns="http://www.w3.org/2000/svg">
  <g transform="matrix(1 0 0 1 -1771 -1009 )">
    <path d="M 10.942343076923077 5.808215  C 10.942343076923077 2.6382824999999994  8.50574153846154 0.06868750000000001  5.499932307692308 0.06868750000000001  C 2.494207692307693 0.06868750000000001  0.057589230769230774 2.6382825  0.057589230769230774 5.808215  C 0.057589230769230774 5.908822499999999  0.06698153846153856 6.006069999999999  0.07190615384615388 6.104559999999999  C 0.06743846153846163 6.15321  0.057589230769230774 6.2001275  0.057589230769230774 6.250055  C 0.057589230769230774 9.782675  5.081356923076923 13.7841725  5.081356923076923 13.7841725  C 5.081356923076923 13.7841725  5.499983076923076 14.1152375  5.918626153846154 13.7841725  C 6.337252307692308 13.452739999999999  10.942393846153845 9.782675  10.942393846153845 6.250055  C 10.942393846153845 6.200127500000001  10.932544615384616 6.15321  10.928076923076922 6.104559999999999  C 10.93295076923077 6.00607  10.942343076923077 5.908822499999999  10.942343076923077 5.808215  Z M 5.499932307692308 8.0163125  C 4.3437646153846154 8.0163125  3.4067676923076924 7.02793  3.4067676923076924 5.808215  C 3.4067676923076924 4.5893575  4.3437476923076925 3.600939999999999  5.4999323076923075 3.600939999999999  C 6.656167692307692 3.600939999999999  7.593215384615384 4.589357499999999  7.593215384615384 5.808215  C 7.593215384615386 7.02793  6.656167692307692 8.0163125  5.499932307692308 8.0163125  Z " fill-rule="nonzero" fill="#e7772d" stroke="none" transform="matrix(1 0 0 1 1771 1009 )" />
  </g>
</svg>