<?xml version="1.0" encoding="utf-8"?>
<svg version="1.1" xmlns:xlink="http://www.w3.org/1999/xlink" width="23px" height="30px" xmlns="http://www.w3.org/2000/svg">
  <g transform="matrix(1 0 0 1 -947 -896 )">
    <path d="M 11.497316666666666 0.09492584745762717  C 5.276040277777778 0.09492584745762717  0.21466666666666573 5.117574152542373  0.21466666666666573 11.291186440677969  C 0.21466666666666573 12.096419491525426  0.30142777777777713 12.900667372881358  0.4724902777777768 13.681620762711866  C 0.5501472222222216 14.036281779661019  0.8962972222222211 15.132298728813561  0.9332569444444437 15.229735169491528  C 1.5394986111111106 16.803305084745766  2.4344222222222216 18.14491525423729  3.5634347222222216 19.250688559322036  L 1.9623472222222216 17.279300847457623  C 2.0946930555555547 17.486408898305086  10.039052777777776 29.077595338983045  10.039052777777776 29.077595338983045  C 10.360733333333332 29.54297669491525  10.893023611111111 29.84421610169491  11.496038888888888 29.84421610169491  C 11.496518055555555 29.84421610169491  11.496965277777777 29.84421610169491  11.497444444444444 29.84421610169491  C 11.497763888888887 29.84421610169491  11.498243055555553 29.84421610169491  11.498690277777776 29.84421610169491  C 12.101737499999999 29.84421610169491  12.63405972222222 29.542944915254235  12.951874999999998 29.083442796610168  C 13.269690277777773 28.623940677966104  21.382844444444444 16.69268008474576  21.421049999999997 16.62270127118644  C 22.05093055555555 15.4918220338983  22.49882361111111 14.17112288135593  22.685059722222217 12.768336864406777  C 21.922641666666664 15.579247881355931  22.39433333333333 14.264809322033896  22.52230277777777 13.681461864406778  C 22.68608194444444 12.963463983050845  22.77993472222222 12.138940677966099  22.77993472222222 11.29258474576271  C 22.77993472222222 11.292076271186437  22.77993472222222 11.291599576271183  22.77993472222222 11.291091101694912  C 22.77993472222222 5.117542372881353  17.718529166666663 0.09489406779660624  11.497284722222217 0.09489406779660624  Z M 21.243854166666665 13.40427966101695  C 21.130994444444443 13.91876059322034  20.714406944444445 15.079639830508476  20.6816 15.156228813559323  C 20.55692083333333 15.447362288135592  20.203295833333332 16.12404661016949  20.168093055555556 16.18522245762712  C 20.09749583333333 16.308050847457626  11.874324999999999 28.344819915254234  11.874324999999999 28.344819915254234  C 11.752169444444444 28.52323093220339  11.570054166666665 28.54255296610169  11.49734861111111 28.54255296610169  C 11.424643055555554 28.54255296610169  11.242591666666666 28.52323093220339  11.120531944444444 28.344947033898304  C 11.120531944444444 28.344947033898304  3.17048611111111 16.745338983050846  3.0450083333333327 16.54716101694915  L 3.0340194444444437 16.529713983050847  C 2.307666666666666 15.393749999999999  1.8007083333333327 14.048771186440677  1.6075402777777772 12.605116525423728  C 2.1254555555555545 14.68560381355932  1.8194597222222222 13.717023305084744  1.750970833333333 13.40447033898305  C 1.6061666666666665 12.770148305084746  1.5231749999999995 12.041694915254237  1.5231749999999995 11.293983050847459  C 1.5231749999999995 11.293029661016952  1.5231749999999995 11.292044491525424  1.5231749999999995 11.291091101694915  C 1.5231111111111104 5.83531779661017  5.9975375 1.3965889830508484  11.497316666666665 1.3965889830508484  C 16.99709583333333 1.3965889830508484  21.47152222222222 5.835317796610171  21.47152222222222 11.291154661016948  C 21.47152222222222 12.003114406779662  21.394919444444444 12.714152542372881  21.243854166666665 13.404247881355934  Z " fill-rule="nonzero" fill="#000000" stroke="none" transform="matrix(1 0 0 1 947 896 )" />
  </g>
</svg>