<?xml version="1.0" encoding="utf-8"?>
<svg version="1.1" xmlns:xlink="http://www.w3.org/1999/xlink" width="24px" height="30px" xmlns="http://www.w3.org/2000/svg">
  <g transform="matrix(1 0 0 1 -1710 -993 )">
    <path d="M 23.874203076923077 12.446175  C 23.874203076923077 5.653462499999999  18.55798153846154 0.14718750000000003  11.999852307692308 0.14718750000000003  C 5.441907692307693 0.14718750000000003  0.1256492307692308 5.6534625  0.1256492307692308 12.446175  C 0.1256492307692308 12.6617625  0.14614153846153868 12.870149999999999  0.15688615384615395 13.081199999999999  C 0.14713846153846175 13.18545  0.1256492307692308 13.2859875  0.1256492307692308 13.392975  C 0.1256492307692308 20.962874999999997  11.086596923076923 29.5375125  11.086596923076923 29.5375125  C 11.086596923076923 29.5375125  11.999963076923077 30.246937499999998  12.913366153846155 29.5375125  C 13.826732307692309 28.827299999999997  23.874313846153846 20.962874999999997  23.874313846153846 13.392975  C 23.874313846153846 13.285987500000001  23.852824615384616 13.18545  23.84307692307692 13.081199999999999  C 23.85371076923077 12.87015  23.874203076923077 12.6617625  23.874203076923077 12.446175  Z M 11.999852307692308 17.1778125  C 9.477304615384616 17.1778125  7.4329476923076925 15.059849999999999  7.4329476923076925 12.446175  C 7.4329476923076925 9.8343375  9.477267692307692 7.716299999999999  11.999852307692308 7.716299999999999  C 14.522547692307693 7.716299999999999  16.567015384615384 9.834337499999998  16.567015384615384 12.446175  C 16.567015384615388 15.059849999999999  14.522547692307693 17.1778125  11.999852307692308 17.1778125  Z " fill-rule="nonzero" fill="#272636" stroke="none" transform="matrix(1 0 0 1 1710 993 )" />
  </g>
</svg>