<?xml version="1.0" encoding="utf-8"?>
<svg version="1.1" xmlns:xlink="http://www.w3.org/1999/xlink" width="20px" height="20px" xmlns="http://www.w3.org/2000/svg">
  <g transform="matrix(1 0 0 1 -1190 -911 )">
    <path d="M 19.993303571428573 10.070796460176991  C 19.993303571428573 8.43141592920354  19.591517857142858 6.88495575221239  18.879464285714285 5.522123893805311  C 18.75892857142857 5.289823008849558  18.515625 5.128318584070797  18.234375 5.128318584070797  C 17.837053571428573 5.128318584070797  17.515625 5.446902654867256  17.515625 5.8384955752212395  C 17.515625 5.971238938053098  17.553571428571427 6.097345132743364  17.61830357142857 6.20353982300885  L 17.616071428571427 6.205752212389381  C 18.216517857142854 7.365044247787611  18.55580357142857 8.67920353982301  18.55580357142857 10.070796460176991  C 18.55580357142857 14.752212389380531  14.725446428571427 18.548672566371685  10.002232142857142 18.548672566371685  C 5.279017857142855 18.548672566371685  1.4464285714285716 14.754424778761061  1.4464285714285716 10.070796460176991  C 1.4464285714285716 5.3871681415929205  5.2767857142857135 1.5951327433628317  10 1.5951327433628317  C 11.395089285714286 1.5951327433628317  12.712053571428573 1.9269911504424777  13.875 2.5132743362831853  L 13.879464285714286 2.504424778761062  C 13.982142857142858 2.561946902654867  14.102678571428573 2.5951327433628313  14.229910714285715 2.5951327433628313  C 14.627232142857146 2.5951327433628313  14.948660714285717 2.276548672566371  14.948660714285717 1.8849557522123892  C 14.948660714285717 1.5951327433628317  14.772321428571434 1.3451327433628315  14.517857142857146 1.2345132743362828  C 13.160714285714285 0.5530973451327434  11.627232142857142 0.16814159292035402  10 0.16814159292035402  C 4.479910714285714 0.16814159292035402  0.004464285714285777 4.601769911504425  0.004464285714285777 10.070796460176991  C 0.004464285714285777 15.539823008849556  4.479910714285714 19.975663716814157  10 19.975663716814157  C 15.520089285714285 19.975663716814157  19.993303571428573 15.542035398230087  19.993303571428573 10.070796460176991  Z " fill-rule="nonzero" fill="#333333" stroke="none" transform="matrix(1 0 0 1 1190 911 )" />
  </g>
</svg>