<?xml version="1.0" encoding="utf-8"?>
<svg version="1.1" xmlns:xlink="http://www.w3.org/1999/xlink" width="10px" height="10px" xmlns="http://www.w3.org/2000/svg">
  <g transform="matrix(1 0 0 1 -5433 -531 )">
    <path d="M 9.933333333333334 10  C 9.853333333333333 7.45  6.8133333333333335 8.0875  6.359999999999999 6.925  C 6.32 6.5375000000000005  6.333333333333333 6.25  6.333333333333333 5.8875  C 6.52 5.7875  7.1866666666666665 5.1875  7.24 4.6875  C 7.386666666666667 4.675000000000001  7.626666666666666 4.5375  7.693333333333333 3.9875  C 7.733333333333333 3.7  7.586666666666666 3.525  7.493333333333332 3.4749999999999996  C 7.7333333333333325 2.7874999999999996  7.839999999999999 0.6374999999999997  6.159999999999998 0.4249999999999998  C 5.986666666666666 0.15  5.546666666666667 0  4.973333333333334 0  C 2.6799999999999997 0.0375  2 1.6500000000000001  2.5066666666666664 3.4875  C 2.4133333333333336 3.5375  2.2666666666666666 3.7  2.3066666666666666 4  C 2.373333333333333 4.55  2.6133333333333333 4.6875  2.76 4.7  C 2.8133333333333335 5.2125  3.4799999999999995 5.8125  3.6666666666666665 5.9  C 3.6666666666666665 6.262500000000001  3.6799999999999997 6.5375000000000005  3.6399999999999997 6.937500000000001  C 3.186666666666667 8.0875  0.2133333333333333 7.487500000000001  0.06666666666666665 10  L 9.933333333333334 10  Z " fill-rule="nonzero" fill="#999999" stroke="none" transform="matrix(1 0 0 1 5433 531 )" />
  </g>
</svg>