<?xml version="1.0" encoding="utf-8"?>
<svg version="1.1" xmlns:xlink="http://www.w3.org/1999/xlink" width="30px" height="30px" xmlns="http://www.w3.org/2000/svg">
  <g transform="matrix(1 0 0 1 -1060 -896 )">
    <path d="M 26 15  L 26 4  L 15.140624999999998 4  C 14.933518218813452 4.027777777777779  14.765625 3.8619573147521473  14.765625 3.6574074074074074  L 14.765625 0.6944444444444444  C 14.765625 0.4898945370997062  14.933518218813452 0.32407407407407407  15.140624999999998 0.32407407407407407  L 28.5 0.32407407407407407  C 29.328421875 0.32407407407407407  30 0.9873611111111109  30 1.8055555555555554  L 30 15  C 30 15.204549907344738  29.832106781186546 15.370370370370372  29.625 15.370370370370372  L 26.625 15.370370370370372  C 26.417893218813454 15.370370370370372  26.25 15.204549907344738  26 15  Z M 4 15.277777777777779  L 4 26  L 14.90625 26  C 15.113356781186546 26.25  15.28125 26.415820463025636  15.28125 26.620370370370374  L 15.28125 29.583333333333336  C 15.28125 29.78788324067807  15.113356781186546 29.953703703703702  14.90625 30  L 1.546875 30  C 0.7184531249999999 29.953703703703702  0.046875 29.29041666666667  0 28.47222222222222  L 0 15.277777777777779  C 0.046875 15.073227870433039  0.21476821881345254 14.907407407407407  0.421875 14.907407407407407  L 3.421875 14.907407407407407  C 3.628981781186549 14.907407407407407  3.796875 15.073227870433039  4 15.277777777777779  Z " fill-rule="nonzero" fill="#000000" stroke="none" transform="matrix(1 0 0 1 1060 896 )" />
  </g>
</svg>