<?xml version="1.0" encoding="utf-8"?>
<svg version="1.1" xmlns:xlink="http://www.w3.org/1999/xlink" width="20px" height="20px" xmlns="http://www.w3.org/2000/svg">
  <g transform="matrix(1 0 0 1 -1846 -1083 )">
    <path d="M 9.947537908651213 19.964118469865596  C 7.290125835997328 19.964118469865596  4.7916165893736355 18.927850148999575  2.9129749018118476 17.047215053214135  C 1.033967077949911 15.164365704555127  -0.00036594264054825757 12.662264842182083  0 10  C 0 7.338104199963511  1.0350654868503604 4.83563429544487  2.914439447012447 2.9535230310770544  C 4.793081134574234 1.0721498510004261  7.2915903618899955 0.03588153013440421  9.949368590151963 0.03588153013440421  C 12.607879071706298 0.03588153013440421  15.10602216272191 1.0721498510004261  16.985396122883998 2.9535230310770544  C 20.864602634954355 6.839529234324636  20.864236498654204 13.160839807820956  16.985396122883998 17.045369842486163  C 15.105656026421759 18.927112064708385  12.606048390205547 19.964118469865596  9.947537908651213 19.964118469865596  Z M 9.949368590151963 1.3345383105272766  C 7.637588489753981 1.3345383105272766  5.465306068709977 2.235368416955544  3.830876829957771 3.8716980988870646  C 2.1964475718976324 5.507658738672992  1.296486303151119 7.684634093535242  1.296486303151119 10  C 1.2961201668509692 12.315734948610352  2.195715299297332 14.49234126132701  3.829412284757171 16.129039985404123  C 5.463475387209229 17.764631583044455  7.636490100161465 18.666568815909507  9.947537908651213 18.666568815909507  C 12.259684126041412 18.666568815909507  14.433797228586167 17.76389349875327  16.068592622946454 16.127194774676155  C 19.441799752914257 12.748989571246124  19.441799752914257 7.251010428753877  16.068592622946454 3.8716980988870646  C 14.434163364886317 2.235368416955544  12.26114867124201 1.3345383105272766  9.949368590151963 1.3345383105272766  Z M 6.41359723253661 12.71946625798212  C 6.41359723253661 12.71946625798212  7.579372933877748 14.585708749011737  9.947171772351064 14.585708749011737  C 12.314970591516447 14.585708749011737  13.867751609106627 12.71946625798212  13.867751609106627 12.71946625798212  C 13.867751609106627 12.71946625798212  14.747941556260912 12.716513920817366  14.74757541996076 13.652402972693547  C 14.74757541996076 13.652402972693547  13.221522313665659 15.82974738916256  9.947171772351064 15.82974738916256  C 6.672821231036471 15.82974738916256  5.60700054655692 13.652402972693547  5.60700054655692 13.652402972693547  C 5.60700054655692 13.652402972693547  5.574780610067531 12.71946625798212  6.41359723253661 12.71946625798212  Z M 7.056165184284012 6.795982358450406  C 6.385404795348868 6.795982358450406  5.837665971568889 7.342532705710637  5.837665971568889 8.016402340205559  C 5.837665971568889 8.68953390987046  6.385038659048718 9.236084257130695  7.056165184284012 9.236084257130695  C 7.730220799920505 9.236084257130695  8.274664416307068 8.68953390987046  8.274664416307068 8.016402340205559  C 8.274664416307068 7.342532705710637  7.730220799920505 6.795982358450406  7.056165184284012 6.795982358450406  Z M 13.29914305483397 6.795982358450406  C 12.627284256998374 6.795982358450406  12.081376095411214 7.342532705710637  12.081376095411214 8.016402340205559  C 12.081376095411214 8.68953390987046  12.627284256998374 9.236084257130695  13.29914305483397 9.236084257130695  C 13.972466397870162 9.236084257130695  14.517642267549093 8.68953390987046  14.517642267549093 8.016402340205559  C 14.517642267549093 7.342532705710637  13.972466397870162 6.795982358450406  13.29914305483397 6.795982358450406  Z " fill-rule="nonzero" fill="#000000" stroke="none" transform="matrix(1 0 0 1 1846 1083 )" />
  </g>
</svg>