<?xml version="1.0" encoding="utf-8"?>
<svg version="1.1" xmlns:xlink="http://www.w3.org/1999/xlink" width="11px" height="11px" xmlns="http://www.w3.org/2000/svg">
  <g transform="matrix(1 0 0 1 -1009 -905 )">
    <path d="M 10.782785918367347 5.5  C 10.782785918367347 8.616666666666665  8.448092040816325 11  5.39503081632653 11  C 2.341969591836734 11  0.0072757142857139976 8.616666666666665  0.0072757142857139976 5.5  C 0.0072757142857139976 2.3833333333333346  2.341969591836734 0  5.39503081632653 0  C 8.448092040816325 0  10.782785918367347 2.3833333333333333  10.782785918367347 5.5  Z M 8.986867551020408 5.5  C 8.986867551020408 3.483333333333334  7.3705410204081625 1.8333333333333333  5.39503081632653 1.8333333333333333  C 3.4195206122448982 1.8333333333333333  1.8031940816326528 3.483333333333334  1.8031940816326528 5.5  C 1.8031940816326528 7.516666666666666  3.4195206122448982 9.166666666666668  5.39503081632653 9.166666666666668  C 7.3705410204081625 9.166666666666668  8.986867551020408 7.516666666666666  8.986867551020408 5.5  Z " fill-rule="nonzero" fill="#000000" stroke="none" transform="matrix(1 0 0 1 1009 905 )" />
  </g>
</svg>