<?xml version="1.0" encoding="utf-8"?>
<svg version="1.1" xmlns:xlink="http://www.w3.org/1999/xlink" width="10px" height="10px" xmlns="http://www.w3.org/2000/svg">
  <g transform="matrix(1 0 0 1 -954 -902 )">
    <path d="M 4.997236842105263 0.19128205128205095  C 3.682467105263158 0.19128205128205095  2.4462499999999996 0.6889102564102565  1.5165131578947362 1.5924679487179487  C 0.5861513157894724 2.4964743589743583  0.07381578947368327 3.6986217948717948  0.07381578947368327 4.977435897435897  C 0.07381578947368327 5.326185897435898  0.1117434210526313 5.672564102564102  0.18657894736842 6.007019230769231  C 0.3060197368421033 6.541217948717949  0.5198355263157893 7.049134615384615  0.8223355263157883 7.517147435897434  C 1.1868421052631575 8.074134615384613  1.6464144736842101 8.5388141025641  2.183684210526314 8.90205128205128  L 1.020065789473682 7.799583333333333  C 1.4706907894736823 8.39775641025641  2.064671052631578 8.893365384615384  2.7379605263157867 9.232724358974357  C 3.437105263157893 9.585160256410253  4.197302631578944 9.763878205128202  4.997368421052631 9.763878205128202  C 5.797105263157894 9.763878205128202  6.5571381578947365 9.585128205128203  7.256447368421053 9.232660256410256  C 8.225855263157897 8.734903846153847  8.989276315789475 7.964230769230769  9.452434210526317 7.026185897435897  L 8.977598684210529 7.79551282051282  C 9.342993421052633 7.3166666666666655  9.619111842105264 6.750160256410255  9.768651315789477 6.135929487179487  C 9.47463815789474 7.049487179487178  9.688651315789476 6.540961538461537  9.80825657894737 6.00599358974359  C 9.879835526315793 5.697980769230769  9.920822368421055 5.344262820512819  9.920822368421055 4.981185897435898  C 9.920822368421055 4.979839743589745  9.920822368421055 4.978525641025641  9.920822368421055 4.977179487179487  C 9.920822368421055 3.69875  9.40855263157895 2.496666666666667  8.478190789473686 1.5925320512820518  C 7.548092105263161 0.6889102564102565  6.31197368421053 0.19121794871794898  4.997269736842108 0.19121794871794898  Z M 8.491644736842105 5.726538461538462  C 8.361546052631576 6.294102564102564  8.101611842105264 6.789487179487179  7.743092105263157 7.200705128205129  C 7.78358552631579 7.198750000000001  7.469901315789475 7.516538461538462  7.102861842105264 7.764647435897438  L 7.88845394736842 7.022403846153847  C 7.559967105263157 7.45846153846154  7.127203947368418 7.8196153846153855  6.6371381578947375 8.066762820512821  C 6.13111842105263 8.321762820512822  5.579440789473685 8.451089743589744  4.997269736842107 8.451089743589744  C 4.414802631578948 8.451089743589744  3.862927631578949 8.321762820512822  3.356973684210527 8.066762820512821  C 2.867138157894737 7.819871794871798  2.434638157894738 7.458942307692309  2.106282894736842 7.0229487179487196  L 1.5631578947368416 7.411346153846155  L 2.1022368421052615 7.017628205128207  C 2.0535855263157887 6.953044871794873  1.915690789473683 6.743846153846156  1.8935855263157875 6.706762820512822  C 1.6395394736842082 6.288012820512821  1.4733552631578937 5.79125  1.4328289473684188 5.260416666666669  C 1.451019736842103 5.503333333333336  1.4211842105263142 5.245801282051284  1.4211842105263142 4.981538461538463  C 1.4211842105263142 4.9801282051282065  1.4211842105263142 4.978717948717949  1.4211842105263142 4.977339743589745  C 1.4211842105263142 4.050128205128208  1.7929276315789453 3.178076923076925  2.467960526315788 2.5221153846153865  C 3.14345394736842 1.8657051282051293  4.0416776315789456 1.5042307692307717  4.997236842105261 1.5042307692307717  C 5.9527302631578936 1.5042307692307717  6.851019736842105 1.8657692307692322  7.526513157894734 2.5222435897435918  C 8.201611842105262 3.178269230769234  8.573289473684207 4.050224358974361  8.573289473684207 4.977532051282054  C 8.573289473684207 5.232275641025643  8.545789473684207 5.484294871794874  8.491644736842105 5.7265705128205155  Z " fill-rule="nonzero" fill="#000000" stroke="none" transform="matrix(1 0 0 1 954 902 )" />
  </g>
</svg>