<?xml version="1.0" encoding="utf-8"?>
<svg version="1.1" xmlns:xlink="http://www.w3.org/1999/xlink" width="100px" height="100px" xmlns="http://www.w3.org/2000/svg">
  <defs>
    <mask fill="white" id="clip6199">
      <path d="M 1753.5 521.5  C 1751.28 521.5  1749.5 519.72  1749.5 517.5  L 1749.5 426.5  C 1749.5 424.28  1751.28 422.5  1753.5 422.5  L 1848.5 422.5  L 1848.5 521.5  L 1753.5 521.5  " fill-rule="evenodd" />
    </mask>
  </defs>
  <g transform="matrix(1 0 0 1 -1749 -422 )">
    <path d="M 1749 422  L 1849 422  L 1849 522  L 1749 522  L 1749 422  " fill-rule="nonzero" fill="#cccccc" stroke="none" mask="url(#clip6199)" />
    <path d="M 1756 429  L 1842 429  L 1842 515  L 1756 515  L 1756 429  " fill-rule="nonzero" fill="#ffffff" stroke="none" mask="url(#clip6199)" />
    <path d="M 1808.5 452  C 1804.3 452  1801 448.7  1801 444.5  C 1801 440.3  1804.3 437  1808.5 437  C 1812.7 437  1816 440.3  1816 444.5  C 1816 448.7  1812.7 452  1808.5 452  " fill-rule="nonzero" fill="#cccccc" stroke="none" mask="url(#clip6199)" />
    <path d="M 1759 513  L 1759 468.45  L 1779.25 448.2  L 1807.6 464.4  L 1823.8 460.35  L 1840 464.4  L 1840 513  L 1759 513  " fill-rule="nonzero" fill="#169bd5" stroke="none" mask="url(#clip6199)" />
    <path d="M 1753 521.5  C 1751.0575 521.5  1749.5 519.9425  1749.5 518  L 1749.5 426  C 1749.5 424.0575  1751.0575 422.5  1753 422.5  L 1848.5 422.5  L 1848.5 521.5  L 1753 521.5  Z " stroke-width="1" stroke="#797979" fill="none" />
  </g>
</svg>