<?xml version="1.0" encoding="utf-8"?>
<svg version="1.1" xmlns:xlink="http://www.w3.org/1999/xlink" width="8px" height="8px" xmlns="http://www.w3.org/2000/svg">
  <g transform="matrix(1 0 0 1 -2838 -468 )">
    <path d="M 7.859038461538462 2.5496052631578947  C 7.859038461538462 2.767631578947368  7.729807692307692 2.9443421052631575  7.57048076923077 2.9443421052631575  L 0.3135576923076924 2.9443421052631575  C 0.15423076923076942 2.9443421052631575  0.025096153846153976 2.767631578947368  0.025096153846153976 2.5496052631578947  C 0.025096153846153976 2.331578947368421  0.15423076923076942 2.1548684210526314  0.3135576923076924 2.1548684210526314  L 7.570576923076923 2.1548684210526314  C 7.729903846153847 2.1548684210526314  7.859038461538462 2.331578947368421  7.859038461538462 2.5496052631578947  Z M 7.856923076923076 2.814999999999999  C 7.802853031365322 2.889238958374907  7.729383448628143 2.930912460445628  7.652788461538462 2.930789473684211  C 7.578942307692308 2.930789473684211  7.505096153846154 2.8922368421052633  7.448846153846153 2.8151315789473683  L 5.889711538461539 0.6814473684210526  C 5.833365384615385 0.6043421052631576  5.805192307692308 0.5032894736842105  5.805192307692308 0.4023684210526314  C 5.805192307692308 0.3014473684210522  5.833365384615385 0.20026315789473645  5.889711538461539 0.12328947368421021  C 6.002307692307692 -0.030921052631579248  6.1850000000000005 -0.030921052631579248  6.297692307692307 0.12328947368421021  L 7.856923076923076 2.2568421052631575  C 7.91326923076923 2.3339473684210525  7.941442307692307 2.435  7.941442307692307 2.5359210526315783  C 7.941442307692307 2.636842105263157  7.91326923076923 2.737894736842105  7.856923076923076 2.814999999999999  Z M 7.990288461538461 5.383421052631578  C 7.990288461538461 5.601447368421053  7.861153846153846 5.778157894736842  7.701826923076923 5.778157894736842  L 0.44480769230769224 5.778157894736842  C 0.2854807692307692 5.778157894736842  0.15634615384615375 5.601447368421053  0.15634615384615375 5.383421052631578  C 0.15634615384615375 5.165394736842105  0.2854807692307692 4.988684210526316  0.44480769230769224 4.988684210526316  L 7.701826923076923 4.988684210526316  C 7.861153846153846 4.988684210526316  7.990288461538461 5.165394736842105  7.990288461538461 5.383421052631578  Z M 2.1258653846153845 7.809736842105261  C 2.073076923076923 7.881842105263156  1.9980769230769226 7.925921052631577  1.9200000000000002 7.925921052631579  C 1.8504807692307692 7.925921052631579  1.7785576923076927 7.89092105263158  1.7176923076923076 7.809605263157894  L 1.7159615384615383 7.807236842105263  L 1.715480769230769 7.806578947368422  L 1.714807692307692 7.805657894736842  L 1.1509615384615384 7.034078947368421  L 0.16048076923076907 5.678684210526316  L 0.15999999999999986 5.678026315789475  L 0.15951923076923066 5.677368421052633  L 0.15874999999999992 5.676315789473685  C 0.04673076923076909 5.521315789473686  0.04653846153846143 5.271184210526317  0.158653846153846 5.117894736842106  C 0.257403846153846 4.9828947368421055  0.4355769230769229 4.9475  0.5666346153846151 5.118157894736842  L 0.5679807692307689 5.119736842105263  L 0.5702884615384612 5.122894736842106  L 0.5728846153846152 5.1264473684210525  L 1.5589423076923077 6.47578947368421  L 2.123846153846154 7.248815789473684  L 2.1257692307692304 7.251447368421052  C 2.2375 7.406842105263156  2.2377884615384613 7.656710526315788  2.1258653846153845 7.809736842105261  Z " fill-rule="nonzero" fill="#e7772d" stroke="none" transform="matrix(1 0 0 1 2838 468 )" />
  </g>
</svg>