<?xml version="1.0" encoding="utf-8"?>
<svg version="1.1" xmlns:xlink="http://www.w3.org/1999/xlink" width="36px" height="36px" preserveAspectRatio="xMinYMid meet" viewBox="2672 2107  36 34" xmlns="http://www.w3.org/2000/svg">
  <path d="M 2353 1510.5  L 2636 1510.5  A 5 5 0 0 1 2641.5 1515.5 L 2641.5 2119  A 5 5 0 0 0 2646.5 2124.5 L 2690 2124.5  " stroke-width="3" stroke="#0066ff" fill="none" />
  <path d="M 2354 1506.5  A 4 4 0 0 0 2350 1510.5 A 4 4 0 0 0 2354 1514.5 A 4 4 0 0 0 2358 1510.5 A 4 4 0 0 0 2354 1506.5 Z M 2680.9 2134.5  L 2693 2124.5  L 2680.9 2114.5  L 2685.8 2124.5  L 2680.9 2134.5  Z " fill-rule="nonzero" fill="#0066ff" stroke="none" />
</svg>