<?xml version="1.0" encoding="utf-8"?>
<svg version="1.1" xmlns:xlink="http://www.w3.org/1999/xlink" width="9px" height="9px" xmlns="http://www.w3.org/2000/svg">
  <g transform="matrix(1 0 0 1 -1842 -1506 )">
    <path d="M 2.2412109375 0.6035156249999997  C 2.9306640625 0.20117187499999922  3.6835937500000004 0  4.5 0  C 5.31640625 0  6.069335937500001 0.20117187499999922  6.7587890625 0.6035156249999997  C 7.4482421875 1.0058593749999991  7.994140625000001 1.5517578125  8.396484375 2.2412109375  C 8.798828124999998 2.930664062499999  9 3.6835937499999987  9 4.5  C 9 5.31640625  8.798828124999998 6.069335937499999  8.396484375 6.7587890625  C 7.994140625000001 7.4482421875  7.4482421875 7.994140625  6.7587890625 8.396484375  C 6.069335937500001 8.798828125  5.31640625 9  4.5 9  C 3.6835937500000004 9  2.9306640625 8.798828125  2.2412109375 8.396484375  C 1.5517578125000002 7.994140625  1.005859375 7.4482421875  0.603515625 6.7587890625  C 0.20117187499999997 6.069335937499999  0 5.31640625  0 4.5  C 0 3.6835937499999987  0.20117187499999997 2.930664062499999  0.603515625 2.2412109375  C 1.005859375 1.5517578125  1.5517578125000002 1.0058593749999991  2.2412109375 0.6035156249999997  Z M 3.5625 6.697265625  L 6.75 4.822265625000001  C 6.875000000000001 4.751953125000001  6.9375 4.644531249999999  6.9375 4.5  C 6.9375 4.35546875  6.875000000000001 4.248046875  6.75 4.177734375  L 3.5625 2.302734375  C 3.4414062500000004 2.228515625  3.31640625 2.2265625000000004  3.1875 2.2968750000000004  C 3.0625000000000004 2.3710937499999996  3 2.4804687499999996  3 2.6249999999999996  L 3 6.374999999999999  C 3 6.519531249999998  3.0625000000000004 6.62890625  3.1875 6.703125000000001  C 3.2500000000000004 6.734375  3.3125 6.75  3.375 6.75  C 3.4414062500000004 6.75  3.50390625 6.732421875  3.5625 6.697265625  Z " fill-rule="nonzero" fill="#000000" stroke="none" transform="matrix(1 0 0 1 1842 1506 )" />
  </g>
</svg>