<?xml version="1.0" encoding="utf-8"?>
<svg version="1.1" xmlns:xlink="http://www.w3.org/1999/xlink" width="32px" height="32px" xmlns="http://www.w3.org/2000/svg">
  <g transform="matrix(1 0 0 1 -1966 -2340 )">
    <path d="M 7.96875 2.145833333333332  C 10.42013888888889 0.715277777777775  13.097222222222223 0  16 0  C 18.90277777777778 0  21.579861111111114 0.715277777777775  24.03125 2.145833333333332  C 26.48263888888889 3.5763888888888857  28.423611111111114 5.517361111111111  29.854166666666668 7.96875  C 31.284722222222218 10.420138888888886  32 13.097222222222218  32 16  C 32 18.90277777777778  31.284722222222218 21.579861111111107  29.854166666666668 24.03125  C 28.423611111111114 26.48263888888889  26.48263888888889 28.42361111111111  24.03125 29.854166666666668  C 21.579861111111114 31.284722222222225  18.90277777777778 32  16 32  C 13.097222222222223 32  10.42013888888889 31.284722222222225  7.96875 29.854166666666668  C 5.517361111111112 28.42361111111111  3.5763888888888893 26.48263888888889  2.1458333333333335 24.03125  C 0.7152777777777777 21.579861111111107  0 18.90277777777778  0 16  C 0 13.097222222222218  0.7152777777777777 10.420138888888886  2.1458333333333335 7.96875  C 3.5763888888888893 5.517361111111111  5.517361111111112 3.5763888888888857  7.96875 2.145833333333332  Z M 12.666666666666666 23.8125  L 24 17.145833333333336  C 24.444444444444446 16.895833333333336  24.666666666666668 16.513888888888886  24.666666666666668 16  C 24.666666666666668 15.48611111111111  24.444444444444446 15.104166666666668  24 14.854166666666668  L 12.666666666666666 8.1875  C 12.236111111111112 7.923611111111111  11.791666666666666 7.916666666666668  11.333333333333334 8.166666666666668  C 10.888888888888891 8.430555555555554  10.666666666666666 8.819444444444443  11 9.333333333333332  L 11 22.666666666666664  C 10.666666666666666 23.18055555555555  10.888888888888891 23.569444444444443  11.333333333333334 23.833333333333336  C 11.555555555555557 23.944444444444443  11.777777777777779 24  12 24  C 12.236111111111112 24  12.458333333333334 23.9375  12.666666666666666 23.8125  Z " fill-rule="nonzero" fill="#000000" stroke="none" transform="matrix(1 0 0 1 1966 2340 )" />
  </g>
</svg>