<?xml version="1.0" encoding="utf-8"?>
<svg version="1.1" xmlns:xlink="http://www.w3.org/1999/xlink" width="20px" height="21px" preserveAspectRatio="xMidYMin meet" viewBox="737 2943  18 21" xmlns="http://www.w3.org/2000/svg">
  <path d="M 748 2957  L 1070 2957  A 5 5 0 0 1 1075 2962 L 1075 3096  A 5 5 0 0 0 1080 3101 L 1403 3101  " stroke-width="2" stroke="#0066ff" fill="none" />
  <path d="M 749.5 2953.5  A 3.5 3.5 0 0 0 746 2957 A 3.5 3.5 0 0 0 749.5 2960.5 A 3.5 3.5 0 0 0 753 2957 A 3.5 3.5 0 0 0 749.5 2953.5 Z M 1395.6 3109  L 1405 3101  L 1395.6 3093  L 1399.2 3101  L 1395.6 3109  Z " fill-rule="nonzero" fill="#0066ff" stroke="none" />
</svg>