<?xml version="1.0" encoding="utf-8"?>
<svg version="1.1" xmlns:xlink="http://www.w3.org/1999/xlink" width="8px" height="7px" xmlns="http://www.w3.org/2000/svg">
  <g transform="matrix(1 0 0 1 -46 -198 )">
    <path d="M 1.0024186041666663 6.941937989583333  C 1.509953479166666 6.941937989583333  1.924713187499999 6.546899223958333  1.924713187499999 6.052015502604165  L 1.924713187499999 0.9729457317708321  C 1.924713187499999 0.4780620104166659  1.5099534999999993 0.08302324479166559  1.0024186041666663 0.08302326302083221  C 0.4953798541666667 0.08302326302083221  0.08012402083333352 0.4780620286458325  0.08012402083333352 0.9729457317708321  L 0.08012402083333352 6.052015502604165  C 0.08012402083333352 6.546899223958333  0.4834728541666671 6.941937989583333  1.0029147291666665 6.941937989583333  Z M 4.230201541666666 6.941937989583333  C 4.7377364166666665 6.941937989583333  5.152992229166666 6.546899223958333  5.15299225 6.052015502604165  L 5.15299225 0.9729457317708321  C 5.15299225 0.4780620104166659  4.7377364375 0.08302324479166559  4.230201541666666 0.08302326302083221  C 3.7231627916666667 0.08302326302083221  3.3079069583333336 0.4780620286458325  3.307906979166667 0.9729457317708321  L 3.307906979166667 6.052015502604165  C 3.307906979166667 6.546899223958333  3.7231627916666667 6.941937989583333  4.230697666666667 6.941937989583333  Z M 6.074790687500001 6.052015502604165  C 6.074790687500001 6.546899223958333  6.478139520833333 6.941937989583333  6.997085270833334 6.941937989583333  C 7.504124020833333 6.941937989583333  7.9193798541666665 6.546899223958333  7.9193798541666665 6.052015502604165  L 7.9193798541666665 0.9729457317708321  C 7.9193798541666665 0.4780620104166659  7.504124041666667 0.08302324479166559  6.997085270833334 0.08302326302083221  C 6.490046500000001 0.08302328124999883  6.074790687500001 0.4780620286458325  6.074790687500001 0.9729457317708321  L 6.074790687500001 6.052015502604165  Z " fill-rule="nonzero" fill="#000000" stroke="none" transform="matrix(1 0 0 1 46 198 )" />
  </g>
</svg>