<?xml version="1.0" encoding="utf-8"?>
<svg version="1.1" xmlns:xlink="http://www.w3.org/1999/xlink" width="20px" height="20px" xmlns="http://www.w3.org/2000/svg">
  <g transform="matrix(1 0 0 1 -40 -190 )">
    <path d="M 14.150077520833335 3.6395352654264572  C 14.091202616225145 1.6129244414653399  12.321279272664977 -0.001003054948259438  10.158759687499998 0  C 7.993674416666666 0  6.2314418541666665 1.610698105842601  6.157023249999999 3.6293027070720107  L 1.1044961250000005 3.629302707072011  C 0.5420838177396234 3.629302446350893  0.08600497013797925 4.056460022248615  0.08545735416666671 4.583721298032754  C 0.08600498162808175 5.110982566187932  0.5420838258659908 5.538140130193855  1.1044961250000003 5.5381398694622455  L 2.229705416666667 5.5381398694622455  L 2.229705416666667 16.237209384873488  C 2.229705416666667 18.246046544925072  3.684341083333334 19.886511623747843  5.477829458333334 19.886511623747843  L 14.627844958333334 19.886511623747843  C 16.421333333333333 19.886511623747843  17.875968979166668 18.255813986102897  17.875969 16.237209384873488  L 17.875969 5.548837544993315  L 18.895007750000005 5.548837544993315  C 19.45761362730049 5.548837618285967  19.913772612857933 5.1213967915118115  19.91404652083333 4.5939538563872  C 19.91349890486202 4.066692580603062  19.45742005726038 3.6395350047053405  18.895007749999998 3.6395352654264572  L 14.150077520833335 3.6395352654264572  Z M 12.074790687499998 3.4586050352827815  L 7.924713187499998 3.4586050352827815  C 7.998635666666665 2.4865120306728814  8.896124041666665 1.729302751506354  10.00496125 1.729302751506354  C 11.113798458333333 1.729302751506354  12.011782958333333 2.486046913496259  12.074790687499998 3.4586050352827815  Z M 5.591441854166667 18.156744222794792  L 5.591441854166666 18.14697678161697  C 4.945984499999999 18.14697678161697  4.235534874999999 17.382325627624482  4.235534874999999 16.290697762528833  L 4.235534874999999 6  L 16 6  L 16 16.300465203706658  C 16.224868208333334 17.392558205510177  15.514914729166666 18.156744222794792  14.869457354166668 18.156744222794792  L 5.591441854166667 18.156744222794792  Z " fill-rule="nonzero" fill="#000000" stroke="none" transform="matrix(1 0 0 1 40 190 )" />
  </g>
</svg>