<?xml version="1.0" encoding="utf-8"?>
<svg version="1.1" xmlns:xlink="http://www.w3.org/1999/xlink" width="22px" height="20px" xmlns="http://www.w3.org/2000/svg">
  <g transform="matrix(1 0 0 1 -1997 -269 )">
    <path d="M 21.95706541864632 10.000000000000007  C 21.95706541864632 9.713283627398937  21.861483748746508 9.438310816211125  21.691347938144332 9.235574324324324  L 14.411644329896905 0.5607770270270267  C 14.057376288659794 0.13858108108108025  13.482938144329896 0.13858108108108025  13.128670103092782 0.5607770270270267  C 12.774373711340205 0.982972972972973  12.774373711340205 1.6674662162162153  13.128670103092782 2.0896621621621616  L 18.892329896907217 9  L 1.078028350515464 9  C 0.5950489690721651 8.957905405405405  0.20352835051546397 9.424493243243242  0.20352835051546397 10  C 0.20352835051546397 10.575540540540542  0.5950773195876291 11.042094594594595  1.078028350515464 11  L 18.892358247422678 11  L 13.128670103092782 17.910371621621625  C 12.774373711340205 18.332533783783784  12.774373711340205 19.01706081081081  13.128670103092782 19.43925675675676  C 13.30580412371134 19.650337837837842  13.537994845360823 19.755878378378377  13.770157216494843 19.755878378378377  C 14.002319587628863 19.755878378378377  14.234510309278347 19.65033783783784  14.411644329896903 19.43925675675676  L 21.69134793814433 10.764425675675682  C 21.861483748746508 10.561689183788882  21.95706541864632 10.286716372601077  21.95706541864632 10.000000000000007  Z " fill-rule="nonzero" fill="#ffffff" stroke="none" transform="matrix(1 0 0 1 1997 269 )" />
  </g>
</svg>