<?xml version="1.0" encoding="utf-8"?>
<svg version="1.1" xmlns:xlink="http://www.w3.org/1999/xlink" width="94px" height="60px" xmlns="http://www.w3.org/2000/svg">
  <g transform="matrix(1 0 0 1 -938 -439 )">
    <path d="M 93.94010619469027 43.72  C 95.05812389380532 30.77333333333333  79.62548672566372 26.613333333333333  79.62548672566372 26.613333333333333  C 79.62548672566372 26.613333333333333  78.97330973451326 5.11333333333333  61.490973451327434 0.8399999999999993  C 44.008637168141604 -3.4333333333333313  35.58357522123894 15.020000000000001  35.41054867256637 15.546666666666663  C 35.237522123893804 16.07333333333333  34.37904424778761 15.833333333333334  34.37904424778761 15.833333333333334  C 32.98152212389381 14.506666666666668  26.819115044247788 11.460000000000003  20.343929203539826 15.366666666666664  C 13.875398230088496 19.273333333333333  16.21791150442478 26.69333333333333  16.21791150442478 26.69333333333333  C 16.21791150442478 26.69333333333333  6.628247787610619 25.91333333333333  1.7103008849557515 40.74666666666667  C -3.2009911504424786 55.593333333333334  14.028460176991148 59.800000000000004  14.028460176991148 59  L 43 59  L 43 44.006666666666675  L 37.16077876106195 44.006666666666675  L 36.655008849557525 44.006666666666675  L 36.26237168141593 44.006666666666675  L 36.26237168141593 43.980000000000004  C 35.92962831858407 43.980000000000004  35.66343362831858 43.71333333333335  35.66343362831858 43.37333333333335  C 35.66343362831858 43.17333333333335  35.769911504424776 43.00000000000002  35.92962831858407 42.88666666666668  L 47.781946902654866 30.400000000000016  C 47.948318584070805 30.213333333333345  48.1812389380531 30.086666666666673  48.45408849557523 30.086666666666673  C 48.733592920353985 30.086666666666673  48.979823008849564 30.226666666666688  49.14619469026549 30.43333333333334  L 60.912 42.820000000000014  C 60.93196460176992 42.83333333333335  60.95192920353983 42.85333333333335  60.97189380530974 42.873333333333335  L 61.08502654867257 42.99333333333335  L 61.045097345132746 42.99333333333335  C 61.10499115044247 43.10000000000001  61.14492035398231 43.19333333333334  61.14492035398231 43.32000000000001  C 61.14492035398231 43.693333333333335  60.84545132743363 44.00000000000001  60.46612389380531 44.00000000000001  C 60.45281415929203 44.00000000000001  60.45281415929203 43.98666666666667  60.43950442477876 43.98666666666667  L 60.43950442477876 44.013333333333335  L 54 44.013333333333335  L 54 59  L 80.31759292035399 59  C 80.31759292035399 59.806666666666665  92.8353982300885 56.666666666666664  93.94010619469027 43.72  Z " fill-rule="nonzero" fill="#000000" stroke="none" transform="matrix(1 0 0 1 938 439 )" />
  </g>
</svg>