<?xml version="1.0" encoding="utf-8"?>
<svg version="1.1" xmlns:xlink="http://www.w3.org/1999/xlink" width="10px" height="10px" xmlns="http://www.w3.org/2000/svg">
  <g transform="matrix(1 0 0 1 -1555 -116 )">
    <path d="M 1.6589912280701757 2.8146929824561404  C 1.6589912280701757 3.988298075846577  2.610386134679741 4.93969298245614  3.7839912280701764 4.93969298245614  C 4.9575963214606125 4.93969298245614  5.908991228070176 3.988298075846577  5.908991228070176 2.8146929824561404  C 5.908991228070176 1.6410878890657044  4.9575963214606125 0.6896929824561405  3.7839912280701764 0.6896929824561405  C 2.610386134679741 0.6896929824561405  1.6589912280701764 1.6410878890657044  1.6589912280701764 2.8146929824561404  Z M 3.783991228070176 5.548245614035087  C 5.828947368421052 5.548245614035087  7.4879385964912295 6.665570175438597  7.487938596491228 8.521929824561404  C 7.487938596491228 10.37828947368421  0.08114035087719274 10.37828947368421  0.08114035087719274 8.521929824561404  C 0.08114035087719274 6.665570175438598  1.7390350877192982 5.548245614035087  3.783991228070176 5.548245614035087  Z M 8.578947368421053 2.2072368421052633  C 8.578947368421053 1.0339912280701755  7.62938596491228 0.08223684210526315  6.455043859649123 0.08223684210526315  C 5.9375 0.08223684210526315  5.463815789473685 0.26754385964912286  5.095394736842106 0.5745614035087719  C 5.921052631578947 0.9747807017543861  6.4923245614035086 1.819078947368421  6.4923245614035086 2.799342105263158  C 6.4923245614035086 3.356359649122807  6.305921052631579 3.868421052631579  5.995614035087719 4.281798245614035  C 6.143640350877194 4.31469298245614  6.296052631578948 4.332236842105263  6.453947368421052 4.332236842105263  C 7.62719298245614 4.332236842105263  8.578947368421053 3.380482456140351  8.578947368421053 2.2072368421052633  Z M 9.915570175438596 7.8256578947368425  C 9.916666666666668 5.902412280701755  8.25767543859649 5.0131578947368425  6.212719298245615 5.0131578947368425  C 5.989035087719299 5.0131578947368425  5.301535087719298 5.080043859649123  5.0701754385964914 5.189692982456141  C 6.515350877192983 5.483552631578947  8.086622807017545 6.607456140350879  8.086622807017545 8.403508771929825  C 8.086622807017545 8.684210526315791  7.972587719298247 8.93201754385965  7.771929824561403 9.148026315789474  C 8.979166666666668 8.950657894736842  9.915570175438596 8.509868421052632  9.915570175438596 7.8256578947368425  Z " fill-rule="nonzero" fill="#ffffff" stroke="none" transform="matrix(1 0 0 1 1555 116 )" />
  </g>
</svg>