<?xml version="1.0" encoding="utf-8"?>
<svg version="1.1" xmlns:xlink="http://www.w3.org/1999/xlink" width="40px" height="40px" xmlns="http://www.w3.org/2000/svg">
  <g transform="matrix(1 0 0 1 -682 -301 )">
    <path d="M 21.784313725490193 7.766666666666666  C 21.999999999999996 7.966666666666667  22.29411764705882 8.08095238095238  22.588235294117645 8.08095238095238  L 29.166666666666664 8.08095238095238  C 29.79411764705882 8.08095238095238  30.299019607843135 7.5857142857142845  30.299019607843135 6.980952380952381  L 22.588235294117645 0.37142857142857133  C 22.289215686274506 0.37142857142857133  21.995098039215684 0.4857142857142859  21.784313725490193 0.695238095238095  C 21.57352941176471 0.8999999999999996  21.45098039215686 1.1857142857142853  21.45098039215686 1.4761904761904763  L 21.45098039215686 6.985714285714285  C 21.45098039215686 7.276190476190475  21.56862745098039 7.561904761904761  21.784313725490193 7.766666666666666  Z M 20.20588235294118 37  C 18.06372549019608 35.06190476190476  16.887254901960787 32.285714285714285  16.887254901960784 29.32857142857143  C 16.887254901960784 26.352380952380948  18.07843137254902 23.557142857142853  20.245098039215684 21.452380952380953  C 22.411764705882355 19.34761904761905  25.28921568627451 18.19047619047619  28.352941176470587 18.19047619047619  C 28.705882352941178 18.19047619047619  29.063725490196077 18.204761904761906  29.411764705882355 18.238095238095237  L 29.411764705882355 9.847619047619048  L 21.30392156862745 9.847619047619048  C 20.156862745098042 9.847619047619048  19.22058823529412 8.938095238095237  19.22058823529412 7.823809523809524  L 19.22058823529412 1  L 2.3529411764705883 1  C 1.2058823529411762 0.7571428571428575  0.26960784313725494 1.6666666666666665  1 2.7809523809523813  L 1 35.13809523809523  C 0.26960784313725494 35.67619047619048  0.4852941176470591 36.19047619047619  0.8823529411764707 36.56666666666667  C 1.269607843137255 36.94761904761905  1.8039215686274515 37.16190476190476  2.3529411764705883 37  L 20.20588235294118 37  Z M 17.8921568627451 22.923809523809528  C 17.8921568627451 23.1952380952381  17.823529411764707 23.452380952380956  17.69607843137255 23.642857142857142  C 17.573529411764707 23.828571428571426  17.401960784313726 23.938095238095237  17.22549019607843 24  L 4.529411764705881 24  C 4.161764705882352 23.928571428571427  3.8578431372549016 23.48095238095238  3.8578431372549016 22.923809523809528  C 3.8578431372549016 22.366666666666674  4.151960784313725 21.914285714285718  4.524509803921568 22  L 17.22549019607843 22  C 17.401960784313726 21.914285714285718  17.568627450980394 22.019047619047623  17.69607843137255 22.209523809523812  C 17.823529411764707 22.400000000000002  17.8921568627451 22.652380952380952  17.8921568627451 22.923809523809528  Z M 3.862745098039216 10.157142857142858  C 3.862745098039216 9.604761904761904  4.32843137254902 9.147619047619049  4.901960784313725 9.147619047619049  L 13.22549019607843 9.147619047619049  C 13.799019607843137 9.147619047619049  14.264705882352942 9.595238095238095  14.264705882352942 10.157142857142858  C 14.264705882352942 10.719047619047618  13.803921568627453 11.166666666666668  13.22549019607843 11.166666666666668  L 4.901960784313725 11.166666666666668  C 4.32843137254902 11.166666666666668  3.862745098039216 10.719047619047618  3.862745098039216 10.157142857142858  Z M 3.862745098039216 16.542857142857144  C 3.8676470588235294 15.985714285714288  4.333333333333334 15.533333333333335  4.901960784313725 16  L 24.950980392156865 16  C 25.52450980392157 15.533333333333335  25.990196078431374 15.980952380952383  25.990196078431374 16.542857142857144  C 25.990196078431374 17.1  25.529411764705884 17.552380952380954  24.950980392156865 18  L 4.901960784313725 18  C 4.32843137254902 17.552380952380954  3.862745098039216 17.104761904761908  3.862745098039216 16.542857142857144  Z M 16.475490196078432 29.314285714285717  C 16.470588235294116 29.871428571428574  16.205882352941178 30.323809523809526  15.877450980392156 30  L 4.46078431372549 30  C 4.137254901960785 30.323809523809526  3.8676470588235294 29.87619047619048  3.8676470588235294 29.314285714285717  C 3.8676470588235294 28.761904761904763  4.132352941176471 28.304761904761904  4.46078431372549 28  L 15.88235294117647 28  C 16.205882352941178 28.304761904761904  16.475490196078432 28.752380952380953  16.475490196078432 29.314285714285717  Z M 39.82843137254902 29.752380952380953  C 39.82843137254902 24.152380952380955  35.156862745098046 19.6047619047619  29.382352941176467 19.604761904761904  C 23.612745098039213 19.604761904761904  18.931372549019606 24.14761904761905  18.931372549019606 29.757142857142856  C 18.931372549019606 35.36666666666666  23.607843137254903 39.909523809523805  29.382352941176467 39.909523809523805  C 35.15686274509803 39.909523809523805  39.82843137254902 35.35238095238094  39.82843137254902 29.752380952380953  Z M 31.8921568627451 29.395238095238092  C 31.897058823529413 29.995238095238093  31.656862745098042 30.599999999999994  31.186274509803916 31.057142857142857  L 28.54901960784314 33.61904761904762  C 28.07843137254902 34.07142857142857  27.455882352941178 34.304761904761904  26.84313725490196 34.304761904761904  C 26.225490196078432 34.304761904761904  25.60294117647059 34.076190476190476  25.132352941176475 33.614285714285714  C 24.661764705882355 33.15714285714285  24.426470588235297 32.55238095238096  24.426470588235297 31.952380952380956  C 24.426470588235297 31.352380952380948  24.661764705882355 30.74761904761905  25.132352941176475 30.29047619047619  L 26.352941176470587 29.10952380952381  C 26.21078431372549 29.4952380952381  26.117647058823536 30.109523809523814  26.519607843137255 30.85714285714286  L 26.117647058823525 31.247619047619057  C 25.916666666666664 31.447619047619057  25.81862745098039 31.6952380952381  25.81862745098039 31.95238095238096  C 25.81862745098039 32.209523809523816  25.916666666666664 32.46190476190477  26.117647058823525 32.65714285714286  C 26.318627450980394 32.852380952380955  26.57843137254902 32.94761904761905  26.843137254901954 32.94761904761905  C 27.107843137254896 32.94761904761905  27.367647058823525 32.852380952380955  27.568627450980387 32.65714285714286  L 28.08333333333333 32.15714285714286  L 29.828431372549016 30.461904761904766  L 30.20588235294117 30.095238095238095  C 30.40686274509804 29.9  30.504901960784313 29.647619047619045  30.504901960784313 29.390476190476193  C 30.504901960784313 29.133333333333336  30.40686274509804 28.88095238095238  30.20588235294117 28.68571428571429  C 30.112745098039216 28.595238095238102  30.00490196078431 28.53809523809524  29.897058823529413 28.490476190476194  L 30.911764705882355 27.504761904761907  C 31.00980392156863 27.57142857142857  31.102941176470587 27.64761904761905  31.186274509803923 27.733333333333334  C 31.656862745098042 28.190476190476193  31.897058823529413 28.79523809523809  31.8921568627451 29.395238095238092  Z M 34.416666666666664 26.94761904761905  C 34.42156862745098 27.542857142857148  34.181372549019606 28.147619047619052  33.71078431372548 28.604761904761908  L 32.49019607843137 29.785714285714285  C 32.632352941176464 29.4  32.725490196078425 28.785714285714285  32.32352941176471 28.038095238095234  L 32.72549019607843 27.647619047619045  C 32.9264705882353 27.45238095238095  33.024509803921575 27.199999999999996  33.024509803921575 26.94285714285714  C 33.024509803921575 26.685714285714287  32.9264705882353 26.43333333333333  32.72549019607843 26.238095238095237  C 32.52450980392157 26.04285714285714  32.26470588235294 25.947619047619046  32 25.947619047619046  C 31.73529411764706 25.947619047619046  31.475490196078432 26.04285714285714  31.274509803921575 26.238095238095237  L 30.789215686274517 26.70952380952381  L 30.71568627450981 26.78095238095238  L 28.637254901960794 28.799999999999997  C 28.436274509803926 28.995238095238097  28.338235294117652 29.25238095238095  28.338235294117652 29.5047619047619  C 28.338235294117652 29.76190476190476  28.436274509803926 30.014285714285712  28.637254901960794 30.214285714285708  C 28.73039215686275 30.304761904761897  28.838235294117656 30.36190476190476  28.946078431372552 30.409523809523805  L 27.93137254901961 31.395238095238092  C 27.833333333333336 31.328571428571426  27.740196078431374 31.252380952380953  27.651960784313726 31.166666666666668  C 27.18137254901961 30.70952380952381  26.94117647058824 30.104761904761904  26.94117647058824 29.504761904761907  C 26.94117647058824 28.904761904761905  27.17647058823529 28.300000000000004  27.651960784313726 27.84285714285715  L 30.28921568627451 25.280952380952385  C 30.75980392156863 24.82857142857143  31.377450980392155 24.595238095238102  31.995098039215684 24.595238095238102  L 31.999999999999996 24.595238095238102  C 32.61764705882353 24.595238095238102  33.24019607843137 24.82380952380953  33.71078431372548 25.28571428571429  C 34.181372549019606 25.742857142857147  34.42156862745098 26.34761904761905  34.416666666666664 26.94761904761905  Z " fill-rule="nonzero" fill="#000000" stroke="none" transform="matrix(1 0 0 1 682 301 )" />
  </g>
</svg>