<?xml version="1.0" encoding="utf-8"?>
<svg version="1.1" xmlns:xlink="http://www.w3.org/1999/xlink" width="10px" height="10px" xmlns="http://www.w3.org/2000/svg">
  <g transform="matrix(1 0 0 1 -525 -755 )">
    <path d="M 2.967529296875 0.8190917968750016  C 3.436279296875 0.62744140625  3.9306640625 0.5322265625  4.4384765625 0.5322265625  C 4.9462890625 0.5322265625  5.440673828125 0.628662109375  5.908203125 0.81787109375  C 6.392822265625 1.014404296875  6.827392578124999 1.3024902343750002  7.199707031249999 1.676025390625  C 7.91015625 2.3876953125  8.316650390624998 3.33251953125  8.34228515625 4.337158203125  C 8.367919921875 5.338134765625001  8.01513671875 6.298828125  7.3486328125 7.042236328125  L 7.203369140625 7.204589843749999  L 7.041015625 7.349853515624999  C 6.326904296875 7.99072265625  5.401611328125 8.3447265625  4.437255859375 8.3447265625  C 3.9294433593749996 8.3447265625  3.4350585937499996 8.248291015625  2.967529296875 8.05908203125  C 2.48291015625 7.862548828125  2.04833984375 7.574462890625  1.676025390625 7.200927734375001  C 1.302490234375 6.827392578125  1.014404296875 6.392822265625  0.8178710937499996 5.909423828125001  C 0.6274414062499996 5.440673828125001  0.5322265624999997 4.945068359375002  0.5322265624999997 4.438476562500002  C 0.5322265624999997 3.9306640625000018  0.6286621093749996 3.4362792968750018  0.8178710937499996 2.9687500000000018  C 1.0144042968749996 2.4841308593750013  1.3024902343749998 2.0495605468750013  1.676025390625 1.6772460937500013  C 2.049560546875 1.3037109375000013  2.484130859375 1.0156250000000016  2.967529296875 0.8190917968750016  Z M 7.545166015625 1.33056640625  C 6.68701171875 0.472412109375  5.562744140625 0.0439453125  4.4384765625 0.0439453125  C 3.314208984375 0.0439453125  2.188720703125 0.472412109375  1.33056640625 1.33056640625  C -0.3857421874999998 3.046875  -0.3857421874999998 5.828857421875  1.33056640625 7.545166015625  C 2.188720703125 8.4033203125  3.31298828125 8.8330078125  4.437255859375 8.8330078125  C 5.48583984375 8.8330078125  6.534423828125 8.45947265625  7.366943359375 7.713623046875  L 9.61181640625 9.9560546875  L 9.957275390624998 9.610595703125  L 7.713623046875 7.3681640625  C 9.26025390625 5.643310546875  9.2041015625 2.989501953125  7.545166015625 1.33056640625  Z " fill-rule="nonzero" fill="#999999" stroke="none" transform="matrix(1 0 0 1 525 755 )" />
  </g>
</svg>