<?xml version="1.0" encoding="utf-8"?>
<svg version="1.1" xmlns:xlink="http://www.w3.org/1999/xlink" width="12px" height="12px" xmlns="http://www.w3.org/2000/svg">
  <g transform="matrix(1 0 0 1 -596 -279 )">
    <path d="M 6 11.965909090909092  C 9.289759410511364 11.965909090909092  11.965909090909092 9.289759410511364  11.965909090909092 6  C 11.965909090909092 2.7102405894886368  9.289759410511364 0.03409090909090909  6 0.03409090909090909  C 2.7102405894886368 0.03409090909090909  0.03409090909090909 2.7102405894886368  0.03409090909090909 6  C 0.03409090909090909 9.289759410511364  2.7102405894886368 11.965909090909092  6 11.965909090909092  Z M 5.6808238636363635 7.994331498579545  L 3.570170454545454 5.86025390625  C 3.488338955965909 5.777170632102273  3.447017045454545 5.6689053622159085  3.447017045454545 5.560666725852272  C 3.447017045454545 5.450736860795454  3.4892178622159085 5.3407803622159085  3.573579545454545 5.2576970880681815  C 3.7410511363636365 5.092356178977273  4.0103826349431815 5.0936345880681815  4.176136363636363 5.261106178977272  L 5.985950816761362 7.090935724431818  L 7.805979225852273 5.2760209517045435  C 7.972611860795455 5.109827769886362  8.242342862215908 5.110267223011363  8.408536044034092 5.276873224431817  C 8.575168678977272 5.443505859374999  8.574289772727273 5.713236860795454  8.40768377130682 5.879430042613635  L 6.285537997159091 7.995623224431816  C 6.28509854403409 7.996062677556816  6.284685724431819 7.996062677556816  6.284259588068181 7.996475497159091  C 6.283833451704544 7.996888316761362  6.2838201349431815 7.997327769886363  6.283407315340909 7.997753906249999  C 6.243776633522728 8.036945134943181  6.19775390625 8.065083451704545  6.14960049715909 8.085537997159088  C 6.147909268465911 8.08639026988636  6.146191406250001 8.08850763494318  6.14447354403409 8.088947088068181  C 5.989759410511365 8.15201526988636  5.805655184659091 8.120467862215907  5.680797230113637 7.994344815340908  Z " fill-rule="nonzero" fill="#999999" stroke="none" transform="matrix(1 0 0 1 596 279 )" />
  </g>
</svg>