<?xml version="1.0" encoding="utf-8"?>
<svg version="1.1" xmlns:xlink="http://www.w3.org/1999/xlink" width="28px" height="28px" xmlns="http://www.w3.org/2000/svg">
  <g transform="matrix(1 0 0 1 -1439 -398 )">
    <path d="M 27.813333333333336 28  C 27.589333333333332 20.86  19.077333333333335 22.645  17.807999999999996 19.39  C 17.696 18.305  17.733333333333334 17.5  17.733333333333334 16.485  C 18.255999999999997 16.205  20.122666666666667 14.525000000000002  20.272 13.125  C 20.682666666666666 13.09  21.354666666666667 12.705  21.541333333333334 11.165  C 21.653333333333332 10.36  21.242666666666665 9.87  20.98133333333333 9.729999999999999  C 21.65333333333333 7.804999999999998  21.951999999999998 1.7849999999999993  17.247999999999998 1.1899999999999995  C 16.762666666666668 0.42  15.530666666666665 0  13.925333333333334 0  C 7.503999999999999 0.105  5.6000000000000005 4.62  7.018666666666666 9.765  C 6.757333333333333 9.905000000000001  6.346666666666667 10.36  6.458666666666667 11.200000000000001  C 6.645333333333332 12.74  7.317333333333332 13.125  7.727999999999999 13.16  C 7.877333333333333 14.594999999999999  9.744 16.275000000000002  10.266666666666666 16.520000000000003  C 10.266666666666666 17.535000000000004  10.304 18.305  10.192 19.425000000000004  C 8.922666666666668 22.645  0.5973333333333333 20.965  0.18666666666666662 28  L 27.813333333333336 28  Z " fill-rule="nonzero" fill="#ffffff" stroke="none" transform="matrix(1 0 0 1 1439 398 )" />
  </g>
</svg>