<?xml version="1.0" encoding="utf-8"?>
<svg version="1.1" xmlns:xlink="http://www.w3.org/1999/xlink" width="8px" height="8px" xmlns="http://www.w3.org/2000/svg">
  <g transform="matrix(1 0 0 1 -600 -1590 )">
    <path d="M 4 7.9772727272727275  C 6.193172940340909 7.9772727272727275  7.9772727272727275 6.193172940340909  7.9772727272727275 4  C 7.9772727272727275 1.8068270596590912  6.193172940340909 0.022727272727272728  4 0.022727272727272728  C 1.8068270596590912 0.022727272727272728  0.022727272727272728 1.8068270596590912  0.022727272727272728 4  C 0.022727272727272728 6.193172940340909  1.8068270596590912 7.9772727272727275  4 7.9772727272727275  Z M 3.787215909090909 5.329554332386363  L 2.3801136363636357 3.9068359375  C 2.3255593039772724 3.8514470880681815  2.298011363636363 3.7792702414772723  2.298011363636363 3.7071111505681813  C 2.298011363636363 3.633824573863636  2.3261452414772723 3.5605202414772723  2.3823863636363636 3.5051313920454543  C 2.494034090909091 3.3949041193181815  2.6735884232954543 3.3957563920454543  2.784090909090909 3.5074041193181813  L 3.9906338778409083 4.727290482954545  L 5.2039861505681815 3.5173473011363625  C 5.315074573863637 3.406551846590908  5.4948952414772725 3.406844815340908  5.6056906960227275 3.517915482954545  C 5.716779119318182 3.629003906249999  5.7161931818181815 3.8088245738636357  5.605122514204546 3.9196200284090903  L 4.190358664772727 5.330415482954544  C 4.190065696022727 5.330708451704544  4.189790482954546 5.330708451704544  4.1895063920454545 5.330983664772727  C 4.189222301136363 5.3312588778409085  4.189213423295454 5.331551846590909  4.188938210227273 5.331835937499999  C 4.162517755681819 5.357963423295454  4.1318359375 5.376722301136363  4.099733664772727 5.390358664772726  C 4.098606178977274 5.390926846590907  4.0974609375 5.392338423295453  4.096315696022727 5.392631392045454  C 3.9931729403409095 5.434676846590907  3.870436789772728 5.413645241477272  3.787198153409091 5.329563210227271  Z " fill-rule="nonzero" fill="#e7772d" stroke="none" transform="matrix(1 0 0 1 600 1590 )" />
  </g>
</svg>