<?xml version="1.0" encoding="utf-8"?>
<svg version="1.1" xmlns:xlink="http://www.w3.org/1999/xlink" width="160px" height="90px" xmlns="http://www.w3.org/2000/svg">
  <g transform="matrix(1 0 0 1 -842 -462 )">
    <path d="M 842 462  L 1002 462  L 1002 552  L 842 552  L 842 462  " fill-rule="nonzero" fill="#cccccc" stroke="none" />
    <path d="M 848 468  L 996 468  L 996 546  L 848 546  L 848 468  " fill-rule="nonzero" fill="#ffffff" stroke="none" />
    <path d="M 931.95 489  C 928.1700000000001 489  925.2 486.03  925.2 482.25  C 925.2 478.47  928.1700000000001 475.5  931.95 475.5  C 935.73 475.5  938.7 478.47  938.7 482.25  C 938.7 486.03  935.73 489  931.95 489  " fill-rule="nonzero" fill="#cccccc" stroke="none" />
    <path d="M 851 544  L 851 503.85  L 886.75 485.6  L 936.8 519.3625  L 965.4 496.55  L 994 519.3625  L 994 544  L 851 544  " fill-rule="nonzero" fill="#169bd5" stroke="none" />
  </g>
</svg>