<?xml version="1.0" encoding="utf-8"?>
<svg version="1.1" xmlns:xlink="http://www.w3.org/1999/xlink" width="8px" height="8px" xmlns="http://www.w3.org/2000/svg">
  <g transform="matrix(1 0 0 1 -3517 -1275 )">
    <path d="M 7.7862998148148135 7.252167432098767  L 4.510021716049383 3.966035358024692  L 7.785089283950617 0.7079574074074078  C 7.939949654320987 0.5538828024691362  7.940735432098766 0.3041991234567905  7.786660827160493 0.14933874074074116  C 7.632182716049382 -0.005925135802468548  7.382902543209876 -0.0063074074074069625  7.2280421604938265 0.1477671975308646  L 3.952188827160494 3.4062274197530864  L 0.7047930987654323 0.14893524691358007  C 0.5511220000000001 -0.005139358024691465  0.301034814814815 -0.005925123456790269  0.14617443209876566 0.14814948148148127  C -0.0083036790123456 0.3022240864197528  -0.008685938271604682 0.5522900370370369  0.14538866666666686 0.7071716543209876  L 3.39199862962963 3.9636568271604937  L 0.11852383950617303 7.219759728395061  C -0.036336530864197324 7.373834333333333  -0.03712230864197511 7.623518012345679  0.11695229629629643 7.778378395061728  C 0.19397897530864205 7.855808580246912  0.2955131851851855 7.894927185185185  0.39704739506172854 7.894927185185185  C 0.4977958395061731 7.894927185185185  0.5985230370370371 7.8566155925925925  0.675570962962963 7.779971172839507  L 3.949852765432099 4.523082493827161  L 7.226895382716049 7.810000320987655  C 7.303922061728394 7.88743050617284  7.405074012345678 7.926145604938273  7.506608222222222 7.926145604938273  C 7.607738925925926 7.926145604938273  7.708487370370371 7.88743050617284  7.785514049382716 7.810786098765433  C 7.939992160493827 7.656711493827162  7.940374419753086 7.407027814814816  7.7862998148148135 7.252167432098767  Z " fill-rule="nonzero" fill="#000000" stroke="none" transform="matrix(1 0 0 1 3517 1275 )" />
  </g>
</svg>