<?xml version="1.0" encoding="utf-8"?>
<svg version="1.1" xmlns:xlink="http://www.w3.org/1999/xlink" width="360px" height="291px" xmlns="http://www.w3.org/2000/svg">
  <defs>
    <mask fill="white" id="clip6198">
      <path d="M 0 291  L 0 11  L 206.70925110132157 11  L 214.63876651982375 0.458149779735777  L 224.33039647577095 11  L 360 11  L 360 291  L 0 291  Z " fill-rule="evenodd" />
    </mask>
  </defs>
  <g transform="matrix(1 0 0 1 -315 -1125 )">
    <path d="M 0 291  L 0 11  L 206.70925110132157 11  L 214.63876651982375 0.458149779735777  L 224.33039647577095 11  L 360 11  L 360 291  L 0 291  Z " fill-rule="nonzero" fill="#ffffff" stroke="none" transform="matrix(1 0 0 1 315 1125 )" />
    <path d="M 0 291  L 0 11  L 206.70925110132157 11  L 214.63876651982375 0.458149779735777  L 224.33039647577095 11  L 360 11  L 360 291  L 0 291  Z " stroke-width="2" stroke="#797979" fill="none" transform="matrix(1 0 0 1 315 1125 )" mask="url(#clip6198)" />
  </g>
</svg>