<?xml version="1.0" encoding="utf-8"?>
<svg version="1.1" xmlns:xlink="http://www.w3.org/1999/xlink" width="15px" height="12px" xmlns="http://www.w3.org/2000/svg">
  <g transform="matrix(1 0 0 1 -3424 -1008 )">
    <path d="M 4.5625 2.4375  C 4.854166666666667 2.7291666666666656  5 3.0833333333333317  5 3.4999999999999996  C 5 3.916666666666666  4.854166666666667 4.270833333333334  4.5625 4.5625  C 4.270833333333334 4.854166666666668  3.916666666666667 5  3.5 5  C 3.0833333333333335 5  2.729166666666667 4.854166666666668  2.4375 4.5625  C 2.1458333333333335 4.270833333333334  2 3.916666666666666  2 3.4999999999999996  C 2 3.0833333333333317  2.1458333333333335 2.7291666666666656  2.4375 2.4375  C 2.729166666666667 2.1458333333333317  3.0833333333333335 1.9999999999999996  3.5 1.9999999999999996  C 3.916666666666667 1.9999999999999996  4.270833333333334 2.1458333333333317  4.5625 2.4375  Z M 9.75 3.2500000000000004  L 13 6.500000000000001  L 13 10  L 2 10  L 2 8.5  L 4.5 6  L 5.75 7.250000000000001  L 9.75 3.2500000000000004  Z M 13.92578125 1.0742187499999996  C 13.876302083333336 1.0247395833333321  13.817708333333336 1.0000000000000004  13.75 1  L 1.25 1  C 1.1822916666666667 1.0000000000000004  1.1236979166666667 1.0247395833333321  1.07421875 1.0742187499999996  C 1.0247395833333335 1.1236979166666656  1 1.1822916666666656  1 1.2499999999999996  L 1 10.75  C 1 10.817708333333334  1.0247395833333335 10.876302083333334  1.07421875 10.92578125  C 1.1236979166666667 10.975260416666666  1.1822916666666667 11  1.25 11  L 13.75 11  C 13.817708333333336 11  13.876302083333336 10.975260416666666  13.92578125 10.92578125  C 13.975260416666668 10.876302083333334  14 10.817708333333334  14 10.75  L 14 1.2499999999999996  C 14 1.1822916666666656  13.975260416666668 1.1236979166666656  13.92578125 1.0742187499999996  Z M 14.6328125 0.36718750000000044  C 14.877604166666668 0.6119791666666661  15.000000000000004 0.9062500000000004  15 1.2499999999999996  L 15 10.75  C 15.000000000000004 11.09375  14.877604166666668 11.388020833333334  14.6328125 11.6328125  C 14.388020833333334 11.877604166666666  14.09375 12  13.75 12  L 1.25 12  C 0.90625 12  0.6119791666666667 11.877604166666666  0.3671875 11.6328125  C 0.12239583333333334 11.388020833333334  0 11.09375  0 10.75  L 0 1.2499999999999996  C 0 0.9062500000000004  0.12239583333333334 0.6119791666666661  0.3671875 0.36718750000000044  C 0.6119791666666667 0.12239583333333215  0.90625 0  1.25 0  L 13.75 0  C 14.09375 0  14.388020833333334 0.12239583333333215  14.6328125 0.36718750000000044  Z " fill-rule="nonzero" fill="#999999" stroke="none" transform="matrix(1 0 0 1 3424 1008 )" />
  </g>
</svg>