<?xml version="1.0" encoding="utf-8"?>
<svg version="1.1" xmlns:xlink="http://www.w3.org/1999/xlink" width="19px" height="20px" xmlns="http://www.w3.org/2000/svg">
  <g transform="matrix(1 0 0 1 -3119 -4259 )">
    <path d="M 19 2.2942477876106206  C 18.99579646017699 1.1216814159292046  18.094137168141593 0.17035398230088597  16.978097345132742 0.170353982300885  L 2.181637168141592 0.170353982300885  C 1.0676991150442467 0.170353982300885  0.16393805309734416 1.1216814159292037  0.16393805309734416 2.2942477876106193  L 0.16393805309734416 17.869469026548675  C 0.16393805309734416 19.04203539823009  1.0676991150442467 19.99336283185841  2.181637168141592 20  L 16.978097345132742 20  C 18.092035398230088 19.99336283185841  18.99579646017699 19.04203539823009  19 17.869469026548675  L 19 2.2942477876106206  Z M 15.895685840707966 7.4446902654867255  C 16.139491150442478 7.745575221238939  16.10586283185841 8.192477876106194  15.824225663716813 8.446902654867257  L 8.837942477876107 14.73008849557522  C 8.592035398230088 14.951327433628318  8.285176991150443 15.068584070796458  7.96570796460177 15.068584070796458  C 7.929977876106196 15.068584070796458  7.89424778761062 15.066371681415927  7.858517699115043 15.064159292035395  C 7.501216814159291 15.035398230088493  7.175442477876106 14.860619469026544  6.942146017699114 14.573008849557517  L 3.211504424778761 9.97787610619469  C 2.9698008849557525 9.68141592920354  3.003429203539823 9.234513274336283  3.285066371681416 8.98008849557522  C 3.5667035398230094 8.725663716814159  3.9912610619469024 8.761061946902656  4.232964601769912 9.057522123893806  L 7.961504424778761 13.650442477876105  L 14.94778761061947 7.367256637168142  C 15.229424778761063 7.1128318584070795  15.653982300884957 7.148230088495575  15.895685840707966 7.4446902654867255  Z " fill-rule="nonzero" fill="#000000" stroke="none" transform="matrix(1 0 0 1 3119 4259 )" />
  </g>
</svg>