<?xml version="1.0" encoding="utf-8"?>
<svg version="1.1" xmlns:xlink="http://www.w3.org/1999/xlink" width="194px" height="130px" xmlns="http://www.w3.org/2000/svg">
  <g transform="matrix(1 0 0 1 -3119 -4259 )">
    <path d="M 3119 4259  L 3313 4259  L 3313 4389  L 3119 4389  L 3119 4259  " fill-rule="nonzero" fill="#cccccc" stroke="none" />
    <path d="M 3128 4268  L 3304 4268  L 3304 4380  L 3128 4380  L 3128 4268  " fill-rule="nonzero" fill="#ffffff" stroke="none" />
    <path d="M 3229.63 4298  C 3224.17 4298  3219.88 4293.71  3219.88 4288.25  C 3219.88 4282.79  3224.17 4278.5  3229.63 4278.5  C 3235.09 4278.5  3239.38 4282.79  3239.38 4288.25  C 3239.38 4293.71  3235.09 4298  3229.63 4298  " fill-rule="nonzero" fill="#cccccc" stroke="none" />
    <path d="M 3132 4377  L 3132 4319.25  L 3174.25 4293  L 3233.4 4334.783505154639  L 3267.2 4308.75  L 3301 4334.783505154639  L 3301 4377  L 3132 4377  " fill-rule="nonzero" fill="#169bd5" stroke="none" />
  </g>
</svg>