<?xml version="1.0" encoding="utf-8"?>
<svg version="1.1" xmlns:xlink="http://www.w3.org/1999/xlink" width="204px" height="110px" xmlns="http://www.w3.org/2000/svg">
  <g transform="matrix(1 0 0 1 -2294 -3253 )">
    <path d="M 2294 3253  L 2498 3253  L 2498 3363  L 2294 3363  L 2294 3253  " fill-rule="nonzero" fill="#cccccc" stroke="none" />
    <path d="M 2302 3261  L 2490 3261  L 2490 3355  L 2302 3355  L 2302 3261  " fill-rule="nonzero" fill="#ffffff" stroke="none" />
    <path d="M 2408.33 3286  C 2403.71 3286  2400.08 3282.37  2400.08 3277.75  C 2400.08 3273.13  2403.71 3269.5  2408.33 3269.5  C 2412.95 3269.5  2416.58 3273.13  2416.58 3277.75  C 2416.58 3282.37  2412.95 3286  2408.33 3286  " fill-rule="nonzero" fill="#cccccc" stroke="none" />
    <path d="M 2305 3352  L 2305 3303.6  L 2350.5 3281.6  L 2414.2 3323.529411764706  L 2450.6 3294.8  L 2487 3323.529411764706  L 2487 3352  L 2305 3352  " fill-rule="nonzero" fill="#169bd5" stroke="none" />
  </g>
</svg>