<?xml version="1.0" encoding="utf-8"?>
<svg version="1.1" xmlns:xlink="http://www.w3.org/1999/xlink" width="19px" height="20px" xmlns="http://www.w3.org/2000/svg">
  <g transform="matrix(1 0 0 1 -3525 -4259 )">
    <path d="M 2.1824778761061956 1.5869469026548677  L 16.978938053097348 1.5869469026548675  C 17.35038620342602 1.5869469026548675  17.65150442477876 1.9039134514472265  17.65150442477876 2.294911504424779  L 17.65150442477876 17.87013274336283  C 17.65150442477876 18.261130796340385  17.35038620342602 18.578097345132743  16.978938053097348 18.578097345132743  L 2.1824778761061956 18.578097345132743  C 1.8110297257775203 18.578097345132743  1.5099115044247795 18.261130796340385  1.5099115044247795 17.87013274336283  L 1.5099115044247795 2.294911504424779  C 1.5099115044247795 1.9039134514472265  1.8110297257775203 1.5869469026548677  2.1824778761061956 1.5869469026548677  Z M 19 2.294911504424779  C 18.996637168141593 1.1219173454921203  18.09328250408337 0.17101769911504466  16.978938053097348 0.17101769911504466  L 2.1824778761061956 0.17101769911504466  C 1.0681334251201695 0.17101769911504466  0.16477876106194744 1.1219173454921203  0.16477876106194755 2.294911504424779  L 0.16477876106194744 17.87013274336283  C 0.16477876106194744 19.043126902295487  1.0681334251201695 19.994026548672565  2.1824778761061956 20  L 16.97893805309734 20  C 18.09328250408337 19.994026548672565  18.996637168141593 19.043126902295487  19 17.87013274336283  L 19 2.294911504424779  Z " fill-rule="nonzero" fill="#000000" stroke="none" transform="matrix(1 0 0 1 3525 4259 )" />
  </g>
</svg>