<?xml version="1.0" encoding="utf-8"?>
<svg version="1.1" xmlns:xlink="http://www.w3.org/1999/xlink" width="20px" height="20px" xmlns="http://www.w3.org/2000/svg">
  <g transform="matrix(1 0 0 1 -3121 -4070 )">
    <path d="M 20 10  C 20 4.477152501692066  15.522847498307934 0  10 0  C 4.477152501692066 0  0 4.477152501692066  0 10  C 0 15.522847498307934  4.477152501692066 20  10 20  C 15.522847498307934 20  20 15.522847498307934  20 10  Z M 12.000000000000002 15.526666660156252  C 12 16.631236159817835  11.104569499661586 17.52666666015625  10 17.52666666015625  C 8.895430500338414 17.52666666015625  8 16.631236159817835  8 15.52666666015625  C 8 14.422097160494662  8.895430500338414 13.52666666015625  10 13.52666666015625  C 11.104569499661586 13.52666666015625  12.000000000000002 14.422097160494662  12.000000000000002 15.52666666015625  Z M 12.40333333984375 4.873333339843748  C 12.40333333984375 6.199999999999999  11.33333333984375 12.43  10 12.43  C 8.66666666015625 12.43  7.5966666601562505 6.199999999999999  7.59666666015625 4.8733333398437475  C 7.59666666015625 3.5460089874881366  8.67267564764439 2.469999999999998  9.999999999999998 2.469999999999998  C 11.32732435235561 2.469999999999998  12.40333333984375 3.5460089874881366  12.40333333984375 4.8733333398437475  Z " fill-rule="nonzero" fill="#000000" stroke="none" transform="matrix(1 0 0 1 3121 4070 )" />
  </g>
</svg>