<?xml version="1.0" encoding="utf-8"?>
<svg version="1.1" xmlns:xlink="http://www.w3.org/1999/xlink" width="1002px" height="214px" xmlns="http://www.w3.org/2000/svg">
  <g transform="matrix(1 0 0 1 -4195 -4070 )">
    <path d="M 4196 4075  A 4 4 0 0 1 4200 4071 L 5192 4071  A 4 4 0 0 1 5196 4075 L 5196 4279  A 4 4 0 0 1 5192 4283 L 4200 4283  A 4 4 0 0 1 4196 4279 L 4196 4075  Z " fill-rule="nonzero" fill="#f2f2f2" stroke="none" />
    <path d="M 4195.5 4075  A 4.5 4.5 0 0 1 4200 4070.5 L 5192 4070.5  A 4.5 4.5 0 0 1 5196.5 4075 L 5196.5 4279  A 4.5 4.5 0 0 1 5192 4283.5 L 4200 4283.5  A 4.5 4.5 0 0 1 4195.5 4279 L 4195.5 4075  Z " stroke-width="1" stroke-dasharray="9,4" stroke="#999999" fill="none" stroke-dashoffset="0.5" />
  </g>
</svg>