<?xml version="1.0" encoding="utf-8"?>
<svg version="1.1" xmlns:xlink="http://www.w3.org/1999/xlink" width="22px" height="22px" preserveAspectRatio="xMinYMid meet" viewBox="2065 3298  22 20" xmlns="http://www.w3.org/2000/svg">
  <path d="M 2077 3308.5  L 2025 3308.5  A 5 5 0 0 0 2020.5 3313.5 L 2020.5 4324  A 5 5 0 0 0 2025.5 4329.5 L 2027 4329.5  " stroke-width="3" stroke="#0066ff" fill="none" />
  <path d="M 2076 3304.5  A 4 4 0 0 0 2072 3308.5 A 4 4 0 0 0 2076 3312.5 A 4 4 0 0 0 2080 3308.5 A 4 4 0 0 0 2076 3304.5 Z M 2017.9 4339.5  L 2030 4329.5  L 2017.9 4319.5  L 2022.8 4329.5  L 2017.9 4339.5  Z " fill-rule="nonzero" fill="#0066ff" stroke="none" />
</svg>