<?xml version="1.0" encoding="utf-8"?>
<svg version="1.1" xmlns:xlink="http://www.w3.org/1999/xlink" width="12px" height="219px" preserveAspectRatio="xMidYMin meet" viewBox="4984 5042  10 219" xmlns="http://www.w3.org/2000/svg">
  <path d="M 4896 5048.5  L 4984 5048.5  A 5 5 0 0 1 4989.5 5053.5 L 4989.5 5250  A 5 5 0 0 0 4994.5 5255.5 L 5082 5255.5  " stroke-width="3" stroke="#0066ff" fill="none" />
  <path d="M 4897 5044.5  A 4 4 0 0 0 4893 5048.5 A 4 4 0 0 0 4897 5052.5 A 4 4 0 0 0 4901 5048.5 A 4 4 0 0 0 4897 5044.5 Z M 5072.9 5265.5  L 5085 5255.5  L 5072.9 5245.5  L 5077.8 5255.5  L 5072.9 5265.5  Z " fill-rule="nonzero" fill="#0066ff" stroke="none" />
</svg>