<?xml version="1.0" encoding="utf-8"?>
<svg version="1.1" xmlns:xlink="http://www.w3.org/1999/xlink" width="22px" height="22px" preserveAspectRatio="xMinYMid meet" viewBox="2373 6216  22 20" xmlns="http://www.w3.org/2000/svg">
  <path d="M 2383 6226.5  L 3347 6226.5  A 5 5 0 0 1 3352.5 6231.5 L 3352.5 6567  A 5 5 0 0 0 3357.5 6572.5 L 3399 6572.5  " stroke-width="3" stroke="#0066ff" fill="none" />
  <path d="M 2384 6222.5  A 4 4 0 0 0 2380 6226.5 A 4 4 0 0 0 2384 6230.5 A 4 4 0 0 0 2388 6226.5 A 4 4 0 0 0 2384 6222.5 Z M 3389.9 6582.5  L 3402 6572.5  L 3389.9 6562.5  L 3394.8 6572.5  L 3389.9 6582.5  Z " fill-rule="nonzero" fill="#0066ff" stroke="none" />
</svg>