<?xml version="1.0" encoding="utf-8"?>
<svg version="1.1" xmlns:xlink="http://www.w3.org/1999/xlink" width="9px" height="9px" xmlns="http://www.w3.org/2000/svg">
  <g transform="matrix(1 0 0 1 -3623 -1650 )">
    <path d="M 8.940000000000001 9  C 8.868 6.705  6.132 7.27875  5.723999999999999 6.2325  C 5.688 5.883750000000001  5.699999999999999 5.625  5.699999999999999 5.29875  C 5.867999999999999 5.20875  6.468 4.66875  6.516 4.21875  C 6.648000000000001 4.2075000000000005  6.863999999999999 4.08375  6.9239999999999995 3.58875  C 6.96 3.33  6.827999999999999 3.1725  6.743999999999999 3.1275  C 6.959999999999999 2.5087499999999996  7.055999999999999 0.5737499999999998  5.543999999999999 0.38249999999999984  C 5.388 0.135  4.992 0  4.476 0  C 2.4119999999999995 0.03375  1.8 1.485  2.256 3.13875  C 2.172 3.18375  2.04 3.33  2.076 3.6  C 2.1359999999999997 4.095  2.352 4.21875  2.4839999999999995 4.23  C 2.532 4.69125  3.1319999999999997 5.23125  3.3 5.3100000000000005  C 3.3 5.63625  3.312 5.883750000000001  3.276 6.24375  C 2.8680000000000003 7.27875  0.19199999999999995 6.7387500000000005  0.05999999999999999 9  L 8.940000000000001 9  Z " fill-rule="nonzero" fill="#999999" stroke="none" transform="matrix(1 0 0 1 3623 1650 )" />
  </g>
</svg>