<?xml version="1.0" encoding="utf-8"?>
<svg version="1.1" xmlns:xlink="http://www.w3.org/1999/xlink" width="24px" height="12px" preserveAspectRatio="xMinYMid meet" viewBox="167 730  24 10" xmlns="http://www.w3.org/2000/svg">
  <path d="M 188 735.5  L 178 735.5  A 5 5 0 0 0 173.5 740.5 L 173.5 796  A 5 5 0 0 0 178.5 801.5 L 189 801.5  " stroke-width="3" stroke="#e7772d" fill="none" />
  <path d="M 187 731.5  A 4 4 0 0 0 183 735.5 A 4 4 0 0 0 187 739.5 A 4 4 0 0 0 191 735.5 A 4 4 0 0 0 187 731.5 Z M 179.9 811.5  L 192 801.5  L 179.9 791.5  L 184.8 801.5  L 179.9 811.5  Z " fill-rule="nonzero" fill="#e7772d" stroke="none" />
</svg>