<?xml version="1.0" encoding="utf-8"?>
<svg version="1.1" xmlns:xlink="http://www.w3.org/1999/xlink" width="20px" height="20px" xmlns="http://www.w3.org/2000/svg">
  <g transform="matrix(1 0 0 1 -57 -1188 )">
    <path d="M 2.2964601769911495 1.586283185840709  L 17.871681415929203 1.586283185840708  C 18.261061946902654 1.586283185840708  18.579646017699115 1.904867256637168  18.579646017699115 2.2942477876106193  L 18.579646017699115 17.869469026548675  C 18.579646017699115 18.258849557522126  18.261061946902654 18.577433628318584  17.871681415929203 18.577433628318584  L 2.2964601769911495 18.577433628318584  C 1.9070796460176984 18.577433628318584  1.588495575221238 18.258849557522126  1.588495575221238 17.869469026548675  L 1.588495575221238 2.2942477876106206  C 1.588495575221238 1.9048672566371694  1.9070796460176984 1.586283185840709  2.2964601769911495 1.586283185840709  Z M 20 2.2942477876106206  C 19.995575221238937 1.1216814159292046  19.04646017699115 0.17035398230088597  17.871681415929203 0.17035398230088597  L 2.2964601769911495 0.17035398230088597  C 1.1238938053097334 0.17035398230088597  0.17256637168141492 1.1216814159292046  0.17256637168141492 2.2942477876106206  L 0.17256637168141492 17.869469026548675  C 0.17256637168141492 19.04203539823009  1.1238938053097334 19.99336283185841  2.2964601769911495 20  L 17.871681415929203 20  C 19.04424778761062 19.99336283185841  19.995575221238937 19.04203539823009  20 17.869469026548675  L 20 2.2942477876106206  Z M 9.300884955752215 14.725663716814159  C 9.04424778761062 14.951327433628322  8.7212389380531 15.06858407079646  8.38495575221239 15.06858407079646  C 8.347345132743364 15.06858407079646  8.309734513274337 15.066371681415928  8.27212389380531 15.064159292035397  C 7.896017699115044 15.035398230088497  7.553097345132743 14.860619469026549  7.307522123893805 14.573008849557521  L 3.380530973451328 9.97787610619469  C 3.1261061946902657 9.68141592920354  3.161504424778761 9.234513274336283  3.4579646017699117 8.98008849557522  C 3.7544247787610625 8.725663716814159  4.201327433628318 8.761061946902656  4.455752212389381 9.057522123893806  L 8.380530973451329 13.650442477876105  L 15.734513274336283 7.367256637168142  C 16.030973451327434 7.1128318584070795  16.477876106194692 7.148230088495575  16.73230088495575 7.4446902654867255  C 16.986725663716815 7.741150442477876  16.95132743362832 8.188053097345133  16.654867256637168 8.442477876106194  L 9.300884955752215 14.725663716814159  Z " fill-rule="nonzero" fill="#000000" stroke="none" transform="matrix(1 0 0 1 57 1188 )" />
  </g>
</svg>