<?xml version="1.0" encoding="utf-8"?>
<svg version="1.1" xmlns:xlink="http://www.w3.org/1999/xlink" width="24px" height="12px" preserveAspectRatio="xMinYMid meet" viewBox="167 894  24 10" xmlns="http://www.w3.org/2000/svg">
  <path d="M 188 817.5  L 178 817.5  A 5 5 0 0 0 173.5 822.5 L 173.5 894  A 5 5 0 0 0 178.5 899.5 L 188 899.5  " stroke-width="3" stroke="#e7772d" fill="none" />
  <path d="M 187 813.5  A 4 4 0 0 0 183 817.5 A 4 4 0 0 0 187 821.5 A 4 4 0 0 0 191 817.5 A 4 4 0 0 0 187 813.5 Z M 178.9 909.5  L 191 899.5  L 178.9 889.5  L 183.8 899.5  L 178.9 909.5  Z " fill-rule="nonzero" fill="#e7772d" stroke="none" />
</svg>