<?xml version="1.0" encoding="utf-8"?>
<svg version="1.1" xmlns:xlink="http://www.w3.org/1999/xlink" width="10px" height="77px" preserveAspectRatio="xMidYMin meet" viewBox="166 801  8 77" xmlns="http://www.w3.org/2000/svg">
  <path d="M 186 806  L 175 806  A 5 5 0 0 0 170 811 L 170 868  A 5 5 0 0 0 175 873 L 186 873  " stroke-width="2" stroke="#e7772d" fill="none" />
  <path d="M 184.5 802.5  A 3.5 3.5 0 0 0 181 806 A 3.5 3.5 0 0 0 184.5 809.5 A 3.5 3.5 0 0 0 188 806 A 3.5 3.5 0 0 0 184.5 802.5 Z M 178.6 881  L 188 873  L 178.6 865  L 182.2 873  L 178.6 881  Z " fill-rule="nonzero" fill="#e7772d" stroke="none" />
</svg>