<?xml version="1.0" encoding="utf-8"?>
<svg version="1.1" xmlns:xlink="http://www.w3.org/1999/xlink" width="24px" height="10px" preserveAspectRatio="xMinYMid meet" viewBox="1401 819  24 8" xmlns="http://www.w3.org/2000/svg">
  <path d="M 1403 677  L 1415 677  A 5 5 0 0 1 1420 682 L 1420 818  A 5 5 0 0 1 1415 823 L 1403 823  " stroke-width="2" stroke="#e7772d" fill="none" />
  <path d="M 1404.5 673.5  A 3.5 3.5 0 0 0 1401 677 A 3.5 3.5 0 0 0 1404.5 680.5 A 3.5 3.5 0 0 0 1408 677 A 3.5 3.5 0 0 0 1404.5 673.5 Z M 1410.4 815  L 1401 823  L 1410.4 831  L 1406.8 823  L 1410.4 815  Z " fill-rule="nonzero" fill="#e7772d" stroke="none" />
</svg>