<?xml version="1.0" encoding="utf-8"?>
<svg version="1.1" xmlns:xlink="http://www.w3.org/1999/xlink" width="24px" height="10px" preserveAspectRatio="xMinYMid meet" viewBox="1401 919  24 8" xmlns="http://www.w3.org/2000/svg">
  <path d="M 1403 857  L 1415 857  A 5 5 0 0 1 1420 862 L 1420 918  A 5 5 0 0 1 1415 923 L 1403 923  " stroke-width="2" stroke="#e7772d" fill="none" />
  <path d="M 1404.5 853.5  A 3.5 3.5 0 0 0 1401 857 A 3.5 3.5 0 0 0 1404.5 860.5 A 3.5 3.5 0 0 0 1408 857 A 3.5 3.5 0 0 0 1404.5 853.5 Z M 1410.4 915  L 1401 923  L 1410.4 931  L 1406.8 923  L 1410.4 915  Z " fill-rule="nonzero" fill="#e7772d" stroke="none" />
</svg>