<?xml version="1.0" encoding="utf-8"?>
<svg version="1.1" xmlns:xlink="http://www.w3.org/1999/xlink" width="10px" height="159px" preserveAspectRatio="xMidYMin meet" viewBox="956 769  8 159" xmlns="http://www.w3.org/2000/svg">
  <path d="M 977 774  L 965 774  A 5 5 0 0 0 960 779 L 960 918  A 5 5 0 0 0 965 923 L 976 923  " stroke-width="2" stroke="#e7772d" fill="none" />
  <path d="M 975.5 770.5  A 3.5 3.5 0 0 0 972 774 A 3.5 3.5 0 0 0 975.5 777.5 A 3.5 3.5 0 0 0 979 774 A 3.5 3.5 0 0 0 975.5 770.5 Z M 968.6 931  L 978 923  L 968.6 915  L 972.2 923  L 968.6 931  Z " fill-rule="nonzero" fill="#e7772d" stroke="none" />
</svg>