<?xml version="1.0" encoding="utf-8"?>
<svg version="1.1" xmlns:xlink="http://www.w3.org/1999/xlink" width="34px" height="34px" preserveAspectRatio="xMinYMid meet" viewBox="596 857  34 32" xmlns="http://www.w3.org/2000/svg">
  <path d="M 613 709  L 625 709  A 5 5 0 0 1 630 714 L 630 868  A 5 5 0 0 1 625 873 L 613 873  " stroke-width="2" stroke="#e7772d" fill="none" />
  <path d="M 614.5 705.5  A 3.5 3.5 0 0 0 611 709 A 3.5 3.5 0 0 0 614.5 712.5 A 3.5 3.5 0 0 0 618 709 A 3.5 3.5 0 0 0 614.5 705.5 Z M 620.4 865  L 611 873  L 620.4 881  L 616.8 873  L 620.4 865  Z " fill-rule="nonzero" fill="#e7772d" stroke="none" />
</svg>