<?xml version="1.0" encoding="utf-8"?>
<svg version="1.1" xmlns:xlink="http://www.w3.org/1999/xlink" width="23px" height="10px" preserveAspectRatio="xMinYMid meet" viewBox="165 705  23 8" xmlns="http://www.w3.org/2000/svg">
  <path d="M 186 709  L 175 709  A 5 5 0 0 0 170 714 L 170 770  A 5 5 0 0 0 175 775 L 186 775  " stroke-width="2" stroke="#e7772d" fill="none" />
  <path d="M 184.5 705.5  A 3.5 3.5 0 0 0 181 709 A 3.5 3.5 0 0 0 184.5 712.5 A 3.5 3.5 0 0 0 188 709 A 3.5 3.5 0 0 0 184.5 705.5 Z M 178.6 783  L 188 775  L 178.6 767  L 182.2 775  L 178.6 783  Z " fill-rule="nonzero" fill="#e7772d" stroke="none" />
</svg>