<?xml version="1.0" encoding="utf-8"?>
<svg version="1.1" xmlns:xlink="http://www.w3.org/1999/xlink" width="21px" height="20px" preserveAspectRatio="xMinYMid meet" viewBox="964 668  21 18" xmlns="http://www.w3.org/2000/svg">
  <path d="M 976 677  L 965 677  A 5 5 0 0 0 960 682 L 960 738  A 5 5 0 0 0 965 743 L 976 743  " stroke-width="2" stroke="#e7772d" fill="none" />
  <path d="M 974.5 673.5  A 3.5 3.5 0 0 0 971 677 A 3.5 3.5 0 0 0 974.5 680.5 A 3.5 3.5 0 0 0 978 677 A 3.5 3.5 0 0 0 974.5 673.5 Z M 968.6 751  L 978 743  L 968.6 735  L 972.2 743  L 968.6 751  Z " fill-rule="nonzero" fill="#e7772d" stroke="none" />
</svg>