<?xml version="1.0" encoding="utf-8"?>
<svg version="1.1" xmlns:xlink="http://www.w3.org/1999/xlink" width="50px" height="50px" xmlns="http://www.w3.org/2000/svg">
  <g transform="matrix(1 0 0 1 -35 -1367 )">
    <path d="M 35 1367  L 85 1367  L 85 1417  L 35 1417  L 35 1367  " fill-rule="nonzero" fill="#cccccc" stroke="none" />
    <path d="M 39 1371  L 81 1371  L 81 1413  L 39 1413  L 39 1371  " fill-rule="nonzero" fill="#ffffff" stroke="none" />
    <path d="M 64.75 1382  C 62.65 1382  61 1380.35  61 1378.25  C 61 1376.15  62.65 1374.5  64.75 1374.5  C 66.85 1374.5  68.5 1376.15  68.5 1378.25  C 68.5 1380.35  66.85 1382  64.75 1382  " fill-rule="nonzero" fill="#cccccc" stroke="none" />
    <path d="M 41 1412  L 41 1390.55  L 50.75 1380.8  L 64.4 1388.6  L 72.2 1386.65  L 80 1388.6  L 80 1412  L 41 1412  " fill-rule="nonzero" fill="#169bd5" stroke="none" />
  </g>
</svg>