<?xml version="1.0" encoding="utf-8"?>
<svg version="1.1" xmlns:xlink="http://www.w3.org/1999/xlink" width="16px" height="16px" xmlns="http://www.w3.org/2000/svg">
  <g transform="matrix(1 0 0 1 -2720 -3133 )">
    <path d="M 15.954545454545455 8  C 15.954545454545455 12.386354474431819  12.386354474431819 15.954545454545455  8 15.954545454545455  C 3.6136455255681814 15.954545454545455  0.045454545454545456 12.386354474431819  0.045454545454545456 8  C 0.045454545454545456 3.6136455255681814  3.6136455255681814 0.045454545454545456  8 0.045454545454545456  C 12.386354474431819 0.045454545454545456  15.954545454545455 3.6136455255681814  15.954545454545455 8  Z M 14.813081090198864 8  C 14.813081090198864 4.243173579545455  11.756246111505682 1.1869189098011363  8 1.1869189098011363  C 4.243173579545455 1.1869189098011363  1.1869189098011368 4.243173561789773  1.1869189098011368 8  C 1.1869189098011368 11.756246111505682  4.2431735617897735 14.813081090198864  8 14.813081090198864  C 11.756246111505682 14.813081090198864  14.813081090198864 11.756276651278409  14.813081090198864 8  Z M 11.259031676136363 10.491478444602274  L 8.799990234375 8.024434641335228  L 11.256802006392043 5.594317720170455  C 11.480104101562496 5.373856143465909  11.481814524147724 5.014208735795455  11.26135296519886 4.790906640625  C 11.04089140625 4.567604545454546  10.680663671874997 4.565894122869318  10.457941885653407 4.786355681818182  L 7.997709268465908 7.219313121448864  L 5.574983824573862 4.789196200284092  C 5.352811825284089 4.567024200994319  4.993744744318179 4.565894105113638  4.771572745028408 4.78806610440341  C 4.549400745738635 5.009657776988638  4.548850976562497 5.369305184659092  4.770442649147725 5.591477183948864  L 7.189747247869317 8.018173259943184  L 4.750528426846589 10.431247017045456  C 4.527226331676135 10.652258362926137  4.525515909090908 11.011356001420456  4.745977468039771 11.234658096590909  C 4.857338352272726 11.34714909446023  5.003365891335227 11.403409854403408  5.149943217329544 11.403409854403408  C 5.294260333806818 11.403409854403408  5.43857745028409 11.348309730113636  5.5493885475852265 11.23920905539773  L 7.99199767400568 8.823294779829546  L 10.454490500710227 11.293759410511365  C 10.565301615767048 11.405120294744318  10.710748828124999 11.460800745738636  10.8567763671875 11.460800745738636  C 11.002223579545454 11.460800745738636  11.147121022727275 11.405120294744318  11.25790158025568 11.294889524147727  C 11.480073579545454 11.0732978515625  11.480623348721592 10.714200230823865  11.259031676136363 10.491478444602274  Z " fill-rule="nonzero" fill="#999999" stroke="none" transform="matrix(1 0 0 1 2720 3133 )" />
  </g>
</svg>