<?xml version="1.0" encoding="utf-8"?>
<svg version="1.1" xmlns:xlink="http://www.w3.org/1999/xlink" width="350px" height="10px" preserveAspectRatio="xMinYMid meet" viewBox="1815 1416  350 8" xmlns="http://www.w3.org/2000/svg">
  <path d="M 1820 1453  L 1820 1425  A 5 5 0 0 1 1825 1420 L 2155 1420  A 5 5 0 0 0 2160 1415 L 2160 1368  " stroke-width="2" stroke="#0066ff" fill="none" />
  <path d="M 1820 1448  A 3.5 3.5 0 0 0 1816.5 1451.5 A 3.5 3.5 0 0 0 1820 1455 A 3.5 3.5 0 0 0 1823.5 1451.5 A 3.5 3.5 0 0 0 1820 1448 Z M 2168 1375.4  L 2160 1366  L 2152 1375.4  L 2160 1371.8  L 2168 1375.4  Z " fill-rule="nonzero" fill="#0066ff" stroke="none" />
</svg>