<?xml version="1.0" encoding="utf-8"?>
<svg version="1.1" xmlns:xlink="http://www.w3.org/1999/xlink" width="1180px" height="10px" preserveAspectRatio="xMinYMid meet" viewBox="475 216  1180 8" xmlns="http://www.w3.org/2000/svg">
  <path d="M 480 235  L 480 225  A 5 5 0 0 1 485 220 L 1645 220  A 5 5 0 0 1 1650 225 L 1650 329  A 5 5 0 0 0 1655 334 L 1658 334  " stroke-width="2" stroke="#0066ff" fill="none" />
  <path d="M 480 230  A 3.5 3.5 0 0 0 476.5 233.5 A 3.5 3.5 0 0 0 480 237 A 3.5 3.5 0 0 0 483.5 233.5 A 3.5 3.5 0 0 0 480 230 Z M 1650.6 342  L 1660 334  L 1650.6 326  L 1654.2 334  L 1650.6 342  Z " fill-rule="nonzero" fill="#0066ff" stroke="none" />
</svg>