<?xml version="1.0" encoding="utf-8"?>
<svg version="1.1" xmlns:xlink="http://www.w3.org/1999/xlink" width="10px" height="207px" preserveAspectRatio="xMidYMin meet" viewBox="2489 1775  8 207" xmlns="http://www.w3.org/2000/svg">
  <path d="M 2493 1777  L 2493 1972  A 5 5 0 0 0 2498 1977 L 2865 1977  A 5 5 0 0 1 2870 1982 L 2870 2178  " stroke-width="2" stroke="#0066ff" fill="none" />
  <path d="M 2493 1775  A 3.5 3.5 0 0 0 2489.5 1778.5 A 3.5 3.5 0 0 0 2493 1782 A 3.5 3.5 0 0 0 2496.5 1778.5 A 3.5 3.5 0 0 0 2493 1775 Z M 2862 2170.6  L 2870 2180  L 2878 2170.6  L 2870 2174.2  L 2862 2170.6  Z " fill-rule="nonzero" fill="#0066ff" stroke="none" />
</svg>