<?xml version="1.0" encoding="utf-8"?>
<svg version="1.1" xmlns:xlink="http://www.w3.org/1999/xlink" width="8px" height="14px" xmlns="http://www.w3.org/2000/svg">
  <g transform="matrix(1 0 0 1 -445 -288 )">
    <path d="M 6.551463195136344 7.004863432372505  C 6.551463195136344 6.971140402701286  6.537428379111903 6.938798676313789  6.512446439024391 6.914953507760532  L 0.2724235447154475 0.9585680177383593  C 0.0643600650406512 0.7599460753880267  0.0643600650406512 0.4379264567627493  0.2724235447154475 0.239304514412417  C 0.4805036747967487 0.04069846563192921  0.8178575609756099 0.04069846563192921  1.0259376910569102 0.239304514412417  L 7.736900682926828 6.645223733924612  C 7.944980813008129 6.8438456762749444  7.944980813008129 7.1658652949002235  7.736900682926828 7.364487237250554  L 1.0259543414634142 13.770406456762748  C 0.8178575609756099 13.96902839911308  0.48050367479674777 13.96902839911308  0.27242354471544655 13.770406456762748  C 0.06436006504065024 13.571784514412418  0.06436006504065024 13.249764895787138  0.27242354471544655 13.051142953436806  L 6.512446439024391 7.094773356984478  C 6.537428379111903 7.070928188431219  6.551463195136344 7.0385864620437255  6.551463195136344 7.004863432372505  Z " fill-rule="nonzero" fill="#333333" stroke="none" transform="matrix(1 0 0 1 445 288 )" />
  </g>
</svg>