<?xml version="1.0" encoding="utf-8"?>
<svg version="1.1" xmlns:xlink="http://www.w3.org/1999/xlink" width="19px" height="20px" xmlns="http://www.w3.org/2000/svg">
  <g transform="matrix(1 0 0 1 -1548 -3203 )">
    <path d="M 18.989159866666668 10.412027851562499  L 17.56066198645833 9.002326015625  L 9.749514056249998 16.700697792968747  C 8.903122032557865 17.535953079507035  7.755168100343989 18.005194613423992  6.558189021354165 18.005194613423992  C 4.065609123352581 18.005194613423992  2.044973875063688 16.011146671033636  2.044973875063688 13.551363876953124  C 2.044973875063688 12.370134522686854  2.5204719627662 11.237285247475787  3.366863986458332 10.4020299609375  L 11.09696238958333 2.77364337890625  C 11.598080206456073 2.2791192175186765  12.277741819844268 2.001298436509034  12.986429432812496 2.001298436509034  C 14.46219499050137 2.001298436509034  15.658539351004173 3.1819014238473287  15.658539351004173 4.638249013671874  C 15.658539351004173 5.3376117896273625  15.377014292914408 6.008330487049926  14.875896476041664 6.502854648437499  L 7.71314474270833 13.561361777343748  C 7.557301131745006 13.715154811888603  7.345931837523535 13.801554838822653  7.125535691145831 13.801554838822653  C 6.666584469905107 13.801554838822653  6.294530994055541 13.434396803444795  6.294530994055541 12.9814844140625  C 6.294530994055541 12.763988212193535  6.382083025190881 12.555400088710108  6.53792663958333 12.40160705078125  L 13.052282176041668 6.002960371093749  L 11.623784315625 4.57326275390625  L 5.1094287593750005 11.00190310546875  C 4.572036998217311 11.532223922400682  4.270133450422877 12.251493303598586  4.270133450422877 13.0014801953125  C 4.270133450422877 14.563247048939093  5.553076465408388 15.82930923478006  7.135666877083335 15.82930923478006  C 7.895653594020102 15.82930923478006  8.624513233633978 15.531378102088183  9.161904994791668 15.001057285156252  L 16.324656747916666 7.9325522656250005  C 17.206445745975984 7.061041268900587  17.701716975968655 5.8798133692943475  17.701716975968655 4.64824689453125  C 17.701716975968655 2.0810918847857387  15.592878783833786 0  12.991495040625 0  C 11.741025251728518 0  10.541876337557767 0.49069696498279936  9.658333333333333 1.3639415234374999  L 1.9383661062499995 9.002326015625  C 0.7666990488077093 10.203799397983982  0.11218292113604504 11.806446771779324  0.11218292113604504 13.473915884775282  C 0.11218292113604504 17.035399267348637  3.037831021586711 19.922551998056534  6.646800849261045 19.922551998056534  C 8.336502883763622 19.922551998056534  9.960518889209563 19.276647924696338  11.178011916666668 18.1203975390625  L 18.989159866666668 10.412027851562499  Z " fill-rule="nonzero" fill="#000000" stroke="none" transform="matrix(1 0 0 1 1548 3203 )" />
  </g>
</svg>