<?xml version="1.0" encoding="utf-8"?>
<svg version="1.1" xmlns:xlink="http://www.w3.org/1999/xlink" width="70px" height="70px" xmlns="http://www.w3.org/2000/svg">
  <g transform="matrix(1 0 0 1 -2295 -3113 )">
    <path d="M 65 70  L 5 70  C 2.2000000000000455 70  0 67.79999999999995  0 65  L 0 5  C 0 2.2000000000000455  2.2000000000000455 0  5 0  L 65 0  C 67.79999999999995 0  70 2.2000000000000455  70 5  L 70 65  C 70 67.79999999999995  67.79999999999995 70  65 70  Z M 15 48  L 56 48  L 40.129032258064505 22  L 29.54838709677415 40.35294117647061  L 25.580645161290363 31.176470588235247  L 15 48  Z " fill-rule="nonzero" fill="#666666" stroke="none" transform="matrix(1 0 0 1 2295 3113 )" />
  </g>
</svg>