<?xml version="1.0" encoding="utf-8"?>
<svg version="1.1" xmlns:xlink="http://www.w3.org/1999/xlink" width="23px" height="20px" xmlns="http://www.w3.org/2000/svg">
  <g transform="matrix(1 0 0 1 -1505 -3203 )">
    <path d="M 22.858024700231482 3.1914893617021276  L 22.858024700231482 11.114893617021275  L 22.858024700231482 16.808510638297875  C 22.858024700231482 18.53191489361702  21.45956791898148 19.92907800531915  19.73456789236111 20  L 3.2654321076388886 20  C 1.5404321076388892 19.92907800531915  0.1419753263888887 18.531914893617024  0.14197529976851841 16.808510638297875  L 0.14197529976851841 3.1914893617021276  C 0.14197529976851841 1.4680851063829783  1.5404320810185188 0.07092199468085154  3.2654321076388886 0  L 19.73456789236111 0  C 21.459567892361108 0.07092199468085154  22.85802467361111 1.4680851063829792  22.858024700231482 3.1914893617021276  Z M 16.61111111111111 8.01418438829787  C 18.360246922453705 8.01418438829787  19.99182715162037 8.460425531914893  21.15432099652778 9.130212765957445  L 21.15432099652778 3.1914893617021276  C 21.15432099652778 2.4081067427248053  20.51867589223564 1.773049654255319  19.73456791898148 1.773049654255319  C 19.73456791898148 1.773049654255319  19.734567892361106 1.773049654255319  19.73456789236111 2  L 3.2654321076388886 2  C 3.2654321076388886 1.773049654255319  3.2654320810185173 1.773049654255319  3.2654320810185173 1.773049654255319  C 2.481324107764362 1.773049654255319  1.845679003472221 2.408106742724803  1.845679003472221 3.1914893617021276  L 1.8456790034722224 12.353191489361704  C 2.2217019975941876 12.297403330326278  2.601334967897587 12.269431296050987  2.9814814814814814 12.269503537234046  C 4.762588017001992 12.266903697801382  6.488586312833591 12.886359665870916  7.860888888888889 14.020709228723405  C 9.238049373842593 10.435744680851064  12.695432107638887 8.01418438829787  16.61111111111111 8.01418438829787  Z M 21.15432099652778 11.317446808510637  C 21.012345696759258 11.096170212765955  20.591814814814814 10.741560292553192  19.992395070601848 10.441985824468084  C 19.08062962962963 9.986382978723404  17.91671604050926 9.71631204787234  16.61111111111111 9.71631204787234  C 13.369530855324074 9.71631204787234  10.51156789236111 11.744680851063832  9.41211111111111 14.734751781914891  C 9.339419744212963 14.932765957446808  9.215049373842591 15.275177313829788  9.039567892361111 15.760851063829787  C 8.835123447916667 16.327375877659573  8.122407407407408 16.508368803191487  7.6720617372685185 16.10808510638298  C 7.234493844907408 15.718865239361701  6.911925925925927 15.441418430851062  6.710037037037037 15.279716303191487  C 5.653300204990078 14.43085348911547  4.3374276184774025 13.969207335084006  2.9814814814814814 13.971631196808511  C 2.5964444444444443 13.971631196808511  2.216802478009259 14.007943244680853  1.8456790034722224 14.079432632978722  L 1.8456790034722224 16.808510638297875  C 1.8456790034722224 17.591893257275196  2.481324107764364 18.22695034574468  3.2654320810185182 18.22695034574468  C 3.2654320810185182 18.22695034574468  3.2654321076388895 18.22695034574468  3.2654321076388895 18  L 19.73456789236111 18  C 19.73456789236111 18.22695034574468  19.73456791898148 18.22695034574468  19.73456791898148 18.22695034574468  C 20.518675892235635 18.22695034574468  21.15432099652778 17.591893257275196  21.15432099652778 16.808510638297875  L 21.15432099652778 11.31716311170213  Z M 6.388888888888889 9.148936170212766  C 4.977494528210195 9.148936170212766  3.8333333333333326 8.005833403823301  3.8333333333333326 6.595744680851063  C 3.8333333333333326 5.185655957878826  4.977494528210195 4.042553191489361  6.388888888888889 4.042553191489361  C 7.800283249567583 4.042553191489361  8.944444444444445 5.185655957878826  8.944444444444445 6.595744680851063  C 8.944444444444445 8.005833403823301  7.800283249567583 9.148936170212766  6.388888888888889 9.148936170212766  Z M 6.388888888888889 7.446808510638298  C 6.8593536757817875 7.446808510638298  7.240740740740741 7.0657742551751435  7.240740740740741 6.595744680851063  C 7.240740740740741 6.125715106526984  6.8593536757817875 5.74468085106383  6.388888888888889 5.74468085106383  C 5.918424101995991 5.74468085106383  5.537037037037036 6.125715106526984  5.537037037037036 6.595744680851063  C 5.537037037037036 7.0657742551751435  5.918424101995991 7.446808510638298  6.388888888888889 7.446808510638298  Z " fill-rule="nonzero" fill="#000000" stroke="none" transform="matrix(1 0 0 1 1505 3203 )" />
  </g>
</svg>