<?xml version="1.0" encoding="utf-8"?>
<svg version="1.1" xmlns:xlink="http://www.w3.org/1999/xlink" width="21px" height="20px" preserveAspectRatio="xMinYMid meet" viewBox="2154 601  21 18" xmlns="http://www.w3.org/2000/svg">
  <path d="M 2163 610  L 2200 610  A 5 5 0 0 0 2205 605 L 2205 481  A 5 5 0 0 1 2210 476 L 2247 476  " stroke-width="2" stroke="#0066ff" fill="none" />
  <path d="M 2164.5 606.5  A 3.5 3.5 0 0 0 2161 610 A 3.5 3.5 0 0 0 2164.5 613.5 A 3.5 3.5 0 0 0 2168 610 A 3.5 3.5 0 0 0 2164.5 606.5 Z M 2239.6 484  L 2249 476  L 2239.6 468  L 2243.2 476  L 2239.6 484  Z " fill-rule="nonzero" fill="#0066ff" stroke="none" />
</svg>