<?xml version="1.0" encoding="utf-8"?>
<svg version="1.1" xmlns:xlink="http://www.w3.org/1999/xlink" width="21px" height="20px" preserveAspectRatio="xMinYMid meet" viewBox="91 745  21 18" xmlns="http://www.w3.org/2000/svg">
  <path d="M 103 754  L 45 754  A 5 5 0 0 0 40 759 L 40 1016  A 5 5 0 0 0 45 1021 L 56 1021  " stroke-width="2" stroke="#0066ff" fill="none" />
  <path d="M 101.5 750.5  A 3.5 3.5 0 0 0 98 754 A 3.5 3.5 0 0 0 101.5 757.5 A 3.5 3.5 0 0 0 105 754 A 3.5 3.5 0 0 0 101.5 750.5 Z M 48.6 1029  L 58 1021  L 48.6 1013  L 52.2 1021  L 48.6 1029  Z " fill-rule="nonzero" fill="#0066ff" stroke="none" />
</svg>