<?xml version="1.0" encoding="utf-8"?>
<svg version="1.1" xmlns:xlink="http://www.w3.org/1999/xlink" width="14px" height="14px" xmlns="http://www.w3.org/2000/svg">
  <g transform="matrix(1 0 0 1 -117 -1368 )">
    <path d="M 1.6081415929203544 1.1108628318584075  L 12.510796460176993 1.1108628318584073  C 12.784495097261278 1.1108628318584073  13.00637168141593 1.3327394160130586  13 1.6064380530973454  L 13 12.509092920353982  C 13.00637168141593 12.78279155743827  12.784495097261278 13.004668141592921  12.510796460176993 13  L 1.6081415929203544 13  C 1.3344429558360675 13.004668141592921  1.1125663716814165 12.78279155743827  1.1125663716814165 12.509092920353982  L 1.1125663716814165 1.6064380530973454  C 1.1125663716814165 1.3327394160130586  1.3344429558360675 1.1108628318584075  1.6081415929203544 1.1108628318584075  Z M 14 1.6064380530973454  C 13.997522123893804 0.7853421418444843  13.331892371429852 0.11971238938053125  12.510796460176993 0.11971238938053125  L 1.6081415929203544 0.11971238938053125  C 0.7870456816674933 0.11971238938053125  0.12141592920354022 0.7853421418444843  0.12141592920354032 1.6064380530973454  L 0.12141592920354022 12.50909292035398  C 0.12141592920354022 13.330188831606842  0.7870456816674933 13.995818584070793  1.6081415929203544 14  L 12.510796460176989 14  C 13.331892371429852 13.995818584070793  13.997522123893804 13.330188831606842  14 12.509092920353982  L 14 1.6064380530973454  Z " fill-rule="nonzero" fill="#999999" stroke="none" transform="matrix(1 0 0 1 117 1368 )" />
  </g>
</svg>