<?xml version="1.0" encoding="utf-8"?>
<svg version="1.1" xmlns:xlink="http://www.w3.org/1999/xlink" width="15px" height="14px" xmlns="http://www.w3.org/2000/svg">
  <g transform="matrix(1 0 0 1 -1032 -306 )">
    <path d="M 14.357142857142856 14  L 0.6428571428571428 14  C 0.3344881850389292 13.938261762281323  0.10331255274002377 13.688324213755282  0.10331255274002377 13.392166666666668  C 0.10331255274002377 13.096009119578055  0.3344881850389276 12.84607157105201  0.6428571428571428 12.808833333333332  L 14.357142857142856 12.808833333333332  C 14.665511814961073 12.84607157105201  14.896687447259977 13.096009119578055  14.896687447259977 13.392166666666668  C 14.896687447259977 13.688324213755282  14.665511814961071 13.938261762281323  14.357142857142856 14  Z M 10.556326530612248 0.27416666666666545  C 10.938404036876008 -0.0877086883967472  11.555473514144403 -0.0877086883967472  11.937551020408165 0.27416666666666656  L 13.318775510204084 1.5901666666666663  C 13.698586378492214 1.9542016240235283  13.698586378492214 2.542131709309805  13.318775510204082 2.9061666666666666  L 4.561224489795919 11.222166666666666  C 4.376357063701525 11.396874080114046  4.126092719657172 11.494267641546328  3.865714285714286 11.492833333333333  L 2.0436734693877554 11.492833333333333  C 1.773166653144101 11.492833333333333  1.5538775510204081 11.283899549921037  1.5538775510204081 11.026166666666665  L 1.5538775510204081 9.243500000000001  C 1.5523721546452522 8.99541721432664  1.6545928022126644 8.756970908751047  1.8379591836734699 8.58083333333333  L 10.556326530612248 0.27416666666666545  Z M 11.251836734693876 1.2541666666666669  L 2.7783673469387757 9.336833333333335  L 2.7783673469387757 10.326166666666667  L 3.816734693877551 10.326166666666667  L 12.290204081632652 2.252833333333334  L 11.251836734693876 1.2541666666666669  Z " fill-rule="nonzero" fill="#999999" stroke="none" transform="matrix(1 0 0 1 1032 306 )" />
  </g>
</svg>