<?xml version="1.0" encoding="utf-8"?>
<svg version="1.1" xmlns:xlink="http://www.w3.org/1999/xlink" width="10px" height="10px" xmlns="http://www.w3.org/2000/svg">
  <g transform="matrix(1 0 0 1 -2084 -957 )">
    <path d="M 2089 957  C 2091.8 957  2094 959.2  2094 962  C 2094 964.8  2091.8 967  2089 967  C 2086.2 967  2084 964.8  2084 962  C 2084 959.2  2086.2 957  2089 957  Z " fill-rule="nonzero" fill="#ffffff" stroke="none" />
    <path d="M 2089 957.5  C 2091.52 957.5  2093.5 959.48  2093.5 962  C 2093.5 964.52  2091.52 966.5  2089 966.5  C 2086.48 966.5  2084.5 964.52  2084.5 962  C 2084.5 959.48  2086.48 957.5  2089 957.5  Z " stroke-width="1" stroke="#e7772d" fill="none" />
  </g>
</svg>