<?xml version="1.0" encoding="utf-8"?>
<svg version="1.1" xmlns:xlink="http://www.w3.org/1999/xlink" width="14px" height="14px" xmlns="http://www.w3.org/2000/svg">
  <g transform="matrix(1 0 0 1 -2082 -955 )">
    <path d="M 2089 955  C 2092.92 955  2096 958.08  2096 962  C 2096 965.92  2092.92 969  2089 969  C 2085.08 969  2082 965.92  2082 962  C 2082 958.08  2085.08 955  2089 955  Z " fill-rule="nonzero" fill="#ffffff" stroke="none" />
    <path d="M 2089 955.5  C 2092.64 955.5  2095.5 958.36  2095.5 962  C 2095.5 965.64  2092.64 968.5  2089 968.5  C 2085.36 968.5  2082.5 965.64  2082.5 962  C 2082.5 958.36  2085.36 955.5  2089 955.5  Z " stroke-width="1" stroke="#ffffff" fill="none" />
  </g>
</svg>