<?xml version="1.0" encoding="utf-8"?>
<svg version="1.1" xmlns:xlink="http://www.w3.org/1999/xlink" width="10px" height="10px" xmlns="http://www.w3.org/2000/svg">
  <g transform="matrix(1 0 0 1 -2238 -957 )">
    <path d="M 9.638105179398147 5.141326992910878  C 9.638105179398147 2.4976220232928235  7.495160800057869 0.35578798466435124  4.85256617115162 0.35578798466435185  C 2.20997154224537 0.35578798466435185  0.06702716290509204 2.497622034143518  0.06702715205439772 5.14132699291088  C 0.06702714120370322 7.785031951678242  2.208861201533564 9.926866001157409  4.85256617115162 9.926866012008102  C 7.496271140769677 9.926866022858794  9.638105179398147 7.785031962528935  9.638105179398147 5.141326992910878  Z M 7.744985919415511 3.3969924768518522  C 7.9148670066550935 3.563542563657408  7.9148670066550935 3.836684696903936  7.747206589988425 4.004345102719907  L 4.5361210105613425 7.215430682146992  C 4.451735637297453 7.29981605541088  4.3418125795717595 7.3420087420428235  4.231889532696759 7.3420087420428235  C 4.121966474971065 7.3420087420428235  4.012043428096065 7.29981605541088  3.927658043981481 7.215430682146992  L 2.352094274450232 5.640977242476852  C 2.183323527922454 5.473316825810185  2.183323527922454 5.200174692563657  2.352094274450232 5.032514275896991  C 2.5208650209780097 4.863743529369213  2.7928968243634267 4.863743529369213  2.9605572410300924 5.032514275896991  L 4.230779191984953 6.302736237702547  L 7.136522952835648 3.3969924768518522  C 7.305293699363426 3.228221730324074  7.577325502748843 3.228221730324074  7.744985919415511 3.3969924768518522  Z " fill-rule="nonzero" fill="#e7772d" stroke="none" transform="matrix(1 0 0 1 2238 957 )" />
  </g>
</svg>