<?xml version="1.0" encoding="utf-8"?>
<svg version="1.1" xmlns:xlink="http://www.w3.org/1999/xlink" width="60px" height="60px" xmlns="http://www.w3.org/2000/svg">
  <g transform="matrix(1 0 0 1 -2919 -235 )">
    <path d="M 59.778758571428575 30.050777008928574  C 59.778758571428575 46.47511560267857  46.44921314732143 59.79212095982143  30.005413459821426 59.79212095982143  C 13.563121339285713 59.79212095982143  0.2383041294642815 46.47504709821428  0.2383041294642815 30.050777008928574  C 0.2383041294642815 17.44375888392857  8.085303883928567 6.673004263392861  19.16743587053571 2.344487611607146  C 22.515839933035707 0.9937234151785741  26.173976852678564 0.24776062500000323  30.006167209821427 0.24776062500000323  C 33.84308578125 0.24776062500000323  37.498070558035714 0.9929696651785748  40.849626763392855 2.344487611607146  C 51.93107357142857 6.673004263392857  59.778758571428575 17.443827388392855  59.778758571428575 30.050777008928574  Z M 18.56345685267857 23.778481071428573  C 18.56345685267857 28.790534330357143  21.131498571428573 33.12994647321428  24.864601808035715 35.25401497767857  C 26.41278642857143 36.13497194196429  28.15599308035715 36.64301611607143  30.005413459821426 36.64301611607143  C 31.789940691964286 36.64301611607143  33.47236573660714 36.16779549107144  34.97998352678571 35.346866316964295  C 38.80127839285714 33.263364642857155  41.45209828125 28.87091417410715  41.45209828125 23.77930339285715  C 41.45209828125 16.689984241071436  36.31834466517857 10.919496629464293  30.005481964285714 10.919496629464293  C 23.696456651785713 10.9187428125  18.56345685267857 16.689298928571425  18.56345685267857 23.778481071428573  Z M 30.126360066964285 57.864787700892855  C 38.823891696428575 57.864787700892855  46.58263131696428 53.86484825892857  51.668006250000005 47.60509232142857  C 51.06724787946428 42.667183058035704  46.25563011160715 38.46358741071428  39.44582430803572 36.36679191964285  C 36.87387662946429 38.68046892857143  33.58789881696429 40.07262220982143  30.004591205357137 40.07262220982143  C 26.341726071428567 40.07262220982143  22.988730803571425 38.605571183035714  20.391771562499994 36.19123091517857  C 13.767531361607137 38.08190330357142  8.915483906249992 41.938351540178566  7.77783241071428 46.55940127232142  C 12.824148080357144 53.414570625  20.957513638392854 57.864787700892855  30.126360066964285 57.864787700892855  Z " fill-rule="nonzero" fill="#cccccc" stroke="none" transform="matrix(1 0 0 1 2919 235 )" />
  </g>
</svg>