<?xml version="1.0" encoding="utf-8"?>
<svg version="1.1" xmlns:xlink="http://www.w3.org/1999/xlink" width="23px" height="20px" xmlns="http://www.w3.org/2000/svg">
  <g transform="matrix(1 0 0 1 -2939 -336 )">
    <path d="M 22.276116071428568 9.737373737373735  C 23.13348214285714 8.808080808080806  23.174553571428568 7.44191919191919  22.437834821428574 6.517676767676768  L 17.945647321428574 1.0126262626262632  C 17.496428571428574 0.4494949494949497  16.76227678571429 0.0883838383838391  16.025558035714287 0.0883838383838391  L 6.956473214285714 0.0883838383838391  C 6.222321428571428 0.0883838383838391  5.526674107142858 0.4090909090909095  5.0363839285714285 1.0126262626262632  L 0.5441964285714284 6.517676767676768  C -0.23102678571428573 7.441919191919192  -0.1514508928571428 8.808080808080808  0.6674107142857143 9.694444444444445  L 9.777566964285715 19.17929292929293  L 9.90078125 19.300505050505052  C 10.35 19.7020202020202  10.963504464285714 19.944444444444443  11.574441964285715 19.944444444444443  L 11.656584821428574 19.944444444444443  C 12.311160714285716 19.9040404040404  12.922098214285715 19.66414141414141  13.371316964285715 19.18181818181818  L 22.276116071428568 9.737373737373735  Z M 17.003571428571426 8.088383838383837  C 17.332142857142856 8.366161616161614  17.332142857142856 8.888888888888888  17.047209821428574 9.212121212121213  L 12.798883928571428 13.752525252525254  C 12.144308035714285 14.396464646464647  11.125223214285715 14.436868686868689  10.470647321428572 13.833333333333336  L 10.388504464285717 13.752525252525254  L 5.975892857142859 9.171717171717173  C 5.690959821428573 8.851010101010102  5.690959821428573 8.32828282828283  6.016964285714288 8.045454545454545  C 6.384040178571432 7.724747474747476  6.874330357142859 7.765151515151515  7.200334821428575 8.085858585858588  L 11.345982142857144 12.393939393939393  C 11.46919642857143 12.520202020202017  11.671986607142859 12.520202020202017  11.795200892857142 12.393939393939393  L 15.820200892857141 8.169191919191919  C 16.146205357142858 7.848484848484847  16.636495535714285 7.808080808080806  17.003571428571426 8.088383838383837  Z " fill-rule="nonzero" fill="#c89280" stroke="none" transform="matrix(1 0 0 1 2939 336 )" />
  </g>
</svg>