<?xml version="1.0" encoding="utf-8"?>
<svg version="1.1" xmlns:xlink="http://www.w3.org/1999/xlink" width="14px" height="14px" xmlns="http://www.w3.org/2000/svg">
  <g transform="matrix(1 0 0 1 -3089 -1962 )">
    <path d="M 13.970170454545455 10.848011363636363  C 13.990056818181818 10.894412878787877  14 10.964015151515149  14 11.056818181818182  C 14 11.235795454545453  13.96685606060606 11.469460227272727  13.900568181818182 11.7578125  C 13.834280303030305 12.046164772727273  13.764678030303031 12.273200757575756  13.691761363636363 12.438920454545453  C 13.552556818181818 12.770359848484848  13.14820075757576 13.121685606060606  12.478693181818182 13.492897727272727  C 11.855587121212123 13.830965909090908  11.23910984848485 14  10.629261363636363 14  C 10.450284090909092 14  10.274621212121213 13.988399621212121  10.102272727272727 13.965198863636363  C 9.929924242424244 13.941998106060607  9.739346590909093 13.900568181818182  9.530539772727273 13.840909090909092  C 9.321732954545455 13.78125  9.165956439393941 13.733191287878789  9.063210227272727 13.696732954545455  C 8.960464015151516 13.660274621212121  8.776515151515152 13.592329545454545  8.511363636363637 13.492897727272727  C 8.246212121212123 13.393465909090908  8.08380681818182 13.333806818181818  8.024147727272727 13.313920454545455  C 7.3745265151515165 13.081912878787879  6.794507575757576 12.806818181818182  6.284090909090909 12.488636363636363  C 5.442234848484849 11.964962121212121  4.567234848484849 11.24905303030303  3.659090909090909 10.340909090909092  C 2.7509469696969697 9.432765151515149  2.035037878787879 8.557765151515152  1.5113636363636365 7.715909090909091  C 1.1931818181818181 7.205492424242424  0.9180871212121213 6.6254734848484835  0.6860795454545454 5.975852272727273  C 0.6661931818181818 5.916193181818181  0.6065340909090909 5.753787878787877  0.5071022727272727 5.488636363636364  C 0.40767045454545453 5.223484848484848  0.33972537878787884 5.0395359848484835  0.30326704545454547 4.936789772727273  C 0.26680871212121215 4.83404356060606  0.21875 4.678267045454545  0.1590909090909091 4.469460227272727  C 0.09943181818181818 4.260653409090907  0.05800189393939395 4.070075757575757  0.03480113636363636 3.8977272727272734  C 0.011600378787878786 3.7253787878787863  0 3.549715909090909  0 3.370738636363636  C 0 2.7608901515151505  0.1690340909090909 2.1444128787878776  0.5071022727272727 1.521306818181818  C 0.878314393939394 0.8517992424242402  1.2296401515151514 0.4474431818181821  1.5610795454545454 0.3082386363636358  C 1.7267992424242427 0.2353219696969686  1.9538352272727273 0.16571969696969546  2.2421875 0.0994318181818179  C 2.530539772727273 0.03314393939393878  2.7642045454545454 0  2.9431818181818183 0  C 3.035984848484849 0  3.1055871212121215 0.0099431818181821  3.1519886363636362 0.029829545454544748  C 3.2713068181818183 0.06960227272727315  3.4469696969696972 0.32149621212121193  3.6789772727272725 0.7855113636363642  C 3.7518939393939394 0.9114583333333313  3.8513257575757582 1.0904356060606044  3.9772727272727275 1.322443181818182  C 4.103219696969697 1.5544507575757567  4.219223484848485 1.7649147727272732  4.325284090909091 1.9538352272727268  C 4.431344696969697 2.142755681818182  4.534090909090909 2.320075757575757  4.6335227272727275 2.485795454545455  C 4.653409090909091 2.5123106060606046  4.711410984848485 2.595170454545455  4.807528409090909 2.734375  C 4.903645833333334 2.873579545454545  4.974905303030304 2.99124053030303  5.021306818181818 3.087357954545455  C 5.067708333333334 3.1834753787878776  5.090909090909091 3.2779356060606046  5.090909090909091 3.370738636363636  C 5.090909090909091 3.5033143939393927  4.996448863636363 3.669034090909091  4.807528409090909 3.8678977272727266  C 4.618607954545454 4.066761363636364  4.41311553030303 4.249053030303029  4.191051136363637 4.414772727272727  C 3.9689867424242427 4.580492424242422  3.763494318181818 4.756155303030303  3.5745738636363633 4.941761363636364  C 3.385653409090909 5.127367424242424  3.2911931818181817 5.279829545454545  3.2911931818181817 5.399147727272727  C 3.2911931818181817 5.458806818181818  3.307765151515152 5.533380681818182  3.340909090909091 5.622869318181818  C 3.3740530303030307 5.712357954545455  3.402225378787879 5.780303030303029  3.4254261363636362 5.826704545454545  C 3.4486268939393945 5.87310606060606  3.495028409090909 5.952651515151515  3.564630681818182 6.065340909090909  C 3.6342329545454546 6.178030303030303  3.6723484848484853 6.241003787878788  3.6789772727272725 6.254261363636364  C 4.182765151515151 7.162405303030301  4.759469696969697 7.941287878787877  5.409090909090909 8.590909090909092  C 6.058712121212122 9.240530303030301  6.837594696969698 9.817234848484848  7.745738636363636 10.321022727272728  C 7.758996212121212 10.327651515151514  7.821969696969697 10.365767045454547  7.934659090909091 10.435369318181818  C 8.047348484848484 10.504971590909092  8.126893939393941 10.551373106060604  8.173295454545455 10.574573863636363  C 8.21969696969697 10.597774621212121  8.287642045454545 10.625946969696969  8.377130681818182 10.659090909090908  C 8.466619318181818 10.692234848484848  8.541193181818182 10.708806818181818  8.600852272727273 10.708806818181818  C 8.720170454545455 10.708806818181818  8.872632575757576 10.614346590909092  9.058238636363637 10.425426136363637  C 9.243844696969697 10.236505681818182  9.419507575757578 10.031013257575756  9.585227272727273 9.808948863636363  C 9.75094696969697 9.586884469696967  9.933238636363637 9.381392045454547  10.132102272727273 9.192471590909092  C 10.330965909090908 9.003551136363637  10.496685606060607 8.909090909090908  10.629261363636363 8.909090909090908  C 10.722064393939396 8.909090909090908  10.816524621212123 8.932291666666666  10.912642045454545 8.978693181818182  C 11.00875946969697 9.025094696969695  11.126420454545455 9.096354166666666  11.265625 9.192471590909092  C 11.404829545454545 9.288589015151514  11.487689393939396 9.346590909090908  11.514204545454545 9.366477272727272  C 11.679924242424244 9.465909090909092  11.857244318181818 9.568655303030301  12.046164772727273 9.674715909090908  C 12.235085227272727 9.780776515151514  12.445549242424244 9.896780303030301  12.677556818181818 10.022727272727272  C 12.909564393939396 10.148674242424242  13.088541666666668 10.248106060606059  13.214488636363637 10.321022727272728  C 13.678503787878789 10.553030303030301  13.930397727272727 10.728693181818182  13.970170454545455 10.848011363636363  Z " fill-rule="nonzero" fill="#999999" stroke="none" transform="matrix(1 0 0 1 3089 1962 )" />
  </g>
</svg>