<?xml version="1.0" encoding="utf-8"?>
<svg version="1.1" xmlns:xlink="http://www.w3.org/1999/xlink" width="10px" height="10px" xmlns="http://www.w3.org/2000/svg">
  <g transform="matrix(1 0 0 1 -3955 -627 )">
    <path d="M 9.573666669921876 0.8996666650390623  L 5.472333330078126 5.001000004882813  L 9.584333325195313 9.112666674804688  C 9.714666655273438 9.2426666796875  9.714666655273438 9.453666669921876  9.584333325195313 9.584000014648437  C 9.453999995117188 9.714333359374997  9.243333330078125 9.714333344726562  9.112999985351564 9.584000014648437  L 5.001000004882813 5.472666669921875  L 0.9060000048828125 9.567666669921875  C 0.7760000000000002 9.697666674804688  0.5656666748046875 9.697666674804688  0.43600000976562514 9.567666669921875  C 0.3063333447265624 9.438000004882813  0.3063333447265624 9.227666665039063  0.43600000976562514 9.098  L 4.531333349609374 5.002666660156249  L 0.41566666015625 0.887  C 0.2853333300781249 0.7566666699218749  0.2853333300781249 0.5456666650390622  0.41566666015625 0.41566666015625  C 0.5456666650390622 0.2853333300781249  0.7566666552734373 0.2853333300781249  0.887 0.41566666015625  L 5.002666660156249 4.5313333203125  L 9.10433333984375 0.42966666992187497  C 9.234000004882812 0.30000000488281264  9.444333344726562 0.30000000488281264  9.573666669921876 0.42966666992187497  C 9.703666674804689 0.5593333349609377  9.703666674804689 0.77  9.573666669921876 0.8996666650390623  Z " fill-rule="nonzero" fill="#7f7f7f" stroke="none" transform="matrix(1 0 0 1 3955 627 )" />
  </g>
</svg>