<?xml version="1.0" encoding="utf-8"?>
<svg version="1.1" xmlns:xlink="http://www.w3.org/1999/xlink" width="8px" height="14px" xmlns="http://www.w3.org/2000/svg">
  <g transform="matrix(1 0 0 1 -1160 -2772 )">
    <path d="M 6.821666666666666 13.8078125  C 7.081666666666666 14.051562500000003  7.504999999999999 14.051562500000003  7.765 13.8078125  C 8.025 13.5640625  8.025 13.168750000000001  7.765 12.9234375  L 1.4466666666666668 7  L 7.7650000000000015 1.0765624999999996  C 8.025000000000002 0.8328124999999997  8.025000000000002 0.43749999999999956  7.7650000000000015 0.19218749999999973  C 7.505000000000001 -0.05312500000000009  7.083333333333335 -0.05156250000000029  6.821666666666668 0.19218749999999973  L 0.37833333333333313 6.2328125  C 0.15333333333333315 6.44375  0.03999999999999962 6.721875  0.03999999999999962 7  C 0.03999999999999962 7.278124999999998  0.15333333333333315 7.55625  0.37833333333333313 7.7671875  L 6.821666666666666 13.8078125  Z " fill-rule="nonzero" fill="#999999" stroke="none" transform="matrix(1 0 0 1 1160 2772 )" />
  </g>
</svg>