<?xml version="1.0" encoding="utf-8"?>
<svg version="1.1" xmlns:xlink="http://www.w3.org/1999/xlink" width="21px" height="16px" xmlns="http://www.w3.org/2000/svg">
  <g transform="matrix(1 0 0 1 -1160 -6859 )">
    <path d="M 20.955255681818183 12.397727272727273  C 20.985085227272727 12.450757575757574  21 12.530303030303028  21 12.636363636363637  C 21 12.84090909090909  20.950284090909093 13.107954545454545  20.850852272727273 13.4375  C 20.751420454545457 13.767045454545455  20.647017045454547 14.02651515151515  20.537642045454547 14.21590909090909  C 20.328835227272727 14.594696969696969  19.72230113636364 14.996212121212121  18.718039772727273 15.420454545454545  C 17.783380681818183 15.806818181818182  16.858664772727273 16  15.943892045454547 16  C 15.675426136363637 16  15.41193181818182 15.986742424242424  15.15340909090909 15.960227272727273  C 14.894886363636365 15.933712121212123  14.609019886363638 15.886363636363637  14.29580965909091 15.818181818181818  C 13.982599431818183 15.75  13.74893465909091 15.695075757575758  13.59481534090909 15.653409090909092  C 13.440696022727275 15.611742424242424  13.164772727272728 15.534090909090908  12.767045454545453 15.420454545454545  C 12.369318181818183 15.306818181818182  12.125710227272728 15.238636363636363  12.03622159090909 15.215909090909092  C 11.061789772727275 14.950757575757576  10.191761363636363 14.636363636363637  9.426136363636363 14.272727272727273  C 8.163352272727273 13.674242424242424  6.8508522727272725 12.856060606060606  5.488636363636363 11.818181818181818  C 4.126420454545455 10.780303030303028  3.052556818181819 9.780303030303031  2.2670454545454546 8.818181818181818  C 1.789772727272727 8.234848484848484  1.3771306818181819 7.5719696969696955  1.0291193181818181 6.829545454545455  C 0.9992897727272727 6.761363636363635  0.9098011363636365 6.575757575757574  0.7606534090909092 6.272727272727273  C 0.6115056818181818 5.969696969696969  0.5095880681818182 5.7594696969696955  0.45490056818181823 5.642045454545455  C 0.4002130681818182 5.524621212121211  0.328125 5.346590909090908  0.23863636363636365 5.107954545454545  C 0.14914772727272727 4.86931818181818  0.08700284090909093 4.6515151515151505  0.052201704545454544 4.454545454545455  C 0.01740056818181818 4.257575757575756  0 4.056818181818182  0 3.8522727272727266  C 0 3.1553030303030294  0.25355113636363635 2.4507575757575744  0.7606534090909092 1.7386363636363633  C 1.317471590909091 0.973484848484846  1.8444602272727273 0.5113636363636367  2.3416193181818183 0.3522727272727266  C 2.5901988636363638 0.2689393939393927  2.930752840909091 0.18939393939393767  3.36328125 0.11363636363636331  C 3.795809659090909 0.03787878787878718  4.146306818181818 0  4.4147727272727275 0  C 4.553977272727273 0  4.6583806818181825 0.011363636363636687  4.727982954545454 0.034090909090908283  C 4.9069602272727275 0.07954545454545503  5.170454545454546 0.3674242424242422  5.518465909090908 0.8977272727272734  C 5.627840909090909 1.0416666666666643  5.776988636363638 1.2462121212121193  5.965909090909092 1.5113636363636367  C 6.154829545454546 1.7765151515151505  6.3288352272727275 2.017045454545455  6.487926136363637 2.232954545454545  C 6.647017045454546 2.4488636363636367  6.801136363636363 2.6515151515151505  6.950284090909092 2.8409090909090917  C 6.980113636363637 2.8712121212121193  7.0671164772727275 2.9659090909090917  7.211292613636363 3.125  C 7.355468750000002 3.2840909090909083  7.462357954545456 3.4185606060606055  7.531960227272727 3.5284090909090917  C 7.6015625 3.6382575757575744  7.636363636363637 3.7462121212121193  7.636363636363637 3.8522727272727266  C 7.636363636363637 4.003787878787877  7.494673295454545 4.193181818181818  7.211292613636363 4.420454545454545  C 6.927911931818182 4.647727272727273  6.619673295454546 4.8560606060606055  6.286576704545455 5.045454545454545  C 5.953480113636364 5.234848484848483  5.645241477272727 5.4356060606060606  5.361860795454545 5.647727272727273  C 5.078480113636363 5.859848484848484  4.9367897727272725 6.034090909090908  4.9367897727272725 6.170454545454545  C 4.9367897727272725 6.238636363636363  4.9616477272727275 6.323863636363637  5.011363636363637 6.426136363636363  C 5.061079545454546 6.528409090909092  5.103338068181818 6.6060606060606055  5.138139204545454 6.659090909090908  C 5.172940340909092 6.712121212121211  5.242542613636363 6.803030303030303  5.346946022727273 6.931818181818182  C 5.451349431818182 7.0606060606060606  5.5085227272727275 7.132575757575758  5.518465909090908 7.147727272727273  C 6.2741477272727275 8.185606060606059  7.139204545454546 9.075757575757574  8.113636363636363 9.818181818181818  C 9.088068181818182 10.560606060606059  10.256392045454547 11.219696969696969  11.618607954545453 11.795454545454547  C 11.638494318181818 11.803030303030301  11.732954545454545 11.84659090909091  11.901988636363637 11.926136363636363  C 12.071022727272728 12.005681818181818  12.19034090909091 12.05871212121212  12.259943181818183 12.085227272727273  C 12.329545454545455 12.111742424242424  12.431463068181817 12.143939393939393  12.565696022727273 12.181818181818182  C 12.699928977272727 12.219696969696969  12.811789772727273 12.238636363636363  12.90127840909091 12.238636363636363  C 13.080255681818183 12.238636363636363  13.308948863636363 12.130681818181818  13.587357954545453 11.914772727272727  C 13.865767045454545 11.698863636363637  14.129261363636367 11.46401515151515  14.37784090909091 11.210227272727273  C 14.626420454545455 10.956439393939391  14.899857954545453 10.72159090909091  15.19815340909091 10.505681818181818  C 15.496448863636363 10.289772727272727  15.745028409090912 10.181818181818182  15.943892045454547 10.181818181818182  C 16.083096590909093 10.181818181818182  16.224786931818183 10.208333333333332  16.368963068181817 10.261363636363637  C 16.513139204545457 10.314393939393938  16.689630681818183 10.395833333333332  16.8984375 10.505681818181818  C 17.107244318181817 10.615530303030301  17.231534090909093 10.681818181818182  17.271306818181817 10.704545454545453  C 17.519886363636363 10.818181818181818  17.785866477272727 10.935606060606059  18.06924715909091 11.056818181818182  C 18.35262784090909 11.178030303030301  18.668323863636363 11.310606060606059  19.016335227272727 11.454545454545453  C 19.364346590909093 11.598484848484848  19.632812500000004 11.712121212121211  19.821732954545453 11.795454545454547  C 20.517755681818183 12.060606060606059  20.89559659090909 12.261363636363637  20.955255681818183 12.397727272727273  Z " fill-rule="nonzero" fill="#e7772d" stroke="none" transform="matrix(1 0 0 1 1160 6859 )" />
  </g>
</svg>