<?xml version="1.0" encoding="utf-8"?>
<svg version="1.1" xmlns:xlink="http://www.w3.org/1999/xlink" width="30px" height="30px" xmlns="http://www.w3.org/2000/svg">
  <g transform="matrix(1 0 0 1 -315 -7187 )">
    <path d="M 26.110819672131143 13.101176466942146  C 26.110819672131143 16.21045993770072  25.03394552513593 19.066147318284965  23.235731890942876 21.309765646239946  L 29.408331731557382 27.53337870867769  C 29.64400988730945 27.789814343264567  29.774950646473208 28.126526626879517  29.774950646473208 28.476133988592842  C 29.774950646473208 29.24216932257717  29.159046428539643 29.86316365801432  28.399290072702726 29.86316365801432  C 28.05254834510182 29.86316365801432  27.718595998237813 29.731140743816134  27.464262295081962 29.493514834710744  L 21.28993075115092 23.27167096154722  C 19.06468459522955 25.084804498510827  16.23235818121807 26.170617396694215  13.148505307377047 26.170617396694215  C 5.989616761210734 26.170617396694215  0.1861909426229543 20.319229381258594  0.1861909426229543 13.101176466942146  C 0.1861909426229543 5.883123552625698  5.989616761210734 0.0317355371900862  13.148505307377047 0.0317355371900862  C 20.30739385354336 0.0317355371900862  26.110819672131143 5.883123552625698  26.110819672131143 13.101176466942146  Z M 13.00751404147517 23.927661663223148  C 13.05451264974597 23.927661663223148  13.101510751456573 23.927350520152604  13.148505307377047 23.926728254132236  C 19.02279195569205 23.848945436451743  23.74433179762271 19.025455075134467  23.74433179762271 13.10210987603306  C 23.74433179762271 7.178764676931662  19.02279195569205 2.355274315614379  13.148505307377047 2.2774914979338856  C 13.101510751456573 2.276869231913518  13.05451264974597 2.2765580888429797  13.00751404147517 2.2765580888429797  C 7.077733333042402 2.2765580888429797  2.2706962853276327 7.1233227154644885  2.2706962853276327 13.10210987603306  C 2.2706962853276327 19.08089703660163  7.077733333042402 23.927661663223148  13.00751404147517 23.927661663223148  Z " fill-rule="nonzero" fill="#333333" stroke="none" transform="matrix(1 0 0 1 315 7187 )" />
  </g>
</svg>