<?xml version="1.0" encoding="utf-8"?>
<svg version="1.1" xmlns:xlink="http://www.w3.org/1999/xlink" width="70px" height="70px" xmlns="http://www.w3.org/2000/svg">
  <g transform="matrix(1 0 0 1 -860 -7317 )">
    <path d="M 40.4699859547244 2.6794804365756875  C 37.21829538385827 0.6561811614047134  32.9746174507874 -0.2871091696135534  29.157966663385828 0.15039048811974823  C 22.558060068897635 0.9022747060623127  17.18446163385827 4.9624768403740065  14.539069931102363 11.196368737976412  L 14.111904852362205 12.207950016186969  L 12.73409092519685 12.60443411732369  C 6.630246978346457 14.395311722822372  2.1248270570866143 19.125366825164722  0.48513334645669287 25.45496177930498  C 0.0028502263779527246 27.327802206981268  -0.13494491141732284 30.335407438126456  0.1957634744094488 32.29027904735528  C 0.7056056496062991 35.36624358506767  2.028301535433071 38.346436706867294  3.9021781102362203 40.62943311066562  L 4.535966998031496 41.408729369594376  L 4.177699557086614 42.74843544237444  C 3.709195964566929 44.566656797843756  3.585249183070866 47.84763089588287  3.91588874015748 49.8025025051117  C 4.935573021653543 55.776628983071184  9.096573927165355 60.9851993681028  14.63552655511811 63.22718021530455  C 17.83209901574803 64.52593902250358  21.24914377952756 64.92235476426538  24.43193664370079 64.37554846602445  L 25.23114869094488 64.23882985289003  L 26.51250599409449 65.44188560355121  C 28.60678597440945 67.39675721278003  31.10067190944882 68.75020351992033  34.00787456692913 69.54310329445948  C 35.799142942913385 70.02161857714873  39.73974044291339 70.15833719028315  41.682514586614175 69.78919683911708  C 45.347521742125984 69.11927544335212  48.46148600393701 67.47878839433257  51.13450572834646 64.8129798327422  C 53.063431446850394 62.88545197348402  54.661717746063 60.411049456609994  55.2542369488189 58.41509386305029  C 55.40581161417323 57.93657858036103  55.502268238188975 57.82720364883786  55.86046678149606 57.74517246728533  C 56.74228702755906 57.56750658856986  58.795228425196846 56.829294245612616  59.73216671259842 56.36451919728361  C 62.21227318897638 55.13411969665178  64.74749770669291 53.00151384933258  66.26317573818898 50.855167767653136  C 67.62721013779527 48.92757154902002  68.75706167322834 46.343862459997744  69.32195299212599 43.814772579901195  C 69.44596867125985 43.28156986563005  69.51486624015747 42.105926155955046  69.51486624015747 40.46543903857612  C 69.51486624015747 38.14135871880629  69.4735276574803 37.813302283611705  69.11526021653543 36.43251236321951  C 68.42635321850393 33.78044396763002  67.32406073818898 31.511051147801457  65.78089261811024 29.583523220183896  L 65.07820609251968 28.70852383635792  L 65.38135549212598 27.505536445071662  C 67.22760411417323 20.478813063945665  64.22394490157481 12.659121548905597  58.12010095472441 8.598919482953278  C 55.98448246062991 7.190785744231073  54.11060588582677 6.411557776317874  51.53404278543306 5.851079671451012  C 49.99087459645669 5.509283070255561  46.64272747047243 5.454595570314289  45.19601597440944 5.7280329333018996  C 44.34168588582677 5.892095296406965  44.300347372047234 5.892095296406965  44.1074340551181 5.61865800177873  C 43.79057402559054 5.126470844104157  41.71007357283464 3.4587084044888883  40.4699859547244 2.6794804365756875  Z M 30.866489045275596 4.675367670760456  C 30.907827627952763 4.661695795775138  31.541616515748036 4.716383295716409  32.28564155511811 4.784742602283623  C 34.02172299212599 4.948804965388688  35.06889736220473 5.222242260016924  36.51560892716535 5.892095296406955  C 37.67295062007874 6.425298010678109  39.40903198818898 7.491566788829935  39.40903198818898 7.669301026920319  C 39.40903198818898 7.723988458502217  36.26757756889764 9.569553563942172  32.42343669291339 11.756846842843276  C 28.565447391732285 13.957811996729697  25.217300265748033 15.912751965333445  24.969337874015753 16.090486271783206  C 23.949653592519688 16.84237048972577  23.9772126476378 16.66470461101031  23.963433051181106 22.761809467743987  C 23.949653523622054 25.769346339514243  23.894535482283466 30.307995328780894  23.85319696850394 32.837153636611745  L 23.770588700787403 37.44416200080499  L 20.835758228346457 35.77633120181479  L 17.90099658464567 34.108500402824596  L 17.9423350984252 24.880743440077875  C 17.997453139763785 14.326952347895785  17.95611462598426 14.76438364625416  19.292590039370086 12.071299762427467  C 21.345600334645674 7.942669962173631  25.272418307086618 5.222242260016925  29.764196564960635 4.784742602283625  C 30.329156781496067 4.7300551707017275  30.82515053149607 4.675367670760456  30.866489045275596 4.675367670760456  Z M 42.64701192913386 11.333019060095292  C 45.113338877952756 10.184719100390932  48.02054146653543 9.870266249166118  50.817576801181104 10.458088035644241  C 55.87424630905512 11.510821657560605  59.92514885826772 15.529939807541416  60.97225439960629 20.574447829467957  C 61.220285688976375 21.736488023532562  61.28918332677165 24.839727883481295  61.082490551181095 25.20886823464738  C 60.9998134547244 25.372930597752447  59.511763375984245 24.56629058885306  53.600832608267716 21.14866610033569  C 46.33957807086614 16.951745352889564  46.215562460629926 16.88338604632235  45.471606318897635 16.88338604632235  C 44.72751238188977 16.88338604632235  44.56215818897638 16.9790891028602  35.96442823818897 21.914222193263573  L 27.21512362204724 26.931386465219475  L 27.17385393700787 23.554709310642505  C 27.160074409448818 21.69547239857661  27.18763346456693 20.137016531109577  27.242751574803144 20.08232903116831  C 27.504562391732282 19.836235486510713  41.6549556003937 11.79786246779923  42.64701192913386 11.333019060095292  Z M 13.753706309055117 35.229456612558316  C 13.974178612204723 35.543909532142514  16.344048868110235 36.96571507749066  22.737262687007874 40.62943311066562  C 27.518341850393703 43.34992917219726  31.41760083661417 45.61925370101027  31.41760083661417 45.66026925760684  C 31.41760083661417 45.7012848825628  31.03177434055118 45.9473784272204  30.549560118110236 46.22081572184863  C 30.081056525590547 46.48058114149155  28.75836063976378 47.23239700005919  27.61472964566929 47.88864652083882  L 25.534229192913383 49.09163391212508  L 18.10768936023622 44.84002573309706  C 14.029296653543305 42.502341897716825  10.21271483267716 40.233017368903816  9.647754616141727 39.79551771117051  C 7.622303375984247 38.25073371868881  5.7622062598425146 35.43460295999425  5.087078789370073 32.878169261567685  C 4.659913779527554 31.224010337562806  4.591016141732278 28.722264139077513  4.9355041240157425 27.068105146713265  C 5.459125757874011 24.53901519825733  6.547569881889759 22.488372173115735  8.32498983267716 20.656479011020473  C 9.52373893700787 19.42614786976358  10.61225195866141 18.646919970209755  12.127861023622044 17.908707558893134  L 13.298982244094484 17.348161094651346  L 13.367879812992122 26.0701273841131  L 13.43677738188976 34.79209360521548  L 13.753706309055113 35.22952497193323  Z M 44.052316013779546 21.052963043797845  C 44.07987506889765 21.052963043797845  47.262668001968514 22.871184399267165  51.14821628937008 25.099493303124216  C 55.03369574803149 27.327802206981268  58.61602580708661 29.405788982093505  59.11208845472441 29.720173542302767  C 62.10203703740158 31.67511351090652  64.18253749015747 34.90140017736374  64.76120833661417 38.469483513375785  C 65.00923962598425 39.94590819929028  64.87144448818897 42.70741988577786  64.48561799212598 44.006110333601974  C 63.865608631889764 46.15245641528142  62.76338498031496 48.03903707731796  61.20643726377953 49.65218037636688  C 59.99390863188977 50.9098552675944  57.88584912401574 52.31792057858231  56.673320561023615 52.687060929748405  L 56.356391633858266 52.78276398628625  L 56.356391633858266 44.293219434856155  C 56.356391633858266 34.846712677422474  56.38395068897637 35.17476911261705  55.41945334645669 34.491312560616635  C 55.116303946850394 34.286234572555614  51.120657303149606 31.94855073717538  46.53242242125985 29.32375780054098  C 41.94418760826772 26.685292920561885  38.182723828740166 24.511671516646096  38.182723828740166 24.470655891690143  C 38.168944301181114 24.415968460108246  43.94207986220473 21.066634918783166  44.052316013779546 21.052963043797845  Z M 34.765679133858264 26.398183750948327  C 34.820797175196844 26.38451187596301  36.57065813976378 27.35521431632684  38.65115852362205 28.530857957642453  L 42.44025025590551 30.690807554932295  L 42.44025025590551 39.44011752600532  L 38.63737899606299 41.60006712329516  L 34.834576702755896 43.77375695494524  L 32.13399799212598 42.22890460308861  C 30.632168385826766 41.3813173286082  28.909866476377946 40.383407925382954  28.27607758858267 40.02793938084282  L 27.1462260531496 39.35801798507786  L 27.17378503937007 35.02444698387223  L 27.21512362204724 30.690807554932306  L 30.935248818897634 28.54452983262778  C 32.988259114173225 27.368817831937232  34.71056102362204 26.398183750948327  34.765679133858264 26.398183750948327  Z M 45.85729501968505 32.700435023477304  C 45.91241306102363 32.714106898462624  47.248888474409455 33.47966299139051  48.8196156496063 34.381937697452834  L 51.67176909448819 36.00875287148707  L 51.67176909448819 44.71704728596351  C 51.67176909448819 54.27286061554544  51.64421003937009 54.71036027327874  50.844998061023624 56.91132542716515  C 50.04592380905512 59.08494689944032  48.32362196850394 61.38168346923951  46.39462728346457 62.83076447354275  C 45.92612369094489 63.186232949723525  44.92035673228347 63.77405480456102  44.162552165354334 64.12945492136686  C 40.58015320866143 65.838301345313  36.611996653543315 65.87931690190958  32.96070012795276 64.25250172787534  C 32.09265940944883 63.85601762673862  30.177444320866147 62.65303023545236  30.17744425196851 62.48896780398792  C 30.17744425196851 62.44795217903196  33.41542419291339 60.56143994472972  37.356021692913394 58.3057189315271  C 41.31039872047244 56.050066277699415  44.74122294291339 54.01309512754313  44.98918540354331 53.78074181724578  C 45.250996220472445 53.52097639760286  45.499027578740154 53.0971485464955  45.595484133858264 52.728008195329416  C 45.705720285433074 52.29057689697104  45.7470587992126 49.24202440024483  45.74705886811024 42.37929509120835  C 45.74705886811024 37.02040250907254  45.80217690944882 32.67309127350667  45.85729501968505 32.700435023477304  Z M 42.4127600984252 46.589887713639804  C 42.426539625984255 48.43545275072039  42.39898057086614 49.99390868654678  42.343862529527556 50.04859611812868  C 42.08205171259842 50.294689662786276  28.193469320866143 58.196344068363324  27.06361778543307 58.72954678263447  C 25.231079724409447 59.60447780708553  23.756809173228344 59.91886229893542  21.566072637795276 59.91886229893542  C 20.20196934055118 59.91886229893542  19.485503287401578 59.850502992368206  18.562344527559056 59.631753129321865  C 13.836383405511812 58.469781294632185  10.253984448818898 55.10677594668116  8.876170521653544 50.48609577586197  C 8.49034402559055 49.20100884364825  8.28365125 46.562543963669164  8.462784970472441 45.34588469739758  L 8.559241594488189 44.71697892658858  L 12.031404399606298 46.71293452014829  C 24.032399517716534 53.575663829184776  23.41232125984252 53.24753910297464  24.17019472440945 53.247539034615265  C 24.831542667322836 53.233867159629945  25.313756889763777 52.987773614972355  33.62211696850394 48.23037476265936  L 42.37142158464567 43.21321049070346  L 42.4127600984252 46.589887713639804  Z " fill-rule="nonzero" fill="#aaaaaa" stroke="none" transform="matrix(1 0 0 1 860 7317 )" />
  </g>
</svg>