<?xml version="1.0" encoding="utf-8"?>
<svg version="1.1" xmlns:xlink="http://www.w3.org/1999/xlink" width="30px" height="30px" xmlns="http://www.w3.org/2000/svg">
  <g transform="matrix(1 0 0 1 -1065 -7318 )">
    <path d="M 1080 7318  C 1088.4 7318  1095 7324.6  1095 7333  C 1095 7341.4  1088.4 7348  1080 7348  C 1071.6 7348  1065 7341.4  1065 7333  C 1065 7324.6  1071.6 7318  1080 7318  Z " fill-rule="nonzero" fill="#ffffff" stroke="none" />
    <path d="M 1080 7318.5  C 1088.12 7318.5  1094.5 7324.88  1094.5 7333  C 1094.5 7341.12  1088.12 7347.5  1080 7347.5  C 1071.88 7347.5  1065.5 7341.12  1065.5 7333  C 1065.5 7324.88  1071.88 7318.5  1080 7318.5  Z " stroke-width="1" stroke="#797979" fill="none" />
  </g>
</svg>