<?xml version="1.0" encoding="utf-8"?>
<svg version="1.1" xmlns:xlink="http://www.w3.org/1999/xlink" width="16px" height="16px" xmlns="http://www.w3.org/2000/svg">
  <g transform="matrix(1 0 0 1 -1072 -7620 )">
    <path d="M 9.769411764705882 4.552941176470588  L 8.407686274509805 0.5974901960784316  C 8.168941176470588 -0.09615686274509797  7.780549019607844 -0.09537254901960765  7.544784313725491 0.5993725490196081  L 6.213333333333333 4.521411764705882  C 5.977568627450981 5.216156862745098  5.2163137254901955 5.977882352941176  4.521568627450981 6.214117647058822  L 0.6287058823529416 7.538039215686274  C -0.06588235294117618 7.77427450980392  -0.06729411764705859 8.164862745098038  0.6255686274509809 8.406117647058823  L 4.495058823529413 9.753254901960783  C 5.187921568627452 9.994509803921567  5.950117647058824 10.759372549019607  6.1888627450980405 11.453176470588234  L 7.53929411764706 15.378823529411763  C 7.7778823529411785 16.07262745098039  8.165176470588237 16.071372549019607  8.399686274509806 15.376156862745097  L 9.718117647058826 11.467607843137253  C 9.952470588235297 10.772392156862743  10.712313725490198 10.009098039215685  11.406431372549022 9.771450980392155  L 15.360313725490201 8.417254901960783  C 16.054431372549022 8.179607843137255  16.053647058823532 7.792784313725489  15.358588235294123 7.5578039215686275  L 11.467294117647059 6.24156862745098  C 10.772235294117648 6.006431372549019  10.008156862745096 5.246588235294118  9.769411764705882 4.552941176470588  Z " fill-rule="nonzero" fill="#aaaaaa" stroke="none" transform="matrix(1 0 0 1 1072 7620 )" />
  </g>
</svg>