<?xml version="1.0" encoding="utf-8"?>
<svg version="1.1" xmlns:xlink="http://www.w3.org/1999/xlink" width="16px" height="16px" xmlns="http://www.w3.org/2000/svg">
  <g transform="matrix(1 0 0 1 -75 -1384 )">
    <path d="M 15.495764508928572 8  C 15.495764508928572 6.988303571428571  15.297516741071428 6.006607142857143  14.906512276785715 5.0821484375  C 14.528950892857143 4.189497767857142  13.988549107142857 3.387918526785714  13.300323660714286 2.6996930803571426  C 12.612098214285714 2.011467633928571  11.810518973214286 1.4710658482142855  10.917851562500001 1.093504464285714  C 9.993392857142856 0.7024832589285711  9.011696428571428 0.5042187499999997  8 0.5042187499999997  C 6.988303571428571 0.5042187499999997  6.006607142857143 0.7024832589285713  5.0821484375 1.0934877232142857  C 4.189497767857142 1.471049107142857  3.387918526785714 2.0114508928571424  2.6996930803571426 2.699676339285714  C 2.011467633928571 3.3879017857142864  1.4710658482142855 4.189481026785714  1.093504464285714 5.082131696428571  C 0.7024832589285711 6.006607142857143  0.5042187499999997 6.988303571428571  0.5042187499999997 8  C 0.5042187499999997 9.011696428571428  0.7024832589285711 9.993392857142856  1.0934877232142852 10.917851562500001  C 1.4710491071428569 11.810502232142857  2.0114508928571424 12.612081473214285  2.699676339285714 13.300323660714286  C 3.387901785714285 13.988549107142857  4.189481026785714 14.528967633928572  5.082131696428571 14.906512276785715  C 6.006590401785715 15.297516741071428  6.988303571428571 15.495781249999999  7.999983258928572 15.495781249999999  C 9.011662946428572 15.495781249999999  9.99337611607143 15.297516741071428  10.917834821428572 14.906512276785715  C 11.81048549107143 14.528950892857143  12.612064732142857 13.988549107142857  13.300306919642859 13.300323660714286  C 13.988549107142857 12.612098214285714  14.528950892857143 11.810518973214286  14.906495535714285 10.917851562500001  C 15.2975 9.993392857142856  15.495764508928572 9.011696428571428  15.495764508928572 8  Z M 14.432790178571427 8  C 14.432790178571427 11.547047991071427  11.547047991071427 14.432790178571427  8 14.432790178571427  C 4.4529520089285715 14.432790178571427  1.5672098214285712 11.547047991071427  1.5672098214285712 7.999999999999999  C 1.5672098214285712 4.452952008928571  4.4529520089285715 1.5672098214285715  8 1.5672098214285715  C 11.547047991071427 1.5672098214285715  14.432790178571427 4.4529520089285715  14.432790178571427 8  Z M 12.285714285714286 8  C 12.285714285714286 7.7041350446428565  12.075848214285715 7.464285714285714  11.816964285714286 7.464285714285714  L 8.535714285714286 7.464285714285714  L 8.535714285714286 4.183035714285714  C 8.535714285714286 3.924151785714286  8.295864955357143 3.7142857142857144  8 3.7142857142857144  C 7.7041350446428565 3.7142857142857144  7.464285714285714 3.924151785714286  7.464285714285714 4.183035714285714  L 7.464285714285714 7.464285714285714  L 4.183035714285714 7.464285714285714  C 3.924151785714286 7.464285714285714  3.7142857142857144 7.7041350446428565  3.7142857142857144 8  C 3.7142857142857144 8.295864955357143  3.924151785714286 8.535714285714286  4.183035714285714 8.535714285714286  L 7.464285714285714 8.535714285714286  L 7.464285714285714 11.816964285714286  C 7.464285714285714 12.075848214285715  7.7041350446428565 12.285714285714286  8 12.285714285714286  C 8.295864955357143 12.285714285714286  8.535714285714286 12.075848214285715  8.535714285714286 11.816964285714286  L 8.535714285714286 8.535714285714286  L 11.816964285714286 8.535714285714286  C 12.075848214285715 8.535714285714286  12.285714285714286 8.295864955357143  12.285714285714286 8  Z " fill-rule="nonzero" fill="#999999" stroke="none" transform="matrix(1 0 0 1 75 1384 )" />
  </g>
</svg>