<?xml version="1.0" encoding="utf-8"?>
<svg version="1.1" xmlns:xlink="http://www.w3.org/1999/xlink" width="31px" height="40px" xmlns="http://www.w3.org/2000/svg">
  <g transform="matrix(1 0 0 1 -60 -340 )">
    <path d="M 21.10994318181819 0.4196428571428574  L 30.586079545454545 10.03125  C 30.850284090909092 10.299107142857142  31 10.660714285714285  31 11.040178571428571  L 31 38.57142857142857  C 31 39.361607142857146  30.3703125 40  29.590909090909093 40  L 1.4090909090909092 40  C 0.6296875000000004 40  0 39.361607142857146  0 38.57142857142857  L 0 1.4285714285714284  C 0 0.638392857142857  0.6296875000000004 0  1.4090909090909092 0  L 20.11036931818182 0  C 20.484659090909094 0  20.84573863636364 0.15178571428571455  21.10994318181819 0.4196428571428574  Z M 19.46306818181818 11.696428571428573  L 27.750284090909094 11.696428571428573  L 19.46306818181818 3.2946428571428577  L 19.46306818181818 11.696428571428573  Z M 13.174383522727272 31.21013392857143  L 15.5 22.41495535714286  L 17.825616477272717 31.21013392857143  C 17.887530720513446 31.444300839824983  18.096843517665807 31.607126776341318  18.33597159090909 31.607142857142854  L 19.735375 31.607142857142854  C 19.974265732413137 31.607147606324283  20.183446605848133 31.444656703099948  20.245598011363636 31.21080357142857  L 23.52063352272727 18.889374999999994  C 23.532708312854297 18.843928321506706  23.53882298092027 18.797066552340635  23.538819602272728 18.749999999999996  C 23.538819602272728 18.454151785714284  23.30222443181818 18.21428571428571  23.010410511363634 18.21428571428571  L 21.44385369318182 18.21428571428571  C 21.19764989875426 18.214277599356897  20.984065683816556 18.386655487041942  20.928874999999994 18.62991071428571  L 18.912553977272726 27.518526785714283  L 16.721417613636362 18.620267857142853  C 16.662688581412954 18.38171850770108  16.45133170008884 18.21432292260378  16.208816761363632 18.214285714285715  L 14.791271306818182 18.21428571428571  C 14.548723532339233 18.214281943450715  14.337319372395006 18.38168621227513  14.278582386363635 18.620267857142856  L 12.091849431818181 27.5009375  L 10.062053977272727 18.628973214285715  C 10.00651317811266 18.386171844023508  9.793141854537748 18.21428072063583  9.547295454545454 18.214285714285715  L 7.989325284090906 18.21428571428571  C 7.943007636276753 18.2142805976125  7.896890359276191 18.220449535169575  7.852159090909088 18.232633928571428  C 7.570340909090907 18.309419642857144  7.403275568181814 18.603303571428572  7.479014204545453 18.889017857142857  L 10.74515482954545 31.21044642857143  C 10.80717301469497 31.444441267346605  11.016386752629767 31.607104143771952  11.255377840909091 31.607142857142854  L 12.66402840909091 31.607142857142854  C 12.90315648233419 31.607126776341318  13.112469279486549 31.444300839824983  13.174383522727272 31.21013392857143  Z " fill-rule="nonzero" fill="#0066ff" stroke="none" transform="matrix(1 0 0 1 60 340 )" />
  </g>
</svg>