<?xml version="1.0" encoding="utf-8"?>
<svg version="1.1" xmlns:xlink="http://www.w3.org/1999/xlink" width="24px" height="10px" preserveAspectRatio="xMinYMid meet" viewBox="1591 1063  24 8" xmlns="http://www.w3.org/2000/svg">
  <path d="M 1552 124  L 1605 124  A 5 5 0 0 1 1610 129 L 1610 1062  A 5 5 0 0 1 1605 1067 L 1593 1067  " stroke-width="2" stroke="#0066ff" fill="none" />
  <path d="M 1553.5 120.5  A 3.5 3.5 0 0 0 1550 124 A 3.5 3.5 0 0 0 1553.5 127.5 A 3.5 3.5 0 0 0 1557 124 A 3.5 3.5 0 0 0 1553.5 120.5 Z M 1600.4 1059  L 1591 1067  L 1600.4 1075  L 1596.8 1067  L 1600.4 1059  Z " fill-rule="nonzero" fill="#0066ff" stroke="none" />
</svg>