<?xml version="1.0" encoding="utf-8"?>
<svg version="1.1" xmlns:xlink="http://www.w3.org/1999/xlink" width="500px" height="80px" xmlns="http://www.w3.org/2000/svg">
  <g transform="matrix(1 0 0 1 -741 -3464 )">
    <path d="M 742 3467  A 2 2 0 0 1 744 3465 L 1238 3465  A 2 2 0 0 1 1240 3467 L 1240 3541  A 2 2 0 0 1 1238 3543 L 744 3543  A 2 2 0 0 1 742 3541 L 742 3467  Z " fill-rule="nonzero" fill="#ffffff" stroke="none" />
    <path d="M 741.5 3467  A 2.5 2.5 0 0 1 744 3464.5 L 1238 3464.5  A 2.5 2.5 0 0 1 1240.5 3467 L 1240.5 3541  A 2.5 2.5 0 0 1 1238 3543.5 L 744 3543.5  A 2.5 2.5 0 0 1 741.5 3541 L 741.5 3467  Z " stroke-width="1" stroke-dasharray="9,4" stroke="#d7d7d7" fill="none" stroke-dashoffset="0.5" />
  </g>
</svg>