<?xml version="1.0" encoding="utf-8"?>
<svg version="1.1" xmlns:xlink="http://www.w3.org/1999/xlink" width="22px" height="22px" preserveAspectRatio="xMinYMid meet" viewBox="2057 503  22 20" xmlns="http://www.w3.org/2000/svg">
  <path d="M 2068.5 512  L 2068.5 525  A 5 5 0 0 0 2073.5 530.5 L 2085 530.5  A 5 5 0 0 1 2090.5 535.5 L 2090.5 542  " stroke-width="3" stroke="#0066ff" fill="none" />
  <path d="M 2068.5 509  A 4 4 0 0 0 2064.5 513 A 4 4 0 0 0 2068.5 517 A 4 4 0 0 0 2072.5 513 A 4 4 0 0 0 2068.5 509 Z M 2080.5 532.9  L 2090.5 545  L 2100.5 532.9  L 2090.5 537.8  L 2080.5 532.9  Z " fill-rule="nonzero" fill="#0066ff" stroke="none" />
</svg>