<?xml version="1.0" encoding="utf-8"?>
<svg version="1.1" xmlns:xlink="http://www.w3.org/1999/xlink" width="5px" height="5px" xmlns="http://www.w3.org/2000/svg">
  <g transform="matrix(1 0 0 1 -550 -3607 )">
    <path d="M 0.6265116276041665 4.9585271354166665  C 0.9437209244791662 4.9585271354166665  1.2029457421874994 4.676356588541666  1.2029457421874994 4.3228682161458325  L 1.2029457421874994 0.6949612369791658  C 1.2029457421874994 0.3414728645833328  0.9437209374999995 0.059302317708332566  0.6265116276041665 0.05930233072916587  C 0.3096124088541667 0.05930233072916587  0.05007751302083345 0.3414728776041661  0.05007751302083345 0.6949612369791658  L 0.05007751302083345 4.3228682161458325  C 0.05007751302083345 4.676356588541666  0.3021705338541669 4.9585271354166665  0.6268217057291665 4.9585271354166665  Z M 2.6438759635416664 4.9585271354166665  C 2.9610852604166666 4.9585271354166665  3.2206201432291666 4.676356588541666  3.22062015625 4.3228682161458325  L 3.22062015625 0.6949612369791658  C 3.22062015625 0.3414728645833328  2.9610852734375 0.059302317708332566  2.6438759635416664 0.05930233072916587  C 2.3269767447916667 0.05930233072916587  2.0674418489583335 0.3414728776041661  2.067441861979167 0.6949612369791658  L 2.067441861979167 4.3228682161458325  C 2.067441861979167 4.676356588541666  2.3269767447916667 4.9585271354166665  2.644186041666667 4.9585271354166665  Z M 3.7967441796875008 4.3228682161458325  C 3.7967441796875008 4.676356588541666  4.0488372005208335 4.9585271354166665  4.373178294270834 4.9585271354166665  C 4.690077513020833 4.9585271354166665  4.949612408854167 4.676356588541666  4.949612408854167 4.3228682161458325  L 4.949612408854167 0.6949612369791658  C 4.949612408854167 0.3414728645833328  4.690077526041667 0.059302317708332566  4.373178294270834 0.05930233072916587  C 4.056279062500001 0.05930234374999917  3.7967441796875008 0.3414728776041661  3.7967441796875008 0.6949612369791658  L 3.7967441796875008 4.3228682161458325  Z " fill-rule="nonzero" fill="#999999" stroke="none" transform="matrix(1 0 0 1 550 3607 )" />
  </g>
</svg>