<?xml version="1.0" encoding="utf-8"?>
<svg version="1.1" xmlns:xlink="http://www.w3.org/1999/xlink" width="22px" height="22px" preserveAspectRatio="xMinYMid meet" viewBox="2373 4647  22 20" xmlns="http://www.w3.org/2000/svg">
  <path d="M 2383 4657.5  L 3347 4657.5  A 5 5 0 0 1 3352.5 4662.5 L 3352.5 4998  A 5 5 0 0 0 3357.5 5003.5 L 3399 5003.5  " stroke-width="3" stroke="#0066ff" fill="none" />
  <path d="M 2384 4653.5  A 4 4 0 0 0 2380 4657.5 A 4 4 0 0 0 2384 4661.5 A 4 4 0 0 0 2388 4657.5 A 4 4 0 0 0 2384 4653.5 Z M 3389.9 5013.5  L 3402 5003.5  L 3389.9 4993.5  L 3394.8 5003.5  L 3389.9 5013.5  Z " fill-rule="nonzero" fill="#0066ff" stroke="none" />
</svg>