<?xml version="1.0" encoding="utf-8"?>
<svg version="1.1" xmlns:xlink="http://www.w3.org/1999/xlink" width="102px" height="12px" preserveAspectRatio="xMinYMid meet" viewBox="4959 3677  102 10" xmlns="http://www.w3.org/2000/svg">
  <path d="M 4872 3475.5  L 4960 3475.5  A 5 5 0 0 1 4965.5 3480.5 L 4965.5 3677  A 5 5 0 0 0 4970.5 3682.5 L 5058 3682.5  " stroke-width="3" stroke="#0066ff" fill="none" />
  <path d="M 4873 3471.5  A 4 4 0 0 0 4869 3475.5 A 4 4 0 0 0 4873 3479.5 A 4 4 0 0 0 4877 3475.5 A 4 4 0 0 0 4873 3471.5 Z M 5048.9 3692.5  L 5061 3682.5  L 5048.9 3672.5  L 5053.8 3682.5  L 5048.9 3692.5  Z " fill-rule="nonzero" fill="#0066ff" stroke="none" />
</svg>