<?xml version="1.0" encoding="utf-8"?>
<svg version="1.1" xmlns:xlink="http://www.w3.org/1999/xlink" width="34px" height="34px" preserveAspectRatio="xMinYMid meet" viewBox="902 660  34 32" xmlns="http://www.w3.org/2000/svg">
  <path d="M 589 600  L 589 632  A 5 5 0 0 0 594 637 L 914 637  A 5 5 0 0 1 919 642 L 919 676  " stroke-width="2" stroke="#e7772d" fill="none" />
  <path d="M 589 598  A 3.5 3.5 0 0 0 585.5 601.5 A 3.5 3.5 0 0 0 589 605 A 3.5 3.5 0 0 0 592.5 601.5 A 3.5 3.5 0 0 0 589 598 Z M 911 668.6  L 919 678  L 927 668.6  L 919 672.2  L 911 668.6  Z " fill-rule="nonzero" fill="#e7772d" stroke="none" />
</svg>