<?xml version="1.0" encoding="utf-8"?>
<svg version="1.1" xmlns:xlink="http://www.w3.org/1999/xlink" width="340px" height="10px" preserveAspectRatio="xMinYMid meet" viewBox="1574 633  340 8" xmlns="http://www.w3.org/2000/svg">
  <path d="M 1579 600  L 1579 632  A 5 5 0 0 0 1584 637 L 1904 637  A 5 5 0 0 1 1909 642 L 1909 676  " stroke-width="2" stroke="#e7772d" fill="none" />
  <path d="M 1579 598  A 3.5 3.5 0 0 0 1575.5 601.5 A 3.5 3.5 0 0 0 1579 605 A 3.5 3.5 0 0 0 1582.5 601.5 A 3.5 3.5 0 0 0 1579 598 Z M 1901 668.6  L 1909 678  L 1917 668.6  L 1909 672.2  L 1901 668.6  Z " fill-rule="nonzero" fill="#e7772d" stroke="none" />
</svg>