<?xml version="1.0" encoding="utf-8"?>
<svg version="1.1" xmlns:xlink="http://www.w3.org/1999/xlink" width="10px" height="614px" preserveAspectRatio="xMidYMin meet" viewBox="2235 408  8 614" xmlns="http://www.w3.org/2000/svg">
  <path d="M 2239 410  L 2239 1012  A 5 5 0 0 1 2234 1017 L 1253 1017  A 5 5 0 0 0 1248 1022 L 1248 1057  " stroke-width="2" stroke="#e7772d" fill="none" />
  <path d="M 2239 408  A 3.5 3.5 0 0 0 2235.5 411.5 A 3.5 3.5 0 0 0 2239 415 A 3.5 3.5 0 0 0 2242.5 411.5 A 3.5 3.5 0 0 0 2239 408 Z M 1240 1049.6  L 1248 1059  L 1256 1049.6  L 1248 1053.2  L 1240 1049.6  Z " fill-rule="nonzero" fill="#e7772d" stroke="none" />
</svg>