<?xml version="1.0" encoding="utf-8"?>
<svg version="1.1" xmlns:xlink="http://www.w3.org/1999/xlink" width="670px" height="10px" preserveAspectRatio="xMinYMid meet" viewBox="584 233  670 8" xmlns="http://www.w3.org/2000/svg">
  <path d="M 1249 202  L 1249 232  A 5 5 0 0 1 1244 237 L 594 237  A 5 5 0 0 0 589 242 L 589 275  " stroke-width="2" stroke="#e7772d" fill="none" />
  <path d="M 1249 200  A 3.5 3.5 0 0 0 1245.5 203.5 A 3.5 3.5 0 0 0 1249 207 A 3.5 3.5 0 0 0 1252.5 203.5 A 3.5 3.5 0 0 0 1249 200 Z M 581 267.6  L 589 277  L 597 267.6  L 589 271.2  L 581 267.6  Z " fill-rule="nonzero" fill="#e7772d" stroke="none" />
</svg>