<?xml version="1.0" encoding="utf-8"?>
<svg version="1.1" xmlns:xlink="http://www.w3.org/1999/xlink" width="34px" height="34px" preserveAspectRatio="xMinYMid meet" viewBox="1562 259  34 32" xmlns="http://www.w3.org/2000/svg">
  <path d="M 1249 202  L 1249 232  A 5 5 0 0 0 1254 237 L 1574 237  A 5 5 0 0 1 1579 242 L 1579 275  " stroke-width="2" stroke="#e7772d" fill="none" />
  <path d="M 1249 200  A 3.5 3.5 0 0 0 1245.5 203.5 A 3.5 3.5 0 0 0 1249 207 A 3.5 3.5 0 0 0 1252.5 203.5 A 3.5 3.5 0 0 0 1249 200 Z M 1571 267.6  L 1579 277  L 1587 267.6  L 1579 271.2  L 1571 267.6  Z " fill-rule="nonzero" fill="#e7772d" stroke="none" />
</svg>