<?xml version="1.0" encoding="utf-8"?>
<svg version="1.1" xmlns:xlink="http://www.w3.org/1999/xlink" width="10px" height="45px" preserveAspectRatio="xMidYMin meet" viewBox="1245 979  8 45" xmlns="http://www.w3.org/2000/svg">
  <path d="M 1249 981  L 1249 1018.5  A 0.5 0.5 0 0 1 1248.5 1019 A 0.5 0.5 0 0 0 1248 1019.5 L 1248 1057  " stroke-width="2" stroke="#e7772d" fill="none" />
  <path d="M 1249 979  A 3.5 3.5 0 0 0 1245.5 982.5 A 3.5 3.5 0 0 0 1249 986 A 3.5 3.5 0 0 0 1252.5 982.5 A 3.5 3.5 0 0 0 1249 979 Z M 1240 1049.6  L 1248 1059  L 1256 1049.6  L 1248 1053.2  L 1240 1049.6  Z " fill-rule="nonzero" fill="#e7772d" stroke="none" />
</svg>