<?xml version="1.0" encoding="utf-8"?>
<svg version="1.1" xmlns:xlink="http://www.w3.org/1999/xlink" width="10px" height="43px" preserveAspectRatio="xMidYMin meet" viewBox="1575 979  8 43" xmlns="http://www.w3.org/2000/svg">
  <path d="M 1579 981  L 1579 1012  A 5 5 0 0 1 1574 1017 L 1253 1017  A 5 5 0 0 0 1248 1022 L 1248 1057  " stroke-width="2" stroke="#e7772d" fill="none" />
  <path d="M 1579 979  A 3.5 3.5 0 0 0 1575.5 982.5 A 3.5 3.5 0 0 0 1579 986 A 3.5 3.5 0 0 0 1582.5 982.5 A 3.5 3.5 0 0 0 1579 979 Z M 1240 1049.6  L 1248 1059  L 1256 1049.6  L 1248 1053.2  L 1240 1049.6  Z " fill-rule="nonzero" fill="#e7772d" stroke="none" />
</svg>