<?xml version="1.0" encoding="utf-8"?>
<svg version="1.1" xmlns:xlink="http://www.w3.org/1999/xlink" width="20px" height="21px" preserveAspectRatio="xMidYMin meet" viewBox="580 591  18 21" xmlns="http://www.w3.org/2000/svg">
  <path d="M 589 600  L 589 632  A 5 5 0 0 1 584 637 L 264 637  A 5 5 0 0 0 259 642 L 259 676  " stroke-width="2" stroke="#e7772d" fill="none" />
  <path d="M 589 598  A 3.5 3.5 0 0 0 585.5 601.5 A 3.5 3.5 0 0 0 589 605 A 3.5 3.5 0 0 0 592.5 601.5 A 3.5 3.5 0 0 0 589 598 Z M 251 668.6  L 259 678  L 267 668.6  L 259 672.2  L 251 668.6  Z " fill-rule="nonzero" fill="#e7772d" stroke="none" />
</svg>