<?xml version="1.0" encoding="utf-8"?>
<svg version="1.1" xmlns:xlink="http://www.w3.org/1999/xlink" width="7px" height="10px" xmlns="http://www.w3.org/2000/svg">
  <g transform="matrix(1 0 0 1 -1528 -212 )">
    <path d="M 5.968958333333333 9.862723214285715  C 6.196458333333333 10.036830357142858  6.566875 10.036830357142858  6.794375 9.862723214285715  C 7.0218750000000005 9.688616071428571  7.0218750000000005 9.40625  6.794375 9.231026785714286  L 1.2658333333333334 5  L 6.794375000000001 0.7689732142857141  C 7.021875000000001 0.5948660714285713  7.021875000000001 0.31249999999999967  6.794375000000001 0.13727678571428553  C 6.5668750000000005 -0.03794642857142864  6.197916666666668 -0.03683035714285735  5.968958333333335 0.13727678571428553  L 0.3310416666666665 4.452008928571428  C 0.13416666666666652 4.602678571428571  0.03499999999999967 4.801339285714286  0.03499999999999967 5  C 0.03499999999999967 5.1986607142857135  0.13416666666666652 5.397321428571429  0.3310416666666665 5.547991071428572  L 5.968958333333333 9.862723214285715  Z " fill-rule="nonzero" fill="#999999" stroke="none" transform="matrix(1 0 0 1 1528 212 )" />
  </g>
</svg>