<?xml version="1.0" encoding="utf-8"?>
<svg version="1.1" xmlns:xlink="http://www.w3.org/1999/xlink" width="14px" height="14px" xmlns="http://www.w3.org/2000/svg">
  <g transform="matrix(1 0 0 1 -4105 -2375 )">
    <path d="M 6.568914953124998 5.200391013671875  C 6.56891494557423 5.956205912082565  5.956205912082563 6.568914945574232  5.200391013671874 6.568914953125  L 1.3685239531249995 6.568914953125  C 0.6127090493751103 6.568914953125  0 5.956205917421764  0 5.200391013671875  L 0 1.368523953125  C 0 0.6127090440359109  0.6127090440359108 0  1.3685239531249995 0  L 5.200391013671874 0  C 5.956205917421762 0  6.568914953124998 0.6127090493751104  6.568914953124999 1.368523953125  L 6.568914953124998 5.200391013671875  Z M 5.200391013671874 1.094819154296875  L 1.3685239531249995 1.094819154296875  C 1.2173609606556142 1.0948191542968746  1.0948191542968746 1.2173609606556144  1.0948191542968746 1.3685239394531248  L 1.0948191542968748 5.200391013671875  C 1.0948191542968748 5.351553992469386  1.2173609606556144 5.474095798828125  1.3685239394531246 5.474095798828125  L 5.200391013671874 5.474095798828125  C 5.351553992469384 5.474095798828125  5.474095798828124 5.351553992469386  5.474095798828124 5.200391013671875  L 5.474095798828124 1.368523953125  C 5.474095798828124 1.2173609606556144  5.351553992469384 1.094819154296875  5.200391013671874 1.094819154296875  Z M 6.568914953124998 12.631476046875003  C 6.568914953124997 13.387290950624891  5.956205917421762 13.999999992449231  5.200391013671874 14  L 1.3685239531249995 14  C 0.6127090440359108 14  0 13.387290955964088  0 12.631476046875  L 0 8.799608986328126  C 0 8.043794082578238  0.6127090493751103 7.431085046875  1.3685239531249995 7.431085046875  L 5.200391013671874 7.431085046875  C 5.956205912082566 7.431085054425768  6.56891494557423 8.043794087917435  6.568914953124999 8.799608986328126  L 6.568914953124998 12.631476046875003  Z M 5.200391013671874 8.525904201171876  L 1.3685239531249995 8.525904201171876  C 1.2173609606556144 8.525904201171876  1.0948191542968748 8.648446007530616  1.0948191542968748 8.799608986328126  L 1.0948191542968748 12.631476046875  C 1.0948191542968746 12.782639039344389  1.2173609606556142 12.905180845703129  1.3685239394531243 12.905180845703129  L 5.200391013671874 12.905180845703127  C 5.351553992469384 12.905180845703129  5.474095798828124 12.782639039344389  5.474095798828124 12.631476060546877  L 5.474095798828124 8.799608986328126  C 5.474095798828124 8.648446007530616  5.351553992469384 8.525904201171876  5.200391013671874 8.525904201171876  Z M 13.999913489218413 1.8885630517578131  C 13.999913489218413 2.19085523289462  13.754882593377467 2.4359248556599966  13.452590416015623 2.43597262890625  L 8.51221896875 2.4359726289062507  C 8.209926791388156 2.4359248556599966  7.964895895547211 2.19085523289462  7.964895895547211 1.8885630517578131  C 7.964895895547211 1.5862708706210067  8.209926791388156 1.341201247855629  8.512218968749998 1.3411534746093752  L 13.452590416015624 1.3411534746093752  C 13.754882593377467 1.341201247855629  13.999913489218413 1.5862708706210062  13.999913489218413 1.8885630517578131  Z M 13.452590416015623 5.2277614921875  L 8.51221896875 5.2277614921875  C 8.209893026675799 5.2277614921875  7.964809407837214 4.982677873348914  7.964809407837214 4.680351908203125  C 7.964809407837214 4.378025943057335  8.209893026675799 4.1329423242187495  8.512218991821587 4.1329423242187495  L 13.452590416015624 4.13294232421875  C 13.754916381161413 4.13294232421875  14 4.378025943057336  14 4.680351908203126  C 14 4.982677873348915  13.754916381161413 5.2277614921875015  13.452590416015624 5.2277614921875015  Z M 13.99991348922072 9.333333331054689  C 13.99991348922072 9.635625512192396  13.75488259337837 9.880695134958147  13.452590416015623 9.880742908203125  L 8.51221896875 9.880742908203127  C 8.209926791387254 9.880695134958147  7.9648958955449025 9.635625512192396  7.9648958955449025 9.333333331054689  C 7.9648958955449025 9.031041149916982  8.209926791387254 8.78597152715123  8.512218968749998 8.78592375390625  L 13.452590416015624 8.785923753906252  C 13.75488259337837 8.78597152715123  13.99991348922072 9.031041149916982  13.99991348922072 9.333333331054689  Z M 13.452590416015623 12.672531771484374  L 8.51221896875 12.672531771484376  C 8.209893003604211 12.672531771484376  7.9648093847656245 12.42744815264579  7.9648093847656245 12.1251221875  C 7.9648093847656245 11.82279622235421  8.209893003604211 11.577712603515625  8.51221896875 11.577712603515625  L 13.452590416015624 11.577712603515625  C 13.754916381161413 11.577712603515625  14 11.82279622235421  14 12.1251221875  C 14 12.42744815264579  13.754916381161413 12.672531771484376  13.452590416015624 12.672531771484376  Z " fill-rule="nonzero" fill="#999999" stroke="none" transform="matrix(1 0 0 1 4105 2375 )" />
  </g>
</svg>