<?xml version="1.0" encoding="utf-8"?>
<svg version="1.1" xmlns:xlink="http://www.w3.org/1999/xlink" width="18px" height="16px" xmlns="http://www.w3.org/2000/svg">
  <g transform="matrix(1 0 0 1 -3501 -2663 )">
    <path d="M 0.6428571428571428 4.151172413793103  L 3.9426428571428564 4.151172413793104  L 8.046642857142857 0.3817931034482766  C 8.160764735586522 0.2769612079532191  8.302728137704218 0.2198238486693934  8.449071438636427 0.2198238486693934  C 8.804111634956223 0.2198238486693934  9.09192858149357 0.5491775959203041  9.09192858149357 0.9554560325774394  C 9.09192858149357 0.9554994240198538  9.091928578138573 0.9555428154548178  9 0.9555862068965526  L 9 14.988505747126437  C 9.091777984182396 15.394662267724376  8.804005174209589 15.723825825340981  8.44907148642983 15.723825825340981  C 8.303293117781454 15.723825825340981  8.161843326538571 15.667128072516737  8.04792857142857 15.56303448275862  L 3.8307857142857142 11.71126436781609  L 0.6428571428571428 11.71126436781609  C 0.28781694653734724 11.71126436781609  0 11.38191062056518  0 10.975632183908045  L 0 4.886804597701149  C 0 4.480526161044013  0.28781694653734724 4.151172413793103  0.6428571428571428 4.151172413793103  Z M 13.867071428571428 7.934528735632185  C 13.868825044057647 9.655429063868326  13.264173979722228 11.304455841185344  12.189857142857141 12.508689655172414  C 12.07030239623551 12.639099212397278  11.911470175886116 12.711847713507375  11.746300987131287 12.711847713507375  C 11.39126079081149 12.711847713507375  11.103443844274144 12.382493966256465  11.103443844274144 11.97621552959933  C 11.103443844274144 11.782529368352428  11.170196618489936 11.596657990931472  11.289214285714282 11.458942528735633  C 12.117272369938162 10.531315997747713  12.583165088148343 9.260559662184978  12.58135714285714 7.934528735632185  C 12.583319972376854 6.706370302406806  12.183612260557235 5.521821541705344  11.460857142857142 4.613885057471266  C 11.350104141890753 4.47774364886048  11.288530561282347 4.298646888209568  11.288530561282347 4.112645203801318  C 11.288530561282347 3.706366767144182  11.576347507819696 3.3770130198932713  11.931387704139492 3.3770130198932713  C 12.115232856154162 3.3770130198932713  12.290281094000315 3.467084337871672  12.412285714285716 3.6244597701149424  C 13.350108904325104 4.803164116638266  13.868998372088601 6.340469143474665  13.867071428571428 7.934528735632185  Z M 18 7.934528735632185  C 18 10.873379310344829  17.000357142857144 13.633471264367817  15.246000000000002 15.6983908045977  C 15.124669191315572 15.844132159237256  14.956449270706662 15.926614594484723  14.780545898157888 15.926614594484723  C 14.425505701838091 15.926614594484723  14.137688755300745 15.597260847233812  14.137688755300745 15.190982410576678  C 14.137688755300745 14.996911196541527  14.204706480099825 14.810702394855186  14.324142857142858 14.672919540229886  C 15.859681717393748 12.870453837215928  16.717607625372548 10.451753200944738  16.714285714285715 7.934528735632185  C 16.714285714285715 5.435586206896552  15.88307142857143 3.08744827586207  14.41542857142857 1.3050114942528743  C 14.305910930254925 1.1691460962170521  14.245103378317877 0.9910815248473827  14.245103378317877 0.8062431416622389  C 14.245103378317877 0.39996470500510367  14.532920324855223 0.07061095775419295  14.88796052117502 0.07061095775419295  C 15.062866255893326 0.07061095775419295  15.230221211149727 0.152163327689222  15.351428571428572 0.2964597701149429  C 17.042142857142856 2.3488735632183917  18 5.056000000000001  18 7.934528735632185  Z " fill-rule="nonzero" fill="#ffffff" stroke="none" transform="matrix(1 0 0 1 3501 2663 )" />
  </g>
</svg>