<?xml version="1.0" encoding="utf-8"?>
<svg version="1.1" xmlns:xlink="http://www.w3.org/1999/xlink" width="11px" height="11px" xmlns="http://www.w3.org/2000/svg">
  <g transform="matrix(1 0 0 1 -3557 -2665 )">
    <path d="M 3.0788860759493675 0  L 0.5569620253164557 0  C 0.24936039249930503 0  0 0.24023745131030608  0 0.5365853658536586  L 0 2.8487317073170737  C 0 3.1450796218604262  0.24936039249930503 3.3853170731707323  0.5569620253164557 3.3853170731707323  C 0.8645636581336064 3.3853170731707323  1.1139240506329113 3.1450796218604262  1.1139240506329113 2.8487317073170737  L 1.1139240506329113 1.0731707317073171  L 3.0788860759493675 1.0731707317073171  C 3.386487708766518 1.0731707317073171  3.635848101265823 0.832933280397011  3.635848101265823 0.5365853658536586  C 3.635848101265823 0.24023745131030608  3.386487708766518 0  3.0788860759493675 0  Z M 10.875797468354431 0.5365853658536586  C 10.875797468354431 0.24023745131030608  10.626437075855126 0  10.318835443037976 0  L 7.7974683544303796 0  C 7.489866721613229 0  7.240506329113924 0.24023745131030608  7.240506329113924 0.5365853658536586  C 7.240506329113924 0.832933280397011  7.489866721613229 1.0731707317073171  7.7974683544303796 1.0731707317073171  L 9.76187341772152 1.0731707317073171  L 9.76187341772152 2.8487317073170737  C 9.76187341772152 3.1450796218604262  10.011233810220824 3.3853170731707323  10.318835443037976 3.3853170731707323  C 10.626437075855126 3.3853170731707323  10.875797468354431 3.1450796218604262  10.875797468354431 2.8487317073170737  L 10.875797468354431 0.5365853658536586  Z M 3.0788860759493675 9.824878048780487  L 1.1139240506329113 9.824878048780487  L 1.1139240506329113 8.048780487804878  C 1.1139240506329113 7.752432573261525  0.8645636581336064 7.51219512195122  0.5569620253164557 7.51219512195122  C 0.24936039249930503 7.51219512195122  0 7.752432573261525  0 8.048780487804878  L 0 10.361463414634146  C 0 10.657811329177498  0.24936039249930503 10.898048780487805  0.5569620253164557 10.898048780487805  L 3.078886075949366 10.898048780487805  C 3.386487708766517 10.898048780487805  3.6358481012658217 10.657811329177498  3.6358481012658217 10.361463414634146  C 3.6358481012658217 10.065115500090792  3.386487708766517 9.824878048780487  3.078886075949366 9.824878048780487  Z M 10.875797468354431 8.048780487804878  C 10.875797468354431 7.752432573261525  10.626437075855126 7.51219512195122  10.318835443037976 7.51219512195122  C 10.011233810220824 7.51219512195122  9.76187341772152 7.752432573261525  9.76187341772152 8.048780487804878  L 9.76187341772152 9.824878048780487  L 7.7974683544303796 9.824878048780487  C 7.489866721613229 9.824878048780487  7.240506329113924 10.065115500090792  7.240506329113924 10.361463414634146  C 7.240506329113924 10.657811329177498  7.489866721613229 10.898048780487805  7.7974683544303796 10.898048780487805  L 10.318835443037976 10.898048780487805  C 10.626437075855126 10.898048780487805  10.875797468354431 10.657811329177498  10.875797468354431 10.361463414634146  L 10.875797468354431 8.048780487804878  Z " fill-rule="nonzero" fill="#ffffff" stroke="none" transform="matrix(1 0 0 1 3557 2665 )" />
  </g>
</svg>