<?xml version="1.0" encoding="utf-8"?>
<svg version="1.1" xmlns:xlink="http://www.w3.org/1999/xlink" width="30px" height="30px" xmlns="http://www.w3.org/2000/svg">
  <g transform="matrix(1 0 0 1 -4254 -2412 )">
    <path d="M 7.470703125 2.011718749999999  C 9.768880208333334 0.6705729166666641  12.278645833333334 0  15 0  C 17.721354166666668 0  20.23111979166667 0.6705729166666641  22.529296875 2.011718749999999  C 24.827473958333332 3.3528645833333304  26.64713541666667 5.172526041666666  27.98828125 7.470703125  C 29.32942708333333 9.76888020833333  30 12.278645833333329  30 15  C 30 17.721354166666668  29.32942708333333 20.231119791666664  27.98828125 22.529296875  C 26.64713541666667 24.827473958333332  24.827473958333332 26.647135416666668  22.529296875 27.98828125  C 20.23111979166667 29.329427083333336  17.721354166666668 30  15 30  C 12.278645833333334 30  9.768880208333334 29.329427083333336  7.470703125 27.98828125  C 5.172526041666667 26.647135416666668  3.352864583333334 24.827473958333332  2.01171875 22.529296875  C 0.6705729166666665 20.231119791666664  0 17.721354166666668  0 15  C 0 12.278645833333329  0.6705729166666665 9.76888020833333  2.01171875 7.470703125  C 3.352864583333334 5.172526041666666  5.172526041666667 3.3528645833333304  7.470703125 2.011718749999999  Z M 11.875 22.32421875  L 22.5 16.074218750000004  C 22.916666666666668 15.839843750000002  23.125 15.48177083333333  23.125 15  C 23.125 14.518229166666666  22.916666666666668 14.160156250000002  22.5 13.925781250000002  L 11.875 7.67578125  C 11.471354166666668 7.428385416666666  11.0546875 7.421875000000001  10.625 7.656250000000001  C 10.208333333333336 7.903645833333331  10 8.268229166666664  10 8.749999999999998  L 10 21.249999999999996  C 10 21.73177083333333  10.208333333333336 22.096354166666664  10.625 22.343750000000004  C 10.833333333333336 22.447916666666664  11.041666666666668 22.5  11.25 22.5  C 11.471354166666668 22.5  11.6796875 22.44140625  11.875 22.32421875  Z " fill-rule="nonzero" fill="#000000" stroke="none" transform="matrix(1 0 0 1 4254 2412 )" />
  </g>
</svg>