<?xml version="1.0" encoding="utf-8"?>
<svg version="1.1" xmlns:xlink="http://www.w3.org/1999/xlink" width="16px" height="16px" xmlns="http://www.w3.org/2000/svg">
  <g transform="matrix(1 0 0 1 -3606 -2663 )">
    <path d="M 16 8  C 16 8.2  16 8.4  15.96 8.6  C 15.680000000000001 12.48  12.600000000000001 15.6  8.760000000000002 15.96  C 8.560000000000002 16  8.320000000000002 16  8.120000000000001 16  L 8 16  C 7.48 16  6.96 15.96  6.4399999999999995 15.84  L 6.6 15.04  L 6.76 14.239999999999998  C 7.16 14.319999999999999  7.6 14.359999999999998  8 14.359999999999998  L 8.16 14.359999999999998  C 11.56 14.279999999999998  14.280000000000001 11.559999999999999  14.4 8.159999999999997  L 14.4 7.959999999999996  L 14.4 7.799999999999996  C 14.32 4.36  11.48 1.6  8 1.6  C 7.56 1.6  7.16 1.6400000000000001  6.76 1.7200000000000002  L 6.6 0.9200000000000002  L 6.4399999999999995 0.1200000000000001  C 6.96 0.04  7.48 0  8 0  C 12.2 0  15.68 3.24  15.96 7.4  C 15.96 7.6000000000000005  16 7.800000000000001  16 8  Z M 4.44 2.6800000000000006  L 4 2  L 3.56 1.36  C 2.68 1.92  1.92 2.68  1.36 3.56  L 2 4  L 2.68 4.44  C 3.16 3.7600000000000002  3.7600000000000002 3.12  4.44 2.6800000000000006  Z M 0.1200000000000001 9.56  C 0.04 9.04  0 8.52  0 8  C 0 7.48  0.04 6.96  0.16 6.4399999999999995  L 0.9600000000000001 6.6  L 1.7600000000000002 6.76  C 1.6400000000000001 7.16  1.6000000000000003 7.56  1.6000000000000003 8  C 1.6000000000000003 8.440000000000001  1.6400000000000003 8.84  1.7200000000000002 9.24  L 0.9200000000000002 9.4  L 0.1200000000000001 9.56  Z M 2.6800000000000006 11.56  L 2 12  L 1.3199999999999998 12.44  C 1.92 13.32  2.6399999999999997 14.08  3.52 14.64  L 4 14  L 4.44 13.32  C 3.7600000000000002 12.84  3.12 12.24  2.6800000000000006 11.56  Z M 5.959999999999998 5.76  C 5.999999999999998 5.319999999999999  6.3599999999999985 4.96  6.8 4.96  C 6.92 4.96  7.08 5  7.2 5.08  L 10.52 6.96  C 10.92 7.16  11.04 7.68  10.799999999999999 8.04  C 10.76 8.12  10.68 8.239999999999998  10.559999999999999 8.28  L 7.239999999999998 10.639999999999999  C 6.879999999999998 10.879999999999999  6.399999999999999 10.799999999999999  6.119999999999998 10.44  C 6.039999999999998 10.32  5.959999999999998 10.16  5.959999999999998 9.959999999999999  L 5.959999999999998 5.76  Z " fill-rule="nonzero" fill="#ffffff" stroke="none" transform="matrix(1 0 0 1 3606 2663 )" />
  </g>
</svg>