<?xml version="1.0" encoding="utf-8"?>
<svg version="1.1" xmlns:xlink="http://www.w3.org/1999/xlink" width="20px" height="20px" xmlns="http://www.w3.org/2000/svg">
  <g transform="matrix(1 0 0 1 -9711 -208 )">
    <path d="M 4.98046875 1.3411458333333326  C 6.512586805555555 0.4470486111111094  8.18576388888889 0  10 0  C 11.81423611111111 0  13.487413194444446 0.4470486111111094  15.01953125 1.3411458333333326  C 16.551649305555557 2.2352430555555536  17.764756944444446 3.448350694444444  18.658854166666668 4.98046875  C 19.552951388888886 6.512586805555554  20 8.185763888888886  20 10  C 20 11.81423611111111  19.552951388888886 13.487413194444443  18.658854166666668 15.01953125  C 17.764756944444446 16.551649305555557  16.551649305555557 17.764756944444443  15.01953125 18.658854166666668  C 13.487413194444446 19.55295138888889  11.81423611111111 20  10 20  C 8.18576388888889 20  6.512586805555555 19.55295138888889  4.98046875 18.658854166666668  C 3.4483506944444446 17.764756944444443  2.235243055555556 16.551649305555557  1.3411458333333335 15.01953125  C 0.44704861111111105 13.487413194444443  0 11.81423611111111  0 10  C 0 8.185763888888886  0.44704861111111105 6.512586805555554  1.3411458333333335 4.98046875  C 2.235243055555556 3.448350694444444  3.4483506944444446 2.2352430555555536  4.98046875 1.3411458333333326  Z M 7.916666666666666 14.8828125  L 15 10.716145833333336  C 15.277777777777779 10.559895833333336  15.416666666666668 10.321180555555554  15.416666666666668 10  C 15.416666666666668 9.678819444444445  15.277777777777779 9.440104166666668  15 9.283854166666668  L 7.916666666666666 5.1171875  C 7.6475694444444455 4.952256944444445  7.369791666666666 4.947916666666668  7.083333333333334 5.104166666666668  C 6.805555555555557 5.269097222222221  6.666666666666666 5.512152777777777  6.666666666666666 5.833333333333332  L 6.666666666666666 14.166666666666664  C 6.666666666666666 14.487847222222218  6.805555555555557 14.730902777777777  7.083333333333334 14.895833333333336  C 7.222222222222223 14.965277777777777  7.361111111111112 15  7.5 15  C 7.6475694444444455 15  7.786458333333334 14.9609375  7.916666666666666 14.8828125  Z " fill-rule="nonzero" fill="#000000" stroke="none" transform="matrix(1 0 0 1 9711 208 )" />
  </g>
</svg>