<?xml version="1.0" encoding="utf-8"?>
<svg version="1.1" xmlns:xlink="http://www.w3.org/1999/xlink" width="10px" height="18px" xmlns="http://www.w3.org/2000/svg">
  <g transform="matrix(1 0 0 1 -30 -91 )">
    <path d="M 8.527083333333334 17.752901785714286  C 8.852083333333333 18.066294642857144  9.381249999999998 18.066294642857144  9.706249999999999 17.752901785714286  C 10.03125 17.439508928571428  10.03125 16.931250000000002  9.706249999999999 16.615848214285716  L 1.8083333333333336 9  L 9.706250000000002 1.3841517857142853  C 10.031250000000004 1.0707589285714283  10.031250000000004 0.5624999999999994  9.706250000000002 0.24709821428571394  C 9.381250000000001 -0.06830357142857155  8.854166666666668 -0.06629464285714323  8.527083333333335 0.24709821428571394  L 0.47291666666666643 8.01361607142857  C 0.19166666666666643 8.284821428571428  0.049999999999999524 8.642410714285713  0.049999999999999524 9  C 0.049999999999999524 9.357589285714283  0.19166666666666643 9.715178571428572  0.47291666666666643 9.98638392857143  L 8.527083333333334 17.752901785714286  Z " fill-rule="nonzero" fill="#000000" stroke="none" transform="matrix(1 0 0 1 30 91 )" />
  </g>
</svg>