<?xml version="1.0" encoding="utf-8"?>
<svg version="1.1" xmlns:xlink="http://www.w3.org/1999/xlink" width="100px" height="64px" xmlns="http://www.w3.org/2000/svg">
  <defs>
    <mask fill="white" id="clip5707">
      <path d="M 0 59.63636363636363  L 0 13.090909090909092  C 0 10.6472727272728  1.3199999999999363 8.727272727272727  3 8.727272727272727  L 10.37541528239467 8.727272727272727  L 15.35880398671361 1.0099667774087389  L 20.674418604653738 9  L 97 9  C 98.68000000000006 8.727272727272727  100 10.6472727272728  100 13.090909090909092  L 100 59.63636363636363  C 100 62.07999999999993  98.68000000000006 64  97 64  L 3 64  C 1.3199999999999363 64  0 62.07999999999993  0 59.63636363636363  Z " fill-rule="evenodd" />
    </mask>
  </defs>
  <g transform="matrix(1 0 0 1 -1834 -1263 )">
    <path d="M 0 59.63636363636363  L 0 13.090909090909092  C 0 10.6472727272728  1.3199999999999363 8.727272727272727  3 8.727272727272727  L 10.37541528239467 8.727272727272727  L 15.35880398671361 1.0099667774087389  L 20.674418604653738 9  L 97 9  C 98.68000000000006 8.727272727272727  100 10.6472727272728  100 13.090909090909092  L 100 59.63636363636363  C 100 62.07999999999993  98.68000000000006 64  97 64  L 3 64  C 1.3199999999999363 64  0 62.07999999999993  0 59.63636363636363  Z " fill-rule="nonzero" fill="#ffffff" stroke="none" transform="matrix(1 0 0 1 1834 1263 )" />
    <path d="M 0 59.63636363636363  L 0 13.090909090909092  C 0 10.6472727272728  1.3199999999999363 8.727272727272727  3 8.727272727272727  L 10.37541528239467 8.727272727272727  L 15.35880398671361 1.0099667774087389  L 20.674418604653738 9  L 97 9  C 98.68000000000006 8.727272727272727  100 10.6472727272728  100 13.090909090909092  L 100 59.63636363636363  C 100 62.07999999999993  98.68000000000006 64  97 64  L 3 64  C 1.3199999999999363 64  0 62.07999999999993  0 59.63636363636363  Z " stroke-width="2" stroke="#ff6666" fill="none" transform="matrix(1 0 0 1 1834 1263 )" mask="url(#clip5707)" />
  </g>
</svg>