<?xml version="1.0" encoding="utf-8"?>
<svg version="1.1" xmlns:xlink="http://www.w3.org/1999/xlink" width="100px" height="59px" xmlns="http://www.w3.org/2000/svg">
  <defs>
    <mask fill="white" id="clip5708">
      <path d="M 0 54.97727272727273  L 0 12.068181818181818  C 0 9.815454545454612  1.3199999999999363 8.045454545454545  3 8.045454545454545  L 10.37541528239467 8.045454545454545  L 15.35880398671361 0.9310631229236811  L 20.674418604653738 8  L 97 8  C 98.68000000000006 8.045454545454545  100 9.815454545454612  100 12.068181818181818  L 100 54.97727272727273  C 100 57.22999999999993  98.68000000000006 59  97 59  L 3 59  C 1.3199999999999363 59  0 57.22999999999993  0 54.97727272727273  Z " fill-rule="evenodd" />
    </mask>
  </defs>
  <g transform="matrix(1 0 0 1 -2303 -1263 )">
    <path d="M 0 54.97727272727273  L 0 12.068181818181818  C 0 9.815454545454612  1.3199999999999363 8.045454545454545  3 8.045454545454545  L 10.37541528239467 8.045454545454545  L 15.35880398671361 0.9310631229236811  L 20.674418604653738 8  L 97 8  C 98.68000000000006 8.045454545454545  100 9.815454545454612  100 12.068181818181818  L 100 54.97727272727273  C 100 57.22999999999993  98.68000000000006 59  97 59  L 3 59  C 1.3199999999999363 59  0 57.22999999999993  0 54.97727272727273  Z " fill-rule="nonzero" fill="#ffffff" stroke="none" transform="matrix(1 0 0 1 2303 1263 )" />
    <path d="M 0 54.97727272727273  L 0 12.068181818181818  C 0 9.815454545454612  1.3199999999999363 8.045454545454545  3 8.045454545454545  L 10.37541528239467 8.045454545454545  L 15.35880398671361 0.9310631229236811  L 20.674418604653738 8  L 97 8  C 98.68000000000006 8.045454545454545  100 9.815454545454612  100 12.068181818181818  L 100 54.97727272727273  C 100 57.22999999999993  98.68000000000006 59  97 59  L 3 59  C 1.3199999999999363 59  0 57.22999999999993  0 54.97727272727273  Z " stroke-width="2" stroke="#ff6666" fill="none" transform="matrix(1 0 0 1 2303 1263 )" mask="url(#clip5708)" />
  </g>
</svg>