<?xml version="1.0" encoding="utf-8"?>
<svg version="1.1" xmlns:xlink="http://www.w3.org/1999/xlink" width="50px" height="50px" xmlns="http://www.w3.org/2000/svg">
  <g transform="matrix(1 0 0 1 -2024 -2003 )">
    <path d="M 2049 2003  C 2063 2003  2074 2014  2074 2028  C 2074 2042  2063 2053  2049 2053  C 2035 2053  2024 2042  2024 2028  C 2024 2014  2035 2003  2049 2003  Z " fill-rule="nonzero" fill="#ffffff" stroke="none" fill-opacity="0" />
    <path d="M 2049 2003.5  C 2062.72 2003.5  2073.5 2014.28  2073.5 2028  C 2073.5 2041.72  2062.72 2052.5  2049 2052.5  C 2035.28 2052.5  2024.5 2041.72  2024.5 2028  C 2024.5 2014.28  2035.28 2003.5  2049 2003.5  Z " stroke-width="1" stroke="#ffffff" fill="none" />
  </g>
</svg>