<?xml version="1.0" encoding="utf-8"?>
<svg version="1.1" xmlns:xlink="http://www.w3.org/1999/xlink" width="30px" height="30px" xmlns="http://www.w3.org/2000/svg">
  <g transform="matrix(1 0 0 1 -1710 -2245 )">
    <path d="M 29.74205542763158 3.6929714144736843  C 29.74205542763158 1.795815592105263  28.204167565789476 0.2578940789473683  26.307011743421054 0.2578940789473683  L 3.6929209210526315 0.2578940789473683  C 1.7957987499999994 0.2578940789473683  0.2578772368421052 1.795815592105263  0.2578772368421052 3.692971414473684  L 0.2578772368421052 26.307062203947364  C 0.2578772368421052 28.204184374999997  1.7957987499999999 29.742105888157894  3.6929209210526315 29.742105888157894  L 26.307011743421054 29.742105921052634  C 28.204133914473683 29.742105921052634  29.74205542763158 28.20418440789474  29.74205542763158 26.307062236842103  L 29.74205542763158 3.6929714144736843  Z M 16.091588322368423 15.23667322368421  L 20.055990986842104 22.22864845394737  L 17.955453059210527 22.22864845394737  L 15.608345460526316 17.997950559210526  C 15.37810157894737 17.583747171052632  15.111840000000003 17.051224013157896  14.80956072368421 16.400347434210527  C 14.454534078947368 16.880325164473682  14.020605098684213 17.38989125  13.507807532894736 17.92891105263158  L 9.474331677631579 22.22864845394737  L 6.910276414473684 22.22864845394737  L 13.813486578947368 14.92109769736842  L 9.720867664473685 7.77135154605263  L 11.850993980263159 7.77135154605263  L 13.714858717105264 11.045460131578947  C 14.207930723684212 11.906821381578945  14.490551743421054 12.409756184210526  14.562991052631581 12.554298190789472  C 14.73385625 12.876471348684209  14.921249210526318 13.261086348684207  15.125102565789474 13.708109605263155  C 15.611543289473685 13.050770032894736  16.364279243421052 12.18614361842105  17.38344509868421 11.114465986842104  L 20.558925822368423 7.771351578947367  L 23.083529934210528 7.771351578947367  L 16.091588322368423 15.23667322368421  Z " fill-rule="nonzero" fill="#01a408" stroke="none" transform="matrix(1 0 0 1 1710 2245 )" />
  </g>
</svg>