<?xml version="1.0" encoding="utf-8"?>
<svg version="1.1" xmlns:xlink="http://www.w3.org/1999/xlink" width="20px" height="20px" xmlns="http://www.w3.org/2000/svg">
  <g transform="matrix(1 0 0 1 -1119 -238 )">
    <path d="M 8.631578947368421 19.708333333333332  L 18.06315789473684 10.208333333333332  C 21.43157894736842 6.875  19.578947368421055 3.375000000000001  18.06315789473684 2.041666666666666  C 16.54736842105263 0.5416666666666662  13.010526315789473 -1.2916666666666674  9.642105263157895 2.041666666666666  L 1.3894736842105266 10.208333333333332  C -0.9684210526315785 12.541666666666666  0.3789473684210528 15.041666666666666  1.3894736842105266 16.041666666666668  C 2.4000000000000004 17.041666666666664  4.926315789473685 18.375  7.28421052631579 16.041666666666668  L 15.53684210526316 7.875  C 16.210526315789476 7.208333333333332  16.378947368421056 6.541666666666667  16.378947368421056 6.208333333333332  C 16.378947368421056 5.208333333333334  15.705263157894738 4.541666666666666  15.53684210526316 4.375  C 14.863157894736844 3.708333333333333  13.347368421052632 3.041666666666667  12.000000000000004 4.375  L 3.747368421052631 12.541666666666666  C 3.4105263157894727 12.874999999999998  3.4105263157894727 13.375000000000002  3.747368421052631 13.708333333333334  C 4.084210526315789 14.041666666666666  4.5894736842105255 14.041666666666666  4.9263157894736835 13.708333333333334  L 13.178947368421053 5.541666666666666  C 13.68421052631579 5.041666666666665  14.021052631578945 5.208333333333331  14.357894736842102 5.541666666666666  C 14.357894736842102 5.541666666666666  15.03157894736842 6.041666666666665  14.357894736842102 6.708333333333333  L 6.105263157894734 14.875  C 4.421052631578944 16.541666666666668  2.9052631578947343 15.208333333333332  2.568421052631576 14.875  C 2.2315789473684173 14.541666666666668  0.8842105263157863 13.04166666666667  2.568421052631576 11.375000000000002  L 10.821052631578944 3.208333333333335  C 13.684210526315786 0.3750000000000009  16.54736842105263 2.875000000000001  16.715789473684207 3.208333333333335  C 17.052631578947366 3.541666666666668  19.578947368421048 6.208333333333335  16.715789473684207 9.041666666666668  L 7.4526315789473685 18.541666666666668  C 7.1157894736842096 18.875  7.1157894736842096 19.375  7.4526315789473685 19.708333333333332  C 7.789473684210526 20.041666666666668  8.294736842105262 20.041666666666668  8.631578947368421 19.708333333333332  Z " fill-rule="nonzero" fill="#000000" stroke="none" transform="matrix(1 0 0 1 1119 238 )" />
  </g>
</svg>