<?xml version="1.0" encoding="utf-8"?>
<svg version="1.1" xmlns:xlink="http://www.w3.org/1999/xlink" width="20px" height="20px" xmlns="http://www.w3.org/2000/svg">
  <g transform="matrix(1 0 0 1 -3188 -604 )">
    <path d="M 19.710881298969298 9.396495776661865  L 19.70977672865733 9.396495776661865  L 16.642412355155074 6.930012281772454  C 16.13652366399584 6.522429469471469  15.383213429988663 6.883620738826357  15.383213429988663 7.533102301009226  L 15.383213429988663 9.398704897754536  L 10.833528920491439 9.398704897754536  L 10.833528920491439 4.615958142277363  L 12.464964720476088 4.615958142277363  C 13.11444626312771 4.615958142277363  13.475637532482596 3.8637524785821507  13.06805472018161 3.356759217110956  L 10.60267579560416 0.2893948436086939  C 10.293398862161425 -0.09609675776557772  9.7057727101046 -0.09609675776557772  9.396495776661865 0.2893948436086939  L 6.930012281772453 3.3567592171109566  C 6.522429469471468 3.862647908270191  6.883620738826356 4.615958142277364  7.533102301009226 4.615958142277364  L 9.398704897754536 4.615958142277364  L 9.398704897754536 9.398704897754538  L 4.615958142277363 9.398704897754538  L 4.615958142277363 7.533102301009226  C 4.615958142277363 6.883620758357606  3.8637524785821507 6.522429489002719  3.356759217110956 6.930012281772454  L 0.2893948436086939 9.396495776661865  C -0.09609675776557772 9.705772710104602  -0.09609675776557772 10.293398862161425  0.2893948436086939 10.602675795604162  L 3.3567592171109566 13.069159290493575  C 3.862647908270191 13.476742102794558  4.615958142277364 13.11555083343967  4.615958142277364 12.466069271256801  L 4.615958142277364 10.8346334908034  L 9.398704897754538 10.8346334908034  L 9.398704897754538 15.384318000300626  L 7.533102301009226 15.384318000300626  C 6.883620758357606 15.384318000300626  6.522429489002719 16.13652366399584  6.930012281772454 16.643516905935783  L 9.396495776661865 19.710881298969298  C 9.705772710104602 20.09637290034357  10.293398862161425 20.09637290034357  10.602675795604162 19.710881298969298  L 13.069159290493575 16.643516905935783  C 13.476742102794558 16.137628214776548  13.11555083343967 15.384317980769378  12.466069271256801 15.384318000300627  L 10.8346334908034 15.384318000300627  L 10.8346334908034 10.8346334908034  L 15.384318000300626 10.8346334908034  L 15.384318000300626 12.4660692712568  C 15.384318000300626 13.11555081390842  16.13652366399584 13.476742083263307  16.643516905935783 13.069159290493573  L 19.710881298969298 10.60267579560416  C 20.09637290034357 10.293398862161425  20.09637290034357 9.7057727101046  19.710881298969298 9.396495776661865  Z " fill-rule="nonzero" fill="#000000" stroke="none" transform="matrix(1 0 0 1 3188 604 )" />
  </g>
</svg>