<?xml version="1.0" encoding="utf-8"?>
<svg version="1.1" xmlns:xlink="http://www.w3.org/1999/xlink" width="30px" height="30px" xmlns="http://www.w3.org/2000/svg">
  <g transform="matrix(1 0 0 1 -1816 -2245 )">
    <path d="M 30 26.667  C 30 28.5  28.5 30  26.667 30  L 3.333 30  C 1.5 30  0 28.5  0 26.667  L 0 3.333  C 0 1.5  1.5 0  3.333 0  L 26.667 0  C 28.5 0  30 1.5  30 3.333  L 30 26.667  Z M 4.547249999999998 20.043000000000003  L 4.54725 16.272750000000002  L 5.856 16.272750000000002  C 6.9105 16.308000000000003  7.7902499999999995 16.017750000000003  8.492249999999999 15.403500000000003  C 9.195749999999999 14.789250000000001  9.5475 13.9875  9.5475 12.997500000000002  C 9.5475 12.0225  9.247499999999999 11.270250000000003  8.645999999999999 10.745250000000002  C 8.044499999999998 10.220250000000002  7.199999999999999 9.957750000000003  6.110249999999998 9.957750000000003  L 3.245249999999998 9.957750000000003  L 3.245249999999998 20.043000000000003  L 4.547249999999998 20.043000000000003  Z M 4.54725 15.126750000000001  L 4.54725 11.103750000000002  L 5.8755 11.103750000000002  C 7.412999999999999 11.103750000000002  8.180250000000001 11.751750000000001  8.180250000000001 13.05  C 8.180250000000001 13.718250000000001  7.973999999999999 14.232000000000001  7.5615 14.590500000000002  C 7.148999999999999 14.947500000000002  6.546 15.126750000000001  5.75175 15.126750000000001  L 4.54725 15.126750000000001  Z M 12 9.957  L 12 20.04225  L 14.176499999999999 20.04225  C 15.773999999999997 20.04225  17.078999999999997 19.57125  18.09225 18.63  C 19.106250000000003 17.688  19.6125 16.435499999999998  19.6125 14.8725  C 19.6125 13.3755  19.106250000000003 12.1815  18.09225 11.292  C 17.079750000000004 10.40325  15.8085 9.957  14.280750000000001 9.957  L 12 9.957  Z M 12.705 18.8895  L 12.705 11.1165  L 14.22825 11.1165  C 15.43125 11.1165  16.401 11.433  17.13825 12.067499999999999  C 17.877 12.7005  18.245250000000002 13.646249999999998  18.245250000000002 14.9055  C 18.245250000000002 16.1655  17.88675 17.142  17.1675 17.84175  C 16.449 18.540750000000003  15.450000000000001 18.8895  14.169750000000002 18.8895  L 12.705 18.8895  Z M 26.754749999999998 11.1165  L 26.754749999999998 9.956999999999999  L 21 9.956999999999999  L 21 20.04225  L 22.8615 20.04225  L 22.8615 15.6345  L 26.46825 15.6345  L 26.46825 14.49  L 22.860750000000003 14.49  L 22.860750000000003 11.11725  L 26.75475 11.11725  Z " fill-rule="nonzero" fill="#d93838" stroke="none" transform="matrix(1 0 0 1 1816 2245 )" />
  </g>
</svg>