<?xml version="1.0" encoding="utf-8"?>
<svg version="1.1" xmlns:xlink="http://www.w3.org/1999/xlink" width="14px" height="12px" xmlns="http://www.w3.org/2000/svg">
  <g transform="matrix(1 0 0 1 -1204 -242 )">
    <path d="M 13.97052296875 0.6977439095744679  C 14.0822515 0.18359128723404258  13.78467065625 -0.08023646808510648  13.304926140625 0.10881997340425549  L 0.5345788437500001 5.14147535106383  C -0.18508582812499996 5.425084468085106  -0.1670578749999999 5.83724805319149  0.5712734531250001 6.060991212765957  L 3.65686228125 6.996015797872339  L 4.911425156250001 10.808422978723403  C 5.075672656250001 11.307539808510638  5.504750500000001 11.412790420212765  5.871776453125001 11.041461574468084  L 7.490283437500001 9.404043303191488  L 10.68520559375 11.795110707446808  C 11.100295421875 12.105758186170213  11.527057890625 11.942272388297871  11.639105796875 11.426652047872341  L 13.97052296875 0.6977439095744679  Z M 11.257820374999998 2.391750271276593  C 11.69804390625 2.1221006489361707  11.744910171875 2.185782654255319  11.36158084375 2.5345903882978726  L 5.914395218749999 7.4911372021276605  C 5.816447109374999 7.580259382978722  5.7278083906249995 7.756872957446809  5.714203609375 7.887628978723405  L 5.473724562499999 10.196635484042552  C 5.446722562499999 10.455913356382977  5.359185640624999 10.466611276595746  5.278451109374999 10.218096558510638  L 4.224431156249999 6.973331617021275  C 4.183201609374999 6.846391627659573  4.239680656249999 6.690798813829786  4.349780453124999 6.623366010638295  L 11.257820374999998 2.391750271276593  Z " fill-rule="nonzero" fill="#ffffff" stroke="none" transform="matrix(1 0 0 1 1204 242 )" />
  </g>
</svg>