<?xml version="1.0" encoding="utf-8"?>
<svg version="1.1" xmlns:xlink="http://www.w3.org/1999/xlink" width="30px" height="30px" xmlns="http://www.w3.org/2000/svg">
  <g transform="matrix(1 0 0 1 -2118 -2245 )">
    <path d="M 30 3.5313771750000003  C 29.903746912499997 1.7171068875000006  28.4193706125 0.23273058750000042  26.605100325 0.23273058749999986  L 3.5142808125000005 0.23273058749999986  C 1.7000105250000004 0.23273058749999986  0.21563422500000015 1.7171068874999997  0.21563422500000015 3.5314505624999994  L 0.21563422500000015 26.622270075  C 0.21563422500000015 28.436540362499997  1.7000105250000004 29.920916662499998  3.5142808125000005 30  L 26.605100325 30  C 28.4193706125 29.920916662499998  29.903746912499997 28.436540362499997  30 26.622270074999992  L 30 3.5313771750000003  Z M 22.061646862499998 7  L 22.061646862499998 8.87762655  L 16 8.87762655  L 16 23.323550137499996  L 14 23.323550137499996  L 14 8.87762655  L 8.169851287499997 8.87762655  L 8.169851287499997 7  L 22.061646862499998 7  Z " fill-rule="nonzero" fill="#525252" stroke="none" transform="matrix(1 0 0 1 2118 2245 )" />
  </g>
</svg>