<?xml version="1.0" encoding="utf-8"?>
<svg version="1.1" xmlns:xlink="http://www.w3.org/1999/xlink" width="30px" height="30px" xmlns="http://www.w3.org/2000/svg">
  <g transform="matrix(1 0 0 1 -2012 -2245 )">
    <path d="M 29.74205542763158 3.6929714144736843  C 29.74205542763158 1.795815592105263  28.204167565789476 0.2578940789473683  26.307011743421054 0.2578940789473683  L 3.6929209210526315 0.2578940789473683  C 1.7957987499999994 0.2578940789473683  0.2578772368421052 1.795815592105263  0.2578772368421052 3.692971414473684  L 0.2578772368421052 26.307062203947364  C 0.2578772368421052 28.204184374999997  1.7957987499999999 29.742105888157894  3.6929209210526315 29.742105888157894  L 26.307011743421054 29.742105921052634  C 28.204133914473683 29.742105921052634  29.74205542763158 28.20418440789474  29.74205542763158 26.307062236842103  L 29.74205542763158 3.6929714144736843  Z M 25.130613552631576 7.77135154605263  L 17.773748881578946 22.22864845394737  L 15.702799309210526 22.22864845394737  L 15.21959009868421 13.471436381578947  C 15.173507664473684 12.721931907894735  15.137355328947365 11.801562236842104  15.11109944078947 10.710159046052631  C 14.709990328947365 11.62403207236842  14.374689243421049 12.33408539473684  14.105196184210524 12.840285361842103  L 9.095439078947368 22.22864845394737  L 7.103358125000001 22.22864845394737  L 6.215808322368421 7.77135154605263  L 8.178300921052633 7.77135154605263  L 8.51360200657895 14.92109769736842  C 8.533327565789474 15.262996414473685  8.566181085526317 16.189997368421054  8.612229868421053 17.702100592105264  C 8.625357796052633 18.12290161184211  8.63195542763158 18.418751546052633  8.63195542763158 18.589650427631582  C 8.63195542763158 18.701507203947372  8.628555625 19.026945526315792  8.62209263157895 19.56596532894737  C 9.424142532894738 17.922448059210527  10.002748125 16.765236842105267  10.35777480263158 16.094634671052635  L 14.756072763157894 7.77135154605263  L 16.74815371710526 7.77135154605263  L 17.23136292763158 16.222850888157893  C 17.283908355263158 17.18930299342105  17.320127993421053 18.35297720394737  17.339853585526317 19.713907105263157  C 17.458207039473685 19.37860601973684  17.6685233881579 18.879037368421052  17.97100460526316 18.214931842105266  C 18.450881348684213 17.14338888157895  18.805908026315795 16.377390328947367  19.036084572368424 15.917138157894737  L 23.15825819078947 7.77135154605263  L 25.130613552631576 7.77135154605263  Z " fill-rule="nonzero" fill="#01a408" stroke="none" transform="matrix(1 0 0 1 2012 2245 )" />
  </g>
</svg>