<?xml version="1.0" encoding="utf-8"?>
<svg version="1.1" xmlns:xlink="http://www.w3.org/1999/xlink" width="30px" height="30px" xmlns="http://www.w3.org/2000/svg">
  <g transform="matrix(1 0 0 1 -1914 -2245 )">
    <path d="M 30 26.667  C 30 28.5  28.5 30  26.667 30  L 3.333 30  C 1.5 30  0 28.5  0 26.667  L 0 3.333  C 0 1.5  1.5 0  3.333 0  L 26.667 0  C 28.5 0  30 1.5  30 3.333  L 30 26.667  Z M 12.453 22.627499999999998  L 12.453000000000001 16.97325  L 14.415750000000001 16.97325  C 15.998250000000002 17.025  17.31675 16.59075  18.372 15.669  C 19.42575 14.748  19.953 13.545  19.953 12.0615  C 19.953 10.596  19.503 9.470250000000002  18.60075 8.682  C 17.7 7.8945  16.430999999999997 7.5  14.797500000000001 7.5  L 11 7.5  L 11 22.627499999999998  L 12.453 22.627499999999998  Z M 12.453000000000001 15.25425  L 12.453000000000001 9.219000000000001  L 14.44575 9.219000000000001  C 16.749750000000002 9.219000000000001  17.9025 10.192499999999999  17.9025 12.1395  C 17.9025 13.1415  17.593500000000002 13.91175  16.97475 14.448  C 16.35675 14.985750000000001  15.452250000000001 15.25425  14.25975 15.25425  L 12.453000000000001 15.25425  Z " fill-rule="nonzero" fill="#f34e19" stroke="none" transform="matrix(1 0 0 1 1914 2245 )" />
  </g>
</svg>