<?xml version="1.0" encoding="utf-8"?>
<svg version="1.1" xmlns:xlink="http://www.w3.org/1999/xlink" width="10px" height="10px" xmlns="http://www.w3.org/2000/svg">
  <g transform="matrix(1 0 0 1 -1812 -1879 )">
    <path d="M 9.999143828125 4.369625849609375  L 9.959772197265625 4.369625849609375  L 9.960397138671874 4.374625419921875  L 8.66675791015625 4.374625419921875  L 8.666132958984376 4.369625849609375  L 5.59327107421875 4.369625849609375  L 7.625597060546876 2.354173427734375  C 6.922037967289736 1.648251891186068  5.966388024958601 1.251470101800396  4.969733313703228 1.251470101800396  C 2.8988428208389254 1.251470101800396  1.220054378156352 2.930258544482969  1.220054378156352 5.001149037347271  C 1.220054378156352 7.0720395302115735  2.8988428208389254 8.750827972894147  4.969733313703228 8.750827972894147  C 6.559397377450692 8.750827972894147  7.976302313735194 7.748450768737697  8.50552171875 6.249464892578125  L 9.841657304687498 6.249464892578125  C 9.27201617048167 8.457287303073166  7.280746983517336 9.999999321465502  5.000621807553648 9.999999321465502  C 2.2394344837345797 9.999999321465502  0.001049893491148485 7.761614731222072  0.001049893491148485 5.000427407403003  C 0.001049893491148485 2.239240083583934  2.2394344837345797 0.0008554933405034108  5.000621807553648 0.0008554933405034108  C 6.3233678126219575 0.0008554933405034108  7.5922084805818 0.5250442021355893  8.529269677734373 1.4586251074218748  L 9.999143828125 0  L 9.999143828125 4.369625849609375  Z " fill-rule="nonzero" fill="#ff6666" stroke="none" transform="matrix(1 0 0 1 1812 1879 )" />
  </g>
</svg>