<?xml version="1.0" encoding="utf-8"?>
<svg version="1.1" xmlns:xlink="http://www.w3.org/1999/xlink" width="19px" height="20px" xmlns="http://www.w3.org/2000/svg">
  <g transform="matrix(1 0 0 1 -1159 -238 )">
    <path d="M 7.027888882291666 17.638518511904763  C 7.027888882291666 17.982222222222223  7.305711097916666 18.260740734126983  7.648555548958333 18.260740734126983  L 11.351444451041665 18.260740734126983  C 11.69422918576998 18.260740734126983  11.972111117708334 17.982162356243922  11.972111117708334 17.638518511904763  L 11.972111117708334 17.022222222222222  L 7.027888882291666 17.022222222222222  L 7.027888882291666 17.638941805555554  Z M 18.976355548958335 9.586878313492065  C 18.976355548958335 9.620740747354498  18.974666660069445 9.654603181216931  18.971288882291667 9.688465615079366  C 18.96791110451389 9.722045866402118  18.962985182986113 9.755343921957673  18.956511117708335 9.788359781746031  C 18.950037039236115 9.821657837301588  18.941874071875002 9.854391527777778  18.932022215625 9.886560853174604  C 18.922170359375002 9.9190123478836  18.91091110451389 9.950899470899472  18.898244451041666 9.982222222222223  C 18.88501481701389 10.013262791005292  18.870518516319446 10.043738981481482  18.854755548958334 10.073650793650792  C 18.838711104513894 10.103562605820107  18.82139999340278 10.132627863756616  18.802822215625 10.160846567460318  C 18.78396296076389 10.189065257936509  18.763837039236112 10.216155205026457  18.742444451041667 10.24211640873016  C 18.721051862847222 10.268077612433864  18.698533339930556 10.293051157407406  18.67488888229167 10.317037043650794  C 18.650681470486116 10.34102292989418  18.625629620833337 10.363738974867724  18.599733333333337 10.385185178571428  C 18.573555555555558 10.406631382275133  18.546533333333336 10.426807751322752  18.518666666666668 10.445714285714285  C 18.49051852291667 10.464338624338623  18.461525928125003 10.481693121693121  18.431688882291667 10.497777777777777  C 18.40213332673611 10.513580251322752  18.371733326736113 10.527971785714286  18.340488882291666 10.540952380952382  C 18.309525914930557 10.553932976190477  18.277718509722224 10.565220456349207  18.24506666666667 10.574814821428573  C 18.21297777777778 10.58469136904762  18.180325928125004 10.59301587962963  18.147111117708334 10.599788353174604  C 18.114177784375006 10.606278657407408  18.080822228819446 10.611216931216932  18.047044451041668 10.614603174603175  C 18.013548150347226 10.617989417989417  17.979911111111115 10.61968253968254  17.946133333333336 10.61968253968254  C 17.912355555555557 10.61968253968254  17.87871851631945 10.617989417989417  17.845222215625 10.614603174603175  C 17.811444437847225 10.611216931216932  17.77808888229167 10.606278657407408  17.745155548958333 10.599788353174604  C 17.712222215625 10.593015866402117  17.679570365972225 10.58483244708995  17.6472 10.575238095238095  C 17.614829634027778 10.565361547619048  17.583162967361112 10.553932976190477  17.552200000000003 10.540952380952382  C 17.520955555555556 10.527971785714286  17.49041481701389 10.513580251322752  17.460577784375 10.497777777777777  C 17.431022228819444 10.481693121693121  17.402170372569447 10.464338624338623  17.374022215625 10.445714285714285  C 17.345874071875002 10.426807764550263  17.31885184965278 10.406631395502643  17.292955548958336 10.385185178571428  C 17.26677777118056 10.363738974867724  17.24172592152778 10.341164021164019  17.217800000000004 10.317460317460318  C 17.193874078472227 10.293192235449737  17.171355562152783 10.268077599206348  17.15024445104167 10.24211640873016  C 17.128570372569452 10.215873022486772  17.108444444444448 10.188783075396826  17.08986666666667 10.160846567460318  C 17.07100741180556 10.132627876984127  17.053696300694448 10.103562619047619  17.037933333333335 10.073650793650792  C 17.021888888888892 10.04373898148148  17.00739259479167 10.01326279100529  16.99444445104167 9.982222222222223  C 16.981777784375005 9.950899470899472  16.97051852291667 9.919012347883598  16.96066666666667 9.886560853174602  C 16.95081481041667 9.85439154100529  16.94265184965278 9.821657850529101  16.936177784375 9.788359781746031  C 16.929422228819448 9.75534390873016  16.924355562152783 9.721904755291007  16.920977784375 9.688042321428572  C 16.91788148368056 9.65446207010582  16.916333333333338 9.620740734126986  16.916333333333338 9.586878313492065  C 16.916333333333338 9.553015892857143  16.91788148368056 9.51929455026455  16.920977784375 9.485714285714286  C 16.924355562152783 9.451851851851854  16.929422228819448 9.4184126984127  16.936177784375 9.385396825396827  C 16.942651862847228 9.352380952380955  16.950814823611115 9.319647268518521  16.96066666666667 9.287195773809525  C 16.970518509722226 9.25474427910053  16.98177777118056 9.222998247354496  16.99444445104167 9.191957678571429  C 17.00739259479167 9.160634927248678  17.021888888888892 9.13001763888889  17.037933333333335 9.100105813492064  C 17.053696300694448 9.070476183862436  17.07100741180556 9.041552023809526  17.08986666666667 9.013333333333334  C 17.108444444444448 8.985114642857145  17.12842962743056 8.958024695767197  17.149822215625 8.932063492063493  C 17.17121480381945 8.905820105820109  17.193874065277782 8.880705469576721  17.217800000000004 8.856719583333334  C 17.24172592152778 8.83273369708995  17.26677777118056 8.81015873677249  17.292955548958336 8.788994702380954  C 17.31885184965278 8.767266302910054  17.345874071875002 8.747089940476192  17.374022215625 8.728465615079365  C 17.402170359375003 8.709559093915345  17.431022215625003 8.692204596560849  17.460577784375 8.676402123015874  C 17.49041481701389 8.660317466931218  17.520955555555556 8.645784834656085  17.552200000000003 8.632804226190476  C 17.583162967361112 8.619823630952382  17.614829634027778 8.608536157407409  17.6472 8.598941805555556  C 17.679570365972225 8.58906525793651  17.712222215625 8.580881832010585  17.745155548958333 8.57439152777778  C 17.778370359375003 8.567619041005294  17.81172591493056 8.56253967592593  17.845222215625 8.559153432539684  C 17.87899999340278 8.556049371693122  17.912777771180554 8.554497347883599  17.946555548958337 8.554497361111114  C 17.980333326736112 8.554497374338627  18.013829627430557 8.55604939814815  18.047044451041668 8.559153432539684  C 18.080822228819446 8.56253967592593  18.114177784375002 8.567619041005294  18.147111117708334 8.57439152777778  C 18.180325928125004 8.580881832010585  18.21297777777778 8.58906525793651  18.24506666666667 8.598941805555556  C 18.277437032638893 8.608536157407409  18.309244437847227 8.619823630952382  18.340488882291666 8.632804226190476  C 18.371451849652782 8.645784821428572  18.40185184965278 8.660317453703705  18.431688882291667 8.676402123015874  C 18.461525914930554 8.692204596560847  18.490518509722225 8.709559093915345  18.518666666666668 8.728465615079365  C 18.54681481041667 8.747089953703705  18.57383703263889 8.767125224867726  18.599733333333337 8.78857142857143  C 18.62562963402778 8.810017632275136  18.65054074513889 8.832733683862436  18.674466666666667 8.856719583333334  C 18.698392588194444 8.880705469576721  18.721051849652778 8.905820105820109  18.742444451041667 8.932063492063493  C 18.763837039236112 8.958024695767197  18.78396296076389 8.985114642857145  18.802822215625 9.013333333333334  C 18.82139999340278 9.041552023809526  18.838711104513894 9.070476183862436  18.854755548958334 9.100105813492064  C 18.870518516319446 9.130017625661377  18.884874071875 9.160634914021164  18.897822215625002 9.191957678571429  C 18.910770359375 9.2229982473545  18.922029620833335 9.254744279100532  18.9316 9.287195773809525  C 18.941733333333335 9.31964726851852  18.950037039236115 9.352380952380955  18.956511117708335 9.385396825396827  C 18.962985196180558 9.418694880952383  18.967911117708336 9.452134034391538  18.971288882291667 9.485714285714286  C 18.974666660069445 9.51957671957672  18.976355548958335 9.553439153439156  18.976355548958335 9.587301587301587  Z M 2.0790222156250002 9.485714285714286  C 2.082399993402778 9.51957671957672  2.0840888822916668 9.553439153439156  2.0840888822916668 9.587301587301587  C 2.0840888822916668 9.62116402116402  2.082399993402778 9.654885363756613  2.0790222156250002 9.688465615079364  C 2.075644437847222 9.7223280489418  2.0707185163194444 9.755767202380952  2.0642444510416667 9.788783075396823  C 2.0577703725694443 9.821798948412697  2.049607405208333 9.85453263227513  2.0397555489583334 9.886984126984126  C 2.0299036927083334 9.919435621693122  2.018644437847222 9.951181653439155  2.0059777843749997 9.982222222222223  C 1.9927481503472217 10.013544973544974  1.9782518496527772 10.044162255291006  1.9624888822916662 10.074074067460316  C 1.9464444378472214 10.103985879629633  1.9291333267361106 10.132910046296299  1.9105555489583328 10.160846567460318  C 1.8916962940972215 10.189065257936509  1.8715703725694441 10.216155205026457  1.8501777843749994 10.24211640873016  C 1.8287851961805552 10.268359794973545  1.8062666732638886 10.293474431216934  1.7826222156249991 10.317460317460318  C 1.7586962940972217 10.341446203703706  1.7336444444444437 10.364021157407407  1.7074666666666658 10.385185178571428  C 1.6812888888888882 10.406913578042328  1.654266666666666 10.427089947089945  1.6263999999999992 10.445714285714285  C 1.5982518562499994 10.464620806878306  1.5692592614583327 10.481975304232805  1.539422215624999 10.497777777777777  C 1.5095851829861107 10.513862433862435  1.4791851829861107 10.52839505952381  1.448222215624999 10.541375654761904  C 1.4169777711805551 10.554356249999998  1.3851703659722217 10.56564373015873  1.3527999999999991 10.575238095238095  C 1.3207111111111105 10.585114642857143  1.2880592614583328 10.59343916005291  1.2548444510416659 10.600211646825395  C 1.2216296406249996 10.606701951058199  1.1882740850694438 10.611640218253967  1.1547777843749993 10.615026448412696  C 1.1210000065972217 10.618412691798941  1.087222228819444 10.620105813492062  1.053444451041666 10.620105813492062  C 1.0199481503472216 10.620105813492062  0.9864518496527773 10.618412691798941  0.9529555489583327 10.615026448412696  C 0.919177771180555 10.611640205026456  0.8858222156249995 10.606701937830687  0.8528888822916662 10.600211646825395  C 0.8196740718749996 10.59343916005291  0.787022222222222 10.585114642857143  0.7549333333333329 10.575238095238095  C 0.7225629673611108 10.565643743386243  0.6907555621527776 10.554356263227513  0.6595111177083329 10.541375654761904  C 0.628548150347222 10.52839505952381  0.5981481503472219 10.513862433862435  0.568311117708333 10.497777777777777  C 0.5384740850694442 10.481975304232805  0.5094814902777776 10.464620806878306  0.48133333333333306 10.445714285714285  C 0.45318518958333315 10.427089947089945  0.42616296736111087 10.407054675925924  0.4002666666666665 10.385608472222223  C 0.37408888888888875 10.36416226851852  0.3491777777777777 10.341446216931216  0.32553333333333323 10.317460317460318  C 0.3016074118055554 10.293474431216932  0.27894815034722226 10.268359794973545  0.2575555489583332 10.24211640873016  C 0.23616296076388896 10.216155205026457  0.21603703923611103 10.189065257936509  0.19717778437499991 10.160846567460318  C 0.17860000659722222 10.132627876984127  0.16128889548611106 10.103703710317461  0.14524445104166656 10.074074067460316  C 0.12948148368055545 10.044162255291006  0.11512592812499978 10.013544973544974  0.10217778437499984 9.982222222222223  C 0.0892296406249999 9.951181653439155  0.07782964062499988 9.919435621693122  0.06797778437499981 9.886984126984128  C 0.05812592812499987 9.854532632275133  0.04996296076388864 9.8217989484127  0.04348888229166653 9.788783075396825  C 0.036733326736111016 9.755485019841272  0.03180740520833326 9.722045866402118  0.028711117708333248 9.688465615079366  C 0.02533333993055556 9.654603181216931  0.02364445104166658 9.620740747354498  0.02364445104166658 9.586878313492065  C 0.02364445104166658 9.55301587962963  0.02533333993055556 9.51929453703704  0.028711117708333248 9.485714285714286  C 0.03180741840277781 9.452134034391538  0.03673333993055543 9.418835972222224  0.04348888229166653 9.38582009920635  C 0.049962960763888925 9.352522043650794  0.05812592812499987 9.31964726851852  0.06797778437499981 9.287195773809525  C 0.07782964062499988 9.255026461640213  0.08908889548611099 9.223280429894182  0.10175554895833311 9.191957678571429  C 0.114985182986111 9.160917109788361  0.12948148368055545 9.130299821428572  0.1452444510416664 9.100105813492064  C 0.16128889548611092 9.070476183862436  0.17860000659722194 9.041552023809526  0.19717778437499978 9.013333333333334  C 0.21603703923611103 8.985114642857145  0.23616296076388865 8.958024695767197  0.2575555489583331 8.932063492063493  C 0.27894813715277755 8.905820105820109  0.30146666006944434 8.880705469576721  0.3251111177083331 8.856719583333334  C 0.349037039236111 8.833015879629633  0.37408888888888875 8.810440919312171  0.4002666666666665 8.788994702380954  C 0.4264444444444443 8.767266302910054  0.4534666666666665 8.747089940476192  0.48133333333333317 8.728465615079365  C 0.5094814770833334 8.709559093915345  0.538474071875 8.692204596560849  0.5683111177083331 8.676402123015874  C 0.5978666732638889 8.660317466931218  0.628266673263889 8.645784834656085  0.6595111177083331 8.632804226190476  C 0.6904740850694445 8.620105813492064  0.722281490277778 8.608818339947092  0.7549333333333331 8.598941805555556  C 0.7870222222222222 8.58906525793651  0.8196740718749999 8.580881832010585  0.8528888822916664 8.57439152777778  C 0.8858222156249997 8.567619041005294  0.9191777711805552 8.56253967592593  0.9529555489583331 8.559153432539684  C 0.986733326736111 8.556049371693122  1.020370365972222 8.554497347883599  1.0538666666666665 8.554497361111114  C 1.0876444444444444 8.554497361111114  1.121422222222222 8.556049384920637  1.1551999999999998 8.559153432539684  C 1.1884148104166667 8.56253967592593  1.2216296274305556 8.567619041005294  1.2548444510416665 8.57439152777778  C 1.2880592614583333 8.580881832010585  1.320711111111111 8.58906525793651  1.3527999999999998 8.598941805555556  C 1.385170365972222 8.608818353174604  1.4169777711805553 8.620105826719577  1.4482222156249998 8.632804226190476  C 1.479185182986111 8.645784821428572  1.509585182986111 8.660317453703705  1.539422215625 8.676402123015874  C 1.5692592482638885 8.692204596560847  1.5982518430555552 8.709559093915345  1.6263999999999996 8.728465615079365  C 1.6545481437499998 8.747089953703705  1.6815703659722219 8.767125224867726  1.7074666666666667 8.78857142857143  C 1.7336444444444443 8.810299828042332  1.7585555555555554 8.833015879629633  1.7821999999999996 8.856719583333334  C 1.8061259215277776 8.880705469576721  1.8287851829861113 8.905820105820109  1.8501777843749998 8.932063492063493  C 1.8715703725694446 8.958024695767197  1.8916962940972224 8.985114642857145  1.9105555489583332 9.013333333333334  C 1.9291333267361106 9.041552023809526  1.9464444378472223 9.070476183862436  1.9624888822916666 9.100105813492064  C 1.9782518496527777 9.130017625661377  1.9926074052083336 9.160634914021164  2.005555548958333 9.191957678571429  C 2.0185036927083333 9.2229982473545  2.0297629541666664 9.254744279100532  2.039333333333333 9.287195773809525  C 2.0494666666666665 9.31964726851852  2.0577703725694443 9.352522043650794  2.0642444510416667 9.38582009920635  C 2.0707185295138886 9.418835972222222  2.0756444510416667 9.452134034391534  2.0790222156250002 9.485714285714286  Z M 16.497488882291666 3.498412698412698  C 16.50086666006944 3.5322751322751316  16.502555548958334 3.565996474867724  16.502555548958334 3.599576726190476  C 16.502555548958334 3.6334391600529106  16.50086666006944 3.6673015939153437  16.497488882291666 3.7011640277777778  C 16.49411110451389 3.734462083333334  16.489185182986112 3.7677601388888893  16.48271111770833 3.8010581944444444  C 16.47595556215278 3.83435625  16.467792594791668 3.8670899404761903  16.458222215625 3.899259265873016  C 16.448370359375 3.9317107605820105  16.436970359375 3.963597883597884  16.424022215624998 3.9949206349206348  C 16.411074071875 4.025961203703703  16.396718516319446 4.056437394179894  16.380955548958333 4.086349206349206  C 16.36491110451389 4.116261018518519  16.347459254861107 4.145185178571429  16.328599999999998 4.173121686507936  C 16.31002222222222 4.2013403769841275  16.290037039236108 4.228571421957672  16.268644451041666 4.254814821428571  C 16.24725186284722 4.280776025132276  16.224733339930555 4.305749570105821  16.201088882291668 4.329735456349207  C 16.176881470486112 4.353721342592594  16.151829620833336 4.376296296296297  16.125933333333332 4.397460317460318  C 16.099755555555557 4.419188716931218  16.072592594791665 4.439365085978836  16.044444451041667 4.457989424603175  C 16.016296307291668 4.476895945767197  15.98744445104167 4.494391534391536  15.957888882291666 4.51047619047619  C 15.928051849652778 4.526278664021165  15.897651849652778 4.540670198412698  15.866688882291665 4.553650793650793  C 15.835444437847224 4.566631388888889  15.80363703263889 4.577918869047619  15.771266666666667 4.587513234126984  C 15.73917777777778 4.597389781746032  15.706525928125002 4.6057142923280425  15.673311117708332 4.612486765873016  C 15.640096307291666 4.61897707010582  15.606740751736112 4.623915343915344  15.573244451041667 4.627301587301588  C 15.539466673263894 4.630687830687831  15.50582963402778 4.632380952380953  15.472333333333333 4.632380952380953  C 15.438555555555556 4.632380952380953  15.404918516319446 4.630687830687831  15.371422215625001 4.627301587301588  C 15.337644437847224 4.623915343915344  15.304288882291669 4.61897707010582  15.271355548958333 4.612486765873016  C 15.238422215624999 4.605714279100529  15.205770365972223 4.59753085978836  15.173399999999999 4.587936507936508  C 15.14102963402778 4.578059960317461  15.109362967361111 4.566631388888889  15.0784 4.553650793650793  C 15.047155555555555 4.540670198412698  15.016614817013888 4.526278664021165  14.986777784375 4.51047619047619  C 14.956940751736113 4.494391534391535  14.928088895486114 4.476895945767196  14.900222215625 4.457989424603175  C 14.872074071875002 4.439365085978836  14.844911111111113 4.419329808201058  14.818733333333334 4.397883591269841  C 14.792837032638888 4.3764373875661375  14.767925921527778 4.353862433862434  14.744 4.33015873015873  C 14.720074078472223 4.305890648148148  14.697555562152779 4.280776011904763  14.676444451041668 4.254814821428571  C 14.654770372569446 4.228571435185185  14.634644444444445 4.201340390211641  14.616066666666669 4.173121686507936  C 14.597207411805556 4.144902996031746  14.579896300694449 4.1159788359788365  14.564133333333334 4.086349206349206  C 14.548088888888891 4.056437394179894  14.533592594791669 4.025961203703703  14.520644451041669 3.9949206349206348  C 14.507696307291669 3.963597883597884  14.496437045833337 3.9317107605820105  14.486866666666668 3.899259265873016  C 14.477014810416671 3.8670899537037036  14.468711104513892 3.834356263227513  14.461955548958336 3.8010581944444444  C 14.455481470486115 3.767760138888889  14.450555548958336 3.734320985449735  14.447177784375004 3.700740734126984  C 14.444081483680561 3.6668783002645493  14.442533333333339 3.633156964285714  14.442533333333337 3.5995767261904756  C 14.442533333333339 3.565714292328042  14.444081483680561 3.5318518584656076  14.447177784375004 3.497989424603174  C 14.450555562152783 3.4646913690476184  14.455481483680558 3.431393306878306  14.461955548958336 3.3980952380952374  C 14.468711104513892 3.3650793650793642  14.477014810416671 3.3323456812169305  14.486866666666668 3.2998941865079354  C 14.496437032638891 3.267442691798941  14.507696294097224 3.2355555621693117  14.520644451041669 3.2042327976190466  C 14.533592594791669 3.173192228835978  14.548088888888891 3.142716038359788  14.564133333333334 3.1128042261904754  C 14.579896300694449 3.082892414021163  14.597207411805556 3.0539682539682533  14.616066666666669 3.026031746031745  C 14.634644444444445 2.9978130555555547  14.654629627430557 2.970582017195766  14.676022215625002 2.9443386309523802  C 14.697414803819447 2.918377427248676  14.720074065277782 2.8934038822751305  14.744 2.8694179960317445  C 14.76792592152778 2.8454321097883586  14.792837032638891 2.8228571494708983  14.818733333333334 2.801693115079364  C 14.844911111111113 2.779964715608465  14.872074071875002 2.759788353174602  14.900222215625 2.7411640277777765  C 14.928370359375004 2.7222575066137553  14.957222215625002 2.704903009259258  14.986777784375 2.6891005357142843  C 15.016614817013894 2.673015879629628  15.047155555555557 2.6584832473544964  15.0784 2.6455026388888876  C 15.109362967361113 2.632522043650792  15.141029634027781 2.621234570105818  15.173399999999999 2.6116402182539664  C 15.205770365972223 2.6017636706349183  15.238422215624999 2.5934391534391517  15.271355548958333 2.586666666666665  C 15.304570359374999 2.580176362433861  15.337925914930556 2.575238088624337  15.371422215625001 2.5718518452380934  C 15.405199993402778 2.568747784391533  15.438977771180559 2.567195760582009  15.472755548958334 2.567195773809522  C 15.50625184965278 2.567195773809522  15.539748150347226 2.568747797619046  15.573244451041667 2.5718518452380934  C 15.607022228819444 2.575238088624337  15.640377784375001 2.580176362433861  15.673311117708332 2.586666666666665  C 15.706525928125002 2.5934391534391517  15.73917777777778 2.6017636706349183  15.771266666666667 2.6116402182539664  C 15.80363703263889 2.621234570105818  15.835444437847224 2.632522043650792  15.866688882291665 2.6455026388888876  C 15.897651849652778 2.6584832341269826  15.928051849652778 2.6730158664021153  15.957888882291666 2.6891005357142843  C 15.987725914930559 2.704903009259258  16.016577771180557 2.722257506613756  16.044444451041667 2.7411640277777765  C 16.072592594791665 2.7597883664021152  16.099755555555557 2.7798236375661367  16.125933333333332 2.80126984126984  C 16.15182963402778 2.8227160449735433  16.17674074513889 2.8454320965608453  16.200666666666663 2.8694179960317445  C 16.224592588194444 2.8934038822751305  16.247111104513888 2.918377427248676  16.268222215625 2.9443386309523802  C 16.289896294097222 2.970582017195766  16.31002222222222 2.9978130555555547  16.328599999999998 3.026031746031745  C 16.347459254861107 3.0542504365079353  16.36491110451389 3.0831745965608452  16.380955548958333 3.1128042261904754  C 16.396718516319446 3.142716038359788  16.411074071875 3.173192228835978  16.424022215624998 3.2042327976190466  C 16.436970359375 3.235555548941798  16.44822962083333 3.2674426785714283  16.4578 3.2998941865079354  C 16.46765185625 3.3323456812169305  16.47595556215278 3.3650793650793642  16.48271111770833 3.3980952380952374  C 16.489185196180557 3.431393293650793  16.494111117708332 3.4648324470899468  16.497488882291666 3.498412698412698  Z M 10.525155548958333 1.0184126984126987  C 10.528533326736111 1.0522751322751325  10.530222215624999 1.085996474867725  10.530222215624999 1.119576726190476  C 10.530222215624999 1.15343916005291  10.528533326736111 1.187301593915344  10.525155548958333 1.2211640277777778  C 10.521777771180556 1.2544620833333333  10.516851849652777 1.2877601388888889  10.510377784375 1.3210581944444444  C 10.503622228819445 1.35435625  10.495459261458333 1.3870899404761905  10.485888882291666 1.4192592658730159  C 10.476037026041665 1.4517107605820105  10.464637026041668 1.4835978835978838  10.451688882291668 1.5149206349206348  C 10.43874073854167 1.5459612037037034  10.42438518298611 1.576437394179894  10.408622215625 1.6063492063492064  C 10.392577771180555 1.6362610185185187  10.375125921527777 1.6651851785714284  10.356266666666665 1.6931216865079366  C 10.337688888888886 1.7213403769841271  10.317703705902774 1.7485714219576718  10.296311117708331 1.7748148214285715  C 10.274918529513888 1.8007760251322753  10.252400006597222 1.8257495701058202  10.228755548958333 1.849735456349206  C 10.204548137152779 1.8737213425925927  10.179496287500003 1.8962962962962964  10.153599999999999 1.9174603174603173  C 10.127422222222224 1.939188716931217  10.100259261458334 1.959365085978836  10.072111117708333 1.9779894246031744  C 10.043962973958335 1.9968959457671955  10.015111117708333 2.0143915343915344  9.985555548958333 2.03047619047619  C 9.955718516319443 2.046278664021164  9.925318516319445 2.060670198412698  9.894355548958334 2.0736507936507933  C 9.863111104513889 2.0866313888888888  9.831303699305556 2.0979188690476187  9.798933333333334 2.1075132341269835  C 9.766844444444446 2.1173897817460317  9.734192594791667 2.125714292328042  9.700977784375 2.1324867658730158  C 9.667762973958334 2.13897707010582  9.634407418402777 2.143915343915344  9.600911117708332 2.147301587301587  C 9.567133339930557 2.150687830687831  9.533496300694445 2.1523809523809523  9.5 2.1523809523809523  C 9.466222222222223 2.1523809523809523  9.432585182986113 2.150687830687831  9.399088882291668 2.147301587301587  C 9.36531110451389 2.143915343915344  9.331955548958335 2.13897707010582  9.299022215625001 2.1324867658730158  C 9.266088882291669 2.125714279100529  9.233437032638891 2.11753085978836  9.201066666666668 2.1079365079365076  C 9.168696300694446 2.0980599603174603  9.137029634027778 2.0866313888888888  9.106066666666667 2.0736507936507933  C 9.074822222222222 2.060670198412698  9.044281483680557 2.046278664021164  9.014444451041667 2.03047619047619  C 8.984607418402781 2.0143915343915344  8.95575556215278 1.9968959457671955  8.927888882291668 1.9779894246031744  C 8.899740738541668 1.959365085978836  8.872577777777778 1.9393298082010582  8.846400000000001 1.917883591269841  C 8.820503699305558 1.8964373875661376  8.795592588194445 1.8737213425925927  8.771666666666668 1.849735456349206  C 8.74774074513889 1.8257495701058202  8.725222228819446 1.8007760251322753  8.704111117708333 1.7748148214285715  C 8.682437039236111 1.7485714351851853  8.662311111111112 1.7213403902116404  8.643733333333333 1.6931216865079366  C 8.624874078472224 1.664902996031746  8.607562967361112 1.6359788359788363  8.591800000000001 1.6063492063492064  C 8.575755555555556 1.5764373941798946  8.561259261458334 1.545961203703704  8.548311117708334 1.5149206349206348  C 8.535362973958334 1.4835978835978838  8.5241037125 1.4517107605820105  8.514533333333334 1.4192592658730159  C 8.504681477083334 1.3870899537037038  8.496377771180557 1.3543562632275132  8.489622215625001 1.3210581944444444  C 8.48314813715278 1.287760138888889  8.478222215625001 1.2543209854497355  8.474844451041667 1.2207407341269843  C 8.471748150347224 1.1868783002645504  8.470200000000002 1.1531569642857145  8.4702 1.1195767261904763  C 8.470200000000002 1.0857142923280425  8.471748150347224 1.0518518584656087  8.474844451041667 1.0179894246031749  C 8.478222228819446 0.9846913690476193  8.483148150347223 0.9513933068783071  8.489622215625001 0.9180952380952384  C 8.496377771180557 0.8850793650793655  8.504681477083334 0.8523456812169317  8.514533333333334 0.8198941865079367  C 8.524103699305556 0.787442691798942  8.535362960763889 0.7555555621693124  8.548311117708334 0.7242327976190478  C 8.561259261458334 0.6931922288359791  8.575755555555556 0.6627160383597885  8.591800000000001 0.6328042261904765  C 8.607562967361112 0.6028924140211643  8.624874078472224 0.5739682539682542  8.643733333333333 0.5460317460317463  C 8.662311111111112 0.5178130555555558  8.682296294097224 0.49058201719576744  8.703688882291669 0.4643386309523811  C 8.725081470486112 0.43837742724867745  8.747740731944445 0.4134038822751325  8.771666666666668 0.3894179960317462  C 8.795592588194445 0.36543210978836005  8.820503699305558 0.34285714947089974  8.846400000000001 0.32169311507936527  C 8.872577777777778 0.2999647156084658  8.899740738541668 0.2797883531746034  8.927888882291668 0.261164027777778  C 8.956037026041669 0.2422575066137568  8.984888882291667 0.22490300925925943  9.014444451041667 0.20910053571428594  C 9.044281483680557 0.19301587962962985  9.074822222222222 0.17848324735449753  9.106066666666667 0.16550263888888905  C 9.137029634027778 0.15252204365079386  9.168696300694446 0.1412345701058203  9.201066666666668 0.13164021825396843  C 9.23343703263889 0.12176367063492086  9.266088882291665 0.11343915343915363  9.299022215625001 0.10666666666666684  C 9.33223702604167 0.1001763624338626  9.365592581597223 0.0952380886243388  9.399088882291668 0.09185184523809539  C 9.432866660069447 0.08874778439153456  9.466644437847224 0.08719576058201076  9.500422215625 0.08719577380952395  C 9.533918516319446 0.087195773809524  9.56741481701389 0.0887477976190478  9.600911117708332 0.09185184523809539  C 9.634688895486113 0.0952380886243388  9.668044451041666 0.1001763624338626  9.700977784375 0.10666666666666684  C 9.734192594791667 0.11343915343915363  9.766844444444446 0.12176367063492081  9.798933333333334 0.1316402182539684  C 9.831303699305558 0.14123457010582025  9.863111104513889 0.15252204365079378  9.894355548958334 0.165502638888889  C 9.925318516319445 0.17848323412698427  9.955718516319445 0.1930158664021166  9.985555548958333 0.20910053571428586  C 10.015392581597222 0.22490300925925943  10.044244437847224 0.24225750661375672  10.072111117708333 0.2611640277777779  C 10.100259261458334 0.2797883664021166  10.127422222222224 0.2998236375661377  10.153599999999999 0.3212698412698414  C 10.179496300694447 0.3427160449735451  10.204407411805557 0.36543209656084674  10.228333333333333 0.3894179960317462  C 10.252259254861114 0.4134038822751325  10.274777771180556 0.43837742724867745  10.295888882291665 0.4643386309523811  C 10.317562960763887 0.49058201719576744  10.337688888888886 0.5178130555555558  10.356266666666665 0.5460317460317463  C 10.375125921527777 0.5742504365079368  10.392577771180555 0.6031745965608468  10.408622215625 0.6328042261904765  C 10.424385182986109 0.6627160383597887  10.438740738541668 0.6931922288359792  10.451688882291668 0.7242327976190478  C 10.464637026041668 0.7555555489417992  10.475896287500001 0.7874426785714289  10.485466666666667 0.8198941865079367  C 10.495318522916667 0.8523456812169317  10.503622228819445 0.8850793650793655  10.510377784375 0.9180952380952384  C 10.516851862847224 0.9513932936507941  10.521777784374999 0.9848324470899474  10.525155548958333 1.0184126984126987  Z M 4.552822215625002 3.4984126984126984  C 4.55619999340278 3.5322751322751325  4.557888882291668 3.5661375661375665  4.5578888822916666 3.5999999999999996  C 4.5578888822916666 3.6338624338624337  4.556199993402778 3.667583776455027  4.5528222156250004 3.7011640277777778  C 4.549725914930558 3.735026461640212  4.544799993402779 3.7684656150793656  4.538044451041667 3.801481488095239  C 4.531570372569446 3.8344973611111115  4.523407405208335 3.867231044973545  4.513555548958335 3.89968253968254  C 4.503703692708335 3.932134034391535  4.492444437847224 3.9638800661375666  4.479777784375002 3.994920634920635  C 4.4668296406250025 4.0262433862433875  4.452333339930557 4.056860667989419  4.436288882291668 4.08677248015873  C 4.420525914930557 4.116684292328044  4.403214803819446 4.14560845899471  4.384355548958335 4.173544980158731  C 4.365496294097224 4.201763670634922  4.3453703725694455 4.228994708994709  4.323977784375002 4.255238095238096  C 4.302585196180558 4.2811992989418  4.280066673263891 4.306172843915345  4.256422215625001 4.330158730158731  C 4.232496294097224 4.354144616402118  4.207444444444446 4.376719570105821  4.1812666666666685 4.397883591269841  C 4.155088888888891 4.4196119907407425  4.128066666666668 4.439929451058202  4.100200000000002 4.458835972222223  C 4.072051856250002 4.477460310846562  4.0430592614583345 4.494814808201059  4.013222215625001 4.510899464285715  C 3.983666660069446 4.526701937830689  3.9532666600694464 4.541093472222223  3.922022215625001 4.554074067460318  C 3.8910592482638897 4.567054662698414  3.8592518430555574 4.578342142857144  3.826600000000001 4.587936507936509  C 3.7945111111111123 4.597813055555556  3.761859261458335 4.606137572751324  3.7286444510416676 4.61291005952381  C 3.6957111177083344 4.619400363756615  3.6623555621527792 4.624338630952382  3.628577784375001 4.627724861111112  C 3.5948000065972234 4.631111104497355  3.561162967361112 4.632804226190477  3.527666666666667 4.632804226190476  C 3.4938888888888897 4.632804226190477  3.4601111111111122 4.631111104497355  3.426333333333334 4.627724861111112  C 3.3931185229166676 4.624338617724868  3.359903705902778 4.619400350529101  3.326688882291667 4.61291005952381  C 3.2934740718750004 4.606137572751324  3.2608222222222225 4.597954146825398  3.228733333333334 4.588359781746033  C 3.196362967361112 4.578483234126985  3.1645555621527786 4.567054662698414  3.1333111177083337 4.554074067460318  C 3.1023481503472228 4.541093472222223  3.071948150347223 4.526701937830689  3.0421111177083335 4.510899464285715  C 3.0122740850694445 4.494814808201059  2.9832814902777782 4.477460310846562  2.955133333333334 4.458835972222223  C 2.9269851895833336 4.439929451058202  2.899962967361111 4.41975308862434  2.874066666666667 4.398306884920635  C 2.8478888888888894 4.376860681216932  2.822977777777778 4.354285720899472  2.7993333333333337 4.330582003968255  C 2.7754074118055554 4.306313921957673  2.7527481503472226 4.281199285714287  2.731355548958333 4.255238095238096  C 2.7099629607638893 4.228994708994709  2.689837039236112 4.201763670634922  2.6709777843749998 4.173544980158731  C 2.652400006597223 4.14532628968254  2.6350888954861116 4.116402123015874  2.6190444510416664 4.08677248015873  C 2.6030000065972225 4.056860667989419  2.5886444510416666 4.0262433862433875  2.5759777843750005 3.994920634920635  C 2.5630296406250004 3.9638800661375666  2.5516296406250003 3.932134034391535  2.541777784375 3.89968253968254  C 2.5319259281250006 3.8672310449735448  2.5237629607638894 3.834497361111111  2.517288882291667 3.801481488095239  C 2.5105333267361116 3.768183432539683  2.5056074052083335 3.7347442791005294  2.5025111177083335 3.7011640277777778  C 2.4991333399305558 3.6673015939153437  2.497444451041667 3.6334391600529106  2.497444451041667 3.599576726190476  C 2.497444451041667 3.5657142923280425  2.4991333399305558 3.53199294973545  2.5025111177083335 3.4984126984126984  C 2.5056074184027772 3.464832447089947  2.510533339930556 3.431534384920635  2.517288882291667 3.398518511904762  C 2.5237629607638894 3.3652204563492063  2.5319259281250006 3.332345681216931  2.541777784375 3.2998941865079363  C 2.5516296406250003 3.2677248743386245  2.5628888954861115 3.235978842592593  2.5755555489583335 3.2046560912698405  C 2.5885036927083336 3.1736155224867724  2.6029999934027783 3.142998234126984  2.6190444510416677 3.112804226190476  C 2.635088895486112 3.0831745965608457  2.6524000065972233 3.054250436507936  2.6709777843750007 3.0260317460317454  C 2.6898370392361124 2.9978130555555547  2.7099629607638898 2.9707231084656076  2.7313555489583337 2.944761904761904  C 2.7527481371527784 2.918518518518518  2.775266660069445 2.8934038822751313  2.798911117708334 2.869417996031745  C 2.8228370392361115 2.845432109788359  2.84788888888889 2.822857149470899  2.8740666666666677 2.8016931150793645  C 2.9002444444444455 2.779964715608465  2.9272666666666676 2.759788353174603  2.9551333333333343 2.741164027777777  C 2.9832814770833345 2.722257506613756  3.0122740718750007 2.7049030092592585  3.042111117708334 2.689100535714285  C 3.0716666732638895 2.673015879629629  3.10206667326389 2.658483247354497  3.133311117708334 2.645502638888888  C 3.1645555621527786 2.632522043650793  3.1963629673611123 2.6212345701058193  3.2287333333333343 2.6116402182539673  C 3.2608222222222234 2.6017636706349196  3.293474071875001 2.5934391534391525  3.3266888822916676 2.5866666666666656  C 3.3599036927083348 2.5801763624338614  3.3932592482638904 2.575238088624338  3.426755548958335 2.571851845238094  C 3.4605333267361122 2.5687477843915336  3.4943111045138906 2.5671957605820097  3.528088882291668 2.5671957738095226  C 3.561585182986113 2.5671957738095226  3.5950814836805574 2.5687477976190465  3.6285777843750013 2.571851845238094  C 3.6623555621527797 2.575238088624338  3.6957111177083353 2.5801763624338614  3.728644451041668 2.5866666666666656  C 3.7618592614583353 2.5934391534391525  3.794511111111113 2.6017636706349196  3.8266000000000013 2.6116402182539673  C 3.858970365972224 2.6212345701058193  3.890777771180557 2.632522043650793  3.9220222156250015 2.645502638888888  C 3.952985182986113 2.658483234126983  3.9833851829861127 2.6730158664021157  4.013222215625001 2.689100535714285  C 4.043059248263891 2.7049030092592585  4.072051843055558 2.7222575066137567  4.100200000000002 2.741164027777777  C 4.128348143750002 2.7597883664021157  4.155370365972224 2.7798236375661367  4.1812666666666685 2.8012698412698405  C 4.207444444444447 2.8227160449735447  4.232496294097225 2.845432096560846  4.256422215625002 2.869417996031745  C 4.280066660069447 2.8934038822751313  4.302585182986114 2.918518518518518  4.323977784375002 2.944761904761904  C 4.345370372569446 2.9707231084656076  4.365496294097224 2.9978130555555547  4.384355548958335 3.0260317460317454  C 4.403214803819448 3.054250436507936  4.4205259149305585 3.0831745965608457  4.436288882291669 3.112804226190476  C 4.452333326736114 3.1427160383597883  4.466688882291669 3.1733333267195762  4.479355548958336 3.2046560912698405  C 4.492303692708336 3.2356966600529096  4.503703692708337 3.267442691798941  4.513555548958336 3.2998941865079363  C 4.523407405208335 3.332345681216931  4.531570372569448 3.3652204563492067  4.538044451041669 3.398518511904762  C 4.5448000065972245 3.431534384920635  4.549725928125003 3.464832447089947  4.552822215625002 3.4984126984126984  Z M 9.205288882291667 3.3980952380952383  C 6.018355548958333 3.546243392857143  3.414511097916667 6.207407400793651  3.3224666666666667 9.404444444444445  C 3.261666666666667 11.518730158730161  4.260644451041667 13.398518511904761  5.823711117708334 14.559576726190478  C 6.437622235416667 15.015449742063494  6.872088902083333 15.67195767857143  6.997488882291667 16.427513234126984  L 7.027888882291667 16.608677242063493  L 11.972111117708334 16.608677242063493  L 12.001666666666665 16.428359781746032  C 12.128333333333332 15.669841269841271  12.567444451041666 15.012910039682541  13.183888882291667 14.554074067460318  C 14.697555548958332 13.426031746031747  15.680066666666665 11.623280416666669  15.680066666666665 9.586878313492065  C 15.680066666666665 6.067301587301587  12.752377784374998 3.2334391666666673  9.205288882291667 3.3985185119047627  Z M 10.775111117708333 14.983280416666666  L 8.225733333333334 14.983280416666666  C 8.14776296736111 14.820740734126986  8.05923703923611 14.661728392857142  7.960155548958332 14.50624339285714  C 7.651651849652778 14.021728406084657  7.261237039236112 13.60409171957672  6.7889111177083326 13.253333333333332  C 6.198644451041666 12.815096997354496  5.740674078472221 12.26864197089947  5.414999999999998 11.613968253968252  C 5.078348143749998 10.937566137566137  4.920999993402776 10.216578485449737  4.942955548958333 9.451005297619046  C 4.959844437847221 8.876190482804233  5.0845407385416665 8.32282187169312  5.3170444510416655 7.7908994642857134  C 5.544200006597221 7.271675482804232  5.858614817013888 6.806913578042328  6.260288882291665 6.39661375  C 6.661681470486109 5.986596117724867  7.119088882291665 5.663068783068782  7.632511117708331 5.426031746031745  C 8.15860000659722 5.183350965608465  8.707911117708333 5.0486066997354495  9.280444451041665 5.021798948412698  C 9.92391111770833 4.9918871362433865  10.541340745138887 5.090652566137567  11.13273333333333 5.318095238095237  C 11.701888888888888 5.537072314814814  12.208274071874998 5.859329808201058  12.651888882291663 6.284867718253967  C 13.094377771180556 6.709841263227513  13.437503699305555 7.202257493386242  13.681266666666664 7.762116408730158  C 13.932911111111112 8.3405996494709  14.058733333333333 8.948853617724867  14.05873333333333 9.586878313492063  C 14.058733333333333 10.32423281084656  13.891955555555553 11.017566144179895  13.558399999999999 11.666878313492063  C 13.234696300694445 12.296719583333333  12.787422228819445 12.824268082010581  12.216577784374998 13.249523809523811  C 11.744251862847223 13.601128743386246  11.353696307291665 14.018059960317462  11.044911117708331 14.50031746031746  C 10.94414075173611 14.657777777777778  10.854066673263889 14.818765429894182  10.774688882291665 14.983280416666666  Z M 9.5 19.912804226190474  C 10.344444451041666 19.912804226190474  11.068133333333334 19.402751309523808  11.386066666666668 18.67386244047619  L 7.6139333333333346 18.673862440476192  C 7.940951223518527 19.426134520953408  8.681447799645928 19.91272686366401  9.5 19.91322751984127  Z M 8.360000000000001 7.866666666666667  C 8.520132836869635 7.86670203719809  8.6652349196212 7.9612464811379935  8.730288882291665 8.107936507936508  L 9.474666666666668 9.784973551587301  C 9.479757153202518 9.796419575004084  9.491088081542168 9.803792201921453  9.503588892187501 9.803792201921453  C 9.516089702832831 9.803792201921453  9.52742063117248 9.796419575004084  9.532511117708331 9.784973551587301  L 10.308977784375 8.10243386904762  C 10.37521289400928 7.9588693781789726  10.518530000334556 7.866883516441283  10.67631111770833 7.866666666666666  L 11.526666666666667 7.866666666666666  C 11.750444451041666 7.866666666666666  11.932 8.04867724206349  11.932 8.273015873015874  L 11.932 10.812698412698413  C 11.932 11.037037043650793  11.750444451041668 11.21904761904762  11.526666666666667 11.21904761904762  L 11.389022215625001 11.21904761904762  C 11.118799993402778 11.219047619047622  11.65924443784722 11.21904761904762  11.389022215625001 11.21904761904762  C 11.165162797026918 11.21904761904762  10.983688882291666 11.037118882470926  10.983688882291666 10.812698412698413  L 10.983688882291666 8.553650793650794  C 10.98322055655548 8.539971650212642  10.972023437585712 8.529125132407131  10.958370457366573 8.529125132407131  C 10.948984149640385 8.529125132407131  10.940367156792634 8.534327944804568  10.935977784375 8.542645496031746  L 10.084355548958335 10.331005297619049  C 10.017035244203635 10.472201341753545  9.874816174502815 10.562093062809929  9.718711117708335 10.56211640873016  L 9.26186666666667 10.56211640873016  C 9.105167552265238 10.562186640659998  8.962464583772414 10.47170244501785  8.895377784375 10.329735456349207  L 8.050511117708334 8.542645496031746  C 8.046121751633475 8.534327925254775  8.03750474812822 8.529125097188068  8.028118426130849 8.529125097188068  C 8.014465432280138 8.529125097188068  8.003268307270483 8.5399716359035  8.0028 8.553650793650794  L 8.0028 10.812698412698413  C 8.0028 11.037037043650793  7.821244451041668 11.21904761904762  7.597466666666668 11.21904761904762  L 7.473333333333334 11.21904761904762  C 7.24947391473525 11.21904761904762  7.068 11.037118882470926  7.068 10.812698412698413  L 7.068 8.273015873015874  C 7.068 8.048677242063492  7.249555548958334 7.866666666666667  7.473333333333334 7.866666666666667  L 8.360000000000001 7.866666666666667  Z " fill-rule="nonzero" fill="#000000" stroke="none" transform="matrix(1 0 0 1 1159 238 )" />
  </g>
</svg>