<?xml version="1.0" encoding="utf-8"?>
<svg version="1.1" xmlns:xlink="http://www.w3.org/1999/xlink" width="817px" height="80px" xmlns="http://www.w3.org/2000/svg">
  <g transform="matrix(1 0 0 1 -3009 -1358 )">
    <path d="M 3010 1368  A 9 9 0 0 1 3019 1359 L 3816 1359  A 9 9 0 0 1 3825 1368 L 3825 1428  A 9 9 0 0 1 3816 1437 L 3019 1437  A 9 9 0 0 1 3010 1428 L 3010 1368  Z " fill-rule="nonzero" fill="#f7f7f7" stroke="none" />
    <path d="M 3009.5 1368  A 9.5 9.5 0 0 1 3019 1358.5 L 3816 1358.5  A 9.5 9.5 0 0 1 3825.5 1368 L 3825.5 1428  A 9.5 9.5 0 0 1 3816 1437.5 L 3019 1437.5  A 9.5 9.5 0 0 1 3009.5 1428 L 3009.5 1368  Z " stroke-width="1" stroke-dasharray="9,4" stroke="#d7d7d7" fill="none" stroke-dashoffset="0.5" />
  </g>
</svg>