<?xml version="1.0" encoding="utf-8"?>
<svg version="1.1" xmlns:xlink="http://www.w3.org/1999/xlink" width="30px" height="30px" xmlns="http://www.w3.org/2000/svg">
  <g transform="matrix(1 0 0 1 -5572 -1254 )">
    <path d="M 29.05455845424107 15  C 29.05455845424107 13.10306919642857  28.682843889508927 11.262388392857142  27.949710518973216 9.5290283203125  C 27.24178292410714 7.855308314732141  26.228529575892857 6.352347237723214  24.938106863839284 5.061924525669642  C 23.647684151785715 3.7715018136160707  22.144723074776785 2.7582484654017856  20.4709716796875 2.0503208705357134  C 18.737611607142856 1.3171561104910707  16.896930803571426 0.9454101562499995  15 0.9454101562499995  C 13.10306919642857 0.9454101562499995  11.262388392857142 1.3171561104910712  9.5290283203125 2.0502894810267858  C 7.855308314732141 2.758217075892857  6.352347237723214 3.771470424107142  5.061924525669642 5.061893136160713  C 3.7715018136160707 6.352315848214287  2.7582484654017856 7.8552769252232135  2.0503208705357134 9.52899693080357  C 1.3171561104910707 11.262388392857142  0.9454101562499995 13.10306919642857  0.9454101562499995 15  C 0.9454101562499995 16.896930803571426  1.3171561104910707 18.737611607142856  2.050289481026785 20.4709716796875  C 2.7582170758928566 22.14469168526786  3.771470424107142 23.647652762276785  5.061893136160713 24.938106863839284  C 6.3523158482142845 26.228529575892857  7.8552769252232135 27.24181431361607  9.52899693080357 27.949710518973216  C 11.262357003348216 28.682843889508927  13.10306919642857 29.054589843749998  14.999968610491074 29.054589843749998  C 16.896868024553573 29.054589843749998  18.73758021763393 28.682843889508927  20.47094029017857 27.949710518973216  C 22.144660295758932 27.24178292410714  23.647621372767855 26.228529575892857  24.93807547433036 24.938106863839284  C 26.228529575892857 23.647684151785715  27.24178292410714 22.144723074776785  27.949679129464286 20.4709716796875  C 28.682812499999997 18.737611607142856  29.05455845424107 16.896930803571426  29.05455845424107 15  Z M 27.061481584821426 15  C 27.061481584821426 21.650714983258926  21.650714983258926 27.061481584821426  15 27.061481584821426  C 8.34928501674107 27.061481584821426  2.9385184151785713 21.650714983258926  2.9385184151785713 14.999999999999998  C 2.9385184151785713 8.349285016741069  8.34928501674107 2.9385184151785717  15 2.9385184151785717  C 21.650714983258926 2.9385184151785717  27.061481584821426 8.34928501674107  27.061481584821426 15  Z M 23.03571428571429 15  C 23.03571428571429 14.445253208705356  22.642215401785716 13.995535714285715  22.15680803571429 13.995535714285715  L 16.00446428571429 13.995535714285715  L 16.00446428571429 7.843191964285714  C 16.00446428571429 7.357784598214286  15.554746791294642 6.964285714285714  15 6.964285714285714  C 14.445253208705356 6.964285714285714  13.995535714285715 7.357784598214286  13.995535714285715 7.843191964285714  L 13.995535714285715 13.995535714285715  L 7.843191964285714 13.995535714285715  C 7.357784598214286 13.995535714285715  6.964285714285714 14.445253208705356  6.964285714285714 15  C 6.964285714285714 15.554746791294642  7.357784598214286 16.00446428571429  7.843191964285714 16.00446428571429  L 13.995535714285715 16.00446428571429  L 13.995535714285715 22.15680803571429  C 13.995535714285715 22.642215401785716  14.445253208705356 23.03571428571429  15 23.03571428571429  C 15.554746791294642 23.03571428571429  16.00446428571429 22.642215401785716  16.00446428571429 22.15680803571429  L 16.00446428571429 16.00446428571429  L 22.15680803571429 16.00446428571429  C 22.642215401785716 16.00446428571429  23.03571428571429 15.554746791294642  23.03571428571429 15  Z " fill-rule="nonzero" fill="#0fc060" stroke="none" transform="matrix(1 0 0 1 5572 1254 )" />
  </g>
</svg>