<?xml version="1.0" encoding="utf-8"?>
<svg version="1.1" xmlns:xlink="http://www.w3.org/1999/xlink" width="30px" height="30px" xmlns="http://www.w3.org/2000/svg">
  <g transform="matrix(1 0 0 1 -3810 -296 )">
    <path d="M 29.81481482638889 15  C 29.81481482638889 23.181851875  23.181851875 29.81481482638889  15 29.81481482638889  C 6.818148159722222 29.81481482638889  0.18518517361111098 23.181851840277776  0.18518517361111098 15  C 0.18518517361111098 6.818148159722222  6.818148159722222 0.18518517361111098  15 0.18518517361111098  C 23.181851840277776 0.18518517361111098  29.81481482638889 6.8181481250000004  29.81481482638889 15  Z M 2.4074073958333333 15  C 2.4074073958333333 21.95481482638889  8.04518517361111 27.59259260416667  15 27.59259260416667  C 21.95481482638889 27.59259260416667  27.59259260416667 21.95481482638889  27.59259260416667 14.999999999999998  C 27.59259260416667 8.045185173611106  21.95481482638889 2.4074073958333333  15 2.4074073958333333  C 8.04518517361111 2.4074073958333333  2.4074073958333333 8.04518517361111  2.4074073958333333 15  Z M 9.444444444444445 13.88888888888889  C 9.444444444444445 13.88888888888889  9.444444444444445 13.88888888888889  9.444444444444445 14  L 20.555555555555557 14  C 20.555555555555557 13.88888888888889  20.555555555555557 13.88888888888889  20.555555555555557 13.88888888888889  C 21.16920527758977 13.88888888888889  21.666666666666668 14.386350277965786  21.666666666666668 15  C 21.666666666666668 15.613649722034216  21.16920527758977 16.111111111111114  20.555555555555557 16.111111111111114  C 20.555555555555557 16.111111111111114  20.555555555555557 16.111111111111114  20.555555555555557 16  L 9.444444444444445 16  C 9.444444444444445 16.111111111111114  9.444444444444445 16.111111111111114  9.444444444444445 16.111111111111114  C 8.83079472241023 16.111111111111114  8.333333333333334 15.613649722034216  8.333333333333334 15  C 8.333333333333334 14.386350277965786  8.83079472241023 13.88888888888889  9.444444444444445 13.88888888888889  Z " fill-rule="nonzero" fill="#ff6666" stroke="none" transform="matrix(1 0 0 1 3810 296 )" />
  </g>
</svg>