<?xml version="1.0" encoding="utf-8"?>
<svg version="1.1" xmlns:xlink="http://www.w3.org/1999/xlink" width="398px" height="260px" xmlns="http://www.w3.org/2000/svg">
  <g transform="matrix(1 0 0 1 -3009 -547 )">
    <path d="M 3010 557  A 9 9 0 0 1 3019 548 L 3397 548  A 9 9 0 0 1 3406 557 L 3406 797  A 9 9 0 0 1 3397 806 L 3019 806  A 9 9 0 0 1 3010 797 L 3010 557  Z " fill-rule="nonzero" fill="#ffffff" stroke="none" />
    <path d="M 3009.5 557  A 9.5 9.5 0 0 1 3019 547.5 L 3397 547.5  A 9.5 9.5 0 0 1 3406.5 557 L 3406.5 797  A 9.5 9.5 0 0 1 3397 806.5 L 3019 806.5  A 9.5 9.5 0 0 1 3009.5 797 L 3009.5 557  Z " stroke-width="1" stroke-dasharray="9,4" stroke="#e7772d" fill="none" stroke-dashoffset="0.5" />
  </g>
</svg>