<?xml version="1.0" encoding="utf-8"?>
<svg version="1.1" xmlns:xlink="http://www.w3.org/1999/xlink" width="14px" height="20px" xmlns="http://www.w3.org/2000/svg">
  <g transform="matrix(1 0 0 1 -5162 -954 )">
    <path d="M 2.153846153846154 15.555555555555555  C 3.343382538097093 15.555555555555555  4.307692307692308 16.55047833370935  4.307692307692308 17.77777777777778  C 4.307692307692308 19.005077221846207  3.343382538097093 20  2.153846153846154 20  C 0.9643097695952146 20  0 19.005077221846207  0 17.77777777777778  C 0 16.55047833370935  0.9643097695952146 15.555555555555555  2.153846153846154 15.555555555555555  Z M 11.846153846153847 15.555555555555555  C 13.035690230404786 15.555555555555555  14 16.55047833370935  14 17.77777777777778  C 14 19.005077221846207  13.035690230404786 20  11.846153846153847 20  C 10.656617461902908 20  9.692307692307692 19.005077221846207  9.692307692307692 17.77777777777778  C 9.692307692307692 16.55047833370935  10.656617461902908 15.555555555555555  11.846153846153847 15.555555555555555  Z M 2.153846153846154 7.777777777777778  C 3.343382538097093 7.777777777777778  4.307692307692308 8.772700555931571  4.307692307692308 10  C 4.307692307692308 11.22729944406843  3.343382538097093 12.222222222222223  2.153846153846154 12.222222222222223  C 0.9643097695952146 12.222222222222223  0 11.22729944406843  0 10  C 0 8.772700555931571  0.9643097695952146 7.777777777777778  2.153846153846154 7.777777777777778  Z M 11.846153846153847 7.777777777777778  C 13.035690230404786 7.777777777777778  14 8.772700555931571  14 10  C 14 11.22729944406843  13.035690230404786 12.222222222222223  11.846153846153847 12.222222222222223  C 10.656617461902908 12.222222222222223  9.692307692307692 11.22729944406843  9.692307692307692 10  C 9.692307692307692 8.772700555931571  10.656617461902908 7.777777777777778  11.846153846153847 7.777777777777778  Z M 2.153846153846154 0  C 3.343382538097093 0  4.307692307692308 0.9949227781537928  4.307692307692308 2.2222222222222223  C 4.307692307692308 3.4495216662906514  3.343382538097093 4.444444444444445  2.153846153846154 4.444444444444445  C 0.9643097695952146 4.444444444444445  0 3.4495216662906514  0 2.2222222222222223  C 0 0.9949227781537928  0.9643097695952146 0  2.153846153846154 0  Z M 11.846153846153847 0  C 13.035690230404786 0  14 0.9949227781537928  14 2.2222222222222223  C 14 3.4495216662906514  13.035690230404786 4.444444444444445  11.846153846153847 4.444444444444445  C 10.656617461902908 4.444444444444445  9.692307692307692 3.4495216662906514  9.692307692307692 2.2222222222222223  C 9.692307692307692 0.9949227781537928  10.656617461902908 0  11.846153846153847 0  Z " fill-rule="nonzero" fill="#999999" stroke="none" transform="matrix(1 0 0 1 5162 954 )" />
  </g>
</svg>