<?xml version="1.0" encoding="utf-8"?>
<svg version="1.1" xmlns:xlink="http://www.w3.org/1999/xlink" width="17px" height="16px" xmlns="http://www.w3.org/2000/svg">
  <g transform="matrix(1 0 0 1 -1721 -1101 )">
    <path d="M 1729.5 1101  C 1734.26 1101  1738 1104.52  1738 1109  C 1738 1113.48  1734.26 1117  1729.5 1117  C 1724.74 1117  1721 1113.48  1721 1109  C 1721 1104.52  1724.74 1101  1729.5 1101  Z " fill-rule="nonzero" fill="#ffffff" stroke="none" />
    <path d="M 1729.5 1101.5  C 1733.98 1101.5  1737.5 1104.8  1737.5 1109  C 1737.5 1113.2  1733.98 1116.5  1729.5 1116.5  C 1725.02 1116.5  1721.5 1113.2  1721.5 1109  C 1721.5 1104.8  1725.02 1101.5  1729.5 1101.5  Z " stroke-width="1" stroke="#797979" fill="none" />
  </g>
</svg>