<?xml version="1.0" encoding="utf-8"?>
<svg version="1.1" xmlns:xlink="http://www.w3.org/1999/xlink" width="17px" height="20px" xmlns="http://www.w3.org/2000/svg">
  <g transform="matrix(1 0 0 1 -232 -151 )">
    <path d="M 8.224832547169811 4.831905737704918  C 9.366318396226415 4.8688934426229515  10.541182783018867 4.173094262295082  11.224670990566038 3.273811475409836  C 11.862231132075472 2.4343032786885246  12.345267688679247 1.249016393442623  12.17125825471698 0.03954918032786899  C 11.127201650943395 0.11352459016393454  9.909175707547169 0.7936885245901641  9.19926533018868 1.6787090163934428  C 8.55053891509434 2.48125  8.017404481132075 3.6736475409836067  8.224832547169811 4.831905737704918  Z M 16.85684316037736 14.655737704918032  C 16.40024882075472 15.69018442622951  16.18171462264151 16.1540368852459  15.594272405660378 17.0703893442623  C 14.772939858490567 18.351045081967214  13.617561320754719 19.94469262295082  12.185150943396227 19.95608606557377  C 10.912817216981134 19.97030737704918  10.58430424528302 19.10801229508197  8.858182783018869 19.11797131147541  C 7.132061320754719 19.127930327868853  6.770149764150945 19.97315573770492  5.496412735849059 19.96032786885246  C 4.064022405660379 19.946086065573773  2.9698679245283035 18.50895491803279  2.149958726415096 17.22836065573771  C -0.14271580188679073 13.65114754098361  -0.38352240566037565 9.452131147540987  1.0293820754717002 7.218155737704921  C 2.035810141509436 5.633032786885249  3.621360849056606 4.706721311475413  5.112208726415097 4.706721311475413  C 6.629538915094342 4.706721311475413  7.583082547169814 5.559036885245905  8.840100235849059 5.559036885245905  C 10.058126179245285 5.559036885245905  10.800071933962268 4.705286885245905  12.554038915094344 4.705286885245905  C 13.882063679245286 4.705286885245905  15.289415094339626 5.445225409836069  16.291653301886797 6.72584016393443  C 13.007826650943398 8.568504098360659  13.539617924528306 13.370819672131148  16.85682311320755 14.657131147540989  L 16.85682311320755 14.655737704918039  Z " fill-rule="nonzero" fill="#0198e6" stroke="none" transform="matrix(1 0 0 1 232 151 )" />
  </g>
</svg>