<?xml version="1.0" encoding="utf-8"?>
<svg version="1.1" xmlns:xlink="http://www.w3.org/1999/xlink" width="21px" height="20px" xmlns="http://www.w3.org/2000/svg">
  <g transform="matrix(1 0 0 1 -972 -151 )">
    <path d="M 15.798868570696715 11.627735054638793  L 15.79749156454918 11.627735012265912  L 20.876714034836063 11.627735012265912  C 20.91595976434426 11.280617983061187  20.931795743852458 10.926721314117621  20.931795743852458 10.56401112834408  C 20.931795743852458 8.864357973360013  20.468420824795082 7.270467041522143  19.659408175204916 5.897592038899172  C 20.49596170081967 3.7091275769652947  20.466355272540984 1.851509063947681  19.346130928278686 0.7410057315058393  C 18.280988293032784 -0.3030572416648918  15.423624433401637 -0.1335665024312543  12.193770470286884 1.2745625886980751  C 11.954853534836063 1.2569355550381156  11.713871047131144 1.2474440721156086  11.470134461065571 1.2474440721156086  C 7.036745065573768 1.2474440721156086  3.3173523995901615 4.251497972173952  2.2887013954918016 8.299614845403024  C 3.6795146557377034 6.546402623346552  5.142622653688522 5.275222047314612  7.09733494979508 4.349802610675223  C 6.919696423155735 4.513869642355079  5.882783167008195 5.528780200665759  5.707898738729505 5.7009828042695085  C 0.5536274323770466 10.774857629730386  -1.071971637295085 17.40262357824796  0.6775612776639319 19.12464952953968  C 2.0070961290983584 20.43311804998268  4.416232567622949 20.212102120767778  7.183400114754097 18.87787101592737  C 8.4702466352459 19.52329174872567  9.926469430327867 19.88667990059174  11.470134439549177 19.88667990059174  C 15.625361170081966 19.88667990059174  19.14714820389344 17.252793770951865  20.4229783954918 13.585014138342736  L 15.305198720286883 13.585014138342736  C 14.600841313524587 14.864330243925686  13.223798480532786 15.734834702494053  11.642953315573767 15.734834702494053  C 10.06210815061475 15.734834702494053  8.685065317622948 14.864330265112127  7.980707910860652 13.585014138342736  C 7.667430663934422 13.0073896970006  7.4877265850409795 12.344341909355897  7.4877265850409795 11.64332821120761  L 7.4877265850409795 11.627735054638793  L 15.798868570696715 11.627735054638793  Z M 15.444968609631147 9.169441295505983  L 7.4939233063524595 9.169441295505983  C 7.611660473360656 7.111823696209627  9.348799988729509 5.470475349759219  11.469445957991802 5.470475349759219  C 13.590091927254099 5.470475349759219  15.327919967213115 7.111823696209627  15.444968609631147 9.169441295505983  Z M 19.299311471311476 1.7755771793811812  C 20.020881906762295 2.4935399662833433  20.00229182889344 3.8142118128325224  19.385376657786885 5.462339777835328  C 18.328496296106557 3.8752284857362937  16.792405014344265 2.624386807734424  14.978839613729509 1.9104917962009882  C 16.917715908811477 1.0921904937064113  18.494429947745907 0.9837164273765442  19.298622968237705 1.7755771581947415  Z M 2.011227276639344 18.797871334805702  C 1.090674138319672 17.891434842824886  1.3681482786885246 15.98839281347232  2.5537821577868853 13.695522060577305  C 3.291877118852459 15.734834660121173  4.730198339139344 17.44736910730395  6.584386518442623 18.550414855100865  C 4.531215657786885 19.46837670709533  2.8505348790983605 19.624308188037734  2.0105387735655738 18.797871334805702  Z " fill-rule="nonzero" fill="#0198e6" stroke="none" transform="matrix(1 0 0 1 972 151 )" />
  </g>
</svg>