<?xml version="1.0" encoding="utf-8"?>
<svg version="1.1" xmlns:xlink="http://www.w3.org/1999/xlink" width="20px" height="20px" xmlns="http://www.w3.org/2000/svg">
  <g transform="matrix(1 0 0 1 -1003 -151 )">
    <path d="M 5.6918750000000005 1.1156923076923082  C 7.053541666666668 0.48184615384615403  8.478333333333335 0.16123076923076934  9.96625 0.15384615384615385  C 11.752083333333335 0.1390769230769231  13.43 0.5786666666666667  15 1.4726153846153844  C 16.726250000000004 2.4543589743589744  18.035833333333336 3.8170256410256407  18.92875 5.560615384615383  L 10.6475 5.132307692307693  C 9.457083333333335 5.06625641025641  8.363333333333335 5.339076923076923  7.366250000000001 5.950769230769231  C 6.369166666666668 6.562461538461539  5.680833333333335 7.403076923076924  5.3012500000000005 8.472615384615384  L 2.2206250000000005 3.813538461538462  C 3.1731250000000006 2.6488205128205133  4.330208333333334 1.7495384615384622  5.6918750000000005 1.1156923076923082  Z M 0 10.000000000000002  C 0 8.043897435897438  0.5431250000000002 6.2453333333333365  1.629375 4.604307692307692  L 5.390625 11.889846153846156  C 5.926458333333333 12.937641025641026  6.711458333333333 13.73251282051282  7.745625 14.27446153846154  C 8.779791666666668 14.81641025641026  9.869791666666668 14.981333333333335  11.015625 14.76923076923077  L 8.44875 19.725538461538463  C 6.871250000000001 19.48389743589744  5.438958333333335 18.9068717948718  4.151875 17.994461538461543  C 2.864791666666667 17.08205128205129  1.8510416666666674 15.924512820512824  1.1106250000000006 14.521846153846155  C 0.3702083333333335 13.11917948717949  0 11.611897435897438  0 10.000000000000002  Z M 13.694374999999997 6.747076923076923  L 19.330624999999998 6.461538461538462  C 19.762291666666666 7.560615384615385  19.98375 8.698051282051281  19.994999999999997 9.873846153846156  C 20.006249999999994 11.049641025641028  19.82583333333333 12.170461538461538  19.45375 13.236307692307692  C 19.081666666666667 14.302153846153846  18.512500000000003 15.298461538461538  17.74625 16.22523076923077  C 16.979999999999997 17.152  16.064791666666665 17.919384615384615  15.000625 18.527384615384616  C 13.289375 19.50174358974359  11.436666666666666 19.937641025641028  9.442499999999999 19.835076923076922  L 13.962499999999999 12.988923076923076  C 14.617083333333332 12.029333333333334  14.923958333333331 10.965128205128208  14.883124999999996 9.796307692307693  C 14.842291666666663 8.627487179487181  14.446041666666662 7.611076923076925  13.694374999999997 6.747076923076923  Z M 7.616875000000002 7.653538461538464  C 8.275625000000002 7.005333333333334  9.070000000000002 6.681230769230771  10 6.681230769230769  C 10.93 6.681230769230769  11.724375 7.005333333333334  12.383125 7.653538461538462  C 13.041875000000001 8.30174358974359  13.371041666666667 9.083897435897436  13.370625 10  C 13.370208333333336 10.916102564102562  13.041041666666668 11.69825641025641  12.383125000000001 12.346461538461536  C 11.725208333333335 12.994666666666667  10.930833333333334 13.318769230769231  10.000000000000002 13.318769230769231  C 9.069166666666671 13.318769230769234  8.274791666666669 12.99466666666667  7.616875000000002 12.34646153846154  C 6.958958333333333 11.69825641025641  6.629791666666668 10.916102564102562  6.629375000000001 10.000000000000002  C 6.628958333333337 9.08389743589744  6.958125000000004 8.301743589743593  7.616875000000002 7.653538461538464  Z " fill-rule="nonzero" fill="#0198e6" stroke="none" transform="matrix(1 0 0 1 1003 151 )" />
  </g>
</svg>