<?xml version="1.0" encoding="utf-8"?>
<svg version="1.1" xmlns:xlink="http://www.w3.org/1999/xlink" width="22px" height="22px" preserveAspectRatio="xMinYMid meet" viewBox="839 706  22 20" xmlns="http://www.w3.org/2000/svg">
  <defs>
    <mask fill="white" id="clip6116">
      <path d="M 754.16455078125 773  L 783.83544921875 773  L 783.83544921875 798  L 754.16455078125 798  Z M 597 701  L 861 701  L 861 803  L 597 803  Z " fill-rule="evenodd" />
    </mask>
  </defs>
  <path d="M 850.5 715  L 850.5 780  A 5 5 0 0 1 845.5 785.5 L 618 785.5  " stroke-width="3" stroke="#0066ff" fill="none" mask="url(#clip6116)" />
  <path d="M 850.5 712  A 4 4 0 0 0 846.5 716 A 4 4 0 0 0 850.5 720 A 4 4 0 0 0 854.5 716 A 4 4 0 0 0 850.5 712 Z M 627.1 775.5  L 615 785.5  L 627.1 795.5  L 622.2 785.5  L 627.1 775.5  Z " fill-rule="nonzero" fill="#0066ff" stroke="none" mask="url(#clip6116)" />
</svg>