<?xml version="1.0" encoding="utf-8"?>
<svg version="1.1" xmlns:xlink="http://www.w3.org/1999/xlink" width="36px" height="36px" preserveAspectRatio="xMinYMid meet" viewBox="232 409  36 34" xmlns="http://www.w3.org/2000/svg">
  <defs>
    <mask fill="white" id="clip6122">
      <path d="M 334 579  L 446 579  L 446 607  L 334 607  Z M 232 405  L 637 405  L 637 677  L 232 677  Z " fill-rule="evenodd" />
    </mask>
  </defs>
  <path d="M 626.5 663  L 626.5 598  A 5 5 0 0 0 621.5 593.5 L 255 593.5  A 5 5 0 0 1 250.5 588.5 L 250.5 426  " stroke-width="3" stroke="#0066ff" fill="none" mask="url(#clip6122)" />
  <path d="M 626.5 658  A 4 4 0 0 0 622.5 662 A 4 4 0 0 0 626.5 666 A 4 4 0 0 0 630.5 662 A 4 4 0 0 0 626.5 658 Z M 260.5 435.1  L 250.5 423  L 240.5 435.1  L 250.5 430.2  L 260.5 435.1  Z " fill-rule="nonzero" fill="#0066ff" stroke="none" mask="url(#clip6122)" />
</svg>