<?xml version="1.0" encoding="utf-8"?>
<svg version="1.1" xmlns:xlink="http://www.w3.org/1999/xlink" width="91px" height="12px" preserveAspectRatio="xMinYMid meet" viewBox="394 396  91 10" xmlns="http://www.w3.org/2000/svg">
  <defs>
    <mask fill="white" id="clip6125">
      <path d="M 344 386  L 456 386  L 456 414  L 344 414  Z M 297 382  L 496 382  L 496 418  L 297 418  Z " fill-rule="evenodd" />
    </mask>
  </defs>
  <path d="M 482 401.5  L 400.5 401.5  A 0.5 0.5 0 0 1 400.5 401 A 0.5 0.5 0 0 0 400 400.5 L 318 400.5  " stroke-width="3" stroke="#0066ff" fill="none" mask="url(#clip6125)" />
  <path d="M 481 397.5  A 4 4 0 0 0 477 401.5 A 4 4 0 0 0 481 405.5 A 4 4 0 0 0 485 401.5 A 4 4 0 0 0 481 397.5 Z M 327.1 390.5  L 315 400.5  L 327.1 410.5  L 322.2 400.5  L 327.1 390.5  Z " fill-rule="nonzero" fill="#0066ff" stroke="none" mask="url(#clip6125)" />
</svg>