<?xml version="1.0" encoding="utf-8"?>
<svg version="1.1" xmlns:xlink="http://www.w3.org/1999/xlink" width="22px" height="22px" preserveAspectRatio="xMinYMid meet" viewBox="770 679  22 20" xmlns="http://www.w3.org/2000/svg">
  <defs>
    <mask fill="white" id="clip6112">
      <path d="M 722.805908203125 676  L 753.194091796875 676  L 753.194091796875 701  L 722.805908203125 701  Z M 673 671  L 796 671  L 796 707  L 673 707  Z " fill-rule="evenodd" />
    </mask>
  </defs>
  <path d="M 722.805908203125 689.5  L 694 689.5  M 753.194091796875 689.5  L 782 689.5  " stroke-width="3" stroke="#0066ff" fill="none" />
  <path d="M 781 685.5  A 4 4 0 0 0 777 689.5 A 4 4 0 0 0 781 693.5 A 4 4 0 0 0 785 689.5 A 4 4 0 0 0 781 685.5 Z M 703.1 679.5  L 691 689.5  L 703.1 699.5  L 698.2 689.5  L 703.1 679.5  Z " fill-rule="nonzero" fill="#0066ff" stroke="none" mask="url(#clip6112)" />
</svg>