<?xml version="1.0" encoding="utf-8"?>
<svg version="1.1" xmlns:xlink="http://www.w3.org/1999/xlink" width="12px" height="79px" preserveAspectRatio="xMidYMin meet" viewBox="545 520  10 79" xmlns="http://www.w3.org/2000/svg">
  <path d="M 626.5 663  L 626.5 598  A 5 5 0 0 0 621.5 593.5 L 555 593.5  A 5 5 0 0 1 550.5 588.5 L 550.5 523  " stroke-width="3" stroke="#0066ff" fill="none" />
  <path d="M 626.5 658  A 4 4 0 0 0 622.5 662 A 4 4 0 0 0 626.5 666 A 4 4 0 0 0 630.5 662 A 4 4 0 0 0 626.5 658 Z M 560.5 532.1  L 550.5 520  L 540.5 532.1  L 550.5 527.2  L 560.5 532.1  Z " fill-rule="nonzero" fill="#0066ff" stroke="none" />
</svg>