<?xml version="1.0" encoding="utf-8"?>
<svg version="1.1" xmlns:xlink="http://www.w3.org/1999/xlink" width="36px" height="36px" preserveAspectRatio="xMinYMid meet" viewBox="1132 838  36 34" xmlns="http://www.w3.org/2000/svg">
  <path d="M 578.5 470  L 578.5 445.5  A 5 5 0 0 1 583.5 441 L 1145 441  A 5 5 0 0 1 1150.5 446 L 1150.5 855  " stroke-width="3" stroke-dasharray="9,3" stroke="#e7772d" fill="none" />
  <path d="M 578.5 465  A 4 4 0 0 0 574.5 469 A 4 4 0 0 0 578.5 473 A 4 4 0 0 0 582.5 469 A 4 4 0 0 0 578.5 465 Z M 1140.5 845.9  L 1150.5 858  L 1160.5 845.9  L 1150.5 850.8  L 1140.5 845.9  Z " fill-rule="nonzero" fill="#e7772d" stroke="none" />
</svg>