<?xml version="1.0" encoding="utf-8"?>
<svg version="1.1" xmlns:xlink="http://www.w3.org/1999/xlink" width="36px" height="36px" preserveAspectRatio="xMinYMid meet" viewBox="532 358  36 34" xmlns="http://www.w3.org/2000/svg">
  <defs>
    <mask fill="white" id="clip6133">
      <path d="M 413.5 338  L 512.5 338  L 512.5 366  L 413.5 366  Z M 338 338  L 568 338  L 568 396  L 338 396  Z " fill-rule="evenodd" />
    </mask>
  </defs>
  <path d="M 352 352.5  L 545 352.5  A 5 5 0 0 1 550.5 357.5 L 550.5 375  " stroke-width="3" stroke-dasharray="9,3" stroke="#e7772d" fill="none" mask="url(#clip6133)" />
  <path d="M 353 348.5  A 4 4 0 0 0 349 352.5 A 4 4 0 0 0 353 356.5 A 4 4 0 0 0 357 352.5 A 4 4 0 0 0 353 348.5 Z M 540.5 365.9  L 550.5 378  L 560.5 365.9  L 550.5 370.8  L 540.5 365.9  Z " fill-rule="nonzero" fill="#e7772d" stroke="none" mask="url(#clip6133)" />
</svg>