<?xml version="1.0" encoding="utf-8"?>
<svg version="1.1" xmlns:xlink="http://www.w3.org/1999/xlink" width="510px" height="84px" xmlns="http://www.w3.org/2000/svg">
  <defs>
    <mask fill="white" id="clip5704">
      <path d="M 0 71.25925925925925  L 0 10.962962962962962  C 0 9.428148148148143  1.32000000000005 8.222222222222221  3 9  L 31.893203883495175 9  L 40.63106796116506 0.2838307563226526  L 48.39805825242718 9  L 497 9  C 498.68000000000006 8.222222222222221  500 9.428148148148143  500 10.962962962962962  L 500 71.25925925925925  C 500 72.79407407407408  498.68000000000006 74  497 74  L 3 74  C 1.32000000000005 74  0 72.79407407407408  0 71.25925925925925  Z " fill-rule="evenodd" />
    </mask>
    <filter x="695px" y="200px" width="510px" height="84px" filterUnits="userSpaceOnUse" id="filter5705">
      <feOffset dx="0" dy="0" in="SourceAlpha" result="shadowOffsetInner" />
      <feGaussianBlur stdDeviation="2.5" in="shadowOffsetInner" result="shadowGaussian" />
      <feComposite in2="shadowGaussian" operator="atop" in="SourceAlpha" result="shadowComposite" />
      <feColorMatrix type="matrix" values="0 0 0 0 0  0 0 0 0 0  0 0 0 0 0  0 0 0 0.34901960784313724 0  " in="shadowComposite" />
    </filter>
    <g id="widget5706">
      <path d="M 0 71.25925925925925  L 0 10.962962962962962  C 0 9.428148148148143  1.32000000000005 8.222222222222221  3 9  L 31.893203883495175 9  L 40.63106796116506 0.2838307563226526  L 48.39805825242718 9  L 497 9  C 498.68000000000006 8.222222222222221  500 9.428148148148143  500 10.962962962962962  L 500 71.25925925925925  C 500 72.79407407407408  498.68000000000006 74  497 74  L 3 74  C 1.32000000000005 74  0 72.79407407407408  0 71.25925925925925  Z " fill-rule="nonzero" fill="#000000" stroke="none" transform="matrix(1 0 0 1 700 205 )" />
      <path d="M 0 71.25925925925925  L 0 10.962962962962962  C 0 9.428148148148143  1.32000000000005 8.222222222222221  3 9  L 31.893203883495175 9  L 40.63106796116506 0.2838307563226526  L 48.39805825242718 9  L 497 9  C 498.68000000000006 8.222222222222221  500 9.428148148148143  500 10.962962962962962  L 500 71.25925925925925  C 500 72.79407407407408  498.68000000000006 74  497 74  L 3 74  C 1.32000000000005 74  0 72.79407407407408  0 71.25925925925925  Z " stroke-width="2" stroke="#d7d7d7" fill="none" transform="matrix(1 0 0 1 700 205 )" mask="url(#clip5704)" />
    </g>
  </defs>
  <g transform="matrix(1 0 0 1 -695 -200 )">
    <use xlink:href="#widget5706" filter="url(#filter5705)" />
    <use xlink:href="#widget5706" />
  </g>
</svg>