<?xml version="1.0" encoding="utf-8"?>
<svg version="1.1" xmlns:xlink="http://www.w3.org/1999/xlink" width="12px" height="13px" xmlns="http://www.w3.org/2000/svg">
  <g transform="matrix(1 0 0 1 -1208 -1462 )">
    <path d="M 7.395 12.97319587628866  C 7.3500000000000005 12.986597938144328  7.289999999999999 13  7.23 13  C 7.11 13  6.990000000000002 12.95979381443299  6.8999999999999995 12.879381443298968  L 4.5 10.641237113402063  C 4.425000000000001 10.560824742268043  4.380000000000001 10.467010309278352  4.380000000000001 10.359793814432992  L 4.380000000000001 4.543298969072165  L 0.1650000000000002 0.8175257731958765  C 0.03000000000000043 0.6969072164948458  0 0.5360824742268041  0.060000000000000324 0.375257731958763  C 0.13500000000000034 0.22783505154639166  0.3000000000000005 0.12061855670103097  0.4800000000000004 0.12061855670103097  L 11.52 0.12061855670103097  C 11.7 0.12061855670103097  11.864999999999998 0.21443298969072183  11.939999999999998 0.375257731958763  C 12.015 0.5226804123711344  11.969999999999999 0.6969072164948452  11.834999999999997 0.8175257731958765  L 7.68 4.529896907216495  L 7.68 12.597938144329897  C 7.68 12.758762886597939  7.574999999999999 12.90618556701031  7.395 12.97319587628866  Z M 5.294999999999998 10.198969072164948  L 5.280000000000001 10.198969072164948  L 6.780000000000001 11.59278350515464  L 6.780000000000001 4.369072164948454  C 6.780000000000001 4.261855670103094  6.824999999999999 4.154639175257731  6.915000000000002 4.087628865979381  L 10.439999999999998 0.9381443298969071  L 1.589999999999999 0.9381443298969071  L 5.159999999999998 4.087628865979381  C 5.249999999999998 4.168041237113402  5.294999999999998 4.261855670103092  5.294999999999998 4.369072164948454  L 5.294999999999998 10.198969072164948  Z M 11.925 11.123711340206185  C 11.925 11.351546391752578  11.73 11.525773195876289  11.475000000000001 11.525773195876289  L 8.895 11.525773195876289  C 8.64 11.525773195876289  8.445 11.351546391752578  8.445 11.123711340206185  C 8.445 10.895876288659794  8.64 10.721649484536082  8.895 10.721649484536082  L 11.475000000000001 10.721649484536082  C 11.73 10.721649484536082  11.925 10.895876288659794  11.925 11.123711340206185  Z " fill-rule="nonzero" fill="#333333" stroke="none" transform="matrix(1 0 0 1 1208 1462 )" />
  </g>
</svg>