<?xml version="1.0" encoding="utf-8"?>
<svg version="1.1" xmlns:xlink="http://www.w3.org/1999/xlink" width="13px" height="13px" xmlns="http://www.w3.org/2000/svg">
  <g transform="matrix(1 0 0 1 -1487 -1462 )">
    <path d="M 12.954293594907405 12.486372636792451  C 12.954278217592593 12.391024152122641  12.92060505787037 12.298483728773586  12.853181731481481 12.212610465801887  L 9.90478547800926 9.314035326650943  L 9.932423041666665 9.27873850235849  C 10.726383100694443 8.277093086084905  11.163656998842592 7.015961123820754  11.163656998842592 5.728364365566037  C 11.163656998842592 2.6053484882075466  8.66984084837963 0.06425956721698062  5.605382249999999 0.06425956721698062  C 2.539984446759258 0.06425956721698062  0.045690982638888246 2.6053484882075466  0.045690982638888246 5.728364365566037  C 0.045690982638888246 8.851364560141509  2.539984446759259 11.392218162735848  5.605382249999999 11.392218162735848  C 6.948505988425925 11.392218162735848  8.246177859953702 10.89475257429245  9.259252181712963 9.992754012971696  L 9.292494234953704 9.963167438679243  L 12.233823273148149 12.82934794221698  L 12.263308461805554 12.82934794221698  L 12.263785760416665 12.85416552476415  C 12.338230094907404 12.90756569221698  12.42203579861111 12.935709036556602  12.513309024305553 12.935709036556602  C 12.756765892361111 12.935709036556602  12.954293594907405 12.733466074292453  12.954293594907405 12.486372636792451  Z M 10.28025594675926 5.728380063679245  C 10.28025594675926 8.355326534198111  8.182957912037038 10.492180547169811  5.605366857638889 10.492180547169811  C 3.0270521365740746 10.492180547169811  0.9297849016203704 8.355326534198111  0.9297849016203704 5.728380063679245  C 0.9297849016203704 3.1016688962264154  3.0270521365740746 0.9652855200471699  5.605366857638889 0.9652855200471699  C 8.182942519675926 0.9652855200471699  10.28025594675926 3.1016688962264154  10.28025594675926 5.728380063679245  Z " fill-rule="nonzero" fill="#999999" stroke="none" transform="matrix(1 0 0 1 1487 1462 )" />
  </g>
</svg>