<?xml version="1.0" encoding="utf-8"?>
<svg version="1.1" xmlns:xlink="http://www.w3.org/1999/xlink" width="6px" height="6px" xmlns="http://www.w3.org/2000/svg">
  <g transform="matrix(1 0 0 1 -799 -380 )">
    <path d="M 5.300455645161291 1.3641666666666674  C 5.300455645161291 0.9578214285714295  4.976032258064517 0.6385476190476198  4.56313306451613 0.6385476190476191  C 4.1502338709677415 0.6385476190476191  3.8258104838709683 0.9578333333333333  3.8258104838709683 1.3641666666666667  C 3.8258104838709683 1.7705000000000002  4.1502338709677415 2.0897976190476193  4.56313306451613 2.0897976190476193  C 4.976032258064517 2.0897976190476193  5.300455645161291 1.7705119047619051  5.300455645161291 1.3641666666666674  Z M 3.589862903225807 0.37732142857142814  C 3.8553024193548397 0.14511904761904793  4.2092177419354835 0  4.56313306451613 0  C 4.740096774193549 0  4.917048387096774 0.029023809523809722  5.094012096774193 0.11609523809523786  C 5.27096370967742 0.17415476190476178  5.418435483870968 0.29025  5.536403225806453 0.40634523809523754  C 5.654370967741937 0.5224404761904751  5.772350806451613 0.6675714285714278  5.831334677419355 0.84172619047619  C 5.919810483870967 0.9868452380952375  5.949314516129033 1.1609999999999996  5.949314516129033 1.3351428571428565  C 5.949314516129033 1.509285714285714  5.919810483870969 1.6834523809523803  5.831334677419355 1.8575952380952376  C 5.772350806451613 2.03175  5.654383064516129 2.176880952380952  5.536415322580646 2.2929761904761903  C 5.418435483870968 2.4090714285714285  5.27096370967742 2.525166666666667  5.094012096774193 2.5832142857142855  C 4.917048387096774 2.6412738095238093  4.740096774193549 2.699321428571428  4.56313306451613 2.699321428571428  C 4.209217741935484 2.699321428571428  3.8553024193548397 2.554202380952381  3.589862903225807 2.2929761904761903  C 3.3244233870967745 2.03175  3.1769637096774197 1.7124761904761905  3.1769637096774197 1.3351428571428565  C 3.1769637096774197 0.957809523809523  3.3244233870967745 0.6385476190476185  3.589862903225807 0.37732142857142814  Z M 0.9059879032258069 3.9183690476190476  L 0.8175120967741938 3.9183690476190476  C 0.7290362903225805 3.9183690476190476  0.670052419354839 3.9764166666666663  0.670052419354839 4.063488095238096  L 0.670052419354839 5.108392857142858  C 0.670052419354839 5.137416666666668  0.670052419354839 5.166440476190477  0.6995443548387098 5.195464285714286  C 0.6995443548387098 5.2244880952380965  0.7290362903225805 5.2244880952380965  0.7585282258064514 5.253511904761906  C 0.7880201612903222 5.253511904761906  0.8175120967741931 5.282535714285715  0.8470040322580645 5.282535714285715  C 0.8764959677419355 5.282535714285715  0.9059879032258062 5.282535714285715  0.9354798387096779 5.253511904761906  L 1.9087500000000004 4.760095238095239  L 1.9087500000000004 4.440809523809524  L 0.9059879032258069 3.9183690476190476  Z M 0.6110564516129033 3.192738095238096  C 0.6995443548387098 3.192738095238096  0.7880201612903228 3.2217738095238095  0.8764959677419355 3.250797619047619  L 2.4691209677419357 4.034464285714285  L 2.4691209677419357 5.137416666666667  L 0.8764959677419355 5.9210714285714285  C 0.6995443548387098 6.008154761904763  0.49308870967741936 6.008154761904763  0.31612499999999977 5.892047619047619  C 0.13917338709677413 5.804976190476191  0.05068548387096771 5.601809523809524  0.05068548387096771 5.427642857142858  L 0.05068548387096771 3.7732380952380957  C 0.05068548387096771 3.45395238095238  0.31612499999999977 3.19272619047619  0.6110564516129033 3.19272619047619  Z " fill-rule="nonzero" fill="#ffffff" stroke="none" transform="matrix(1 0 0 1 799 380 )" />
  </g>
</svg>