<?xml version="1.0" encoding="utf-8"?>
<svg version="1.1" xmlns:xlink="http://www.w3.org/1999/xlink" width="50px" height="10px" preserveAspectRatio="xMinYMid meet" viewBox="1950 320  50 8" xmlns="http://www.w3.org/2000/svg">
  <path d="M 1952 324  L 1990 324  A 5 5 0 0 1 1995 329 L 1995 395  A 5 5 0 0 0 2000 400 L 2038 400  " stroke-width="2" stroke="#0066ff" fill="none" />
  <path d="M 1953.5 320.5  A 3.5 3.5 0 0 0 1950 324 A 3.5 3.5 0 0 0 1953.5 327.5 A 3.5 3.5 0 0 0 1957 324 A 3.5 3.5 0 0 0 1953.5 320.5 Z M 2030.6 408  L 2040 400  L 2030.6 392  L 2034.2 400  L 2030.6 408  Z " fill-rule="nonzero" fill="#0066ff" stroke="none" />
</svg>