<?xml version="1.0" encoding="utf-8"?>
<svg version="1.1" xmlns:xlink="http://www.w3.org/1999/xlink" width="34px" height="34px" preserveAspectRatio="xMinYMid meet" viewBox="2021 570  34 32" xmlns="http://www.w3.org/2000/svg">
  <path d="M 1940 374  L 1975 374  A 5 5 0 0 1 1980 379 L 1980 581  A 5 5 0 0 0 1985 586 L 2038 586  " stroke-width="2" stroke="#0066ff" fill="none" />
  <path d="M 1941.5 370.5  A 3.5 3.5 0 0 0 1938 374 A 3.5 3.5 0 0 0 1941.5 377.5 A 3.5 3.5 0 0 0 1945 374 A 3.5 3.5 0 0 0 1941.5 370.5 Z M 2030.6 594  L 2040 586  L 2030.6 578  L 2034.2 586  L 2030.6 594  Z " fill-rule="nonzero" fill="#0066ff" stroke="none" />
</svg>