<?xml version="1.0" encoding="utf-8"?>
<svg version="1.1" xmlns:xlink="http://www.w3.org/1999/xlink" width="34px" height="34px" preserveAspectRatio="xMinYMid meet" viewBox="2323 654  34 32" xmlns="http://www.w3.org/2000/svg">
  <path d="M 2220 634  L 2220 648  A 5 5 0 0 0 2225 653 L 2335 653  A 5 5 0 0 1 2340 658 L 2340 670  " stroke-width="2" stroke="#0066ff" fill="none" />
  <path d="M 2220 632  A 3.5 3.5 0 0 0 2216.5 635.5 A 3.5 3.5 0 0 0 2220 639 A 3.5 3.5 0 0 0 2223.5 635.5 A 3.5 3.5 0 0 0 2220 632 Z M 2332 662.6  L 2340 672  L 2348 662.6  L 2340 666.2  L 2332 662.6  Z " fill-rule="nonzero" fill="#0066ff" stroke="none" />
</svg>