<?xml version="1.0" encoding="utf-8"?>
<svg version="1.1" xmlns:xlink="http://www.w3.org/1999/xlink" width="6px" height="7px" xmlns="http://www.w3.org/2000/svg">
  <g transform="matrix(1 0 0 1 -764 -379 )">
    <path d="M 5.997714285714286 2.8993066666666665  L 5.991619047619048 2.8993066666666665  C 5.40952380952381 2.8993066666666665  4.845714285714287 2.7141333333333333  4.379428571428573 2.3736533333333334  L 4.379428571428573 4.762986666666668  C 4.379428571428573 5.9815466666666675  3.419428571428572 6.970133333333334  2.236952380952382 6.970133333333334  C 1.0544761904761921 6.970133333333334  0.09447619047619225 5.9815466666666675  0.09447619047619225 4.762986666666668  C 0.09447619047619225 3.5444266666666677  1.0544761904761921 2.555840000000001  2.236952380952382 2.555840000000001  C 2.355809523809525 2.555840000000001  2.4716190476190487 2.5648000000000013  2.5813333333333346 2.585706666666668  L 2.5813333333333346 3.8490666666666664  C 2.4746666666666686 3.8072533333333336  2.3588571428571443 3.7863466666666667  2.246095238095239 3.7863466666666667  C 1.7188571428571437 3.7863466666666667  1.289142857142858 4.225386666666665  1.289142857142858 4.771946666666667  C 1.289142857142858 5.318506666666668  1.7188571428571437 5.757546666666667  2.246095238095239 5.757546666666667  C 2.7733333333333343 5.757546666666667  3.2000000000000006 5.318506666666668  3.2000000000000006 4.771946666666667  L 3.2000000000000006 0.02613333333333344  L 4.394666666666668 0.02613333333333344  C 4.394666666666668 0.9400533333333336  5.113904761904761 1.67776  5.997714285714286 1.67776  L 5.997714285714286 2.8993066666666665  Z " fill-rule="nonzero" fill="#ffffff" stroke="none" transform="matrix(1 0 0 1 764 379 )" />
  </g>
</svg>