<?xml version="1.0" encoding="utf-8"?>
<svg version="1.1" xmlns:xlink="http://www.w3.org/1999/xlink" width="5px" height="7px" xmlns="http://www.w3.org/2000/svg">
  <g transform="matrix(1 0 0 1 -800 -380 )">
    <path d="M 3.864799107142858 4.188735915492957  L 2.2865624999999996 4.188735915492957  C 1.9872433035714283 4.188735915492957  1.7423437499999996 4.459160211267605  1.7423437499999996 4.789676056338028  L 1.7423437499999996 5.7211197183098585  C 1.7423437499999996 6.051647887323943  1.9872433035714283 6.32205985915493  2.2865624999999996 6.32205985915493  L 3.864799107142857 6.32205985915493  C 4.164118303571428 6.32205985915493  4.4090178571428575 6.051647887323943  4.4090178571428575 5.7211320422535215  L 4.4090178571428575 4.7896760563380285  C 4.4090178571428575 4.459147887323943  4.164118303571429 4.188735915492957  3.864799107142858 4.188735915492957  Z M 2.2593526785714286 3.5577500000000013  L 3.864799107142857 3.55775  C 4.164118303571428 3.55775  4.436227678571428 3.6779330985915486  4.626696428571427 3.9183116197183097  C 4.817176339285713 4.128644366197182  4.953236607142856 4.459160211267605  4.953236607142856 4.759630281690141  L 4.953236607142856 5.7211320422535215  C 4.953236607142856 6.051647887323943  4.844386160714285 6.35211795774648  4.626696428571427 6.56243838028169  C 4.436227678571427 6.7727711267605635  4.136908482142856 6.922999999999999  3.864799107142857 6.922999999999999  L 2.2593526785714286 6.922999999999999  C 1.9600334821428569 6.922999999999999  1.6879241071428572 6.802816901408451  1.4974441964285714 6.56243838028169  C 1.3069754464285714 6.352117957746478  1.1709151785714285 6.021602112676057  1.1709151785714285 5.7211320422535215  L 1.1709151785714285 4.75961795774648  C 1.1709151785714285 4.429102112676058  1.2797656249999998 4.128632042253521  1.4974441964285714 3.9183116197183114  C 1.6879241071428572 3.7079788732394374  1.9872433035714288 3.5577500000000013  2.2593526785714286 3.5577500000000013  Z M 1.5518749999999994 0.7032781690140841  C 1.225334821428571 0.7032781690140841  0.9532366071428567 0.883577464788732  0.7899665178571423 1.1840352112676051  C 0.6266964285714278 1.484505281690141  0.6266964285714278 1.8450669014084498  0.7899665178571423 2.1455492957746474  C 0.9532366071428567 2.4460316901408445  1.2253459821428565 2.6262940140845066  1.5518749999999994 2.6262940140845066  C 2.0416629464285707 2.6262940140845066  2.422622767857143 2.20562852112676  2.422622767857143 1.6647799295774646  C 2.422622767857143 1.3943679577464785  2.313772321428571 1.153989436619718  2.1505133928571434 0.9737147887323943  C 2.0144642857142863 0.7934278169014081  1.7695535714285717 0.7032904929577466  1.5518750000000006 0.7032904929577466  Z M 0.08247767857142843 1.664792253521127  C 0.08247767857142843 0.7633820422535216  0.7355468749999996 0.042258802816901433  1.5518749999999994 0.042258802816901087  C 2.3681919642857134 0.042258802816901087  3.0212611607142845 0.7633820422535209  3.0212611607142845 1.664792253521127  C 3.0212611607142845 2.566202464788733  2.3681919642857148 3.287325704225352  1.5518750000000001 3.287325704225352  C 0.7355468749999996 3.287325704225352  0.08247767857142843 2.5662024647887325  0.08247767857142843 1.664792253521127  Z " fill-rule="nonzero" fill="#ffffff" stroke="none" transform="matrix(1 0 0 1 800 380 )" />
  </g>
</svg>