<?xml version="1.0" encoding="utf-8"?>
<svg version="1.1" xmlns:xlink="http://www.w3.org/1999/xlink" width="12px" height="12px" xmlns="http://www.w3.org/2000/svg">
  <g transform="matrix(1 0 0 1 -1695 -485 )">
    <path d="M 11.95780947222222 11.525882433962263  C 11.957795277777779 11.437868448113207  11.926712361111111 11.352446518867925  11.864475444444444 11.273178891509435  L 9.142878902777777 8.597571070754718  L 9.1683905 8.564989386792453  C 9.901276708333333 7.640393617924529  10.304914152777776 6.476271806603773  10.304914152777776 5.287720952830188  C 10.304914152777776 2.4049370660377356  8.00293001388889 0.05931652358490519  5.174198999999999 0.05931652358490519  C 2.344601027777777 0.05931652358490519  0.042176291666666074 2.4049370660377356  0.042176291666666074 5.287720952830188  C 0.042176291666666074 8.170490363207547  2.3446010277777773 10.515893688679244  5.174198999999999 10.515893688679244  C 6.4140055277777765 10.515893688679244  7.61185648611111 10.056694683962263  8.54700201388889 9.22408062735849  L 8.577686986111111 9.196769943396225  L 11.292759944444445 11.842475023584905  L 11.319977041666666 11.842475023584905  L 11.320417624999997 11.865383561320755  C 11.38913547222222 11.914676023584905  11.466494583333333 11.940654495283018  11.550746791666665 11.940654495283018  C 11.775476208333332 11.940654495283018  11.95780947222222 11.753968683962263  11.95780947222222 11.525882433962263  Z M 9.489467027777778 5.287735443396226  C 9.489467027777778 7.712609108490565  7.553499611111112 9.685089735849056  5.174184791666667 9.685089735849056  C 2.7942019722222224 9.685089735849056  0.8582629861111112 7.712609108490565  0.8582629861111112 5.287735443396226  C 0.8582629861111112 2.863078981132076  2.7942019722222224 0.8910327877358492  5.174184791666667 0.8910327877358492  C 7.5534854027777785 0.8910327877358492  9.489467027777778 2.863078981132076  9.489467027777778 5.287735443396226  Z " fill-rule="nonzero" fill="#999999" stroke="none" transform="matrix(1 0 0 1 1695 485 )" />
  </g>
</svg>