<?xml version="1.0" encoding="utf-8"?>
<svg version="1.1" xmlns:xlink="http://www.w3.org/1999/xlink" width="20px" height="20px" xmlns="http://www.w3.org/2000/svg">
  <g transform="matrix(1 0 0 1 -656 -252 )">
    <path d="M 19.92625285714286 10.016925669642857  C 19.92625285714286 15.491705200892858  15.483071049107144 19.93070698660714  10.001804486607142 19.93070698660714  C 4.521040446428571 19.93070698660714  0.07943470982142717 15.491682366071428  0.07943470982142717 10.016925669642857  C 0.07943470982142717 5.814586294642857  2.695101294642856 2.224334754464287  6.389145290178569 0.7814958705357153  C 7.505279977678569 0.33124113839285807  8.724658950892856 0.08258687500000109  10.002055736607144 0.08258687500000109  C 11.28102859375 0.08258687500000109  12.499356852678572 0.33098988839285826  13.616542254464285 0.7814958705357153  C 17.310357857142858 2.2243347544642855  19.92625285714286 5.814609129464285  19.92625285714286 10.016925669642857  Z M 6.187818950892857 7.926160357142857  C 6.187818950892857 9.596844776785714  7.043832857142858 11.043315491071429  8.288200602678572 11.751338325892856  C 8.804262142857143 12.04499064732143  9.385331026785716 12.214338705357143  10.001804486607142 12.214338705357143  C 10.59664689732143 12.214338705357143  11.157455245535711 12.055931830357146  11.65999450892857 11.782288772321433  C 12.933759464285714 11.08778821428572  13.817366093750001 9.623638058035716  13.817366093750001 7.926434464285716  C 13.817366093750001 5.563328080357145  12.106114888392858 3.6398322098214306  10.001827321428571 3.6398322098214306  C 7.898818883928572 3.6395809375  6.187818950892857 5.563099642857142  6.187818950892857 7.926160357142857  Z M 10.042120022321427 19.288262566964285  C 12.941297232142858 19.288262566964285  15.527543772321428 17.954949419642855  17.22266875 15.868364107142856  C 17.02241595982143 14.222394352678569  15.418543370535716 12.821195803571428  13.148608102678573 12.122263973214285  C 12.29129220982143 12.893489642857144  11.19596627232143 13.357540736607143  10.001530401785711 13.357540736607143  C 8.780575357142856 13.357540736607143  7.662910267857141 12.868523727678571  6.797257187499998 12.063743638392857  C 4.589177120535712 12.693967767857142  2.9718279687499978 13.979450513392855  2.592610803571427 15.519800424107142  C 4.274716026785715 17.804856875000002  6.985837879464285 19.288262566964285  10.042120022321427 19.288262566964285  Z " fill-rule="nonzero" fill="#cccccc" stroke="none" transform="matrix(1 0 0 1 656 252 )" />
  </g>
</svg>