<?xml version="1.0" encoding="utf-8"?>
<svg version="1.1" xmlns:xlink="http://www.w3.org/1999/xlink" width="20px" height="18px" xmlns="http://www.w3.org/2000/svg">
  <g transform="matrix(1 0 0 1 -1721 -568 )">
    <path d="M 19.866666666666667 18  C 19.706666666666667 13.41  13.626666666666667 14.5575  12.719999999999999 12.465  C 12.64 11.767500000000002  12.666666666666666 11.25  12.666666666666666 10.5975  C 13.04 10.4175  14.373333333333333 9.3375  14.48 8.4375  C 14.773333333333333 8.415000000000001  15.253333333333332 8.1675  15.386666666666667 7.1775  C 15.466666666666667 6.66  15.173333333333332 6.345  14.986666666666665 6.255  C 15.466666666666665 5.017499999999999  15.679999999999998 1.1474999999999995  12.319999999999997 0.7649999999999997  C 11.973333333333333 0.27  11.093333333333334 0  9.946666666666667 0  C 5.359999999999999 0.0675  4 2.97  5.013333333333333 6.2775  C 4.826666666666667 6.3675  4.533333333333333 6.66  4.613333333333333 7.2  C 4.746666666666666 8.19  5.226666666666667 8.4375  5.52 8.46  C 5.626666666666667 9.3825  6.959999999999999 10.4625  7.333333333333333 10.620000000000001  C 7.333333333333333 11.2725  7.359999999999999 11.767500000000002  7.279999999999999 12.4875  C 6.373333333333334 14.5575  0.4266666666666666 13.477500000000001  0.1333333333333333 18  L 19.866666666666667 18  Z " fill-rule="nonzero" fill="#ffffff" stroke="none" transform="matrix(1 0 0 1 1721 568 )" />
  </g>
</svg>