<?xml version="1.0" encoding="utf-8"?>
<svg version="1.1" xmlns:xlink="http://www.w3.org/1999/xlink" width="11px" height="10px" xmlns="http://www.w3.org/2000/svg">
  <g transform="matrix(1 0 0 1 -2079 -521 )">
    <path d="M 10.926666666666668 10  C 10.838666666666667 7.45  7.494666666666667 8.0875  6.995999999999999 6.925  C 6.952 6.5375000000000005  6.966666666666667 6.25  6.966666666666667 5.8875  C 7.171999999999999 5.7875  7.905333333333333 5.1875  7.9639999999999995 4.6875  C 8.125333333333334 4.675000000000001  8.389333333333333 4.5375  8.462666666666667 3.9875  C 8.506666666666666 3.7  8.345333333333333 3.525  8.242666666666665 3.4749999999999996  C 8.506666666666666 2.7874999999999996  8.623999999999999 0.6374999999999997  6.775999999999999 0.4249999999999998  C 6.585333333333334 0.15  6.101333333333333 0  5.470666666666667 0  C 2.9479999999999995 0.0375  2.2 1.6500000000000001  2.757333333333333 3.4875  C 2.654666666666667 3.5375  2.493333333333333 3.7  2.537333333333333 4  C 2.6106666666666665 4.55  2.8746666666666663 4.6875  3.0359999999999996 4.7  C 3.0946666666666665 5.2125  3.828 5.8125  4.033333333333333 5.9  C 4.033333333333333 6.262500000000001  4.048 6.5375000000000005  4.004 6.937500000000001  C 3.5053333333333336 8.0875  0.23466666666666663 7.487500000000001  0.07333333333333332 10  L 10.926666666666668 10  Z " fill-rule="nonzero" fill="#ffffff" stroke="none" transform="matrix(1 0 0 1 2079 521 )" />
  </g>
</svg>