<?xml version="1.0" encoding="utf-8"?>
<svg version="1.1" xmlns:xlink="http://www.w3.org/1999/xlink" width="260px" height="136px" xmlns="http://www.w3.org/2000/svg">
  <defs>
    <mask fill="white" id="clip5699">
      <path d="M 0 117  L 0 3  C 0 1.3199999999999932  1.3199999999999363 0  3 0  L 247 0  C 248.67999999999984 0  250 1.3199999999999932  250 3  L 250 117  C 250 118.68  248.67999999999984 120  247 120  L 130.47058823529414 120  L 124.63324538258576 125.34564643799473  L 119.09803921568641 120  L 3 120  C 1.3199999999999363 120  0 118.68  0 117  Z " fill-rule="evenodd" />
    </mask>
    <filter x="1861px" y="213px" width="260px" height="136px" filterUnits="userSpaceOnUse" id="filter5700">
      <feOffset dx="0" dy="0" in="SourceAlpha" result="shadowOffsetInner" />
      <feGaussianBlur stdDeviation="2.5" in="shadowOffsetInner" result="shadowGaussian" />
      <feComposite in2="shadowGaussian" operator="atop" in="SourceAlpha" result="shadowComposite" />
      <feColorMatrix type="matrix" values="0 0 0 0 0  0 0 0 0 0  0 0 0 0 0  0 0 0 0.34901960784313724 0  " in="shadowComposite" />
    </filter>
    <g id="widget5701">
      <path d="M 0 117  L 0 3  C 0 1.3199999999999932  1.3199999999999363 0  3 0  L 247 0  C 248.67999999999984 0  250 1.3199999999999932  250 3  L 250 117  C 250 118.68  248.67999999999984 120  247 120  L 130.47058823529414 120  L 124.63324538258576 125.34564643799473  L 119.09803921568641 120  L 3 120  C 1.3199999999999363 120  0 118.68  0 117  Z " fill-rule="nonzero" fill="#ffffff" stroke="none" transform="matrix(1 0 0 1 1866 218 )" />
      <path d="M 0 117  L 0 3  C 0 1.3199999999999932  1.3199999999999363 0  3 0  L 247 0  C 248.67999999999984 0  250 1.3199999999999932  250 3  L 250 117  C 250 118.68  248.67999999999984 120  247 120  L 130.47058823529414 120  L 124.63324538258576 125.34564643799473  L 119.09803921568641 120  L 3 120  C 1.3199999999999363 120  0 118.68  0 117  Z " stroke-width="2" stroke="#f2f2f2" fill="none" transform="matrix(1 0 0 1 1866 218 )" mask="url(#clip5699)" />
    </g>
  </defs>
  <g transform="matrix(1 0 0 1 -1861 -213 )">
    <use xlink:href="#widget5701" filter="url(#filter5700)" />
    <use xlink:href="#widget5701" />
  </g>
</svg>