<?xml version="1.0" encoding="utf-8"?>
<svg version="1.1" xmlns:xlink="http://www.w3.org/1999/xlink" width="18px" height="18px" xmlns="http://www.w3.org/2000/svg">
  <g transform="matrix(1 0 0 1 -1685 -568 )">
    <path d="M 18 2.0648230088495585  C 17.996017699115043 1.009513274336284  17.141814159292036 0.15331858407079738  16.08451327433628 0.15331858407079652  L 2.0668141592920346 0.15331858407079652  C 1.0115044247787601 0.15331858407079652  0.15530973451327343 1.0095132743362834  0.15530973451327343 2.064823008849557  L 0.15530973451327343 16.082522123893806  C 0.15530973451327343 17.137831858407083  1.0115044247787601 17.99402654867257  2.0668141592920346 18  L 16.08451327433628 18  C 17.139823008849557 17.99402654867257  17.996017699115043 17.137831858407083  18 16.082522123893806  L 18 2.0648230088495585  Z M 15.059070796460178 6.700221238938052  C 15.290044247787613 6.971017699115045  15.258185840707966 7.373230088495575  14.991371681415929 7.602212389380531  L 8.372787610619469 13.257079646017697  C 8.139823008849557 13.456194690265487  7.849115044247788 13.561725663716812  7.54646017699115 13.561725663716812  C 7.512610619469027 13.561725663716812  7.478761061946903 13.559734513274334  7.444911504424778 13.557743362831856  C 7.106415929203539 13.531858407079643  6.797787610619469 13.37455752212389  6.5767699115044245 13.115707964601766  L 3.042477876106195 8.980088495575222  C 2.813495575221239 8.713274336283186  2.845353982300885 8.311061946902655  3.1121681415929205 8.082079646017698  C 3.378982300884956 7.853097345132744  3.7811946902654867 7.88495575221239  4.010176991150443 8.151769911504426  L 7.5424778761061955 12.285398230088495  L 14.161061946902656 6.630530973451327  C 14.427876106194692 6.4015486725663715  14.830088495575222 6.433407079646018  15.059070796460178 6.700221238938052  Z " fill-rule="nonzero" fill="#e7772d" stroke="none" transform="matrix(1 0 0 1 1685 568 )" />
  </g>
</svg>