<?xml version="1.0" encoding="utf-8"?>
<svg version="1.1" xmlns:xlink="http://www.w3.org/1999/xlink" width="11px" height="3px" xmlns="http://www.w3.org/2000/svg">
  <g transform="matrix(1 0 0 1 -2260 -2440 )">
    <path d="M 2.8742650820312496 1.4988241230468748  C 2.8742650820312496 2.2231647910156243  2.28632622265625 2.811103650390626  1.5619855546874997 2.811103650390626  C 0.83764488671875 2.811103650390626  0.24970602734374991 2.223164791015626  0.24970602734374991 1.4988241230468748  C 0.24970602734374991 0.7744834550781245  0.83764488671875 0.18654459570312465  1.5619855546874997 0.18654459570312465  C 2.28632622265625 0.18654459570312465  2.8742650820312496 0.7744834550781254  2.8742650820312496 1.4988241230468748  Z M 6.811103650390626 1.4988241230468748  C 6.811103650390626 2.2231647910156243  6.223164791015624 2.811103650390626  5.498824123046875 2.811103650390626  C 4.774483455078125 2.811103650390626  4.186544595703125 2.223164791015626  4.186544595703125 1.4988241230468748  C 4.186544595703125 0.7744834550781245  4.774483455078125 0.18654459570312465  5.498824123046875 0.18654459570312465  C 6.223164791015624 0.18654459570312465  6.811103650390626 0.7744834550781254  6.811103650390626 1.4988241230468748  Z M 10.750293972656252 1.4988241230468748  C 10.750293972656252 2.2231647910156243  10.160003359375 2.811103650390626  9.4380144453125 2.811103650390626  C 8.71367377734375 2.811103650390626  8.12573491796875 2.223164791015626  8.12573491796875 1.4988241230468748  C 8.12573491796875 0.7744834550781245  8.71367377734375 0.18654459570312465  9.4380144453125 0.18654459570312465  C 10.16235511328125 0.18654459570312465  10.750293972656252 0.7744834550781254  10.750293972656252 1.4988241230468748  Z " fill-rule="nonzero" fill="#000000" stroke="none" transform="matrix(1 0 0 1 2260 2440 )" />
  </g>
</svg>