<?xml version="1.0" encoding="utf-8"?>
<svg version="1.1" xmlns:xlink="http://www.w3.org/1999/xlink" width="21px" height="20px" preserveAspectRatio="xMinYMid meet" viewBox="2229 2391  21 18" xmlns="http://www.w3.org/2000/svg">
  <path d="M 2238 2400  L 2474 2400  A 5 5 0 0 0 2479 2395 L 2479 689  A 5 5 0 0 0 2474 684 L 2428 684  " stroke-width="2" stroke="#e7772d" fill="none" />
  <path d="M 2239.5 2396.5  A 3.5 3.5 0 0 0 2236 2400 A 3.5 3.5 0 0 0 2239.5 2403.5 A 3.5 3.5 0 0 0 2243 2400 A 3.5 3.5 0 0 0 2239.5 2396.5 Z M 2435.4 676  L 2426 684  L 2435.4 692  L 2431.8 684  L 2435.4 676  Z " fill-rule="nonzero" fill="#e7772d" stroke="none" />
</svg>