<?xml version="1.0" encoding="utf-8"?>
<svg version="1.1" xmlns:xlink="http://www.w3.org/1999/xlink" width="14px" height="14px" xmlns="http://www.w3.org/2000/svg">
  <g transform="matrix(1 0 0 1 -568 -960 )">
    <path d="M 14 7  C 14 3.129411769531249  10.87058823046875 0  7 0  C 3.12941176953125 0  0 3.12941176953125  0 7  C 0 10.870588230468751  3.12941176953125 14  7 14  C 10.870588230468751 14  14 10.870588230468751  14 7  Z M 8.235294115234375 6.999999999999999  L 10.0470588203125 8.811764705078126  C 10.37647058984375 9.141176474609376  10.37647058984375 9.717647064453125  10.0470588203125 10.0470588203125  C 9.71764705078125 10.37647058984375  9.1411764609375 10.37647058984375  8.811764705078126 10.0470588203125  L 7 8.235294115234375  L 5.188235294921875 10.129411769531249  C 4.858823525390625 10.458823539062498  4.282352935546875 10.458823539062498  3.9529411796875 10.129411769531249  C 3.788235294921875 9.882352949218749  3.7058823593750003 9.717647064453123  3.7058823593750003 9.47058823046875  C 3.7058823593750003 9.223529396484375  3.788235294921875 8.97647058984375  3.9529411796875 8.811764705078126  L 5.764705884765625 7  L 3.9529411796875 5.27058823046875  C 3.788235294921875 5.02352941015625  3.7058823593750003 4.858823525390625  3.7058823593750003 4.611764705078125  C 3.7058823593750003 4.364705884765625  3.788235294921875 4.117647064453125  3.9529411796875 3.952941179687499  C 4.282352949218749 3.6235294101562494  4.8588235390625005 3.6235294101562494  5.188235294921875 3.952941179687499  L 7 5.7647058847656245  L 8.811764705078126 3.952941179687499  C 9.141176474609376 3.6235294101562494  9.717647064453125 3.6235294101562494  10.0470588203125 3.952941179687499  C 10.37647058984375 4.282352949218749  10.37647058984375 4.8588235390625  10.0470588203125 5.188235294921874  L 8.235294115234375 6.999999999999999  Z " fill-rule="nonzero" fill="#999999" stroke="none" transform="matrix(1 0 0 1 568 960 )" />
  </g>
</svg>