<?xml version="1.0" encoding="utf-8"?>
<svg version="1.1" xmlns:xlink="http://www.w3.org/1999/xlink" width="26px" height="26px" xmlns="http://www.w3.org/2000/svg">
  <g transform="matrix(1 0 0 1 -3121 -158 )">
    <path d="M 3.9464285714285703 8.125  L 3.9464285714285703 3.9464285714285703  L 8.125 3.9464285714285703  L 8.125 8.125  L 3.9464285714285703 8.125  Z M 3.9464285714285703 22.053571428571427  L 3.9464285714285703 17.875  L 8.125 17.875  L 8.125 22.053571428571427  L 3.9464285714285703 22.053571428571427  Z M 17.875 8.125  L 17.875 3.9464285714285703  L 22.053571428571427 3.9464285714285703  L 22.053571428571427 8.125  L 17.875 8.125  Z M 23.678571428571427 21.589285714285715  L 23.678571428571427 23.678571428571427  L 19.5 23.678571428571427  L 19.5 25.767857142857142  L 23.678571428571427 25.767857142857142  C 24.839285714285715 25.767857142857142  25.767857142857142 24.839285714285715  25.767857142857142 23.678571428571427  L 25.767857142857142 21.589285714285715  L 23.678571428571427 21.589285714285715  Z M 2.3214285714285716 0.23214285714285712  C 1.1607142857142858 0.23214285714285712  0.23214285714285712 1.1607142857142858  0.23214285714285712 2.3214285714285716  L 0.23214285714285712 12  L 12 12  L 12 0.23214285714285712  L 2.3214285714285716 0.23214285714285712  Z M 9.75 2.3214285714285716  L 9.75 9.75  L 2.3214285714285716 9.75  L 2.3214285714285716 2.3214285714285716  L 9.75 2.3214285714285716  Z M 0.23214285714285712 14  L 0.23214285714285712 23.678571428571427  C 0.23214285714285712 24.839285714285715  1.1607142857142858 25.767857142857142  2.3214285714285716 25.767857142857142  L 12 25.767857142857142  L 12 14  L 0.23214285714285712 14  Z M 2.3214285714285716 23.678571428571427  L 2.3214285714285716 16.25  L 9.75 16.25  L 9.75 23.678571428571434  L 2.3214285714285716 23.678571428571427  Z M 14.160714285714285 16.25  L 14.160714285714285 14.160714285714285  L 21.589285714285715 14.160714285714285  L 21.589285714285715 16.25  L 14.160714285714285 16.25  Z M 21.589285714285715 17.17857142857143  L 19.5 17.17857142857143  L 17.17857142857143 17.17857142857143  L 17.17857142857143 19.5  L 19.5 19.5  L 19.5 21.589285714285715  L 21.589285714285715 21.589285714285715  L 21.589285714285715 19.5  L 25.767857142857142 19.5  L 25.767857142857142 17.17857142857143  L 21.589285714285715 17.17857142857143  Z M 14.160714285714285 25.767857142857142  L 14.160714285714285 21.589285714285715  L 16.25 21.589285714285715  L 16.25 25.767857142857142  L 14.160714285714285 25.767857142857142  Z M 17.17857142857143 23.678571428571427  L 17.17857142857143 21.589285714285715  L 19.267857142857142 21.589285714285715  L 19.267857142857142 23.678571428571427  L 17.17857142857143 23.678571428571427  Z M 14.160714285714285 19.267857142857142  L 14.160714285714285 17.17857142857143  L 16.25 17.17857142857143  L 16.25 19.267857142857142  L 14.160714285714285 19.267857142857142  Z M 23.678571428571427 16.25  L 23.678571428571427 14.160714285714285  L 25.767857142857142 14.160714285714285  L 25.767857142857142 16.25  L 23.678571428571427 16.25  Z M 25.767857142857142 2.3214285714285716  C 25.767857142857142 1.1607142857142858  24.839285714285715 0.23214285714285712  23.678571428571427 0.23214285714285712  L 14 0.23214285714285712  L 14 12  L 25.767857142857142 12  L 25.767857142857142 2.3214285714285716  Z M 23.678571428571434 2.3214285714285716  L 23.678571428571427 9.75  L 16.25 9.75  L 16.25 2.3214285714285716  L 23.678571428571434 2.3214285714285716  Z " fill-rule="nonzero" fill="#999999" stroke="none" transform="matrix(1 0 0 1 3121 158 )" />
  </g>
</svg>