<?xml version="1.0" encoding="utf-8"?>
<svg version="1.1" xmlns:xlink="http://www.w3.org/1999/xlink" width="18px" height="18px" viewBox="1740 2173  18 18" xmlns="http://www.w3.org/2000/svg">
  <path d="M 1740.5 2176  A 2.5 2.5 0 0 1 1743 2173.5 L 1755 2173.5  A 2.5 2.5 0 0 1 1757.5 2176 L 1757.5 2188  A 2.5 2.5 0 0 1 1755 2190.5 L 1743 2190.5  A 2.5 2.5 0 0 1 1740.5 2188 L 1740.5 2176  Z " fill-rule="nonzero" fill="#f0f0f0" stroke="none" />
  <path d="M 1740.5 2176  A 2.5 2.5 0 0 1 1743 2173.5 L 1755 2173.5  A 2.5 2.5 0 0 1 1757.5 2176 L 1757.5 2188  A 2.5 2.5 0 0 1 1755 2190.5 L 1743 2190.5  A 2.5 2.5 0 0 1 1740.5 2188 L 1740.5 2176  Z " stroke-width="1" stroke="#0066ff" fill="none" />
</svg>