<?xml version="1.0" encoding="utf-8"?>
<svg version="1.1" xmlns:xlink="http://www.w3.org/1999/xlink" width="18px" height="18px" viewBox="1869 2173  18 18" xmlns="http://www.w3.org/2000/svg">
  <path d="M 1869.5 2176  A 2.5 2.5 0 0 1 1872 2173.5 L 1884 2173.5  A 2.5 2.5 0 0 1 1886.5 2176 L 1886.5 2188  A 2.5 2.5 0 0 1 1884 2190.5 L 1872 2190.5  A 2.5 2.5 0 0 1 1869.5 2188 L 1869.5 2176  Z " fill-rule="nonzero" fill="#ffffff" stroke="none" />
  <path d="M 1869.5 2176  A 2.5 2.5 0 0 1 1872 2173.5 L 1884 2173.5  A 2.5 2.5 0 0 1 1886.5 2176 L 1886.5 2188  A 2.5 2.5 0 0 1 1884 2190.5 L 1872 2190.5  A 2.5 2.5 0 0 1 1869.5 2188 L 1869.5 2176  Z " stroke-width="1" stroke="#797979" fill="none" />
</svg>