<?xml version="1.0" encoding="utf-8"?>
<svg version="1.1" xmlns:xlink="http://www.w3.org/1999/xlink" width="18px" height="18px" viewBox="1869 2141  18 18" xmlns="http://www.w3.org/2000/svg">
  <path d="M 1869.5 2144  A 2.5 2.5 0 0 1 1872 2141.5 L 1884 2141.5  A 2.5 2.5 0 0 1 1886.5 2144 L 1886.5 2156  A 2.5 2.5 0 0 1 1884 2158.5 L 1872 2158.5  A 2.5 2.5 0 0 1 1869.5 2156 L 1869.5 2144  Z " fill-rule="nonzero" fill="#ffffff" stroke="none" />
  <path d="M 1869.5 2144  A 2.5 2.5 0 0 1 1872 2141.5 L 1884 2141.5  A 2.5 2.5 0 0 1 1886.5 2144 L 1886.5 2156  A 2.5 2.5 0 0 1 1884 2158.5 L 1872 2158.5  A 2.5 2.5 0 0 1 1869.5 2156 L 1869.5 2144  Z " stroke-width="1" stroke="#0066ff" fill="none" />
  <path d="M 1872.857142857143 2150  L 1876.7142857142858 2153.857142857143  L 1883.142857142857 2144.8571428571427  " stroke-width="3.8571428571428577" stroke="#0066ff" fill="none" />
</svg>