<?xml version="1.0" encoding="utf-8"?>
<svg version="1.1" xmlns:xlink="http://www.w3.org/1999/xlink" width="18px" height="18px" viewBox="1998 2141  18 18" xmlns="http://www.w3.org/2000/svg">
  <path d="M 1998.5 2144  A 2.5 2.5 0 0 1 2001 2141.5 L 2013 2141.5  A 2.5 2.5 0 0 1 2015.5 2144 L 2015.5 2156  A 2.5 2.5 0 0 1 2013 2158.5 L 2001 2158.5  A 2.5 2.5 0 0 1 1998.5 2156 L 1998.5 2144  Z " fill-rule="nonzero" fill="#ffffff" stroke="none" />
  <path d="M 1998.5 2144  A 2.5 2.5 0 0 1 2001 2141.5 L 2013 2141.5  A 2.5 2.5 0 0 1 2015.5 2144 L 2015.5 2156  A 2.5 2.5 0 0 1 2013 2158.5 L 2001 2158.5  A 2.5 2.5 0 0 1 1998.5 2156 L 1998.5 2144  Z " stroke-width="1" stroke="#0066ff" fill="none" />
  <path d="M 2001.857142857143 2150  L 2005.7142857142858 2153.857142857143  L 2012.142857142857 2144.8571428571427  " stroke-width="3.8571428571428577" stroke="#0066ff" fill="none" />
</svg>