<?xml version="1.0" encoding="utf-8"?>
<svg version="1.1" xmlns:xlink="http://www.w3.org/1999/xlink" width="18px" height="18px" viewBox="1740 2237  18 18" xmlns="http://www.w3.org/2000/svg">
  <path d="M 1740.5 2240  A 2.5 2.5 0 0 1 1743 2237.5 L 1755 2237.5  A 2.5 2.5 0 0 1 1757.5 2240 L 1757.5 2252  A 2.5 2.5 0 0 1 1755 2254.5 L 1743 2254.5  A 2.5 2.5 0 0 1 1740.5 2252 L 1740.5 2240  Z " fill-rule="nonzero" fill="#f0f0f0" stroke="none" />
  <path d="M 1740.5 2240  A 2.5 2.5 0 0 1 1743 2237.5 L 1755 2237.5  A 2.5 2.5 0 0 1 1757.5 2240 L 1757.5 2252  A 2.5 2.5 0 0 1 1755 2254.5 L 1743 2254.5  A 2.5 2.5 0 0 1 1740.5 2252 L 1740.5 2240  Z " stroke-width="1" stroke="#797979" fill="none" />
</svg>