<?xml version="1.0" encoding="utf-8"?>
<svg version="1.1" xmlns:xlink="http://www.w3.org/1999/xlink" width="18px" height="18px" viewBox="1998 2237  18 18" xmlns="http://www.w3.org/2000/svg">
  <path d="M 1998.5 2240  A 2.5 2.5 0 0 1 2001 2237.5 L 2013 2237.5  A 2.5 2.5 0 0 1 2015.5 2240 L 2015.5 2252  A 2.5 2.5 0 0 1 2013 2254.5 L 2001 2254.5  A 2.5 2.5 0 0 1 1998.5 2252 L 1998.5 2240  Z " fill-rule="nonzero" fill="#ffffff" stroke="none" />
  <path d="M 1998.5 2240  A 2.5 2.5 0 0 1 2001 2237.5 L 2013 2237.5  A 2.5 2.5 0 0 1 2015.5 2240 L 2015.5 2252  A 2.5 2.5 0 0 1 2013 2254.5 L 2001 2254.5  A 2.5 2.5 0 0 1 1998.5 2252 L 1998.5 2240  Z " stroke-width="1" stroke="#797979" fill="none" />
  <path d="M 2001.857142857143 2246  L 2005.7142857142858 2249.857142857143  L 2012.142857142857 2240.8571428571427  " stroke-width="3.8571428571428577" stroke="#797979" fill="none" />
</svg>