<?xml version="1.0" encoding="utf-8"?>
<svg version="1.1" xmlns:xlink="http://www.w3.org/1999/xlink" width="18px" height="18px" viewBox="1998 2330  18 18" xmlns="http://www.w3.org/2000/svg">
  <path d="M 1998.5 2333  A 2.5 2.5 0 0 1 2001 2330.5 L 2013 2330.5  A 2.5 2.5 0 0 1 2015.5 2333 L 2015.5 2345  A 2.5 2.5 0 0 1 2013 2347.5 L 2001 2347.5  A 2.5 2.5 0 0 1 1998.5 2345 L 1998.5 2333  Z " fill-rule="nonzero" fill="#f0f0f0" stroke="none" />
  <path d="M 1998.5 2333  A 2.5 2.5 0 0 1 2001 2330.5 L 2013 2330.5  A 2.5 2.5 0 0 1 2015.5 2333 L 2015.5 2345  A 2.5 2.5 0 0 1 2013 2347.5 L 2001 2347.5  A 2.5 2.5 0 0 1 1998.5 2345 L 1998.5 2333  Z " stroke-width="1" stroke="#797979" fill="none" />
</svg>