<?xml version="1.0" encoding="utf-8"?>
<svg version="1.1" xmlns:xlink="http://www.w3.org/1999/xlink" width="18px" height="18px" viewBox="1869 2268  18 18" xmlns="http://www.w3.org/2000/svg">
  <path d="M 1869.5 2271  A 2.5 2.5 0 0 1 1872 2268.5 L 1884 2268.5  A 2.5 2.5 0 0 1 1886.5 2271 L 1886.5 2283  A 2.5 2.5 0 0 1 1884 2285.5 L 1872 2285.5  A 2.5 2.5 0 0 1 1869.5 2283 L 1869.5 2271  Z " fill-rule="nonzero" fill="#ffffff" stroke="none" />
  <path d="M 1869.5 2271  A 2.5 2.5 0 0 1 1872 2268.5 L 1884 2268.5  A 2.5 2.5 0 0 1 1886.5 2271 L 1886.5 2283  A 2.5 2.5 0 0 1 1884 2285.5 L 1872 2285.5  A 2.5 2.5 0 0 1 1869.5 2283 L 1869.5 2271  Z " stroke-width="1" stroke="#0066ff" fill="none" />
  <path d="M 1872.857142857143 2277  L 1876.7142857142858 2280.857142857143  L 1883.142857142857 2271.8571428571427  " stroke-width="3.8571428571428577" stroke="#0066ff" fill="none" />
</svg>