<?xml version="1.0" encoding="utf-8"?>
<svg version="1.1" xmlns:xlink="http://www.w3.org/1999/xlink" width="18px" height="18px" viewBox="1869 2299  18 18" xmlns="http://www.w3.org/2000/svg">
  <path d="M 1869.5 2302  A 2.5 2.5 0 0 1 1872 2299.5 L 1884 2299.5  A 2.5 2.5 0 0 1 1886.5 2302 L 1886.5 2314  A 2.5 2.5 0 0 1 1884 2316.5 L 1872 2316.5  A 2.5 2.5 0 0 1 1869.5 2314 L 1869.5 2302  Z " fill-rule="nonzero" fill="#f0f0f0" stroke="none" />
  <path d="M 1869.5 2302  A 2.5 2.5 0 0 1 1872 2299.5 L 1884 2299.5  A 2.5 2.5 0 0 1 1886.5 2302 L 1886.5 2314  A 2.5 2.5 0 0 1 1884 2316.5 L 1872 2316.5  A 2.5 2.5 0 0 1 1869.5 2314 L 1869.5 2302  Z " stroke-width="1" stroke="#0066ff" fill="none" />
</svg>