<?xml version="1.0" encoding="utf-8"?>
<svg version="1.1" xmlns:xlink="http://www.w3.org/1999/xlink" width="18px" height="18px" viewBox="1740 2141  18 18" xmlns="http://www.w3.org/2000/svg">
  <path d="M 1740.5 2144  A 2.5 2.5 0 0 1 1743 2141.5 L 1755 2141.5  A 2.5 2.5 0 0 1 1757.5 2144 L 1757.5 2156  A 2.5 2.5 0 0 1 1755 2158.5 L 1743 2158.5  A 2.5 2.5 0 0 1 1740.5 2156 L 1740.5 2144  Z " fill-rule="nonzero" fill="#f0f0f0" stroke="none" />
  <path d="M 1740.5 2144  A 2.5 2.5 0 0 1 1743 2141.5 L 1755 2141.5  A 2.5 2.5 0 0 1 1757.5 2144 L 1757.5 2156  A 2.5 2.5 0 0 1 1755 2158.5 L 1743 2158.5  A 2.5 2.5 0 0 1 1740.5 2156 L 1740.5 2144  Z " stroke-width="1" stroke="#999999" fill="none" />
  <path d="M 1743.857142857143 2150  L 1747.7142857142858 2153.857142857143  L 1754.142857142857 2144.8571428571427  " stroke-width="3.8571428571428577" stroke="#999999" fill="none" />
</svg>