<?xml version="1.0" encoding="utf-8"?>
<svg version="1.1" xmlns:xlink="http://www.w3.org/1999/xlink" width="18px" height="18px" viewBox="1869 2237  18 18" xmlns="http://www.w3.org/2000/svg">
  <path d="M 1869.5 2240  A 2.5 2.5 0 0 1 1872 2237.5 L 1884 2237.5  A 2.5 2.5 0 0 1 1886.5 2240 L 1886.5 2252  A 2.5 2.5 0 0 1 1884 2254.5 L 1872 2254.5  A 2.5 2.5 0 0 1 1869.5 2252 L 1869.5 2240  Z " fill-rule="nonzero" fill="#f0f0f0" stroke="none" />
  <path d="M 1869.5 2240  A 2.5 2.5 0 0 1 1872 2237.5 L 1884 2237.5  A 2.5 2.5 0 0 1 1886.5 2240 L 1886.5 2252  A 2.5 2.5 0 0 1 1884 2254.5 L 1872 2254.5  A 2.5 2.5 0 0 1 1869.5 2252 L 1869.5 2240  Z " stroke-width="1" stroke="#0066ff" fill="none" />
</svg>