<?xml version="1.0" encoding="utf-8"?>
<svg version="1.1" xmlns:xlink="http://www.w3.org/1999/xlink" width="18px" height="18px" viewBox="1869 2330  18 18" xmlns="http://www.w3.org/2000/svg">
  <path d="M 1869.5 2333  A 2.5 2.5 0 0 1 1872 2330.5 L 1884 2330.5  A 2.5 2.5 0 0 1 1886.5 2333 L 1886.5 2345  A 2.5 2.5 0 0 1 1884 2347.5 L 1872 2347.5  A 2.5 2.5 0 0 1 1869.5 2345 L 1869.5 2333  Z " fill-rule="nonzero" fill="#ffffff" stroke="none" />
  <path d="M 1869.5 2333  A 2.5 2.5 0 0 1 1872 2330.5 L 1884 2330.5  A 2.5 2.5 0 0 1 1886.5 2333 L 1886.5 2345  A 2.5 2.5 0 0 1 1884 2347.5 L 1872 2347.5  A 2.5 2.5 0 0 1 1869.5 2345 L 1869.5 2333  Z " stroke-width="1" stroke="#797979" fill="none" />
</svg>