<?xml version="1.0" encoding="utf-8"?>
<svg version="1.1" xmlns:xlink="http://www.w3.org/1999/xlink" width="18px" height="18px" viewBox="1740 2331  18 18" xmlns="http://www.w3.org/2000/svg">
  <path d="M 1740.5 2334  A 2.5 2.5 0 0 1 1743 2331.5 L 1755 2331.5  A 2.5 2.5 0 0 1 1757.5 2334 L 1757.5 2346  A 2.5 2.5 0 0 1 1755 2348.5 L 1743 2348.5  A 2.5 2.5 0 0 1 1740.5 2346 L 1740.5 2334  Z " fill-rule="nonzero" fill="#ffffff" stroke="none" />
  <path d="M 1740.5 2334  A 2.5 2.5 0 0 1 1743 2331.5 L 1755 2331.5  A 2.5 2.5 0 0 1 1757.5 2334 L 1757.5 2346  A 2.5 2.5 0 0 1 1755 2348.5 L 1743 2348.5  A 2.5 2.5 0 0 1 1740.5 2346 L 1740.5 2334  Z " stroke-width="1" stroke="#797979" fill="none" />
</svg>