<?xml version="1.0" encoding="utf-8"?>
<svg version="1.1" xmlns:xlink="http://www.w3.org/1999/xlink" width="25px" height="20px" xmlns="http://www.w3.org/2000/svg">
  <g transform="matrix(1 0 0 1 -1525 -275 )">
    <path d="M 4.575892857142857 15.340909090909092  C 5.096726190476191 15.87121212121212  5.357142857142857 16.515151515151516  5.357142857142857 17.272727272727273  C 5.357142857142857 18.03030303030303  5.096726190476191 18.674242424242426  4.575892857142857 19.204545454545453  C 4.055059523809524 19.734848484848484  3.422619047619048 20  2.6785714285714284 20  C 1.93452380952381 20  1.3020833333333335 19.734848484848484  0.78125 19.204545454545453  C 0.26041666666666663 18.674242424242426  0 18.03030303030303  0 17.272727272727273  C 0 16.515151515151516  0.26041666666666663 15.87121212121212  0.78125 15.340909090909092  C 1.3020833333333335 14.810606060606059  1.93452380952381 14.545454545454547  2.6785714285714284 14.545454545454547  C 3.422619047619048 14.545454545454547  4.055059523809524 14.810606060606059  4.575892857142857 15.340909090909092  Z M 4.575892857142857 8.068181818181818  C 5.096726190476191 8.598484848484846  5.357142857142857 9.24242424242424  5.357142857142857 10  C 5.357142857142857 10.757575757575758  5.096726190476191 11.401515151515152  4.575892857142857 11.931818181818183  C 4.055059523809524 12.462121212121211  3.422619047619048 12.727272727272727  2.6785714285714284 12.727272727272727  C 1.93452380952381 12.727272727272727  1.3020833333333335 12.462121212121211  0.78125 11.931818181818183  C 0.26041666666666663 11.401515151515152  0 10.757575757575758  0 10  C 0 9.24242424242424  0.26041666666666663 8.598484848484846  0.78125 8.068181818181818  C 1.3020833333333335 7.537878787878787  1.93452380952381 7.272727272727273  2.6785714285714284 7.272727272727273  C 3.422619047619048 7.272727272727273  4.055059523809524 7.537878787878787  4.575892857142857 8.068181818181818  Z M 24.867466517857142 15.589488636363637  C 24.95582217261905 15.679450757575758  25 15.785984848484848  25 15.909090909090908  L 25 18.636363636363637  C 25 18.759469696969695  24.95582217261905 18.86600378787879  24.867466517857142 18.955965909090907  C 24.77911086309524 19.04592803030303  24.67447916666667 19.090909090909093  24.553571428571427 19  L 7.5892857142857135 19  C 7.468377976190476 19.090909090909093  7.363746279761905 19.04592803030303  7.275390625 18.955965909090907  C 7.187034970238096 18.86600378787879  7.142857142857142 18.759469696969695  7.142857142857142 18.636363636363637  L 7.142857142857142 15.909090909090908  C 7.142857142857142 15.785984848484848  7.187034970238096 15.679450757575758  7.275390625 15.589488636363637  C 7.363746279761905 15.499526515151516  7.468377976190476 15.454545454545453  7.5892857142857135 15.454545454545453  L 24.553571428571427 15.454545454545453  C 24.67447916666667 15.454545454545453  24.77911086309524 15.499526515151516  24.867466517857142 15.589488636363637  Z M 4.575892857142857 0.7954545454545459  C 5.096726190476191 1.3257575757575757  5.357142857142857 1.969696969696968  5.357142857142857 2.727272727272727  C 5.357142857142857 3.484848484848484  5.096726190476191 4.128787878787876  4.575892857142857 4.659090909090908  C 4.055059523809524 5.189393939393938  3.422619047619048 5.454545454545454  2.6785714285714284 5.454545454545454  C 1.93452380952381 5.454545454545454  1.3020833333333335 5.189393939393938  0.78125 4.659090909090908  C 0.26041666666666663 4.128787878787876  0 3.484848484848484  0 2.727272727272727  C 0 1.969696969696968  0.26041666666666663 1.3257575757575757  0.78125 0.7954545454545459  C 1.3020833333333335 0.2651515151515138  1.93452380952381 0  2.6785714285714284 0  C 3.422619047619048 0  4.055059523809524 0.2651515151515138  4.575892857142857 0.7954545454545459  Z M 24.867466517857142 8.316761363636365  C 24.95582217261905 8.406723484848484  25 8.513257575757576  25 8.636363636363635  L 25 11.363636363636363  C 25 11.486742424242422  24.95582217261905 11.593276515151514  24.867466517857142 11.683238636363637  C 24.77911086309524 11.773200757575758  24.67447916666667 11.818181818181817  24.553571428571427 11.818181818181817  L 7.5892857142857135 11.818181818181817  C 7.468377976190476 11.818181818181817  7.363746279761905 11.773200757575758  7.275390625 11.683238636363637  C 7.187034970238096 11.593276515151514  7.142857142857142 11.486742424242422  7.142857142857142 11.363636363636363  L 7.142857142857142 8.636363636363635  C 7.142857142857142 8.513257575757576  7.187034970238096 8.406723484848484  7.275390625 8.316761363636365  C 7.363746279761905 8.226799242424242  7.468377976190476 8.181818181818182  7.5892857142857135 8.181818181818182  L 24.553571428571427 8.181818181818182  C 24.67447916666667 8.181818181818182  24.77911086309524 8.226799242424242  24.867466517857142 8.316761363636365  Z M 24.867466517857142 1.0440340909090917  C 24.95582217261905 1.133996212121211  25 1.2405303030303028  25 1.3636363636363646  L 25 4.090909090909092  C 25 4.214015151515149  24.95582217261905 4.32054924242424  24.867466517857142 4.410511363636365  C 24.77911086309524 4.500473484848484  24.67447916666667 4.545454545454546  24.553571428571427 4.545454545454546  L 7.5892857142857135 4.545454545454546  C 7.468377976190476 4.545454545454546  7.363746279761905 4.500473484848484  7.275390625 4.410511363636365  C 7.187034970238096 4.32054924242424  7.142857142857142 4.214015151515149  7.142857142857142 4.090909090909092  L 7.142857142857142 1.3636363636363646  C 7.142857142857142 1.2405303030303028  7.187034970238096 1.133996212121211  7.275390625 1.0440340909090917  C 7.363746279761905 0.954071969696968  7.468377976190476 0.9090909090909083  7.5892857142857135 1  L 24.553571428571427 1  C 24.67447916666667 0.9090909090909083  24.77911086309524 0.954071969696968  24.867466517857142 1.0440340909090917  Z " fill-rule="nonzero" fill="#999999" stroke="none" transform="matrix(1 0 0 1 1525 275 )" />
  </g>
</svg>