<?xml version="1.0" encoding="utf-8"?>
<svg version="1.1" xmlns:xlink="http://www.w3.org/1999/xlink" width="18px" height="18px" viewBox="1998 2268  18 18" xmlns="http://www.w3.org/2000/svg">
  <path d="M 1998.5 2271  A 2.5 2.5 0 0 1 2001 2268.5 L 2013 2268.5  A 2.5 2.5 0 0 1 2015.5 2271 L 2015.5 2283  A 2.5 2.5 0 0 1 2013 2285.5 L 2001 2285.5  A 2.5 2.5 0 0 1 1998.5 2283 L 1998.5 2271  Z " fill-rule="nonzero" fill="#f0f0f0" stroke="none" />
  <path d="M 1998.5 2271  A 2.5 2.5 0 0 1 2001 2268.5 L 2013 2268.5  A 2.5 2.5 0 0 1 2015.5 2271 L 2015.5 2283  A 2.5 2.5 0 0 1 2013 2285.5 L 2001 2285.5  A 2.5 2.5 0 0 1 1998.5 2283 L 1998.5 2271  Z " stroke-width="1" stroke="#797979" fill="none" />
  <path d="M 2001.857142857143 2277  L 2005.7142857142858 2280.857142857143  L 2012.142857142857 2271.8571428571427  " stroke-width="3.8571428571428577" stroke="#797979" fill="none" />
</svg>