<?xml version="1.0" encoding="utf-8"?>
<svg version="1.1" xmlns:xlink="http://www.w3.org/1999/xlink" width="22px" height="22px" preserveAspectRatio="xMinYMid meet" viewBox="1023 810  22 20" xmlns="http://www.w3.org/2000/svg">
  <path d="M 1035 820.5  L 1028 820.5  A 5 5 0 0 0 1023.5 825.5 L 1023.5 897  A 5 5 0 0 0 1028.5 902.5 L 1035 902.5  " stroke-width="3" stroke="#e7772d" fill="none" />
  <path d="M 1034 816.5  A 4 4 0 0 0 1030 820.5 A 4 4 0 0 0 1034 824.5 A 4 4 0 0 0 1038 820.5 A 4 4 0 0 0 1034 816.5 Z M 1025.9 912.5  L 1038 902.5  L 1025.9 892.5  L 1030.8 902.5  L 1025.9 912.5  Z " fill-rule="nonzero" fill="#e7772d" stroke="none" />
</svg>