<?xml version="1.0" encoding="utf-8"?>
<svg version="1.1" xmlns:xlink="http://www.w3.org/1999/xlink" width="12px" height="78px" preserveAspectRatio="xMidYMin meet" viewBox="1018 732  10 78" xmlns="http://www.w3.org/2000/svg">
  <path d="M 1035 738.5  L 1028 738.5  A 5 5 0 0 0 1023.5 743.5 L 1023.5 799  A 5 5 0 0 0 1028.5 804.5 L 1036 804.5  " stroke-width="3" stroke="#e7772d" fill="none" />
  <path d="M 1034 734.5  A 4 4 0 0 0 1030 738.5 A 4 4 0 0 0 1034 742.5 A 4 4 0 0 0 1038 738.5 A 4 4 0 0 0 1034 734.5 Z M 1026.9 814.5  L 1039 804.5  L 1026.9 794.5  L 1031.8 804.5  L 1026.9 814.5  Z " fill-rule="nonzero" fill="#e7772d" stroke="none" />
</svg>