<?xml version="1.0" encoding="utf-8"?>
<svg version="1.1" xmlns:xlink="http://www.w3.org/1999/xlink" width="10px" height="293px" preserveAspectRatio="xMidYMin meet" viewBox="991 639  8 293" xmlns="http://www.w3.org/2000/svg">
  <path d="M 942 927  L 990 927  A 5 5 0 0 0 995 922 L 995 649  A 5 5 0 0 1 1000 644 L 1048 644  " stroke-width="2" stroke="#0066ff" fill="none" />
  <path d="M 943.5 923.5  A 3.5 3.5 0 0 0 940 927 A 3.5 3.5 0 0 0 943.5 930.5 A 3.5 3.5 0 0 0 947 927 A 3.5 3.5 0 0 0 943.5 923.5 Z M 1040.6 652  L 1050 644  L 1040.6 636  L 1044.2 644  L 1040.6 652  Z " fill-rule="nonzero" fill="#0066ff" stroke="none" />
</svg>