<?xml version="1.0" encoding="utf-8"?>
<svg version="1.1" xmlns:xlink="http://www.w3.org/1999/xlink" width="34px" height="34px" preserveAspectRatio="xMinYMid meet" viewBox="591 3275  34 32" xmlns="http://www.w3.org/2000/svg">
  <path d="M 919 2403  L 497 2403  A 5 5 0 0 0 492 2408 L 492 3286  A 5 5 0 0 0 497 3291 L 608 3291  " stroke-width="2" stroke="#0066ff" fill="none" />
  <path d="M 917.5 2399.5  A 3.5 3.5 0 0 0 914 2403 A 3.5 3.5 0 0 0 917.5 2406.5 A 3.5 3.5 0 0 0 921 2403 A 3.5 3.5 0 0 0 917.5 2399.5 Z M 600.6 3299  L 610 3291  L 600.6 3283  L 604.2 3291  L 600.6 3299  Z " fill-rule="nonzero" fill="#0066ff" stroke="none" />
</svg>