<?xml version="1.0" encoding="utf-8"?>
<svg version="1.1" xmlns:xlink="http://www.w3.org/1999/xlink" width="100px" height="100px" xmlns="http://www.w3.org/2000/svg">
  <g transform="matrix(1 0 0 1 -2276 -415 )">
    <path d="M 2277 418  A 2 2 0 0 1 2279 416 L 2373 416  A 2 2 0 0 1 2375 418 L 2375 512  A 2 2 0 0 1 2373 514 L 2279 514  A 2 2 0 0 1 2277 512 L 2277 418  Z " fill-rule="nonzero" fill="#ffffff" stroke="none" />
    <path d="M 2276.5 418  A 2.5 2.5 0 0 1 2279 415.5 L 2373 415.5  A 2.5 2.5 0 0 1 2375.5 418 L 2375.5 512  A 2.5 2.5 0 0 1 2373 514.5 L 2279 514.5  A 2.5 2.5 0 0 1 2276.5 512 L 2276.5 418  Z " stroke-width="1" stroke-dasharray="9,4" stroke="#999999" fill="none" stroke-dashoffset="0.5" />
  </g>
</svg>