<?xml version="1.0" encoding="utf-8"?>
<svg version="1.1" xmlns:xlink="http://www.w3.org/1999/xlink" width="22px" height="22px" preserveAspectRatio="xMinYMid meet" viewBox="2421 1252  22 20" xmlns="http://www.w3.org/2000/svg">
  <path d="M 2431 1262.5  L 2454 1262.5  A 5 5 0 0 0 2459.5 1257.5 L 2459.5 1143  A 5 5 0 0 1 2464.5 1138.5 L 2487 1138.5  " stroke-width="3" stroke="#e7772d" fill="none" />
  <path d="M 2432 1258.5  A 4 4 0 0 0 2428 1262.5 A 4 4 0 0 0 2432 1266.5 A 4 4 0 0 0 2436 1262.5 A 4 4 0 0 0 2432 1258.5 Z M 2477.9 1148.5  L 2490 1138.5  L 2477.9 1128.5  L 2482.8 1138.5  L 2477.9 1148.5  Z " fill-rule="nonzero" fill="#e7772d" stroke="none" />
</svg>