<?xml version="1.0" encoding="utf-8"?>
<svg version="1.1" xmlns:xlink="http://www.w3.org/1999/xlink" width="86px" height="12px" preserveAspectRatio="xMinYMid meet" viewBox="1604 1133  86 10" xmlns="http://www.w3.org/2000/svg">
  <path d="M 1545 547.5  L 1605 547.5  A 5 5 0 0 1 1610.5 552.5 L 1610.5 1133  A 5 5 0 0 0 1615.5 1138.5 L 1687 1138.5  " stroke-width="3" stroke="#e7772d" fill="none" />
  <path d="M 1546 543.5  A 4 4 0 0 0 1542 547.5 A 4 4 0 0 0 1546 551.5 A 4 4 0 0 0 1550 547.5 A 4 4 0 0 0 1546 543.5 Z M 1677.9 1148.5  L 1690 1138.5  L 1677.9 1128.5  L 1682.8 1138.5  L 1677.9 1148.5  Z " fill-rule="nonzero" fill="#e7772d" stroke="none" />
</svg>