<?xml version="1.0" encoding="utf-8"?>
<svg version="1.1" xmlns:xlink="http://www.w3.org/1999/xlink" width="36px" height="36px" preserveAspectRatio="xMinYMid meet" viewBox="2467 938  36 34" xmlns="http://www.w3.org/2000/svg">
  <path d="M 4869 861.5  L 3295 861.5  A 5 5 0 0 0 3290.5 866.5 L 3290.5 965  A 5 5 0 0 1 3285.5 970.5 L 2490 970.5  A 5 5 0 0 1 2485.5 965.5 L 2485.5 955  " stroke-width="3" stroke="#e7772d" fill="none" />
  <path d="M 4868 857.5  A 4 4 0 0 0 4864 861.5 A 4 4 0 0 0 4868 865.5 A 4 4 0 0 0 4872 861.5 A 4 4 0 0 0 4868 857.5 Z M 2495.5 964.1  L 2485.5 952  L 2475.5 964.1  L 2485.5 959.2  L 2495.5 964.1  Z " fill-rule="nonzero" fill="#e7772d" stroke="none" />
</svg>