<?xml version="1.0" encoding="utf-8"?>
<svg version="1.1" xmlns:xlink="http://www.w3.org/1999/xlink" width="20px" height="20px" xmlns="http://www.w3.org/2000/svg">
  <g transform="matrix(1 0 0 1 -2617 -225 )">
    <path d="M 3.3179824561403515 5.629385964912281  C 3.3179824561403515 7.976596151693154  5.220772269359482 9.87938596491228  7.567982456140353 9.87938596491228  C 9.915192642921225 9.87938596491228  11.817982456140353 7.976596151693154  11.817982456140353 5.629385964912281  C 11.817982456140353 3.2821757781314087  9.915192642921225 1.379385964912281  7.567982456140353 1.379385964912281  C 5.220772269359482 1.379385964912281  3.317982456140353 3.2821757781314087  3.317982456140353 5.629385964912281  Z M 7.567982456140352 11.096491228070175  C 11.657894736842104 11.096491228070175  14.975877192982459 13.331140350877194  14.975877192982455 17.04385964912281  C 14.975877192982455 20.75657894736842  0.16228070175438547 20.75657894736842  0.16228070175438547 17.04385964912281  C 0.16228070175438547 13.331140350877195  3.4780701754385963 11.096491228070175  7.567982456140352 11.096491228070175  Z M 17.157894736842106 4.4144736842105265  C 17.157894736842106 2.067982456140351  15.25877192982456 0.1644736842105263  12.910087719298247 0.1644736842105263  C 11.875 0.1644736842105263  10.92763157894737 0.5350877192982457  10.190789473684212 1.1491228070175439  C 11.842105263157894 1.9495614035087723  12.984649122807017 3.638157894736842  12.984649122807017 5.598684210526316  C 12.984649122807017 6.712719298245614  12.611842105263158 7.736842105263158  11.991228070175438 8.56359649122807  C 12.287280701754389 8.62938596491228  12.592105263157896 8.664473684210526  12.907894736842104 8.664473684210526  C 15.25438596491228 8.664473684210526  17.157894736842106 6.760964912280702  17.157894736842106 4.4144736842105265  Z M 19.83114035087719 15.651315789473685  C 19.833333333333336 11.80482456140351  16.51535087719298 10.026315789473685  12.42543859649123 10.026315789473685  C 11.978070175438598 10.026315789473685  10.603070175438596 10.160087719298247  10.140350877192983 10.379385964912283  C 13.030701754385966 10.967105263157894  16.17324561403509 13.214912280701759  16.17324561403509 16.80701754385965  C 16.17324561403509 17.368421052631582  15.945175438596493 17.8640350877193  15.543859649122806 18.29605263157895  C 17.958333333333336 17.901315789473685  19.83114035087719 17.019736842105264  19.83114035087719 15.651315789473685  Z " fill-rule="nonzero" fill="#000000" stroke="none" transform="matrix(1 0 0 1 2617 225 )" />
  </g>
</svg>