<?xml version="1.0" encoding="utf-8"?>
<svg version="1.1" xmlns:xlink="http://www.w3.org/1999/xlink" width="24px" height="22px" xmlns="http://www.w3.org/2000/svg">
  <g transform="matrix(1 0 0 1 -3274 -1095 )">
    <path d="M 23.840000000000003 22  C 23.648 16.39  16.352 17.7925  15.263999999999998 15.235  C 15.168 14.3825  15.2 13.75  15.2 12.9525  C 15.647999999999998 12.7325  17.248 11.412500000000001  17.375999999999998 10.3125  C 17.728 10.285  18.304 9.9825  18.464 8.772499999999999  C 18.56 8.14  18.208 7.755  17.983999999999995 7.645  C 18.559999999999995 6.1324999999999985  18.816 1.4024999999999994  14.783999999999997 0.9349999999999996  C 14.368 0.32999999999999996  13.312 0  11.936 0  C 6.431999999999999 0.08249999999999999  4.800000000000001 3.6300000000000003  6.016 7.6725  C 5.792 7.782500000000001  5.4399999999999995 8.14  5.536 8.8  C 5.696 10.01  6.271999999999999 10.3125  6.623999999999999 10.34  C 6.752 11.4675  8.352 12.787500000000001  8.799999999999999 12.980000000000002  C 8.799999999999999 13.777500000000002  8.832 14.3825  8.736 15.262500000000003  C 7.6480000000000015 17.7925  0.5119999999999999 16.4725  0.15999999999999998 22  L 23.840000000000003 22  Z " fill-rule="nonzero" fill="#ffffff" stroke="none" transform="matrix(1 0 0 1 3274 1095 )" />
  </g>
</svg>