<?xml version="1.0" encoding="utf-8"?>
<svg version="1.1" xmlns:xlink="http://www.w3.org/1999/xlink" width="14px" height="20px" xmlns="http://www.w3.org/2000/svg">
  <g transform="matrix(1 0 0 1 -415 -360 )">
    <path d="M 0.3636505126953139 8.47586495535714  C 0.09704895019531468 8.824999999999998  0.09704895019531468 9.389285714285712  0.36431274414062453 9.738364955357142  C 0.6316192626953127 10.0875  1.0636077880859371 10.0875  1.3309143066406244 9.738364955357142  L 6.316363525390624 3.226757812499999  L 6.316363525390624 18.928543526785713  C 6.316363525390624 19.42142857142857  6.6226135253906255 19.82142857142857  6.999978637695311 19.82142857142857  C 7.3773437500000005 19.82142857142857  7.68359375 19.42142857142857  7.68359375 18.928543526785713  L 7.68359375 3.226757812499999  L 12.669042968749999 9.738364955357142  C 12.936349487304685 10.0875  13.368338012695315 10.0875  13.635644531250001 9.738364955357142  C 13.90295104980469 9.389229910714285  13.90295104980469 8.824999999999998  13.635644531250001 8.47586495535714  L 7.483279418945314 0.4410156249999986  C 7.420410156250002 0.3579799107142847  7.344531250000001 0.29280133928571267  7.260449218749999 0.24726562499999868  C 7.177734375000002 0.2017299107142847  7.0888671875 0.17854352678571317  6.999978637695313 0.17854352678571317  C 6.9111328125 0.17854352678571317  6.822222900390626 0.20178571428571349  6.7388458251953125 0.24726562499999868  C 6.654763793945314 0.29280133928571367  6.579589843750002 0.3579799107142847  6.516015625000001 0.4410156249999986  L 0.3636505126953139 8.47586495535714  Z " fill-rule="nonzero" fill="#272636" stroke="none" transform="matrix(1 0 0 1 415 360 )" />
  </g>
</svg>