<?xml version="1.0" encoding="utf-8"?>
<svg version="1.1" xmlns:xlink="http://www.w3.org/1999/xlink" width="9px" height="12px" xmlns="http://www.w3.org/2000/svg">
  <g transform="matrix(1 0 0 1 -1227 -3020 )">
    <path d="M 8.8330078125 7.25284090909091  C 8.9443359375 7.360795454545453  9 7.488636363636363  9 7.636363636363637  C 9 7.784090909090909  8.9443359375 7.911931818181817  8.8330078125 8.019886363636363  L 4.8955078125 11.838068181818182  C 4.7841796875 11.946022727272728  4.65234375 12  4.5 12  C 4.347656250000001 12  4.215820312500001 11.946022727272728  4.1044921875 11.838068181818182  L 0.1669921875 8.019886363636363  C 0.0556640625 7.911931818181817  0 7.784090909090909  0 7.636363636363637  C 0 7.488636363636363  0.0556640625 7.360795454545453  0.1669921875 7.25284090909091  C 0.2783203125 7.144886363636363  0.41015625000000006 7.09090909090909  0.5625 7.09090909090909  L 8.4375 7.09090909090909  C 8.58984375 7.09090909090909  8.7216796875 7.144886363636363  8.8330078125 7.25284090909091  Z M 8.8330078125 3.9801136363636362  C 8.9443359375 4.088068181818181  9 4.21590909090909  9 4.363636363636363  C 9 4.511363636363635  8.9443359375 4.639204545454545  8.8330078125 4.747159090909092  C 8.7216796875 4.855113636363637  8.58984375 4.909090909090908  8.4375 4.909090909090908  L 0.5625 4.909090909090908  C 0.41015625000000006 4.909090909090908  0.2783203125 4.855113636363637  0.1669921875 4.747159090909092  C 0.0556640625 4.639204545454545  0 4.511363636363635  0 4.363636363636363  C 0 4.21590909090909  0.0556640625 4.088068181818181  0.1669921875 3.9801136363636362  L 4.1044921875 0.1619318181818188  C 4.215820312500001 0.0539772727272716  4.347656250000001 0  4.5 0  C 4.65234375 0  4.7841796875 0.0539772727272716  4.8955078125 0.1619318181818188  L 8.8330078125 3.9801136363636362  Z " fill-rule="nonzero" fill="#000000" stroke="none" transform="matrix(1 0 0 1 1227 3020 )" />
  </g>
</svg>