<?xml version="1.0" encoding="utf-8"?>
<svg version="1.1" xmlns:xlink="http://www.w3.org/1999/xlink" width="18px" height="18px" xmlns="http://www.w3.org/2000/svg">
  <g transform="matrix(1 0 0 1 -1013 -3118 )">
    <path d="M 5.312666666666666 17.58883018160377  C 4.564444437499999 18.062490566037734  3.586 17.81750941981132  3.1315555625 17.046339622641508  C 2.9161230946944996 16.68018978546319  2.8491664580041114 16.242932269474263  2.944888895833333 15.827320761792452  L 3.913333333333333 11.619396233490567  C 3.9368318741985986 11.519605367248673  3.9046537342639347 11.414727265111175  3.8295555624999986 11.34633962971698  L 0.659555562499999 8.531999999999998  C 0.0011111249999989545 7.947849056603771  -0.07488887500000097 6.9262641509433935  0.487999999999999 6.245207554245281  C 0.7585287594839641 5.917018329537674  1.1465561024364976 5.7125782616545715  1.565777770833332 5.677358497641507  L 5.726 5.332075471698113  C 5.816666666666666 5.3243773514150945  5.8977777708333345 5.263471698113206  5.934888895833333 5.17086791745283  L 7.537777770833333 1.1766792523584897  C 7.871777770833333 0.3446037806603765  8.800666666666666 -0.05275470990566122  9.611111104166667 0.2966037665094333  C 9.99762834297185 0.46396566708842796  10.30344577219899 0.7803556623174831  10.461777770833335 1.1766792523584897  L 12.064666666666668 5.170641516509433  C 12.101777770833335 5.263471698113206  12.182888895833335 5.324603773584905  12.2735555625 5.332075471698112  L 16.434222229166668 5.677584898584905  C 17.30666666666667 5.750037721698113  17.95266666666667 6.536377358490564  17.8835555625 7.429132082547168  C 17.851090591462462 7.855166541748262  17.65603011211385 8.25126642984043  17.340222229166667 8.532452823113205  L 14.170222229166665 11.346792452830188  C 14.096444458333334 11.412226422169809  14.063111124999999 11.518188686320753  14.086444437499999 11.619622634433963  L 15.054888895833333 15.827547162735849  C 15.255333333333333 16.698113193396225  14.734888895833333 17.575245275943395  13.88533333333333 17.785132068396226  C 13.47621387454082 17.886298122028577  13.044353119500624 17.815642115335912  12.686888895833329 17.589056603773585  L 9.12488889583333 15.333962264150943  C 9.048391958921107 15.285040277567832  8.95116360357889 15.285040277567832  8.874666666666663 15.333962264150943  L 5.312444437499996 17.589056603773585  Z M 8.171333333333333 14.179924528301887  C 8.678742119089387 13.858220540493322  9.321480110077276 13.858220540493322  9.828888895833332 14.179924528301887  L 13.390888895833333 16.43501886792453  C 13.4455555625 16.46943395518868  13.51 16.480075478773585  13.571111104166667 16.46490566037736  C 13.704666666666666 16.43184906367925  13.791111104166665 16.286037728773586  13.757111104166666 16.137509433962265  L 12.788666666666668 11.929584905660379  C 12.652271638183905 11.339660569134391  12.846848557764712 10.721223791079387  13.2944444375 10.322037742924529  L 16.4644444375 7.507924535377358  C 16.516222208333332 7.461962278301887  16.548888875 7.3951698183962264  16.554666666666666 7.322264150943396  C 16.5664444375 7.170792452830188  16.461111104166665 7.042641516509434  16.325999999999997 7.031547169811319  L 12.165333333333333 6.685811320754715  C 11.570824102262259 6.634967504104625  11.054855172337097 6.247910570978096  10.830666666666666 5.684603773584905  L 9.227777770833333 1.6906415094339609  C 9.202715333302177 1.6264755056906852  9.15373919754712 1.5750286267833888  9.091555562499998 1.5475471768867912  C 8.968666666666666 1.4945660448113192  8.82644445833333 1.5554716981132064  8.772222229166665 1.6906415094339609  L 7.1691111041666655 5.684603773584905  C 6.9449225984962375 6.247910570978096  6.42895366857107 6.634967504104625  5.834444437499998 6.685811320754715  L 1.6739999999999982 7.031547169811319  C 1.609173899193356 7.03729739947288  1.5493089393086925 7.069262421087106  1.5077777708333322 7.12030187971698  C 1.413578678481389 7.2362129370978785  1.4258307763385438 7.4071837171292945  1.535555562499999 7.507924535377357  L 4.705555562499999 10.322264143867924  C 5.153151449807924 10.721450196066346  5.34772837011491 11.339886984595381  5.211333333333332 11.929811327830189  L 4.242888895833331 16.137509433962265  C 4.226334144915175 16.20892158491809  4.237648079509998 16.284093285076683  4.274444437499998 16.347169804245283  C 4.347111104166665 16.470113200471697  4.494888874999998 16.50701886792453  4.609111104166665 16.43479244575472  L 8.171333333333333 14.179924528301887  Z " fill-rule="nonzero" fill="#999999" stroke="none" transform="matrix(1 0 0 1 1013 3118 )" />
  </g>
</svg>