<?xml version="1.0" encoding="utf-8"?>
<svg version="1.1" xmlns:xlink="http://www.w3.org/1999/xlink" width="16px" height="16px" xmlns="http://www.w3.org/2000/svg">
  <g transform="matrix(1 0 0 1 -410 -3411 )">
    <path d="M 1.8378761061946909 1.2695575221238942  L 14.298053097345134 1.269557522123894  C 14.610851539727175 1.269557522123894  14.864424778761062 1.5231307611577811  14.864424778761062 1.8359292035398234  L 14.864424778761062 14.296106194690266  C 14.864424778761062 14.608904637072309  14.610851539727175 14.862477876106196  14.298053097345134 14.862477876106196  L 1.8378761061946909 14.862477876106196  C 1.5250776638126486 14.862477876106196  1.2715044247787617 14.608904637072309  1.2715044247787617 14.296106194690266  L 1.2715044247787617 1.8359292035398234  C 1.2715044247787617 1.5231307611577811  1.5250776638126486 1.2695575221238942  1.8378761061946909 1.2695575221238942  Z M 16 1.8359292035398234  C 15.997168141592919 0.8975338763936963  15.23644842449126 0.13681415929203572  14.298053097345134 0.13681415929203572  L 1.8378761061946909 0.13681415929203572  C 0.8994807790485638 0.13681415929203572  0.1387610619469031 0.8975338763936963  0.1387610619469032 1.8359292035398234  L 0.1387610619469031 14.296106194690264  C 0.1387610619469031 15.23450152183639  0.8994807790485638 15.99522123893805  1.8378761061946909 16  L 14.29805309734513 16  C 15.23644842449126 15.99522123893805  15.997168141592919 15.23450152183639  16 14.296106194690266  L 16 1.8359292035398234  Z " fill-rule="nonzero" fill="#333333" stroke="none" transform="matrix(1 0 0 1 410 3411 )" />
  </g>
</svg>