<?xml version="1.0" encoding="utf-8"?>
<svg version="1.1" xmlns:xlink="http://www.w3.org/1999/xlink" width="7px" height="8px" xmlns="http://www.w3.org/2000/svg">
  <g transform="matrix(1 0 0 1 -2505 -3309 )">
    <path d="M 4.952527132291667 1.455814106170583  C 4.9319209156788 0.645169776586136  4.312447745432742 -0.00040122197930377517  3.5555658906249996 0  C 2.797786045833333 0  2.181004648958333 0.6442792423370405  2.1549581374999995 1.4517210828288043  L 0.38657364375000014 1.4517210828288045  C 0.1897293362088682 1.4517209785403573  0.030101739548292736 1.622584008899446  0.029910073958333346 1.8334885192131014  C 0.03010174356982861 2.0443930264751726  0.18972933905309675 2.215256052077542  0.38657364375000003 2.215255947784898  L 0.7803968958333335 2.215255947784898  L 0.7803968958333335 6.494883753949395  C 0.7803968958333335 7.298418617970029  1.2895193791666668 7.954604649499137  1.917240310416667 7.954604649499137  L 5.119745735416667 7.954604649499137  C 5.747466666666667 7.954604649499137  6.256589142708334 7.302325594441159  6.25658915 6.494883753949395  L 6.25658915 2.219535017997326  L 6.613252712500001 2.219535017997326  C 6.810164769555171 2.2195350473143867  6.969820414500276 2.0485587166047248  6.969916282291667 1.83758154255488  C 6.969724616701708 1.626677032241225  6.810097020041133 1.4558140018821362  6.6132527125 1.455814106170583  L 4.952527132291667 1.455814106170583  Z M 4.226176740624999 1.3834420141131125  L 2.7736496156249997 1.3834420141131125  C 2.7995224833333325 0.9946048122691525  3.1136434145833327 0.6917211006025415  3.5017364375 0.6917211006025415  C 3.8898294604166663 0.6917211006025415  4.204124035416666 0.9944187653985036  4.226176740624999 1.3834420141131125  Z M 1.9570046489583333 7.262697689117918  L 1.9570046489583328 7.258790712646788  C 1.7310945749999997 7.258790712646788  1.4824372062499995 6.952930251049793  1.4824372062499995 6.516279105011534  L 1.4824372062499995 2.2480001345191267  L 5.678703872916667 2.2480001345191267  L 5.678703872916667 6.520186081482663  C 5.678703872916667 6.957023282204071  5.430220155208334 7.262697689117918  5.204310073958334 7.262697689117918  L 1.9570046489583333 7.262697689117918  Z " fill-rule="nonzero" fill="#999999" stroke="none" transform="matrix(1 0 0 1 2505 3309 )" />
  </g>
</svg>