<?xml version="1.0" encoding="utf-8"?>
<svg version="1.1" xmlns:xlink="http://www.w3.org/1999/xlink" width="3px" height="3px" xmlns="http://www.w3.org/2000/svg">
  <g transform="matrix(1 0 0 1 -2507 -3312 )">
    <path d="M 0.37590697656249983 2.97511628125  C 0.5662325546874998 2.97511628125  0.7217674453124996 2.805813953125  0.7217674453124996 2.5937209296874997  L 0.7217674453124996 0.41697674218749947  C 0.7217674453124996 0.20488371874999967  0.5662325624999998 0.03558139062499954  0.37590697656249983 0.03558139843749952  C 0.1857674453125 0.03558139843749952  0.030046507812500067 0.20488372656249965  0.030046507812500067 0.41697674218749947  L 0.030046507812500067 2.5937209296874997  C 0.030046507812500067 2.805813953125  0.18130232031250015 2.97511628125  0.37609302343749995 2.97511628125  Z M 1.5863255781249999 2.97511628125  C 1.7766511562499998 2.97511628125  1.9323720859374998 2.805813953125  1.9323720937499997 2.5937209296874997  L 1.9323720937499997 0.41697674218749947  C 1.9323720937499997 0.20488371874999967  1.7766511640624998 0.03558139062499954  1.5863255781249999 0.03558139843749952  C 1.396186046875 0.03558139843749952  1.240465109375 0.20488372656249965  1.2404651171875 0.41697674218749947  L 1.2404651171875 2.5937209296874997  C 1.2404651171875 2.805813953125  1.396186046875 2.97511628125  1.586511625 2.97511628125  Z M 2.2780465078125003 2.5937209296874997  C 2.2780465078125003 2.805813953125  2.4293023203125 2.97511628125  2.6239069765625 2.97511628125  C 2.8140465078125 2.97511628125  2.9697674453125 2.805813953125  2.9697674453125 2.5937209296874997  L 2.9697674453125 0.41697674218749947  C 2.9697674453125 0.20488371874999967  2.814046515625 0.03558139062499954  2.6239069765625 0.03558139843749952  C 2.4337674375000002 0.0355814062499995  2.2780465078125003 0.20488372656249965  2.2780465078125003 0.41697674218749947  L 2.2780465078125003 2.5937209296874997  Z " fill-rule="nonzero" fill="#999999" stroke="none" transform="matrix(1 0 0 1 2507 3312 )" />
  </g>
</svg>