<?xml version="1.0" encoding="utf-8"?>
<svg version="1.1" xmlns:xlink="http://www.w3.org/1999/xlink" width="60px" height="10px" preserveAspectRatio="xMinYMid meet" viewBox="515 659  60 8" xmlns="http://www.w3.org/2000/svg">
  <path d="M 436 558  L 515 558  A 5 5 0 0 1 520 563 L 520 658  A 5 5 0 0 0 525 663 L 573 663  " stroke-width="2" stroke="#0066ff" fill="none" />
  <path d="M 437.5 554.5  A 3.5 3.5 0 0 0 434 558 A 3.5 3.5 0 0 0 437.5 561.5 A 3.5 3.5 0 0 0 441 558 A 3.5 3.5 0 0 0 437.5 554.5 Z M 565.6 671  L 575 663  L 565.6 655  L 569.2 663  L 565.6 671  Z " fill-rule="nonzero" fill="#0066ff" stroke="none" />
</svg>