<?xml version="1.0" encoding="utf-8"?>
<svg version="1.1" xmlns:xlink="http://www.w3.org/1999/xlink" width="12px" height="12px" xmlns="http://www.w3.org/2000/svg">
  <g transform="matrix(1 0 0 1 -99 -465 )">
    <path d="M 6 0.04838709677419502  C 9.286983870967742 0.04838709677419502  11.95161290322585 2.713016129032258  11.95161290322585 6  C 11.95161290322585 9.286983870967742  9.286983870967742 11.951612903225804  6 11.951612903225804  C 2.713016129032258 11.951612903225804  0.04838709677414954 9.286983870967742  0.04838709677414954 6  C 0.04838709677414954 2.713016129032258  2.713016129032258 0.04838709677419502  6 0.04838709677419502  Z M 6.006048387096781 0.9919354838709693  C 3.2368306451612625 0.9919354838709693  0.9919354838709296 3.236830645161285  0.9919354838709296 6.006048387096781  C 0.9919354838709296 8.775266129032262  3.2368306451612625 11.020161290322584  6.006048387096781 11.020161290322584  C 8.775266129032298 11.020161290322584  11.02016129032254 8.775266129032262  11.02016129032254 6.006048387096781  C 11.02016129032254 3.236830645161285  8.775266129032298 0.9919354838709693  6.006048387096781 0.9919354838709693  Z M 6.200000000000001 9.586363636363638  C 5.90314694696599 9.586363636363638  5.6625 9.323839694218965  5.6625 9  C 5.6625 8.676160305781035  5.90314694696599 8.413636363636362  6.200000000000001 8.413636363636362  C 6.49685305303401 8.413636363636362  6.737499999999999 8.676160305781035  6.737499999999999 9  C 6.737499999999999 9.323839694218965  6.49685305303401 9.586363636363638  6.200000000000001 9.586363636363638  Z M 4.0625 4.584482758620687  C 4.0625 4.5650637931034455  4.064037499999994 4.545994827586208  4.066987499999959 4.527372413793103  C 4.097950000000037 3.9392396551724116  4.2894124999999805 3.4666431034482796  4.641362500000014 3.1096068965517247  C 5.033812500000021 2.6928655172413816  5.583237499999996 2.484482758620692  6.289649999999983 2.484482758620692  C 6.924099999999999 2.484482758620692  7.427750000000014 2.651818965517242  7.800575000000026 2.9864793103448277  C 8.166862500000025 3.30850344827586  8.35 3.753655172413789  8.35 4.321970689655177  C 8.35 4.7450241379310345  8.225724999999965 5.114418965517245  7.977174999999988 5.4301431034482786  C 7.86597499999998 5.5564206896551696  7.601075000000037 5.79952586206897  7.182462500000019 6.159446551724137  C 6.9731625000000355 6.329932758620691  6.819462500000009 6.503581034482761  6.721337500000026 6.680379310344824  C 6.611662499999966 6.858710344827591  6.550374999999985 7.059175862068969  6.5375 7.281775862068969  L 6.5375 7.547413793103453  C 6.5375 7.7573775862068945  6.361212499999965 7.9275862068965575  6.14375 7.9275862068965575  C 5.941075000000001 7.9275862068965575  5.774175000000014 7.77974137931035  5.7524000000000335 7.58965517241379  L 5.75 7.233620689655174  C 5.75 7.202917241379316  5.753775000000042 7.173070689655173  5.760875000000032 7.144479310344832  C 5.7828499999999625 6.922374137931036  5.838100000000031 6.723477586206899  5.926624999999967 6.547789655172414  C 6.0639874999999845 6.263637931034487  6.394300000000021 5.89739310344828  6.917562499999986 5.449079310344826  C 7.100699999999961 5.272268965517242  7.211899999999968 5.158615517241379  7.251149999999962 5.1081068965517265  C 7.447362499999963 4.868163793103452  7.545474999999988 4.6187465517241435  7.545474999999988 4.35985517241379  C 7.545474999999988 3.9872982758620767  7.4342875000000275 3.6936844827586244  7.211899999999968 3.4790017241379365  C 6.989512500000002 3.2579948275862085  6.669012500000008 3.14749137931035  6.250399999999991 3.14749137931035  C 5.759837499999958 3.14749137931035  5.39682499999999 3.3021913793103517  5.161350000000039 3.611603448275866  C 4.94551250000004 3.8768068965517273  4.837587499999972 4.239877586206898  4.837587499999972 4.700827586206901  C 4.837587499999972 4.907448275862066  4.664000000000033 5.091379310344825  4.45 5.091379310344825  C 4.235999999999967 5.091379310344825  4.0625 4.923862068965513  4.0625 4.717241379310349  L 4.0625 4.584482758620687  Z " fill-rule="nonzero" fill="#000000" stroke="none" transform="matrix(1 0 0 1 99 465 )" />
  </g>
</svg>