<?xml version="1.0" encoding="utf-8"?>
<svg version="1.1" xmlns:xlink="http://www.w3.org/1999/xlink" width="908px" height="707px" xmlns="http://www.w3.org/2000/svg">
  <g transform="matrix(1 0 0 1 -504 -1129 )">
    <path d="M 504 1129  L 1412 1129  L 1412 1836  L 504 1836  L 504 1129  " fill-rule="nonzero" fill="#cccccc" stroke="none" />
    <path d="M 553 1178  L 1363 1178  L 1363 1787  L 553 1787  L 553 1178  " fill-rule="nonzero" fill="#ffffff" stroke="none" />
    <path d="M 1029.185 1341.1  C 999.491 1341.1  976.1600000000001 1317.7689999999998  976.1600000000001 1288.0749999999998  C 976.1600000000001 1258.3809999999999  999.491 1235.05  1029.185 1235.05  C 1058.879 1235.05  1082.21 1258.3809999999999  1082.21 1288.0749999999998  C 1082.21 1317.7689999999998  1058.879 1341.1  1029.185 1341.1  " fill-rule="nonzero" fill="#cccccc" stroke="none" />
    <path d="M 571 1770  L 571 1454.3  L 764.75 1310.8  L 1036 1501.8383259911893  L 1191 1396.9  L 1346 1501.8383259911893  L 1346 1770  L 571 1770  " fill-rule="nonzero" fill="#169bd5" stroke="none" />
  </g>
</svg>