<?xml version="1.0" encoding="utf-8"?>
<svg version="1.1" xmlns:xlink="http://www.w3.org/1999/xlink" width="558px" height="305px" xmlns="http://www.w3.org/2000/svg">
  <g transform="matrix(1 0 0 1 -705 -340 )">
    <path d="M 705 340  L 1263 340  L 1263 645  L 705 645  L 705 340  " fill-rule="nonzero" fill="#cccccc" stroke="none" />
    <path d="M 726 361  L 1242 361  L 1242 624  L 726 624  L 726 361  " fill-rule="nonzero" fill="#ffffff" stroke="none" />
    <path d="M 1018.0350000000001 431.5  C 1005.2250000000001 431.5  995.1600000000001 421.435  995.1600000000001 408.625  C 995.1600000000001 395.815  1005.2250000000001 385.75  1018.0350000000001 385.75  C 1030.845 385.75  1040.91 395.815  1040.91 408.625  C 1040.91 421.435  1030.845 431.5  1018.0350000000001 431.5  " fill-rule="nonzero" fill="#cccccc" stroke="none" />
    <path d="M 734 617  L 734 480.6  L 859.25 418.6  L 1034.6 535.6666666666666  L 1134.8 455.79999999999995  L 1235 535.6666666666666  L 1235 617  L 734 617  " fill-rule="nonzero" fill="#169bd5" stroke="none" />
  </g>
</svg>