<?xml version="1.0" encoding="utf-8"?>
<svg version="1.1" xmlns:xlink="http://www.w3.org/1999/xlink" width="10px" height="8px" xmlns="http://www.w3.org/2000/svg">
  <g transform="matrix(1 0 0 1 -715 -823 )">
    <path d="M 4.653662109375 0.4010416666666667  L 7.1014648437500005 7.575572916666668  L 5.553173828125 7.575572916666668  L 5.0496337890625 5.9386979166666665  L 2.638183593750001 5.9386979166666665  L 2.1332763671875 7.575572916666668  L 0.5849609375000009 7.575572916666668  L 2.997802734374999 0.4010416666666667  L 4.653662109375 0.4010416666666667  Z M 3.108105468750002 4.884947916666666  L 4.789306640625 4.884947916666666  L 4.068603515625 2.3740624999999986  C 4.024800773567629 2.166486851064313  3.9904990949875563 1.9567593812320112  3.9658203125000013 1.7456249999999993  L 3.9315917968750025 1.7456249999999993  C 3.9315917968750025 1.9429166666666664  3.8630859375000015 2.1782291666666658  3.8288085937500016 2.3740624999999986  L 3.108105468750002 4.884947916666666  Z M 7.942065429687501 0.4010416666666667  L 9.413623046875001 0.4010416666666667  L 9.413623046875001 7.575572916666668  L 7.942065429687501 7.575572916666668  L 7.942065429687501 0.4010416666666667  Z " fill-rule="nonzero" fill="#ffffff" stroke="none" transform="matrix(1 0 0 1 715 823 )" />
  </g>
</svg>