<?xml version="1.0" encoding="utf-8"?>
<svg version="1.1" xmlns:xlink="http://www.w3.org/1999/xlink" width="26px" height="21px" xmlns="http://www.w3.org/2000/svg">
  <g transform="matrix(1 0 0 1 -707 -817 )">
    <path d="M 2.0868427734374997 9.490523965786194  C 1.0453223283759443 9.490523965786194  0.19532692508983776 10.332015767762169  0.17489062500000002 11.383348388671873  C 0.17464518819859615 11.395974730747165  0.17452246093749996 11.408603200204501  0.17452246093749996 11.421231973598694  C 0.17452246093749996 12.487532562689728  1.0306974280520929 13.351939981411196  2.0868427734374997 13.351939981411196  C 3.1429881188229087 13.351939981411196  3.9991630859375005 12.48753256268973  3.9991630859375005 11.421231973598694  C 3.9991630859375005 11.408603200204501  3.999040358676404 11.395974730747165  3.9987949218750005 11.383348388671873  C 3.978358621785162 10.332015767762169  3.128363218499056 9.490523965786194  2.0868427734374997 9.490523965786194  Z M 22.000417968750007 9.264173583984375  C 22.000180995089906 9.27658039283365  22.000062500000006 9.288989219980976  22.000062500000006 9.301398335479794  C 22.000062500000006 10.367698924570828  22.8562374671146 11.232106343292294  23.91238281250001 11.232106343292294  C 24.96852815788541 11.232106343292294  25.824703125000006 10.367698924570828  25.824703125000006 9.301398335479794  C 25.824703125000006 9.288989219980976  25.824584629910106 9.27658039283365  25.82434765625 9.264173583984375  C 25.80391135616021 8.212840963074635  24.953915952874087 7.371349161098616  23.9123955078125 7.371349161098616  C 22.870875062750915 7.371349161098616  22.020879659464796 8.212840963074637  22.000443359375 9.264173583984375  Z M 21.255152343749998 14.20745361328125  L 21.253755859375005 14.20817138671875  L 21.253755859375005 6.768808593749998  C 21.253755859375005 6.109892578124999  20.881123046875004 5.497734374999999  20.321107421875002 5.1215185546875  L 13.932978515625 1.40042724609375  C 13.35406272847058 1.0708373414336156  12.646597427779422 1.0708373414336156  12.067681640625002 1.40042724609375  L 5.678867187499998 5.1200830078125  C 5.098593821373318 5.461740325701438  4.742833091669075 6.089897579635157  4.7455078125000005 6.7680908203125005  L 4.7455078125000005 14.25421142578125  C 4.7455078125000005 14.91384521484375  5.118851562500001 15.52600341796875  5.6788671875 15.902219238281253  L 12.067656249999997 19.575142822265626  C 12.646572037154419 19.90473272692576  13.354037337845577 19.90473272692576  13.932953124999997 19.575142822265626  L 20.32179296875 15.855461425781249  C 20.928121093749997 15.52600341796875  21.255152343749998 14.91312744140625  21.255152343749998 14.20745361328125  Z " fill-rule="nonzero" fill="#ff8000" stroke="none" transform="matrix(1 0 0 1 707 817 )" />
  </g>
</svg>