<?xml version="1.0" encoding="utf-8"?>
<svg version="1.1" xmlns:xlink="http://www.w3.org/1999/xlink" width="25px" height="26px" xmlns="http://www.w3.org/2000/svg">
  <g transform="matrix(1 0 0 1 -708 -814 )">
    <path d="M 22.934261924342106 11.729630859375  C 22.556383634868425 11.729630859375  22.22612561677632 11.403310546874998  22.22612561677632 11.029966796874998  L 22.22612561677632 7.812390625  C 22.22612561677632 7.3920234375  21.990311472039476 6.9723671875  21.613152754934212 6.786406249999999  L 12.549162212171053 1.56319921875  C 12.17406895646764 1.3300253984258132  11.696870599453419 1.3300253984258141  11.321777343750002 1.5631992187500003  L 2.2123509457236845 6.7393828125  C 1.8351922286184215 6.9723671875  1.5993780838815788 7.3457109375  1.5993780838815788 7.765367187500001  L 1.5993780838815788 9.537328125  C 1.5993780838815788 9.910671875  1.268374794407895 10.2369921875  0.8912160773026317 10.2369921875  C 0.5133634868421053 10.2369921875  0.18307976973684215 9.910671875  0.18307976973684215 9.537328125  L 0.18307976973684215 7.765367187500001  C 0.18307976973684215 6.8327187500000015  0.7022769325657895 5.993431640625001  1.5041889391447367 5.526751953125  L 10.614334909539473 0.3505429687499999  C 11.432341034603374 -0.11589650694937106  12.440037666054518 -0.11589650694937106  13.258043791118421 0.35054296875  L 22.36744449013158 5.526751953125  C 23.17007606907894 5.993431640625001  23.68929893092105 6.8327187500000015  23.68929893092105 7.765367187500001  L 23.68929893092105 10.9836796875  C 23.64242393092105 11.403310546874998  23.359015213815788 11.72965625  22.934261924342106 11.72965625  Z M 11.936163651315788 26  L 11.935469777960526 25.9992890625  C 11.463121916118423 25.9992890625  11.038368626644738 25.905953125  10.613615337171053 25.672968750000003  L 1.5041889391447367 20.450447265625  C 0.7022769325657892 19.983767578125  0.18307976973684215 19.14448046875  0.18307976973684215 18.211832031249997  L 0.18307976973684215 15.226503906250002  C 0.18307976973684215 14.853896484375003  0.5133634868421053 14.528261718750002  0.8912160773026315 14.528261718750002  C 1.2683747944078945 14.528261718750002  1.5986585115131573 14.853896484375003  1.5986585115131573 15.226503906250002  L 1.5986585115131573 18.21183203125  C 1.5986585115131573 18.632199218750003  1.8351922286184208 19.051144531250003  2.2123509457236836 19.23781640625  L 11.322496916118423 24.413999999999994  C 11.697590171821833 24.647173820324184  12.174788528836059 24.647173820324184  12.549881784539476 24.414  L 21.660027754934212 19.23781640625  C 22.037186472039476 19.00483203125  22.272974917763158 18.632199218750003  22.272974917763158 18.21183203125  L 22.272974917763158 16.252488281250002  C 22.272974917763158 15.879855468750002  22.603978207236842 15.554246093750002  22.98113692434211 15.554246093750002  C 23.35901521381579 15.554246093750002  23.642423930921055 15.833542968750002  23.642423930921055 16.252488281250002  L 23.642423930921055 18.21183203125  C 23.642423930921055 19.145191406250003  23.12320106907895 19.983767578125004  22.320569490131582 20.450447265625  L 13.258043791118421 25.62665625  C 12.832545230263156 25.8603515625  12.36094263980263 26  11.936163651315788 26  Z " fill-rule="nonzero" fill="#ff8000" stroke="none" transform="matrix(1 0 0 1 708 814 )" />
  </g>
</svg>