<?xml version="1.0" encoding="utf-8"?>
<svg version="1.1" xmlns:xlink="http://www.w3.org/1999/xlink" width="20px" height="20px" xmlns="http://www.w3.org/2000/svg">
  <g transform="matrix(1 0 0 1 -1536 -105 )">
    <path d="M 19.983359375 10.00833984375  C 19.983339843750002 4.49  15.51 0.01666015625  9.99166015625 0.01666015625  C 4.55208984375 0.01666015625  0.1279296875 4.36416015625  0.0029296875 9.77375  C 0.11835937499999999 5.05333984375  3.7075000000000005 1.2658398437500002  8.118359375 1.2658398437500002  C 12.6016796875 1.2658398437500002  16.2366796875 5.18041015625  16.2366796875 10.00833984375  C 16.2366796875 11.04291015625  17.075429687499998 11.882089843750002  18.11001953125 11.882089843750002  C 19.14419921875 11.882089843750002  19.983359375 11.04291015625  19.983359375 10.00833984375  Z M 0 10.00833984375  C 0 15.526660156250001  4.47333984375 20  9.99166015625 20  C 15.431249999999999 20  19.85541015625 15.6525  19.98 10.24291015625  C 19.865 14.96291015625  16.27583984375 18.751250000000002  11.865000000000002 18.751250000000002  C 7.381660156250001 18.751250000000002  3.7466601562500013 14.836250000000001  3.7466601562500013 10.008339843750003  C 3.7466601562500013 8.974160156250003  2.907500000000001 8.135000000000002  1.872910156250001 8.135000000000002  C 0.8391601562500001 8.135  0 8.97375  0 10.00833984375  Z " fill-rule="nonzero" fill="#ffffff" stroke="none" transform="matrix(1 0 0 1 1536 105 )" />
  </g>
</svg>