<?xml version="1.0" encoding="utf-8"?>
<svg version="1.1" xmlns:xlink="http://www.w3.org/1999/xlink" width="20px" height="3px" xmlns="http://www.w3.org/2000/svg">
  <g transform="matrix(1 0 0 1 -3355 -56 )">
    <path d="M 19.602272727272727 0.2187499999999999  C 19.867424242424242 0.36458333333333204  20 0.5416666666666661  20 0.75  L 20 2.25  C 20 2.458333333333333  19.867424242424242 2.635416666666666  19.602272727272727 2.78125  C 19.337121212121215 2.927083333333333  19.015151515151516 3  18.636363636363637 3  L 1.3636363636363635 3  C 0.984848484848485 3  0.662878787878788 2.927083333333333  0.3977272727272727 2.78125  C 0.13257575757575757 2.635416666666666  0 2.458333333333333  0 2.25  L 0 0.75  C 0 0.5416666666666661  0.13257575757575757 0.36458333333333204  0.3977272727272727 0.2187499999999999  C 0.662878787878788 0.07291666666666607  0.984848484848485 0  1.3636363636363635 0  L 18.636363636363637 0  C 19.015151515151516 0  19.337121212121215 0.07291666666666607  19.602272727272727 0.2187499999999999  Z " fill-rule="nonzero" fill="#333333" stroke="none" transform="matrix(1 0 0 1 3355 56 )" />
  </g>
</svg>