<?xml version="1.0" encoding="utf-8"?>
<svg version="1.1" xmlns:xlink="http://www.w3.org/1999/xlink" width="12px" height="12px" xmlns="http://www.w3.org/2000/svg">
  <g transform="matrix(1 0 0 1 -847 -821 )">
    <path d="M 853 821  C 856.36 821  859 823.64  859 827  C 859 830.36  856.36 833  853 833  C 849.64 833  847 830.36  847 827  C 847 823.64  849.64 821  853 821  Z " fill-rule="nonzero" fill="#ffffff" stroke="none" />
    <path d="M 853 821.5  C 856.08 821.5  858.5 823.92  858.5 827  C 858.5 830.08  856.08 832.5  853 832.5  C 849.92 832.5  847.5 830.08  847.5 827  C 847.5 823.92  849.92 821.5  853 821.5  Z " stroke-width="1" stroke="#ffffff" fill="none" />
  </g>
</svg>