<?xml version="1.0" encoding="utf-8"?>
<svg version="1.1" xmlns:xlink="http://www.w3.org/1999/xlink" width="18px" height="18px" xmlns="http://www.w3.org/2000/svg">
  <g transform="matrix(1 0 0 1 -2830 -256 )">
    <path d="M 0.6666666601562499 9  C 0.6666666601562499 4.397499999999999  4.397499999999999 0.6666666601562499  9 0.6666666601562499  C 13.6025 0.6666666601562499  17.333333339843747 4.397499999999999  17.333333339843747 9  C 17.333333339843747 13.6025  13.6025 17.333333339843747  8.999999999999998 17.333333339843747  C 4.397499999999999 17.333333339843747  0.6666666601562499 13.6025  0.6666666601562499 9  Z M 3.7249999999999996 4.924999999999999  C 2.8211479686199867 6.090933872078784  2.3314788855967095 7.524755325483309  2.3333333398437492 9  C 2.3336684242585863 12.681661359882204  5.318338597256926 15.666059897103075  8.999999972387895 15.666059897103075  C 10.475092345304676 15.666059897103075  11.908532243900616 15.176834607922771  13.075833339843749 14.274999999999999  L 3.7249999999999996 4.924999999999999  Z M 9.001486090832962 2.3333331742088017  C 9.000990727218657 2.3333331742088017  9.000495363601999 2.3333332294204503  9 2.33333333984375  C 7.5145245935782174 2.330914390673973  6.071162281333501 2.8268042644318863  4.90083333984375 3.741666660156251  L 14.258333339843748 13.1  C 15.171960773604479 11.928585446888125  15.668152750989211 10.485572835924554  15.668152750989211 8.99999983436505  C 15.668152750989211 5.318101505755366  12.68338441944265 2.3333331742088017  9.001486090832962 2.3333331742088017  Z " fill-rule="nonzero" fill="#000000" stroke="none" transform="matrix(1 0 0 1 2830 256 )" />
  </g>
</svg>