<?xml version="1.0" encoding="utf-8"?>
<svg version="1.1" xmlns:xlink="http://www.w3.org/1999/xlink" width="30px" height="30px" xmlns="http://www.w3.org/2000/svg">
  <g transform="matrix(1 0 0 1 -411 -3186 )">
    <path d="M 25.71428571428571 30  L 4.285714285714286 30  C 1.885714285714276 30  0 28.114285714285643  0 25.71428571428571  L 0 4.285714285714286  C 0 1.885714285714357  1.885714285714276 0  4.285714285714286 0  L 25.71428571428571 0  C 28.114285714285725 0  30 1.885714285714357  30 4.285714285714286  L 30 25.71428571428571  C 30 28.114285714285643  28.114285714285725 30  25.71428571428571 30  Z M 12.408571428571399 17.825892857142826  C 11.663809523809537 19.715178571428524  6.779047619047641 18.72946428571432  6.538095238095219 22.857142857142854  L 22.747619047619065 22.857142857142854  C 22.616190476190432 18.667857142857137  17.621904761904748 19.715178571428524  16.87714285714289 17.805357142857147  C 16.811428571428532 17.16875000000008  16.83333333333337 16.696428571428573  16.83333333333337 16.100892857142853  C 17.139999999999986 15.936607142857124  18.23523809523806 14.950892857142922  18.322857142857174 14.129464285714285  C 18.563809523809514 14.10892857142861  18.958095238095243 13.883035714285695  19.067619047619033 12.979464285714357  C 19.13333333333331 12.50714285714285  18.892380952380968 12.219642857142908  18.73904761904758 12.137500000000045  C 19.13333333333331 11.008035714285793  19.308571428571454 7.475892857142818  16.548571428571435 7.126785714285688  C 16.263809523809492 6.675000000000019  15.540952380952392 6.428571428571428  14.599047619047626 6.428571428571428  C 10.831428571428562 6.490178571428617  9.71428571428573 9.139285714285766  10.546666666666706 12.15803571428572  C 10.393333333333317 12.240178571428585  10.152380952380977 12.50714285714285  10.21809523809525 13.000000000000032  C 10.327619047619043 13.90357142857137  10.72190476190477 14.129464285714285  10.96285714285711 14.14999999999996  C 11.050476190476227 14.991964285714271  12.145714285714298 15.977678571428637  12.452380952380915 16.121428571428524  C 12.452380952380915 16.716964285714244  12.474285714285754 17.16875000000008  12.408571428571399 17.825892857142826  Z " fill-rule="nonzero" fill="#cccccc" stroke="none" transform="matrix(1 0 0 1 411 3186 )" />
  </g>
</svg>