<?xml version="1.0" encoding="utf-8"?>
<svg version="1.1" xmlns:xlink="http://www.w3.org/1999/xlink" width="9px" height="16px" xmlns="http://www.w3.org/2000/svg">
  <g transform="matrix(1 0 0 1 -1458 -3296 )">
    <path d="M 7.370396094528386 8.00555820842572  C 7.370396094528386 7.967017603087184  7.354606926500891 7.930055630072902  7.326502243902439 7.90280400886918  L 0.30647648780487846 1.0955063059866963  C 0.0724050731707326 0.868509800443459  0.0724050731707326 0.5004873791574278  0.30647648780487846 0.2734908736141909  C 0.5405666341463423 0.04651253215077624  0.9200897560975612 0.04651253215077624  1.154179902439024 0.2734908736141909  L 8.704013268292682 7.5945414101995565  C 8.938103414634146 7.821537915742794  8.938103414634146 8.189560337028826  8.704013268292682 8.416556842572062  L 1.154198634146341 15.737607379157426  C 0.9200897560975612 15.964603884700663  0.5405666341463412 15.964603884700663  0.30647648780487735 15.737607379157426  C 0.07240507317073153 15.51061087361419  0.07240507317073153 15.142588452328157  0.30647648780487735 14.915591946784922  L 7.326502243902439 8.108312407982261  C 7.354606926500891 8.081060786778536  7.370396094528386 8.044098813764258  7.370396094528386 8.00555820842572  Z " fill-rule="nonzero" fill="#999999" stroke="none" transform="matrix(1 0 0 1 1458 3296 )" />
  </g>
</svg>