<?xml version="1.0" encoding="utf-8"?>
<svg version="1.1" xmlns:xlink="http://www.w3.org/1999/xlink" width="50px" height="50px" xmlns="http://www.w3.org/2000/svg">
  <g transform="matrix(1 0 0 1 -340 -3126 )">
    <path d="M 46.42857142857143 50  L 3.571428571428571 50  C 1.5714285714286038 50  0 48.4285714285714  0 46.42857142857143  L 0 3.571428571428571  C 0 1.5714285714286038  1.5714285714286038 0  3.571428571428571 0  L 46.42857142857143 0  C 48.4285714285714 0  50 1.5714285714286038  50 3.571428571428571  L 50 46.42857142857143  C 50 48.4285714285714  48.4285714285714 50  46.42857142857143 50  Z M 10.714285714285714 34  L 40 34  L 28.66359447004608 15.714285714285714  L 21.105990783410107 28.82352941176472  L 18.271889400921687 22.268907563025174  L 10.714285714285714 34  Z " fill-rule="nonzero" fill="#cccccc" stroke="none" transform="matrix(1 0 0 1 340 3126 )" />
  </g>
</svg>