<?xml version="1.0" encoding="utf-8"?>
<svg version="1.1" xmlns:xlink="http://www.w3.org/1999/xlink" width="50px" height="50px" xmlns="http://www.w3.org/2000/svg">
  <g transform="matrix(1 0 0 1 -340 -2901 )">
    <path d="M 42.857142857142854 50  L 7.142857142857142 50  C 3.1428571428571264 50  0 46.85714285714273  0 42.857142857142854  L 0 7.142857142857142  C 0 3.142857142857262  3.1428571428571264 0  7.142857142857142 0  L 42.857142857142854 0  C 46.857142857142875 0  50 3.142857142857262  50 7.142857142857142  L 50 42.857142857142854  C 50 46.85714285714273  46.857142857142875 50  42.857142857142854 50  Z M 20.68095238095233 29.709821428571377  C 19.43968253968256 32.85863095238087  11.298412698412735 31.215773809523874  10.896825396825365 38  L 37.91269841269844 38  C 37.693650793650725 31.11309523809523  29.369841269841245 32.85863095238087  28.12857142857148 29.675595238095248  C 28.019047619047555 28.614583333333464  28.055555555555618 27.827380952380953  28.055555555555618 26.83482142857142  C 28.566666666666645 26.561011904761873  30.392063492063432 24.91815476190487  30.53809523809529 23.549107142857142  C 30.939682539682522 23.514880952381016  31.596825396825405 23.138392857142826  31.779365079365057 21.632440476190595  C 31.88888888888885 20.845238095238084  31.487301587301612 20.366071428571512  31.231746031745967 20.229166666666742  C 31.88888888888885 18.34672619047632  32.18095238095243 12.459821428571363  27.58095238095239 11.877976190476147  C 27.106349206349158 11.125000000000032  25.90158730158732 10.714285714285714  24.331746031746043 10.714285714285714  C 18.052380952380936 10.816964285714361  16.190476190476215 15.232142857142945  17.577777777777843 20.26339285714287  C 17.322222222222194 20.40029761904764  16.92063492063496 20.845238095238084  17.03015873015875 21.66666666666672  C 17.212698412698405 23.17261904761895  17.869841269841285 23.549107142857142  18.27142857142852 23.583333333333268  C 18.417460317460378 24.98660714285712  20.242857142857165 26.629464285714395  20.753968253968193 26.869047619047542  C 20.753968253968193 27.861607142857075  20.790476190476255 28.614583333333464  20.68095238095233 29.709821428571377  Z " fill-rule="nonzero" fill="#cccccc" stroke="none" transform="matrix(1 0 0 1 340 2901 )" />
  </g>
</svg>