<?xml version="1.0" encoding="utf-8"?>
<svg version="1.1" xmlns:xlink="http://www.w3.org/1999/xlink" width="16px" height="16px" xmlns="http://www.w3.org/2000/svg">
  <defs>
    <mask fill="white" id="clip5335">
      <path d="M 16 8  C 16 12.480000000000018  12.480000000000018 16  8 16  C 3.519999999999982 16  0 12.480000000000018  0 8  C 0 3.519999999999982  3.519999999999982 0  8 0  C 12.480000000000018 0  16 3.519999999999982  16 8  Z M 5.135561907670478 8.498824123046916  C 5.135561907670478 7.774483455078098  4.494174061079548 7.186544595703026  3.703984241477258 7.186544595703026  C 2.913794421875025 7.186544595703026  2.2724065752840943 7.774483455078098  2.2724065752840943 8.498824123046916  C 2.2724065752840943 9.223164791015733  2.913794421875025 9.811103650390578  3.703984241477258 9.811103650390578  C 4.494174061079548 9.811103650390578  5.135561907670478 9.223164791015733  5.135561907670478 8.498824123046916  Z M 9.430294891335222 8.498824123046916  C 9.430294891335222 7.774483455078098  8.788907044744292 7.186544595703026  7.998717225142059 7.186544595703026  C 7.208527405539769 7.186544595703026  6.567139558948838 7.774483455078098  6.567139558948838 8.498824123046916  C 6.567139558948838 9.223164791015733  7.208527405539769 9.811103650390578  7.998717225142059 9.811103650390578  C 8.788907044744292 9.811103650390578  9.430294891335222 9.223164791015733  9.430294891335222 8.498824123046916  Z M 13.727593424715906 8.498824123046916  C 13.727593424715906 7.774483455078098  13.086205578124975 7.186544595703026  12.296015758522742 7.186544595703026  C 11.505825938920452 7.186544595703026  10.864438092329522 7.774483455078098  10.864438092329522 8.498824123046916  C 10.864438092329522 9.223164791015733  11.505825938920452 9.811103650390578  12.296015758522742 9.811103650390578  C 13.083640028409093 9.811103650390578  13.727593424715906 9.223164791015733  13.727593424715906 8.498824123046916  Z " fill-rule="evenodd" />
    </mask>
  </defs>
  <g transform="matrix(1 0 0 1 -374 -3160 )">
    <path d="M 16 8  C 16 12.480000000000018  12.480000000000018 16  8 16  C 3.519999999999982 16  0 12.480000000000018  0 8  C 0 3.519999999999982  3.519999999999982 0  8 0  C 12.480000000000018 0  16 3.519999999999982  16 8  Z M 5.135561907670478 8.498824123046916  C 5.135561907670478 7.774483455078098  4.494174061079548 7.186544595703026  3.703984241477258 7.186544595703026  C 2.913794421875025 7.186544595703026  2.2724065752840943 7.774483455078098  2.2724065752840943 8.498824123046916  C 2.2724065752840943 9.223164791015733  2.913794421875025 9.811103650390578  3.703984241477258 9.811103650390578  C 4.494174061079548 9.811103650390578  5.135561907670478 9.223164791015733  5.135561907670478 8.498824123046916  Z M 9.430294891335222 8.498824123046916  C 9.430294891335222 7.774483455078098  8.788907044744292 7.186544595703026  7.998717225142059 7.186544595703026  C 7.208527405539769 7.186544595703026  6.567139558948838 7.774483455078098  6.567139558948838 8.498824123046916  C 6.567139558948838 9.223164791015733  7.208527405539769 9.811103650390578  7.998717225142059 9.811103650390578  C 8.788907044744292 9.811103650390578  9.430294891335222 9.223164791015733  9.430294891335222 8.498824123046916  Z M 13.727593424715906 8.498824123046916  C 13.727593424715906 7.774483455078098  13.086205578124975 7.186544595703026  12.296015758522742 7.186544595703026  C 11.505825938920452 7.186544595703026  10.864438092329522 7.774483455078098  10.864438092329522 8.498824123046916  C 10.864438092329522 9.223164791015733  11.505825938920452 9.811103650390578  12.296015758522742 9.811103650390578  C 13.083640028409093 9.811103650390578  13.727593424715906 9.223164791015733  13.727593424715906 8.498824123046916  Z " fill-rule="nonzero" fill="#f59a23" stroke="none" transform="matrix(1 0 0 1 374 3160 )" />
    <path d="M 16 8  C 16 12.480000000000018  12.480000000000018 16  8 16  C 3.519999999999982 16  0 12.480000000000018  0 8  C 0 3.519999999999982  3.519999999999982 0  8 0  C 12.480000000000018 0  16 3.519999999999982  16 8  Z " stroke-width="2" stroke="#f59a23" fill="none" transform="matrix(1 0 0 1 374 3160 )" mask="url(#clip5335)" />
    <path d="M 5.135561907670478 8.498824123046916  C 5.135561907670478 7.774483455078098  4.494174061079548 7.186544595703026  3.703984241477258 7.186544595703026  C 2.913794421875025 7.186544595703026  2.2724065752840943 7.774483455078098  2.2724065752840943 8.498824123046916  C 2.2724065752840943 9.223164791015733  2.913794421875025 9.811103650390578  3.703984241477258 9.811103650390578  C 4.494174061079548 9.811103650390578  5.135561907670478 9.223164791015733  5.135561907670478 8.498824123046916  Z " stroke-width="2" stroke="#f59a23" fill="none" transform="matrix(1 0 0 1 374 3160 )" mask="url(#clip5335)" />
    <path d="M 9.430294891335222 8.498824123046916  C 9.430294891335222 7.774483455078098  8.788907044744292 7.186544595703026  7.998717225142059 7.186544595703026  C 7.208527405539769 7.186544595703026  6.567139558948838 7.774483455078098  6.567139558948838 8.498824123046916  C 6.567139558948838 9.223164791015733  7.208527405539769 9.811103650390578  7.998717225142059 9.811103650390578  C 8.788907044744292 9.811103650390578  9.430294891335222 9.223164791015733  9.430294891335222 8.498824123046916  Z " stroke-width="2" stroke="#f59a23" fill="none" transform="matrix(1 0 0 1 374 3160 )" mask="url(#clip5335)" />
    <path d="M 13.727593424715906 8.498824123046916  C 13.727593424715906 7.774483455078098  13.086205578124975 7.186544595703026  12.296015758522742 7.186544595703026  C 11.505825938920452 7.186544595703026  10.864438092329522 7.774483455078098  10.864438092329522 8.498824123046916  C 10.864438092329522 9.223164791015733  11.505825938920452 9.811103650390578  12.296015758522742 9.811103650390578  C 13.083640028409093 9.811103650390578  13.727593424715906 9.223164791015733  13.727593424715906 8.498824123046916  Z " stroke-width="2" stroke="#f59a23" fill="none" transform="matrix(1 0 0 1 374 3160 )" mask="url(#clip5335)" />
  </g>
</svg>