<?xml version="1.0" encoding="utf-8"?>
<svg version="1.1" xmlns:xlink="http://www.w3.org/1999/xlink" width="20px" height="20px" xmlns="http://www.w3.org/2000/svg">
  <g transform="matrix(1 0 0 1 -1304 -2901 )">
    <path d="M 19.841101694915256 10  C 19.841101694915256 4.559427966101694  15.430444915254238 0.1483050847457627  9.989406779661017 0.1483050847457627  C 4.548368644067796 0.1483050847457627  0.13771186440677965 4.559449152542372  0.13771186440677965 10  C 0.13771186440677965 15.441525423728812  4.548368644067796 19.851694915254235  9.989406779661017 19.851694915254235  C 15.430444915254238 19.851694915254235  19.841101694915256 15.441525423728814  19.841101694915256 10  Z M 18.36334745762712 10  C 18.36334745762712 14.62470338983051  14.614131355932205 18.3739406779661  9.989406779661017 18.3739406779661  C 5.364703389830509 18.3739406779661  1.6154661016949154 14.62470338983051  1.6154661016949154 10  C 1.6154661016949154 5.375275423728812  5.364703389830509 1.6260593220338984  9.989406779661017 1.6260593220338984  C 14.614131355932205 1.6260593220338984  18.36334745762712 5.375275423728812  18.36334745762712 10  Z M 16.3675 10.739830508474576  C 16.36752118644068 10.330953389830508  16.03656779661017 10.000953389830507  15.62864406779661 10.000953389830507  L 10.718177966101695 10.000953389830507  L 10.718177966101695 4.336228813559321  C 10.718177966101695 3.9273516949152536  10.387224576271187 3.597351694915254  9.979300847457628 3.597351694915254  C 9.570911016949154 3.597351694915254  9.240423728813559 3.9273516949152536  9.240423728813559 4.336228813559321  L 9.240423728813559 10.739830508474576  C 9.240423728813559 11.147754237288135  9.570911016949154 11.478707627118643  9.979300847457628 11.478707627118643  C 10.018580508474578 11.478707627118643  10.057097457627119 11.475593220338983  10.09468220338983 11.46966101694915  C 10.1323093220339 11.475572033898304  10.170889830508475 11.478707627118643  10.210190677966102 11.478707627118643  L 15.628622881355934 11.478707627118643  C 16.036546610169495 11.478707627118643  16.3675 11.147754237288135  16.3675 10.739830508474576  Z " fill-rule="nonzero" fill="#666666" stroke="none" transform="matrix(1 0 0 1 1304 2901 )" />
  </g>
</svg>