<?xml version="1.0" encoding="utf-8"?>
<svg version="1.1" xmlns:xlink="http://www.w3.org/1999/xlink" width="57px" height="58px" xmlns="http://www.w3.org/2000/svg">
  <g transform="matrix(1 0 0 1 -1452 -2562 )">
    <path d="M 1480.5 2563.5  C 1495.62 2563.5  1507.5 2575.6  1507.5 2591  C 1507.5 2606.4  1495.62 2618.5  1480.5 2618.5  C 1465.38 2618.5  1453.5 2606.4  1453.5 2591  C 1453.5 2575.6  1465.38 2563.5  1480.5 2563.5  Z " fill-rule="nonzero" fill="#ffffff" stroke="none" />
    <path d="M 1480.5 2563  C 1495.9 2563  1508 2575.32  1508 2591  C 1508 2606.68  1495.9 2619  1480.5 2619  C 1465.1 2619  1453 2606.68  1453 2591  C 1453 2575.32  1465.1 2563  1480.5 2563  Z " stroke-width="2" stroke-dasharray="18,8,4,8" stroke="#f59a23" fill="none" />
  </g>
</svg>