<?xml version="1.0" encoding="utf-8"?>
<svg version="1.1" xmlns:xlink="http://www.w3.org/1999/xlink" width="65px" height="65px" xmlns="http://www.w3.org/2000/svg">
  <g transform="matrix(1 0 0 1 -1448 -2558 )">
    <path d="M 1480.5 2559  C 1498.14 2559  1512 2572.86  1512 2590.5  C 1512 2608.14  1498.14 2622  1480.5 2622  C 1462.86 2622  1449 2608.14  1449 2590.5  C 1449 2572.86  1462.86 2559  1480.5 2559  Z " fill-rule="nonzero" fill="#ffffff" stroke="none" fill-opacity="0" />
    <path d="M 1480.5 2559  C 1498.14 2559  1512 2572.86  1512 2590.5  C 1512 2608.14  1498.14 2622  1480.5 2622  C 1462.86 2622  1449 2608.14  1449 2590.5  C 1449 2572.86  1462.86 2559  1480.5 2559  Z " stroke-width="2" stroke="#f59a23" fill="none" />
  </g>
</svg>