<?xml version="1.0" encoding="utf-8"?>
<svg version="1.1" xmlns:xlink="http://www.w3.org/1999/xlink" width="10px" height="10px" xmlns="http://www.w3.org/2000/svg">
  <g transform="matrix(1 0 0 1 -1689 -1620 )">
    <path d="M 1694 1620  C 1696.8 1620  1699 1622.2  1699 1625  C 1699 1627.8  1696.8 1630  1694 1630  C 1691.2 1630  1689 1627.8  1689 1625  C 1689 1622.2  1691.2 1620  1694 1620  Z " fill-rule="nonzero" fill="#7d97b2" stroke="none" />
    <path d="M 1694 1620.5  C 1696.52 1620.5  1698.5 1622.48  1698.5 1625  C 1698.5 1627.52  1696.52 1629.5  1694 1629.5  C 1691.48 1629.5  1689.5 1627.52  1689.5 1625  C 1689.5 1622.48  1691.48 1620.5  1694 1620.5  Z " stroke-width="1" stroke="#7d97b2" fill="none" />
  </g>
</svg>