<?xml version="1.0" encoding="utf-8"?>
<svg version="1.1" xmlns:xlink="http://www.w3.org/1999/xlink" width="68px" height="68px" xmlns="http://www.w3.org/2000/svg">
  <g transform="matrix(1 0 0 1 -1648 -2745 )">
    <path d="M 1682 2746  C 1700.48 2746  1715 2760.52  1715 2779  C 1715 2797.48  1700.48 2812  1682 2812  C 1663.52 2812  1649 2797.48  1649 2779  C 1649 2760.52  1663.52 2746  1682 2746  Z " fill-rule="nonzero" fill="#ffffff" stroke="none" fill-opacity="0" />
    <path d="M 1682 2746  C 1700.48 2746  1715 2760.52  1715 2779  C 1715 2797.48  1700.48 2812  1682 2812  C 1663.52 2812  1649 2797.48  1649 2779  C 1649 2760.52  1663.52 2746  1682 2746  Z " stroke-width="2" stroke="#999999" fill="none" />
  </g>
</svg>