<?xml version="1.0" encoding="utf-8"?>
<svg version="1.1" xmlns:xlink="http://www.w3.org/1999/xlink" width="68px" height="68px" xmlns="http://www.w3.org/2000/svg">
  <g transform="matrix(1 0 0 1 -1789 -2745 )">
    <path d="M 1823 2746  C 1841.48 2746  1856 2760.52  1856 2779  C 1856 2797.48  1841.48 2812  1823 2812  C 1804.52 2812  1790 2797.48  1790 2779  C 1790 2760.52  1804.52 2746  1823 2746  Z " fill-rule="nonzero" fill="#ffffff" stroke="none" fill-opacity="0" />
    <path d="M 1823 2746  C 1841.48 2746  1856 2760.52  1856 2779  C 1856 2797.48  1841.48 2812  1823 2812  C 1804.52 2812  1790 2797.48  1790 2779  C 1790 2760.52  1804.52 2746  1823 2746  Z " stroke-width="2" stroke="#ff6666" fill="none" />
  </g>
</svg>