<?xml version="1.0" encoding="utf-8"?>
<svg version="1.1" xmlns:xlink="http://www.w3.org/1999/xlink" width="60px" height="60px" xmlns="http://www.w3.org/2000/svg">
  <g transform="matrix(1 0 0 1 -1793 -2749 )">
    <path d="M 1823 2750.5  C 1838.96 2750.5  1851.5 2763.04  1851.5 2779  C 1851.5 2794.96  1838.96 2807.5  1823 2807.5  C 1807.04 2807.5  1794.5 2794.96  1794.5 2779  C 1794.5 2763.04  1807.04 2750.5  1823 2750.5  Z " fill-rule="nonzero" fill="#ffffff" stroke="none" />
    <path d="M 1823 2750  C 1839.24 2750  1852 2762.76  1852 2779  C 1852 2795.24  1839.24 2808  1823 2808  C 1806.76 2808  1794 2795.24  1794 2779  C 1794 2762.76  1806.76 2750  1823 2750  Z " stroke-width="2" stroke-dasharray="18,8,4,8" stroke="#ff6666" fill="none" />
  </g>
</svg>