<?xml version="1.0" encoding="utf-8"?>
<svg version="1.1" xmlns:xlink="http://www.w3.org/1999/xlink" width="60px" height="60px" xmlns="http://www.w3.org/2000/svg">
  <g transform="matrix(1 0 0 1 -1652 -2749 )">
    <path d="M 1682 2750.5  C 1697.96 2750.5  1710.5 2763.04  1710.5 2779  C 1710.5 2794.96  1697.96 2807.5  1682 2807.5  C 1666.04 2807.5  1653.5 2794.96  1653.5 2779  C 1653.5 2763.04  1666.04 2750.5  1682 2750.5  Z " fill-rule="nonzero" fill="#ffffff" stroke="none" />
    <path d="M 1682 2750  C 1698.24 2750  1711 2762.76  1711 2779  C 1711 2795.24  1698.24 2808  1682 2808  C 1665.76 2808  1653 2795.24  1653 2779  C 1653 2762.76  1665.76 2750  1682 2750  Z " stroke-width="2" stroke-dasharray="18,8,4,8" stroke="#999999" fill="none" />
  </g>
</svg>