<?xml version="1.0" encoding="utf-8"?>
<svg version="1.1" xmlns:xlink="http://www.w3.org/1999/xlink" width="80px" height="80px" xmlns="http://www.w3.org/2000/svg">
  <g transform="matrix(1 0 0 1 -5108 -698 )">
    <path d="M 74.28571428571429 80  L 5.7142857142857135 80  C 2.514285714285766 80  0 77.48571428571424  0 74.28571428571429  L 0 5.7142857142857135  C 0 2.514285714285766  2.514285714285766 0  5.7142857142857135 0  L 74.28571428571429 0  C 77.48571428571424 0  80 2.514285714285766  80 5.7142857142857135  L 80 74.28571428571429  C 80 77.48571428571424  77.48571428571424 80  74.28571428571429 80  Z M 17.142857142857142 54  L 64 54  L 45.86175115207372 25.142857142857142  L 33.76958525345617 46.11764705882355  L 29.235023041474697 35.63025210084028  L 17.142857142857142 54  Z " fill-rule="nonzero" fill="#666666" stroke="none" transform="matrix(1 0 0 1 5108 698 )" />
  </g>
</svg>