<?xml version="1.0" encoding="utf-8"?>
<svg version="1.1" xmlns:xlink="http://www.w3.org/1999/xlink" width="24px" height="20px" xmlns="http://www.w3.org/2000/svg">
  <g transform="matrix(1 0 0 1 -3833 -613 )">
    <path d="M 23.792105263157897 17.994680851063826  C 23.789473684210527 19.06117021276596  22.91842105263158 19.9281914893617  21.844736842105263 20  L 2.155263157894737 20  C 1.0815789473684212 19.930851063829785  0.21315789473684232 19.06382978723404  0.21052631578947367 17.99468085106383  L 0.21052631578947367 4.420212765957446  C 0.20789473684210524 3.9042553191489366  0.41315789473684217 3.409574468085106  0.7763157894736843 3.045212765957447  C 1.142105263157895 2.6808510638297878  1.6368421052631579 2.473404255319149  2.155263157894737 2.473404255319149  L 6.450000000000001 2.473404255319149  L 8.055263157894737 0.30319148936170226  C 8.16842105263158 0.15425531914893648  8.347368421052632 0.06914893617021262  8.53421052631579 0.07180851063829832  L 15.715789473684213 0.07180851063829832  C 15.897368421052633 0.07446808510638328  16.07105263157895 0.15957446808510714  16.181578947368422 0.30319148936170226  L 17.892105263157898 2.4840425531914896  L 21.847368421052632 2.4840425531914896  C 22.92105263157895 2.4840425531914896  23.792105263157897 3.3510638297872344  23.792105263157897 4.420212765957446  L 23.792105263157897 17.994680851063826  Z M 22.6 18.002659574468083  L 22.6 4.430851063829787  C 22.6 4.01595744680851  22.260526315789477 3.6781914893617023  21.844736842105263 3.6781914893617023  L 17.594736842105263 3.6781914893617023  C 17.413157894736845 3.6755319148936167  17.239473684210527 3.5904255319148937  17.128947368421052 3.4468085106382986  L 15.421052631578949 1.2632978723404256  L 8.836842105263159 1.2632978723404256  L 7.231578947368421 3.4335106382978733  C 7.118421052631579 3.5824468085106393  6.939473684210526 3.667553191489363  6.752631578947369 3.664893617021277  L 2.155263157894737 3.664893617021277  C 1.7394736842105263 3.664893617021277  1.4 4.002659574468085  1.4 4.417553191489362  L 1.4 17.992021276595743  C 1.4026315789473682 18.40691489361702  1.7394736842105263 18.74468085106383  2.155263157894737 18.74468085106383  L 21.844736842105263 18.74468085106383  C 22.257894736842104 18.74468085106383  22.592105263157894 18.414893617021274  22.6 18.002659574468083  Z M 21.06578947368421 6.428191489361702  C 20.939473684210526 6.73404255319149  20.63684210526316 6.9361702127659575  20.302631578947373 6.9361702127659575  C 19.844736842105267 6.9361702127659575  19.476315789473688 6.5664893617021285  19.47368421052632 6.111702127659575  C 19.47368421052632 5.779255319148936  19.676315789473687 5.476063829787235  19.984210526315792 5.3510638297872335  C 20.294736842105266 5.223404255319148  20.650000000000002 5.292553191489362  20.886842105263156 5.529255319148936  C 21.123684210526317 5.7659574468085095  21.194736842105264 6.119680851063829  21.06578947368421 6.428191489361702  Z M 18.268421052631577 11.292553191489363  C 18.268421052631577 14.481382978723405  15.673684210526313 17.069148936170212  12.471052631578946 17.0718085106383  C 9.26842105263158 17.066489361702125  6.673684210526315 14.481382978723405  6.6657894736842085 11.289893617021276  C 6.6657894736842085 8.09840425531915  9.265789473684208 5.513297872340425  12.468421052631578 5.513297872340425  C 15.671052631578949 5.513297872340425  18.268421052631577 8.101063829787234  18.268421052631577 11.292553191489363  Z M 17.081578947368417 11.292553191489358  C 17.081578947368417 8.752659574468083  15.018421052631577 6.696808510638295  12.471052631578946 6.694148936170212  C 9.923684210526314 6.696808510638298  7.857894736842104 8.752659574468085  7.855263157894736 11.289893617021276  C 7.855263157894736 13.827127659574467  9.921052631578947 15.88563829787234  12.468421052631578 15.88563829787234  C 15.015789473684208 15.88563829787234  17.081578947368417 13.829787234042554  17.081578947368417 11.292553191489358  Z " fill-rule="nonzero" fill="#999999" stroke="none" transform="matrix(1 0 0 1 3833 613 )" />
  </g>
</svg>