<?xml version="1.0" encoding="utf-8"?>
<svg version="1.1" xmlns:xlink="http://www.w3.org/1999/xlink" width="34px" height="37px" xmlns="http://www.w3.org/2000/svg">
  <g transform="matrix(1 0 0 1 -2062 -2114 )">
    <path d="M 8.466796875 2.481119791666665  C 11.071397569444445 0.8270399305555524  13.915798611111112 0  17 0  C 20.08420138888889 0  22.928602430555557 0.8270399305555524  25.533203125 2.481119791666665  C 28.137803819444446 4.135199652777774  30.200086805555557 6.379448784722221  31.720052083333336 9.2138671875  C 33.24001736111111 12.048285590277775  34 15.14366319444444  34 18.5  C 34 21.856336805555557  33.24001736111111 24.951714409722218  31.720052083333336 27.7861328125  C 30.200086805555557 30.62055121527778  28.137803819444446 32.86480034722222  25.533203125 34.518880208333336  C 22.928602430555557 36.17296006944445  20.08420138888889 37  17 37  C 13.915798611111112 37  11.071397569444445 36.17296006944445  8.466796875 34.518880208333336  C 5.862196180555556 32.86480034722222  3.7999131944444446 30.62055121527778  2.279947916666667 27.7861328125  C 0.7599826388888888 24.951714409722218  0 21.856336805555557  0 18.5  C 0 15.14366319444444  0.7599826388888888 12.048285590277775  2.279947916666667 9.2138671875  C 3.7999131944444446 6.379448784722221  5.862196180555556 4.135199652777774  8.466796875 2.481119791666665  Z M 13.458333333333332 27.533203125  L 25.5 19.824869791666668  C 25.972222222222225 19.535807291666668  26.208333333333336 19.094184027777775  26.208333333333336 18.5  C 26.208333333333336 17.90581597222222  25.972222222222225 17.464192708333336  25.5 17.175130208333336  L 13.458333333333332 9.466796875  C 13.000868055555557 9.161675347222221  12.528645833333332 9.153645833333334  12.041666666666668 9.442708333333334  C 11.569444444444446 9.747829861111109  11.333333333333332 10.197482638888888  12 10.791666666666666  L 12 26.208333333333332  C 11.333333333333332 26.802517361111104  11.569444444444446 27.252170138888886  12.041666666666668 27.557291666666668  C 12.277777777777779 27.685763888888886  12.51388888888889 27.75  12.75 27.75  C 13.000868055555557 27.75  13.236979166666668 27.677734375  13.458333333333332 27.533203125  Z " fill-rule="nonzero" fill="#000000" stroke="none" transform="matrix(1 0 0 1 2062 2114 )" />
  </g>
</svg>