<?xml version="1.0" encoding="utf-8"?>
<svg version="1.1" xmlns:xlink="http://www.w3.org/1999/xlink" width="15px" height="18px" xmlns="http://www.w3.org/2000/svg">
  <g transform="matrix(1 0 0 1 -2948 -361 )">
    <path d="M 14.994285714285715 7.45536  L 14.97904761904762 7.45536  C 13.523809523809526 7.45536  12.114285714285717 6.9792  10.94857142857143 6.103680000000001  L 10.94857142857143 12.247680000000003  C 10.94857142857143 15.381120000000001  8.54857142857143 17.9232  5.592380952380956 17.9232  C 2.63619047619048 17.9232  0.23619047619048064 15.381120000000001  0.23619047619048064 12.247680000000003  C 0.23619047619048064 9.114240000000002  2.63619047619048 6.572160000000003  5.592380952380956 6.572160000000003  C 5.889523809523813 6.572160000000003  6.179047619047623 6.595200000000003  6.453333333333337 6.648960000000003  L 6.453333333333337 9.897599999999999  C 6.186666666666671 9.79008  5.897142857142861 9.73632  5.615238095238097 9.73632  C 4.297142857142859 9.73632  3.222857142857145 10.865279999999998  3.222857142857145 12.27072  C 3.222857142857145 13.676160000000003  4.297142857142859 14.80512  5.615238095238097 14.80512  C 6.933333333333336 14.80512  8.000000000000002 13.676160000000003  8 12.27072  L 8 0.06720000000000027  L 10.986666666666668 0.06720000000000027  C 10.986666666666668 2.4172800000000008  12.784761904761904 4.31424  14.994285714285715 4.31424  L 14.994285714285715 7.45536  Z " fill-rule="nonzero" fill="#ffffff" stroke="none" transform="matrix(1 0 0 1 2948 361 )" />
  </g>
</svg>