<?xml version="1.0" encoding="utf-8"?>
<svg version="1.1" xmlns:xlink="http://www.w3.org/1999/xlink" width="20px" height="20px" xmlns="http://www.w3.org/2000/svg">
  <g transform="matrix(1 0 0 1 -1930 -2024 )">
    <path d="M 20 10  C 20 4.470588242187499  15.529411757812499 0  10 0  C 4.4705882421875 0  0 4.4705882421875  0 10  C 0 15.5294117578125  4.4705882421875 20  10 20  C 15.5294117578125 20  20 15.5294117578125  20 10  Z M 11.76470587890625 9.999999999999998  L 14.352941171874999 12.58823529296875  C 14.823529414062499 13.05882353515625  14.823529414062499 13.88235294921875  14.352941171874999 14.352941171874999  C 13.8823529296875 14.823529414062499  13.058823515625 14.823529414062499  12.58823529296875 14.352941171874999  L 10 11.76470587890625  L 7.411764707031249 14.4705882421875  C 6.94117646484375 14.941176484375  6.117647050781249 14.941176484375  5.647058828125 14.4705882421875  C 5.41176470703125 14.117647070312497  5.29411765625 13.882352949218749  5.29411765625 13.5294117578125  C 5.29411765625 13.176470566406252  5.41176470703125 12.8235294140625  5.647058828125 12.58823529296875  L 8.23529412109375 10  L 5.647058828125 7.5294117578124995  C 5.41176470703125 7.1764705859374995  5.29411765625 6.94117646484375  5.29411765625 6.588235292968749  C 5.29411765625 6.23529412109375  5.41176470703125 5.88235294921875  5.647058828125 5.647058828124999  C 6.1176470703125 5.1764705859374995  6.941176484375 5.1764705859374995  7.411764707031249 5.647058828124999  L 10 8.23529412109375  L 12.58823529296875 5.647058828124999  C 13.05882353515625 5.1764705859374995  13.88235294921875 5.1764705859374995  14.352941171874999 5.647058828124999  C 14.823529414062499 6.117647070312499  14.823529414062499 6.941176484374999  14.352941171874999 7.4117647070312485  L 11.76470587890625 9.999999999999998  Z " fill-rule="nonzero" fill="#e7772d" stroke="none" transform="matrix(1 0 0 1 1930 2024 )" />
  </g>
</svg>