<?xml version="1.0" encoding="utf-8"?>
<svg version="1.1" xmlns:xlink="http://www.w3.org/1999/xlink" width="20px" height="20px" xmlns="http://www.w3.org/2000/svg">
  <g transform="matrix(1 0 0 1 -3708 -1920 )">
    <path d="M 10 19.875978842592595  C 4.54564749558454 19.875978842592595  0.12402115740740711 15.454352504415462  0.12402115740740711 10  C 0.12402115740740711 4.54564749558454  4.54564749558454 0.12402115740740711  10 0.12402115740740711  C 15.454352504415462 0.12402115740740711  19.875978842592595 4.54564749558454  19.875978842592595 10  C 19.875978842592595 15.454352504415462  15.454352504415462 19.875978842592595  10 19.875978842592595  Z M 10 17.901798935185187  C 14.36357550457345 17.901798935185187  17.90095237268519 14.364422067073452  17.90095237268519 10.000846562500001  C 17.90095237268519 5.6372710579265455  14.363575504573456 2.099894189814813  10 2.099894189814813  C 5.636424495426548 2.099894189814813  2.099047627314814 5.637271057926546  2.099047627314814 10.000846562500001  C 2.099047627314814 14.364422067073452  5.636424495426548 17.901798935185187  10 17.901798935185187  Z M 10.84656085648148 5.767195763888888  C 10.846560843697109 5.299653122090389  10.467542641798502 4.920634930555556  10 4.920634930555556  C 9.532457358201498 4.920634930555556  9.153439156302886 5.299653122090388  9.153439143518519 5.767195763888891  L 9.153439143518519 10.846560856481485  C 9.153439156302888 11.314103498279986  9.532457358201498 11.693121689814816  10 11.693121689814816  L 15.079365069444446 11.693121689814816  C 15.546853046565953 11.693044386258029  15.925785939086586 11.314048828420354  15.925785939086586 10.846560844907406  C 15.925785939086586 10.379072861394462  15.546853046565953 10.000077303556784  15.079365069444446 10  L 10.84656085648148 10  L 10.84656085648148 5.767195763888888  Z " fill-rule="nonzero" fill="#0fc060" stroke="none" transform="matrix(1 0 0 1 3708 1920 )" />
  </g>
</svg>