<?xml version="1.0" encoding="utf-8"?>
<svg version="1.1" xmlns:xlink="http://www.w3.org/1999/xlink" width="20px" height="20px" xmlns="http://www.w3.org/2000/svg">
  <g transform="matrix(1 0 0 1 -3684 -2058 )">
    <path d="M 19.94318181818182 10  C 19.94318181818182 15.482943093039774  15.482943093039774 19.94318181818182  10 19.94318181818182  C 4.517056906960227 19.94318181818182  0.05681818181818182 15.482943093039774  0.05681818181818182 10  C 0.05681818181818182 4.517056906960227  4.517056906960227 0.05681818181818182  10 0.05681818181818182  C 15.482943093039774 0.05681818181818182  19.94318181818182 4.517056906960227  19.94318181818182 10  Z M 18.51635136274858 10  C 18.51635136274858 5.303966974431819  14.695307639382102 1.4836486372514204  10 1.4836486372514204  C 5.303966974431819 1.4836486372514204  1.483648637251421 5.303966952237216  1.483648637251421 10  C 1.483648637251421 14.695307639382102  5.303966952237217 18.51635136274858  10 18.51635136274858  C 14.695307639382102 18.51635136274858  18.51635136274858 14.695345814098012  18.51635136274858 10  Z M 14.073789595170453 13.114348055752842  L 10.999987792968751 10.030543301669034  L 14.071002507990054 6.992897150213069  C 14.35013012695312 6.717320179332386  14.352268155184655 6.267760919744319  14.076691206498575 5.98863330078125  C 13.801114257812499 5.709505681818182  13.350829589843746 5.7073676535866475  13.072427357066758 5.9829446022727275  L 9.997136585582385 9.02414140181108  L 6.968729780717328 5.986495250355115  C 6.691014781605111 5.7087802512428985  6.242180930397724 5.707367631392048  5.96446593128551 5.985082630504262  C 5.686750932173293 6.2620722212357975  5.686063720703122 6.711631480823865  5.963053311434656 6.9893464799360805  L 8.987184059836647 10.02271657492898  L 5.938160533558237 13.03905877130682  C 5.659032914595169 13.31532295365767  5.656894886363634 13.764195001775569  5.932471835049714 14.043322620738635  C 6.071672940340908 14.183936368075287  6.254207364169034 14.25426231800426  6.43742902166193 14.25426231800426  C 6.617825417258523 14.25426231800426  6.798221812855112 14.185387162642044  6.936735684481533 14.049011319247162  L 9.9899970925071 11.029118474786932  L 13.068113125887784 14.117199263139206  C 13.20662701970881 14.256400368430398  13.388436035156248 14.326000932173296  13.570970458984375 14.326000932173296  C 13.752779474431819 14.326000932173296  13.933901278409094 14.256400368430398  14.0723769753196 14.11861190518466  C 14.350091974431818 13.841622314453126  14.35077918590199 13.39275028852983  14.073789595170453 13.114348055752842  Z " fill-rule="nonzero" fill="#ff6666" stroke="none" transform="matrix(1 0 0 1 3684 2058 )" />
  </g>
</svg>