<?xml version="1.0" encoding="utf-8"?>
<svg version="1.1" xmlns:xlink="http://www.w3.org/1999/xlink" width="210px" height="108px" xmlns="http://www.w3.org/2000/svg">
  <defs>
    <mask fill="white" id="clip6247">
      <path d="M 0 95.11764705882352  L 0 6.341176470588236  C 0 4.727058823529405  1.466666666666697 3.458823529411765  3.3333333333333335 4  L 18.590308370044113 4  L 22.383612662942294 0.27589002081279446  L 25.93245227606455 4  L 196.66666666666666 4  C 198.5333333333333 3.458823529411765  200 4.727058823529405  200 6.341176470588236  L 200 95.11764705882352  C 200 96.73176470588237  198.5333333333333 98  196.66666666666666 98  L 3.3333333333333335 98  C 1.466666666666697 98  0 96.73176470588237  0 95.11764705882352  Z " fill-rule="evenodd" />
    </mask>
    <filter x="4646px" y="2334px" width="210px" height="108px" filterUnits="userSpaceOnUse" id="filter6248">
      <feOffset dx="0" dy="0" in="SourceAlpha" result="shadowOffsetInner" />
      <feGaussianBlur stdDeviation="2.5" in="shadowOffsetInner" result="shadowGaussian" />
      <feComposite in2="shadowGaussian" operator="atop" in="SourceAlpha" result="shadowComposite" />
      <feColorMatrix type="matrix" values="0 0 0 0 0  0 0 0 0 0  0 0 0 0 0  0 0 0 0.34901960784313724 0  " in="shadowComposite" />
    </filter>
    <g id="widget6249">
      <path d="M 0 95.11764705882352  L 0 6.341176470588236  C 0 4.727058823529405  1.466666666666697 3.458823529411765  3.3333333333333335 4  L 18.590308370044113 4  L 22.383612662942294 0.27589002081279446  L 25.93245227606455 4  L 196.66666666666666 4  C 198.5333333333333 3.458823529411765  200 4.727058823529405  200 6.341176470588236  L 200 95.11764705882352  C 200 96.73176470588237  198.5333333333333 98  196.66666666666666 98  L 3.3333333333333335 98  C 1.466666666666697 98  0 96.73176470588237  0 95.11764705882352  Z " fill-rule="nonzero" fill="#ffffff" stroke="none" transform="matrix(1 0 0 1 4651 2339 )" />
      <path d="M 0 95.11764705882352  L 0 6.341176470588236  C 0 4.727058823529405  1.466666666666697 3.458823529411765  3.3333333333333335 4  L 18.590308370044113 4  L 22.383612662942294 0.27589002081279446  L 25.93245227606455 4  L 196.66666666666666 4  C 198.5333333333333 3.458823529411765  200 4.727058823529405  200 6.341176470588236  L 200 95.11764705882352  C 200 96.73176470588237  198.5333333333333 98  196.66666666666666 98  L 3.3333333333333335 98  C 1.466666666666697 98  0 96.73176470588237  0 95.11764705882352  Z " stroke-width="2" stroke="#ffffff" fill="none" transform="matrix(1 0 0 1 4651 2339 )" mask="url(#clip6247)" />
    </g>
  </defs>
  <g transform="matrix(1 0 0 1 -4646 -2334 )">
    <use xlink:href="#widget6249" filter="url(#filter6248)" />
    <use xlink:href="#widget6249" />
  </g>
</svg>