<?xml version="1.0" encoding="utf-8"?>
<svg version="1.1" xmlns:xlink="http://www.w3.org/1999/xlink" width="460px" height="100px" xmlns="http://www.w3.org/2000/svg">
  <g transform="matrix(1 0 0 1 -1812 -1670 )">
    <path d="M 1813 1673  A 2 2 0 0 1 1815 1671 L 2269 1671  A 2 2 0 0 1 2271 1673 L 2271 1767  A 2 2 0 0 1 2269 1769 L 1815 1769  A 2 2 0 0 1 1813 1767 L 1813 1673  Z " fill-rule="nonzero" fill="#ffffff" stroke="none" />
    <path d="M 1812.5 1673  A 2.5 2.5 0 0 1 1815 1670.5 L 2269 1670.5  A 2.5 2.5 0 0 1 2271.5 1673 L 2271.5 1767  A 2.5 2.5 0 0 1 2269 1769.5 L 1815 1769.5  A 2.5 2.5 0 0 1 1812.5 1767 L 1812.5 1673  Z " stroke-width="1" stroke-dasharray="9,4" stroke="#d7d7d7" fill="none" stroke-dashoffset="0.5" />
  </g>
</svg>