<?xml version="1.0" encoding="utf-8"?>
<svg version="1.1" xmlns:xlink="http://www.w3.org/1999/xlink" width="25px" height="27px" xmlns="http://www.w3.org/2000/svg">
  <g transform="matrix(1 0 0 1 -3466 -532 )">
    <path d="M 24.907816071428574 13.522849654017858  C 24.907816071428574 20.91380202120536  19.35383881138393 26.90645443191964  12.502255608258928 26.90645443191964  C 5.651300558035714 26.90645443191964  0.09929338727678397 20.91377119419643  0.09929338727678397 13.522849654017858  C 0.09929338727678397 7.849691497767857  3.36887661830357 3.0028519185267872  7.986431612723212 1.0550194252232157  C 9.381599972098211 0.4471755368303584  10.905823688616069 0.11149228125000146  12.502569670758929 0.11149228125000146  C 14.1012857421875 0.11149228125000146  15.624196065848214 0.44683634933035865  17.020677818080358 1.0550194252232157  C 21.637947321428573 3.0028519185267855  24.907816071428574 7.849722324776785  24.907816071428574 13.522849654017858  Z M 7.734773688616071 10.700316482142858  C 7.734773688616071 12.955740448660714  8.804791071428571 14.908475912946429  10.360250753348215 15.864306739955357  C 11.00532767857143 16.26073737388393  11.731663783482144 16.489357252232143  12.502255608258928 16.489357252232143  C 13.245808621651786 16.489357252232143  13.94681905691964 16.275507970982147  14.574993136160714 15.906089842633934  C 16.167199330357143 14.968514089285721  17.271707617187502 12.991911378348217  17.271707617187502 10.700686526785717  C 17.271707617187502 7.510492908482146  15.132643610491073 4.9137734832589315  12.502284151785714 4.9137734832589315  C 9.873523604910714 4.913434265625  7.734773688616071 7.510184517857142  7.734773688616071 10.700316482142858  Z M 12.552650027901786 26.039154465401786  C 16.176621540178573 26.039154465401786  19.409429715401785 24.239181716517855  21.5283359375 21.422291544642857  C 21.278019949776787 19.20023237611607  19.273179213169644 17.308614334821428  16.435760128348214 16.365056363839283  C 15.364115262276787 17.406211017857142  13.994957840401787 18.03267999441964  12.50191300223214 18.03267999441964  C 10.97571919642857 18.03267999441964  9.578637834821427 17.372507032366073  8.496571484374996 16.286053911830358  C 5.7364714006696405 17.13685648660714  3.714784960937497 18.872258193080356  3.2407635044642835 20.95173057254464  C 5.343395033482143 24.036556781250003  8.732297349330356 26.039154465401786  12.552650027901786 26.039154465401786  Z " fill-rule="nonzero" fill="#cccccc" stroke="none" transform="matrix(1 0 0 1 3466 532 )" />
  </g>
</svg>