<?xml version="1.0" encoding="utf-8"?>
<svg version="1.1" xmlns:xlink="http://www.w3.org/1999/xlink" width="310px" height="213px" xmlns="http://www.w3.org/2000/svg">
  <defs>
    <mask fill="white" id="clip6240">
      <path d="M 0 197.02941176470588  L 0 13.13529411764706  C 0 9.79176470588234  2.2000000000000455 7.1647058823529415  5 8  L 27.88546255506617 8  L 33.57541899441344 0.5714864716836456  L 38.89867841409682 8  L 295 8  C 297.79999999999995 7.1647058823529415  300 9.79176470588234  300 13.13529411764706  L 300 197.02941176470588  C 300 200.37294117647062  297.79999999999995 203  295 203  L 5 203  C 2.2000000000000455 203  0 200.37294117647062  0 197.02941176470588  Z " fill-rule="evenodd" />
    </mask>
    <filter x="1705px" y="374px" width="310px" height="213px" filterUnits="userSpaceOnUse" id="filter6241">
      <feOffset dx="0" dy="0" in="SourceAlpha" result="shadowOffsetInner" />
      <feGaussianBlur stdDeviation="2.5" in="shadowOffsetInner" result="shadowGaussian" />
      <feComposite in2="shadowGaussian" operator="atop" in="SourceAlpha" result="shadowComposite" />
      <feColorMatrix type="matrix" values="0 0 0 0 0  0 0 0 0 0  0 0 0 0 0  0 0 0 0.34901960784313724 0  " in="shadowComposite" />
    </filter>
    <g id="widget6242">
      <path d="M 0 197.02941176470588  L 0 13.13529411764706  C 0 9.79176470588234  2.2000000000000455 7.1647058823529415  5 8  L 27.88546255506617 8  L 33.57541899441344 0.5714864716836456  L 38.89867841409682 8  L 295 8  C 297.79999999999995 7.1647058823529415  300 9.79176470588234  300 13.13529411764706  L 300 197.02941176470588  C 300 200.37294117647062  297.79999999999995 203  295 203  L 5 203  C 2.2000000000000455 203  0 200.37294117647062  0 197.02941176470588  Z " fill-rule="nonzero" fill="#ffffff" stroke="none" transform="matrix(1 0 0 1 1710 379 )" />
      <path d="M 0 197.02941176470588  L 0 13.13529411764706  C 0 9.79176470588234  2.2000000000000455 7.1647058823529415  5 8  L 27.88546255506617 8  L 33.57541899441344 0.5714864716836456  L 38.89867841409682 8  L 295 8  C 297.79999999999995 7.1647058823529415  300 9.79176470588234  300 13.13529411764706  L 300 197.02941176470588  C 300 200.37294117647062  297.79999999999995 203  295 203  L 5 203  C 2.2000000000000455 203  0 200.37294117647062  0 197.02941176470588  Z " stroke-width="2" stroke="#ffffff" fill="none" transform="matrix(1 0 0 1 1710 379 )" mask="url(#clip6240)" />
    </g>
  </defs>
  <g transform="matrix(1 0 0 1 -1705 -374 )">
    <use xlink:href="#widget6242" filter="url(#filter6241)" />
    <use xlink:href="#widget6242" />
  </g>
</svg>