<?xml version="1.0" encoding="utf-8"?>
<svg version="1.1" xmlns:xlink="http://www.w3.org/1999/xlink" width="710px" height="100px" xmlns="http://www.w3.org/2000/svg">
  <g transform="matrix(1 0 0 1 -3410 -1742 )">
    <path d="M 3411 1745  A 2 2 0 0 1 3413 1743 L 4117 1743  A 2 2 0 0 1 4119 1745 L 4119 1839  A 2 2 0 0 1 4117 1841 L 3413 1841  A 2 2 0 0 1 3411 1839 L 3411 1745  Z " fill-rule="nonzero" fill="#ffffff" stroke="none" />
    <path d="M 3410.5 1745  A 2.5 2.5 0 0 1 3413 1742.5 L 4117 1742.5  A 2.5 2.5 0 0 1 4119.5 1745 L 4119.5 1839  A 2.5 2.5 0 0 1 4117 1841.5 L 3413 1841.5  A 2.5 2.5 0 0 1 3410.5 1839 L 3410.5 1745  Z " stroke-width="1" stroke-dasharray="9,4" stroke="#d7d7d7" fill="none" stroke-dashoffset="0.5" />
  </g>
</svg>