<?xml version="1.0" encoding="utf-8"?>
<svg version="1.1" xmlns:xlink="http://www.w3.org/1999/xlink" width="20px" height="20px" xmlns="http://www.w3.org/2000/svg">
  <g transform="matrix(1 0 0 1 -1720 -2202 )">
    <path d="M 6.470457985617898 17.099170787464487  C 5.683994318181819 17.099170787464487  5.050242054332386 17.73292305131392  5.050242054332386 18.51938671875  C 5.050242054332386 19.30585038618608  5.683994318181819 19.93960265003551  6.470457985617895 19.93960265003551  C 7.256921653053975 19.93960265003551  7.890673916903407 19.30585038618608  7.890673916903407 18.51938671875  C 7.890673916903409 17.73292305131392  7.256921653053978 17.099170787464487  6.470457985617898 17.099170787464487  Z M 16.415787309126422 17.099170787464487  C 15.629323641690343 17.099170787464487  14.99557137784091 17.73292305131392  14.99557137784091 18.51938671875  C 14.99557137784091 19.30585038618608  15.629323641690343 19.93960265003551  16.415787309126422 19.93960265003551  C 17.2022509765625 19.93960265003551  17.836003240411927 19.30585038618608  17.836003240411927 18.51938671875  C 17.836003240411927 17.73292305131392  17.198433172052553 17.099170787464487  16.415787309126422 17.099170787464487  Z M 19.962509343927557 4.630285733309659  C 20.04268283913352 3.94690225497159  19.855611372514204 3.2864254927201704  19.439472833806818 2.8206557395241476  C 19.07678329190341 2.408334983132102  18.576653475674718 2.1869034756747157  18.034528053977276 2.1869034756747157  L 3.805644220525568 2.1869034756747157  L 3.756013028231534 1.8967518421519882  C 3.6300261230468744 0.862132168856534  2.721393354936079 0.05657958984374964  1.6867736816406245 0.05657958984374964  L 0.7895942382812499 0.056579567649147726  C 0.39636241566051145 0.056579567649147726  0.07948626154119308 0.3734556995738636  0.07948626154119308 0.7666875443892045  C 0.07948626154119308 1.1599193892045458  0.3963623934659089 1.4767955211292614  0.7895942382812499 1.4767955211292614  L 1.6829558771306816 1.4767955211292614  C 1.9921964444247156 1.4767955211292614  2.3090725763494326 1.7593115900213065  2.347250421697443 2.1029122203480117  L 3.0344516823508516 6.065772816051137  L 4.240871670809659 14.545072776100854  C 4.366858575994318 15.57969244939631  5.26403799715909 16.389062810724432  6.291022083629261 16  L 17.83600321821733 16  C 18.229235040838066 16.389062810724432  18.54611119495739 16.072186678799717  18.54611119495739 15.678954833984376  C 18.54611119495739 15.285722989169033  18.229235063032668 14.968846857244317  17.83600321821733 15  L 6.287204323508523 15  C 5.9855993208451705 14.96884687943892  5.687812122691761 14.690148592862213  5.645816472833807 14.358001309481532  L 5.52746515447443 13.529542014382104  L 16.793748002485792 12.834705189098015  C 17.816914328835225 12.834705189098015  18.717911532315338 12.025334827769887  18.836262850674714 11.028892999822446  L 19.962509343927557 4.630285733309659  Z " fill-rule="nonzero" fill="#ffffff" stroke="none" transform="matrix(1 0 0 1 1720 2202 )" />
  </g>
</svg>