<?xml version="1.0" encoding="utf-8"?>
<svg version="1.1" xmlns:xlink="http://www.w3.org/1999/xlink" width="327px" height="12px" preserveAspectRatio="xMinYMid meet" viewBox="4923 1868  327 10" xmlns="http://www.w3.org/2000/svg">
  <path d="M 4510 1701.5  L 4924 1701.5  A 5 5 0 0 1 4929.5 1706.5 L 4929.5 1868  A 5 5 0 0 0 4934.5 1873.5 L 5247 1873.5  " stroke-width="3" stroke="#0066ff" fill="none" />
  <path d="M 4512.429203673205 1697.5  A 4 4 0 0 0 4508.429203673205 1701.5 A 4 4 0 0 0 4512.429203673205 1705.5 A 4 4 0 0 0 4516.429203673205 1701.5 A 4 4 0 0 0 4512.429203673205 1697.5 Z M 5237.9 1883.5  L 5250 1873.5  L 5237.9 1863.5  L 5242.8 1873.5  L 5237.9 1883.5  Z " fill-rule="nonzero" fill="#0066ff" stroke="none" />
</svg>