<?xml version="1.0" encoding="utf-8"?>
<svg version="1.1" xmlns:xlink="http://www.w3.org/1999/xlink" width="31px" height="33px" xmlns="http://www.w3.org/2000/svg">
  <g transform="matrix(1 0 0 1 -3548 -370 )">
    <path d="M 7.7197265625 2.2128906249999987  C 10.09450954861111 0.7376302083333305  12.687934027777779 0  15.5 0  C 18.31206597222222 0  20.905490451388893 0.7376302083333305  23.2802734375 2.2128906249999987  C 25.65505642361111 3.6881510416666634  27.535373263888893 5.689778645833333  28.921223958333336 8.2177734375  C 30.307074652777775 10.745768229166664  31 13.506510416666663  31 16.5  C 31 19.493489583333336  30.307074652777775 22.25423177083333  28.921223958333336 24.7822265625  C 27.535373263888893 27.310221354166668  25.65505642361111 29.311848958333332  23.2802734375 30.787109375  C 20.905490451388893 32.26236979166667  18.31206597222222 33  15.5 33  C 12.687934027777779 33  10.09450954861111 32.26236979166667  7.7197265625 30.787109375  C 5.344943576388889 29.311848958333332  3.4646267361111116 27.310221354166668  2.078776041666667 24.7822265625  C 0.6929253472222221 22.25423177083333  0 19.493489583333336  0 16.5  C 0 13.506510416666663  0.6929253472222221 10.745768229166664  2.078776041666667 8.2177734375  C 3.4646267361111116 5.689778645833333  5.344943576388889 3.6881510416666634  7.7197265625 2.2128906249999987  Z M 12.270833333333332 24.556640625  L 23.25 17.681640625000004  C 23.680555555555557 17.423828125000004  23.895833333333336 17.029947916666664  23.895833333333336 16.5  C 23.895833333333336 15.970052083333332  23.680555555555557 15.576171875000002  23.25 15.318359375000002  L 12.270833333333332 8.443359375  C 11.853732638888891 8.171223958333332  11.423177083333332 8.164062500000002  10.979166666666668 8.421875000000002  C 10.548611111111112 8.694010416666664  10.333333333333332 9.095052083333332  10.333333333333332 9.624999999999998  L 10.333333333333332 23.374999999999996  C 10.333333333333332 23.90494791666666  10.548611111111112 24.305989583333332  10.979166666666668 24.578125000000004  C 11.194444444444446 24.692708333333332  11.409722222222223 24.75  11.625 24.75  C 11.853732638888891 24.75  12.069010416666668 24.685546875  12.270833333333332 24.556640625  Z " fill-rule="nonzero" fill="#000000" stroke="none" transform="matrix(1 0 0 1 3548 370 )" />
  </g>
</svg>