<?xml version="1.0" encoding="utf-8"?>
<svg version="1.1" xmlns:xlink="http://www.w3.org/1999/xlink" width="342px" height="185px" xmlns="http://www.w3.org/2000/svg">
  <g transform="matrix(1 0 0 1 -6262 -306 )">
    <path d="M 6263 311  A 4 4 0 0 1 6267 307 L 6599 307  A 4 4 0 0 1 6603 311 L 6603 486  A 4 4 0 0 1 6599 490 L 6267 490  A 4 4 0 0 1 6263 486 L 6263 311  Z " fill-rule="nonzero" fill="#ffffff" stroke="none" />
    <path d="M 6262.5 311  A 4.5 4.5 0 0 1 6267 306.5 L 6599 306.5  A 4.5 4.5 0 0 1 6603.5 311 L 6603.5 486  A 4.5 4.5 0 0 1 6599 490.5 L 6267 490.5  A 4.5 4.5 0 0 1 6262.5 486 L 6262.5 311  Z " stroke-width="1" stroke-dasharray="9,4" stroke="#e7772d" fill="none" stroke-dashoffset="0.5" />
  </g>
</svg>