<?xml version="1.0" encoding="utf-8"?>
<svg version="1.1" xmlns:xlink="http://www.w3.org/1999/xlink" width="28px" height="30px" xmlns="http://www.w3.org/2000/svg">
  <g transform="matrix(1 0 0 1 -2940 -415 )">
    <path d="M 27.896754 15.025388504464287  C 27.896754 23.237557801339285  21.676299468750003 29.896060479910716  14.002526281249999 29.896060479910716  C 6.329456624999999 29.896060479910716  0.11120859374999804 23.23752354910714  0.11120859374999804 15.025388504464287  C 0.11120859374999804 8.721879441964285  3.7731418124999982 3.3365021316964305  8.944803406249997 1.172243805803573  C 10.507391968749998 0.49686170758928705  12.214522531249997 0.12388031250000162  14.002878031249999 0.12388031250000162  C 15.79344003125 0.12388031250000162  17.49909959375 0.4964848325892874  19.06315915625 1.172243805803573  C 24.234501 3.3365021316964283  27.896754 8.721913694196427  27.896754 15.025388504464287  Z M 8.66294653125 11.889240535714286  C 8.66294653125 14.395267165178572  9.861366 16.56497323660714  11.60348084375 17.627007488839286  C 12.325967 18.067485970982144  13.139463437500002 18.321508058035715  14.002526281249999 18.321508058035715  C 14.83530565625 18.321508058035715  15.620437343749998 18.08389774553572  16.3239923125 17.673433158482148  C 18.10726325 16.631682321428578  19.34431253125 14.435457087053575  19.34431253125 11.889651696428574  C 19.34431253125 8.344992120535718  16.948560843750002 5.459748314732146  14.00255825 5.459748314732146  C 11.0583464375 5.45937140625  8.66294653125 8.344649464285713  8.66294653125 11.889240535714286  Z M 14.05896803125 28.932393850446427  C 18.117816125 28.932393850446427  21.73856128125 26.932424129464284  24.11173625 23.802546160714286  C 23.83138234375 21.333591529017852  21.58596071875 19.23179370535714  18.40805134375 18.183395959821425  C 17.20780909375 19.340234464285714  15.67435278125 20.036311104910716  14.002142562499998 20.036311104910716  C 12.292805499999998 20.036311104910716  10.728074374999998 19.302785591517857  9.516160062499997 18.095615457589286  C 6.424847968749997 19.04095165178571  4.160559156249997 20.969175770089283  3.6296551249999975 23.27970063616071  C 5.9846024375 26.7072853125  9.78017303125 28.932393850446427  14.05896803125 28.932393850446427  Z " fill-rule="nonzero" fill="#cccccc" stroke="none" transform="matrix(1 0 0 1 2940 415 )" />
  </g>
</svg>