<?xml version="1.0" encoding="utf-8"?>
<svg version="1.1" xmlns:xlink="http://www.w3.org/1999/xlink" width="8px" height="8px" xmlns="http://www.w3.org/2000/svg">
  <g transform="matrix(1 0 0 1 -6295 -432 )">
    <path d="M 6299 432  C 6301.24 432  6303 433.76  6303 436  C 6303 438.24  6301.24 440  6299 440  C 6296.76 440  6295 438.24  6295 436  C 6295 433.76  6296.76 432  6299 432  Z " fill-rule="nonzero" fill="#ffffff" stroke="none" />
    <path d="M 6299 432.5  C 6300.96 432.5  6302.5 434.04  6302.5 436  C 6302.5 437.96  6300.96 439.5  6299 439.5  C 6297.04 439.5  6295.5 437.96  6295.5 436  C 6295.5 434.04  6297.04 432.5  6299 432.5  Z " stroke-width="1" stroke="#797979" fill="none" />
  </g>
</svg>