<?xml version="1.0" encoding="utf-8"?>
<svg version="1.1" xmlns:xlink="http://www.w3.org/1999/xlink" width="342px" height="158px" xmlns="http://www.w3.org/2000/svg">
  <g transform="matrix(1 0 0 1 -6262 -923 )">
    <path d="M 6263 928  A 4 4 0 0 1 6267 924 L 6599 924  A 4 4 0 0 1 6603 928 L 6603 1076  A 4 4 0 0 1 6599 1080 L 6267 1080  A 4 4 0 0 1 6263 1076 L 6263 928  Z " fill-rule="nonzero" fill="#ffffff" stroke="none" />
    <path d="M 6262.5 928  A 4.5 4.5 0 0 1 6267 923.5 L 6599 923.5  A 4.5 4.5 0 0 1 6603.5 928 L 6603.5 1076  A 4.5 4.5 0 0 1 6599 1080.5 L 6267 1080.5  A 4.5 4.5 0 0 1 6262.5 1076 L 6262.5 928  Z " stroke-width="1" stroke-dasharray="9,4" stroke="#e7772d" fill="none" stroke-dashoffset="0.5" />
  </g>
</svg>