<?xml version="1.0" encoding="utf-8"?>
<svg version="1.1" xmlns:xlink="http://www.w3.org/1999/xlink" width="51px" height="12px" preserveAspectRatio="xMinYMid meet" viewBox="2866 2372  51 10" xmlns="http://www.w3.org/2000/svg">
  <path d="M 2869 2377.5  L 2906 2377.5  A 5 5 0 0 1 2911.5 2382.5 L 2911.5 2664  A 5 5 0 0 0 2916.5 2669.5 L 2953 2669.5  " stroke-width="3" stroke="#0066ff" fill="none" />
  <path d="M 2870 2373.5  A 4 4 0 0 0 2866 2377.5 A 4 4 0 0 0 2870 2381.5 A 4 4 0 0 0 2874 2377.5 A 4 4 0 0 0 2870 2373.5 Z M 2943.9 2679.5  L 2956 2669.5  L 2943.9 2659.5  L 2948.8 2669.5  L 2943.9 2679.5  Z " fill-rule="nonzero" fill="#0066ff" stroke="none" />
</svg>