<?xml version="1.0" encoding="utf-8"?>
<svg version="1.1" xmlns:xlink="http://www.w3.org/1999/xlink" width="286px" height="149px" xmlns="http://www.w3.org/2000/svg">
  <defs>
    <mask fill="white" id="clip6254">
      <path d="M 0 144  L 0 14  C 0 11.199999999999816  2.199999999999818 9  5 9  L 210.52910052910056 9  L 216.34920634920627 0.624338624338634  L 223.4920634920636 9  L 281 9  C 283.8000000000002 9  286 11.199999999999816  286 14  L 286 144  C 286 146.80000000000018  283.8000000000002 149  281 149  L 5 149  C 2.199999999999818 149  0 146.80000000000018  0 144  Z " fill-rule="evenodd" />
    </mask>
  </defs>
  <g transform="matrix(1 0 0 1 -2590 -2288 )">
    <path d="M 0 144  L 0 14  C 0 11.199999999999816  2.199999999999818 9  5 9  L 210.52910052910056 9  L 216.34920634920627 0.624338624338634  L 223.4920634920636 9  L 281 9  C 283.8000000000002 9  286 11.199999999999816  286 14  L 286 144  C 286 146.80000000000018  283.8000000000002 149  281 149  L 5 149  C 2.199999999999818 149  0 146.80000000000018  0 144  Z " fill-rule="nonzero" fill="#ffffff" stroke="none" transform="matrix(1 0 0 1 2590 2288 )" />
    <path d="M 0 144  L 0 14  C 0 11.199999999999816  2.199999999999818 9  5 9  L 210.52910052910056 9  L 216.34920634920627 0.624338624338634  L 223.4920634920636 9  L 281 9  C 283.8000000000002 9  286 11.199999999999816  286 14  L 286 144  C 286 146.80000000000018  283.8000000000002 149  281 149  L 5 149  C 2.199999999999818 149  0 146.80000000000018  0 144  Z " stroke-width="2" stroke="#d7d7d7" fill="none" transform="matrix(1 0 0 1 2590 2288 )" mask="url(#clip6254)" />
  </g>
</svg>