<?xml version="1.0" encoding="utf-8"?>
<svg version="1.1" xmlns:xlink="http://www.w3.org/1999/xlink" width="20px" height="20px" viewBox="2728 719  20 20" xmlns="http://www.w3.org/2000/svg">
  <path d="M 2728.5 722  A 2.5 2.5 0 0 1 2731 719.5 L 2745 719.5  A 2.5 2.5 0 0 1 2747.5 722 L 2747.5 736  A 2.5 2.5 0 0 1 2745 738.5 L 2731 738.5  A 2.5 2.5 0 0 1 2728.5 736 L 2728.5 722  Z " fill-rule="nonzero" fill="#f0f0f0" stroke="none" />
  <path d="M 2728.5 722  A 2.5 2.5 0 0 1 2731 719.5 L 2745 719.5  A 2.5 2.5 0 0 1 2747.5 722 L 2747.5 736  A 2.5 2.5 0 0 1 2745 738.5 L 2731 738.5  A 2.5 2.5 0 0 1 2728.5 736 L 2728.5 722  Z " stroke-width="1" stroke="#999999" fill="none" />
  <path d="M 2732.285714285714 729  L 2736.5714285714284 733.2857142857142  L 2743.714285714286 723.2857142857143  " stroke-width="4.285714285714286" stroke="#999999" fill="none" />
</svg>