<?xml version="1.0" encoding="utf-8"?>
<svg version="1.1" xmlns:xlink="http://www.w3.org/1999/xlink" width="20px" height="20px" viewBox="2433 769  20 20" xmlns="http://www.w3.org/2000/svg">
  <path d="M 2433.5 772  A 2.5 2.5 0 0 1 2436 769.5 L 2450 769.5  A 2.5 2.5 0 0 1 2452.5 772 L 2452.5 786  A 2.5 2.5 0 0 1 2450 788.5 L 2436 788.5  A 2.5 2.5 0 0 1 2433.5 786 L 2433.5 772  Z " fill-rule="nonzero" fill="#f0f0f0" stroke="none" />
  <path d="M 2433.5 772  A 2.5 2.5 0 0 1 2436 769.5 L 2450 769.5  A 2.5 2.5 0 0 1 2452.5 772 L 2452.5 786  A 2.5 2.5 0 0 1 2450 788.5 L 2436 788.5  A 2.5 2.5 0 0 1 2433.5 786 L 2433.5 772  Z " stroke-width="1" stroke="#999999" fill="none" />
</svg>