<?xml version="1.0" encoding="utf-8"?>
<svg version="1.1" xmlns:xlink="http://www.w3.org/1999/xlink" width="20px" height="20px" viewBox="2433 739  20 20" xmlns="http://www.w3.org/2000/svg">
  <path d="M 2433.5 742  A 2.5 2.5 0 0 1 2436 739.5 L 2450 739.5  A 2.5 2.5 0 0 1 2452.5 742 L 2452.5 756  A 2.5 2.5 0 0 1 2450 758.5 L 2436 758.5  A 2.5 2.5 0 0 1 2433.5 756 L 2433.5 742  Z " fill-rule="nonzero" fill="#f0f0f0" stroke="none" />
  <path d="M 2433.5 742  A 2.5 2.5 0 0 1 2436 739.5 L 2450 739.5  A 2.5 2.5 0 0 1 2452.5 742 L 2452.5 756  A 2.5 2.5 0 0 1 2450 758.5 L 2436 758.5  A 2.5 2.5 0 0 1 2433.5 756 L 2433.5 742  Z " stroke-width="1" stroke="#999999" fill="none" />
</svg>