<?xml version="1.0" encoding="utf-8"?>
<svg version="1.1" xmlns:xlink="http://www.w3.org/1999/xlink" width="16px" height="16px" xmlns="http://www.w3.org/2000/svg">
  <g transform="matrix(1 0 0 1 -2957 -536 )">
    <path d="M 12.215625 10.1890625  C 12.173437499999999 10.2140625  12.121875 10.184375000000001  12.121875 10.1359375  L 12.121875 8.8125  C 12.121875 8.778125  12.09375 8.75  12.059375 8.75  L 9.0078125 8.75  C 8.8703125 8.75  8.7578125 8.8625  8.7578125 9  L 8.7578125 12.059375  C 8.7578125 12.09375  8.7859375 12.121875  8.8203125 12.121875  L 10.14375 12.121875  C 10.192187500000001 12.121875  10.221875 12.173437499999999  10.1984375 12.215625  L 8.1171875 15.8203125  C 8.06875 15.903125  7.9484375 15.903125  7.9 15.8203125  L 5.81875 12.215625  C 5.7953125 12.173437499999999  5.824999999999999 12.121875  5.8734375 12.121875  L 7.1968749999999995 12.121875  C 7.231249999999999 12.121875  7.2593749999999995 12.09375  7.2593749999999995 12.059375  L 7.2593749999999995 9  C 7.2593749999999995 8.8625  7.146875 8.75  7.0093749999999995 8.75  L 3.940625 8.75  C 3.90625 8.75  3.878125 8.778125  3.878125 8.8125  L 3.878125 10.1359375  C 3.878125 10.184375000000001  3.8265624999999996 10.2140625  3.784375 10.190625  L 0.1796875 8.1078125  C 0.096875 8.059375  0.096875 7.9390624999999995  0.1796875 7.890625  L 3.784375 5.809375  C 3.8265624999999996 5.7859375  3.878125 5.815625  3.878125 5.8640625  L 3.878125 7.1875  C 3.878125 7.221875  3.90625 7.25  3.940625 7.25  L 7.0078125 7.25  C 7.1453125 7.25  7.2578125 7.1375  7.2578125 7  L 7.2578125 3.940625  C 7.2578125 3.90625  7.2296875 3.878125  7.1953125 3.878125  L 5.871875 3.878125  C 5.8234375 3.878125  5.79375 3.8265624999999996  5.8171875 3.784375  L 7.9 0.1796875  C 7.948437500000001 0.096875  8.06875 0.096875  8.1171875 0.1796875  L 10.1984375 3.784375  C 10.221875 3.8265624999999996  10.192187500000001 3.878125  10.14375 3.878125  L 8.8203125 3.878125  C 8.7859375 3.878125  8.7578125 3.90625  8.7578125 3.940625  L 8.7578125 7  C 8.7578125 7.1375  8.8703125 7.25  9.0078125 7.25  L 12.059375 7.25  C 12.09375 7.25  12.121875 7.221875  12.121875 7.1875  L 12.121875 5.8640625  C 12.121875 5.815625  12.173437499999999 5.7859375  12.215625 5.809375  L 15.8203125 7.890625  C 15.903125 7.9390625  15.903125 8.059375  15.8203125 8.1078125  L 12.215625 10.1890625  Z " fill-rule="nonzero" fill="#000000" stroke="none" transform="matrix(1 0 0 1 2957 536 )" />
  </g>
</svg>