<?xml version="1.0" encoding="utf-8"?>
<svg version="1.1" xmlns:xlink="http://www.w3.org/1999/xlink" width="20px" height="20px" viewBox="3613 529  20 20" xmlns="http://www.w3.org/2000/svg">
  <path d="M 3613.5 532  A 2.5 2.5 0 0 1 3616 529.5 L 3630 529.5  A 2.5 2.5 0 0 1 3632.5 532 L 3632.5 546  A 2.5 2.5 0 0 1 3630 548.5 L 3616 548.5  A 2.5 2.5 0 0 1 3613.5 546 L 3613.5 532  Z " fill-rule="nonzero" fill="#ffffff" stroke="none" />
  <path d="M 3613.5 532  A 2.5 2.5 0 0 1 3616 529.5 L 3630 529.5  A 2.5 2.5 0 0 1 3632.5 532 L 3632.5 546  A 2.5 2.5 0 0 1 3630 548.5 L 3616 548.5  A 2.5 2.5 0 0 1 3613.5 546 L 3613.5 532  Z " stroke-width="1" stroke="#999999" fill="none" />
  <path d="M 3617.285714285714 539  L 3621.5714285714284 543.2857142857142  L 3628.714285714286 533.2857142857143  " stroke-width="4.285714285714286" stroke="#999999" fill="none" />
</svg>