<?xml version="1.0" encoding="utf-8"?>
<svg version="1.1" xmlns:xlink="http://www.w3.org/1999/xlink" width="20px" height="20px" viewBox="3908 499  20 20" xmlns="http://www.w3.org/2000/svg">
  <path d="M 3908.5 502  A 2.5 2.5 0 0 1 3911 499.5 L 3925 499.5  A 2.5 2.5 0 0 1 3927.5 502 L 3927.5 516  A 2.5 2.5 0 0 1 3925 518.5 L 3911 518.5  A 2.5 2.5 0 0 1 3908.5 516 L 3908.5 502  Z " fill-rule="nonzero" fill="#ffffff" stroke="none" />
  <path d="M 3908.5 502  A 2.5 2.5 0 0 1 3911 499.5 L 3925 499.5  A 2.5 2.5 0 0 1 3927.5 502 L 3927.5 516  A 2.5 2.5 0 0 1 3925 518.5 L 3911 518.5  A 2.5 2.5 0 0 1 3908.5 516 L 3908.5 502  Z " stroke-width="1" stroke="#999999" fill="none" />
  <path d="M 3912.285714285714 509  L 3916.5714285714284 513.2857142857142  L 3923.714285714286 503.2857142857143  " stroke-width="4.285714285714286" stroke="#999999" fill="none" />
</svg>