<?xml version="1.0" encoding="utf-8"?>
<svg version="1.1" xmlns:xlink="http://www.w3.org/1999/xlink" width="20px" height="20px" viewBox="3613 499  20 20" xmlns="http://www.w3.org/2000/svg">
  <path d="M 3613.5 502  A 2.5 2.5 0 0 1 3616 499.5 L 3630 499.5  A 2.5 2.5 0 0 1 3632.5 502 L 3632.5 516  A 2.5 2.5 0 0 1 3630 518.5 L 3616 518.5  A 2.5 2.5 0 0 1 3613.5 516 L 3613.5 502  Z " fill-rule="nonzero" fill="#ffffff" stroke="none" />
  <path d="M 3613.5 502  A 2.5 2.5 0 0 1 3616 499.5 L 3630 499.5  A 2.5 2.5 0 0 1 3632.5 502 L 3632.5 516  A 2.5 2.5 0 0 1 3630 518.5 L 3616 518.5  A 2.5 2.5 0 0 1 3613.5 516 L 3613.5 502  Z " stroke-width="1" stroke="#999999" fill="none" />
</svg>