<?xml version="1.0" encoding="utf-8"?>
<svg version="1.1" xmlns:xlink="http://www.w3.org/1999/xlink" width="20px" height="20px" viewBox="4203 659  20 20" xmlns="http://www.w3.org/2000/svg">
  <path d="M 4203.5 662  A 2.5 2.5 0 0 1 4206 659.5 L 4220 659.5  A 2.5 2.5 0 0 1 4222.5 662 L 4222.5 676  A 2.5 2.5 0 0 1 4220 678.5 L 4206 678.5  A 2.5 2.5 0 0 1 4203.5 676 L 4203.5 662  Z " fill-rule="nonzero" fill="#ffffff" stroke="none" />
  <path d="M 4203.5 662  A 2.5 2.5 0 0 1 4206 659.5 L 4220 659.5  A 2.5 2.5 0 0 1 4222.5 662 L 4222.5 676  A 2.5 2.5 0 0 1 4220 678.5 L 4206 678.5  A 2.5 2.5 0 0 1 4203.5 676 L 4203.5 662  Z " stroke-width="1" stroke="#999999" fill="none" />
  <path d="M 4207.285714285715 669  L 4211.571428571428 673.2857142857142  L 4218.714285714285 663.2857142857143  " stroke-width="4.285714285714286" stroke="#999999" fill="none" />
</svg>