<?xml version="1.0" encoding="utf-8"?>
<svg version="1.1" xmlns:xlink="http://www.w3.org/1999/xlink" width="20px" height="20px" viewBox="3023 659  20 20" xmlns="http://www.w3.org/2000/svg">
  <path d="M 3023.5 662  A 2.5 2.5 0 0 1 3026 659.5 L 3040 659.5  A 2.5 2.5 0 0 1 3042.5 662 L 3042.5 676  A 2.5 2.5 0 0 1 3040 678.5 L 3026 678.5  A 2.5 2.5 0 0 1 3023.5 676 L 3023.5 662  Z " fill-rule="nonzero" fill="#ffffff" stroke="none" />
  <path d="M 3023.5 662  A 2.5 2.5 0 0 1 3026 659.5 L 3040 659.5  A 2.5 2.5 0 0 1 3042.5 662 L 3042.5 676  A 2.5 2.5 0 0 1 3040 678.5 L 3026 678.5  A 2.5 2.5 0 0 1 3023.5 676 L 3023.5 662  Z " stroke-width="1" stroke="#999999" fill="none" />
</svg>