<?xml version="1.0" encoding="utf-8"?>
<svg version="1.1" xmlns:xlink="http://www.w3.org/1999/xlink" width="20px" height="20px" viewBox="3318 696  20 20" xmlns="http://www.w3.org/2000/svg">
  <path d="M 3318.5 699  A 2.5 2.5 0 0 1 3321 696.5 L 3335 696.5  A 2.5 2.5 0 0 1 3337.5 699 L 3337.5 713  A 2.5 2.5 0 0 1 3335 715.5 L 3321 715.5  A 2.5 2.5 0 0 1 3318.5 713 L 3318.5 699  Z " fill-rule="nonzero" fill="#f0f0f0" stroke="none" />
  <path d="M 3318.5 699  A 2.5 2.5 0 0 1 3321 696.5 L 3335 696.5  A 2.5 2.5 0 0 1 3337.5 699 L 3337.5 713  A 2.5 2.5 0 0 1 3335 715.5 L 3321 715.5  A 2.5 2.5 0 0 1 3318.5 713 L 3318.5 699  Z " stroke-width="1" stroke="#999999" fill="none" />
</svg>