<?xml version="1.0" encoding="utf-8"?>
<svg version="1.1" xmlns:xlink="http://www.w3.org/1999/xlink" width="7px" height="7px" xmlns="http://www.w3.org/2000/svg">
  <g transform="matrix(1 0 0 1 -1340 -411 )">
    <path d="M 3.6623188405797094 5.716888888888887  C 3.6623188405797094 4.067555555555553  4.95559420289855 2.7288888888888874  6.592985507246377 2.728888888888889  C 6.704579710144928 2.728888888888889  6.81536231884058 2.737777777777778  6.924927536231884 2.7511111111111117  C 6.626666666666667 1.2297777777777785  5.141855072463769 0.09955555555555604  3.4468405797101456 0.09955555555555604  C 1.5521739130434782 0.09999999999999984  0 1.5146666666666664  0 3.3111111111111104  C 0 4.348  0.5165797101449274 5.199111111111112  1.379304347826087 5.859555555555554  L 1.0343768115942031 6.995555555555555  L 2.2395942028985507 6.333777777777777  C 2.670550724637681 6.4271111111111106  3.0166956521739134 6.52311111111111  3.4468405797101447 6.52311111111111  C 3.555188405797101 6.52311111111111  3.6623188405797102 6.5173333333333305  3.7686376811594196 6.507999999999998  C 3.6989759349431415 6.251188345302422  3.6631745479373445 5.984792710257471  3.6623188405797094 5.716888888888887  Z M 4.221913043478261 2.1764444444444444  C 4.221913043478261 1.8924444444444448  4.481217391304348 1.7053333333333331  4.739710144927536 1.7053333333333331  C 4.999420289855072 1.7053333333333331  5.171072463768116 1.892444444444444  5.171072463768116 2.1764444444444444  C 5.171072463768116 2.459111111111111  4.999420289855072 2.6488888888888895  4.739710144927536 2.6488888888888895  C 4.481217391304348 2.6488888888888895  4.221913043478261 2.459111111111112  4.221913043478261 2.1764444444444444  Z M 2.7573913043478258 2.1764444444444444  C 2.7573913043478258 2.459555555555556  2.5853333333333333 2.6488888888888895  2.3272463768115936 2.6488888888888895  C 2.0687536231884054 2.6488888888888895  1.8082318840579708 2.459111111111112  1.8082318840579708 2.1764444444444444  C 1.8082318840579708 1.8924444444444448  2.0687536231884054 1.7053333333333331  2.3272463768115936 1.7053333333333331  C 2.585333333333333 1.7053333333333331  2.7573913043478258 1.892444444444444  2.7573913043478258 2.1764444444444444  Z " fill-rule="nonzero" fill="#0fc060" stroke="none" transform="matrix(1 0 0 1 1340 411 )" />
  </g>
</svg>