<?xml version="1.0" encoding="utf-8"?>
<svg version="1.1" xmlns:xlink="http://www.w3.org/1999/xlink" width="5px" height="5px" xmlns="http://www.w3.org/2000/svg">
  <g transform="matrix(1 0 0 1 -1344 -414 )">
    <path d="M 3.974137931034484 4.130370370370369  C 4.5617241379310345 3.656666666666667  5 3.028518518518518  5 2.3188888888888886  C 5 1.0611111111111107  3.8282758620689656 0.03555555555555559  2.5120689655172415 0.03555555555555559  C 1.1182758620689657 0.03555555555555559  0.020689655172413963 1.060740740740741  0.020689655172413963 2.3188888888888886  C 0.020689655172413963 3.5788888888888892  1.1182758620689657 4.601851851851851  2.5120689655172415 4.601851851851851  C 2.803793103448276 4.601851851851851  3.0979310344827593 4.5229629629629615  3.39103448275862 4.444074074074074  L 4.1944827586206905 4.916296296296295  L 3.974137931034484 4.130370370370369  Z M 2.0706896551724134 1.61037037037037  C 2.0706896551724134 1.769629629629629  1.9258620689655161 1.9251851851851853  1.7041379310344829 1.9251851851851853  C 1.5582758620689663 1.9251851851851853  1.41103448275862 1.769629629629629  1.41103448275862 1.61037037037037  C 1.41103448275862 1.4533333333333331  1.558275862068965 1.2955555555555553  1.7041379310344829 1.2955555555555553  C 1.9258620689655177 1.2955555555555553  2.0706896551724134 1.4533333333333331  2.0706896551724134 1.61037037037037  Z M 3.682068965517242 1.61037037037037  C 3.682068965517242 1.769629629629629  3.5348275862068967 1.9251851851851853  3.315517241379311 1.9251851851851853  C 3.170689655172414 1.9251851851851853  3.02448275862069 1.769629629629629  3.02448275862069 1.61037037037037  C 3.02448275862069 1.4533333333333331  3.170689655172414 1.2955555555555553  3.315517241379311 1.2955555555555553  C 3.5348275862068967 1.2955555555555553  3.682068965517242 1.4533333333333331  3.682068965517242 1.61037037037037  Z " fill-rule="nonzero" fill="#0fc060" stroke="none" transform="matrix(1 0 0 1 1344 414 )" />
  </g>
</svg>