<?xml version="1.0" encoding="utf-8"?>
<svg version="1.1" xmlns:xlink="http://www.w3.org/1999/xlink" width="18px" height="18px" xmlns="http://www.w3.org/2000/svg">
  <g transform="matrix(1 0 0 1 -2385 -1812 )">
    <path d="M 17.232600005859375 1.6193999970703123  L 9.850199994140626 9.001800008789063  L 17.251799985351564 16.402800014648438  C 17.48639997949219 16.6368000234375  17.48639997949219 17.016600005859377  17.251799985351564 17.251200026367187  C 17.017199991210937 17.485800046874996  16.637999994140625 17.485800020507813  16.403399973632816 17.251200026367187  L 9.001800008789063 9.850800005859375  L 1.6308000087890624 17.221800005859375  C 1.3968000000000005 17.45580001464844  1.0182000146484376 17.45580001464844  0.7848000175781252 17.221800005859375  C 0.5514000205078123 16.988400008789064  0.5514000205078123 16.60979999707031  0.7848000175781252 16.3764  L 8.156400029296874 9.004799988281249  L 0.7481999882812499 1.5966  C 0.5135999941406247 1.3620000058593749  0.5135999941406247 0.982199997070312  0.7481999882812499 0.7481999882812499  C 0.982199997070312 0.5135999941406247  1.361999979492187 0.5135999941406247  1.5966 0.7481999882812499  L 9.004799988281249 8.1563999765625  L 16.38780001171875 0.773400005859375  C 16.62120000878906 0.5400000087890627  16.999800020507813 0.5400000087890627  17.232600005859375 0.773400005859375  C 17.46660001464844 1.006800002929688  17.46660001464844 1.386  17.232600005859375 1.6193999970703123  Z " fill-rule="nonzero" fill="#000000" stroke="none" transform="matrix(1 0 0 1 2385 1812 )" />
  </g>
</svg>