<?xml version="1.0" encoding="utf-8"?>
<svg version="1.1" xmlns:xlink="http://www.w3.org/1999/xlink" width="18px" height="18px" xmlns="http://www.w3.org/2000/svg">
  <g transform="matrix(1 0 0 1 -165 -109 )">
    <path d="M 9 0.07258064516129252  C 13.930475806451614 0.07258064516129252  17.927419354838776 4.069524193548387  17.927419354838776 9  C 17.927419354838776 13.930475806451614  13.930475806451614 17.927419354838708  9 17.927419354838708  C 4.069524193548387 17.927419354838708  0.07258064516122431 13.930475806451614  0.07258064516122431 9  C 0.07258064516122431 4.069524193548387  4.069524193548387 0.07258064516129252  9 0.07258064516129252  Z M 9.00907258064517 1.487903225806454  C 4.855245967741894 1.487903225806454  1.4879032258063942 4.8552459677419275  1.4879032258063942 9.00907258064517  C 1.4879032258063942 13.162899193548395  4.855245967741894 16.530241935483875  9.00907258064517 16.530241935483875  C 13.162899193548446 16.530241935483875  16.530241935483808 13.162899193548395  16.530241935483808 9.00907258064517  C 16.530241935483808 4.8552459677419275  13.162899193548446 1.487903225806454  9.00907258064517 1.487903225806454  Z M 9.3 14.379545454545456  C 8.854720420448984 14.379545454545456  8.49375 13.985759541328447  8.49375 13.5  C 8.49375 13.014240458671553  8.854720420448984 12.620454545454544  9.3 12.620454545454544  C 9.745279579551015 12.620454545454544  10.10625 13.014240458671553  10.10625 13.5  C 10.10625 13.985759541328447  9.745279579551015 14.379545454545456  9.3 14.379545454545456  Z M 6.09375 6.8767241379310295  C 6.09375 6.847595689655168  6.096056249999992 6.818992241379312  6.100481249999939 6.791058620689654  C 6.146925000000056 5.908859482758618  6.43411874999997 5.19996465517242  6.962043750000021 4.664410344827587  C 7.550718750000033 4.039298275862072  8.374856249999993 3.726724137931038  9.434474999999974 3.726724137931038  C 10.386149999999999 3.726724137931038  11.14162500000002 3.977728448275863  11.700862500000039 4.479718965517241  C 12.250293750000036 4.96275517241379  12.524999999999999 5.630482758620683  12.524999999999999 6.482956034482766  C 12.524999999999999 7.117536206896552  12.338587499999948 7.671628448275868  11.965762499999983 8.145214655172419  C 11.79896249999997 8.334631034482754  11.401612500000056 8.699288793103454  10.77369375000003 9.239169827586204  C 10.459743750000053 9.494899137931036  10.229193750000015 9.755371551724142  10.08200625000004 10.020568965517235  C 9.917493749999949 10.288065517241387  9.825562499999977 10.588763793103453  9.80625 10.922663793103453  L 9.80625 11.32112068965518  C 9.80625 11.636066379310341  9.541818749999948 11.891379310344837  9.215625 11.891379310344837  C 8.911612500000002 11.891379310344837  8.66126250000002 11.669612068965524  8.62860000000005 11.384482758620685  L 8.625 10.850431034482762  C 8.625 10.804375862068975  8.630662500000062 10.75960603448276  8.64131250000005 10.716718965517249  C 8.674274999999943 10.383561206896553  8.757150000000047 10.08521637931035  8.88993749999995 9.821684482758622  C 9.095981249999976 9.39545689655173  9.591450000000032 8.84608965517242  10.376343749999979 8.173618965517239  C 10.651049999999941 7.9084034482758625  10.817849999999952 7.737923275862068  10.876724999999944 7.662160344827589  C 11.171043749999946 7.3022456896551775  11.318212499999982 6.928119827586215  11.318212499999982 6.539782758620685  C 11.318212499999982 5.980947413793115  11.15143125000004 5.540526724137937  10.817849999999952 5.218502586206904  C 10.484268750000002 4.886992241379312  10.003518750000012 4.721237068965524  9.375599999999986 4.721237068965524  C 8.639756249999937 4.721237068965524  8.095237499999985 4.953287068965528  7.7420250000000586 5.417405172413799  C 7.418268750000061 5.815210344827591  7.256381249999959 6.359816379310348  7.256381249999959 7.051241379310352  C 7.256381249999959 7.361172413793099  6.996000000000048 7.637068965517239  6.675000000000001 7.637068965517239  C 6.35399999999995 7.637068965517239  6.09375 7.38579310344827  6.09375 7.075862068965524  L 6.09375 6.8767241379310295  Z " fill-rule="nonzero" fill="#999999" stroke="none" transform="matrix(1 0 0 1 165 109 )" />
  </g>
</svg>