<?xml version="1.0" encoding="utf-8"?>
<svg version="1.1" xmlns:xlink="http://www.w3.org/1999/xlink" width="43px" height="26px" xmlns="http://www.w3.org/2000/svg">
  <g transform="matrix(1 0 0 1 -3287 -154 )">
    <path d="M 1.07080078125 18.04765625  C 0.35693359375 16.442968750000002  0 14.760416666666664  0 13  C 0 11.239583333333332  0.35693359375 9.55703125  1.07080078125 7.952343750000001  C 1.7846679687500002 6.34765625  2.739990234375 4.96640625  3.936767578125 3.80859375  C 5.133544921875001 2.6507812499999996  6.561279296875 1.7265625  8.219970703125 1.0359374999999988  C 9.878662109375002 0.3453125000000006  11.617838541666668 0  13.4375 0  L 29.5625 0  C 31.382161458333336 0  33.121337890625 0.3453125000000006  34.780029296875 1.0359374999999988  C 36.438720703125 1.7265625  37.866455078125 2.6507812499999996  39.063232421875 3.80859375  C 40.260009765625 4.96640625  41.21533203125 6.34765625  41.92919921875 7.952343750000001  C 42.64306640625 9.55703125  43 11.239583333333332  43 13  C 43 14.760416666666664  42.64306640625 16.442968750000002  41.92919921875 18.04765625  C 41.21533203125 19.65234375  40.260009765625 21.033593749999998  39.063232421875 22.19140625  C 37.866455078125 23.349218750000002  36.438720703125 24.2734375  34.780029296875 24.9640625  C 33.121337890625 25.654687499999998  31.382161458333336 26  29.5625 26  L 13.4375 26  C 11.617838541666668 26  9.878662109375002 25.654687499999998  8.219970703125 24.9640625  C 6.561279296875 24.2734375  5.133544921875001 23.349218750000002  3.936767578125 22.19140625  C 2.739990234375 21.033593749999998  1.7846679687500002 19.65234375  1.07080078125 18.04765625  Z M 25.394775390625 22.57734375  C 26.717529296875 23.12578125  28.106770833333336 23.400000000000002  29.5625 23.400000000000002  C 31.01822916666667 23.400000000000002  32.407470703125 23.12578125  33.730224609375 22.57734375  C 35.05297851562501 22.028906250000002  36.19726562500001 21.287499999999998  37.1630859375 20.353125000000002  C 38.12890625000001 19.41875  38.89526367187501 18.31171875  39.462158203125 17.03203125  C 40.02905273437501 15.75234375  40.31250000000001 14.408333333333331  40.3125 13  C 40.31250000000001 11.591666666666665  40.02905273437501 10.24765625  39.462158203125 8.96796875  C 38.89526367187501 7.688281249999999  38.12890625000001 6.581249999999998  37.1630859375 5.646875  C 36.19726562500001 4.7125  35.05297851562501 3.9710937499999996  33.730224609375 3.422656249999999  C 32.407470703125 2.874218750000001  31.01822916666667 2.5999999999999996  29.5625 2.5999999999999996  C 28.106770833333336 2.5999999999999996  26.717529296875 2.874218750000001  25.394775390625 3.422656249999999  C 24.072021484375 3.9710937499999996  22.927734375 4.7125  21.9619140625 5.646875  C 20.99609375 6.581249999999998  20.229736328125 7.688281249999999  19.662841796875 8.96796875  C 19.095947265625 10.24765625  18.8125 11.591666666666665  18.8125 13  C 18.8125 14.408333333333331  19.095947265625 15.75234375  19.662841796875 17.03203125  C 20.229736328125 18.31171875  20.99609375 19.41875  21.9619140625 20.353125000000002  C 22.927734375 21.287499999999998  24.072021484375 22.028906250000002  25.394775390625 22.57734375  Z " fill-rule="nonzero" fill="#e7772d" stroke="none" transform="matrix(1 0 0 1 3287 154 )" />
  </g>
</svg>