<?xml version="1.0" encoding="utf-8"?>
<svg version="1.1" xmlns:xlink="http://www.w3.org/1999/xlink" width="60px" height="60px" xmlns="http://www.w3.org/2000/svg">
  <g transform="matrix(1 0 0 1 -1306 -1297 )">
    <path d="M 60 30  C 60 13.411764726562495  46.5882352734375 0  30 0  C 13.411764726562499 0  0 13.411764726562499  0 30  C 0 46.588235273437505  13.411764726562499 60  30 60  C 46.588235273437505 60  60 46.588235273437505  60 30  Z M 35.29411763671875 29.999999999999996  L 43.058823515625 37.76470587890625  C 44.470588242187496 39.17647060546875  44.470588242187496 41.647058847656254  43.058823515625 43.058823515625  C 41.6470587890625 44.470588242187496  39.176470546875 44.470588242187496  37.76470587890625 43.058823515625  L 30 35.29411763671875  L 22.235294121093748 43.411764726562495  C 20.82352939453125 44.823529453125  18.35294115234375 44.823529453125  16.941176484375 43.411764726562495  C 16.23529412109375 42.352941210937495  15.88235296875 41.64705884765625  15.88235296875 40.5882352734375  C 15.88235296875 39.529411699218755  16.23529412109375 38.4705882421875  16.941176484375 37.76470587890625  L 24.70588236328125 30  L 16.941176484375 22.588235273437498  C 16.23529412109375 21.5294117578125  15.88235296875 20.82352939453125  15.88235296875 19.76470587890625  C 15.88235296875 18.705882363281248  16.23529412109375 17.64705884765625  16.941176484375 16.941176484374996  C 18.352941210937498 15.529411757812499  20.823529453125 15.529411757812499  22.235294121093748 16.941176484374996  L 30 24.705882363281248  L 37.76470587890625 16.941176484374996  C 39.17647060546875 15.529411757812499  41.647058847656254 15.529411757812499  43.058823515625 16.941176484374996  C 44.470588242187496 18.352941210937495  44.470588242187496 20.823529453124998  43.058823515625 22.235294121093744  L 35.29411763671875 29.999999999999996  Z " fill-rule="nonzero" fill="#ff6666" stroke="none" transform="matrix(1 0 0 1 1306 1297 )" />
  </g>
</svg>