<?xml version="1.0" encoding="utf-8"?>
<svg version="1.1" xmlns:xlink="http://www.w3.org/1999/xlink" width="58px" height="60px" xmlns="http://www.w3.org/2000/svg">
  <g transform="matrix(1 0 0 1 -249 -1297 )">
    <path d="M 14.796274038461538 45.260416666666664  C 15.66766826923077 46.12847222222222  16.103365384615387 47.17592592592592  16.103365384615387 48.40277777777778  C 16.103365384615387 49.629629629629626  15.66766826923077 50.677083333333336  14.796274038461538 51.545138888888886  C 13.924879807692307 52.41319444444444  12.873397435897436 52.84722222222222  11.641826923076923 52.84722222222222  C 10.433493589743591 52.84722222222222  9.387820512820515 52.407407407407405  8.504807692307693 51.52777777777778  C 7.621794871794872 50.64814814814815  7.180288461538462 49.60648148148148  7.180288461538462 48.40277777777778  C 7.180288461538462 47.17592592592592  7.615985576923077 46.12847222222222  8.487379807692307 45.260416666666664  C 9.358774038461538 44.39236111111111  10.41025641025641 43.95833333333333  11.641826923076923 43.95833333333333  C 12.873397435897436 43.95833333333333  13.924879807692307 44.39236111111111  14.796274038461538 45.260416666666664  Z M 32.15444711538462 52.41319444444444  C 33.02584134615385 53.28125  33.46153846153846 54.32870370370371  33.46153846153846 55.55555555555556  C 33.46153846153846 56.782407407407405  33.02584134615385 57.82986111111111  32.15444711538462 58.69791666666667  C 31.283052884615383 59.56597222222222  30.23157051282051 60  29 60  C 27.76842948717949 60  26.716947115384617 59.56597222222222  25.845552884615387 58.69791666666667  C 24.974158653846153 57.82986111111111  24.538461538461537 56.782407407407405  24.538461538461537 55.55555555555556  C 24.538461538461537 54.32870370370371  24.974158653846153 53.28125  25.845552884615387 52.41319444444444  C 26.716947115384617 51.545138888888886  27.76842948717949 51.111111111111114  29 51.111111111111114  C 30.23157051282051 51.111111111111114  31.283052884615383 51.545138888888886  32.15444711538462 52.41319444444444  Z M 7.615985576923077 27.968750000000004  C 8.487379807692307 28.836805555555557  8.923076923076923 29.88425925925926  8.923076923076923 31.111111111111114  C 8.923076923076923 32.33796296296296  8.487379807692307 33.38541666666667  7.615985576923077 34.25347222222222  C 6.744591346153847 35.12152777777778  5.693108974358975 35.55555555555556  4.461538461538462 35.55555555555556  C 3.2299679487179493 35.55555555555556  2.1784855769230766 35.12152777777778  1.307091346153846 34.25347222222222  C 0.4356971153846154 33.38541666666667  0 32.33796296296296  0 31.111111111111114  C 0 29.88425925925926  0.4356971153846154 28.836805555555557  1.307091346153846 27.968750000000004  C 2.1784855769230766 27.100694444444443  3.2299679487179493 26.666666666666664  4.461538461538462 26.666666666666664  C 5.693108974358975 26.666666666666664  6.744591346153847 27.100694444444443  7.615985576923077 27.968750000000004  Z M 49.51262019230769 45.260416666666664  C 50.38401442307693 46.12847222222222  50.81971153846154 47.17592592592592  50.81971153846154 48.40277777777778  C 50.81971153846154 49.60648148148148  50.37820512820514 50.64814814814815  49.49519230769231 51.52777777777778  C 48.61217948717949 52.407407407407405  47.56650641025641 52.84722222222222  46.35817307692307 52.84722222222222  C 45.12660256410256 52.84722222222222  44.07512019230769 52.41319444444444  43.20372596153846 51.545138888888886  C 42.332331730769226 50.677083333333336  41.89663461538462 49.629629629629626  41.89663461538462 48.40277777777778  C 41.89663461538462 47.17592592592592  42.332331730769226 46.12847222222222  43.20372596153846 45.260416666666664  C 44.07512019230769 44.39236111111111  45.12660256410256 43.95833333333333  46.35817307692307 43.95833333333333  C 47.58974358974359 43.95833333333333  48.64122596153846 44.39236111111111  49.51262019230769 45.260416666666664  Z M 15.580528846153847 9.895833333333336  C 16.67267628205128 10.98379629629629  17.21875 12.29166666666667  17.21875 13.819444444444445  C 17.21875 15.347222222222225  16.67267628205128 16.655092592592585  15.580528846153847 17.743055555555554  C 14.48838141025641 18.831018518518515  13.175480769230768 19.374999999999996  11.641826923076923 19.374999999999996  C 10.108173076923077 19.374999999999996  8.795272435897436 18.831018518518515  7.703125 17.743055555555554  C 6.610977564102565 16.655092592592585  6.064903846153847 15.347222222222225  6.064903846153847 13.819444444444445  C 6.064903846153847 12.29166666666667  6.610977564102565 10.98379629629629  7.703125 9.895833333333336  C 8.795272435897436 8.807870370370365  10.108173076923077 8.263888888888891  11.641826923076923 8.263888888888891  C 13.175480769230768 8.263888888888891  14.48838141025641 8.807870370370365  15.580528846153847 9.895833333333336  Z M 56.69290865384615 27.968750000000004  C 57.564302884615394 28.836805555555557  58.000000000000014 29.88425925925926  58 31.111111111111114  C 58.000000000000014 32.33796296296296  57.564302884615394 33.38541666666667  56.69290865384615 34.25347222222222  C 55.82151442307693 35.12152777777778  54.77003205128206 35.55555555555556  53.53846153846154 35.55555555555556  C 52.30689102564103 35.55555555555556  51.25540865384615 35.12152777777778  50.38401442307693 34.25347222222222  C 49.51262019230769 33.38541666666667  49.07692307692307 32.33796296296296  49.07692307692307 31.111111111111114  C 49.07692307692307 29.88425925925926  49.51262019230769 28.836805555555557  50.38401442307693 27.968750000000004  C 51.25540865384615 27.100694444444443  52.30689102564103 26.666666666666664  53.53846153846154 26.666666666666664  C 54.77003205128206 26.666666666666664  55.82151442307693 27.100694444444443  56.69290865384615 27.968750000000004  Z M 33.74038461538462 1.9444444444444464  C 35.04166666666667 3.240740740740735  35.69230769230769 4.8148148148148096  35.69230769230769 6.66666666666667  C 35.69230769230769 8.518518518518515  35.04166666666667 10.092592592592585  33.74038461538462 11.388888888888886  C 32.43910256410256 12.685185185185182  30.858974358974358 13.333333333333332  29 13.333333333333332  C 27.141025641025646 13.333333333333332  25.56089743589744 12.685185185185182  24.259615384615387 11.388888888888886  C 22.958333333333336 10.092592592592585  22.30769230769231 8.518518518518515  22.30769230769231 6.66666666666667  C 22.30769230769231 4.8148148148148096  22.958333333333336 3.240740740740735  24.259615384615387 1.9444444444444464  C 25.56089743589744 0.648148148148151  27.141025641025646 0  29 0  C 30.858974358974358 0  32.43910256410256 0.648148148148151  33.74038461538462 1.9444444444444464  Z M 51.86538461538462 8.33333333333333  C 53.39903846153846 9.86111111111111  54.16586538461538 11.689814814814811  54.16586538461538 13.819444444444445  C 54.16586538461538 15.972222222222223  53.39903846153846 17.80671296296296  51.86538461538462 19.32291666666667  C 50.331730769230774 20.839120370370367  48.49599358974359 21.59722222222222  46.35817307692307 21.59722222222222  C 44.19711538461538 21.59722222222222  42.35556891025641 20.839120370370367  40.83353365384615 19.32291666666667  C 39.3114983974359 17.80671296296296  38.550480769230774 15.972222222222223  38.550480769230774 13.819444444444445  C 38.550480769230774 11.689814814814811  39.3114983974359 9.86111111111111  40.83353365384615 8.33333333333333  C 42.35556891025641 6.805555555555555  44.19711538461538 6.041666666666665  46.35817307692307 6.041666666666665  C 48.49599358974359 6.041666666666665  50.331730769230774 6.805555555555555  51.86538461538462 8.33333333333333  Z " fill-rule="nonzero" fill="#000000" stroke="none" transform="matrix(1 0 0 1 249 1297 )" />
  </g>
</svg>