<?xml version="1.0" encoding="utf-8"?>
<svg version="1.1" xmlns:xlink="http://www.w3.org/1999/xlink" width="14px" height="18px" xmlns="http://www.w3.org/2000/svg">
  <g transform="matrix(1 0 0 1 -199 -2208 )">
    <path d="M 9.488281250000002 0.23890269886363652  L 13.69140625 4.53955078125  C 13.80859375 4.6594016335227275  13.875 4.821200284090908  13.875 4.9909889914772725  L 13.875 17.30965909090909  C 13.875 17.663219105113637  13.595703125 17.948863636363637  13.25 18  L 0.75 18  C 0.404296875 17.948863636363637  0.125 17.663219105113637  0.125 17.30965909090909  L 0.125 0.6903409090909091  C 0.125 0.33678089488636365  0.404296875 0.05113636363636364  0.75 0.05113636363636364  L 9.044921875000002 0.05113636363636364  C 9.2109375 0.05113636363636364  9.371093750000002 0.11905184659090927  9.488281250000002 0.23890269886363652  Z M 8.7578125 5.284623579545454  L 12.43359375 5.284623579545454  L 8.7578125 1.5253018465909094  L 8.7578125 5.284623579545454  Z M 8.23712890625 8.317629172585228  L 7.041503906250001 10.361226029829545  L 5.833710937499999 8.316750266335227  C 5.791275747502679 8.244910275181981  5.715191443582382 8.201002856498226  5.633125 8.200994318181817  L 4.882402343749999 8.200994318181817  C 4.838114893638462 8.200994776294268  4.7947338859398005 8.213828360316892  4.75728515625 8.238008256392044  C 4.64783203125 8.308680308948864  4.615117187500001 8.456716086647727  4.684218750000001 8.568656782670454  L 6.292285156249999 11.173854758522726  L 4.662421875 13.8262939453125  C 4.638942945744981 13.8645005145104  4.626486152984782 13.908709358134713  4.6264843749999995 13.953835227272728  C 4.6264843749999995 14.086210493607954  4.73142578125 14.193536931818183  4.8608593749999995 14.193536931818183  L 5.534023437499999 14.193536931818183  C 5.615256883589089 14.193534940567412  5.690696722683571 14.15051351266403  5.7333984375 14.079838423295454  L 6.958144531250001 12.052880859375  L 8.17474609375 14.079259144176136  C 8.217383159593403 14.150277214606579  8.293026642200267 14.1935497738462  8.37451171875 14.193536931818183  L 9.10666015625 14.193536931818183  C 9.151562536151928 14.1935344721465  9.195519170437734 14.180340363651936  9.23330078125 14.155524236505682  C 9.3422265625 14.084013227982954  9.373828125000001 13.935717773437501  9.30388671875 13.824336381392046  L 7.6665625 11.216561612215907  L 9.332499999999998 8.570454545454542  C 9.356855953419164 8.53176072649028  9.369806452661969 8.486714439738051  9.3698046875 8.44069602272727  C 9.3698046875 8.308320756392042  9.264882812500003 8.200994318181815  9.135429687500002 8.200994318181815  L 8.43826171875 8.200994318181815  C 8.355834070697862 8.200999049480238  8.279468165740935 8.24528715492348  8.2371484375 8.317629172585224  Z " fill-rule="nonzero" fill="#0fc060" stroke="none" transform="matrix(1 0 0 1 199 2208 )" />
  </g>
</svg>