<?xml version="1.0" encoding="utf-8"?>
<svg version="1.1" xmlns:xlink="http://www.w3.org/1999/xlink" width="24px" height="20px" xmlns="http://www.w3.org/2000/svg">
  <g transform="matrix(1 0 0 1 -209 -2374 )">
    <path d="M 23.703125 16.296875  C 23.901041666666664 16.494791666666668  24 16.729166666666668  24 17  L 24 19  C 24 19.270833333333332  23.901041666666664 19.505208333333332  23.703125 19.703125  C 23.505208333333336 19.901041666666668  23.270833333333336 20  23 20  L 1 20  C 0.7291666666666667 20  0.49479166666666663 19.901041666666668  0.296875 19.703125  C 0.09895833333333334 19.505208333333332  0 19.270833333333332  0 19  L 0 17  C 0 16.729166666666668  0.09895833333333334 16.494791666666668  0.296875 16.296875  C 0.49479166666666663 16.098958333333332  0.7291666666666667 16  1 16  L 23 16  C 23.270833333333336 16  23.505208333333336 16.098958333333332  23.703125 16.296875  Z M 23.703125 8.296875  C 23.901041666666664 8.494791666666666  24 8.729166666666666  24 9  L 24 11  C 24 11.270833333333332  23.901041666666664 11.505208333333332  23.703125 11.703125  C 23.505208333333336 11.901041666666664  23.270833333333336 12  23 12  L 1 12  C 0.7291666666666667 12  0.49479166666666663 11.901041666666664  0.296875 11.703125  C 0.09895833333333334 11.505208333333332  0 11.270833333333332  0 11  L 0 9  C 0 8.729166666666666  0.09895833333333334 8.494791666666666  0.296875 8.296875  C 0.49479166666666663 8.098958333333336  0.7291666666666667 8  1 8  L 23 8  C 23.270833333333336 8  23.505208333333336 8.098958333333336  23.703125 8.296875  Z M 23.703125 0.2968750000000009  C 23.901041666666664 0.4947916666666652  24 0.7291666666666652  24 1.0000000000000009  L 24 3.0000000000000004  C 24 3.2708333333333317  23.901041666666664 3.5052083333333317  23.703125 3.7031250000000004  C 23.505208333333336 3.9010416666666647  23.270833333333336 3.999999999999999  23 4  L 1 4  C 0.7291666666666667 3.999999999999999  0.49479166666666663 3.9010416666666647  0.296875 3.7031250000000004  C 0.09895833333333334 3.5052083333333317  0 3.2708333333333317  0 3.0000000000000004  L 0 1.0000000000000009  C 0 0.7291666666666652  0.09895833333333334 0.4947916666666652  0.296875 0.2968750000000009  C 0.49479166666666663 0.09895833333333215  0.7291666666666667 0  1 0  L 23 0  C 23.270833333333336 0  23.505208333333336 0.09895833333333215  23.703125 0.2968750000000009  Z " fill-rule="nonzero" fill="#999999" stroke="none" transform="matrix(1 0 0 1 209 2374 )" />
  </g>
</svg>