<?xml version="1.0" encoding="utf-8"?>
<svg version="1.1" xmlns:xlink="http://www.w3.org/1999/xlink" width="20px" height="20px" xmlns="http://www.w3.org/2000/svg">
  <g transform="matrix(1 0 0 1 -1817 -1912 )">
    <path d="M 20 10  C 20 4.5  15.5 0  10 0  C 4.5 0  0 4.5  0 10  C 0 15.5  4.5 20  10 20  C 15.5 20  20 15.5  20 10  Z M 15.000000000000002 9.999999999999998  C 15 10.600000000000001  14.6 11  14 11  L 10.999999999999998 11  L 10.999999999999998 14.000000000000002  C 10.999999999999998 14.600000000000001  10.599999999999998 15.000000000000002  9.999999999999998 15.000000000000002  C 9.399999999999999 15.000000000000002  9 14.600000000000001  9 14.000000000000002  L 9 11  L 6 11  C 5.400000000000001 11  5 10.600000000000001  5 10  C 5 9.399999999999999  5.400000000000001 9  6 9  L 9 9  L 9 6  C 9 5.400000000000001  9.4 5  10 5  C 10.600000000000001 5  11 5.400000000000001  11 6  L 11 9  L 14.000000000000002 9  C 14.600000000000001 9  15.000000000000002 9.399999999999999  15.000000000000002 9.999999999999998  Z " fill-rule="nonzero" fill="#e7772d" stroke="none" transform="matrix(1 0 0 1 1817 1912 )" />
  </g>
</svg>