<?xml version="1.0" encoding="utf-8"?>
<svg version="1.1" xmlns:xlink="http://www.w3.org/1999/xlink" width="20px" height="20px" xmlns="http://www.w3.org/2000/svg">
  <g transform="matrix(1 0 0 1 -229 -1077 )">
    <path d="M 239 1079  C 243.48 1079  247 1082.52  247 1087  C 247 1091.48  243.48 1095  239 1095  C 234.52 1095  231 1091.48  231 1087  C 231 1082.52  234.52 1079  239 1079  Z " fill-rule="nonzero" fill="#ffffff" stroke="none" />
    <path d="M 239 1078.5  C 243.76 1078.5  247.5 1082.24  247.5 1087  C 247.5 1091.76  243.76 1095.5  239 1095.5  C 234.24 1095.5  230.5 1091.76  230.5 1087  C 230.5 1082.24  234.24 1078.5  239 1078.5  Z " stroke-width="3" stroke="#e7772d" fill="none" />
  </g>
</svg>