<?xml version="1.0" encoding="utf-8"?>
<svg version="1.1" xmlns:xlink="http://www.w3.org/1999/xlink" width="15px" height="14px" xmlns="http://www.w3.org/2000/svg">
  <g transform="matrix(1 0 0 1 -808 -276 )">
    <path d="M 5.096199776785714 6.833101851851852  C 5.096199776785714 7.290856481481483  4.712226562500001 7.660997685185186  4.238504464285715 7.660997685185186  C 3.7655691964285714 7.660997685185186  3.3815959821428576 7.290872685185186  3.3815959821428576 6.833085648148148  C 3.3815959821428576 6.375331018518518  3.7655691964285714 6.003699074074074  4.238504464285715 6.003699074074074  C 4.712226562500001 6.003699074074074  5.096199776785714 6.375331018518518  5.096199776785714 6.833085648148148  Z M 7.488247767857141 12.635939814814813  C 11.58395089285714 12.634449074074071  14.916395089285711 9.825909722222221  14.916395089285713 6.373840277777778  C 14.916395089285713 2.920231481481482  11.58396763392857 0.11021759259259294  7.4866573660714275 0.11021759259259294  C 3.389397321428571 0.11021759259259294  0.05695312499999978 2.920231481481482  0.05695312499999978 6.373840277777778  C 0.05695312499999978 8.425472222222222  1.2510100446428567 10.34713425925926  3.253593749999999 11.517949074074075  L 3.253593749999999 13.492532407407408  C 3.253593749999999 13.633083333333332  3.3331975446428563 13.761465277777777  3.4604129464285704 13.826425925925927  C 3.518939732142856 13.85816898148148  3.5806138392857134 13.87325462962963  3.6469419642857135 13.87325462962963  C 3.7234151785714276 13.87325462962963  3.798348214285713 13.852108796296296  3.8639062499999985 13.809849537037037  L 4.805106026785714 13.208530092592593  C 4.821220976230818 13.198819642936751  4.83637465145704 13.187689014427391  4.85037388392857 13.175280092592592  L 5.914888392857141 12.489377314814814  C 6.445580357142855 12.586064814814812  6.974698660714284 12.635939814814813  7.488247767857141 12.635939814814813  Z M 4.04025669642857 11.298907407407405  C 4.04025669642857 11.161451388888889  3.9630133928571425 11.036018518518517  3.840485491071428 10.968043981481483  C 1.9627566964285708 9.94375925925926  0.8428292410714281 8.22600462962963  0.8428292410714281 6.3723171296296295  C 0.8428292410714281 3.338692129629629  3.823325892857143 0.8701064814814812  7.486640625000001 0.8701064814814812  C 11.150005580357144 0.8701064814814812  14.13046875 3.338692129629629  14.13046875 6.3723171296296295  C 14.13046875 9.40594212962963  11.14921875 11.874511574074074  7.4866573660714275 11.874511574074074  C 6.974698660714285 11.874511574074074  6.444023437499999 11.820115740740741  5.910200892857143 11.712847222222223  C 5.808749999999999 11.690210648148149  5.7010379464285705 11.711356481481483  5.612075892857142 11.768782407407407  L 4.366506696428571 12.572486111111111  C 4.349330357142856 12.581560185185184  4.324352678571429 12.602706018518518  4.324352678571429 12.602706018518518  L 4.04025669642857 12.784009259259259  L 4.04025669642857 11.298907407407405  Z M 7.628722098214285 5.772537037037037  C 8.103214285714285 5.772537037037037  8.4871875 6.142678240740741  8.4871875 6.60043287037037  C 8.4871875 7.0581875  8.103214285714285 7.431358796296296  7.628705357142857 7.431358796296296  C 7.1557700892857135 7.431358796296296  6.771796875 7.0581875  6.771796875 6.60043287037037  C 6.771796875 6.142678240740741  7.1557700892857135 5.772537037037037  7.628722098214285 5.772537037037037  Z M 10.981439732142857 5.772537037037037  C 11.454375 5.772537037037037  11.838364955357141 6.142678240740741  11.838364955357141 6.60043287037037  C 11.838364955357141 7.0581875  11.454375 7.431358796296296  10.981439732142857 7.431358796296296  C 10.508504464285714 7.431358796296296  10.124514508928572 7.0581875  10.124514508928572 6.60043287037037  C 10.124514508928572 6.142678240740741  10.508487723214285 5.772537037037037  10.981439732142857 5.772537037037037  Z " fill-rule="nonzero" fill="#000000" stroke="none" transform="matrix(1 0 0 1 808 276 )" />
  </g>
</svg>