<?xml version="1.0" encoding="utf-8"?>
<svg version="1.1" xmlns:xlink="http://www.w3.org/1999/xlink" width="17px" height="14px" xmlns="http://www.w3.org/2000/svg">
  <g transform="matrix(1 0 0 1 -1801 -4188 )">
    <path d="M 14.292037898936167 12.6477490234375  C 14.274712225731383 12.5880712890625  14.256874376662232 12.536528320312499  14.239760638297872 12.487412109375  C 14.187430393949468 12.3367138671875  14.141988031914893 12.206062011718751  14.141988031914893 11.9519189453125  C 14.141988031914893 11.76059814453125  14.19906914893617 11.720368652343751  14.348765791223402 11.6154541015625  C 14.439067694481386 11.552136230468749  14.568559881981384 11.46114990234375  14.747009017619682 11.2822021484375  C 15.252756191821808 10.77557373046875  15.559319938497339 10.431896972656249  15.73769842918883 10.038950195312498  C 15.915582405252662 9.6469091796875  15.968778050199466 9.198864746093749  15.968778050199466 8.481928710937499  C 15.968778050199466 7.665358886718749  15.44378012799202 6.8551293945312475  14.644768118351061 6.249243164062499  C 13.84612699468085 5.64393798828125  12.775131939827128 5.243608398437499  11.678757687832446 5.243608398437499  C 10.523129986702129 5.243608398437499  9.585865816156916 5.587507324218749  8.891267037898936 6.1227612304687495  C 8.30335979055851 6.575966796874999  7.888320728058511 7.166728515625  7.661373836436169 7.802128906249997  C 7.434532912234043 8.437255859374998  7.395095370678191 9.116833496093749  7.5575081033909575 9.74820068359375  C 7.727903715093086 10.41067138671875  8.121378407579787 11.021086425781249  8.75393326130319 11.471916503906249  C 9.315313331117022 11.872160644531249  9.977856964760635 12.170771484374999  10.681462973736702 12.324169921874999  C 11.341057180851061 12.46811767578125  12.03745740525266 12.484541015625  12.721070894281915 12.3377392578125  C 13.577517245678193 12.153920898437502  13.658829579454787 12.230175781249999  13.821030377327126 12.3831640625  C 13.902201421210107 12.45964111328125  14.00725045711436 12.558642578125001  14.292037898936167 12.6477490234375  Z M 3.126780668218085 8.82861328125  C 3.126815990691489 9.178203125  3.058007812499999 9.361457519531248  2.9891996343085103 9.5449853515625  C 2.9435806599069143 9.6665283203125  2.8977144281914886 9.7884130859375  2.8744545794547864 9.964729003906251  C 3.0707415641622338 9.90600830078125  3.244687084441489 9.806938476562502  3.4169194647606376 9.708911132812501  C 3.756703997672872 9.515283203125  4.091402094414894 9.32478271484375  4.593599360039892 9.42212646484375  C 4.994721368018616 9.499987792968753  5.290405792885637 9.55404296875  5.603698470744679 9.58847900390625  C 5.895832987034574 9.620625  6.204728016954786 9.635783691406251  6.631052609707446 9.637595214843751  C 6.522206407912233 9.367934570312501  6.48308676861702 9.045329589843753  6.490681100398935 8.717016601562502  C 6.500818650265956 8.276269531250001  6.595288605385638 7.8226708984375035  6.716762591422871 7.472653808593753  C 7.041376122007978 6.539172363281252  7.448291015624999 6.175517578125002  8.061718749999999 5.627429199218752  L 8.095575340757977 5.597128906250002  C 8.171253740026597 5.529606933593753  8.215389170545212 5.490522460937503  8.262491688829787 5.453710937500003  C 8.307580826130318 5.4181640625000025  8.356749709109042 5.384138183593753  8.443201462765956 5.3256225585937536  C 8.869225814494678 5.037419433593754  9.315719539561169 4.814089355468753  9.804264669215426 4.662946777343753  C 10.272464054188829 4.518093261718753  10.779341547539893 4.439274902343754  11.343317819148936 4.432866210937504  C 11.26324177194149 4.116276855468754  11.146907205784572 3.8191015625000038  10.99994805518617 3.542827148437504  C 10.45891373005319 2.5248876953125032  9.499202127659572 1.7857177734375034  8.381669714095743 1.365000000000003  C 7.261700049867021 0.9435644531250034  5.983644655917552 0.841572265625003  4.808148063497339 1.0987402343750032  C 4.3723040641622335 1.1940502929687529  3.9506420378989358 1.338937988281253  3.556778798204787 1.5349584960937532  C 2.709357338763297 1.956735839843753  2.0682014627659573 2.501320800781253  1.632993267952127 3.111564941406253  C 1.2156229222074462 3.696669921875004  0.9869452293882973 4.343093261718753  0.9464656748670209 4.999992675781253  C 0.9060567652925527 5.657062988281252  1.0535280917553187 6.325839843750003  1.3881732047872337 6.955429687500003  C 1.7456189744015953 7.6280517578125036  2.3170659491356376 8.256701660156253  3.1006067154255312 8.779958496093752  L 3.126780668218085 8.797475585937502  L 3.126780668218085 8.82861328125  Z M 0.7234749002659574 7.529836425781252  C 0.31315138796542547 6.805620117187501  0.05201234208776596 5.968217773437501  0.05201234208776596 5.184973144531251  C 0.05201234208776596 4.548171386718751  0.2590903424202128 3.857468261718751  0.5888432928856383 3.225400390625001  C 0.9376350565159575 2.5568457031250005  1.4248732546542555 1.9519848632812509  1.9501714178856389 1.544289550781251  C 3.1538553440824466 0.6096972656250014  4.540845246010639 0.12731933593750125  5.943182762632979 0.085466308593751  C 7.363676030585107 0.04296386718750118  8.799887799202127 0.4522143554687513  10.077289727393618 1.300263671875001  C 10.626236286569148 1.6644140625000008  11.047209524601065 2.0610693359375016  11.380106175199467 2.5130786132812517  C 11.712402343750002 2.9645410156250014  11.95658660239362 3.4710498046875014  12.15207883144947 4.055864257812502  C 12.272493143284576 4.415075683593753  12.309952626329789 4.419006347656253  12.53384412400266 4.441958007812502  C 12.615527343750001 4.450332031250001  12.718986868351061 4.461047363281252  12.853583153257981 4.486887207031252  C 13.310726604055851 4.574797363281252  13.770360289228725 4.722846679687503  14.197303025265958 4.923669433593752  C 14.605966381316492 5.115861816406251  14.985453374335108 5.356896972656252  15.305033452460108 5.640622558593752  C 15.529437125997342 5.839873046875002  15.738652135970746 6.037346191406252  15.928104222074468 6.253652343750002  C 16.118209773936172 6.470881347656252  16.287086519281917 6.705798339843751  16.429082862367025 6.978142089843752  C 16.789954911901596 7.670417480468753  16.959131898271277 8.309509277343754  16.93366439494681 8.943867187500002  C 16.908214552859043 9.578088378906251  16.687908286236706 10.205627441406254  16.27060858543883 10.874284667968753  C 16.133575049867023 11.093718261718752  15.90443816489362 11.3686083984375  15.658028590425532 11.623161621093754  C 15.421138422539896 11.868127441406251  15.167258144946809 12.095422363281251  14.963200216090428 12.237541503906254  C 15.04143949468085 12.562316894531255  15.127855925864365 12.790705566406254  15.196363863031914 12.971669921875003  C 15.334474734042553 13.336999511718751  15.404095329122343 13.520869140625004  15.20959212932181 13.887668457031253  L 15.19141871675532 13.921967773437503  L 15.152864237034576 13.918754882812504  C 14.82809175531915 13.891770019531254  14.625199468085109 13.765219726562504  14.401466921542557 13.625852050781255  L 14.327413356050535 13.579931640625002  C 14.218304624475001 13.513025141873069  14.107148090640708 13.449154628227678  13.994092835771278 13.388542480468754  C 13.888531624002662 13.331770019531254  13.776241481050533 13.274501953125005  13.653283951130321 13.211970214843754  C 13.352672041223407 13.059050292968756  13.343841422872343 13.061271972656256  13.09047332114362 13.129101562500002  C 13.035034699135641 13.143918457031253  12.96854014295213 13.161794433593753  12.875712682845746 13.184130859375005  C 12.311312541555855 13.320285644531253  12.093690782912235 13.318132324218753  11.639726354720748 13.313466796875003  C 11.55790184507979 13.312629394531255  11.466946476063832 13.311706542968755  11.33070769614362 13.311706542968755  C 10.419175947473407 13.311706542968755  9.377445561835108 12.925732421875006  8.524001620678195 12.358161621093755  C 7.696095827792555 11.807629394531256  7.0424711186835145 11.084011230468752  6.851835729720747 10.373056640625002  C 6.483104429853726 10.452165527343753  6.107185006648938 10.469973144531254  5.735645570146279 10.450285644531252  C 5.346815782912237 10.429846191406252  4.9624542885638325 10.367929687500006  4.596054271941493 10.292563476562501  C 4.01713659408245 10.173310546875003  3.554465176196812 10.465734863281252  3.112828291223408 10.744931640625003  C 2.825815533577131 10.926357421875002  2.54682097739362 11.102673339843752  2.243683510638301 11.166315917968754  C 1.9813611619015985 11.221430664062504  1.8561253324468117 11.135075683593755  1.8175531914893648 10.962827148437503  C 1.7597479637633011 10.705402832031254  1.9339230801196836 10.242609863281253  2.0976250831117054 9.807707519531252  C 2.1800853972739396 9.588701171875  2.260037815824471 9.376445312500003  2.304579454787237 9.205769042968752  C 1.7015012051196843 8.873696289062503  1.1363416306515985 8.258393554687503  0.7234749002659604 7.5299731445312545  Z M 7.88565388131649 4.516640625  C 7.6839095744680845 4.516640625  7.468778050199468 4.42326171875  7.313235538563828 4.2508935546875  C 7.179328041888297 4.102707519531251  7.089167428523936 3.8959375000000005  7.089167428523936 3.640324707031251  C 7.089167428523936 3.4929077148437515  7.200609832114361 3.3352026367187513  7.355339926861702 3.215163574218751  C 7.510070021609042 3.0952270507812516  7.710736993018617 3.010102539062501  7.88565388131649 3.010102539062501  C 8.298644240359042 3.010102539062501  8.556568941156915 3.1983984375  8.669300615026597 3.441586914062501  C 8.714089511303191 3.5379736328125  8.735671542553193 3.643417968750001  8.734806141954786 3.7492041015625013  C 8.733930035401471 3.8559195117395078  8.71046212150396 3.9611041070458692  8.66585667386968 4.058461914062501  C 8.548391788563828 4.314382324218751  8.283685172872339 4.516640625  7.88565388131649 4.516640625  Z M 4.098978764960107 4.516640624999999  C 3.897234458111702 4.516640624999999  3.682014627659574 4.423364257812499  3.5264544547872334 4.251013183593751  C 3.3926529255319147 4.102707519531251  3.30238634474734 3.8960400390625005  3.30238634474734 3.6403417968750005  C 3.30238634474734 3.492924804687501  3.4138287483377656 3.335219726562501  3.5686648105053185 3.215180664062501  C 3.723271276595744 3.095244140625001  3.92395590924202 3.0101196289062506  4.098978764960107 3.0101196289062506  C 4.506935671542553 3.0101196289062506  4.761027883976063 3.1978857421875007  4.872170046542553 3.4408691406250003  C 4.916287815824467 3.5373583984375  4.937569606050531 3.6428369140625  4.936704205452128 3.748383789062501  C 4.935813402610008 3.854722355898276  4.912689834646318 3.9597864124238473  4.868726105385638 4.057248535156251  C 4.752709441489361 4.3136474609375  4.491111203457446 4.516640624999999  4.098978764960107 4.516640624999999  Z M 10.751348487367022 8.273056640624997  C 10.751542760970745 8.359206542968748  10.732927817486704 8.445185546874997  10.695115109707446 8.523251953125  C 10.602358294547871 8.71464111328125  10.395880776263297 8.861306152343749  10.069748379321807 8.861306152343749  C 9.738282288896276 8.861306152343749  9.539204828789893 8.714504394531248  9.45277073636968 8.52275634765625  L 9.503387840757977 8.500009765624998  L 9.45277073636968 8.522551269531249  C 9.417183344414893 8.443510742187499  9.401146941489362 8.356694335937497  9.403160322473404 8.269638671874999  C 9.405173703457447 8.183112792968748  9.425378158244682 8.09592041015625  9.46147772606383 8.0161962890625  C 9.556954371675532 7.805683593749998  9.764968417553193 7.639741210937498  10.05837454288564 7.644406738281248  C 10.384065408909576 7.6494140624999964  10.599479512965429 7.814160156249998  10.69511510970745 8.0203662109375  C 10.73194357677643 8.099855264957332  10.751101857288289 8.185944956455536  10.751348487367022 8.273056640624997  Z M 13.037507272273935 8.863784179687501  C 12.944096991356382 8.86561279296875  12.851269531250002 8.850949707031253  12.767149060837767 8.818171386718747  C 12.559223321143618 8.737131347656248  12.401614444813829 8.548596191406249  12.401614444813829 8.23099853515625  C 12.401614444813829 7.94846923828125  12.557421875000001 7.783090820312498  12.763917054521277 7.7125439453124995  C 12.84696018949468 7.684294433593748  12.938639669215426 7.671767578124999  13.03130817819149 7.67366455078125  C 13.123802000315656 7.675633137080704  13.21543802941161 7.691304073528315  13.303026304853724 7.7201318359375  C 13.548128947805852 7.800778808593753  13.747277052859042 7.9822216796875  13.747277052859042 8.231015625000001  C 13.747277052859042 8.515629882812501  13.55227933843085 8.7196142578125  13.31099152260638 8.810822753906251  C 13.22408057679521 8.84360107421875  13.130246426196807 8.861887207031252  13.037507272273935 8.863784179687501  Z " fill-rule="nonzero" fill="#999999" stroke="none" transform="matrix(1 0 0 1 1801 4188 )" />
  </g>
</svg>