<?xml version="1.0" encoding="utf-8"?>
<svg version="1.1" xmlns:xlink="http://www.w3.org/1999/xlink" width="20px" height="20px" xmlns="http://www.w3.org/2000/svg">
  <g transform="matrix(1 0 0 1 -2011 -766 )">
    <path d="M 3.0357142857142847 6.25  L 3.0357142857142847 3.0357142857142847  L 6.25 3.0357142857142847  L 6.25 6.25  L 3.0357142857142847 6.25  Z M 3.0357142857142847 16.964285714285715  L 3.0357142857142847 13.75  L 6.25 13.75  L 6.25 16.964285714285715  L 3.0357142857142847 16.964285714285715  Z M 13.75 6.25  L 13.75 3.0357142857142847  L 16.964285714285715 3.0357142857142847  L 16.964285714285715 6.25  L 13.75 6.25  Z M 18.214285714285715 16.607142857142858  L 18.214285714285715 18.214285714285715  L 15 18.214285714285715  L 15 19.821428571428573  L 18.214285714285715 19.821428571428573  C 19.107142857142858 19.821428571428573  19.821428571428573 19.107142857142858  19.821428571428573 18.214285714285715  L 19.821428571428573 16.607142857142858  L 18.214285714285715 16.607142857142858  Z M 1.7857142857142858 0.17857142857142855  C 0.8928571428571429 0.17857142857142855  0.17857142857142855 0.8928571428571429  0.17857142857142855 1.7857142857142858  L 0.17857142857142855 9.107142857142858  L 9.107142857142858 9.107142857142858  L 9.107142857142858 0.17857142857142855  L 1.7857142857142858 0.17857142857142855  Z M 7.5 1.7857142857142858  L 7.5 7.5  L 1.7857142857142858 7.5  L 1.7857142857142858 1.7857142857142858  L 7.5 1.7857142857142858  Z M 0.17857142857142855 10.892857142857142  L 0.17857142857142855 18.214285714285715  C 0.17857142857142855 19.107142857142858  0.8928571428571429 19.821428571428573  1.7857142857142858 19.821428571428573  L 9.107142857142858 19.821428571428573  L 9.107142857142858 10.892857142857142  L 0.17857142857142855 10.892857142857142  Z M 1.7857142857142858 18.214285714285715  L 1.7857142857142858 12.5  L 7.5 12.5  L 7.5 18.21428571428572  L 1.7857142857142858 18.214285714285715  Z M 10.892857142857142 12.5  L 10.892857142857142 10.892857142857142  L 16.607142857142858 10.892857142857142  L 16.607142857142858 12.5  L 10.892857142857142 12.5  Z M 16.607142857142858 13.214285714285715  L 15 13.214285714285715  L 13.214285714285715 13.214285714285715  L 13.214285714285715 15  L 15 15  L 15 16.607142857142858  L 16.607142857142858 16.607142857142858  L 16.607142857142858 15  L 19.821428571428573 15  L 19.821428571428573 13.214285714285715  L 16.607142857142858 13.214285714285715  Z M 10.892857142857142 19.821428571428573  L 10.892857142857142 16.607142857142858  L 12.5 16.607142857142858  L 12.5 19.821428571428573  L 10.892857142857142 19.821428571428573  Z M 13.214285714285715 18.214285714285715  L 13.214285714285715 16.607142857142858  L 14.821428571428573 16.607142857142858  L 14.821428571428573 18.214285714285715  L 13.214285714285715 18.214285714285715  Z M 10.892857142857142 14.821428571428573  L 10.892857142857142 13.214285714285715  L 12.5 13.214285714285715  L 12.5 14.821428571428573  L 10.892857142857142 14.821428571428573  Z M 18.214285714285715 12.5  L 18.214285714285715 10.892857142857142  L 19.821428571428573 10.892857142857142  L 19.821428571428573 12.5  L 18.214285714285715 12.5  Z M 19.821428571428573 1.7857142857142858  C 19.821428571428573 0.8928571428571429  19.107142857142858 0.17857142857142855  18.214285714285715 0.17857142857142855  L 10.892857142857142 0.17857142857142855  L 10.892857142857142 9.107142857142858  L 19.821428571428573 9.107142857142858  L 19.821428571428573 1.7857142857142858  Z M 18.21428571428572 1.7857142857142858  L 18.214285714285715 7.5  L 12.5 7.5  L 12.5 1.7857142857142858  L 18.21428571428572 1.7857142857142858  Z " fill-rule="nonzero" fill="#272636" stroke="none" transform="matrix(1 0 0 1 2011 766 )" />
  </g>
</svg>