<?xml version="1.0" encoding="utf-8"?>
<svg version="1.1" xmlns:xlink="http://www.w3.org/1999/xlink" width="30px" height="30px" xmlns="http://www.w3.org/2000/svg">
  <g transform="matrix(1 0 0 1 -2006 -834 )">
    <path d="M 15 0.08522727272727273  C 6.775601473721592 0.08522727272727273  0.08522727272727273 6.775601473721592  0.08522727272727273 15  C 0.08522727272727273 23.224398526278407  6.775601473721592 29.914772727272727  15 29.914772727272727  C 23.224398526278407 29.914772727272727  29.914772727272727 23.224398526278407  29.914772727272727 15  C 29.914772727272727 6.775601473721592  23.224398526278407 0.08522727272727273  15 0.08522727272727273  Z M 15.797940340909088 10.014171253551135  L 21.07457386363636 15.349365234374998  C 21.279152610085227 15.557073419744317  21.382457386363637 15.827736594460225  21.382457386363637 16.098333185369313  C 21.382457386363637 16.373157848011356  21.27695534446023 16.648049094460227  21.066051136363637 16.85575727982954  C 20.64737215909091 17.269109552556813  19.974043412642043 17.265913529829543  19.559659090909086 16.847234552556817  L 15.035122958096586 12.27266068892045  L 10.485051935369317 16.809947620738633  C 10.068470348011362 17.22543057528409  9.394142844460225 17.224331942471586  8.97865988991477 16.807816938920453  C 8.562078302556817 16.391235351562496  8.564275568181817 15.716907848011358  8.980790571732953 15.301424893465905  L 14.286155007102273 10.01094193892045  C 14.287253639914772 10.009843306107948  14.288285688920455 10.009843306107948  14.289351029829545 10.008811257102266  C 14.290416370738635 10.007779208096585  14.290449662642047 10.006680575284085  14.291481711647728 10.005615234374995  C 14.390558416193182 9.90763716264204  14.505615234375 9.837291370738631  14.625998757102272 9.786155007102264  C 14.630226828835228 9.784024325284083  14.634521484375 9.77873091264204  14.638816139914772 9.777632279829541  C 15.025601473721593 9.619961825284086  15.485862038352277 9.698830344460221  15.79800692471591 10.014137961647721  Z " fill-rule="nonzero" fill="#e7772d" stroke="none" transform="matrix(1 0 0 1 2006 834 )" />
  </g>
</svg>