<?xml version="1.0" encoding="utf-8"?>
<svg version="1.1" xmlns:xlink="http://www.w3.org/1999/xlink" width="160px" height="160px" xmlns="http://www.w3.org/2000/svg">
  <g transform="matrix(1 0 0 1 -2185 -1689 )">
    <path d="M 25 50  L 25 25  L 50 25  L 50 50  L 25 50  Z M 25 135  L 25 110  L 50 110  L 50 135  L 25 135  Z M 110 50  L 110 25  L 135 25  L 135 50  L 110 50  Z M 145 132  L 145 145  L 120 145  L 120 158  L 145.71428571428572 158  C 152.85714285714286 158.57142857142858  158.57142857142858 152.85714285714286  158 145.71428571428572  L 158 132  L 145 132  Z M 14.285714285714286 2  C 7.142857142857143 1.4285714285714284  1.4285714285714284 7.142857142857143  2 14.285714285714286  L 2 73  L 73 73  L 73 2  L 14.285714285714286 2  Z M 60 15  L 60 60  L 15 60  L 15 15  L 60 15  Z M 2 87  L 2 145.71428571428572  C 1.4285714285714284 152.85714285714286  7.142857142857143 158.57142857142858  14.285714285714286 158  L 73 158  L 73 87  L 2 87  Z M 15 145  L 15 100  L 60 100  L 60 145  L 15 145  Z M 87 100  L 87 87  L 132 87  L 132 100  L 87 100  Z M 132.85714285714286 105  L 120 105  L 105 105.71428571428572  L 105 120  L 120 120  L 120 132  L 132 132  L 132 120  L 158 120  L 158 105.71428571428572  L 132.85714285714286 105  Z M 87 158  L 87 132  L 100 132  L 100 158  L 87 158  Z M 105 145  L 105 132  L 118 132  L 118 145  L 105 145  Z M 87 118  L 87 105  L 100 105  L 100 118  L 87 118  Z M 145 100  L 145 87  L 158 87  L 158 100  L 145 100  Z M 158 14.285714285714286  C 158.57142857142858 7.142857142857143  152.85714285714286 1.4285714285714284  145.71428571428572 2  L 87 2  L 87 73  L 158 73  L 158 14.285714285714286  Z M 145 15  L 145 60  L 100 60  L 100 15  L 145 15  Z " fill-rule="nonzero" fill="#272636" stroke="none" transform="matrix(1 0 0 1 2185 1689 )" />
  </g>
</svg>