<?xml version="1.0" encoding="utf-8"?>
<svg version="1.1" xmlns:xlink="http://www.w3.org/1999/xlink" width="20px" height="20px" xmlns="http://www.w3.org/2000/svg">
  <g transform="matrix(1 0 0 1 -2632 -1536 )">
    <path d="M 15.965676559405937 19.76254126237624  C 15.692971610037809 19.796622125458608  15.418390285566923 19.813487217014476  15.143564356435641 19.813036311881188  C 14.343234331683165 19.813036311881188  13.479702970297026 19.677887797029705  12.56567655940594 19.409075915841584  C 10.084653465346536 18.679867995049506  7.475247524752476 17.035313539603962  5.220297029702969 14.77970297029703  C 2.965346534653464 12.5240924009901  1.3201320049504952 9.915511559405942  0.5909240841584159 7.43432344059406  C 0.22788777227722767 6.198184826732675  0.1084158415841583 5.054290445544556  0.2374587376237624 4.03498349009901  C 0.37656764851485164 2.935313514851485  0.7966996534653465 2.028052797029703  1.4864686386138617 1.3382838366336633  L 2.4199670049504944 0.4047854702970295  C 2.9358359724985656 -0.10986173759714193  3.770929720570741 -0.10986173759714193  4.286798688118812 0.4047854702970295  L 8.394224430693068 4.512046212871287  C 8.90889060732857 5.027971741096166  8.90889060732857 5.863117367814724  8.394224430693068 6.3790428960396035  L 7.461881188118812 7.310231014851485  L 7.460726064356434 7.311386138613861  C 6.932673267326733 7.839438935643564  7.458250816831682 9.549339925742574  8.954290420792079 11.045214529702971  C 10.450330024752477 12.541089133663368  12.159405940594059 13.067986806930694  12.68811881188119 12.539273935643564  L 13.621617153465348 11.605775569306932  C 14.137542684545043 11.091109376210062  14.972688330306445 11.091109376210062  15.488613861386138 11.605775569306932  L 19.595874579207916 15.713201311881189  C 20.110521787102087 16.22907027942926  20.110521787102087 17.064164027501434  19.59587457920792 17.580032995049507  L 18.66237623762376 18.51353136138614  C 17.972607252475246 19.203300346534654  17.065346534653465 19.62343235148515  15.965676559405937 19.76254126237624  Z M 3.166666658415841 1.1509900990099025  L 2.233168316831683 2.08432344059406  C 1.1793729455445547 3.138283836633664  0.9559405940594061 4.932508267326733  1.6041254207920794 7.136303638613861  C 2.2848184900990103 9.450825099009899  3.8343234405940594 11.899999999999999  5.967161707920791 14.032838292079205  C 8.099999975247524 16.165676584158412  10.5491749009901 17.715181534653464  12.863696361386136 18.39587457920792  C 15.067656757425741 19.044059405940594  16.861716163366335 18.820627054455443  17.915676559405938 17.766831683168316  L 18.849009900990097 16.833333341584158  C 18.89853749547347 16.783817053059092  18.926362758949608 16.716651767608184  18.926362758949608 16.646617165841583  C 18.926362758949608 16.576582564074982  18.89853749547347 16.50941727862407  18.849009900990097 16.45990099009901  L 14.741749183168318 12.352640272277224  C 14.692232894643254 12.30311267779385  14.625067609192346 12.27528741431771  14.555033007425743 12.27528741431771  C 14.484998405659141 12.27528741431771  14.417833120208233 12.30311267779385  14.368316831683167 12.352640272277224  L 13.434983490099007 13.286138613861382  C 13.097359727722772 13.62376237623762  12.634158415841583 13.79537952970297  12.083828391089106 13.79537952970297  C 11.741254133663364 13.79537952970297  11.364851485148515 13.729372920792077  10.963531361386138 13.595379529702967  C 10.040924108910891 13.287788762376236  9.06221123762376 12.647689752475246  8.207755767326733 11.793069306930688  C 7.353300297029702 10.938448861386131  6.713036287128713 9.95957096534653  6.405445544554454 9.037293737623758  C 6.056105618811881 7.9905940594059395  6.166171608910891 7.112211212871287  6.713861386138614 6.565016509900991  L 7.647359727722773 5.631683168316832  C 7.6968873222061465 5.582166879791769  7.724712585682285 5.515001594340862  7.724712585682285 5.444966992574258  C 7.724712585682285 5.374932390807654  7.6968873222061465 5.307767105356749  7.6473597277227725 5.258250816831684  L 3.54009900990099 1.1509900990099025  C 3.4905827213759255 1.1014625045265283  3.4234174359250185 1.07363724105039  3.353382834158415 1.07363724105039  C 3.283348232391811 1.07363724105039  3.2161829469409047 1.1014625045265283  3.166666658415841 1.1509900990099025  Z " fill-rule="nonzero" fill="#0066ff" stroke="none" transform="matrix(1 0 0 1 2632 1536 )" />
  </g>
</svg>