<?xml version="1.0" encoding="utf-8"?>
<svg version="1.1" xmlns:xlink="http://www.w3.org/1999/xlink" width="42px" height="42px" xmlns="http://www.w3.org/2000/svg">
  <g transform="matrix(1 0 0 1 -1499 -701 )">
    <path d="M 33.52792077475247 41.5013366509901  C 32.9552403810794 41.57290646346308  32.37861959969054 41.6083231557304  31.801485148514846 41.607376254950495  C 30.120792096534647 41.607376254950495  28.307376237623757 41.32356437376237  26.387920774752477 40.75905942326733  C 21.177772277227724 39.22772278960396  15.698019801980198 35.77415843316832  10.962623762376236 31.037376237623764  C 6.227227722772275 26.300594042079208  2.77227721039604 20.822574274752476  1.2409405767326733 15.612079225247525  C 0.4785643217821781 13.016188136138616  0.22767326732673243 10.614009935643567  0.498663349009901 8.47346532920792  C 0.7907920618811884 6.164158381188118  1.6730692722772278 4.258910873762376  3.1215841410891096 2.810396056930693  L 5.081930710396039 0.850049487623762  C 6.165255542246988 -0.23070964895399804  7.918952413198556 -0.23070964895399804  9.002277245049505 0.850049487623762  L 17.627871304455446 9.4752970470297  C 18.708670275389995 10.558740656301948  18.708670275389995 12.31254647241092  17.627871304455446 13.395990081683168  L 15.669950495049505 15.351485131188118  L 15.667524735148513 15.35391089108911  C 14.558613861386137 16.462821764851483  15.662326715346532 20.053613844059406  18.804009883663365 23.19495051237624  C 21.9456930519802 26.336287180693073  25.534752475247522 27.442772294554455  26.645049504950496 26.332475264851485  L 28.605396022277233 24.372128695544554  C 29.688839637544593 23.29132969004113  31.442645493643536 23.29132969004113  32.52608910891089 24.372128695544554  L 41.15133661633663 32.997722754950495  C 42.23209575291438 34.081047586801446  42.23209575291438 35.83474445775301  41.15133661633663 36.91806928960396  L 39.1909900990099 38.87841585891089  C 37.74247523019802 40.326930727722775  35.837227722772276 41.209207938118816  33.52792077475247 41.5013366509901  Z M 6.649999982673266 2.417079207920795  L 4.6896534653465345 4.377079225247526  C 2.476683185643565 6.590396056930695  2.0074752475247526 10.358267361386138  3.3686633836633666 14.986237641089108  C 4.7981188292079215 19.84673270792079  8.052079225247525 24.99  12.531039586633662 29.468960413366332  C 17.009999948019804 33.94792082673267  22.153267292079207 37.20188122277227  27.01376235891089 38.63133661633663  C 31.642079190594053 39.99252475247524  35.4096039430693 39.523316814356434  37.62292077475247 37.31034653465346  L 39.58292079207921 35.350000017326735  C 39.68692874049429 35.246015811424094  39.74536179379418 35.104968711977186  39.74536179379418 34.95789604826733  C 39.74536179379418 34.81082338455746  39.68692874049429 34.669776285110544  39.58292079207921 34.56579207920792  L 30.957673284653467 25.940544571782173  C 30.853689078750833 25.836536623367085  30.712641979303925 25.77810357006719  30.56556931559406 25.77810357006719  C 30.418496651884197 25.77810357006719  30.277449552437286 25.836536623367085  30.173465346534652 25.940544571782173  L 28.213465329207917 27.900891089108903  C 27.504455428217824 28.609900990099003  26.531732673267324 28.970297012376236  25.376039621287124 28.970297012376236  C 24.656633680693062 28.970297012376236  23.86618811881188 28.831683133663365  23.02341585891089 28.55029701237623  C 21.085940628712873 27.904356400990096  19.0306435990099 26.560148480198016  17.236287111386137 24.765445544554446  C 15.441930623762374 22.97074260891088  14.097376202970297 20.91509902722771  13.451435643564354 18.978316849009893  C 12.71782179950495 16.780247524752475  12.94896037871287 14.935643547029702  14.09910891089109 13.78653467079208  L 16.059455428217824 11.826534653465348  C 16.163463376632908 11.722550447562714  16.221896429932798 11.58150334811581  16.221896429932798 11.434430684405942  C 16.221896429932798 11.287358020696074  16.163463376632908 11.146310921249173  16.05945542821782 11.042326715346537  L 7.434207920792079 2.417079207920795  C 7.330223714889444 2.3130712595057092  7.189176615442539 2.254638206205819  7.042103951732671 2.254638206205819  C 6.895031288022802 2.254638206205819  6.7539841885759 2.3130712595057092  6.649999982673266 2.417079207920795  Z " fill-rule="nonzero" fill="#5c5c66" stroke="none" transform="matrix(1 0 0 1 1499 701 )" />
  </g>
</svg>