<?xml version="1.0" encoding="utf-8"?>
<svg version="1.1" xmlns:xlink="http://www.w3.org/1999/xlink" width="42px" height="42px" xmlns="http://www.w3.org/2000/svg">
  <g transform="matrix(1 0 0 1 -1499 -816 )">
    <path d="M 6.374999999999998 13.125  L 6.374999999999998 6.374999999999998  L 13.125 6.374999999999998  L 13.125 13.125  L 6.374999999999998 13.125  Z M 6.374999999999998 35.625  L 6.374999999999998 28.875  L 13.125 28.875  L 13.125 35.625  L 6.374999999999998 35.625  Z M 28.875 13.125  L 28.875 6.374999999999998  L 35.625 6.374999999999998  L 35.625 13.125  L 28.875 13.125  Z M 38.25 34.875  L 38.25 38.25  L 31.5 38.25  L 31.5 41.625  L 38.25 41.625  C 40.125 41.625  41.625 40.125  41.625 38.25  L 41.625 34.875  L 38.25 34.875  Z M 3.75 1  C 1.875 0.375  0.375 1.875  1 3.75  L 1 19.125  L 19.125 19.125  L 19.125 1  L 3.75 1  Z M 16 4  L 16 16  L 4 16  L 4 4  L 16 4  Z M 1 22.874999999999996  L 1 38.25  C 0.375 40.125  1.875 41.625  3.75 41  L 19.125 41  L 19.125 22.874999999999996  L 1 22.874999999999996  Z M 4 38  L 4 26  L 16 26  L 16 38  L 4 38  Z M 22.874999999999996 26  L 22.874999999999996 22.874999999999996  L 34.875 22.874999999999996  L 34.875 26  L 22.874999999999996 26  Z M 34.875 27.750000000000004  L 31.5 27.750000000000004  L 27.750000000000004 27.750000000000004  L 27.750000000000004 31.5  L 31.5 31.5  L 31.5 34.875  L 34.875 34.875  L 34.875 31.5  L 41.625 31.5  L 41.625 27.750000000000004  L 34.875 27.750000000000004  Z M 22.874999999999996 41.625  L 22.874999999999996 34.875  L 26.25 34.875  L 26.25 41.625  L 22.874999999999996 41.625  Z M 27.750000000000004 38.25  L 27.750000000000004 34.875  L 31.125 34.875  L 31.125 38.25  L 27.750000000000004 38.25  Z M 22.874999999999996 31.125  L 22.874999999999996 27.750000000000004  L 26.25 27.750000000000004  L 26.25 31.125  L 22.874999999999996 31.125  Z M 38.25 26.25  L 38.25 22.874999999999996  L 41.625 22.874999999999996  L 41.625 26.25  L 38.25 26.25  Z M 41 3.75  C 41.625 1.875  40.125 0.375  38.25 1  L 22.874999999999996 1  L 22.874999999999996 19.125  L 41 19.125  L 41 3.75  Z M 38 4  L 38 16  L 26 16  L 26 4  L 38 4  Z " fill-rule="nonzero" fill="#272636" stroke="none" transform="matrix(1 0 0 1 1499 816 )" />
  </g>
</svg>