<?xml version="1.0" encoding="utf-8"?>
<svg version="1.1" xmlns:xlink="http://www.w3.org/1999/xlink" width="42px" height="42px" xmlns="http://www.w3.org/2000/svg">
  <g transform="matrix(1 0 0 1 -1499 -930 )">
    <path d="M 21 0.11931818181818182  C 9.485842063210228 0.11931818181818182  0.11931818181818182 9.485842063210228  0.11931818181818182 21  C 0.11931818181818182 32.51415793678977  9.485842063210228 41.88068181818182  21 41.88068181818182  C 32.51415793678977 41.88068181818182  41.88068181818182 32.51415793678977  41.88068181818182 21  C 41.88068181818182 9.485842063210228  32.51415793678977 0.11931818181818182  21 0.11931818181818182  Z M 22.117116477272724 14.019839754971589  L 29.504403409090905 21.489111328125  C 29.79081365411932 21.779902787642044  29.935440340909093 22.158831232244317  29.935440340909093 22.537666459517038  C 29.935440340909093 22.9224209872159  29.78773748224432 23.307268732244317  29.492471590909094 23.598060191761355  C 28.906321022727273 24.176753373579537  27.96366077769886 24.17227894176136  27.383522727272723 23.586128373579545  L 21.049172141335223 17.18172496448863  L 14.679072709517042 23.533926669034084  C 14.095858487215905 24.115602805397724  13.151799982244315 24.114064719460224  12.570123845880678 23.530943714488632  C 11.986909623579542 22.947729492187495  11.989985795454542 22.0036709872159  12.573106800426135 21.421994850852265  L 20.000617009943184 14.015318714488629  C 20.00215509588068 14.013780628551128  20.00359996448864 14.013780628551128  20.005091441761365 14.012335759943172  C 20.00658291903409 14.010890891335219  20.006629527698866 14.009352805397718  20.00807439630682 14.007861328124992  C 20.146781782670455 13.870692027698855  20.307861328125 13.772207919034082  20.47639825994318 13.700617009943171  C 20.48231756036932 13.697634055397717  20.488330078125 13.690223277698855  20.49434259588068 13.688685191761357  C 21.03584206321023 13.46794655539772  21.68020685369319 13.578362482244309  22.117209694602273 14.019793146306808  Z " fill-rule="nonzero" fill="#e7772d" stroke="none" transform="matrix(1 0 0 1 1499 930 )" />
  </g>
</svg>