<?xml version="1.0" encoding="utf-8"?>
<svg version="1.1" xmlns:xlink="http://www.w3.org/1999/xlink" width="744px" height="463px" xmlns="http://www.w3.org/2000/svg">
  <g transform="matrix(1 0 0 1 -8956 -157 )">
    <path d="M 8956 157  L 9700 157  L 9700 620  L 8956 620  L 8956 157  " fill-rule="nonzero" fill="#cccccc" stroke="none" />
    <path d="M 8988 189  L 9668 189  L 9668 588  L 8988 588  L 8988 189  " fill-rule="nonzero" fill="#ffffff" stroke="none" />
    <path d="M 9377.605 295.9  C 9358.159 295.9  9342.88 280.621  9342.88 261.17499999999995  C 9342.88 241.72899999999998  9358.159 226.45  9377.605 226.45  C 9397.051 226.45  9412.33 241.72899999999998  9412.33 261.17499999999995  C 9412.33 280.621  9397.051 295.9  9377.605 295.9  " fill-rule="nonzero" fill="#cccccc" stroke="none" />
    <path d="M 9000 577  L 9000 370.2  L 9164.25 276.2  L 9394.2 436.60645161290324  L 9525.6 332.6  L 9657 436.60645161290324  L 9657 577  L 9000 577  " fill-rule="nonzero" fill="#169bd5" stroke="none" />
  </g>
</svg>