<?xml version="1.0" encoding="utf-8"?>
<svg version="1.1" xmlns:xlink="http://www.w3.org/1999/xlink" width="360px" height="228px" xmlns="http://www.w3.org/2000/svg">
  <g transform="matrix(1 0 0 1 -8588 -852 )">
    <path d="M 8588 852  L 8948 852  L 8948 1080  L 8588 1080  L 8588 852  " fill-rule="nonzero" fill="#cccccc" stroke="none" />
    <path d="M 8604 868  L 8932 868  L 8932 1064  L 8604 1064  L 8604 868  " fill-rule="nonzero" fill="#ffffff" stroke="none" />
    <path d="M 8792.300000000001 920.4000000000001  C 8782.724 920.4000000000001  8775.2 912.8760000000001  8775.2 903.3000000000001  C 8775.2 893.724  8782.724 886.2  8792.300000000001 886.2  C 8801.876000000002 886.2  8809.400000000001 893.724  8809.400000000001 903.3000000000001  C 8809.400000000001 912.8760000000001  8801.876000000002 920.4000000000001  8792.300000000001 920.4000000000001  " fill-rule="nonzero" fill="#cccccc" stroke="none" />
    <path d="M 8610 1059  L 8610 957.25  L 8689.25 911  L 8800.2 988.7  L 8863.6 938.75  L 8927 988.7  L 8927 1059  L 8610 1059  " fill-rule="nonzero" fill="#169bd5" stroke="none" />
  </g>
</svg>