<?xml version="1.0" encoding="utf-8"?>
<svg version="1.1" xmlns:xlink="http://www.w3.org/1999/xlink" width="671px" height="499px" xmlns="http://www.w3.org/2000/svg">
  <g transform="matrix(1 0 0 1 -9029 -1522 )">
    <path d="M 9029 1522  L 9700 1522  L 9700 2021  L 9029 2021  L 9029 1522  " fill-rule="nonzero" fill="#cccccc" stroke="none" />
    <path d="M 9064 1557  L 9665 1557  L 9665 1986  L 9064 1986  L 9064 1557  " fill-rule="nonzero" fill="#ffffff" stroke="none" />
    <path d="M 9415.345000000001 1671.6999999999998  C 9394.387 1671.6999999999998  9377.92 1655.233  9377.92 1634.2749999999999  C 9377.92 1613.3169999999998  9394.387 1596.85  9415.345000000001 1596.85  C 9436.303 1596.85  9452.77 1613.3169999999998  9452.77 1634.2749999999999  C 9452.77 1655.233  9436.303 1671.6999999999998  9415.345000000001 1671.6999999999998  " fill-rule="nonzero" fill="#cccccc" stroke="none" />
    <path d="M 9077 1974  L 9077 1751.8  L 9221 1650.8  L 9422.6 1793.7353204172875  L 9537.8 1711.4  L 9653 1793.7353204172875  L 9653 1974  L 9077 1974  " fill-rule="nonzero" fill="#169bd5" stroke="none" />
  </g>
</svg>