<?xml version="1.0" encoding="utf-8"?>
<svg version="1.1" xmlns:xlink="http://www.w3.org/1999/xlink" width="690px" height="480px" xmlns="http://www.w3.org/2000/svg">
  <g transform="matrix(1 0 0 1 -8252 -6559 )">
    <path d="M 8252 6559  L 8942 6559  L 8942 7039  L 8252 7039  L 8252 6559  " fill-rule="nonzero" fill="#cccccc" stroke="none" />
    <path d="M 8286 6593  L 8908 6593  L 8908 7005  L 8286 7005  L 8286 6593  " fill-rule="nonzero" fill="#ffffff" stroke="none" />
    <path d="M 8646.8 6703  C 8626.64 6703  8610.8 6687.16  8610.8 6667  C 8610.8 6646.84  8626.64 6631  8646.8 6631  C 8666.96 6631  8682.8 6646.84  8682.8 6667  C 8682.8 6687.16  8666.96 6703  8646.8 6703  " fill-rule="nonzero" fill="#cccccc" stroke="none" />
    <path d="M 8298 6993  L 8298 6779.6  L 8447.5 6682.6  L 8656.8 6831.052173913044  L 8776.4 6740.8  L 8896 6831.052173913044  L 8896 6993  L 8298 6993  " fill-rule="nonzero" fill="#169bd5" stroke="none" />
  </g>
</svg>