<?xml version="1.0" encoding="utf-8"?>
<svg version="1.1" xmlns:xlink="http://www.w3.org/1999/xlink" width="905px" height="480px" xmlns="http://www.w3.org/2000/svg">
  <g transform="matrix(1 0 0 1 -8252 -6055 )">
    <path d="M 8252 6055  L 9157 6055  L 9157 6535  L 8252 6535  L 8252 6055  " fill-rule="nonzero" fill="#cccccc" stroke="none" />
    <path d="M 8286 6089  L 9123 6089  L 9123 6501  L 8286 6501  L 8286 6089  " fill-rule="nonzero" fill="#ffffff" stroke="none" />
    <path d="M 8758.6 6199  C 8738.44 6199  8722.6 6183.16  8722.6 6163  C 8722.6 6142.84  8738.44 6127  8758.6 6127  C 8778.76 6127  8794.6 6142.84  8794.6 6163  C 8794.6 6183.16  8778.76 6199  8758.6 6199  " fill-rule="nonzero" fill="#cccccc" stroke="none" />
    <path d="M 8298 6489  L 8298 6275.6  L 8501.25 6178.6  L 8785.8 6365.525966850829  L 8948.4 6236.8  L 9111 6365.525966850829  L 9111 6489  L 8298 6489  " fill-rule="nonzero" fill="#169bd5" stroke="none" />
  </g>
</svg>