<?xml version="1.0" encoding="utf-8"?>
<svg version="1.1" xmlns:xlink="http://www.w3.org/1999/xlink" width="480px" height="480px" xmlns="http://www.w3.org/2000/svg">
  <g transform="matrix(1 0 0 1 -9177 -6055 )">
    <path d="M 9177 6055  L 9657 6055  L 9657 6535  L 9177 6535  L 9177 6055  " fill-rule="nonzero" fill="#cccccc" stroke="none" />
    <path d="M 9211 6089  L 9623 6089  L 9623 6501  L 9211 6501  L 9211 6089  " fill-rule="nonzero" fill="#ffffff" stroke="none" />
    <path d="M 9462.6 6199  C 9442.44 6199  9426.6 6183.16  9426.6 6163  C 9426.6 6142.84  9442.44 6127  9462.6 6127  C 9482.76 6127  9498.6 6142.84  9498.6 6163  C 9498.6 6183.16  9482.76 6199  9462.6 6199  " fill-rule="nonzero" fill="#cccccc" stroke="none" />
    <path d="M 9223 6489  L 9223 6275.6  L 9320 6178.6  L 9455.8 6256.2  L 9533.4 6236.8  L 9611 6256.2  L 9611 6489  L 9223 6489  " fill-rule="nonzero" fill="#169bd5" stroke="none" />
  </g>
</svg>