<?xml version="1.0" encoding="utf-8"?>
<svg version="1.1" xmlns:xlink="http://www.w3.org/1999/xlink" width="690px" height="480px" xmlns="http://www.w3.org/2000/svg">
  <g transform="matrix(1 0 0 1 -8967 -6559 )">
    <path d="M 8967 6559  L 9657 6559  L 9657 7039  L 8967 7039  L 8967 6559  " fill-rule="nonzero" fill="#cccccc" stroke="none" />
    <path d="M 9001 6593  L 9623 6593  L 9623 7005  L 9001 7005  L 9001 6593  " fill-rule="nonzero" fill="#ffffff" stroke="none" />
    <path d="M 9361.8 6703  C 9341.64 6703  9325.8 6687.16  9325.8 6667  C 9325.8 6646.84  9341.64 6631  9361.8 6631  C 9381.96 6631  9397.8 6646.84  9397.8 6667  C 9397.8 6687.16  9381.96 6703  9361.8 6703  " fill-rule="nonzero" fill="#cccccc" stroke="none" />
    <path d="M 9013 6993  L 9013 6779.6  L 9162.5 6682.6  L 9371.8 6831.052173913044  L 9491.4 6740.8  L 9611 6831.052173913044  L 9611 6993  L 9013 6993  " fill-rule="nonzero" fill="#169bd5" stroke="none" />
  </g>
</svg>