<?xml version="1.0" encoding="utf-8"?>
<svg version="1.1" xmlns:xlink="http://www.w3.org/1999/xlink" width="447px" height="631px" xmlns="http://www.w3.org/2000/svg">
  <g transform="matrix(1 0 0 1 -8264 -4475 )">
    <path d="M 8264 4475  L 8711 4475  L 8711 5106  L 8264 5106  L 8264 4475  " fill-rule="nonzero" fill="#cccccc" stroke="none" />
    <path d="M 8295 4506  L 8680 4506  L 8680 5075  L 8295 5075  L 8295 4506  " fill-rule="nonzero" fill="#ffffff" stroke="none" />
    <path d="M 8529.965 4636.7  C 8511.191 4636.7  8496.44 4621.949  8496.44 4603.174999999999  C 8496.44 4584.401  8511.191 4569.65  8529.965 4569.65  C 8548.739 4569.65  8563.49 4584.401  8563.49 4603.174999999999  C 8563.49 4621.949  8548.739 4636.7  8529.965 4636.7  " fill-rule="nonzero" fill="#cccccc" stroke="none" />
    <path d="M 8306 5064  L 8306 4763.15  L 8396.75 4626.4  L 8523.8 4735.8  L 8596.4 4708.45  L 8669 4735.8  L 8669 5064  L 8306 5064  " fill-rule="nonzero" fill="#169bd5" stroke="none" />
  </g>
</svg>