<?xml version="1.0" encoding="utf-8"?>
<svg version="1.1" xmlns:xlink="http://www.w3.org/1999/xlink" width="24px" height="20px" xmlns="http://www.w3.org/2000/svg">
  <g transform="matrix(1 0 0 1 -889 -5068 )">
    <path d="M 20.17699468085106 18.068212890625  C 20.152534906914894 17.982958984375  20.12735206117021 17.909326171874998  20.103191489361702 17.83916015625  C 20.029313497340425 17.623876953125  19.965159574468085 17.437231445312502  19.965159574468085 17.074169921875  C 19.965159574468085 16.8008544921875  20.045744680851065 16.743383789062502  20.257081117021272 16.593505859375  C 20.384566156914897 16.5030517578125  20.567378656914897 16.3730712890625  20.819306848404256 16.117431640625  C 21.533302859042553 15.3936767578125  21.966098736702126 14.9027099609375  22.217927194148935 14.341357421875  C 22.469057513297876 13.781298828125  22.544157247340422 13.1412353515625  22.544157247340422 12.117041015624999  C 22.544157247340422 10.9505126953125  21.802983710106382 9.793041992187497  20.674966755319147 8.927490234374998  C 19.547473404255317 8.0627685546875  18.035480385638298 7.490869140624998  16.48765791223404 7.490869140624998  C 14.8561835106383 7.490869140624998  13.53298703457447 7.982153320312499  12.552376994680852 8.746801757812499  C 11.722390292553191 9.394238281249999  11.136452792553191 10.238183593749998  10.816057180851063 11.145898437499998  C 10.495811170212766 12.053222656249998  10.440134640957446 13.0240478515625  10.669423204787234 13.926000976562499  C 10.909981715425532 14.8723876953125  11.46547539893617 15.744409179687498  12.358494015957447 16.388452148437498  C 13.151030585106383 16.960229492187498  14.086386303191485 17.38681640625  15.079712433510636 17.60595703125  C 16.010904255319147 17.8115966796875  16.99405751329787 17.83505859375  17.95915890957447 17.625341796875  C 19.168259640957448 17.362744140625  19.283053523936168 17.4716796875  19.512042885638294 17.690234375  C 19.626637300531915 17.7994873046875  19.774941821808508 17.94091796875  20.17699468085106 18.068212890625  Z M 4.414278590425532 12.6123046875  C 4.414328457446808 13.111718749999998  4.317187499999999 13.373510742187499  4.220046542553191 13.635693359375  C 4.1556432845744675 13.809326171875  4.090890957446808 13.983447265625  4.058053523936169 14.235327148437502  C 4.335164561170212 14.1514404296875  4.580734707446807 14.009912109375001  4.823886303191488 13.869873046875  C 5.303582114361702 13.59326171875  5.776097074468085 13.3211181640625  6.485081449468083 13.4601806640625  C 7.051371343085105 13.571411132812504  7.4688081781914875 13.6486328125  7.911103723404254 13.6978271484375  C 8.323528922872338 13.743750000000002  8.759616023936168 13.765405273437501  9.361486037234041 13.767993164062503  C 9.207820811170212 13.382763671875002  9.152593085106382 12.921899414062503  9.163314494680849 12.452880859375004  C 9.177626329787232 11.823242187500004  9.310995678191489 11.175244140625004  9.4824883643617 10.675219726562503  C 9.940766289893615 9.341674804687504  10.515234374999999 8.822167968750003  11.38125 8.039184570312504  L 11.429047539893615 7.995898437500003  C 11.535887632978724 7.899438476562503  11.598196476063828 7.843603515625004  11.664694148936169 7.7910156250000036  C 11.728349401595743 7.7402343750000036  11.797764295212765 7.691625976562504  11.919813829787232 7.608032226562505  C 12.521259973404252 7.196313476562505  13.151604055851061 6.877270507812504  13.84131482712766 6.661352539062504  C 14.502302194148935 6.454418945312504  15.217893949468085 6.341821289062505  16.01409574468085 6.332666015625005  C 15.901047207446808 5.880395507812505  15.736810172872339 5.455859375000005  15.529338430851062 5.061181640625005  C 14.765525265957445 3.6069824218750046  13.410638297872339 2.5510253906250044  11.832945478723403 1.9500000000000046  C 10.251811835106382 1.3479492187500046  8.447498337765957 1.2022460937500044  6.787973736702126 1.5696289062500046  C 6.172664561170212 1.705786132812504  5.577376994680851 1.9127685546875046  5.02133477393617 2.1927978515625046  C 3.824975066489361 2.7953369140625046  2.9198138297872336 3.5733154296875043  2.305402260638297 4.445092773437504  C 1.7161735372340416 5.280957031250005  1.393334441489361 6.204418945312504  1.3361868351063824 7.142846679687505  C 1.2791389627659568 8.081518554687504  1.487333776595744 9.036914062500005  1.9597739361702122 9.936328125000005  C 2.4644032579787227 10.897216796875004  3.2711519281914883 11.795288085937505  4.377327127659574 12.5427978515625  L 4.414278590425532 12.567822265625  L 4.414278590425532 12.6123046875  Z M 1.021376329787234 10.7569091796875  C 0.44209607712765947 9.722314453125001  0.07342918882978723 8.526025390625001  0.07342918882978723 7.407104492187502  C 0.07342918882978723 6.4973876953125025  0.3657746010638298 5.510668945312501  0.8313081781914894 4.607714843750001  C 1.323720079787234 3.652636718750001  2.011585771276596 2.7885498046875012  2.75318317819149 2.2061279296875016  C 4.4525016622340425 0.8709960937500019  6.410605053191491 0.18188476562500178  8.390375664893618 0.12209472656250142  C 10.395777925531915 0.06137695312500169  12.423371010638297 0.6460205078125019  14.226761968085107 1.8575195312500012  C 15.00174534574468 2.377734375000001  15.596060505319151 2.944384765625002  16.066032247340424 3.5901123046875023  C 16.535156250000004 4.235058593750002  16.87988696808511 4.958642578125002  17.15587599734043 5.794091796875003  C 17.325872672872343 6.3072509765625036  17.37875664893617 6.3128662109375036  17.694838763297874 6.3456542968750025  C 17.810156250000002 6.3576171875000025  17.956216755319147 6.3729248046875036  18.146235039893618 6.409838867187503  C 18.79161402925532 6.535424804687503  19.440508643617022 6.746923828125004  20.043251329787235 7.0338134765625036  C 20.62018783244681 7.308374023437501  21.155934175531918 7.6527099609375036  21.607106050531918 8.058032226562503  C 21.923911236702132 8.342675781250003  22.219273603723405 8.624780273437503  22.486735372340426 8.933789062500002  C 22.755119680851067 9.244116210937502  22.99353390957447 9.579711914062502  23.193999335106387 9.968774414062503  C 23.703465757978726 10.957739257812504  23.94230385638298 11.870727539062504  23.906349734042557 12.776953125000004  C 23.870420545212767 13.682983398437504  23.55939993351064 14.579467773437504  22.970270944148936 15.534692382812505  C 22.776811835106386 15.848168945312505  22.45332446808511 16.240869140625  22.105452127659575 16.604516601562505  C 21.771018949468086 16.954467773437504  21.41259973404255 17.279174804687504  21.12451795212766 17.482202148437505  C 21.234973404255317 17.946166992187507  21.356973071808515 18.272436523437506  21.453690159574467 18.530957031250004  C 21.648670212765957 19.052856445312504  21.74695811170213 19.315527343750006  21.472365359042556 19.839526367187506  L 21.44670877659575 19.888525390625006  L 21.392278922872343 19.883935546875005  C 20.933776595744682 19.845385742187506  20.64734042553192 19.664599609375006  20.33148271276596 19.465502929687506  L 20.226936502659576 19.399902343750004  C 20.07290064631765 19.30432163124724  19.915973775022174 19.213078040325254  19.75636635638298 19.126489257812505  C 19.607338763297875 19.045385742187506  19.448811502659577 18.963574218750008  19.275224401595747 18.874243164062506  C 18.85083111702128 18.65578613281251  18.83836436170213 18.65895996093751  18.48066821808511 18.755859375000004  C 18.402401928191495 18.777026367187503  18.3085272606383 18.802563476562504  18.177476728723406 18.834472656250007  C 17.380676529255325 19.028979492187506  17.073445811170213 19.025903320312505  16.43255485372341 19.019238281250004  C 16.317037898936174 19.018041992187506  16.18863031914894 19.016723632812507  15.99629321808511 19.016723632812507  C 14.70942486702128 19.016723632812507  13.238746675531917 18.465332031250007  12.033884640957451 17.654516601562506  C 10.865076462765959 16.868041992187507  9.942312167553197 15.834301757812504  9.673179853723408 14.818652343750003  C 9.152618018617025 14.931665039062505  8.621908244680853 14.957104492187504  8.097381981382982 14.928979492187505  C 7.548445811170216 14.899780273437504  7.00581781914894 14.811328125000006  6.488547207446813 14.703662109375003  C 5.671251662234047 14.533300781250006  5.018068484042558 14.951049804687504  4.394581117021282 15.349902343750003  C 3.9893866356383025 15.609082031250004  3.595511968085111 15.860961914062504  3.167553191489366 15.951879882812506  C 2.7972157579787273 16.030615234375006  2.6204122340425577 15.907250976562505  2.565957446808515 15.661181640625003  C 2.484350066489366 15.293432617187506  2.730244348404259 14.632299804687502  2.9613530585106425 14.011010742187505  C 3.077767619680856 13.698144531250001  3.19064162234043 13.394921875000003  3.2535239361702173 13.151098632812504  C 2.40211934840426 12.676708984375004  1.6042470079787274 11.797705078125006  1.0213763297872382 10.757104492187505  Z M 11.132687832446809 6.452343750000001  C 10.847872340425532 6.452343750000001  10.544157247340426 6.3189453125  10.324567819148934 6.072705078125001  C 10.135521941489362 5.861010742187501  10.008236369680851 5.565625000000001  10.008236369680851 5.200463867187501  C 10.008236369680851 4.989868164062502  10.16556682180851 4.764575195312502  10.384009308510638 4.593090820312502  C 10.602451795212765 4.421752929687503  10.885746343085106 4.300146484375001  11.132687832446809 4.300146484375001  C 11.715733045212765 4.300146484375001  12.079862034574468 4.569140625  12.239012632978724 4.916552734375001  C 12.302244015957447 5.054248046875001  12.33271276595745 5.204882812500001  12.33149102393617 5.356005859375001  C 12.330254167625606 5.508456445342153  12.297122995064413 5.658720152922671  12.234150598404256 5.797802734375001  C 12.068317819148934 6.163403320312501  11.694614361702126 6.452343750000001  11.132687832446809 6.452343750000001  Z M 5.786793550531915 6.452343749999999  C 5.501978058510638 6.452343749999999  5.19813829787234 6.319091796874998  4.978523936170212 6.072875976562502  C 4.789627659574467 5.861010742187501  4.662192486702127 5.565771484375  4.662192486702127 5.200488281250001  C 4.662192486702127 4.989892578125001  4.819522938829786 4.764599609375002  5.038115026595744 4.593115234375001  C 5.256382978723403 4.421777343750001  5.539702460106382 4.300170898437501  5.786793550531915 4.300170898437501  C 6.362732712765957 4.300170898437501  6.721451130319148 4.568408203125001  6.878357712765957 4.91552734375  C 6.940641622340424 5.0533691406250005  6.970686502659573 5.204052734375  6.9694647606382985 5.354833984375001  C 6.968207156625893 5.506746222711822  6.935562119500684 5.656837732034068  6.873495678191488 5.796069335937501  C 6.70970744680851 6.162353515625  6.340392287234041 6.452343749999999  5.786793550531915 6.452343749999999  Z M 15.178374335106383 11.818652343749996  C 15.178648603723403 11.941723632812497  15.152368683510641 12.064550781249997  15.098986037234042 12.17607421875  C 14.9680352393617 12.449487304687498  14.676537566489362 12.659008789062497  14.21611535904255 12.659008789062497  C 13.748163231382978 12.659008789062497  13.467112699468085 12.449291992187497  13.345088098404254 12.175366210937499  L 13.416547539893616 12.14287109375  L 13.345088098404254 12.175073242187498  C 13.294847074468084 12.062158203124998  13.272207446808512 11.938134765624998  13.275049867021277 11.813769531249998  C 13.277892287234042 11.690161132812499  13.306416223404257 11.5656005859375  13.357380319148938 11.451708984374998  C 13.492170877659575 11.150976562499997  13.78583776595745 10.913916015624995  14.20005817819149 10.920581054687498  C 14.659857047872343 10.927734374999996  14.963971077127663 11.163085937499996  15.098986037234047 11.457666015624998  C 15.150979167213784 11.571221807081905  15.178026151465819 11.694207080650765  15.178374335106383 11.818652343749996  Z M 18.40589261968085 12.662548828125002  C 18.274019281914892 12.665161132812502  18.14296875 12.644213867187503  18.02421043882979 12.597387695312497  C 17.730668218085107 12.4816162109375  17.508161569148935 12.2122802734375  17.508161569148935 11.758569335937498  C 17.508161569148935 11.354956054687499  17.728125000000002 11.118701171875  18.019647606382982 11.017919921874999  C 18.136884973404257 10.977563476562498  18.266314827127662 10.95966796875  18.39714095744681 10.962377929687502  C 18.527720471033867 10.965190195829578  18.657088982698745 10.987577247897594  18.780743018617024 11.028759765625  C 19.126770279255318 11.143969726562503  19.407920545212765 11.403173828124999  19.407920545212765 11.758593750000001  C 19.407920545212765 12.165185546875001  19.132629654255318 12.456591796875001  18.79198803191489 12.586889648437502  C 18.669290226063826 12.633715820312501  18.536818484042552 12.659838867187503  18.40589261968085 12.662548828125002  Z " fill-rule="nonzero" fill="#999999" stroke="none" transform="matrix(1 0 0 1 889 5068 )" />
  </g>
</svg>