<?xml version="1.0" encoding="utf-8"?>
<svg version="1.1" xmlns:xlink="http://www.w3.org/1999/xlink" width="20px" height="16px" xmlns="http://www.w3.org/2000/svg">
  <g transform="matrix(1 0 0 1 -1975 -186 )">
    <path d="M 0 15.913446676970635  L 0 11.331977542503864  L 2.9154803554868627 11.331977542503864  L 2.9154803554868627 15.913446676970635  L 0 15.913446676970635  Z M 4.164971931993818 15.913446676970635  L 4.164971931993818 8.832994389489954  L 7.0804522874806795 8.832994389489954  L 7.0804522874806795 15.913446676970635  L 4.164971931993818 15.913446676970635  Z M 8.746441066460587 15.913446676970635  L 8.746441066460587 5.917514034003091  L 11.245424234930448 5.917514034003091  L 11.245424234930448 15.913446676970635  L 8.746441066460587 15.913446676970635  Z M 13 15.913446676970635  L 13 3.0020336785162285  L 15.826893353941268 3.0020336785162285  L 15.826893353941268 15.913446676970635  L 13 15.913446676970635  Z M 17 15.913446676970635  L 17 0.08655332302936596  L 20 0.08655332302936596  L 20 15.913446676970635  L 17 15.913446676970635  Z " fill-rule="nonzero" fill="#000000" stroke="none" transform="matrix(1 0 0 1 1975 186 )" />
  </g>
</svg>