<?xml version="1.0" encoding="utf-8"?>
<svg version="1.1" xmlns:xlink="http://www.w3.org/1999/xlink" width="20px" height="15px" xmlns="http://www.w3.org/2000/svg">
  <g transform="matrix(1 0 0 1 -2000 -187 )">
    <path d="M 19.375 4.116562500000001  C 16.86682692307692 1.9052343749999991  13.590625000000001 0.3590625000000005  9.993509615384616 0.3590625000000005  C 6.4028846153846155 0.3590625000000005  3.131009615384616 1.901015625  0.625 4.1053125  L 2.0932692307692307 5.756249999999999  C 4.209134615384615 3.9021093749999984  6.966826923076923 2.7714843749999987  9.993509615384616 2.7714843749999987  C 13.02451923076923 2.7714843749999987  15.787259615384615 3.9063281249999986  17.90528846153846 5.765390624999999  L 19.375 4.116562500000001  Z M 9.993509615384616 5.119921874999998  C 7.581971153846155 5.119921874999999  5.381730769230769 6.081093749999999  3.6899038461538463 7.552031250000001  L 5.243269230769231 9.299296875  C 6.522596153846154 8.199609375  8.17980769230769 7.53234375  9.993509615384616 7.53234375  C 11.810817307692306 7.53234375  13.469471153846156 8.201718749999998  14.750240384615385 9.304921875  L 16.30576923076923 7.560468749999999  C 14.612499999999999 6.08390625  12.409375 5.119921874999998  9.993509615384616 5.119921874999998  Z M 9.993509615384616 9.8146875  C 8.776923076923076 9.8146875  7.662740384615384 10.319531250000002  6.7973557692307685 11.0465625  L 9.993509615384616 14.6409375  L 13.193990384615384 11.050078125  C 12.32716346153846 10.320234374999998  11.212259615384614 9.8146875  9.993509615384616 9.8146875  Z " fill-rule="nonzero" fill="#000000" stroke="none" transform="matrix(1 0 0 1 2000 187 )" />
  </g>
</svg>