<?xml version="1.0" encoding="utf-8"?>
<svg version="1.1" xmlns:xlink="http://www.w3.org/1999/xlink" width="25px" height="11px" xmlns="http://www.w3.org/2000/svg">
  <g transform="matrix(1 0 0 1 -2025 -189 )">
    <path d="M 2.309782608695652 1.9743589674729562  L 2.309782608695652 9.025641032527044  L 7.9710144839079495 9.025641032527044  L 7.971014483907949 1.9743589674729562  L 2.309782608695652 1.9743589674729562  Z M 24.95471013608186 4.618589736703726  C 24.95471013608186 4.13381410945012  24.445199266516642 3.737179494065505  23.822463776961616 3.737179494065505  L 23.822463776961616 1.9743589881310102  C 23.822463776961616 1.0048077129657462  22.803442037831182 0.21153848219651541  21.5579710321841 0.21153848219651541  L 2.309782608695652 0.21153846153846156  C 1.0643116030485733 0.21153846153846156  0.045289863918138766 1.0048076923076914  0.045289863918138766 1.9743589674729562  L 0.045289863918138766 9.02564101186899  C 0.045289863918138766 9.995192287034254  1.0643116030485733 10.788461517803485  2.309782608695652 10.788461517803485  L 21.55797100564708 10.788461517803485  C 22.803442011294155 10.788461517803485  23.822463750424596 9.995192287034254  23.822463750424596 9.02564101186899  L 23.822463750424596 7.262820505934493  C 24.44519926651665 7.262820505934493  24.95471013608186 6.866185890549877  24.95471013608186 6.381410242638221  L 24.95471013608186 4.618589736703726  Z M 22.690217391304348 1.9743589674729562  L 22.690217391304348 9.025641032527044  C 22.690217391304348 9.510416680438704  22.18070652173913 9.907051295823315  21.55797100564708 10  L 2.309782608695652 10  C 1.6870470926036008 9.907051275165264  1.1775362230383832 9.510416659780649  1.1775362230383832 9.025641011868993  L 1.1775362230383832 1.9743589674729562  C 1.1775362230383832 1.489583319561298  1.6870470926036008 1.0929487041766819  2.309782608695652 1  L 21.55797100564708 1  C 22.18070652173913 1.0929487041766819  22.690217391304348 1.4895833195612975  22.690217391304348 1.9743589674729562  Z " fill-rule="nonzero" fill="#000000" stroke="none" transform="matrix(1 0 0 1 2025 189 )" />
  </g>
</svg>