<?xml version="1.0" encoding="utf-8"?>
<svg version="1.1" xmlns:xlink="http://www.w3.org/1999/xlink" width="15px" height="15px" xmlns="http://www.w3.org/2000/svg">
  <g transform="matrix(1 0 0 1 -1713 -224 )">
    <path d="M 14.360500004882812 1.3494999975585935  L 8.208499995117188 7.5015000073242195  L 14.37649998779297 13.669000012207032  C 14.571999982910157 13.864000019531252  14.571999982910157 14.180500004882814  14.37649998779297 14.376000021972656  C 14.180999992675783 14.571500039062496  13.864999995117188 14.571500017089843  13.669499978027346 14.376000021972656  L 7.5015000073242195 8.209000004882812  L 1.3590000073242188 14.351500004882812  C 1.1640000000000004 14.546500012207032  0.8485000122070312 14.546500012207032  0.6540000146484377 14.351500004882812  C 0.45950001708984356 14.15700000732422  0.45950001708984356 13.841499997558595  0.6540000146484377 13.647  L 6.797000024414062 7.503999990234375  L 0.623499990234375 1.3305  C 0.42799999511718734 1.1350000048828124  0.42799999511718734 0.8184999975585934  0.623499990234375 0.623499990234375  C 0.8184999975585934 0.42799999511718734  1.134999982910156 0.42799999511718734  1.3305 0.623499990234375  L 7.503999990234375 6.79699998046875  L 13.656500009765624 0.6445000048828124  C 13.851000007324219 0.45000000732421896  14.166500017089843 0.45000000732421896  14.360500004882812 0.6445000048828124  C 14.555500012207032 0.8390000024414066  14.555500012207032 1.155  14.360500004882812 1.3494999975585935  Z " fill-rule="nonzero" fill="#000000" stroke="none" transform="matrix(1 0 0 1 1713 224 )" />
  </g>
</svg>