<?xml version="1.0" encoding="utf-8"?>
<svg version="1.1" xmlns:xlink="http://www.w3.org/1999/xlink" width="22px" height="16px" xmlns="http://www.w3.org/2000/svg">
  <g transform="matrix(1 0 0 1 -2028 -279 )">
    <path d="M 21.093994067349925 0.0039043435822350148  C 21.093994067349925 0.0039043435822350148  21.093994067349925 0.0039043435822350148  21.093994067349925 0  L 0.9038838506588581 0  C 0.9038838506588581 0.0039043435822350148  0.9038838506588581 0.0039043435822350148  0.9038838506588581 0.0039043435822350148  C 0.40468437661907136 0.0039043435822350148  0 0.39632241037252847  0 0.8803946276232306  C 0 1.3644668448739334  0.40468437661907136 1.7568849116642262  0.9038838506588581 1.7568849116642262  C 0.9038838506588581 1.7568849116642262  0.9038838506588581 1.7568849116642262  0.9038838506588581 2  L 21.093994067349925 2  C 21.093994067349925 1.7568849116642262  21.093994067349925 1.7568849116642262  21.093994067349925 1.7568849116642262  C 21.593193541389713 1.7568849116642262  21.9978746727672 1.3644668448739334  21.9978746727672 0.8803946276232306  C 21.9978746727672 0.39632241037252963  21.593193541389713 0.0039043435822350148  21.093994067349925 0.0039043435822350148  Z M 21.093994067349925 7.1235097081503165  L 0.9038838506588581 7.1235097081503165  C 0.4046843721716841 7.1235097081503165  0 7.515927778436679  0 7.999999999999999  C 0 8.484072221563318  0.4046843721716833 8.876490291849679  0.9038838506588581 8.876490291849679  L 21.093994067349925 8.876490291849683  C 21.593193545837103 8.876490291849679  21.997874680819912 8.484072221563318  21.997874680819912 7.999999999999999  C 21.997874680819912 7.515927778436679  21.593193545837103 7.1235097081503165  21.093994067349925 7.1235097081503165  Z M 21.093994067349925 14.243115088335772  C 21.093994067349925 14.243115088335772  21.093994067349925 14.243115088335772  21.093994067349925 14  L 0.9038838506588581 14  C 0.9038838506588581 14.243115088335772  0.9038838506588581 14.243115088335772  0.9038838506588581 14.243115088335772  C 0.4046843766190696 14.243115088335772  0 14.635533155126069  0 15.11960537237677  C 0 15.603677589627472  0.40468437661907125 15.996095656417767  0.9038838506588581 15.996095656417767  L 0.9038838506588581 16  L 21.093994067349925 16  L 21.093994067349925 15.996095656417767  C 21.593193541389716 15.996095656417767  21.9978746727672 15.603677589627473  21.9978746727672 15.11960537237677  C 21.9978746727672 14.63553315512607  21.593193541389713 14.243115088335772  21.093994067349925 14.243115088335772  Z " fill-rule="nonzero" fill="#000000" stroke="none" transform="matrix(1 0 0 1 2028 279 )" />
  </g>
</svg>