<?xml version="1.0" encoding="utf-8"?>
<svg version="1.1" xmlns:xlink="http://www.w3.org/1999/xlink" width="7px" height="8px" xmlns="http://www.w3.org/2000/svg">
  <g transform="matrix(1 0 0 1 -1798 -1854 )">
    <path d="M 6.974264705882355 3.9127272727272735  C 6.972549019607845 3.6927272727272733  6.804411764705884 3.516363636363637  6.598529411764707 3.516363636363636  C 6.39264705882353 3.516363636363636  6.22450980392157 3.6945454545454544  6.22450980392157 3.9127272727272726  C 6.22450980392157 4.925454545454545  5.879656862745099 5.158181818181819  4.383578431372551 5.158181818181819  L 0.6090686274509823 5.158181818181819  C 0.4031862745098059 5.158181818181819  0.23504901960784488 5.336363636363636  0.23504901960784488 5.554545454545455  C 0.23504901960784488 5.68  0.29338235294117787 5.787272727272726  0.37916666666666804 5.859999999999999  L 0.37745098039215785 5.861818181818181  L 2.7245098039215696 7.798181818181818  C 2.7245098039215696 7.798181818181818  3.1774509803921576 8.110909090909091  3.137990196078433 7.547272727272728  L 2.961274509803923 5.950909090909092  L 4.385294117647061 5.950909090909092  C 5.749264705882355 5.950909090909092  6.974264705882355 5.794545454545456  6.974264705882355 3.9127272727272735  Z M 0.37573529411764767 4.449090909090907  C 0.5816176470588241 4.45090909090909  0.7497549019607851 4.272727272727271  0.7497549019607851 4.052727272727273  C 0.7497549019607851 3.0399999999999996  1.0946078431372561 2.8072727272727267  2.590686274509805 2.8072727272727267  L 6.365196078431373 2.8072727272727267  C 6.571078431372549 2.8072727272727267  6.739215686274509 2.6290909090909085  6.739215686274509 2.4109090909090902  C 6.739215686274509 2.285454545454545  6.680882352941176 2.1799999999999997  6.595098039215686 2.107272727272727  L 6.596813725490196 2.1054545454545446  L 4.251470588235293 0.16727272727272605  C 4.251470588235293 0.16727272727272605  3.7985294117647057 -0.14545454545454545  3.8379901960784326 0.41818181818181815  L 4.014705882352941 2.0145454545454546  L 2.590686274509804 2.0145454545454546  C 1.2267156862745097 2.0145454545454546  0.001715686274510194 2.1709090909090913  0.001715686274510194 4.052727272727273  C 0.001715686274510194 4.2709090909090905  0.16985294117647118 4.449090909090907  0.37573529411764767 4.449090909090907  Z " fill-rule="nonzero" fill="#000000" stroke="none" transform="matrix(1 0 0 1 1798 1854 )" />
  </g>
</svg>