<?xml version="1.0" encoding="utf-8"?>
<svg version="1.1" xmlns:xlink="http://www.w3.org/1999/xlink" width="14px" height="16px" xmlns="http://www.w3.org/2000/svg">
  <g transform="matrix(1 0 0 1 -1836 -1850 )">
    <path d="M 1.3611111171875003 13.728395055555556  L 1.3611111171874997 3.259259259259259  L 0.5833333333333333 3.259259259259259  C 0.2611672292653706 3.259259259259259  0 2.9939465184182477  0 2.6666666666666665  C 0 2.3393868149150854  0.2611672292653706 2.074074074074074  0.5833333333333333 2.074074074074074  C 0.5833333333333333 2.074074074074074  0.5833333333333333 2.074074074074074  0.5833333333333333 2  L 13.416666666666668 2  C 13.416666666666668 2.074074074074074  13.416666666666668 2.074074074074074  13.416666666666668 2.074074074074074  C 13.738832770734628 2.074074074074074  14 2.3393868149150854  14 2.6666666666666665  C 14 2.9939465184182477  13.738832770734628 3.259259259259259  13.416666666666668 3.259259259259259  L 2.5277777838541673 3.259259259259259  L 2.5277777838541673 13.728395055555554  C 2.527777783854166 14.273861490250876  2.963056496575958 14.716049388888889  3.5 14.716049388888889  L 10.5 14.716049388888889  C 11.03694350342404 14.716049388888889  11.472222216145832 14.273861490250876  11.472222216145832 13.728395074074074  L 11.472222216145834 5.037037037037037  C 11.472222216145834 4.709757185285456  11.733389445411206 4.444444444444445  12.055555549479166 4.444444444444445  C 12.37772165354713 4.444444444444445  12.638888882812502 4.709757185285456  12.638888882812502 5.037037037037037  L 12.638888882812502 13.728395055555556  C 12.638888882812502 14.928395055555555  11.681250000000002 15.901234555555558  10.5 15.901234574074076  L 3.5 15.901234574074076  C 2.31875 15.901234574074076  1.3611111171875003 14.928395074074077  1.3611111171875003 13.728395055555556  Z M 8.555555549479166 1.2839506111111108  L 5.444444450520832 1.2839506111111108  C 5.1222783464528705 1.2839506111111108  4.8611111171875 1.0186378702700993  4.8611111171875 0.6913580185185182  C 4.8611111171875 0.364078166766937  5.1222783464528705 0.09876542592592559  5.444444450520832 0.09876542592592559  L 8.555555549479166 0.09876542592592559  C 8.877721653547127 0.09876542592592559  9.138888882812498 0.364078166766937  9.138888882812498 0.6913580185185182  C 9.138888882812498 1.0186378702700993  8.877721653547127 1.2839506111111108  8.555555549479166 1.2839506111111108  Z M 4.8611111171875 11.358024685185185  L 4.8611111171875 6.617283944444444  C 4.8611111171875 6.290004092692863  5.1222783464528705 6.0246913518518515  5.444444450520832 6.0246913518518515  C 5.766610554588795 6.0246913518518515  6.027777783854166 6.290004092692863  6.027777783854166 6.617283944444444  L 6.027777783854166 11.358024685185185  C 6.027777783854166 11.685304536936767  5.766610554588795 11.950617277777779  5.444444450520832 11.950617277777779  C 5.1222783464528705 11.950617277777779  4.8611111171875 11.685304536936767  4.8611111171875 11.358024685185185  Z M 7.972222216145832 11.358024685185185  L 7.972222216145832 6.617283944444444  C 7.972222216145832 6.290004092692863  8.233389445411204 6.0246913518518515  8.555555549479166 6.0246913518518515  C 8.877721653547127 6.0246913518518515  9.138888882812498 6.290004092692863  9.138888882812498 6.617283944444444  L 9.138888882812498 11.358024685185185  C 9.138888882812498 11.685304536936767  8.877721653547127 11.950617277777779  8.555555549479166 11.950617277777779  C 8.233389445411204 11.950617277777779  7.972222216145832 11.685304536936767  7.972222216145832 11.358024685185185  Z " fill-rule="nonzero" fill="#000000" stroke="none" transform="matrix(1 0 0 1 1836 1850 )" />
  </g>
</svg>