<?xml version="1.0" encoding="utf-8"?>
<svg version="1.1" xmlns:xlink="http://www.w3.org/1999/xlink" width="20px" height="16px" xmlns="http://www.w3.org/2000/svg">
  <g transform="matrix(1 0 0 1 -1751 -1851 )">
    <path d="M 10 2.6449999999999987  L 10 2.6435000000000004  C 6.7725 2.6435000000000004  4.1525 4.385  2.0287500000000005 8.007500000000002  C 4.1225000000000005 11.619499999999999  6.741250000000001 13.356500000000002  10 13.356500000000002  C 13.25875 13.356500000000002  15.8775 11.619500000000002  17.971249999999998 8.007500000000004  C 15.8475 4.385  13.227500000000001 2.6449999999999987  10 2.6449999999999987  Z M 20 8  C 17.509999999999998 12.999500000000001  14.1775 15.5  10 15.5  C 5.8225 15.5  2.49 12.999500000000001  0 8  C 2.5275 3.0004999999999997  5.859999999999999 0.5  10 0.5  C 14.139999999999999 0.5  17.4725 3.0004999999999997  20 8  Z M 9.999999999999998 12.285499999999995  C 11.972346912833222 12.285499999999995  13.57125 10.366816295399863  13.57125 7.999999999999997  C 13.57125 5.633183704600133  11.972346912833222 3.7144999999999966  9.999999999999998 3.7144999999999966  C 8.027653087166778 3.7144999999999966  6.428749999999999 5.633183704600133  6.428749999999999 7.999999999999997  C 6.428749999999999 10.366816295399863  8.027653087166778 12.285499999999995  9.999999999999998 12.285499999999995  Z M 10 9.5  C 9.30964406271151 9.5  8.75 8.82842712474619  8.75 8  C 8.75 7.17157287525381  9.30964406271151 6.5  10 6.5  C 10.69035593728849 6.5  11.25 7.17157287525381  11.25 8  C 11.25 8.82842712474619  10.69035593728849 9.5  10 9.5  Z " fill-rule="nonzero" fill="#262626" stroke="none" transform="matrix(1 0 0 1 1751 1851 )" />
  </g>
</svg>