<?xml version="1.0" encoding="utf-8"?>
<svg version="1.1" xmlns:xlink="http://www.w3.org/1999/xlink" width="16px" height="16px" xmlns="http://www.w3.org/2000/svg">
  <g transform="matrix(1 0 0 1 -1794 -1850 )">
    <path d="M 15.982142857142858 11.991071428571429  C 15.982142857142858 14.19107142857143  14.19107142857143 15.982142857142858  11.991071428571429 15.982142857142858  L 4.008928571428571 15.982142857142858  C 1.8089285714285717 15.982142857142858  0.017857142857142856 14.19107142857143  0.017857142857142856 11.991071428571429  L 0.017857142857142856 4.008928571428571  C 0.017857142857142856 1.8089285714285717  1.8089285714285717 0.017857142857142856  4.008928571428571 0.017857142857142856  L 11.991071428571429 0.017857142857142856  C 14.19107142857143 0.017857142857142856  15.982142857142858 1.8089285714285717  15.982142857142858 4.008928571428571  L 15.982142857142858 11.991071428571429  Z M 11.991071428571429 1.4696428571428573  L 4.008928571428571 1.4696428571428564  C 2.6089285714285713 1.4696428571428564  1.4696428571428573 2.608928571428571  1.4696428571428573 4.00892857142857  L 1.4696428571428573 11.991071428571429  C 1.4696428571428573 13.391071428571427  2.6089285714285717 14.530357142857143  4.008928571428571 14.530357142857143  L 11.991071428571429 14.530357142857143  C 13.391071428571427 14.530357142857143  14.530357142857143 13.391071428571431  14.530357142857143 11.991071428571429  L 14.530357142857143 4.008928571428571  C 14.530357142857143 2.6089285714285713  13.391071428571431 1.4696428571428573  11.991071428571429 1.4696428571428573  Z " fill-rule="nonzero" fill="#000000" stroke="none" transform="matrix(1 0 0 1 1794 1850 )" />
  </g>
</svg>