<?xml version="1.0" encoding="utf-8"?>
<svg version="1.1" xmlns:xlink="http://www.w3.org/1999/xlink" width="26px" height="26px" xmlns="http://www.w3.org/2000/svg">
  <g transform="matrix(1 0 0 1 -1451 -1401 )">
    <path d="M 22.136964595170458 22.10093111461293  C 19.69760830965909 24.530112655362213  16.452214226740058 25.86890967462713  13 25.86890967462713  C 9.547785773259944 25.86890967462713  6.302391690340909 24.531055686257098  3.861198999023438 22.101874145507814  C 1.4190632768110798 19.67085619895241  0.07386363636363637 16.439309701260655  0.07386363636363637 13.00004962713068  C 0.07386363636363637 9.561682956764914  1.419112932794744 6.329243084161932  3.860305624112217 3.899118512517756  C 6.301498315429688 1.4699369717684658  9.546892369495739 0.1320829833984378  12.99910662508878 0.1320829833984378  C 16.45132088068182 0.1320829833984378  19.69671493474787 1.4699369717684663  22.136964595170454 3.899118512517756  C 24.579993692294032 6.329243055308949  25.924299957830257 9.561682956764914  25.924299957830257 12.999106596235798  C 25.925242988725145 16.438366641512783  24.579993692294035 19.670856170099434  22.136964595170458 22.10093111461293  Z M 20.835044775390624 5.208284701260652  C 18.74381346324574 3.125342072088068  15.960104327947445 1.9776812344637782  13 1.9776812344637782  C 10.039002268288352 1.9776812344637782  7.256186536754262 3.1243990411931817  5.1640121937144885 5.207391326349431  C 3.072731225585938 7.288497549715909  1.9204545454545456 10.056522665127842  1.9204545454545456 13  C 1.9204545454545456 15.943477334872158  3.0717882235440346 18.711502450284094  5.163069162819602 20.79166564275568  C 7.255243505859375 22.874608271928267  10.038059237393465 24.021375734641335  12.999056969105114 24.021375734641335  C 15.959161297052557 24.021375734641335  18.742870432350852 22.87465792791193  20.835044775390624 20.79166564275568  C 22.92632574351918 18.709616388494318  24.07860242365057 15.942534303977272  24.077659392755685 12.999056969105114  C 24.077659392755685 10.055579634232954  22.926325714666195 7.288497549715909  20.835044775390624 5.208284701260652  Z M 20.386462890625 13  C 20.386462890625 12.490320077237216  19.97366632191051 12.076729359019886  19.463092995383523 12.076729359019886  L 13.923320268110796 12.076729359019886  L 13.923320268110796 6.536956631747159  C 13.923320268110796 6.027276708984375  13.509679922762784 5.613636363636363  13 5.613636363636363  C 12.490320077237216 5.613636363636363  12.076679731889206 6.027276708984375  12.076679731889206 6.536956631747159  L 12.076679731889206 12.076729359019886  L 6.536956631747159 12.076729359019886  C 6.027276708984375 12.076729359019886  5.613636363636363 12.490369704367899  5.613636363636363 13.00004962713068  C 5.613636363636363 13.509729549893466  6.027276708984375 13.923369895241477  6.536956631747159 13.923369895241477  L 12.076729359019886 13.923369895241477  L 12.076729359019886 19.463142622514205  C 12.076729359019886 19.973715949041193  12.490369704367899 20.386462890625  13.00004962713068 20.386462890625  C 13.509729549893466 20.386462890625  13.923369895241477 19.97376557617187  13.923369895241477 19.463142622514205  L 13.923369895241477 13.923320268110796  L 19.463142622514205 13.923320268110796  C 19.973715949041193 13.923320268110796  20.386462890625 13.509679922762784  20.386462890625 13  Z " fill-rule="nonzero" fill="#e7772d" stroke="none" transform="matrix(1 0 0 1 1451 1401 )" />
  </g>
</svg>