<?xml version="1.0" encoding="utf-8"?>
<svg version="1.1" xmlns:xlink="http://www.w3.org/1999/xlink" width="209px" height="100px" xmlns="http://www.w3.org/2000/svg">
  <g transform="matrix(1 0 0 1 -1044 -1483 )">
    <path d="M 1045 1488  A 4 4 0 0 1 1049 1484 L 1248 1484  A 4 4 0 0 1 1252 1488 L 1252 1578  A 4 4 0 0 1 1248 1582 L 1049 1582  A 4 4 0 0 1 1045 1578 L 1045 1488  Z " fill-rule="nonzero" fill="#ffffff" stroke="none" />
    <path d="M 1044.5 1488  A 4.5 4.5 0 0 1 1049 1483.5 L 1248 1483.5  A 4.5 4.5 0 0 1 1252.5 1488 L 1252.5 1578  A 4.5 4.5 0 0 1 1248 1582.5 L 1049 1582.5  A 4.5 4.5 0 0 1 1044.5 1578 L 1044.5 1488  Z " stroke-width="1" stroke-dasharray="9,4" stroke="#797979" fill="none" stroke-dashoffset="0.5" />
  </g>
</svg>