<?xml version="1.0" encoding="utf-8"?>
<svg version="1.1" xmlns:xlink="http://www.w3.org/1999/xlink" width="6px" height="4px" xmlns="http://www.w3.org/2000/svg">
  <g transform="matrix(1 0 0 1 -1140 -1502 )">
    <path d="M 1.1013157894736856 3.7456521739130424  C 0.9789473684210541 3.880434782608696  0.8171052631578966 3.9499999999999984  0.6552631578947367 3.950000000000001  C 0.493421052631579 3.950000000000001  0.3315789473684213 3.8826086956521744  0.2092105263157888 3.745652173913045  C -0.03750000000000067 3.4739130434782624  -0.03750000000000067 3.0326086956521765  0.2092105263157888 2.760869565217394  L 2.484868421052631 0.25434782608696  C 2.7611842105263156 -0.04999999999999654  3.213157894736841 -0.04999999999999654  3.489473684210525 0.25434782608696  L 5.7651315789473685 2.760869565217391  C 6.011842105263159 3.032608695652174  6.011842105263159 3.4739130434782597  5.7651315789473685 3.7456521739130424  C 5.518421052631579 4.017391304347825  5.117763157894738 4.017391304347825  4.871052631578949 3.7456521739130424  L 2.986184210526317 1.6695652173913034  L 1.1013157894736856 3.7456521739130424  Z " fill-rule="nonzero" fill="#000000" stroke="none" transform="matrix(1 0 0 1 1140 1502 )" />
  </g>
</svg>