<?xml version="1.0" encoding="utf-8"?>
<svg version="1.1" xmlns:xlink="http://www.w3.org/1999/xlink" width="18px" height="13px" xmlns="http://www.w3.org/2000/svg">
  <g transform="matrix(1 0 0 1 -1134 -1494 )">
    <path d="M 16.52853982300885 11.551204819277107  C 15.670353982300885 12.395030120481929  14.529424778761062 12.860993975903614  13.31482300884956 12.860993975903614  C 12.962389380530974 12.860993975903614  12.677654867256638 12.581024096385544  12.677654867256638 12.234487951807228  C 12.677654867256638 11.887951807228914  12.962389380530974 11.607981927710842  13.31482300884956 11.607981927710842  C 15.118805309734514 11.607981927710842  16.58628318584071 10.165060240963854  16.58628318584071 8.391265060240961  C 16.58628318584071 6.768222891566264  15.353761061946903 5.395783132530119  13.719026548672566 5.1980421686746965  L 13.267035398230087 5.143222891566262  L 13.173451327433625 4.704668674698794  C 12.759292035398229 2.7487951807228885  10.981194690265484 1.329367469879516  8.944247787610617 1.329367469879516  C 6.909292035398229 1.329367469879516  5.1311946902654855 2.7487951807228885  4.71504424778761 4.704668674698794  L 4.62146017699115 5.143222891566262  L 4.169469026548672 5.1980421686746965  C 2.534734513274336 5.395783132530119  1.3022123893805306 6.768222891566262  1.3022123893805306 8.391265060240961  C 1.3022123893805306 10.165060240963854  2.769690265486725 11.607981927710842  4.573672566371681 11.607981927710842  C 4.926106194690266 11.607981927710842  5.210840707964602 11.887951807228912  5.210840707964602 12.234487951807226  C 5.210840707964602 12.58102409638554  4.926106194690266 12.860993975903613  4.573672566371681 12.860993975903613  C 3.359070796460177 12.860993975903613  2.2181415929203534 12.395030120481927  1.3579646017699112 11.551204819277107  C 0.4997787610619468 10.707379518072287  0.02588495575221205 9.583584337349395  0.02588495575221205 8.38930722891566  C 0.02588495575221205 6.2826807228915635  1.5232300884955754 4.479518072289155  3.5741150442477867 4.027259036144576  C 3.8887168141592907 2.9739457831325273  4.523893805309734 2.0263554216867448  5.392035398230087 1.3234939759036122  C 6.389601769911504 0.5168674698795155  7.649999999999999 0.07243975903614214  8.94225663716814 0.07243975903614214  C 10.23451327433628 0.07243975903614214  11.496902654867254 0.5168674698795155  12.492477876106191 1.3234939759036122  C 13.360619469026547 2.0263554216867448  13.995796460176988 2.9739457831325273  14.310398230088492 4.027259036144576  C 16.365265486725665 4.479518072289157  17.86061946902655 6.282680722891566  17.86061946902655 8.389307228915664  C 17.86061946902655 9.583584337349397  17.386725663716813 10.705421686746988  16.52853982300885 11.551204819277107  Z " fill-rule="nonzero" fill="#000000" stroke="none" transform="matrix(1 0 0 1 1134 1494 )" />
  </g>
</svg>