<?xml version="1.0" encoding="utf-8"?>
<svg version="1.1" xmlns:xlink="http://www.w3.org/1999/xlink" width="26px" height="26px" xmlns="http://www.w3.org/2000/svg">
  <g transform="matrix(1 0 0 1 -1487 -1401 )">
    <path d="M 25.833305027173914 13  C 25.833305027173914 20.087710173233695  20.087710173233695 25.833305027173914  13 25.833305027173914  C 5.912289826766305 25.833305027173914  0.16669497282608695 20.087710173233695  0.16669497282608695 13  C 0.16669497282608695 5.912289826766302  5.912289826766305 0.16669497282608695  13 0.16669497282608695  C 20.087710173233695 0.16669497282608695  25.833305027173914 5.912289826766305  25.833305027173914 13  Z M 24.229141898777176 13  C 24.229141898777176 6.798201851222824  19.201798148777176 1.770858101222826  13 1.770858101222826  C 6.798201851222824 1.770858101222826  1.770858101222826 6.798201851222824  1.770858101222826 13  C 1.770858101222826 19.201798148777176  6.798201851222824 24.229141898777176  13 24.229141898777176  C 19.201798148777176 24.229141898777176  24.229141898777176 19.201798148777176  24.229141898777176 13  Z M 19.01219641644022 13  C 19.01219641644022 13.432606572690215  18.661557404891305 13.783245584239129  18.228950832201086 13.783245584239129  L 7.771049167798914 13.783245584239129  C 7.338442595108696 13.783245584239129  6.987803583559784 13.432606572690215  6.987803583559784 13  C 6.987803583559784 12.567393427309783  7.338442595108696 12.216754415760871  7.771049167798914 12.216754415760871  L 18.228950832201086 12.216754415760871  C 18.661557404891305 12.216754415760871  19.01219641644022 12.567393427309783  19.01219641644022 13  Z " fill-rule="nonzero" fill="#e7772d" stroke="none" transform="matrix(1 0 0 1 1487 1401 )" />
  </g>
</svg>