<?xml version="1.0" encoding="utf-8"?>
<svg version="1.1" xmlns:xlink="http://www.w3.org/1999/xlink" width="46px" height="48px" xmlns="http://www.w3.org/2000/svg">
  <g transform="matrix(1 0 0 1 -2766 -930 )">
    <path d="M 45.693333333333335 48  C 45.32533333333333 35.76  31.341333333333335 38.82  29.255999999999997 33.24  C 29.072 31.380000000000003  29.133333333333333 30  29.133333333333333 28.259999999999998  C 29.991999999999997 27.78  33.05866666666667 24.900000000000002  33.304 22.5  C 33.97866666666667 22.44  35.08266666666666 21.78  35.38933333333333 19.14  C 35.57333333333333 17.759999999999998  34.898666666666664 16.919999999999998  34.469333333333324 16.68  C 35.57333333333333 13.379999999999997  36.06399999999999 3.0599999999999987  28.335999999999995 2.039999999999999  C 27.538666666666668 0.72  25.514666666666667 0  22.877333333333333 0  C 12.327999999999998 0.18  9.200000000000001 7.92  11.530666666666665 16.740000000000002  C 11.101333333333335 16.98  10.426666666666666 17.759999999999998  10.610666666666667 19.200000000000003  C 10.917333333333332 21.84  12.021333333333333 22.5  12.695999999999998 22.560000000000002  C 12.941333333333333 25.02  16.008 27.900000000000002  16.866666666666667 28.320000000000004  C 16.866666666666667 30.060000000000002  16.928 31.380000000000003  16.744 33.300000000000004  C 14.658666666666669 38.82  0.9813333333333332 35.94  0.3066666666666666 48  L 45.693333333333335 48  Z " fill-rule="nonzero" fill="#ffffff" stroke="none" transform="matrix(1 0 0 1 2766 930 )" />
  </g>
</svg>