<?xml version="1.0" encoding="utf-8"?>
<svg version="1.1" xmlns:xlink="http://www.w3.org/1999/xlink" width="40px" height="40px" xmlns="http://www.w3.org/2000/svg">
  <g transform="matrix(1 0 0 1 -3462 -5676 )">
    <path d="M 39.693126519868386 33.9436092128575  L 39.5746465806125 6.063795778283981  C 39.5746465806125 2.8426221209820293  36.9236576866616 0.3027081751455343  33.81355897747406 1  L 6.052225482156414 1  C 2.823646833712985 0.3027081751455343  0.2911378790179696 2.953697069096432  1 6.063795778283981  L 1 33.9436092128575  C 0.2911378790179696 37.164782870159456  2.9421267729688654 39.704696815995945  6.052225482156414 39  L 33.932038916729944 39  C 37.15321257403189 39.704696815995945  39.693126519868386 37.05370792204505  39.693126519868386 33.9436092128575  Z M 16.189666251581876 26.531207289293853  C 15.804606428752212 26.560827294355867  15.434356588205516 26.575637276638826  15.056701756517334 26.575637276638826  C 13.56829736269299 26.575637276638826  12.368687866362942 26.27203239686155  10.87287848139711 25.975832508225768  L 6.703865188559858 28.07144666160466  L 7.896069693748421 24.48002316375601  C 4.90445092381676 22.39181404201468  3.119846681852698 19.696395160718808  3.119846681852698 16.41598149329284  C 3.119846681852698 10.736348833206781  8.495874462161481 6.256325709946853  15.064106707162747 6.256325709946853  C 20.9362692584156 6.256325709946853  26.08274215135409 9.832939225512531  27.11944172108327 14.646187233611744  C 26.74178688939509 14.609162237408253  26.356727026069354 14.579542272842323  25.971667203239683 14.579542272842323  C 20.299439574791187 14.579542272842323  15.819416411035181 18.80779553530752  15.819416411035181 24.02831833966085  C 15.819416411035181 24.894702991647687  15.952706373070109 25.731467638572518  16.189666251581876 26.531207289293853  Z M 36.85701268539611 23.887623426980504  C 36.8570126853961 26.575637276638826  35.07240844343203 28.96004628701595  32.673189410275874 30.759460551759048  L 33.56919402682864 33.74367433054922  L 30.296185391040243 31.951665056947608  C 29.103980885851684 32.247864945583395  27.904371389521643 32.55146982536066  26.712166884333083 32.55146982536066  C 21.032534224247023 32.55146982536066  16.552511100987093 28.671251430017712  16.552511100987093 23.887623426980504  C 16.552511100987093 19.111400415084784  21.02512923310554 15.223777028600349  26.712166884333083 15.223777028600349  C 32.080789673500384 15.223777028600349  36.85701268539611 19.118805406226265  36.85701268539611 23.887623426980504  Z " fill-rule="nonzero" fill="#0fc060" stroke="none" transform="matrix(1 0 0 1 3462 5676 )" />
  </g>
</svg>