<?xml version="1.0" encoding="utf-8"?>
<svg version="1.1" xmlns:xlink="http://www.w3.org/1999/xlink" width="40px" height="40px" xmlns="http://www.w3.org/2000/svg">
  <g transform="matrix(1 0 0 1 -3140 -5676 )">
    <path d="M 39.689922480620154 27.384  L 39 27.384  L 39 7.69  C 39.68971631344183 3.443064157987328  36.27354916964938 0.0011033867380229076  32.05953488372093 0  L 7.630387596899225 0  C 3.4171482840405973 0.002206941842585962  0.002189833766286846 3.4438447550096645  0 7.69  L 0 32.31  C 0.0010954616093009212 36.55661234211578  3.416694730303729 39.99889598009688  7.630387596899225 40  L 32.05953488372094 40  C 35.753512365230605 39.99733843328701  38.916557310985894 37.33161306664903  39.572837209302335 33.668  C 37.5486511627907 32.784  28.777178294573645 28.967999999999996  24.206883720930236 26.768  C 20.730046511627908 31.014  17.086511627906983 33.562000000000005  11.597395348837214 33.562000000000005  C 6.108279069767448 33.562000000000005  2.442914728682176 30.154000000000003  2.8834728682170594 25.982000000000003  C 3.1732093023255863 23.246000000000002  5.036651162790703 18.772000000000002  13.12744186046512 19.538000000000004  C 17.394108527131785 19.942  19.344868217054266 20.744000000000003  22.823689922480625 21.902000000000005  C 23.722666666666665 20.238000000000007  24.47082170542636 18.408000000000005  25.038387596899227 17  L 9.614883720930232 17  L 9.614883720930232 14.922000000000004  L 17.247255813953487 14.922000000000004  L 17.247255813953487 12.154  L 7.937984496124031 12.154  L 7.937984496124031 10.46  L 17.24527131782946 10.46  L 17.24527131782946 6.470000000000001  C 17.24527131782946 6.470000000000001  17.32862015503876 5.846  18.013271317829457 5.846  L 21.82945736434108 5.846  L 21.82945736434108 10.46  L 31.751937984496124 10.46  L 31.751937984496124 12.156  L 21.82945736434108 12.156  L 21.82945736434108 14.92  L 29.92421705426356 14.92  C 29.22602179548612 17.832937712883982  28.118746807781854 20.630496453082444  26.635906976744185 23.228  C 28.987534883720926 24.087999999999997  39.689922480620154 27.384  39.689922480620154 27.384  Z M 20.799503875968988 25.061999999999998  C 18.001364341085267 28.733999999999998  14.562232558139529 30.921999999999997  10.99013953488372 30.922  C 5.189457364341084 30.922  4.272620155038759 27.232000000000003  4.580217054263565 25.689999999999998  C 4.8838449612403085 24.154  6.564713178294573 22.15  9.789519379844961 22.15  C 13.494573643410853 22.15  16.814635658914728 23.106  20.799503875968988 25.061999999999998  Z " fill-rule="nonzero" fill="#009fe8" stroke="none" transform="matrix(1 0 0 1 3140 5676 )" />
  </g>
</svg>