<?xml version="1.0" encoding="utf-8"?>
<svg version="1.1" xmlns:xlink="http://www.w3.org/1999/xlink" width="70px" height="70px" xmlns="http://www.w3.org/2000/svg">
  <g transform="matrix(1 0 0 1 -3303 -6233 )">
    <path d="M 67.46673625578703 35.98928895037615  C 67.46673625578703 17.483354163049764  52.466125600405086 2.4905158926504587  33.96796319806134 2.4905158926504627  C 15.46980079571759 2.4905158926504627  0.4691901403356443 17.483354239004626  0.469190064380784 35.98928895037616  C 0.4691899884259225 54.495223661747694  15.462028410734948 69.48806200810186  33.96796319806134 69.48806208405671  C 52.47389798538774 69.48806216001157  67.46673625578703 54.49522373770254  67.46673625578703 35.98928895037615  Z M 54.21490143590857 23.778947337962965  C 55.404069046585654 24.944797945601856  55.404069046585654 26.85679287832755  54.230446129918974 28.030415719039347  L 31.7528470739294 50.50801477502894  C 31.162149461082176 51.09871238787616  30.392688057002317 51.394061194299766  29.623226728877317 51.394061194299766  C 28.85376532479745 51.394061194299766  28.084303996672453 51.09871238787616  27.49360630787037 50.50801477502894  L 16.464659921151622 39.48684069733797  C 15.283264695457177 38.313217780671295  15.283264695457177 36.4012228479456  16.464659921151622 35.22759993127894  C 17.64605514684607 34.04620470558449  19.550277770543985 34.04620470558449  20.723900687210648 35.22759993127894  L 29.615454343894676 44.11915366391783  L 49.955660669849536 23.778947337962965  C 51.13705589554398 22.597552112268517  53.0412785192419 22.597552112268517  54.21490143590857 23.778947337962965  Z " fill-rule="nonzero" fill="#0fc060" stroke="none" transform="matrix(1 0 0 1 3303 6233 )" />
  </g>
</svg>