<?xml version="1.0" encoding="utf-8"?>
<svg version="1.1" xmlns:xlink="http://www.w3.org/1999/xlink" width="16px" height="16px" xmlns="http://www.w3.org/2000/svg">
  <g transform="matrix(1 0 0 1 -3240 -5676 )">
    <path d="M 3248 5677  C 3251.92 5677  3255 5680.08  3255 5684  C 3255 5687.92  3251.92 5691  3248 5691  C 3244.08 5691  3241 5687.92  3241 5684  C 3241 5680.08  3244.08 5677  3248 5677  Z " fill-rule="nonzero" fill="#f2f2f2" stroke="none" />
    <path d="M 3248 5677  C 3251.92 5677  3255 5680.08  3255 5684  C 3255 5687.92  3251.92 5691  3248 5691  C 3244.08 5691  3241 5687.92  3241 5684  C 3241 5680.08  3244.08 5677  3248 5677  Z " stroke-width="2" stroke="#999999" fill="none" />
  </g>
</svg>