<?xml version="1.0" encoding="utf-8"?>
<svg version="1.1" xmlns:xlink="http://www.w3.org/1999/xlink" width="52px" height="12px" preserveAspectRatio="xMinYMid meet" viewBox="1623.2619047619046 4287  52 10" xmlns="http://www.w3.org/2000/svg">
  <path d="M 1439.5 5474  L 1439.5 5472.190476190476  A 5 5 0 0 1 1444.5 5467.690476190476 L 1624.2619047619046 5467.690476190476  A 5 5 0 0 0 1629.7619047619046 5462.690476190476 L 1629.7619047619046 4297  A 5 5 0 0 1 1634.7619047619046 4292.5 L 1672 4292.5  " stroke-width="3" stroke="#e7772d" fill="none" />
  <path d="M 1439.5 5469  A 4 4 0 0 0 1435.5 5473 A 4 4 0 0 0 1439.5 5477 A 4 4 0 0 0 1443.5 5473 A 4 4 0 0 0 1439.5 5469 Z M 1662.9 4302.5  L 1675 4292.5  L 1662.9 4282.5  L 1667.8 4292.5  L 1662.9 4302.5  Z " fill-rule="nonzero" fill="#e7772d" stroke="none" />
</svg>