<?xml version="1.0" encoding="utf-8"?>
<svg version="1.1" xmlns:xlink="http://www.w3.org/1999/xlink" width="45px" height="33px" xmlns="http://www.w3.org/2000/svg">
  <g transform="matrix(1 0 0 1 -3131 -330 )">
    <path d="M 41.321349557522126 29.322289156626503  C 39.17588495575221 31.464307228915665  36.32356194690266 32.647138554216866  33.287057522123895 32.647138554216866  C 32.405973451327434 32.647138554216866  31.694137168141594 31.936445783132534  31.694137168141594 31.056777108433735  C 31.694137168141594 30.177108433734936  32.405973451327434 29.4664156626506  33.287057522123895 29.4664156626506  C 37.79701327433629 29.4664156626506  41.46570796460177 25.803614457831323  41.46570796460177 21.300903614457827  C 41.46570796460177 17.180873493975902  38.38440265486726 13.696987951807225  34.29756637168141 13.195030120481922  L 33.16758849557522 13.055873493975897  L 32.93362831858406 11.942620481927706  C 31.898230088495573 6.977710843373487  27.45298672566371 3.374548192771079  22.360619469026545 3.374548192771079  C 17.273230088495573 3.374548192771079  12.827986725663713 6.977710843373487  11.787610619469024 11.942620481927706  L 11.553650442477876 13.055873493975897  L 10.42367256637168 13.195030120481922  C 6.33683628318584 13.696987951807225  3.2555309734513265 17.180873493975895  3.2555309734513265 21.300903614457827  C 3.2555309734513265 25.803614457831323  6.924225663716812 29.466415662650597  11.434181415929203 29.466415662650597  C 12.315265486725664 29.466415662650597  13.027101769911503 30.17710843373493  13.027101769911503 31.056777108433728  C 13.027101769911503 31.936445783132527  12.315265486725664 32.64713855421686  11.434181415929203 32.64713855421686  C 8.397676991150442 32.64713855421686  5.545353982300884 31.46430722891566  3.394911504424778 29.3222891566265  C 1.2494469026548671 27.180271084337342  0.06471238938053013 24.32756024096385  0.06471238938053013 21.29593373493975  C 0.06471238938053013 15.94834337349397  3.8080752212389384 11.371084337349393  8.935287610619467 10.223042168674693  C 9.721792035398227 7.5492469879518005  11.309734513274336 5.143825301204814  13.480088495575218 3.3596385542168616  C 15.97400442477876 1.3120481927710776  19.124999999999996 0.1838855421686685  22.35564159292035 0.1838855421686685  C 25.5862831858407 0.1838855421686685  28.742256637168136 1.3120481927710776  31.23119469026548 3.3596385542168616  C 33.40154867256637 5.143825301204814  34.98949115044247 7.5492469879518005  35.77599557522123 10.223042168674693  C 40.91316371681416 11.371084337349398  44.65154867256637 15.948343373493975  44.65154867256637 21.29593373493976  C 44.65154867256637 24.327560240963855  43.466814159292035 27.175301204819274  41.321349557522126 29.322289156626503  Z " fill-rule="nonzero" fill="#000000" stroke="none" transform="matrix(1 0 0 1 3131 330 )" />
  </g>
</svg>