<?xml version="1.0" encoding="utf-8"?>
<svg version="1.1" xmlns:xlink="http://www.w3.org/1999/xlink" width="1205px" height="284px" xmlns="http://www.w3.org/2000/svg">
  <g transform="matrix(1 0 0 1 -2551 -300 )">
    <path d="M 2552 305  A 4 4 0 0 1 2556 301 L 3751 301  A 4 4 0 0 1 3755 305 L 3755 579  A 4 4 0 0 1 3751 583 L 2556 583  A 4 4 0 0 1 2552 579 L 2552 305  Z " fill-rule="nonzero" fill="#f2f2f2" stroke="none" />
    <path d="M 2551.5 305  A 4.5 4.5 0 0 1 2556 300.5 L 3751 300.5  A 4.5 4.5 0 0 1 3755.5 305 L 3755.5 579  A 4.5 4.5 0 0 1 3751 583.5 L 2556 583.5  A 4.5 4.5 0 0 1 2551.5 579 L 2551.5 305  Z " stroke-width="1" stroke-dasharray="9,4" stroke="#999999" fill="none" stroke-dashoffset="0.5" />
  </g>
</svg>