<?xml version="1.0" encoding="utf-8"?>
<svg version="1.1" xmlns:xlink="http://www.w3.org/1999/xlink" width="15px" height="9px" xmlns="http://www.w3.org/2000/svg">
  <g transform="matrix(1 0 0 1 -3146 -350 )">
    <path d="M 2.753289473684214 8.427717391304345  C 2.4473684210526354 8.730978260869566  2.0427631578947416 8.887499999999996  1.6381578947368416 8.887500000000003  C 1.2335526315789473 8.887500000000003  0.8289473684210532 8.735869565217392  0.523026315789472 8.427717391304352  C -0.09375000000000168 7.81630434782609  -0.09375000000000168 6.823369565217397  0.523026315789472 6.211956521739136  L 6.212171052631578 0.57228260869566  C 6.9029605263157885 -0.11249999999999222  8.032894736842103 -0.11249999999999222  8.723684210526313 0.57228260869566  L 14.412828947368423 6.21195652173913  C 15.029605263157897 6.823369565217391  15.029605263157897 7.816304347826084  14.412828947368423 8.427717391304345  C 13.796052631578949 9.039130434782606  12.794407894736844 9.039130434782606  12.177631578947372 8.427717391304345  L 7.465460526315793 3.7565217391304326  L 2.753289473684214 8.427717391304345  Z " fill-rule="nonzero" fill="#000000" stroke="none" transform="matrix(1 0 0 1 3146 350 )" />
  </g>
</svg>