<?xml version="1.0" encoding="utf-8"?>
<svg version="1.1" xmlns:xlink="http://www.w3.org/1999/xlink" width="12px" height="12px" xmlns="http://www.w3.org/2000/svg">
  <g transform="matrix(1 0 0 1 -888 -1614 )">
    <path d="M 12 6  C 12 2.6823529453124992  9.3176470546875 0  6 0  C 2.6823529453125 0  0 2.6823529453125  0 6  C 0 9.317647054687502  2.6823529453125 12  6 12  C 9.317647054687502 12  12 9.317647054687502  12 6  Z M 7.058823527343749 5.999999999999999  L 8.611764703125 7.55294117578125  C 8.8941176484375 7.8352941210937495  8.8941176484375 8.32941176953125  8.611764703125 8.611764703125  C 8.329411757812501 8.8941176484375  7.835294109375 8.8941176484375  7.55294117578125 8.611764703125  L 6 7.058823527343749  L 4.44705882421875 8.682352945312498  C 4.1647058789062505 8.964705890624998  3.67058823046875 8.964705890624998  3.388235296875 8.682352945312498  C 3.24705882421875 8.4705882421875  3.1764705937500004 8.329411769531248  3.1764705937500004 8.117647054687499  C 3.1764705937500004 7.9058823398437506  3.24705882421875 7.6941176484375  3.388235296875 7.55294117578125  L 4.941176472656251 6  L 3.388235296875 4.5176470546875  C 3.24705882421875 4.3058823515625  3.1764705937500004 4.1647058789062505  3.1764705937500004 3.9529411757812496  C 3.1764705937500004 3.7411764726562495  3.24705882421875 3.52941176953125  3.388235296875 3.388235296874999  C 3.6705882421875 3.1058823515624994  4.164705890625 3.1058823515624994  4.44705882421875 3.388235296874999  L 6 4.94117647265625  L 7.55294117578125 3.388235296874999  C 7.8352941210937495 3.1058823515624994  8.32941176953125 3.1058823515624994  8.611764703125 3.388235296874999  C 8.8941176484375 3.670588242187499  8.8941176484375 4.164705890624999  8.611764703125 4.447058824218749  L 7.058823527343749 5.999999999999999  Z " fill-rule="nonzero" fill="#999999" stroke="none" transform="matrix(1 0 0 1 888 1614 )" />
  </g>
</svg>