<?xml version="1.0" encoding="utf-8"?>
<svg version="1.1" xmlns:xlink="http://www.w3.org/1999/xlink" width="14px" height="14px" xmlns="http://www.w3.org/2000/svg">
  <g transform="matrix(1 0 0 1 -1080 -1773 )">
    <path d="M 14 1.6059734513274342  C 13.996902654867256 0.7851769911504431  13.332522123893805 0.11924778761062019  12.510176991150441 0.11924778761061951  L 1.6075221238938047 0.11924778761061951  C 0.7867256637168134 0.11924778761061951  0.12079646017699044 0.7851769911504426  0.12079646017699044 1.6059734513274335  L 0.12079646017699044 12.508628318584073  C 0.12079646017699044 13.329424778761064  0.7867256637168134 13.995353982300886  1.6075221238938047 14  L 12.510176991150441 14  C 13.330973451327432 13.995353982300886  13.996902654867256 13.329424778761064  14 12.508628318584073  L 14 1.6059734513274342  Z M 11.712610619469027 5.211283185840708  C 11.892256637168142 5.421902654867257  11.867477876106197 5.734734513274336  11.659955752212388 5.912831858407079  L 6.5121681415929205 10.311061946902655  C 6.330973451327434 10.465929203539822  6.104867256637168 10.54800884955752  5.869469026548673 10.54800884955752  C 5.843141592920355 10.54800884955752  5.816814159292036 10.546460176991149  5.790486725663716 10.544911504424777  C 5.52721238938053 10.524778761061945  5.28716814159292 10.40243362831858  5.115265486725663 10.201106194690263  L 2.3663716814159295 6.984513274336283  C 2.188274336283186 6.776991150442479  2.213053097345133 6.464159292035397  2.420575221238938 6.286061946902654  C 2.6280973451327436 6.107964601769911  2.940929203539823 6.132743362831858  3.119026548672567 6.340265486725664  L 5.866371681415929 9.555309734513274  L 11.014159292035398 5.157079646017699  C 11.221681415929204 4.978982300884955  11.534513274336284 5.003761061946903  11.712610619469027 5.211283185840708  Z " fill-rule="nonzero" fill="#000000" stroke="none" transform="matrix(1 0 0 1 1080 1773 )" />
  </g>
</svg>