<?xml version="1.0" encoding="utf-8"?>
<svg version="1.1" xmlns:xlink="http://www.w3.org/1999/xlink" width="20px" height="20px" xmlns="http://www.w3.org/2000/svg">
  <g transform="matrix(1 0 0 1 -4840 -1092 )">
    <path d="M 20 10  C 20 4.479999999999999  15.52 0  10 0  C 4.48 0  0 4.48  0 10  C 0 15.52  4.48 20  10 20  C 15.52 20  20 15.52  20 10  Z M 18.666666666666668 10  C 18.666666666666668 14.786666666666665  14.786666666666665 18.666666666666668  10 18.666666666666668  C 5.213333333333333 18.666666666666668  1.3333333333333333 14.786666666666665  1.3333333333333333 10  C 1.3333333333333333 5.213333333333333  5.213333333333333 1.3333333333333333  10 1.3333333333333333  C 14.786666666666665 1.3333333333333333  18.666666666666668 5.213333333333333  18.666666666666668 10  Z M 14.466666666666663 13.506666666666664  L 10.919999999999998 9.933333333333334  L 14.426666666666668 6.466666666666666  C 14.693333333333333 6.199999999999999  14.693333333333333 5.773333333333333  14.426666666666668 5.52  C 14.160000000000002 5.253333333333333  13.733333333333334 5.253333333333333  13.466666666666667 5.52  L 9.96 8.96  L 6.52 5.506666666666666  C 6.253333333333333 5.239999999999999  5.826666666666665 5.239999999999999  5.573333333333333 5.506666666666666  C 5.306666666666667 5.773333333333333  5.306666666666667 6.2  5.573333333333333 6.453333333333333  L 9 9.906666666666666  L 5.359999999999999 13.506666666666664  C 5.093333333333333 13.77333333333333  5.093333333333333 14.199999999999998  5.359999999999999 14.453333333333333  C 5.626666666666667 14.719999999999999  6.053333333333332 14.719999999999999  6.3199999999999985 14.453333333333333  L 9.946666666666665 10.866666666666667  L 13.52 14.453333333333333  C 13.786666666666665 14.719999999999999  14.213333333333331 14.719999999999999  14.466666666666663 14.453333333333333  C 14.733333333333329 14.186666666666667  14.733333333333329 13.760000000000002  14.466666666666663 13.506666666666664  Z " fill-rule="nonzero" fill="#000000" stroke="none" transform="matrix(1 0 0 1 4840 1092 )" />
  </g>
</svg>