<?xml version="1.0" encoding="utf-8"?>
<svg version="1.1" xmlns:xlink="http://www.w3.org/1999/xlink" width="40px" height="10px" preserveAspectRatio="xMinYMid meet" viewBox="2250 158  40 8" xmlns="http://www.w3.org/2000/svg">
  <path d="M 2222 124  L 2250 124  A 5 5 0 0 1 2255 129 L 2255 157  A 5 5 0 0 0 2260 162 L 2288 162  " stroke-width="2" stroke="#0066ff" fill="none" />
  <path d="M 2223.5 120.5  A 3.5 3.5 0 0 0 2220 124 A 3.5 3.5 0 0 0 2223.5 127.5 A 3.5 3.5 0 0 0 2227 124 A 3.5 3.5 0 0 0 2223.5 120.5 Z M 2280.6 170  L 2290 162  L 2280.6 154  L 2284.2 162  L 2280.6 170  Z " fill-rule="nonzero" fill="#0066ff" stroke="none" />
</svg>