<?xml version="1.0" encoding="utf-8"?>
<svg version="1.1" xmlns:xlink="http://www.w3.org/1999/xlink" width="10px" height="14px" xmlns="http://www.w3.org/2000/svg">
  <g transform="matrix(1 0 0 1 -660 -236 )">
    <path d="M 0 1.5555555565682875  C 0 2.4146651679755045  0.746192085072751 3.111111113136575  1.6666666699218757 3.111111113136575  C 2.5871412547709993 3.111111113136575  3.33333333984375 2.4146651679755045  3.33333333984375 1.5555555565682875  C 3.33333333984375 0.69644594516107  2.5871412547709993 0  1.6666666699218757 0  C 0.746192085072751 0  0 0.69644594516107  0 1.5555555565682875  Z M 6.66666666015625 1.5555555565682875  C 6.66666666015625 2.414665167975503  7.412858745228999 3.1111111131365736  8.333333330078124 3.1111111131365736  C 9.253807914927247 3.1111111131365736  9.999999999999998 2.4146651679755045  9.999999999999998 1.5555555565682875  C 9.999999999999998 0.6964459451610694  9.253807914927249 0  8.333333330078124 0  C 7.412858745228999 0  6.66666666015625 0.6964459451610704  6.66666666015625 1.5555555565682875  Z M 0 7  C 0 7.859109611407216  0.746192085072751 8.555555556568288  1.6666666699218757 8.555555556568288  C 2.5871412547709993 8.555555556568288  3.33333333984375 7.859109611407216  3.33333333984375 7  C 3.33333333984375 6.1408903885927835  2.5871412547709993 5.444444443431713  1.6666666699218757 5.444444443431713  C 0.746192085072751 5.444444443431713  0 6.1408903885927835  0 7  Z M 6.66666666015625 7  C 6.66666666015625 7.859109611407216  7.412858745228999 8.555555556568285  8.333333330078124 8.555555556568285  C 9.253807914927247 8.555555556568285  9.999999999999998 7.859109611407216  9.999999999999998 7  C 9.999999999999998 6.140890388592783  9.253807914927249 5.444444443431713  8.333333330078124 5.444444443431713  C 7.412858745229002 5.444444443431713  6.66666666015625 6.1408903885927835  6.66666666015625 7  Z M 0 12.444444443431713  C 0 13.303554054838928  0.746192085072751 14  1.6666666699218757 14  C 2.5871412547709993 14  3.33333333984375 13.303554054838932  3.33333333984375 12.444444443431713  C 3.33333333984375 11.585334832024493  2.5871412547709993 10.888888886863427  1.6666666699218757 10.888888886863427  C 0.746192085072751 10.888888886863427  0 11.585334832024493  0 12.444444443431713  Z M 6.66666666015625 12.444444443431713  C 6.66666666015625 13.303554054838928  7.412858745228999 14  8.333333330078124 14  C 9.253807914927249 14  9.999999999999998 13.303554054838932  9.999999999999998 12.444444443431713  C 9.999999999999998 11.585334832024493  9.253807914927249 10.888888886863427  8.333333330078124 10.888888886863427  C 7.412858745228999 10.888888886863427  6.66666666015625 11.585334832024493  6.66666666015625 12.444444443431713  Z " fill-rule="nonzero" fill="#999999" stroke="none" transform="matrix(1 0 0 1 660 236 )" />
  </g>
</svg>