<?xml version="1.0" encoding="utf-8"?>
<svg version="1.1" xmlns:xlink="http://www.w3.org/1999/xlink" width="35px" height="10px" preserveAspectRatio="xMinYMid meet" viewBox="2675 277  35 8" xmlns="http://www.w3.org/2000/svg">
  <path d="M 2652 162  L 2675 162  A 5 5 0 0 1 2680 167 L 2680 276  A 5 5 0 0 0 2685 281 L 2708 281  " stroke-width="2" stroke="#0066ff" fill="none" />
  <path d="M 2653.5 158.5  A 3.5 3.5 0 0 0 2650 162 A 3.5 3.5 0 0 0 2653.5 165.5 A 3.5 3.5 0 0 0 2657 162 A 3.5 3.5 0 0 0 2653.5 158.5 Z M 2700.6 289  L 2710 281  L 2700.6 273  L 2704.2 281  L 2700.6 289  Z " fill-rule="nonzero" fill="#0066ff" stroke="none" />
</svg>