<?xml version="1.0" encoding="utf-8"?>
<svg version="1.1" xmlns:xlink="http://www.w3.org/1999/xlink" width="21px" height="20px" preserveAspectRatio="xMinYMid meet" viewBox="3953 428  21 18" xmlns="http://www.w3.org/2000/svg">
  <path d="M 3962 437  L 4005 437  A 5 5 0 0 0 4010 432 L 4010 412  A 5 5 0 0 1 4015 407 L 4058 407  " stroke-width="2" stroke="#0066ff" fill="none" />
  <path d="M 3963.5 433.5  A 3.5 3.5 0 0 0 3960 437 A 3.5 3.5 0 0 0 3963.5 440.5 A 3.5 3.5 0 0 0 3967 437 A 3.5 3.5 0 0 0 3963.5 433.5 Z M 4050.6 415  L 4060 407  L 4050.6 399  L 4054.2 407  L 4050.6 415  Z " fill-rule="nonzero" fill="#0066ff" stroke="none" />
</svg>