<?xml version="1.0" encoding="utf-8"?>
<svg version="1.1" xmlns:xlink="http://www.w3.org/1999/xlink" width="14px" height="14px" xmlns="http://www.w3.org/2000/svg">
  <g transform="matrix(1 0 0 1 -248 -723 )">
    <path d="M 4.925925925925926 1.4691358078703702  L 1.4691358078703702 1.4691358078703702  L 1.4691358078703702 4.925925925925926  L 0.08641974768518512 4.925925925925926  L 0.08641974768518512 0.08641974768518512  L 4.925925925925926 0.08641974768518512  L 4.925925925925926 1.4691358078703702  Z M 13.913580252314816 4.925925925925926  L 12.530864192129629 4.925925925925926  L 12.530864192129629 1.4691358078703702  L 9.074074074074073 1.4691358078703702  L 9.074074074074073 0.08641974768518512  L 13.913580252314816 0.08641974768518512  L 13.913580252314816 4.925925925925926  Z M 0.08641974768518512 9.074074074074074  L 1.4691358078703702 9.074074074074074  L 1.4691358078703702 12.53086419212963  L 4.925925925925926 12.53086419212963  L 4.925925925925926 13.913580252314816  L 0.08641974768518512 13.913580252314816  L 0.08641974768518512 9.074074074074074  Z M 12.53086419212963 12.530864192129629  L 12.530864192129629 9.074074074074074  L 13.913580252314816 9.074074074074074  L 13.913580252314816 13.913580252314816  L 9.074074074074074 13.913580252314816  L 9.074074074074074 12.530864192129629  L 12.53086419212963 12.530864192129629  Z " fill-rule="nonzero" fill="#ffffff" stroke="none" transform="matrix(1 0 0 1 248 723 )" />
  </g>
</svg>