<?xml version="1.0" encoding="utf-8"?>
<svg version="1.1" xmlns:xlink="http://www.w3.org/1999/xlink" width="14px" height="14px" xmlns="http://www.w3.org/2000/svg">
  <g transform="matrix(1 0 0 1 -1403 -98 )">
    <path d="M 1.2715358582071208E-05 4.76842597909049  C 1.2715358582071208E-05 5.646259579330266  0.7116374579613085 6.357884316494741  1.5894710649095067 6.357884316494741  L 4.768387764011355 6.357884316494741  C 5.6462213709595535 6.357884316494741  6.35784611356228 5.646259579330266  6.357846113562281 4.768425979090491  L 6.35784611356228 1.589509304281991  C 6.35784611356228 0.7116757040422164  5.6462213709595535 5.096687774139307E-05  4.768387764011356 5.096687774100324E-05  L 1.5894710649095067 5.096687774100323E-05  C 0.7116374579613082 5.096687774100323E-05  1.2715358582071208E-05 0.7116757040422159  1.271535858207121E-05 1.589509304281991  L 1.2715358582071208E-05 4.76842597909049  Z M 1.2715793949993217 4.76842597909049  L 1.2715793949993217 1.589509304281991  C 1.2715793949993217 1.4139425842340356  1.413904343519867 1.2716176368011407  1.5894710649095065 1.2716176368011407  L 4.768387764011356 1.2716176368011407  C 4.9439544854009965 1.2716176368011411  5.086279433921541 1.413942584234036  5.086279433921542 1.589509304281991  L 5.086279433921541 4.76842597909049  C 5.086279433921541 4.9439926991384455  4.9439544854009965 5.086317646571341  4.768387764011356 5.0863176465713416  L 1.5894710649095065 5.086317646571341  C 1.413904343519867 5.086317646571341  1.2715793949993217 4.9439926991384455  1.2715793949993217 4.76842597909049  Z M 13.98724619140672 1.595867136264421  C 13.987308617570136 0.7219174515979402  13.284390773329186 0.01049657619852121  12.410503505917829 5.096687774100324E-05  L 9.231586806815978 5.096687774100323E-05  C 9.227344030361175 1.6989095438019605E-05  9.22310113486168 0  9.218858222355495 0  C 8.341024615407298 0  7.62939987280457 0.7116247371644748  7.62939987280457 1.5894583374042501  C 7.62939987280457 1.5915946102030565  7.6294041796128065 1.593730880830961  7.629412793203023 1.5958671362644206  L 7.629412793203023 4.774783811072922  C 7.632897470494464 5.65116995249383  8.342484994635676 6.360757471212359  9.218871142753946 6.364242148477171  L 12.397787841855797 6.364242148477172  C 13.274173989974067 6.360757471212356  13.98376151411528 5.65116995249383  13.98724619140672 4.774783811072921  L 13.98724619140672 1.595867136264421  Z M 12.728395175828012 1.589509304281991  L 12.728395175828012 4.768425979090491  C 12.725012741910513 4.94257240882086  12.584649936979028 5.082935212679691  12.410503505917829 5.0863176465713416  L 9.23158680681598 5.086317646571341  C 9.056020085426338 5.086317646571341  8.913695136905794 4.9439926991384455  8.913695136905796 4.768425979090491  L 8.913695136905794 1.589509304281991  C 8.913695136905794 1.4139425842340356  9.056020085426338 1.2716176368011407  9.23158680681598 1.2716176368011407  L 12.410503505917827 1.2716176368011407  C 12.586070227307466 1.2716176368011407  12.728395175828012 1.4139425842340356  12.728395175828012 1.5895093042819908  Z M 13.999961855468754 9.218909323822393  C 13.99647717817731 8.342523182401482  13.286889654036104 7.632935663682955  12.410503505917829 7.629450986418142  L 9.231586806815978 7.62945098641814  C 8.353753199867779 7.62945098641814  7.642128457265054 8.341075723582616  7.642128457265055 9.218909323822391  L 7.642128457265055 12.397825998630891  C 7.645613134556497 13.274212140051798  8.35520065869771 13.983799658770332  9.23158680681598 13.98728433603514  L 12.410503505917829 13.987284336035142  C 13.286889654036104 13.983799658770332  13.99647717817731 13.274212140051802  13.999961855468753 12.39782599863089  L 13.999961855468754 9.218909323822393  Z M 12.728395175828012 9.218909323822393  L 12.728395175828012 12.397825998630891  C 12.725012741910513 12.57197242836126  12.584649936979028 12.71233523222009  12.410503505917829 12.715717666111741  L 9.23158680681598 12.715717666111741  C 9.056020085426338 12.715717666111741  8.913695136905794 12.573392718678846  8.913695136905796 12.397825998630891  L 8.913695136905794 9.218909323822393  C 8.913695136905794 9.043342603774438  9.056020085426338 8.90101765634154  9.23158680681598 8.901017656341542  L 12.410503505917827 8.90101765634154  C 12.586070227307466 8.90101765634154  12.728395175828012 9.043342603774438  12.728395175828012 9.218909323822393  Z M 6.35784611356228 9.218909323822391  C 6.35784611356228 8.341075723582616  5.6462213709595535 7.62945098641814  4.768387764011356 7.629450986418142  L 1.5894710649095067 7.629450986418142  C 0.7106099811725657 7.632945449137357  0 8.346386517155937  0 9.225254541361858  C 0 9.227378029848584  0 9.22950151622034  1.271535858207121E-05 9.23162498778725  L 1.2715358582071211E-05 12.410541662595751  C 0.010422120892881 13.28195807080755  0.7179991510099138 13.98387448053684  1.5894710649095067 13.98728433603514  L 4.768387764011357 13.987284336035142  C 5.6447739121296285 13.983799658770332  6.354361436270839 13.274212140051802  6.357846113562281 12.39782599863089  L 6.35784611356228 9.218909323822391  Z M 5.086279433921541 9.218909323822393  L 5.086279433921541 12.39782599863089  C 5.086279433921541 12.573392718678845  4.9439544854009965 12.715717666111741  4.768387764011356 12.715717666111741  L 1.5894710649095065 12.71571766611174  C 1.4153246338483063 12.712335232220088  1.2749618289168236 12.571972428361262  1.2715793949993217 12.397825998630891  L 1.2715793949993217 9.218909323822393  C 1.2715793949993217 9.043342603774438  1.413904343519867 8.90101765634154  1.5894710649095067 8.901017656341542  L 4.768387764011356 8.90101765634154  C 4.9439544854009965 8.90101765634154  5.086279433921541 9.043342603774438  5.086279433921541 9.218909323822393  Z " fill-rule="nonzero" fill="#e7772d" stroke="none" transform="matrix(1 0 0 1 1403 98 )" />
  </g>
</svg>