<?xml version="1.0" encoding="utf-8"?>
<svg version="1.1" xmlns:xlink="http://www.w3.org/1999/xlink" width="10px" height="10px" xmlns="http://www.w3.org/2000/svg">
  <g transform="matrix(1 0 0 1 -1932 -305 )">
    <path d="M 10 5  C 10 2.2399999999999993  7.76 0  5 0  C 2.24 0  0 2.24  0 5  C 0 7.76  2.24 10  5 10  C 7.76 10  10 7.76  10 5  Z M 9.333333333333334 5  C 9.333333333333334 7.393333333333333  7.393333333333333 9.333333333333334  5 9.333333333333334  C 2.6066666666666665 9.333333333333334  0.6666666666666666 7.393333333333333  0.6666666666666666 5  C 0.6666666666666666 2.6066666666666665  2.6066666666666665 0.6666666666666666  5 0.6666666666666666  C 7.393333333333333 0.6666666666666666  9.333333333333334 2.6066666666666665  9.333333333333334 5  Z M 7.233333333333332 6.753333333333332  L 5.459999999999999 4.966666666666667  L 7.213333333333334 3.233333333333333  C 7.346666666666667 3.0999999999999996  7.346666666666667 2.8866666666666667  7.213333333333334 2.76  C 7.080000000000001 2.6266666666666665  6.866666666666667 2.6266666666666665  6.733333333333333 2.76  L 4.98 4.48  L 3.26 2.753333333333333  C 3.1266666666666665 2.6199999999999997  2.9133333333333327 2.6199999999999997  2.7866666666666666 2.753333333333333  C 2.6533333333333333 2.8866666666666667  2.6533333333333333 3.1  2.7866666666666666 3.2266666666666666  L 4.5 4.953333333333333  L 2.6799999999999997 6.753333333333332  C 2.5466666666666664 6.886666666666665  2.5466666666666664 7.099999999999999  2.6799999999999997 7.226666666666667  C 2.8133333333333335 7.359999999999999  3.026666666666666 7.359999999999999  3.1599999999999993 7.226666666666667  L 4.973333333333333 5.433333333333334  L 6.76 7.226666666666667  C 6.893333333333333 7.359999999999999  7.106666666666666 7.359999999999999  7.233333333333332 7.226666666666667  C 7.3666666666666645 7.093333333333334  7.3666666666666645 6.880000000000001  7.233333333333332 6.753333333333332  Z " fill-rule="nonzero" fill="#555555" stroke="none" transform="matrix(1 0 0 1 1932 305 )" />
  </g>
</svg>