<?xml version="1.0" encoding="utf-8"?>
<svg version="1.1" xmlns:xlink="http://www.w3.org/1999/xlink" width="25px" height="20px" xmlns="http://www.w3.org/2000/svg">
  <g transform="matrix(1 0 0 1 -2786 -1746 )">
    <path d="M 6.330555555555556 6.958117647058825  L 1.8518518518518516 6.958117647058825  L 1.8518518518518516 12.865882352941178  L 6.166666666666667 12.865882352941178  L 11.243518518518519 16.985411764705884  L 11.243518518518519 2.9496470588235297  L 6.330555555555556 6.958117647058825  Z M 0.9259259259259258 5.075764705882352  L 5.678703703703703 5.075764705882354  L 11.589814814814813 0.2531764705882362  C 11.754187890762479 0.11905331017544206  11.958661926734472 0.04595110050348862  12.169444458941356 0.04595110050348862  C 12.6808192273032 0.04595110050348862  13.09537038486728 0.46733015948627143  13.09537038486728 0.9871275710917239  C 13.09537038486728 0.9871830866136365  13.095370380034979 0.9872386021260169  13 0.98729411764706  L 13 18.941176470588236  C 13.095153475159831 19.460817901353245  12.680665888779242 19.881953629480375  12.169444527779591 19.881953629480375  C 11.95947568404736 19.881953629480375  11.755741416825103 19.80941385748465  11.591666666666667 19.676235294117646  L 5.517592592592593 14.748235294117645  L 0.9259259259259258 14.748235294117645  C 0.41455115756408034 14.748235294117645  0 14.326856235134862  0 13.80705882352941  L 0 6.016941176470587  C 0 5.497143764865134  0.41455115756408034 5.075764705882352  0.9259259259259258 5.075764705882352  Z M 16.481481481481485 3.4352941176470573  L 19.90740740740741 8.078117647058823  L 23.333333333333332 3.435294117647059  C 23.508198501851695 3.1983003833727603  23.78263212654347 3.058823529411765  24.074074074074073 3.058823529411765  C 24.58544884243592 3.058823529411765  25 3.4802025883945475  25 4  C 25 4.203642553936788  24.935020489013613 4.401791839203509  24.814814814814813 4.564705882352941  L 21.064814814814813 9.647058823529411  L 24.814814814814813 14.729411764705882  C 24.935020489013617 14.892325807855313  25 15.09047509312203  25 15.294117647058822  C 25 15.813915058664277  24.58544884243592 16.235294117647058  24.074074074074073 16.235294117647058  C 23.78263212654347 16.235294117647058  23.508198501851695 16.09581726368606  23.333333333333332 15.858823529411763  L 19.90740740740741 11.215999999999998  L 16.481481481481485 15.858823529411763  C 16.30661631296312 16.09581726368606  16.032182688271345 16.235294117647058  15.74074074074074 16.235294117647058  C 15.229365972378893 16.235294117647058  14.814814814814813 15.813915058664277  14.814814814814813 15.294117647058822  C 14.814814814814813 15.090475093122036  14.879794325801202 14.892325807855313  15 14.729411764705882  L 18.75 9.64705882352941  L 15 4.564705882352939  C 14.879794325801202 4.401791839203507  14.814814814814813 4.203642553936788  14.814814814814813 3.9999999999999987  C 14.814814814814813 3.4802025883945458  15.229365972378893 3.058823529411763  15.74074074074074 3.058823529411763  C 16.032182688271345 3.058823529411763  16.30661631296312 3.1983003833727586  16.481481481481485 3.4352941176470573  Z " fill-rule="nonzero" fill="#ffffff" stroke="none" transform="matrix(1 0 0 1 2786 1746 )" />
  </g>
</svg>