<?xml version="1.0" encoding="utf-8"?>
<svg version="1.1" xmlns:xlink="http://www.w3.org/1999/xlink" width="20px" height="20px" xmlns="http://www.w3.org/2000/svg">
  <g transform="matrix(1 0 0 1 -2826 -1746 )">
    <path d="M 7.037037037037037 2.0987654398148146  L 2.0987654398148146 2.0987654398148146  L 2.0987654398148146 7.037037037037037  L 0.12345678240740732 7.037037037037037  L 0.12345678240740732 0.12345678240740732  L 7.037037037037037 0.12345678240740732  L 7.037037037037037 2.0987654398148146  Z M 19.87654321759259 7.037037037037037  L 17.901234560185184 7.037037037037037  L 17.901234560185184 2.0987654398148146  L 12.96296296296296 2.0987654398148146  L 12.96296296296296 0.12345678240740732  L 19.87654321759259 0.12345678240740732  L 19.87654321759259 7.037037037037037  Z M 0.12345678240740732 12.962962962962962  L 2.0987654398148146 12.962962962962962  L 2.0987654398148146 17.901234560185188  L 7.037037037037037 17.901234560185188  L 7.037037037037037 19.876543217592594  L 0.12345678240740732 19.876543217592594  L 0.12345678240740732 12.962962962962962  Z M 17.901234560185188 17.901234560185184  L 17.901234560185184 12.962962962962962  L 19.87654321759259 12.962962962962962  L 19.87654321759259 19.87654321759259  L 12.962962962962962 19.87654321759259  L 12.962962962962962 17.901234560185184  L 17.901234560185188 17.901234560185184  Z " fill-rule="nonzero" fill="#ffffff" stroke="none" transform="matrix(1 0 0 1 2826 1746 )" />
  </g>
</svg>