<?xml version="1.0" encoding="utf-8"?>
<svg version="1.1" xmlns:xlink="http://www.w3.org/1999/xlink" width="11px" height="12px" xmlns="http://www.w3.org/2000/svg">
  <g transform="matrix(1 0 0 1 -3148 -1973 )">
    <path d="M 10.91722033898305 11.51232  C 10.91722033898305 9.048576000000002  9.372 6.947328000000002  7.230169491525425 6.191616  C 8.125084745762711 5.601792  8.715728813559322 4.569599999999999  8.715728813559322 3.40224  C 8.715728813559322 1.5713279999999998  7.265966101694917 0.08447999999999957  5.47613559322034 0.08447999999999957  C 3.6863050847457624 0.08447999999999957  2.236542372881356 1.5713279999999998  2.236542372881356 3.40224  C 2.236542372881356 4.569599999999999  2.8271864406779668 5.595648  3.722101694915254 6.191616  C 1.5802711864406782 6.947328000000001  0.035050847457627154 9.048576  0.035050847457627154 11.512319999999999  C 0.035050847457627154 11.764224  0.2378983050847458 11.97312  0.4825084745762712 11.97312  C 0.7271186440677968 11.97312  0.9299661016949151 11.764224  0.9299661016949151 11.512319999999999  C 0.9299661016949151 8.919552000000001  2.9703728813559325 6.81216  5.476135593220339 6.81216  C 7.981898305084744 6.81216  10.022305084745764 8.919552000000001  10.022305084745764 11.51232  C 10.022305084745764 11.764224000000002  10.225152542372882 11.973120000000002  10.469762711864407 11.973120000000002  C 10.714372881355931 11.973120000000002  10.91722033898305 11.764224000000002  10.91722033898305 11.51232  Z M 5.482101694915254 5.798399999999999  C 4.187457627118644 5.798399999999999  3.137423728813559 4.7232  3.137423728813559 3.40224  C 3.137423728813559 2.08128  4.187457627118644 1.0060799999999996  5.482101694915254 1.0060799999999996  C 6.776745762711865 1.0060799999999996  7.826779661016951 2.0812799999999996  7.826779661016951 3.40224  C 7.826779661016951 4.7232  6.776745762711865 5.798399999999999  5.482101694915254 5.798399999999999  Z " fill-rule="nonzero" fill="#999999" stroke="none" transform="matrix(1 0 0 1 3148 1973 )" />
  </g>
</svg>