<?xml version="1.0" encoding="utf-8"?>
<svg version="1.1" xmlns:xlink="http://www.w3.org/1999/xlink" width="12px" height="12px" xmlns="http://www.w3.org/2000/svg">
  <g transform="matrix(1 0 0 1 -3209 -1972 )">
    <path d="M 6 11.925587305555558  C 2.7273884973507245 11.925587305555558  0.07441269444444427 9.272611502649278  0.07441269444444427 6  C 0.07441269444444427 2.7273884973507245  2.7273884973507245 0.07441269444444427  6 0.07441269444444427  C 9.272611502649278 0.07441269444444427  11.925587305555558 2.7273884973507245  11.925587305555558 6  C 11.925587305555558 9.272611502649278  9.272611502649278 11.925587305555558  6 11.925587305555558  Z M 6 10.741079361111112  C 8.618145302744072 10.741079361111112  10.740571423611113 8.618653240244072  10.740571423611113 6.0005079375  C 10.740571423611113 3.382362634755927  8.618145302744074 1.2599365138888878  6 1.2599365138888878  C 3.3818546972559282 1.2599365138888878  1.2594285763888884 3.3823626347559275  1.2594285763888884 6.0005079375  C 1.2594285763888884 8.618653240244072  3.3818546972559282 10.741079361111112  6 10.741079361111112  Z M 6.507936513888888 3.460317458333333  C 6.507936506218265 3.179791873254233  6.280525585079101 2.952380958333334  6 2.952380958333334  C 5.7194744149208985 2.952380958333334  5.492063493781732 3.1797918732542323  5.49206348611111 3.4603174583333343  L 5.49206348611111 6.5079365138888905  C 5.492063493781733 6.788462098967992  5.7194744149208985 7.015873013888889  6 7.015873013888889  L 9.047619041666668 7.015873013888889  C 9.328111827939573 7.015826631754818  9.55547156345195 6.788429297052212  9.55547156345195 6.507936506944445  C 9.55547156345195 6.227443716836678  9.328111827939573 6.000046382134071  9.047619041666668 6  L 6.507936513888888 6  L 6.507936513888888 3.460317458333333  Z " fill-rule="nonzero" fill="#999999" stroke="none" transform="matrix(1 0 0 1 3209 1972 )" />
  </g>
</svg>