<?xml version="1.0" encoding="utf-8"?>
<svg version="1.1" xmlns:xlink="http://www.w3.org/1999/xlink" width="12px" height="12px" xmlns="http://www.w3.org/2000/svg">
  <g transform="matrix(1 0 0 1 -3599 -435 )">
    <path d="M 12 6  C 12 2.6879999999999993  9.312000000000001 0  6 0  C 2.6880000000000006 0  0 2.6880000000000006  0 6  C 0 9.312000000000001  2.6880000000000006 12  6 12  C 9.312000000000001 12  12 9.312000000000001  12 6  Z M 11.2 6  C 11.2 8.872  8.872 11.2  6 11.2  C 3.128 11.2  0.8 8.872  0.8 6  C 0.8 3.128  3.128 0.8  6 0.8  C 8.872 0.8  11.2 3.128  11.2 6  Z M 8.679999999999998 8.104  L 6.552 5.96  L 8.656 3.88  C 8.816 3.7199999999999993  8.816 3.4640000000000004  8.656 3.3119999999999994  C 8.496 3.152  8.240000000000002 3.152  8.08 3.3119999999999994  L 5.976000000000001 5.376  L 3.9119999999999995 3.304  C 3.752 3.1439999999999992  3.4959999999999996 3.1439999999999992  3.3440000000000003 3.304  C 3.1839999999999997 3.4640000000000004  3.1839999999999997 3.7199999999999998  3.3440000000000003 3.872  L 5.4 5.943999999999999  L 3.2159999999999993 8.104  C 3.056 8.264  3.056 8.519999999999998  3.2159999999999993 8.672  C 3.376 8.832  3.631999999999999 8.832  3.7919999999999994 8.672  L 5.968 6.52  L 8.111999999999998 8.672  C 8.271999999999998 8.832  8.527999999999999 8.832  8.679999999999998 8.672  C 8.839999999999998 8.512  8.839999999999998 8.256  8.679999999999998 8.104  Z " fill-rule="nonzero" fill="#000000" stroke="none" transform="matrix(1 0 0 1 3599 435 )" />
  </g>
</svg>