<?xml version="1.0" encoding="utf-8"?>
<svg version="1.1" xmlns:xlink="http://www.w3.org/1999/xlink" width="37px" height="37px" xmlns="http://www.w3.org/2000/svg">
  <g transform="matrix(1 0 0 1 -422 -3311 )">
    <path d="M 9.2138671875 2.481119791666665  C 12.048285590277779 0.8270399305555524  15.143663194444446 0  18.5 0  C 21.856336805555557 0  24.951714409722225 0.8270399305555524  27.7861328125 2.481119791666665  C 30.62055121527778 4.135199652777774  32.86480034722223 6.379448784722221  34.518880208333336 9.2138671875  C 36.17296006944444 12.048285590277775  37 15.14366319444444  37 18.5  C 37 21.856336805555557  36.17296006944444 24.951714409722218  34.518880208333336 27.7861328125  C 32.86480034722223 30.62055121527778  30.62055121527778 32.86480034722222  27.7861328125 34.518880208333336  C 24.951714409722225 36.17296006944445  21.856336805555557 37  18.5 37  C 15.143663194444446 37  12.048285590277779 36.17296006944445  9.2138671875 34.518880208333336  C 6.379448784722223 32.86480034722222  4.135199652777779 30.62055121527778  2.481119791666667 27.7861328125  C 0.8270399305555555 24.951714409722218  0 21.856336805555557  0 18.5  C 0 15.14366319444444  0.8270399305555555 12.048285590277775  2.481119791666667 9.2138671875  C 4.135199652777779 6.379448784722221  6.379448784722223 4.135199652777774  9.2138671875 2.481119791666665  Z M 14.645833333333332 27.533203125  L 27.75 19.824869791666668  C 28.263888888888893 19.535807291666668  28.520833333333336 19.094184027777775  28.520833333333336 18.5  C 28.520833333333336 17.90581597222222  28.263888888888893 17.464192708333336  27.75 17.175130208333336  L 14.645833333333332 9.466796875  C 14.148003472222223 9.161675347222221  13.634114583333332 9.153645833333334  13.104166666666668 9.442708333333334  C 12.59027777777778 9.747829861111109  12.333333333333332 10.197482638888888  13 10.791666666666666  L 13 26.208333333333332  C 12.333333333333332 26.802517361111104  12.59027777777778 27.252170138888886  13.104166666666668 27.557291666666668  C 13.361111111111112 27.685763888888886  13.618055555555557 27.75  13.875 27.75  C 14.148003472222223 27.75  14.404947916666668 27.677734375  14.645833333333332 27.533203125  Z " fill-rule="nonzero" fill="#000000" stroke="none" transform="matrix(1 0 0 1 422 3311 )" />
  </g>
</svg>