<?xml version="1.0" encoding="utf-8"?>
<svg version="1.1" xmlns:xlink="http://www.w3.org/1999/xlink" width="60px" height="60px" xmlns="http://www.w3.org/2000/svg">
  <g transform="matrix(1 0 0 1 -2688 -2731 )">
    <path d="M 5.064935045454546 0  L 26.32955843181818 0  C 26.685084046751765 0.07784951817405722  26.991544217363383 0.32802109009207925  27.06264934090909 0.6763636363636365  L 27.067636363636367 0.9356883409090906  L 23.851012977272728 22.474597431818182  C 23.80062431605497 22.822998244996924  23.999967074892087 23.15938913988851  24.329766204545457 23.28249347727273  L 24.58909090909091 23.332363636363638  L 31.516051977272724 23.332363636363638  C 31.9140978171796 23.331797180585255  32.2428751521109 23.64303974909268  32.26410388636363 24.040519500000002  L 32.23418181818181 24.27490909090909  L 30 32.49350652272727  L 27.197298681818182 29.002597431818185  C 26.789017888490847 28.452405860388513  26.144345224689772 28.12801427233211  25.459214601033043 28.12801427233211  C 24.940215632133825 28.12801427233211  24.438496196544346 28.3145094047578  24.045506522727273 28.65350652272727  L 23.72135065909091 29.00259743181818  L 10.545662318181819 46.177870159090915  C 9.458493477272727 47.589194863636365  10.276363636363635 49.62888313636364  11.892155863636363 49.91812984090909  L 12.281142886363636 50  L 27.506493477272727 50  C 27.86666234289202 49.94937303741723  28.174755951596453 50.20716563650166  28.239584386363635 50.561454545454545  L 28.239584386363635 50.82576620454545  L 26.73350652272727 59.30368834090909  C 26.68390660616884 59.58458718180472  26.478875222911594 59.81282965706998  26.204883136363634 59.89215586363636  L 25.99044156818182 60  L 5.064935045454546 60  C 2.5366449848842643 59.92174440946331  0.40864106745458434 58.02947102885655  0.11283115909090956 55.51854545454545  L 0 54.93506495454545  L 0 5.064935045454546  C 0.07825559053668614 2.53664498488427  1.9705289711434537 0.40864106745458045  4.481454545454546 0.11283115909090956  L 5.064935045454546 0  Z M 36.572883136363636 0  L 54.93506495454545 0  C 57.68931616910143 0.07792206818181863  59.92207793181819 2.3106838308985576  60 5.064935045454546  L 60 54.93506495454545  C 59.92174440946332 57.463355015115724  58.02947102885655 59.59135893254541  55.51854545454546 59.88716884090909  L 54.93506495454545 60  L 29.55116884090909 60  C 29.138102218019608 59.92197744687876  28.80329883901569 59.58709261179139  28.80329883901569 59.17402597667964  C 28.80329883901569 59.06921404930473  28.825324506887977 58.96557190768585  28.867948022727273 58.86981818181818  L 32.66306495454545 50.39189611363638  C 32.783193842009084 50.12202660030026  33.05088682393765 49.948123860410256  33.34628570454545 50  L 47.71885711363637 50  C 49.554077863636365 49.948051977272726  50.60135059090909 47.76374031818182  49.49922075 46.23272727272727  L 40.59241561363636 33.854961068181815  C 40.265098698845286 33.38955742801175  39.76980083702385 33.0694912957553  39.21101297727272 32.96228570454546  L 38.81205197727272 32.92737661363637  L 38.41309090909089 32.96228570454546  C 37.853511499839 33.070731868026314  37.35808963736184 33.39266665213095  37.03168834090908 33.859948022727274  L 35.725090909090895 35.67522075  L 34.303792227272716 37.57028570454545  C 34.2229702738313 37.67608953333672  34.11153276331157 37.75444404073213  33.98462338636362 37.794701318181815  L 33.78514288636362 37.824623386363626  C 33.427728581439844 37.82372361274341  33.13846331606166 37.53372921911343  33.13846331606166 37.17631378162266  C 33.13846331606166 37.10151049060144  33.15140899534304 37.027271467625994  33.176727272727256 36.95688313636363  L 39.60997404545453 19.35272727272727  C 39.64065616617286 19.269710095219775  39.65636249357702 19.181906739082656  39.65636249357702 19.093401121785874  C 39.65636249357702 18.680263422657372  39.3214482154328 18.345349144513147  38.9083105163043 18.345349144513147  C 38.90780874533733 18.345349144513147  38.907306974496485 18.345349649372654  38.906805204545435 18.345350659090908  L 33.39116884090909 18.345350659090908  C 32.97873995103966 18.34435142768222  32.644929236279424 18.00973097765531  32.644929236279424 17.59730087732031  C 32.644929236279424 17.550445618800868  32.64933147971793 17.503693990176014  32.65807793181818 17.457662318181818  L 35.83480520454545 0.6863376818181793  C 35.902093408831924 0.3321833758303001  36.212396469682965 0.07639300594910574  36.572883136363636 0  Z M 44.96103893181819 10.051948022727274  C 42.206787698434304 10.051948022727274  39.974025920454544 12.28470980070703  39.974025920454544 15.03896103409091  C 39.974025920454544 17.793212267474793  42.2067876984343 20.025974045454543  44.96103893181819 20.025974045454543  C 47.715290165202056 20.025974045454543  49.94805194318182 17.79321226747479  49.94805194318182 15.03896103409091  C 49.94805194318182 12.284709800707025  47.71529016520206 10.051948022727274  44.96103893181819 10.051948022727274  Z " fill-rule="nonzero" fill="#d7d7d7" stroke="none" transform="matrix(1 0 0 1 2688 2731 )" />
  </g>
</svg>