<?xml version="1.0" encoding="utf-8"?>
<svg version="1.1" xmlns:xlink="http://www.w3.org/1999/xlink" width="8px" height="10px" xmlns="http://www.w3.org/2000/svg">
  <g transform="matrix(1 0 0 1 -106 -277 )">
    <path d="M 7.874325405063292 4.276326004464286  C 7.995490050632912 4.276326004464286  8.031176227848102 4.209171540178572  7.95363811392405 4.127078627232143  L 4.185552670886077 0.13835440848214284  C 4.108001607594938 0.05626149553571428  3.981098683544304 0.05626149553571428  3.9035605696202538 0.13835440848214284  L 0.13547512658227934 4.127078627232143  C 0.057937012658228856 4.209160122767857  0.09362320253164659 4.276326004464285  0.21478783544303884 4.276326004464285  L 2.42540124050633 4.276326004464285  L 2.42540124050633 9.786213158482143  C 2.42540124050633 9.893055  2.524545367088608 9.980458604910714  2.645710000000001 9.980458604910714  L 5.44340324050633 9.980458604910714  C 5.564580822784812 9.980458604910714  5.663712000000002 9.893043582589286  5.663712000000002 9.786213158482143  L 5.663712 4.276326004464286  L 7.874325405063292 4.276326004464286  Z " fill-rule="nonzero" fill="#0fc060" stroke="none" transform="matrix(1 0 0 1 106 277 )" />
  </g>
</svg>