<?xml version="1.0" encoding="utf-8"?>
<svg version="1.1" xmlns:xlink="http://www.w3.org/1999/xlink" width="50px" height="30px" xmlns="http://www.w3.org/2000/svg">
  <g transform="matrix(1 0 0 1 -55 -1142 )">
    <path d="M 1.2451171875 20.82421875  C 0.4150390625 18.97265625  0 17.031249999999996  0 15  C 0 12.968749999999998  0.4150390625 11.02734375  1.2451171875 9.175781250000002  C 2.0751953125000004 7.32421875  3.18603515625 5.730468750000001  4.57763671875 4.39453125  C 5.969238281250001 3.058593749999999  7.62939453125 1.9921875  9.55810546875 1.1953124999999987  C 11.486816406250002 0.39843750000000067  13.509114583333334 0  15.625 0  L 34.375 0  C 36.49088541666667 0  38.51318359375 0.39843750000000067  40.44189453125 1.1953124999999987  C 42.37060546875 1.9921875  44.03076171875 3.058593749999999  45.42236328125 4.39453125  C 46.81396484375 5.730468750000001  47.9248046875 7.32421875  48.7548828125 9.175781250000002  C 49.5849609375 11.02734375  50 12.968749999999998  50 15  C 50 17.031249999999996  49.5849609375 18.97265625  48.7548828125 20.82421875  C 47.9248046875 22.67578125  46.81396484375 24.26953125  45.42236328125 25.60546875  C 44.03076171875 26.94140625  42.37060546875 28.0078125  40.44189453125 28.8046875  C 38.51318359375 29.6015625  36.49088541666667 30  34.375 30  L 15.625 30  C 13.509114583333334 30  11.486816406250002 29.6015625  9.55810546875 28.8046875  C 7.62939453125 28.0078125  5.969238281250001 26.94140625  4.57763671875 25.60546875  C 3.18603515625 24.26953125  2.0751953125000004 22.67578125  1.2451171875 20.82421875  Z M 29.52880859375 26.05078125  C 31.06689453125 26.68359375  32.68229166666667 27  34.375 27  C 36.067708333333336 27  37.68310546875 26.68359375  39.22119140625 26.05078125  C 40.75927734375001 25.41796875  42.08984375000001 24.5625  43.212890625 23.484375  C 44.33593750000001 22.40625  45.22705078125001 21.12890625  45.88623046875 19.65234375  C 46.54541015625001 18.17578125  46.87500000000001 16.624999999999996  46.875 15  C 46.87500000000001 13.375  46.54541015625001 11.82421875  45.88623046875 10.347656250000002  C 45.22705078125001 8.871093749999998  44.33593750000001 7.593749999999998  43.212890625 6.515624999999999  C 42.08984375000001 5.437500000000001  40.75927734375001 4.582031249999999  39.22119140625 3.9492187499999987  C 37.68310546875 3.3164062500000013  36.067708333333336 2.999999999999999  34.375 2.999999999999999  C 32.68229166666667 2.999999999999999  31.06689453125 3.3164062500000013  29.52880859375 3.9492187499999987  C 27.99072265625 4.582031249999999  26.66015625 5.437500000000001  25.537109375 6.515624999999999  C 24.4140625 7.593749999999998  23.52294921875 8.871093749999998  22.86376953125 10.347656250000002  C 22.20458984375 11.82421875  21.875 13.375  21.875 15  C 21.875 16.624999999999996  22.20458984375 18.17578125  22.86376953125 19.65234375  C 23.52294921875 21.12890625  24.4140625 22.40625  25.537109375 23.484375  C 26.66015625 24.5625  27.99072265625 25.41796875  29.52880859375 26.05078125  Z " fill-rule="nonzero" fill="#e7772d" stroke="none" transform="matrix(1 0 0 1 55 1142 )" />
  </g>
</svg>