<?xml version="1.0" encoding="utf-8"?>
<svg version="1.1" xmlns:xlink="http://www.w3.org/1999/xlink" width="16px" height="16px" xmlns="http://www.w3.org/2000/svg">
  <g transform="matrix(1 0 0 1 -687 -3311 )">
    <path d="M 11.171428571428569 10.4  L 8.728571428571428 7.957142857142857  L 11.171428571428569 5.514285714285713  C 11.342857142857142 5.3428571428571425  11.342857142857142 5.0857142857142845  11.171428571428569 4.957142857142857  L 10.999999999999998 4.785714285714286  C 10.828571428571427 4.614285714285714  10.57142857142857 4.614285714285714  10.442857142857141 4.785714285714286  L 8 7.228571428571429  L 5.514285714285713 4.742857142857143  C 5.385714285714285 4.614285714285715  5.171428571428571 4.614285714285715  4.999999999999999 4.742857142857143  L 4.785714285714285 4.957142857142858  C 4.657142857142857 5.085714285714287  4.657142857142857 5.300000000000002  4.785714285714285 5.471428571428572  L 7.2714285714285705 7.957142857142857  L 4.828571428571428 10.4  C 4.657142857142857 10.571428571428571  4.657142857142857 10.828571428571431  4.828571428571428 10.957142857142857  L 4.957142857142856 11.085714285714285  C 5.128571428571428 11.257142857142856  5.385714285714285 11.257142857142856  5.514285714285713 11.085714285714285  L 7.957142857142856 8.642857142857142  L 10.442857142857141 11.12857142857143  C 10.57142857142857 11.257142857142856  10.785714285714286 11.257142857142856  10.957142857142857 11.12857142857143  L 11.171428571428569 10.914285714285715  C 11.299999999999999 10.785714285714288  11.299999999999999 10.571428571428571  11.171428571428569 10.4  Z M 15.585714285714285 7.957142857142856  C 15.585714285714285 3.7571428571428562  12.200000000000001 0.3714285714285714  8 0.3714285714285714  C 3.8000000000000003 0.3714285714285714  0.4142857142857142 3.757142857142857  0.4142857142857142 7.957142857142857  C 0.4142857142857142 12.157142857142857  3.8000000000000003 15.542857142857143  8 15.542857142857143  C 12.200000000000001 15.542857142857143  15.585714285714285 12.157142857142857  15.585714285714285 7.957142857142856  Z M 14.985714285714284 7.957142857142856  C 14.985714285714284 11.814285714285713  11.857142857142858 14.942857142857145  8 14.942857142857145  C 4.142857142857143 14.942857142857145  1.0142857142857147 11.814285714285715  1.0142857142857147 7.957142857142857  C 1.0142857142857147 4.100000000000001  4.142857142857143 0.9714285714285713  8 0.9714285714285713  C 11.857142857142858 0.9714285714285713  14.985714285714284 4.1  14.985714285714284 7.957142857142856  Z " fill-rule="nonzero" fill="#999999" stroke="none" transform="matrix(1 0 0 1 687 3311 )" />
  </g>
</svg>