<?xml version="1.0" encoding="utf-8"?>
<svg version="1.1" xmlns:xlink="http://www.w3.org/1999/xlink" width="14px" height="14px" xmlns="http://www.w3.org/2000/svg">
  <g transform="matrix(1 0 0 1 -1690 -2122 )">
    <path d="M 4.154541015625 1.1467285156250022  C 4.810791015625 0.87841796875  5.5029296875 0.7451171875  6.2138671875 0.7451171875  C 6.9248046875 0.7451171875  7.616943359375 0.880126953125  8.271484375 1.14501953125  C 8.949951171875 1.420166015625  9.558349609374998 1.8234863281250004  10.079589843749998 2.346435546875  C 11.07421875 3.3427734375  11.643310546874998 4.66552734375  11.67919921875 6.072021484375  C 11.715087890625 7.473388671875002  11.22119140625 8.818359375  10.2880859375 9.859130859375  L 10.084716796875 10.086425781249998  L 9.857421875 10.289794921874998  C 8.857666015625 11.18701171875  7.562255859375 11.6826171875  6.212158203125 11.6826171875  C 5.501220703124999 11.6826171875  4.809082031249999 11.547607421875  4.154541015625 11.28271484375  C 3.47607421875 11.007568359375  2.86767578125 10.604248046875  2.346435546875 10.081298828125002  C 1.823486328125 9.558349609375  1.420166015625 8.949951171875  1.1450195312499993 8.273193359375002  C 0.8784179687499994 7.616943359375002  0.7451171874999996 6.923095703125003  0.7451171874999996 6.213867187500003  C 0.7451171874999996 5.502929687500003  0.8801269531249994 4.810791015625003  1.1450195312499993 4.156250000000003  C 1.4201660156249993 3.4777832031250018  1.8234863281249996 2.8693847656250018  2.346435546875 2.3481445312500018  C 2.869384765625 1.825195312500002  3.477783203125 1.4218750000000022  4.154541015625 1.1467285156250022  Z M 10.563232421875 1.86279296875  C 9.36181640625 0.661376953125  7.787841796875 0.0615234375  6.2138671875 0.0615234375  C 4.639892578125 0.0615234375  3.064208984375 0.661376953125  1.86279296875 1.86279296875  C -0.5400390624999997 4.265625  -0.5400390624999997 8.160400390625  1.86279296875 10.563232421875  C 3.064208984375 11.7646484375  4.63818359375 12.3662109375  6.212158203125 12.3662109375  C 7.68017578125 12.3662109375  9.148193359375 11.84326171875  10.313720703125 10.799072265625  L 13.45654296875 13.9384765625  L 13.940185546874998 13.454833984375  L 10.799072265625 10.3154296875  C 12.96435546875 7.900634765625  12.8857421875 4.185302734375  10.563232421875 1.86279296875  Z " fill-rule="nonzero" fill="#81878f" stroke="none" transform="matrix(1 0 0 1 1690 2122 )" />
  </g>
</svg>