<?xml version="1.0" encoding="utf-8"?>
<svg version="1.1" xmlns:xlink="http://www.w3.org/1999/xlink" width="14px" height="14px" xmlns="http://www.w3.org/2000/svg">
  <g transform="matrix(1 0 0 1 -2596 -2289 )">
    <path d="M 13.948377 7.011847968750001  C 13.948377 10.844193640625  10.838149734375001 13.951494890625  7.001263140624999 13.951494890625  C 3.1647283124999994 13.951494890625  0.05560429687499902 10.84417765625  0.05560429687499902 7.011847968750001  C 0.05560429687499902 4.07021040625  1.8865709062499991 1.5570343281250008  4.472401703124999 0.5470471093750007  C 5.253695984374999 0.23186879687500062  6.107261265624999 0.05781081250000075  7.0014390156249995 0.05781081250000075  C 7.896720015625 0.05781081250000075  8.749549796875 0.23169292187500076  9.531579578125 0.5470471093750007  C 12.1172505 1.5570343281249999  13.948377 4.070226390625  13.948377 7.011847968750001  Z M 4.331473265625 5.54831225  C 4.331473265625 6.71779134375  4.930683 7.7303208437499995  5.801740421875 8.225936828125  C 6.1629835 8.431493453125  6.569731718750001 8.550037093750001  7.001263140624999 8.550037093750001  C 7.417652828125 8.550037093750001  7.810218671874999 8.439152281250001  8.16199615625 8.247602140625002  C 9.053631625 7.761451750000003  9.672156265625 6.736546640625002  9.672156265625 5.548504125000002  C 9.672156265625 3.8943296562500014  8.474280421875001 2.5478825468750017  7.001279125 2.5478825468750017  C 5.52917321875 2.54770665625  4.331473265625 3.8941697499999997  4.331473265625 5.54831225  Z M 7.029484015625 13.501783796875  C 9.0589080625 13.501783796875  10.869280640625 12.568464593749999  12.055868125 11.107854875  C 11.915691171875 9.955676046874999  10.792980359375 8.974837062499999  9.204025671875 8.48558478125  C 8.603904546875 9.02544275  7.837176390625 9.350278515625  7.001071281249999 9.350278515625  C 6.146402749999999 9.350278515625  5.364037187499999 9.007966609375  4.758080031249999 8.444620546874999  C 3.2124239843749987 8.8857774375  2.0802795781249985 9.785615359374999  1.8148275624999988 10.863860296875  C 2.99230121875 12.4633998125  4.890086515625 13.501783796875  7.029484015625 13.501783796875  Z " fill-rule="nonzero" fill="#cccccc" stroke="none" transform="matrix(1 0 0 1 2596 2289 )" />
  </g>
</svg>