<?xml version="1.0" encoding="utf-8"?>
<svg version="1.1" xmlns:xlink="http://www.w3.org/1999/xlink" width="28px" height="28px" xmlns="http://www.w3.org/2000/svg">
  <g transform="matrix(1 0 0 1 -915 -945 )">
    <path d="M 19.549999999999997 18.2  L 15.274999999999999 13.925  L 19.549999999999997 9.649999999999999  C 19.849999999999998 9.35  19.849999999999998 8.899999999999999  19.549999999999997 8.675  L 19.249999999999996 8.375  C 18.95 8.075  18.499999999999996 8.075  18.275 8.375  L 14 12.65  L 9.649999999999999 8.3  C 9.424999999999999 8.075000000000001  9.049999999999999 8.075000000000001  8.749999999999998 8.3  L 8.374999999999998 8.675000000000002  C 8.149999999999999 8.900000000000002  8.149999999999999 9.275000000000002  8.374999999999998 9.575000000000001  L 12.724999999999998 13.925  L 8.45 18.2  C 8.149999999999999 18.5  8.149999999999999 18.950000000000003  8.45 19.175  L 8.674999999999999 19.4  C 8.975 19.7  9.424999999999999 19.7  9.649999999999999 19.4  L 13.924999999999999 15.125  L 18.275 19.475  C 18.499999999999996 19.7  18.875 19.7  19.175 19.475  L 19.549999999999997 19.1  C 19.775 18.875000000000004  19.775 18.5  19.549999999999997 18.2  Z M 27.275 13.924999999999999  C 27.275 6.574999999999998  21.35 0.6499999999999999  14 0.6499999999999999  C 6.65 0.6499999999999999  0.7249999999999999 6.575  0.7249999999999999 13.925  C 0.7249999999999999 21.275  6.65 27.2  14 27.2  C 21.35 27.2  27.275 21.275  27.275 13.924999999999999  Z M 26.224999999999998 13.924999999999999  C 26.224999999999998 20.674999999999997  20.75 26.150000000000002  14 26.150000000000002  C 7.250000000000001 26.150000000000002  1.7750000000000008 20.675  1.7750000000000008 13.925  C 1.7750000000000008 7.1750000000000025  7.250000000000001 1.6999999999999997  14 1.6999999999999997  C 20.75 1.6999999999999997  26.224999999999998 7.174999999999999  26.224999999999998 13.924999999999999  Z " fill-rule="nonzero" fill="#000000" stroke="none" transform="matrix(1 0 0 1 915 945 )" />
  </g>
</svg>