<?xml version="1.0" encoding="utf-8"?>
<svg version="1.1" xmlns:xlink="http://www.w3.org/1999/xlink" width="22px" height="6px" xmlns="http://www.w3.org/2000/svg">
  <g transform="matrix(1 0 0 1 -225 -956 )">
    <path d="M 5.748530164062499 2.9976482460937497  C 5.748530164062499 4.4463295820312485  4.5726524453125 5.622207300781252  3.1239711093749993 5.622207300781252  C 1.6752897734375 5.622207300781252  0.49941205468749983 4.446329582031252  0.49941205468749983 2.9976482460937497  C 0.49941205468749983 1.548966910156249  1.6752897734375 0.3730891914062493  3.1239711093749993 0.3730891914062493  C 4.5726524453125 0.3730891914062493  5.748530164062499 1.5489669101562509  5.748530164062499 2.9976482460937497  Z M 13.622207300781252 2.9976482460937497  C 13.622207300781252 4.4463295820312485  12.446329582031249 5.622207300781252  10.99764824609375 5.622207300781252  C 9.54896691015625 5.622207300781252  8.37308919140625 4.446329582031252  8.37308919140625 2.9976482460937497  C 8.37308919140625 1.548966910156249  9.54896691015625 0.3730891914062493  10.99764824609375 0.3730891914062493  C 12.446329582031249 0.3730891914062493  13.622207300781252 1.5489669101562509  13.622207300781252 2.9976482460937497  Z M 21.500587945312503 2.9976482460937497  C 21.500587945312503 4.4463295820312485  20.32000671875 5.622207300781252  18.876028890625 5.622207300781252  C 17.4273475546875 5.622207300781252  16.2514698359375 4.446329582031252  16.2514698359375 2.9976482460937497  C 16.2514698359375 1.548966910156249  17.4273475546875 0.3730891914062493  18.876028890625 0.3730891914062493  C 20.3247102265625 0.3730891914062493  21.500587945312503 1.5489669101562509  21.500587945312503 2.9976482460937497  Z " fill-rule="nonzero" fill="#000000" stroke="none" transform="matrix(1 0 0 1 225 956 )" />
  </g>
</svg>