<?xml version="1.0" encoding="utf-8"?>
<svg version="1.1" xmlns:xlink="http://www.w3.org/1999/xlink" width="28px" height="28px" xmlns="http://www.w3.org/2000/svg">
  <g transform="matrix(1 0 0 1 -385 -1023 )">
    <path d="M 27.117587890625 14  C 27.117587890625 12.229531249999999  26.770654296874998 10.5115625  26.086396484375 8.893759765625  C 25.4256640625 7.331621093749998  24.4799609375 5.928857421875  23.27556640625 4.7244628906249995  C 22.071171875 3.5200683593749993  20.668408203125 2.5743652343749996  19.106240234375 1.9136328124999993  C 17.4884375 1.2293457031249995  15.77046875 0.8823828124999995  14 0.8823828124999995  C 12.229531249999999 0.8823828124999995  10.5115625 1.229345703125  8.893759765625 1.913603515625  C 7.331621093749998 2.5743359375  5.928857421875 3.520039062499999  4.7244628906249995 4.72443359375  C 3.5200683593749993 5.928828125000001  2.5743652343749996 7.331591796874999  1.9136328124999993 8.89373046875  C 1.2293457031249995 10.5115625  0.8823828124999995 12.229531249999999  0.8823828124999995 14  C 0.8823828124999995 15.77046875  1.2293457031249995 17.4884375  1.913603515624999 19.106240234375  C 2.5743359374999994 20.668378906250002  3.520039062499999 22.071142578125  4.72443359375 23.27556640625  C 5.928828124999999 24.4799609375  7.331591796874999 25.425693359375  8.89373046875 26.086396484375  C 10.511533203125001 26.770654296874998  12.229531249999999 27.1176171875  13.999970703125001 27.1176171875  C 15.770410156250001 27.1176171875  17.488408203125 26.770654296874998  19.106210937500002 26.086396484375  C 20.668349609375003 25.4256640625  22.07111328125 24.4799609375  23.275537109375 23.27556640625  C 24.4799609375 22.071171875  25.4256640625 20.668408203125  26.0863671875 19.106240234375  C 26.770625 17.4884375  27.117587890625 15.77046875  27.117587890625 14  Z M 25.257382812499998 14  C 25.257382812499998 20.207333984374998  20.207333984374998 25.257382812499998  14 25.257382812499998  C 7.7926660156250005 25.257382812499998  2.7426171874999996 20.207333984374998  2.7426171874999996 13.999999999999998  C 2.7426171874999996 7.792666015624999  7.7926660156250005 2.7426171875  14 2.7426171875  C 20.207333984374998 2.7426171875  25.257382812499998 7.7926660156250005  25.257382812499998 14  Z M 21.5 14  C 21.5 13.482236328125  21.132734375000002 13.0625  20.6796875 13  L 7.3203125 13  C 6.867265625 13.0625  6.5 13.482236328125  6.5 14  C 6.5 14.517763671874999  6.867265625 14.937500000000002  7.3203125 15  L 20.6796875 15  C 21.132734375000002 14.937500000000002  21.5 14.517763671874999  21.5 14  Z " fill-rule="nonzero" fill="#000000" stroke="none" transform="matrix(1 0 0 1 385 1023 )" />
  </g>
</svg>