<?xml version="1.0" encoding="utf-8"?>
<svg version="1.1" xmlns:xlink="http://www.w3.org/1999/xlink" width="26px" height="24px" xmlns="http://www.w3.org/2000/svg">
  <g transform="matrix(1 0 0 1 -598 -948 )">
    <path d="M 13 21.976250009765625  L 13.343749990234375 21.639375  L 14.315625009765625 20.685  L 17.236249990234374 17.819375009765626  C 19.315624990234372 15.779375009765623  20.761249990234372 14.36312501953125  21.300000009765622 13.838124990234377  C 23.028750009765623 12.15312498046875  24.031875009765624 10.284999990234377  24.21874999023437 8.440625009765627  C 24.401875 6.6406250097656265  23.764999990234372 4.9325000097656275  22.414375 3.6162500097656265  C 21.096249999999998 2.3318750097656267  19.5175 1.8025000195312515  17.813749990234374 2.066250000000002  C 16.3675 2.2893750000000015  14.853749980468747 3.0806250000000013  13.418749990234375 4.376250000000002  C 13.180863056967658 4.5909490776683715  12.819136943032344 4.5909490776683715  12.581250009765624 4.376250000000002  C 11.14625001953125 3.080625000000002  9.6325 2.2893750000000024  8.186250009765624 2.0656250097656272  C 6.482499999999998 1.803125009765627  4.903749999999999 2.3318750097656276  3.585624999999998 3.6162500097656274  C 2.2350000097656233 4.9325000097656275  1.5981249999999982 6.640000019531252  1.7806249902343732 8.441250000000002  C 1.9681249902343736 10.284999990234377  2.971249990234374 12.153750000000002  4.699999990234373 13.838124990234377  C 6.1264206587317815 15.231464482881641  7.551421398569998 16.626256876958024  8.974999990234371 18.0225  L 9.685624990234372 18.718749990234375  L 13 21.976250009765625  Z M 13 21.976875  L 12.956250009765625 22.018749990234376  C 12.96778941052069 22.006974100224777  12.983514423993029 22.000234807232324  13 21.999999990234375  C 13.014999999999999 21.999999990234375  13.030624990234376 22.006249980468752  13.043749990234375 22.018749990234376  L 13 21.97625000976563  Z M 17.622499990234374 0.8306249999999986  C 19.72124998046875 0.5056250097656236  21.69187498046875 1.1668749902343736  23.286874990234374 2.721249990234374  C 24.90749998046875 4.301249999999999  25.684375 6.383124990234373  25.463124999999998 8.566874999999998  C 25.24437499023437 10.724375009765623  24.09937500976562 12.854999999999997  22.1725 14.733125009765626  C 21.634999990234373 15.25750001953125  20.190000009765622 16.67312501953125  18.116250009765626 18.706875  C 17.18375001953125 19.621875  16.19125 20.595  15.191250009765623 21.5775  L 14.21875 22.531250009765625  L 13.832500000000005 22.910625000000003  C 13.370307531096888 23.36453327160902  12.62969246890312 23.36453327160902  12.167500000000002 22.910625000000003  L 8.809999990234378 19.610625000000002  L 8.100625000000003 18.915624990234377  C 6.676459966532423 17.521243834661455  5.252084945936368 16.12707715434595  3.8275000000000023 14.73312500976563  C 1.900624990234375 12.854999999999997  0.7562500000000001 10.725000000000001  0.5374999902343749 8.566875  C 0.3162499902343745 6.383124990234375  1.092499990234375 4.30125  2.71375 2.7212499902343747  C 4.3087500097656255 1.1668749902343745  6.279375009765625 0.5062499999999992  8.378125 0.8306249999999995  C 9.935625009765625 1.0712499902343744  11.515624990234375 1.8468749999999998  13.000624990234376 3.0849999902343743  C 14.486249980468754 1.8474999902343736  16.065625 1.0712499902343744  17.623125009765626 0.8306249999999995  Z " fill-rule="nonzero" fill="#3d3d3d" stroke="none" transform="matrix(1 0 0 1 598 948 )" />
  </g>
</svg>