<?xml version="1.0" encoding="utf-8"?>
<svg version="1.1" xmlns:xlink="http://www.w3.org/1999/xlink" width="8px" height="8px" xmlns="http://www.w3.org/2000/svg">
  <g transform="matrix(1 0 0 1 -863 -1029 )">
    <path d="M 7.976567555539599 6.825857704650892  C 7.976567555539599 7.341015611290585  7.543793063151354 7.758791963105332  7.009555555555557 7.759357142857141  C 6.752885133697313 7.759668191511906  6.506665349701991 7.661345743336126  6.325370370370373 7.486142857142856  L 0.4635185185185243 1.8333214285714294  C 0.2820362090894748 1.658357704358232  0.18007727663023876 1.4210337170589753  0.18007727663023876 1.1735714285714292  C 0.18007727663023876 0.9261091400838849  0.2820362090894748 0.6887851527846242  0.4635185185185222 0.5138214285714265  C 0.6449156481088557 0.33872210590165047  0.8910554284876795 0.24033712934548696  1.147722222222226 0.24033712934548696  C 1.4043890159567725 0.24033712934548696  1.6505287963355963 0.33872210590165047  1.8319259259259297 0.5138214285714265  L 7.693777777777781 6.166499999999997  C 7.8748664557072905 6.3415058064564915  7.976567555539599 6.578633910154715  7.976567555539599 6.825857704650892  Z " fill-rule="nonzero" fill="#2c2c2c" stroke="none" transform="matrix(1 0 0 1 863 1029 )" />
  </g>
</svg>