<?xml version="1.0" encoding="utf-8"?>
<svg version="1.1" xmlns:xlink="http://www.w3.org/1999/xlink" width="30px" height="22px" xmlns="http://www.w3.org/2000/svg">
  <g transform="matrix(1 0 0 1 -849 -1022 )">
    <path d="M 29.7956625 18.454982638888886  C 29.7956625 20.258180555555555  28.3552875 21.72522916666666  26.584875 21.72522916666667  L 9.7615125 21.72522916666667  C 8.7919125 21.72522916666667  7.879725000000001 21.290347222222227  7.2586125 20.532149305555556  L 0.74265 12.560319444444445  C 0.38340000000000013 12.107218750000001  0.19083749999999994 11.55714236111111  0.19102499999999978 10.99980902777778  C 0.19124999999999978 10.465927083333332  0.3502124999999999 9.964357638888888  0.6508875000000001 9.549375  C 0.6624000000000001 9.533524305555554  0.6741375000000002 9.518055555555554  0.6865874999999999 9.503236111111109  L 7.2459 1.4827083333333309  C 7.864029999317592 0.7160307868814415  8.78746513492825 0.27252838696348525  9.761474999999999 0.2745416666666662  L 26.584875 0.2745416666666662  C 28.3552875 0.2745416666666662  29.7956625 1.7414374999999995  29.7956625 3.544635416666667  L 29.7956625 18.454982638888886  Z M 8.755574999999999 2.7547743055555576  L 2.215875 10.751430555555556  C 2.1849749999999997 10.798562500000001  2.150625 10.873652777777778  2.150625 11.000381944444444  C 2.150625 11.101673611111112  2.189775 11.209038194444442  2.2581 11.29528125  L 8.763824999999999 19.25462152777778  C 9.011986285409447 19.55417958008851  9.37666013265281 19.727802606727163  9.761474999999999 19.72960763888889  L 26.584875 19.72960763888889  C 27.27572332053695 19.728849811834632  27.835580951619452 19.158624446843195  27.836325 18.454982638888893  L 27.836325 3.5446354166666696  C 27.835477645465648 2.841068189137036  27.27565021533104 2.2709590144621137  26.584875 2.2702013888888906  L 9.761474999999999 2.2702013888888906  C 9.372286613744897 2.272132950089106  9.003935946965072 2.4495787766698927  8.755574999999999 2.7547743055555576  Z " fill-rule="nonzero" fill="#2c2c2c" stroke="none" transform="matrix(1 0 0 1 849 1022 )" />
  </g>
</svg>