<?xml version="1.0" encoding="utf-8"?>
<svg version="1.1" xmlns:xlink="http://www.w3.org/1999/xlink" width="24px" height="24px" xmlns="http://www.w3.org/2000/svg">
  <g transform="matrix(1 0 0 1 -776 -1021 )">
    <path d="M 23.289205605468744 12  C 23.289205605468744 5.779416708984375  18.228382412109372 0.7186535156250007  12.007859121093748 0.7186535156250002  C 5.787335830078124 0.7186535156250002  0.7265126367187489 5.779416708984375  0.7265126367187489 12  C 0.7265126367187489 18.220583291015625  5.7873058300781235 23.281346484375  12.007859121093748 23.281346484375  C 18.228412412109375 23.281346484375  23.289205605468744 18.220583291015625  23.289205605468744 12  Z M 22.231554052734374 12  C 22.231554052734374 17.637358623046875  17.645217714843753 22.223724931640625  12.007859121093748 22.223724931640625  C 6.370500498046875 22.223724931640625  1.7841341894531233 17.63735859375  1.7841341894531233 11.999999999999998  C 1.7841341894531233 6.362641376953123  6.370470527343748 1.7762750683593733  12.007859121093748 1.7762750683593733  C 17.645247714843748 1.7762750683593733  22.231554052734374 6.3626413769531265  22.231554052734374 12  Z M 17.838666064453125 8.453047265625  C 18.04516294921875 8.246610380859376  18.380015419921875 8.246610380859376  18.5865123046875 8.453017265624997  C 18.793039160156248 8.659574121093748  18.793039160156248 8.994366621093747  18.5865123046875 9.200923505859372  L 11.60617412109375 16.181261689453127  C 11.604344326171875 16.183121484375  11.602304560546875 16.18465130859375  11.600474736328124 16.1864211328125  C 11.594235439453126 16.192480458984377  11.587726171875 16.198059843750002  11.581306904296873 16.203759169921877  C 11.573597753906249 16.210508408203125  11.565888632812499 16.217257646484377  11.557939511718748 16.223526972656252  C 11.551160273437498 16.228836386718754  11.544261035156248 16.23372583007813  11.537301826171875 16.238675273437508  C 11.522361641098437 16.249256213319146  11.50690426098546 16.259087263084176  11.49098701171875 16.268131962890628  C 11.48168806640625 16.27329137695313  11.472329091796873 16.278270820312503  11.462820175781248 16.28286032226563  C 11.456040937499997 16.28609997070313  11.44929169921875 16.28945958984375  11.442422460937498 16.292429238281255  C 11.432163603515624 16.29689874023438  11.421754775390623 16.301098271484378  11.411285947265624 16.30487786132813  C 11.4047766796875 16.307217597656255  11.398327412109374 16.31018727539063  11.391728115234374 16.31225704101563  C 11.380449375 16.31582663085938  11.369020664062498 16.319906191406254  11.357531953125 16.32266586914063  C 11.351502626953124 16.324195693359382  11.34550330078125 16.328035253906254  11.339443974609372 16.329265136718753  C 11.326605410156247 16.33196484375  11.313646874999998 16.338234140625005  11.300688310546873 16.339943935546877  C 11.295798867187498 16.34057387695313  11.290969394531247 16.332834726562503  11.286049951171872 16.333314667968754  C 11.268171943359373 16.33517446289063  11.250203964843747 16.33631434570313  11.232235986328122 16.33631434570313  C 11.215887802734375 16.33631434570313  11.199809619140625 16.33538446289063  11.183761406250001 16.333854609375003  C 11.179261904296876 16.333434667968753  11.174792402343751 16.323805722656253  11.170292929687502 16.32326578125  C 11.158714218750001 16.32194592773438  11.147195507812501 16.32482560546875  11.135706796875 16.322695869140627  C 11.130187412109375 16.321645986328125  11.12472802734375 16.322485898437503  11.119208642578126 16.321316015625  C 11.108919785156251 16.319036279296878  11.098660957031251 16.31771642578125  11.088462099609377 16.314896718750003  C 11.082402773437503 16.313186923828127  11.076433447265627 16.3118070703125  11.070464121093751 16.3098573046875  C 11.061045175781251 16.30682765625  11.051656230468751 16.303857978515627  11.042387255859378 16.300288359375  C 11.035997958984376 16.29779865234375  11.029668691406252 16.29539891601563  11.023399365234376 16.29263923828125  C 11.01474471180409 16.288922433449837  11.00619252987256 16.284971418224618  10.997752265625001 16.280790556640625  C 10.991212998046876 16.277550908203125  10.984703730468752 16.274341289062498  10.97825443359375 16.270771669921874  C 10.970235730731273 16.2663628886063  10.962352965791169 16.261711255944643  10.954617070312501 16.25682322265625  C 10.948137802734376 16.252833662109378  10.941628535156251 16.248904101562502  10.935299238281251 16.244554599609376  C 10.927554397048766 16.239162692601326  10.919942967706405 16.233581639407547  10.912471816406251 16.227816474609376  C 10.906592460937501 16.22328697265625  10.900623134765627 16.218997470703126  10.894893779296877 16.214257998046875  C 10.893693925781252 16.213208115234373  10.892434042968752 16.212398203124998  10.891234189453128 16.211438320312503  L 6.378719589843749 12.404054736328128  C 6.1554845800781255 12.215735830078128  6.127227744140626 11.882053212890625  6.315546650390626 11.658818203125  C 6.503925556640626 11.435643193359375  6.837548173828125 11.407356357421875  7.060723212890625 11.59567529296875  L 11.201879384765624 15.089773945312501  L 17.838666064453125 8.453047265625  Z " fill-rule="nonzero" fill="#272636" stroke="none" transform="matrix(1 0 0 1 776 1021 )" />
  </g>
</svg>