<?xml version="1.0" encoding="utf-8"?>
<svg version="1.1" xmlns:xlink="http://www.w3.org/1999/xlink" width="30px" height="30px" xmlns="http://www.w3.org/2000/svg">
  <g transform="matrix(1 0 0 1 -928 -1018 )">
    <path d="M 29.9750390625 15.012509765625001  C 29.975009765625 6.735  23.265 0.024990234375  14.987490234374999 0.024990234375  C 6.828134765625 0.024990234375  0.19189453125 6.5462402343749995  0.00439453125 14.660625  C 0.17753906249999998 7.580009765625  5.56125 1.8987597656250002  12.177539062500001 1.8987597656250002  C 18.90251953125 1.8987597656250002  24.35501953125 7.770615234374999  24.35501953125 15.012509765625001  C 24.35501953125 16.564365234375  25.613144531249997 17.823134765625003  27.165029296874998 17.823134765625003  C 28.716298828124998 17.823134765625003  29.9750390625 16.564365234375  29.9750390625 15.012509765625001  Z M 0 15.012509765625001  C 0 23.289990234375  6.710009765625 30  14.987490234374999 30  C 23.146874999999998 30  29.783115234375 23.47875  29.97 15.364365234375  C 29.7975 22.444365234375  24.413759765625 28.126875000000002  17.797500000000003 28.126875000000002  C 11.072490234375001 28.126875000000002  5.619990234375002 22.254375000000003  5.619990234375002 15.012509765625005  C 5.619990234375002 13.461240234375005  4.361250000000002 12.202500000000004  2.8093652343750017 12.202500000000004  C 1.258740234375 12.2025  0 13.460625  0 15.012509765625001  Z " fill-rule="nonzero" fill="#000000" stroke="none" transform="matrix(1 0 0 1 928 1018 )" />
  </g>
</svg>