<?xml version="1.0" encoding="utf-8"?>
<svg version="1.1" xmlns:xlink="http://www.w3.org/1999/xlink" width="31px" height="31px" xmlns="http://www.w3.org/2000/svg">
  <g transform="matrix(1 0 0 1 -996 -944 )">
    <path d="M 15.313330078125002 0.0587109375  C 14.542001953125002 0.063251953125  13.924394531250002 0.687890625  13.916572265625001 1.486318359375  C 13.909042968750002 2.2622460937499995  13.914960937500002 3.038291015625  13.915107421875001 3.8142773437499997  C 13.915224609375002 4.61279296875  13.904384765625002 5.411484375  13.918330078125003 6.209707031249999  C 13.932216796875002 7.00271484375  14.563447265625001 7.590820312499999  15.364072265625001 7.583906249999999  C 16.132177734375 7.577285156249999  16.758017578125003 6.96837890625  16.762119140625 6.193828124999999  C 16.770615234375 4.619326171875  16.771259765625 3.044794921874999  16.7614453125 1.470380859374999  C 16.756376953125 0.659443359374999  16.12072265625 0.05399414062499906  15.313300781250001 0.058710937499998894  Z M 11.944218750000001 6.754541015625001  C 11.169169921875001 5.374160156250001  10.374726562500001 4.004619140625001  9.574013671875 2.638974609375  C 9.3301171875 2.222958984375  8.939853515625 2.01609375  8.451826171875002 2.0136621093750002  C 7.422246093750001 2.013984375  6.794208984375001 3.096591796875  7.309628906250001 4.011093750000001  C 8.070380859375001 5.36091796875  8.844550781250001 6.7032421875  9.623701171875002 8.042607421875001  C 10.003330078125002 8.695224609375  10.796953125000002 8.901767578125002  11.434775390625001 8.537255859375001  C 12.0591796875 8.180361328125  12.304248046875001 7.395791015625001  11.944218750000001 6.754541015625001  Z M 2.347236328124999 7.782480468749998  C 1.989697265624999 8.405332031249998  2.201572265624999 9.11912109375  2.8735839843749997 9.5101171875  C 4.1721386718749995 10.265712890625  5.474853515625 11.014072265625  6.775927734374999 11.765390625000002  C 6.9727148437499995 11.878974609375001  7.1768554687499995 11.967685546875  7.411376953124999 11.953095703125001  C 8.001357421874998 11.957636718749999  8.465302734375 11.60337890625  8.622041015625 11.0288671875  C 8.768173828124999 10.493408203125  8.543320312499999 9.95220703125  8.028925781249999 9.651943359375  C 6.721728515624999 8.888847656249999  5.4111035156249985 8.131728515625  4.100097656249999 7.375253906249998  C 3.4400390624999986 6.994394531249998  2.699150390624999 7.169384765624999  2.347236328124999 7.782480468749998  Z M 1.6211425781250006 16.42265625  C 2.3722265625000007 16.426318359375  3.123281250000001 16.423535156249997  3.87439453125 16.423212890625  C 4.6478906250000005 16.422861328125002  5.4214453125 16.42921875  6.194853515625001 16.420986328124997  C 6.880458984375 16.413662109374997  7.341914062500001 15.940107421874998  7.331337890625001 15.274453124999997  C 7.321289062500001 14.641494140624998  6.835986328125001 14.179628906249999  6.172001953125001 14.178955078124996  C 4.658583984375001 14.177402343749998  3.1452539062500007 14.177255859374998  1.6318652343750006 14.180244140624996  C 0.9237890625000006 14.181650390624997  0.4388964843750007 14.648203124999997  0.44320312500000064 15.313652343749997  C 0.4474511718750006 15.962695312499998  0.9289453125000006 16.419345703124996  1.6211425781250006 16.42265625  Z M 8.31884765625 19.359082031249997  C 8.044130859374999 18.881982421875  7.4417578125 18.697734375  6.945996093749999 18.98009765625  C 5.582548828125 19.756611328124997  4.227597656249999 20.548417968749998  2.8732324218749996 21.34083984375  C 2.547978515624999 21.531152343749998  2.3953417968749995 21.834609375  2.3907128906249993 22.083837890625  C 2.3921777343749993 22.979033203125  3.1881738281249996 23.488886718749995  3.8670410156249995 23.111572265625  C 5.248212890624999 22.344111328125  6.612451171875 21.545361328124997  7.97255859375 20.740634765625  C 8.475673828125 20.4430078125  8.6021484375 19.85115234375  8.31884765625 19.359052734375  Z M 11.698125000000001 23.32986328125  C 11.69865234375 22.807851562499998  11.426718750000001 22.455205078124997  11.01123046875 22.337167968750002  C 10.592988281250001 22.218339843749998  10.2012890625 22.379736328125  9.96005859375 22.796279296875  C 9.20125432995292 24.10699059246499  8.446621605287865 25.420112471190528  7.696171875000001 26.735625  C 7.402792968750001 27.249755859375  7.524199218750001 27.781025390625  7.982109375 28.054716796875  C 8.451796875 28.335380859375  8.985498046875001 28.173662109374998  9.292265625 27.644589843749998  C 10.040888671875 26.35376953125  10.783505859375001 25.059404296874998  11.529697265625 23.767148437499998  C 11.626611328125001 23.599277343749996  11.696484375 23.42484375  11.698125000000001 23.32986328125  Z M 15.331054687499998 23.635078125  C 14.85046875 23.63771484375  14.530078125 23.9840625  14.526855468749998 24.518759765625003  C 14.52234375 25.261376953125  14.52568359375 26.004052734375  14.52568359375 26.7467578125  L 14.523632812499999 26.7467578125  C 14.523632812499999 27.511875  14.519707031249999 28.277109375000002  14.524980468749998 29.042226562499998  C 14.52861328125 29.5775390625  14.848857421874998 29.923271484375  15.3290625 29.92728515625  C 15.825468749999999 29.931328125  16.1511328125 29.580849609375  16.152421875 29.026611328125  C 16.155849609375 27.530126953125  16.156376953125 26.033525390624998  16.15447265625 24.536953125  C 16.153828125 23.986552734375  15.825556640625003 23.6323828125  15.331083984375 23.635078125  Z M 22.850009765625003 26.92470703125  C 22.08708984375 25.565712890625  21.307148437500004 24.2162109375  20.5219921875 22.8699609375  C 20.302880859375 22.494287109375  19.8802734375 22.400507812500003  19.532167968750002 22.609892578125002  C 19.196484375000004 22.811865234375002  19.076367187500004 23.214140625000002  19.282734375000004 23.577363281250005  C 20.052597656250004 24.932548828125  20.833007812500004 26.281640625000005  21.615058593750003 27.629765625000005  C 21.747275390625003 27.857607421875006  21.956601562500005 27.980302734375005  22.22806640625 27.976113281250004  C 22.771757812500002 27.972041015625003  23.122324218750002 27.409833984375005  22.850009765625003 26.92470703125  Z M 27.551484375 21.663281250000004  C 26.224702569556083 20.894033468701096  24.89716286193778 20.12609364239551  23.568867187499997 19.359462890625004  C 23.430996093749997 19.279892578125004  23.283398437499997 19.232314453125003  23.118867187499998 19.272744140625  C 22.851591796874995 19.338339843750003  22.681083984374997 19.508115234375  22.635117187499997 19.773662109375  C 22.579921874999997 20.092236328125  22.747734374999997 20.307070312500002  23.012753906249994 20.459912109375  C 23.885507812499995 20.963291015625  24.757646484374995 21.467578125  25.630136718749995 21.971337890625  C 26.076152343749996 22.228857421875  26.515957031249997 22.497978515625  26.970263671875 22.739853515625  C 27.400107421875 22.968691406250002  27.879638671874996 22.680263671875  27.880107421875 22.211484375  C 27.878056640624997 21.964277343750002  27.760136718749997 21.784218750000004  27.551484375 21.663251953125002  Z M 28.983134765625003 14.789267578125001  C 28.254521484375 14.786572265625  27.5259375 14.788535156250001  26.797294921875 14.788535156250001  L 26.797294921875 14.786982421875  C 26.057490234375003 14.786982421875  25.317626953125004 14.784873046875001  24.5778515625 14.787861328125  C 24.183808593749998 14.789326171875  23.963671875000003 14.973398437500002  23.9578125 15.294316406250001  C 23.951894531249998 15.620478515625003  24.16494140625 15.807626953125  24.5630859375 15.808505859375003  C 26.042724609375 15.811816406250005  27.522363281249998 15.812431640625004  29.002031249999998 15.810673828125001  C 29.393437499999997 15.810263671875001  29.622304687499998 15.621005859375  29.628515625 15.30873046875  C 29.63478515625 14.990947265625001  29.390830078124996 14.790820312500001  28.983134765625 14.789296875  Z M 22.8933984375 10.937490234375002  C 23.035048828125 11.167617187500001  23.247480468750002 11.196181640625  23.4767578125 11.063818359374999  C 24.797531519838504 10.301339613882298  26.117502953096587 9.537472003854203  27.436669921875 8.772216796874998  C 27.579140625 8.68951171875  27.678076171875 8.571386718749999  27.674619140624998 8.39296875  C 27.670986328124997 8.069736328124998  27.346962890625 7.882617187499998  27.045322265624996 8.055263671875  C 25.711875 8.818359375  24.383496093749997 9.59009765625  23.056640625 10.36453125  C 22.8322265625 10.495488281250001  22.74849609375 10.70203125  22.8933984375 10.937490234375002  Z M 19.629375000000007 7.2568945312499995  C 19.537792968750008 7.467744140625  19.678300781250005 7.686035156250001  19.893955078125 7.691660156249999  C 20.04580078125 7.684423828124999  20.13380859375 7.591728515624999  20.204326171875003 7.46748046875  C 20.3483203125 7.21376953125  20.498027343750003 6.963369140625  20.643603515625003 6.710537109375  C 21.242724609375003 5.6699414062499995  21.842460937500004 4.62978515625  22.438974609375006 3.587724609375  C 22.587919921875002 3.3275683593750003  22.527597656250002 3.09955078125  22.299345703125006 3.04482421875  C 22.074521484375005 2.9909179687500003  21.979804687500003 3.1529296875000004  21.887636718750006 3.3131835937500003  C 21.216035156250005 4.4803125  20.543789062500004 5.647177734375  19.872392578125005 6.81451171875  C 19.788486328125003 6.96041015625  19.696025390625003 7.10314453125  19.629375000000007 7.2568945312499995  Z " fill-rule="nonzero" fill="#000000" stroke="none" transform="matrix(1 0 0 1 996 944 )" />
  </g>
</svg>