<?xml version="1.0" encoding="utf-8"?>
<svg version="1.1" xmlns:xlink="http://www.w3.org/1999/xlink" width="25px" height="25px" xmlns="http://www.w3.org/2000/svg">
  <g transform="matrix(1 0 0 1 -678 -947 )">
    <path d="M 5.750000009765625 23.00187499023437  C 5.750000009765625 22.999374999999997  19.2 22.987499980468748  19.2 22.987500009765625  C 20.281250009765625 22.986875019531247  21.33375 22.102500009765624  21.523125 21.037500009765626  L 23.01999999023438 12.628125009765625  C 23.31499998046875 10.97375001953125  22.22625 9.683125  20.548125000000002 9.695625009765624  L 20.247500009765627 9.698125  C 19.731463251083547 9.702349356839823  19.215421129464914 9.70589102986176  18.699375 9.708750009765625  C 18.145217166175065 9.713175693849935  17.59103282405931 9.713175693849935  17.036874990234377 9.708750009765625  L 16.12875 9.69625  L 16.465625009765624 8.8525  C 16.765625009765625 8.101249990234374  17.103125009765623 6.047499999999999  17.095625009765623 5.101875009765624  C 17.0775 2.9618750195312487  16.176875009765624 1.7368749999999993  15.065625000000002 1.7499999999999987  C 13.700000009765622 1.7662500097656242  13.030625009765625 2.437500009765624  13.034375009765622 4.419999999999999  C 13.040624999999997 7.7206249902343735  10.041875009765624 11.044374999999999  6.438749999999999 11.014999990234374  C 6.237295305359618 11.013288395457485  6.035829704406003 11.013288395457485  5.834375009765624 11.014999990234374  L 5.731250009765624 11.01625  C 5.725625009765624 11.01625  5.750000009765625 23.00187499023437  5.750000009765625 23.00187499023437  Z M 18.693125009765623 8.458749999999998  C 19.207714046048366 8.45609260296601  19.722298135869934 8.452550927815127  20.236875 8.448124990234374  L 20.538125009765626 8.445625  C 22.99937501953125 8.427499990234374  24.681875009765626 10.423749999999998  24.250625009765624 12.847500009765625  L 22.753749990234375 21.256249990234377  C 22.45812498046875 22.916249980468752  20.888124990234378 24.235624990234378  19.201250009765623 24  L 5.756249999999998 24  C 5.066375977223434 24.25221176439697  4.504130626884092 23.696120352006698  4.5 23.006250009765623  L 4.475000009765625 11.018749990234374  C 4.473264442235786 10.33102659218135  5.027913945490679 9.771347521563353  5.7156249902343745 9.766875009765624  L 5.823125009765626 9.765624999999998  C 5.99625 9.763749999999998  6.207500009765624 9.763749999999998  6.448124999999999 9.765624999999998  C 9.324375 9.788749990234374  11.788749990234374 7.057500009765624  11.784374999999999 4.422499990234374  C 11.779374990234375 1.750624990234375  13.003125 0.5250000097656251  15.050000009765627 0.4999999902343748  C 16.959374999999998 0.47749999023437484  18.321875009765627 2.33125  18.344375009765624 5.0912500000000005  C 18.351875009765624 5.925625  18.143750009765625 7.400625009765624  17.884374990234377 8.461875009765624  C 18.119374980468752 8.461875009765624  18.390624990234375 8.460625  18.692499990234374 8.458749999999998  Z M 2.6743749902343756 11.125000000000002  L 2 11.125  L 2 22.999999990234375  L 2.6874999902343752 22.999999990234375  C 3.0326779615753203 22.999999990234382  3.312499995117186 23.27982202377624  3.312499995117186 23.624999995117193  C 3.312499995117186 23.970177966458138  3.032677961575323 24.25  2.6874999902343752 24.25  L 1.536249990234376 24.250000000000004  C 1.534999671192673 24.250005993585617  1.5337493395793453 24.25000899039134  1.5324990061721646 24.25000899039134  C 1.100820752244445 24.25000899039134  0.7506846114203758 23.90042770128892  1 23.468749990234375  L 1 10.656250000000002  C 0.75 10.223125000000001  1.1037500097656254 9.874999990234375  1.534374990234375 9.874999990234375  L 2.6743749902343756 9.874999990234375  C 3.0195529615753243 9.874999990234375  3.299374995117188 10.15482202377624  3.299374995117188 10.499999995117188  C 3.299374995117188 10.845177966458138  3.0195529615753243 11.125000000000002  2.6743749902343756 11.125000000000002  Z " fill-rule="nonzero" fill="#3d3d3d" stroke="none" transform="matrix(1 0 0 1 678 947 )" />
  </g>
</svg>