<?xml version="1.0" encoding="utf-8"?>
<svg version="1.1" xmlns:xlink="http://www.w3.org/1999/xlink" width="28px" height="27px" xmlns="http://www.w3.org/2000/svg">
  <g transform="matrix(1 0 0 1 -517 -946 )">
    <path d="M 14.016167315175094 0.8677042801556418  C 6.758122568093384 0.8677042801556418  0.8755836575875482 6.715340466926071  0.8755836575875482 13.92990272373541  C 0.8755836575875482 21.144464980544747  6.758443579766537 26.991984435797665  14.016138132295719 26.991984435797665  C 21.27316147859922 26.991984435797665  27.15605058365759 21.144464980544747  27.15605058365759 13.92990272373541  C 27.156079766536966 6.7155739299610895  21.273161478599224 0.8677042801556418  14.016138132295723 0.8677042801556418  Z M 25.364805447470818 13.944027237354087  C 25.364805447470818 20.212918287937747  20.282840466926068 25.294854085603113  14.013978599221792 25.294854085603113  C 7.745087548638134 25.294854085603113  2.6631517509727645 20.212889105058366  2.6631517509727645 13.944027237354087  C 2.6631517509727645 7.675136186770429  7.745116731517511 2.59320038910506  14.013978599221792 2.59320038910506  C 20.28284046692607 2.59320038910506  25.364805447470818 7.6751653696498074  25.364805447470818 13.944027237354087  Z M 8.83226653696498 12.212607003891053  C 7.918492217898831 12.212607003891053  7.177743190661479 12.953385214007785  7.177743190661479 13.867130350194554  C 7.177743190661479 14.780904669260702  7.918521400778211 15.521653696498056  8.83226653696498 15.521653696498056  C 9.74601167315175 15.521653696498056  10.486789883268482 14.780875486381325  10.486789883268482 13.867130350194554  C 10.486789883268482 12.953356031128406  9.74601167315175 12.212607003891053  8.83226653696498 12.212607003891053  Z M 14.37298638132296 12.212607003891053  C 13.45921206225681 12.212607003891053  12.718463035019457 12.953385214007785  12.718463035019456 13.867130350194554  C 12.718463035019456 14.780904669260702  13.459241245136187 15.521653696498056  14.37298638132296 15.521653696498056  C 15.28673151750973 15.521653696498056  16.027509727626462 14.780875486381325  16.027509727626462 13.867130350194554  C 16.027509727626462 12.953356031128406  15.28673151750973 12.212607003891053  14.37298638132296 12.212607003891053  Z M 19.3750486381323 12.212607003891053  C 18.46127431906615 12.212607003891053  17.720525291828793 12.953385214007785  17.720525291828793 13.867130350194554  C 17.720525291828793 14.780904669260702  18.461303501945526 15.521653696498056  19.3750486381323 15.521653696498056  C 20.288793774319068 15.521653696498056  21.0295719844358 14.780875486381325  21.0295719844358 13.867130350194554  C 21.0295719844358 12.953356031128406  20.288793774319068 12.212607003891053  19.3750486381323 12.212607003891053  Z " fill-rule="nonzero" fill="#000000" stroke="none" transform="matrix(1 0 0 1 517 946 )" />
  </g>
</svg>