<?xml version="1.0" encoding="utf-8"?>
<svg version="1.1" xmlns:xlink="http://www.w3.org/1999/xlink" width="30px" height="30px" xmlns="http://www.w3.org/2000/svg">
  <g transform="matrix(1 0 0 1 -225 -1022 )">
    <path d="M 13.65 2.849999999999999  C 13.65 1.35  12.45 0.14999999999999958  10.95 0.14999999999999958  L 2.849999999999999 0.14999999999999958  C 1.349999999999999 0.14999999999999958  0.14999999999999958 1.35  0.14999999999999958 2.849999999999999  L 0.14999999999999958 10.95  C 0 12.45  1.35 13.65  2.849999999999999 13.65  L 10.95 13.65  C 12.45 13.65  13.65 12.450000000000001  13.65 10.95  L 13.65 2.849999999999999  Z M 12.149999999999999 2.849999999999999  L 12.149999999999999 10.95  C 12.149999999999999 11.700000000000003  11.549999999999999 12.299999999999999  10.8 12.299999999999999  L 2.849999999999999 12.299999999999999  C 2.0999999999999996 12.299999999999999  1.4999999999999991 11.7  1.4999999999999991 10.95  L 1.5000000000000002 2.849999999999999  L 1.35 2.849999999999999  C 1.35 2.0999999999999996  1.9500000000000004 1.4999999999999991  2.7 1.4999999999999991  L 10.8 1.4999999999999991  C 11.55 1.4999999999999991  12.149999999999999 2.0999999999999988  12.149999999999999 2.849999999999999  Z M 29.849999999999994 19.049999999999997  C 29.85 17.549999999999997  28.65 16.35  27.15 16.35  L 19.049999999999997 16.35  C 17.549999999999997 16.35  16.35 17.55  16.35 19.049999999999997  L 16.35 27.15  C 16.35 28.65  17.55 29.849999999999994  19.049999999999997 29.849999999999994  L 27.15 29.849999999999994  C 28.65 29.849999999999994  29.849999999999994 28.64999999999999  29.849999999999994 27.15  L 29.849999999999994 19.049999999999997  Z M 28.500000000000004 19.049999999999997  L 28.500000000000004 27.15  C 28.500000000000004 27.900000000000002  27.900000000000002 28.500000000000004  27.15 28.500000000000004  L 19.049999999999997 28.500000000000004  C 18.3 28.500000000000004  17.7 27.900000000000002  17.7 27.15  L 17.7 19.049999999999997  C 17.7 18.3  18.3 17.7  19.049999999999997 17.7  L 27.15 17.7  C 27.900000000000002 17.7  28.500000000000004 18.3  28.500000000000004 19.049999999999997  Z M 29.85 2.849999999999999  C 29.85 1.35  28.65 0.14999999999999958  27.15 0.14999999999999958  L 19.049999999999997 0.14999999999999958  C 17.549999999999997 0.14999999999999958  16.35 1.35  16.35 2.849999999999999  L 16.35 10.95  C 16.35 12.45  17.55 13.65  19.049999999999997 13.65  L 27.15 13.65  C 28.65 13.65  29.849999999999994 12.450000000000001  29.849999999999994 10.95  L 29.85 2.849999999999999  Z M 28.500000000000004 2.849999999999999  L 28.500000000000004 10.95  C 28.500000000000004 11.700000000000003  27.900000000000002 12.299999999999999  27.15 12.299999999999999  L 19.049999999999997 12.299999999999999  C 18.3 12.299999999999999  17.7 11.7  17.7 10.95  L 17.7 2.849999999999999  C 17.7 2.0999999999999996  18.3 1.4999999999999991  19.049999999999997 1.4999999999999991  L 27.15 1.4999999999999991  C 27.900000000000002 1.4999999999999991  28.500000000000004 2.0999999999999988  28.500000000000004 2.849999999999999  Z M 13.5 19.049999999999997  C 13.5 17.549999999999997  12.299999999999999 16.35  10.8 16.35  L 2.849999999999999 16.35  C 1.349999999999999 16.35  0.14999999999999958 17.55  0.14999999999999958 19.049999999999997  L 0.14999999999999958 27.15  L 0 27.15  C 0 28.65  1.2 29.849999999999994  2.6999999999999993 29.849999999999994  L 10.8 29.849999999999994  C 12.299999999999999 29.849999999999994  13.5 28.64999999999999  13.5 27.15  L 13.5 19.049999999999997  Z M 12.149999999999999 19.049999999999997  L 12.149999999999999 27.15  C 12.149999999999999 27.900000000000002  11.549999999999999 28.500000000000004  10.8 28.500000000000004  L 2.849999999999999 28.500000000000004  C 2.0999999999999996 28.500000000000004  1.4999999999999991 27.900000000000002  1.4999999999999991 27.15  L 1.4999999999999991 19.049999999999997  L 1.35 19.049999999999997  C 1.35 18.3  1.9500000000000004 17.7  2.7 17.7  L 10.8 17.7  C 11.55 17.7  12.149999999999999 18.3  12.149999999999999 19.049999999999997  Z " fill-rule="nonzero" fill="#000000" stroke="none" transform="matrix(1 0 0 1 225 1022 )" />
  </g>
</svg>