<?xml version="1.0" encoding="utf-8"?>
<svg version="1.1" xmlns:xlink="http://www.w3.org/1999/xlink" width="30px" height="30px" xmlns="http://www.w3.org/2000/svg">
  <g transform="matrix(1 0 0 1 -620 -1022 )">
    <path d="M 29.99458447265625 23.385452841796877  C 29.998750341796875 19.737828779296876  27.01016478515625 16.76673981445313  23.33587921875 16.766739814453125  C 20.94041669893658 16.76419152228745  18.727575961839797 18.04648151803999  17.538673125 20.12608658203125  L 10.638348193359374 15.886910888671876  C 10.946196659674928 15.192168117734422  11.104861830528158 14.440566364417037  11.10409095703125 13.680673212890627  C 11.10409095703125 12.920820966796876  10.949954267578125 12.197628251953127  10.667509189453124 11.54108923828125  L 17.583664365234373 7.801816318359376  C 18.448605125761624 8.664651421717728  19.62131132884678 9.147883114997395  20.843030595703123 9.144888486328126  C 23.3817036328125 9.144888486328126  25.445469023437497 7.095287021484376  25.445469023437497 4.57494375  C 25.4454690234375 2.05543365234375  23.381703632812503 0.0058321875  20.843030595703123 0.0058321875  C 18.304357558593747 0.0058321875  16.238925849609377 2.05543365234375  16.238925849609377 4.57494375  C 16.238925849609377 4.94320546875  16.284750263671874 5.298136464843751  16.36390154296875 5.641403056640626  L 9.184464199218752 9.52064876953125  C 8.17479192476108 8.649692110474223  6.88525379404274 8.17143908924349  5.551837236328126 8.173410732421877  C 2.493265283203125 8.173410732421875  0.00041666015625 10.645430068359374  0.00041666015625 13.684839052734375  C 0.00041666015625 16.725914384765623  2.4890994140625002 19.19210153320312  5.552670380859375 19.19210153320312  C 6.917405009765625 19.19210153320312  8.173827392578126 18.700530439453125  9.139472958984376 17.882356201171874  L 16.722165205078127 22.543116621093752  C 16.688838339843752 22.81972951171875  16.6688422265625 23.100508242187498  16.668842255859378 23.385452841796877  C 16.668842255859378 27.033910078125  19.656594638671876 30  23.331713349609377 30  C 27.005998916015624 30  29.99458447265625 27.033910078125  29.99458447265625 23.385452841796877  Z M 20.83468554496474 2.4845003166784174  C 20.83746723679684 2.4845003166784174  20.84024892587791 2.4845058491507213  20.843030595703123 2.4845169140625  C 22.001443528372043 2.481748852830543  22.94340327952377 3.4173716971057906  22.948454560546875 4.575776923828125  C 22.942487626298107 5.733530462192483  22.000796194648935 6.668141499058623  20.843030595703123 6.665370615234376  C 19.68461653580459 6.668600263885834  18.742283075333837 5.733349209772182  18.736773486328122 4.57494375  C 18.7408952459363 3.4192197131251874  19.678954158217593 2.4845003166784174  20.83468554496474 2.4845003166784174  Z M 5.552670380859374 16.717582705078126  C 3.8663316210937495 16.717582705078126  2.497431123046874 15.353681250000003  2.497431123046875 13.684839052734375  C 2.497431123046875 12.011831015624999  3.86633162109375 10.652095429687499  5.552670380859375 10.652095429687499  C 7.2381759667968755 10.652095429687499  8.60707646484375 12.011831044921875  8.607076494140625 13.684839052734375  C 8.607076523437499 15.357847060546876  7.23817599609375 16.717582675781248  5.552670380859374 16.717582705078126  Z M 27.500902675781248 23.385452841796877  C 27.500902675781248 25.665842783203125  25.632932548828123 27.521315302734376  23.335046044921874 27.521315302734376  C 21.037992685546875 27.521315302734376  19.169189414062497 25.665842753906247  19.169189414062497 23.385452841796877  C 19.169189414062497 21.105062929687502  21.03799271484375 19.2504235546875  23.335046044921874 19.250423525390627  C 25.632932578124997 19.250423525390627  27.500902675781248 21.105062900390628  27.500902675781248 23.385452841796877  Z " fill-rule="nonzero" fill="#000000" stroke="none" transform="matrix(1 0 0 1 620 1022 )" />
  </g>
</svg>