<?xml version="1.0" encoding="utf-8"?>
<svg version="1.1" xmlns:xlink="http://www.w3.org/1999/xlink" width="30px" height="24px" xmlns="http://www.w3.org/2000/svg">
  <g transform="matrix(1 0 0 1 -541 -1024 )">
    <path d="M 29.8125 12.434210526315786  C 30.062500000000004 12.209210526315783  30.062500000000004 11.810526315789469  29.80859375 11.589473684210528  L 16.839843750000004 0.29605263157894735  C 16.48046875 -0.01578947368421075  15.929687500000004 0.24078947368421033  15.929687500000004 0.7184210526315785  L 15.929687500000004 7.342105263157894  C 15.929687500000004 7.6381578947368425  15.699218750000004 7.886842105263159  15.406250000000004 7.898684210526316  C 7.8984375000000036 8.171052631578949  1.585937500000003 13.677631578947368  0.2578125000000031 21.228947368421053  L 0.011718750000002665 22.630263157894735  C -0.08593749999999734 23.174999999999997  0.5781250000000027 23.51447368421052  0.9570312500000022 23.111842105263158  L 1.9257812500000024 22.07763157894737  C 5.429687500000002 18.33157894736842  10.296875000000002 16.227631578947364  15.378906250000002 16.247368421052627  C 15.683593750000002 16.247368421052627  15.933593750000004 16.49605263157894  15.933593750000004 16.80394736842105  L 15.933593750000004 23.28552631578947  C 15.933593750000004 23.76315789473684  16.488281250000007 24.01973684210526  16.84375 23.7078947368421  L 29.8125 12.434210526315786  Z M 16.1171875 14.29342105263158  C 11.41796875 14.103947368421053  6.839843750000001 15.56447368421053  3.128906250000001 18.363157894736844  C 5.316406250000001 13.275000000000002  10.300781250000002 9.848684210526319  15.99609375 9.848684210526319  L 17.32421875 9.848684210526319  C 17.628906249999996 9.848684210526319  17.875 9.600000000000001  17.875 9.292105263157897  L 17.875 3.79342105263158  L 27.30859375 12.011842105263156  L 17.875 20.210526315789473  L 17.875 14.850000000000001  C 17.875 14.5421052631579  17.628906250000004 14.29342105263158  17.32421875 14.29342105263158  L 16.1171875 14.29342105263158  Z " fill-rule="nonzero" fill="#000000" stroke="none" transform="matrix(1 0 0 1 541 1024 )" />
  </g>
</svg>