<?xml version="1.0" encoding="utf-8"?>
<svg version="1.1" xmlns:xlink="http://www.w3.org/1999/xlink" width="6px" height="6px" xmlns="http://www.w3.org/2000/svg">
  <g transform="matrix(1 0 0 1 -477 -1030 )">
    <path d="M 1.918797000000004 5.530827071428571  C 1.7367437910599426 5.705677891633886  1.497282834673058 5.808304008545617  1.2451127857142898 5.819548857142861  C 0.9890914127253194 5.826683537113825  0.7428285529074807 5.721142318937739  0.5714285714285714 5.530827071428571  C 0.38714142138090935 5.355188284021101  0.2828510312938895 5.111722387574226  0.2828510312938895 4.857142857142858  C 0.2828510312938895 4.602563326711486  0.38714142138090935 4.3590974302646135  0.5714285714285714 4.183458642857143  L 4.324812035714286 0.4300751785714283  C 4.502908320258298 0.2555411476891233  4.742330716210208 0.1577829525272258  4.991690726044197 0.1577829525272258  C 5.517897674833026 0.1577829525272258  5.9444726903299125 0.5843579680241119  5.9444726903299125 1.1105649168129392  C 5.9444726903299125 1.3599249266469298  5.846714495168019 1.5993473225988413  5.672180464285715 1.7774436071428568  L 1.918797000000004 5.530827071428571  Z " fill-rule="nonzero" fill="#000000" stroke="none" transform="matrix(1 0 0 1 477 1030 )" />
  </g>
</svg>