<?xml version="1.0" encoding="utf-8"?>
<svg version="1.1" xmlns:xlink="http://www.w3.org/1999/xlink" width="26px" height="17px" xmlns="http://www.w3.org/2000/svg">
  <g transform="matrix(1 0 0 1 -836 -955 )">
    <path d="M 25.20454544921875 4.477272724609376  C 25.20454544921875 2.5000000000000018  23.636363623046876 0.9318181738281268  21.659090898437498 0.931818173828125  L 18.45454544921875 0.931818173828125  C 18.04545455078125 0.931818173828125  17.772727275390626 1.2045454492187506  17.772727275390626 1.6136363769531243  C 17.772727275390626 2.0227273046874963  18.045454550781248 2.2954545507812476  18.45454544921875 2.2954545507812476  L 21.659090898437498 2.2954545507812476  C 22.886363623046872 2.2954545507812476  23.840909072265625 3.318181826171873  23.8409091015625 4.477272724609373  L 23.8409091015625 13.340909101562499  C 23.8409091015625 14.568181826171873  22.818181826171873 15.522727275390626  21.659090898437498 15.522727275390626  L 4.3409091015625 15.522727275390626  C 3.1136363769531252 15.522727275390626  2.1590909277343755 14.5  2.1590908984375003 13.340909101562499  L 2.1590908984375003 4.477272724609376  C 2.1590908984375003 3.2500000000000018  3.181818173828125 2.295454550781251  4.3409091015625005 2.295454550781251  L 7.613636376953126 2.295454550781251  C 8.022727275390626 2.295454550781251  8.29545455078125 2.0227272753906256  8.29545455078125 1.6136363769531261  C 8.29545455078125 1.2045454785156284  8.022727275390624 0.9318182031250029  7.613636376953126 0.9318181738281268  L 4.3409091015625 0.9318181738281268  C 2.3636363769531243 0.9318181738281268  0.7954545507812503 2.5  0.7954545507812503 4.477272724609376  L 0.7954545507812503 13.340909101562499  C 0.7954545507812503 15.318181826171873  2.3636363769531252 16.88636365234375  4.3409091015625 16.886363623046876  L 21.659090898437498 16.886363623046876  C 23.636363623046876 16.886363623046876  25.20454544921875 15.318181796874999  25.20454544921875 13.340909101562499  L 25.20454544921875 4.477272724609376  Z " fill-rule="nonzero" fill="#000000" stroke="none" transform="matrix(1 0 0 1 836 955 )" />
  </g>
</svg>