<?xml version="1.0" encoding="utf-8"?>
<svg version="1.1" xmlns:xlink="http://www.w3.org/1999/xlink" width="14px" height="21px" xmlns="http://www.w3.org/2000/svg">
  <g transform="matrix(1 0 0 1 -842 -946 )">
    <path d="M 0.8636363769531243 6.863636376953124  C 0.9318182031249993 7.068181826171875  1.13636365234375 7.13636365234375  1.3409091015625005 7.136363623046874  C 1.5454545507812494 7.136363623046874  1.681818203125001 7.068181796874999  1.818181826171875 6.931818173828124  L 6.318181826171875 2.3636363769531252  L 6.318181826171875 19.818181826171873  C 6.318181826171875 20.22727272460937  6.590909101562502 20.5  7 20.5  C 7.409090898437498 20.5  7.681818173828126 20.227272724609374  7.681818173828126 19.818181826171873  L 7.681818173828126 2.3636363769531252  L 12.181818173828127 6.863636376953124  C 12.318181796875002 7  12.522727275390626 7.068181826171875  12.659090898437501 7.068181826171875  C 12.795454521484373 7.068181826171875  13 7  13.136363623046876 6.863636376953124  C 13.409090898437501 6.590909101562499  13.409090898437501 6.181818203125001  13.136363623046876 5.9090908984375  L 7.477272724609375 0.25000000000000044  C 7.340909101562502 0.11363637695312521  7.136363623046877 0.04545455078125027  7 0.04545455078125027  C 6.795454550781251 0.04545455078125027  6.6590908984374995 0.11363637695312521  6.522727275390626 0.25000000000000044  L 0.8636363769531243 5.9090908984375  C 0.5909091015624988 6.181818173828127  0.5909091015624988 6.5909090722656245  0.8636363769531243 6.863636376953124  Z " fill-rule="nonzero" fill="#000000" stroke="none" transform="matrix(1 0 0 1 842 946 )" />
  </g>
</svg>