<?xml version="1.0" encoding="utf-8"?>
<svg version="1.1" xmlns:xlink="http://www.w3.org/1999/xlink" width="28px" height="30px" xmlns="http://www.w3.org/2000/svg">
  <g transform="matrix(1 0 0 1 -1007 -1018 )">
    <path d="M 19.81010852916667 5.459302898139686  C 19.7276836627152 2.4193866621980096  17.249790981730968 -0.0015045824223891568  14.222263562499998 0  C 11.191144183333332 0  8.724018595833332 2.416047158763902  8.619832549999998 5.443954060608016  L 1.5462945750000006 5.443954060608017  C 0.7589173448354728 5.44395366952634  0.12040695819317095 6.084690033372923  0.11964029583333338 6.87558194704913  C 0.12040697427931445 7.666473849281897  0.758917356212387 8.307210195290782  1.5462945750000001 8.307209804193368  L 3.121587583333334 8.307209804193368  L 3.121587583333334 24.35581407731023  C 3.121587583333334 27.369069817387608  5.158077516666667 29.829767435621765  7.668961241666668 29.829767435621765  L 20.47898294166667 29.829767435621765  C 22.989866666666668 29.829767435621765  25.026356570833336 27.383720979154347  25 24.35581407731023  L 25 8.323256317489973  L 26.453010850000005 8.323256317489973  C 27.240659078220684 8.32325642742895  27.879281658001105 7.682095187267718  27.879665129166668 6.8909307845808  C 27.87889846680683 6.100038870904593  27.240388080164532 5.459302507058011  26.45301085 5.459302898139686  L 19.81010852916667 5.459302898139686  Z M 16.904706962499997 5.187907552924172  L 11.094598462499999 5.187907552924172  C 11.19808993333333 3.729768046009322  12.45457365833333 2.593954127259531  14.00694575 2.593954127259531  C 15.559317841666665 2.593954127259531  16.816496141666665 3.7290703702443886  16.904706962499997 5.187907552924172  Z M 7.828018595833333 27  L 7.828018595833331 27.220465172425456  C 6.924378299999999 27.220465172425456  5.929748824999998 26.073488441436723  6 24.43604664379325  L 6 9  L 22.714815491666666 9  L 22.714815491666666 24.450697805559987  C 22.714815491666666 26.088837308265266  21.720880620833334 27.235116334192192  20.817240295833336 27  L 7.828018595833333 27  Z " fill-rule="nonzero" fill="#000000" stroke="none" transform="matrix(1 0 0 1 1007 1018 )" />
  </g>
</svg>