<?xml version="1.0" encoding="utf-8"?>
<svg version="1.1" xmlns:xlink="http://www.w3.org/1999/xlink" width="11px" height="11px" xmlns="http://www.w3.org/2000/svg">
  <g transform="matrix(1 0 0 1 -1015 -1030 )">
    <path d="M 1.3783255807291661 10.908759697916667  C 2.0761860338541656 10.908759697916667  2.646480632812499 10.287984494791665  2.646480632812499 9.510310075520831  L 2.646480632812499 1.5289147213541647  C 2.646480632812499 0.7512403020833321  2.076186062499999 0.13046509895833164  1.3783255807291661 0.1304651276041649  C 0.6811472994791667 0.1304651276041649  0.11017052864583358 0.7512403307291654  0.11017052864583358 1.5289147213541647  L 0.11017052864583358 9.510310075520831  C 0.11017052864583358 10.287984494791665  0.6647751744791672 10.908759697916667  1.3790077526041664 10.908759697916667  Z M 5.816527119791666 10.908759697916667  C 6.514387572916666 10.908759697916667  7.085364315104166 10.287984494791665  7.085364343749999 9.510310075520831  L 7.085364343749999 1.5289147213541647  C 7.085364343749999 0.7512403020833321  6.5143876015624995 0.13046509895833164  5.816527119791666 0.1304651276041649  C 5.119348838541667 0.1304651276041649  4.548372067708334 0.7512403307291654  4.548372096354167 1.5289147213541647  L 4.548372096354167 9.510310075520831  C 4.548372096354167 10.287984494791665  5.119348838541667 10.908759697916667  5.817209291666667 10.908759697916667  Z M 8.352837195312501 9.510310075520831  C 8.352837195312501 10.287984494791665  8.907441841145834 10.908759697916667  9.620992247395835 10.908759697916667  C 10.318170528645833 10.908759697916667  10.889147299479166 10.287984494791665  10.889147299479166 9.510310075520831  L 10.889147299479166 1.5289147213541647  C 10.889147299479166 0.7512403020833321  10.318170557291667 0.13046509895833164  9.620992247395835 0.1304651276041649  C 8.923813937500002 0.13046515624999816  8.352837195312501 0.7512403307291654  8.352837195312501 1.5289147213541647  L 8.352837195312501 9.510310075520831  Z " fill-rule="nonzero" fill="#000000" stroke="none" transform="matrix(1 0 0 1 1015 1030 )" />
  </g>
</svg>