<?xml version="1.0" encoding="utf-8"?>
<svg version="1.1" xmlns:xlink="http://www.w3.org/1999/xlink" width="30px" height="30px" xmlns="http://www.w3.org/2000/svg">
  <g transform="matrix(1 0 0 1 -1079 -944 )">
    <path d="M 25.647425888671876 25.50702029296875  C 31.450858037109377 19.703588144531253  31.450858037109377 10.34321373046875  25.647425888671876 4.352574111328124  C 19.843993740234374 -1.4508580371093753  10.296411855468751 -1.4508580371093753  4.49297970703125 4.352574111328124  C -1.3104524414062524 10.156006259765626  -1.3104524414062508 19.70358814453125  4.49297970703125 25.50702029296875  C 10.29641185546875 31.310452441406248  19.843993740234374 31.310452441406248  25.647425888671876 25.50702029296875  Z M 16.287051474609378 15.023400937500002  L 20.218408740234374 18.954758203125  C 20.5928237109375 19.329173173828124  20.5928237109375 19.89079564453125  20.218408740234374 20.265210615234373  C 19.84399376953125 20.639625585937498  19.282371298828124 20.639625585937498  18.907956328125 20.265210615234373  L 14.9765990625 16.333853349609374  L 11.045241796875002 20.265210615234377  C 10.670826826171876 20.6396255859375  10.109204355468751 20.6396255859375  9.734789384765627 20.265210615234377  C 9.360374414062502 19.890795644531252  9.360374414062502 19.329173173828128  9.734789384765627 18.954758203125003  L 13.666146650390624 15.023400937500002  L 9.734789384765627 11.092043671875  C 9.3603744140625 10.717628701171876  9.3603744140625 10.15600623046875  9.734789384765627 9.781591259765625  C 10.109204355468751 9.4071762890625  10.670826826171876 9.4071762890625  11.045241796875002 9.781591259765625  L 14.9765990625 13.712948525390626  L 18.907956328125 9.781591259765626  C 19.282371298828124 9.407176289062502  19.84399376953125 9.407176289062502  20.218408740234374 9.781591259765626  C 20.5928237109375 10.156006230468751  20.5928237109375 10.717628701171877  20.218408740234374 11.092043671875  L 16.287051474609378 15.023400937500002  Z " fill-rule="nonzero" fill="#000000" stroke="none" transform="matrix(1 0 0 1 1079 944 )" />
  </g>
</svg>