<?xml version="1.0" encoding="utf-8"?>
<svg version="1.1" xmlns:xlink="http://www.w3.org/1999/xlink" width="20px" height="20px" xmlns="http://www.w3.org/2000/svg">
  <g transform="matrix(1 0 0 1 -1084 -1023 )">
    <path d="M 1094 1024  C 1099.04 1024  1103 1027.96  1103 1033  C 1103 1038.04  1099.04 1042  1094 1042  C 1088.96 1042  1085 1038.04  1085 1033  C 1085 1027.96  1088.96 1024  1094 1024  Z " fill-rule="nonzero" fill="#ffffff" stroke="none" fill-opacity="0" />
    <path d="M 1094 1024  C 1099.04 1024  1103 1027.96  1103 1033  C 1103 1038.04  1099.04 1042  1094 1042  C 1088.96 1042  1085 1038.04  1085 1033  C 1085 1027.96  1088.96 1024  1094 1024  Z " stroke-width="2" stroke="#000000" fill="none" />
  </g>
</svg>