<?xml version="1.0" encoding="utf-8"?>
<svg version="1.1" xmlns:xlink="http://www.w3.org/1999/xlink" width="23px" height="27px" xmlns="http://www.w3.org/2000/svg">
  <g transform="matrix(1 0 0 1 -313 -1023 )">
    <path d="M 0.14313729508196615 1.8471421232876701  C 0.14313729508196615 2.6642157534246564  0.8183852459016382 3.3265941780821904  1.6513340163934416 3.3265941780821904  L 21.12234221311476 3.3265941780821904  C 21.95529098360656 3.3265941780821904  22.630538934426234 2.6642157534246564  22.630538934426234 1.8471421232876701  C 22.630538934426234 1.0300684931506836  21.95529098360656 0.3676900684931495  21.12234221311476 0.3676900684931495  L 1.6513340163934416 0.3676900684931495  C 0.8183852459016382 0.3676900684931495  0.14313729508196615 1.0300684931506836  0.14313729508196615 1.8471421232876701  Z M 0.1427131147540993 13.646558219178079  C 0.1427131147540993 14.463631849315066  0.8179610655737714 15.1260102739726  1.650909836065575 15  L 21.05046721311475 15  C 21.883415983606557 15.1260102739726  22.558663934426228 14.463631849315066  22.558663934426228 13.646558219178079  C 22.558663934426228 12.829484589041094  21.883415983606557 12.16710616438356  21.05046721311475 12.16710616438356  L 1.650909836065575 12.16710616438356  C 0.8179610655737714 12.16710616438356  0.1427131147540993 12.829484589041094  0.1427131147540993 13.646558219178079  Z M 22.630538934426234 25.511393835616442  C 22.630538934426234 24.694320205479453  21.95529098360656 24.03194178082192  21.12234221311475 24  L 1.6513340163934416 24  C 0.8183852459016382 24.03194178082192  0.14313729508196615 24.694320205479453  0.14313729508196615 25.511393835616442  C 0.14313729508196615 26.328467465753423  0.8183852459016382 26.99084589041096  1.6513340163934416 27  L 21.12234221311476 27  C 21.95529098360656 26.99084589041096  22.630538934426234 26.328467465753423  22.630538934426234 25.511393835616442  Z " fill-rule="nonzero" fill="#000000" stroke="none" transform="matrix(1 0 0 1 313 1023 )" />
  </g>
</svg>