<?xml version="1.0" encoding="utf-8"?>
<svg version="1.1" xmlns:xlink="http://www.w3.org/1999/xlink" width="30px" height="30px" xmlns="http://www.w3.org/2000/svg">
  <g transform="matrix(1 0 0 1 -863 -1781 )">
    <path d="M 29.933591886160713 15  C 29.933591886160713 23.23501068080357  23.235010647321428 29.933591886160713  15 29.933591886160713  C 6.766083683035715 29.933591886160713  0.06640811383928531 23.23501068080357  0.06640811383928531 15  C 0.06640811383928531 6.766083683035715  6.7660260602678575 0.06640811383928531  15 0.06640811383928531  C 23.235010647321428 0.06640811383928531  29.933591886160713 6.764989319196428  29.933591886160713 15  Z M 27.790734743303574 15  C 27.790734743303574 7.946742924107142  22.05216271205357 2.209265256696428  15 2.209265256696428  C 7.946800546875 2.209265256696428  2.209265256696428 7.946742924107142  2.209265256696428 15  C 2.209265256696428 22.05216271205357  7.946742924107142 27.790734743303574  15 27.790734743303574  C 22.05216271205357 27.790734743303574  27.790734743303574 22.05325707589286  27.790734743303574 15  Z M 15 6.428571428571428  C 14.112388895089284 6.428571428571428  13.392842745535715 7.148117578125001  13.392842745535715 8.035728683035714  C 13.392842745535715 8.923339787946428  14.112388895089286 9.642885937500001  15 9.642885937500001  C 15.887611104910711 9.642885937500001  16.607157254464287 8.923339787946428  16.607157254464287 8.035728683035714  C 16.607157254464287 7.148117578125001  15.887611104910714 6.428571428571428  15 6.428571428571428  Z M 16.071457366071428 22.49997120535714  C 16.071457366071428 23.09251828125  15.591452745535713 23.57142857142857  15 23.57142857142857  C 14.408547254464287 23.57142857142857  13.928542633928572 23.09251828125  13.928542633928572 22.49997120535714  L 13.928542633928572 12.857142857142856  C 13.928542633928572 12.265690111607142  14.408547254464287 11.785685491071428  15 11.785685491071428  C 15.591452745535713 11.785685491071428  16.071457366071428 12.265690111607142  16.071457366071428 12.857142857142856  L 16.071457366071428 22.49997120535714  Z " fill-rule="nonzero" fill="#0066ff" stroke="none" transform="matrix(1 0 0 1 863 1781 )" />
  </g>
</svg>