<?xml version="1.0" encoding="utf-8"?>
<svg version="1.1" xmlns:xlink="http://www.w3.org/1999/xlink" width="30px" height="30px" xmlns="http://www.w3.org/2000/svg">
  <g transform="matrix(1 0 0 1 -243 -2131 )">
    <path d="M 29.11150700683593 15  C 29.11150700683593 7.224270886230468  22.785478015136714 0.8983168945312509  15.009823901367186 0.8983168945312503  C 7.234169787597655 0.8983168945312503  0.9081407958984361 7.224270886230468  0.9081407958984361 15  C 0.9081407958984361 22.775729113769533  7.234132287597655 29.10168310546875  15.009823901367186 29.10168310546875  C 22.785515515136716 29.10168310546875  29.11150700683593 22.775729113769533  29.11150700683593 15  Z M 27.789442565917966 15  C 27.789442565917966 22.046698278808595  22.05652214355469 27.779656164550783  15.009823901367186 27.779656164550783  C 7.963125622558593 27.779656164550783  2.230167736816404 22.046698242187503  2.230167736816404 14.999999999999998  C 2.230167736816404 7.953301721191403  7.963088159179685 2.2203438354492167  15.009823901367186 2.2203438354492167  C 22.056559643554685 2.2203438354492167  27.789442565917966 7.9533017211914085  27.789442565917966 15  Z M 22.298332580566406 10.566309082031252  C 22.556453686523437 10.308262976074221  22.975019274902344 10.308262976074221  23.23314038085937 10.566271582031245  C 23.491298950195308 10.824467651367184  23.491298950195308 11.242958276367183  23.23314038085937 11.501154382324215  L 14.507717651367187 20.22657711181641  C 14.505430407714844 20.228901855468752  14.502880700683594 20.23081413574219  14.500593420410155 20.23302641601563  C 14.492794299316408 20.24060057373047  14.48465771484375 20.247574804687503  14.476633630371092 20.254698962402347  C 14.466997192382811 20.263135510253907  14.457360791015624 20.27157205810547  14.447424389648436 20.279408715820317  C 14.438950341796872 20.286045483398443  14.430326293945312 20.29215728759766  14.421627282714843 20.298344091796885  C 14.402952051373045 20.311570266648936  14.383630326231824 20.32385907885522  14.363733764648437 20.335164953613283  C 14.352110083007812 20.34161422119141  14.34041136474609 20.34783852539063  14.32852521972656 20.35357540283204  C 14.320051171874997 20.357624963378914  14.311614624023438 20.361824487304688  14.303028076171872 20.365536547851566  C 14.29020450439453 20.371123425292975  14.277193469238277 20.376372839355472  14.26410743408203 20.38109732666016  C 14.255970849609374 20.38402199707032  14.247909265136718 20.387734094238287  14.239660144042967 20.39032130126954  C 14.225561718749999 20.394783288574224  14.211275830078124 20.39988273925782  14.196914941406249 20.403332336425787  C 14.189378283691406 20.40524461669923  14.181879125976561 20.410044067382817  14.174304968261715 20.41158142089844  C 14.15825676269531 20.4149560546875  14.142058593749999 20.422792675781256  14.12586038818359 20.424929919433595  C 14.119748583984371 20.425717346191412  14.113711743164059 20.41604340820313  14.107562438964841 20.416643334960945  C 14.085214929199218 20.41896807861329  14.062754956054683 20.420392932128912  14.040294982910153 20.420392932128912  C 14.019859753417968 20.420392932128912  13.999762023925783 20.419230578613288  13.979701757812501 20.41731826171875  C 13.974077380371096 20.416793334960943  13.968490502929688 20.404757153320315  13.962866162109378 20.4040822265625  C 13.948392773437503 20.402432409667973  13.933994384765626 20.406032006835936  13.91963349609375 20.403369836425785  C 13.91273426513672 20.402057482910156  13.905910034179687 20.40310737304688  13.899010803222659 20.40164501953125  C 13.886149731445313 20.398795349121098  13.873326196289064 20.39714553222656  13.86057762451172 20.393620898437504  C 13.853003466796878 20.39148365478516  13.845541809082034 20.38975883789063  13.83808015136719 20.387321630859375  C 13.826306469726564 20.3835345703125  13.814570288085939 20.379822473144536  13.802984069824221 20.37536044921875  C 13.79499744873047 20.37224831542969  13.787085864257817 20.369248645019535  13.77924920654297 20.365799047851564  C 13.768430889755113 20.361153041812294  13.757740662340701 20.356214272780772  13.747190332031252 20.35098819580078  C 13.739016247558595 20.346938635253906  13.73087966308594 20.34292661132812  13.722818041992188 20.338464587402346  C 13.712794663414092 20.332953610757876  13.702941207238961 20.327139069930805  13.693271337890627 20.321029028320314  C 13.685172253417969 20.316042077636723  13.677035668945315 20.311130126953127  13.669124047851565 20.305693249511723  C 13.659442996310958 20.298953365751657  13.649928709633006 20.291977049259433  13.640589770507814 20.284770593261722  C 13.633240576171875 20.279108715820314  13.625778918457033 20.27374683837891  13.618617224121097 20.267822497558594  C 13.617117407226566 20.266510144042964  13.61554255371094 20.26549775390625  13.61404273681641 20.26429790039063  L 7.973399487304686 15.505068420410158  C 7.694355725097656 15.269669787597659  7.659034680175782 14.852566516113281  7.894433312988282 14.57352275390625  C 8.129906945800784 14.29455399169922  8.546935217285156 14.259195446777344  8.825904016113281 14.494594116210937  L 14.00234923095703 18.862217431640627  L 22.298332580566406 10.566309082031252  Z " fill-rule="nonzero" fill="#0fc060" stroke="none" transform="matrix(1 0 0 1 243 2131 )" />
  </g>
</svg>