<?xml version="1.0" encoding="utf-8"?>
<svg version="1.1" xmlns:xlink="http://www.w3.org/1999/xlink" width="30px" height="30px" xmlns="http://www.w3.org/2000/svg">
  <g transform="matrix(1 0 0 1 -243 -2481 )">
    <path d="M 20.946428571428566 19.5  L 16.366071428571427 14.919642857142858  L 20.946428571428566 10.339285714285712  C 21.26785714285714 10.017857142857142  21.26785714285714 9.535714285714283  20.946428571428566 9.294642857142858  L 20.624999999999996 8.973214285714285  C 20.303571428571427 8.651785714285714  19.82142857142857 8.651785714285714  19.58035714285714 8.973214285714285  L 15 13.553571428571429  L 10.339285714285712 8.892857142857142  C 10.098214285714285 8.651785714285715  9.69642857142857 8.651785714285715  9.374999999999998 8.892857142857142  L 8.973214285714285 9.29464285714286  C 8.732142857142856 9.535714285714288  8.732142857142856 9.937500000000004  8.973214285714285 10.258928571428573  L 13.63392857142857 14.919642857142858  L 9.053571428571429 19.5  C 8.732142857142856 19.82142857142857  8.732142857142856 20.303571428571434  9.053571428571429 20.544642857142858  L 9.294642857142856 20.785714285714285  C 9.616071428571427 21.107142857142854  10.098214285714285 21.107142857142854  10.339285714285712 20.785714285714285  L 14.919642857142856 16.205357142857142  L 19.58035714285714 20.86607142857143  C 19.82142857142857 21.107142857142854  20.22321428571429 21.107142857142854  20.544642857142858 20.86607142857143  L 20.946428571428566 20.464285714285715  C 21.187499999999996 20.223214285714292  21.187499999999996 19.82142857142857  20.946428571428566 19.5  Z M 29.223214285714285 14.919642857142856  C 29.223214285714285 7.044642857142856  22.875000000000004 0.6964285714285714  15 0.6964285714285714  C 7.125000000000001 0.6964285714285714  0.7767857142857141 7.044642857142857  0.7767857142857141 14.919642857142858  C 0.7767857142857141 22.794642857142858  7.125000000000001 29.142857142857142  15 29.142857142857142  C 22.875000000000004 29.142857142857142  29.223214285714285 22.794642857142858  29.223214285714285 14.919642857142856  Z M 28.09821428571428 14.919642857142856  C 28.09821428571428 22.15178571428571  22.232142857142858 28.017857142857146  15 28.017857142857146  C 7.767857142857143 28.017857142857146  1.901785714285715 22.151785714285715  1.901785714285715 14.919642857142858  C 1.901785714285715 7.687500000000003  7.767857142857143 1.8214285714285712  15 1.8214285714285712  C 22.232142857142858 1.8214285714285712  28.09821428571428 7.687499999999999  28.09821428571428 14.919642857142856  Z " fill-rule="nonzero" fill="#ff6666" stroke="none" transform="matrix(1 0 0 1 243 2481 )" />
  </g>
</svg>