<?xml version="1.0" encoding="utf-8"?>
<svg version="1.1" xmlns:xlink="http://www.w3.org/1999/xlink" width="30px" height="30px" xmlns="http://www.w3.org/2000/svg">
  <g transform="matrix(1 0 0 1 -863 -2481 )">
    <path d="M 0.12096774193548387 15  C 0.12096774193548387 6.782540322580644  6.782540322580645 0.12096774193548387  15 0.12096774193548387  C 23.217459677419352 0.12096774193548387  29.879032258064516 6.782540322580645  29.879032258064516 15  C 29.879032258064516 23.217459677419352  23.217459677419352 29.879032258064516  15 29.879032258064516  C 6.782540322580647 29.879032258064516  0.12096774193548387 23.217459677419356  0.12096774193548387 15  Z M 27.550403225806452 15.015120967741936  C 27.550403225806452 8.092076612903224  21.938165322580648 2.479838709677419  15.015120967741936 2.479838709677419  C 8.092076612903224 2.479838709677419  2.479838709677419 8.092076612903224  2.479838709677419 15.015120967741936  C 2.479838709677419 21.938165322580648  8.092076612903224 27.550403225806452  15.015120967741936 27.550403225806452  C 21.938165322580648 27.550403225806452  27.550403225806452 21.938165322580648  27.550403225806452 15.015120967741936  Z " fill-rule="nonzero" fill="#f59a23" stroke="none" transform="matrix(1 0 0 1 863 2481 )" />
  </g>
</svg>