<?xml version="1.0" encoding="utf-8"?>
<svg version="1.1" xmlns:xlink="http://www.w3.org/1999/xlink" width="11px" height="14px" xmlns="http://www.w3.org/2000/svg">
  <g transform="matrix(1 0 0 1 -873 -2487 )">
    <path d="M 1.603406249999999 1.7740172413793103  C 2.5845312499999995 0.732163793103448  3.9580937499999997 0.21120689655172414  5.724125000000001 0.21120689655172414  C 7.31025 0.21120689655172414  8.569375 0.6295474137931037  9.501437500000002 1.4661982758620689  C 10.417156250000001 2.2712586206896552  10.875 3.3841379310344832  10.875 4.804926724137932  C 10.875 5.862560344827587  10.5643125 6.786047413793104  9.9429375 7.57535775862069  C 9.6649375 7.891051724137933  9.0026875 8.498814655172414  7.9561562499999985 9.398616379310347  C 7.432906249999998 9.824831896551725  7.048656250000001 10.258952586206899  6.80334375 10.700948275862071  C 6.529156249999999 11.146775862068967  6.375937499999999 11.647939655172415  6.34375 12.204439655172417  L 6.34375 12.868534482758625  C 6.34375 13.393443965517246  5.9030312500000015 13.818965517241383  5.359375 13.818965517241383  C 4.8526875 13.818965517241383  4.435437500000001 13.449353448275867  4.381 12.974137931034486  L 4.3750625 12.974137931034486  L 4.3750625 12.87637931034483  C 4.375 12.873784482758623  4.375 12.871159482758623  4.375 12.868534482758625  L 4.375 12.084051724137934  C 4.375 12.00729310344828  4.384437500000001 11.932676724137933  4.4021875 11.861198275862074  C 4.457125 11.30593534482759  4.59525 10.808693965517245  4.8165625 10.369474137931041  C 5.159968749999999 9.659094827586213  5.9857499999999995 8.743482758620695  7.293906249999999 7.622698275862076  C 7.751749999999997 7.180672413793111  8.02975 6.8965387931034545  8.127875 6.770267241379316  C 8.61840625 6.170409482758627  8.863687500000001 5.54686637931035  8.863687500000001 4.899637931034489  C 8.863687500000001 3.9682456896551797  8.585718750000002 3.234211206896558  8.02975 2.6975043103448333  C 7.473781249999998 2.1449870689655226  6.67253125 1.868728448275867  5.626000000000001 1.868728448275867  C 4.399593750000001 1.868728448275867  3.492062500000001 2.2554784482758667  2.9033750000000005 3.02900862068966  C 2.3637812500000006 3.692017241379315  2.09396875 4.599693965517247  2.09396875 5.752068965517246  L 2.09375 5.793103448275862  C 2.09375 6.309655172413794  1.66 6.7284482758620685  1.125 6.7284482758620685  C 0.5899999999999999 6.7284482758620685  0.15625 6.309655172413794  0.15625 5.793103448275862  L 0.15625 5.461206896551724  C 0.15625 5.412659482758621  0.1600937499999997 5.364987068965516  0.1674687499999994 5.318431034482758  C 0.24487499999999862 3.848099137931034  0.7235312499999988 2.6666077586206884  1.603406249999999 1.7740172413793103  Z " fill-rule="nonzero" fill="#f59a23" stroke="none" transform="matrix(1 0 0 1 873 2487 )" />
  </g>
</svg>