<?xml version="1.0" encoding="utf-8"?>
<svg version="1.1" xmlns:xlink="http://www.w3.org/1999/xlink" width="27px" height="30px" xmlns="http://www.w3.org/2000/svg">
  <g transform="matrix(1 0 0 1 -246 -3222 )">
    <path d="M 9.03103448275862 27  C 9.03103448275862 28.500000000000004  11.033793116379309 30  13.377517234913794 30  C 15.722896558189655 30  17.69586205926724 28.5  17.69586205926724 27  L 9.03103448275862 27  Z M 26.90689655172414 23.955  L 23.555172413793105 21.613333330078124  L 23.555172413793105 13.13666666015625  C 23.555172413793105 8.391666650390624  20.824137921336206 4.419999990234374  16.014206890086207 3.3699999902343736  L 16.014206890086207 2.3166666796875  C 16.014206890086207 1.033333330078125  14.890344837284482 0  13.5 0  C 12.109655162715518 0  10.985793109913793 1.0350000000000001  10.985793109913793 2.3166666796875  L 10.985793109913793 3.3683333203125  C 6.192413806034483 4.419999990234374  3.444827586206896 8.376666650390623  3.444827586206896 13.134999990234375  L 3.444827586206896 21.613333330078124  L 0.09310344827586214 23.955  L 0.09310344827586214 25  L 26.90689655172414 25  L 26.90689655172414 23.955  Z M 20.537793116379312 13.071666679687501  L 20.537793116379312 22  L 6.435724131465518 22  L 6.435724131465518 13.0716666796875  C 6.434068955818965 9.174999990234376  9.362068971982758 6  13.5 6  C 17.637931028017242 6  20.537793116379312 9.174999990234376  20.537793116379312 13.071666679687501  Z " fill-rule="nonzero" fill="#0066ff" stroke="none" transform="matrix(1 0 0 1 246 3222 )" />
  </g>
</svg>