<?xml version="1.0" encoding="utf-8"?>
<svg version="1.1" xmlns:xlink="http://www.w3.org/1999/xlink" width="18px" height="18px" xmlns="http://www.w3.org/2000/svg">
  <g transform="matrix(1 0 0 1 -235 -3614 )">
    <path d="M 17.466904204101557 9  C 17.466904204101557 4.334562531738281  13.67128680908203 0.5389901367187505  9.005894340820312 0.5389901367187502  C 4.340501872558593 0.5389901367187502  0.5448844775390617 4.334562531738281  0.5448844775390617 9  C 0.5448844775390617 13.66543746826172  4.340479372558593 17.461009863281248  9.005894340820312 17.461009863281248  C 13.67130930908203 17.461009863281248  17.466904204101557 13.66543746826172  17.466904204101557 9  Z M 16.67366553955078 9  C 16.67366553955078 13.228018967285157  13.233913286132815 16.66779369873047  9.005894340820312 16.66779369873047  C 4.777875373535156 16.66779369873047  1.3381006420898425 13.2280189453125  1.3381006420898425 8.999999999999998  C 1.3381006420898425 4.771981032714842  4.777852895507811 1.33220630126953  9.005894340820312 1.33220630126953  C 13.233935786132811 1.33220630126953  16.67366553955078 4.771981032714844  16.67366553955078 9  Z M 13.378999548339843 6.33978544921875  C 13.533872211914062 6.184957785644532  13.785011564941406 6.184957785644532  13.939884228515623 6.3397629492187475  C 14.094779370117186 6.494680590820311  14.094779370117186 6.74577496582031  13.939884228515623 6.900692629394529  L 8.704630590820312 12.135946267089846  C 8.703258244628906 12.13734111328125  8.701728420410156 12.138488481445313  8.700356052246093 12.139815849609377  C 8.695676579589845 12.144360344238283  8.69079462890625 12.148544882812502  8.685980178222655 12.152819377441409  C 8.680198315429687 12.157881306152344  8.674416474609373 12.162943234863283  8.668454633789061 12.167645229492189  C 8.663370205078124 12.171627290039066  8.658195776367187 12.175294372558596  8.652976369628906 12.179006455078131  C 8.641771230823828 12.18694215998936  8.630178195739095 12.194315447313132  8.618240258789061 12.201098972167971  C 8.611266049804687 12.204968532714846  8.604246818847654 12.208703115234378  8.597115131835936 12.212145241699222  C 8.592030703124998 12.214574978027349  8.586968774414062 12.217094692382814  8.581816845703123 12.21932192871094  C 8.574122702636718 12.222674055175784  8.566316081542967 12.225823703613283  8.558464460449217 12.228658395996097  C 8.553582509765624 12.230413198242191  8.54874555908203 12.232640456542972  8.54379608642578 12.234192780761724  C 8.53533703125 12.236869973144534  8.526765498046874 12.23992964355469  8.51814896484375 12.241999401855471  C 8.513626970214844 12.243146770019536  8.509127475585936 12.24602644042969  8.504582980957029 12.246948852539065  C 8.494954057617186 12.2489736328125  8.485235156249999 12.253675605468754  8.475516232910154 12.254957951660158  C 8.471849150390623 12.255430407714847  8.468227045898436 12.249626044921877  8.464537463378903 12.249986000976566  C 8.451128957519531 12.251380847167972  8.43765297363281 12.252235759277347  8.424176989746092 12.252235759277347  C 8.41191585205078 12.252235759277347  8.39985721435547 12.251538347167973  8.387821054687501 12.250390957031252  C 8.384446428222658 12.250076000976565  8.381094301757813 12.24285429199219  8.377719697265626 12.2424493359375  C 8.369035664062501 12.241459445800784  8.360396630859377 12.243619204101561  8.35178009765625 12.242021901855471  C 8.34764055908203 12.241234489746095  8.343546020507812 12.241864423828126  8.339406481933594 12.240987011718751  C 8.331689838867188 12.23927720947266  8.323995717773439 12.238287319335937  8.316346574707033 12.236172539062501  C 8.311802080078127 12.234890192871095  8.30732508544922 12.233855302734376  8.302848090820314 12.232392978515625  C 8.295783881835938 12.2301207421875  8.288742172851563 12.22789348388672  8.281790441894533 12.22521626953125  C 8.276998469238283 12.223348989257813  8.27225151855469 12.221549187011721  8.267549523925782 12.219479428710939  C 8.261058533853067 12.216691825087377  8.254644397404421 12.213728563668463  8.24831419921875 12.210592917480469  C 8.243409748535157 12.208163181152344  8.238527797851564 12.205755966796874  8.233690825195312 12.203078752441407  C 8.227676798048455 12.199772166454725  8.221764724343377 12.196283441958482  8.215962802734376 12.192617416992189  C 8.211103352050781 12.189625246582033  8.20622140136719 12.186678076171876  8.201474428710938 12.183415949707033  C 8.195665797786575 12.179372019450994  8.189957225779803 12.17518622955566  8.184353862304688 12.170862355957032  C 8.179944345703126 12.167465229492189  8.17546735107422 12.164248103027345  8.171170334472658 12.160693498535156  C 8.170270444335939 12.15990608642578  8.169325532226564 12.159298652343749  8.168425642089845 12.158578740234377  L 4.7840396923828115 9.303041052246096  C 4.616613435058595 9.161801872558595  4.5954208081054695 8.911539909667969  4.73665998779297 8.74411365234375  C 4.87794416748047 8.576732395019532  5.128161130371094 8.555517268066406  5.295542409667969 8.696756469726562  L 8.401409538574217 11.317330458984376  L 13.378999548339843 6.33978544921875  Z " fill-rule="nonzero" fill="#0fc060" stroke="none" transform="matrix(1 0 0 1 235 3614 )" />
  </g>
</svg>