<?xml version="1.0" encoding="utf-8"?>
<svg version="1.1" xmlns:xlink="http://www.w3.org/1999/xlink" width="16px" height="16px" xmlns="http://www.w3.org/2000/svg">
  <g transform="matrix(1 0 0 1 -565 -3615 )">
    <path d="M 15 8  C 15 4.1  11.9 1  8 1  C 4.1 1  1 4.1  1 8  C 1 11.9  4.1 15  8 15  C 11.9 15  15 11.9  15 8  Z M 0 8  C 0 3.5999999999999996  3.6 0  8 0  C 12.4 0  16 3.6  16 8  C 16 12.4  12.4 16  8 16  C 3.5999999999999996 16  0 12.4  0 8  Z M 7.2 4  C 7.2 3.6  7.6000000000000005 3.2  8 3.2  C 8.4 3.2  8.8 3.5  8.8 4  L 8.8 9.5  C 8.8 9.9  8.5 10.3  8 10.3  C 7.5 10.3  7.2 10  7.2 9.5  L 7.2 4  Z M 8.8 12  C 8.8 12.5  8.4 12.8  8 12.8  C 7.6 12.8  7.2 12.5  7.2 12  C 7.2 11.5  7.5 11.2  8 11.2  C 8.5 11.2  8.8 11.5  8.8 12  Z " fill-rule="nonzero" fill="#f59a23" stroke="none" transform="matrix(1 0 0 1 565 3615 )" />
  </g>
</svg>