<?xml version="1.0" encoding="utf-8"?>
<svg version="1.1" xmlns:xlink="http://www.w3.org/1999/xlink" width="12px" height="12px" xmlns="http://www.w3.org/2000/svg">
  <g transform="matrix(1 0 0 1 -359 -756 )">
    <path d="M 11.99897259375 5.24355101953125  L 11.95172663671875 5.24355101953125  L 11.95247656640625 5.249550503906249  L 10.4001094921875 5.249550503906249  L 10.39935955078125 5.24355101953125  L 6.711925289062499 5.24355101953125  L 9.150716472656251 2.8250081132812497  C 8.306445560747683 1.9779022694232817  7.159665629950322 1.5017641221604752  5.963679976443872 1.5017641221604752  C 3.478611385006711 1.5017641221604752  1.4640652537876224 3.5163102533795634  1.4640652537876224 6.001378844816726  C 1.4640652537876224 8.486447436253888  3.478611385006711 10.500993567472975  5.963679976443872 10.500993567472975  C 7.871276852940831 10.500993567472975  9.571562776482233 9.298140922485237  10.2066260625 7.49935787109375  L 11.809988765624997 7.49935787109375  C 11.126419404578005 10.148744763687798  8.736896380220802 11.999999185758604  6.000746169064378 11.999999185758604  C 2.6873213804814955 11.999999185758604  0.001259872189378182 9.313937677466486  0.001259872189378182 6.000512888883604  C 0.001259872189378182 2.6870881003007208  2.6873213804814955 0.001026592008604093  6.000746169064378 0.001026592008604093  C 7.588041375146348 0.001026592008604093  9.11065017669816 0.6300530425627072  10.235123613281248 1.7503501289062497  L 11.99897259375 0  L 11.99897259375 5.24355101953125  Z " fill-rule="nonzero" fill="#ff6666" stroke="none" transform="matrix(1 0 0 1 359 756 )" />
  </g>
</svg>