<?xml version="1.0" encoding="utf-8"?>
<svg version="1.1" xmlns:xlink="http://www.w3.org/1999/xlink" width="1205px" height="324px" xmlns="http://www.w3.org/2000/svg">
  <g transform="matrix(1 0 0 1 -183 -160 )">
    <path d="M 184 165  A 4 4 0 0 1 188 161 L 1383 161  A 4 4 0 0 1 1387 165 L 1387 479  A 4 4 0 0 1 1383 483 L 188 483  A 4 4 0 0 1 184 479 L 184 165  Z " fill-rule="nonzero" fill="#f2f2f2" stroke="none" />
    <path d="M 183.5 165  A 4.5 4.5 0 0 1 188 160.5 L 1383 160.5  A 4.5 4.5 0 0 1 1387.5 165 L 1387.5 479  A 4.5 4.5 0 0 1 1383 483.5 L 188 483.5  A 4.5 4.5 0 0 1 183.5 479 L 183.5 165  Z " stroke-width="1" stroke-dasharray="9,4" stroke="#999999" fill="none" stroke-dashoffset="0.5" />
  </g>
</svg>