<?xml version="1.0" encoding="utf-8"?>
<svg version="1.1" xmlns:xlink="http://www.w3.org/1999/xlink" width="13px" height="16px" xmlns="http://www.w3.org/2000/svg">
  <g transform="matrix(1 0 0 1 -798 -1407 )">
    <path d="M 8.810546875000002 0.2123579545454547  L 12.713448660714286 4.03515625  C 12.822265625 4.141690340909091  12.883928571428571 4.285511363636363  12.883928571428571 4.436434659090909  L 12.883928571428571 15.386363636363637  C 12.883928571428571 15.700639204545455  12.624581473214286 15.954545454545455  12.303571428571429 16  L 0.6964285714285714 16  C 0.3754185267857143 15.954545454545455  0.11607142857142856 15.700639204545455  0.11607142857142856 15.386363636363637  L 0.11607142857142856 0.6136363636363636  C 0.11607142857142856 0.29936079545454547  0.3754185267857143 0.045454545454545456  0.6964285714285714 0.045454545454545456  L 8.398856026785715 0.045454545454545456  C 8.553013392857144 0.045454545454545456  8.701729910714288 0.1058238636363638  8.810546875000002 0.2123579545454547  Z M 8.132254464285714 4.697443181818182  L 11.545479910714286 4.697443181818182  L 8.132254464285714 1.355823863636364  L 8.132254464285714 4.697443181818182  Z M 9.526471819196429 10.457013494318184  C 9.371226283482143 10.307688210227276  9.085763113839288 10.236239346590912  8.698410993303572 10.224005681818182  C 8.423212890625 10.21532315340909  8.13049525669643 10.235901988636362  7.797950613839285 10.276633522727273  C 7.357278180803571 10.010529119318182  7.0606431361607145 9.644850852272727  6.849900948660714 9.107830255681819  C 6.854979073660714 9.087375710227272  6.865498046875001 9.045010653409092  6.869179687499999 9.030060369318182  C 6.877776227678573 8.995294744318183  6.884903738839284 8.966246448863636  6.891722935267857 8.93799715909091  C 6.969581473214287 8.616086647727274  7.011693638392859 8.381214488636367  7.024116908482143 8.144406960227274  C 7.033511439732143 7.965536221590909  7.023391462053572 7.800514914772728  6.990982142857143 7.647674005681819  C 6.931169084821429 7.317702414772728  6.692569754464286 7.12471590909091  6.3921079799107146 7.112766335227274  C 6.111976841517856 7.101633522727274  5.854388950892856 7.254687500000002  5.788518415178571 7.492258522727274  C 5.681279296874999 7.875994318181819  5.744084821428571 8.381285511363636  5.971330915178571 9.242649147727276  C 5.681805245535714 9.918359375000001  5.2993498883928565 10.710351562500001  5.042705078125 11.15207741477273  C 4.7002036830357135 11.32501775568182  4.433257533482142 11.482421875000002  4.209294084821428 11.656818181818183  C 3.913620256696428 11.88703835227273  3.729048549107142 12.123615056818183  3.678158482142856 12.37247869318182  C 3.6535839843749995 12.487535511363639  3.690708705357143 12.638210227272731  3.7753683035714274 12.76154119318182  C 3.871417410714285 12.901438210227276  4.01625279017857 12.992205255681823  4.189870256696428 13.005415482954549  C 4.627894810267857 13.038742897727275  5.1661397879464275 12.596608664772731  5.760280412946428 11.598135653409093  C 5.820039062499999 11.578781960227275  5.883243582589285 11.558061079545457  5.960249720982142 11.532617187500001  C 6.002380022321428 11.518714488636364  6.1500265066964275 11.469797585227274  6.1762513950892854 11.461132812500004  C 6.312653459821428 11.416033380681823  6.411658761160714 11.383718039772731  6.509521484375 11.352539062500002  C 6.9338351004464265 11.217382812500004  7.254845145089286 11.131853693181823  7.547091238839285 11.083309659090911  C 8.0544140625 11.349165482954549  8.640991908482144 11.523579545454549  9.036033761160713 11.523579545454549  C 9.362103794642856 11.523579545454549  9.582403738839284 11.358114346590913  9.662003348214284 11.097709517045457  C 9.731954520089285 10.868909801136368  9.676403459821428 10.603675426136368  9.526471819196429 10.457013494318184  Z M 4.223929966517856 12.538121448863633  C 4.2099666773872135 12.532395072818765  4.200888926754019 12.519011584887602  4.200915178571428 12.504190340909089  L 4.200915178571428 12.497798295454544  L 4.203200334821428 12.491796874999999  C 4.226323939732143 12.4310546875  4.260456194196427 12.36736505681818  4.304762834821428 12.300781249999998  C 4.382458147321429 12.184019886363636  4.489261997767857 12.061079545454543  4.621637834821427 11.930308948863633  C 4.692731584821429 11.860085227272725  4.7667633928571425 11.791814630681818  4.8535993303571425 11.71511008522727  C 4.87305943080357 11.697904829545452  4.997056361607143 11.589772727272726  5.020252511160715 11.56862571022727  L 5.222942243303571 11.383842329545452  L 5.0756766183035715 11.613494318181814  C 4.852130301339285 11.96218039772727  4.650202287946429 12.213281249999996  4.476947544642856 12.377059659090907  C 4.413344029017857 12.437198153409087  4.357248883928571 12.481818181818177  4.312071707589285 12.510316051136362  C 4.293445870535715 12.522070312499999  4.277322823660715 12.530628551136362  4.2646819196428565 12.535600142045451  C 4.257264229910715 12.538494318181817  4.250698939732143 12.540358664772725  4.244188058035715 12.540962357954543  C 4.237297942841954 12.541754106048494  4.230316000804145 12.540774988021013  4.223929966517856 12.538121448863633  Z M 6.588178013392856 7.995774147727271  C 6.592095424107142 8.249325284090908  6.551361607142856 8.513210227272724  6.484874441964284 8.628675426136361  L 6.443886718749998 8.699822443181816  L 6.418677455357143 8.62196377840909  C 6.362201450892856 8.44744318181818  6.320977957589285 8.18444602272727  6.309570312499998 7.9473011363636346  C 6.296584821428571 7.677468039772725  6.318457031249999 7.5154296874999975  6.405438058035713 7.5154296874999975  C 6.527675781249999 7.5154296874999975  6.583734654017857 7.707333096590907  6.588178013392856 7.995774147727271  Z M 6.379503348214285 9.666743607954542  L 6.407324218749999 9.594833096590907  L 6.4451925223214275 9.662215909090905  C 6.65720424107143 10.03943536931818  6.932293526785713 10.354101562499999  7.2348046875 10.573348721590905  L 7.3000041852678565 10.620614346590907  L 7.220567801339285 10.636665482954543  C 6.924440569196429 10.69653764204545  6.648480747767858 10.786825284090906  6.271321149553571 10.93570667613636  C 6.310749162946427 10.920152698863633  5.87916294642857 11.093075284090906  5.770073939732142 11.134019886363633  L 5.6748228236607146 11.169762073863636  L 5.725640345982143 11.083167613636363  C 5.9496219308035725 10.701491477272725  6.156519252232142 10.242862215909089  6.379485212053572 9.666743607954542  Z M 9.27751674107143 10.99811789772727  C 9.269391741071429 11.005699573863636  9.25656947544643 11.01374289772727  9.238233816964286 11.020809659090906  C 9.095611049107143 11.075923295454544  8.788874162946428 11.026651278409087  8.248561662946429 10.800870028409088  L 8.111434151785714 10.743572443181817  L 8.260132533482142 10.73279474431818  C 8.682614397321426 10.702183948863633  8.982078683035713 10.72498224431818  9.15645786830357 10.787482244318182  C 9.230634765625 10.81408025568182  9.280219029017857 10.847638494318183  9.302218191964286 10.886079545454544  C 9.325976562500001 10.927556818181818  9.315094866071428 10.971484375  9.27751674107143 10.99811789772727  Z " fill-rule="nonzero" fill="#ff6666" stroke="none" transform="matrix(1 0 0 1 798 1407 )" />
  </g>
</svg>