<?xml version="1.0" encoding="utf-8"?>
<svg version="1.1" xmlns:xlink="http://www.w3.org/1999/xlink" width="12px" height="12px" xmlns="http://www.w3.org/2000/svg">
  <g transform="matrix(1 0 0 1 -1720 -925 )">
    <path d="M 12 6  C 12 2.6862915010152393  9.313708498984761 0  6 0  C 2.6862915010152393 0  0 2.6862915010152393  0 6  C 0 9.313708498984761  2.6862915010152393 12  6 12  C 9.313708498984761 12  12 9.313708498984761  12 6  Z M 7.200000000000001 9.315999996093751  C 7.199999999999999 9.978741695890701  6.662741699796952 10.51599999609375  6 10.51599999609375  C 5.3372583002030485 10.51599999609375  4.800000000000001 9.978741695890701  4.800000000000001 9.31599999609375  C 4.800000000000001 8.653258296296798  5.3372583002030485 8.11599999609375  6 8.11599999609375  C 6.662741699796952 8.11599999609375  7.200000000000001 8.653258296296798  7.200000000000001 9.31599999609375  Z M 7.44200000390625 2.924000003906249  C 7.44200000390625 3.7199999999999993  6.80000000390625 7.457999999999999  6 7.457999999999999  C 5.19999999609375 7.457999999999999  4.55799999609375 3.7199999999999993  4.557999996093749 2.9240000039062486  C 4.557999996093749 2.127605392492882  5.203605388586634 1.4819999999999987  5.999999999999999 1.4819999999999987  C 6.7963946114133655 1.4819999999999987  7.44200000390625 2.127605392492882  7.44200000390625 2.9240000039062486  Z " fill-rule="nonzero" fill="#f59a23" stroke="none" transform="matrix(1 0 0 1 1720 925 )" />
  </g>
</svg>