<?xml version="1.0" encoding="utf-8"?>
<svg version="1.1" xmlns:xlink="http://www.w3.org/1999/xlink" width="14px" height="12px" xmlns="http://www.w3.org/2000/svg">
  <g transform="matrix(1 0 0 1 -606 -1225 )">
    <path d="M 8.06689453125 0.3117004394531262  C 7.8225 0.08318481445312687  7.4275 0.08318481445312687  7.183144531249999 0.3122680664062496  C 6.938749999999999 0.5413879394531251  6.938749999999999 0.9116638183593746  7.183144531249999 1.1407836914062495  L 11.741269531249998 5.41402587890625  L 0.7500195312499998 5.41402587890625  C 0.4049999999999997 5.41402587890625  0.12499999999999929 5.676525878906251  0.12499999999999929 5.999981689453124  C 0.12499999999999929 6.323437500000001  0.4049999999999997 6.5859375  0.7500195312499998 6.5859375  L 11.741269531249998 6.5859375  L 7.183144531249999 10.8591796875  C 6.938749999999999 11.088299560546874  6.938749999999999 11.458575439453126  7.183144531249999 11.6876953125  C 7.4275390624999975 11.916815185546877  7.8225 11.916815185546877  8.06689453125 11.6876953125  L 13.691289062500001 6.4142395019531255  C 13.7494140625 6.360351562500002  13.7950390625 6.2953125000000005  13.8269140625 6.2232421874999995  C 13.8587890625 6.152343750000002  13.875019531249999 6.076171875  13.875019531249999 5.999981689453126  C 13.875019531249999 5.923828125  13.85875 5.8476196289062505  13.8269140625 5.776153564453125  C 13.7950390625 5.704083251953127  13.7494140625 5.639648437500002  13.691289062500001 5.585156250000002  L 8.06689453125 0.3117004394531262  Z " fill-rule="nonzero" fill="#e7772d" stroke="none" transform="matrix(1 0 0 1 606 1225 )" />
  </g>
</svg>