<?xml version="1.0" encoding="utf-8"?>
<svg version="1.1" xmlns:xlink="http://www.w3.org/1999/xlink" width="20px" height="20px" xmlns="http://www.w3.org/2000/svg">
  <g transform="matrix(1 0 0 1 -1490 -145 )">
    <path d="M 8.774038461538462 11.448863636363637  C 9.07852564102564 11.80871212121212  9.230769230769232 12.234848484848484  9.230769230769232 12.727272727272727  L 9.230769230769232 18.18181818181818  C 9.230769230769232 18.674242424242426  9.07852564102564 19.10037878787879  8.774038461538462 19.460227272727273  C 8.469551282051283 19.820075757575758  8.10897435897436 20  7.6923076923076925 20  L 1.5384615384615385 20  C 1.121794871794872 20  0.7612179487179488 19.820075757575758  0.4567307692307692 19.460227272727273  C 0.15224358974358973 19.10037878787879  0 18.674242424242426  0 18.18181818181818  L 0 12.727272727272727  C 0 12.234848484848484  0.15224358974358973 11.80871212121212  0.4567307692307692 11.448863636363637  C 0.7612179487179488 11.089015151515152  1.121794871794872 10.909090909090908  1.5384615384615385 10.909090909090908  L 7.6923076923076925 10.909090909090908  C 8.10897435897436 10.909090909090908  8.469551282051283 11.089015151515152  8.774038461538462 11.448863636363637  Z M 8.774038461538462 0.5397727272727271  C 9.07852564102564 0.899621212121211  9.230769230769232 1.3257575757575757  9.230769230769232 1.8181818181818188  L 9.230769230769232 7.272727272727273  C 9.230769230769232 7.765151515151514  9.07852564102564 8.191287878787879  8.774038461538462 8.551136363636365  C 8.469551282051283 8.910984848484848  8.10897435897436 9.090909090909092  7.6923076923076925 9.090909090909092  L 1.5384615384615385 9.090909090909092  C 1.121794871794872 9.090909090909092  0.7612179487179488 8.910984848484848  0.4567307692307692 8.551136363636365  C 0.15224358974358973 8.191287878787879  0 7.765151515151514  0 7.272727272727273  L 0 1.8181818181818188  C 0 1.3257575757575757  0.15224358974358973 0.899621212121211  0.4567307692307692 0.5397727272727271  C 0.7612179487179488 0.17992424242424088  1.121794871794872 0  1.5384615384615385 0  L 7.6923076923076925 0  C 8.10897435897436 0  8.469551282051283 0.17992424242424088  8.774038461538462 0.5397727272727271  Z M 19.54326923076923 11.448863636363637  C 19.847756410256412 11.80871212121212  20 12.234848484848484  20 12.727272727272727  L 20 18.18181818181818  C 20 18.674242424242426  19.847756410256412 19.10037878787879  19.54326923076923 19.460227272727273  C 19.23878205128205 19.820075757575758  18.87820512820513 20  18.461538461538463 20  L 12.307692307692308 20  C 11.891025641025642 20  11.53044871794872 19.820075757575758  11.225961538461537 19.460227272727273  C 10.92147435897436 19.10037878787879  10.769230769230768 18.674242424242426  10.769230769230768 18.18181818181818  L 10.769230769230768 12.727272727272727  C 10.769230769230768 12.234848484848484  10.92147435897436 11.80871212121212  11.225961538461537 11.448863636363637  C 11.53044871794872 11.089015151515152  11.891025641025642 10.909090909090908  12.307692307692308 10.909090909090908  L 18.461538461538463 10.909090909090908  C 18.87820512820513 10.909090909090908  19.23878205128205 11.089015151515152  19.54326923076923 11.448863636363637  Z M 19.54326923076923 0.5397727272727271  C 19.847756410256412 0.899621212121211  20 1.3257575757575757  20 1.8181818181818188  L 20 7.272727272727273  C 20 7.765151515151514  19.847756410256412 8.191287878787879  19.54326923076923 8.551136363636365  C 19.23878205128205 8.910984848484848  18.87820512820513 9.090909090909092  18.461538461538463 9.090909090909092  L 12.307692307692308 9.090909090909092  C 11.891025641025642 9.090909090909092  11.53044871794872 8.910984848484848  11.225961538461537 8.551136363636365  C 10.92147435897436 8.191287878787879  10.769230769230768 7.765151515151514  10.769230769230768 7.272727272727273  L 10.769230769230768 1.8181818181818188  C 10.769230769230768 1.3257575757575757  10.92147435897436 0.899621212121211  11.225961538461537 0.5397727272727271  C 11.53044871794872 0.17992424242424088  11.891025641025642 0  12.307692307692308 0  L 18.461538461538463 0  C 18.87820512820513 0  19.23878205128205 0.17992424242424088  19.54326923076923 0.5397727272727271  Z " fill-rule="nonzero" fill="#e7772d" stroke="none" transform="matrix(1 0 0 1 1490 145 )" />
  </g>
</svg>