<?xml version="1.0" encoding="utf-8"?>
<svg version="1.1" xmlns:xlink="http://www.w3.org/1999/xlink" width="20px" height="20px" xmlns="http://www.w3.org/2000/svg">
  <g transform="matrix(1 0 0 1 -1450 -145 )">
    <path d="M 3.6607142857142856 15.340909090909092  C 4.0773809523809526 15.87121212121212  4.285714285714286 16.515151515151516  4.285714285714286 17.272727272727273  C 4.285714285714286 18.03030303030303  4.0773809523809526 18.674242424242426  3.6607142857142856 19.204545454545453  C 3.244047619047619 19.734848484848484  2.738095238095238 20  2.142857142857143 20  C 1.547619047619048 20  1.0416666666666667 19.734848484848484  0.625 19.204545454545453  C 0.20833333333333331 18.674242424242426  0 18.03030303030303  0 17.272727272727273  C 0 16.515151515151516  0.20833333333333331 15.87121212121212  0.625 15.340909090909092  C 1.0416666666666667 14.810606060606059  1.547619047619048 14.545454545454547  2.142857142857143 14.545454545454547  C 2.738095238095238 14.545454545454547  3.244047619047619 14.810606060606059  3.6607142857142856 15.340909090909092  Z M 3.6607142857142856 8.068181818181818  C 4.0773809523809526 8.598484848484846  4.285714285714286 9.24242424242424  4.285714285714286 10  C 4.285714285714286 10.757575757575758  4.0773809523809526 11.401515151515152  3.6607142857142856 11.931818181818183  C 3.244047619047619 12.462121212121211  2.738095238095238 12.727272727272727  2.142857142857143 12.727272727272727  C 1.547619047619048 12.727272727272727  1.0416666666666667 12.462121212121211  0.625 11.931818181818183  C 0.20833333333333331 11.401515151515152  0 10.757575757575758  0 10  C 0 9.24242424242424  0.20833333333333331 8.598484848484846  0.625 8.068181818181818  C 1.0416666666666667 7.537878787878787  1.547619047619048 7.272727272727273  2.142857142857143 7.272727272727273  C 2.738095238095238 7.272727272727273  3.244047619047619 7.537878787878787  3.6607142857142856 8.068181818181818  Z M 19.893973214285715 15.589488636363637  C 19.96465773809524 15.679450757575758  20 15.785984848484848  20 15.909090909090908  L 20 18.636363636363637  C 20 18.759469696969695  19.96465773809524 18.86600378787879  19.893973214285715 18.955965909090907  C 19.823288690476193 19.04592803030303  19.739583333333336 19.090909090909093  19.642857142857142 19  L 6.071428571428571 19  C 5.974702380952381 19.090909090909093  5.890997023809525 19.04592803030303  5.8203125 18.955965909090907  C 5.749627976190476 18.86600378787879  5.7142857142857135 18.759469696969695  5.7142857142857135 18.636363636363637  L 5.7142857142857135 15.909090909090908  C 5.7142857142857135 15.785984848484848  5.749627976190476 15.679450757575758  5.8203125 15.589488636363637  C 5.890997023809525 15.499526515151516  5.974702380952381 15.454545454545453  6.071428571428571 15.454545454545453  L 19.642857142857142 15.454545454545453  C 19.739583333333336 15.454545454545453  19.823288690476193 15.499526515151516  19.893973214285715 15.589488636363637  Z M 3.6607142857142856 0.7954545454545459  C 4.0773809523809526 1.3257575757575757  4.285714285714286 1.969696969696968  4.285714285714286 2.727272727272727  C 4.285714285714286 3.484848484848484  4.0773809523809526 4.128787878787876  3.6607142857142856 4.659090909090908  C 3.244047619047619 5.189393939393938  2.738095238095238 5.454545454545454  2.142857142857143 5.454545454545454  C 1.547619047619048 5.454545454545454  1.0416666666666667 5.189393939393938  0.625 4.659090909090908  C 0.20833333333333331 4.128787878787876  0 3.484848484848484  0 2.727272727272727  C 0 1.969696969696968  0.20833333333333331 1.3257575757575757  0.625 0.7954545454545459  C 1.0416666666666667 0.2651515151515138  1.547619047619048 0  2.142857142857143 0  C 2.738095238095238 0  3.244047619047619 0.2651515151515138  3.6607142857142856 0.7954545454545459  Z M 19.893973214285715 8.316761363636365  C 19.96465773809524 8.406723484848484  20 8.513257575757576  20 8.636363636363635  L 20 11.363636363636363  C 20 11.486742424242422  19.96465773809524 11.593276515151514  19.893973214285715 11.683238636363637  C 19.823288690476193 11.773200757575758  19.739583333333336 11.818181818181817  19.642857142857142 11.818181818181817  L 6.071428571428571 11.818181818181817  C 5.974702380952381 11.818181818181817  5.890997023809525 11.773200757575758  5.8203125 11.683238636363637  C 5.749627976190476 11.593276515151514  5.7142857142857135 11.486742424242422  5.7142857142857135 11.363636363636363  L 5.7142857142857135 8.636363636363635  C 5.7142857142857135 8.513257575757576  5.749627976190476 8.406723484848484  5.8203125 8.316761363636365  C 5.890997023809525 8.226799242424242  5.974702380952381 8.181818181818182  6.071428571428571 8.181818181818182  L 19.642857142857142 8.181818181818182  C 19.739583333333336 8.181818181818182  19.823288690476193 8.226799242424242  19.893973214285715 8.316761363636365  Z M 19.893973214285715 1.0440340909090917  C 19.96465773809524 1.133996212121211  20 1.2405303030303028  20 1.3636363636363646  L 20 4.090909090909092  C 20 4.214015151515149  19.96465773809524 4.32054924242424  19.893973214285715 4.410511363636365  C 19.823288690476193 4.500473484848484  19.739583333333336 4.545454545454546  19.642857142857142 4.545454545454546  L 6.071428571428571 4.545454545454546  C 5.974702380952381 4.545454545454546  5.890997023809525 4.500473484848484  5.8203125 4.410511363636365  C 5.749627976190476 4.32054924242424  5.7142857142857135 4.214015151515149  5.7142857142857135 4.090909090909092  L 5.7142857142857135 1.3636363636363646  C 5.7142857142857135 1.2405303030303028  5.749627976190476 1.133996212121211  5.8203125 1.0440340909090917  C 5.890997023809525 0.954071969696968  5.974702380952381 0.9090909090909083  6.071428571428571 1  L 19.642857142857142 1  C 19.739583333333336 0.9090909090909083  19.823288690476193 0.954071969696968  19.893973214285715 1.0440340909090917  Z " fill-rule="nonzero" fill="#555555" stroke="none" transform="matrix(1 0 0 1 1450 145 )" />
  </g>
</svg>