<?xml version="1.0" encoding="utf-8"?>
<svg version="1.1" xmlns:xlink="http://www.w3.org/1999/xlink" width="20px" height="20px" xmlns="http://www.w3.org/2000/svg">
  <g transform="matrix(1 0 0 1 -1530 -145 )">
    <path d="M 19.684210526315795 13.375000000000005  C 19.964912280701757 12.857142857142863  19.842105263157897 12.232142857142863  19.385964912280702 11.875  L 17.719298245614034 10.589285714285715  C 17.736842105263158 10.410714285714285  17.75438596491228 10.214285714285715  17.75438596491228 10  C 17.75438596491228 9.785714285714285  17.73684210526316 9.589285714285715  17.719298245614034 9.410714285714286  L 19.385964912280702 8.125  C 19.842105263157894 7.767857142857143  19.964912280701753 7.142857142857143  19.666666666666664 6.607142857142857  L 17.80701754385965 3.4107142857142856  C 17.596491228070175 3.0357142857142856  17.19298245614035 2.8035714285714293  16.771929824561404 2.8035714285714293  C 16.631578947368418 2.8035714285714293  16.508771929824558 2.821428571428572  16.36842105263158 2.8750000000000004  L 14.385964912280702 3.6607142857142856  C 14.052631578947368 3.428571428571429  13.701754385964911 3.232142857142857  13.350877192982455 3.071428571428571  L 13.052631578947366 1.0178571428571428  C 12.964912280701753 0.4285714285714285  12.473684210526315 0  11.877192982456137 0  L 8.12280701754386 0  C 7.526315789473684 0  7.035087719298244 0.4285714285714285  6.947368421052631 0.9999999999999998  L 6.666666666666666 3.071428571428571  C 6.315789473684211 3.2321428571428568  5.982456140350877 3.428571428571429  5.631578947368421 3.6607142857142856  L 3.649122807017544 2.8750000000000004  C 3.508771929824561 2.821428571428571  3.3684210526315788 2.8035714285714293  3.228070175438597 2.8035714285714293  C 2.8070175438596494 2.8035714285714293  2.403508771929825 3.0178571428571432  2.210526315789474 3.3928571428571437  L 0.33333333333333337 6.607142857142857  C 0.03508771929824565 7.107142857142856  0.15789473684210534 7.767857142857143  0.6140350877192982 8.125  L 2.280701754385965 9.410714285714286  C 2.263157894736842 9.625000000000002  2.245614035087719 9.821428571428571  2.245614035087719 10  C 2.245614035087719 10.178571428571427  2.245614035087719 10.374999999999998  2.280701754385965 10.589285714285715  L 0.6140350877192982 11.875  C 0.15789473684210534 12.232142857142858  0.03508771929824565 12.857142857142858  0.33333333333333337 13.392857142857142  L 2.1929824561403506 16.589285714285715  C 2.4035087719298245 16.964285714285715  2.807017543859649 17.196428571428573  3.228070175438596 17.196428571428573  C 3.3684210526315788 17.196428571428573  3.4912280701754383 17.17857142857143  3.631578947368421 17.125  L 5.614035087719298 16.339285714285715  C 5.947368421052631 16.57142857142857  6.298245614035087 16.767857142857142  6.649122807017544 16.928571428571427  L 6.947368421052632 18.982142857142858  C 7.017543859649122 19.553571428571427  7.526315789473684 20  8.12280701754386 20  L 11.877192982456142 20  C 12.473684210526317 20  12.964912280701755 19.57142857142857  13.05263157894737 19  L 13.350877192982457 16.92857142857143  C 13.701754385964913 16.767857142857142  14.035087719298247 16.571428571428573  14.385964912280704 16.339285714285715  L 16.368421052631582 17.125000000000004  C 16.508771929824565 17.17857142857143  16.649122807017545 17.196428571428577  16.78947368421053 17.196428571428577  C 17.21052631578948 17.196428571428577  17.6140350877193 16.98214285714286  17.80701754385965 16.60714285714286  L 19.684210526315795 13.375000000000005  Z M 10 5.7142857142857135  C 12.31578947368421 5.7142857142857135  14.210526315789473 7.642857142857142  14.210526315789473 10  C 14.210526315789473 12.357142857142858  12.31578947368421 14.285714285714286  10 14.285714285714286  C 7.684210526315789 14.285714285714286  5.7894736842105265 12.357142857142858  5.7894736842105265 10  C 5.7894736842105265 7.642857142857142  7.684210526315789 5.7142857142857135  10 5.7142857142857135  Z " fill-rule="nonzero" fill="#555555" stroke="none" transform="matrix(1 0 0 1 1530 145 )" />
  </g>
</svg>