<?xml version="1.0" encoding="utf-8"?>
<svg version="1.1" xmlns:xlink="http://www.w3.org/1999/xlink" width="34px" height="34px" preserveAspectRatio="xMinYMid meet" viewBox="2481 1231  34 32" xmlns="http://www.w3.org/2000/svg">
  <path d="M 2432 1508  L 2460 1508  A 5 5 0 0 0 2465 1503 L 2465 1252  A 5 5 0 0 1 2470 1247 L 2498 1247  " stroke-width="2" stroke="#0066ff" fill="none" />
  <path d="M 2433.5 1504.5  A 3.5 3.5 0 0 0 2430 1508 A 3.5 3.5 0 0 0 2433.5 1511.5 A 3.5 3.5 0 0 0 2437 1508 A 3.5 3.5 0 0 0 2433.5 1504.5 Z M 2490.6 1255  L 2500 1247  L 2490.6 1239  L 2494.2 1247  L 2490.6 1255  Z " fill-rule="nonzero" fill="#0066ff" stroke="none" />
</svg>