<?xml version="1.0" encoding="utf-8"?>
<svg version="1.1" xmlns:xlink="http://www.w3.org/1999/xlink" width="10px" height="5px" preserveAspectRatio="xMinYMid meet" viewBox="4016 1218  10 3" xmlns="http://www.w3.org/2000/svg">
  <path d="M 4023 1222  L 4063 1222  A 5 5 0 0 1 4068 1227 L 4068 1271  A 5 5 0 0 0 4073 1276 L 4114 1276  " stroke-width="2" stroke="#0066ff" fill="none" />
  <path d="M 4024.5 1218.5  A 3.5 3.5 0 0 0 4021 1222 A 3.5 3.5 0 0 0 4024.5 1225.5 A 3.5 3.5 0 0 0 4028 1222 A 3.5 3.5 0 0 0 4024.5 1218.5 Z M 4106.6 1284  L 4116 1276  L 4106.6 1268  L 4110.2 1276  L 4106.6 1284  Z " fill-rule="nonzero" fill="#0066ff" stroke="none" />
</svg>