<?xml version="1.0" encoding="utf-8"?>
<svg version="1.1" xmlns:xlink="http://www.w3.org/1999/xlink" width="20px" height="20px" xmlns="http://www.w3.org/2000/svg">
  <g transform="matrix(1 0 0 1 -1972 -559 )">
    <path d="M 1982 560  C 1987.04 560  1991 563.96  1991 569  C 1991 574.04  1987.04 578  1982 578  C 1976.96 578  1973 574.04  1973 569  C 1973 563.96  1976.96 560  1982 560  Z " fill-rule="nonzero" fill="#ffffff" stroke="none" fill-opacity="0" />
    <path d="M 1982 560  C 1987.04 560  1991 563.96  1991 569  C 1991 574.04  1987.04 578  1982 578  C 1976.96 578  1973 574.04  1973 569  C 1973 563.96  1976.96 560  1982 560  Z " stroke-width="2" stroke="#0066ff" fill="none" />
  </g>
</svg>