<?xml version="1.0" encoding="utf-8"?>
<svg version="1.1" xmlns:xlink="http://www.w3.org/1999/xlink" width="18px" height="18px" viewBox="169 1243  18 18" xmlns="http://www.w3.org/2000/svg">
  <path d="M 169.5 1246  A 2.5 2.5 0 0 1 172 1243.5 L 184 1243.5  A 2.5 2.5 0 0 1 186.5 1246 L 186.5 1258  A 2.5 2.5 0 0 1 184 1260.5 L 172 1260.5  A 2.5 2.5 0 0 1 169.5 1258 L 169.5 1246  Z " fill-rule="nonzero" fill="#ffffff" stroke="none" />
  <path d="M 169.5 1246  A 2.5 2.5 0 0 1 172 1243.5 L 184 1243.5  A 2.5 2.5 0 0 1 186.5 1246 L 186.5 1258  A 2.5 2.5 0 0 1 184 1260.5 L 172 1260.5  A 2.5 2.5 0 0 1 169.5 1258 L 169.5 1246  Z " stroke-width="1" stroke="#797979" fill="none" />
  <path d="M 172.85714285714286 1252  L 176.71428571428572 1255.857142857143  L 183.14285714285714 1246.857142857143  " stroke-width="3.8571428571428577" stroke="#797979" fill="none" />
</svg>