<?xml version="1.0" encoding="utf-8"?>
<svg version="1.1" xmlns:xlink="http://www.w3.org/1999/xlink" width="18px" height="18px" viewBox="646 1243  18 18" xmlns="http://www.w3.org/2000/svg">
  <path d="M 646.5 1246  A 2.5 2.5 0 0 1 649 1243.5 L 661 1243.5  A 2.5 2.5 0 0 1 663.5 1246 L 663.5 1258  A 2.5 2.5 0 0 1 661 1260.5 L 649 1260.5  A 2.5 2.5 0 0 1 646.5 1258 L 646.5 1246  Z " fill-rule="nonzero" fill="#ffffff" stroke="none" />
  <path d="M 646.5 1246  A 2.5 2.5 0 0 1 649 1243.5 L 661 1243.5  A 2.5 2.5 0 0 1 663.5 1246 L 663.5 1258  A 2.5 2.5 0 0 1 661 1260.5 L 649 1260.5  A 2.5 2.5 0 0 1 646.5 1258 L 646.5 1246  Z " stroke-width="1" stroke="#797979" fill="none" />
</svg>