<?xml version="1.0" encoding="utf-8"?>
<svg version="1.1" xmlns:xlink="http://www.w3.org/1999/xlink" width="18px" height="18px" viewBox="259 1202  18 18" xmlns="http://www.w3.org/2000/svg">
  <path d="M 259.5 1205  A 2.5 2.5 0 0 1 262 1202.5 L 274 1202.5  A 2.5 2.5 0 0 1 276.5 1205 L 276.5 1217  A 2.5 2.5 0 0 1 274 1219.5 L 262 1219.5  A 2.5 2.5 0 0 1 259.5 1217 L 259.5 1205  Z " fill-rule="nonzero" fill="#f0f0f0" stroke="none" />
  <path d="M 259.5 1205  A 2.5 2.5 0 0 1 262 1202.5 L 274 1202.5  A 2.5 2.5 0 0 1 276.5 1205 L 276.5 1217  A 2.5 2.5 0 0 1 274 1219.5 L 262 1219.5  A 2.5 2.5 0 0 1 259.5 1217 L 259.5 1205  Z " stroke-width="1" stroke="#797979" fill="none" />
  <path d="M 262.85714285714283 1211  L 266.7142857142857 1214.857142857143  L 273.14285714285717 1205.857142857143  " stroke-width="3.8571428571428577" stroke="#797979" fill="none" />
</svg>