<?xml version="1.0" encoding="utf-8"?>
<svg version="1.1" xmlns:xlink="http://www.w3.org/1999/xlink" width="18px" height="18px" viewBox="259 1243  18 18" xmlns="http://www.w3.org/2000/svg">
  <path d="M 259.5 1246  A 2.5 2.5 0 0 1 262 1243.5 L 274 1243.5  A 2.5 2.5 0 0 1 276.5 1246 L 276.5 1258  A 2.5 2.5 0 0 1 274 1260.5 L 262 1260.5  A 2.5 2.5 0 0 1 259.5 1258 L 259.5 1246  Z " fill-rule="nonzero" fill="#f0f0f0" stroke="none" />
  <path d="M 259.5 1246  A 2.5 2.5 0 0 1 262 1243.5 L 274 1243.5  A 2.5 2.5 0 0 1 276.5 1246 L 276.5 1258  A 2.5 2.5 0 0 1 274 1260.5 L 262 1260.5  A 2.5 2.5 0 0 1 259.5 1258 L 259.5 1246  Z " stroke-width="1" stroke="#797979" fill="none" />
  <path d="M 262.85714285714283 1252  L 266.7142857142857 1255.857142857143  L 273.14285714285717 1246.857142857143  " stroke-width="3.8571428571428577" stroke="#797979" fill="none" />
</svg>