<?xml version="1.0" encoding="utf-8"?>
<svg version="1.1" xmlns:xlink="http://www.w3.org/1999/xlink" width="18px" height="18px" viewBox="388 1202  18 18" xmlns="http://www.w3.org/2000/svg">
  <path d="M 388.5 1205  A 2.5 2.5 0 0 1 391 1202.5 L 403 1202.5  A 2.5 2.5 0 0 1 405.5 1205 L 405.5 1217  A 2.5 2.5 0 0 1 403 1219.5 L 391 1219.5  A 2.5 2.5 0 0 1 388.5 1217 L 388.5 1205  Z " fill-rule="nonzero" fill="#ffffff" stroke="none" />
  <path d="M 388.5 1205  A 2.5 2.5 0 0 1 391 1202.5 L 403 1202.5  A 2.5 2.5 0 0 1 405.5 1205 L 405.5 1217  A 2.5 2.5 0 0 1 403 1219.5 L 391 1219.5  A 2.5 2.5 0 0 1 388.5 1217 L 388.5 1205  Z " stroke-width="1" stroke="#797979" fill="none" />
  <path d="M 391.85714285714283 1211  L 395.7142857142857 1214.857142857143  L 402.14285714285717 1205.857142857143  " stroke-width="3.8571428571428577" stroke="#797979" fill="none" />
</svg>