<?xml version="1.0" encoding="utf-8"?>
<svg version="1.1" xmlns:xlink="http://www.w3.org/1999/xlink" width="18px" height="18px" viewBox="1136 1243  18 18" xmlns="http://www.w3.org/2000/svg">
  <path d="M 1136.5 1246  A 2.5 2.5 0 0 1 1139 1243.5 L 1151 1243.5  A 2.5 2.5 0 0 1 1153.5 1246 L 1153.5 1258  A 2.5 2.5 0 0 1 1151 1260.5 L 1139 1260.5  A 2.5 2.5 0 0 1 1136.5 1258 L 1136.5 1246  Z " fill-rule="nonzero" fill="#f0f0f0" stroke="none" />
  <path d="M 1136.5 1246  A 2.5 2.5 0 0 1 1139 1243.5 L 1151 1243.5  A 2.5 2.5 0 0 1 1153.5 1246 L 1153.5 1258  A 2.5 2.5 0 0 1 1151 1260.5 L 1139 1260.5  A 2.5 2.5 0 0 1 1136.5 1258 L 1136.5 1246  Z " stroke-width="1" stroke="#797979" fill="none" />
  <path d="M 1139.857142857143 1252  L 1143.7142857142858 1255.857142857143  L 1150.142857142857 1246.857142857143  " stroke-width="3.8571428571428577" stroke="#797979" fill="none" />
</svg>