<?xml version="1.0" encoding="utf-8"?>
<svg version="1.1" xmlns:xlink="http://www.w3.org/1999/xlink" width="18px" height="18px" viewBox="259 1243  18 18" xmlns="http://www.w3.org/2000/svg">
  <path d="M 259.5 1246  A 2.5 2.5 0 0 1 262 1243.5 L 274 1243.5  A 2.5 2.5 0 0 1 276.5 1246 L 276.5 1258  A 2.5 2.5 0 0 1 274 1260.5 L 262 1260.5  A 2.5 2.5 0 0 1 259.5 1258 L 259.5 1246  Z " fill-rule="nonzero" fill="#ffffff" stroke="none" />
  <path d="M 259.5 1246  A 2.5 2.5 0 0 1 262 1243.5 L 274 1243.5  A 2.5 2.5 0 0 1 276.5 1246 L 276.5 1258  A 2.5 2.5 0 0 1 274 1260.5 L 262 1260.5  A 2.5 2.5 0 0 1 259.5 1258 L 259.5 1246  Z " stroke-width="1" stroke="#797979" fill="none" />
</svg>