<?xml version="1.0" encoding="utf-8"?>
<svg version="1.1" xmlns:xlink="http://www.w3.org/1999/xlink" width="18px" height="18px" viewBox="169 1284  18 18" xmlns="http://www.w3.org/2000/svg">
  <path d="M 169.5 1287  A 2.5 2.5 0 0 1 172 1284.5 L 184 1284.5  A 2.5 2.5 0 0 1 186.5 1287 L 186.5 1299  A 2.5 2.5 0 0 1 184 1301.5 L 172 1301.5  A 2.5 2.5 0 0 1 169.5 1299 L 169.5 1287  Z " fill-rule="nonzero" fill="#f0f0f0" stroke="none" />
  <path d="M 169.5 1287  A 2.5 2.5 0 0 1 172 1284.5 L 184 1284.5  A 2.5 2.5 0 0 1 186.5 1287 L 186.5 1299  A 2.5 2.5 0 0 1 184 1301.5 L 172 1301.5  A 2.5 2.5 0 0 1 169.5 1299 L 169.5 1287  Z " stroke-width="1" stroke="#797979" fill="none" />
  <path d="M 172.85714285714286 1293  L 176.71428571428572 1296.857142857143  L 183.14285714285714 1287.857142857143  " stroke-width="3.8571428571428577" stroke="#797979" fill="none" />
</svg>