<?xml version="1.0" encoding="utf-8"?>
<svg version="1.1" xmlns:xlink="http://www.w3.org/1999/xlink" width="21px" height="20px" xmlns="http://www.w3.org/2000/svg">
  <g transform="matrix(1 0 0 1 -1529 -1116 )">
    <path d="M 20.668421052631583 13.375000000000005  C 20.963157894736845 12.857142857142863  20.834210526315793 12.232142857142863  20.355263157894736 11.875  L 18.605263157894736 10.589285714285715  C 18.623684210526314 10.410714285714285  18.642105263157895 10.214285714285715  18.642105263157895 10  C 18.642105263157895 9.785714285714285  18.623684210526317 9.589285714285715  18.605263157894736 9.410714285714286  L 20.355263157894736 8.125  C 20.83421052631579 7.767857142857143  20.96315789473684 7.142857142857143  20.65 6.607142857142857  L 18.69736842105263 3.4107142857142856  C 18.476315789473684 3.0357142857142856  18.05263157894737 2.8035714285714293  17.61052631578947 2.8035714285714293  C 17.46315789473684 2.8035714285714293  17.334210526315786 2.821428571428572  17.186842105263157 2.8750000000000004  L 15.105263157894736 3.6607142857142856  C 14.755263157894737 3.428571428571429  14.386842105263156 3.232142857142857  14.018421052631577 3.071428571428571  L 13.705263157894736 1.0178571428571428  C 13.61315789473684 0.4285714285714285  13.09736842105263 0  12.471052631578944 0  L 8.528947368421052 0  C 7.902631578947369 0  7.386842105263156 0.4285714285714285  7.294736842105262 0.9999999999999998  L 7 3.071428571428571  C 6.63157894736842 3.2321428571428568  6.281578947368421 3.428571428571429  5.913157894736842 3.6607142857142856  L 3.8315789473684214 2.8750000000000004  C 3.6842105263157894 2.821428571428571  3.536842105263158 2.8035714285714293  3.389473684210527 2.8035714285714293  C 2.947368421052632 2.8035714285714293  2.523684210526316 3.0178571428571432  2.3210526315789477 3.3928571428571437  L 0.3500000000000001 6.607142857142857  C 0.036842105263157926 7.107142857142856  0.1657894736842106 7.767857142857143  0.6447368421052632 8.125  L 2.394736842105263 9.410714285714286  C 2.376315789473684 9.625000000000002  2.3578947368421055 9.821428571428571  2.3578947368421055 10  C 2.3578947368421055 10.178571428571427  2.3578947368421055 10.374999999999998  2.394736842105263 10.589285714285715  L 0.6447368421052632 11.875  C 0.1657894736842106 12.232142857142858  0.036842105263157926 12.857142857142858  0.3500000000000001 13.392857142857142  L 2.302631578947368 16.589285714285715  C 2.5236842105263158 16.964285714285715  2.9473684210526314 17.196428571428573  3.3894736842105258 17.196428571428573  C 3.536842105263158 17.196428571428573  3.6657894736842103 17.17857142857143  3.813157894736842 17.125  L 5.894736842105263 16.339285714285715  C 6.2447368421052625 16.57142857142857  6.613157894736842 16.767857142857142  6.981578947368421 16.928571428571427  L 7.294736842105264 18.982142857142858  C 7.368421052631579 19.553571428571427  7.902631578947369 20  8.528947368421054 20  L 12.47105263157895 20  C 13.097368421052632 20  13.613157894736842 19.57142857142857  13.705263157894738 19  L 14.018421052631581 16.92857142857143  C 14.386842105263158 16.767857142857142  14.73684210526316 16.571428571428573  15.10526315789474 16.339285714285715  L 17.18684210526316 17.125000000000004  C 17.334210526315793 17.17857142857143  17.481578947368423 17.196428571428577  17.628947368421056 17.196428571428577  C 18.07105263157895 17.196428571428577  18.49473684210527 16.98214285714286  18.697368421052634 16.60714285714286  L 20.668421052631583 13.375000000000005  Z M 10.5 5.7142857142857135  C 12.931578947368422 5.7142857142857135  14.921052631578947 7.642857142857142  14.921052631578947 10  C 14.921052631578947 12.357142857142858  12.931578947368422 14.285714285714286  10.5 14.285714285714286  C 8.068421052631578 14.285714285714286  6.078947368421053 12.357142857142858  6.078947368421053 10  C 6.078947368421053 7.642857142857142  8.068421052631578 5.7142857142857135  10.5 5.7142857142857135  Z " fill-rule="nonzero" fill="#000000" stroke="none" transform="matrix(1 0 0 1 1529 1116 )" />
  </g>
</svg>