<?xml version="1.0" encoding="utf-8"?>
<svg version="1.1" xmlns:xlink="http://www.w3.org/1999/xlink" width="18px" height="18px" viewBox="517 1284  18 18" xmlns="http://www.w3.org/2000/svg">
  <path d="M 517.5 1287  A 2.5 2.5 0 0 1 520 1284.5 L 532 1284.5  A 2.5 2.5 0 0 1 534.5 1287 L 534.5 1299  A 2.5 2.5 0 0 1 532 1301.5 L 520 1301.5  A 2.5 2.5 0 0 1 517.5 1299 L 517.5 1287  Z " fill-rule="nonzero" fill="#ffffff" stroke="none" />
  <path d="M 517.5 1287  A 2.5 2.5 0 0 1 520 1284.5 L 532 1284.5  A 2.5 2.5 0 0 1 534.5 1287 L 534.5 1299  A 2.5 2.5 0 0 1 532 1301.5 L 520 1301.5  A 2.5 2.5 0 0 1 517.5 1299 L 517.5 1287  Z " stroke-width="1" stroke="#797979" fill="none" />
  <path d="M 520.8571428571429 1293  L 524.7142857142857 1296.857142857143  L 531.1428571428571 1287.857142857143  " stroke-width="3.8571428571428577" stroke="#797979" fill="none" />
</svg>