<?xml version="1.0" encoding="utf-8"?>
<svg version="1.1" xmlns:xlink="http://www.w3.org/1999/xlink" width="18px" height="18px" viewBox="517 1243  18 18" xmlns="http://www.w3.org/2000/svg">
  <path d="M 517.5 1246  A 2.5 2.5 0 0 1 520 1243.5 L 532 1243.5  A 2.5 2.5 0 0 1 534.5 1246 L 534.5 1258  A 2.5 2.5 0 0 1 532 1260.5 L 520 1260.5  A 2.5 2.5 0 0 1 517.5 1258 L 517.5 1246  Z " fill-rule="nonzero" fill="#f0f0f0" stroke="none" />
  <path d="M 517.5 1246  A 2.5 2.5 0 0 1 520 1243.5 L 532 1243.5  A 2.5 2.5 0 0 1 534.5 1246 L 534.5 1258  A 2.5 2.5 0 0 1 532 1260.5 L 520 1260.5  A 2.5 2.5 0 0 1 517.5 1258 L 517.5 1246  Z " stroke-width="1" stroke="#797979" fill="none" />
</svg>