<?xml version="1.0" encoding="utf-8"?>
<svg version="1.1" xmlns:xlink="http://www.w3.org/1999/xlink" width="18px" height="18px" viewBox="388 1243  18 18" xmlns="http://www.w3.org/2000/svg">
  <path d="M 388.5 1246  A 2.5 2.5 0 0 1 391 1243.5 L 403 1243.5  A 2.5 2.5 0 0 1 405.5 1246 L 405.5 1258  A 2.5 2.5 0 0 1 403 1260.5 L 391 1260.5  A 2.5 2.5 0 0 1 388.5 1258 L 388.5 1246  Z " fill-rule="nonzero" fill="#f0f0f0" stroke="none" />
  <path d="M 388.5 1246  A 2.5 2.5 0 0 1 391 1243.5 L 403 1243.5  A 2.5 2.5 0 0 1 405.5 1246 L 405.5 1258  A 2.5 2.5 0 0 1 403 1260.5 L 391 1260.5  A 2.5 2.5 0 0 1 388.5 1258 L 388.5 1246  Z " stroke-width="1" stroke="#797979" fill="none" />
  <path d="M 391.85714285714283 1252  L 395.7142857142857 1255.857142857143  L 402.14285714285717 1246.857142857143  " stroke-width="3.8571428571428577" stroke="#797979" fill="none" />
</svg>