<?xml version="1.0" encoding="utf-8"?>
<svg version="1.1" xmlns:xlink="http://www.w3.org/1999/xlink" width="18px" height="18px" viewBox="775 1243  18 18" xmlns="http://www.w3.org/2000/svg">
  <path d="M 775.5 1246  A 2.5 2.5 0 0 1 778 1243.5 L 790 1243.5  A 2.5 2.5 0 0 1 792.5 1246 L 792.5 1258  A 2.5 2.5 0 0 1 790 1260.5 L 778 1260.5  A 2.5 2.5 0 0 1 775.5 1258 L 775.5 1246  Z " fill-rule="nonzero" fill="#ffffff" stroke="none" />
  <path d="M 775.5 1246  A 2.5 2.5 0 0 1 778 1243.5 L 790 1243.5  A 2.5 2.5 0 0 1 792.5 1246 L 792.5 1258  A 2.5 2.5 0 0 1 790 1260.5 L 778 1260.5  A 2.5 2.5 0 0 1 775.5 1258 L 775.5 1246  Z " stroke-width="1" stroke="#797979" fill="none" />
  <path d="M 778.8571428571429 1252  L 782.7142857142857 1255.857142857143  L 789.1428571428571 1246.857142857143  " stroke-width="3.8571428571428577" stroke="#797979" fill="none" />
</svg>