<?xml version="1.0" encoding="utf-8"?>
<svg version="1.1" xmlns:xlink="http://www.w3.org/1999/xlink" width="18px" height="18px" viewBox="646 1284  18 18" xmlns="http://www.w3.org/2000/svg">
  <path d="M 646.5 1287  A 2.5 2.5 0 0 1 649 1284.5 L 661 1284.5  A 2.5 2.5 0 0 1 663.5 1287 L 663.5 1299  A 2.5 2.5 0 0 1 661 1301.5 L 649 1301.5  A 2.5 2.5 0 0 1 646.5 1299 L 646.5 1287  Z " fill-rule="nonzero" fill="#ffffff" stroke="none" />
  <path d="M 646.5 1287  A 2.5 2.5 0 0 1 649 1284.5 L 661 1284.5  A 2.5 2.5 0 0 1 663.5 1287 L 663.5 1299  A 2.5 2.5 0 0 1 661 1301.5 L 649 1301.5  A 2.5 2.5 0 0 1 646.5 1299 L 646.5 1287  Z " stroke-width="1" stroke="#797979" fill="none" />
  <path d="M 649.8571428571429 1293  L 653.7142857142857 1296.857142857143  L 660.1428571428571 1287.857142857143  " stroke-width="3.8571428571428577" stroke="#797979" fill="none" />
</svg>