<?xml version="1.0" encoding="utf-8"?>
<svg version="1.1" xmlns:xlink="http://www.w3.org/1999/xlink" width="18px" height="18px" viewBox="388 1284  18 18" xmlns="http://www.w3.org/2000/svg">
  <path d="M 388.5 1287  A 2.5 2.5 0 0 1 391 1284.5 L 403 1284.5  A 2.5 2.5 0 0 1 405.5 1287 L 405.5 1299  A 2.5 2.5 0 0 1 403 1301.5 L 391 1301.5  A 2.5 2.5 0 0 1 388.5 1299 L 388.5 1287  Z " fill-rule="nonzero" fill="#f0f0f0" stroke="none" />
  <path d="M 388.5 1287  A 2.5 2.5 0 0 1 391 1284.5 L 403 1284.5  A 2.5 2.5 0 0 1 405.5 1287 L 405.5 1299  A 2.5 2.5 0 0 1 403 1301.5 L 391 1301.5  A 2.5 2.5 0 0 1 388.5 1299 L 388.5 1287  Z " stroke-width="1" stroke="#797979" fill="none" />
</svg>