<?xml version="1.0" encoding="utf-8"?>
<svg version="1.1" xmlns:xlink="http://www.w3.org/1999/xlink" width="18px" height="18px" viewBox="1740 2476  18 18" xmlns="http://www.w3.org/2000/svg">
  <path d="M 1740.5 2479  A 2.5 2.5 0 0 1 1743 2476.5 L 1755 2476.5  A 2.5 2.5 0 0 1 1757.5 2479 L 1757.5 2491  A 2.5 2.5 0 0 1 1755 2493.5 L 1743 2493.5  A 2.5 2.5 0 0 1 1740.5 2491 L 1740.5 2479  Z " fill-rule="nonzero" fill="#f0f0f0" stroke="none" />
  <path d="M 1740.5 2479  A 2.5 2.5 0 0 1 1743 2476.5 L 1755 2476.5  A 2.5 2.5 0 0 1 1757.5 2479 L 1757.5 2491  A 2.5 2.5 0 0 1 1755 2493.5 L 1743 2493.5  A 2.5 2.5 0 0 1 1740.5 2491 L 1740.5 2479  Z " stroke-width="1" stroke="#797979" fill="none" />
  <path d="M 1743.857142857143 2485  L 1747.7142857142858 2488.857142857143  L 1754.142857142857 2479.8571428571427  " stroke-width="3.8571428571428577" stroke="#797979" fill="none" />
</svg>