<?xml version="1.0" encoding="utf-8"?>
<svg version="1.1" xmlns:xlink="http://www.w3.org/1999/xlink" width="18px" height="18px" viewBox="1998 2612  18 18" xmlns="http://www.w3.org/2000/svg">
  <path d="M 1998.5 2615  A 2.5 2.5 0 0 1 2001 2612.5 L 2013 2612.5  A 2.5 2.5 0 0 1 2015.5 2615 L 2015.5 2627  A 2.5 2.5 0 0 1 2013 2629.5 L 2001 2629.5  A 2.5 2.5 0 0 1 1998.5 2627 L 1998.5 2615  Z " fill-rule="nonzero" fill="#ffffff" stroke="none" />
  <path d="M 1998.5 2615  A 2.5 2.5 0 0 1 2001 2612.5 L 2013 2612.5  A 2.5 2.5 0 0 1 2015.5 2615 L 2015.5 2627  A 2.5 2.5 0 0 1 2013 2629.5 L 2001 2629.5  A 2.5 2.5 0 0 1 1998.5 2627 L 1998.5 2615  Z " stroke-width="1" stroke="#797979" fill="none" />
  <path d="M 2001.857142857143 2621  L 2005.7142857142858 2624.857142857143  L 2012.142857142857 2615.8571428571427  " stroke-width="3.8571428571428577" stroke="#797979" fill="none" />
</svg>