<?xml version="1.0" encoding="utf-8"?>
<svg version="1.1" xmlns:xlink="http://www.w3.org/1999/xlink" width="18px" height="18px" viewBox="1740 2408  18 18" xmlns="http://www.w3.org/2000/svg">
  <path d="M 1740.5 2411  A 2.5 2.5 0 0 1 1743 2408.5 L 1755 2408.5  A 2.5 2.5 0 0 1 1757.5 2411 L 1757.5 2423  A 2.5 2.5 0 0 1 1755 2425.5 L 1743 2425.5  A 2.5 2.5 0 0 1 1740.5 2423 L 1740.5 2411  Z " fill-rule="nonzero" fill="#f0f0f0" stroke="none" />
  <path d="M 1740.5 2411  A 2.5 2.5 0 0 1 1743 2408.5 L 1755 2408.5  A 2.5 2.5 0 0 1 1757.5 2411 L 1757.5 2423  A 2.5 2.5 0 0 1 1755 2425.5 L 1743 2425.5  A 2.5 2.5 0 0 1 1740.5 2423 L 1740.5 2411  Z " stroke-width="1" stroke="#0066ff" fill="none" />
  <path d="M 1743.857142857143 2417  L 1747.7142857142858 2420.857142857143  L 1754.142857142857 2411.8571428571427  " stroke-width="3.8571428571428577" stroke="#0066ff" fill="none" />
</svg>