<?xml version="1.0" encoding="utf-8"?>
<svg version="1.1" xmlns:xlink="http://www.w3.org/1999/xlink" width="18px" height="18px" viewBox="1869 2510  18 18" xmlns="http://www.w3.org/2000/svg">
  <path d="M 1869.5 2513  A 2.5 2.5 0 0 1 1872 2510.5 L 1884 2510.5  A 2.5 2.5 0 0 1 1886.5 2513 L 1886.5 2525  A 2.5 2.5 0 0 1 1884 2527.5 L 1872 2527.5  A 2.5 2.5 0 0 1 1869.5 2525 L 1869.5 2513  Z " fill-rule="nonzero" fill="#f0f0f0" stroke="none" />
  <path d="M 1869.5 2513  A 2.5 2.5 0 0 1 1872 2510.5 L 1884 2510.5  A 2.5 2.5 0 0 1 1886.5 2513 L 1886.5 2525  A 2.5 2.5 0 0 1 1884 2527.5 L 1872 2527.5  A 2.5 2.5 0 0 1 1869.5 2525 L 1869.5 2513  Z " stroke-width="1" stroke="#797979" fill="none" />
  <path d="M 1872.857142857143 2519  L 1876.7142857142858 2522.857142857143  L 1883.142857142857 2513.8571428571427  " stroke-width="3.8571428571428577" stroke="#797979" fill="none" />
</svg>