<?xml version="1.0" encoding="utf-8"?>
<svg version="1.1" xmlns:xlink="http://www.w3.org/1999/xlink" width="18px" height="18px" viewBox="1998 2647  18 18" xmlns="http://www.w3.org/2000/svg">
  <path d="M 1998.5 2650  A 2.5 2.5 0 0 1 2001 2647.5 L 2013 2647.5  A 2.5 2.5 0 0 1 2015.5 2650 L 2015.5 2662  A 2.5 2.5 0 0 1 2013 2664.5 L 2001 2664.5  A 2.5 2.5 0 0 1 1998.5 2662 L 1998.5 2650  Z " fill-rule="nonzero" fill="#ffffff" stroke="none" />
  <path d="M 1998.5 2650  A 2.5 2.5 0 0 1 2001 2647.5 L 2013 2647.5  A 2.5 2.5 0 0 1 2015.5 2650 L 2015.5 2662  A 2.5 2.5 0 0 1 2013 2664.5 L 2001 2664.5  A 2.5 2.5 0 0 1 1998.5 2662 L 1998.5 2650  Z " stroke-width="1" stroke="#797979" fill="none" />
  <path d="M 2001.857142857143 2656  L 2005.7142857142858 2659.857142857143  L 2012.142857142857 2650.8571428571427  " stroke-width="3.8571428571428577" stroke="#797979" fill="none" />
</svg>