<?xml version="1.0" encoding="utf-8"?>
<svg version="1.1" xmlns:xlink="http://www.w3.org/1999/xlink" width="18px" height="18px" viewBox="1740 2681  18 18" xmlns="http://www.w3.org/2000/svg">
  <path d="M 1740.5 2684  A 2.5 2.5 0 0 1 1743 2681.5 L 1755 2681.5  A 2.5 2.5 0 0 1 1757.5 2684 L 1757.5 2696  A 2.5 2.5 0 0 1 1755 2698.5 L 1743 2698.5  A 2.5 2.5 0 0 1 1740.5 2696 L 1740.5 2684  Z " fill-rule="nonzero" fill="#ffffff" stroke="none" />
  <path d="M 1740.5 2684  A 2.5 2.5 0 0 1 1743 2681.5 L 1755 2681.5  A 2.5 2.5 0 0 1 1757.5 2684 L 1757.5 2696  A 2.5 2.5 0 0 1 1755 2698.5 L 1743 2698.5  A 2.5 2.5 0 0 1 1740.5 2696 L 1740.5 2684  Z " stroke-width="1" stroke="#797979" fill="none" />
  <path d="M 1743.857142857143 2690  L 1747.7142857142858 2693.857142857143  L 1754.142857142857 2684.8571428571427  " stroke-width="3.8571428571428577" stroke="#797979" fill="none" />
</svg>