<?xml version="1.0" encoding="utf-8"?>
<svg version="1.1" xmlns:xlink="http://www.w3.org/1999/xlink" width="18px" height="18px" viewBox="1869 2408  18 18" xmlns="http://www.w3.org/2000/svg">
  <path d="M 1869.5 2411  A 2.5 2.5 0 0 1 1872 2408.5 L 1884 2408.5  A 2.5 2.5 0 0 1 1886.5 2411 L 1886.5 2423  A 2.5 2.5 0 0 1 1884 2425.5 L 1872 2425.5  A 2.5 2.5 0 0 1 1869.5 2423 L 1869.5 2411  Z " fill-rule="nonzero" fill="#f0f0f0" stroke="none" />
  <path d="M 1869.5 2411  A 2.5 2.5 0 0 1 1872 2408.5 L 1884 2408.5  A 2.5 2.5 0 0 1 1886.5 2411 L 1886.5 2423  A 2.5 2.5 0 0 1 1884 2425.5 L 1872 2425.5  A 2.5 2.5 0 0 1 1869.5 2423 L 1869.5 2411  Z " stroke-width="1" stroke="#999999" fill="none" />
</svg>