<?xml version="1.0" encoding="utf-8"?>
<svg version="1.1" xmlns:xlink="http://www.w3.org/1999/xlink" width="18px" height="18px" viewBox="1740 2544  18 18" xmlns="http://www.w3.org/2000/svg">
  <path d="M 1740.5 2547  A 2.5 2.5 0 0 1 1743 2544.5 L 1755 2544.5  A 2.5 2.5 0 0 1 1757.5 2547 L 1757.5 2559  A 2.5 2.5 0 0 1 1755 2561.5 L 1743 2561.5  A 2.5 2.5 0 0 1 1740.5 2559 L 1740.5 2547  Z " fill-rule="nonzero" fill="#f0f0f0" stroke="none" />
  <path d="M 1740.5 2547  A 2.5 2.5 0 0 1 1743 2544.5 L 1755 2544.5  A 2.5 2.5 0 0 1 1757.5 2547 L 1757.5 2559  A 2.5 2.5 0 0 1 1755 2561.5 L 1743 2561.5  A 2.5 2.5 0 0 1 1740.5 2559 L 1740.5 2547  Z " stroke-width="1" stroke="#797979" fill="none" />
</svg>