<?xml version="1.0" encoding="utf-8"?>
<svg version="1.1" xmlns:xlink="http://www.w3.org/1999/xlink" width="18px" height="18px" viewBox="3658 2532  18 18" xmlns="http://www.w3.org/2000/svg">
  <path d="M 3658.5 2535  A 2.5 2.5 0 0 1 3661 2532.5 L 3673 2532.5  A 2.5 2.5 0 0 1 3675.5 2535 L 3675.5 2547  A 2.5 2.5 0 0 1 3673 2549.5 L 3661 2549.5  A 2.5 2.5 0 0 1 3658.5 2547 L 3658.5 2535  Z " fill-rule="nonzero" fill="#f0f0f0" stroke="none" />
  <path d="M 3658.5 2535  A 2.5 2.5 0 0 1 3661 2532.5 L 3673 2532.5  A 2.5 2.5 0 0 1 3675.5 2535 L 3675.5 2547  A 2.5 2.5 0 0 1 3673 2549.5 L 3661 2549.5  A 2.5 2.5 0 0 1 3658.5 2547 L 3658.5 2535  Z " stroke-width="1" stroke="#797979" fill="none" />
</svg>