<?xml version="1.0" encoding="utf-8"?>
<svg version="1.1" xmlns:xlink="http://www.w3.org/1999/xlink" width="18px" height="18px" viewBox="3400 2754  18 18" xmlns="http://www.w3.org/2000/svg">
  <path d="M 3400.5 2757  A 2.5 2.5 0 0 1 3403 2754.5 L 3415 2754.5  A 2.5 2.5 0 0 1 3417.5 2757 L 3417.5 2769  A 2.5 2.5 0 0 1 3415 2771.5 L 3403 2771.5  A 2.5 2.5 0 0 1 3400.5 2769 L 3400.5 2757  Z " fill-rule="nonzero" fill="#f0f0f0" stroke="none" />
  <path d="M 3400.5 2757  A 2.5 2.5 0 0 1 3403 2754.5 L 3415 2754.5  A 2.5 2.5 0 0 1 3417.5 2757 L 3417.5 2769  A 2.5 2.5 0 0 1 3415 2771.5 L 3403 2771.5  A 2.5 2.5 0 0 1 3400.5 2769 L 3400.5 2757  Z " stroke-width="1" stroke="#797979" fill="none" />
</svg>