<?xml version="1.0" encoding="utf-8"?>
<svg version="1.1" xmlns:xlink="http://www.w3.org/1999/xlink" width="18px" height="18px" viewBox="3448 1925  18 18" xmlns="http://www.w3.org/2000/svg">
  <path d="M 3448.5 1928  A 2.5 2.5 0 0 1 3451 1925.5 L 3463 1925.5  A 2.5 2.5 0 0 1 3465.5 1928 L 3465.5 1940  A 2.5 2.5 0 0 1 3463 1942.5 L 3451 1942.5  A 2.5 2.5 0 0 1 3448.5 1940 L 3448.5 1928  Z " fill-rule="nonzero" fill="#f0f0f0" stroke="none" />
  <path d="M 3448.5 1928  A 2.5 2.5 0 0 1 3451 1925.5 L 3463 1925.5  A 2.5 2.5 0 0 1 3465.5 1928 L 3465.5 1940  A 2.5 2.5 0 0 1 3463 1942.5 L 3451 1942.5  A 2.5 2.5 0 0 1 3448.5 1940 L 3448.5 1928  Z " stroke-width="1" stroke="#797979" fill="none" />
  <path d="M 3451.8571428571427 1934  L 3455.714285714286 1937.857142857143  L 3462.1428571428573 1928.857142857143  " stroke-width="3.8571428571428577" stroke="#797979" fill="none" />
</svg>