<?xml version="1.0" encoding="utf-8"?>
<svg version="1.1" xmlns:xlink="http://www.w3.org/1999/xlink" width="18px" height="18px" viewBox="3658 2626  18 18" xmlns="http://www.w3.org/2000/svg">
  <path d="M 3658.5 2629  A 2.5 2.5 0 0 1 3661 2626.5 L 3673 2626.5  A 2.5 2.5 0 0 1 3675.5 2629 L 3675.5 2641  A 2.5 2.5 0 0 1 3673 2643.5 L 3661 2643.5  A 2.5 2.5 0 0 1 3658.5 2641 L 3658.5 2629  Z " fill-rule="nonzero" fill="#f0f0f0" stroke="none" />
  <path d="M 3658.5 2629  A 2.5 2.5 0 0 1 3661 2626.5 L 3673 2626.5  A 2.5 2.5 0 0 1 3675.5 2629 L 3675.5 2641  A 2.5 2.5 0 0 1 3673 2643.5 L 3661 2643.5  A 2.5 2.5 0 0 1 3658.5 2641 L 3658.5 2629  Z " stroke-width="1" stroke="#797979" fill="none" />
  <path d="M 3661.8571428571427 2635  L 3665.714285714286 2638.857142857143  L 3672.1428571428573 2629.8571428571427  " stroke-width="3.8571428571428577" stroke="#797979" fill="none" />
</svg>