<?xml version="1.0" encoding="utf-8"?>
<svg version="1.1" xmlns:xlink="http://www.w3.org/1999/xlink" width="18px" height="18px" viewBox="3400 2658  18 18" xmlns="http://www.w3.org/2000/svg">
  <path d="M 3400.5 2661  A 2.5 2.5 0 0 1 3403 2658.5 L 3415 2658.5  A 2.5 2.5 0 0 1 3417.5 2661 L 3417.5 2673  A 2.5 2.5 0 0 1 3415 2675.5 L 3403 2675.5  A 2.5 2.5 0 0 1 3400.5 2673 L 3400.5 2661  Z " fill-rule="nonzero" fill="#ffffff" stroke="none" />
  <path d="M 3400.5 2661  A 2.5 2.5 0 0 1 3403 2658.5 L 3415 2658.5  A 2.5 2.5 0 0 1 3417.5 2661 L 3417.5 2673  A 2.5 2.5 0 0 1 3415 2675.5 L 3403 2675.5  A 2.5 2.5 0 0 1 3400.5 2673 L 3400.5 2661  Z " stroke-width="1" stroke="#797979" fill="none" />
  <path d="M 3403.8571428571427 2667  L 3407.714285714286 2670.857142857143  L 3414.1428571428573 2661.8571428571427  " stroke-width="3.8571428571428577" stroke="#797979" fill="none" />
</svg>