<?xml version="1.0" encoding="utf-8"?>
<svg version="1.1" xmlns:xlink="http://www.w3.org/1999/xlink" width="18px" height="18px" viewBox="3529 2658  18 18" xmlns="http://www.w3.org/2000/svg">
  <path d="M 3529.5 2661  A 2.5 2.5 0 0 1 3532 2658.5 L 3544 2658.5  A 2.5 2.5 0 0 1 3546.5 2661 L 3546.5 2673  A 2.5 2.5 0 0 1 3544 2675.5 L 3532 2675.5  A 2.5 2.5 0 0 1 3529.5 2673 L 3529.5 2661  Z " fill-rule="nonzero" fill="#ffffff" stroke="none" />
  <path d="M 3529.5 2661  A 2.5 2.5 0 0 1 3532 2658.5 L 3544 2658.5  A 2.5 2.5 0 0 1 3546.5 2661 L 3546.5 2673  A 2.5 2.5 0 0 1 3544 2675.5 L 3532 2675.5  A 2.5 2.5 0 0 1 3529.5 2673 L 3529.5 2661  Z " stroke-width="1" stroke="#0066ff" fill="none" />
</svg>