<?xml version="1.0" encoding="utf-8"?>
<svg version="1.1" xmlns:xlink="http://www.w3.org/1999/xlink" width="18px" height="18px" viewBox="3658 2595  18 18" xmlns="http://www.w3.org/2000/svg">
  <path d="M 3658.5 2598  A 2.5 2.5 0 0 1 3661 2595.5 L 3673 2595.5  A 2.5 2.5 0 0 1 3675.5 2598 L 3675.5 2610  A 2.5 2.5 0 0 1 3673 2612.5 L 3661 2612.5  A 2.5 2.5 0 0 1 3658.5 2610 L 3658.5 2598  Z " fill-rule="nonzero" fill="#ffffff" stroke="none" />
  <path d="M 3658.5 2598  A 2.5 2.5 0 0 1 3661 2595.5 L 3673 2595.5  A 2.5 2.5 0 0 1 3675.5 2598 L 3675.5 2610  A 2.5 2.5 0 0 1 3673 2612.5 L 3661 2612.5  A 2.5 2.5 0 0 1 3658.5 2610 L 3658.5 2598  Z " stroke-width="1" stroke="#0066ff" fill="none" />
  <path d="M 3661.8571428571427 2604  L 3665.714285714286 2607.857142857143  L 3672.1428571428573 2598.8571428571427  " stroke-width="3.8571428571428577" stroke="#0066ff" fill="none" />
</svg>