<?xml version="1.0" encoding="utf-8"?>
<svg version="1.1" xmlns:xlink="http://www.w3.org/1999/xlink" width="18px" height="18px" viewBox="3400 2375  18 18" xmlns="http://www.w3.org/2000/svg">
  <path d="M 3400.5 2378  A 2.5 2.5 0 0 1 3403 2375.5 L 3415 2375.5  A 2.5 2.5 0 0 1 3417.5 2378 L 3417.5 2390  A 2.5 2.5 0 0 1 3415 2392.5 L 3403 2392.5  A 2.5 2.5 0 0 1 3400.5 2390 L 3400.5 2378  Z " fill-rule="nonzero" fill="#ffffff" stroke="none" />
  <path d="M 3400.5 2378  A 2.5 2.5 0 0 1 3403 2375.5 L 3415 2375.5  A 2.5 2.5 0 0 1 3417.5 2378 L 3417.5 2390  A 2.5 2.5 0 0 1 3415 2392.5 L 3403 2392.5  A 2.5 2.5 0 0 1 3400.5 2390 L 3400.5 2378  Z " stroke-width="1" stroke="#797979" fill="none" />
  <path d="M 3403.8571428571427 2384  L 3407.714285714286 2387.857142857143  L 3414.1428571428573 2378.8571428571427  " stroke-width="3.8571428571428577" stroke="#797979" fill="none" />
</svg>