<?xml version="1.0" encoding="utf-8"?>
<svg version="1.1" xmlns:xlink="http://www.w3.org/1999/xlink" width="18px" height="18px" viewBox="3658 2754  18 18" xmlns="http://www.w3.org/2000/svg">
  <path d="M 3658.5 2757  A 2.5 2.5 0 0 1 3661 2754.5 L 3673 2754.5  A 2.5 2.5 0 0 1 3675.5 2757 L 3675.5 2769  A 2.5 2.5 0 0 1 3673 2771.5 L 3661 2771.5  A 2.5 2.5 0 0 1 3658.5 2769 L 3658.5 2757  Z " fill-rule="nonzero" fill="#f0f0f0" stroke="none" />
  <path d="M 3658.5 2757  A 2.5 2.5 0 0 1 3661 2754.5 L 3673 2754.5  A 2.5 2.5 0 0 1 3675.5 2757 L 3675.5 2769  A 2.5 2.5 0 0 1 3673 2771.5 L 3661 2771.5  A 2.5 2.5 0 0 1 3658.5 2769 L 3658.5 2757  Z " stroke-width="1" stroke="#797979" fill="none" />
  <path d="M 3661.8571428571427 2763  L 3665.714285714286 2766.857142857143  L 3672.1428571428573 2757.8571428571427  " stroke-width="3.8571428571428577" stroke="#797979" fill="none" />
</svg>