<?xml version="1.0" encoding="utf-8"?>
<svg version="1.1" xmlns:xlink="http://www.w3.org/1999/xlink" width="18px" height="18px" viewBox="3658 2690  18 18" xmlns="http://www.w3.org/2000/svg">
  <path d="M 3658.5 2693  A 2.5 2.5 0 0 1 3661 2690.5 L 3673 2690.5  A 2.5 2.5 0 0 1 3675.5 2693 L 3675.5 2705  A 2.5 2.5 0 0 1 3673 2707.5 L 3661 2707.5  A 2.5 2.5 0 0 1 3658.5 2705 L 3658.5 2693  Z " fill-rule="nonzero" fill="#f0f0f0" stroke="none" />
  <path d="M 3658.5 2693  A 2.5 2.5 0 0 1 3661 2690.5 L 3673 2690.5  A 2.5 2.5 0 0 1 3675.5 2693 L 3675.5 2705  A 2.5 2.5 0 0 1 3673 2707.5 L 3661 2707.5  A 2.5 2.5 0 0 1 3658.5 2705 L 3658.5 2693  Z " stroke-width="1" stroke="#797979" fill="none" />
</svg>