<?xml version="1.0" encoding="utf-8"?>
<svg version="1.1" xmlns:xlink="http://www.w3.org/1999/xlink" width="18px" height="18px" viewBox="3529 2595  18 18" xmlns="http://www.w3.org/2000/svg">
  <path d="M 3529.5 2598  A 2.5 2.5 0 0 1 3532 2595.5 L 3544 2595.5  A 2.5 2.5 0 0 1 3546.5 2598 L 3546.5 2610  A 2.5 2.5 0 0 1 3544 2612.5 L 3532 2612.5  A 2.5 2.5 0 0 1 3529.5 2610 L 3529.5 2598  Z " fill-rule="nonzero" fill="#ffffff" stroke="none" />
  <path d="M 3529.5 2598  A 2.5 2.5 0 0 1 3532 2595.5 L 3544 2595.5  A 2.5 2.5 0 0 1 3546.5 2598 L 3546.5 2610  A 2.5 2.5 0 0 1 3544 2612.5 L 3532 2612.5  A 2.5 2.5 0 0 1 3529.5 2610 L 3529.5 2598  Z " stroke-width="1" stroke="#0066ff" fill="none" />
  <path d="M 3532.8571428571427 2604  L 3536.714285714286 2607.857142857143  L 3543.1428571428573 2598.8571428571427  " stroke-width="3.8571428571428577" stroke="#0066ff" fill="none" />
</svg>