<?xml version="1.0" encoding="utf-8"?>
<svg version="1.1" xmlns:xlink="http://www.w3.org/1999/xlink" width="18px" height="18px" viewBox="3400 2343  18 18" xmlns="http://www.w3.org/2000/svg">
  <path d="M 3400.5 2346  A 2.5 2.5 0 0 1 3403 2343.5 L 3415 2343.5  A 2.5 2.5 0 0 1 3417.5 2346 L 3417.5 2358  A 2.5 2.5 0 0 1 3415 2360.5 L 3403 2360.5  A 2.5 2.5 0 0 1 3400.5 2358 L 3400.5 2346  Z " fill-rule="nonzero" fill="#ffffff" stroke="none" />
  <path d="M 3400.5 2346  A 2.5 2.5 0 0 1 3403 2343.5 L 3415 2343.5  A 2.5 2.5 0 0 1 3417.5 2346 L 3417.5 2358  A 2.5 2.5 0 0 1 3415 2360.5 L 3403 2360.5  A 2.5 2.5 0 0 1 3400.5 2358 L 3400.5 2346  Z " stroke-width="1" stroke="#999999" fill="none" />
</svg>