<?xml version="1.0" encoding="utf-8"?>
<svg version="1.1" xmlns:xlink="http://www.w3.org/1999/xlink" width="8px" height="7px" xmlns="http://www.w3.org/2000/svg">
  <g transform="matrix(1 0 0 1 -214 -671 )">
    <path d="M 3.9274146341463414 0.41519999999999935  C 3.9274146341463414 0.5943999999999989  3.7900487804878047 0.7351999999999997  3.6152195121951216 0.7351999999999997  L 0.32468292682926825 0.7351999999999997  C 0.14985365853658517 0.7351999999999997  0.012487804878048792 0.5943999999999996  0.012487804878048792 0.41519999999999935  C 0.012487804878048792 0.23599999999999924  0.1498536585365855 0.09519999999999947  0.32468292682926825 0.09519999999999947  L 3.6152195121951216 0.09519999999999947  C 3.7838048780487803 0.09519999999999947  3.9274146341463414 0.2359999999999996  3.9274146341463414 0.41519999999999935  Z M 7.960975609756098 3.5  C 7.960975609756098 3.6792000000000007  7.817365853658538 3.82  7.648780487804879 3.82  L 0.32468292682926825 3.82  C 0.14985365853658517 3.82  0.012487804878048792 3.672800000000001  0.012487804878048792 3.5  C 0.012487804878048792 3.327199999999999  0.1498536585365855 3.1799999999999997  0.32468292682926825 3.1799999999999997  L 7.648780487804879 3.1799999999999997  C 7.817365853658536 3.1799999999999997  7.960975609756098 3.3272  7.960975609756098 3.5  Z M 7.960975609756098 6.5847999999999995  C 7.960975609756098 6.757600000000001  7.817365853658538 6.904800000000001  7.648780487804879 6.904800000000001  L 0.32468292682926825 6.904800000000001  C 0.14985365853658517 6.904800000000001  0.012487804878048792 6.757600000000001  0.012487804878048792 6.5847999999999995  C 0.012487804878048792 6.4056  0.1498536585365855 6.264799999999999  0.32468292682926825 6.264799999999999  L 7.648780487804879 6.264799999999999  C 7.817365853658536 6.264799999999999  7.960975609756098 6.411999999999999  7.960975609756098 6.5847999999999995  Z " fill-rule="nonzero" fill="#999999" stroke="none" transform="matrix(1 0 0 1 214 671 )" />
  </g>
</svg>