<?xml version="1.0" encoding="utf-8"?>
<svg version="1.1" xmlns:xlink="http://www.w3.org/1999/xlink" width="12px" height="12px" xmlns="http://www.w3.org/2000/svg">
  <g transform="matrix(1 0 0 1 -138 -668 )">
    <path d="M 7.9781818125 7.1636363625  L 7.4545454499999995 7.1636363625  C 7.221818174999999 7.1636363625  7.0181818125 6.959999999999999  7.0181818125 6.727272725000001  C 7.0181818125 6.494545450000002  7.221818187499999 6.290909087499999  7.4545454499999995 6.290909087499999  L 7.9781818125 6.290909087499999  C 8.2109090875 6.290909087499999  8.414545449999999 6.494545450000002  8.414545449999999 6.727272725000001  C 8.414545449999999 6.959999999999999  8.240000000000002 7.1636363625  7.9781818125 7.1636363625  Z M 5.3890909125 7.1636363625  L 3.3818181875000004 7.1636363625  C 3.149090912500001 7.1636363625  2.945454550000001 6.959999999999999  2.945454550000001 6.727272725000001  C 2.945454550000001 6.494545450000002  3.1490909125 6.290909087499999  3.3818181875 6.290909087499999  L 5.3890909125 6.290909087499999  C 5.6218181875 6.290909087499999  5.82545455 6.494545450000002  5.82545455 6.727272725000001  C 5.82545455 6.959999999999999  5.6218181875 7.1636363625  5.3890909125 7.1636363625  Z M 8.036363637500001 4.5454545500000005  L 3.3818181875000004 4.5454545500000005  C 3.149090912500001 4.5454545500000005  2.945454550000001 4.3418181875  2.945454550000001 4.109090912500001  C 2.945454550000001 3.8763636375000003  3.1490909125 3.6727272749999997  3.3818181875 3.6727272749999997  L 8.036363637500001 3.6727272749999997  C 8.269090912500001 3.6727272749999997  8.472727275 3.8763636375  8.472727275 4.1090909125  C 8.472727275 4.3418181874999995  8.269090912500001 4.5454545500000005  8.036363637500001 4.5454545500000005  Z M 5.999999999999999 10.887272724999999  L 5.912727275 10.887272724999999  L 4.603636362500001 11.76  C 3.9927272750000005 12.167272724999998  3.178181812500001 11.992727275  2.8000000000000007 11.381818187499999  C 2.7709090875000006 11.323636375  2.7418181875000007 11.294545462499999  2.7127272750000007 11.2363636375  L 2.4800000000000004 10.741818187500002  C 1.0836363625000007 10.567272737500002  0.036363637500000934 9.403636375000001  0.036363637500000934 8.007272725  L 0.036363637500000934 3.0036363625  C 0.036363637499999955 1.6363636375  1.05454545 0.47272727499999995  2.4218181874999996 0.2690909125  C 3.6145454625 0.09454546249999998  4.8072727375 0.036363637500000046  6 0.036363637500000046  C 7.1927272625 0.036363637500000046  8.385454549999999 0.12363636250000001  9.578181812499999 0.26909091250000006  C 10.945454537499998 0.4727272750000001  11.9636363625 1.6363636375  11.9636363625 3.0036363625  L 11.9636363625 8.007272725  C 11.9636363625 9.461818175000001  10.8290909125 10.6836363625  9.37454545 10.770909087500002  C 8.24 10.8290909  7.134545449999999 10.887272724999999  5.999999999999999 10.887272724999999  Z M 4.138181812500001 11.0036363625  L 5.53454545 10.072727275  C 5.5927272624999995 10.0145454625  5.680000000000001 9.98545455  5.767272725000001 9.98545455  L 5.970909087500001 9.98545455  C 7.076363637500001 9.98545455  8.181818175 9.956363637499999  9.287272725 9.8690909125  C 10.276363637500001 9.8109091  11.061818174999999 8.967272725  11.0618181875 7.9781818125  L 11.0618181875 2.97454545  C 11.0618181875 2.01454545  10.363636375 1.2290909000000003  9.432727275000001 1.112727275  C 8.298181825 0.9963636375  7.1636363625 0.9090909125  6 0.9090909125  C 4.8363636375 0.9090909125  3.7018181874999994 0.9963636375  2.5381818125000004 1.1418181875  C 1.607272725 1.258181825  0.9090909000000005 2.072727275  0.9090909125000003 3.0036363625  L 0.9090909125000003 8.007272725  C 0.9090909125000003 8.996363637499998  1.6945454625000005 9.84  2.6836363625 9.8981818125  L 2.8000000000000007 9.8981818125  C 2.945454550000001 9.8981818125  3.0909090875000005 9.985454537499999  3.149090912500001 10.130909087500001  L 3.4981818125000013 10.829090912500002  C 3.4981818125000013 10.858181825  3.5272727250000004 10.858181825  3.5272727250000004 10.887272725  C 3.672727275000001 11.0909090875  3.934545450000001 11.149090912500002  4.138181812500001 11.0036363625  Z " fill-rule="nonzero" fill="#999999" stroke="none" transform="matrix(1 0 0 1 138 668 )" />
  </g>
</svg>