<?xml version="1.0" encoding="utf-8"?>
<svg version="1.1" xmlns:xlink="http://www.w3.org/1999/xlink" width="10px" height="12px" xmlns="http://www.w3.org/2000/svg">
  <g transform="matrix(1 0 0 1 -213 -668 )">
    <path d="M 9.909724770642201 11.399999999999999  L 9.909724770642201 3.162  L 6.521834862385321 0  L 0.6737614678899084 0  C 0.3273394495412845 0  0.045504587155963505 0.27  0 0.6000000000000001  L 0 11.4  C 0.045504587155963505 11.73  0.3273394495412845 12  0.6737614678899084 12  L 9.281467889908257 12  C 9.627889908256881 12  9.909724770642201 11.73  9.909724770642201 11.399999999999999  Z M 6.451376146788991 3.1740000000000004  L 6.451376146788991 0.744  L 9.064220183486238 3.186  L 6.492477064220184 3.186  C 6.474862385321102 3.186  6.457247706422018 3.18  6.451376146788991 3.1740000000000004  Z M 9.322568807339449 3.786  L 9.32256880733945 11.388000000000002  C 9.316697247706424 11.394  9.30495412844037 11.4  9.28146788990826 11.4  L 0.6737614678899084 11.4  C 0.6561467889908258 11.4  0.6385321100917432 11.394000000000002  0.6326605504587157 11.388000000000002  L 0.6326605504587157 0.612  C 0.6385321100917432 0.606  0.6502752293577982 0.6  0.6737614678899084 0.6  L 5.864220183486238 0.6  L 5.864220183486238 3.186  C 5.864220183486238 3.5160000000000005  6.14605504587156 3.786  6.492477064220184 3.786  L 9.322568807339449 3.786  Z " fill-rule="nonzero" fill="#999999" stroke="none" transform="matrix(1 0 0 1 213 668 )" />
  </g>
</svg>