<?xml version="1.0" encoding="utf-8"?>
<svg version="1.1" xmlns:xlink="http://www.w3.org/1999/xlink" width="21px" height="20px" xmlns="http://www.w3.org/2000/svg">
  <g transform="matrix(1 0 0 1 -1029 -1077 )">
    <path d="M 20.926166576388887 19.209804056603772  C 20.926141736111113 19.06311408018868  20.871746631944443 18.92074419811321  20.762832027777776 18.788631485849056  L 16.000038079861113 14.329285117924528  L 16.044683374999998 14.274982311320754  C 17.327234239583333 12.733989363207547  18.03359976736111 10.793786344339622  18.03359976736111 8.81286825471698  C 18.03359976736111 4.008228443396225  14.005127524305555 0.09886087264150864  9.054848249999997 0.09886087264150864  C 4.1030517986111095 0.09886087264150864  0.07380851041666563 4.008228443396225  0.07380851041666563 8.81286825471698  C 0.07380851041666563 13.617483938679245  4.10305179861111 17.526489481132074  9.054848249999997 17.526489481132074  C 11.22450967361111 17.526489481132074  13.320748850694441 16.76115780660377  14.957253524305555 15.373467712264148  L 15.010952225694444 15.327949905660374  L 19.76232990277778 19.73745837264151  L 19.809959822916664 19.73745837264151  L 19.810730843749997 19.775639268867923  C 19.930987076388885 19.85779337264151  20.066365520833333 19.901090825471698  20.213806885416663 19.901090825471698  C 20.607083364583332 19.901090825471698  20.926166576388887 19.589947806603774  20.926166576388887 19.209804056603772  Z M 16.60656729861111 8.812892405660376  C 16.60656729861111 12.854348514150942  13.218624319444446 16.141816226415095  9.054823385416666 16.141816226415095  C 4.889853451388889 16.141816226415095  1.5019602256944447 12.854348514150942  1.5019602256944447 8.812892405660376  C 1.5019602256944447 4.771798301886792  4.889853451388889 1.4850546462264154  9.054823385416666 1.4850546462264154  C 13.218599454861112 1.4850546462264154  16.60656729861111 4.771798301886792  16.60656729861111 8.812892405660376  Z " fill-rule="nonzero" fill="#999999" stroke="none" transform="matrix(1 0 0 1 1029 1077 )" />
  </g>
</svg>