<?xml version="1.0" encoding="utf-8"?>
<svg version="1.1" xmlns:xlink="http://www.w3.org/1999/xlink" width="14px" height="16px" xmlns="http://www.w3.org/2000/svg">
  <g transform="matrix(1 0 0 1 -1961 -1575 )">
    <path d="M 13.723164368421052 9.652541720930234  C 13.909987567982457 8.848994387596901  13.955012964912282 8.029545038759691  13.8569515 7.217039255813954  C 13.76223548245614 6.432044263565891  13.53681689254386 5.67341311627907  13.186987625 4.96224  C 12.484229164473685 3.5336476744186047  11.310346004385966 2.383433472868217  9.88154907894737 1.7235001705426356  C 9.573246298245616 1.581095054263566  9.209022405701756 1.718075503875969  9.068022603070176 2.029466573643411  C 8.92703815131579 2.3408266356589147  9.062651469298245 2.708696170542636  9.37095425 2.8511167751937982  C 11.815784535087719 3.9803297829457365  13.143512160087718 6.721519674418604  12.527996188596491 9.369110914728681  C 12.056180914473684 11.398197751937985  10.544637925438595 12.986492108527132  8.595286567982455 13.560328294573644  L 8.591250546052631 12.462640310077518  L 5.5695303508771925 14.240162356589147  L 8.60424867105263 15.994838821705429  L 8.600013149122805 14.840842852713179  C 9.75744531140351 14.563146682170544  10.822969791666667 13.989217519379846  11.70219284868421 13.165815922480622  C 12.709172030701753 12.222746294573644  13.408017230263157 11.007885627906978  13.723164368421052 9.652541720930234  Z M 8.442731162280703 1.878893472868216  L 5.408104916666666 0.12401550387596899  L 5.412279050438596 1.278026976744186  C 4.254754813596491 1.5557231472868218  3.189153594298245 2.1296833178294574  2.3098691798245605 2.9531624031007753  C 1.3028439605263156 3.896278527131783  0.6040140964912275 5.1111702015503875  0.28889766008771867 6.4665915968992245  C 0.16628246710526254 6.994256155038759  0.10477537061403443 7.528724790697674  0.10477537061403443 8.063658403100774  C 0.10477537061403443 8.34264099224806  0.12151794298245552 8.621747565891473  0.15500310307017484 8.900032697674419  C 0.24944288157894687 9.684392232558139  0.4743550614035082 10.442496418604652  0.8234630679824555 11.153266542635658  C 1.524671565789473 12.580866930232558  2.6964676666666665 13.731096635658913  4.122931980263158 14.392037364341084  C 4.431050611842105 14.534814449612401  4.795458653508772 14.398267968992247  4.936811418859649 14.087062914728682  C 5.078194870614035 13.77579584496124  4.942965201754386 13.407833317829457  4.634831219298246 13.265056217054262  C 2.194604754385965 12.134386294573641  0.8695933750000003 9.394374325581394  1.4840811754385965 6.749960403100774  C 1.9558504122807014 4.720765069767441  3.4674394385964917 3.1323932248062003  5.416913572368422 2.5585570387596888  L 5.420903557017545 3.656260511627906  L 8.442731162280703 1.878893472868216  Z " fill-rule="nonzero" fill="#999999" stroke="none" transform="matrix(1 0 0 1 1961 1575 )" />
  </g>
</svg>