<?xml version="1.0" encoding="utf-8"?>
<svg version="1.1" xmlns:xlink="http://www.w3.org/1999/xlink" width="1505px" height="12px" preserveAspectRatio="xMinYMid meet" viewBox="420 1515  1505 10" xmlns="http://www.w3.org/2000/svg">
  <path d="M 426.5 1615  L 426.5 1525  A 5 5 0 0 1 431.5 1520.5 L 1914 1520.5  A 5 5 0 0 1 1919.5 1525.5 L 1919.5 1533  " stroke-width="3" stroke="#e7772d" fill="none" />
  <path d="M 426.5 1610  A 4 4 0 0 0 422.5 1614 A 4 4 0 0 0 426.5 1618 A 4 4 0 0 0 430.5 1614 A 4 4 0 0 0 426.5 1610 Z M 1909.5 1523.9  L 1919.5 1536  L 1929.5 1523.9  L 1919.5 1528.8  L 1909.5 1523.9  Z " fill-rule="nonzero" fill="#e7772d" stroke="none" />
</svg>