<?xml version="1.0" encoding="utf-8"?>
<svg version="1.1" xmlns:xlink="http://www.w3.org/1999/xlink" width="30px" height="30px" xmlns="http://www.w3.org/2000/svg">
  <g transform="matrix(1 0 0 1 -512 -1784 )">
    <path d="M 6.2856164701077715 6.281241687804876  C 8.583583756778218 4.033436809756097  11.625011083834375 2.7392461170731703  14.869200226885988 2.7392461170731703  C 18.113389369937607 2.7392461170731703  21.154816696993763 4.033436809756097  23.452783983664208 6.349356995121951  C 28.183893149404422 11.117427951219513  28.183893149404422 18.88257207804878  23.452783983664208 23.718758312195124  C 21.154816696993763 25.966563190243903  18.113389369937607 27.26075388292683  14.869200226885988 27.26075388292683  C 11.625011083834377 27.26075388292683  8.583583756778218 25.966563190243903  6.2856164701077715 23.65064300487805  C 1.5545073043675564 18.88257204878049  1.5545073043675564 11.117427921951219  6.2856164701077715 6.281241687804876  Z M 25.41281492002269 4.4421285951219485  C 22.506562156324446 1.4450554243902438  18.654087565286446 0.014634146341463428  14.869200226885988 0.014634146341463428  C 11.084312888485536 0.014634146341463428  7.231838297447533 1.4450554243902438  4.325585533749291 4.374013317073171  C -1.4193327410096426 10.23192904390244  -1.4193327410096426 19.768070956097564  4.325585533749291 25.62598668292683  C 7.231838297447534 28.55494454634146  11.084312917526942 29.985365853658536  14.869200226885988 29.985365853658536  C 18.654087536245036 29.985365853658536  22.506562156324446 28.55494457560976  25.41281492002269 25.62598668292683  C 31.22532047646058 19.768070926829267  31.22532047646058 10.30004432195122  25.41281492002269 4.4421285951219485  Z " fill-rule="nonzero" fill="#d7d7d7" stroke="none" transform="matrix(1 0 0 1 512 1784 )" />
  </g>
</svg>