<?xml version="1.0" encoding="utf-8"?>
<svg version="1.1" xmlns:xlink="http://www.w3.org/1999/xlink" width="6px" height="6px" xmlns="http://www.w3.org/2000/svg">
  <g transform="matrix(1 0 0 1 -598 -1708 )">
    <path d="M 601 1708  C 602.68 1708  604 1709.32  604 1711  C 604 1712.68  602.68 1714  601 1714  C 599.32 1714  598 1712.68  598 1711  C 598 1709.32  599.32 1708  601 1708  Z " fill-rule="nonzero" fill="#009dd9" stroke="none" fill-opacity="0" />
    <path d="M 601 1708.5  C 602.4 1708.5  603.5 1709.6  603.5 1711  C 603.5 1712.4  602.4 1713.5  601 1713.5  C 599.6 1713.5  598.5 1712.4  598.5 1711  C 598.5 1709.6  599.6 1708.5  601 1708.5  Z " stroke-width="1" stroke="#000000" fill="none" />
  </g>
</svg>