<?xml version="1.0" encoding="utf-8"?>
<svg version="1.1" xmlns:xlink="http://www.w3.org/1999/xlink" width="12px" height="16px" xmlns="http://www.w3.org/2000/svg">
  <g transform="matrix(1 0 0 1 -595 -1705 )">
    <path d="M 601 1720.0369284683536  C 598.8 1716.40734059591  595.5 1714.2295878724437  595.5 1710.6  C 595.5 1708.7057142857143  596.6 1705.5  601 1705.5  C 605.4 1705.5  606.5 1708.7057142857143  606.5 1710.6  C 606.5 1714.2295878724437  603.2 1716.40734059591  601 1720.0369284683536  Z " fill-rule="nonzero" fill="#009dd9" stroke="none" fill-opacity="0" />
    <path d="M 601 1721  C 598.6 1717  595 1714.6  595 1710.6  C 595 1708.52  596.2 1705  601 1705  C 605.8 1705  607 1708.52  607 1710.6  C 607 1714.6  603.4 1717  601 1721  Z M 601 1719.0738569367072  C 603 1715.8146811918198  606 1713.8591757448874  606 1710.6  C 606 1708.8914285714286  605 1706  601 1706  C 597 1706  596 1708.8914285714286  596 1710.6  C 596 1713.8591757448874  599 1715.8146811918198  601 1719.0738569367072  Z " fill-rule="nonzero" fill="#000000" stroke="none" />
  </g>
</svg>