<?xml version="1.0" encoding="utf-8"?>
<svg version="1.1" xmlns:xlink="http://www.w3.org/1999/xlink" width="15px" height="10px" xmlns="http://www.w3.org/2000/svg">
  <g transform="matrix(1 0 0 1 -1409 -1433 )">
    <path d="M 12.269690721649484 5.076616921641791  C 11.86739332916662 5.247866395119678  11.43182744971791 5.334171249477406  10.99216494201031 5.32975125  C 10.530309278350515 5.32975125  10.150927828608248 5.245373134328359  9.853195882731958 5.077412929104477  L 12.269690721649484 5.077412929104477  Z M 9.36824742912371 4.630845764925373  L 12.99958762886598 4.626069645522389  L 12.993814426546392 4.630845764925373  C 12.871644914580857 4.7320110355410865  12.741491284147198 4.823831412188549  12.604536088917524 4.905472630597015  L 9.610721655927833 4.905472630597015  C 9.517835989362755 4.824526383122252  9.436319745873043 4.73220089869462  9.36824742912371 4.630845764925373  Z M 5.398762886597938 4.626069645522389  L 7.1323711275773185 4.626069645522389  L 6.992164948453607 4.905472630597015  L 5.258556707474227 4.905472630597015  L 5.398762886597938 4.626069645522389  Z M 11.210721649484535 4.174726361940299  C 11.265154639175258 4.17870645522388  11.319587628865978 4.17870645522388  11.3740206185567 4.174726361940299  L 13.444948453608246 4.174726361940299  C 13.364948447164945 4.272636809701492  13.280000006443297 4.365771138059701  13.190103092783504 4.454129347014925  L 9.265979381443296 4.454129347014925  C 9.221974547194955 4.36450992135841  9.186368583801675 4.271268961026803  9.159587628865978 4.175522388059702  L 11.210721649484533 4.175522388059702  Z M 13.755876282216494 3.722587070895522  L 13.755051552835052 3.723383078358209  C 13.69979381443299 3.8204974999999997  13.639587641752575 3.9136318283582088  13.576082474226805 4.00199005597015  L 11.950515463917526 4.00199005597015  C 12.016494838917525 3.9645771268656715  12.077525779639174 3.9207960261194037  12.130309271907217 3.873830839552239  C 12.183917512886598 3.8276616791044775  12.23175257087629 3.776716417910448  12.277113402061854 3.722587070895522  L 13.755876282216494 3.722587070895522  Z M 5.852371140463915 3.723383078358209  L 7.584329903350514 3.723383078358209  L 7.444123704896905 4.00199005597015  L 5.712164942010307 4.00199005597015  L 5.852371140463915 3.723383078358209  Z M 10.571546385309277 3.723383078358209  C 10.588041224226803 3.78069651119403  10.610309265463915 3.834029850746269  10.637525779639173 3.8794029850746266  C 10.664032312029798 3.925665970290731  10.698312815023565 3.9673605329678407  10.738969078608246 4.002786063432835  L 9.121649478092783 4.002786063432835  C 9.105332395569546 3.9103917943387208  9.09541350769631 3.8170506181584978  9.091958756443299 3.723383078358209  L 10.57237113402062 3.723383078358209  Z M 12.559175257731956 3.272835820895522  L 13.97525773840206 3.2720397947761204  C 13.93744552577207 3.366908789840063  13.895343266858358 3.460132579989656  13.84907217139175 3.551442779850746  L 12.403298969072162 3.551442779850746  C 12.461030934278348 3.4622885447761194  12.51381442654639 3.3683582089552235  12.559175257731956 3.272835820895522  Z M 6.079175257731955 3.272039794776119  L 7.811134020618555 3.272039794776119  L 7.670103092783503 3.551442779850746  L 5.938144329896904 3.551442779850746  L 6.079175257731955 3.272039794776119  Z M 9.110927841494844 3.272039794776119  L 10.527835051546388 3.272039794776119  C 10.522886597938143 3.3651741231343286  10.525360824742265 3.4583084514925364  10.536907210051544 3.5506467723880597  L 9.089484529639172 3.5506467723880597  C 9.091134007731956 3.461492537313433  9.098556688144328 3.3675622014925373  9.110927841494844 3.272039794776119  Z M 14.132783505154638 2.8214925373134325  L 14.131958756443296 2.8206965111940296  C 14.104742261597934 2.916218899253731  14.074226791237109 3.00935322761194  14.041237113402056 3.100099496268656  L 12.635051539948453 3.100099496268656  C 12.669690715206187 3.0125373134328353  12.701030914948452 2.919402985074626  12.729896907216494 2.8214925373134325  L 14.132783505154638 2.8214925373134325  Z M 10.600412377577317 2.8214925373134325  L 10.599587628865978 2.8206965111940296  C 10.574845360824739 2.919402985074626  10.555876295103088 3.013333320895522  10.544329890463915 3.100099496268656  L 9.138144336340206 3.100099496268656  C 9.154639175257733 3.00935322761194  9.173608260309278 2.9170149253731337  9.196701030927834 2.8214925373134325  L 10.600412377577317 2.8214925373134325  Z M 8.037113408505151 2.8206965111940296  L 7.896907210051543 3.100099496268656  L 6.1657731958762865 3.100099496268656  L 6.306804123711338 2.8214925373134325  L 8.037113408505151 2.8214925373134325  Z M 14.236701030927833 2.3701492537313427  L 14.235876282216491 2.36935322761194  C 14.219381443298964 2.463283582089552  14.20041235824742 2.5564179104477605  14.178144336340202 2.6487562126865667  L 12.774432989690718 2.6487562126865667  C 12.797525779639171 2.55004973880597  12.815670096649482 2.4569154104477606  12.826391752577315 2.3701492537313427  L 14.236701030927833 2.3701492537313427  Z M 10.743092783505151 2.3701492537313427  L 10.742268034793813 2.3693532276119407  C 10.70559107537729 2.460978921497762  10.673390687274154 2.5542158661546126  10.645773189432987 2.6487562126865667  L 9.243711340206183 2.6487562126865667  C 9.270927835051545 2.553233824626865  9.300618556701028 2.4600994962686555  9.332783505154636 2.3701492537313427  L 10.743092783505151 2.3701492537313427  Z M 8.263092777061852 2.36935322761194  L 8.122886597938141 2.6487562126865667  L 6.392577313144326 2.6487562126865667  L 6.532783511597934 2.3701492537313427  L 8.263092777061852 2.3701492537313427  Z M 12.832164954896907 1.918805970149253  L 14.282061862113398 1.918805970149253  C 14.279872120170916 2.011942631979812  14.272991139499368 2.1049214242511365  14.261443298969066 2.197412929104477  L 12.841237113402064 2.197412929104477  C 12.843629756499531 2.104453218469366  12.84060091610381 2.0114372056501884  12.832164954896907 1.918805970149253  Z M 6.760412377577313 1.918805970149253  L 8.489072164948448 1.918805970149253  L 8.348865985824736 2.197412929104477  L 6.620206179123705 2.197412929104477  L 6.760412377577313 1.918805970149253  Z M 9.528247422680405 1.918805970149253  L 10.979793807989687 1.9188059701492541  C 10.919329797591432 2.007830741481512  10.86558270382379 2.100940260179364  10.818969065721642 2.197412929104477  L 9.400412377577313 2.197412929104477  C 9.440000006443292 2.1018905410447752  9.482886610824735 2.008756212686566  9.528247422680405 1.918805970149253  Z M 12.601237113402057 1.4666666604477605  L 14.249072164948448 1.4666666604477605  C 14.265567003865973 1.5566169029850734  14.275463911082467 1.6497512313432827  14.279587635309273 1.7460696455223874  L 12.801649484536076 1.7460696455223874  C 12.788067025278375 1.6928178566293108  12.764594705908372 1.6423837929622538  12.732371134020614 1.5972139365671636  C 12.695443168586648 1.5477964252909366  12.651270188142963 1.503821091904548  12.601237113402057 1.4666666604477605  Z M 8.715876282216492 1.4674626865671634  L 8.715051552835046 1.4666666604477605  L 8.57484535438144 1.7460696455223874  L 6.846185567010305 1.7460696455223874  L 6.986391746134016 1.4674626865671634  L 8.715876282216492 1.4674626865671634  Z M 11.436701037371128 1.4666666604477614  C 11.365118187465555 1.5075959997835309  11.299168416399123 1.5570741846112466  11.240412371134013 1.6139303544776107  C 11.195775982752657 1.6561106491128685  11.153121470706312 1.7002013519175594  11.112577326030921 1.7460696455223874  L 9.622268041237106 1.7460696455223874  C 9.678350509020612 1.6497512313432827  9.737731952319582 1.5566169029850734  9.801237119845354 1.4674626865671634  L 11.436701037371128 1.4674626865671634  Z M 14.100618556701026 1.0153233768656706  C 14.144329890463913 1.1036815858208944  14.180618563144327 1.1968159141791037  14.208659787371131 1.2955223880597002  L 5.334432989690722 1.2955223880597002  L 5.474639168814433 1.0153233768656706  L 14.099793807989691 1.0153233768656706  Z M 10.611958762886593 0.5647761194029839  L 10.527835051546386 0.7295522388059689  C 10.610309284793809 0.6698507462686556  10.694432996134015 0.6149253731343269  10.78185566365979 0.5647761194029839  L 13.747628872422677 0.5647761194029839  C 13.843298969072162 0.6451741231343268  13.927422680412368 0.738308451492536  13.998350509020616 0.8441791044776108  L 5.561237106958762 0.8441791044776108  L 5.70144330541237 0.5655721455223868  L 10.611958762886598 0.5655721455223868  Z M 5.33030928479381 1.3042786007462674  L 2.4519587628865933 4.177910447761192  L 5.623917525773191 4.177910447761192  L 7.358350515463913 4.174726361940298  L 7.218144336340201 4.454129347014924  L 5.485360824742268 4.454129347014924  L 5.171958769329898 5.077412929104477  L 6.906391759020619 5.077412929104477  L 6.77938144329897 5.32975125  L 0.1352577255154639 5.32975125  L 0.7125773195876289 4.177910447761193  L 3.6 1.3042786007462674  L 1.585979381443299 1.3042786007462674  L 2.1558762951030928 0.14925373134328357  L 10.818144336340204 0.14925373134328357  L 10.69690722293814 0.3912437873134327  L 5.786391746134019 0.3912437873134327  L 5.330309284793811 1.3034825932835823  Z M 12.375257725515464 0.14925373134328357  C 12.828865979381444 0.14925373134328357  13.202474226804124 0.23044776119402938  13.497731965206187 0.3912437873134327  L 11.120824735824742 0.3912437873134327  C 11.516701024484538 0.2272636940298506  11.943917512886598 0.1444776119402985  12.375257725515464 0.1484577052238807  Z M 10.018144329896906 6.664676623134329  L 10.544329890463917 6.664676623134329  L 10.404123711340207 7.216318414179105  L 10.593814426546393 7.216318414179105  C 11.174432976804125 7.216318414179105  11.176907203608248 7.286368171641792  11.071340199742268 7.7026865671641795  L 10.94515463273196 8.197014925373136  L 11.129072164948454 8.197014925373136  L 11.040000000000001 8.544079608208955  L 10.272164942010312 8.544079608208955  C 10.349690721649486 8.768557220149255  10.516288646907217 9.088557220149253  10.830515470360826 9.44199005597015  C 10.72659794458763 9.83681593283582  10.721649490979384 9.851144291044777  10.709278356958762 9.89333333955224  C 10.29278350515464 9.54308458955224  10.110515470360825 9.202388059701493  9.892783511597937 8.83064677238806  C 9.618969085051546 9.375920410447762  9.32783505154639 9.823283582089552  8.640824748711339 9.890945279850747  L 8.682061855670103 9.719004981343284  C 8.978969072164947 9.492139309701493  9.25278349871134 9.20796020522388  9.524948447164945 8.544875615671643  L 8.976494845360824 8.544875615671643  L 9.064742261597937 8.197014925373136  L 9.629690721649483 8.197014925373136  L 9.790515463917526 7.563383078358209  L 9.215670096649484 7.563383078358209  L 9.303092783505154 7.213134328358209  L 9.877938150773195 7.216318414179105  L 10.018144329896906 6.664676623134329  Z M 9.165360831185566 6.678208955223881  L 8.956701030927835 7.489353227611941  L 9.051546398195876 7.436815914179105  C 9.051546398195876 7.436815914179105  9.156288672680413 7.646169141791043  9.205773189432989 7.740099496268656  C 9.341855663659793 7.997213917910448  9.11917525128866 8.126965167910447  9.11917525128866 8.126965167910447  L 8.900618563144329 8.24796020522388  L 8.815670103092783 8.047363190298508  L 8.383505161082473 9.763582089552239  L 8.369484529639175 9.820099496268655  L 8.351340212628864 9.893333339552239  L 7.864742261597938 9.893333339552239  L 8.678762880154638 6.678208955223881  L 9.164536082474227 6.678208955223881  Z M 2.5220618621134023 6.676616921641791  L 2.3777319587628867 7.213930354477611  L 3.3072164884020614 7.213930354477611  C 3.7880412371134016 7.213930354477611  3.6230927706185567 7.551442798507463  3.6230927899484535 7.551442779850746  L 3.3814432925257734 8.449353227611939  L 3.212371140463918 9.08059701492537  L 2.6721649484536085 9.08059701492537  L 2.7356700966494842 8.838606958955221  L 2.7422680476804127 8.817114421641786  C 2.7422680476804127 8.814726361940295  2.743917525773196 8.813134328358206  2.744742274484536 8.810746268656715  L 1.9480412435567005 8.810746268656715  L 1.66103093427835 9.88218904850746  L 1.1274226739690716 9.88218904850746  L 1.4144329832474223 8.810746268656715  L 0.6127834987113399 8.810746268656715  C 0.6103092719072163 8.82905472014925  0.5962886597938142 8.862487555970146  0.5402061920103091 9.079800988805967  L 0 9.079800988805967  L 0.5006185631443296 7.214726361940297  L 1.8432989690721646 7.214726361940297  L 1.98762887242268 6.677412929104477  L 2.5220618621134023 6.677412929104477  Z M 4.469278356958763 7.631840802238806  C 4.469278356958763 7.631840802238806  4.82144331185567 7.59681593283582  4.728247422680413 7.946268656716418  L 4.395051552835052 9.18487561567164  C 4.480000012886599 9.367164179104476  4.66721650128866 9.457114421641789  5.011134027061857 9.457114421641789  L 5.774845360824743 9.467462686567162  L 5.916701037371135 9.467462686567162  C 6.285360831185568 9.464278600746267  6.861855676546393 9.453930354477611  6.861855676546393 9.453930354477611  L 6.7480412435567025 9.878208955223881  L 4.857731965206187 9.86467662313433  C 4.649072164948454 9.859900503731344  4.484123717783507 9.828855727611941  4.363711333762887 9.773930354477612  C 4.250511153792857 9.724912347243187  4.154929521846983 9.644571963531016  4.089072158505155 9.543084570895521  L 3.534845354381443 9.877412929104477  L 3.671752577319588 9.36796020522388  L 3.8696907216494845 9.175323376865672  L 4.167422686855671 8.064079608208953  L 4.0214433054123715 8.064079608208953  L 4.137731965206186 7.631840802238806  L 4.469278356958763 7.631840802238806  Z M 11.94556701030928 7.631840802238806  C 11.94556701030928 7.631840802238806  12.297731965206186 7.59681593283582  12.204536076030928 7.946268656716418  L 11.871340206185568 9.18487561567164  C 11.957113395618556 9.367164179104476  12.145154632731959 9.457114421641789  12.488247429123712 9.457114421641789  L 13.251134014175259 9.467462686567162  L 13.394639168814432 9.467462686567162  C 13.468041224226804 9.467462686567162  13.550515457474226 9.465870652985073  13.63381443943299 9.464278600746267  L 13.802886591494845 9.462686567164178  L 14.338969078608248 9.454726361940297  L 14.225979375000001 9.878208955223881  L 12.334845367268043 9.86467662313433  C 12.126185567010312 9.859900503731344  11.961237119845364 9.828855727611941  11.840000006443297 9.773930354477612  C 11.727076713890233 9.724821480944163  11.631785399613074 9.644483871135158  11.56618556056701 9.543084570895521  L 11.013608253865979 9.877412929104477  L 11.150515457474226 9.36796020522388  L 11.34680412371134 9.175323376865672  L 11.644536088917526 8.064079608208953  L 11.498556707474226 8.064079608208953  L 11.615670096649483 7.631840802238806  L 11.94556701030928 7.631840802238806  Z M 7.604123717783505 6.68218904850746  L 7.502680418814432 7.059502481343283  L 6.698556707474226 7.437611940298506  L 7.096907222938143 7.437611940298506  C 7.43505154639175 7.437611940298506  7.322061862113401 7.744079608208954  7.322061862113401 7.744079608208954  L 6.985567016752576 8.995422891791042  C 6.8882474226804105 9.35920399253731  6.602061862113401 9.316218917910446  6.602061862113401 9.316218899253728  L 6.270515470360825 9.316218899253728  L 6.3529896842783495 9.01213930970149  L 6.451134027061856 9.01213930970149  L 6.531134014175257 8.71124378731343  L 6.1789690786082465 8.71124378731343  L 6.00659793170103 9.348059701492534  L 5.478762893041236 9.348059701492534  L 5.650309271907216 8.71124378731343  L 5.271752570876289 8.71124378731343  L 5.110927828608247 9.306666660447757  L 4.583917519329897 9.306666660447757  L 5.085360831185566 7.437611940298504  L 5.841649484536083 7.437611940298504  L 5.4746391688144325 7.217114421641789  L 5.69979380798969 7.023681585820891  L 5.197525766752577 7.023681585820891  L 5.289072158505155 6.681393041044772  L 7.604123717783505 6.681393041044772  Z M 13.524948460051545 6.671840802238805  L 13.693195882731958 6.956019906716416  L 13.905979387886598 6.956019906716416  L 14.178144336340205 6.671840802238805  L 14.673814426546391 6.671840802238805  L 14.413195882731959 6.956019906716416  L 14.602886597938143 6.956019906716416  C 14.602886597938143 6.956019906716416  14.912164948453606 6.919402985074624  14.832164942010307 7.21711442164179  L 14.648247429123709 7.901691548507462  L 13.793814432989686 7.901691548507462  L 13.726185560567007 8.15243781716418  L 14.278762886597935 8.15243781716418  C 14.278762886597935 8.15243781716418  14.58144330541237 8.149253731343284  14.498969072164947 8.45492537313433  C 14.45360824097938 8.6244776119403  14.40164947809278 8.819502481343285  14.357113395618557 8.980298507462688  C 14.274639162371134 9.290746268656717  14.055257725515464 9.314626865671642  14.022268047680411 9.31621889925373  L 13.583505154639173 9.31621889925373  L 13.665979387886596 9.012139309701492  L 13.819381449742266 9.012139309701492  L 13.957938150773195 8.501094533582089  L 13.632164942010307 8.501094533582089  L 13.404536076030928 9.34885572761194  L 12.876701037371134 9.34885572761194  L 13.016907216494847 8.829850746268656  L 12.065979375000001 9.286766175373135  L 12.162474220360824 8.926965167910447  L 13.10515463273196 8.501094533582089  L 12.277938150773197 8.501094533582089  L 12.5319587628866 7.55462686567164  L 13.359175264175258 7.55462686567164  L 13.426804117268041 7.304676623134326  L 12.599587635309279 7.304676623134326  L 12.692783505154638 6.956019906716416  L 13.134020625 6.956019906716416  L 12.97154638530928 6.671840802238805  L 13.524123711340206 6.671840802238805  Z M 7.8754639175257735 7.398606958955222  L 8.348865985824743 7.398606958955222  L 7.969484536082475 8.912636809701493  L 7.487835057989692 8.912636809701493  L 7.8754639175257735 7.398606958955222  Z M 6.609484542525774 8.422288563432833  L 6.663092783505155 8.221691548507462  L 6.310103099226804 8.221691548507462  L 6.255670109536084 8.422288563432833  L 6.609484542525774 8.422288563432833  Z M 5.727835051546393 8.422288563432833  L 5.781443292525774 8.221691548507462  L 5.403711340206185 8.221691548507462  L 5.350103099226805 8.422288563432833  L 5.727835051546393 8.422288563432833  Z M 2.8585567074742273 8.380099496268656  L 3.059793807989691 7.634228861940299  L 2.264742274484537 7.634228861940299  L 2.064329903350516 8.380099496268656  L 2.8585567074742273 8.380099496268656  Z M 1.730309284793815 7.634228861940299  L 1.7319587628865984 7.634228861940299  L 0.9278350515463923 7.634228861940299  L 0.7274226804123718 8.380099496268656  L 1.5298969136597946 8.380099496268656  L 1.730309284793815 7.634228861940299  Z M 10.323298975515463 7.562587070895521  L 10.15835050902062 8.197014925373132  L 10.479999993556703 8.197014925373132  L 10.637525779639175 7.563383078358207  L 10.323298975515463 7.563383078358207  Z M 13.19835052190722 8.152437817164177  L 13.265979375000002 7.902487555970148  L 12.968247429123714 7.902487555970148  L 12.899793807989692 8.152437817164177  L 13.19835052190722 8.152437817164177  Z M 5.85979382087629 7.931940298507461  L 5.913402061855671 7.732139309701491  L 5.534845360824743 7.732139309701491  L 5.481237119845362 7.931940298507461  L 5.85979382087629 7.931940298507461  Z M 6.740618563144331 7.931940298507461  L 6.795051552835052 7.732139309701491  L 6.441237119845362 7.732139309701491  L 6.386804130154641 7.931940298507461  L 6.740618563144331 7.931940298507461  Z M 14.279587635309278 7.304676623134326  L 13.955463923969072 7.304676623134326  L 13.887010302835051 7.555422891791044  L 14.212783511597939 7.555422891791044  L 14.280412364690722 7.304676623134326  Z M 12.21278350515464 6.679004981343283  C 12.21278350515464 6.679004981343283  12.318350509020618 6.888358208955222  12.367835045103094 6.982288563432833  C 12.503917519329896 7.2401990111940275  12.281237106958763 7.3691542350746255  12.281237106958763 7.3691542350746255  L 12.061855670103093 7.4901492537313406  L 11.811134014175257 6.898706473880595  L 12.21278350515464 6.678208955223878  Z M 4.7364948518041246 6.679004981343283  C 4.7364948518041246 6.679004981343283  4.84123712628866 6.888358208955222  4.890721643041237 6.982288563432833  C 5.026804117268041 7.2401990111940275  4.804123704896907 7.3691542350746255  4.804123704896907 7.3691542350746255  L 4.584742268041237 7.4901492537313406  L 4.334845360824741 6.898706473880595  L 4.736494851804123 6.678208955223878  Z M 6.304329896907218 7.318208955223878  L 6.927835051546392 7.023681585820894  L 5.825154645618558 7.023681585820894  L 6.304329896907218 7.318208955223878  Z " fill-rule="nonzero" fill="#ffffff" stroke="none" transform="matrix(1 0 0 1 1409 1433 )" />
  </g>
</svg>