<?xml version="1.0" encoding="utf-8"?>
<svg version="1.1" xmlns:xlink="http://www.w3.org/1999/xlink" width="23px" height="22px" xmlns="http://www.w3.org/2000/svg">
  <g transform="matrix(1 0 0 1 -794 -1583 )">
    <path d="M 22.846666666666668 22  C 22.662666666666667 16.39  15.670666666666667 17.7925  14.627999999999998 15.235  C 14.536 14.3825  14.566666666666666 13.75  14.566666666666666 12.9525  C 14.995999999999999 12.7325  16.529333333333334 11.412500000000001  16.652 10.3125  C 16.989333333333335 10.285  17.54133333333333 9.9825  17.694666666666667 8.772499999999999  C 17.786666666666665 8.14  17.449333333333332 7.755  17.234666666666662 7.645  C 17.786666666666665 6.1324999999999985  18.031999999999996 1.4024999999999994  14.167999999999997 0.9349999999999996  C 13.769333333333334 0.32999999999999996  12.757333333333333 0  11.438666666666666 0  C 6.163999999999999 0.08249999999999999  4.6000000000000005 3.6300000000000003  5.7653333333333325 7.6725  C 5.550666666666667 7.782500000000001  5.213333333333333 8.14  5.3053333333333335 8.8  C 5.458666666666666 10.01  6.010666666666666 10.3125  6.347999999999999 10.34  C 6.470666666666666 11.4675  8.004 12.787500000000001  8.433333333333334 12.980000000000002  C 8.433333333333334 13.777500000000002  8.464 14.3825  8.372 15.262500000000003  C 7.329333333333334 17.7925  0.4906666666666666 16.4725  0.1533333333333333 22  L 22.846666666666668 22  Z " fill-rule="nonzero" fill="#ffffff" stroke="none" transform="matrix(1 0 0 1 794 1583 )" />
  </g>
</svg>