<?xml version="1.0" encoding="utf-8"?>
<svg version="1.1" xmlns:xlink="http://www.w3.org/1999/xlink" width="20px" height="21px" xmlns="http://www.w3.org/2000/svg">
  <g transform="matrix(1 0 0 1 -648 -2395 )">
    <path d="M 19.866666666666667 21  C 19.706666666666667 15.645  13.626666666666667 16.98375  12.719999999999999 14.5425  C 12.64 13.728750000000002  12.666666666666666 13.125  12.666666666666666 12.36375  C 13.04 12.15375  14.373333333333333 10.89375  14.48 9.84375  C 14.773333333333333 9.8175  15.253333333333332 9.52875  15.386666666666667 8.37375  C 15.466666666666667 7.77  15.173333333333332 7.4025  14.986666666666665 7.297499999999999  C 15.466666666666665 5.853749999999999  15.679999999999998 1.3387499999999994  12.319999999999997 0.8924999999999996  C 11.973333333333333 0.315  11.093333333333334 0  9.946666666666667 0  C 5.359999999999999 0.07875  4 3.4650000000000003  5.013333333333333 7.32375  C 4.826666666666667 7.42875  4.533333333333333 7.77  4.613333333333333 8.4  C 4.746666666666666 9.555  5.226666666666667 9.84375  5.52 9.870000000000001  C 5.626666666666667 10.94625  6.959999999999999 12.20625  7.333333333333333 12.390000000000002  C 7.333333333333333 13.151250000000001  7.359999999999999 13.728750000000002  7.279999999999999 14.568750000000001  C 6.373333333333334 16.98375  0.4266666666666666 15.72375  0.1333333333333333 21  L 19.866666666666667 21  Z " fill-rule="nonzero" fill="#ffffff" stroke="none" transform="matrix(1 0 0 1 648 2395 )" />
  </g>
</svg>