<?xml version="1.0" encoding="utf-8"?>
<svg version="1.1" xmlns:xlink="http://www.w3.org/1999/xlink" width="13px" height="14px" xmlns="http://www.w3.org/2000/svg">
  <g transform="matrix(1 0 0 1 -980 -1882 )">
    <path d="M 4.642857143221622 0.07526881250000005  L 8.357142856778381 0.07526881250000005  C 8.972646492840353 0.07517666986363508  9.529724703637914 0.42980533620686967  9.77599999935706 0.9784946189516128  L 11.142857141945948 0.9784946189516128  C 12.141456096978564 0.978458962662114  12.961314448156635 1.7465455989658154  12.998761908322784 2.7172042963709675  L 12.999999998724327 2.784946231854839  L 12.999999998724327 12.118279574596775  C 13.000036647771212 13.089621480913108  12.210396562276186 13.887101556158898  11.212499999075137 13.923526877016132  L 11.142857141945948 13.924731187499999  L 1.8571428580540528 13.924731187499999  C 0.8585439030214375 13.924766843789499  0.03868555184336487 13.156680207485795  0.001238091677216989 12.186021510080643  L 0 12.118279574596773  L 0 2.784946231854839  C -3.6647771211214956E-05 1.813604325538505  0.7896034377238148 1.016124250292716  1.7875000009248636 0.9796989294354841  L 1.8571428580540528 0.9784946189516128  L 3.2240000006429392 0.9784946189516128  C 3.4702752963620886 0.42980533620686967  4.027353507159651 0.07517666986363483  4.642857143221622 0.07526881250000005  Z M 11.142857141945948 2.182795703629032  L 9.77599999935706 2.1827957036290324  C 9.529724703637914 2.7314849863737756  8.972646492840353 3.0861136527170103  8.35714285677838 3.086021510080645  L 4.642857143221622 3.0860215100806454  C 4.027353507159651 3.0861136527170103  3.4702752963620886 2.7314849863737765  3.2240000006429392 2.182795703629032  L 1.8571428580540528 2.182795703629032  C 1.5331875784980935 2.1826959841527174  1.2639394965402173 2.425559601976288  1.239642858175242 2.739784941532258  L 1.2380952342916174 2.784946231854839  L 1.2380952342916174 12.118279574596775  C 1.23799271713412 12.433392407451318  1.487671393614721 12.695291288202533  1.8107142866345938 12.718924735887098  L 1.8571428580540528 12.720430102822581  L 11.142857141945948 12.720430102822581  C 11.466812421501906 12.720529822298898  11.736060503459782 12.477666204475327  11.760357141824759 12.163440864919355  L 11.761904765708382 12.118279574596773  L 11.761904765708382 2.784946231854839  C 11.762007282865879 2.469833399000293  11.512328606385278 2.207934518249082  11.189285713365406 2.184301070564516  L 11.142857141945948 2.182795703629032  Z M 8.867547623419279 5.351913973790323  C 9.11955454667195 5.127360406388016  9.510963830406057 5.143937134236227  9.741952375479814 5.388946231854839  C 9.958923708460691 5.619165641738823  9.958923708460691 5.972533273583757  9.741952375479814 6.202752683467741  L 9.703880946915858 6.239483870967741  L 5.9895952333591005 9.55131183266129  C 5.760831591875157 9.755370865332214  5.412075374188889 9.763095422887016  5.174000000260238 9.569376348790321  L 5.133761909866349 9.533247316532258  L 3.2766190530879706 7.726795703629032  C 3.1608591092663882 7.613914078835331  3.0958501129177716 7.460982527070971  3.0958501129177716 7.30154264507115  C 3.0958501129177716 6.968984083435139  3.3730071746572237 6.699392102732441  3.7148977366802085 6.699392102732441  C 3.8603607494501855 6.699392102732441  4.001178016955126 6.7492184583805885  4.112642857611395 6.840129032258064  L 4.151952376576895 6.8753548387096775  L 5.590000000178596 8.273849457661289  L 8.867547623419279 5.351913973790323  Z M 8.35714285677838 1.2795698971774194  L 4.6428571432216215 1.2795698971774194  C 4.47191186621666 1.2795698971774194  4.333333338594867 1.414365884369488  4.333333338594867 1.5806451612903225  C 4.333333338594867 1.7469244382111575  4.47191186621666 1.881720425403226  4.6428571432216215 1.881720425403226  L 8.35714285677838 1.881720425403226  C 8.528088133783342 1.881720425403226  8.666666661405133 1.7469244382111575  8.666666661405133 1.580645161290323  C 8.666666661405133 1.414365884369488  8.528088133783342 1.2795698971774194  8.35714285677838 1.2795698971774194  Z " fill-rule="nonzero" fill="#e7772d" stroke="none" transform="matrix(1 0 0 1 980 1882 )" />
  </g>
</svg>