<?xml version="1.0" encoding="utf-8"?>
<svg version="1.1" xmlns:xlink="http://www.w3.org/1999/xlink" width="30px" height="32px" xmlns="http://www.w3.org/2000/svg">
  <g transform="matrix(1 0 0 1 -600 -2279 )">
    <path d="M 29.8 32  C 29.56 23.84  20.44 25.88  19.08 22.16  C 18.96 20.92  19 20  19 18.84  C 19.56 18.52  21.56 16.6  21.72 15  C 22.16 14.96  22.88 14.52  23.08 12.76  C 23.2 11.84  22.759999999999998 11.28  22.479999999999997 11.12  C 23.199999999999996 8.919999999999998  23.519999999999996 2.039999999999999  18.479999999999997 1.3599999999999994  C 17.96 0.48  16.64 0  14.92 0  C 8.04 0.12  6 5.28  7.52 11.16  C 7.24 11.32  6.8 11.84  6.92 12.8  C 7.119999999999999 14.56  7.839999999999999 15  8.28 15.040000000000001  C 8.44 16.68  10.44 18.6  11 18.880000000000003  C 11 20.040000000000003  11.04 20.92  10.92 22.200000000000003  C 9.56 25.88  0.6399999999999999 23.96  0.19999999999999996 32  L 29.8 32  Z " fill-rule="nonzero" fill="#ffffff" stroke="none" transform="matrix(1 0 0 1 600 2279 )" />
  </g>
</svg>