<?xml version="1.0" encoding="utf-8"?>
<svg version="1.1" xmlns:xlink="http://www.w3.org/1999/xlink" width="20px" height="14px" xmlns="http://www.w3.org/2000/svg">
  <g transform="matrix(1 0 0 1 -595 -1676 )">
    <path d="M 0 8.5225  C 0 8.4525  0.017857142857142794 8.382500000000002  0.05357142857142838 8.33  L 2.749999999999999 4.357499999999999  C 2.8214285714285703 4.252499999999998  2.928571428571427 4.199999999999999  3.0535714285714266 4.199999999999999  L 5.7142857142857135 4.199999999999999  L 5.7142857142857135 0.7000000000000001  C 5.7142857142857135 0.3150000000000001  6.035714285714285 0  6.428571428571428 0  L 19.285714285714285 0  C 19.678571428571427 0  20 0.3150000000000001  20 0.7000000000000001  L 20 10.5  C 20 10.885000000000002  19.678571428571427 11.200000000000001  19.285714285714285 11.200000000000001  L 18.571428571428573 11.200000000000001  C 18.571428571428573 12.739999999999998  17.285714285714285 14  15.714285714285714 14  C 14.142857142857144 14  12.857142857142856 12.739999999999998  12.857142857142856 11.200000000000001  L 7.142857142857142 11.200000000000001  C 7.142857142857142 12.739999999999998  5.857142857142856 14  4.2857142857142865 14  C 2.7142857142857157 14  1.428571428571428 12.739999999999998  1.428571428571428 11.200000000000001  L 0.714285714285714 11.200000000000001  C 0.3214285714285703 11.200000000000001  0 10.885000000000002  0 10.5  L 0 8.5225  Z M 14.285714285714286 11.200000000000001  C 14.285714285714286 11.97  14.928571428571429 12.6  15.714285714285714 12.6  C 16.5 12.6  17.142857142857146 11.97  17.142857142857146 11.200000000000001  C 17.142857142857146 10.429999999999998  16.5 9.799999999999999  15.714285714285714 9.799999999999999  C 14.928571428571429 9.799999999999999  14.285714285714286 10.429999999999998  14.285714285714286 11.200000000000001  Z M 7.142857142857142 1.4000000000000001  L 7.142857142857142 9.799999999999999  L 13.250000000000002 9.799999999999999  C 13.75 8.96  14.660714285714285 8.4  15.714285714285715 8.4  C 16.767857142857142 8.4  17.69642857142857 8.96  18.178571428571427 9.799999999999999  L 18.571428571428573 9.799999999999999  L 18.571428571428573 1.4000000000000001  L 7.142857142857142 1.4000000000000001  Z M 2.857142857142858 11.200000000000001  C 2.857142857142858 11.97  3.4999999999999987 12.6  4.2857142857142865 12.6  C 5.071428571428573 12.6  5.7142857142857135 11.97  5.7142857142857135 11.200000000000001  C 5.7142857142857135 10.429999999999998  5.071428571428573 9.799999999999999  4.2857142857142865 9.799999999999999  C 3.4999999999999987 9.799999999999999  2.857142857142858 10.429999999999998  2.857142857142858 11.200000000000001  Z M 1.428571428571428 8.504999999999999  L 1.428571428571428 9.799999999999999  L 1.8214285714285716 9.799999999999999  C 2.321428571428572 8.96  3.232142857142859 8.4  4.2857142857142865 8.4  C 4.803571428571429 8.4  5.285714285714285 8.54  5.7142857142857135 8.785  L 5.7142857142857135 5.6000000000000005  L 3.5892857142857126 5.6000000000000005  C 3.464285714285713 5.6000000000000005  3.3571428571428563 5.652499999999999  3.303571428571428 5.7575  L 1.5000000000000013 8.3125  C 1.4642857142857157 8.364999999999998  1.428571428571428 8.435  1.428571428571428 8.504999999999999  Z " fill-rule="nonzero" fill="#e7772d" stroke="none" transform="matrix(1 0 0 1 595 1676 )" />
  </g>
</svg>