<?xml version="1.0" encoding="utf-8"?>
<svg version="1.1" xmlns:xlink="http://www.w3.org/1999/xlink" width="9px" height="12px" xmlns="http://www.w3.org/2000/svg">
  <g transform="matrix(1 0 0 1 -600 -1492 )">
    <path d="M 8.970588231617647 11.25  C 8.970588231617647 11.67500000390625  8.66470588235294 12  8.264705878676471 12  L 0.7352941213235293 12  C 0.3352941176470586 12  0.029411768382352824 11.67500000390625  0.029411768382352824 11.25  L 0.029411768382352824 2.25  C 0.029411768382352824 1.8249999960937502  0.3352941176470586 1.5  0.7352941213235293 1.5  L 2.688235290441177 1.5  C 2.8999999963235297 1.5  3.088235294117647 1.35  3.13529412132353 1.125  C 3.3000000000000003 0.47499999609375  3.841176474264706 0  4.5 0  C 5.1588235257352935 0  5.699999999999999 0.47499999609375  5.864705878676471 1.125  C 5.911764705882353 1.35  6.099999992647059 1.5  6.311764709558823 1.5  L 8.264705878676471 1.5  C 8.66470588235294 1.5  8.970588231617647 1.8249999960937497  8.970588231617647 2.25  L 8.970588231617647 11.25  Z M 8.50000000367647 11.25  L 8.500000003676472 2.25  C 8.500000003676472 2.0999999999999996  8.405882360294118 2.00000000390625  8.264705878676471 2.00000000390625  L 6.311764709558824 2.00000000390625  C 5.888235297794119 2.00000000390625  5.511764713235296 1.70000000390625  5.394117650735295 1.25000000390625  C 5.276470588235294 0.8000000039062498  4.923529411764707 0.5000000039062499  4.476470591911765 0.5000000039062499  C 4.05294118014706 0.5000000039062499  3.6764705955882357 0.8000000039062498  3.558823533088236 1.25000000390625  C 3.4411764705882364 1.70000000390625  3.0882352941176476 2.00000000390625  2.6411764742647073 2.00000000390625  L 0.7352941213235293 2.00000000390625  C 0.5941176507352939 2.00000000390625  0.5000000073529409 2.0999999999999996  0.4999999963235292 2.25  L 0.4999999963235292 11.25  C 0.4999999963235292 11.399999999999999  0.5941176397058822 11.49999999609375  0.7352941213235293 11.49999999609375  L 8.26470587867647 11.49999999609375  C 8.405882349264704 11.49999999609375  8.499999992647059 11.4  8.50000000367647 11.25  Z M 7.558823525735295 4.500000000000001  C 7.558823525735295 4.65  7.464705882352941 4.7499999960937505  7.3235294117647065 4.7499999960937505  L 1.6764705882352942 4.7499999960937505  C 1.5352941176470587 4.7499999960937505  1.4411764742647057 4.65  1.4411764742647057 4.500000000000001  C 1.4411764742647057 4.350000000000001  1.5352941176470587 4.250000003906251  1.6764705882352942 4.250000003906251  L 7.323529411764706 4.250000003906251  C 7.46470588235294 4.250000003906251  7.558823525735295 4.350000000000001  7.558823525735295 4.500000000000001  Z M 5.205882352941177 1.7499999960937498  C 5.205882352941177 1.8999999960937495  5.111764709558824 1.9999999921875  4.970588238970588 2.00000000390625  L 4.029411761029412 2.00000000390625  C 3.888235290441176 2.00000000390625  3.7941176470588234 1.9000000078125  3.7941176470588234 1.7499999960937498  C 3.7941176470588234 1.5999999843749997  3.8882352904411768 1.4999999999999998  4.029411761029412 1.4999999999999998  L 4.970588238970588 1.4999999999999998  C 5.111764709558823 1.4999999999999998  5.205882352941177 1.59999999609375  5.205882352941177 1.7499999960937498  Z M 1.4411764742647057 6.75  C 1.4411764742647057 6.6  1.5352941176470587 6.5000000039062495  1.6764705882352942 6.5000000039062495  L 6.382352944852941 6.5000000039062495  C 6.523529415441176 6.5000000039062495  6.61764705882353 6.6  6.61764705882353 6.75  C 6.61764705882353 6.9  6.5235294154411765 6.9999999960937505  6.382352944852941 6.9999999960937505  L 1.6764705882352942 6.9999999960937505  C 1.5352941176470587 6.9999999960937505  1.4411764742647057 6.9  1.4411764742647057 6.75  Z M 1.4411764742647057 9  C 1.4411764742647057 8.85  1.5352941176470587 8.75000000390625  1.6764705882352942 8.75000000390625  L 5.441176466911765 8.75000000390625  C 5.5823529375 8.75000000390625  5.676470580882354 8.85  5.676470591911765 9  C 5.676470602941177 9.15  5.582352948529413 9.24999999609375  5.441176466911765 9.24999999609375  L 1.6764705882352942 9.24999999609375  C 1.5352941176470587 9.24999999609375  1.4411764742647057 9.15  1.4411764742647057 9  Z " fill-rule="nonzero" fill="#999999" stroke="none" transform="matrix(1 0 0 1 600 1492 )" />
  </g>
</svg>