<?xml version="1.0" encoding="utf-8"?>
<svg version="1.1" xmlns:xlink="http://www.w3.org/1999/xlink" width="12px" height="12px" xmlns="http://www.w3.org/2000/svg">
  <g transform="matrix(1 0 0 1 -687 -1517 )">
    <path d="M 8.445397443241264 0.7950504292657132  C 8.445397443241264 0.6775632437493854  8.375979904780728 0.5711737610762885  8.268444444444443 0.523851847222222  C 7.5493036196661105 0.22597168341652185  6.778392706183534 0.07311865746738988  6 0.07407406944444439  C 2.727111111111111 0.07407406944444439  0.07407406944444439 2.727111111111111  0.07407406944444439 6  C 0.07407406944444439 9.27288888888889  2.727111111111111 11.925925930555556  6 11.925925930555556  C 9.27288888888889 11.925925930555556  11.925925930555556 9.272888888888888  11.925925930555556 5.999999999999999  C 11.925925930555556 5.2118518472222215  11.771851861111111 4.444444444444444  11.476148152777778 3.7315555555555546  C 11.428826238923712 3.624020095219269  11.322436756250614 3.5546025567587334  11.204949570734286 3.5546025567587334  C 11.041309647415366 3.5546025567587334  10.908653279067618 3.687258925106484  10.908653279067618 3.8508988484254005  C 10.908653279067618 3.887717758209112  10.915515657886353 3.9242141583314103  10.928888888888888 3.9585185138888876  C 11.196887349009058 4.605720022855876  11.334335497086737 5.299505914726084  11.333333333333332 6  C 11.333333333333332 8.945481486111111  8.945481486111111 11.333333333333332  6 11.333333333333332  C 3.0545185138888895 11.333333333333332  0.6666666666666666 8.945481486111111  0.6666666666666666 6  C 0.6666666666666666 3.0545185138888895  3.0545185138888895 0.6666666666666666  6 0.6666666666666666  C 6.709925930555556 0.6666666666666666  7.399999999999999 0.8053333333333335  8.041481486111111 1.0711111111111111  C 8.075785841668587 1.0844843421136465  8.112282241790886 1.0913467209323797  8.149101151574596 1.0913467209323797  C 8.312741074893513 1.0913467209323797  8.445397443241264 0.9586903525846295  8.445397443241264 0.7950504292657132  Z M 6.296296291666668 6.173629625  L 6.296296291666668 3.925925930555556  C 6.296296291666668 3.7622860072366393  6.163639923318916 3.6296296388888885  6 3.6296296388888885  C 5.836360076681082 3.6296296388888885  5.703703708333334 3.7622860072366384  5.703703708333334 3.925925930555556  L 5.703703708333334 6.296296291666668  C 5.70372048559508 6.374872533074001  5.734948330590072 6.450224373531812  5.790518513888889 6.505777777777778  L 7.568296291666668 8.283555555555557  C 7.623537530324624 8.336909460780213  7.697337124303565 8.366729673127221  7.774137082970135 8.366729673127221  C 7.937777006289053 8.366729673127221  8.070433374636803 8.234073304779471  8.070433374636803 8.070433381460555  C 8.070433374636803 7.993633426191854  8.040613164921721 7.919833835204849  7.987259263888891 7.864592597222222  L 6.296296291666668 6.173629625  Z " fill-rule="nonzero" fill="#999999" stroke="none" transform="matrix(1 0 0 1 687 1517 )" />
  </g>
</svg>