<?xml version="1.0" encoding="utf-8"?>
<svg version="1.1" xmlns:xlink="http://www.w3.org/1999/xlink" width="20px" height="20px" xmlns="http://www.w3.org/2000/svg">
  <g transform="matrix(1 0 0 1 -2157 -4119 )">
    <path d="M 19.94318181818182 10  C 19.94318181818182 15.482943093039774  15.482943093039774 19.94318181818182  10 19.94318181818182  C 4.517056906960227 19.94318181818182  0.05681818181818182 15.482943093039774  0.05681818181818182 10  C 0.05681818181818182 4.517056906960227  4.517056906960227 0.05681818181818182  10 0.05681818181818182  C 15.482943093039774 0.05681818181818182  19.94318181818182 4.517056906960227  19.94318181818182 10  Z M 18.522727272727273 10  C 18.522727272727273 5.30041630415483  14.69958369584517 1.4772727272727273  10 1.4772727272727273  C 5.3004163041548304 1.4772727272727273  1.4772727272727273 5.3004163041548304  1.4772727272727273 10  C 1.4772727272727273 14.69958369584517  5.3004163041548304 18.522727272727273  10 18.522727272727273  C 14.69958369584517 18.522727272727273  18.522727272727273 14.69958369584517  18.522727272727273 10  Z " fill-rule="nonzero" fill="#ffffff" stroke="none" transform="matrix(1 0 0 1 2157 4119 )" />
  </g>
</svg>