<?xml version="1.0" encoding="utf-8"?>
<svg version="1.1" xmlns:xlink="http://www.w3.org/1999/xlink" width="10px" height="10px" xmlns="http://www.w3.org/2000/svg">
  <g transform="matrix(1 0 0 1 -803 -4090 )">
    <path d="M 808 4090  C 810.8 4090  813 4092.2  813 4095  C 813 4097.8  810.8 4100  808 4100  C 805.2 4100  803 4097.8  803 4095  C 803 4092.2  805.2 4090  808 4090  Z " fill-rule="nonzero" fill="#999999" stroke="none" />
    <path d="M 808 4090.5  C 810.52 4090.5  812.5 4092.48  812.5 4095  C 812.5 4097.52  810.52 4099.5  808 4099.5  C 805.48 4099.5  803.5 4097.52  803.5 4095  C 803.5 4092.48  805.48 4090.5  808 4090.5  Z " stroke-width="1" stroke="#999999" fill="none" />
  </g>
</svg>