<?xml version="1.0" encoding="utf-8"?>
<svg version="1.1" xmlns:xlink="http://www.w3.org/1999/xlink" width="10px" height="12px" xmlns="http://www.w3.org/2000/svg">
  <g transform="matrix(1 0 0 1 -600 -1517 )">
    <path d="M 9.899821428571428 10.837566371681415  C 9.899821428571428 11.979477876106195  8.145267857142857 11.979477876106195  6.11451530612245 11.979477876106195  L 3.8854591836734693 11.979477876106195  C 1.7705994897959185 11.979477876106195  0.10014030612244898 11.979477876106195  0.10014030612244898 10.837566371681415  L 0.10014030612244898 10.609539823008848  C 0.10014030612244898 8.46987610619469  1.7980357142857146 6.730008849557521  3.8854719387755097 6.730008849557521  L 6.114502551020408 6.730008849557521  C 8.201479591836735 6.730008849557521  9.899821428571428 8.470300884955751  9.899821428571428 10.609539823008848  L 9.899821428571428 10.837566371681415  Z M 6.134859693877552 7.373535398230088  L 3.8646428571428575 7.373535398230088  C 2.109221938775511 7.373535398230088  0.6808673469387762 8.832849557522124  0.6808673469387762 10.62704867256637  L 0.6808673469387762 10.859230088495574  C 0.6808673469387762 11.324442477876106  2.520854591836735 11.324442477876106  3.8646428571428575 11.324442477876106  L 6.134859693877552 11.324442477876106  C 7.247193877551021 11.324442477876106  9.319107142857144 11.324442477876106  9.319107142857144 10.859230088495574  L 9.319107142857144 10.62704867256637  C 9.319107142857144 8.832849557522124  7.89030612244898 7.373535398230088  6.134859693877552 7.373535398230088  Z M 4.888443877551022 6.264783185840709  C 3.231262755102042 6.264783185840709  1.8839158163265315 4.882393805309734  1.8839158163265315 3.1835442477876104  C 1.8839158163265315 1.4842300884955753  3.231262755102042 0.10231858407079644  4.888443877551022 0.10231858407079644  C 6.545625000000001 0.10231858407079644  7.8929591836734705 1.4842300884955753  7.8929591836734705 3.183557522123893  C 7.8929591836734705 4.882380530973451  6.544744897959185 6.26479646017699  4.888443877551022 6.26479646017699  Z M 4.888443877551021 0.7380000000000001  C 3.5729591836734693 0.7380000000000001  2.5031377551020406 1.8306238938053099  2.5031377551020406 3.1738672566371684  C 2.5031377551020406 4.517548672566372  3.5734183673469384 5.61066371681416  4.888443877551021 5.61066371681416  C 6.203915816326532 5.61066371681416  7.2741836734693885 4.517548672566372  7.2741836734693885 3.1738672566371684  C 7.2741836734693885 1.830637168141593  6.203915816326532 0.7380000000000001  4.888443877551021 0.7380000000000001  Z " fill-rule="nonzero" fill="#999999" stroke="none" transform="matrix(1 0 0 1 600 1517 )" />
  </g>
</svg>