<?xml version="1.0" encoding="utf-8"?>
<svg version="1.1" xmlns:xlink="http://www.w3.org/1999/xlink" width="18px" height="16px" xmlns="http://www.w3.org/2000/svg">
  <g transform="matrix(1 0 0 1 -1093 -2606 )">
    <path d="M 0.4279090909090878 1.4344000000000008  L 8.52709090909091 9.3536  C 8.680233616090913 9.504413472464625  8.888600017920805 9.589230463459097  9.105954545454546 9.589230463459097  C 9.323309072988286 9.589230463459097  9.531675474818181 9.504413472464625  9.68481818181818 9.3536  L 17.56881818181818 1.6448000000000007  C 17.722233865895365 1.4947935533467542  17.808421899761818 1.2913411513004185  17.808421899761818 1.0792000000000008  C 17.808421899761818 0.6374389211709655  17.442164739711515 0.2793208091217778  16.990363636363636 0.2793208091217778  C 16.773401095260937 0.2793208091217778  16.565324774986273 0.3635935533467546  16.411909090909088 0.513600000000001  L 9.106363636363634 7.656800000000001  L 1.5848181818181792 0.3032000000000011  C 1.4314024977409952 0.15319355334675464  1.2233261774663335 0.0689208091217786  1.006363636363634 0.0689208091217786  C 0.5545625330157553 0.0689208091217786  0.18830537296545186 0.42703892117096487  0.18830537296545186 0.8688000000000017  C 0.18830537296545186 1.0809411513004186  0.27449340683190465 1.2843935533467543  0.4279090909090878 1.4344000000000008  Z M 16.990772727272727 6.67983791641943  C 16.773633212655927 6.67983791641943  16.56539563068325 6.764218136628337  16.41190909090909 6.9144000000000005  L 9.106363636363637 14.057600000000003  L 1.5856363636363657 6.704000000000003  C 1.4322206795591825 6.553993553346757  1.2241443592845194 6.46972080912178  1.0071818181818202 6.46972080912178  C 0.5553807148339425 6.46972080912178  0.18912355478363832 6.827838921170967  0.18912355478363832 7.269600000000002  C 0.18912355478363832 7.481741151300419  0.2753115886500911 7.685193553346757  0.4287272727272749 7.835200000000002  L 8.527909090909093 15.7544  C 8.681051797909099 15.905213472464624  8.889418199738987 15.990030463459096  9.106772727272727 15.990030463459096  C 9.324127254806468 15.990030463459096  9.532493656636362 15.905213472464624  9.685636363636366 15.7544  L 17.569636363636363 8.045600000000002  C 17.72298119450753 7.89555679443598  17.809120312752857 7.69211816959579  17.809120312752857 7.480000000000001  C 17.809120312752857 7.0380826838456185  17.442733618794254 6.67983791641943  16.990772727272727 6.67983791641943  Z " fill-rule="nonzero" fill="#999999" stroke="none" transform="matrix(1 0 0 1 1093 2606 )" />
  </g>
</svg>