<?xml version="1.0" encoding="utf-8"?>
<svg version="1.1" xmlns:xlink="http://www.w3.org/1999/xlink" width="36px" height="36px" preserveAspectRatio="xMinYMid meet" viewBox="1954 459  36 34" xmlns="http://www.w3.org/2000/svg">
  <path d="M 260.5 177  L 260.5 175  A 5 5 0 0 1 265.5 170.5 L 1760 170.5  A 5 5 0 0 1 1765.5 175.5 L 1765.5 471  A 5 5 0 0 0 1770.5 476.5 L 1972 476.5  " stroke-width="3" stroke="#0066ff" fill="none" />
  <path d="M 260.5 172  A 4 4 0 0 0 256.5 176 A 4 4 0 0 0 260.5 180 A 4 4 0 0 0 264.5 176 A 4 4 0 0 0 260.5 172 Z M 1962.9 486.5  L 1975 476.5  L 1962.9 466.5  L 1967.8 476.5  L 1962.9 486.5  Z " fill-rule="nonzero" fill="#0066ff" stroke="none" />
</svg>