<?xml version="1.0" encoding="utf-8"?>
<svg version="1.1" xmlns:xlink="http://www.w3.org/1999/xlink" width="12px" height="275px" preserveAspectRatio="xMidYMin meet" viewBox="3399 376  10 275" xmlns="http://www.w3.org/2000/svg">
  <path d="M 3404.5 383  L 3404.5 640  A 5 5 0 0 1 3399.5 645.5 L 2925 645.5  A 5 5 0 0 0 2920.5 650.5 L 2920.5 1029  " stroke-width="3" stroke="#0066ff" fill="none" />
  <path d="M 3404.5 381.4292036732051  A 4 4 0 0 0 3400.5 385.4292036732051 A 4 4 0 0 0 3404.5 389.4292036732051 A 4 4 0 0 0 3408.5 385.4292036732051 A 4 4 0 0 0 3404.5 381.4292036732051 Z M 2910.5 1019.9  L 2920.5 1032  L 2930.5 1019.9  L 2920.5 1024.8  L 2910.5 1019.9  Z " fill-rule="nonzero" fill="#0066ff" stroke="none" />
</svg>