<?xml version="1.0" encoding="utf-8"?>
<svg version="1.1" xmlns:xlink="http://www.w3.org/1999/xlink" width="28px" height="24px" xmlns="http://www.w3.org/2000/svg">
  <g transform="matrix(1 0 0 1 -425 -216 )">
    <path d="M 20.980104793103447 11.641100529411764  L 24.73862275862069 13.839359764705883  L 24.738622758620686 4.522927735294117  C 24.738622758620686 3.697033144755615  24.051787739431738 3.0275132941176466  23.204533806034483 3.0275132941176466  C 23.204533806034483 3.0275132941176466  23.204533775862068 3.0275132941176466  23.204533775862068 3  L 4.795466224137929 3  C 4.795466224137929 3.0275132941176466  4.795466193965515 3.0275132941176466  4.795466193965515 3.0275132941176466  C 3.948212260568258 3.0275132941176466  3.261377241379309 3.697033144755615  3.261377241379309 4.522927735294117  L 3.261377241379309 19.222851794117645  L 16.239769875 11.641100529411764  C 17.69837782104898 10.786861029584973  19.52149684705447 10.786861029584973  20.980104793103447 11.641100529411764  Z M 24.738622758620693 19.47707226470588  L 24.73862275862069 17.32367544117647  L 19.384652271551726 14.198259235294117  C 18.910003490110455 13.931129162731475  18.32521207023437 13.931129162731475  17.850563288793104 14.198259235294117  L 6.222168961206897 21  L 23.204533775862068 21  C 23.204533591122505 20.972486705882343  23.204533990774046 20.972486705882357  23.204533806034483 20.972486705882357  C 24.05178773943175 20.972486705882357  24.738622758620693 20.30296685524439  24.738622758620693 19.477072264705882  Z M 0.19319933620689475 4.522927735294117  C 0.19319933620689475 2.0452439474349395  2.253704407282394 0.03668438235294043  4.79546622413793 0  L 23.204533775862068 0  C 23.204533775862068 0.036684382352940005  23.204533775862068 0.036684382352940005  23.204533775862068 0.036684382352940005  C 25.746295592717598 0.036684382352940005  27.806800663793105 2.0452439474349386  27.806800663793105 4.522927735294117  L 27.806800663793105 19.477072264705882  C 27.806800663793105 21.95475605256506  25.746295592717598 23.963315617647062  23.204533775862068 24  L 4.79546622413793 24  C 2.253704407282394 23.963315617647062  0.19319933620689475 21.95475605256506  0.19319933620689475 19.477072264705882  L 0.19319933620689475 4.522927735294117  Z M 10.931822064655172 8.26146388235294  C 10.931822064655172 9.500305776282529  9.90156952911742 10.504585558823528  8.630688620689654 10.504585558823528  C 7.359807712261888 10.504585558823528  6.329555176724138 9.500305776282529  6.329555176724138 8.26146388235294  C 6.329555176724138 7.022621988423351  7.359807712261888 6.01834220588235  8.630688620689654 6.01834220588235  C 9.90156952911742 6.01834220588235  10.931822064655172 7.022621988423351  10.931822064655172 8.26146388235294  Z " fill-rule="nonzero" fill="#999999" stroke="none" transform="matrix(1 0 0 1 425 216 )" />
  </g>
</svg>