<?xml version="1.0" encoding="utf-8"?>
<svg version="1.1" xmlns:xlink="http://www.w3.org/1999/xlink" width="26px" height="18px" xmlns="http://www.w3.org/2000/svg">
  <g transform="matrix(1 0 0 1 -425 -390 )">
    <path d="M 25.310077493929757 1.2132853653120144  L 24.324828562634657 1.2132853653120144  C 24.05210464758387 1.2132853653120144  23.831876885195445 1.4460901621141464  23.831876885195445 1.7345520763935154  L 23.831876885195445 1.6226124805685098  L 18.9055753223214 6.8344836775483016  L 18.9055753223214 2.2551365756162567  C 18.9055753223214 1.103904063957363  18.02272945521699 0.17012658227848254  16.9343945829486 0.17012658227848254  L 2.154181047159812 0.17012658227848254  C 1.0658461748914219 0.17012658227848254  0.18300030778701326 1.1032787030868323  0.18300030778701326 2.2551365756162567  L 0.18300030778701326 15.806422385076619  C 0.18300030778701326 16.957001110370864  1.0651917513080964 17.89080701754386  2.154181047159812 17.89080701754386  L 16.9343945829486 17.89080701754386  C 18.02272945521699 17.89080701754386  18.9055753223214 16.957029535864976  18.9055753223214 15.806422385076619  L 18.9055753223214 11.226421496779926  L 23.831876885195445 16.437667332889188  L 23.831876885195445 16.327006884299355  C 23.831876885195445 16.614161225849433  24.05210464758387 16.847619809016212  24.324828562634657 16.847619809016212  L 25.310077493929757 16.847619809016212  C 25.582146985397216 16.847619809016212  25.803029171368966 16.614161225849436  25.803029171368966 16.327006884299355  L 25.803029171368966 1.7344952254052854  C 25.803029171368966 1.4460333111259165  25.582175438596494 1.2132285143237849  25.310077493929757 1.2132285143237849  Z M 16.93436612974932 2.2551365756162567  L 16.93436612974932 8.919493670886077  L 16.828719400841283 9.030779480346435  L 16.93436612974932 9.142065289806798  L 16.93436612974932 15.806422385076619  L 2.1541525939605344 15.806422385076619  L 2.1541525939605344 2.2551365756162567  L 16.93436612974932 2.2551365756162567  Z M 23.83250285557949 4.571672218520987  L 23.83250285557949 13.48923295580724  L 19.616819944598333 9.030779480346435  L 23.83250285557949 4.571672218520987  Z " fill-rule="nonzero" fill="#999999" stroke="none" transform="matrix(1 0 0 1 425 390 )" />
  </g>
</svg>