<?xml version="1.0" encoding="utf-8"?>
<svg version="1.1" xmlns:xlink="http://www.w3.org/1999/xlink" width="24px" height="24px" xmlns="http://www.w3.org/2000/svg">
  <g transform="matrix(1 0 0 1 -1957 -1501 )">
    <path d="M 23.046875 7.343750000000001  C 23.682291666666664 8.822916666666668  24 10.375  24 12  C 24 13.624999999999998  23.682291666666664 15.17708333333333  23.046875 16.65625  C 22.411458333333336 18.135416666666668  21.557291666666668 19.411458333333332  20.484375 20.484375  C 19.411458333333336 21.557291666666668  18.135416666666668 22.411458333333332  16.65625 23.046875  C 15.177083333333336 23.682291666666668  13.625 24  12 24  C 10.208333333333334 24  8.505208333333334 23.622395833333332  6.890625 22.8671875  C 5.276041666666667 22.111979166666668  3.901041666666667 21.046875  2.765625 19.671875  C 2.6927083333333335 19.567708333333332  2.658854166666667 19.450520833333332  2.6640625 19.3203125  C 2.6692708333333335 19.190104166666668  2.713541666666667 19.083333333333332  2.796875 19  L 4.9375 16.84375  C 5.041666666666667 16.75  5.171875 16.703125  5.328125 16.703125  C 5.494791666666667 16.72395833333333  5.614583333333334 16.786458333333332  5.6875 16.890625  C 6.447916666666668 17.880208333333336  7.380208333333334 18.645833333333332  8.484375 19.1875  C 9.588541666666668 19.729166666666668  10.760416666666668 20  12 20  C 13.083333333333336 20  14.1171875 19.7890625  15.1015625 19.3671875  C 16.0859375 18.9453125  16.9375 18.375  17.65625 17.65625  C 18.375 16.9375  18.9453125 16.0859375  19.3671875 15.101562499999998  C 19.7890625 14.117187499999998  20 13.083333333333332  20 12  C 20 10.916666666666664  19.7890625 9.8828125  19.3671875 8.8984375  C 18.9453125 7.914062499999999  18.375 7.062500000000001  17.65625 6.343749999999999  C 16.9375 5.625  16.0859375 5.054687499999999  15.1015625 4.632812499999999  C 14.1171875 4.210937499999999  13.083333333333336 3.999999999999999  12 3.999999999999999  C 10.979166666666668 3.999999999999999  10 4.184895833333333  9.0625 4.554687500000001  C 8.125 4.924479166666663  7.291666666666668 5.453124999999999  6.5625 6.140625  L 8.703125 8.296875  C 9.026041666666668 8.609375  9.098958333333334 8.96875  8.921875 9.375  C 8.744791666666668 9.791666666666668  8.4375 10  8 10  L 1 10  C 0.7291666666666667 10  0.49479166666666663 9.901041666666668  0.296875 9.703125  C 0.09895833333333334 9.505208333333332  0 9.270833333333332  0 9  L 0 2.000000000000001  C 0 1.5624999999999991  0.20833333333333331 1.255208333333333  0.625 1.078125  C 1.03125 0.9010416666666643  1.390625 0.973958333333333  1.703125 1.2968750000000009  L 3.734375 3.312500000000001  C 4.848958333333334 2.2604166666666643  6.122395833333334 1.4453124999999991  7.5546875 0.8671875  C 8.986979166666668 0.2890625000000009  10.46875 0  12 0  C 13.625 0  15.177083333333336 0.31770833333333304  16.65625 0.9531249999999991  C 18.135416666666668 1.5885416666666652  19.411458333333336 2.442708333333332  20.484375 3.515625  C 21.557291666666668 4.588541666666665  22.411458333333336 5.864583333333332  23.046875 7.343750000000001  Z " fill-rule="nonzero" fill="#000000" stroke="none" transform="matrix(1 0 0 1 1957 1501 )" />
  </g>
</svg>