<?xml version="1.0" encoding="utf-8"?>
<svg version="1.1" xmlns:xlink="http://www.w3.org/1999/xlink" width="10px" height="10px" xmlns="http://www.w3.org/2000/svg">
  <g transform="matrix(1 0 0 1 -2101 -1508 )">
    <path d="M 2106 1510  C 2107.68 1510  2109 1511.32  2109 1513  C 2109 1514.68  2107.68 1516  2106 1516  C 2104.32 1516  2103 1514.68  2103 1513  C 2103 1511.32  2104.32 1510  2106 1510  Z " fill-rule="nonzero" fill="#ffffff" stroke="none" />
    <path d="M 2106 1509.5  C 2107.96 1509.5  2109.5 1511.04  2109.5 1513  C 2109.5 1514.96  2107.96 1516.5  2106 1516.5  C 2104.04 1516.5  2102.5 1514.96  2102.5 1513  C 2102.5 1511.04  2104.04 1509.5  2106 1509.5  Z " stroke-width="3" stroke="#797979" fill="none" />
  </g>
</svg>