<?xml version="1.0" encoding="utf-8"?>
<svg version="1.1" xmlns:xlink="http://www.w3.org/1999/xlink" width="24px" height="24px" xmlns="http://www.w3.org/2000/svg">
  <g transform="matrix(1 0 0 1 -2430 -1423 )">
    <path d="M 20.040528843750003 20.00881938085938  C 17.8938953125 22.14649913671875  15.037948519531248 23.324640513671874  12 23.324640513671874  C 8.96205148046875 23.324640513671874  6.1061046875 22.14732900390625  3.957855119140625 20.009649248046873  C 1.8087756835937503 17.870353455078124  0.625 15.026592537109376  0.625 12.000043671874998  C 0.625 8.974281001953125  1.8088193808593749 6.1297339140625  3.9570689492187503 3.991224291015625  C 6.105318517578125 1.8535445351562503  8.96126528515625 0.6762330253906252  11.999213830078125 0.6762330253906252  C 15.037162375000001 0.6762330253906252  17.893109142578126 1.8535445351562503  20.04052884375 3.991224291015625  C 22.190394449218747 6.1297338886718755  23.373383962890628 8.974281001953125  23.373383962890628 11.9992138046875  C 23.374213830078126 15.025762644531248  22.19039444921875 17.8703534296875  20.040528843750003 20.00881938085938  Z M 18.894839402343752 5.143290537109374  C 17.05455584765625 3.3103010234375  14.604891808593749 2.3003594863281247  12 2.3003594863281247  C 9.39432199609375 2.3003594863281247  6.94544415234375 3.30947115625  5.10433073046875 5.1425043671875  C 3.264003478515625 6.973877843749999  2.25 9.4097399453125  2.25 12  C 2.25 14.590260054687498  3.2631736367187507 17.02612215625  5.1035008632812495 18.856665765625  C 6.94461428515625 20.689655279296876  9.39349212890625 21.698810646484375  11.9991701328125 21.698810646484375  C 14.60406194140625 21.698810646484375  17.053725980468748 20.6896989765625  18.894839402343752 18.856665765625  C 20.735166654296876 17.024462421875  21.7491701328125 14.5894301875  21.748340265625004 11.9991701328125  C 21.748340265625004 9.408910078125  20.735166628906253 6.973877843749999  18.894839402343752 5.143290537109374  Z M 18.50008734375 12  C 18.50008734375 11.551481667968751  18.13682636328125 11.187521835937499  17.6875218359375 11.187521835937499  L 12.812521835937499 11.187521835937499  L 12.812521835937499 6.312521835937501  C 12.812521835937499 5.86400350390625  12.448518332031249 5.5  12 5.5  C 11.551481667968751 5.5  11.187478164062501 5.86400350390625  11.187478164062501 6.312521835937501  L 11.187478164062501 11.187521835937499  L 6.312521835937501 11.187521835937499  C 5.86400350390625 11.187521835937499  5.5 11.55152533984375  5.5 12.000043671874998  C 5.5 12.448562003906249  5.86400350390625 12.812565507812499  6.312521835937501 12.812565507812499  L 11.187521835937499 12.812565507812499  L 11.187521835937499 17.6875655078125  C 11.187521835937499 18.13687003515625  11.55152533984375 18.50008734375  12.000043671874998 18.50008734375  C 12.448562003906249 18.50008734375  12.812565507812499 18.136913707031248  12.812565507812499 17.6875655078125  L 12.812565507812499 12.812521835937499  L 17.6875655078125 12.812521835937499  C 18.13687003515625 12.812521835937499  18.50008734375 12.448518332031249  18.50008734375 12  Z " fill-rule="nonzero" fill="#000000" stroke="none" transform="matrix(1 0 0 1 2430 1423 )" />
  </g>
</svg>