<?xml version="1.0" encoding="utf-8"?>
<svg version="1.1" xmlns:xlink="http://www.w3.org/1999/xlink" width="24px" height="24px" xmlns="http://www.w3.org/2000/svg">
  <g transform="matrix(1 0 0 1 -2430 -1501 )">
    <path d="M 23.390625 1.078125  C 23.796875 1.255208333333333  24 1.5624999999999991  24 2.000000000000001  L 24 9  C 24 9.270833333333332  23.901041666666664 9.505208333333332  23.703125 9.703125  C 23.505208333333336 9.901041666666668  23.270833333333336 10  23 10  L 16 10  C 15.5625 10  15.255208333333334 9.791666666666668  15.078125 9.375  C 14.901041666666668 8.96875  14.973958333333336 8.609375  15.296875 8.296875  L 17.453125 6.140625  C 15.911458333333336 4.713541666666663  14.09375 3.999999999999999  12 3.999999999999999  C 10.916666666666668 3.999999999999999  9.8828125 4.210937499999999  8.8984375 4.632812499999999  C 7.9140625 5.054687499999999  7.0625 5.625  6.34375 6.343749999999999  C 5.625 7.062500000000001  5.0546875 7.914062499999999  4.6328125 8.8984375  C 4.2109375 9.8828125  4 10.916666666666664  4 12  C 4 13.083333333333332  4.2109375 14.117187499999998  4.6328125 15.101562499999998  C 5.0546875 16.0859375  5.625 16.9375  6.34375 17.65625  C 7.0625 18.375  7.9140625 18.9453125  8.8984375 19.3671875  C 9.8828125 19.7890625  10.916666666666668 20  12 20  C 13.239583333333334 20  14.411458333333334 19.729166666666668  15.515625 19.1875  C 16.619791666666668 18.645833333333332  17.552083333333336 17.880208333333336  18.3125 16.890625  C 18.385416666666668 16.786458333333332  18.505208333333336 16.72395833333333  18.671875 16.703125  C 18.828125 16.703125  18.958333333333336 16.75  19.0625 16.84375  L 21.203125 19  C 21.296875 19.083333333333332  21.346354166666668 19.190104166666668  21.3515625 19.3203125  C 21.356770833333336 19.450520833333332  21.317708333333336 19.567708333333332  21.234375 19.671875  C 20.098958333333336 21.046875  18.723958333333336 22.111979166666668  17.109375 22.8671875  C 15.494791666666668 23.622395833333332  13.791666666666668 24  12 24  C 10.375 24  8.822916666666668 23.682291666666668  7.34375 23.046875  C 5.864583333333334 22.411458333333332  4.588541666666667 21.557291666666668  3.515625 20.484375  C 2.4427083333333335 19.411458333333332  1.588541666666667 18.135416666666668  0.9531250000000001 16.65625  C 0.3177083333333334 15.17708333333333  0 13.624999999999998  0 12  C 0 10.375  0.3177083333333334 8.822916666666668  0.9531250000000001 7.343750000000001  C 1.588541666666667 5.864583333333332  2.4427083333333335 4.588541666666665  3.515625 3.515625  C 4.588541666666667 2.442708333333332  5.864583333333334 1.5885416666666652  7.34375 0.9531249999999991  C 8.822916666666668 0.31770833333333304  10.375 0  12 0  C 13.53125 0  15.013020833333336 0.2890625000000009  16.4453125 0.8671875  C 17.877604166666668 1.4453124999999991  19.151041666666668 2.2604166666666643  20.265625 3.312500000000001  L 22.296875 1.2968750000000009  C 22.598958333333336 0.973958333333333  22.963541666666668 0.9010416666666643  23.390625 1.078125  Z " fill-rule="nonzero" fill="#000000" stroke="none" transform="matrix(1 0 0 1 2430 1501 )" />
  </g>
</svg>