<?xml version="1.0" encoding="utf-8"?>
<svg version="1.1" xmlns:xlink="http://www.w3.org/1999/xlink" width="16px" height="16px" xmlns="http://www.w3.org/2000/svg">
  <g transform="matrix(1 0 0 1 -2001 -1426 )">
    <path d="M 2009 1428  C 2012.36 1428  2015 1430.64  2015 1434  C 2015 1437.36  2012.36 1440  2009 1440  C 2005.64 1440  2003 1437.36  2003 1434  C 2003 1430.64  2005.64 1428  2009 1428  Z " fill-rule="nonzero" fill="#ffffff" stroke="none" />
    <path d="M 2009 1427.5  C 2012.64 1427.5  2015.5 1430.36  2015.5 1434  C 2015.5 1437.64  2012.64 1440.5  2009 1440.5  C 2005.36 1440.5  2002.5 1437.64  2002.5 1434  C 2002.5 1430.36  2005.36 1427.5  2009 1427.5  Z " stroke-width="3" stroke="#797979" fill="none" />
  </g>
</svg>