<?xml version="1.0" encoding="utf-8"?>
<svg version="1.1" xmlns:xlink="http://www.w3.org/1999/xlink" width="15px" height="16px" xmlns="http://www.w3.org/2000/svg">
  <g transform="matrix(1 0 0 1 -1915 -747 )">
    <path d="M 15 12.689655172413794  C 15 12.358620689655172  14.785714285714286 12.137931034482758  14.464285714285715 12.137931034482758  L 12.857142857142856 12.137931034482758  L 12.857142857142856 4.413793103448276  C 12.857142857142856 3.475862068965517  12.160714285714286 2.7586206896551726  11.25 2.7586206896551726  L 3.214285714285714 2.7586206896551726  L 3.214285714285714 0.5517241379310345  C 3.214285714285714 0.22068965517241373  2.9999999999999996 0  2.678571428571429 0  C 2.3571428571428577 0  2.142857142857143 0.22068965517241373  2.142857142857143 0.5517241379310345  L 2.142857142857143 2.7586206896551726  L 0.5357142857142857 2.7586206896551726  C 0.21428571428571422 2.7586206896551726  0 2.9793103448275864  0 3.310344827586207  C 0 3.6413793103448273  0.21428571428571422 3.8620689655172415  0.5357142857142857 3.8620689655172415  L 2.142857142857143 3.8620689655172415  L 2.142857142857143 11.586206896551724  C 2.142857142857143 12.524137931034483  2.8392857142857144 13.241379310344827  3.75 13.241379310344827  L 11.785714285714285 13.241379310344827  L 11.785714285714285 15.448275862068966  C 11.785714285714285 15.779310344827588  11.999999999999998 16  12.321428571428571 16  C 12.642857142857142 16  12.857142857142856 15.779310344827588  12.857142857142856 15.448275862068966  L 12.857142857142856 13.241379310344827  L 14.464285714285715 13.241379310344827  C 14.785714285714286 13.241379310344827  15 13.020689655172415  15 12.689655172413794  Z M 11.785714285714285 12.137931034482758  L 3.75 12.137931034482758  C 3.428571428571429 12.137931034482758  3.214285714285714 11.917241379310346  3.214285714285714 11.586206896551724  L 3.214285714285714 3.8620689655172415  L 11.25 3.8620689655172415  C 11.571428571428571 3.8620689655172415  11.785714285714285 4.082758620689655  11.785714285714285 4.413793103448276  L 11.785714285714285 12.137931034482758  Z " fill-rule="nonzero" fill="#000000" stroke="none" transform="matrix(1 0 0 1 1915 747 )" />
  </g>
</svg>