<?xml version="1.0" encoding="utf-8"?>
<svg version="1.1" xmlns:xlink="http://www.w3.org/1999/xlink" width="24px" height="24px" xmlns="http://www.w3.org/2000/svg">
  <g transform="matrix(1 0 0 1 -1957 -1422 )">
    <path d="M 23.806640625 12  C 23.806640625 18.520693359375002  18.520693359375002 23.806640625  12 23.806640625  C 5.479306640625 23.806640625  0.193359375 18.520693359375002  0.193359375 12  C 0.193359375 5.479306640624999  5.479306640625 0.193359375  12 0.193359375  C 18.520693359375002 0.193359375  23.806640625 5.479306640625  23.806640625 12  Z M 22.330810546875 12  C 22.330810546875 6.294345703125  17.705654296875 1.669189453125  12 1.669189453125  C 6.294345703125 1.669189453125  1.669189453125 6.294345703125  1.669189453125 12  C 1.669189453125 17.705654296875  6.294345703125 22.330810546875  12 22.330810546875  C 17.705654296875 22.330810546875  22.330810546875 17.705654296875  22.330810546875 12  Z M 17.531220703125 12  C 17.531220703125 12.397998046875  17.2086328125 12.720585937500001  16.810634765625 12.720585937500001  L 7.189365234375 12.720585937500001  C 6.791367187500001 12.720585937500001  6.468779296875001 12.397998046875  6.468779296875001 12  C 6.468779296875001 11.602001953125  6.791367187500001 11.2794140625  7.189365234375 11.2794140625  L 16.810634765625 11.2794140625  C 17.2086328125 11.2794140625  17.531220703125 11.602001953124999  17.531220703125 12  Z " fill-rule="nonzero" fill="#000000" stroke="none" transform="matrix(1 0 0 1 1957 1422 )" />
  </g>
</svg>