<?xml version="1.0" encoding="utf-8"?>
<svg version="1.1" xmlns:xlink="http://www.w3.org/1999/xlink" width="80px" height="85px" xmlns="http://www.w3.org/2000/svg">
  <defs>
    <mask fill="white" id="clip5896">
      <path d="M 0 82  L 0 8  C 0 6.320000000000164  1.3200000000001637 5  3 5  L 36.20610687022963 5  L 41.01075268817203 0.7365591397847311  L 45.80080889787632 5  L 77 5  C 78.67999999999984 5  80 6.320000000000164  80 8  L 80 82  C 80 83.67999999999984  78.67999999999984 85  77 85  L 3 85  C 1.3200000000001637 85  0 83.67999999999984  0 82  Z " fill-rule="evenodd" />
    </mask>
  </defs>
  <g transform="matrix(1 0 0 1 -2898 -1255 )">
    <path d="M 0 82  L 0 8  C 0 6.320000000000164  1.3200000000001637 5  3 5  L 36.20610687022963 5  L 41.01075268817203 0.7365591397847311  L 45.80080889787632 5  L 77 5  C 78.67999999999984 5  80 6.320000000000164  80 8  L 80 82  C 80 83.67999999999984  78.67999999999984 85  77 85  L 3 85  C 1.3200000000001637 85  0 83.67999999999984  0 82  Z " fill-rule="nonzero" fill="#ffffff" stroke="none" transform="matrix(1 0 0 1 2898 1255 )" />
    <path d="M 0 82  L 0 8  C 0 6.320000000000164  1.3200000000001637 5  3 5  L 36.20610687022963 5  L 41.01075268817203 0.7365591397847311  L 45.80080889787632 5  L 77 5  C 78.67999999999984 5  80 6.320000000000164  80 8  L 80 82  C 80 83.67999999999984  78.67999999999984 85  77 85  L 3 85  C 1.3200000000001637 85  0 83.67999999999984  0 82  Z " stroke-width="2" stroke="#d7d7d7" fill="none" transform="matrix(1 0 0 1 2898 1255 )" mask="url(#clip5896)" />
  </g>
</svg>