<?xml version="1.0" encoding="utf-8"?>
<svg version="1.1" xmlns:xlink="http://www.w3.org/1999/xlink" width="14px" height="10px" xmlns="http://www.w3.org/2000/svg">
  <g transform="matrix(1 0 0 1 -656 -1651 )">
    <path d="M 9.260416666666668 5.852272727272727  C 9.309027777777779 5.795454545454546  9.333333333333332 5.738636363636363  9.333333333333332 5.681818181818182  C 9.333333333333332 5.615530303030303  9.311458333333334 5.561079545454546  9.267708333333333 5.518465909090908  C 9.223958333333332 5.475852272727273  9.168055555555558 5.454545454545454  9.1 5.454545454545454  L 7.466666666666667 5.454545454545454  L 7.466666666666667 2.954545454545454  C 7.466666666666667 2.892992424242423  7.443576388888889 2.8397253787878785  7.397395833333334 2.7947443181818175  C 7.351215277777779 2.749763257575757  7.296527777777779 2.727272727272727  7.233333333333334 2.727272727272727  L 5.833333333333334 2.727272727272727  C 5.770138888888889 2.727272727272727  5.715451388888889 2.749763257575757  5.669270833333334 2.7947443181818175  C 5.623090277777778 2.8397253787878785  5.6000000000000005 2.892992424242423  5.6000000000000005 2.954545454545454  L 5.6000000000000005 5.454545454545454  L 3.966666666666667 5.454545454545454  C 3.9034722222222222 5.454545454545454  3.8487847222222222 5.477035984848484  3.802604166666667 5.522017045454546  C 3.756423611111112 5.5669981060606055  3.7333333333333334 5.620265151515151  3.7333333333333334 5.681818181818182  C 3.7333333333333334 5.74810606060606  3.7552083333333335 5.802556818181818  3.798958333333333 5.845170454545454  L 6.3656250000000005 8.345170454545453  C 6.409375000000001 8.38778409090909  6.465277777777779 8.40909090909091  6.533333333333333 8.40909090909091  C 6.60138888888889 8.40909090909091  6.657291666666667 8.38778409090909  6.701041666666667 8.345170454545453  L 9.260416666666668 5.852272727272727  Z M 13.391145833333333 5.578835227272727  C 13.797048611111112 6.0736268939393945  14.000000000000004 6.638257575757574  14 7.272727272727273  C 14.000000000000004 8.025568181818182  13.726562500000002 8.668323863636363  13.1796875 9.200994318181818  C 12.632812500000002 9.733664772727273  11.972916666666668 10  11.200000000000001 10  L 3.2666666666666666 10  C 2.367361111111111 10  1.598090277777778 9.688683712121213  0.9588541666666668 9.066051136363637  C 0.31961805555555556 8.443418560606059  0 7.694128787878789  0 6.818181818181818  C 0 6.202651515151514  0.1701388888888889 5.634469696969697  0.5104166666666667 5.113636363636363  C 0.8506944444444444 4.5928030303030285  1.307638888888889 4.2021780303030285  1.8812499999999999 3.9417613636363633  C 1.8715277777777777 3.799715909090909  1.8666666666666667 3.697916666666666  1.8666666666666667 3.6363636363636367  C 1.8666666666666667 2.632575757575757  2.2312499999999997 1.7755681818181823  2.9604166666666667 1.0653409090909094  C 3.689583333333333 0.35511363636363646  4.5694444444444455 0  5.6000000000000005 0  C 6.358333333333334 0  7.052256944444446 0.2059659090909094  7.681770833333333 0.6178977272727271  C 8.311284722222222 1.0298295454545459  8.769444444444444 1.5767045454545459  9.05625 2.258522727272727  C 9.40138888888889 1.9649621212121204  9.804861111111112 1.8181818181818177  10.266666666666666 1.8181818181818177  C 10.781944444444445 1.8181818181818177  11.221874999999999 1.9957386363636365  11.586458333333333 2.350852272727273  C 11.951041666666667 2.705965909090909  12.133333333333333 3.1344696969696964  12.133333333333333 3.6363636363636367  C 12.133333333333333 3.99621212121212  12.033680555555556 4.322916666666666  11.834375 4.616477272727273  C 12.466319444444446 4.763257575757576  12.985243055555557 5.08404356060606  13.391145833333333 5.578835227272727  Z " fill-rule="nonzero" fill="#999999" stroke="none" transform="matrix(1 0 0 1 656 1651 )" />
  </g>
</svg>