<?xml version="1.0" encoding="utf-8"?>
<svg version="1.1" xmlns:xlink="http://www.w3.org/1999/xlink" width="40px" height="40px" xmlns="http://www.w3.org/2000/svg">
  <g transform="matrix(1 0 0 1 -1967 -995 )">
    <path d="M 1987 995  C 1998.2 995  2007 1003.8  2007 1015  C 2007 1026.2  1998.2 1035  1987 1035  C 1975.8 1035  1967 1026.2  1967 1015  C 1967 1003.8  1975.8 995  1987 995  Z " fill-rule="nonzero" fill="#ffffff" stroke="none" />
    <path d="M 1987 995.5  C 1997.92 995.5  2006.5 1004.08  2006.5 1015  C 2006.5 1025.92  1997.92 1034.5  1987 1034.5  C 1976.08 1034.5  1967.5 1025.92  1967.5 1015  C 1967.5 1004.08  1976.08 995.5  1987 995.5  Z " stroke-width="1" stroke="#797979" fill="none" />
  </g>
</svg>