<?xml version="1.0" encoding="utf-8"?>
<svg version="1.1" xmlns:xlink="http://www.w3.org/1999/xlink" width="702px" height="336px" xmlns="http://www.w3.org/2000/svg">
  <defs>
    <mask fill="white" id="clip5969">
      <path d="M 11 317.5544041450778  L 11 173.03715670436185  L 0.05169628432668105 162.69789983844908  L 11 152.843295638126  L 11 8.44559585492226  C 11 3.716062176165906  12.343677130044853 0  14.053811659192432 0  L 688.9461883408076 0  C 690.6563228699551 0  692 3.716062176165906  692 8.44559585492226  L 692 317.5544041450778  C 692 322.2839378238341  690.6563228699551 326  688.9461883408076 326  L 14.053811659192432 326  C 12.343677130044853 326  11 322.2839378238341  11 317.5544041450778  Z " fill-rule="evenodd" />
    </mask>
    <filter x="1784px" y="895px" width="702px" height="336px" filterUnits="userSpaceOnUse" id="filter5970">
      <feOffset dx="0" dy="0" in="SourceAlpha" result="shadowOffsetInner" />
      <feGaussianBlur stdDeviation="2.5" in="shadowOffsetInner" result="shadowGaussian" />
      <feComposite in2="shadowGaussian" operator="atop" in="SourceAlpha" result="shadowComposite" />
      <feColorMatrix type="matrix" values="0 0 0 0 0  0 0 0 0 0  0 0 0 0 0  0 0 0 0.34901960784313724 0  " in="shadowComposite" />
    </filter>
    <g id="widget5971">
      <path d="M 11 317.5544041450778  L 11 173.03715670436185  L 0.05169628432668105 162.69789983844908  L 11 152.843295638126  L 11 8.44559585492226  C 11 3.716062176165906  12.343677130044853 0  14.053811659192432 0  L 688.9461883408076 0  C 690.6563228699551 0  692 3.716062176165906  692 8.44559585492226  L 692 317.5544041450778  C 692 322.2839378238341  690.6563228699551 326  688.9461883408076 326  L 14.053811659192432 326  C 12.343677130044853 326  11 322.2839378238341  11 317.5544041450778  Z " fill-rule="nonzero" fill="#ffffff" stroke="none" transform="matrix(1 0 0 1 1789 900 )" />
      <path d="M 11 317.5544041450778  L 11 173.03715670436185  L 0.05169628432668105 162.69789983844908  L 11 152.843295638126  L 11 8.44559585492226  C 11 3.716062176165906  12.343677130044853 0  14.053811659192432 0  L 688.9461883408076 0  C 690.6563228699551 0  692 3.716062176165906  692 8.44559585492226  L 692 317.5544041450778  C 692 322.2839378238341  690.6563228699551 326  688.9461883408076 326  L 14.053811659192432 326  C 12.343677130044853 326  11 322.2839378238341  11 317.5544041450778  Z " stroke-width="2" stroke="#d7d7d7" fill="none" transform="matrix(1 0 0 1 1789 900 )" mask="url(#clip5969)" />
    </g>
  </defs>
  <g transform="matrix(1 0 0 1 -1784 -895 )">
    <use xlink:href="#widget5971" filter="url(#filter5970)" />
    <use xlink:href="#widget5971" />
  </g>
</svg>