<?xml version="1.0" encoding="utf-8"?>
<svg version="1.1" xmlns:xlink="http://www.w3.org/1999/xlink" width="486px" height="336px" xmlns="http://www.w3.org/2000/svg">
  <defs>
    <mask fill="white" id="clip5975">
      <path d="M 8 317.5544041450778  L 8 173.03715670436185  L 0.035559871877890434 162.69789983844908  L 8 152.843295638126  L 8 8.44559585492226  C 7.566473988439306 3.716062176165906  8.49073744783432 0  9.667072759791326 0  L 473.899401228648 0  C 475.07573654060496 0  476 3.716062176165906  476 8.44559585492226  L 476 317.5544041450778  C 476 322.2839378238341  475.07573654060496 326  473.899401228648 326  L 9.667072759791326 326  C 8.49073744783432 326  7.566473988439306 322.2839378238341  8 317.5544041450778  Z " fill-rule="evenodd" />
    </mask>
    <filter x="1784px" y="1270px" width="486px" height="336px" filterUnits="userSpaceOnUse" id="filter5976">
      <feOffset dx="0" dy="0" in="SourceAlpha" result="shadowOffsetInner" />
      <feGaussianBlur stdDeviation="2.5" in="shadowOffsetInner" result="shadowGaussian" />
      <feComposite in2="shadowGaussian" operator="atop" in="SourceAlpha" result="shadowComposite" />
      <feColorMatrix type="matrix" values="0 0 0 0 0  0 0 0 0 0  0 0 0 0 0  0 0 0 0.34901960784313724 0  " in="shadowComposite" />
    </filter>
    <g id="widget5977">
      <path d="M 8 317.5544041450778  L 8 173.03715670436185  L 0.035559871877890434 162.69789983844908  L 8 152.843295638126  L 8 8.44559585492226  C 7.566473988439306 3.716062176165906  8.49073744783432 0  9.667072759791326 0  L 473.899401228648 0  C 475.07573654060496 0  476 3.716062176165906  476 8.44559585492226  L 476 317.5544041450778  C 476 322.2839378238341  475.07573654060496 326  473.899401228648 326  L 9.667072759791326 326  C 8.49073744783432 326  7.566473988439306 322.2839378238341  8 317.5544041450778  Z " fill-rule="nonzero" fill="#ffffff" stroke="none" transform="matrix(1 0 0 1 1789 1275 )" />
      <path d="M 8 317.5544041450778  L 8 173.03715670436185  L 0.035559871877890434 162.69789983844908  L 8 152.843295638126  L 8 8.44559585492226  C 7.566473988439306 3.716062176165906  8.49073744783432 0  9.667072759791326 0  L 473.899401228648 0  C 475.07573654060496 0  476 3.716062176165906  476 8.44559585492226  L 476 317.5544041450778  C 476 322.2839378238341  475.07573654060496 326  473.899401228648 326  L 9.667072759791326 326  C 8.49073744783432 326  7.566473988439306 322.2839378238341  8 317.5544041450778  Z " stroke-width="2" stroke="#d7d7d7" fill="none" transform="matrix(1 0 0 1 1789 1275 )" mask="url(#clip5975)" />
    </g>
  </defs>
  <g transform="matrix(1 0 0 1 -1784 -1270 )">
    <use xlink:href="#widget5977" filter="url(#filter5976)" />
    <use xlink:href="#widget5977" />
  </g>
</svg>