<?xml version="1.0" encoding="utf-8"?>
<svg version="1.1" xmlns:xlink="http://www.w3.org/1999/xlink" width="483px" height="203px" xmlns="http://www.w3.org/2000/svg">
  <defs>
    <mask fill="white" id="clip5972">
      <path d="M 8 188  L 8 103.68421052631585  L 0.4752186588921177 96.98250728862968  L 8 90.0877192982457  L 8 5  C 8 2.2000000000000455  8.917488789237723 0  10.085201793722263 0  L 470.91479820627774 0  C 472.0825112107623 0  473 2.2000000000000455  473 5  L 473 188  C 473 190.79999999999995  472.0825112107623 193  470.91479820627774 193  L 10.085201793722263 193  C 8.917488789237723 193  8 190.79999999999995  8 188  Z " fill-rule="evenodd" />
    </mask>
    <filter x="1787px" y="657px" width="483px" height="203px" filterUnits="userSpaceOnUse" id="filter5973">
      <feOffset dx="0" dy="0" in="SourceAlpha" result="shadowOffsetInner" />
      <feGaussianBlur stdDeviation="2.5" in="shadowOffsetInner" result="shadowGaussian" />
      <feComposite in2="shadowGaussian" operator="atop" in="SourceAlpha" result="shadowComposite" />
      <feColorMatrix type="matrix" values="0 0 0 0 0  0 0 0 0 0  0 0 0 0 0  0 0 0 0.34901960784313724 0  " in="shadowComposite" />
    </filter>
    <g id="widget5974">
      <path d="M 8 188  L 8 103.68421052631585  L 0.4752186588921177 96.98250728862968  L 8 90.0877192982457  L 8 5  C 8 2.2000000000000455  8.917488789237723 0  10.085201793722263 0  L 470.91479820627774 0  C 472.0825112107623 0  473 2.2000000000000455  473 5  L 473 188  C 473 190.79999999999995  472.0825112107623 193  470.91479820627774 193  L 10.085201793722263 193  C 8.917488789237723 193  8 190.79999999999995  8 188  Z " fill-rule="nonzero" fill="#ffffff" stroke="none" transform="matrix(1 0 0 1 1792 662 )" />
      <path d="M 8 188  L 8 103.68421052631585  L 0.4752186588921177 96.98250728862968  L 8 90.0877192982457  L 8 5  C 8 2.2000000000000455  8.917488789237723 0  10.085201793722263 0  L 470.91479820627774 0  C 472.0825112107623 0  473 2.2000000000000455  473 5  L 473 188  C 473 190.79999999999995  472.0825112107623 193  470.91479820627774 193  L 10.085201793722263 193  C 8.917488789237723 193  8 190.79999999999995  8 188  Z " stroke-width="2" stroke="#d7d7d7" fill="none" transform="matrix(1 0 0 1 1792 662 )" mask="url(#clip5972)" />
    </g>
  </defs>
  <g transform="matrix(1 0 0 1 -1787 -657 )">
    <use xlink:href="#widget5974" filter="url(#filter5973)" />
    <use xlink:href="#widget5974" />
  </g>
</svg>