<?xml version="1.0" encoding="utf-8"?>
<svg version="1.1" xmlns:xlink="http://www.w3.org/1999/xlink" width="809px" height="146px" xmlns="http://www.w3.org/2000/svg">
  <defs>
    <mask fill="white" id="clip5978">
      <path d="M 13 132.47668393782388  L 13 72.18728009752519  L 0.05968978493788752 67.87397048475177  L 13 63.7628472600771  L 13 3.5233160621761574  C 12.70086705202312 1.5502590673575558  14.252309287436182 0  16.22687213250687 0  L 795.4739949195163 0  C 797.4485577645869 0  799 1.5502590673575558  799 3.5233160621761574  L 799 132.47668393782388  C 799 134.44974093264244  797.4485577645869 136  795.4739949195163 136  L 16.22687213250687 136  C 14.252309287436182 136  12.70086705202312 134.44974093264244  13 132.47668393782388  Z " fill-rule="evenodd" />
    </mask>
    <filter x="1785px" y="1661px" width="809px" height="146px" filterUnits="userSpaceOnUse" id="filter5979">
      <feOffset dx="0" dy="0" in="SourceAlpha" result="shadowOffsetInner" />
      <feGaussianBlur stdDeviation="2.5" in="shadowOffsetInner" result="shadowGaussian" />
      <feComposite in2="shadowGaussian" operator="atop" in="SourceAlpha" result="shadowComposite" />
      <feColorMatrix type="matrix" values="0 0 0 0 0  0 0 0 0 0  0 0 0 0 0  0 0 0 0.34901960784313724 0  " in="shadowComposite" />
    </filter>
    <g id="widget5980">
      <path d="M 13 132.47668393782388  L 13 72.18728009752519  L 0.05968978493788752 67.87397048475177  L 13 63.7628472600771  L 13 3.5233160621761574  C 12.70086705202312 1.5502590673575558  14.252309287436182 0  16.22687213250687 0  L 795.4739949195163 0  C 797.4485577645869 0  799 1.5502590673575558  799 3.5233160621761574  L 799 132.47668393782388  C 799 134.44974093264244  797.4485577645869 136  795.4739949195163 136  L 16.22687213250687 136  C 14.252309287436182 136  12.70086705202312 134.44974093264244  13 132.47668393782388  Z " fill-rule="nonzero" fill="#ffffff" stroke="none" transform="matrix(1 0 0 1 1790 1666 )" />
      <path d="M 13 132.47668393782388  L 13 72.18728009752519  L 0.05968978493788752 67.87397048475177  L 13 63.7628472600771  L 13 3.5233160621761574  C 12.70086705202312 1.5502590673575558  14.252309287436182 0  16.22687213250687 0  L 795.4739949195163 0  C 797.4485577645869 0  799 1.5502590673575558  799 3.5233160621761574  L 799 132.47668393782388  C 799 134.44974093264244  797.4485577645869 136  795.4739949195163 136  L 16.22687213250687 136  C 14.252309287436182 136  12.70086705202312 134.44974093264244  13 132.47668393782388  Z " stroke-width="2" stroke="#d7d7d7" fill="none" transform="matrix(1 0 0 1 1790 1666 )" mask="url(#clip5978)" />
    </g>
  </defs>
  <g transform="matrix(1 0 0 1 -1785 -1661 )">
    <use xlink:href="#widget5980" filter="url(#filter5979)" />
    <use xlink:href="#widget5980" />
  </g>
</svg>