<?xml version="1.0" encoding="utf-8"?>
<svg version="1.1" xmlns:xlink="http://www.w3.org/1999/xlink" width="15px" height="9px" xmlns="http://www.w3.org/2000/svg">
  <g transform="matrix(1 0 0 1 -1988 -1729 )">
    <path d="M 14.770047169811317 1.2585937500000004  C 14.770047169811317 1.8878906249999996  14.25707547169811 2.39765625  13.623820754716983 2.39765625  L 1.3761792452830182 2.39765625  C 0.7429245283018868 2.39765625  0.22995283018867924 1.8878906249999996  0.22995283018867924 1.2585937500000004  C 0.22995283018867924 0.6292968750000012  0.7429245283018868 0.1195312500000012  1.3761792452830182 0.1195312500000012  L 13.623820754716979 0.1195312500000012  C 14.25707547169811 0.1195312500000012  14.770047169811317 0.6292968750000012  14.770047169811317 1.2585937500000004  Z M 14.770047169811317 7.706250000000002  C 14.770047169811317 8.335546875  14.25707547169811 8.8453125  13.623820754716983 8.8453125  L 1.3761792452830182 8.8453125  C 0.7429245283018868 8.8453125  0.22995283018867924 8.335546875  0.22995283018867924 7.706250000000002  C 0.22995283018867924 7.076953125000003  0.7429245283018868 6.567187500000003  1.3761792452830182 6.567187500000003  L 13.623820754716979 6.567187500000003  C 14.25707547169811 6.567187500000003  14.770047169811317 7.076953125000003  14.770047169811317 7.706250000000002  Z " fill-rule="nonzero" fill="#d7d7d7" stroke="none" transform="matrix(1 0 0 1 1988 1729 )" />
  </g>
</svg>