<?xml version="1.0" encoding="utf-8"?>
<svg version="1.1" xmlns:xlink="http://www.w3.org/1999/xlink" width="30px" height="30px" xmlns="http://www.w3.org/2000/svg">
  <g transform="matrix(1 0 0 1 -1981 -1719 )">
    <path d="M 29.84344660194175 15.131067961165048  C 29.84344660194175 23.31917475728155  23.184466019417474 29.974514563106794  15 29.974514563106794  C 6.815533980582524 29.974514563106794  0.1529126213592229 23.315533980582526  0.1529126213592229 15.12742718446602  C 0.1529126213592229 6.939320388349515  6.815533980582524 0.2839805825242723  15 0.2839805825242723  C 23.184466019417474 0.2839805825242723  29.84344660194175 6.942961165048545  29.84344660194175 15.131067961165048  Z M 27.48422330097087 15.131067961165044  C 27.48422330097087 8.24635922330097  21.884708737864074 2.643203883495142  15 2.643203883495142  C 8.115291262135923 2.643203883495142  2.515776699029127 8.24271844660194  2.515776699029127 15.127427184466017  C 2.515776699029127 22.012135922330096  8.115291262135923 27.61529126213592  15 27.61529126213592  C 21.884708737864077 27.61529126213592  27.48422330097087 22.015776699029118  27.48422330097087 15.131067961165044  Z " fill-rule="nonzero" fill="#d7d7d7" stroke="none" transform="matrix(1 0 0 1 1981 1719 )" />
  </g>
</svg>