<?xml version="1.0" encoding="utf-8"?>
<svg version="1.1" xmlns:xlink="http://www.w3.org/1999/xlink" width="1005px" height="146px" xmlns="http://www.w3.org/2000/svg">
  <defs>
    <mask fill="white" id="clip5983">
      <path d="M 16 132.47668393782388  L 16 72.18728009752519  L 0.07433208512290122 67.87397048475177  L 16 63.7628472600771  L 16 3.5233160621761574  C 15.816473988439306 1.5502590673575558  17.74849529536796 0  20.20743150418565 0  L 990.6090424842537 0  C 993.0679786930713 0  995 1.5502590673575558  995 3.5233160621761574  L 995 132.47668393782388  C 995 134.44974093264244  993.0679786930713 136  990.6090424842537 136  L 20.20743150418565 136  C 17.74849529536796 136  15.816473988439306 134.44974093264244  16 132.47668393782388  Z " fill-rule="evenodd" />
    </mask>
    <filter x="1784px" y="1915px" width="1005px" height="146px" filterUnits="userSpaceOnUse" id="filter5984">
      <feOffset dx="0" dy="0" in="SourceAlpha" result="shadowOffsetInner" />
      <feGaussianBlur stdDeviation="2.5" in="shadowOffsetInner" result="shadowGaussian" />
      <feComposite in2="shadowGaussian" operator="atop" in="SourceAlpha" result="shadowComposite" />
      <feColorMatrix type="matrix" values="0 0 0 0 0  0 0 0 0 0  0 0 0 0 0  0 0 0 0.34901960784313724 0  " in="shadowComposite" />
    </filter>
    <g id="widget5985">
      <path d="M 16 132.47668393782388  L 16 72.18728009752519  L 0.07433208512290122 67.87397048475177  L 16 63.7628472600771  L 16 3.5233160621761574  C 15.816473988439306 1.5502590673575558  17.74849529536796 0  20.20743150418565 0  L 990.6090424842537 0  C 993.0679786930713 0  995 1.5502590673575558  995 3.5233160621761574  L 995 132.47668393782388  C 995 134.44974093264244  993.0679786930713 136  990.6090424842537 136  L 20.20743150418565 136  C 17.74849529536796 136  15.816473988439306 134.44974093264244  16 132.47668393782388  Z " fill-rule="nonzero" fill="#ffffff" stroke="none" transform="matrix(1 0 0 1 1789 1920 )" />
      <path d="M 16 132.47668393782388  L 16 72.18728009752519  L 0.07433208512290122 67.87397048475177  L 16 63.7628472600771  L 16 3.5233160621761574  C 15.816473988439306 1.5502590673575558  17.74849529536796 0  20.20743150418565 0  L 990.6090424842537 0  C 993.0679786930713 0  995 1.5502590673575558  995 3.5233160621761574  L 995 132.47668393782388  C 995 134.44974093264244  993.0679786930713 136  990.6090424842537 136  L 20.20743150418565 136  C 17.74849529536796 136  15.816473988439306 134.44974093264244  16 132.47668393782388  Z " stroke-width="2" stroke="#d7d7d7" fill="none" transform="matrix(1 0 0 1 1789 1920 )" mask="url(#clip5983)" />
    </g>
  </defs>
  <g transform="matrix(1 0 0 1 -1784 -1915 )">
    <use xlink:href="#widget5985" filter="url(#filter5984)" />
    <use xlink:href="#widget5985" />
  </g>
</svg>