<?xml version="1.0" encoding="utf-8"?>
<svg version="1.1" xmlns:xlink="http://www.w3.org/1999/xlink" width="30px" height="30px" xmlns="http://www.w3.org/2000/svg">
  <g transform="matrix(1 0 0 1 -2181 -1723 )">
    <path d="M 25.542651455965913 25.50107436301492  C 22.72800958806818 28.303976140802554  18.983324107776987 29.848741932262072  15 29.848741932262072  C 11.016675892223013 29.848741932262072  7.271990411931818 28.305064253373576  4.455229614257813 25.502162475585937  C 1.6373807040127843 22.697141768022014  0.08522727272727273 18.96843427068537  0.08522727272727273 15.000057262073863  C 0.08522727272727273 11.032711103959516  1.6374379993785508 7.3029727894176135  4.454198797052558 4.498982899058949  C 7.2709595947265635 1.6960811212713067  11.015645041725852 0.15240344238281284  14.998969182794745 0.15240344238281284  C 18.98229332386364 0.15240344238281284  22.726978770862928 1.6960811212713074  25.542651455965906 4.498982899058949  C 28.36153118341619 7.302972756125711  29.91265379749645 11.032711103959516  29.91265379749645 14.998969149502843  C 29.913741910067476 18.96734612482244  28.361531183416197 22.697141734730113  25.542651455965913 25.50107436301492  Z M 24.040436279296877 6.009559270685368  C 21.627477072975854 3.606163929332386  18.41550499378551 2.281939885919744  15 2.281939885919744  C 11.58346415571733 2.281939885919744  8.372522927024148 3.6050758167613632  5.958475608132102 6.008528453480113  C 3.545459106445313 8.409804865056817  2.215909090909091 11.603679998224433  2.215909090909091 15  C 2.215909090909091 18.396320001775567  3.5443710271661937 21.590195134943183  5.957387495561079 23.990383433948864  C 8.371434814453126 26.393778775301847  11.582376043146306 27.716972001509234  14.998911887428978 27.716972001509234  C 18.41441688121449 27.716972001509234  21.62638896040483 26.39383607066761  24.040436279296877 23.990383433948864  C 26.453452780983667 21.588018909801136  27.783002796519888 18.395231889204545  27.781914683948866 14.998911887428978  C 27.781914683948866 11.602591885653409  26.453452747691763 8.409804865056817  24.040436279296877 6.009559270685368  Z M 23.522841796875 15  C 23.522841796875 14.411907781427558  23.046538063742897 13.934687721946021  22.457414994673293 13.934687721946021  L 16.06536954012784 13.934687721946021  L 16.06536954012784 7.542642267400567  C 16.06536954012784 6.954550048828125  15.588092218572443 6.4772727272727275  15 6.4772727272727275  C 14.411907781427558 6.4772727272727275  13.93463045987216 6.954550048828125  13.93463045987216 7.542642267400567  L 13.93463045987216 13.934687721946021  L 7.542642267400567 13.934687721946021  C 6.954550048828125 13.934687721946021  6.4772727272727275 14.411965043501421  6.4772727272727275 15.000057262073863  C 6.4772727272727275 15.588149480646306  6.954550048828125 16.065426802201703  7.542642267400567 16.065426802201703  L 13.934687721946021 16.065426802201703  L 13.934687721946021 22.45747225674716  C 13.934687721946021 23.04659532581676  14.411965043501421 23.522841796875  15.000057262073863 23.522841796875  C 15.588149480646306 23.522841796875  16.065426802201703 23.046652587890623  16.065426802201703 22.45747225674716  L 16.065426802201703 16.06536954012784  L 22.45747225674716 16.06536954012784  C 23.04659532581676 16.06536954012784  23.522841796875 15.588092218572443  23.522841796875 15  Z " fill-rule="nonzero" fill="#d7d7d7" stroke="none" transform="matrix(1 0 0 1 2181 1723 )" />
  </g>
</svg>