<?xml version="1.0" encoding="utf-8"?>
<svg version="1.1" xmlns:xlink="http://www.w3.org/1999/xlink" width="16px" height="16px" xmlns="http://www.w3.org/2000/svg">
  <g transform="matrix(1 0 0 1 -1201 -1097 )">
    <path d="M 8.862502127659575 9.2072  C 8.866859574468085 9.557066666666666  9.145736170212766 9.830133333333334  9.498689361702128 9.830133333333334  L 11.851710638297872 9.830133333333334  C 12.209021276595744 9.830133333333334  12.487897872340426 9.557066666666666  12.487897872340426 9.2072  C 12.487897872340426 8.857333333333335  12.209021276595744 8.584266666666666  11.851710638297872 8.584266666666666  L 9.498689361702128 8.584266666666666  C 9.141378723404255 8.584266666666666  8.862502127659575 8.857333333333335  8.862502127659575 9.2072  Z M 8.862502127659575 11.690399999999999  C 8.866859574468085 12.040266666666666  9.145736170212766 12.313333333333333  9.498689361702128 12.313333333333333  L 11.851710638297872 12.313333333333333  C 12.209021276595744 12.313333333333333  12.487897872340426 12.040266666666666  12.487897872340426 11.690399999999999  C 12.487897872340426 11.340533333333333  12.209021276595744 11.067466666666666  11.851710638297872 11.067466666666666  L 9.498689361702128 11.067466666666666  C 9.141378723404255 11.067466666666666  8.862502127659575 11.340533333333333  8.862502127659575 11.690399999999999  Z M 15.969497872340424 3.8312000000000004  C 15.978212765957444 2.465866666666667  14.836561702127657 1.348  13.442178723404256 1.347999999999999  L 11.773276595744681 1.347999999999999  L 11.773276595744681 0.7250666666666667  C 11.773276595744681 0.37520000000000014  11.4944 0.10213333333333334  11.13708936170213 0.10213333333333334  C 10.779778723404258 0.10213333333333334  10.500902127659575 0.37520000000000014  10.500902127659575 0.7250666666666667  L 10.500902127659575 1.348  L 5.428834042553191 1.348  L 5.428834042553191 0.7250666666666667  C 5.428834042553191 0.37520000000000014  5.149957446808511 0.10213333333333334  4.7926468085106375 0.10213333333333334  C 4.435336170212765 0.10213333333333334  4.156459574468085 0.37520000000000014  4.156459574468085 0.7250666666666667  L 4.156459574468085 1.348  L 2.701072340425531 1.348  C 1.3066893617021265 1.348  0.16503829787233917 2.465866666666667  0.16503829787233917 3.8312000000000004  L 0.16503829787233917 13.490933333333333  C 0.16503829787233917 14.856266666666665  1.3066893617021265 15.974133333333333  2.701072340425531 16  L 13.43346382978723 16  C 14.827846808510637 15.974133333333333  15.969497872340424 14.856266666666665  15.969497872340424 13.49093333333333  L 15.969497872340424 3.8312000000000004  Z M 14.710195744680851 6.3144  L 14.710195744680853 13.490933333333333  C 14.710195744680853 14.1736  14.139370212765959 14.732533333333334  13.442178723404256 14.732533333333334  L 2.705429787234042 14.732533333333334  C 2.00823829787234 14.732533333333334  1.4374127659574463 14.1736  1.4374127659574463 13.490933333333333  L 1.4374127659574463 6.3144  L 14.710195744680851 6.3144  Z M 14.718910638297872 5.072800000000001  L 14.710195744680853 5  L 1.437412765957447 5  L 1.437412765957447 3.8312000000000004  C 1.437412765957447 3.148533333333333  2.0082382978723405 2.5895999999999995  2.7054297872340434 2.5895999999999995  L 4.160817021276596 2.5895999999999995  L 4.160817021276596 3.212533333333333  C 4.160817021276596 3.5624000000000002  4.439693617021276 3.8354666666666666  4.797004255319149 3.8354666666666666  C 5.154314893617022 3.8354666666666666  5.433191489361702 3.5624000000000002  5.433191489361702 3.212533333333333  L 5.433191489361702 2.5895999999999995  L 10.509617021276595 2.5895999999999995  L 10.509617021276595 3.212533333333333  C 10.509617021276595 3.5624000000000002  10.788493617021278 3.8354666666666666  11.145804255319149 3.8354666666666666  C 11.50311489361702 3.8354666666666666  11.781991489361703 3.5624000000000002  11.781991489361703 3.212533333333333  L 11.781991489361703 2.5895999999999995  L 13.450893617021277 2.5895999999999995  C 14.148085106382979 2.5895999999999995  14.718910638297872 3.148533333333333  14.718910638297872 3.8312000000000004  L 14.718910638297872 5.072800000000001  Z M 3.3241872340425536 11.690399999999999  C 3.3241872340425536 12.040266666666666  3.6030638297872337 12.313333333333333  3.960374468085107 12.313333333333333  L 6.313395744680851 12.313333333333333  C 6.670706382978724 12.313333333333333  6.949582978723404 12.040266666666666  6.949582978723404 11.690399999999999  C 6.949582978723404 11.340533333333333  6.670706382978724 11.067466666666666  6.313395744680851 11.067466666666666  L 3.960374468085107 11.067466666666666  C 3.6030638297872337 11.067466666666666  3.3241872340425536 11.340533333333333  3.3241872340425536 11.690399999999999  Z M 3.3241872340425536 9.207199999999998  C 3.3241872340425536 9.557066666666664  3.6030638297872337 9.83013333333333  3.960374468085107 9.83013333333333  L 6.313395744680851 9.83013333333333  C 6.670706382978724 9.83013333333333  6.949582978723404 9.557066666666664  6.949582978723404 9.207199999999998  C 6.949582978723404 8.857333333333331  6.670706382978724 8.584266666666664  6.313395744680851 8.584266666666664  L 3.960374468085107 8.584266666666664  C 3.6030638297872337 8.584266666666664  3.3241872340425536 8.857333333333331  3.3241872340425536 9.207199999999998  Z " fill-rule="nonzero" fill="#999999" stroke="none" transform="matrix(1 0 0 1 1201 1097 )" />
  </g>
</svg>