<?xml version="1.0" encoding="utf-8"?>
<svg version="1.1" xmlns:xlink="http://www.w3.org/1999/xlink" width="18px" height="20px" xmlns="http://www.w3.org/2000/svg">
  <g transform="matrix(1 0 0 1 -2028 -3326 )">
    <path d="M 17.64406847368421 12.065677151162792  C 17.88426973026316 11.061242984496127  17.94215952631579 10.036931298449614  17.816080499999998 9.021299069767442  C 17.694302763157893 8.040055329457363  17.404478861842104 7.091766395348838  16.954698375 6.202800000000001  C 16.05115178289474 4.4170595930232555  14.541873434210526 2.9792918410852716  12.704848815789475 2.1543752131782945  C 12.308459526315792 1.9763688178294574  11.840171664473687 2.147594379844961  11.658886203947368 2.536833217054264  C 11.477620480263157 2.926033294573643  11.651980460526318 3.3858702131782947  12.048369749999999 3.563895968992248  C 15.191722973684211 4.9754122286821705  16.89880134868421 8.401899593023256  16.107423671052633 11.711388643410851  C 15.500804032894736 14.247747189922482  13.557391618421052 16.233115135658917  11.051082730263158 16.950410368217057  L 11.045893559210526 15.578300387596897  L 7.160824736842105 17.800202945736434  L 11.062605434210525 19.993548527131786  L 11.057159763157895 18.551053565891472  C 12.54528682894737 18.20393335271318  13.915246875 17.486521899224808  15.04567651973684 16.457269903100777  C 16.340364039473684 15.278432868217056  17.23887929605263 13.759857034883723  17.64406847368421 12.065677151162792  Z M 10.854940065789476 2.34861684108527  L 6.95327775 0.15501937984496122  L 6.958644493421052 1.5975337209302327  C 5.4703990460526315 1.9446539341085272  4.100340335526315 2.6621041472868217  2.969831802631578 3.691453003875969  C 1.6750850921052627 4.870348158914728  0.7765895526315783 6.388962751937984  0.37143984868420976 8.08323949612403  C 0.2137917434210518 8.742820193798448  0.13471119078947283 9.410905988372093  0.13471119078947283 10.079573003875968  C 0.13471119078947283 10.428301240310077  0.1562373552631571 10.777184457364342  0.19928970394736767 11.125040872093024  C 0.3207122763157888 12.105490290697674  0.6098850789473677 13.053120523255814  1.058738230263157 13.941583178294572  C 1.9602920131578936 15.726083662790698  3.4668869999999994 17.16387079457364  5.300912546052632 17.990046705426355  C 5.697065072368421 18.1685180620155  6.165589697368421 17.997834961240308  6.3473289671052635 17.608828643410853  C 6.529107690789474 17.21974480620155  6.35524097368421 16.75979164728682  5.959068710526316 16.58132027131783  C 2.8216346842105264 15.167982868217052  1.1180486250000004 11.742967906976743  1.9081043684210528 8.437450503875967  C 2.5146648157894735 5.900956337209301  4.458136421052632 3.9154915310077505  6.964603164473685 3.198196298449611  L 6.969733144736844 4.570325639534882  L 10.854940065789476 2.34861684108527  Z " fill-rule="nonzero" fill="#999999" stroke="none" transform="matrix(1 0 0 1 2028 3326 )" />
  </g>
</svg>