<?xml version="1.0" encoding="utf-8"?>
<svg version="1.1" xmlns:xlink="http://www.w3.org/1999/xlink" width="21px" height="20px" preserveAspectRatio="xMinYMid meet" viewBox="1542 575  21 18" xmlns="http://www.w3.org/2000/svg">
  <path d="M 1551 584  L 1599 584  A 5 5 0 0 1 1604 589 L 1604 660  A 5 5 0 0 0 1609 665 L 1658 665  " stroke-width="2" stroke="#0066ff" fill="none" />
  <path d="M 1552.5 580.5  A 3.5 3.5 0 0 0 1549 584 A 3.5 3.5 0 0 0 1552.5 587.5 A 3.5 3.5 0 0 0 1556 584 A 3.5 3.5 0 0 0 1552.5 580.5 Z M 1650.6 673  L 1660 665  L 1650.6 657  L 1654.2 665  L 1650.6 673  Z " fill-rule="nonzero" fill="#0066ff" stroke="none" />
</svg>