<?xml version="1.0" encoding="utf-8"?>
<svg version="1.1" xmlns:xlink="http://www.w3.org/1999/xlink" width="20px" height="20px" xmlns="http://www.w3.org/2000/svg">
  <g transform="matrix(1 0 0 1 -1416 -1960 )">
    <path d="M 10 19.94318181818182  C 4.517067649147728 19.94318181818182  0.05681818181818182 15.482932350852272  0.05681818181818182 10  C 0.05681818181818182 4.517067649147728  4.517067649147728 0.05681818181818182  10 0.05681818181818182  C 15.482932350852272 0.05681818181818182  19.94318181818182 4.517067649147728  19.94318181818182 10  C 19.94318181818182 15.482932350852272  15.482932350852272 19.94318181818182  10 19.94318181818182  Z M 10 18.522727272727273  C 14.699596058238635 18.522727272727273  18.522727272727273 14.699596058238635  18.522727272727273 10  C 18.522727272727273 5.300403941761363  14.699596058238635 1.4772727272727273  10 1.4772727272727273  C 5.300403941761363 1.4772727272727273  1.4772727272727273 5.300403941761363  1.4772727272727273 10  C 1.4772727272727273 14.699596058238635  5.300403941761363 18.522727272727273  10 18.522727272727273  Z M 10.240767045454543 13.480823863636362  C 10.243585759943182 13.480091441761362  10.246448863636362 13.4765625  10.249311967329543 13.475142045454547  C 10.329567649147727 13.44105113636364  10.40627219460227 13.394153941761362  10.472323330965907 13.328835227272728  C 10.473055752840907 13.328102805397728  10.473055752840907 13.327414772727273  10.473743785511363 13.326704545454547  C 10.474476207386363 13.325972123579547  10.475164240056817 13.325972123579547  10.475874467329545 13.325284090909093  L 14.012784090909092 9.798295454545457  C 14.290505149147727 9.52130681818182  14.291903409090907 9.071732954545457  14.014204545454545 8.79403409090909  C 13.737215909090907 8.516313032670457  13.287664240056818 8.515625000000002  13.009943181818178 8.792613636363637  L 9.976562499999996 11.817471590909092  L 6.9602050781249964 8.767755681818182  C 6.683948863636361 8.488636363636363  6.235063032670451 8.48648348721591  5.955943714488634 8.762073863636363  C 5.8153409090909065 8.90054598721591  5.745006214488634 9.083806818181818  5.745006214488634 9.267023259943182  C 5.745006214488634 9.447398792613637  5.8138760653409065 9.627818714488637  5.950261896306816 9.766335227272728  L 9.468017578124996 13.32313121448864  C 9.676180752840907 13.534068714488638  9.98302112926136 13.586647727272732  10.240811434659085 13.480801669034093  Z " fill-rule="nonzero" fill="#272636" stroke="none" transform="matrix(1 0 0 1 1416 1960 )" />
  </g>
</svg>