<?xml version="1.0" encoding="utf-8"?>
<svg version="1.1" xmlns:xlink="http://www.w3.org/1999/xlink" width="26px" height="26px" xmlns="http://www.w3.org/2000/svg">
  <g transform="matrix(1 0 0 1 -467 -1516 )">
    <path d="M 6.474609375 1.7434895833333324  C 8.466362847222223 0.5811631944444422  10.641493055555557 0  13 0  C 15.358506944444445 0  17.53363715277778 0.5811631944444422  19.525390625 1.7434895833333324  C 21.51714409722222 2.9058159722222197  23.09418402777778 4.482855902777778  24.256510416666668 6.474609375  C 25.418836805555554 8.46636284722222  26 10.641493055555552  26 13  C 26 15.358506944444445  25.418836805555554 17.533637152777775  24.256510416666668 19.525390625  C 23.09418402777778 21.51714409722222  21.51714409722222 23.09418402777778  19.525390625 24.256510416666668  C 17.53363715277778 25.418836805555557  15.358506944444445 26  13 26  C 10.641493055555557 26  8.466362847222223 25.418836805555557  6.474609375 24.256510416666668  C 4.482855902777779 23.09418402777778  2.9058159722222223 21.51714409722222  1.7434895833333335 19.525390625  C 0.5811631944444444 17.533637152777775  0 15.358506944444445  0 13  C 0 10.641493055555552  0.5811631944444444 8.46636284722222  1.7434895833333335 6.474609375  C 2.9058159722222223 4.482855902777778  4.482855902777779 2.9058159722222197  6.474609375 1.7434895833333324  Z M 10.291666666666666 19.34765625  L 19.5 13.930989583333336  C 19.861111111111114 13.727864583333336  20.041666666666668 13.41753472222222  20.041666666666668 13  C 20.041666666666668 12.582465277777777  19.861111111111114 12.272135416666668  19.5 12.069010416666668  L 10.291666666666666 6.65234375  C 9.941840277777779 6.437934027777778  9.580729166666666 6.432291666666668  9.208333333333334 6.635416666666668  C 8.847222222222223 6.8498263888888875  8.666666666666666 7.16579861111111  9 7.583333333333332  L 9 18.416666666666664  C 8.666666666666666 18.834201388888886  8.847222222222223 19.15017361111111  9.208333333333334 19.364583333333336  C 9.38888888888889 19.45486111111111  9.569444444444445 19.5  9.75 19.5  C 9.941840277777779 19.5  10.122395833333334 19.44921875  10.291666666666666 19.34765625  Z " fill-rule="nonzero" fill="#000000" stroke="none" transform="matrix(1 0 0 1 467 1516 )" />
  </g>
</svg>