<?xml version="1.0" encoding="utf-8"?>
<svg version="1.1" xmlns:xlink="http://www.w3.org/1999/xlink" width="30px" height="30px" xmlns="http://www.w3.org/2000/svg">
  <g transform="matrix(1 0 0 1 -1390 -1521 )">
    <path d="M 15 29.914772727272727  C 6.775601473721592 29.914772727272727  0.08522727272727273 23.224398526278407  0.08522727272727273 15  C 0.08522727272727273 6.775601473721592  6.775601473721592 0.08522727272727273  15 0.08522727272727273  C 23.224398526278407 0.08522727272727273  29.914772727272727 6.775601473721592  29.914772727272727 15  C 29.914772727272727 23.224398526278407  23.224398526278407 29.914772727272727  15 29.914772727272727  Z M 15 27.78409090909091  C 22.049394087357953 27.78409090909091  27.78409090909091 22.049394087357953  27.78409090909091 15  C 27.78409090909091 7.950605912642045  22.049394087357953 2.215909090909091  15 2.215909090909091  C 7.950605912642045 2.215909090909091  2.215909090909091 7.950605912642045  2.215909090909091 15  C 2.215909090909091 22.049394087357953  7.950605912642045 27.78409090909091  15 27.78409090909091  Z M 15.361150568181817 20.221235795454543  C 15.365378639914772 20.220137162642043  15.369673295454543 20.21484375  15.373967950994317 20.21271306818182  C 15.49435147372159 20.16157670454546  15.609408291903407 20.091230912642043  15.70848499644886 19.993252840909093  C 15.709583629261362 19.992154208096593  15.709583629261362 19.99112215909091  15.710615678267043 19.99005681818182  C 15.711714311079545 19.98895818536932  15.712746360085223 19.98895818536932  15.713811700994317 19.98792613636364  L 21.019176136363637 14.697443181818183  C 21.43575772372159 14.281960227272728  21.43785511363636 13.607599431818183  21.021306818181817 13.191051136363637  C 20.60582386363636 12.774469549005683  19.931496360085227 12.773437500000002  19.514914772727266 13.188920454545455  L 14.964843749999995 17.726207386363637  L 10.440307617187495 13.151633522727273  C 10.025923295454541 12.732954545454545  9.352594549005676 12.729725230823865  8.933915571732951 13.143110795454545  C 8.72301136363636 13.350818980823865  8.617509321732951 13.625710227272727  8.617509321732951 13.900534889914773  C 8.617509321732951 14.171098188920455  8.72081409801136 14.441728071732955  8.925392844460223 14.649502840909092  L 14.202026367187495 19.98469682173296  C 14.51427112926136 20.301103071732957  14.97453169389204 20.379971590909097  15.361217151988628 20.22120250355114  Z " fill-rule="nonzero" fill="#272636" stroke="none" transform="matrix(1 0 0 1 1390 1521 )" />
  </g>
</svg>