<?xml version="1.0" encoding="utf-8"?>
<svg version="1.1" xmlns:xlink="http://www.w3.org/1999/xlink" width="24px" height="24px" xmlns="http://www.w3.org/2000/svg">
  <g transform="matrix(1 0 0 1 -376 -638 )">
    <path d="M 5.9765625 1.6093749999999991  C 7.815104166666667 0.5364583333333313  9.822916666666668 0  12 0  C 14.177083333333334 0  16.184895833333336 0.5364583333333313  18.0234375 1.6093749999999991  C 19.861979166666668 2.6822916666666643  21.317708333333336 4.138020833333333  22.390625 5.9765625  C 23.463541666666664 7.815104166666664  24 9.822916666666664  24 12  C 24 14.177083333333334  23.463541666666664 16.18489583333333  22.390625 18.0234375  C 21.317708333333336 19.861979166666668  19.861979166666668 21.317708333333332  18.0234375 22.390625  C 16.184895833333336 23.463541666666668  14.177083333333334 24  12 24  C 9.822916666666668 24  7.815104166666667 23.463541666666668  5.9765625 22.390625  C 4.138020833333334 21.317708333333332  2.682291666666667 19.861979166666668  1.609375 18.0234375  C 0.5364583333333333 16.18489583333333  0 14.177083333333334  0 12  C 0 9.822916666666664  0.5364583333333333 7.815104166666664  1.609375 5.9765625  C 2.682291666666667 4.138020833333333  4.138020833333334 2.6822916666666643  5.9765625 1.6093749999999991  Z M 9.5 17.859375  L 18 12.859375000000002  C 18.333333333333336 12.671875000000002  18.5 12.385416666666664  18.5 12  C 18.5 11.614583333333332  18.333333333333336 11.328125  18 11.140625  L 9.5 6.140625  C 9.177083333333334 5.942708333333333  8.84375 5.937500000000001  8.5 6.125000000000001  C 8.166666666666668 6.322916666666665  8 6.614583333333332  8 6.999999999999999  L 8 17  C 8 17.385416666666664  8.166666666666668 17.677083333333332  8.5 17.875  C 8.666666666666668 17.958333333333332  8.833333333333334 18  9 18  C 9.177083333333334 18  9.34375 17.953125  9.5 17.859375  Z " fill-rule="nonzero" fill="#000000" stroke="none" transform="matrix(1 0 0 1 376 638 )" />
  </g>
</svg>