<?xml version="1.0" encoding="utf-8"?>
<svg version="1.1" xmlns:xlink="http://www.w3.org/1999/xlink" width="16px" height="16px" xmlns="http://www.w3.org/2000/svg">
  <g transform="matrix(1 0 0 1 -917 -721 )">
    <path d="M 5.4359464285714285 7.809259259259259  C 5.4359464285714285 8.332407407407409  5.026375000000001 8.755425925925927  4.521071428571429 8.755425925925927  C 4.016607142857143 8.755425925925927  3.607035714285715 8.332425925925927  3.607035714285715 7.809240740740741  C 3.607035714285715 7.286092592592593  4.016607142857143 6.861370370370371  4.521071428571429 6.861370370370371  C 5.026375000000001 6.861370370370371  5.4359464285714285 7.286092592592593  5.4359464285714285 7.809240740740741  Z M 7.9874642857142835 14.441074074074072  C 12.356214285714284 14.439370370370368  15.910821428571426 11.22961111111111  15.910821428571428 7.2843888888888895  C 15.910821428571428 3.337407407407408  12.356232142857142 0.12596296296296336  7.985767857142856 0.12596296296296336  C 3.6153571428571425 0.12596296296296336  0.06074999999999976 3.337407407407408  0.06074999999999976 7.2843888888888895  C 0.06074999999999976 9.629111111111111  1.3344107142857138 11.825296296296298  3.470499999999999 13.163370370370371  L 3.470499999999999 15.420037037037037  C 3.470499999999999 15.580666666666666  3.5554107142857134 15.727388888888889  3.691107142857142 15.80162962962963  C 3.753535714285713 15.837907407407407  3.8193214285714276 15.855148148148148  3.8900714285714275 15.855148148148148  C 3.971642857142856 15.855148148148148  4.051571428571427 15.830981481481482  4.121499999999998 15.782685185185185  L 5.125446428571428 15.095462962962962  C 5.142635707979539 15.08436530621343  5.158799628220843 15.071644587917019  5.1737321428571414 15.057462962962962  L 6.309214285714284 14.273574074074073  C 6.875285714285712 14.384074074074071  7.43967857142857 14.441074074074072  7.9874642857142835 14.441074074074072  Z M 4.309607142857142 12.913037037037036  C 4.309607142857142 12.755944444444445  4.227214285714285 12.612592592592591  4.096517857142857 12.534907407407408  C 2.093607142857142 11.364296296296297  0.8990178571428566 9.401148148148149  0.8990178571428566 7.282648148148148  C 0.8990178571428566 3.8156481481481475  4.078214285714286 0.9944074074074071  7.98575 0.9944074074074071  C 11.893339285714287 0.9944074074074071  15.0725 3.8156481481481475  15.0725 7.282648148148148  C 15.0725 10.749648148148149  11.8925 13.57087037037037  7.985767857142856 13.57087037037037  C 7.439678571428571 13.57087037037037  6.873625 13.508703703703704  6.304214285714285 13.386111111111111  C 6.195999999999999 13.36024074074074  6.0811071428571415 13.384407407407409  5.986214285714285 13.450037037037037  L 4.657607142857143 14.368555555555556  C 4.639285714285713 14.378925925925925  4.612642857142857 14.403092592592593  4.612642857142857 14.403092592592593  L 4.309607142857142 14.610296296296296  L 4.309607142857142 12.913037037037036  Z M 8.137303571428571 6.597185185185185  C 8.64342857142857 6.597185185185185  9.052999999999999 7.020203703703704  9.052999999999999 7.543351851851852  C 9.052999999999999 8.0665  8.64342857142857 8.49298148148148  8.137285714285714 8.49298148148148  C 7.632821428571428 8.49298148148148  7.22325 8.0665  7.22325 7.543351851851852  C 7.22325 7.020203703703704  7.632821428571428 6.597185185185185  8.137303571428571 6.597185185185185  Z M 11.713535714285713 6.597185185185185  C 12.218 6.597185185185185  12.627589285714285 7.020203703703704  12.627589285714285 7.543351851851852  C 12.627589285714285 8.0665  12.218 8.49298148148148  11.713535714285713 8.49298148148148  C 11.209071428571429 8.49298148148148  10.799482142857142 8.0665  10.799482142857142 7.543351851851852  C 10.799482142857142 7.020203703703704  11.209053571428571 6.597185185185185  11.713535714285713 6.597185185185185  Z " fill-rule="nonzero" fill="#999999" stroke="none" transform="matrix(1 0 0 1 917 721 )" />
  </g>
</svg>