<?xml version="1.0" encoding="utf-8"?>
<svg version="1.1" xmlns:xlink="http://www.w3.org/1999/xlink" width="6px" height="4px" xmlns="http://www.w3.org/2000/svg">
  <g transform="matrix(1 0 0 1 -2071 -2665 )">
    <path d="M 5.646405135714279 0.04152662857143241  L 0.46845329999999713 0.04152662857143241  C 0.4017689285714222 0.04156594285715138  0.33783149999999296 0.06791385714286337  0.29070652857142576 0.11477414285715375  C 0.24358155714285043 0.1616344428571535  0.21712927142856742 0.22516852857143022  0.21716888571428075 0.2913996714285726  L 0.06639814285713491 3.6893961714285655  C 0.06639814285713491 3.755631357142858  0.09279345714285064 3.8191730285714294  0.13992129999999342 3.8660362285714394  C 0.18704912857141867 3.9128993285714353  0.25099422857142273 3.939269285714285  0.3176826428571401 3.939269285714285  L 5.2946069471428485 3.939269285714285  C 5.361295368571421 3.939269285714285  5.42524046571428 3.9128993285714353  5.472368298571423 3.8660362285714394  C 5.519496131428566 3.8191730285714294  5.54594417428571 3.755631357142858  5.545891367142848 3.6893961714285655  L 5.897689600714281 0.2913996714285726  C 5.897689600714281 0.22516852857143022  5.871276871999994 0.1616344428571535  5.824151898571423 0.11477414285715375  C 5.777026927142848 0.06791385714286337  5.7130895014285645 0.04156594285715138  5.646405135714279 0.04152662857143241  Z " fill-rule="nonzero" fill="#483029" stroke="none" transform="matrix(1 0 0 1 2071 2665 )" />
  </g>
</svg>