<?xml version="1.0" encoding="utf-8"?>
<svg version="1.1" xmlns:xlink="http://www.w3.org/1999/xlink" width="8px" height="5px" xmlns="http://www.w3.org/2000/svg">
  <g transform="matrix(1 0 0 1 -772 -378 )">
    <path d="M 7.528540180952372 0.051908285714290514  L 0.6246043999999962 0.051908285714290514  C 0.5356919047618963 0.05195742857143922  0.4504419999999906 0.0848923214285792  0.387608704761901 0.1434676785714422  C 0.3247754095238006 0.20204305357144187  0.2895056952380899 0.28146066071428777  0.28955851428570767 0.3642495892857157  L 0.08853085714284654 4.6117452142857065  C 0.08853085714284654 4.694539196428573  0.12372460952380086 4.773966285714287  0.18656173333332454 4.832545285714299  C 0.2493988380952249 4.891124160714294  0.33465897142856366 4.924086607142856  0.4235768571428534 4.924086607142856  L 7.059475929523798 4.924086607142856  C 7.148393824761895 4.924086607142856  7.233653954285707 4.891124160714294  7.296491064761897 4.832545285714299  C 7.359328175238088 4.773966285714287  7.394592232380947 4.694539196428573  7.39452182285713 4.6117452142857065  L 7.863586134285708 0.3642495892857157  C 7.863586134285708 0.28146066071428777  7.828369162666658 0.20204305357144187  7.7655358647618975 0.1434676785714422  C 7.702702569523797 0.0848923214285792  7.617452668571419 0.05195742857143922  7.528540180952372 0.051908285714290514  Z " fill-rule="nonzero" fill="#483029" stroke="none" transform="matrix(1 0 0 1 772 378 )" />
  </g>
</svg>