<?xml version="1.0" encoding="utf-8"?>
<svg version="1.1" xmlns:xlink="http://www.w3.org/1999/xlink" width="24px" height="20px" xmlns="http://www.w3.org/2000/svg">
  <g transform="matrix(1 0 0 1 -1395 -68 )">
    <path d="M 24 4.575163406862746  C 23.999193528145916 3.853558513625953  23.41727186935222 3.2687842867167918  22.699187000000002 3.267973848039216  L 12.35577236585366 3.267973848039216  C 12.28673509045961 3.2681954986827435  12.220491917526243 3.2405913114127  12.17186992682927 3.1913398774509805  L 9.507154463414633 0.513562083333333  C 9.263725663996283 0.2676224502700986  8.932504432033515 0.12976571937939652  8.58731707317073 0.13071894607843126  L 1.365853658536585 0.13071894607843126  C 0.6477687891843635 0.13152938475600712  0.06584713039066739 0.7163036116651694  0 1.4379085049019604  L 0 18.692810465686275  C 0.06584714382897239 19.414415349351394  0.6477687986942213 19.999189561348338  1.3658536585365852 20  L 22.699187 20  C 23.417271859842362 19.999189561348338  23.999193514707613 19.414415349351394  24 18.692810465686275  L 24 4.575163406862746  Z M 15.154471536585365 11.63398693627451  L 12.552845536585364 11.63398693627451  L 12.552845536585364 14.24836600490196  C 12.552845536585364 14.537142346938833  12.319888006222055 14.771241825980393  12.032520329268293 14.771241825980393  C 11.745152652314523 14.771241825980393  11.512195121951219 14.537142346938834  11.512195121951219 14.24836600490196  L 11.512195121951219 11.63398693627451  L 8.910569097560975 11.63398693627451  C 8.62320142060721 11.63398693627451  8.390243890243902 11.39988745723295  8.390243890243902 11.111111115196078  C 8.390243890243902 10.822334773159206  8.62320142060721 10.588235294117645  8.910569097560975 10.588235294117645  L 11.512195121951219 10.588235294117645  L 11.512195121951219 7.973856200980391  C 11.512195121951219 7.685079858943519  11.745152652314529 7.450980379901959  12.032520329268293 7.450980379901959  C 12.319888006222058 7.450980379901959  12.552845536585364 7.685079858943519  12.552845536585364 7.973856200980391  L 12.552845536585364 10.588235294117647  L 15.154471536585364 10.588235294117647  C 15.441839213539133 10.588235294117647  15.674796743902437 10.822334773159207  15.674796743902437 11.111111115196078  C 15.674796743902437 11.39988745723295  15.441839213539131 11.63398693627451  15.154471536585364 11.63398693627451  Z " fill-rule="nonzero" fill="#e7772d" stroke="none" transform="matrix(1 0 0 1 1395 68 )" />
  </g>
</svg>