<?xml version="1.0" encoding="utf-8"?>
<svg version="1.1" xmlns:xlink="http://www.w3.org/1999/xlink" width="15px" height="14px" xmlns="http://www.w3.org/2000/svg">
  <g transform="matrix(1 0 0 1 -1780 -1347 )">
    <path d="M 14.957565340909092 6.998566003715701  C 14.957565340909092 7.293969438357469  14.719908225319601 7.532012971608233  14.424984341708095 7.532012971608233  L 0.5750156582919034 7.532012971608233  C 0.2800917913263496 7.532012971608233  0.04243467573686079 7.293969438357472  0.04243467573686079 6.998566003715702  C 0.04243467573686079 6.703162569073934  0.2800917746803977 6.465119035823171  0.5750156582919034 6.465119035823171  L 14.424984358354049 6.465119035823171  C 14.719908225319601 6.465119035823171  14.957565340909092 6.703162569073934  14.957565340909092 6.998566003715701  Z M 14.422121021617544 12.33590357517149  C 14.424984341708095 13.216377893959605  13.706286371404474 13.936244478849083  12.82724142733487 13.936244478849083  L 9.628892228560012 13.936244478849083  C 9.333968361594462 13.936244478849083  9.09631124600497 13.698200945598323  9.09631124600497 13.402797510956555  C 9.09631124600497 13.107394076314783  9.333968344948506 12.869350543064023  9.628892228560012 12.869350543064023  L 12.824378073952413 12.869350543064023  C 13.119301940917968 12.869350543064023  13.356959056507458 12.631307009813261  13.356959056507458 12.33590357517149  L 13.356959056507458 9.668668769054875  C 13.356959056507458 9.373265351086127  13.594616155450995 9.135221801162345  13.889540039062503 9.135221801162345  C 14.184463922674007 9.135221801162345  14.422121021617544 9.373265334413107  14.422121021617544 9.668668769054875  L 14.422121021617544 12.33590357517149  Z M 5.3682444513494305 13.402797544302594  C 5.36824443470348 13.698200945598323  5.130587335759943 13.936244478849083  4.835663452148437 13.936244478849083  L 2.172758572665128 13.936244478849083  C 1.2908502918590203 13.936244478849083  0.5750156416459524 13.219245869855182  0.5750156416459524 12.335903591844511  L 0.5750156416459524 9.668668785727895  C 0.5750156416459524 9.373265367759148  0.8126727405894889 9.135221817835365  1.107596624200995 9.135221817835365  C 1.4025205078125005 9.135221817835365  1.6401776067560365 9.373265367759148  1.6401776067560365 9.668668802400916  L 1.6401776067560365 12.33590360851753  C 1.6401776067560365 12.63130702648628  1.8806980424360793 12.869350576410062  2.1727585893110786 12.869350576410062  L 4.8356634687943885 12.869350576410062  C 5.130587335759942 12.869350576410062  5.3682444513494305 13.107394109660822  5.3682444513494305 13.402797544302594  Z M 1.640177590110086 4.331331214272103  C 1.6401776067560365 4.626734632240854  1.4025205078125 4.864778165491616  1.1075966242009943 4.864778165491616  C 0.8126727572354402 4.864778165491616  0.5750156416459518 4.626734632240854  0.5750156416459518 4.331331197599085  L 0.5750156416459518 1.6640963914824698  C 0.5750156416459518 0.7807541134717992  1.2908502918590201 0.063755504477897  2.172758572665128 0.063755504477897  L 4.835663452148437 0.063755504477897  C 5.1305873191139915 0.063755504477897  5.36824443470348 0.3017990377286589  5.36824443470348 0.5972024723704275  C 5.36824443470348 0.8926059070121958  5.130587335759943 1.1306494402629568  4.835663452148437 1.1306494402629568  L 2.172758572665128 1.1306494402629568  C 1.8806980424360802 1.1306494402629568  1.640177590110086 1.3715609660823167  1.640177590110086 1.6640964081554872  L 1.640177590110086 4.331331214272103  Z M 14.422121004971592 4.331331197599085  C 14.424984341708095 4.626734632240854  14.187327242764558 4.864778165491616  13.892403375799006 4.864778165491616  C 13.597479508833453 4.864778165491616  13.359822393243961 4.626734632240854  13.359822393243961 4.331331197599085  L 13.359822393243961 1.6640963914824698  C 13.359822393243961 1.3715609660823178  13.122165294300427 1.1306494235899396  12.82724141068892 1.1306494235899396  L 9.628892228560012 1.1306494402629568  C 9.333968361594462 1.1306494402629568  9.09631124600497 0.8926059070121948  9.09631124600497 0.5972024723704265  C 9.09631124600497 0.30179903772865857  9.333968344948506 0.06375550447789609  9.628892228560012 0.06375550447789609  L 12.824378073952413 0.06375550447789609  C 13.706286354758525 0.06375550447789609  14.422121004971592 0.7807541134717983  14.422121004971592 1.6640963914824691  L 14.422121004971592 4.331331197599085  Z " fill-rule="nonzero" fill="#272636" stroke="none" transform="matrix(1 0 0 1 1780 1347 )" />
  </g>
</svg>