<?xml version="1.0" encoding="utf-8"?>
<svg version="1.1" xmlns:xlink="http://www.w3.org/1999/xlink" width="20px" height="20px" xmlns="http://www.w3.org/2000/svg">
  <g transform="matrix(1 0 0 1 -4429 -1224 )">
    <path d="M 19.94318181818182 10  C 19.94318181818182 4.517056906960227  15.482943093039774 0.05681818181818182  10 0.05681818181818182  C 4.517744140625 0.05681818181818182  0.05681818181818182 4.517056906960227  0.05681818181818182 10  C 0.05681818181818182 15.482943093039774  4.517056906960227 19.94318181818182  10 19.94318181818182  C 15.482255859375 19.94318181818182  19.94318181818182 15.482943093039774  19.94318181818182 10  Z M 11.006401877663352 10.002825261896307  L 14.056112637606532 13.062500754616478  C 14.333102228338069 13.34090296519886  14.332376819957384 13.789775013316758  14.054700017755684 14.066764604048295  C 13.916224320845172 14.204553089488636  13.735102516867899 14.27415363103693  13.553293501420455 14.27415363103693  C 13.370759077592332 14.27415363103693  13.188950062144889 14.20455306729403  13.050436168323865 14.065351962002836  L 9.996449351917615 11.002125799005679  L 6.932535955255684 14.03339604048295  C 6.794060258345173 14.169771883877837  6.6136256880326725 14.238647039240055  6.433229292436081 14.238647039240055  C 6.2500076349431835 14.238647039240055  6.06747323330966 14.168321089311078  5.928272105823865 14.027707341974429  C 5.652695134943183 13.748579723011362  5.654833163174717 13.299707674893464  5.933960804332389 13.023443492542611  L 8.994323530717331 9.99644932972301  L 5.945300004438923 6.937499223188919  C 5.6683104137073865 6.659784224076705  5.66903582208807 6.210224964488635  5.946712624289773 5.933235373757101  C 6.22442762340199 5.655520374644886  6.673261474609377 5.656971191406248  6.950976473721592 5.934647993607953  L 10.00423788174716 8.997148748224431  L 13.068151278409093 5.965916681463067  C 13.346553488991477 5.689652499112214  13.796838156960229 5.692477738813919  14.072415127840912 5.97160537997159  C 14.348679310191763 6.250732998934656  14.345854070490061 6.700292258522726  14.066726429332391 6.975869229403408  L 11.006401877663352 10.002825261896307  Z " fill-rule="nonzero" fill="#ffffff" stroke="none" transform="matrix(1 0 0 1 4429 1224 )" />
  </g>
</svg>