<?xml version="1.0" encoding="utf-8"?>
<svg version="1.1" xmlns:xlink="http://www.w3.org/1999/xlink" width="138px" height="100px" xmlns="http://www.w3.org/2000/svg">
  <g transform="matrix(1 0 0 1 -6066 -1326 )">
    <path d="M 137 5.613171469571522  C 137.01774869942858 3.9814004752360113  135.65055771631748 2.893553294408124  133.59977142857144 2.893553294408131  C 131.54898495390478 2.893553294408131  130.1817941577143 3.981400623965138  130 5.613171469571529  L 130 71  L 8 71  L 8 7  L 118.5606711751111 7  C 120.61145764977776 6.157095134350053  121.97864844596825 5.069247804793045  121.97864844596825 3.4374769591866556  C 121.97864844596825 1.8057061135802646  120.61145746285713 0.7178587840232576  118.5606711751111 1  L 7.81820584228571 1  C 4.058430732190472 0.7178586352941363  0.9822511136507895 2.893553145679032  1 5.613171469571549  L 1 71.97185604415397  C 0.9822513005714246 74.69147421931737  4.058430919111108 76.86716887843139  7.81820584228571 76  L 65.92382038146032 76  C 65.92382038146032 77.13913048772696  65.58202272914286 77.41109239448079  66 77.68305430123459  L 66 94  L 28.6678674935873 94  C 26.617081018920636 94.0007635009441  25.24989022273016 95.08861083050112  25.24989022273016 96.72038182483664  C 25.24989022273016 98.35215281917215  26.61708120584127 99.44000000000004  28.6678674935873 99  L 109.33213250641268 99  C 111.38291898107936 99.44000000000004  112.75010977726983 98.35215267044303  112.75010977726983 96.72038182483664  C 112.75010977726983 95.08861097923024  111.38291879415873 94.00076364967322  109.33213250641268 94  L 72 94  L 72 77.6830543012346  C 72.41797727085714 77.41109254320992  72.41797727085714 77.13913063645609  72.07617961853967 76  L 130.1817941577143 76  C 133.9415692678095 76.86716872970229  137.0177488863492 74.69147421931739  137 71.97185604415398  L 137 5.613171469571522  Z " fill-rule="nonzero" fill="#000000" stroke="none" transform="matrix(1 0 0 1 6066 1326 )" />
  </g>
</svg>