<?xml version="1.0" encoding="utf-8"?>
<svg version="1.1" xmlns:xlink="http://www.w3.org/1999/xlink" width="16px" height="16px" xmlns="http://www.w3.org/2000/svg">
  <g transform="matrix(1 0 0 1 -2680 -379 )">
    <path d="M 9.463793839285714 15.999129732142858  C 9.004073535714285 15.999129732142858  8.571690107142857 15.819996321428572  8.246808660714285 15.494785964285715  L 0.5130624285714287 7.761039732142857  C 0.15755489285714294 7.405532196428571  -0.0245022499999999 6.913888392857143  0.013725553571428557 6.412230803571428  L 0.35662450000000007 1.9578702857142858  C 0.4222074642857144 1.105693767857143  1.0882518928571427 0.43966762499999995  1.940410125 0.3740846607142857  L 6.394423446428571 0.03160600000000002  C 6.903701017857143 -0.006347696428571454  7.3877613928571435 0.17441203571428585  7.743488214285715 0.5305225892857143  L 15.477344071428572 8.264341910714284  C 16.148395392857143 8.935740410714285  16.148048196428572 10.027516767857142  15.477344071428572 10.698220875  L 10.680779 15.494859053571428  C 10.355915839285714 15.819996321428572  9.92345932142857 15.999129732142858  9.463793839285714 15.999129732142858  Z M 6.526959857142857 0.7082672321428571  C 6.5002990714285716 0.7082672321428571  6.473638303571429 0.7093088035714287  6.447050607142857 0.7113006071428573  L 1.9929459107142853 1.053779267857143  C 1.4783325357142851 1.0933775714285716  1.0758808214285709 1.4959023571428571  1.0363008035714283 2.0104974642857143  L 0.6933835892857141 6.464510785714286  C 0.6704322857142854 6.767117053571428  0.7802915178571427 7.064369232142858  0.9949482678571425 7.279062517857143  L 8.728804142857143 15.012881839285715  C 9.121570982142858 15.405666964285714  9.805907017857143 15.405666964285714  10.198765232142858 15.012881839285715  L 14.99533030357143 10.21624367857143  C 15.400449910714286 9.81121542857143  15.400449910714286 9.151731125000001  14.99533030357143 8.746355696428575  L 7.261492696428573 1.0125363750000023  C 7.065127553571429 0.8161163928571428  6.80420275 0.7082672321428571  6.526959857142857 0.7082672321428571  Z M 4.235777285714286 5.615367642857143  C 3.8706214285714284 5.615367642857143  3.528416875 5.473932107142857  3.2718228392857145 5.217228446428571  C 3.015192267857143 4.960616142857142  2.873683642857143 4.618411589285714  2.873683642857143 4.253255732142857  C 2.873683642857143 3.888520160714286  3.015192267857143 3.5459501428571434  3.2718228392857145 3.2893561071428574  C 3.528416875 3.0326524464285716  3.870639696428572 2.8911986250000004  4.235777285714286 2.8911986250000004  C 4.600604214285715 2.8911986250000004  4.94317425 3.0326341607142857  5.199768267857143 3.2893561071428574  C 5.456380571428572 3.5459501428571434  5.597889196428572 3.8884287857142863  5.597889196428572 4.253255732142857  C 5.597889196428572 4.6184115892857145  5.456398839285716 4.960616142857143  5.199768267857143 5.217228446428572  C 4.94317425 5.473932107142857  4.6006225 5.615367642857143  4.235777285714286 5.615367642857143  Z M 4.235777285714286 3.572976375  C 4.052678571428571 3.572976375  3.8816767857142858 3.6431276607142857  3.7538000714285715 3.771333321428571  C 3.626014714285714 3.8994841428571427  3.555424857142857 4.070577285714285  3.555424857142857 4.253347089285714  C 3.555424857142857 4.436354446428571  3.625685785714286 4.607465857142857  3.7538000714285715 4.735342589285714  C 4.0094621607142855 4.9912605  4.461525946428572 4.9912605  4.717809321428571 4.735342589285714  C 4.845923607142857 4.607465857142857  4.916166267857142 4.436354446428571  4.916166267857142 4.253347089285713  C 4.916166267857142 4.070577285714284  4.845686053571428 3.8994841428571414  4.717809321428571 3.7713333214285703  C 4.5896585 3.6434565892857145  4.418565357142858 3.572976375  4.235777285714286 3.572976375  Z " fill-rule="nonzero" fill="#272636" stroke="none" transform="matrix(1 0 0 1 2680 379 )" />
  </g>
</svg>