<?xml version="1.0" encoding="utf-8"?>
<svg version="1.1" xmlns:xlink="http://www.w3.org/1999/xlink" width="14px" height="14px" xmlns="http://www.w3.org/2000/svg">
  <g transform="matrix(1 0 0 1 -2907 -244 )">
    <path d="M 13.487358655427633 3.693097245065788  C 14.577960526315792 4.770405016447368  13.487358655427633 6.09666683799342  13.487358655427633 6.09666683799342  L 5.578268914473685 13.907894736842106  L 0.09210526315789473 13.888969983552633  L 0.1027909128289473 8.500146484375  L 8.011880653782896 0.6887386924342096  C 8.011880653782896 0.6887386924342096  9.162872635690789 -0.5779605263157906  10.445420435855265 0.6887386924342096  C 11.727968236019741 1.9554379111842093  12.396756784539473 2.6159873560855247  13.487358655427633 3.693097245065788  Z M 1.9168688322368426 9.113797800164471  L 1.9028371710526322 12.085307874177632  L 4.896150287828947 12.09725277549342  L 5.032221422697369 11.961001747532894  L 2.0529399671052633 8.977546772203947  L 1.9168688322368426 9.113797800164471  Z M 11.481604646381577 5.502479954769737  C 11.793503289473685 5.1902215254934205  11.861862664473682 4.752199835526317  11.45055509868421 4.340262643914474  L 9.66290347450658 2.55016447368421  C 9.251595908717103 2.1382272820723682  8.81431178042763 2.2067665501644735  8.502305201480263 2.519024979440789  L 3.353045333059211 7.675624486019737  L 6.332236842105263 10.659169407894739  L 11.481604646381577 5.502479954769737  Z " fill-rule="nonzero" fill="#272636" stroke="none" transform="matrix(1 0 0 1 2907 244 )" />
  </g>
</svg>