<?xml version="1.0" encoding="utf-8"?>
<svg version="1.1" xmlns:xlink="http://www.w3.org/1999/xlink" width="21px" height="18px" xmlns="http://www.w3.org/2000/svg">
  <g transform="matrix(1 0 0 1 -1744 -2804 )">
    <path d="M 21 4.117647066176471  C 20.99929433712768 3.4682026622633577  20.490112885683192 2.9419058580451125  19.861788625 2.9411764632352946  L 10.811300820121954 2.9411764632352946  C 10.750893204152158 2.941375948814469  10.692930427835464 2.91653218027143  10.650386185975611 2.8722058897058824  L 8.318760155487805 0.4622058749999997  C 8.105759955996747 0.24086020524308877  7.815941378029326 0.11678914744145687  7.51390243902439 0.11764705147058814  L 1.195121951219512 0.11764705147058814  C 0.566797690536318 0.11837644628040642  0.05761623909183397 0.6446732504986525  0 1.2941176544117645  L 0 16.823529419117648  C 0.05761625085035084 17.472973814416253  0.5667976988574437 17.999270605213503  1.1951219512195121 18  L 19.861788625 18  C 20.490112877362066 17.999270605213503  20.999294325369164 17.472973814416253  21 16.823529419117648  L 21 4.117647066176471  Z M 13.260162594512195 10.47058824264706  L 10.983739844512193 10.47058824264706  L 10.983739844512193 12.823529404411763  C 10.983739844512193 13.083428112244949  10.779902005444297 13.294117643382354  10.528455288109756 13.294117643382354  C 10.277008570775209 13.294117643382354  10.073170731707316 13.08342811224495  10.073170731707316 12.823529404411763  L 10.073170731707316 10.47058824264706  L 7.796747960365853 10.47058824264706  C 7.545301243031308 10.47058824264706  7.341463403963414 10.259898711509654  7.341463403963414 10.000000003676469  C 7.341463403963414 9.740101295843285  7.545301243031308 9.52941176470588  7.796747960365853 9.52941176470588  L 10.073170731707316 9.52941176470588  L 10.073170731707316 7.176470580882352  C 10.073170731707316 6.9165718730491665  10.277008570775212 6.705882341911764  10.528455288109756 6.705882341911764  C 10.7799020054443 6.705882341911764  10.983739844512193 6.9165718730491665  10.983739844512193 7.176470580882352  L 10.983739844512193 9.529411764705882  L 13.260162594512193 9.529411764705882  C 13.511609311846742 9.529411764705882  13.715447150914633 9.740101295843287  13.715447150914633 10.000000003676469  C 13.715447150914633 10.259898711509654  13.51160931184674 10.47058824264706  13.260162594512193 10.47058824264706  Z " fill-rule="nonzero" fill="#e7772d" stroke="none" transform="matrix(1 0 0 1 1744 2804 )" />
  </g>
</svg>