<?xml version="1.0" encoding="utf-8"?>
<svg version="1.1" xmlns:xlink="http://www.w3.org/1999/xlink" width="12px" height="12px" xmlns="http://www.w3.org/2000/svg">
  <g transform="matrix(1 0 0 1 -3245 -2653 )">
    <path d="M 11.67944972222222 10.87825114814815  L 6.765032574074075 5.949053037037038  L 11.677633925925925 1.0619361111111116  C 11.90992448148148 0.8308242037037044  11.911103148148149 0.4562986851851858  11.67999124074074 0.22400811111111174  C 11.448274074074073 -0.008887703703702822  11.074353814814813 -0.009461111111110443  10.842063240740739 0.2216507962962969  L 5.928283240740741 5.109341129629629  L 1.0571896481481484 0.2234028703703701  C 0.8266830000000002 -0.007709037037037198  0.45155222222222247 -0.008887685185185403  0.21926164814814847 0.2222242222222219  C -0.0124555185185184 0.4533361296296292  -0.013028907407407024 0.8284350555555554  0.2180830000000003 1.0607574814814815  L 5.087997944444445 5.945485240740741  L 0.17778575925925955 10.829639592592592  C -0.05450479629629598 11.060751499999999  -0.05568346296296267 11.43527701851852  0.17542844444444464 11.667567592592592  C 0.2909684629629631 11.783712870370369  0.4432697777777782 11.842390777777778  0.5955710925925928 11.842390777777778  C 0.7466937592592597 11.842390777777778  0.8977845555555557 11.784923388888888  1.0133564444444445 11.66995675925926  L 5.924779148148149 6.7846237407407415  L 10.840343074074074 11.715000481481482  C 10.955883092592591 11.83114575925926  11.107611018518517 11.889218407407409  11.259912333333332 11.889218407407409  C 11.411608388888888 11.889218407407409  11.562731055555556 11.83114575925926  11.678271074074074 11.71617914814815  C 11.909988240740741 11.485067240740744  11.91056162962963 11.110541722222223  11.67944972222222 10.87825114814815  Z " fill-rule="nonzero" fill="#ffffff" stroke="none" transform="matrix(1 0 0 1 3245 2653 )" />
  </g>
</svg>