<?xml version="1.0" encoding="utf-8"?>
<svg version="1.1" xmlns:xlink="http://www.w3.org/1999/xlink" width="15px" height="14px" xmlns="http://www.w3.org/2000/svg">
  <g transform="matrix(1 0 0 1 -2584 -2652 )">
    <path d="M 13.125 2.413793103448276  C 14.16064453125 2.413793103448276  15 3.27823275862069  15 4.344827586206897  L 15 12.068965517241379  C 15 13.135560344827587  14.16064453125 14  13.125 14  L 1.875 14  C 0.83935546875 14  0 13.135560344827587  0 12.068965517241379  L 0 0.9655172413793103  C 0 0.4314655172413792  0.42041015625 0  0.9375 0  L 5.14306640625 0  C 5.4462890625 0  5.730468750000001 0.15086206896551724  5.906250000000001 0.40431034482758615  L 7.019531250000001 2.0094827586206896  C 7.195312500000001 2.262931034482759  7.4794921875 2.413793103448276  7.782714843750001 2.413793103448276  L 13.125 2.413793103448276  Z " fill-rule="nonzero" fill="#e7772d" stroke="none" transform="matrix(1 0 0 1 2584 2652 )" />
  </g>
</svg>