<?xml version="1.0" encoding="utf-8"?>
<svg version="1.1" xmlns:xlink="http://www.w3.org/1999/xlink" width="32px" height="30px" xmlns="http://www.w3.org/2000/svg">
  <g transform="matrix(1 0 0 1 -109 -2195 )">
    <path d="M 28 5.172413793103448  C 30.209375 5.172413793103448  32 7.024784482758621  32 9.310344827586206  L 32 25.86206896551724  C 32 28.14762931034483  30.209375 30  28 30  L 4 30  C 1.790625 30  0 28.14762931034483  0 25.86206896551724  L 0 2.0689655172413794  C 0 0.9245689655172411  0.896875 0  2 0  L 10.971875 0  C 11.61875 0  12.225000000000001 0.3232758620689655  12.600000000000001 0.8663793103448274  L 14.975000000000001 4.306034482758621  C 15.350000000000001 4.849137931034483  15.95625 5.172413793103448  16.603125000000002 5.172413793103448  L 28 5.172413793103448  Z " fill-rule="nonzero" fill="#e7772d" stroke="none" transform="matrix(1 0 0 1 109 2195 )" />
  </g>
</svg>