<?xml version="1.0" encoding="utf-8"?>
<svg version="1.1" xmlns:xlink="http://www.w3.org/1999/xlink" width="14px" height="4px" xmlns="http://www.w3.org/2000/svg">
  <g transform="matrix(1 0 0 1 -2381 -4676 )">
    <path d="M 3.6581555589488635 1.9984321640624998  C 3.6581555589488635 2.9642197213541657  2.9098697379261367 3.7481382005208346  1.987981615056818 3.7481382005208346  C 1.0660934921875 3.7481382005208346  0.3178076711647726 2.964219721354168  0.3178076711647726 1.9984321640624998  C 0.3178076711647726 1.0326446067708328  1.0660934921875 0.2487261276041662  1.987981615056818 0.2487261276041662  C 2.9098697379261367 0.2487261276041662  3.6581555589488635 1.032644606770834  3.6581555589488635 1.9984321640624998  Z M 8.668677373224433 1.9984321640624998  C 8.668677373224433 2.9642197213541657  7.920391552201703 3.7481382005208346  6.998503429332386 3.7481382005208346  C 6.076615306463069 3.7481382005208346  5.3283294854403405 2.964219721354168  5.3283294854403405 1.9984321640624998  C 5.3283294854403405 1.0326446067708328  6.076615306463069 0.2487261276041662  6.998503429332386 0.2487261276041662  C 7.920391552201703 0.2487261276041662  8.668677373224433 1.032644606770834  8.668677373224433 1.9984321640624998  Z M 13.68219232883523 1.9984321640624998  C 13.68219232883523 2.9642197213541657  12.930913366477274 3.7481382005208346  12.012018384943183 3.7481382005208346  C 11.090130262073863 3.7481382005208346  10.341844441051135 2.964219721354168  10.341844441051135 1.9984321640624998  C 10.341844441051135 1.0326446067708328  11.090130262073863 0.2487261276041662  12.012018384943183 0.2487261276041662  C 12.933906507812502 0.2487261276041662  13.68219232883523 1.032644606770834  13.68219232883523 1.9984321640624998  Z " fill-rule="nonzero" fill="#333333" stroke="none" transform="matrix(1 0 0 1 2381 4676 )" />
  </g>
</svg>