<?xml version="1.0" encoding="utf-8"?>
<svg version="1.1" xmlns:xlink="http://www.w3.org/1999/xlink" width="14px" height="14px" xmlns="http://www.w3.org/2000/svg">
  <g transform="matrix(1 0 0 1 -1849 -5252 )">
    <path d="M 5.275390625 4.228515625  L 2.6640625 1.6171875  L 3.521484375 0.759765625  C 3.61328125 0.66796875  3.5585937499999982 0.509765625  3.4296875 0.49414062500000006  L 0.30078125 0.125  C 0.201171875 0.11328125000000001  0.115234375 0.19726562499999964  0.126953125 0.298828125  L 0.49609375 3.427734375  C 0.51171875 3.556640625000001  0.669921875 3.6113281250000004  0.76171875 3.51953125  L 1.615234375 2.666015625000001  L 4.2265625 5.275390625  C 4.287109375 5.3359375  4.38671875 5.3359375  4.447265625 5.275390625  L 5.275390625 4.44921875  C 5.3359375 4.388671874999998  5.3359375 4.2890625  5.275390625 4.228515625  Z M 8.724609374999998 4.447265625  L 9.552734375 5.275390625  C 9.613281250000002 5.3359375  9.712890625000002 5.3359375  9.7734375 5.275390625  L 12.384765625 2.666015625000001  L 13.238281250000002 3.51953125  C 13.330078125000004 3.6113281250000004  13.48828125 3.5566406250000004  13.503906250000002 3.427734375  L 13.873046875 0.30078125  C 13.884765625 0.201171875  13.80078125 0.115234375  13.69921875 0.126953125  L 10.5703125 0.49609375  C 10.44140625 0.51171875  10.38671875 0.669921875  10.478515624999996 0.76171875  L 11.335937499999996 1.619140625  L 8.724609374999998 4.2265625  C 8.6640625 4.287109375  8.6640625 4.38671875  8.724609374999998 4.447265625  Z M 13.873046875 13.701171875  L 13.50390625 10.572265625  C 13.48828125 10.443359375  13.330078125 10.388671875  13.23828125 10.48046875  L 12.384765625 11.333984375  L 9.7734375 8.724609374999998  C 9.712890625 8.6640625  9.613281249999998 8.6640625  9.552734375 8.724609374999998  L 8.724609375000002 9.550781249999998  C 8.6640625 9.611328124999998  8.6640625 9.7109375  8.724609375000002 9.771484374999998  L 11.3359375 12.3828125  L 10.478515625 13.240234375  C 10.38671875 13.33203125  10.44140625 13.490234375  10.5703125 13.505859375  L 13.69921875 13.875  C 13.798828125 13.88671875  13.884765625 13.802734375  13.873046875 13.701171875  Z M 5.275390625 9.552734375  L 4.447265625 8.724609374999998  C 4.38671875 8.6640625  4.287109375 8.6640625  4.2265625 8.724609374999998  L 1.615234375 11.333984375  L 0.7617187500000007 10.48046875  C 0.6699218750000007 10.388671874999996  0.51171875 10.443359375  0.49609375000000067 10.572265625  L 0.126953125 13.69921875  C 0.115234375 13.798828125  0.19921874999999967 13.884765625  0.30078125 13.873046875  L 3.4296875 13.50390625  C 3.55859375 13.48828125  3.61328125 13.330078125  3.521484375 13.23828125  L 2.6640625 12.3828125  L 5.275390625 9.7734375  C 5.3359375 9.712890625  5.3359375 9.613281249999998  5.275390625 9.552734375  Z " fill-rule="nonzero" fill="#ffffff" stroke="none" transform="matrix(1 0 0 1 1849 5252 )" />
  </g>
</svg>