<?xml version="1.0" encoding="utf-8"?>
<svg version="1.1" xmlns:xlink="http://www.w3.org/1999/xlink" width="70px" height="70px" xmlns="http://www.w3.org/2000/svg">
  <g transform="matrix(1 0 0 1 -4954 -5220 )">
    <path d="M 4989 5220  C 5008.6 5220  5024 5235.4  5024 5255  C 5024 5274.6  5008.6 5290  4989 5290  C 4969.4 5290  4954 5274.6  4954 5255  C 4954 5235.4  4969.4 5220  4989 5220  Z " fill-rule="nonzero" fill="#ffffff" stroke="none" />
    <path d="M 4989 5220.5  C 5008.32 5220.5  5023.5 5235.68  5023.5 5255  C 5023.5 5274.32  5008.32 5289.5  4989 5289.5  C 4969.68 5289.5  4954.5 5274.32  4954.5 5255  C 4954.5 5235.68  4969.68 5220.5  4989 5220.5  Z " stroke-width="1" stroke="#797979" fill="none" />
  </g>
</svg>