<?xml version="1.0" encoding="utf-8"?>
<svg version="1.1" xmlns:xlink="http://www.w3.org/1999/xlink" width="15px" height="14px" xmlns="http://www.w3.org/2000/svg">
  <g transform="matrix(1 0 0 1 -2052 -5796 )">
    <path d="M 14.829885064655173 3.4994377439759043  C 14.829885064655173 2.9236947650602416  14.351724137931036 2.4199196716867477  13.726436788793103 2.4199196716867464  L 7.694252866379311 2.4199196716867464  C 7.547126422413792 2.4199196716867464  7.363218383620689 2.3479518072289145  7.289655172413793 2.239999999999999  L 5.671264375 0.3328514126506017  C 5.560919547413793 0.22489960542168597  5.413793103448276 0.15293174096385415  5.266666659482759 0.15293171987951681  L 1.1471264439655173 0.15293171987951681  C 0.5586206896551724 0.15293171987951681  0.04367816810344835 0.6207228915662638  0 1.2324497921686732  L 0 12.783293165662649  C 0.04367816810344835 13.35903614457831  0.5218390948275863 13.862811237951808  1.1471264439655173 13.862811237951808  L 13.726436788793103 13.862811237951808  C 14.314942543103447 13.862811237951808  14.829885064655173 13.395020066265058  14.829885064655173 12.783293165662649  L 14.829885064655173 3.4994377439759043  Z " fill-rule="nonzero" fill="#333333" stroke="none" transform="matrix(1 0 0 1 2052 5796 )" />
  </g>
</svg>