<?xml version="1.0" encoding="utf-8"?>
<svg version="1.1" xmlns:xlink="http://www.w3.org/1999/xlink" width="20px" height="20px" xmlns="http://www.w3.org/2000/svg">
  <g transform="matrix(1 0 0 1 -2088 -5793 )">
    <path d="M 11.829742299107142 19.998912165178574  C 11.255091919642856 19.998912165178574  10.71461263392857 19.774995401785716  10.308510825892856 19.368482455357142  L 0.6413280357142859 9.70129966517857  C 0.19694361607142868 9.256915245535714  -0.030627812499999872 8.642360491071429  0.017156941964285695 8.015288504464285  L 0.4457806250000001 2.4473378571428572  C 0.527759330357143 1.3821172098214287  1.3603148660714284 0.54958453125  2.42551265625 0.46760582589285715  L 7.993029308035714 0.03950750000000003  C 8.62962627232143 -0.007934620535714318  9.23470174107143 0.21801504464285731  9.679360267857144 0.6631532366071429  L 19.346680089285716 10.330427388392856  C 20.185494241071428 11.169675513392857  20.185060245535716 12.534395959821428  19.346680089285716 13.372776093750002  L 13.35097375 19.368573816964286  C 12.944894799107143 19.774995401785716  12.404324151785712 19.998912165178574  11.829742299107142 19.998912165178574  Z M 8.158699821428572 0.8853340401785714  C 8.125373839285714 0.8853340401785714  8.092047879464285 0.8866360044642858  8.058813258928572 0.8891257589285716  L 2.4911823883928568 1.3172240848214287  C 1.8479156696428565 1.3667219642857145  1.3448510267857137 1.8698779464285713  1.2953760044642855 2.513121830357143  L 0.8667294866071427 8.080638482142858  C 0.8380403571428567 8.458896316964285  0.9753643973214283 8.830461540178572  1.243685334821428 9.098828147321429  L 10.911005178571429 18.766102299107143  C 11.401963727678572 19.257083705357143  12.257383772321429 19.257083705357143  12.748456540178573 18.766102299107143  L 18.744162879464287 12.770304598214288  C 19.250562388392858 12.264019285714287  19.250562388392858 11.43966390625  18.744162879464287 10.932944620535718  L 9.076865870535716 1.2656704687500029  C 8.831409441964286 1.0201454910714285  8.5052534375 0.8853340401785714  8.158699821428572 0.8853340401785714  Z M 5.294721607142857 7.019209553571429  C 4.838276785714285 7.019209553571429  4.41052109375 6.842415133928571  4.089778549107143 6.521535558035714  C 3.768990334821429 6.200770178571427  3.5921045535714287 5.773014486607142  3.5921045535714287 5.316569665178571  C 3.5921045535714287 4.860650200892858  3.768990334821429 4.4324376785714295  4.089778549107143 4.111695133928571  C 4.41052109375 3.7908155580357143  4.8382996205357145 3.6139982812500007  5.294721607142857 3.6139982812500007  C 5.750755267857144 3.6139982812500007  6.1789678125 3.7907927008928572  6.49971033482143 4.111695133928571  C 6.820475714285715 4.4324376785714295  6.997361495535715 4.860535982142858  6.997361495535715 5.316569665178571  C 6.997361495535715 5.773014486607143  6.820498549107144 6.200770178571428  6.49971033482143 6.521535558035715  C 6.1789678125 6.842415133928571  5.750778125 7.019209553571429  5.294721607142857 7.019209553571429  Z M 5.294721607142857 4.4662204687500004  C 5.065848214285714 4.4662204687500004  4.852095982142857 4.553909575892857  4.692250089285714 4.714166651785714  C 4.532518392857143 4.874355178571428  4.444281071428572 5.088221607142857  4.444281071428572 5.316683861607142  C 4.444281071428572 5.545443058035714  4.532107232142858 5.7593323214285705  4.692250089285714 5.919178236607142  C 5.011827700892857 6.239075625  5.576907433035715 6.239075625  5.897261651785714 5.919178236607142  C 6.057404508928571 5.7593323214285705  6.145207834821428 5.545443058035714  6.145207834821428 5.316683861607141  C 6.145207834821428 5.088221607142856  6.057107566964285 4.8743551785714265  5.897261651785714 4.714166651785713  C 5.737073124999999 4.554320736607143  5.523206696428572 4.4662204687500004  5.294721607142857 4.4662204687500004  Z " fill-rule="nonzero" fill="#272636" stroke="none" transform="matrix(1 0 0 1 2088 5793 )" />
  </g>
</svg>