<?xml version="1.0" encoding="utf-8"?>
<svg version="1.1" xmlns:xlink="http://www.w3.org/1999/xlink" width="20px" height="20px" xmlns="http://www.w3.org/2000/svg">
  <g transform="matrix(1 0 0 1 -1982 -5791 )">
    <path d="M 19.267655222039476 5.275853207236841  C 20.825657894736842 6.8148643092105265  19.267655222039476 8.709524054276315  19.267655222039476 8.709524054276315  L 7.968955592105264 19.86842105263158  L 0.13157894736842105 19.841385690789476  L 0.14684416118421043 12.14306640625  L 11.445543791118421 0.9839124177631565  C 11.445543791118421 0.9839124177631565  13.08981805098684 -0.8256578947368438  14.922029194078949 0.9839124177631565  C 16.75424033717106 2.7934827302631557  17.709652549342106 3.737124794407892  19.267655222039476 5.275853207236841  Z M 2.738384046052632 13.019711143092103  L 2.7183388157894743 17.264725534539473  L 6.994500411184211 17.281789679276315  L 7.188887746710527 17.08714535361842  L 2.9327713815789473 12.825066817434209  L 2.738384046052632 13.019711143092103  Z M 16.40229235197368 7.860685649671053  C 16.847861842105264 7.414602179276315  16.94551809210526 6.788856907894738  16.357935855263158 6.200375205592106  L 13.804147820723685 3.6430921052631575  C 13.216565583881577 3.0546104029605257  12.59187397203947 3.152523643092105  12.146150287828947 3.5986071134868416  L 4.790064761513158 10.965177837171055  L 9.046052631578947 15.227384868421055  L 16.40229235197368 7.860685649671053  Z " fill-rule="nonzero" fill="#272636" stroke="none" transform="matrix(1 0 0 1 1982 5791 )" />
  </g>
</svg>