<?xml version="1.0" encoding="utf-8"?>
<svg version="1.1" xmlns:xlink="http://www.w3.org/1999/xlink" width="20px" height="20px" xmlns="http://www.w3.org/2000/svg">
  <g transform="matrix(1 0 0 1 -2017 -5791 )">
    <path d="M 19.994283453608247 19.122055234375  C 19.994283453608247 19.604634713541667  19.607088659793813 19.995862786458332  19.129484226804124 20  L 1.0658353092783506 20  C 0.5882308762886601 19.9958628125  0.20103608247422688 19.604634739583336  0.20103608247422688 19.122055260416666  C 0.20103608247422688 18.63947578125  0.5882308762886601 18.248247708333334  1.0658353092783506 18  L 19.129484226804124 18  C 19.607115025773197 18.248247682291666  19.994283453608247 18.63947578125  19.994283453608247 19.122055234375  Z M 10.095747654639176 16.657965911458334  C 9.618143221649486 16.657965911458334  9.230948427835052 16.266737838541665  9.230948427835052 15.784158359375  L 9.230948427835052 0.8847401562499997  C 9.230948427835052 0.40213403645833334  9.618143221649486 0.01093260416666612  10.095747654639176 0.01093260416666612  C 10.573352087628866 0.01093260416666612  10.9605468814433 0.4021606770833327  11 0.8847401562499997  L 11 15.784158359375  C 10.9605468814433 16.2667378125  10.573352087628866 16.657965911458334  10.095747654639176 16.657965911458334  Z M 10.707252242268039 16.396356614583333  C 10.36953481958763 16.737591927083333  9.821960515463918 16.737591927083333  9.484243092783503 16.396356614583333  L 2.9937916494845362 9.838296302083332  C 2.656074226804124 9.497060989583334  2.656074226804124 8.943782786458334  2.9937916494845362 8.602547473958332  C 3.3315090721649483 8.261312161458333  3.8790833762886603 8.261312161458333  4.216800798969072 8.602547473958332  L 10.707252242268044 15.160607786458334  C 11.044969664948452 15.501843072916666  11.044969664948452 16.055094635416665  10.707252242268039 16.396356614583333  Z M 9.484243092783505 16.396329947916666  C 9.146525670103093 16.055094635416665  9.146525670103093 15.501816432291664  9.484243092783505 15.160581119791665  L 15.974694536082477 8.602520807291665  C 16.312411958762887 8.261285494791665  16.8599862628866 8.261285494791665  17.197703685567014 8.602520807291665  C 17.535421108247423 8.943756119791665  17.535421108247423 9.497034322916665  17.197703685567014 9.838269635416665  L 10.707252242268039 16.396356614583333  C 10.369508453608244 16.737591901041668  9.821960515463918 16.737591901041668  9.484243092783505 16.396329947916666  Z " fill-rule="nonzero" fill="#000000" stroke="none" transform="matrix(1 0 0 1 2017 5791 )" />
  </g>
</svg>