<?xml version="1.0" encoding="utf-8"?>
<svg version="1.1" xmlns:xlink="http://www.w3.org/1999/xlink" width="64px" height="60px" xmlns="http://www.w3.org/2000/svg">
  <g transform="matrix(1 0 0 1 -60 -4085 )">
    <path d="M 56 11  C 60.41875 10.344827586206897  64 14.049568965517242  64 18.620689655172413  L 64 51.72413793103448  C 64 56.29525862068966  60.41875 60  56 60  L 8 60  C 3.58125 60  0 56.29525862068966  0 51.72413793103448  L 0 4.137931034482759  C 0 1.8491379310344822  1.79375 0  4 0  L 21.94375 0  C 23.2375 0  24.450000000000003 0.646551724137931  25.200000000000003 1.7327586206896548  L 29.950000000000003 8.612068965517242  C 30.700000000000003 9.698275862068966  31.9125 10.344827586206897  33.206250000000004 11  L 56 11  Z " fill-rule="nonzero" fill="#e7772d" stroke="none" transform="matrix(1 0 0 1 60 4085 )" />
  </g>
</svg>