<?xml version="1.0" encoding="utf-8"?>
<svg version="1.1" xmlns:xlink="http://www.w3.org/1999/xlink" width="4px" height="6px" xmlns="http://www.w3.org/2000/svg">
  <g transform="matrix(1 0 0 1 -2063 -5800 )">
    <path d="M 1.1321212045454532 5.766666666666666  C 1.054545454545454 5.766666666666666  0.8993939318181803 5.837777770833332  0.7442424318181818 5.837777770833334  C 0.5890909090909081 5.837777770833334  0.4339394090909097 5.802222208333333  0.31757575000000055 5.6955555625  C 0.08484847727272764 5.482222229166666  0.08484847727272764 5.162222229166666  0.31757575000000055 4.948888895833332  L 2.4509090909090916 2.9933333333333323  L 0.31757575000000055 1.0377777708333322  C 0.08484847727272764 0.8244444374999986  0.08484847727272764 0.5044444374999983  0.31757575000000055 0.29111110416666486  C 0.5503030227272735 0.0777777708333313  0.899393931818183 0.0777777708333313  1.1321212045454558 0.29111110416666486  L 3.6921212045454554 2.637777770833331  C 3.808484840909092 2.7444444374999977  3.8472727272727294 2.886666666666666  3.8472727272727294 3.0288888958333304  C 3.8472727272727294 3.171111124999996  3.76969697727273 3.3133333333333304  3.6921212045454554 3.4199999999999973  L 1.1321212045454532 5.766666666666666  Z " fill-rule="nonzero" fill="#333333" stroke="none" transform="matrix(1 0 0 1 2063 5800 )" />
  </g>
</svg>