<?xml version="1.0" encoding="utf-8"?>
<svg version="1.1" xmlns:xlink="http://www.w3.org/1999/xlink" width="21px" height="20px" xmlns="http://www.w3.org/2000/svg">
  <g transform="matrix(1 0 0 1 -2052 -5791 )">
    <path d="M 21 17.85275363043478  C 20.95333331875 18.92869565217391  20.05733331875 19.856231891304347  18.937333340625003 19.856231891304347  L 2.062666659375 19.856231891304347  C 0.9426666593749999 19.856231891304347  0.04666665937500016 18.96579710869565  0 17.852753630434783  L 0 2.1217391304347823  C 0.04666665937500016 1.0086956521739128  0.9426666593749999 0.11826086956521735  2.062666659375 0.11826086956521735  L 7.550666659375 0.11826086956521735  C 7.924 0.11826086956521735  8.29733331875 0.3037681086956521  8.558666659375 0.5634782608695652  L 10.724 3.160579717391304  C 10.761333340625 3.1976811739130433  10.798666659375 3.2347826086956517  10.873333340625 3.2347826086956517  L 18.974666659375004 3.2347826086956517  C 20.094666659375 3.2347826086956517  20.990666659375 4.125217391304348  21 5.238260869565217  L 21 17.85275363043478  Z M 7.513333340625001 1.2313043478260886  L 2.062666659375 1.231304347826087  C 1.577333340625 1.231304347826087  1.166666659375 1.6023188478260872  1.166666659375 2.1217391304347823  L 1.166666659375 17.852753630434783  C 1.166666659375 18.335072478260873  1.5773333187499998 18.74318841304348  2.0626666593749996 18.74318841304348  L 18.900000000000002 18.74318841304348  C 19.385333340625 18.74318841304348  19.796 18.335072478260873  19.796 17.852753630434783  L 19.796 5.2382608695652175  C 19.796 4.7559420217391315  19.385333340625 4.347826086956522  18.900000000000002 4.347826086956522  L 10.836 4.347826086956522  C 10.462666659375001 4.347826086956522  10.089333340625 4.162318847826088  9.828000000000001 3.9026086956521757  L 7.662666659375001 1.3055072391304363  C 7.625333318750001 1.2684057826086972  7.588 1.2313043478260886  7.513333340625001 1.2313043478260886  Z " fill-rule="nonzero" fill="#333333" stroke="none" transform="matrix(1 0 0 1 2052 5791 )" />
  </g>
</svg>