<?xml version="1.0" encoding="utf-8"?>
<svg version="1.1" xmlns:xlink="http://www.w3.org/1999/xlink" width="4px" height="10px" xmlns="http://www.w3.org/2000/svg">
  <g transform="matrix(1 0 0 1 -145 -4434 )">
    <path d="M 3.9532467532467535 2.280092592592593  C 3.9982683982683986 2.3418209876543203  4.006926406926407 2.409336419753086  3.979220779220779 2.4826388888888884  C 3.948051948051948 2.5559413580246906  3.897835497835498 2.592592592592593  3.8285714285714287 2.592592592592593  L 2.664935064935065 2.592592592592593  L 2.664935064935065 9.814814814814815  C 2.664935064935065 9.868827160493828  2.6493506493506493 9.913194444444445  2.618181818181818 9.947916666666666  C 2.587012987012987 9.98263888888889  2.547186147186147 10  2.498701298701299 10  L 1.5012987012987014 10  C 1.452813852813853 10  1.412987012987013 9.98263888888889  1.3818181818181818 9.947916666666666  C 1.3506493506493507 9.913194444444445  1.335064935064935 9.868827160493828  1.335064935064935 9.814814814814815  L 1.335064935064935 2.592592592592593  L 0.17142857142857143 2.592592592592593  C 0.0987012987012987 2.592592592592593  0.048484848484848485 2.5559413580246906  0.02077922077922078 2.4826388888888884  C -0.00692640692640693 2.409336419753086  0.0017316017316017277 2.3418209876543203  0.046753246753246755 2.280092592592593  L 1.864935064935065 0.057870370370370905  C 1.8995670995670997 0.01929012345678993  1.9393939393939397 0  1.9844155844155844 0  C 2.032900432900433 0  2.0744588744588746 0.01929012345678993  2.109090909090909 0.057870370370370905  L 3.9532467532467535 2.280092592592593  Z " fill-rule="nonzero" fill="#333333" stroke="none" transform="matrix(1 0 0 1 145 4434 )" />
  </g>
</svg>