<?xml version="1.0" encoding="utf-8"?>
<svg version="1.1" xmlns:xlink="http://www.w3.org/1999/xlink" width="12px" height="8px" xmlns="http://www.w3.org/2000/svg">
  <g transform="matrix(1 0 0 1 -4386 -385 )">
    <path d="M 6 1.3217500000000002  C 4.0635 1.3217500000000002  2.4915000000000003 2.1925  1.2172500000000002 4.003750000000001  C 2.4735 5.809749999999999  4.0447500000000005 6.678250000000001  6 6.678250000000001  C 7.9552499999999995 6.678250000000001  9.5265 5.809750000000001  10.78275 4.003750000000002  C 9.508500000000002 2.1925  7.9365000000000006 1.3224999999999993  6 1.3224999999999993  Z M 12 4  C 10.506 6.499750000000001  8.5065 7.75  6 7.75  C 3.4934999999999996 7.75  1.494 6.499750000000001  0 4  C 1.5164999999999997 1.5002499999999999  3.516 0.25  6 0.25  C 8.484 0.25  10.4835 1.5002499999999999  12 4  Z M 5.999999999999999 6.142749999999998  C 7.183408147699934 6.142749999999998  8.14275 5.183408147699931  8.14275 3.9999999999999987  C 8.14275 2.8165918523000664  7.183408147699934 1.8572499999999983  5.999999999999999 1.8572499999999983  C 4.816591852300066 1.8572499999999983  3.857249999999999 2.8165918523000664  3.857249999999999 3.9999999999999987  C 3.857249999999999 5.183408147699931  4.816591852300066 6.142749999999998  5.999999999999999 6.142749999999998  Z M 6 4.75  C 5.585786437626905 4.75  5.25 4.414213562373095  5.25 4  C 5.25 3.585786437626905  5.585786437626905 3.25  6 3.25  C 6.414213562373095 3.25  6.75 3.585786437626905  6.75 4  C 6.75 4.414213562373095  6.414213562373095 4.75  6 4.75  Z " fill-rule="nonzero" fill="#ffffff" stroke="none" transform="matrix(1 0 0 1 4386 385 )" />
  </g>
</svg>