<?xml version="1.0" encoding="utf-8"?>
<svg version="1.1" xmlns:xlink="http://www.w3.org/1999/xlink" width="250px" height="192px" xmlns="http://www.w3.org/2000/svg">
  <g transform="matrix(1 0 0 1 -1144 -6808 )">
    <path d="M 1145 6813  A 4 4 0 0 1 1149 6809 L 1389 6809  A 4 4 0 0 1 1393 6813 L 1393 6995  A 4 4 0 0 1 1389 6999 L 1149 6999  A 4 4 0 0 1 1145 6995 L 1145 6813  Z " fill-rule="nonzero" fill="#ffffff" stroke="none" />
    <path d="M 1144.5 6813  A 4.5 4.5 0 0 1 1149 6808.5 L 1389 6808.5  A 4.5 4.5 0 0 1 1393.5 6813 L 1393.5 6995  A 4.5 4.5 0 0 1 1389 6999.5 L 1149 6999.5  A 4.5 4.5 0 0 1 1144.5 6995 L 1144.5 6813  Z " stroke-width="1" stroke-dasharray="9,4" stroke="#797979" fill="none" stroke-dashoffset="0.5" />
  </g>
</svg>