<?xml version="1.0" encoding="utf-8"?>
<svg version="1.1" xmlns:xlink="http://www.w3.org/1999/xlink" width="51px" height="10px" preserveAspectRatio="xMinYMid meet" viewBox="1065.3333333333333 7006  51 8" xmlns="http://www.w3.org/2000/svg">
  <path d="M 1026 6891  L 1065.3333333333333 6891  A 5 5 0 0 1 1070.3333333333333 6896 L 1070.3333333333333 7005  A 5 5 0 0 0 1075.3333333333333 7010 L 1114 7010  " stroke-width="2" stroke="#0066ff" fill="none" />
  <path d="M 1027.5 6887.5  A 3.5 3.5 0 0 0 1024 6891 A 3.5 3.5 0 0 0 1027.5 6894.5 A 3.5 3.5 0 0 0 1031 6891 A 3.5 3.5 0 0 0 1027.5 6887.5 Z M 1106.6 7018  L 1116 7010  L 1106.6 7002  L 1110.2 7010  L 1106.6 7018  Z " fill-rule="nonzero" fill="#0066ff" stroke="none" />
</svg>