<?xml version="1.0" encoding="utf-8"?>
<svg version="1.1" xmlns:xlink="http://www.w3.org/1999/xlink" width="10px" height="102px" preserveAspectRatio="xMidYMin meet" viewBox="471.33333333333326 7151  8 102" xmlns="http://www.w3.org/2000/svg">
  <path d="M 368 7248  L 470.33333333333326 7248  A 5 5 0 0 0 475.33333333333326 7243 L 475.33333333333326 7161  A 5 5 0 0 1 480.33333333333326 7156 L 549 7156  " stroke-width="2" stroke="#0066ff" fill="none" />
  <path d="M 369.5 7244.5  A 3.5 3.5 0 0 0 366 7248 A 3.5 3.5 0 0 0 369.5 7251.5 A 3.5 3.5 0 0 0 373 7248 A 3.5 3.5 0 0 0 369.5 7244.5 Z M 541.6 7164  L 551 7156  L 541.6 7148  L 545.2 7156  L 541.6 7164  Z " fill-rule="nonzero" fill="#0066ff" stroke="none" />
</svg>