<?xml version="1.0" encoding="utf-8"?>
<svg version="1.1" xmlns:xlink="http://www.w3.org/1999/xlink" width="35px" height="34px" preserveAspectRatio="xMinYMid meet" viewBox="532 7034  35 32" xmlns="http://www.w3.org/2000/svg">
  <path d="M 368 7182  L 451.33333333333326 7182  A 5 5 0 0 0 456.33333333333326 7177 L 456.33333333333326 7055  A 5 5 0 0 1 461.33333333333326 7050 L 549 7050  " stroke-width="2" stroke="#0066ff" fill="none" />
  <path d="M 369.5 7178.5  A 3.5 3.5 0 0 0 366 7182 A 3.5 3.5 0 0 0 369.5 7185.5 A 3.5 3.5 0 0 0 373 7182 A 3.5 3.5 0 0 0 369.5 7178.5 Z M 541.6 7058  L 551 7050  L 541.6 7042  L 545.2 7050  L 541.6 7058  Z " fill-rule="nonzero" fill="#0066ff" stroke="none" />
</svg>