<?xml version="1.0" encoding="utf-8"?>
<svg version="1.1" xmlns:xlink="http://www.w3.org/1999/xlink" width="35px" height="34px" preserveAspectRatio="xMinYMid meet" viewBox="847 7618  35 32" xmlns="http://www.w3.org/2000/svg">
  <path d="M 683 7826  L 742.3333333333333 7826  A 5 5 0 0 0 747.3333333333333 7821 L 747.3333333333333 7639  A 5 5 0 0 1 752.3333333333333 7634 L 864 7634  " stroke-width="2" stroke="#0066ff" fill="none" />
  <path d="M 684.5 7822.5  A 3.5 3.5 0 0 0 681 7826 A 3.5 3.5 0 0 0 684.5 7829.5 A 3.5 3.5 0 0 0 688 7826 A 3.5 3.5 0 0 0 684.5 7822.5 Z M 856.6 7642  L 866 7634  L 856.6 7626  L 860.2 7634  L 856.6 7642  Z " fill-rule="nonzero" fill="#0066ff" stroke="none" />
</svg>