<?xml version="1.0" encoding="utf-8"?>
<svg version="1.1" xmlns:xlink="http://www.w3.org/1999/xlink" width="124px" height="10px" preserveAspectRatio="xMinYMid meet" viewBox="742.3333333333333 6834  124 8" xmlns="http://www.w3.org/2000/svg">
  <path d="M 683 6944  L 742.3333333333333 6944  A 5 5 0 0 0 747.3333333333333 6939 L 747.3333333333333 6843  A 5 5 0 0 1 752.3333333333333 6838 L 864 6838  " stroke-width="2" stroke="#0066ff" fill="none" />
  <path d="M 684.5 6940.5  A 3.5 3.5 0 0 0 681 6944 A 3.5 3.5 0 0 0 684.5 6947.5 A 3.5 3.5 0 0 0 688 6944 A 3.5 3.5 0 0 0 684.5 6940.5 Z M 856.6 6846  L 866 6838  L 856.6 6830  L 860.2 6838  L 856.6 6846  Z " fill-rule="nonzero" fill="#0066ff" stroke="none" />
</svg>