<?xml version="1.0" encoding="utf-8"?>
<svg version="1.1" xmlns:xlink="http://www.w3.org/1999/xlink" width="21px" height="20px" preserveAspectRatio="xMinYMid meet" viewBox="674 7041  21 18" xmlns="http://www.w3.org/2000/svg">
  <path d="M 683 7050  L 792.5578231292516 7050  A 5 5 0 0 0 797.5578231292516 7045 L 797.5578231292516 6949  A 5 5 0 0 1 802.5578231292516 6944 L 864 6944  " stroke-width="2" stroke="#0066ff" fill="none" />
  <path d="M 684.5 7046.5  A 3.5 3.5 0 0 0 681 7050 A 3.5 3.5 0 0 0 684.5 7053.5 A 3.5 3.5 0 0 0 688 7050 A 3.5 3.5 0 0 0 684.5 7046.5 Z M 856.6 6952  L 866 6944  L 856.6 6936  L 860.2 6944  L 856.6 6952  Z " fill-rule="nonzero" fill="#0066ff" stroke="none" />
</svg>