<?xml version="1.0" encoding="utf-8"?>
<svg version="1.1" xmlns:xlink="http://www.w3.org/1999/xlink" width="10px" height="182px" preserveAspectRatio="xMidYMin meet" viewBox="432.33333333333326 6939  8 182" xmlns="http://www.w3.org/2000/svg">
  <path d="M 368 7116  L 431.33333333333326 7116  A 5 5 0 0 0 436.33333333333326 7111 L 436.33333333333326 6949  A 5 5 0 0 1 441.33333333333326 6944 L 549 6944  " stroke-width="2" stroke="#0066ff" fill="none" />
  <path d="M 369.5 7112.5  A 3.5 3.5 0 0 0 366 7116 A 3.5 3.5 0 0 0 369.5 7119.5 A 3.5 3.5 0 0 0 373 7116 A 3.5 3.5 0 0 0 369.5 7112.5 Z M 541.6 6952  L 551 6944  L 541.6 6936  L 545.2 6944  L 541.6 6952  Z " fill-rule="nonzero" fill="#0066ff" stroke="none" />
</svg>