<?xml version="1.0" encoding="utf-8"?>
<svg version="1.1" xmlns:xlink="http://www.w3.org/1999/xlink" width="75px" height="10px" preserveAspectRatio="xMinYMid meet" viewBox="366.33333333333326 7762  75 8" xmlns="http://www.w3.org/2000/svg">
  <path d="M 368 7766  L 431.33333333333326 7766  A 5 5 0 0 1 436.33333333333326 7771 L 436.33333333333326 7821  A 5 5 0 0 0 441.33333333333326 7826 L 549 7826  " stroke-width="2" stroke="#0066ff" fill="none" />
  <path d="M 369.5 7762.5  A 3.5 3.5 0 0 0 366 7766 A 3.5 3.5 0 0 0 369.5 7769.5 A 3.5 3.5 0 0 0 373 7766 A 3.5 3.5 0 0 0 369.5 7762.5 Z M 541.6 7834  L 551 7826  L 541.6 7818  L 545.2 7826  L 541.6 7834  Z " fill-rule="nonzero" fill="#0066ff" stroke="none" />
</svg>