<?xml version="1.0" encoding="utf-8"?>
<svg version="1.1" xmlns:xlink="http://www.w3.org/1999/xlink" width="51px" height="10px" preserveAspectRatio="xMinYMid meet" viewBox="1065.3333333333333 7802  51 8" xmlns="http://www.w3.org/2000/svg">
  <path d="M 1026 7687  L 1065.3333333333333 7687  A 5 5 0 0 1 1070.3333333333333 7692 L 1070.3333333333333 7801  A 5 5 0 0 0 1075.3333333333333 7806 L 1114 7806  " stroke-width="2" stroke="#0066ff" fill="none" />
  <path d="M 1027.5 7683.5  A 3.5 3.5 0 0 0 1024 7687 A 3.5 3.5 0 0 0 1027.5 7690.5 A 3.5 3.5 0 0 0 1031 7687 A 3.5 3.5 0 0 0 1027.5 7683.5 Z M 1106.6 7814  L 1116 7806  L 1106.6 7798  L 1110.2 7806  L 1106.6 7814  Z " fill-rule="nonzero" fill="#0066ff" stroke="none" />
</svg>