<?xml version="1.0" encoding="utf-8"?>
<svg version="1.1" xmlns:xlink="http://www.w3.org/1999/xlink" width="73.77551020408168px" height="10px" preserveAspectRatio="xMinYMid meet" viewBox="792.5578231292516 7736  73.77551020408168 8" xmlns="http://www.w3.org/2000/svg">
  <path d="M 683 7978  L 792.5578231292516 7978  A 5 5 0 0 0 797.5578231292516 7973 L 797.5578231292516 7745  A 5 5 0 0 1 802.5578231292516 7740 L 864 7740  " stroke-width="2" stroke="#0066ff" fill="none" />
  <path d="M 684.5 7974.5  A 3.5 3.5 0 0 0 681 7978 A 3.5 3.5 0 0 0 684.5 7981.5 A 3.5 3.5 0 0 0 688 7978 A 3.5 3.5 0 0 0 684.5 7974.5 Z M 856.6 7748  L 866 7740  L 856.6 7732  L 860.2 7740  L 856.6 7748  Z " fill-rule="nonzero" fill="#0066ff" stroke="none" />
</svg>