<?xml version="1.0" encoding="utf-8"?>
<svg version="1.1" xmlns:xlink="http://www.w3.org/1999/xlink" width="21px" height="20px" preserveAspectRatio="xMinYMid meet" viewBox="359 7903  21 18" xmlns="http://www.w3.org/2000/svg">
  <path d="M 368 7912  L 431.33333333333326 7912  A 5 5 0 0 0 436.33333333333326 7907 L 436.33333333333326 7831  A 5 5 0 0 1 441.33333333333326 7826 L 549 7826  " stroke-width="2" stroke="#0066ff" fill="none" />
  <path d="M 369.5 7908.5  A 3.5 3.5 0 0 0 366 7912 A 3.5 3.5 0 0 0 369.5 7915.5 A 3.5 3.5 0 0 0 373 7912 A 3.5 3.5 0 0 0 369.5 7908.5 Z M 541.6 7834  L 551 7826  L 541.6 7818  L 545.2 7826  L 541.6 7834  Z " fill-rule="nonzero" fill="#0066ff" stroke="none" />
</svg>