<?xml version="1.0" encoding="utf-8"?>
<svg version="1.1" xmlns:xlink="http://www.w3.org/1999/xlink" width="250px" height="258px" xmlns="http://www.w3.org/2000/svg">
  <g transform="matrix(1 0 0 1 -176 -6755 )">
    <path d="M 177 6760  A 4 4 0 0 1 181 6756 L 421 6756  A 4 4 0 0 1 425 6760 L 425 7008  A 4 4 0 0 1 421 7012 L 181 7012  A 4 4 0 0 1 177 7008 L 177 6760  Z " fill-rule="nonzero" fill="#ffffff" stroke="none" />
    <path d="M 176.5 6760  A 4.5 4.5 0 0 1 181 6755.5 L 421 6755.5  A 4.5 4.5 0 0 1 425.5 6760 L 425.5 7008  A 4.5 4.5 0 0 1 421 7012.5 L 181 7012.5  A 4.5 4.5 0 0 1 176.5 7008 L 176.5 6760  Z " stroke-width="1" stroke-dasharray="9,4" stroke="#797979" fill="none" stroke-dashoffset="0.5" />
  </g>
</svg>