<?xml version="1.0" encoding="utf-8"?>
<svg version="1.1" xmlns:xlink="http://www.w3.org/1999/xlink" width="19px" height="11px" xmlns="http://www.w3.org/2000/svg">
  <defs>
    <linearGradient gradientUnits="userSpaceOnUse" x1="9.54478117037037" y1="0" x2="9.54478117037037" y2="10.901918598717952" id="LinearGradient5572">
      <stop id="Stop5573" stop-color="#f9ab21" offset="0" />
      <stop id="Stop5574" stop-color="#fff29d" stop-opacity="0" offset="1" />
    </linearGradient>
  </defs>
  <g transform="matrix(1 0 0 1 -2120 -2595 )">
    <path d="M 16.673975244444446 4.974000364102565  C 18.04827761481481 5.450959292307693  18.9931106 6.541151156410256  18.9931106 7.835753989743591  C 18.9931106 9.539178775641025  17.36112642962963 10.901918598717954  15.299672733333338 11  L 3.875783540740738 11  C 1.8143298444444478 10.765644605128205  0.09645174074073314 9.471041771794871  0.09645174074073314 7.699480010256409  C 0.09645174074073314 6.541151156410256  0.8694968592592575 5.519096282051283  1.9861175703703733 4.974000364102565  C 1.9002236370370325 4.769589380769231  1.8143298444444478 4.565178411538463  1.8143298444444478 4.360767442307693  C 1.8143298444444478 3.20243858846154  2.930950555555548 2.180383714102563  4.391146859259255 2.180383714102563  C 4.9924042518518545 2.180383714102563  5.507767711111112 2.384794697435897  5.937237237037044 2.657342656410258  C 6.967964014814819 1.0901918598717946  8.857629844444444 0  11.0908714074074 0  C 14.183052022222222 0  16.673975244444446 2.1122467243589726  16.673975244444446 4.70145239102564  L 16.673975244444446 4.974000364102565  Z " fill-rule="nonzero" fill="url(#LinearGradient5572)" stroke="none" transform="matrix(1 0 0 1 2120 2595 )" />
  </g>
</svg>