<?xml version="1.0" encoding="utf-8"?>
<svg version="1.1" xmlns:xlink="http://www.w3.org/1999/xlink" width="26px" height="14px" xmlns="http://www.w3.org/2000/svg">
  <defs>
    <linearGradient gradientUnits="userSpaceOnUse" x1="13.0058650967742" y1="0.02797199999999922" x2="13.0058650967742" y2="13.880785857142854" id="LinearGradient5575">
      <stop id="Stop5576" stop-color="#f9ab21" offset="0" />
      <stop id="Stop5577" stop-color="#fff29d" stop-opacity="0" offset="1" />
    </linearGradient>
  </defs>
  <g transform="matrix(1 0 0 1 -2040 -2613 )">
    <path d="M 7.876640451612904 2.845011999999997  C 9.083957860215055 1.1383605714285718  11.048363118279568 0.027972000000001374  13.266536344086017 0.027972000000001374  C 16.16069223655914 0.027972000000001374  18.622842333333338 1.9182597142857147  19.535380967741933 4.556666285714284  L 23.462854301075268 4.556776571428567  C 24.813873430107527 4.556776571428567  25.909090860215056 5.676064714285709  25.909090860215056 7.056776571428568  L 25.909090860215056 11.380785857142858  C 25.909090860215056 12.761497714285715  24.813873430107527 13.880785857142858  23.462854301075268 13.880785857142858  L 3.3308894946236576 13.880785857142858  C 1.979870365591395 13.880785857142858  0.8846529354838689 12.761497714285715  0.8846529354838689 11.380785857142858  L 0.8846909569892447 10.295326285714282  C 0.38894015053763537 9.479975999999997  0.10263933333333208 8.517747142857145  0.10263933333333208 7.487179428571428  C 0.10263933333333208 4.54460342857143  2.4367689247311852 2.1591741428571414  5.3160638602150545 2.1591741428571414  C 6.246672634408603 2.1591741428571414  7.120331903225806 2.4083630000000005  7.876640451612904 2.845011999999997  Z " fill-rule="nonzero" fill="url(#LinearGradient5575)" stroke="none" transform="matrix(1 0 0 1 2040 2613 )" />
  </g>
</svg>