<?xml version="1.0" encoding="utf-8"?>
<svg version="1.1" xmlns:xlink="http://www.w3.org/1999/xlink" width="25px" height="15px" xmlns="http://www.w3.org/2000/svg">
  <defs>
    <linearGradient gradientUnits="userSpaceOnUse" x1="12.558922592592591" y1="0" x2="12.558922592592591" y2="14.866252634615389" id="LinearGradient5460">
      <stop id="Stop5461" stop-color="#f9ab21" offset="0" />
      <stop id="Stop5462" stop-color="#fff29d" stop-opacity="0" offset="1" />
    </linearGradient>
  </defs>
  <g transform="matrix(1 0 0 1 -838 -285 )">
    <path d="M 21.939441111111112 6.78272776923077  C 23.747733703703698 7.433126307692309  24.990935000000004 8.919751576923076  24.990935000000004 10.685119076923078  C 24.990935000000004 13.007971057692306  22.843587407407405 14.86625263461539  20.13114833333334 14.86625263461539  L 5.099715185185182 14.86625263461539  C 2.3872761111111154 14.680424461538461  0.1269101851851752 12.915056961538461  0.1269101851851752 10.499290923076922  C 0.1269101851851752 8.919751576923076  1.1440748148148125 7.526040384615386  2.6133125925925964 6.78272776923077  C 2.500294259259253 6.50398551923077  2.3872761111111154 6.225243288461542  2.3872761111111154 5.946501057692308  C 2.3872761111111154 4.366961711538464  3.8565138888888786 2.973250519230768  5.777824814814809 2.973250519230768  C 6.568952962962967 2.973250519230768  7.247062777777778 3.2519927692307684  7.812154259259269 3.6236490769230794  C 9.16837370370371 1.486625263461538  11.654776111111111 0  14.593251851851843 0  C 18.661910555555554 0  21.939441111111112 2.88033644230769  21.939441111111112 6.4110714423076915  L 21.939441111111112 6.78272776923077  Z " fill-rule="nonzero" fill="url(#LinearGradient5460)" stroke="none" transform="matrix(1 0 0 1 838 285 )" />
  </g>
</svg>