<?xml version="1.0" encoding="utf-8"?>
<svg version="1.1" xmlns:xlink="http://www.w3.org/1999/xlink" width="35px" height="19px" xmlns="http://www.w3.org/2000/svg">
  <defs>
    <linearGradient gradientUnits="userSpaceOnUse" x1="17.507895322580655" y1="0.03796199999999894" x2="17.507895322580655" y2="18.838209377551014" id="LinearGradient5463">
      <stop id="Stop5464" stop-color="#f9ab21" offset="0" />
      <stop id="Stop5465" stop-color="#fff29d" stop-opacity="0" offset="1" />
    </linearGradient>
  </defs>
  <g transform="matrix(1 0 0 1 -731 -308 )">
    <path d="M 10.603169838709677 3.8610877142857105  C 12.228404811827959 1.5449179183673474  14.872796505376343 0.03796200000000187  17.858798924731175 0.03796200000000187  C 21.754778010752688 0.03796200000000187  25.06921083333334 2.6033524693877554  26.29762822580645 6.184047102040814  L 31.584611559139784 6.184196775510198  C 33.403291155913976 6.184196775510198  34.877622311827956 7.703230683673462  34.877622311827956 9.57705391836734  L 34.877622311827956 15.445352234693878  C 34.877622311827956 17.31917546938776  33.403291155913976 18.83820937755102  31.584611559139784 18.83820937755102  L 4.4838897043010775 18.83820937755102  C 2.6652101075268777 18.83820937755102  1.1908789516129004 17.31917546938776  1.1908789516129004 15.445352234693878  L 1.1909301344085987 13.97222853061224  C 0.5235732795698937 12.86568171428571  0.13816833333333164 11.559799693877554  0.13816833333333164 10.161172081632653  C 0.13816833333333164 6.1676760816326555  3.280265860215057 2.9303077653061207  7.156239811827958 2.9303077653061207  C 8.408982392473119 2.9303077653061207  9.585062177419355 3.2684926428571432  10.603169838709677 3.8610877142857105  Z " fill-rule="nonzero" fill="url(#LinearGradient5463)" stroke="none" transform="matrix(1 0 0 1 731 308 )" />
  </g>
</svg>