<?xml version="1.0" encoding="utf-8"?>
<svg version="1.1" xmlns:xlink="http://www.w3.org/1999/xlink" width="18px" height="10px" xmlns="http://www.w3.org/2000/svg">
  <g transform="matrix(1 0 0 1 -757 -333 )">
    <path d="M 8.460658950000006 4.330107716981137  C 9.5422580625 1.901838737735853  11.47381042500001 0.49523899245283665  14.255275162500002 0.11056641509434106  C 15.737981137500007 0.18803364094339342  16.243248187500008 0.4580093830188745  15.43129501875 1.1610559754717007  C 15.250361212500003 1.3208047415094346  15.0343245 1.5080817679245337  14.82825459375001 1.7027705886792486  L 14.769687600000005 1.7585802698113184  C 14.759984625000001 1.7679097056603745  14.750313956250004 1.7772516018867957  14.740680506250008 1.7866037905660392  L 14.683365150000004 1.8428230207547145  L 14.627176181250007 1.8991849528301912  C 14.108729099999998 2.425571226415093  13.767988875000004 2.956980132075477  14.459610637499999 3.1119438490566047  C 14.49125572500001 3.1345767735849077  14.530306012500002 3.1573940943396233  14.571183824999999 3.1815697547169814  L 14.593628531250005 3.1948982264150945  C 14.891142993750009 3.3726415283018913  15.230749856250004 3.6317210754717006  13.536107043750004 4.409141773584911  C 13.924881881250005 4.49268516981132  14.311845637500003 4.594629867924532  14.696830631250002 4.714789886792458  C 15.60170143125 5.226891999999999  17.036911875000005 6.042263037735846  17.905709625 6.375444245283017  C 17.348641500000003 6.703742320754717  16.836182981249998 7.122805339622637  16.368333937499997 7.632633301886798  L 17.2838390625 7.632633301886798  C 11.35601656875 10.68850445283019  7.180090556250001 10.68850445283019  4.756061100000007 7.632633301886798  C 4.745978193750002 7.586657566037733  4.736802843749999 7.538962981132077  4.728535031250004 7.489549566037734  C 4.373658506250003 7.613182018867927  3.9922736249999993 7.680432792452835  3.595279650000002 7.680432792452835  C 1.6835247375000009 7.680432792452835  0.13374118125000933 6.120902169811323  0.13374118125000933 4.197123660377365  C 0.13374118125000933 2.2733451320754763  1.6835247375000009 0.7138145132075526  3.595279650000002 0.7138145132075526  C 5.5070345437500094 0.7138145132075526  7.056818118750005 2.2733451320754763  7.056818118750005 4.197123660377365  C 7.056818118750005 4.3526101698113235  7.046694243750007 4.50571724528302  7.027073643750008 4.6558138301886824  C 7.50764431875 4.522265528301888  7.985506368750009 4.413697037735846  8.460658950000006 4.330107716981137  Z " fill-rule="nonzero" fill="#be841d" stroke="none" transform="matrix(1 0 0 1 757 333 )" />
  </g>
</svg>