<?xml version="1.0" encoding="utf-8"?>
<svg version="1.1" xmlns:xlink="http://www.w3.org/1999/xlink" width="14px" height="8px" xmlns="http://www.w3.org/2000/svg">
  <g transform="matrix(1 0 0 1 -2060 -2631 )">
    <path d="M 6.580512516666671 3.4640861735849096  C 7.421756270833334 1.5214709901886825  8.924074775000008 0.3961911939622693  11.0874362375 0.08845313207547285  C 12.240651995833339 0.15042691275471473  12.633637479166673 0.3664075064150996  12.002118347916667 0.9288447803773605  C 11.861392054166668 1.0566437932075476  11.6933635 1.206465414339627  11.53308690625001 1.3622164709433988  L 11.487534800000002 1.4068642158490547  C 11.479988041666669 1.4143277645282997  11.472466410416668 1.4218012815094365  11.46497372708334 1.4292830324528314  L 11.420395116666668 1.4742584166037715  L 11.376692585416674 1.519347962264153  C 10.973455966666666 1.9404569811320744  10.70843579166667 2.3655841056603815  11.246363829166665 2.489555079245284  C 11.270976675000007 2.5076614188679263  11.301349120833336 2.5259152754716987  11.333142974999998 2.545255803773585  L 11.350599968750004 2.5559185811320755  C 11.582000106250007 2.698113222641513  11.846138777083336 2.9053768603773604  10.528083256250003 3.5273134188679287  C 10.830463685416671 3.594148135849056  11.131435495833337 3.675703894339625  11.43086826875 3.771831909433966  C 12.13465666875 4.1815136  13.250931458333337 4.833810430188676  13.926663041666668 5.100355396226414  C 13.493387833333337 5.362993856603774  13.094808985416666 5.69824427169811  12.730926395833333 6.106106641509438  L 13.442985937500001 6.106106641509438  C 8.832457331250001 8.550803562264152  5.584514877083334 8.550803562264152  3.699158633333339 6.106106641509438  C 3.6913163729166683 6.069326052830187  3.6841799895833325 6.0311703849056615  3.677749468750003 5.991639652830187  C 3.4017343937500018 6.090545615094341  3.1051017083333328 6.144346233962268  2.796328616666668 6.144346233962268  C 1.3094081291666675 6.144346233962268  0.10402091875000727 4.8967217358490585  0.10402091875000727 3.3576989283018914  C 0.10402091875000727 1.818676105660381  1.3094081291666675 0.5710516105660421  2.796328616666668 0.5710516105660421  C 4.283249089583341 0.5710516105660421  5.488636314583337 1.818676105660381  5.488636314583337 3.3576989283018914  C 5.488636314583337 3.4820881358490587  5.48076218958334 3.604573796226416  5.465501722916672 3.7246510641509456  C 5.839278914583334 3.617812422641511  6.210949397916673 3.530957630188677  6.580512516666671 3.4640861735849096  Z " fill-rule="nonzero" fill="#be841d" stroke="none" transform="matrix(1 0 0 1 2060 2631 )" />
  </g>
</svg>