<?xml version="1.0" encoding="utf-8"?>
<svg version="1.1" xmlns:xlink="http://www.w3.org/1999/xlink" width="9px" height="3px" xmlns="http://www.w3.org/2000/svg">
  <g transform="matrix(1 0 0 1 -771 -382 )">
    <path d="M 0.5995300775510117 1.2737947499999953  C 0.7451040122448898 0.8658186214285755  0.916604724489788 0.47092232142858037  1.1126194530612148 0.09235885714286139  L 2.960253018367344 0.16011518571429761  C 2.960253018367344 0.16011518571429761  3.1272309918367265 0.1513676357142799  3.132988861224484 0.4992674357142895  C 3.130436791836726 0.5866855714285829  3.0860151612244775 0.6651532714285833  3.017831620408153 0.7026846428571584  L 2.557842520408157 0.9061759714285651  C 2.783749499999994 0.9764381999999939  3.0148757632652936 1.0218351214285724  3.2481460653061127 1.0417627285714355  C 3.5545620489795877 1.0617855000000094  3.861708299999991 1.0617855000000094  4.168124283673467 1.0417627285714355  C 4.168124283673467 1.0417627285714355  4.368369875510196 1.017966471428573  4.340860089795916 1.3808408571428652  C 4.310791273469377 1.7634341357142975  4.225702885714275 2.330318871428566  4.225702885714275 2.330318871428566  C 4.225702885714275 2.330318871428566  4.18667737959183 2.717434242857142  3.7657137673469285 2.8047613928571553  C 3.224474871428564 2.917367335714289  1.9257573489795825 2.9403481285714372  1.9257573489795825 2.9403481285714372  C 1.5989143775510082 2.945350307142868  1.2721926673469284 2.922679842857154  0.9482005469387704 2.8725176142857225  C 0.6820594163265253 2.8243321285714273  0.1433795510203966 2.601270042857136  0.1433795510203966 2.601270042857136  C 0.1433795510203966 2.601270042857136  0.3756132734693818 1.9243739571428478  0.5995300775510117 1.2737947499999953  Z M 8.784649136938764 0.4355883428571425  C 8.739679957346935 0.26431253571428215  8.609670573061218 0.1416556500000021  8.45581130816326 0.12534745714285528  L 6.883275526530602 0.0167446071428604  C 6.883275526530602 0.0167446071428604  6.742527814285707 -0.007125792857128284  6.71629757142856 0.3219445499999958  C 6.711190695918361 0.4023552428571569  6.743351516326526 0.47985147857142296  6.800746206122439 0.5254359000000153  L 7.1788457204081535 0.7612486285714388  C 6.983212628571421 0.8066378785714262  6.784007987755097 0.8281054500000016  6.5845065306122414 0.8252983500000093  C 6.323039063265301 0.8155539428571421  6.062356891836727 0.7868085214285705  5.803996518367341 0.7392315214285645  C 5.803996518367341 0.7392315214285645  5.6350992673469325 0.6978660642857173  5.636364391836725 1.0443573428571378  C 5.637658297959179 1.4096780571428553  5.675404297959171 1.9547680071428561  5.675404297959171 1.9547680071428561  C 5.6927224102040705 2.1911222142857127  5.837252161224484 2.388876107142851  6.035590469387743 2.4475951071428637  C 6.4879024224489665 2.605050771428588  7.5889333708163225 2.7482730642857245  7.5889333708163225 2.7482730642857245  C 7.865707920612235 2.7835098000000063  8.144498507142846 2.792583900000011  8.422543667755091 2.7754052785714407  C 8.52426587387754 2.766064692857136  8.660535248571415 2.7917882785714188  8.756499594489789 2.716099885714292  C 8.839094363081625 2.6383624285714324  8.903543985551018 2.537862835714285  8.94394995373469 2.423798850000001  C 9.020165094183664 1.9712164071428493  9.017990423999986 1.505594550000012  8.937552330734686 1.0539944571428674  C 8.899871834571425 0.8437557857142954  8.848763436857137 0.6370515214285807  8.784649136938764 0.4355883428571425  Z " fill-rule="nonzero" fill="#fee0bc" stroke="none" transform="matrix(1 0 0 1 771 382 )" />
  </g>
</svg>