<?xml version="1.0" encoding="utf-8"?>
<svg version="1.1" xmlns:xlink="http://www.w3.org/1999/xlink" width="7px" height="2px" xmlns="http://www.w3.org/2000/svg">
  <g transform="matrix(1 0 0 1 -2070 -2668 )">
    <path d="M 0.4663011714285647 0.8491964999999969  C 0.5795253428571365 0.577212414285717  0.7129147857142796 0.31394821428572023  0.8653706857142782 0.06157257142857426  L 2.3024190142857117 0.10674345714286508  C 2.3024190142857117 0.10674345714286508  2.4322907714285646 0.10091175714285328  2.4367691142857097 0.33284495714285967  C 2.4347841714285647 0.39112371428572196  2.400234014285705 0.4434355142857222  2.3472023714285633 0.46845642857143893  L 1.9894330714285666 0.60411731428571  C 2.1651384999999954 0.650958799999996  2.344903371428562 0.6812234142857149  2.526335828571421 0.6945084857142904  C 2.7646593714285683 0.7078570000000062  3.0035508999999934 0.7078570000000062  3.2418744428571404 0.6945084857142904  C 3.2418744428571404 0.6945084857142904  3.3976210142857086 0.6786443142857154  3.376224514285712 0.9205605714285768  C 3.3528376571428486 1.175622757142865  3.286657799999992 1.5535459142857104  3.286657799999992 1.5535459142857104  C 3.286657799999992 1.5535459142857104  3.256304628571424 1.811622828571428  2.928888485714278 1.8698409285714368  C 2.5079248999999937 1.9449115571428592  1.497811271428564 1.9602320857142916  1.497811271428564 1.9602320857142916  C 1.2436000714285618 1.9635668714285788  0.9894831857142776 1.948453228571436  0.7374893142857104 1.9150117428571483  C 0.530490657142853 1.882888085714285  0.11151742857141958 1.734180028571424  0.11151742857141958 1.734180028571424  C 0.11151742857141958 1.734180028571424  0.2921436571428525 1.2829159714285652  0.4663011714285647 0.8491964999999969  Z M 6.832504884285705 0.2903922285714283  C 6.797528855714282 0.17620835714285477  6.69641044571428 0.0944371000000014  6.576742128571425 0.0835649714285702  L 5.353658742857135 0.011163071428573599  C 5.353658742857135 0.011163071428573599  5.244188299999995 -0.004750528571418856  5.223786999999991 0.21462969999999718  C 5.219814985714281 0.26823682857143794  5.244828957142853 0.319900985714282  5.2894692714285645 0.35029060000001017  L 5.583546671428564 0.5074990857142926  C 5.431387599999994 0.5377585857142841  5.2764506571428536 0.552070300000001  5.121282857142855 0.5501989000000062  C 4.917919271428567 0.543702628571428  4.715166471428566 0.5245390142857137  4.514219514285709 0.4928210142857097  C 4.514219514285709 0.4928210142857097  4.38285498571428 0.4652440428571448  4.383838971428563 0.6962382285714251  C 4.384845342857139 0.9397853714285702  4.4142033428571334 1.3031786714285707  4.4142033428571334 1.3031786714285707  C 4.427672985714277 1.4607481428571418  4.54008501428571 1.5925840714285673  4.694348142857133 1.6317300714285758  C 5.046146328571419 1.7367005142857255  5.90250373285714 1.8321820428571496  5.90250373285714 1.8321820428571496  C 6.11777282714285 1.8556732000000042  6.33460994999999 1.8617226000000073  6.550867297142848 1.8502701857142938  C 6.6299845685714205 1.8440431285714243  6.7359718599999905 1.8611921857142792  6.810610795714281 1.8107332571428612  C 6.874851171285709 1.7589082857142881  6.924978655428569 1.6919085571428565  6.956405519571424 1.6158659000000009  C 7.015683962142849 1.3141442714285663  7.01399255199999 1.003729700000008  6.951429590571422 0.7026629714285784  C 6.922122537999996 0.5625038571428637  6.882371561999995 0.42470101428572044  6.832504884285705 0.2903922285714283  Z " fill-rule="nonzero" fill="#fee0bc" stroke="none" transform="matrix(1 0 0 1 2070 2668 )" />
  </g>
</svg>