<?xml version="1.0" encoding="utf-8"?>
<svg version="1.1" xmlns:xlink="http://www.w3.org/1999/xlink" width="7px" height="12px" xmlns="http://www.w3.org/2000/svg">
  <defs>
    <linearGradient gradientUnits="userSpaceOnUse" x1="4.456053705009067" y1="3.144378358013533" x2="-7.510064978597176" y2="7.337378126747069" id="LinearGradient5629">
      <stop id="Stop5630" stop-color="#fee127" offset="0" />
      <stop id="Stop5631" stop-color="#f9ab21" offset="1" />
    </linearGradient>
  </defs>
  <g transform="matrix(1 0 0 1 -2069 -2658 )">
    <path d="M 1.4755458199999965 9.214556978313263  L 0.04675752199999238 0.11164930698795757  C 0.04675752199999238 0.11164930698795757  1.1707701599999905 0.6268195228915675  1.7218045459999907 1.578233869879519  C 2.629792185999994 3.146552053012044  3.1505928299999915 5.826387498795183  3.1505928299999915 5.826387498795183  C 3.1505928299999915 5.826387498795183  3.1925299559999893 6.641656872289157  3.7908655259999953 7.798689166265069  C 4.4418663379999925 9.057305016867478  4.677396975999993 9.214757045783141  4.677396975999993 9.214757045783141  C 4.677396975999993 9.214757045783141  5.607328453999995 9.866472375903621  5.859926519999996 9.922790978313246  C 6.1681156599999944 9.991613725301205  6.894213195799994 10.327374650602412  6.894213195799994 10.327374650602412  L 6.401695733999998 11.894892621686749  C 6.401695733999998 11.894892621686749  4.375059513999997 11.701078481927718  2.9530982039999913 11.035158506024093  C 1.8910159799999973 10.537444062650604  1.4755458199999965 9.214556978313263  1.4755458199999965 9.214556978313263  Z " fill-rule="nonzero" fill="url(#LinearGradient5629)" stroke="none" transform="matrix(1 0 0 1 2069 2658 )" />
  </g>
</svg>