<?xml version="1.0" encoding="utf-8"?>
<svg version="1.1" xmlns:xlink="http://www.w3.org/1999/xlink" width="10px" height="15px" xmlns="http://www.w3.org/2000/svg">
  <defs>
    <linearGradient gradientUnits="userSpaceOnUse" x1="6.590518586113463" y1="3.8611412618426577" x2="-2.5189279298993217" y2="5.70844228462724" id="LinearGradient5523">
      <stop id="Stop5524" stop-color="#fee127" offset="0" />
      <stop id="Stop5525" stop-color="#f9ab21" offset="1" />
    </linearGradient>
  </defs>
  <g transform="matrix(1 0 0 1 -762 -369 )">
    <path d="M 3.8957395185185133 1.8320089024390303  C 3.574515629629618 0.9909131615853677  2.8527294814814703 0.040400928658537553  2.8527294814814703 0.040400928658537553  C 2.8527294814814703 0.040400928658537553  1.5394527222222183 0.8716244999999944  1.0930934629629554 1.6400712256097587  C 0.4196844074074012 2.800113823170732  0.11587631481480307 8.038752475609753  0.11587631481480307 8.038752475609753  C 0.11587631481480307 8.038752475609753  0.001061333333325365 8.927816817073168  0.4416153703703613 9.63842279268292  C 0.9124857592592485 10.39782003658537  5.198695759259247 12.965785134146342  5.198695759259247 12.965785134146342  L 8.717322666666657 14.885351542682937  L 9.825480518518509 12.453824835365852  L 3.8305917037036954 8.102731701219517  C 3.8305917037036954 8.102731701219517  3.55516481481481 7.8882652682926775  3.5042076111111093 7.590834676829282  C 3.4571205740740685 7.3130218353658485  4.026035129629627 4.071534676829264  4.026035129629627 4.071534676829264  C 4.026035129629627 4.071534676829264  4.256310092592585 2.7765725121951332  3.8957395185185133 1.8320089024390303  Z " fill-rule="nonzero" fill="url(#LinearGradient5523)" stroke="none" transform="matrix(1 0 0 1 762 369 )" />
  </g>
</svg>