<?xml version="1.0" encoding="utf-8"?>
<svg version="1.1" xmlns:xlink="http://www.w3.org/1999/xlink" width="8px" height="12px" xmlns="http://www.w3.org/2000/svg">
  <defs>
    <linearGradient gradientUnits="userSpaceOnUse" x1="5.27241486889077" y1="3.088913009474126" x2="-2.0151423439194573" y2="4.566753827701792" id="LinearGradient5635">
      <stop id="Stop5636" stop-color="#fee127" offset="0" />
      <stop id="Stop5637" stop-color="#f9ab21" offset="1" />
    </linearGradient>
  </defs>
  <g transform="matrix(1 0 0 1 -2063 -2658 )">
    <path d="M 3.1165916148148107 1.4656071219512241  C 2.8596125037036946 0.7927305292682942  2.282183585185176 0.03232074292683004  2.282183585185176 0.03232074292683004  C 2.282183585185176 0.03232074292683004  1.2315621777777745 0.6972995999999956  0.8744747703703643 1.312056980487807  C 0.33574752592592094 2.240091058536586  0.09270105185184245 6.431001980487802  0.09270105185184245 6.431001980487802  C 0.09270105185184245 6.431001980487802  0.000849066666660292 7.142253453658535  0.35329229629628905 7.710738234146335  C 0.7299886074073988 8.318256029268296  4.158956607407398 10.372628107317075  4.158956607407398 10.372628107317075  L 6.9738581333333265 11.908281234146349  L 7.860384414814807 9.963059868292682  L 3.064473362962956 6.482185360975613  C 3.064473362962956 6.482185360975613  2.8441318518518477 6.310612214634142  2.8033660888888874 6.072667741463425  C 2.765696459259255 5.850417468292679  3.2208281037037017 3.2572277414634114  3.2208281037037017 3.2572277414634114  C 3.2208281037037017 3.2572277414634114  3.4050480740740685 2.2212580097561068  3.1165916148148107 1.4656071219512241  Z " fill-rule="nonzero" fill="url(#LinearGradient5635)" stroke="none" transform="matrix(1 0 0 1 2063 2658 )" />
  </g>
</svg>