<?xml version="1.0" encoding="utf-8"?>
<svg version="1.1" xmlns:xlink="http://www.w3.org/1999/xlink" width="9px" height="16px" xmlns="http://www.w3.org/2000/svg">
  <defs>
    <linearGradient gradientUnits="userSpaceOnUse" x1="5.729211906440229" y1="4.1925044773513775" x2="-9.655797829624941" y2="9.783170835662759" id="LinearGradient5517">
      <stop id="Stop5518" stop-color="#fee127" offset="0" />
      <stop id="Stop5519" stop-color="#f9ab21" offset="1" />
    </linearGradient>
  </defs>
  <g transform="matrix(1 0 0 1 -769 -368 )">
    <path d="M 1.8971303399999953 12.286075971084351  L 0.06011681399999021 0.1488657426506101  C 0.06011681399999021 0.1488657426506101  1.5052759199999877 0.8357593638554234  2.2137487019999877 2.1043118265060254  C 3.381161381999992 4.195402737349392  4.050762209999989 7.768516665060245  4.050762209999989 7.768516665060245  C 4.050762209999989 7.768516665060245  4.104681371999987 8.855542496385542  4.873969961999994 10.398252221686759  C 5.71097100599999 12.076406689156638  6.01379611199999 12.286342727710855  6.01379611199999 12.286342727710855  C 6.01379611199999 12.286342727710855  7.209422297999994 13.155296501204829  7.534191239999994 13.230387971084328  C 7.930434419999992 13.32215163373494  8.86398839459999 13.769832867469884  8.86398839459999 13.769832867469884  L 8.230751657999997 15.859856828915666  C 8.230751657999997 15.859856828915666  5.625076517999995 15.601437975903623  3.7968405479999885 14.71354467469879  C 2.4313062599999964 14.049925416867472  1.8971303399999953 12.286075971084351  1.8971303399999953 12.286075971084351  Z " fill-rule="nonzero" fill="url(#LinearGradient5517)" stroke="none" transform="matrix(1 0 0 1 769 368 )" />
  </g>
</svg>