<?xml version="1.0" encoding="utf-8"?>
<svg version="1.1" xmlns:xlink="http://www.w3.org/1999/xlink" width="8px" height="20px" xmlns="http://www.w3.org/2000/svg">
  <defs>
    <linearGradient gradientUnits="userSpaceOnUse" x1="4.524796644123576" y1="-6.076993523430065" x2="4.024554419516342" y2="18.60405930176798" id="LinearGradient5623">
      <stop id="Stop5624" stop-color="#bfd4fa" offset="0" />
      <stop id="Stop5625" stop-color="#5792f0" offset="1" />
    </linearGradient>
  </defs>
  <g transform="matrix(1 0 0 1 -2063 -2671 )">
    <path d="M 2.740146399999997 0.08857188405796557  L 2.6568931172413737 0.08857188405796557  C 1.8019640689655152 0.09207391304347884  1.1185389103448196 0.20045710144927398  1.1185389103448196 0.20045710144927398  C 1.1185389103448196 0.20045710144927398  1.3574848551724057 3.4192200000000024  1.167097406896542 6.929387826086955  C 0.8545926896551683 12.681406521739135  0.04977296551723596 19.877542898550736  0.04977296551723596 19.877542898550736  L 1.7497983586206844 19.877542898550736  C 1.7497983586206844 19.877542898550736  4.543797158620683 10.15497318840579  4.514289613793098 3.811072753623197  C 5.52626091034482 9.155096231884057  5.396487737931027 19.97051014492755  5.396487737931027 19.97051014492755  L 7.184976110344819 19.7842731884058  C 7.184976110344819 19.7842731884058  7.8157548137931 13.235327826086955  7.97152638620689 7.971286086956528  C 8.097489806896546 3.706541159420297  7.7546961931034435 0.5147508695652182  7.7546961931034435 0.5147508695652182  C 6.879611917241375 0.3908201449275461  5.993337586206892 0.37988231884059054  5.115714303448275 0.48218202898551943  C 5.113407641379307 0.48246768115941974  5.11110022068965 0.48275478260869525  5.108792082758618 0.4830433333333294  C 4.7215975172413716 0.34965768115942253  4.236106827586197 0.2123791304347833  3.7411744413793087 0.1494863768116012  C 3.403592013793098 0.10654231884057916  3.0612045379310326 0.08986666666667101  2.740146399999997 0.08857188405796557  Z " fill-rule="nonzero" fill="url(#LinearGradient5623)" stroke="none" transform="matrix(1 0 0 1 2063 2671 )" />
  </g>
</svg>