<?xml version="1.0" encoding="utf-8"?>
<svg version="1.1" xmlns:xlink="http://www.w3.org/1999/xlink" width="11px" height="26px" xmlns="http://www.w3.org/2000/svg">
  <defs>
    <linearGradient gradientUnits="userSpaceOnUse" x1="6.221595385669917" y1="-7.900091580459085" x2="5.53376232683497" y2="24.18527709229837" id="LinearGradient5511">
      <stop id="Stop5512" stop-color="#bfd4fa" offset="0" />
      <stop id="Stop5513" stop-color="#5792f0" offset="1" />
    </linearGradient>
  </defs>
  <g transform="matrix(1 0 0 1 -762 -386 )">
    <path d="M 3.7677012999999957 0.11514344927535523  L 3.653228036206889 0.11514344927535523  C 2.477700594827583 0.1196960869565225  1.537991001724127 0.26059423188405617  1.537991001724127 0.26059423188405617  C 1.537991001724127 0.26059423188405617  1.8665416758620579 4.444986000000003  1.6047589344827453 9.008204173913041  C 1.1750649482758564 16.485828478260874  0.06843782758619944 25.84080576811596  0.06843782758619944 25.84080576811596  L 2.4059727431034412 25.84080576811596  C 2.4059727431034412 25.84080576811596  6.24772109310344 13.201465144927528  6.20714821896551 4.954394579710156  C 7.598608751724127 11.901625101449275  7.420170639655162 25.961663188405815  7.420170639655162 25.961663188405815  L 9.879342151724126 25.719555144927536  C 9.879342151724126 25.719555144927536  10.746662868965512 17.205926173913042  10.960848781034475 10.362671913043487  C 11.13404848448275 4.818503507246386  10.662707265517234 0.6691761304347836  10.662707265517234 0.6691761304347836  C 9.459466386206891 0.5080661884058099  8.240839181034477 0.4938470144927677  7.034107167241379 0.6268366376811753  C 7.0309355068965464 0.6272079855072457  7.027762803448269 0.6275812173913038  7.0245891137931 0.6279563333333281  C 6.4921965862068856 0.45455498550724927  5.824646887931022 0.2760928695652183  5.144114856896549 0.19433228985508155  C 4.679939018965509 0.1385050144927529  4.20915623965517 0.11682666666667231  3.7677012999999957 0.11514344927535523  Z " fill-rule="nonzero" fill="url(#LinearGradient5511)" stroke="none" transform="matrix(1 0 0 1 762 386 )" />
  </g>
</svg>