<?xml version="1.0" encoding="utf-8"?>
<svg version="1.1" xmlns:xlink="http://www.w3.org/1999/xlink" width="10px" height="18px" xmlns="http://www.w3.org/2000/svg">
  <defs>
    <linearGradient gradientUnits="userSpaceOnUse" x1="5.089063842592578" y1="0.07145814432989894" x2="5.089063842592578" y2="17.921357349787307" id="LinearGradient5520">
      <stop id="Stop5521" stop-color="#fee127" offset="0" />
      <stop id="Stop5522" stop-color="#f9ab21" offset="1" />
    </linearGradient>
  </defs>
  <g transform="matrix(1 0 0 1 -762 -368 )">
    <path d="M 6.233055185185177 0.21932810981443066  L 5.814843759259247 1.6509160929896898  L 2.960675999999991 0.07145814432989993  C 2.960675999999991 0.07145814432989993  2.696234240740736 0.31648730659794727  2.5888117962962816 0.4333273200000082  C 2.377508185185175 0.584109131752585  2.1900585555555465 0.7312416736082581  2.1900585555555465 0.7312416736082581  C 2.1900585555555465 0.7312416736082581  1.4687842962962878 1.1460280026804215  1.069623703703689 1.8218225430927957  C 0.5912397777777721 2.631745298969074  0.6135889814814698 5.391852383505157  0.6135889814814698 5.391852383505157  C 0.6135889814814698 5.391852383505157  0.6947965555555466 7.455208249484546  0.5484412962962892 9.611036888659807  C 0.2956632222222206 13.334484470103087  0.18131851851851227 17.74419897525774  0.18131851851851227 17.74419897525774  C 0.18131851851851227 17.74419897525774  3.1469480555555434 17.90418863505154  5.38325959259259 17.920045150515467  C 7.737611240740736 17.936672158762885  9.99680916666666 17.789795350515465  9.99680916666666 17.789795350515465  L 8.563557277777766 4.612956624742282  C 8.563557277777766 4.612956624742282  8.346827907407398 2.362870391752579  7.520547240740733 1.0428625948453705  C 7.157396574074065 0.46175616185567464  6.233055185185177 0.21932810981443066  6.233055185185177 0.21932810981443066  Z " fill-rule="nonzero" fill="url(#LinearGradient5520)" stroke="none" transform="matrix(1 0 0 1 762 368 )" />
  </g>
</svg>