<?xml version="1.0" encoding="utf-8"?>
<svg version="1.1" xmlns:xlink="http://www.w3.org/1999/xlink" width="8px" height="14px" xmlns="http://www.w3.org/2000/svg">
  <defs>
    <linearGradient gradientUnits="userSpaceOnUse" x1="4.071251074074063" y1="0.05557855670103251" x2="4.071251074074063" y2="13.938833494279017" id="LinearGradient5632">
      <stop id="Stop5633" stop-color="#fee127" offset="0" />
      <stop id="Stop5634" stop-color="#f9ab21" offset="1" />
    </linearGradient>
  </defs>
  <g transform="matrix(1 0 0 1 -2063 -2658 )">
    <path d="M 4.986444148148141 0.17058852985566827  L 4.651875007407398 1.2840458501030922  L 2.368540799999993 0.055578556701033274  C 2.368540799999993 0.055578556701033274  2.1569873925925886 0.24615679402062568  2.071049437037025 0.33703236000000636  C 1.9020065481481399 0.45430710247423284  1.7520468444444373 0.568743523917534  1.7520468444444373 0.568743523917534  C 1.7520468444444373 0.568743523917534  1.1750274370370302 0.8913551131958833  0.8556989629629512 1.4169730890721746  C 0.47299182222221775 2.0469130103092796  0.49087118518517586 4.193662964948455  0.49087118518517586 4.193662964948455  C 0.49087118518517586 4.193662964948455  0.5558372444444373 5.798495305154647  0.4387530370370314 7.475250913402072  C 0.23653057777777645 10.371265698969067  0.1450548148148098 13.801043647422684  0.1450548148148098 13.801043647422684  C 0.1450548148148098 13.801043647422684  2.5175584444444348 13.925480049484532  4.306607674074072 13.937812894845361  C 6.190088992592589 13.950745012371133  7.997447333333327 13.83650749484536  7.997447333333327 13.83650749484536  L 6.850845822222213 3.5878551525773306  C 6.850845822222213 3.5878551525773306  6.677462325925919 1.837788082474228  6.016437792592586 0.8111153515463994  C 5.725917259259252 0.3591436814433025  4.986444148148141 0.17058852985566827  4.986444148148141 0.17058852985566827  Z " fill-rule="nonzero" fill="url(#LinearGradient5632)" stroke="none" transform="matrix(1 0 0 1 2063 2658 )" />
  </g>
</svg>