<?xml version="1.0" encoding="utf-8"?>
<svg version="1.1" xmlns:xlink="http://www.w3.org/1999/xlink" width="9px" height="8px" xmlns="http://www.w3.org/2000/svg">
  <g transform="matrix(1 0 0 1 -2063 -2649 )">
    <path d="M 4.351729414285712 7.322804379661015  C 3.970527185714283 7.410692216949151  3.708524614285709 7.609805599999995  3.5657216714285647 7.920144528813565  C 1.9519089428571386 7.518355701694927  0.9196333799999934 6.8645478915254206  0.46889500714285404 5.958721071186442  C -0.2072125528571454 4.599980867796611  -0.028801764285714983 2.978543986440685  0.6510365099999912 2.2742008542372942  C 0.5807020028571352 2.1293973423728905  0.4261007385714249 1.9620890305084808  0.20831660999999713 1.8462353355932264  C 0.47396037428571197 1.7306647186440665  0.9262384699999952 1.681225599999996  1.0366454028571346 1.7568913762711957  C 1.0162905357142824 1.5993823457627174  1.1464943428571408 1.0517946359322026  1.3264697728571377 0.8825839145762784  C 1.314230348571422 1.001971833220338  1.338932807142856 1.1770108745762689  1.4005771485714231 1.4077010400000043  C 1.617316085714281 0.9725332203389849  2.294223857142851 0.5618393681355944  3.431300471428569 0.17561948366101668  C 3.945536071428567 0.11368543579660813  4.4935552999999935 -0.012460709830505085  5.5165870571428535 0.21440127877966747  C 5.855767285714283 0.29811961627118594  6.291487142857136 0.3328662413559406  7.559666557142853 1.0868399132203472  C 7.402882971428564 1.0901934996610196  7.301758914285707 1.1019178793220339  7.256294399999994 1.1220130535593236  C 7.955114014285706 1.5496696813559352  8.504785057142856 2.0164551186440742  8.905307557142853 2.522369328813557  C 8.773408314285705 2.5861358237288172  8.66580575714285 2.6148697762711923  8.582499857142855 2.6085711999999996  L 8.82525794285714 2.7258019389830563  L 8.133021428571421 2.7258019389830563  L 8.582499857142855 3.542908108474583  C 7.968152671428567 2.9701188203389854  7.370979871428566 2.629939227118654  6.79098145714285 2.522369328813557  C 6.415017157142854 2.389768135593224  6.304946071428568 2.3478826305084777  6.317710285714278 2.7258019389830563  C 6.330474499999996 3.1037212338983022  6.008503385714278 3.842826549152544  5.884058071428569 4.208178725423735  C 5.707778314285706 4.567177016949152  5.699284114285709 4.7208497898305195  5.478261457142853 5.092824203389837  C 5.260916657142851 5.565419701694921  4.996115185714277 6.043965559322036  4.68385705714285 6.528461789830513  L 4.507179685714277 5.958721071186442  C 4.0836805428571425 5.637629681355944  3.7698611999999962 5.637629681355944  3.5657216714285647 5.958721071186442  C 3.2595123714285625 6.440358169491524  3.2494786285714263 7.146513383050845  4.351729414285712 7.322804379661015  Z " fill-rule="nonzero" fill="#483029" stroke="none" transform="matrix(1 0 0 1 2063 2649 )" />
  </g>
</svg>