<?xml version="1.0" encoding="utf-8"?>
<svg version="1.1" xmlns:xlink="http://www.w3.org/1999/xlink" width="124px" height="98px" xmlns="http://www.w3.org/2000/svg">
  <defs>
    <linearGradient gradientUnits="userSpaceOnUse" x1="61.98063105956559" y1="0.1064276793111717" x2="61.98063105956559" y2="97.98010698038087" id="LinearGradient5566">
      <stop id="Stop5567" stop-color="#f9ab21" offset="0" />
      <stop id="Stop5568" stop-color="#fee127" offset="1" />
    </linearGradient>
  </defs>
  <g transform="matrix(1 0 0 1 -2025 -2597 )">
    <path d="M 20.797225316197636 93.487285616836  C 6.351618934692077 87.29224221480406  3.09487681285111 67.67067296952105  2.0380377242035226 63.10598999709724  C 0.9811986341355443 58.54130716690857  -5.8982308855559085 28.81500485921626  13.552809862902153 24.72776252539913  C 33.00385065397189 20.640520191582006  44.4948685828197 25.40094657184325  53.0414279641643 17.07832615674892  C 61.587987345508886 8.755705670537012  63.71935218397225 10.121688001161102  70.73921063979037 10.672140602612485  C 77.75906923764745 11.222593218287376  85.89498479310903 5.215010332365748  88.62884205310037 3.4104671918722813  C 91.36269931309171 1.6059240656023221  116.04620180994296 -10.004387292307692  122.35680796336376 24.72776252539913  C 123.35416268958363 39.74381508563135  124.18299431385813 56.03453245283018  117.20027208255274 62.20538720754717  C 110.21754985124737 68.37624196226415  117.32783726009995 73.9171670827286  122.35680796336376 74.53287860957909  C 127.38577852458862 75.1485901364296  120.00573259569332 85.69243033381711  108.39044095779768 90.29581591001453  C 100.66757664631757 93.76521617706821  50.71265029637905 103.71295821770683  20.797225316197636 93.487285616836  Z " fill-rule="nonzero" fill="url(#LinearGradient5566)" stroke="none" transform="matrix(1 0 0 1 2025 2597 )" />
  </g>
</svg>