<?xml version="1.0" encoding="utf-8"?>
<svg version="1.1" xmlns:xlink="http://www.w3.org/1999/xlink" width="165px" height="130px" xmlns="http://www.w3.org/2000/svg">
  <defs>
    <linearGradient gradientUnits="userSpaceOnUse" x1="82.47422681313164" y1="0.14117957459645225" x2="82.47422681313164" y2="129.97361130050524" id="LinearGradient5454">
      <stop id="Stop5455" stop-color="#f9ab21" offset="0" />
      <stop id="Stop5456" stop-color="#fee127" offset="1" />
    </linearGradient>
  </defs>
  <g transform="matrix(1 0 0 1 -711 -287 )">
    <path d="M 27.67372723526298 124.01374622641511  C 8.451751001808006 115.79583150943395  4.118182855809946 89.76721924528302  2.711905036238558 83.71202754716981  C 1.3056272147771355 77.65683603773586  -7.848452388038104 38.223986037735855  18.03398086595851 32.80213396226415  C 43.91641417665615 27.380281886792456  59.206881581977825 33.695133207547165  70.57931946844442 22.654922452830196  C 81.95175735491102 11.614711603773586  84.78784766415663 13.426728981132076  94.12878835133395 14.156921207547173  C 103.46972922751476 14.88711345283019  114.29574589405638 6.917870849056604  117.93353982872227 4.524089132075475  C 121.57133376338817 2.130307433962264  154.41631692452086 -13.271125999999999  162.8134944673792 32.80213396226415  C 164.1406197079137 52.72138735849057  165.24350049827896 74.33152264150942  155.9519749485581 82.5173503773585  C 146.66044939883724 90.70317811320754  156.12171893481042 98.05338490566038  162.8134944673792 98.8701450943396  C 169.50526981094453 99.68690528301886  159.68504740555966 113.67363207547169  144.22921579061787 119.78016396226417  C 133.95282376324516 124.3824296226415  67.48054273308503 137.57841396226416  27.67372723526298 124.01374622641511  Z " fill-rule="nonzero" fill="url(#LinearGradient5454)" stroke="none" transform="matrix(1 0 0 1 711 287 )" />
  </g>
</svg>