<?xml version="1.0" encoding="utf-8"?>
<svg version="1.1" xmlns:xlink="http://www.w3.org/1999/xlink" width="12px" height="11px" xmlns="http://www.w3.org/2000/svg">
  <g transform="matrix(1 0 0 1 -761 -356 )">
    <path d="M 5.802305885714283 10.068856022033895  C 5.294036247619044 10.189701798305084  4.944699485714279 10.463482699999993  4.754295561904753 10.890198727118651  C 2.6025452571428516 10.337739089830524  1.2261778399999912 9.438753350847453  0.6251933428571387 8.193241472881358  C -0.2762834038095272 6.32497369322034  -0.03840235238095331 4.095497981355941  0.8680486799999882 3.1270261745762795  C 0.774269337142847 2.9279213457627242  0.5681343180952332 2.6978724169491612  0.27775547999999617 2.538573586440686  C 0.6319471657142827 2.3796639881355914  1.2349846266666602 2.3116851999999946  1.3821938704761796 2.415725642372894  C 1.3550540476190431 2.1991507254237366  1.528659123809521 1.4462176244067786  1.768626363809517 1.2135528825423827  C 1.7523071314285625 1.3777112706779648  1.785243742857141 1.6183899525423697  1.8674361980952308 1.935588930000006  C 2.1564214476190413 1.3372331779661042  3.0589651428571347 0.7725291311864424  4.5750672952380915 0.24147679003389794  C 5.260714761904756 0.15631747422033618  5.991407066666658 -0.017133476016944493  7.355449409523804 0.29480175832204275  C 7.8076897142857105 0.40991447237288064  8.388649523809514 0.45769108186441837  10.079555409523804 1.4944048806779775  C 9.870510628571418 1.499016062033902  9.735678552380943 1.5151370840677967  9.675059199999993 1.54276794864407  C 10.606818685714275 2.130795811864411  11.339713409523807 2.7726257881356022  11.873743409523804 3.468257827118641  C 11.69787775238094 3.5559367576271237  11.554407676190467 3.5954459423728893  11.44333314285714 3.5867853999999997  L 11.767010590476188 3.7479776661017024  L 10.844028571428561 3.7479776661017024  L 11.44333314285714 4.871498649152551  C 10.624203561904757 4.083913377966105  9.827973161904755 3.616166437288149  9.054641942857133 3.468257827118641  C 8.553356209523805 3.285931186440683  8.406594761904756 3.2283386169491566  8.423613714285704 3.7479776661017024  C 8.440632666666662 4.267616696610165  8.011337847619036 5.283886505084748  7.845410761904759 5.786245747457635  C 7.6103710857142755 6.2798683983050845  7.599045485714279 6.491168461016964  7.304348609523805 7.002633279661025  C 7.014555542857135 7.652452089830517  6.661486914285703 8.3104526440678  6.2451427428571336 8.976634961016956  L 6.0095729142857035 8.193241472881358  C 5.44490739047619 7.751740811864423  5.026481599999995 7.751740811864423  4.754295561904753 8.193241472881358  C 4.346016495238083 8.855492483050845  4.332638171428568 9.826455901694912  5.802305885714283 10.068856022033895  Z " fill-rule="nonzero" fill="#483029" stroke="none" transform="matrix(1 0 0 1 761 356 )" />
  </g>
</svg>