<?xml version="1.0" encoding="utf-8"?>
<svg version="1.1" xmlns:xlink="http://www.w3.org/1999/xlink" width="14px" height="14px" xmlns="http://www.w3.org/2000/svg">
  <g transform="matrix(1 0 0 1 -1488 -2134 )">
    <path d="M 0.01937288559322034 13.118456600427352  C 0.042022942796610216 12.576793025641027  0.3628144046610169 12.383337465811966  0.9269823411016949 12.401738461538462  L 13.0391765 12.401738461538462  C 13.538142447033898 12.380005480769231  13.947113353813558 12.632456277777779  13.946706597457625 13.098454653846154  L 13.946706597457625 13.177261730769233  C 13.962005052966102 13.683033852564105  13.548063627118644 13.944289916666667  13.0391765 14  L 0.9269823411016949 14  C 0.32228637711864405 13.924007805555556  0.05194412288135586 13.734154388888891  0.01937288559322034 13.197273683760685  L 0.01937288559322034 13.118456600427352  Z M 13.427828838983048 4.570550429487177  C 13.427828838983048 4.488141194444443  13.392608650423727 4.409694333333332  13.33124614618644 4.355351867521367  L 8.488281286016948 0.13041806196581213  C 8.404524236603775 0.061381447836245176  8.288902622765974 0.04698569979140234  8.19101295338983 0.09340595085470088  C 8.09312840980876 0.13977891337201104  8.030298578603729 0.23867117142139732  8.029426673728812 0.34773787820512825  L 8.029426673728812 2.7237872457264958  C 8.027204322033898 2.869484273504274  7.914241762711863 2.9734663867521367  7.7730435169491505 3.004424873931624  C 1.7311436461864391 4.329356335470086  0.7702872076271171 9.36387375  0.7385691991525413 11.177897395299144  C 0.7362575677966091 11.309806188034187  0.8281574682203378 11.424474683760684  0.9553767584745751 11.454632702991452  C 1.0826258283898293 11.484760702991453  1.213754069915253 11.422473491452989  1.2716441588983036 11.304202837606836  C 2.519966809322034 8.709903102564104  4.458248048728813 5.93527564957265  7.735263671610168 6.208718997863247  C 7.8120635338983035 6.215122816239316  7.887186718220339 6.2348245854700854  7.942626258474576 6.2888568675213685  C 7.998184872881355 6.34288914957265  8.029535796610169 6.41739364957265  8.029426673728814 6.495180117521367  L 8.029426673728814 8.815306066239316  C 8.029161157379004 8.924908035466274  8.091562939271894 9.02484527343808  8.189683502118644 9.07195939102564  C 8.287792410380384 9.11916292993286  8.40410034093351 9.10502682321986  8.488281286016948 9.035667711538458  L 13.331246146186439 4.785738970085467  C 13.392620770739446 4.731351390199927  13.427809992707475 4.652948965284772  13.427828838983048 4.570550429487177  Z " fill-rule="nonzero" fill="#333333" stroke="none" transform="matrix(1 0 0 1 1488 2134 )" />
  </g>
</svg>