<?xml version="1.0" encoding="utf-8"?>
<svg version="1.1" xmlns:xlink="http://www.w3.org/1999/xlink" width="61px" height="61px" xmlns="http://www.w3.org/2000/svg">
  <g transform="matrix(1 0 0 1 -457 -434 )">
    <path d="M 60.77507121428572 30.551623292410717  C 60.77507121428572 47.249700862723216  47.22336669977679 60.78865630915178  30.505503684151783 60.78865630915178  C 13.78917336160714 60.78865630915178  0.2422758649553529 47.249631216517855  0.2422758649553529 30.551623292410717  C 0.2422758649553529 17.734488198660713  8.22005894866071 6.784221001116075  19.486893135044635 2.3835624051339317  C 22.891103931919638 1.010285472098217  26.61020980022321 0.2518899687500033  30.506269996651785 0.2518899687500033  C 34.4071372109375 0.2518899687500033  38.12303840066964 1.0095191595982176  41.53045387611607 2.3835624051339317  C 52.79659146428571 6.784221001116071  60.77507121428572 17.73455784486607  60.77507121428572 30.551623292410717  Z M 18.872847800223216 24.174789089285714  C 18.872847800223216 29.27037656919643  21.483690214285716 33.682112247767854  25.279011838169644 35.84158189397321  C 26.852999535714286 36.73722147433036  28.625259631696434 37.25373305133929  30.505503684151783 37.25373305133929  C 32.319773036830355 37.25373305133929  34.030238498883925 36.77059208258929  35.562983252232144 35.93598075558037  C 39.44796636607143 33.81775405357144  42.1429665859375 29.352096077008934  42.1429665859375 24.175625116071437  C 42.1429665859375 16.968150645089292  36.92365040959822 11.101488239955364  30.505573330357144 11.101488239955364  C 24.09139759598214 11.100721859375  18.872847800223216 16.967453910714283  18.872847800223216 24.174789089285714  Z M 30.628466068080357 58.82920082924107  C 39.47095655803572 58.82920082924107  47.359008505580356 54.762595729910714  52.529139687500006 48.398510526785714  C 51.918368677455355 43.37830277566964  47.02655728013393 39.104647200892856  40.10325471316964 36.972905118303565  C 37.48844123995536 39.32514341071429  34.14769713058036 40.74049924665179  30.50466772544642 40.74049924665179  C 26.78075483928571 40.74049924665179  23.371876316964283 39.24899736941964  20.731634421874993 36.79441809709821  C 13.996990217633922 38.71660169196428  9.064075304687492 42.637324065848205  7.907462950892851 47.33539129352678  C 13.03788388169643 54.304813468750005  21.30680553236607 58.82920082924107  30.628466068080357 58.82920082924107  Z " fill-rule="nonzero" fill="#cccccc" stroke="none" transform="matrix(1 0 0 1 457 434 )" />
  </g>
</svg>