<?xml version="1.0" encoding="utf-8"?>
<svg version="1.1" xmlns:xlink="http://www.w3.org/1999/xlink" width="10px" height="10px" xmlns="http://www.w3.org/2000/svg">
  <g transform="matrix(1 0 0 1 -483 -423 )">
    <path d="M 9.879542029419873 3.977584770969661  L 7.591079187754033 6.315748562363672  C 7.554293406035209 6.353313503866747  7.537836608950471 6.407122744398176  7.546549030936508 6.4599167162403335  L 8.086719194070831 9.761570493753718  C 8.104144038042907 9.86614316874876  8.024764193281232 9.95142573864763  7.933767785871508 9.95142573864763  C 7.909566613688071 9.95142573864763  7.885365441504634 9.945334126511996  7.861164269321196 9.932135633551459  L 5.035435405183044 8.37369819551854  C 5.013170326774283 8.361514971247272  4.988001107703507 8.355423359111638  4.962831888632732 8.355423359111638  C 4.9376626695619565 8.355423359111638  4.91346149737852 8.361514971247274  4.8902283720824204 8.37369819551854  L 2.0625634141695945 9.932135633551457  C 2.0383622419861576 9.945334126511995  2.0141610698027197 9.95142573864763  1.9899598976192825 9.95142573864763  C 1.8999315370968952 9.95142573864763  1.8205516923352205 9.86614316874876  1.8370084894199579 9.761570493753716  L 2.3781466994416185 6.459916716240333  C 2.386859121427656 6.407122744398174  2.3704023243429186 6.3533135038667465  2.3336165426240942 6.315748562363671  L 0.047089794732928694 3.977584770969661  C -0.04487465956413341 3.883164782867341  0.005463778577416374 3.719706523894507  0.13227792081862833 3.7004164187983344  L 3.292951007975552 3.2181637913940113  C 3.343289446117102 3.2100416418798328  3.386851556047289 3.1775530438231216  3.4091166344560513 3.128820146738053  L 4.822465089968795 0.12464009518143973  C 4.850538449701583 0.06473924251437649  4.90571712227982 0.03428118183620875  4.960895794858057 0.03428118183620875  C 5.016074467436294 0.03428118183620875  5.071253140014532 0.06473924251437649  5.099326499747318 0.12464009518143973  L 6.512674955260062 3.128820146738053  C 6.534940033668825 3.1765377751338484  6.578502143599012 3.2100416418798328  6.628840581740562 3.2181637913940113  L 9.793385856446836 3.7004164187983344  C 9.920199998688048 3.719706523894507  9.971506483716935 3.883164782867341  9.879542029419873 3.977584770969661  Z " fill-rule="nonzero" fill="#333333" stroke="none" transform="matrix(1 0 0 1 483 423 )" />
  </g>
</svg>