<?xml version="1.0" encoding="utf-8"?>
<svg version="1.1" xmlns:xlink="http://www.w3.org/1999/xlink" width="76px" height="76px" xmlns="http://www.w3.org/2000/svg">
  <g transform="matrix(1 0 0 1 -450 -427 )">
    <path d="M 488 436  C 504.24 436  517 448.76  517 465  C 517 481.24  504.24 494  488 494  C 471.76 494  459 481.24  459 465  C 459 448.76  471.76 436  488 436  Z " fill-rule="nonzero" fill="#ffffff" stroke="none" />
    <path d="M 488 432  C 506.48 432  521 446.52  521 465  C 521 483.48  506.48 498  488 498  C 469.52 498  455 483.48  455 465  C 455 446.52  469.52 432  488 432  Z " stroke-width="10" stroke="#797979" fill="none" />
  </g>
</svg>