<?xml version="1.0" encoding="utf-8"?>
<svg version="1.1" xmlns:xlink="http://www.w3.org/1999/xlink" width="4px" height="4px" xmlns="http://www.w3.org/2000/svg">
  <g transform="matrix(1 0 0 1 -470 -426 )">
    <path d="M 3.9518168117679493 1.5910339083878644  L 3.036431675101613 2.526299424945469  C 3.021717362414084 2.541325401546699  3.0151346435801885 2.5628490977592704  3.018619612374603 2.5839666864961335  L 3.2346876776283326 3.904628197501487  C 3.2416576152171626 3.946457267499504  3.2099056773124928 3.9805702954590525  3.1735071143486033 3.9805702954590525  C 3.163826645475228 3.9805702954590525  3.1541461766018535 3.9781336506047986  3.1444657077284783 3.9728542534205835  L 2.0141741620732176 3.349479278207416  C 2.0052681307097133 3.344605988498909  1.9952004430814028 3.3421693436446556  1.9851327554530929 3.3421693436446556  C 1.9750650678247827 3.3421693436446556  1.9653845989514078 3.3446059884989094  1.956091348832968 3.349479278207416  L 0.8250253656678378 3.972854253420583  C 0.815344896794463 3.978133650604798  0.8056644279210879 3.980570295459052  0.795983959047713 3.980570295459052  C 0.7599726148387581 3.980570295459052  0.7282206769340882 3.946457267499504  0.7348033957679831 3.9046281975014865  L 0.9512586797766475 2.583966686496133  C 0.9547436485710624 2.56284909775927  0.9481609297371675 2.5413254015466986  0.9334466170496376 2.5262994249454684  L 0.01883591789317148 1.5910339083878644  C -0.017949863825653365 1.5532659131469364  0.0021855114309665496 1.4878826095578028  0.05291116832745133 1.4801665675193338  L 1.3171804031902208 1.2872655165576046  C 1.3373157784468408 1.284016656751933  1.3547406224189156 1.2710212175292486  1.3636466537824206 1.251528058695221  L 1.9289860359875182 0.049856038072575895  C 1.940215379880633 0.025895697005750597  1.962286848911928 0.013712472734483498  1.984358317943223 0.013712472734483498  C 2.0064297869745173 0.013712472734483498  2.028501256005813 0.025895697005750597  2.039730599898927 0.049856038072575895  L 2.6050699821040246 1.251528058695221  C 2.61397601346753 1.2706151100535394  2.631400857439605 1.284016656751933  2.6515362326962246 1.2872655165576046  L 3.9173543425787343 1.4801665675193338  C 3.9680799994752194 1.4878826095578028  3.988602593486774 1.5532659131469364  3.9518168117679493 1.5910339083878644  Z " fill-rule="nonzero" fill="#333333" stroke="none" transform="matrix(1 0 0 1 470 426 )" />
  </g>
</svg>