<?xml version="1.0" encoding="utf-8"?>
<svg version="1.1" xmlns:xlink="http://www.w3.org/1999/xlink" width="6px" height="6px" xmlns="http://www.w3.org/2000/svg">
  <g transform="matrix(1 0 0 1 -495 -425 )">
    <path d="M 5.927725217651924 2.386550862581797  L 4.554647512652419 3.7894491374182033  C 4.532576043621126 3.811988102320049  4.522701965370283 3.8442736466389054  4.527929418561905 3.8759500297442004  L 4.852031516442499 5.85694229625223  C 4.862486422825744 5.919685901249256  4.814858515968739 5.9708554431885785  4.760260671522905 5.9708554431885785  C 4.745739968212842 5.9708554431885785  4.73121926490278 5.967200475907198  4.716698561592717 5.959281380130875  L 3.0212612431098265 5.024218917311124  C 3.00790219606457 5.0169089827483635  2.992800664622104 5.013254015466983  2.977699133179639 5.013254015466983  C 2.962597601737174 5.013254015466983  2.9480768984271117 5.016908982748364  2.934137023249452 5.024218917311124  L 1.2375380485017566 5.959281380130875  C 1.2230173451916944 5.967200475907197  1.2084966418816319 5.970855443188578  1.1939759385715696 5.970855443188578  C 1.1399589222581372 5.970855443188578  1.0923310154011323 5.919685901249256  1.1022050936519747 5.85694229625223  L 1.4268880196649711 3.8759500297441996  C 1.4321154728565937 3.844273646638905  1.4222413946057513 3.811988102320048  1.4001699255744564 3.7894491374182024  L 0.02825387683975722 2.386550862581797  C -0.02692479573848005 2.3298988697204046  0.003278267146449824 2.2318239143367045  0.079366752491177 2.220249851279001  L 1.9757706047853312 1.930898274836407  C 2.0059736676702613 1.9260249851278997  2.032110933628373 1.9065318262938729  2.045469980673631 1.8772920880428317  L 2.8934790539812774 0.07478405710886385  C 2.9103230698209495 0.0388435455086259  2.943430273367892 0.020568709101725247  2.9765374769148343 0.020568709101725247  C 3.009644680461776 0.020568709101725247  3.0427518840087195 0.0388435455086259  3.0595958998483903 0.07478405710886385  L 3.9076049731560367 1.8772920880428317  C 3.9209640202012945 1.9059226650803092  3.9471012861594073 1.9260249851278997  3.9773043490443367 1.930898274836407  L 5.876031513868101 2.220249851279001  C 5.9521199992128295 2.2318239143367045  5.982903890230161 2.3298988697204046  5.927725217651924 2.386550862581797  Z " fill-rule="nonzero" fill="#333333" stroke="none" transform="matrix(1 0 0 1 495 425 )" />
  </g>
</svg>