<?xml version="1.0" encoding="utf-8"?>
<svg version="1.1" xmlns:xlink="http://www.w3.org/1999/xlink" width="60px" height="60px" xmlns="http://www.w3.org/2000/svg">
  <g transform="matrix(1 0 0 1 -424 -253 )">
    <path d="M 454 260  C 466.88 260  477 270.12  477 283  C 477 295.88  466.88 306  454 306  C 441.12 306  431 295.88  431 283  C 431 270.12  441.12 260  454 260  Z " fill-rule="nonzero" fill="#ffffff" stroke="none" />
    <path d="M 454 257  C 468.56 257  480 268.44  480 283  C 480 297.56  468.56 309  454 309  C 439.44 309  428 297.56  428 283  C 428 268.44  439.44 257  454 257  Z " stroke-width="8" stroke="#797979" fill="none" />
  </g>
</svg>