<?xml version="1.0" encoding="utf-8"?>
<svg version="1.1" xmlns:xlink="http://www.w3.org/1999/xlink" width="30px" height="30px" xmlns="http://www.w3.org/2000/svg">
  <defs>
    <mask fill="white" id="clip5290">
      <path d="M 29.999960409548937 29.949610777107598  C 29.97359638296824 13.173613182989895  16.783199989164558 0  0 3.961745510222874E-05  L 0 30  L 29.999960409548937 29.949610777107598  C 29.99998679998295 29.966403578333747  30 29.98319998916455  29.999960409548937 29.949610777107598  Z " fill-rule="evenodd" />
    </mask>
  </defs>
  <g transform="matrix(1 0 0 1 -454 -253 )">
    <path d="M 29.999960409548937 29.949610777107598  C 29.97359638296824 13.173613182989895  16.783199989164558 0  0 3.961745510222874E-05  L 0 30  L 29.999960409548937 29.949610777107598  C 29.99998679998295 29.966403578333747  30 29.98319998916455  29.999960409548937 29.949610777107598  Z " fill-rule="nonzero" fill="#ffffff" stroke="none" transform="matrix(1 0 0 1 454 253 )" />
    <path d="M 29.999960409548937 29.949610777107598  C 29.97359638296824 13.173613182989895  16.783199989164558 0  0 3.961745510222874E-05  L 0 30  L 29.999960409548937 29.949610777107598  C 29.99998679998295 29.966403578333747  30 29.98319998916455  29.999960409548937 29.949610777107598  Z " stroke-width="16" stroke="#ffffff" fill="none" transform="matrix(1 0 0 1 454 253 )" mask="url(#clip5290)" />
  </g>
</svg>