<?xml version="1.0" encoding="utf-8"?>
<svg version="1.1" xmlns:xlink="http://www.w3.org/1999/xlink" width="7px" height="12px" xmlns="http://www.w3.org/2000/svg">
  <g transform="matrix(1 0 0 1 -1490 -564 )">
    <path d="M 6.918181818181819 2.7361111111111116  C 6.996969696969698 2.8101851851851847  7.012121212121213 2.8912037037037037  6.963636363636364 2.979166666666666  C 6.909090909090909 3.0671296296296284  6.821212121212121 3.1111111111111116  6.7 3.1111111111111116  L 4.663636363636364 3.1111111111111116  L 4.663636363636364 11.777777777777779  C 4.663636363636364 11.842592592592592  4.636363636363637 11.895833333333332  4.581818181818182 11.9375  C 4.527272727272727 11.979166666666666  4.457575757575758 12  4.372727272727273 12  L 2.6272727272727274 12  C 2.542424242424243 12  2.4727272727272727 11.979166666666666  2.418181818181818 11.9375  C 2.3636363636363638 11.895833333333332  2.3363636363636364 11.842592592592592  2.3363636363636364 11.777777777777779  L 2.3363636363636364 3.1111111111111116  L 0.3 3.1111111111111116  C 0.17272727272727273 3.1111111111111116  0.08484848484848485 3.0671296296296284  0.03636363636363636 2.979166666666666  C -0.012121212121212126 2.8912037037037037  0.0030303030303030234 2.8101851851851847  0.08181818181818182 2.7361111111111116  L 3.2636363636363637 0.06944444444444509  C 3.324242424242424 0.023148148148147918  3.3939393939393945 0  3.4727272727272727 0  C 3.5575757575757576 0  3.6303030303030304 0.023148148148147918  3.6909090909090905 0.06944444444444509  L 6.918181818181819 2.7361111111111116  Z " fill-rule="nonzero" fill="#0fc060" stroke="none" transform="matrix(1 0 0 1 1490 564 )" />
  </g>
</svg>