<?xml version="1.0" encoding="utf-8"?>
<svg version="1.1" xmlns:xlink="http://www.w3.org/1999/xlink" width="33px" height="33px" xmlns="http://www.w3.org/2000/svg">
  <g transform="matrix(1 0 0 1 -1238 -460 )">
    <path d="M 32.878317214285715 16.527927354910716  C 32.878317214285715 25.561313581473215  25.547067231026787 32.88566652790178  16.502977402901784 32.88566652790178  C 7.459716736607142 32.88566652790178  0.13106727120535483 25.561275904017858  0.13106727120535483 16.527927354910716  C 0.13106727120535483 9.594067386160715  4.446917136160712 3.6701523448660733  10.54208972879464 1.2894681863839301  C 12.38371196316964 0.5465478783482157  14.39568726897321 0.13626834375000177  16.503391965401786 0.13626834375000177  C 18.6136971796875 0.13626834375000177  20.623938806919643 0.5461333158482161  22.46729471986607 1.2894681863839301  C 28.562090464285713 3.670152344866071  32.878317214285715 9.594105063616071  32.878317214285715 16.527927354910716  Z M 10.209901268973214 13.078164589285715  C 10.209901268973214 15.834793881696429  11.622324214285715 18.221470560267857  13.675530994419644 19.389708237723216  C 14.527032535714286 19.874234568080357  15.485796194196432 20.153658863839286  16.502977402901784 20.153658863839286  C 17.48446738058036 20.153658863839286  18.409801155133927 19.89228752008929  19.23899093973214 19.440776474330363  C 21.340703116071428 18.294850553571436  22.7986540546875 15.879002795758932  22.7986540546875 13.078616866071432  C 22.7986540546875 9.17949133258929  19.975089565848215 6.005723146205361  16.503015080357144 6.005723146205361  C 13.033051158482142 6.005308546875  10.209901268973214 9.179114410714284  10.209901268973214 13.078164589285715  Z M 16.569498036830357 31.82563323549107  C 21.353140433035716 31.82563323549107  25.620447224330356 29.625666542410713  28.417403437500003 26.18280077678571  C 28.086986333705358 23.466950681919638  25.44059656138393 21.154973075892855  21.695203369419644 20.00173555580357  C 20.28063214620536 21.274257910714287  18.473344349330358 22.039942215401787  16.502525162946426 22.039942215401787  C 14.487949339285713 22.039942215401787  12.643801941964284 21.23306415066964  11.215474359374996 19.905177003348214  C 7.572142248883925 20.945046816964282  4.903516148437496 23.06609334709821  4.277807825892854 25.607670699776783  C 7.053281444196429 29.37801384375  11.52663250111607 31.82563323549107  16.569498036830357 31.82563323549107  Z " fill-rule="nonzero" fill="#cccccc" stroke="none" transform="matrix(1 0 0 1 1238 460 )" />
  </g>
</svg>