<?xml version="1.0" encoding="utf-8"?>
<svg version="1.1" xmlns:xlink="http://www.w3.org/1999/xlink" width="19px" height="17px" xmlns="http://www.w3.org/2000/svg">
  <g transform="matrix(1 0 0 1 -1245 -449 )">
    <path d="M 17.260087442477875 8.040309041666667  C 18.247739263274337 7.755974979166669  18.97253358738938 6.852849312500002  18.972533587389382 5.7832474791666675  C 18.972533587389382 5.154822541666667  18.72546876880531 4.563877312500001  18.277350616150443 4.119840541666668  C 17.83374884940639 3.6772162786979607  17.229865657960605 3.429011519606454  16.600438086283187 3.430605145833334  C 15.970528063740812 3.428827438679506  15.36610438553297 3.6770295830228292  14.92200700663717 4.119840541666666  C 14.47553384688222 4.560052930676759  14.225311969605274 5.159035843607975  14.227127741150445 5.7832474791666675  C 14.227127741150445 6.4109198124999995  14.473888853982302 7.001262958333334  14.92231071238938 7.4457513125000006  C 15.015092882743364 7.5378701249999995  15.115619570796461 7.618850395833334  15.220094412610619 7.693508791666667  C 14.423169930309733 8.483894270833336  13.15793084181416 8.705611625000001  12.124571284292035 8.153651312500001  C 11.338276524336283 7.733848395833334  10.724942295353983 7.004724958333334  10.48622938495575 6.216898333333333  C 10.382817492256635 5.7420047499999995  10.641119423672563 4.5655330625  10.654938056415928 4.5291069791666665  C 11.391121346238936 4.129323354166666  11.89147693030973 3.3536889374999994  11.89147693030973 2.4644112083333334  C 11.89147693030973 1.8371904375000003  11.644715817477874 1.2469978125  11.196293959070797 0.8023589375000011  C 10.752712340491014 0.35990689041042145  10.1489754860819 0.11177152999145967  9.519685134955752 0.11327406250000009  C 8.88981044869439 0.11152374801150344  8.28541497655069 0.35966010786760505  7.841254055309735 0.8023589375000011  C 7.394849016797091 1.2420862204387064  7.144514651574349 1.8405887980328781  7.146071084070796 2.4644112083333334  C 7.144274916576889 3.08885499466743  7.394605610496326 3.6880534073256697  7.841254055309734 4.128420229166666  C 8.026554535737592 4.3113636960289305  8.2411406306511 4.462626487733916  8.47630324557522 4.576069520833334  C 8.481314390486725 4.5863049375000005  8.485414418141591 4.5966908958333335  8.490881142699115 4.606625270833334  C 8.54160004535398 4.700098770833335  8.744171929203539 5.754497979166667  8.61661540818584 6.217801458333334  C 8.374561755530971 7.0136056875  7.752420059734512 7.7538676875  6.9556474303097335 8.179390395833334  C 5.889943168141593 8.747908  4.613466945796459 8.527545333333334  3.8005979115044237 7.705249416666668  C 4.410439503318583 7.279275145833334  4.810420273230087 6.577395979166668  4.810420294247786 5.783398000000001  C 4.810420294247786 5.154069937500001  4.564266592920353 4.5631247083333335  4.117059536504423 4.119991062500001  C 3.6689413628318572 3.6755027083333345  3.072766550884954 3.430755666666667  2.438628477876105 3.430755666666667  C 1.8044904048672559 3.430755666666667  1.2084674247787601 3.6755027291666678  0.760197419247786 4.119991062500001  C 0.313698885087926 4.560210939507014  0.06338063313081797 5.159162757267557  0.06501442699114918 5.783398000000001  C 0.06353513884789398 6.407397097381319  0.313972613290889 7.006047312351353  0.7605011249999984 7.445901833333333  C 1.0434955379988644 7.7270862456908604  1.3941272998920875 7.932128255196336  1.7792828064159283 8.041663729166666  L 3.7608124369469014 16.19432960416667  C 3.8592358942678535 16.60007488871542  4.225416579013307 16.88605578271127  4.646419061946902 16.885973333333336  L 14.392647502212393 16.885973333333336  C 14.813630805307714 16.88600093485012  15.179781348607252 16.60004357402498  15.27825410619469 16.19432960416667  L 17.260087442477875 8.040309041666667  Z " fill-rule="nonzero" fill="#abbfc5" stroke="none" transform="matrix(1 0 0 1 1245 449 )" />
  </g>
</svg>