<?xml version="1.0" encoding="utf-8"?>
<svg version="1.1" xmlns:xlink="http://www.w3.org/1999/xlink" width="3px" height="5px" xmlns="http://www.w3.org/2000/svg">
  <g transform="matrix(1 0 0 1 -1272 -520 )">
    <path d="M 2.964935064935065 1.1400462962962965  C 2.998701298701299 1.1709104938271602  3.0051948051948054 1.204668209876543  2.9844155844155846 1.2413194444444442  C 2.961038961038961 1.2779706790123453  2.9233766233766234 1.2962962962962965  2.8714285714285714 1.2962962962962965  L 1.9987012987012989 1.2962962962962965  L 1.9987012987012989 4.907407407407407  C 1.9987012987012989 4.934413580246914  1.987012987012987 4.956597222222222  1.9636363636363636 4.973958333333333  C 1.9402597402597404 4.991319444444445  1.9103896103896103 5  1.8740259740259742 5  L 1.125974025974026 5  C 1.0896103896103897 5  1.0597402597402596 4.991319444444445  1.0363636363636364 4.973958333333333  C 1.012987012987013 4.956597222222222  1.0012987012987014 4.934413580246914  1.0012987012987014 4.907407407407407  L 1.0012987012987014 1.2962962962962965  L 0.12857142857142856 1.2962962962962965  C 0.07402597402597402 1.2962962962962965  0.03636363636363636 1.2779706790123453  0.015584415584415584 1.2413194444444442  C -0.005194805194805197 1.204668209876543  0.0012987012987012957 1.1709104938271602  0.03506493506493506 1.1400462962962965  L 1.3987012987012988 0.028935185185185452  C 1.4246753246753248 0.009645061728394966  1.4545454545454548 0  1.4883116883116883 0  C 1.5246753246753246 0  1.5558441558441558 0.009645061728394966  1.5818181818181816 0.028935185185185452  L 2.964935064935065 1.1400462962962965  Z " fill-rule="nonzero" fill="#0fc060" stroke="none" transform="matrix(1 0 0 1 1272 520 )" />
  </g>
</svg>