<?xml version="1.0" encoding="utf-8"?>
<svg version="1.1" xmlns:xlink="http://www.w3.org/1999/xlink" width="26px" height="24px" xmlns="http://www.w3.org/2000/svg">
  <g transform="matrix(1 0 0 1 -1353 -429 )">
    <path d="M 23.61906702654867 11.351024529411767  C 24.97059057079646 10.94961173529412  25.96241438274336 9.67461079411765  25.962414382743365 8.16458467647059  C 25.962414382743365 7.2773965294117655  25.624325683628317 6.443120911764707  25.011111369469027 5.816245470588237  C 24.404077372871903 5.191364158161827  23.577710900367144 4.840957439444406  22.716388960176992 4.8432072647058835  C 21.854406824066373 4.840697560488715  21.02730073809775 5.191100587796935  20.419588535398233 5.816245470588235  C 19.808625264154617 6.437721784484836  19.466216379459848 7.2833447203877295  19.468701119469028 8.16458467647059  C 19.468701119469028 9.050710323529412  19.80637422123894 9.88413594117647  20.42000413274336 10.511648911764706  C 20.5469692079646 10.641699  20.68453204424779 10.756024088235296  20.827497617256636 10.861424176470589  C 19.736969378318584 11.977262500000002  18.005589573008848 12.290275235294118  16.591518599557524 11.511037147058824  C 15.515536296460176 10.918374205882355  14.67623682522124 9.889023470588237  14.349577053097343 8.776797647058823  C 14.208066042035396 8.106359647058824  14.56153184292035 6.44545844117647  14.580441550884952 6.394033382352941  C 15.587850263274333 5.829632970588235  16.27254737831858 4.7346196764705875  16.27254737831858 3.4791687647058827  C 16.27254737831858 2.5936806176470593  15.934874276548669 1.7604675  15.32124436504425 1.1327420294117663  C 14.714237939619283 0.5081038452853008  13.888071717796283 0.15779510116441364  13.026937553097344 0.1599163235294119  C 12.165003771897588 0.1574452913103578  11.337936283700945 0.5077554464013248  10.730137128318585 1.1327420294117663  C 10.11926707561707 1.7535334876781739  9.776704260049108 2.5984783031052396  9.778834115044248 3.4791687647058827  C 9.776376201631534 4.360736463059902  10.118933993310762 5.206663633871534  10.730137128318583 5.828357970588235  C 10.98370620679881 6.086631100276136  11.277350336680454 6.30017857091847  11.599151809734511 6.460333441176472  C 11.606009165929201 6.474783441176472  11.611619730088494 6.4894459705882355  11.619100511061946 6.503470970588236  C 11.688505325221238 6.635433558823531  11.965708955752211 8.123997147058823  11.791157926991149 8.778072647058824  C 11.459926612831856 9.901560970588235  10.608574818584069 10.946636735294117  9.518254378318584 11.54737467647059  C 8.059922230088494 12.349987764705883  6.313165294247785 12.038887529411765  5.200818194690264 10.87799917647059  C 6.035338267699113 10.27662373529412  6.582680373893803 9.285735500000001  6.582680402654865 8.16479717647059  C 6.582680402654865 7.276334029411766  6.24583849557522 6.442058411764705  5.633870944690264 5.816457970588237  C 5.020656601769909 5.188945000000002  4.204838438053095 4.843419764705883  3.337070548672565 4.843419764705883  C 2.4693026592920346 4.843419764705883  1.6536922654867243 5.188945029411766  1.0402701526548652 5.816457970588237  C 0.42927215854137235 6.437944855774608  0.08673139270532987 7.283523892613022  0.08896711061946729 8.16479717647059  C 0.0869428215813286 9.045737078655979  0.42964673397700603 9.890890323319557  1.040685749999998 10.511861411764706  C 1.4279412625247618 10.908827640975332  1.9077531472207512 11.198298713218357  2.4348080508849548 11.352937029411764  L 5.146374913716812 22.86258297058824  C 5.2810596447875895 23.435399842892355  5.782149002860315 23.839137575592382  6.358257663716813 23.83902117647059  L 19.695201845132747 23.839021176470595  C 20.271284259894763 23.839060143317816  20.772332371778344 23.435355633917617  20.90708456637168 22.86258297058824  L 23.61906702654867 11.351024529411767  Z " fill-rule="nonzero" fill="#f1c04d" stroke="none" transform="matrix(1 0 0 1 1353 429 )" />
  </g>
</svg>