<?xml version="1.0" encoding="utf-8"?>
<svg version="1.1" xmlns:xlink="http://www.w3.org/1999/xlink" width="39px" height="39px" xmlns="http://www.w3.org/2000/svg">
  <g transform="matrix(1 0 0 1 -1346 -446 )">
    <path d="M 38.85619307142858 19.53300505580357  C 38.85619307142858 30.208825141741073  30.19198854575893 38.86487862388393  19.503518748883927 38.86487862388393  C 8.816028870535714 38.86487862388393  0.15489768415178298 30.208780613839284  0.15489768415178298 19.53300505580357  C 0.15489768415178298 11.33844327455357  5.255447524553569 4.33745277120536  12.45883331584821 1.5239169475446448  C 14.635295956473211 0.6459202198660732  17.013084954241066 0.1610444062500021  19.50400868638393 0.1610444062500021  C 21.9980057578125 0.1610444062500021  24.373745862723215 0.6454302823660736  26.552257396205356 1.5239169475446448  C 33.755197821428574 4.337452771205356  38.85619307142858 11.338487802455356  38.85619307142858 19.53300505580357  Z M 12.066246954241072 15.456012696428571  C 12.066246954241072 18.713847314732142  13.735474071428573 21.534465207589285  16.161991175223214 22.91510973549107  C 17.16831117857143 23.487731762276788  18.301395502232147 23.81796047544643  19.503518748883927 23.81796047544643  C 20.663461449776786 23.81796047544643  21.75703772879464 23.509067069196433  22.736989292410712 22.975463106026794  C 25.220830955357144 21.621187017857153  26.9438638828125 18.766094213169648  26.9438638828125 15.456547205357147  C 26.9438638828125 10.848489756696432  23.606924032366074 7.09767280915179  19.503563276785712 7.09767280915179  C 15.402696823660714 7.097182828125  12.066246954241072 10.848044303571427  12.066246954241072 15.456012696428571  Z M 19.582134043526786 37.61211200558036  C 25.235529602678575 37.61211200558036  30.278710356026785 35.01215136830357  33.5842040625 30.94331000892857  C 33.19371112165179 27.73366898772321  30.066159572544645 25.001331816964285  25.639785800223216 23.638414747767854  C 23.968019809151787 25.14230480357143  21.83213423102679 26.04720443638393  19.50298428348214 26.04720443638393  C 17.122121946428567 26.04720443638393  14.942675022321426 25.093621268973216  13.254651515624996 23.52430009486607  C 8.94889538504464 24.753237147321425  5.795064539062495 27.259928501116068  5.055591066964283 30.263610827008925  C 8.335696252232143 34.71947090625  13.622383864955356 37.61211200558036  19.582134043526786 37.61211200558036  Z " fill-rule="nonzero" fill="#cccccc" stroke="none" transform="matrix(1 0 0 1 1346 446 )" />
  </g>
</svg>