<?xml version="1.0" encoding="utf-8"?>
<svg version="1.1" xmlns:xlink="http://www.w3.org/1999/xlink" width="16px" height="16px" xmlns="http://www.w3.org/2000/svg">
  <g transform="matrix(1 0 0 1 -5086 -660 )">
    <path d="M 4.748046875 1.3105468750000024  C 5.498046875 1.00390625  6.2890625 0.8515625  7.1015625 0.8515625  C 7.9140625 0.8515625  8.705078125 1.005859375  9.453125 1.30859375  C 10.228515625 1.623046875  10.923828124999998 2.0839843750000004  11.519531249999998 2.681640625  C 12.65625 3.8203125  13.306640624999998 5.33203125  13.34765625 6.939453125  C 13.388671875 8.541015625000002  12.82421875 10.078125  11.7578125 11.267578125  L 11.525390625 11.527343749999998  L 11.265625 11.759765624999998  C 10.123046875 12.78515625  8.642578125 13.3515625  7.099609375 13.3515625  C 6.287109374999999 13.3515625  5.496093749999999 13.197265625  4.748046875 12.89453125  C 3.97265625 12.580078125  3.27734375 12.119140625  2.681640625 11.521484375000002  C 2.083984375 10.923828125  1.623046875 10.228515625  1.3085937499999993 9.455078125000002  C 1.0039062499999993 8.705078125000002  0.8515624999999994 7.912109375000003  0.8515624999999994 7.101562500000003  C 0.8515624999999994 6.289062500000003  1.0058593749999993 5.498046875000003  1.3085937499999993 4.750000000000003  C 1.6230468749999993 3.974609375000002  2.0839843749999996 3.279296875000002  2.681640625 2.683593750000002  C 3.279296875 2.085937500000002  3.974609375 1.6250000000000024  4.748046875 1.3105468750000024  Z M 12.072265625 2.12890625  C 10.69921875 0.755859375  8.900390625 0.0703125  7.1015625 0.0703125  C 5.302734375 0.0703125  3.501953125 0.755859375  2.12890625 2.12890625  C -0.6171874999999997 4.875  -0.6171874999999997 9.326171875  2.12890625 12.072265625  C 3.501953125 13.4453125  5.30078125 14.1328125  7.099609375 14.1328125  C 8.77734375 14.1328125  10.455078125 13.53515625  11.787109375 12.341796875  L 15.37890625 15.9296875  L 15.931640624999998 15.376953125  L 12.341796875 11.7890625  C 14.81640625 9.029296875  14.7265625 4.783203125  12.072265625 2.12890625  Z " fill-rule="nonzero" fill="#999999" stroke="none" transform="matrix(1 0 0 1 5086 660 )" />
  </g>
</svg>