<?xml version="1.0" encoding="utf-8"?>
<svg version="1.1" xmlns:xlink="http://www.w3.org/1999/xlink" width="582px" height="12px" preserveAspectRatio="xMinYMid meet" viewBox="4629 975  582 10" xmlns="http://www.w3.org/2000/svg">
  <path d="M 5205.5 774  L 5205.5 975  A 5 5 0 0 1 5200.5 980.5 L 4640 980.5  A 5 5 0 0 0 4635.5 985.5 L 4635.5 989  " stroke-width="3" stroke="#e7772d" fill="none" />
  <path d="M 5205.5 771  A 4 4 0 0 0 5201.5 775 A 4 4 0 0 0 5205.5 779 A 4 4 0 0 0 5209.5 775 A 4 4 0 0 0 5205.5 771 Z M 4625.5 979.9  L 4635.5 992  L 4645.5 979.9  L 4635.5 984.8  L 4625.5 979.9  Z " fill-rule="nonzero" fill="#e7772d" stroke="none" />
</svg>