<?xml version="1.0" encoding="utf-8"?>
<svg version="1.1" xmlns:xlink="http://www.w3.org/1999/xlink" width="173px" height="66px" xmlns="http://www.w3.org/2000/svg">
  <g transform="matrix(1 0 0 1 -6282 -686 )">
    <path d="M 6283 691  A 4 4 0 0 1 6287 687 L 6450 687  A 4 4 0 0 1 6454 691 L 6454 747  A 4 4 0 0 1 6450 751 L 6287 751  A 4 4 0 0 1 6283 747 L 6283 691  Z " fill-rule="nonzero" fill="#d9001b" stroke="none" fill-opacity="0.2" />
    <path d="M 6282.5 691  A 4.5 4.5 0 0 1 6287 686.5 L 6450 686.5  A 4.5 4.5 0 0 1 6454.5 691 L 6454.5 747  A 4.5 4.5 0 0 1 6450 751.5 L 6287 751.5  A 4.5 4.5 0 0 1 6282.5 747 L 6282.5 691  Z " stroke-width="1" stroke-dasharray="9,4" stroke="#d9001b" fill="none" stroke-dashoffset="0.5" />
  </g>
</svg>