<?xml version="1.0" encoding="utf-8"?>
<svg version="1.1" xmlns:xlink="http://www.w3.org/1999/xlink" width="80px" height="66px" xmlns="http://www.w3.org/2000/svg">
  <g transform="matrix(1 0 0 1 -6131 -686 )">
    <path d="M 6132 691  A 4 4 0 0 1 6136 687 L 6206 687  A 4 4 0 0 1 6210 691 L 6210 747  A 4 4 0 0 1 6206 751 L 6136 751  A 4 4 0 0 1 6132 747 L 6132 691  Z " fill-rule="nonzero" fill="#d9001b" stroke="none" fill-opacity="0.2" />
    <path d="M 6131.5 691  A 4.5 4.5 0 0 1 6136 686.5 L 6206 686.5  A 4.5 4.5 0 0 1 6210.5 691 L 6210.5 747  A 4.5 4.5 0 0 1 6206 751.5 L 6136 751.5  A 4.5 4.5 0 0 1 6131.5 747 L 6131.5 691  Z " stroke-width="1" stroke-dasharray="9,4" stroke="#d9001b" fill="none" stroke-dashoffset="0.5" />
  </g>
</svg>