<?xml version="1.0" encoding="utf-8"?>
<svg version="1.1" xmlns:xlink="http://www.w3.org/1999/xlink" width="443px" height="66px" xmlns="http://www.w3.org/2000/svg">
  <g transform="matrix(1 0 0 1 -4674 -686 )">
    <path d="M 4675 691  A 4 4 0 0 1 4679 687 L 5112 687  A 4 4 0 0 1 5116 691 L 5116 747  A 4 4 0 0 1 5112 751 L 4679 751  A 4 4 0 0 1 4675 747 L 4675 691  Z " fill-rule="nonzero" fill="#d9001b" stroke="none" fill-opacity="0.2" />
    <path d="M 4674.5 691  A 4.5 4.5 0 0 1 4679 686.5 L 5112 686.5  A 4.5 4.5 0 0 1 5116.5 691 L 5116.5 747  A 4.5 4.5 0 0 1 5112 751.5 L 4679 751.5  A 4.5 4.5 0 0 1 4674.5 747 L 4674.5 691  Z " stroke-width="1" stroke-dasharray="9,4" stroke="#d9001b" fill="none" stroke-dashoffset="0.5" />
  </g>
</svg>