<?xml version="1.0" encoding="utf-8"?>
<svg version="1.1" xmlns:xlink="http://www.w3.org/1999/xlink" width="12px" height="16px" preserveAspectRatio="xMidYMin meet" viewBox="6428 976  10 16" xmlns="http://www.w3.org/2000/svg">
  <path d="M 7211.5 776  L 7211.5 977  A 5 5 0 0 1 7206.5 982.5 L 6438 982.5  A 5 5 0 0 0 6433.5 987.5 L 6433.5 989  " stroke-width="3" stroke="#e7772d" fill="none" />
  <path d="M 7211.5 773  A 4 4 0 0 0 7207.5 777 A 4 4 0 0 0 7211.5 781 A 4 4 0 0 0 7215.5 777 A 4 4 0 0 0 7211.5 773 Z M 6423.5 979.9  L 6433.5 992  L 6443.5 979.9  L 6433.5 984.8  L 6423.5 979.9  Z " fill-rule="nonzero" fill="#e7772d" stroke="none" />
</svg>