<?xml version="1.0" encoding="utf-8"?>
<svg version="1.1" xmlns:xlink="http://www.w3.org/1999/xlink" width="361px" height="66px" xmlns="http://www.w3.org/2000/svg">
  <g transform="matrix(1 0 0 1 -6677 -1135 )">
    <path d="M 6678 1140  A 4 4 0 0 1 6682 1136 L 7033 1136  A 4 4 0 0 1 7037 1140 L 7037 1196  A 4 4 0 0 1 7033 1200 L 6682 1200  A 4 4 0 0 1 6678 1196 L 6678 1140  Z " fill-rule="nonzero" fill="#d9001b" stroke="none" fill-opacity="0.2" />
    <path d="M 6677.5 1140  A 4.5 4.5 0 0 1 6682 1135.5 L 7033 1135.5  A 4.5 4.5 0 0 1 7037.5 1140 L 7037.5 1196  A 4.5 4.5 0 0 1 7033 1200.5 L 6682 1200.5  A 4.5 4.5 0 0 1 6677.5 1196 L 6677.5 1140  Z " stroke-width="1" stroke-dasharray="9,4" stroke="#d9001b" fill="none" stroke-dashoffset="0.5" />
  </g>
</svg>