<?xml version="1.0" encoding="utf-8"?>
<svg version="1.1" xmlns:xlink="http://www.w3.org/1999/xlink" width="16px" height="15px" xmlns="http://www.w3.org/2000/svg">
  <g transform="matrix(1 0 0 1 -3123 -3869 )">
    <path d="M 0.022140440677966104 14.055489214743591  C 0.0480262203389831 13.475135384615387  0.41464503389830504 13.267861570512821  1.0594083898305084 13  L 14.901916 13  C 15.472162796610169 13.264291586538462  15.939558118644067 13.534774583333334  15.939093254237287 14.034058557692308  L 15.939093254237287 14.118494711538464  C 15.95657720338983 14.66039341346154  15.483501288135592 14.940310625  14.901916 15  L 1.0594083898305084 15  C 0.36832728813559323 14.918579791666668  0.05936471186440669 14.715165416666668  0.022140440677966104 14.13993608974359  L 0.022140440677966104 14.055489214743591  Z M 15.346090101694912 4.89701831730769  C 15.346090101694912 4.808722708333332  15.305838457627116 4.724672499999999  15.235709881355932 4.666448429487179  L 9.700892898305083 0.139733637820513  C 9.6051705561186 0.06576583696740554  9.473031568875399 0.05034182120507393  9.361157661016948 0.10007780448717951  C 9.249289611210012 0.14976312147001183  9.177484089832832 0.25571911223721144  9.176487627118643 0.3725762980769231  L 9.176487627118643 2.9183434775641026  C 9.173947796610168 3.0744474358974365  9.044847728813558 3.185856842948718  8.883478305084743 3.219026650641026  C 1.9784498813559304 4.638596073717949  0.8803282372881338 10.032721875  0.8440790847457614 11.976318637820512  C 0.8414372203389818 12.117649487179486  0.9464656779661003 12.24050858974359  1.0918591525423715 12.272820753205128  C 1.2372866610169477 12.305100753205128  1.3871475084745748 12.238364455128202  1.45330761016949 12.111645897435896  C 2.8799620677966105 9.33203903846154  5.095140627118644 6.35922391025641  8.84030133898305 6.652198926282051  C 8.92807261016949 6.65906016025641  9.013927677966102 6.680169198717948  9.077287152542372 6.7380609294871805  C 9.140782711864405 6.795952660256411  9.17661233898305 6.87577891025641  9.176487627118645 6.959121554487179  L 9.176487627118645 9.444970785256409  C 9.17618417986172 9.562401466571009  9.247500502025021 9.669477078683657  9.359638288135594 9.719956490384615  C 9.471762754720439 9.77053171064235  9.604686103924012 9.75538588202128  9.700892898305083 9.681072548076921  L 15.23570988135593 5.127577467948715  C 15.30585230941651 5.069305060928492  15.346068563094258 4.985302462805113  15.346090101694912 4.89701831730769  Z " fill-rule="nonzero" fill="#333333" stroke="none" transform="matrix(1 0 0 1 3123 3869 )" />
  </g>
</svg>