<?xml version="1.0" encoding="utf-8"?>
<svg version="1.1" xmlns:xlink="http://www.w3.org/1999/xlink" width="16px" height="16px" xmlns="http://www.w3.org/2000/svg">
  <g transform="matrix(1 0 0 1 -4727 -5902 )">
    <path d="M 15.317866671875 1.4394666640624998  L 8.755733328125 8.0016000078125  L 15.334933320312501 14.580266679687501  C 15.543466648437501 14.788266687500002  15.543466648437501 15.125866671875002  15.334933320312501 15.3344000234375  C 15.126399992187501 15.542933374999995  14.789333328125 15.5429333515625  14.580799976562503 15.3344000234375  L 8.0016000078125 8.756266671875  L 1.4496000078125 15.308266671875  C 1.2416000000000005 15.5162666796875  0.9050666796875 15.5162666796875  0.6976000156250002 15.308266671875  C 0.4901333515624998 15.1008000078125  0.4901333515624998 14.7642666640625  0.6976000156250002 14.5568  L 7.250133359374999 8.00426665625  L 0.6650666562499999 1.4192  C 0.4565333281249998 1.2106666718749999  0.4565333281249998 0.8730666640624996  0.6650666562499999 0.6650666562499999  C 0.8730666640624996 0.4565333281249998  1.2106666484374997 0.4565333281249998  1.4192 0.6650666562499999  L 8.00426665625 7.2501333125  L 14.56693334375 0.687466671875  C 14.774400007812499 0.48000000781250024  15.1109333515625 0.48000000781250024  15.317866671875 0.687466671875  C 15.525866679687502 0.8949333359375004  15.525866679687502 1.232  15.317866671875 1.4394666640624998  Z " fill-rule="nonzero" fill="#000000" stroke="none" transform="matrix(1 0 0 1 4727 5902 )" />
  </g>
</svg>