<?xml version="1.0" encoding="utf-8"?>
<svg version="1.1" xmlns:xlink="http://www.w3.org/1999/xlink" width="30px" height="30px" xmlns="http://www.w3.org/2000/svg">
  <g transform="matrix(1 0 0 1 -3628 -5995 )">
    <path d="M 29.8 30  C 29.56 22.35  20.44 24.2625  19.08 20.775  C 18.96 19.6125  19 18.75  19 17.6625  C 19.56 17.3625  21.56 15.562500000000002  21.72 14.0625  C 22.16 14.025  22.88 13.612499999999999  23.08 11.9625  C 23.2 11.1  22.759999999999998 10.575  22.479999999999997 10.424999999999999  C 23.199999999999996 8.362499999999999  23.519999999999996 1.9124999999999992  18.479999999999997 1.2749999999999995  C 17.96 0.44999999999999996  16.64 0  14.92 0  C 8.04 0.11249999999999999  6 4.95  7.52 10.4625  C 7.24 10.6125  6.8 11.1  6.92 12  C 7.119999999999999 13.65  7.839999999999999 14.0625  8.28 14.100000000000001  C 8.44 15.6375  10.44 17.4375  11 17.700000000000003  C 11 18.7875  11.04 19.6125  10.92 20.812500000000004  C 9.56 24.2625  0.6399999999999999 22.462500000000002  0.19999999999999996 30  L 29.8 30  Z " fill-rule="nonzero" fill="#ffffff" stroke="none" transform="matrix(1 0 0 1 3628 5995 )" />
  </g>
</svg>