<?xml version="1.0" encoding="utf-8"?>
<svg version="1.1" xmlns:xlink="http://www.w3.org/1999/xlink" width="10px" height="10px" xmlns="http://www.w3.org/2000/svg">
  <g transform="matrix(1 0 0 1 -9663 -535 )">
    <path d="M 9668 535  C 9670.8 535  9673 537.2  9673 540  C 9673 542.8  9670.8 545  9668 545  C 9665.2 545  9663 542.8  9663 540  C 9663 537.2  9665.2 535  9668 535  Z " fill-rule="nonzero" fill="#ffffff" stroke="none" />
    <path d="M 9668 535.5  C 9670.52 535.5  9672.5 537.48  9672.5 540  C 9672.5 542.52  9670.52 544.5  9668 544.5  C 9665.48 544.5  9663.5 542.52  9663.5 540  C 9663.5 537.48  9665.48 535.5  9668 535.5  Z " stroke-width="1" stroke="#0fc060" fill="none" />
  </g>
</svg>