<?xml version="1.0" encoding="utf-8"?>
<svg version="1.1" xmlns:xlink="http://www.w3.org/1999/xlink" width="11px" height="14px" xmlns="http://www.w3.org/2000/svg">
  <g transform="matrix(1 0 0 1 -10479 -201 )">
    <path d="M 10.983561237113403 4.032692902  C 10.983561237113403 4.0120968580000005  10.981093608247424 3.9918830979999997  10.977126052835052 3.972338342  C 10.9768357435567 3.9720516219999995  10.977126052835052 3.9715737599999996  10.9768357435567 3.97114368  C 10.971029557989691 3.9440486399999997  10.960868733247422 3.918578342  10.94780481572165 3.8945416580000005  C 10.944804948453607 3.8889984  10.94175670103093 3.883741876  10.938611693298968 3.87838976  C 10.923805920103092 3.8542574980000004  10.907113136597937 3.8315110400000005  10.88650117783505 3.8121574400000005  L 6.946423637886599 0.11394730199999997  C 6.9452624007731965 0.11294378199999999  6.944778556701032 0.11294378199999999  6.944488247422682 0.11270484400000003  C 6.92436013273196 0.09373354200000002  6.90074832087629 0.078394022  6.875878483247424 0.06482260400000003  C 6.869733608247423 0.06152532400000001  6.863782268041238 0.05841918600000002  6.857250309278353 0.05555198600000003  C 6.832235331185569 0.043844248000000044  6.8057687925257735 0.03419134600000001  6.777608792525775 0.028648088000000016  C 6.775189543814435 0.028504728000000024  6.7730122242268065 0.028504728000000024  6.770931679123713 0.028409150000000005  C 6.751868041237115 0.024968509999999996  6.732756009020621 0.022770328000000006  6.7124343595360845 0.022770328000000006  L 1.0472907216494844 0.02277034200000002  C 0.5236695579896904 0.02277034200000002  0.09749553737113376 0.42456064000000004  0 0.918674764  L 0 13.022750706  C 0.09749553737113376 13.516721484000001  0.5236695579896904 13.918894066  1.0472907216494844 13.918894066  L 10.033911207474228 13.918894066  C 10.557629145618558 13.918894066  10.983561237113403 13.516721484  10.983561237113403 13.022750706  L 10.983561237113403 4.032692902  Z M 7.04275793814433 1.082391898  L 9.854596833762887 3.72155392  L 7.04275793814433 3.72155392  L 7.04275793814433 1.082391898  Z M 10.32393017654639 13.022989657999998  C 10.32393017654639 13.173756595999999  10.19387161984536 13.296759475999998  10.033911207474226 13.296759475999998  L 1.0472907216494844 13.296759462  C 0.88704 13.296759462  0.7570298234536081 13.173852160000001  0.7570298234536081 13.022989644  L 0.7570298234536081 0.9188181380000001  C 0.7570298234536081 0.7677644800000001  0.8870883801546391 0.6450961159999999  1.0472907216494844 0.6450961159999999  L 6.383223637886597 0.6450961159999999  L 6.383223637886597 4.032549556  C 6.383223637886597 4.204390414  6.531136215206185 4.343688538000001  6.712966597938144 4.343688538000001  L 10.32402693685567 4.343688538000001  L 10.32393017654639 13.022989657999998  Z " fill-rule="nonzero" fill="#ffffff" stroke="none" transform="matrix(1 0 0 1 10479 201 )" />
  </g>
</svg>