<?xml version="1.0" encoding="utf-8"?>
<svg version="1.1" xmlns:xlink="http://www.w3.org/1999/xlink" width="15px" height="14px" xmlns="http://www.w3.org/2000/svg">
  <g transform="matrix(1 0 0 1 -10605 -201 )">
    <path d="M 6.624230769230769 0.7400400000000001  L 6.0807692307692305 2.1083999999999996  C 6.043049238718717 2.2032941176983933  5.963075100200337 2.2764952740029396  5.863269230769231 2.3074800000000004  C 5.408289607708823 2.448839618352437  4.975050864132158 2.649168437142656  4.57528846153846 2.9030399999999994  C 4.488410451534413 2.958184310545297  4.380623081153442 2.9725729009699577  4.281634615384614 2.94224  L 2.8231730769230756 2.49508  C 2.403221318542265 2.883228832124862  2.036984911319999 3.3226778720025485  1.7336538461538444 3.8023999999999996  L 2.509615384615383 5.06072  C 2.563846153846152 5.1491999999999996  2.5736538461538445 5.256719999999999  2.5358653846153834 5.35304  C 2.3678063391257798 5.7814732954185954  2.261325508829237 6.230328918375539  2.219423076923075 6.686959999999999  C 2.2100960073470337 6.78905780421423  2.1532681654190067 6.881439410084756  2.065096153846152 6.93784  L 0.7941346153846154 7.7504  C 0.8495192307692309 8.317680000000001  0.9816346153846155 8.8634  1.1803846153846156 9.37832  L 2.697115384615385 9.58216  C 2.800297909147271 9.596106203878746  2.8915223660214853 9.654418656702147  2.94548076923077 9.740920000000001  C 3.1915805027650896 10.134982397167784  3.4914084683131676 10.494959151682744  3.8368269230769236 10.811080000000002  C 3.9135985167308833 10.8815452532342  3.953010714073689 10.982186653965876  3.943846153846154 11.084360000000002  L 3.814038461538462 12.54316  C 4.304629660308072 12.851047400929197  4.834351504079571 13.095762150063543  5.389903846153847 13.271160000000002  L 6.502211538461539 12.260640000000002  C 6.578040833753545 12.1917934033621  6.681703676049578 12.159623120901164  6.7846153846153845 12.172999999999998  C 7.259444287938788 12.23435226778638  7.740555712061211 12.23435226778638  8.215384615384616 12.173  C 8.318296323950428 12.159623120901164  8.421959166246456 12.1917934033621  8.497788461538462 12.260640000000002  L 9.610096153846156 13.271160000000002  C 10.165650915488099 13.095768041581906  10.69537352421355 12.851052939063011  11.18596153846154 12.54316  L 11.056153846153848 11.084360000000002  C 11.047062722069922 10.982141518967623  11.086583989740735 10.881492890739638  11.163461538461542 10.811080000000004  C 11.508791187007922 10.494952752084876  11.80852291900893 10.134975038983626  12.054519230769232 9.740920000000001  C 12.108477633978515 9.654418656702147  12.19970209085273 9.596106203878746  12.302884615384615 9.58216  L 13.819615384615387 9.37832  C 14.021785620075795 8.854579504320874  14.151757133598856 8.30720001340982  14.206153846153848 7.7504  L 12.93490384615385 6.93784  C 12.846731834580993 6.881439410084756  12.78990399265297 6.789057804214228  12.780576923076927 6.686959999999999  C 12.738674491170764 6.23032891837554  12.632193660874222 5.7814732954185954  12.46413461538462 5.35304  C 12.42636020010907 5.256801428587642  12.4361413111947 5.149062915245156  12.49067307692308 5.06072  L 13.266634615384616 3.8023999999999996  C 12.963242791424733 3.322557370753927  12.596907172664338 2.8830115146618724  12.176826923076925 2.4947999999999997  L 10.718365384615387 2.94224  C 10.61937691884656 2.972572900969959  10.511589548465588 2.9581843105452985  10.424711538461542 2.9030399999999994  C 10.024952593390477 2.649162464805443  9.591712991585853 2.4488332491721523  9.136730769230772 2.30748  C 9.036924899799663 2.27649527400294  8.956950761281286 2.203294117698393  8.919230769230772 2.1083999999999996  L 8.375769230769231 0.7397599999999994  C 7.794300380526586 0.6674344661897962  7.205699619473415 0.6674344661897962  6.624230769230771 0.7397599999999994  Z M 6.051057692307692 0.31443999999999983  C 6.095496238650386 0.2024678007554648  6.198079497482379 0.12199737307131087  6.320192307692307 0.10331999999999969  C 6.7104561026508485 0.04369464034356348  7.104931521201513 0.013829989846136535  7.5 0.013999999999999952  C 7.901249999999999 0.013999999999999952  8.295288461538462 0.04480000000000004  8.679807692307692 0.10359999999999979  C 8.801853323386531 0.12222503562073858  8.90442102134765 0.20257654821683563  8.94894230769231 0.31443999999999983  L 9.506538461538463 1.71948  C 9.910680413539902 1.8572655520368  10.298466442875666 2.0366474394183958  10.663269230769231 2.2545599999999997  L 12.159807692307693 1.7959200000000002  C 12.276655983322119 1.759991412642179  12.404366343708165 1.7867225223015395  12.495576923076923 1.8661999999999992  C 13.080918560500747 2.3763864901411687  13.578535045268243 2.9740643338876978  13.969615384615386 3.63664  C 14.03181410931486 3.7420050298662604  14.03060098795665 3.871748138559427  13.966442307692308 3.9759999999999995  L 13.169134615384614 5.2690399999999995  C 13.306153846153846 5.6509599999999995  13.402211538461538 6.051079999999999  13.452692307692306 6.464359999999999  L 14.757692307692308 7.298759999999999  C 14.86153846153846 7.365119999999998  14.920673076923075 7.480479999999998  14.912884615384614 7.601159999999998  C 14.862654312080812 8.360744283079589  14.685536260153231 9.107349806025583  14.388461538461536 9.811759999999998  C 14.341723674559804 9.922569189058002  14.23776687756791 10.000863089531876  14.115576923076922 10.017279999999998  L 12.558173076923076 10.226439999999997  C 12.328060014841281 10.572872144065139  12.06048466868823 10.894456128139351  11.759999999999998 11.185719999999996  L 11.89326923076923 12.683439999999997  C 11.903872474437323 12.80363252904697  11.847282493000508 12.920118345051492  11.745000000000001 12.988639999999998  C 11.094318735300451 13.424159255770236  10.376269700834774 13.756206006675349  9.617884615384613 13.972279999999998  C 9.500345970774378 14.005796707279796  9.373310596135049 13.97651348102442  9.28384615384615 13.895279999999998  L 8.142115384615382 12.858439999999996  C 7.7152199611348795 12.9020994045803  7.284780038865115 12.9020994045803  6.857884615384614 12.858439999999996  L 5.716153846153846 13.895279999999998  C 5.626689403864948 13.976513481024421  5.4996540292256215 14.005796707279796  5.382115384615383 13.972279999999998  C 4.6238538618708205 13.756251631057422  3.905907303383679 13.424301757706877  3.2552884615384596 12.988919999999997  C 3.152707299419664 12.920362777982993  3.0959763674553087 12.803599724599705  3.1067307692307673 12.683159999999997  L 3.239999999999998 11.185719999999996  C 2.9395315810470337 10.894543970905989  2.6719567740829637 10.573054500391972  2.441826923076921 10.226719999999998  L 0.8844230769230745 10.017280000000001  C 0.7623412443623603 10.000769870548966  0.6585140910157511 9.922490862372504  0.6118269230769207 9.811759999999998  C 0.31470711950139224 9.107266164874561  0.13758794402968702 8.360561338373719  0.08740384615384383 7.600879999999998  C 0.07930719479750718 7.480384898758272  0.13844416032017856 7.364938970086528  0.24230769230768998 7.298479999999999  L 1.54730769230769 6.464079999999999  C 1.5977884615384594 6.051079999999998  1.6938461538461518 5.650959999999999  1.8308653846153824 5.269039999999998  L 1.0335576923076923 3.9759999999999995  C 0.9693990120433531 3.871748138559428  0.9681858906851413 3.7420050298662595  1.0303846153846157 3.6366400000000008  C 1.4214731340975475 2.974069765431363  1.9190886268933056 2.3763931131235108  2.5044230769230773 1.8661999999999996  C 2.5955713058315717 1.7868234737007307  2.7231421412801535 1.7600986085590304  2.8399038461538466 1.7959200000000002  L 4.336442307692308 2.25456  C 4.701241652620249 2.0367159835431448  5.089030457868867 1.8574266808259057  5.493173076923076 1.71976  L 6.051057692307692 0.31443999999999983  Z M 10.126730769230768 7.0543200000000015  C 10.126730769230768 5.7246000000000015  9.001442307692306 4.639880000000002  7.6041346153846145 4.639880000000001  C 6.207115384615384 4.639880000000001  5.081826923076922 5.7246  5.081826923076922 7.0543200000000015  C 5.081826923076922 8.38376  6.206826923076922 9.468760000000001  7.6041346153846145 9.468760000000001  C 9.001442307692306 9.468760000000001  10.126730769230768 8.38376  10.126730769230768 7.0543200000000015  Z M 7.604134615384616 10.14076  C 5.83298076923077 10.14076  4.389519230769232 8.7626  4.38951923076923 7.0543200000000015  C 4.38951923076923 5.345760000000001  5.832692307692308 3.967880000000001  7.6041346153846145 3.967880000000001  C 9.375576923076922 3.967880000000001  10.819038461538462 5.34548  10.819038461538462 7.0543200000000015  C 10.819038461538462 8.7626  9.375576923076924 10.14076  7.604134615384616 10.14076  Z " fill-rule="nonzero" fill="#ffffff" stroke="none" transform="matrix(1 0 0 1 10605 201 )" />
  </g>
</svg>