<?xml version="1.0" encoding="utf-8"?>
<svg version="1.1" xmlns:xlink="http://www.w3.org/1999/xlink" width="16px" height="16px" xmlns="http://www.w3.org/2000/svg">
  <g transform="matrix(1 0 0 1 -8422 -2185 )">
    <path d="M 8430 2186  C 8433.92 2186  8437 2189.08  8437 2193  C 8437 2196.92  8433.92 2200  8430 2200  C 8426.08 2200  8423 2196.92  8423 2193  C 8423 2189.08  8426.08 2186  8430 2186  Z " fill-rule="nonzero" fill="#ffffff" stroke="none" fill-opacity="0" />
    <path d="M 8430 2186  C 8433.92 2186  8437 2189.08  8437 2193  C 8437 2196.92  8433.92 2200  8430 2200  C 8426.08 2200  8423 2196.92  8423 2193  C 8423 2189.08  8426.08 2186  8430 2186  Z " stroke-width="2" stroke="#e7772d" fill="none" />
  </g>
</svg>