<?xml version="1.0" encoding="utf-8"?>
<svg version="1.1" xmlns:xlink="http://www.w3.org/1999/xlink" width="16px" height="16px" xmlns="http://www.w3.org/2000/svg">
  <g transform="matrix(1 0 0 1 -8551 -2185 )">
    <path d="M 8559 2186  C 8562.92 2186  8566 2189.08  8566 2193  C 8566 2196.92  8562.92 2200  8559 2200  C 8555.08 2200  8552 2196.92  8552 2193  C 8552 2189.08  8555.08 2186  8559 2186  Z " fill-rule="nonzero" fill="#ffffff" stroke="none" fill-opacity="0" />
    <path d="M 8559 2186  C 8562.92 2186  8566 2189.08  8566 2193  C 8566 2196.92  8562.92 2200  8559 2200  C 8555.08 2200  8552 2196.92  8552 2193  C 8552 2189.08  8555.08 2186  8559 2186  Z " stroke-width="2" stroke="#999999" fill="none" />
  </g>
</svg>