<?xml version="1.0" encoding="utf-8"?>
<svg version="1.1" xmlns:xlink="http://www.w3.org/1999/xlink" width="20px" height="20px" xmlns="http://www.w3.org/2000/svg">
  <g transform="matrix(1 0 0 1 -8335 -2682 )">
    <path d="M 2.297345132743364 1.5869469026548677  L 17.87256637168142 1.5869469026548675  C 18.26356442465897 1.5869469026548675  18.580530973451328 1.9039134514472265  18.580530973451328 2.294911504424779  L 18.580530973451328 17.87013274336283  C 18.580530973451328 18.261130796340385  18.26356442465897 18.578097345132743  17.87256637168142 18.578097345132743  L 2.297345132743364 18.578097345132743  C 1.9063470797658109 18.578097345132743  1.589380530973452 18.261130796340385  1.589380530973452 17.87013274336283  L 1.589380530973452 2.294911504424779  C 1.589380530973452 1.9039134514472265  1.9063470797658109 1.5869469026548677  2.297345132743364 1.5869469026548677  Z M 20 2.294911504424779  C 19.99646017699115 1.1219173454921203  19.045560530614075 0.17101769911504466  17.87256637168142 0.17101769911504466  L 2.297345132743364 0.17101769911504466  C 1.1243509738107047 0.17101769911504466  0.17345132743362887 1.1219173454921203  0.173451327433629 2.294911504424779  L 0.17345132743362887 17.87013274336283  C 0.17345132743362887 19.043126902295487  1.1243509738107047 19.994026548672565  2.297345132743364 20  L 17.872566371681412 20  C 19.045560530614075 19.994026548672565  19.99646017699115 19.043126902295487  20 17.87013274336283  L 20 2.294911504424779  Z " fill-rule="nonzero" fill="#000000" stroke="none" transform="matrix(1 0 0 1 8335 2682 )" />
  </g>
</svg>