<?xml version="1.0" encoding="utf-8"?>
<svg version="1.1" xmlns:xlink="http://www.w3.org/1999/xlink" width="8px" height="6px" xmlns="http://www.w3.org/2000/svg">
  <g transform="matrix(1 0 0 1 -8511 -2077 )">
    <path d="M 7.878263394325658 0.6152398871527774  C 8.003281959292762 0.47603369140624985  7.996385598273026 0.2562491644965274  7.864152384868421 0.12465842013888917  C 7.731919171463816 -0.006241699218749928  7.5233662726151325 1.11979166672111E-05  7.399355633223685 0.1399453450520834  L 3.0124947882401316 5.070136924913196  L 0.6161169613486843 2.5777710611979163  C 0.4865185032894736 2.4430445421006937  0.2782839021381579 2.444444444444444  0.15064825246710506 2.581242816840278  C 0.02301260279605238 2.7177052083333333  0.02465712376644715 2.9378443793402784  0.15427326274671035 3.072216254340278  L 2.790785752467105 5.813876573350695  C 2.7917759971217104 5.814921831597222  2.7930845394736843 5.8152578125  2.7940747841282896 5.816303070746528  C 2.795065028782894 5.817348328993055  2.7953833264802634 5.818729568142361  2.7963735711348683 5.8197748263888895  C 2.8170980057565793 5.840605360243057  2.8421017166940796 5.85242052951389  2.8661151829769738 5.866307552083334  C 2.877962767269737 5.873605707465279  2.8881481599506587 5.884356944444445  2.9006500102796053 5.889564583333334  C 2.939464124177632 5.9055421223958335  2.9805770148026327 5.913866872829862  3.0213716180098693 5.913866872829862  C 3.0644650082236846 5.913866872829862  3.1075583881578956 5.904832845052084  3.147681044407895 5.886783441840279  C 3.161173149671054 5.880885188802084  3.1716945106907897 5.868734049479168  3.184196371299343 5.861081250000002  C 3.208864103618421 5.845794325086806  3.234522090871711 5.83295256076389  3.2555825041118425 5.810386154513891  C 3.2565727487664478 5.809340896267362  3.2568910464638163 5.807605013020835  3.2578812911184216 5.806559754774308  C 3.258535557154606 5.805514496527781  3.2598617804276318 5.805178515625002  3.2608343441611853 5.804133257378475  L 7.878263394325658 0.6152398871527774  Z " fill-rule="nonzero" fill="#ffffff" stroke="none" transform="matrix(1 0 0 1 8511 2077 )" />
  </g>
</svg>