<?xml version="1.0" encoding="utf-8"?>
<svg version="1.1" xmlns:xlink="http://www.w3.org/1999/xlink" width="23px" height="22px" preserveAspectRatio="xMinYMid meet" viewBox="9012 623  23 20" xmlns="http://www.w3.org/2000/svg">
  <path d="M 9022 633.5  L 9084.293103448275 633.5  A 5 5 0 0 0 9089.793103448275 628.5 L 9089.793103448275 559  A 5 5 0 0 1 9094.793103448275 554.5 L 9156 554.5  " stroke-width="3" stroke="#e7772d" fill="none" />
  <path d="M 9023 629.5  A 4 4 0 0 0 9019 633.5 A 4 4 0 0 0 9023 637.5 A 4 4 0 0 0 9027 633.5 A 4 4 0 0 0 9023 629.5 Z M 9146.9 564.5  L 9159 554.5  L 9146.9 544.5  L 9151.8 554.5  L 9146.9 564.5  Z " fill-rule="nonzero" fill="#e7772d" stroke="none" />
</svg>