<?xml version="1.0" encoding="utf-8"?>
<svg version="1.1" xmlns:xlink="http://www.w3.org/1999/xlink" width="16px" height="16px" xmlns="http://www.w3.org/2000/svg">
  <g transform="matrix(1 0 0 1 -13834 -1223 )">
    <path d="M 13842 1223  C 13846.48 1223  13850 1226.52  13850 1231  C 13850 1235.48  13846.48 1239  13842 1239  C 13837.52 1239  13834 1235.48  13834 1231  C 13834 1226.52  13837.52 1223  13842 1223  Z " fill-rule="nonzero" fill="#ffffff" stroke="none" />
    <path d="M 13842 1223.5  C 13846.2 1223.5  13849.5 1226.8  13849.5 1231  C 13849.5 1235.2  13846.2 1238.5  13842 1238.5  C 13837.8 1238.5  13834.5 1235.2  13834.5 1231  C 13834.5 1226.8  13837.8 1223.5  13842 1223.5  Z " stroke-width="1" stroke="#e7772d" fill="none" />
  </g>
</svg>