<?xml version="1.0" encoding="utf-8"?>
<svg version="1.1" xmlns:xlink="http://www.w3.org/1999/xlink" width="16px" height="16px" xmlns="http://www.w3.org/2000/svg">
  <g transform="matrix(1 0 0 1 -13949 -1223 )">
    <path d="M 13957 1223  C 13961.48 1223  13965 1226.52  13965 1231  C 13965 1235.48  13961.48 1239  13957 1239  C 13952.52 1239  13949 1235.48  13949 1231  C 13949 1226.52  13952.52 1223  13957 1223  Z " fill-rule="nonzero" fill="#ffffff" stroke="none" />
    <path d="M 13957 1223.5  C 13961.2 1223.5  13964.5 1226.8  13964.5 1231  C 13964.5 1235.2  13961.2 1238.5  13957 1238.5  C 13952.8 1238.5  13949.5 1235.2  13949.5 1231  C 13949.5 1226.8  13952.8 1223.5  13957 1223.5  Z " stroke-width="1" stroke="#797979" fill="none" />
  </g>
</svg>