<?xml version="1.0" encoding="utf-8"?>
<svg version="1.1" xmlns:xlink="http://www.w3.org/1999/xlink" width="20px" height="20px" xmlns="http://www.w3.org/2000/svg">
  <g transform="matrix(1 0 0 1 -14505 -816 )">
    <path d="M 19.866666666666667 20  C 19.706666666666667 14.9  13.626666666666667 16.175  12.719999999999999 13.85  C 12.64 13.075000000000001  12.666666666666666 12.5  12.666666666666666 11.775  C 13.04 11.575  14.373333333333333 10.375  14.48 9.375  C 14.773333333333333 9.350000000000001  15.253333333333332 9.075  15.386666666666667 7.975  C 15.466666666666667 7.4  15.173333333333332 7.05  14.986666666666665 6.949999999999999  C 15.466666666666665 5.574999999999999  15.679999999999998 1.2749999999999995  12.319999999999997 0.8499999999999996  C 11.973333333333333 0.3  11.093333333333334 0  9.946666666666667 0  C 5.359999999999999 0.075  4 3.3000000000000003  5.013333333333333 6.975  C 4.826666666666667 7.075  4.533333333333333 7.4  4.613333333333333 8  C 4.746666666666666 9.1  5.226666666666667 9.375  5.52 9.4  C 5.626666666666667 10.425  6.959999999999999 11.625  7.333333333333333 11.8  C 7.333333333333333 12.525000000000002  7.359999999999999 13.075000000000001  7.279999999999999 13.875000000000002  C 6.373333333333334 16.175  0.4266666666666666 14.975000000000001  0.1333333333333333 20  L 19.866666666666667 20  Z " fill-rule="nonzero" fill="#ffffff" stroke="none" transform="matrix(1 0 0 1 14505 816 )" />
  </g>
</svg>