<?xml version="1.0" encoding="utf-8"?>
<svg version="1.1" xmlns:xlink="http://www.w3.org/1999/xlink" width="22px" height="22px" xmlns="http://www.w3.org/2000/svg">
  <g transform="matrix(1 0 0 1 -13837 -800 )">
    <path d="M 13848 800  C 13854.16 800  13859 804.84  13859 811  C 13859 817.16  13854.16 822  13848 822  C 13841.84 822  13837 817.16  13837 811  C 13837 804.84  13841.84 800  13848 800  Z " fill-rule="nonzero" fill="#ffffff" stroke="none" />
    <path d="M 13848 800.5  C 13853.88 800.5  13858.5 805.12  13858.5 811  C 13858.5 816.88  13853.88 821.5  13848 821.5  C 13842.12 821.5  13837.5 816.88  13837.5 811  C 13837.5 805.12  13842.12 800.5  13848 800.5  Z " stroke-width="1" stroke="#ffffff" fill="none" />
  </g>
</svg>