<?xml version="1.0" encoding="utf-8"?>
<svg version="1.1" xmlns:xlink="http://www.w3.org/1999/xlink" width="21px" height="20px" xmlns="http://www.w3.org/2000/svg">
  <g transform="matrix(1 0 0 1 -1878 -837 )">
    <path d="M 10.844999997070312 19.742388750000003  C 10.704381401313515 19.881750218700265  10.514304390476758 19.959876894519212  10.31625 19.959718975409835  C 9.903269274099916 19.957986386715586  9.569398916041585 19.622973025859988  9.569398916041585 19.210311052074992  C 9.569398916041585 19.012323203485796  9.647807777658626 18.82237990908807  9.787500002929688 18.681967213114753  L 17.790000005859376 10.681967213114756  C 18.795826971856616 9.677422488919596  19.36093651313463 8.314669099444009  19.36093651313463 6.893676813524592  C 19.36093651313463 3.9355695334085254  16.96104330435835 1.5375497775664946  14.00062500292969 1.5375497775664946  C 12.579441421404647 1.5375497775664946  11.216427076981601 2.101490750267612  10.21125 3.105386413934426  L 2.737499994140625 10.573302110655739  C 2.033350216170238 11.276902203772883  1.637762990256873 12.231188715944965  1.637762990256873 13.226229508196724  C 1.637762990256873 15.298294698182463  3.3188160105494293 16.97803542103529  5.392500001464844 16.97803542103529  C 6.3883181743605375 16.97803542103529  7.343350227265473 16.58275700240528  8.047500008789063 15.879156905737705  L 15.0675 8.875878217213115  C 15.433753852446834 8.489013558833522  15.63784244214764 7.9766923773866205  15.63784244214764 7.444154306441078  C 15.63784244214764 6.293539525695396  14.704356149479842 5.360781949883701  13.552842450936705 5.360781949883701  C 13.019888334623234 5.360781949883701  12.507166902253326 5.564711219842353  12.120000005859374 5.930679159836066  L 6.494999991210939 11.551288053278688  C 6.356936001070321 11.676741095133409  6.177024902485646 11.746257370117103  5.9904110443646035 11.746257370117103  C 5.576197477137443 11.746257370117103  5.240411035575541 11.410733056924883  5.240411035575541 10.996842841428581  C 5.240411035575541 10.811289568274972  5.309302069590528 10.632333956210275  5.433750000000001 10.494613586065576  L 11.058749994140625 4.874004692622953  C 11.714715247188176 4.292318871904959  12.561319470912636 3.9710795268848913  13.438347234862182 3.9710795268848913  C 15.41828806785964 3.9710795268848913  17.023347243651244 5.574885729081029  17.023347243651244 7.5532809408193184  C 17.023347243651244 8.426880512792348  16.70386265363675 9.270369927287906  16.124999994140623 9.925058545081967  L 9.105000002929687 16.939578463114756  C 8.119714164062097 17.923598417092055  6.783678126991414 18.476373332779875  5.390625002929688 18.476373332779875  C 2.488785341718522 18.476373332779875  0.13637950348357686 16.125803876932313  0.13637950348357686 13.226229508196724  C 0.13637950348357686 11.833345714955293  0.6903142682478677 10.497549568090909  1.6762500029296876 9.512880553278688  L 9.150000008789062 2.048711946721311  C 10.436465743262998 0.7632504790190184  12.181287713708386 0.04108574613155935  14.000625002929688 0.04108574613155935  C 17.78919878370524 0.04108574613155935  20.860444655629276 3.1099340802945314  20.860444655629276 6.895550348360654  C 20.860444655629276 8.71346738989326  20.137715731544247 10.456927282297706  18.851249997070312 11.74238875  L 10.844999997070312 19.742388750000003  Z " fill-rule="nonzero" fill="#999999" stroke="none" transform="matrix(1 0 0 1 1878 837 )" />
  </g>
</svg>