<?xml version="1.0" encoding="utf-8"?>
<svg version="1.1" xmlns:xlink="http://www.w3.org/1999/xlink" width="20px" height="20px" xmlns="http://www.w3.org/2000/svg">
  <g transform="matrix(1 0 0 1 -2372 -1008 )">
    <path d="M 13.28369140625 5.903320312499999  L 9.95361328125 9.11865234375  L 6.73828125 5.78857421875  C 6.484375 5.52734375  6.0693359375 5.5224609375  5.808105468749999 5.7763671875  C 5.681152343749999 5.89599609375  5.607910156249999 6.06201171875  5.605468749999999 6.23779296875  C 5.600585937499999 6.413574218749999  5.668945312499999 6.58203125  5.788574218749999 6.706542968749999  L 9.003906249999998 10.03662109375  L 5.673828124999999 13.251953125  C 5.412597656249999 13.505859375  5.40771484375 13.9208984375  5.661621093749999 14.182128906250002  C 5.781249999999999 14.309082031250002  5.947265624999999 14.382324218750002  6.123046874999999 14.384765625  C 6.298828124999999 14.389648437500002  6.467285156249999 14.3212890625  6.591796874999999 14.20166015625  L 9.921874999999998 10.986328125000002  L 13.13720703125 14.316406250000002  C 13.39111328125 14.577636718750002  13.80615234375 14.58251953125  14.0673828125 14.328613281250002  C 14.194335937500002 14.208984375000002  14.267578125000002 14.04296875  14.27001953125 13.867187500000002  C 14.27490234375 13.69140625  14.20654296875 13.522949218750002  14.0869140625 13.3984375  L 10.87158203125 10.068359374999998  L 14.20166015625 6.853027343749999  C 14.462890625000002 6.59912109375  14.4677734375 6.18408203125  14.2138671875 5.922851562499999  C 14.09423828125 5.795898437499999  13.92822265625 5.722656249999999  13.75244140625 5.720214843749999  C 13.57666015625 5.715332031249999  13.408203125 5.783691406249999  13.28369140625 5.903320312499999  Z M 16.89453125 17.109375  C 12.956542968749998 20.910644531250004  6.6845703125 20.80322265625  2.880859375 16.865234375  C -0.9204101562499996 12.927246093750002  -0.8105468749999996 6.655273437500001  3.125 2.8515625000000018  C 7.062988281250001 -0.9497070312499984  13.3349609375 -0.8398437499999984  17.138671875 3.0957031250000018  C 20.939941406249996 7.033691406250001  20.83251953125 13.305664062500002  16.89453125 17.109375  Z " fill-rule="nonzero" fill="#999999" stroke="none" transform="matrix(1 0 0 1 2372 1008 )" />
  </g>
</svg>