<?xml version="1.0" encoding="utf-8"?>
<svg version="1.1" xmlns:xlink="http://www.w3.org/1999/xlink" width="48px" height="60px" xmlns="http://www.w3.org/2000/svg">
  <g transform="matrix(1 0 0 1 -1740 -987 )">
    <path d="M 34 13.050847436440678  L 34 0.980084745762712  C 34.733333375 1.0381355720338985  34.79916668749999 1.098305084745763  34.86208331249999 1.162288156779661  L 47.02374999999999 13.530084724576271  C 47.08666668749999 13.594067796610169  47.145833312499995 13.661016927966102  47.20291668749999 14  L 35.333333312499995 14  C 34.96514349218131 13.72881352421919  34.6666666875 13.425277762188502  34 13.050847436440678  Z M 35.3333333125 17  C 33.49324083478493 16.43857634122595  32.002066584126084 14.92212792229202  32 13.050847436440678  L 32 1  L 3.3333333124999984 1  C 1.493240859153946 0.17159319260516426  0.0020666185617450594 1.6880415728684184  0 3.5593220338983054  L 0 56.44067796610168  C 0.0020666185617415063 58.31195842713158  1.4932408591539408 59.82840680739483  3.3333333125000006 59  L 44.6666666875 59  C 46.50675914084606 59.82840680739483  47.99793338143826 58.31195842713158  48 56.440677966101696  L 48 17  L 35.3333333125 17  Z " fill-rule="nonzero" fill="#666666" stroke="none" transform="matrix(1 0 0 1 1740 987 )" />
  </g>
</svg>