<?xml version="1.0" encoding="utf-8"?>
<svg version="1.1" xmlns:xlink="http://www.w3.org/1999/xlink" width="18px" height="18px" viewBox="1381 255  18 18" xmlns="http://www.w3.org/2000/svg">
  <path d="M 1381.5 258  A 2.5 2.5 0 0 1 1384 255.5 L 1396 255.5  A 2.5 2.5 0 0 1 1398.5 258 L 1398.5 270  A 2.5 2.5 0 0 1 1396 272.5 L 1384 272.5  A 2.5 2.5 0 0 1 1381.5 270 L 1381.5 258  Z " fill-rule="nonzero" fill="#ffffff" stroke="none" />
  <path d="M 1381.5 258  A 2.5 2.5 0 0 1 1384 255.5 L 1396 255.5  A 2.5 2.5 0 0 1 1398.5 258 L 1398.5 270  A 2.5 2.5 0 0 1 1396 272.5 L 1384 272.5  A 2.5 2.5 0 0 1 1381.5 270 L 1381.5 258  Z " stroke-width="1" stroke="#797979" fill="none" />
  <path d="M 1384.857142857143 264  L 1388.7142857142858 267.8571428571429  L 1395.142857142857 258.85714285714283  " stroke-width="3.8571428571428577" stroke="#797979" fill="none" />
</svg>