<?xml version="1.0" encoding="utf-8"?>
<svg version="1.1" xmlns:xlink="http://www.w3.org/1999/xlink" width="18px" height="18px" viewBox="1740 499  18 18" xmlns="http://www.w3.org/2000/svg">
  <path d="M 1740.5 502  A 2.5 2.5 0 0 1 1743 499.5 L 1755 499.5  A 2.5 2.5 0 0 1 1757.5 502 L 1757.5 514  A 2.5 2.5 0 0 1 1755 516.5 L 1743 516.5  A 2.5 2.5 0 0 1 1740.5 514 L 1740.5 502  Z " fill-rule="nonzero" fill="#ffffff" stroke="none" />
  <path d="M 1740.5 502  A 2.5 2.5 0 0 1 1743 499.5 L 1755 499.5  A 2.5 2.5 0 0 1 1757.5 502 L 1757.5 514  A 2.5 2.5 0 0 1 1755 516.5 L 1743 516.5  A 2.5 2.5 0 0 1 1740.5 514 L 1740.5 502  Z " stroke-width="1" stroke="#797979" fill="none" />
</svg>