<?xml version="1.0" encoding="utf-8"?>
<svg version="1.1" xmlns:xlink="http://www.w3.org/1999/xlink" width="18px" height="18px" viewBox="1998 465  18 18" xmlns="http://www.w3.org/2000/svg">
  <path d="M 1998.5 468  A 2.5 2.5 0 0 1 2001 465.5 L 2013 465.5  A 2.5 2.5 0 0 1 2015.5 468 L 2015.5 480  A 2.5 2.5 0 0 1 2013 482.5 L 2001 482.5  A 2.5 2.5 0 0 1 1998.5 480 L 1998.5 468  Z " fill-rule="nonzero" fill="#ffffff" stroke="none" />
  <path d="M 1998.5 468  A 2.5 2.5 0 0 1 2001 465.5 L 2013 465.5  A 2.5 2.5 0 0 1 2015.5 468 L 2015.5 480  A 2.5 2.5 0 0 1 2013 482.5 L 2001 482.5  A 2.5 2.5 0 0 1 1998.5 480 L 1998.5 468  Z " stroke-width="1" stroke="#797979" fill="none" />
  <path d="M 2001.857142857143 474  L 2005.7142857142858 477.8571428571429  L 2012.142857142857 468.85714285714283  " stroke-width="3.8571428571428577" stroke="#797979" fill="none" />
</svg>