<?xml version="1.0" encoding="utf-8"?>
<svg version="1.1" xmlns:xlink="http://www.w3.org/1999/xlink" width="18px" height="18px" viewBox="1136 255  18 18" xmlns="http://www.w3.org/2000/svg">
  <path d="M 1136.5 258  A 2.5 2.5 0 0 1 1139 255.5 L 1151 255.5  A 2.5 2.5 0 0 1 1153.5 258 L 1153.5 270  A 2.5 2.5 0 0 1 1151 272.5 L 1139 272.5  A 2.5 2.5 0 0 1 1136.5 270 L 1136.5 258  Z " fill-rule="nonzero" fill="#f0f0f0" stroke="none" />
  <path d="M 1136.5 258  A 2.5 2.5 0 0 1 1139 255.5 L 1151 255.5  A 2.5 2.5 0 0 1 1153.5 258 L 1153.5 270  A 2.5 2.5 0 0 1 1151 272.5 L 1139 272.5  A 2.5 2.5 0 0 1 1136.5 270 L 1136.5 258  Z " stroke-width="1" stroke="#797979" fill="none" />
</svg>