<?xml version="1.0" encoding="utf-8"?>
<svg version="1.1" xmlns:xlink="http://www.w3.org/1999/xlink" width="18px" height="18px" viewBox="388 215  18 18" xmlns="http://www.w3.org/2000/svg">
  <path d="M 388.5 218  A 2.5 2.5 0 0 1 391 215.5 L 403 215.5  A 2.5 2.5 0 0 1 405.5 218 L 405.5 230  A 2.5 2.5 0 0 1 403 232.5 L 391 232.5  A 2.5 2.5 0 0 1 388.5 230 L 388.5 218  Z " fill-rule="nonzero" fill="#f0f0f0" stroke="none" />
  <path d="M 388.5 218  A 2.5 2.5 0 0 1 391 215.5 L 403 215.5  A 2.5 2.5 0 0 1 405.5 218 L 405.5 230  A 2.5 2.5 0 0 1 403 232.5 L 391 232.5  A 2.5 2.5 0 0 1 388.5 230 L 388.5 218  Z " stroke-width="1" stroke="#797979" fill="none" />
  <path d="M 391.85714285714283 224  L 395.7142857142857 227.85714285714286  L 402.14285714285717 218.85714285714286  " stroke-width="3.8571428571428577" stroke="#797979" fill="none" />
</svg>