<?xml version="1.0" encoding="utf-8"?>
<svg version="1.1" xmlns:xlink="http://www.w3.org/1999/xlink" width="18px" height="18px" viewBox="646 255  18 18" xmlns="http://www.w3.org/2000/svg">
  <path d="M 646.5 258  A 2.5 2.5 0 0 1 649 255.5 L 661 255.5  A 2.5 2.5 0 0 1 663.5 258 L 663.5 270  A 2.5 2.5 0 0 1 661 272.5 L 649 272.5  A 2.5 2.5 0 0 1 646.5 270 L 646.5 258  Z " fill-rule="nonzero" fill="#f0f0f0" stroke="none" />
  <path d="M 646.5 258  A 2.5 2.5 0 0 1 649 255.5 L 661 255.5  A 2.5 2.5 0 0 1 663.5 258 L 663.5 270  A 2.5 2.5 0 0 1 661 272.5 L 649 272.5  A 2.5 2.5 0 0 1 646.5 270 L 646.5 258  Z " stroke-width="1" stroke="#797979" fill="none" />
  <path d="M 649.8571428571429 264  L 653.7142857142857 267.8571428571429  L 660.1428571428571 258.85714285714283  " stroke-width="3.8571428571428577" stroke="#797979" fill="none" />
</svg>