<?xml version="1.0" encoding="utf-8"?>
<svg version="1.1" xmlns:xlink="http://www.w3.org/1999/xlink" width="18px" height="18px" viewBox="1252 255  18 18" xmlns="http://www.w3.org/2000/svg">
  <path d="M 1252.5 258  A 2.5 2.5 0 0 1 1255 255.5 L 1267 255.5  A 2.5 2.5 0 0 1 1269.5 258 L 1269.5 270  A 2.5 2.5 0 0 1 1267 272.5 L 1255 272.5  A 2.5 2.5 0 0 1 1252.5 270 L 1252.5 258  Z " fill-rule="nonzero" fill="#f0f0f0" stroke="none" />
  <path d="M 1252.5 258  A 2.5 2.5 0 0 1 1255 255.5 L 1267 255.5  A 2.5 2.5 0 0 1 1269.5 258 L 1269.5 270  A 2.5 2.5 0 0 1 1267 272.5 L 1255 272.5  A 2.5 2.5 0 0 1 1252.5 270 L 1252.5 258  Z " stroke-width="1" stroke="#797979" fill="none" />
</svg>