<?xml version="1.0" encoding="utf-8"?>
<svg version="1.1" xmlns:xlink="http://www.w3.org/1999/xlink" width="18px" height="18px" viewBox="1740 533  18 18" xmlns="http://www.w3.org/2000/svg">
  <path d="M 1740.5 536  A 2.5 2.5 0 0 1 1743 533.5 L 1755 533.5  A 2.5 2.5 0 0 1 1757.5 536 L 1757.5 548  A 2.5 2.5 0 0 1 1755 550.5 L 1743 550.5  A 2.5 2.5 0 0 1 1740.5 548 L 1740.5 536  Z " fill-rule="nonzero" fill="#ffffff" stroke="none" />
  <path d="M 1740.5 536  A 2.5 2.5 0 0 1 1743 533.5 L 1755 533.5  A 2.5 2.5 0 0 1 1757.5 536 L 1757.5 548  A 2.5 2.5 0 0 1 1755 550.5 L 1743 550.5  A 2.5 2.5 0 0 1 1740.5 548 L 1740.5 536  Z " stroke-width="1" stroke="#797979" fill="none" />
</svg>