<?xml version="1.0" encoding="utf-8"?>
<svg version="1.1" xmlns:xlink="http://www.w3.org/1999/xlink" width="18px" height="18px" viewBox="169 255  18 18" xmlns="http://www.w3.org/2000/svg">
  <path d="M 169.5 258  A 2.5 2.5 0 0 1 172 255.5 L 184 255.5  A 2.5 2.5 0 0 1 186.5 258 L 186.5 270  A 2.5 2.5 0 0 1 184 272.5 L 172 272.5  A 2.5 2.5 0 0 1 169.5 270 L 169.5 258  Z " fill-rule="nonzero" fill="#f0f0f0" stroke="none" />
  <path d="M 169.5 258  A 2.5 2.5 0 0 1 172 255.5 L 184 255.5  A 2.5 2.5 0 0 1 186.5 258 L 186.5 270  A 2.5 2.5 0 0 1 184 272.5 L 172 272.5  A 2.5 2.5 0 0 1 169.5 270 L 169.5 258  Z " stroke-width="1" stroke="#797979" fill="none" />
  <path d="M 172.85714285714286 264  L 176.71428571428572 267.8571428571429  L 183.14285714285714 258.85714285714283  " stroke-width="3.8571428571428577" stroke="#797979" fill="none" />
</svg>