<?xml version="1.0" encoding="utf-8"?>
<svg version="1.1" xmlns:xlink="http://www.w3.org/1999/xlink" width="18px" height="18px" viewBox="388 255  18 18" xmlns="http://www.w3.org/2000/svg">
  <path d="M 388.5 258  A 2.5 2.5 0 0 1 391 255.5 L 403 255.5  A 2.5 2.5 0 0 1 405.5 258 L 405.5 270  A 2.5 2.5 0 0 1 403 272.5 L 391 272.5  A 2.5 2.5 0 0 1 388.5 270 L 388.5 258  Z " fill-rule="nonzero" fill="#ffffff" stroke="none" />
  <path d="M 388.5 258  A 2.5 2.5 0 0 1 391 255.5 L 403 255.5  A 2.5 2.5 0 0 1 405.5 258 L 405.5 270  A 2.5 2.5 0 0 1 403 272.5 L 391 272.5  A 2.5 2.5 0 0 1 388.5 270 L 388.5 258  Z " stroke-width="1" stroke="#797979" fill="none" />
  <path d="M 391.85714285714283 264  L 395.7142857142857 267.8571428571429  L 402.14285714285717 258.85714285714283  " stroke-width="3.8571428571428577" stroke="#797979" fill="none" />
</svg>