<?xml version="1.0" encoding="utf-8"?>
<svg version="1.1" xmlns:xlink="http://www.w3.org/1999/xlink" width="18px" height="18px" viewBox="1740 431  18 18" xmlns="http://www.w3.org/2000/svg">
  <path d="M 1740.5 434  A 2.5 2.5 0 0 1 1743 431.5 L 1755 431.5  A 2.5 2.5 0 0 1 1757.5 434 L 1757.5 446  A 2.5 2.5 0 0 1 1755 448.5 L 1743 448.5  A 2.5 2.5 0 0 1 1740.5 446 L 1740.5 434  Z " fill-rule="nonzero" fill="#ffffff" stroke="none" />
  <path d="M 1740.5 434  A 2.5 2.5 0 0 1 1743 431.5 L 1755 431.5  A 2.5 2.5 0 0 1 1757.5 434 L 1757.5 446  A 2.5 2.5 0 0 1 1755 448.5 L 1743 448.5  A 2.5 2.5 0 0 1 1740.5 446 L 1740.5 434  Z " stroke-width="1" stroke="#0066ff" fill="none" />
</svg>