<?xml version="1.0" encoding="utf-8"?>
<svg version="1.1" xmlns:xlink="http://www.w3.org/1999/xlink" width="18px" height="18px" viewBox="891 255  18 18" xmlns="http://www.w3.org/2000/svg">
  <path d="M 891.5 258  A 2.5 2.5 0 0 1 894 255.5 L 906 255.5  A 2.5 2.5 0 0 1 908.5 258 L 908.5 270  A 2.5 2.5 0 0 1 906 272.5 L 894 272.5  A 2.5 2.5 0 0 1 891.5 270 L 891.5 258  Z " fill-rule="nonzero" fill="#ffffff" stroke="none" />
  <path d="M 891.5 258  A 2.5 2.5 0 0 1 894 255.5 L 906 255.5  A 2.5 2.5 0 0 1 908.5 258 L 908.5 270  A 2.5 2.5 0 0 1 906 272.5 L 894 272.5  A 2.5 2.5 0 0 1 891.5 270 L 891.5 258  Z " stroke-width="1" stroke="#797979" fill="none" />
</svg>