<?xml version="1.0" encoding="utf-8"?>
<svg version="1.1" xmlns:xlink="http://www.w3.org/1999/xlink" width="18px" height="18px" viewBox="1998 601  18 18" xmlns="http://www.w3.org/2000/svg">
  <path d="M 1998.5 604  A 2.5 2.5 0 0 1 2001 601.5 L 2013 601.5  A 2.5 2.5 0 0 1 2015.5 604 L 2015.5 616  A 2.5 2.5 0 0 1 2013 618.5 L 2001 618.5  A 2.5 2.5 0 0 1 1998.5 616 L 1998.5 604  Z " fill-rule="nonzero" fill="#ffffff" stroke="none" />
  <path d="M 1998.5 604  A 2.5 2.5 0 0 1 2001 601.5 L 2013 601.5  A 2.5 2.5 0 0 1 2015.5 604 L 2015.5 616  A 2.5 2.5 0 0 1 2013 618.5 L 2001 618.5  A 2.5 2.5 0 0 1 1998.5 616 L 1998.5 604  Z " stroke-width="1" stroke="#0066ff" fill="none" />
  <path d="M 2001.857142857143 610  L 2005.7142857142858 613.8571428571428  L 2012.142857142857 604.8571428571429  " stroke-width="3.8571428571428577" stroke="#0066ff" fill="none" />
</svg>