<?xml version="1.0" encoding="utf-8"?>
<svg version="1.1" xmlns:xlink="http://www.w3.org/1999/xlink" width="18px" height="18px" viewBox="1869 635  18 18" xmlns="http://www.w3.org/2000/svg">
  <path d="M 1869.5 638  A 2.5 2.5 0 0 1 1872 635.5 L 1884 635.5  A 2.5 2.5 0 0 1 1886.5 638 L 1886.5 650  A 2.5 2.5 0 0 1 1884 652.5 L 1872 652.5  A 2.5 2.5 0 0 1 1869.5 650 L 1869.5 638  Z " fill-rule="nonzero" fill="#ffffff" stroke="none" />
  <path d="M 1869.5 638  A 2.5 2.5 0 0 1 1872 635.5 L 1884 635.5  A 2.5 2.5 0 0 1 1886.5 638 L 1886.5 650  A 2.5 2.5 0 0 1 1884 652.5 L 1872 652.5  A 2.5 2.5 0 0 1 1869.5 650 L 1869.5 638  Z " stroke-width="1" stroke="#797979" fill="none" />
  <path d="M 1872.857142857143 644  L 1876.7142857142858 647.8571428571428  L 1883.142857142857 638.8571428571429  " stroke-width="3.8571428571428577" stroke="#797979" fill="none" />
</svg>