<?xml version="1.0" encoding="utf-8"?>
<svg version="1.1" xmlns:xlink="http://www.w3.org/1999/xlink" width="18px" height="18px" viewBox="169 295  18 18" xmlns="http://www.w3.org/2000/svg">
  <path d="M 169.5 298  A 2.5 2.5 0 0 1 172 295.5 L 184 295.5  A 2.5 2.5 0 0 1 186.5 298 L 186.5 310  A 2.5 2.5 0 0 1 184 312.5 L 172 312.5  A 2.5 2.5 0 0 1 169.5 310 L 169.5 298  Z " fill-rule="nonzero" fill="#ffffff" stroke="none" />
  <path d="M 169.5 298  A 2.5 2.5 0 0 1 172 295.5 L 184 295.5  A 2.5 2.5 0 0 1 186.5 298 L 186.5 310  A 2.5 2.5 0 0 1 184 312.5 L 172 312.5  A 2.5 2.5 0 0 1 169.5 310 L 169.5 298  Z " stroke-width="1" stroke="#797979" fill="none" />
</svg>