<?xml version="1.0" encoding="utf-8"?>
<svg version="1.1" xmlns:xlink="http://www.w3.org/1999/xlink" width="18px" height="18px" viewBox="1998 431  18 18" xmlns="http://www.w3.org/2000/svg">
  <path d="M 1998.5 434  A 2.5 2.5 0 0 1 2001 431.5 L 2013 431.5  A 2.5 2.5 0 0 1 2015.5 434 L 2015.5 446  A 2.5 2.5 0 0 1 2013 448.5 L 2001 448.5  A 2.5 2.5 0 0 1 1998.5 446 L 1998.5 434  Z " fill-rule="nonzero" fill="#ffffff" stroke="none" />
  <path d="M 1998.5 434  A 2.5 2.5 0 0 1 2001 431.5 L 2013 431.5  A 2.5 2.5 0 0 1 2015.5 434 L 2015.5 446  A 2.5 2.5 0 0 1 2013 448.5 L 2001 448.5  A 2.5 2.5 0 0 1 1998.5 446 L 1998.5 434  Z " stroke-width="1" stroke="#0066ff" fill="none" />
</svg>