<?xml version="1.0" encoding="utf-8"?>
<svg version="1.1" xmlns:xlink="http://www.w3.org/1999/xlink" width="18px" height="18px" viewBox="1869 431  18 18" xmlns="http://www.w3.org/2000/svg">
  <path d="M 1869.5 434  A 2.5 2.5 0 0 1 1872 431.5 L 1884 431.5  A 2.5 2.5 0 0 1 1886.5 434 L 1886.5 446  A 2.5 2.5 0 0 1 1884 448.5 L 1872 448.5  A 2.5 2.5 0 0 1 1869.5 446 L 1869.5 434  Z " fill-rule="nonzero" fill="#ffffff" stroke="none" />
  <path d="M 1869.5 434  A 2.5 2.5 0 0 1 1872 431.5 L 1884 431.5  A 2.5 2.5 0 0 1 1886.5 434 L 1886.5 446  A 2.5 2.5 0 0 1 1884 448.5 L 1872 448.5  A 2.5 2.5 0 0 1 1869.5 446 L 1869.5 434  Z " stroke-width="1" stroke="#999999" fill="none" />
</svg>