<?xml version="1.0" encoding="utf-8"?>
<svg version="1.1" xmlns:xlink="http://www.w3.org/1999/xlink" width="18px" height="18px" viewBox="1869 601  18 18" xmlns="http://www.w3.org/2000/svg">
  <path d="M 1869.5 604  A 2.5 2.5 0 0 1 1872 601.5 L 1884 601.5  A 2.5 2.5 0 0 1 1886.5 604 L 1886.5 616  A 2.5 2.5 0 0 1 1884 618.5 L 1872 618.5  A 2.5 2.5 0 0 1 1869.5 616 L 1869.5 604  Z " fill-rule="nonzero" fill="#f0f0f0" stroke="none" />
  <path d="M 1869.5 604  A 2.5 2.5 0 0 1 1872 601.5 L 1884 601.5  A 2.5 2.5 0 0 1 1886.5 604 L 1886.5 616  A 2.5 2.5 0 0 1 1884 618.5 L 1872 618.5  A 2.5 2.5 0 0 1 1869.5 616 L 1869.5 604  Z " stroke-width="1" stroke="#797979" fill="none" />
  <path d="M 1872.857142857143 610  L 1876.7142857142858 613.8571428571428  L 1883.142857142857 604.8571428571429  " stroke-width="3.8571428571428577" stroke="#797979" fill="none" />
</svg>