<?xml version="1.0" encoding="utf-8"?>
<svg version="1.1" xmlns:xlink="http://www.w3.org/1999/xlink" width="18px" height="18px" viewBox="1869 499  18 18" xmlns="http://www.w3.org/2000/svg">
  <path d="M 1869.5 502  A 2.5 2.5 0 0 1 1872 499.5 L 1884 499.5  A 2.5 2.5 0 0 1 1886.5 502 L 1886.5 514  A 2.5 2.5 0 0 1 1884 516.5 L 1872 516.5  A 2.5 2.5 0 0 1 1869.5 514 L 1869.5 502  Z " fill-rule="nonzero" fill="#f0f0f0" stroke="none" />
  <path d="M 1869.5 502  A 2.5 2.5 0 0 1 1872 499.5 L 1884 499.5  A 2.5 2.5 0 0 1 1886.5 502 L 1886.5 514  A 2.5 2.5 0 0 1 1884 516.5 L 1872 516.5  A 2.5 2.5 0 0 1 1869.5 514 L 1869.5 502  Z " stroke-width="1" stroke="#797979" fill="none" />
  <path d="M 1872.857142857143 508  L 1876.7142857142858 511.85714285714283  L 1883.142857142857 502.85714285714283  " stroke-width="3.8571428571428577" stroke="#797979" fill="none" />
</svg>