<?xml version="1.0" encoding="utf-8"?>
<svg version="1.1" xmlns:xlink="http://www.w3.org/1999/xlink" width="18px" height="18px" viewBox="1869 465  18 18" xmlns="http://www.w3.org/2000/svg">
  <path d="M 1869.5 468  A 2.5 2.5 0 0 1 1872 465.5 L 1884 465.5  A 2.5 2.5 0 0 1 1886.5 468 L 1886.5 480  A 2.5 2.5 0 0 1 1884 482.5 L 1872 482.5  A 2.5 2.5 0 0 1 1869.5 480 L 1869.5 468  Z " fill-rule="nonzero" fill="#ffffff" stroke="none" />
  <path d="M 1869.5 468  A 2.5 2.5 0 0 1 1872 465.5 L 1884 465.5  A 2.5 2.5 0 0 1 1886.5 468 L 1886.5 480  A 2.5 2.5 0 0 1 1884 482.5 L 1872 482.5  A 2.5 2.5 0 0 1 1869.5 480 L 1869.5 468  Z " stroke-width="1" stroke="#0066ff" fill="none" />
  <path d="M 1872.857142857143 474  L 1876.7142857142858 477.8571428571429  L 1883.142857142857 468.85714285714283  " stroke-width="3.8571428571428577" stroke="#0066ff" fill="none" />
</svg>