<?xml version="1.0" encoding="utf-8"?>
<svg version="1.1" xmlns:xlink="http://www.w3.org/1999/xlink" width="18px" height="18px" viewBox="259 295  18 18" xmlns="http://www.w3.org/2000/svg">
  <path d="M 259.5 298  A 2.5 2.5 0 0 1 262 295.5 L 274 295.5  A 2.5 2.5 0 0 1 276.5 298 L 276.5 310  A 2.5 2.5 0 0 1 274 312.5 L 262 312.5  A 2.5 2.5 0 0 1 259.5 310 L 259.5 298  Z " fill-rule="nonzero" fill="#f0f0f0" stroke="none" />
  <path d="M 259.5 298  A 2.5 2.5 0 0 1 262 295.5 L 274 295.5  A 2.5 2.5 0 0 1 276.5 298 L 276.5 310  A 2.5 2.5 0 0 1 274 312.5 L 262 312.5  A 2.5 2.5 0 0 1 259.5 310 L 259.5 298  Z " stroke-width="1" stroke="#797979" fill="none" />
</svg>