<?xml version="1.0" encoding="utf-8"?>
<svg version="1.1" xmlns:xlink="http://www.w3.org/1999/xlink" width="18px" height="18px" viewBox="775 255  18 18" xmlns="http://www.w3.org/2000/svg">
  <path d="M 775.5 258  A 2.5 2.5 0 0 1 778 255.5 L 790 255.5  A 2.5 2.5 0 0 1 792.5 258 L 792.5 270  A 2.5 2.5 0 0 1 790 272.5 L 778 272.5  A 2.5 2.5 0 0 1 775.5 270 L 775.5 258  Z " fill-rule="nonzero" fill="#ffffff" stroke="none" />
  <path d="M 775.5 258  A 2.5 2.5 0 0 1 778 255.5 L 790 255.5  A 2.5 2.5 0 0 1 792.5 258 L 792.5 270  A 2.5 2.5 0 0 1 790 272.5 L 778 272.5  A 2.5 2.5 0 0 1 775.5 270 L 775.5 258  Z " stroke-width="1" stroke="#797979" fill="none" />
</svg>