<?xml version="1.0" encoding="utf-8"?>
<svg version="1.1" xmlns:xlink="http://www.w3.org/1999/xlink" width="18px" height="18px" viewBox="1998 670  18 18" xmlns="http://www.w3.org/2000/svg">
  <path d="M 1998.5 673  A 2.5 2.5 0 0 1 2001 670.5 L 2013 670.5  A 2.5 2.5 0 0 1 2015.5 673 L 2015.5 685  A 2.5 2.5 0 0 1 2013 687.5 L 2001 687.5  A 2.5 2.5 0 0 1 1998.5 685 L 1998.5 673  Z " fill-rule="nonzero" fill="#ffffff" stroke="none" />
  <path d="M 1998.5 673  A 2.5 2.5 0 0 1 2001 670.5 L 2013 670.5  A 2.5 2.5 0 0 1 2015.5 673 L 2015.5 685  A 2.5 2.5 0 0 1 2013 687.5 L 2001 687.5  A 2.5 2.5 0 0 1 1998.5 685 L 1998.5 673  Z " stroke-width="1" stroke="#797979" fill="none" />
</svg>