<?xml version="1.0" encoding="utf-8"?>
<svg version="1.1" xmlns:xlink="http://www.w3.org/1999/xlink" width="18px" height="18px" viewBox="1740 670  18 18" xmlns="http://www.w3.org/2000/svg">
  <path d="M 1740.5 673  A 2.5 2.5 0 0 1 1743 670.5 L 1755 670.5  A 2.5 2.5 0 0 1 1757.5 673 L 1757.5 685  A 2.5 2.5 0 0 1 1755 687.5 L 1743 687.5  A 2.5 2.5 0 0 1 1740.5 685 L 1740.5 673  Z " fill-rule="nonzero" fill="#f0f0f0" stroke="none" />
  <path d="M 1740.5 673  A 2.5 2.5 0 0 1 1743 670.5 L 1755 670.5  A 2.5 2.5 0 0 1 1757.5 673 L 1757.5 685  A 2.5 2.5 0 0 1 1755 687.5 L 1743 687.5  A 2.5 2.5 0 0 1 1740.5 685 L 1740.5 673  Z " stroke-width="1" stroke="#797979" fill="none" />
  <path d="M 1743.857142857143 679  L 1747.7142857142858 682.8571428571428  L 1754.142857142857 673.8571428571429  " stroke-width="3.8571428571428577" stroke="#797979" fill="none" />
</svg>