<?xml version="1.0" encoding="utf-8"?>
<svg version="1.1" xmlns:xlink="http://www.w3.org/1999/xlink" width="18px" height="18px" viewBox="259 215  18 18" xmlns="http://www.w3.org/2000/svg">
  <path d="M 259.5 218  A 2.5 2.5 0 0 1 262 215.5 L 274 215.5  A 2.5 2.5 0 0 1 276.5 218 L 276.5 230  A 2.5 2.5 0 0 1 274 232.5 L 262 232.5  A 2.5 2.5 0 0 1 259.5 230 L 259.5 218  Z " fill-rule="nonzero" fill="#f0f0f0" stroke="none" />
  <path d="M 259.5 218  A 2.5 2.5 0 0 1 262 215.5 L 274 215.5  A 2.5 2.5 0 0 1 276.5 218 L 276.5 230  A 2.5 2.5 0 0 1 274 232.5 L 262 232.5  A 2.5 2.5 0 0 1 259.5 230 L 259.5 218  Z " stroke-width="1" stroke="#797979" fill="none" />
  <path d="M 262.85714285714283 224  L 266.7142857142857 227.85714285714286  L 273.14285714285717 218.85714285714286  " stroke-width="3.8571428571428577" stroke="#797979" fill="none" />
</svg>