<?xml version="1.0" encoding="utf-8"?>
<svg version="1.1" xmlns:xlink="http://www.w3.org/1999/xlink" width="18px" height="18px" viewBox="388 255  18 18" xmlns="http://www.w3.org/2000/svg">
  <path d="M 388.5 258  A 2.5 2.5 0 0 1 391 255.5 L 403 255.5  A 2.5 2.5 0 0 1 405.5 258 L 405.5 270  A 2.5 2.5 0 0 1 403 272.5 L 391 272.5  A 2.5 2.5 0 0 1 388.5 270 L 388.5 258  Z " fill-rule="nonzero" fill="#ffffff" stroke="none" />
  <path d="M 388.5 258  A 2.5 2.5 0 0 1 391 255.5 L 403 255.5  A 2.5 2.5 0 0 1 405.5 258 L 405.5 270  A 2.5 2.5 0 0 1 403 272.5 L 391 272.5  A 2.5 2.5 0 0 1 388.5 270 L 388.5 258  Z " stroke-width="1" stroke="#797979" fill="none" />
</svg>