<?xml version="1.0" encoding="utf-8"?>
<svg version="1.1" xmlns:xlink="http://www.w3.org/1999/xlink" width="18px" height="18px" viewBox="1869 704  18 18" xmlns="http://www.w3.org/2000/svg">
  <path d="M 1869.5 707  A 2.5 2.5 0 0 1 1872 704.5 L 1884 704.5  A 2.5 2.5 0 0 1 1886.5 707 L 1886.5 719  A 2.5 2.5 0 0 1 1884 721.5 L 1872 721.5  A 2.5 2.5 0 0 1 1869.5 719 L 1869.5 707  Z " fill-rule="nonzero" fill="#f0f0f0" stroke="none" />
  <path d="M 1869.5 707  A 2.5 2.5 0 0 1 1872 704.5 L 1884 704.5  A 2.5 2.5 0 0 1 1886.5 707 L 1886.5 719  A 2.5 2.5 0 0 1 1884 721.5 L 1872 721.5  A 2.5 2.5 0 0 1 1869.5 719 L 1869.5 707  Z " stroke-width="1" stroke="#0066ff" fill="none" />
  <path d="M 1872.857142857143 713  L 1876.7142857142858 716.8571428571428  L 1883.142857142857 707.8571428571429  " stroke-width="3.8571428571428577" stroke="#0066ff" fill="none" />
</svg>