<?xml version="1.0" encoding="utf-8"?>
<svg version="1.1" xmlns:xlink="http://www.w3.org/1999/xlink" width="18px" height="18px" viewBox="2898 1954  18 18" xmlns="http://www.w3.org/2000/svg">
  <path d="M 2898.5 1957  A 2.5 2.5 0 0 1 2901 1954.5 L 2913 1954.5  A 2.5 2.5 0 0 1 2915.5 1957 L 2915.5 1969  A 2.5 2.5 0 0 1 2913 1971.5 L 2901 1971.5  A 2.5 2.5 0 0 1 2898.5 1969 L 2898.5 1957  Z " fill-rule="nonzero" fill="#f0f0f0" stroke="none" />
  <path d="M 2898.5 1957  A 2.5 2.5 0 0 1 2901 1954.5 L 2913 1954.5  A 2.5 2.5 0 0 1 2915.5 1957 L 2915.5 1969  A 2.5 2.5 0 0 1 2913 1971.5 L 2901 1971.5  A 2.5 2.5 0 0 1 2898.5 1969 L 2898.5 1957  Z " stroke-width="1" stroke="#797979" fill="none" />
</svg>