<?xml version="1.0" encoding="utf-8"?>
<svg version="1.1" xmlns:xlink="http://www.w3.org/1999/xlink" width="18px" height="18px" viewBox="2688 897  18 18" xmlns="http://www.w3.org/2000/svg">
  <path d="M 2688.5 900  A 2.5 2.5 0 0 1 2691 897.5 L 2703 897.5  A 2.5 2.5 0 0 1 2705.5 900 L 2705.5 912  A 2.5 2.5 0 0 1 2703 914.5 L 2691 914.5  A 2.5 2.5 0 0 1 2688.5 912 L 2688.5 900  Z " fill-rule="nonzero" fill="#ffffff" stroke="none" />
  <path d="M 2688.5 900  A 2.5 2.5 0 0 1 2691 897.5 L 2703 897.5  A 2.5 2.5 0 0 1 2705.5 900 L 2705.5 912  A 2.5 2.5 0 0 1 2703 914.5 L 2691 914.5  A 2.5 2.5 0 0 1 2688.5 912 L 2688.5 900  Z " stroke-width="1" stroke="#797979" fill="none" />
</svg>