<?xml version="1.0" encoding="utf-8"?>
<svg version="1.1" xmlns:xlink="http://www.w3.org/1999/xlink" width="18px" height="18px" viewBox="2640 1829  18 18" xmlns="http://www.w3.org/2000/svg">
  <path d="M 2640.5 1832  A 2.5 2.5 0 0 1 2643 1829.5 L 2655 1829.5  A 2.5 2.5 0 0 1 2657.5 1832 L 2657.5 1844  A 2.5 2.5 0 0 1 2655 1846.5 L 2643 1846.5  A 2.5 2.5 0 0 1 2640.5 1844 L 2640.5 1832  Z " fill-rule="nonzero" fill="#ffffff" stroke="none" />
  <path d="M 2640.5 1832  A 2.5 2.5 0 0 1 2643 1829.5 L 2655 1829.5  A 2.5 2.5 0 0 1 2657.5 1832 L 2657.5 1844  A 2.5 2.5 0 0 1 2655 1846.5 L 2643 1846.5  A 2.5 2.5 0 0 1 2640.5 1844 L 2640.5 1832  Z " stroke-width="1" stroke="#797979" fill="none" />
</svg>