<?xml version="1.0" encoding="utf-8"?>
<svg version="1.1" xmlns:xlink="http://www.w3.org/1999/xlink" width="18px" height="18px" viewBox="2898 2048  18 18" xmlns="http://www.w3.org/2000/svg">
  <path d="M 2898.5 2051  A 2.5 2.5 0 0 1 2901 2048.5 L 2913 2048.5  A 2.5 2.5 0 0 1 2915.5 2051 L 2915.5 2063  A 2.5 2.5 0 0 1 2913 2065.5 L 2901 2065.5  A 2.5 2.5 0 0 1 2898.5 2063 L 2898.5 2051  Z " fill-rule="nonzero" fill="#ffffff" stroke="none" />
  <path d="M 2898.5 2051  A 2.5 2.5 0 0 1 2901 2048.5 L 2913 2048.5  A 2.5 2.5 0 0 1 2915.5 2051 L 2915.5 2063  A 2.5 2.5 0 0 1 2913 2065.5 L 2901 2065.5  A 2.5 2.5 0 0 1 2898.5 2063 L 2898.5 2051  Z " stroke-width="1" stroke="#797979" fill="none" />
</svg>