<?xml version="1.0" encoding="utf-8"?>
<svg version="1.1" xmlns:xlink="http://www.w3.org/1999/xlink" width="18px" height="18px" viewBox="2898 1797  18 18" xmlns="http://www.w3.org/2000/svg">
  <path d="M 2898.5 1800  A 2.5 2.5 0 0 1 2901 1797.5 L 2913 1797.5  A 2.5 2.5 0 0 1 2915.5 1800 L 2915.5 1812  A 2.5 2.5 0 0 1 2913 1814.5 L 2901 1814.5  A 2.5 2.5 0 0 1 2898.5 1812 L 2898.5 1800  Z " fill-rule="nonzero" fill="#f0f0f0" stroke="none" />
  <path d="M 2898.5 1800  A 2.5 2.5 0 0 1 2901 1797.5 L 2913 1797.5  A 2.5 2.5 0 0 1 2915.5 1800 L 2915.5 1812  A 2.5 2.5 0 0 1 2913 1814.5 L 2901 1814.5  A 2.5 2.5 0 0 1 2898.5 1812 L 2898.5 1800  Z " stroke-width="1" stroke="#797979" fill="none" />
  <path d="M 2901.8571428571427 1806  L 2905.714285714286 1809.857142857143  L 2912.1428571428573 1800.857142857143  " stroke-width="3.8571428571428577" stroke="#797979" fill="none" />
</svg>