<?xml version="1.0" encoding="utf-8"?>
<svg version="1.1" xmlns:xlink="http://www.w3.org/1999/xlink" width="18px" height="18px" viewBox="2769 2112  18 18" xmlns="http://www.w3.org/2000/svg">
  <path d="M 2769.5 2115  A 2.5 2.5 0 0 1 2772 2112.5 L 2784 2112.5  A 2.5 2.5 0 0 1 2786.5 2115 L 2786.5 2127  A 2.5 2.5 0 0 1 2784 2129.5 L 2772 2129.5  A 2.5 2.5 0 0 1 2769.5 2127 L 2769.5 2115  Z " fill-rule="nonzero" fill="#ffffff" stroke="none" />
  <path d="M 2769.5 2115  A 2.5 2.5 0 0 1 2772 2112.5 L 2784 2112.5  A 2.5 2.5 0 0 1 2786.5 2115 L 2786.5 2127  A 2.5 2.5 0 0 1 2784 2129.5 L 2772 2129.5  A 2.5 2.5 0 0 1 2769.5 2127 L 2769.5 2115  Z " stroke-width="1" stroke="#797979" fill="none" />
</svg>