<?xml version="1.0" encoding="utf-8"?>
<svg version="1.1" xmlns:xlink="http://www.w3.org/1999/xlink" width="18px" height="18px" viewBox="2898 2016  18 18" xmlns="http://www.w3.org/2000/svg">
  <path d="M 2898.5 2019  A 2.5 2.5 0 0 1 2901 2016.5 L 2913 2016.5  A 2.5 2.5 0 0 1 2915.5 2019 L 2915.5 2031  A 2.5 2.5 0 0 1 2913 2033.5 L 2901 2033.5  A 2.5 2.5 0 0 1 2898.5 2031 L 2898.5 2019  Z " fill-rule="nonzero" fill="#ffffff" stroke="none" />
  <path d="M 2898.5 2019  A 2.5 2.5 0 0 1 2901 2016.5 L 2913 2016.5  A 2.5 2.5 0 0 1 2915.5 2019 L 2915.5 2031  A 2.5 2.5 0 0 1 2913 2033.5 L 2901 2033.5  A 2.5 2.5 0 0 1 2898.5 2031 L 2898.5 2019  Z " stroke-width="1" stroke="#797979" fill="none" />
  <path d="M 2901.8571428571427 2025  L 2905.714285714286 2028.857142857143  L 2912.1428571428573 2019.857142857143  " stroke-width="3.8571428571428577" stroke="#797979" fill="none" />
</svg>