<?xml version="1.0" encoding="utf-8"?>
<svg version="1.1" xmlns:xlink="http://www.w3.org/1999/xlink" width="18px" height="18px" viewBox="2898 1922  18 18" xmlns="http://www.w3.org/2000/svg">
  <path d="M 2898.5 1925  A 2.5 2.5 0 0 1 2901 1922.5 L 2913 1922.5  A 2.5 2.5 0 0 1 2915.5 1925 L 2915.5 1937  A 2.5 2.5 0 0 1 2913 1939.5 L 2901 1939.5  A 2.5 2.5 0 0 1 2898.5 1937 L 2898.5 1925  Z " fill-rule="nonzero" fill="#f0f0f0" stroke="none" />
  <path d="M 2898.5 1925  A 2.5 2.5 0 0 1 2901 1922.5 L 2913 1922.5  A 2.5 2.5 0 0 1 2915.5 1925 L 2915.5 1937  A 2.5 2.5 0 0 1 2913 1939.5 L 2901 1939.5  A 2.5 2.5 0 0 1 2898.5 1937 L 2898.5 1925  Z " stroke-width="1" stroke="#797979" fill="none" />
  <path d="M 2901.8571428571427 1931  L 2905.714285714286 1934.857142857143  L 2912.1428571428573 1925.857142857143  " stroke-width="3.8571428571428577" stroke="#797979" fill="none" />
</svg>