<?xml version="1.0" encoding="utf-8"?>
<svg version="1.1" xmlns:xlink="http://www.w3.org/1999/xlink" width="18px" height="18px" viewBox="2898 1765  18 18" xmlns="http://www.w3.org/2000/svg">
  <path d="M 2898.5 1768  A 2.5 2.5 0 0 1 2901 1765.5 L 2913 1765.5  A 2.5 2.5 0 0 1 2915.5 1768 L 2915.5 1780  A 2.5 2.5 0 0 1 2913 1782.5 L 2901 1782.5  A 2.5 2.5 0 0 1 2898.5 1780 L 2898.5 1768  Z " fill-rule="nonzero" fill="#ffffff" stroke="none" />
  <path d="M 2898.5 1768  A 2.5 2.5 0 0 1 2901 1765.5 L 2913 1765.5  A 2.5 2.5 0 0 1 2915.5 1768 L 2915.5 1780  A 2.5 2.5 0 0 1 2913 1782.5 L 2901 1782.5  A 2.5 2.5 0 0 1 2898.5 1780 L 2898.5 1768  Z " stroke-width="1" stroke="#0066ff" fill="none" />
</svg>