<?xml version="1.0" encoding="utf-8"?>
<svg version="1.1" xmlns:xlink="http://www.w3.org/1999/xlink" width="18px" height="18px" viewBox="2769 2048  18 18" xmlns="http://www.w3.org/2000/svg">
  <path d="M 2769.5 2051  A 2.5 2.5 0 0 1 2772 2048.5 L 2784 2048.5  A 2.5 2.5 0 0 1 2786.5 2051 L 2786.5 2063  A 2.5 2.5 0 0 1 2784 2065.5 L 2772 2065.5  A 2.5 2.5 0 0 1 2769.5 2063 L 2769.5 2051  Z " fill-rule="nonzero" fill="#f0f0f0" stroke="none" />
  <path d="M 2769.5 2051  A 2.5 2.5 0 0 1 2772 2048.5 L 2784 2048.5  A 2.5 2.5 0 0 1 2786.5 2051 L 2786.5 2063  A 2.5 2.5 0 0 1 2784 2065.5 L 2772 2065.5  A 2.5 2.5 0 0 1 2769.5 2063 L 2769.5 2051  Z " stroke-width="1" stroke="#0066ff" fill="none" />
</svg>