<?xml version="1.0" encoding="utf-8"?>
<svg version="1.1" xmlns:xlink="http://www.w3.org/1999/xlink" width="18px" height="18px" viewBox="2640 1765  18 18" xmlns="http://www.w3.org/2000/svg">
  <path d="M 2640.5 1768  A 2.5 2.5 0 0 1 2643 1765.5 L 2655 1765.5  A 2.5 2.5 0 0 1 2657.5 1768 L 2657.5 1780  A 2.5 2.5 0 0 1 2655 1782.5 L 2643 1782.5  A 2.5 2.5 0 0 1 2640.5 1780 L 2640.5 1768  Z " fill-rule="nonzero" fill="#f0f0f0" stroke="none" />
  <path d="M 2640.5 1768  A 2.5 2.5 0 0 1 2643 1765.5 L 2655 1765.5  A 2.5 2.5 0 0 1 2657.5 1768 L 2657.5 1780  A 2.5 2.5 0 0 1 2655 1782.5 L 2643 1782.5  A 2.5 2.5 0 0 1 2640.5 1780 L 2640.5 1768  Z " stroke-width="1" stroke="#797979" fill="none" />
</svg>