<?xml version="1.0" encoding="utf-8"?>
<svg version="1.1" xmlns:xlink="http://www.w3.org/1999/xlink" width="18px" height="18px" viewBox="2640 2144  18 18" xmlns="http://www.w3.org/2000/svg">
  <path d="M 2640.5 2147  A 2.5 2.5 0 0 1 2643 2144.5 L 2655 2144.5  A 2.5 2.5 0 0 1 2657.5 2147 L 2657.5 2159  A 2.5 2.5 0 0 1 2655 2161.5 L 2643 2161.5  A 2.5 2.5 0 0 1 2640.5 2159 L 2640.5 2147  Z " fill-rule="nonzero" fill="#f0f0f0" stroke="none" />
  <path d="M 2640.5 2147  A 2.5 2.5 0 0 1 2643 2144.5 L 2655 2144.5  A 2.5 2.5 0 0 1 2657.5 2147 L 2657.5 2159  A 2.5 2.5 0 0 1 2655 2161.5 L 2643 2161.5  A 2.5 2.5 0 0 1 2640.5 2159 L 2640.5 2147  Z " stroke-width="1" stroke="#797979" fill="none" />
  <path d="M 2643.8571428571427 2153  L 2647.714285714286 2156.857142857143  L 2654.1428571428573 2147.8571428571427  " stroke-width="3.8571428571428577" stroke="#797979" fill="none" />
</svg>