<?xml version="1.0" encoding="utf-8"?>
<svg version="1.1" xmlns:xlink="http://www.w3.org/1999/xlink" width="18px" height="18px" viewBox="2640 1985  18 18" xmlns="http://www.w3.org/2000/svg">
  <path d="M 2640.5 1988  A 2.5 2.5 0 0 1 2643 1985.5 L 2655 1985.5  A 2.5 2.5 0 0 1 2657.5 1988 L 2657.5 2000  A 2.5 2.5 0 0 1 2655 2002.5 L 2643 2002.5  A 2.5 2.5 0 0 1 2640.5 2000 L 2640.5 1988  Z " fill-rule="nonzero" fill="#f0f0f0" stroke="none" />
  <path d="M 2640.5 1988  A 2.5 2.5 0 0 1 2643 1985.5 L 2655 1985.5  A 2.5 2.5 0 0 1 2657.5 1988 L 2657.5 2000  A 2.5 2.5 0 0 1 2655 2002.5 L 2643 2002.5  A 2.5 2.5 0 0 1 2640.5 2000 L 2640.5 1988  Z " stroke-width="1" stroke="#797979" fill="none" />
  <path d="M 2643.8571428571427 1994  L 2647.714285714286 1997.857142857143  L 2654.1428571428573 1988.857142857143  " stroke-width="3.8571428571428577" stroke="#797979" fill="none" />
</svg>