<?xml version="1.0" encoding="utf-8"?>
<svg version="1.1" xmlns:xlink="http://www.w3.org/1999/xlink" width="18px" height="18px" viewBox="2769 1891  18 18" xmlns="http://www.w3.org/2000/svg">
  <path d="M 2769.5 1894  A 2.5 2.5 0 0 1 2772 1891.5 L 2784 1891.5  A 2.5 2.5 0 0 1 2786.5 1894 L 2786.5 1906  A 2.5 2.5 0 0 1 2784 1908.5 L 2772 1908.5  A 2.5 2.5 0 0 1 2769.5 1906 L 2769.5 1894  Z " fill-rule="nonzero" fill="#f0f0f0" stroke="none" />
  <path d="M 2769.5 1894  A 2.5 2.5 0 0 1 2772 1891.5 L 2784 1891.5  A 2.5 2.5 0 0 1 2786.5 1894 L 2786.5 1906  A 2.5 2.5 0 0 1 2784 1908.5 L 2772 1908.5  A 2.5 2.5 0 0 1 2769.5 1906 L 2769.5 1894  Z " stroke-width="1" stroke="#797979" fill="none" />
  <path d="M 2772.8571428571427 1900  L 2776.714285714286 1903.857142857143  L 2783.1428571428573 1894.857142857143  " stroke-width="3.8571428571428577" stroke="#797979" fill="none" />
</svg>