<?xml version="1.0" encoding="utf-8"?>
<svg version="1.1" xmlns:xlink="http://www.w3.org/1999/xlink" width="18px" height="18px" viewBox="2769 2080  18 18" xmlns="http://www.w3.org/2000/svg">
  <path d="M 2769.5 2083  A 2.5 2.5 0 0 1 2772 2080.5 L 2784 2080.5  A 2.5 2.5 0 0 1 2786.5 2083 L 2786.5 2095  A 2.5 2.5 0 0 1 2784 2097.5 L 2772 2097.5  A 2.5 2.5 0 0 1 2769.5 2095 L 2769.5 2083  Z " fill-rule="nonzero" fill="#ffffff" stroke="none" />
  <path d="M 2769.5 2083  A 2.5 2.5 0 0 1 2772 2080.5 L 2784 2080.5  A 2.5 2.5 0 0 1 2786.5 2083 L 2786.5 2095  A 2.5 2.5 0 0 1 2784 2097.5 L 2772 2097.5  A 2.5 2.5 0 0 1 2769.5 2095 L 2769.5 2083  Z " stroke-width="1" stroke="#797979" fill="none" />
  <path d="M 2772.8571428571427 2089  L 2776.714285714286 2092.857142857143  L 2783.1428571428573 2083.8571428571427  " stroke-width="3.8571428571428577" stroke="#797979" fill="none" />
</svg>