<?xml version="1.0" encoding="utf-8"?>
<svg version="1.1" xmlns:xlink="http://www.w3.org/1999/xlink" width="18px" height="18px" viewBox="2898 1733  18 18" xmlns="http://www.w3.org/2000/svg">
  <path d="M 2898.5 1736  A 2.5 2.5 0 0 1 2901 1733.5 L 2913 1733.5  A 2.5 2.5 0 0 1 2915.5 1736 L 2915.5 1748  A 2.5 2.5 0 0 1 2913 1750.5 L 2901 1750.5  A 2.5 2.5 0 0 1 2898.5 1748 L 2898.5 1736  Z " fill-rule="nonzero" fill="#ffffff" stroke="none" />
  <path d="M 2898.5 1736  A 2.5 2.5 0 0 1 2901 1733.5 L 2913 1733.5  A 2.5 2.5 0 0 1 2915.5 1736 L 2915.5 1748  A 2.5 2.5 0 0 1 2913 1750.5 L 2901 1750.5  A 2.5 2.5 0 0 1 2898.5 1748 L 2898.5 1736  Z " stroke-width="1" stroke="#0066ff" fill="none" />
  <path d="M 2901.8571428571427 1742  L 2905.714285714286 1745.857142857143  L 2912.1428571428573 1736.857142857143  " stroke-width="3.8571428571428577" stroke="#0066ff" fill="none" />
</svg>