<?xml version="1.0" encoding="utf-8"?>
<svg version="1.1" xmlns:xlink="http://www.w3.org/1999/xlink" width="14px" height="14px" xmlns="http://www.w3.org/2000/svg">
  <g transform="matrix(1 0 0 1 -2292 -1276 )">
    <path d="M 13.987357835937498 11.004422310546875  C 13.987357835937498 10.704837212890626  13.787543314453124 10.505159369140625  13.487958216796876 10.505159369140625  L 11.4910431015625 10.505159369140625  L 11.4910431015625 8.507970912109375  C 11.4910431015625 8.258271095703124  11.2913652578125 8.008707970703124  10.991780146484375 8.00870795703125  C 10.69219503515625 8.008707943359374  10.492517205078125 8.20838580078125  10.492517205078125 8.507970912109375  L 10.492517205078125 10.505159369140625  L 8.495328748046875 10.505159369140625  C 8.245628931640624 10.505159369140625  7.996065806640625 10.704837212890624  7.99606579296875 11.004422310546873  C 7.996065779296875 11.304007408203123  8.195743636718749 11.503685251953124  8.495328748046875 11.503685265624998  L 10.492517205078125 11.503685265624998  L 10.492517205078125 13.50073705859375  C 10.492517205078125 13.750436874999998  10.692195048828125 13.999999999999998  10.991780146484375 13.999999999999998  C 11.291365244140625 13.999999999999998  11.491043087890624 13.800185478515623  11.4910431015625 13.50073705859375  L 11.4910431015625 11.503685265625  L 13.48809489453125 11.503685265625  C 13.7377947109375 11.503685265625  13.987357835937498 11.303870744140625  13.987357835937498 11.004422310546875  Z M 6.9975399101562505 8.008707957031252  C 9.194269546874999 8.008844634765627  10.991643482421876 6.211334007812502  10.991643482421876 4.014604384765626  C 10.991643482421875 1.8177380839843749  9.194269533203125 0.020364134765625  6.9975399101562505 0.020364134765625  C 4.8008102734374996 0.020364134765625  3.00343632421875 1.8177380839843749  3.00343632421875 4.014604384765625  C 3.00343632421875 5.4124859687499995  3.702377109375 6.660711667968751  4.8008102734375 7.3596524667968755  C 2.004773763671875 8.2584077734375  0.007721970703124999 10.904515056640626  0.007721970703124999 14  L 1.0062478671875001 14  C 1.0062478671875001 10.704837212890626  3.7023771230468747 8.008707957031252  6.9975399101562505 8.008707957031252  Z M 9.9931175859375 4.014604384765625  C 9.9931175859375 5.66218578515625  8.645121296874999 7.01018207421875  6.9975399101562505 7.0101820605468745  C 5.3499585234375004 7.0101820605468745  4.001962220703126 5.662185771484375  4.001962220703126 4.014604384765625  C 4.001962220703126 2.3670229980468753  5.349958509765625 1.01889003125  6.9975399101562505 1.01889003125  C 8.645121296875 1.01889003125  9.9931175859375 2.3670229843749997  9.9931175859375 4.014604384765625  Z " fill-rule="nonzero" fill="#323333" stroke="none" transform="matrix(1 0 0 1 2292 1276 )" />
  </g>
</svg>