<?xml version="1.0" encoding="utf-8"?>
<svg version="1.1" xmlns:xlink="http://www.w3.org/1999/xlink" width="6px" height="6px" xmlns="http://www.w3.org/2000/svg">
  <g transform="matrix(1 0 0 1 -2903 -2873 )">
    <path d="M 0.7518139531249997 5.9502325625  C 1.1324651093749996 5.9502325625  1.4435348906249992 5.61162790625  1.4435348906249992 5.187441859374999  L 1.4435348906249992 0.8339534843749989  C 1.4435348906249992 0.40976743749999933  1.1324651249999995 0.07116278124999909  0.7518139531249997 0.07116279687499905  C 0.371534890625 0.07116279687499905  0.060093015625000135 0.4097674531249993  0.060093015625000135 0.8339534843749989  L 0.060093015625000135 5.187441859374999  C 0.060093015625000135 5.61162790625  0.3626046406250003 5.9502325625  0.7521860468749999 5.9502325625  Z M 3.1726511562499997 5.9502325625  C 3.5533023124999996 5.9502325625  3.8647441718749995 5.61162790625  3.8647441874999995 5.187441859374999  L 3.8647441874999995 0.8339534843749989  C 3.8647441874999995 0.40976743749999933  3.5533023281249996 0.07116278124999909  3.1726511562499997 0.07116279687499905  C 2.79237209375 0.07116279687499905  2.48093021875 0.4097674531249993  2.480930234375 0.8339534843749989  L 2.480930234375 5.187441859374999  C 2.480930234375 5.61162790625  2.79237209375 5.9502325625  3.17302325 5.9502325625  Z M 4.556093015625001 5.187441859374999  C 4.556093015625001 5.61162790625  4.858604640625 5.9502325625  5.247813953125 5.9502325625  C 5.628093015625 5.9502325625  5.939534890625 5.61162790625  5.939534890625 5.187441859374999  L 5.939534890625 0.8339534843749989  C 5.939534890625 0.40976743749999933  5.62809303125 0.07116278124999909  5.247813953125 0.07116279687499905  C 4.8675348750000005 0.071162812499999  4.556093015625001 0.4097674531249993  4.556093015625001 0.8339534843749989  L 4.556093015625001 5.187441859374999  Z " fill-rule="nonzero" fill="#ffffff" stroke="none" transform="matrix(1 0 0 1 2903 2873 )" />
  </g>
</svg>