<?xml version="1.0" encoding="utf-8"?>
<svg version="1.1" xmlns:xlink="http://www.w3.org/1999/xlink" width="13px" height="5px" xmlns="http://www.w3.org/2000/svg">
  <g transform="matrix(1 0 0 1 -2879 -2815 )">
    <path d="M 12.930973451327432 3.3414634146341453  C 12.884955752212388 4.2195121951219505  12.24070796460177 4.951219512195121  11.412389380530973 4.951219512195121  L 1.4725663716814161 4.951219512195121  C 0.6902654867256637 4.951219512195121  0 4.2195121951219505  0 3.3414634146341453  L 0 0.5609756097560968  C 0 0.2682926829268279  0.18407079646017693 0.07317073170731639  0.46017699115044247 0.07317073170731639  C 0.7362831858407081 0.07317073170731639  0.9203539823008849 0.2682926829268279  0.9203539823008849 0.5609756097560968  L 0.9203539823008849 3.3414634146341453  C 0.9203539823008849 3.6829268292682915  1.1504424778761062 3.97560975609756  1.4725663716814161 3.97560975609756  L 11.458407079646017 3.97560975609756  C 11.734513274336283 3.97560975609756  12.010619469026548 3.6829268292682915  12.010619469026548 3.3414634146341453  L 12.010619469026548 0.5609756097560968  C 12.010619469026548 0.2682926829268279  12.194690265486724 0.07317073170731639  12.47079646017699 0.07317073170731639  C 12.746902654867256 0.07317073170731639  12.930973451327432 0.2682926829268279  12.930973451327432 0.5609756097560968  L 12.930973451327432 3.3414634146341453  Z " fill-rule="nonzero" fill="#000000" stroke="none" transform="matrix(1 0 0 1 2879 2815 )" />
  </g>
</svg>