<?xml version="1.0" encoding="utf-8"?>
<svg version="1.1" xmlns:xlink="http://www.w3.org/1999/xlink" width="14px" height="10px" xmlns="http://www.w3.org/2000/svg">
  <g transform="matrix(1 0 0 1 -2874 -2870 )">
    <path d="M 6.997680949790796 0.03244193802680267  C 1.9990756499302669 0.03244193802680267  0 5  0 5  C 0 5  1.9990756499302669 9.967558061973198  6.997680949790796 9.967558061973198  C 11.996286249651325 9.967558061973198  13.995361899581589 5  13.995361899581589 5  C 13.995361899581589 5  11.994453919107391 0.03244193802680267  6.997680949790796 0.03244193802680267  Z M 6.997680949790796 7.979078071675458  C 5.341251629009764 7.979078071675458  3.998151299860532 6.644319980595475  3.998151299860532 4.998179040688861  C 3.998151299860532 3.3520381007822446  5.341251629009764 2.017280009702262  6.997680949790796 2.017280009702262  C 8.65411027057183 2.017280009702262  9.99721059972106 3.3520381007822446  9.99721059972106 4.998179040688861  C 9.99537826917713 6.6461409399066165  8.652277940027894 7.979078071675458  6.997680949790796 7.979078071675458  Z M 8.49652960948396 5  C 8.49652960948396 5.823070474804438  7.824063284518828 6.48953904068886  6.997680949790796 6.48953904068886  C 6.171298615062764 6.48953904068886  5.496999959553696 5.8212495154932995  5.496999959553696 5  C 5.496999959553696 4.176929525195561  6.169466284518829 3.510460959311139  6.995848619246861 3.510460959311139  C 7.825895615062762 3.508640009702262  8.49652960948396 4.176929525195561  8.49652960948396 5  Z " fill-rule="nonzero" fill="#ffffff" stroke="none" transform="matrix(1 0 0 1 2874 2870 )" />
  </g>
</svg>