<?xml version="1.0" encoding="utf-8"?>
<svg version="1.1" xmlns:xlink="http://www.w3.org/1999/xlink" width="7px" height="4px" xmlns="http://www.w3.org/2000/svg">
  <g transform="matrix(1 0 0 1 -2882 -2808 )">
    <path d="M 6.859999999999999 3.8400000000000003  C 6.766666666666667 3.931428571428571  6.673333333333334 3.9771428571428578  6.533333333333333 3.977142857142857  C 6.3933333333333335 3.977142857142857  6.3 3.931428571428571  6.206666666666667 3.8399999999999994  L 3.500000000000001 1.1885714285714284  L 0.7933333333333338 3.8399999999999994  C 0.6066666666666669 4.022857142857142  0.3266666666666671 4.022857142857142  0.14000000000000032 3.8399999999999994  C -0.046666666666666495 3.657142857142856  -0.046666666666666495 3.382857142857142  0.14000000000000032 3.1999999999999993  L 3.173333333333334 0.22857142857142856  C 3.360000000000001 0.045714285714285756  3.640000000000001 0.045714285714285756  3.826666666666666 0.22857142857142856  L 6.859999999999999 3.2  C 7.046666666666666 3.382857142857143  7.046666666666666 3.657142857142857  6.859999999999999 3.8400000000000003  Z " fill-rule="nonzero" fill="#000000" stroke="none" transform="matrix(1 0 0 1 2882 2808 )" />
  </g>
</svg>