<?xml version="1.0" encoding="utf-8"?>
<svg version="1.1" xmlns:xlink="http://www.w3.org/1999/xlink" width="40px" height="50px" xmlns="http://www.w3.org/2000/svg">
  <defs>
    <filter x="687px" y="21px" width="40px" height="50px" filterUnits="userSpaceOnUse" id="filter5967">
      <feOffset dx="1" dy="1" in="SourceAlpha" result="shadowOffsetInner" />
      <feGaussianBlur stdDeviation="2.5" in="shadowOffsetInner" result="shadowGaussian" />
      <feComposite in2="shadowGaussian" operator="atop" in="SourceAlpha" result="shadowComposite" />
      <feColorMatrix type="matrix" values="0 0 0 0 0  0 0 0 0 0  0 0 0 0 0  0 0 0 0.6980392156862745 0  " in="shadowComposite" />
    </filter>
    <g id="widget5968">
      <path d="M 706 64.0369284683536  C 700.2 54.40734059590991  691.5 48.62958787244369  691.5 39  C 691.5 33.98571428571429  694.4 25.5  706 25.5  C 717.6 25.5  720.5 33.98571428571429  720.5 39  C 720.5 48.62958787244369  711.8 54.40734059590991  706 64.0369284683536  Z " fill-rule="nonzero" fill="#009dd9" stroke="none" />
      <path d="M 706 65  C 700 55  691 49  691 39  C 691 33.8  694 25  706 25  C 718 25  721 33.8  721 39  C 721 49  712 55  706 65  Z M 706 63.07385693670719  C 711.6 53.814681191819815  720 48.25917574488738  720 39  C 720 34.17142857142857  717.2 26  706 26  C 694.8 26  692 34.17142857142857  692 39  C 692 48.25917574488738  700.4 53.814681191819815  706 63.07385693670719  Z " fill-rule="nonzero" fill="#ffffff" stroke="none" />
    </g>
  </defs>
  <g transform="matrix(1 0 0 1 -687 -21 )">
    <use xlink:href="#widget5968" filter="url(#filter5967)" />
    <use xlink:href="#widget5968" />
  </g>
</svg>