<?xml version="1.0" encoding="utf-8"?>
<svg version="1.1" xmlns:xlink="http://www.w3.org/1999/xlink" width="14px" height="14px" xmlns="http://www.w3.org/2000/svg">
  <g transform="matrix(1 0 0 1 -1470 -2338 )">
    <path d="M 5.821052631578947 1  L 8.178947368421051 1  L 8.363157894736842 2.3  L 8.436842105263157 2.8375  L 8.91578947368421 3.0625  C 9.112280701754385 3.1624999999999996  9.321052631578947 3.2750000000000004  9.505263157894735 3.4000000000000004  L 9.935087719298243 3.6875  L 10.414035087719299 3.5  L 11.666666666666668 3  L 12.833333333333332 4.9875  L 11.801754385964912 5.7875  L 11.371929824561404 6.125  L 11.421052631578947 6.675  C 11.433333333333334 6.7875  11.433333333333334 6.8999999999999995  11.433333333333334 7  C 11.433333333333334 7.100000000000001  11.433333333333334 7.2125  11.421052631578947 7.324999999999999  L 11.371929824561404 7.875  L 11.801754385964912 8.2125  L 12.833333333333332 9.012500000000001  L 11.678947368421051 11.000000000000002  L 10.414035087719299 10.500000000000002  L 9.935087719298243 10.312500000000002  L 9.505263157894735 10.600000000000001  C 9.30877192982456 10.7375  9.112280701754385 10.850000000000001  8.91578947368421 10.937500000000002  L 8.436842105263157 11.162500000000001  L 8.363157894736842 11.687500000000002  L 8.178947368421051 13.000000000000002  L 5.821052631578947 13.000000000000002  L 5.636842105263158 11.700000000000001  L 5.563157894736841 11.162500000000001  L 5.084210526315789 10.937500000000002  C 4.887719298245614 10.837500000000002  4.678947368421053 10.725000000000001  4.494736842105263 10.600000000000001  L 4.064912280701755 10.312500000000002  L 3.5859649122807022 10.500000000000002  L 2.333333333333333 11  L 1.1666666666666665 9.0125  L 2.1982456140350877 8.212499999999999  L 2.6280701754385967 7.874999999999998  L 2.5789473684210527 7.3249999999999975  C 2.5666666666666664 7.212499999999996  2.5666666666666664 7.099999999999998  2.5666666666666664 6.999999999999997  C 2.5666666666666664 6.899999999999997  2.5666666666666664 6.787499999999997  2.5789473684210527 6.674999999999997  L 2.6280701754385967 6.124999999999997  L 2.1982456140350877 5.787499999999997  L 1.1666666666666665 4.987499999999997  L 2.3210526315789473 3  L 3.5859649122807022 3.5  L 4.064912280701755 3.6875  L 4.494736842105263 3.4000000000000004  C 4.691228070175439 3.2625  4.887719298245615 3.1500000000000004  5.084210526315789 3.0625  L 5.563157894736841 2.8375  L 5.636842105263158 2.3125  L 5.821052631578947 1  Z M 9.136842105263156 0.7124999999999999  C 9.075438596491226 0.2999999999999998  8.73157894736842 0  8.314035087719295 0  L 5.685964912280702 0  C 5.268421052631579 0  4.924561403508771 0.30000000000000004  4.863157894736842 0.7  L 4.666666666666666 2.15  C 4.421052631578947 2.2624999999999997  4.1877192982456135 2.4  3.9421052631578943 2.5625  L 2.5543859649122806 2.0125  C 2.4561403508771926 1.975  2.357894736842105 1.9625000000000004  2.259649122807018 1.9625000000000004  C 1.9649122807017547 1.9625000000000004  1.6824561403508775 2.1125000000000003  1.5473684210526317 2.3750000000000004  L 0.2333333333333334 4.625  C 0.02456140350877195 4.975  0.11052631578947374 5.4375  0.4298245614035088 5.6875  L 1.5964912280701753 6.5875  C 1.5842105263157893 6.737500000000001  1.5719298245614035 6.875  1.5719298245614035 7  C 1.5719298245614035 7.125  1.5719298245614035 7.262499999999999  1.5964912280701753 7.4125  L 0.4298245614035088 8.3125  C 0.11052631578947374 8.5625  0.02456140350877195 9  0.2333333333333334 9.375  L 1.5350877192982455 11.6125  C 1.682456140350877 11.875  1.9649122807017543 12.037500000000001  2.259649122807017 12.037500000000001  C 2.357894736842105 12.037500000000001  2.443859649122807 12.025000000000002  2.5421052631578944 11.9875  L 3.9298245614035086 11.4375  C 4.163157894736842 11.6  4.408771929824561 11.7375  4.65438596491228 11.85  L 4.863157894736842 13.2875  C 4.912280701754385 13.6875  5.268421052631579 14  5.685964912280703 14  L 8.314035087719299 14  C 8.731578947368423 14  9.075438596491228 13.7  9.136842105263158 13.3  L 9.34561403508772 11.850000000000001  C 9.59122807017544 11.7375  9.824561403508772 11.600000000000001  10.070175438596493 11.437500000000002  L 11.457894736842107 11.987500000000002  C 11.556140350877195 12.025000000000002  11.654385964912281 12.037500000000003  11.752631578947371 12.037500000000003  C 12.047368421052635 12.037500000000003  12.32982456140351 11.887500000000003  12.464912280701755 11.625000000000004  L 13.778947368421054 9.362500000000004  C 13.97543859649123 9.000000000000004  13.889473684210529 8.562500000000004  13.570175438596493 8.312500000000004  L 12.403508771929825 7.412500000000003  C 12.415789473684212 7.287500000000003  12.428070175438599 7.150000000000004  12.428070175438599 7.0000000000000036  C 12.428070175438599 6.850000000000003  12.415789473684214 6.712500000000004  12.403508771929825 6.587500000000004  L 13.570175438596493 5.6875000000000036  C 13.889473684210527 5.4375000000000036  13.97543859649123 5.0000000000000036  13.766666666666667 4.6250000000000036  L 12.464912280701755 2.3875000000000037  C 12.317543859649124 2.1250000000000036  12.035087719298247 1.962500000000004  11.740350877192983 1.962500000000004  C 11.642105263157896 1.962500000000004  11.556140350877195 1.9750000000000043  11.457894736842107 2.0125000000000037  L 10.070175438596491 2.5625  C 9.836842105263157 2.4  9.591228070175438 2.2625  9.345614035087719 2.15  L 9.136842105263156 0.7124999999999999  Z M 5.035087719298246 7  C 5.035087719298246 5.9  5.919298245614035 5  7 5  C 8.080701754385965 5  8.964912280701753 5.9  8.964912280701753 7  C 8.964912280701753 8.1  8.080701754385965 9  7 9  C 5.919298245614035 9  5.035087719298246 8.1  5.035087719298246 7  Z M 9.947368421052632 7  C 9.947368421052632 5.35  8.621052631578948 4  7 4  C 5.378947368421052 4  4.052631578947368 5.35  4.052631578947368 7  C 4.052631578947368 8.65  5.378947368421052 10  7 10  C 8.621052631578948 10  9.947368421052632 8.65  9.947368421052632 7  Z " fill-rule="nonzero" fill="#e7772d" stroke="none" transform="matrix(1 0 0 1 1470 2338 )" />
  </g>
</svg>