<?xml version="1.0" encoding="utf-8"?>
<svg version="1.1" xmlns:xlink="http://www.w3.org/1999/xlink" width="14px" height="14px" xmlns="http://www.w3.org/2000/svg">
  <g transform="matrix(1 0 0 1 -1460 -2263 )">
    <path d="M 13.995998417525772 13.3854386640625  C 13.995998417525772 13.723244299479168  13.72496206185567 13.997103950520835  13.390638958762887 14  L 0.7460847164948454 14  C 0.4117616134020621 13.99710396875  0.14072525773195882 13.723244317708335  0.14072525773195882 13.385438682291666  C 0.14072525773195882 13.047633046875  0.4117616134020621 12.773773395833334  0.7460847164948454 12.773773395833334  L 13.390638958762889 12.773773395833334  C 13.724980518041237 12.773773377604167  13.995998417525772 13.047633046875  13.995998417525772 13.3854386640625  Z M 7.067023358247423 11.660576138020833  C 6.73270025515464 11.660576138020833  6.461663899484536 11.386716486979168  6.461663899484536 11.0489108515625  L 6.461663899484536 0.6193181093749998  C 6.461663899484536 0.28149382552083335  6.73270025515464 0.007652822916666284  7.067023358247423 0.007652822916666284  C 7.401346461340207 0.007652822916666284  7.672382817010311 0.2815124739583329  7.672382817010311 0.6193181093749998  L 7.672382817010311 11.0489108515625  C 7.672382817010311 11.38671646875  7.401346461340207 11.660576138020833  7.067023358247423 11.660576138020833  Z M 7.495076569587628 11.477449630208334  C 7.25867437371134 11.716314348958333  6.875372360824741 11.716314348958333  6.638970164948452 11.477449630208334  L 2.0956541546391754 6.886807411458332  C 1.859251958762887 6.647942692708334  1.859251958762887 6.260647950520833  2.0956541546391754 6.021783231770832  C 2.332056350515464 5.782918513020833  2.715358363402062 5.782918513020833  2.951760559278351 6.021783231770832  L 7.4950765695876305 10.612425450520833  C 7.731478765463916 10.851290151041667  7.731478765463916 11.238566244791667  7.495076569587628 11.477449630208334  Z M 6.638970164948454 11.477430963541666  C 6.402567969072165 11.238566244791667  6.402567969072165 10.851271502604165  6.638970164948454 10.612406783854166  L 11.182286175257733 6.021764565104165  C 11.41868837113402 5.782899846354165  11.801990384020622 5.782899846354165  12.038392579896907 6.021764565104165  C 12.274794775773197 6.260629283854166  12.274794775773197 6.6479240260416645  12.038392579896907 6.886788744791666  L 7.495076569587628 11.477449630208334  C 7.258655917525772 11.716314330729166  6.875372360824741 11.716314330729166  6.638970164948454 11.477430963541666  Z " fill-rule="nonzero" fill="#000000" stroke="none" transform="matrix(1 0 0 1 1460 2263 )" />
  </g>
</svg>