<?xml version="1.0" encoding="utf-8"?>
<svg version="1.1" xmlns:xlink="http://www.w3.org/1999/xlink" width="18px" height="18px" viewBox="2332 2597  18 18" xmlns="http://www.w3.org/2000/svg">
  <path d="M 2332.5 2600  A 2.5 2.5 0 0 1 2335 2597.5 L 2347 2597.5  A 2.5 2.5 0 0 1 2349.5 2600 L 2349.5 2612  A 2.5 2.5 0 0 1 2347 2614.5 L 2335 2614.5  A 2.5 2.5 0 0 1 2332.5 2612 L 2332.5 2600  Z " fill-rule="nonzero" fill="#f0f0f0" stroke="none" />
  <path d="M 2332.5 2600  A 2.5 2.5 0 0 1 2335 2597.5 L 2347 2597.5  A 2.5 2.5 0 0 1 2349.5 2600 L 2349.5 2612  A 2.5 2.5 0 0 1 2347 2614.5 L 2335 2614.5  A 2.5 2.5 0 0 1 2332.5 2612 L 2332.5 2600  Z " stroke-width="1" stroke="#e7772d" fill="none" />
</svg>