<?xml version="1.0" encoding="utf-8"?>
<svg version="1.1" xmlns:xlink="http://www.w3.org/1999/xlink" width="18px" height="18px" viewBox="2074 2784  18 18" xmlns="http://www.w3.org/2000/svg">
  <path d="M 2074.5 2787  A 2.5 2.5 0 0 1 2077 2784.5 L 2089 2784.5  A 2.5 2.5 0 0 1 2091.5 2787 L 2091.5 2799  A 2.5 2.5 0 0 1 2089 2801.5 L 2077 2801.5  A 2.5 2.5 0 0 1 2074.5 2799 L 2074.5 2787  Z " fill-rule="nonzero" fill="#ffffff" stroke="none" />
  <path d="M 2074.5 2787  A 2.5 2.5 0 0 1 2077 2784.5 L 2089 2784.5  A 2.5 2.5 0 0 1 2091.5 2787 L 2091.5 2799  A 2.5 2.5 0 0 1 2089 2801.5 L 2077 2801.5  A 2.5 2.5 0 0 1 2074.5 2799 L 2074.5 2787  Z " stroke-width="1" stroke="#797979" fill="none" />
  <path d="M 2077.8571428571427 2793  L 2081.714285714286 2796.857142857143  L 2088.1428571428573 2787.8571428571427  " stroke-width="3.8571428571428577" stroke="#797979" fill="none" />
</svg>