<?xml version="1.0" encoding="utf-8"?>
<svg version="1.1" xmlns:xlink="http://www.w3.org/1999/xlink" width="18px" height="18px" viewBox="2203 2816  18 18" xmlns="http://www.w3.org/2000/svg">
  <path d="M 2203.5 2819  A 2.5 2.5 0 0 1 2206 2816.5 L 2218 2816.5  A 2.5 2.5 0 0 1 2220.5 2819 L 2220.5 2831  A 2.5 2.5 0 0 1 2218 2833.5 L 2206 2833.5  A 2.5 2.5 0 0 1 2203.5 2831 L 2203.5 2819  Z " fill-rule="nonzero" fill="#f0f0f0" stroke="none" />
  <path d="M 2203.5 2819  A 2.5 2.5 0 0 1 2206 2816.5 L 2218 2816.5  A 2.5 2.5 0 0 1 2220.5 2819 L 2220.5 2831  A 2.5 2.5 0 0 1 2218 2833.5 L 2206 2833.5  A 2.5 2.5 0 0 1 2203.5 2831 L 2203.5 2819  Z " stroke-width="1" stroke="#e7772d" fill="none" />
</svg>