<?xml version="1.0" encoding="utf-8"?>
<svg version="1.1" xmlns:xlink="http://www.w3.org/1999/xlink" width="18px" height="18px" viewBox="2203 2690  18 18" xmlns="http://www.w3.org/2000/svg">
  <path d="M 2203.5 2693  A 2.5 2.5 0 0 1 2206 2690.5 L 2218 2690.5  A 2.5 2.5 0 0 1 2220.5 2693 L 2220.5 2705  A 2.5 2.5 0 0 1 2218 2707.5 L 2206 2707.5  A 2.5 2.5 0 0 1 2203.5 2705 L 2203.5 2693  Z " fill-rule="nonzero" fill="#f0f0f0" stroke="none" />
  <path d="M 2203.5 2693  A 2.5 2.5 0 0 1 2206 2690.5 L 2218 2690.5  A 2.5 2.5 0 0 1 2220.5 2693 L 2220.5 2705  A 2.5 2.5 0 0 1 2218 2707.5 L 2206 2707.5  A 2.5 2.5 0 0 1 2203.5 2705 L 2203.5 2693  Z " stroke-width="1" stroke="#797979" fill="none" />
  <path d="M 2206.8571428571427 2699  L 2210.714285714286 2702.857142857143  L 2217.1428571428573 2693.8571428571427  " stroke-width="3.8571428571428577" stroke="#797979" fill="none" />
</svg>