<?xml version="1.0" encoding="utf-8"?>
<svg version="1.1" xmlns:xlink="http://www.w3.org/1999/xlink" width="18px" height="18px" viewBox="2203 2565  18 18" xmlns="http://www.w3.org/2000/svg">
  <path d="M 2203.5 2568  A 2.5 2.5 0 0 1 2206 2565.5 L 2218 2565.5  A 2.5 2.5 0 0 1 2220.5 2568 L 2220.5 2580  A 2.5 2.5 0 0 1 2218 2582.5 L 2206 2582.5  A 2.5 2.5 0 0 1 2203.5 2580 L 2203.5 2568  Z " fill-rule="nonzero" fill="#f0f0f0" stroke="none" />
  <path d="M 2203.5 2568  A 2.5 2.5 0 0 1 2206 2565.5 L 2218 2565.5  A 2.5 2.5 0 0 1 2220.5 2568 L 2220.5 2580  A 2.5 2.5 0 0 1 2218 2582.5 L 2206 2582.5  A 2.5 2.5 0 0 1 2203.5 2580 L 2203.5 2568  Z " stroke-width="1" stroke="#797979" fill="none" />
  <path d="M 2206.8571428571427 2574  L 2210.714285714286 2577.857142857143  L 2217.1428571428573 2568.8571428571427  " stroke-width="3.8571428571428577" stroke="#797979" fill="none" />
</svg>