<?xml version="1.0" encoding="utf-8"?>
<svg version="1.1" xmlns:xlink="http://www.w3.org/1999/xlink" width="12px" height="22px" preserveAspectRatio="xMidYMin meet" viewBox="1792.4137931034484 2339  10 22" xmlns="http://www.w3.org/2000/svg">
  <path d="M 1553 2345.5  L 1792.4137931034484 2345.5  A 5 5 0 0 1 1797.9137931034484 2350.5 A 5 5 0 0 0 1802.9137931034484 2355.5 L 2041 2355.5  " stroke-width="3" stroke="#e7772d" fill="none" />
  <path d="M 1554 2341.5  A 4 4 0 0 0 1550 2345.5 A 4 4 0 0 0 1554 2349.5 A 4 4 0 0 0 1558 2345.5 A 4 4 0 0 0 1554 2341.5 Z M 2031.9 2365.5  L 2044 2355.5  L 2031.9 2345.5  L 2036.8 2355.5  L 2031.9 2365.5  Z " fill-rule="nonzero" fill="#e7772d" stroke="none" />
</svg>