<?xml version="1.0" encoding="utf-8"?>
<svg version="1.1" xmlns:xlink="http://www.w3.org/1999/xlink" width="18px" height="18px" viewBox="2332 2659  18 18" xmlns="http://www.w3.org/2000/svg">
  <path d="M 2332.5 2662  A 2.5 2.5 0 0 1 2335 2659.5 L 2347 2659.5  A 2.5 2.5 0 0 1 2349.5 2662 L 2349.5 2674  A 2.5 2.5 0 0 1 2347 2676.5 L 2335 2676.5  A 2.5 2.5 0 0 1 2332.5 2674 L 2332.5 2662  Z " fill-rule="nonzero" fill="#ffffff" stroke="none" />
  <path d="M 2332.5 2662  A 2.5 2.5 0 0 1 2335 2659.5 L 2347 2659.5  A 2.5 2.5 0 0 1 2349.5 2662 L 2349.5 2674  A 2.5 2.5 0 0 1 2347 2676.5 L 2335 2676.5  A 2.5 2.5 0 0 1 2332.5 2674 L 2332.5 2662  Z " stroke-width="1" stroke="#797979" fill="none" />
  <path d="M 2335.8571428571427 2668  L 2339.714285714286 2671.857142857143  L 2346.1428571428573 2662.8571428571427  " stroke-width="3.8571428571428577" stroke="#797979" fill="none" />
</svg>