<?xml version="1.0" encoding="utf-8"?>
<svg version="1.1" xmlns:xlink="http://www.w3.org/1999/xlink" width="18px" height="18px" viewBox="2332 2690  18 18" xmlns="http://www.w3.org/2000/svg">
  <path d="M 2332.5 2693  A 2.5 2.5 0 0 1 2335 2690.5 L 2347 2690.5  A 2.5 2.5 0 0 1 2349.5 2693 L 2349.5 2705  A 2.5 2.5 0 0 1 2347 2707.5 L 2335 2707.5  A 2.5 2.5 0 0 1 2332.5 2705 L 2332.5 2693  Z " fill-rule="nonzero" fill="#ffffff" stroke="none" />
  <path d="M 2332.5 2693  A 2.5 2.5 0 0 1 2335 2690.5 L 2347 2690.5  A 2.5 2.5 0 0 1 2349.5 2693 L 2349.5 2705  A 2.5 2.5 0 0 1 2347 2707.5 L 2335 2707.5  A 2.5 2.5 0 0 1 2332.5 2705 L 2332.5 2693  Z " stroke-width="1" stroke="#797979" fill="none" />
</svg>