<?xml version="1.0" encoding="utf-8"?>
<svg version="1.1" xmlns:xlink="http://www.w3.org/1999/xlink" width="18px" height="18px" viewBox="2203 2753  18 18" xmlns="http://www.w3.org/2000/svg">
  <path d="M 2203.5 2756  A 2.5 2.5 0 0 1 2206 2753.5 L 2218 2753.5  A 2.5 2.5 0 0 1 2220.5 2756 L 2220.5 2768  A 2.5 2.5 0 0 1 2218 2770.5 L 2206 2770.5  A 2.5 2.5 0 0 1 2203.5 2768 L 2203.5 2756  Z " fill-rule="nonzero" fill="#ffffff" stroke="none" />
  <path d="M 2203.5 2756  A 2.5 2.5 0 0 1 2206 2753.5 L 2218 2753.5  A 2.5 2.5 0 0 1 2220.5 2756 L 2220.5 2768  A 2.5 2.5 0 0 1 2218 2770.5 L 2206 2770.5  A 2.5 2.5 0 0 1 2203.5 2768 L 2203.5 2756  Z " stroke-width="1" stroke="#e7772d" fill="none" />
  <path d="M 2206.8571428571427 2762  L 2210.714285714286 2765.857142857143  L 2217.1428571428573 2756.8571428571427  " stroke-width="3.8571428571428577" stroke="#e7772d" fill="none" />
</svg>