<?xml version="1.0" encoding="utf-8"?>
<svg version="1.1" xmlns:xlink="http://www.w3.org/1999/xlink" width="18px" height="18px" viewBox="2203 2784  18 18" xmlns="http://www.w3.org/2000/svg">
  <path d="M 2203.5 2787  A 2.5 2.5 0 0 1 2206 2784.5 L 2218 2784.5  A 2.5 2.5 0 0 1 2220.5 2787 L 2220.5 2799  A 2.5 2.5 0 0 1 2218 2801.5 L 2206 2801.5  A 2.5 2.5 0 0 1 2203.5 2799 L 2203.5 2787  Z " fill-rule="nonzero" fill="#ffffff" stroke="none" />
  <path d="M 2203.5 2787  A 2.5 2.5 0 0 1 2206 2784.5 L 2218 2784.5  A 2.5 2.5 0 0 1 2220.5 2787 L 2220.5 2799  A 2.5 2.5 0 0 1 2218 2801.5 L 2206 2801.5  A 2.5 2.5 0 0 1 2203.5 2799 L 2203.5 2787  Z " stroke-width="1" stroke="#797979" fill="none" />
</svg>