<?xml version="1.0" encoding="utf-8"?>
<svg version="1.1" xmlns:xlink="http://www.w3.org/1999/xlink" width="18px" height="18px" viewBox="2074 2597  18 18" xmlns="http://www.w3.org/2000/svg">
  <path d="M 2074.5 2600  A 2.5 2.5 0 0 1 2077 2597.5 L 2089 2597.5  A 2.5 2.5 0 0 1 2091.5 2600 L 2091.5 2612  A 2.5 2.5 0 0 1 2089 2614.5 L 2077 2614.5  A 2.5 2.5 0 0 1 2074.5 2612 L 2074.5 2600  Z " fill-rule="nonzero" fill="#f0f0f0" stroke="none" />
  <path d="M 2074.5 2600  A 2.5 2.5 0 0 1 2077 2597.5 L 2089 2597.5  A 2.5 2.5 0 0 1 2091.5 2600 L 2091.5 2612  A 2.5 2.5 0 0 1 2089 2614.5 L 2077 2614.5  A 2.5 2.5 0 0 1 2074.5 2612 L 2074.5 2600  Z " stroke-width="1" stroke="#797979" fill="none" />
  <path d="M 2077.8571428571427 2606  L 2081.714285714286 2609.857142857143  L 2088.1428571428573 2600.8571428571427  " stroke-width="3.8571428571428577" stroke="#797979" fill="none" />
</svg>