<?xml version="1.0" encoding="utf-8"?>
<svg version="1.1" xmlns:xlink="http://www.w3.org/1999/xlink" width="18px" height="18px" viewBox="2074 2816  18 18" xmlns="http://www.w3.org/2000/svg">
  <path d="M 2074.5 2819  A 2.5 2.5 0 0 1 2077 2816.5 L 2089 2816.5  A 2.5 2.5 0 0 1 2091.5 2819 L 2091.5 2831  A 2.5 2.5 0 0 1 2089 2833.5 L 2077 2833.5  A 2.5 2.5 0 0 1 2074.5 2831 L 2074.5 2819  Z " fill-rule="nonzero" fill="#f0f0f0" stroke="none" />
  <path d="M 2074.5 2819  A 2.5 2.5 0 0 1 2077 2816.5 L 2089 2816.5  A 2.5 2.5 0 0 1 2091.5 2819 L 2091.5 2831  A 2.5 2.5 0 0 1 2089 2833.5 L 2077 2833.5  A 2.5 2.5 0 0 1 2074.5 2831 L 2074.5 2819  Z " stroke-width="1" stroke="#797979" fill="none" />
  <path d="M 2077.8571428571427 2825  L 2081.714285714286 2828.857142857143  L 2088.1428571428573 2819.8571428571427  " stroke-width="3.8571428571428577" stroke="#797979" fill="none" />
</svg>