<?xml version="1.0" encoding="utf-8"?>
<svg version="1.1" xmlns:xlink="http://www.w3.org/1999/xlink" width="18px" height="18px" viewBox="2332 2628  18 18" xmlns="http://www.w3.org/2000/svg">
  <path d="M 2332.5 2631  A 2.5 2.5 0 0 1 2335 2628.5 L 2347 2628.5  A 2.5 2.5 0 0 1 2349.5 2631 L 2349.5 2643  A 2.5 2.5 0 0 1 2347 2645.5 L 2335 2645.5  A 2.5 2.5 0 0 1 2332.5 2643 L 2332.5 2631  Z " fill-rule="nonzero" fill="#ffffff" stroke="none" />
  <path d="M 2332.5 2631  A 2.5 2.5 0 0 1 2335 2628.5 L 2347 2628.5  A 2.5 2.5 0 0 1 2349.5 2631 L 2349.5 2643  A 2.5 2.5 0 0 1 2347 2645.5 L 2335 2645.5  A 2.5 2.5 0 0 1 2332.5 2643 L 2332.5 2631  Z " stroke-width="1" stroke="#797979" fill="none" />
  <path d="M 2335.8571428571427 2637  L 2339.714285714286 2640.857142857143  L 2346.1428571428573 2631.8571428571427  " stroke-width="3.8571428571428577" stroke="#797979" fill="none" />
</svg>