<?xml version="1.0" encoding="utf-8"?>
<svg version="1.1" xmlns:xlink="http://www.w3.org/1999/xlink" width="18px" height="18px" viewBox="2074 2848  18 18" xmlns="http://www.w3.org/2000/svg">
  <path d="M 2074.5 2851  A 2.5 2.5 0 0 1 2077 2848.5 L 2089 2848.5  A 2.5 2.5 0 0 1 2091.5 2851 L 2091.5 2863  A 2.5 2.5 0 0 1 2089 2865.5 L 2077 2865.5  A 2.5 2.5 0 0 1 2074.5 2863 L 2074.5 2851  Z " fill-rule="nonzero" fill="#ffffff" stroke="none" />
  <path d="M 2074.5 2851  A 2.5 2.5 0 0 1 2077 2848.5 L 2089 2848.5  A 2.5 2.5 0 0 1 2091.5 2851 L 2091.5 2863  A 2.5 2.5 0 0 1 2089 2865.5 L 2077 2865.5  A 2.5 2.5 0 0 1 2074.5 2863 L 2074.5 2851  Z " stroke-width="1" stroke="#797979" fill="none" />
</svg>