<?xml version="1.0" encoding="utf-8"?>
<svg version="1.1" xmlns:xlink="http://www.w3.org/1999/xlink" width="16px" height="6px" xmlns="http://www.w3.org/2000/svg">
  <g transform="matrix(1 0 0 1 -1527 -3789 )">
    <path d="M 4.974845360824743 5.658947368421051  L 0.35628865979381447 1.2378947368421052  C 0.2320470381617641 1.1189660792930045  0.16224882191511927 0.9576642046712898  0.16224882191511927 0.7894736842105263  C 0.16224882191511927 0.43923505623991366  0.45885724088293384 0.15531054992532797  0.8247422680412371 0.15531054992532797  C 1.000446454364509 0.15531054992532797  1.1689542546566094 0.22212397402984657  1.2931958762886597 0.3410526315789474  L 5.9117525773195885 4.762105263157894  C 6.03599419895164 4.8810339207069955  6.105792415198282 5.042335795328709  6.105792415198282 5.210526315789474  C 6.105792415198282 5.560764943760086  5.809183996230468 5.8446894500746716  5.443298969072165 5.8446894500746716  C 5.267594782748893 5.8446894500746716  5.099086982456793 5.777876025970153  4.974845360824743 5.658947368421051  Z M 14.68041237113402 4.578947368421053  L 14.68041237113402 1.4210526315789473  L 11.381443298969073 1.4210526315789473  C 11.017049237225043 1.4210526315789473  10.721649484536082 1.1382851051562906  10.721649484536082 0.7894736842105263  C 10.721649484536082 0.4406622632647622  11.017049237225043 0.15789473684210525  11.381443298969073 0.15789473684210525  L 15.34020618556701 0.15789473684210525  C 15.704600247311038 0.15789473684210525  16 0.4406622632647622  16 0.7894736842105263  L 16 4.578947368421053  C 16 4.927758789366817  15.704600247311038 5.210526315789474  15.34020618556701 5.210526315789474  C 14.975812123822982 5.210526315789474  14.68041237113402 4.927758789366817  14.68041237113402 4.578947368421053  Z " fill-rule="nonzero" fill="#333333" stroke="none" transform="matrix(1 0 0 1 1527 3789 )" />
  </g>
</svg>