<?xml version="1.0" encoding="utf-8"?>
<svg version="1.1" xmlns:xlink="http://www.w3.org/1999/xlink" width="16px" height="6px" xmlns="http://www.w3.org/2000/svg">
  <g transform="matrix(1 0 0 1 -1527 -3799 )">
    <path d="M 5.911752577319587 1.2378947368421058  L 1.2931958762886597 5.658947368421053  C 1.1689542546566087 5.777876025970154  1.0004464543645095 5.8446894500746716  0.8247422680412371 5.8446894500746716  C 0.4588572408829344 5.8446894500746716  0.16224882191511897 5.560764943760086  0.16224882191511897 5.210526315789474  C 0.16224882191511897 5.04233579532871  0.2320470381617641 4.8810339207069955  0.35628865979381447 4.762105263157894  L 4.974845360824742 0.34105263157894683  C 5.099086982456793 0.22212397402984602  5.267594782748892 0.15531054992532828  5.443298969072165 0.15531054992532828  C 5.809183996230467 0.15531054992532828  6.105792415198284 0.43923505623991477  6.105792415198284 0.7894736842105263  C 6.105792415198284 0.9576642046712922  6.035994198951639 1.118966079293005  5.911752577319587 1.2378947368421058  Z M 11.381443298969073 4.578947368421053  L 14.68041237113402 4.578947368421053  L 14.68041237113402 1.4210526315789473  C 14.68041237113402 1.0722412106331833  14.975812123822982 0.7894736842105263  15.34020618556701 0.7894736842105263  C 15.704600247311038 0.7894736842105263  16 1.0722412106331833  16 1.4210526315789473  L 16 5.210526315789474  C 16 5.5593377367352375  15.704600247311038 5.842105263157895  15.34020618556701 5.842105263157895  L 11.381443298969073 5.842105263157895  C 11.017049237225043 5.842105263157895  10.721649484536082 5.5593377367352375  10.721649484536082 5.210526315789474  C 10.721649484536082 4.8617148948437094  11.017049237225043 4.578947368421053  11.381443298969073 4.578947368421053  Z " fill-rule="nonzero" fill="#333333" stroke="none" transform="matrix(1 0 0 1 1527 3799 )" />
  </g>
</svg>