<?xml version="1.0" encoding="utf-8"?>
<svg version="1.1" xmlns:xlink="http://www.w3.org/1999/xlink" width="16px" height="16px" xmlns="http://www.w3.org/2000/svg">
  <g transform="matrix(1 0 0 1 -1527 -3789 )">
    <path d="M 11.025154639175259 10.088247422680412  L 15.643711340206186 14.70680412371134  C 15.767952961838237 14.83104574534339  15.837751178084883 14.999553545635491  15.837751178084883 15.175257731958762  C 15.837751178084883 15.541142759117067  15.541142759117067 15.837751178084883  15.175257731958762 15.837751178084883  C 14.99955354563549 15.837751178084883  14.83104574534339 15.767952961838237  14.70680412371134 15.643711340206186  L 10.088247422680412 11.025154639175259  C 9.964005801048362 10.900913017543209  9.894207584801714 10.732405217251108  9.894207584801714 10.556701030927835  C 9.894207584801714 10.19081600376953  10.19081600376953 9.894207584801714  10.556701030927835 9.894207584801714  C 10.73240521725111 9.894207584801714  10.900913017543209 9.964005801048362  11.025154639175259 10.088247422680412  Z M 4.618556701030927 1.3195876288659794  L 1.3195876288659794 1.3195876288659794  L 1.3195876288659794 4.618556701030927  C 1.3195876288659794 4.982950762774957  1.0241878761770182 5.278350515463917  0.6597938144329897 5.278350515463917  C 0.2953997526889612 5.278350515463917  0 4.982950762774957  0 4.618556701030927  L 0 0.6597938144329897  C 0 0.2953997526889612  0.2953997526889612 0  0.6597938144329897 0  L 4.618556701030927 0  C 4.982950762774957 0  5.278350515463917 0.2953997526889612  5.278350515463917 0.6597938144329897  C 5.278350515463917 1.0241878761770182  4.982950762774957 1.3195876288659794  4.618556701030927 1.3195876288659794  Z " fill-rule="nonzero" fill="#333333" stroke="none" transform="matrix(1 0 0 1 1527 3789 )" />
  </g>
</svg>