<?xml version="1.0" encoding="utf-8"?>
<svg version="1.1" xmlns:xlink="http://www.w3.org/1999/xlink" width="14px" height="14px" xmlns="http://www.w3.org/2000/svg">
  <g transform="matrix(1 0 0 1 -613 -337 )">
    <path d="M 11.487499999999999 3.5134615384615375  L 9.725 1.6153846153846154  C 9.625 1.5076923076923077  9.625 1.3461538461538463  9.725 1.2384615384615383  L 10.7875 0.09423076923076915  C 10.8875 -0.013461538461538653  11.0375 -0.013461538461538653  11.1375 0.09423076923076915  L 12.899999999999999 1.992307692307692  C 12.999999999999998 2.0999999999999996  12.999999999999998 2.2615384615384615  12.899999999999999 2.369230769230769  L 11.837499999999999 3.5134615384615375  C 11.737499999999999 3.621153846153845  11.587499999999999 3.621153846153845  11.487499999999999 3.5134615384615375  Z M 2 11.846153846153847  L 5 10.903846153846153  L 10.8125 4.644230769230769  C 10.9 4.549999999999999  10.8875 4.388461538461538  10.7875 4.294230769230769  L 9.025 2.382692307692308  C 8.925 2.275000000000001  8.775 2.261538461538462  8.700000000000001 2.355769230769231  L 2.875 8.615384615384617  L 2 11.846153846153847  Z M 14 13  L 0 13  L 0 14  L 14 14  L 14 13  Z " fill-rule="nonzero" fill="#e7772d" stroke="none" transform="matrix(1 0 0 1 613 337 )" />
  </g>
</svg>