<?xml version="1.0" encoding="utf-8"?>
<svg version="1.1" xmlns:xlink="http://www.w3.org/1999/xlink" width="19px" height="20px" xmlns="http://www.w3.org/2000/svg">
  <g transform="matrix(1 0 0 1 -40 -110 )">
    <path d="M 9.916592601388887 1.8088888802083338  L 9.917718509722222 1.8111111197916672  C 9.659532566435276 1.6717814208425832  9.34722298912028 1.6717814208425832  9.089037045833335 1.8111111197916672  L 1.7986666666666666 5.733333333333333  L 9.089037045833333 9.657777786458334  C 9.347999999999999 9.796666666666667  9.659881490277776 9.796666666666667  9.91771850972222 9.657777786458334  L 17.206962954166663 5.733333333333333  L 9.916592601388887 1.8088888802083338  Z M 0.9711111111111115 4.236666666666666  L 8.261481490277777 0.3133333333333336  C 9.035502713691873 -0.10363963090850414  9.971252841863679 -0.10363963090850378  10.745274065277778 0.3133333333333336  L 18.034518509722222 4.235555546875001  C 19.237007398611112 4.883333333333335  19.237007398611112 6.5855555468750016  18.034518509722222 7.232222213541668  L 16.855674065277775 7.866666666666667  L 18.034518509722222 8.502222213541668  C 19.237007398611112 9.148888880208334  19.237007398611112 10.851111093750001  18.034518509722222 11.497777786458334  L 16.855674065277775 12.133333333333336  L 18.034518509722222 12.766666666666671  C 19.237007398611112 13.414444453125006  19.237007398611112 15.116666666666669  18.034518509722222 15.763333333333335  L 10.745274065277778 19.686666666666667  C 9.971252841863683 20.1036396309085  9.035502713691873 20.1036396309085  8.26148149027778 19.686666666666667  L 0.9711111111111115 15.764444453125  C -0.230251843055555 15.116666666666665  -0.230251843055555 13.414444453124998  0.9711111111111115 12.767777786458332  L 2.151081490277778 12.133333333333331  L 0.9711111111111115 11.497777786458332  C -0.230251843055555 10.851111119791666  -0.230251843055555 9.148888906249997  0.9711111111111115 8.502222213541664  L 2.151081490277778 7.866666666666665  L 0.9711111111111115 7.2333333333333325  C -0.230251843055555 6.585555546875001  -0.230251843055555 4.883333333333333  0.9711111111111115 4.236666666666666  Z M 8.260355555555556 11.155555546875  L 3.954814823611111 8.838888880208334  L 1.7986666666666666 10  L 9.089037045833333 13.924444453125  C 9.347999999999999 14.063333333333334  9.659881490277776 14.063333333333334  9.91771850972222 13.924444453125  L 17.206962954166663 10  L 15.049688888888888 8.838888880208334  L 10.744148156944442 11.155555546875  C 9.970126926611897 11.572528520594146  9.034376785888103 11.57252852059414  8.260355555555556 11.155555546875  Z M 8.260355555555556 15.421111119791668  L 3.954814823611111 13.104444453125002  L 1.7975407319444445 14.265555546875001  L 9.087911111111111 18.19  C 9.34687406527778 18.328888880208336  9.658755555555553 18.328888880208336  9.916592601388887 18.19  L 17.206962954166663 14.265555546875001  L 15.049688888888888 13.104444453125002  L 10.744148156944442 15.421111119791668  C 9.970126926611897 15.838084093510814  9.034376785888103 15.838084093510812  8.260355555555556 15.421111119791668  Z " fill-rule="nonzero" fill="#000000" stroke="none" transform="matrix(1 0 0 1 40 110 )" />
  </g>
</svg>