<?xml version="1.0" encoding="utf-8"?>
<svg version="1.1" xmlns:xlink="http://www.w3.org/1999/xlink" width="20px" height="20px" xmlns="http://www.w3.org/2000/svg">
  <g transform="matrix(1 0 0 1 -945 -912 )">
    <path d="M 0.3172413793103448 1.2924137931034483  C 0.048012456322163694 1.0231035506994388  0.04801245632216354 0.5865516217143545  0.3172413793103448 0.3172413793103448  C 0.5865516217143542 0.048012456322163694  1.0231035506994388 0.048012456322163694  1.292413793103448 0.3172413793103448  L 6.724137931034483 5.7489655172413805  C 6.755862068965516 5.775172413793104  6.784827586206896 5.804137931034483  6.812413793103448 5.8372413793103455  L 19.682758620689654 18.70758620689655  C 19.817312120607575 18.83754232547228  19.893302210846482 19.01658224458994  19.893302210846482 19.20364703843269  C 19.893302210846482 19.584533072798752  19.584533072798752 19.893302210846482  19.20364703843269 19.893302210846482  C 19.01658224458994 19.893302210846482  18.83754232547228 19.817312120607575  18.70758620689655 19.682758620689654  L 12.528275862068963 13.50344827586207  C 12.524137931034481 14.50758620689655  12.504827586206895 15.339310344827584  12.41655172413793 15.98068965517241  C 12.306206896551723 16.776551724137928  12.051034482758618 17.584827586206895  11.257931034482757 17.919999999999998  C 10.456551724137931 18.259310344827586  9.704827586206896 17.864827586206896  9.07310344827586 17.38068965517241  C 8.427586206896551 16.88413793103448  7.6482758620689655 16.089655172413792  6.682758620689654 15.104827586206895  L 6.641379310344826 15.060689655172412  C 6.144827586206895 14.554482758620688  5.815172413793102 14.308965517241376  5.482758620689654 14.17103448275862  C 5.147586206896549 14.033103448275861  4.739310344827585 13.973793103448273  4.028965517241377 13.973793103448273  L 3.9931034482758605 13.973793103448273  C 3.377931034482757 13.973793103448273  2.8648275862068946 13.973793103448273  2.4482758620689635 13.931034482758617  C 2.0110344827586184 13.885517241379308  1.6068965517241363 13.78620689655172  1.2413793103448256 13.537931034482755  C 0.5462068965517222 13.063448275862067  0.2799999999999981 12.369655172413792  0.17931034482758423 11.731034482758618  C 0.10344827586206891 11.255172413793105  0.11310344827586201 10.732413793103447  0.1199999999999998 10.311724137931034  C 0.12331050298679475 10.103921230025861  0.12331050298679475 9.896078769974142  0.11999999999999995 9.688275862068966  C 0.11310344827586201 9.268965517241378  0.10344827586206891 8.744827586206895  0.1793103448275862 8.268965517241378  C 0.2799999999999999 7.631724137931036  0.546206896551724 6.936551724137931  1.2413793103448274 6.4620689655172425  C 1.6055172413793104 6.213793103448277  2.011034482758621 6.115862068965518  2.4482758620689653 6.070344827586208  C 2.864827586206897 6.026206896551725  3.377931034482758 6.026206896551725  3.9931034482758623 6.026206896551725  L 4.028965517241379 6.026206896551725  C 4.1627586206896545 6.026206896551725  4.284137931034483 6.02896551724138  4.398620689655173 6.030344827586208  C 4.638620689655173 6.03448275862069  4.841379310344827 6.037241379310345  5.045517241379311 6.020689655172415  L 0.3172413793103448 1.2924137931034483  Z M 6.1737931034482765 7.150344827586207  C 5.891773619691914 7.274193729907774  5.592009981925158 7.352858411247186  5.285517241379311 7.383448275862069  C 4.957182821999263 7.412637984083669  4.6273514532166296 7.421390492473153  4.297931034482758 7.4096551724137925  L 4.028965517241379 7.40551724137931  C 3.3696551724137924 7.40551724137931  2.926896551724138 7.406896551724138  2.5903448275862075 7.441379310344827  C 2.266206896551725 7.475862068965517  2.117241379310345 7.535172413793102  2.017931034482759 7.602758620689655  C 1.7503448275862072 7.7848275862068945  1.608275862068966 8.060689655172412  1.5420689655172415 8.48551724137931  C 1.4868965517241381 8.830344827586206  1.4924137931034485 9.186206896551724  1.497931034482759 9.587586206896553  C 1.5021447561709909 9.862972388007204  1.5021447561709909 10.138406922337621  1.4979310344827588 10.413793103448274  C 1.4924137931034485 10.813793103448273  1.4868965517241381 11.169655172413792  1.5420689655172415 11.517241379310343  C 1.608275862068966 11.940689655172413  1.7503448275862072 12.21655172413793  2.017931034482759 12.398620689655171  C 2.117241379310345 12.466206896551721  2.266206896551725 12.525517241379308  2.5903448275862075 12.558620689655172  C 2.926896551724138 12.59310344827586  3.369655172413793 12.594482758620686  4.02896551724138 12.594482758620686  C 4.794482758620689 12.594482758620686  5.4206896551724135 12.653793103448272  6.009655172413794 12.896551724137929  C 6.6000000000000005 13.14068965517241  7.085517241379311 13.543448275862065  7.626206896551723 14.096551724137926  C 8.644137931034482 15.133793103448273  9.35448275862069 15.857931034482753  9.913103448275862 16.286896551724134  C 10.495172413793103 16.73379310344827  10.670344827586204 16.67172413793103  10.719999999999999 16.651034482758615  C 10.776551724137931 16.626206896551714  10.947586206896549 16.53241379310344  11.05103448275862 15.791724137931029  C 11.147586206896548 15.082758620689651  11.150344827586204 14.056551724137925  11.150344827586204 12.587586206896546  L 11.150344827586204 12.124137931034483  L 6.1737931034482765 7.150344827586207  Z M 8.646896551724137 4.96551724137931  L 8.648275862068965 4.96551724137931  C 9.310344827586206 4.306206896551724  9.804137931034482 3.838620689655172  10.20137931034483 3.5627586206896558  C 10.32730050875763 3.4677020024203142  10.468040674163703 3.394069730452899  10.617931034482757 3.344827586206897  C 10.686896551724136 3.3255172413793104  10.710344827586205 3.336551724137931  10.718620689655172 3.339310344827586  C 10.776551724137931 3.364137931034482  10.94758620689655 3.4593103448275864  11.049655172413793 4.201379310344827  C 11.147586206896548 4.911724137931034  11.148965517241379 5.940689655172413  11.148965517241379 7.412413793103447  L 11.148965517241379 7.702068965517242  C 11.148965517241379 8.082954999883306  11.457734655289107 8.391724137931034  11.838620689655171 8.391724137931034  C 12.219506724021233 8.391724137931034  12.528275862068963 8.082954999883306  12.528275862068963 7.702068965517242  L 12.528275862068963 7.3517241379310345  C 12.528275862068963 5.953103448275861  12.528275862068963 4.827586206896552  12.41655172413793 4.011034482758621  C 12.306206896551723 3.2151724137931033  12.051034482758618 2.404137931034483  11.257931034482757 2.0689655172413794  C 10.572413793103447 1.7779310344827586  9.918620689655171 2.08  9.41793103448276 2.4275862068965512  C 8.899310344827585 2.7848275862068963  8.318620689655171 3.346206896551724  7.674482758620689 3.9862068965517237  C 7.544018466593382 4.115752425959119  7.470646660768412 4.292006213242539  7.470646660768412 4.475862068965516  C 7.470646660768412 4.8569622915024215  7.779589432635507 5.165905063369519  8.160689655172412 5.165905063369519  C 8.34285565801363 5.165905063369519  8.517631380926787 5.093872094072452  8.646896551724137 4.96551724137931  Z M 14.161379310344826 7.62758620689655  L 14.16 7.627586206896551  C 14.283303945601043 7.526478941016218  14.437834151223212 7.471223342415078  14.597291174319034 7.471223342415078  C 14.804130355135642 7.471223342415078  15.000048639115594 7.5640593394426965  15.13103448275862 7.724137931034484  C 15.80137931034483 8.540689655172415  16.206896551724135 9.555862068965519  16.206896551724135 10.662068965517243  C 16.206896551724135 11.144827586206896  16.129655172413795 11.611034482758622  15.986206896551725 12.052413793103447  C 15.893661119365492 12.336320354729597  15.628954366297522 12.528448599057054  15.330344827586206 12.528448599057054  C 14.949363393215886 12.528448599057054  14.640516918184323 12.21960212402549  14.640516918184323 11.838620689655171  C 14.640516918184323 11.76601288461651  14.651979975300076 11.693860318264647  14.674482758620687 11.624827586206896  C 14.773793103448273 11.318620689655173  14.827586206896552 10.995862068965517  14.827586206896552 10.66206896551724  C 14.827586206896552 9.903448275862068  14.551724137931036 9.191724137931033  14.064827586206896 8.59862068965517  C 13.96372032032656 8.475316744054126  13.908464721725423 8.320786538431959  13.908464721725423 8.161329515336135  C 13.908464721725423 7.9544903345195275  14.001300718753043 7.758572050539577  14.161379310344826 7.62758620689655  Z M 19.885517241379308 10.460689655172411  C 19.885517241379308 8.679999999999996  19.10068965517241 7.0703448275862035  17.839999999999996 5.830344827586207  C 17.711727498653104 5.7080011784090265  17.541271909449225 5.639746492531373  17.364009947664478 5.639746492531373  C 16.98312391329841 5.639746492531373  16.67435477525068 5.9485156305791005  16.67435477525068 6.3294016649451645  C 16.67435477525068 6.510713732828614  16.74575572887481 6.6847325582629935  16.873103448275863 6.813793103448277  C 17.91172413793103 7.83448275862069  18.506206896551724 9.104827586206897  18.506206896551724 10.460689655172413  C 18.506206896551724 11.587586206896551  18.0951724137931 12.653793103448274  17.361379310344823 13.566896551724136  C 17.263115816243364 13.689333493256314  17.209560006565987 13.841628591367446  17.209560006565987 13.998620689655167  C 17.209560006565987 14.379559282667678  17.51837175181507 14.688371027916764  17.899310344827583 14.688371027916764  C 18.108467646426824 14.688371027916764  18.30632697345083 14.593465013800929  18.43724137931034 14.430344827586204  C 19.344827586206893 13.299310344827584  19.885517241379308 11.93655172413793  19.885517241379308 10.460689655172411  Z " fill-rule="nonzero" fill="#ffffff" stroke="none" transform="matrix(1 0 0 1 945 912 )" />
  </g>
</svg>