<?xml version="1.0" encoding="utf-8"?>
<svg version="1.1" xmlns:xlink="http://www.w3.org/1999/xlink" width="17px" height="17px" xmlns="http://www.w3.org/2000/svg">
  <g transform="matrix(1 0 0 1 -32 -997 )">
    <path d="M 16.886666666666667 17  C 16.750666666666667 12.665  11.582666666666666 13.74875  10.811999999999998 11.7725  C 10.744 11.113750000000001  10.766666666666666 10.625  10.766666666666666 10.00875  C 11.083999999999998 9.83875  12.217333333333334 8.818750000000001  12.308 7.96875  C 12.557333333333334 7.947500000000001  12.965333333333332 7.71375  13.078666666666667 6.77875  C 13.146666666666667 6.29  12.897333333333332 5.9925  12.738666666666663 5.9075  C 13.146666666666665 4.738749999999999  13.328 1.0837499999999995  10.471999999999998 0.7224999999999997  C 10.177333333333333 0.255  9.429333333333332 0  8.454666666666666 0  C 4.555999999999999 0.06375  3.4000000000000004 2.805  4.261333333333333 5.92875  C 4.102666666666667 6.01375  3.853333333333333 6.29  3.921333333333333 6.800000000000001  C 4.034666666666666 7.735  4.442666666666666 7.96875  4.691999999999999 7.99  C 4.782666666666667 8.86125  5.9159999999999995 9.881250000000001  6.2333333333333325 10.030000000000001  C 6.2333333333333325 10.646250000000002  6.256 11.113750000000001  6.188 11.793750000000001  C 5.4173333333333344 13.74875  0.3626666666666666 12.72875  0.11333333333333331 17  L 16.886666666666667 17  Z " fill-rule="nonzero" fill="#ffffff" stroke="none" transform="matrix(1 0 0 1 32 997 )" />
  </g>
</svg>