<?xml version="1.0" encoding="utf-8"?>
<svg version="1.1" xmlns:xlink="http://www.w3.org/1999/xlink" width="9px" height="16px" xmlns="http://www.w3.org/2000/svg">
  <g transform="matrix(1 0 0 1 -1760 -2536 )">
    <path d="M 7.6743749999999995 15.780357142857143  C 7.966874999999999 16.058928571428574  8.443124999999998 16.058928571428574  8.735624999999999 15.780357142857143  C 9.028125000000001 15.501785714285715  9.028125000000001 15.05  8.735624999999999 14.769642857142857  L 1.6275000000000002 8  L 8.735625000000002 1.2303571428571425  C 9.028125000000003 0.951785714285714  9.028125000000003 0.4999999999999995  8.735625000000002 0.21964285714285683  C 8.443125 -0.06071428571428582  7.968750000000002 -0.05892857142857176  7.674375000000001 0.21964285714285683  L 0.42562499999999975 7.123214285714285  C 0.1724999999999998 7.364285714285714  0.04499999999999957 7.682142857142857  0.04499999999999957 8  C 0.04499999999999957 8.317857142857141  0.1724999999999998 8.635714285714286  0.42562499999999975 8.876785714285715  L 7.6743749999999995 15.780357142857143  Z " fill-rule="nonzero" fill="#333333" stroke="none" transform="matrix(1 0 0 1 1760 2536 )" />
  </g>
</svg>