<?xml version="1.0" encoding="utf-8"?>
<svg version="1.1" xmlns:xlink="http://www.w3.org/1999/xlink" width="20px" height="20px" xmlns="http://www.w3.org/2000/svg">
  <g transform="matrix(1 0 0 1 -2725 -3263 )">
    <path d="M 0.056497182203389756 10  C 0.056497182203389756 4.508474576271185  4.508474576271187 0.056497182203389756  10 0.056497182203389756  C 15.491525423728813 0.056497182203389756  19.94350281779661 4.508474576271186  19.94350281779661 10  C 19.94350281779661 15.491525423728813  15.491525423728813 19.94350281779661  10 19.94350281779661  C 4.508474576271185 19.94350281779661  0.056497182203389756 15.491525423728813  0.056497182203389756 10  Z M 9.999999878770215 1.8644067796610164  C 5.506835812350199 1.8644067796610164  1.8644066584312304 5.506835933579985  1.8644066584312304 10  C 1.8644066584312304 14.493164066420013  5.506835812350199 18.135593220338983  9.999999878770215 18.135593220338983  C 14.493163945190226 18.135593220338983  18.135593099109194 14.493164066420013  18.135593099109194 10  C 18.135593099109194 5.506835933579987  14.493163945190226 1.8644067796610164  9.999999878770215 1.8644067796610164  Z " fill-rule="nonzero" fill="#000000" stroke="none" transform="matrix(1 0 0 1 2725 3263 )" />
  </g>
</svg>