<?xml version="1.0" encoding="utf-8"?>
<svg version="1.1" xmlns:xlink="http://www.w3.org/1999/xlink" width="20px" height="20px" xmlns="http://www.w3.org/2000/svg">
  <g transform="matrix(1 0 0 1 -2993 -1710 )">
    <path d="M 5.033864182692308 7.147025240384615  C 4.346739783653846 7.147025240384615  3.7897160456730776 7.724692007211537  3.7897160456730776 8.437575120192308  C 3.7897160456730776 9.150548377403847  4.346739783653846 9.728260216346154  5.033864182692308 9.728260216346154  C 5.720898437499999 9.728260216346154  6.27792217548077 9.150548377403847  6.27792217548077 8.437575120192308  C 6.277922175480769 7.72471454326923  5.720898437499999 7.147025240384615  5.033864182692308 7.147025240384615  Z M 10.010389122596152 7.147025240384615  C 9.323264723557692 7.147025240384615  8.766218449519233 7.724692007211537  8.766218449519233 8.437575120192308  C 8.766218449519233 9.150548377403847  9.323354867788462 9.728260216346154  10.010389122596152 9.728260216346154  C 10.697423377403846 9.728260216346154  11.254469651442305 9.150548377403847  11.254469651442305 8.437575120192308  C 11.254469651442305 7.72471454326923  10.697423377403846 7.147025240384615  10.010389122596152 7.147025240384615  Z M 14.986936598557692 7.147025240384615  C 14.299767127403848 7.147025240384615  13.742765925480771 7.724692007211537  13.742765925480771 8.437575120192308  C 13.742765925480771 9.150548377403847  14.299767127403848 9.728260216346154  14.986936598557692 9.728260216346154  C 15.673970853365386 9.728260216346154  16.230972055288465 9.150548377403847  16.230972055288465 8.437575120192308  C 16.230972055288465 7.72471454326923  15.673970853365386 7.147025240384615  14.986936598557692 7.147025240384615  Z M 19.963326322115385 3.2755784254807696  C 19.963348858173077 1.850127704326923  18.84930138221154 0.6943434495192308  17.475142728365384 1  L 2.545545372596154 1  C 1.171476862980769 0.6943434495192308  0.05733924278846183 1.8501502403846155  0.05733924278846183 3.275600961538461  L 0.05733924278846183 12.954544771634618  C 0.05733924278846183 14.380085637019231  1.1963792067307695 15.694027944711538  2.6021108774038466 15.694027944711538  L 6.393960336538461 15.694027944711538  C 7.054942908653845 16.398167067307693  9.790504807692308 19.230205829326923  9.790504807692308 19.230205829326923  C 9.911951622596154 19.356542968750002  10.108804086538461 19.356542968750002  10.2302734375 19.230205829326923  C 10.2302734375 19.230205829326923  12.233052884615386 16.959382512019232  13.53800330528846 15.694027944711538  L 17.4185546875 15.694027944711538  C 18.82426382211538 15.694027944711538  19.963326322115382 14.379995492788462  19.963326322115382 12.954544771634618  L 19.963326322115385 3.2755784254807696  Z M 18.73161808894231 3.2663386418269234  L 18.73161808894231 12.958939302884612  C 18.73161808894231 13.672633713942306  18.132947716346152 14.421506911057694  17.429056490384617 14.421506911057694  L 13.607459435096153 14.421506911057694  C 13.144501201923081 14.421506911057694  12.728350360576924 14.897536057692308  12.728350360576924 14.897536057692308  L 10.045072115384615 17.680626502403847  L 7.362267127403845 14.897536057692308  C 7.362267127403845 14.897536057692308  6.851239483173076 14.421506911057694  6.413228665865383 14.421506911057694  L 2.5916541466346157 14.421506911057694  C 1.887740384615384 14.421506911057694  1.2892052283653845 13.672633713942306  1.2892052283653845 12.958939302884612  L 1.2892052283653845 3.2663386418269234  C 1.2892052283653845 2.5524639423076922  1.846995192307692 1.9738281250000003  2.534998497596153 2  L 17.48566706730769 2  C 18.173692908653848 1.9738281250000003  18.73161808894231 2.5524639423076922  18.73161808894231 3.2663386418269234  Z " fill-rule="nonzero" fill="#000000" stroke="none" transform="matrix(1 0 0 1 2993 1710 )" />
  </g>
</svg>