<?xml version="1.0" encoding="utf-8"?>
<svg version="1.1" xmlns:xlink="http://www.w3.org/1999/xlink" width="20px" height="20px" xmlns="http://www.w3.org/2000/svg">
  <g transform="matrix(1 0 0 1 -2650 -3263 )">
    <path d="M 2.158560495518868 0.1784868625  L 17.99914955966981 0.1784868625  C 19.093400777830187 0.1784868625  19.97922319268868 1.0643092771226412  20 2.158560495518868  L 20 17.999149559669817  C 19.97922319268868 19.09271403072819  19.09271403072819 19.979223192688682  17.99914955966981 20  L 2.1585604955188686 20  C 2.1585604955188686 19.979223192688682  2.1585604955188686 19.979223192688682  2.1585604955188686 19.979223192688682  C 1.064996024460493 19.979223192688682  0.17848686250000068 19.09271403072819  0.17848686250000068 17.999149559669817  L 0.1784868625 2.158560495518868  C 0.1784868625 1.0643092768867926  1.0643092768867926 0.1784868625  2.158560495518868 0.1784868625  Z M 18 18  L 18 2.158560495518868  L 2.158560495518868 2.158560495518868  L 2.158560495518868 18  L 18 18  Z " fill-rule="nonzero" fill="#e7772d" stroke="none" transform="matrix(1 0 0 1 2650 3263 )" />
  </g>
</svg>