<?xml version="1.0" encoding="utf-8"?>
<svg version="1.1" xmlns:xlink="http://www.w3.org/1999/xlink" width="20px" height="20px" xmlns="http://www.w3.org/2000/svg">
  <g transform="matrix(1 0 0 1 -3227 -3263 )">
    <path d="M 19.465749537037034 18.130418580246918  L 11.275054290123459 9.91508839506173  L 19.462723209876543 1.7698935185185194  C 19.849874135802466 1.3847070061728406  19.851838580246913 0.7604978086419762  19.466652067901233 0.3733468518518529  C 19.080456790123456 -0.01481283950617137  18.45725635802469 -0.015768518518517405  18.070105401234567 0.36941799382716145  L 9.880472067901234 8.515568549382715  L 1.7619827469135807 0.37233811728395017  C 1.3778050000000004 -0.012848395061728662  0.7525870370370374 -0.014812808641975672  0.36543608024691415 0.37037370370370315  C -0.020759197530864 0.755560216049382  -0.021714845679011704 1.3807250925925922  0.36347166666666714 1.767929135802469  L 8.479996574074075 9.909142067901234  L 0.29630959876543256 18.049399320987654  C -0.09084132716049331 18.434585833333333  -0.09280577160493778 19.058795030864196  0.29238074074074105 19.44594598765432  C 0.48494743827160514 19.63952145061728  0.7387829629629638 19.737317962962962  0.9926184876543214 19.737317962962962  C 1.2444895987654327 19.737317962962962  1.4963075925925928 19.64153898148148  1.6889274074074077 19.449927932098767  L 9.874631913580247 11.307706234567902  L 18.067238456790122 19.525000802469137  C 18.259805154320986 19.718576265432098  18.512685030864194 19.815364012345682  18.766520555555555 19.815364012345682  C 19.019347314814816 19.815364012345682  19.271218425925927 19.718576265432098  19.463785123456788 19.526965246913583  C 19.849980401234568 19.141778734567904  19.850936049382714 18.51756953703704  19.465749537037034 18.130418580246918  Z " fill-rule="nonzero" fill="#ff6666" stroke="none" transform="matrix(1 0 0 1 3227 3263 )" />
  </g>
</svg>