<?xml version="1.0" encoding="utf-8"?>
<svg version="1.1" xmlns:xlink="http://www.w3.org/1999/xlink" width="16px" height="16px" xmlns="http://www.w3.org/2000/svg">
  <g transform="matrix(1 0 0 1 -3068 -3550 )">
    <path d="M 15.688513699115044 15.825462857142856  C 15.91504424778761 15.600438857142857  15.91504424778761 15.230793142857141  15.68849557522124 15.004013714285716  L 11.736290548672565 11.016502857142857  L 15.382292389380531 7.3236479999999995  C 15.637150584070797 7.066514285714285  15.612375221238938 6.643291428571429  15.332741663716813 6.412928  C 13.615919575221238 5.014710857142857  11.348674831858407 4.646857142857143  9.341598584070795 5.309348571428571  L 5.546908318584071 2.2736457142857143  C 5.568149522123894 1.5897234285714288  5.387599292035398 0.902217142857143  5.005312000000001 0.30756571428571433  C 4.801780672566372 -0.010294857142857035  4.35752778761062 -0.05315657142857143  4.0920308672566374 0.21291885714285716  L 0.2088597522123895 4.121856  C -0.05661904424778752 4.389723428571429  -0.014154761061946722 4.836150857142857  0.30089288495575234 5.043309714285714  C 0.89203992920354 5.430784  1.5769962477876107 5.614738285714286  2.2566422654867258 5.593307428571428  L 5.265498619469026 9.421878857142858  C 4.607093805309734 11.455798857142858  4.977002477876106 13.752228571428573  6.375224637168142 15.486153142857145  C 6.603549451327434 15.768301714285716  7.023008849557522 15.791524571428573  7.277885168141593 15.532598857142858  L 10.923905132743363 11.839744  L 14.87435214159292 15.825462857142856  C 14.987626477876105 15.93974857142857  15.13452063716814 15.995099428571427  15.281414796460178 15.995099428571427  C 15.428308955752213 15.995099428571427  15.57701550442478 15.93795657142857  15.688513699115044 15.825462857142856  Z " fill-rule="nonzero" fill="#999999" stroke="none" transform="matrix(1 0 0 1 3068 3550 )" />
  </g>
</svg>