<?xml version="1.0" encoding="utf-8"?>
<svg version="1.1" xmlns:xlink="http://www.w3.org/1999/xlink" width="20px" height="20px" xmlns="http://www.w3.org/2000/svg">
  <g transform="matrix(1 0 0 1 -2949 -3263 )">
    <path d="M 19.39955357142857 6.4888392857142865  C 20.191964285714285 5.691964285714287  20.191964285714285 4.4040178571428585  19.399553571428573 3.6116071428571432  L 16.388392857142858 0.6004464285714287  C 15.595982142857142 -0.1919642857142856  14.308035714285714 -0.1919642857142856  13.517857142857144 0.6004464285714287  L 2.033482142857143 12.084821428571429  C 1.8325892857142856 12.285714285714285  1.6629464285714284 12.59375  1.3482142857142856 13.64285714285714  C 1.1785714285714286 14.205357142857142  0.977678571428571 14.953125  0.7499999999999998 15.863839285714285  C 0.3660714285714284 17.40178571428571  0.031249999999999813 18.90625  0.029017857142857078 18.921875  C -0.03571428571428575 19.216517857142858  0.05357142857142838 19.522321428571427  0.26562499999999983 19.736607142857142  C 0.4330357142857141 19.904017857142854  0.6584821428571429 19.99553571428571  0.8883928571428568 19.99553571428571  C 0.9508928571428567 19.99553571428571  1.0156249999999998 19.988839285714285  1.0803571428571423 19.975446428571427  C 1.0959821428571423 19.973214285714285  2.5982142857142856 19.638392857142858  4.138392857142857 19.254464285714285  C 5.049107142857142 19.026785714285715  5.794642857142857 18.825892857142858  6.359374999999999 18.65625  C 7.408482142857142 18.341517857142858  7.716517857142858 18.171875  7.917410714285714 17.970982142857142  L 19.39955357142857 6.4888392857142865  Z M 15.162946428571427 8.22544642857143  L 6.727678571428571 16.660714285714285  C 6.569196428571428 16.736607142857142  5.9263392857142865 16.991071428571427  3.5156249999999996 17.58705357142857  C 3.0022321428571423 17.714285714285715  2.4977678571428568 17.834821428571427  2.0624999999999996 17.9375  C 2.1651785714285707 17.502232142857142  2.285714285714285 16.997767857142858  2.412946428571428 16.484375  C 3.0089285714285703 14.073660714285714  3.263392857142856 13.430803571428573  3.3392857142857135 13.27232142857143  L 11.774553571428573 4.837053571428572  L 15.162946428571427 8.22544642857143  Z M 18.227678571428573 5.046874999999998  C 18.227678571428573 5.087053571428568  18.21875 5.169642857142856  18.151785714285715 5.236607142857142  L 16.41071428571429 6.97767857142857  L 13.02232142857143 3.589285714285713  L 14.763392857142858 1.8482142857142847  C 14.86607142857143 1.7455357142857133  15.037946428571429 1.7455357142857133  15.140625 1.8482142857142847  L 18.151785714285715 4.859374999999998  C 18.21875 4.926339285714284  18.227678571428573 5.006696428571428  18.227678571428573 5.046874999999998  Z " fill-rule="nonzero" fill="#000000" stroke="none" transform="matrix(1 0 0 1 2949 3263 )" />
  </g>
</svg>