<?xml version="1.0" encoding="utf-8"?>
<svg version="1.1" xmlns:xlink="http://www.w3.org/1999/xlink" width="720px" height="59px" xmlns="http://www.w3.org/2000/svg">
  <defs>
    <mask fill="white" id="clip6157">
      <path d="M 0 59  L 0 9  L 23.21739130434753 9  L 30.282608695652016 0  L 39.521739130434526 9  L 720 9  L 720 59  L 0 59  Z " fill-rule="evenodd" />
    </mask>
  </defs>
  <g transform="matrix(1 0 0 1 -2630 -3299 )">
    <path d="M 0 59  L 0 9  L 23.21739130434753 9  L 30.282608695652016 0  L 39.521739130434526 9  L 720 9  L 720 59  L 0 59  Z " fill-rule="nonzero" fill="#ffffff" stroke="none" transform="matrix(1 0 0 1 2630 3299 )" />
    <path d="M 0 59  L 0 9  L 23.21739130434753 9  L 30.282608695652016 0  L 39.521739130434526 9  L 720 9  L 720 59  L 0 59  Z " stroke-width="2" stroke="#d7d7d7" fill="none" transform="matrix(1 0 0 1 2630 3299 )" mask="url(#clip6157)" />
  </g>
</svg>