<?xml version="1.0" encoding="utf-8"?>
<svg version="1.1" xmlns:xlink="http://www.w3.org/1999/xlink" width="28px" height="20px" xmlns="http://www.w3.org/2000/svg">
  <g transform="matrix(1 0 0 1 -3302 -3263 )">
    <path d="M 27.573921880139803 2.0507996238425914  C 28.011486857524666 1.586778971354166  27.987349593955592 0.8541638816550913  27.524533347039476 0.41552806712963053  C 27.061717100123357 -0.020805664062499757  26.331781954152962 3.732638889070367E-05  25.897744716282897 0.4664844835069446  L 10.54373175884046 16.900456416377317  L 2.1564093647203952 8.592570203993054  C 1.7028147615131577 8.143481807002312  0.9739936574835526 8.148148148148147  0.5272688836348677 8.604142722800926  C 0.08054410978618333 9.059017361111112  0.08629993318256501 9.792814597800927  0.5399564196134863 10.240720847800926  L 9.767750133634868 19.37958857783565  C 9.771215989925986 19.38307277199074  9.775795888157894 19.38419270833333  9.779261744449013 19.387676902488426  C 9.78272760074013 19.391161096643515  9.783841642680922 19.3957652271412  9.787307498972039 19.399249421296297  C 9.859843020148027 19.468684534143524  9.947356008429278 19.508068431712967  10.031403140419409 19.554358506944446  C 10.072869685444081 19.578685691550927  10.108518559827305 19.61452314814815  10.152275035978619 19.631881944444448  C 10.288124434621711 19.68514040798611  10.432019551809214 19.71288957609954  10.574800663034543 19.71288957609954  C 10.725627528782896 19.71288957609954  10.876454358552635 19.682776150173613  11.016883655427632 19.62261147280093  C 11.064106023848689 19.60295062934028  11.100930787417763 19.562446831597228  11.1446872995477 19.536937500000004  C 11.231024362664474 19.485981083622686  11.32082731805099 19.4431752025463  11.394538764391449 19.36795384837964  C 11.398004620682567 19.364469654224543  11.399118662623357 19.358683376736114  11.402584518914475 19.355199182581025  C 11.404874450041122 19.351714988425936  11.409516231496712 19.35059505208334  11.412920204564148 19.34711085792825  L 27.573921880139803 2.0507996238425914  Z " fill-rule="nonzero" fill="#0fc060" stroke="none" transform="matrix(1 0 0 1 3302 3263 )" />
  </g>
</svg>