<?xml version="1.0" encoding="utf-8"?>
<svg version="1.1" xmlns:xlink="http://www.w3.org/1999/xlink" width="10px" height="10px" xmlns="http://www.w3.org/2000/svg">
  <g transform="matrix(1 0 0 1 -2797 -3337 )">
    <path d="M 2802 3337  C 2804.8 3337  2807 3339.2  2807 3342  C 2807 3344.8  2804.8 3347  2802 3347  C 2799.2 3347  2797 3344.8  2797 3342  C 2797 3339.2  2799.2 3337  2802 3337  Z " fill-rule="nonzero" fill="#0fc060" stroke="none" />
    <path d="M 2802 3337.5  C 2804.52 3337.5  2806.5 3339.48  2806.5 3342  C 2806.5 3344.52  2804.52 3346.5  2802 3346.5  C 2799.48 3346.5  2797.5 3344.52  2797.5 3342  C 2797.5 3339.48  2799.48 3337.5  2802 3337.5  Z " stroke-width="1" stroke="#ffffff" fill="none" />
  </g>
</svg>