<?xml version="1.0" encoding="utf-8"?>
<svg version="1.1" xmlns:xlink="http://www.w3.org/1999/xlink" width="20px" height="20px" xmlns="http://www.w3.org/2000/svg">
  <g transform="matrix(1 0 0 1 -3152 -3263 )">
    <path d="M 0.655819216101695 7.336045190677966  L 0.6449717584745762 7.33242938559322  L 0.6042937923728813 7.3152542372881335  C 0.5902834279014164 7.30957825733158  0.576418380753019 7.303549979341333  0.5627118644067798 7.297175148305084  L 0.5446327754237288 7.288135593220338  C 0.47807941145579125 7.253522223985413  0.41612750756312467 7.210702525706659  0.3602259957627118 7.160677966101695  L 0.35299434322033885 7.153446334745762  C 0.3315365258869208 7.133948296125654  0.31102345495307315 7.113435218121583  0.29152542372881335 7.091977394067795  L 0.3602259957627116 7.160677966101695  C 0.19477489574336015 7.013117731900721  0.08873106474188765 6.810349070717701  0.06192091101694894 6.590282478813558  L 0.056497182203389756 6.483615826271186  L 0.056497182203389756 2.4673446398305083  C 0.057050625303540624 1.968496096793151  0.46160258516164593 1.5643927145524565  0.9604514352051824 1.5643927145524565  C 1.418394001945646 1.5643927145524565  1.8039917490788229 1.9068446916472268  1.858079088983051 2.361581927966102  L 1.8644067796610169 2.4673446398305083  L 1.8644067796610169 4.136045190677966  L 1.9981920974576268 3.991412436440678  L 2.470960444915254 3.484293792372881  L 2.8596610169491523 3.079322033898305  L 2.968135593220338 2.9690395550847457  C 4.831140345895944 1.1011577662880647  7.3618649550793345 0.052951738419587877  10 0.056497182203389756  C 15.491525423728813 0.056497182203389756  19.94350281779661 4.508474576271186  19.94350281779661 10  C 19.94350281779661 15.491525423728813  15.491525423728813 19.94350281779661  10 19.94350281779661  C 7.327909597457628 19.94350281779661  4.820338983050847 18.883163834745766  2.9690395550847457 17.03096044491526  C 2.806265819657743 16.862427992560292  2.7152894601293287 16.63727732207101  2.7152894601293287 16.40297308301069  C 2.7152894601293287 15.903732627285924  3.1200038137266004 15.499018273688652  3.6192442694513627 15.499018273688652  C 3.8535485085116883 15.499018273688652  4.078699179000969 15.58999463321707  4.247231631355933 15.752768368644073  C 5.771100508946045 17.28127299756461  7.841646043536858 18.138903105406378  10 18.135593220338983  C 14.493163945190226 18.135593220338983  18.135593099109194 14.493164066420013  18.135593099109194 10  C 18.135593099109194 5.506835933579987  14.493163945190226 1.8644067796610164  9.999999878770215 1.8644067796610164  C 7.81242938559322 1.8644067796610169  5.764067796610169 2.7303954872881353  4.247231631355932 4.247231631355932  L 3.910960444915254 4.593446334745764  L 3.3233898305084746 5.220790953389831  L 2.9925423728813554 5.580564978813559  L 4.977627118644067 5.580564978813559  C 5.43625430565847 5.580166870262834  5.8224989605136415 5.923279567970558  5.876158199152542 6.378757055084746  L 5.881581927966099 6.484519766949153  C 5.88152146971367 6.942802099977517  5.538524645862822 7.328527856569148  5.083389830508472 7.382146885593221  L 4.977627118644065 7.388474576271188  L 0.9604519703389827 7.388474576271187  C 0.8566552159097706 7.388564400165381  0.7536137623802158 7.370830259551669  0.655819216101695 7.336045190677966  Z " fill-rule="nonzero" fill="#000000" stroke="none" transform="matrix(1 0 0 1 3152 3263 )" />
  </g>
</svg>