<?xml version="1.0" encoding="utf-8"?>
<svg version="1.1" xmlns:xlink="http://www.w3.org/1999/xlink" width="9px" height="14px" xmlns="http://www.w3.org/2000/svg">
  <g transform="matrix(1 0 0 1 -4810 -1752 )">
    <path d="M 7.370396094528386 7.004863432372505  C 7.370396094528386 6.971140402701286  7.354606926500891 6.938798676313789  7.326502243902439 6.914953507760532  L 0.30647648780487846 0.9585680177383593  C 0.0724050731707326 0.7599460753880267  0.0724050731707326 0.4379264567627493  0.30647648780487846 0.239304514412417  C 0.5405666341463423 0.04069846563192921  0.9200897560975612 0.04069846563192921  1.154179902439024 0.239304514412417  L 8.704013268292682 6.645223733924612  C 8.938103414634146 6.8438456762749444  8.938103414634146 7.1658652949002235  8.704013268292682 7.364487237250554  L 1.154198634146341 13.770406456762748  C 0.9200897560975612 13.96902839911308  0.5405666341463412 13.96902839911308  0.30647648780487735 13.770406456762748  C 0.07240507317073153 13.571784514412418  0.07240507317073153 13.249764895787138  0.30647648780487735 13.051142953436806  L 7.326502243902439 7.094773356984478  C 7.354606926500891 7.070928188431219  7.370396094528386 7.0385864620437255  7.370396094528386 7.004863432372505  Z " fill-rule="nonzero" fill="#999999" stroke="none" transform="matrix(1 0 0 1 4810 1752 )" />
  </g>
</svg>