<?xml version="1.0" encoding="utf-8"?>
<svg version="1.1" xmlns:xlink="http://www.w3.org/1999/xlink" width="21px" height="26px" xmlns="http://www.w3.org/2000/svg">
  <g transform="matrix(1 0 0 1 -8312 -680 )">
    <path d="M 15.16666667578125 5.6553672224576275  L 15.166666675781245 0.42470338983050854  C 15.195833351562499 0.449858747881356  15.224635425781246 0.47593220338983055  15.252161449218747 0.5036582012711865  L 20.572890624999996 5.8630367139830515  C 20.600416675781247 5.890762711864407  20.62630207421875 5.919774002118644  20.65127605078125 5.9491525423728815  L 15.458333324218748 5.9491525423728815  C 15.297250277829322 5.949152527161649  15.16666667578125 5.817620363615017  15.16666667578125 5.6553672224576275  Z M 15.458333324218753 7.124293794491526  C 14.653292865218408 7.123383081197911  14.000904130555162 6.466255432993209  13.999999999999996 5.6553672224576275  L 13.999999999999996 0  L 1.4583333242187493 0  C 0.6532928758798514 0.07435705012890452  0.0009041456207634634 0.7314846815763146  0 1.5423728813559323  L 0 24.457627118644062  C 0.0009041456207619091 25.268515318423685  0.6532928758798491 25.925642949871094  1.4583333242187502 26  L 19.54166667578125 26  C 20.34670712412015 25.925642949871094  20.999095854379238 25.268515318423685  21 24.45762711864407  L 21 7.124293794491526  L 15.458333324218753 7.124293794491526  Z " fill-rule="nonzero" fill="#666666" stroke="none" transform="matrix(1 0 0 1 8312 680 )" />
  </g>
</svg>