<?xml version="1.0" encoding="utf-8"?>
<svg version="1.1" xmlns:xlink="http://www.w3.org/1999/xlink" width="40px" height="40px" xmlns="http://www.w3.org/2000/svg">
  <g transform="matrix(1 0 0 1 -8312 -630 )">
    <path d="M 37.142857142857146 40  L 2.8571428571428568 40  C 1.257142857142883 40  0 38.74285714285712  0 37.142857142857146  L 0 2.8571428571428568  C 0 1.257142857142883  1.257142857142883 0  2.8571428571428568 0  L 37.142857142857146 0  C 38.74285714285712 0  40 1.257142857142883  40 2.8571428571428568  L 40 37.142857142857146  C 40 38.74285714285712  38.74285714285712 40  37.142857142857146 40  Z M 8.571428571428571 27  L 32 27  L 22.93087557603686 12.571428571428571  L 16.884792626728085 23.058823529411775  L 14.617511520737349 17.81512605042014  L 8.571428571428571 27  Z " fill-rule="nonzero" fill="#666666" stroke="none" transform="matrix(1 0 0 1 8312 630 )" />
  </g>
</svg>