<?xml version="1.0" encoding="utf-8"?>
<svg version="1.1" xmlns:xlink="http://www.w3.org/1999/xlink" width="10px" height="10px" xmlns="http://www.w3.org/2000/svg">
  <g transform="matrix(1 0 0 1 -8222 -744 )">
    <path d="M 5.219259263888888 0.9044444401041669  L 5.219851847222222 0.9055555598958336  C 5.083964508650145 0.8358907104212916  4.91959104690541 0.8358907104212916  4.783703708333334 0.9055555598958336  L 0.9466666666666667 2.8666666666666667  L 4.7837037083333325 4.828888893229167  C 4.92 4.898333333333333  5.084148152777777 4.898333333333333  5.2198518472222215 4.828888893229167  L 9.056296291666666 2.8666666666666667  L 5.219259263888888 0.9044444401041669  Z M 0.5111111111111113 2.118333333333333  L 4.348148152777777 0.1566666666666668  C 4.755527744048354 -0.05181981545425207  5.2480278115072 -0.05181981545425189  5.655407402777778 0.1566666666666668  L 9.491851847222222 2.1177777734375005  C 10.12474073611111 2.4416666666666673  10.12474073611111 3.2927777734375008  9.491851847222222 3.616111106770834  L 8.871407402777777 3.9333333333333336  L 9.491851847222222 4.251111106770834  C 10.12474073611111 4.574444440104167  10.12474073611111 5.4255555468750005  9.491851847222222 5.748888893229167  L 8.871407402777777 6.066666666666668  L 9.491851847222222 6.3833333333333355  C 10.12474073611111 6.707222226562503  10.12474073611111 7.5583333333333345  9.491851847222222 7.881666666666668  L 5.655407402777778 9.843333333333334  C 5.248027811507201 10.05181981545425  4.755527744048354 10.05181981545425  4.348148152777779 9.843333333333334  L 0.5111111111111113 7.8822222265625  C -0.12118518055555526 7.558333333333333  -0.12118518055555526 6.707222226562499  0.5111111111111113 6.383888893229166  L 1.132148152777778 6.0666666666666655  L 0.5111111111111113 5.748888893229166  C -0.12118518055555526 5.425555559895833  -0.12118518055555526 4.574444453124999  0.5111111111111113 4.251111106770832  L 1.132148152777778 3.9333333333333327  L 0.5111111111111113 3.6166666666666663  C -0.12118518055555526 3.2927777734375003  -0.12118518055555526 2.4416666666666664  0.5111111111111113 2.118333333333333  Z M 4.347555555555555 5.5777777734375  L 2.081481486111111 4.419444440104167  L 0.9466666666666667 5  L 4.7837037083333325 6.9622222265625  C 4.92 7.031666666666667  5.084148152777777 7.031666666666667  5.2198518472222215 6.9622222265625  L 9.056296291666666 5  L 7.920888888888888 4.419444440104167  L 5.654814819444444 5.5777777734375  C 5.247435224532577 5.786264260297073  4.754935150467423 5.78626426029707  4.347555555555555 5.5777777734375  Z M 4.347555555555555 7.710555559895834  L 2.081481486111111 6.552222226562501  L 0.9460740694444445 7.132777773437501  L 4.783111111111111 9.095  C 4.919407402777779 9.164444440104168  5.083555555555554 9.164444440104168  5.219259263888888 9.095  L 9.056296291666666 7.132777773437501  L 7.920888888888888 6.552222226562501  L 5.654814819444444 7.710555559895834  C 5.247435224532577 7.919042046755407  4.754935150467423 7.919042046755406  4.347555555555555 7.710555559895834  Z " fill-rule="nonzero" fill="#ffffff" stroke="none" transform="matrix(1 0 0 1 8222 744 )" />
  </g>
</svg>