<?xml version="1.0" encoding="utf-8"?>
<svg version="1.1" xmlns:xlink="http://www.w3.org/1999/xlink" width="14px" height="18px" xmlns="http://www.w3.org/2000/svg">
  <g transform="matrix(1 0 0 1 -1389 -26 )">
    <path d="M 10.989589333333333 4.054787368421052  C 10.989688888888889 1.88053894736842  9.235519999999998 0.11151157894736748  7.079544888888889 0.11151157894736845  C 4.923470222222221 0.11151157894736845  3.1694008888888883 1.8805389473684213  3.1694008888888883 4.054888421052631  C 3.1694008888888883 5.451132631578948  3.906510222222222 6.738138947368421  5.07917511111111 7.443587368421052  L 4.698175999999998 10.55024842105263  L 1.509710222222222 10.55024842105263  C 0.8454755555555553 10.55024842105263  0.3049884444444442 11.096741052631579  0.3049884444444442 11.768336842105265  L 0.3049884444444442 14.314458947368422  C 0.3049884444444442 14.986155789473687  0.8454755555555553 15.53274947368421  1.509710222222222 15.53274947368421  L 12.48999111111111 15.53274947368421  C 13.154424888888888 15.53274947368421  13.695011555555556 14.986256842105265  13.695011555555556 14.314458947368422  L 13.695011555555556 11.768336842105263  C 13.695011555555556 11.096639999999999  13.154424888888888 10.550248421052629  12.48999111111111 10.550248421052629  L 9.452750222222221 10.550248421052629  L 9.07264711111111 7.448033684210524  C 10.249692444444443 6.743595789473682  10.989589333333333 5.454972631578946  10.989589333333333 4.054787368421052  Z M 13.218040888888888 16.53114947368421  L 0.7819591111111109 16.53114947368421  C 0.41269318173802255 16.53114947368421  0.11334399999999979 16.83500014687694  0.11334399999999979 17.209818947368422  C 0.11334399999999979 17.5846377478599  0.41269318173802255 17.88848842105263  0.7819591111111109 17.88848842105263  L 13.218040888888888 17.88848842105263  C 13.587306818261975 17.88848842105263  13.886655999999999 17.5846377478599  13.886655999999999 17.209818947368422  C 13.886655999999999 16.83500014687694  13.587306818261975 16.53114947368421  13.218040888888888 16.53114947368421  Z " fill-rule="nonzero" fill="#999999" stroke="none" transform="matrix(1 0 0 1 1389 26 )" />
  </g>
</svg>