<?xml version="1.0" encoding="utf-8"?>
<svg version="1.1" xmlns:xlink="http://www.w3.org/1999/xlink" width="180px" height="45px" xmlns="http://www.w3.org/2000/svg">
  <g transform="matrix(1 0 0 1 -703 -239 )">
    <path d="M 704 244  A 4 4 0 0 1 708 240 L 878 240  A 4 4 0 0 1 882 244 L 882 279  A 4 4 0 0 1 878 283 L 708 283  A 4 4 0 0 1 704 279 L 704 244  Z " fill-rule="nonzero" fill="#ffffff" stroke="none" />
    <path d="M 703.5 244  A 4.5 4.5 0 0 1 708 239.5 L 878 239.5  A 4.5 4.5 0 0 1 882.5 244 L 882.5 279  A 4.5 4.5 0 0 1 878 283.5 L 708 283.5  A 4.5 4.5 0 0 1 703.5 279 L 703.5 244  Z " stroke-width="1" stroke-dasharray="9,4" stroke="#e7772d" fill="none" stroke-dashoffset="0.5" />
  </g>
</svg>