<?xml version="1.0" encoding="utf-8"?>
<svg version="1.1" xmlns:xlink="http://www.w3.org/1999/xlink" width="220px" height="87px" xmlns="http://www.w3.org/2000/svg">
  <g transform="matrix(1 0 0 1 -322 -379 )">
    <path d="M 323 389  A 9 9 0 0 1 332 380 L 532 380  A 9 9 0 0 1 541 389 L 541 456  A 9 9 0 0 1 532 465 L 332 465  A 9 9 0 0 1 323 456 L 323 389  Z " fill-rule="nonzero" fill="#ffffff" stroke="none" />
    <path d="M 322.5 389  A 9.5 9.5 0 0 1 332 379.5 L 532 379.5  A 9.5 9.5 0 0 1 541.5 389 L 541.5 456  A 9.5 9.5 0 0 1 532 465.5 L 332 465.5  A 9.5 9.5 0 0 1 322.5 456 L 322.5 389  Z " stroke-width="1" stroke-dasharray="3,1" stroke="#d7d7d7" fill="none" stroke-dashoffset="0.5" />
  </g>
</svg>