<?xml version="1.0" encoding="utf-8"?>
<svg version="1.1" xmlns:xlink="http://www.w3.org/1999/xlink" width="15px" height="16px" xmlns="http://www.w3.org/2000/svg">
  <g transform="matrix(1 0 0 1 -1228 -1825 )">
    <path d="M 13.52339203125 11.926151812499999  C 14.273542109374999 11.925995562499999  14.883849578125 11.31568809375  14.883849578125 10.565381765625  L 14.883849578125 2.784352078125  C 14.883849578125 2.0340457499999998  14.273385859375 1.42373828125  13.52323578125 1.42373828125  L 8.738587671875 1.42373828125  C 7.651409125 1.42373828125  6.993133296875001 0.7162441093749999  6.677510890625001 0.25015418749999996  C 6.5251683906250015 0.025312281249999957  6.237045765625001 -0.060155765625000024  5.986422828125001 0.04453089062499996  C 5.653144328125001 0.18374849999999995  5.530020328125 0.5917138906249999  5.732362421875001 0.8907739218749999  C 6.189233656250001 1.5657683593749998  7.136569609375001 2.5666976249999998  8.738587671875 2.5666976249999998  L 11.344191218750002 2.5666976249999998  L 11.344191218750002 10.782879984375  L 10.166857156250002 10.782879984375  C 8.752962546875002 10.782879984375  7.2787559375000015 11.895370828125001  6.890790375000002 13.254890875000001  L 6.633448750000001 14.156758453125  C 6.530480843750001 14.517380484375  6.232827046875001 14.80831559375  5.860330109375001 14.851596484375001  C 5.531582812500001 14.889877421875001  5.221741609375001 14.755816015625001  5.0272119687500005 14.498005640625001  C 4.858775859375 14.274569984375  4.803307562500001 13.993947296875001  4.873619484375 13.724418265625001  L 5.51377046875 12.036619656250002  C 5.621582078125 11.751934500000003  5.5829886562499995 11.432718375000002  5.410021328125 11.182407937500003  C 5.23725976915726 10.932244415392509  4.952641645293485 10.782897293271256  4.6486213437499995 10.782879984375002  L 2.31801553125 10.782879984375002  C 2.0039556093749997 10.782879984375002  1.6900519531249998 10.676787109375002  1.4681787656249998 10.454601437500003  C 1.172243703125 10.158041375000003  1.0634945937499998 9.743669796875002  1.1694312343749997 9.349766781250002  L 2.593325765625 4.056997843750002  C 2.790199140625 3.325753859375002  3.378319296875 2.7784146250000026  4.09456340625 2.6163847031250023  C 4.347530078125 2.5591976718750025  4.537528515625 2.351699375000002  4.5375285 2.092326531250002  L 4.5375285 2.012952171875002  C 4.5375285 1.675142453125002  4.2258123125 1.421394546875002  3.8950337968749995 1.490456484375002  C 2.7487932343749995 1.7295170156250022  1.8031760156249996 2.596228625000002  1.4898973437499996 3.760281546875002  L 0.090846359375 8.96148871875  C -0.08774592187500001 9.625545749999999  -0.008059078124999994 10.349758546875  0.37740650000000003 10.919285109375  C 0.808652953125 11.556311109375  1.507397203125 11.925214328125  2.2684846875 11.925214328125  L 4.334092671875 11.925214328125  L 3.7806597343749995 13.389889765625  C 3.602536203125 14.013478375  3.724566453125 14.66800425  4.115031984375 15.185812484374999  C 4.487685171875 15.679714671874999  5.047055562500001 15.972681  5.66095675 15.998618296875  C 6.5603243437500005 16.036586734375  7.499535359375001 15.28659290625  7.74656459375 14.42097503125  L 7.9625003125 13.664106265625  C 8.24765421875 12.6647395  9.22733365625 11.925370578125  10.16701340625 11.925370578125  L 11.34434746875 11.925370578125  L 13.52339203125 11.926151812499999  Z M 13.741202734375 2.784352078125  L 13.741202734375 10.565381765625  C 13.741202734375 10.68553703125  13.643391046875 10.78319246875  13.52323578125 10.783192484375  L 12.4869943125 10.783192484375  L 12.4869943125 2.566385125  L 13.52323578125 2.566385125  C 13.643391046875 2.566385125  13.741202734375 2.6641968125  13.741202734375 2.784352078125  Z " fill-rule="nonzero" fill="#999999" stroke="none" transform="matrix(1 0 0 1 1228 1825 )" />
  </g>
</svg>