<?xml version="1.0" encoding="utf-8"?>
<svg version="1.1" xmlns:xlink="http://www.w3.org/1999/xlink" width="12px" height="12px" xmlns="http://www.w3.org/2000/svg">
  <g transform="matrix(1 0 0 1 -1415 -1567 )">
    <path d="M 11.515828586065574 10.026889648760331  L 3.13670418442623 10.026889648760331  C 2.9560785040985427 9.334865803932772  2.3356055927992765 8.852478528939505  1.625884512295082 8.85230140909091  C 0.7638285860655738 8.85230140909091  0.06396359016393438 9.554216814049585  0.06396359016393438 10.418170152892563  C 0.06396359016393438 11.282123491735536  0.7638285860655738 11.984785611570247  1.6251439180327867 11.984785611570247  C 2.350929836065574 11.984785611570247  2.9634042786885244 11.484484202479338  3.13670418442623 10.810197371900827  L 11.515828586065572 10.810197371900824  C 11.523822263576097 10.81069506759193  11.531829262570431 10.810944092975204  11.539838166185355 10.810944092975204  C 11.754983168972927 10.810944092975204  11.929392653890272 10.635093207356064  11.929392653890272 10.418170146694212  C 11.929392653890272 10.201247086032362  11.754983168972927 10.02539620041322  11.539838166185355 10.02539620041322  C 11.531829262570431 10.02539620041322  11.523822263576097 10.025645225796497  11.515828586065572 10.026142921487601  Z M 2.405734081967213 10.418170152892563  C 2.405734081967213 10.849773458677685  2.0561718811475407 11.201477888429752  1.6251439180327867 11.201477876033056  C 1.1948565491803278 11.201477876033056  0.8445537540983605 10.850520173553718  0.8445537540983605 10.418170152892563  C 0.8445537540983605 9.986566847107436  1.1948565491803278 9.634862417355372  1.6251439180327867 9.634862417355372  C 2.0561718811475407 9.634862417355372  2.405734081967213 9.985820119834711  2.405734081967213 10.418170152892563  Z M 11.54722119057805 5.619010214876033  C 11.539219933300211 5.619010214876033  11.531220582435768 5.619259238416778  11.52323456557377 5.619756929752066  L 10.31976301229508 5.619756929752066  C 10.139581141100935 4.926925413319428  9.518585848071568 4.44381062611658  8.808202739754098 4.44381062611658  C 8.097819631436627 4.44381062611658  7.476824338407262 4.926925413319429  7.296642467213115 5.619756929752066  L 0.5053599221311476 5.619756929752066  C 0.5048652597819163 5.619755029766351  0.504370594291651 5.619754079770908  0.5038759283531069 5.619754079770908  C 0.28930804136080956 5.619754079770908  0.11513853924975519 5.794697816482307  0.11432424590163943 6.011037433884297  C 0.11432424590163943 6.227585801652893  0.28910534016393447 6.40231793801653  0.5046193278688524 6.40231793801653  L 7.29590187295082 6.4023179380165285  C 7.4755780849827556 7.095850093892732  8.096905106142996 7.579690821014701  8.807832442622951 7.579690821014701  C 9.518759779102906 7.579690821014701  10.140086800263145 7.095850093892732  10.319763012295082 6.40231793801653  L 11.52323456557377 6.40231793801653  C 11.531220582435768 6.402815629351816  11.539219933300211 6.403064652892562  11.54722119057805 6.403064652892562  C 11.761957167658357 6.403064652892562  11.93603507172559 6.227548088461138  11.93603507172559 6.011037433884297  C 11.93603507172559 5.794526779307456  11.761957167658357 5.619010214876033  11.54722119057805 5.619010214876033  Z M 9.588792897540987 6.011037433884297  C 9.588792897540987 6.4426407396694225  9.238490102459018 6.794345169421488  8.808202733606556 6.794345157024794  C 8.377915364754099 6.794345157024794  8.027612569672131 6.443387454545455  8.027612569672131 6.010290719008264  C 8.027612569672131 5.57868741322314  8.377915364754099 5.227729710743802  8.808202733606558 5.227729698347106  C 9.238490102459018 5.227729698347106  9.588792897540987 5.578687400826445  9.588792897540987 6.011037433884297  Z M 0.06396359016393444 1.6039047148760328  C 0.06396359016393444 2.4671113264462807  0.7638285860655738 3.1697734586776862  1.6251439180327867 3.1697734586776862  C 2.350929836065574 3.1697734586776862  2.9634042786885244 2.669472049586777  3.13670418442623 1.9951852190082648  L 11.515828586065572 1.9951852190082646  C 11.521480267827314 1.9954340943284867  11.52713666355005 1.9955585764462813  11.532793732970719 1.9955585764462813  C 11.747529710051026 1.9955585764462813  11.921607614118258 1.8200420120148577  11.921607614118258 1.6035313574380168  C 11.921607614118258 1.3870207028611758  11.747529710051026 1.2115041384297525  11.532793732970719 1.2115041384297525  C 11.52713666355005 1.2115041384297525  11.521480267827314 1.2116286205475468  11.515828586065574 1.211877495867769  L 3.13670418442623 1.2118774958677685  C 2.954599864339866 0.521726433773234  2.3348752030177886 0.04138077027413947  1.6265714988035158 0.04138077027413947  C 0.7685884977173101 0.04138077027413947  0.0710711593939232 0.7388606287078119  0.06396359016393444 1.6039047148760328  Z M 1.6251439180327867 0.8205969917355374  C 2.0561718811475407 0.8205969917355374  2.405734081967213 1.1715546942148762  2.405734081967213 1.603904714876033  C 2.405734081967213 2.0355080206611573  2.0561718811475407 2.3864657231404958  1.6251439180327867 2.3864657231404958  C 1.1948565491803278 2.3864657231404958  0.8445537540983605 2.0355080206611573  0.8445537540983605 1.603904714876033  C 0.8445537540983605 1.1708079669421487  1.1948565491803278 0.81985026446281  1.6251439180327867 0.81985026446281  Z " fill-rule="nonzero" fill="#000000" stroke="none" transform="matrix(1 0 0 1 1415 1567 )" />
  </g>
</svg>