<?xml version="1.0" encoding="utf-8"?>
<svg version="1.1" xmlns:xlink="http://www.w3.org/1999/xlink" width="20px" height="20px" xmlns="http://www.w3.org/2000/svg">
  <g transform="matrix(1 0 0 1 -1655 -3197 )">
    <path d="M 18.75 10  C 18.75 5.125  14.875 1.25  10 1.25  C 5.125 1.25  1.25 5.125  1.25 10  C 1.25 14.875  5.125 18.75  10 18.75  C 14.875 18.75  18.75 14.875  18.75 10  Z M 0 10  C 0 4.5  4.5 0  10 0  C 15.5 0  20 4.5  20 10  C 20 15.5  15.5 20  10 20  C 4.5 20  0 15.5  0 10  Z M 9 5  C 9 4.5  9.5 4  10 4  C 10.5 4  11 4.375  11 5  L 11 11.875  C 11 12.375  10.625 12.875  10 12.875  C 9.375 12.875  9 12.5  9 11.875  L 9 5  Z M 11 15  C 11 15.625  10.5 16  10 16  C 9.5 16  9 15.625  9 15  C 9 14.375  9.375 14  10 14  C 10.625 14  11 14.375  11 15  Z " fill-rule="nonzero" fill="#e7772d" stroke="none" transform="matrix(1 0 0 1 1655 3197 )" />
  </g>
</svg>