<?xml version="1.0" encoding="utf-8"?>
<svg version="1.1" xmlns:xlink="http://www.w3.org/1999/xlink" width="10px" height="719px" preserveAspectRatio="xMidYMin meet" viewBox="1444 471  8 719" xmlns="http://www.w3.org/2000/svg">
  <path d="M 885 1185  L 1443 1185  A 5 5 0 0 0 1448 1180 L 1448 481  A 5 5 0 0 1 1453 476 L 2011 476  " stroke-width="2" stroke="#0066ff" fill="none" />
  <path d="M 886.5 1181.5  A 3.5 3.5 0 0 0 883 1185 A 3.5 3.5 0 0 0 886.5 1188.5 A 3.5 3.5 0 0 0 890 1185 A 3.5 3.5 0 0 0 886.5 1181.5 Z M 2003.6 484  L 2013 476  L 2003.6 468  L 2007.2 476  L 2003.6 484  Z " fill-rule="nonzero" fill="#0066ff" stroke="none" />
</svg>