<?xml version="1.0" encoding="utf-8"?>
<svg version="1.1" xmlns:xlink="http://www.w3.org/1999/xlink" width="10px" height="5px" preserveAspectRatio="xMinYMid meet" viewBox="256 569  10 3" xmlns="http://www.w3.org/2000/svg">
  <path d="M 263 573  L 585 573  A 5 5 0 0 1 590 578 L 590 712  A 5 5 0 0 0 595 717 L 918 717  " stroke-width="2" stroke="#0066ff" fill="none" />
  <path d="M 264.5 569.5  A 3.5 3.5 0 0 0 261 573 A 3.5 3.5 0 0 0 264.5 576.5 A 3.5 3.5 0 0 0 268 573 A 3.5 3.5 0 0 0 264.5 569.5 Z M 910.6 725  L 920 717  L 910.6 709  L 914.2 717  L 910.6 725  Z " fill-rule="nonzero" fill="#0066ff" stroke="none" />
</svg>