<?xml version="1.0" encoding="utf-8"?>
<svg version="1.1" xmlns:xlink="http://www.w3.org/1999/xlink" width="13px" height="14px" xmlns="http://www.w3.org/2000/svg">
  <g transform="matrix(1 0 0 1 -1409 -1940 )">
    <path d="M 8.665376984126983 5.331944444444444  C 8.665376984126983 5.593055555555555  8.616369047619045 5.823611111111111  8.51577380952381 6.022222222222222  C 8.416468253968253 6.220833333333334  8.297817460317459 6.3916666666666675  8.161111111111111 6.536111111111111  C 8.02440476190476 6.680555555555556  7.779365079365079 6.9222222222222225  7.424702380952381 7.262499999999999  C 7.326686507936507 7.3583333333333325  7.248015873015872 7.4430555555555555  7.189980158730158 7.5152777777777775  C 7.1306547619047596 7.587500000000001  7.086805555555554 7.654166666666668  7.058432539682538 7.715277777777779  C 7.030059523809521 7.774999999999999  7.006845238095236 7.836111111111111  6.991369047619044 7.895833333333333  C 6.9758928571428545 7.955555555555556  6.951388888888886 8.0625  6.920436507936505 8.213888888888889  C 6.866269841269839 8.536111111111111  6.694742063492061 8.697222222222221  6.407142857142855 8.697222222222221  C 6.257539682539679 8.697222222222221  6.131150793650791 8.644444444444446  6.02926587301587 8.538888888888888  C 5.92738095238095 8.433333333333334  5.875793650793648 8.277777777777779  5.875793650793648 8.069444444444443  C 5.875793650793648 7.809722222222221  5.913194444444441 7.584722222222223  5.987996031746029 7.393055555555554  C 6.0627976190476165 7.2027777777777775  6.162103174603171 7.03611111111111  6.285912698412695 6.891666666666666  C 6.4097222222222205 6.747222222222222  6.576091269841268 6.576388888888888  6.786309523809521 6.3791666666666655  C 6.970734126984124 6.205555555555556  7.103571428571426 6.074999999999999  7.186111111111108 5.98611111111111  C 7.2686507936507905 5.897222222222221  7.337003968253967 5.8  7.393749999999998 5.6916666666666655  C 7.449206349206348 5.583333333333333  7.477579365079363 5.466666666666666  7.477579365079363 5.338888888888889  C 7.477579365079363 5.091666666666667  7.392460317460316 4.881944444444445  7.220932539682538 4.7124999999999995  C 7.0494047619047615 4.543055555555555  6.828869047619047 4.456944444444444  6.558035714285713 4.456944444444444  C 6.240773809523808 4.456944444444444  6.00863095238095 4.543055555555555  5.859027777777777 4.715277777777779  C 5.709424603174602 4.887499999999999  5.583035714285713 5.140277777777778  5.478571428571427 5.475  C 5.380555555555554 5.824999999999999  5.194841269841269 6  4.921428571428571 6  C 4.760218253968253 6  4.624801587301586 5.93888888888889  4.5138888888888875 5.816666666666667  C 4.402976190476188 5.694444444444445  4.347519841269841 5.5625  4.347519841269841 5.419444444444444  C 4.347519841269841 5.125  4.4352182539682525 4.827777777777777  4.610615079365078 4.5249999999999995  C 4.786011904761904 4.2236111111111105  5.0426587301587285 3.973611111111111  5.379265873015872 3.774999999999999  C 5.715873015873015 3.576388888888888  6.10922619047619 3.4777777777777774  6.558035714285713 3.4777777777777774  C 6.975892857142855 3.4777777777777774  7.343452380952379 3.561111111111111  7.6632936507936495 3.726388888888888  C 7.98313492063492 3.891666666666666  8.229464285714284 4.116666666666666  8.403571428571428 4.402777777777777  C 8.577678571428569 4.687499999999999  8.665376984126983 4.997222222222222  8.665376984126983 5.331944444444444  Z M 7.098412698412698 9.813888888888888  C 7.098412698412698 10.029166666666665  7.032638888888888 10.199999999999998  6.903670634920635 10.32361111111111  C 6.773412698412697 10.447222222222221  6.623809523809522 10.509722222222221  6.454861111111111 10.509722222222221  C 6.279464285714284 10.509722222222221  6.125992063492062 10.44861111111111  5.9944444444444445 10.326388888888888  C 5.862896825396825 10.204166666666666  5.798412698412698 10.033333333333331  5.798412698412698 9.813888888888888  C 5.798412698412698 9.619444444444444  5.861607142857142 9.454166666666666  5.9879960317460315 9.320833333333331  C 6.11438492063492 9.187499999999998  6.270436507936507 9.120833333333332  6.454861111111111 9.120833333333332  C 6.6367063492063485 9.120833333333332  6.78888888888889 9.187499999999998  6.912698412698413 9.320833333333331  C 7.036507936507937 9.454166666666666  7.098412698412698 9.618055555555554  7.098412698412698 9.813888888888888  Z M 12.95486111111111 6.993055555555555  C 12.95486111111111 3.1625  10.067261904761905 0.05694444444444476  6.506448412698413 0.056944444444444436  C 2.9456349206349204 0.056944444444444436  0.05803571428571428 3.1625  0.05803571428571428 6.993055555555555  C 0.05803571428571428 10.82361111111111  2.945634920634921 13.929166666666667  6.506448412698413 13.929166666666667  C 10.067261904761905 13.929166666666667  12.95486111111111 10.82361111111111  12.95486111111111 6.993055555555555  Z " fill-rule="nonzero" fill="#595757" stroke="none" transform="matrix(1 0 0 1 1409 1940 )" />
  </g>
</svg>