<?xml version="1.0" encoding="utf-8"?>
<svg version="1.1" xmlns:xlink="http://www.w3.org/1999/xlink" width="15px" height="10px" preserveAspectRatio="xMinYMid meet" viewBox="1625 199  15 8" xmlns="http://www.w3.org/2000/svg">
  <path d="M 571 188  L 571 185  A 5 5 0 0 1 576 180 L 1625 180  A 5 5 0 0 1 1630 185 L 1630 198  A 5 5 0 0 0 1635 203 L 1638 203  " stroke-width="2" stroke="#e7772d" fill="none" />
  <path d="M 571 183  A 3.5 3.5 0 0 0 567.5 186.5 A 3.5 3.5 0 0 0 571 190 A 3.5 3.5 0 0 0 574.5 186.5 A 3.5 3.5 0 0 0 571 183 Z M 1630.6 211  L 1640 203  L 1630.6 195  L 1634.2 203  L 1630.6 211  Z " fill-rule="nonzero" fill="#e7772d" stroke="none" />
</svg>