<?xml version="1.0" encoding="utf-8"?>
<svg version="1.1" xmlns:xlink="http://www.w3.org/1999/xlink" width="26px" height="26px" xmlns="http://www.w3.org/2000/svg">
  <g transform="matrix(1 0 0 1 -1122 -153 )">
    <path d="M 1135 153  C 1142.28 153  1148 158.72  1148 166  C 1148 173.28  1142.28 179  1135 179  C 1127.72 179  1122 173.28  1122 166  C 1122 158.72  1127.72 153  1135 153  Z " fill-rule="nonzero" fill="#0066ff" stroke="none" />
    <path d="M 1135 153.5  C 1142 153.5  1147.5 159  1147.5 166  C 1147.5 173  1142 178.5  1135 178.5  C 1128 178.5  1122.5 173  1122.5 166  C 1122.5 159  1128 153.5  1135 153.5  Z " stroke-width="1" stroke="#0066ff" fill="none" />
  </g>
</svg>