<?xml version="1.0" encoding="utf-8"?>
<svg version="1.1" xmlns:xlink="http://www.w3.org/1999/xlink" width="12px" height="12px" xmlns="http://www.w3.org/2000/svg">
  <g transform="matrix(1 0 0 1 -2929 -2524 )">
    <path d="M 11.996570072164948 11.473233140625  C 11.996570072164948 11.762780828125  11.76425319587629 11.997517671875  11.477690536082473 12  L 0.6395011855670103 12  C 0.35293852577319607 11.9975176875  0.12062164948453613 11.76278084375  0.12062164948453613 11.47323315625  C 0.12062164948453613 11.18368546875  0.35293852577319607 10.948948625  0.6395011855670103 11  L 11.477690536082475 11  C 11.764269015463917 10.948948609375  11.996570072164948 11.18368546875  11.996570072164948 11.473233140625  Z M 6.057448592783505 9.994779546875  C 5.7708859329896915 9.994779546875  5.538569056701031 9.760042703125  5.538569056701031 9.470495015625  L 5.538569056701031 0.5308440937499999  C 5.538569056701031 0.24128042187499998  5.7708859329896915 0.0065595624999996716  6.057448592783505 0.0065595624999996716  C 6.34401125257732 0.0065595624999996716  6.57632812886598 0.2412964062499996  6.57632812886598 0.5308440937499999  L 6.57632812886598 9.470495015625  C 6.57632812886598 9.7600426875  6.34401125257732 9.994779546875  6.057448592783505 9.994779546875  Z M 6.424351345360824 9.83781396875  C 6.221720891752577 10.04255515625  5.89317630927835 10.04255515625  5.690545855670102 9.83781396875  L 1.7962749896907217 5.90297778125  C 1.5936445360824747 5.69823659375  1.5936445360824747 5.366269671875  1.7962749896907217 5.161528484374999  C 1.9989054432989688 4.9567872968749995  2.327450025773196 4.9567872968749995  2.5300804793814438 5.161528484374999  L 6.424351345360826 9.096364671875  C 6.626981798969071 9.30110584375  6.626981798969071 9.63305678125  6.424351345360824 9.83781396875  Z M 5.690545855670103 9.83779796875  C 5.487915402061856 9.63305678125  5.487915402061856 9.301089859374999  5.690545855670103 9.096348671874999  L 9.584816721649485 5.161512484374999  C 9.787447175257732 4.956771296874999  10.115991757731962 4.956771296874999  10.318622211340207 5.161512484374999  C 10.521252664948454 5.366253671874999  10.521252664948454 5.698220593749999  10.318622211340207 5.902961781249999  L 6.424351345360824 9.83781396875  C 6.221705072164947 10.042555140625  5.89317630927835 10.042555140625  5.690545855670103 9.83779796875  Z " fill-rule="nonzero" fill="#999999" stroke="none" transform="matrix(1 0 0 1 2929 2524 )" />
  </g>
</svg>