<?xml version="1.0" encoding="utf-8"?>
<svg version="1.1" xmlns:xlink="http://www.w3.org/1999/xlink" width="12px" height="14px" xmlns="http://www.w3.org/2000/svg">
  <g transform="matrix(1 0 0 1 -2621 -2523 )">
    <path d="M 9.03125 0.5312500000000004  L 11.46875 2.9687499999999996  C 11.614583333333334 3.114583333333332  11.739583333333334 3.312500000000001  11.84375 3.5625  C 11.947916666666666 3.8125000000000004  12 4.041666666666666  12 4.25  L 12 13.25  C 12 13.458333333333334  11.927083333333332 13.635416666666666  11.78125 13.78125  C 11.635416666666668 13.927083333333334  11.458333333333334 14  11.25 14  L 0.75 14  C 0.5416666666666667 14  0.36458333333333337 13.927083333333334  0.21875 13.78125  C 0.07291666666666666 13.635416666666666  0 13.458333333333334  0 13.25  L 0 0.7500000000000004  C 0 0.5416666666666663  0.07291666666666666 0.3645833333333328  0.21875 0.21875  C 0.36458333333333337 0.07291666666666718  0.5416666666666667 0  0.75 0  L 7.75 0  C 7.958333333333334 0  8.1875 0.052083333333333925  8.4375 0.15625000000000022  C 8.6875 0.2604166666666665  8.885416666666668 0.3854166666666661  9.03125 0.5312500000000004  Z M 8.3203125 1.2343750000000007  C 8.2578125 1.1718749999999993  8.151041666666668 1.1145833333333317  8 1.0624999999999993  L 8 4  L 10.9375 4  C 10.885416666666668 3.8489583333333317  10.828125 3.742187499999999  10.765625 3.6796874999999996  L 8.3203125 1.2343750000000007  Z M 1 13  L 11 13  L 11 4.999999999999999  L 7.75 4.999999999999999  C 7.541666666666666 4.999999999999999  7.364583333333334 4.927083333333332  7.21875 4.781249999999999  C 7.072916666666666 4.635416666666666  7 4.458333333333331  7 4.25  L 7 0.9999999999999996  L 1 0.9999999999999996  L 1 13  Z M 3.8828125 11.171875  L 3.3515625 11.171875  L 3.3515625 12  L 5.546875 12  L 5.546875 11.171875  L 4.9609375 11.171875  L 5.765625 9.9140625  C 5.791666666666667 9.877604166666664  5.817708333333334 9.834635416666666  5.84375 9.78515625  C 5.869791666666667 9.735677083333332  5.889322916666667 9.700520833333332  5.90234375 9.6796875  C 5.915364583333334 9.658854166666664  5.924479166666667 9.6484375  5.9296875 9.6484375  L 5.9453125 9.6484375  C 5.950520833333334 9.669270833333332  5.963541666666667 9.6953125  5.984375 9.7265625  C 5.994791666666666 9.747395833333332  6.006510416666666 9.766927083333332  6.01953125 9.78515625  C 6.032552083333334 9.803385416666666  6.048177083333334 9.82421875  6.06640625 9.84765625  C 6.084635416666668 9.87109375  6.101562500000001 9.893229166666666  6.1171875 9.9140625  L 6.953125 11.171875  L 6.359375 11.171875  L 6.359375 12  L 8.6328125 12  L 8.6328125 11.171875  L 8.1015625 11.171875  L 6.6015625 9.0390625  L 8.125 6.8359375  L 8.6484375 6.8359375  L 8.6484375 6  L 6.46875 6  L 6.46875 6.8359375  L 7.046875 6.8359375  L 6.2421875 8.078125  C 6.221354166666668 8.114583333333334  6.195312500000001 8.157552083333332  6.1640625 8.20703125  C 6.1328125 8.256510416666668  6.109375 8.291666666666664  6.09375 8.3125  L 6.078125 8.3359375  L 6.0625 8.3359375  C 6.057291666666667 8.315104166666666  6.044270833333334 8.2890625  6.0234375 8.2578125  C 5.9921875 8.200520833333334  5.947916666666667 8.140625  5.890625 8.078125  L 5.0625 6.8359375  L 5.65625 6.8359375  L 5.65625 6  L 3.390625 6  L 3.390625 6.8359375  L 3.921875 6.8359375  L 5.3984375 8.9609375  L 3.8828125 11.171875  Z " fill-rule="nonzero" fill="#999999" stroke="none" transform="matrix(1 0 0 1 2621 2523 )" />
  </g>
</svg>