<?xml version="1.0" encoding="utf-8"?>
<svg version="1.1" xmlns:xlink="http://www.w3.org/1999/xlink" width="10px" height="100px" preserveAspectRatio="xMidYMin meet" viewBox="375 556  8 100" xmlns="http://www.w3.org/2000/svg">
  <path d="M 185 651  L 374 651  A 5 5 0 0 0 379 646 L 379 566  A 5 5 0 0 1 384 561 L 573 561  " stroke-width="2" stroke="#0066ff" fill="none" />
  <path d="M 186.5 647.5  A 3.5 3.5 0 0 0 183 651 A 3.5 3.5 0 0 0 186.5 654.5 A 3.5 3.5 0 0 0 190 651 A 3.5 3.5 0 0 0 186.5 647.5 Z M 565.6 569  L 575 561  L 565.6 553  L 569.2 561  L 565.6 569  Z " fill-rule="nonzero" fill="#0066ff" stroke="none" />
</svg>