<?xml version="1.0" encoding="utf-8"?>
<svg version="1.1" xmlns:xlink="http://www.w3.org/1999/xlink" width="14px" height="14px" xmlns="http://www.w3.org/2000/svg">
  <g transform="matrix(1 0 0 1 -613 -299 )">
    <path d="M 13.998801359375 6.117476189453125  L 13.943681076171876 6.117476189453125  L 13.944555994140625 6.1244755878906245  L 12.133461074218749 6.1244755878906245  L 12.132586142578125 6.117476189453125  L 7.830579503906249 6.117476189453125  L 10.675835884765625 3.295842798828125  C 9.69085315420563 2.3075526476604953  8.35294323494204 1.7520581425205544  6.957626639184518 1.7520581425205544  C 4.058379949174496 1.7520581425205544  1.7080761294188929 4.102361962276157  1.7080761294188929 7.00160865228618  C 1.7080761294188929 9.900855342296204  4.058379949174496 12.251159162051804  6.957626639184518 12.251159162051804  C 9.183156328430968 12.251159162051804  11.166823239229272 10.847831076232776  11.90773040625 8.749250849609375  L 13.778320226562498 8.749250849609375  C 12.980822638674338 11.840202224302432  10.19304577692427 13.999999050051704  7.000870530575107 13.999999050051704  C 3.1352082772284113 13.999999050051704  0.001469850887607879 10.8662606237109  0.001469850887607879 7.000598370364204  C 0.001469850887607879 3.134936117017508  3.1352082772284113 0.001197690676704775  7.000870530575107 0.001197690676704775  C 8.85271493767074 0.001197690676704775  10.62909187281452 0.7350618829898251  11.940977548828123 2.042075150390625  L 13.998801359375 0  L 13.998801359375 6.117476189453125  Z " fill-rule="nonzero" fill="#e7772d" stroke="none" transform="matrix(1 0 0 1 613 299 )" />
  </g>
</svg>