<?xml version="1.0" encoding="utf-8"?>
<svg version="1.1" xmlns:xlink="http://www.w3.org/1999/xlink" width="12px" height="12px" xmlns="http://www.w3.org/2000/svg">
  <g transform="matrix(1 0 0 1 -539 -391 )">
    <path d="M 11.565726215277778 6.169592391493055  C 11.565726215277778 2.9971464279513884  8.994192960069444 0.42694558159722146  5.823079405381944 0.4269455815972222  C 2.651965850694444 0.4269455815972222  0.08043259548611045 2.9971464409722217  0.08043258246527725 6.1695923914930555  C 0.08043256944444385 9.34203834201389  2.650633441840277 11.91223920138889  5.823079405381944 11.912239214409722  C 8.995525368923612 11.912239227430554  11.565726215277778 9.34203835503472  11.565726215277778 6.169592391493055  Z M 9.293983103298611 4.076390972222223  C 9.49784040798611 4.27625107638889  9.49784040798611 4.604021636284723  9.29664790798611 4.805214123263888  L 5.443345212673611 8.65851681857639  C 5.342082764756944 8.759779266493057  5.210175095486111 8.810410490451389  5.078267439236111 8.810410490451389  C 4.9463597699652775 8.810410490451389  4.814452113715278 8.759779266493057  4.7131896527777775 8.65851681857639  L 2.8225131293402783 6.769172690972223  C 2.6199882335069447 6.5679801909722215  2.6199882335069447 6.240209631076389  2.8225131293402783 6.039017131076389  C 3.025038025173612 5.836492235243056  3.351476189236112 5.836492235243056  3.5526686892361106 6.039017131076389  L 5.076935030381945 7.563283485243056  L 8.563827543402777 4.076390972222223  C 8.76635243923611 3.8738660763888886  9.092790603298612 3.8738660763888886  9.293983103298611 4.076390972222223  Z " fill-rule="nonzero" fill="#0fc060" stroke="none" transform="matrix(1 0 0 1 539 391 )" />
  </g>
</svg>