<?xml version="1.0" encoding="utf-8"?>
<svg version="1.1" xmlns:xlink="http://www.w3.org/1999/xlink" width="13px" height="13px" xmlns="http://www.w3.org/2000/svg">
  <g transform="matrix(1 0 0 1 -649 -430 )">
    <path d="M 2.9375 5.2453125  L 2.9375 5.2546875  L 2.9375 5.2453125  Z M 12 0.9937499999999999  C 11.978125 0.4640624999999998  11.543750000000001 0.03125  11.0140625 0  L 0.9906250000000001 0  C 0.4609375 0.03125  0.026562499999999822 0.4656250000000002  0 0.9953124999999998  L 0 11.0203125  C 0.026562499999999822 11.549999999999999  0.4609375 11.984375  0.9906249999999996 12  L 11.015625 12  C 11.5453125 11.984375  11.9796875 11.55  12 11.0203125  L 12 0.9937499999999999  Z M 6.873437500000001 1.9046874999999996  L 6.8734375 1.9031250000000002  L 6.675000000000001 7.65625  L 5.3500000000000005 7.65625  L 5.1625000000000005 1.9046874999999996  L 6.873437500000001 1.9046874999999996  Z M 7.0015625 9.428125000000001  C 7.0015625 9.670312500000001  6.9046875 9.879687500000001  6.7125 10.053125000000001  C 6.520312500000001 10.228125000000002  6.2890625 10.314062500000002  6.018750000000001 10.314062500000002  C 5.7484375000000005 10.314062500000002  5.518750000000001 10.226562500000002  5.3296875 10.053125000000001  C 5.140625 9.878125  5.046875 9.670312500000001  5.046875 9.428125000000001  C 5.046875 9.179687500000002  5.140625 8.967187500000001  5.3296875 8.7921875  C 5.518750000000001 8.6171875  5.7484375000000005 8.53125  6.018750000000001 8.53125  C 6.2890625 8.53125  6.520312500000001 8.61875  6.7125 8.7921875  C 6.9046875 8.967187500000001  7.0015625 9.178125000000001  7.0015625 9.428125000000001  Z " fill-rule="nonzero" fill="#e7772d" stroke="none" transform="matrix(1 0 0 1 649 430 )" />
  </g>
</svg>