<?xml version="1.0" encoding="utf-8"?>
<svg version="1.1" xmlns:xlink="http://www.w3.org/1999/xlink" width="14px" height="14px" xmlns="http://www.w3.org/2000/svg">
  <g transform="matrix(1 0 0 1 -1844 -565 )">
    <path d="M 13.960227272727273 7  C 13.960227272727273 3.161939834872159  10.838060165127843 0.03977272727272727  7 0.03977272727272727  C 3.1624208984375 0.03977272727272727  0.03977272727272727 3.161939834872159  0.03977272727272727 7  C 0.03977272727272727 10.838060165127843  3.161939834872159 13.960227272727273  7 13.960227272727273  C 10.8375791015625 13.960227272727273  13.960227272727273 10.838060165127843  13.960227272727273 7  Z M 7.7044813143643465 7.001977683327414  L 9.839278846324573 9.143750528231534  C 10.033171559836648 9.338632075639202  10.03266377397017 9.652842509321731  9.838290012428978 9.846735222833805  C 9.74135702459162 9.943187162642046  9.614571761807529 9.991907541725851  9.487305450994318 9.991907541725851  C 9.359531354314631 9.991907541725851  9.232265043501421 9.94318714710582  9.135305317826706 9.845746373401985  L 6.997514546342331 7.701488059303976  L 4.852775168678979 9.823377228338066  C 4.755842180841621 9.918840318714487  4.629537981622871 9.967052927468039  4.503260504705257 9.967052927468039  C 4.375005344460228 9.967052927468039  4.247231263316762 9.917824762517755  4.149790474076705 9.8193951393821  C 3.956886594460228 9.624005806107954  3.958383214222302 9.309795372425425  4.153772563032672 9.116410444779829  L 6.296026471502132 6.997514530806106  L 4.161710003107245 4.856249456232243  C 3.967817289595171 4.661848956853693  3.968325075461649 4.347157475142045  4.162698837002842 4.153264761629971  C 4.357099336381393 3.95886426225142  4.6712830322265635 3.959879833984374  4.865683531605115 4.154253595525567  L 7.002966517223012 6.298004123757102  L 9.147705894886364 4.176141677024147  C 9.342587442294034 3.98275674937855  9.65778670987216 3.9847344171697436  9.850690589488638 4.180123765980113  C 10.044075517134234 4.37551309925426  10.042097849343042 4.690204580965909  9.846708500532673 4.883108460582386  L 7.7044813143643465 7.001977683327414  Z " fill-rule="nonzero" fill="#999999" stroke="none" transform="matrix(1 0 0 1 1844 565 )" />
  </g>
</svg>