<?xml version="1.0" encoding="utf-8"?>
<svg version="1.1" xmlns:xlink="http://www.w3.org/1999/xlink" width="30px" height="30px" xmlns="http://www.w3.org/2000/svg">
  <g transform="matrix(1 0 0 1 -1733 -1321 )">
    <path d="M 21.104567307692307 18.104567307692307  C 21.310096153846153 17.747596153846157  21.187499999999996 17.289663461538463  20.830528846153847 17.084134615384613  L 15.746394230769234 14.149038461538462  L 15.746394230769234 5.275240384615385  C 15.746394230769234 4.860576923076923  15.411057692307695 4.525240384615384  14.996394230769232 4.525240384615384  C 14.581730769230768 4.525240384615384  14.246394230769232 4.860576923076923  14.246394230769232 5.275240384615385  L 14.246394230769232 15  L 14.25360576923077 15  L 14.246394230769232 15.010817307692307  L 20.084134615384617 18.37860576923077  C 20.441105769230766 18.584134615384617  20.899038461538463 18.461538461538463  21.104567307692307 18.104567307692307  Z M 23.675480769230766 25.496394230769234  C 27.039663461538456 22.896634615384617  29.217548076923077 18.83293269230769  29.217548076923077 14.25360576923077  C 29.217548076923077 6.400240384615384  22.849759615384617 0.03605769230769231  15 0.03605769230769231  C 7.150240384615383 0.03605769230769231  0.7860576923076922 6.400240384615384  0.7860576923076922 14.25360576923077  C 0.7860576923076922 18.83293269230769  2.963942307692307 22.896634615384617  6.328125 25.496394230769234  L 2.0408653846153846 28.611778846153847  C 1.7091346153846156 28.853365384615387  1.633413461538461 29.325721153846153  1.875 29.657451923076923  C 2.116586538461538 29.989182692307693  2.588942307692308 30.064903846153847  2.920673076923077 29.823317307692307  L 7.633413461538462 26.39423076923077  C 9.782451923076923 27.699519230769234  12.299278846153847 28.467548076923077  15 28.467548076923077  C 17.700721153846153 28.467548076923077  20.213942307692307 27.699519230769234  22.366586538461537 26.39423076923077  L 27.08293269230769 29.823317307692307  C 27.41466346153846 30.064903846153847  27.887019230769226 29.989182692307693  28.128605769230766 29.657451923076923  C 28.370192307692307 29.325721153846153  28.294471153846153 28.853365384615387  27.96274038461538 28.611778846153847  L 23.675480769230766 25.496394230769234  Z M 27.768028846153847 14.25360576923077  C 27.768028846153847 21.295673076923077  22.03846153846154 27.018028846153843  15 27.018028846153843  C 7.961538461538462 27.018028846153843  2.231971153846153 21.292067307692307  2.231971153846153 14.249999999999998  C 2.231971153846153 7.207932692307687  7.96153846153846 1.4855769230769207  15 1.4855769230769207  C 22.03846153846154 1.4855769230769207  27.768028846153847 7.211538461538462  27.768028846153847 14.25360576923077  Z M 0.03605769230769282 4.561298076923076  C 0.03605769230769282 5.271634615384614  0.9519230769230771 5.567307692307692  1.3521634615384615 4.9795673076923075  C 2.2932692307692304 3.598557692307693  3.436298076923077 2.368990384615384  4.737980769230769 1.3305288461538454  C 5.278846153846154 0.9014423076923067  4.986778846153847 0.03245192307692226  4.294471153846153 0.03245192307692226  L 4.290865384615384 0.03245192307692226  C 4.125 0.03245192307692226  3.9627403846153846 0.08653846153846072  3.832932692307693 0.1911057692307686  C 2.423076923076924 1.3124999999999991  1.1826923076923082 2.6430288461538454  0.1622596153846159 4.1358173076923075  C 0.0793269230769237 4.258413461538462  0.03605769230769282 4.406249999999999  0.03605769230769282 4.554086538461538  L 0.03605769230769282 4.561298076923076  Z M 29.960336538461537 4.561298076923077  C 29.963942307692307 4.406249999999999  29.920673076923077 4.262019230769231  29.837740384615383 4.1394230769230775  C 28.817307692307693 2.6466346153846154  27.580528846153847 1.3197115384615392  26.16706730769231 0.19471153846153866  C 26.037259615384617 0.09014423076923077  25.875 0.03605769230769231  25.709134615384617 0.03605769230769231  L 25.701923076923077 0.03605769230769231  C 25.009615384615383 0.03605769230769231  24.717548076923077 0.9014423076923077  25.258413461538463 1.3341346153846154  C 26.563701923076923 2.372596153846154  27.706730769230766 3.6021634615384617  28.644230769230766 4.983173076923077  C 29.044471153846153 5.567307692307692  29.960336538461537 5.275240384615384  29.960336538461537 4.568509615384615  L 29.960336538461537 4.561298076923077  Z " fill-rule="nonzero" fill="#e7772d" stroke="none" transform="matrix(1 0 0 1 1733 1321 )" />
  </g>
</svg>