<?xml version="1.0" encoding="utf-8"?>
<svg version="1.1" xmlns:xlink="http://www.w3.org/1999/xlink" width="12px" height="12px" xmlns="http://www.w3.org/2000/svg">
  <g transform="matrix(1 0 0 1 -1357 -1946 )">
    <path d="M 11.963761590021306 5.998854665305398  C 11.963761590021306 2.709451305042616  9.288258025568181 0.033947740589488636  5.998854665305397 0.033947740589488636  C 2.709451305042614 0.033947740589488636  0.033947740589488996 2.709451305042614  0.033947740589488996 5.998854665305397  C 0.033947740589488996 9.288258025568181  2.709451305042614 11.963761590021306  5.998854665305397 11.963761590021306  C 9.288258025568181 11.963761590021306  11.963761590021306 9.288258025568181  11.963761590021306 5.998854665305398  Z M 11.109341361860796 5.998854665305397  C 11.109341361860796 8.818670494495738  8.816379825106536 11.109341361860794  5.998854665305397 11.109341361860794  C 3.1813295055042614 11.109341361860794  0.88836796875 8.816379825106532  0.88836796875 5.998854665305397  C 0.88836796875 3.1813295055042605  3.1790388361150566 0.8883679687499992  5.998854665305397 0.8883679687499992  C 8.818670494495738 0.8883679687499992  11.109341361860796 3.179038836115056  11.109341361860796 5.998854665305397  Z M 8.559824680397726 6.427210107421876  C 8.557534011008523 6.188980344460227  8.365117662464487 5.998854665305397  8.13146923828125 5.998854665305397  L 6.001145334694603 5.998854665305397  L 6.001145334694603 3.018691872336648  C 6.001145334694603 2.7827527787642046  5.811019655539773 2.5903364169034084  5.575080548650568 2.5903364169034084  C 5.339141455078126 2.5903364169034084  5.149015762606534 2.7827527654474427  5.149015762606534 3.018691872336648  L 5.149015762606534 6.427210107421876  C 5.149015762606534 6.663149200994319  5.339141441761364 6.85327489346591  5.575080548650568 6.85327489346591  L 8.131469224964489 6.85327489346591  C 8.367408318536931 6.85327489346591  8.559824680397726 6.6631492143110815  8.559824680397726 6.427210107421876  Z " fill-rule="nonzero" fill="#999999" stroke="none" transform="matrix(1 0 0 1 1357 1946 )" />
  </g>
</svg>