<?xml version="1.0" encoding="utf-8"?>
<svg version="1.1" xmlns:xlink="http://www.w3.org/1999/xlink" width="16px" height="16px" xmlns="http://www.w3.org/2000/svg">
  <g transform="matrix(1 0 0 1 -2350 -662 )">
    <path d="M 2358 663  C 2361.92 663  2365 666.08  2365 670  C 2365 673.92  2361.92 677  2358 677  C 2354.08 677  2351 673.92  2351 670  C 2351 666.08  2354.08 663  2358 663  Z " fill-rule="nonzero" fill="#ffffff" stroke="none" fill-opacity="0" />
    <path d="M 2358 663  C 2361.92 663  2365 666.08  2365 670  C 2365 673.92  2361.92 677  2358 677  C 2354.08 677  2351 673.92  2351 670  C 2351 666.08  2354.08 663  2358 663  Z " stroke-width="2" stroke="#0066ff" fill="none" />
  </g>
</svg>