<?xml version="1.0" encoding="utf-8"?>
<svg version="1.1" xmlns:xlink="http://www.w3.org/1999/xlink" width="20px" height="10px" xmlns="http://www.w3.org/2000/svg">
  <g transform="matrix(1 0 0 1 -1110 -927 )">
    <path d="M 0.10169491525423693 9.096774193548386  C 0.7796610169491522 3.96774193548387  5.389830508474576 0.09677419354838618  10.847457627118644 0.09677419354838618  C 11.220338983050848 0.09677419354838618  11.52542372881356 0.38709677419354704  11.52542372881356 0.7419354838709669  C 11.52542372881356 1.0967741935483868  11.220338983050848 1.3870967741935476  10.847457627118644 1.3870967741935476  C 6.067796610169491 1.3870967741935476  2.0338983050847457 4.774193548387096  1.4237288135593218 9.25806451612903  C 1.3898305084745763 9.61290322580645  1.0508474576271185 9.870967741935482  0.677966101694915 9.806451612903226  C 0.30508474576271155 9.774193548387096  0.03389830508474549 9.451612903225806  0.10169491525423693 9.096774193548386  Z M 13.220338983050848 4.419354838709678  L 19.423728813559322 4.419354838709676  C 19.694915254237287 4.419354838709676  19.93220338983051 4.64516129032258  19.93220338983051 4.903225806451611  C 19.93220338983051 5.161290322580642  19.694915254237287 5.387096774193547  19.423728813559322 5.387096774193547  L 11.661016949152543 5.387096774193547  C 11.1864406779661 5.387096774193547  10.949152542372879 4.806451612903225  11.35593220338983 4.516129032258062  L 14.033898305084744 2.645161290322579  C 14.271186440677967 2.483870967741934  14.576271186440676 2.548387096774193  14.745762711864408 2.7419354838709653  C 14.915254237288135 2.9677419354838697  14.847457627118644 3.2580645161290307  14.64406779661017 3.4193548387096757  L 13.220338983050848 4.419354838709678  Z M 17.864406779661014 8.032258064516128  L 11.661016949152543 8.032258064516128  C 11.389830508474576 8.032258064516128  11.152542372881356 7.806451612903224  11.152542372881356 7.548387096774193  C 11.152542372881356 7.290322580645162  11.389830508474576 7.064516129032258  11.661016949152543 7.064516129032258  L 19.423728813559322 7.064516129032258  C 19.89830508474576 7.064516129032258  20.135593220338983 7.64516129032258  19.72881355932203 7.935483870967742  L 17.050847457627118 9.806451612903226  C 16.813559322033896 9.96774193548387  16.508474576271187 9.90322580645161  16.338983050847457 9.70967741935484  C 16.169491525423727 9.483870967741936  16.237288135593218 9.193548387096774  16.440677966101692 9.032258064516128  L 17.864406779661014 8.032258064516128  Z " fill-rule="nonzero" fill="#ffffff" stroke="none" transform="matrix(1 0 0 1 1110 927 )" />
  </g>
</svg>