<?xml version="1.0" encoding="utf-8"?>
<svg version="1.1" xmlns:xlink="http://www.w3.org/1999/xlink" width="60px" height="60px" xmlns="http://www.w3.org/2000/svg">
  <g transform="matrix(1 0 0 1 -598 -2088 )">
    <path d="M 599 2093  A 4 4 0 0 1 603 2089 L 653 2089  A 4 4 0 0 1 657 2093 L 657 2143  A 4 4 0 0 1 653 2147 L 603 2147  A 4 4 0 0 1 599 2143 L 599 2093  Z " fill-rule="nonzero" fill="#ffffff" stroke="none" />
    <path d="M 598.5 2093  A 4.5 4.5 0 0 1 603 2088.5 L 653 2088.5  A 4.5 4.5 0 0 1 657.5 2093 L 657.5 2143  A 4.5 4.5 0 0 1 653 2147.5 L 603 2147.5  A 4.5 4.5 0 0 1 598.5 2143 L 598.5 2093  Z " stroke-width="1" stroke-dasharray="9,4" stroke="#999999" fill="none" stroke-dashoffset="0.5" />
  </g>
</svg>