<?xml version="1.0" encoding="utf-8"?>
<svg version="1.1" xmlns:xlink="http://www.w3.org/1999/xlink" width="17px" height="20px" xmlns="http://www.w3.org/2000/svg">
  <g transform="matrix(1 0 0 1 -994 -916 )">
    <path d="M 5.67109375 14.995535714285712  L 4.254427083333333 14.995535714285712  C 3.8648437499999995 14.995535714285712  3.54609375 15.316964285714285  3.54609375 15.709821428571427  C 3.54609375 16.10267857142857  3.8648437499999995 16.424107142857142  4.254427083333333 16.424107142857142  L 5.67109375 16.424107142857142  C 6.060677083333333 16.424107142857142  6.379427083333333 16.10267857142857  6.379427083333333 15.709821428571427  C 6.379427083333333 15.316964285714285  6.060677083333333 14.995535714285712  5.67109375 14.995535714285712  Z M 6.377213541666667 12.854910714285715  C 6.766796875000002 12.854910714285715  7.085546875 12.533482142857142  7.085546875 12.140625  C 7.085546875 11.747767857142858  6.766796875000002 11.426339285714285  6.377213541666667 11.426339285714285  L 4.254427083333334 11.426339285714285  C 3.864843750000001 11.426339285714285  3.5460937500000007 11.747767857142858  3.5460937500000007 12.140625  C 3.5460937500000007 12.533482142857142  3.864843750000001 12.854910714285715  4.254427083333334 12.854910714285715  L 6.377213541666667 12.854910714285715  Z M 3.5460937500000007 3.578125  C 3.5460937500000007 4.754464285714286  4.5023437500000005 5.71875  5.668880208333334 5.71875  L 11.32890625 5.71875  C 12.495442708333332 5.71875  13.451692708333331 4.754464285714286  13.451692708333331 3.578125  C 13.451692708333331 2.4017857142857135  12.49544270833333 1.4374999999999996  11.32890625 1.4374999999999996  L 11.198307291666666 1.4374999999999996  C 10.90390625 0.6093749999999997  10.124739583333334 0.011160714285713653  9.206119791666666 0.011160714285713653  L 7.791666666666666 0.011160714285713653  C 6.873046875 0.011160714285713653  6.093880208333333 0.6116071428571423  5.799479166666666 1.4374999999999996  L 5.668880208333334 1.4374999999999996  C 4.5023437500000005 1.4374999999999996  3.5460937500000007 2.4017857142857135  3.5460937500000007 3.578125  Z M 4.960546875 3.578124999999999  C 4.960546875 3.189732142857142  5.2859375 2.8638392857142847  5.668880208333334 2.863839285714285  L 5.799479166666666 2.863839285714285  C 6.397135416666666 2.863839285714285  6.930598958333334 2.4843749999999996  7.13203125 1.917410714285714  C 7.216145833333334 1.6785714285714284  7.452994791666667 1.4374999999999996  7.791666666666666 1.4374999999999996  L 9.208333333333332 1.4374999999999996  C 9.544791666666669 1.4374999999999996  9.781640625 1.6785714285714284  9.86796875 1.917410714285714  C 10.069401041666666 2.4843749999999996  10.602864583333332 2.863839285714285  11.200520833333332 2.863839285714285  L 11.331119791666666 2.863839285714285  C 11.714062499999999 2.863839285714285  12.039453125 3.1897321428571423  12.039453125 3.578125  C 12.039453125 3.9665178571428568  11.716276041666665 4.2924107142857135  11.331119791666666 4.2924107142857135  L 5.668880208333334 4.2924107142857135  C 5.2859375 4.2924107142857135  4.960546875 3.966517857142856  4.960546875 3.578124999999999  Z M 9.916666666666668 9.287946428571429  C 10.304036458333332 9.287946428571429  10.622786458333334 8.966517857142858  10.622786458333334 8.573660714285715  C 10.622786458333334 8.180803571428571  10.304036458333332 7.859375000000001  9.914453125 7.859375000000001  L 4.254427083333333 7.859375000000001  C 3.8648437499999995 7.859375000000001  3.54609375 8.180803571428571  3.54609375 8.573660714285715  C 3.54609375 8.966517857142858  3.8648437499999995 9.287946428571429  4.254427083333333 9.287946428571429  L 9.916666666666668 9.287946428571429  Z M 8.041796875000001 19.986607142857142  C 7.54375 19.582589285714285  7.1032552083333345 19.10267857142857  6.744661458333333 18.5625  L 2.131640625 18.5625  C 1.742057291666667 18.5625  1.423307291666667 18.24107142857143  1.423307291666667 17.848214285714285  L 1.423307291666667 5.004464285714285  C 1.423307291666667 4.611607142857142  1.742057291666667 4.290178571428571  2.131640625 4.290178571428571  C 2.5234375 4.290178571428571  2.8399739583333337 3.9709821428571423  2.8399739583333337 3.5758928571428568  C 2.8399739583333337 3.1808035714285716  2.5234375 2.861607142857143  2.131640625 2.861607142857143  C 0.9651041666666671 2.861607142857143  0.008854166666666791 3.8258928571428568  0 5.002232142857144  L 0 17.845982142857142  C 0.008854166666666791 19.02232142857143  0.9651041666666671 19.986607142857142  2.131640625 19.986607142857142  L 8.041796875000001 19.986607142857142  Z M 16.993359375 5.004464285714285  C 16.991145833333334 3.828125  16.037109375 2.863839285714285  14.868359375 2.8638392857142856  C 14.4765625 2.8638392857142856  14.160026041666669 3.1830357142857144  14.160026041666669 3.5781250000000004  C 14.160026041666669 3.970982142857143  14.4765625 4.292410714285714  14.868359375 4.292410714285714  C 15.257942708333335 4.292410714285714  15.576692708333335 4.613839285714286  15.576692708333335 5.006696428571429  L 15.576692708333335 9.660714285714286  C 16.11236979166667 10.022321428571427  16.58828125 10.464285714285712  16.993359375 10.96875  L 16.993359375 5.004464285714285  Z M 16.99114583333333 14.995535714285712  C 16.99114583333333 12.23660714285714  14.77317708333333 9.999999999999998  12.037239583333331 10  C 9.301302083333335 10  7.083333333333334 12.236607142857142  7.083333333333334 14.995535714285712  C 7.083333333333334 17.754464285714285  9.301302083333335 19.991071428571427  12.037239583333331 19.991071428571427  C 14.77317708333333 19.991071428571427  16.99114583333333 17.75446428571428  16.99114583333333 14.995535714285712  Z M 12.037239583333335 18.5625  C 10.087109375 18.5625  8.5 16.96205357142857  8.5 14.995535714285712  C 8.5 13.272321428571427  9.717447916666668 11.830357142857142  11.331119791666666 11.5  L 11.331119791666666 14.995535714285712  C 11.331119791666666 15.002232142857142  11.333333333333332 15.006696428571427  11.333333333333332 15.011160714285714  C 11.32890625 15.200892857142858  11.3953125 15.390625  11.536979166666669 15.533482142857142  L 13.963020833333335 17.979910714285715  C 13.407421875 18.345982142857142  12.747786458333335 18.5625  12.037239583333335 18.5625  Z M 15.576692708333331 14.995535714285715  C 15.576692708333331 15.729910714285715  15.353124999999997 16.41294642857143  14.974609375 16.982142857142858  L 12.745572916666665 14.734375  L 12.745572916666665 11.500000000000002  C 14.359244791666665 11.832589285714285  15.576692708333331 13.27232142857143  15.576692708333331 14.995535714285715  Z " fill-rule="nonzero" fill="#ffffff" stroke="none" transform="matrix(1 0 0 1 994 916 )" />
  </g>
</svg>