<?xml version="1.0" encoding="utf-8"?>
<svg version="1.1" xmlns:xlink="http://www.w3.org/1999/xlink" width="8px" height="8px" xmlns="http://www.w3.org/2000/svg">
  <g transform="matrix(1 0 0 1 -1066 -1946 )">
    <path d="M 1070 1946  C 1072.24 1946  1074 1947.76  1074 1950  C 1074 1952.24  1072.24 1954  1070 1954  C 1067.76 1954  1066 1952.24  1066 1950  C 1066 1947.76  1067.76 1946  1070 1946  Z " fill-rule="nonzero" fill="#e7772d" stroke="none" />
    <path d="M 1070 1946.5  C 1071.96 1946.5  1073.5 1948.04  1073.5 1950  C 1073.5 1951.96  1071.96 1953.5  1070 1953.5  C 1068.04 1953.5  1066.5 1951.96  1066.5 1950  C 1066.5 1948.04  1068.04 1946.5  1070 1946.5  Z " stroke-width="1" stroke="#e7772d" fill="none" />
  </g>
</svg>