<?xml version="1.0" encoding="utf-8"?>
<svg version="1.1" xmlns:xlink="http://www.w3.org/1999/xlink" width="11px" height="11px" xmlns="http://www.w3.org/2000/svg">
  <g transform="matrix(1 0 0 1 -3179 -2136 )">
    <path d="M 10.916301214278374 5.520302253803452  C 10.917225141344574 5.270620981959291  10.71505359657689 5.067549807257401  10.465834295333059 5.066650191457648  L 5.980348914216694 5.068060414525082  L 5.980348914216694 0.564485359272204  C 5.980348914216694 0.3148041015624997  5.777715384714227 0.112170572060033  5.528034127004523 0.112170572060033  C 5.278352869294819 0.112170572060033  5.075743651058799 0.3148041015625  5.075743651058799 0.564485359272204  L 5.075743651058799 5.064899582391036  L 0.519236848530016 5.062395239257811  C 0.5187748779296871 5.062395239257811  0.5183372327302627 5.062395239257811  0.5178752621299338 5.062395239257811  C 0.2686559608861018 5.062395239257811  0.06648440198396334 5.26366716822574  0.06556047491776286 5.513348440069901  C 0.06419888851768049 5.763029697779605  0.26639475868626583 5.966100886615954  0.5160517051295224 5.967000502415706  L 5.075719339792351 5.969504845548932  L 5.075719339792351 10.480763151469983  C 5.075719339792351 10.73088206851357  5.278352869294818 10.933077938682155  5.5280098157380735 10.933077938682155  C 5.77766676218133 10.933077938682155  5.980324602950246 10.730906379780016  5.980324602950246 10.480763151469983  L 5.980324602950247 5.9726656776829765  L 10.462187181332236 5.971255454615542  C 10.463086797131991 5.971255454615542  10.46354876773232 5.971255454615542  10.4639864270662 5.971255454615542  C 10.713205728310033 5.971255454615542  10.91537728721217 5.769983525647614  10.916301214278374 5.520302253803452  Z " fill-rule="nonzero" fill="#999999" stroke="none" transform="matrix(1 0 0 1 3179 2136 )" />
  </g>
</svg>