<?xml version="1.0" encoding="utf-8"?>
<svg version="1.1" xmlns:xlink="http://www.w3.org/1999/xlink" width="26px" height="22px" xmlns="http://www.w3.org/2000/svg">
  <g transform="matrix(1 0 0 1 -1402 -871 )">
    <path d="M 17.556190476190476 21.893548387096775  L 8.592380952380953 21.893548387096775  C 7.842063332396841 21.893595211551663  7.231262191594747 21.37475480335979  7.222222222222222 20.72967741935484  L 7.222222222222222 11.376129032258063  L 0.9657142857142855 11.376129032258063  C 0.6181973980207169 11.376001904198032  0.30799699089722105 11.188736894153493  0.18984126984126978 10.907741935483871  C 0.05674363235870976 10.635058918467891  0.1434405868150784 10.319688197041621  0.40444444444444444 10.12709677419355  L 13 0.30516129032258066  C 13.318849385560338 0.043819616244899065  13.82019823348728 0.04381961624489772  14.139047619047616 0.30516129032258066  L 25.56253968253968 10.112903225806452  C 25.79797092053789 10.324819371339935  25.86883465752382 10.635002081124517  25.744126984126982 10.907741935483871  C 25.6152481059083 11.177566433321319  25.30747091601484 11.352107834791179  24.968253968253965 11.347741935483873  L 19.405079365079363 11.347741935483873  L 19.405079365079363 20.275483870967744  C 19.405275900164618 20.28494530024814  19.405374173583432 20.294408049788473  19.405374173583432 20.303870987950592  C 19.405374173583432 21.18182558381064  18.577598422159475 21.89354840730543  17.556485284694546 21.89354840730543  Z M 8.889523809523808 10.652258064516129  L 8.889523809523808 20.4741935483871  L 17.556190476190476 20.474193548387095  C 17.65647837362006 20.474193548387095  17.737777777777772 20.404292199651  17.737777777777776 20.318064516129034  L 17.737777777777776 10.652258064516129  C 17.73777776126647 10.260172098542935  18.10732050743788 9.942438695197046  18.563174586663298 9.942438695197046  C 18.568677650445046 9.942438695197046  18.574180576625828 9.942486014217986  18.57968253968254 9.94258064516129  L 23.020317460317457 9.94258064516129  L 13.594285714285713 1.838064516129032  L 3.095238095238095 9.94258064516129  L 8.047619047619047 9.94258064516129  C 8.053121010675744 9.942486014217986  8.05862393685655 9.942438695197046  8.06412700063829 9.942438695197046  C 8.519981079863706 9.942438695197046  8.889523826035115 10.260172098542935  8.889523826035115 10.652116114551884  Z " fill-rule="nonzero" fill="#000000" stroke="none" transform="matrix(1 0 0 1 1402 871 )" />
  </g>
</svg>