<?xml version="1.0" encoding="utf-8"?>
<svg version="1.1" xmlns:xlink="http://www.w3.org/1999/xlink" width="8px" height="8px" xmlns="http://www.w3.org/2000/svg">
  <g transform="matrix(1 0 0 1 -1066 -2064 )">
    <path d="M 1070 2064  C 1072.24 2064  1074 2065.76  1074 2068  C 1074 2070.24  1072.24 2072  1070 2072  C 1067.76 2072  1066 2070.24  1066 2068  C 1066 2065.76  1067.76 2064  1070 2064  Z " fill-rule="nonzero" fill="#e7772d" stroke="none" />
    <path d="M 1070 2064.5  C 1071.96 2064.5  1073.5 2066.04  1073.5 2068  C 1073.5 2069.96  1071.96 2071.5  1070 2071.5  C 1068.04 2071.5  1066.5 2069.96  1066.5 2068  C 1066.5 2066.04  1068.04 2064.5  1070 2064.5  Z " stroke-width="1" stroke="#e7772d" fill="none" />
  </g>
</svg>