<?xml version="1.0" encoding="utf-8"?>
<svg version="1.1" xmlns:xlink="http://www.w3.org/1999/xlink" width="20px" height="20px" xmlns="http://www.w3.org/2000/svg">
  <g transform="matrix(1 0 0 1 -1538 -1818 )">
    <path d="M 1548 1818  C 1553.6 1818  1558 1822.4  1558 1828  C 1558 1833.6  1553.6 1838  1548 1838  C 1542.4 1838  1538 1833.6  1538 1828  C 1538 1822.4  1542.4 1818  1548 1818  Z " fill-rule="nonzero" fill="#e7772d" stroke="none" />
    <path d="M 1548 1818.5  C 1553.32 1818.5  1557.5 1822.68  1557.5 1828  C 1557.5 1833.32  1553.32 1837.5  1548 1837.5  C 1542.68 1837.5  1538.5 1833.32  1538.5 1828  C 1538.5 1822.68  1542.68 1818.5  1548 1818.5  Z " stroke-width="1" stroke="#e7772d" fill="none" />
  </g>
</svg>