<?xml version="1.0" encoding="utf-8"?>
<svg version="1.1" xmlns:xlink="http://www.w3.org/1999/xlink" width="25px" height="18px" xmlns="http://www.w3.org/2000/svg">
  <g transform="matrix(1 0 0 1 -1727 -873 )">
    <path d="M 24.829718749999998 15.099531249999998  C 24.829718749999998 16.574875  23.62940625 17.775187499999998  22.1540625 17.7751875  L 8.13459375 17.7751875  C 7.326593750000001 17.7751875  6.566437500000001 17.419375000000002  6.04884375 16.799031250000002  L 0.6188750000000001 10.276625  C 0.3195000000000001 9.905906250000001  0.15903124999999996 9.45584375  0.15918749999999982 8.99984375  C 0.15937499999999982 8.56303125  0.29184374999999996 8.15265625  0.54240625 7.813124999999999  C 0.552 7.800156249999999  0.5617812500000001 7.7875  0.5721562499999999 7.775374999999999  L 6.03825 1.213124999999998  C 6.55335833276466 0.5858433710848159  7.32288761244021 0.2229777711519425  8.1345625 0.22462499999999963  L 22.1540625 0.22462499999999963  C 23.62940625 0.22462499999999963  24.829718749999998 1.4248124999999998  24.829718749999998 2.90015625  L 24.829718749999998 15.099531249999998  Z M 7.296312499999999 2.2539062500000018  L 1.8465624999999999 8.796625  C 1.8208125 8.8351875  1.7921874999999996 8.896625  1.7921874999999996 9.0003125  C 1.7921874999999996 9.083187500000001  1.8248125 9.171031249999999  1.88175 9.24159375  L 7.3031875 15.75378125  C 7.509988571174539 15.998874201890597  7.813883443877343 16.140929405504043  8.1345625 16  L 22.1540625 16  C 22.729769433780792 16.14178620968288  23.196317459682877 15.675238183780795  23 15.099531250000002  L 23 2.900156250000002  C 23.196231371221373 2.324510336566666  22.72970851277587 1.8580573754690022  22.1540625 2  L 8.1345625 2  C 7.810238844787415 1.859017868254723  7.503279955804226 2.0042008172753665  7.296312499999999 2.2539062500000018  Z " fill-rule="nonzero" fill="#2c2c2c" stroke="none" transform="matrix(1 0 0 1 1727 873 )" />
  </g>
</svg>