<?xml version="1.0" encoding="utf-8"?>
<svg version="1.1" xmlns:xlink="http://www.w3.org/1999/xlink" width="21px" height="20px" xmlns="http://www.w3.org/2000/svg">
  <g transform="matrix(1 0 0 1 -1050 -916 )">
    <path d="M 17.23125 5.019230769230768  L 14.587499999999999 2.307692307692308  C 14.4375 2.1538461538461537  14.4375 1.9230769230769231  14.587499999999999 1.7692307692307692  L 16.18125 0.13461538461538447  C 16.331249999999997 -0.019230769230769506  16.55625 -0.019230769230769506  16.706249999999997 0.13461538461538447  L 19.349999999999998 2.8461538461538454  C 19.5 2.999999999999999  19.5 3.2307692307692304  19.349999999999998 3.3846153846153837  L 17.756249999999998 5.019230769230768  C 17.60625 5.173076923076922  17.381249999999998 5.173076923076922  17.23125 5.019230769230768  Z M 3 16.923076923076923  L 7.5 15.576923076923077  L 16.21875 6.634615384615384  C 16.35 6.499999999999999  16.331249999999997 6.269230769230769  16.18125 6.134615384615384  L 13.537500000000001 3.4038461538461546  C 13.387500000000001 3.2500000000000013  13.1625 3.2307692307692317  13.050000000000002 3.365384615384616  L 4.3125 12.307692307692308  L 3 16.923076923076923  Z M 21 18.461538461538463  L 0 18.461538461538463  L 0 20  L 21 20  L 21 18.461538461538463  Z " fill-rule="nonzero" fill="#ffffff" stroke="none" transform="matrix(1 0 0 1 1050 916 )" />
  </g>
</svg>