<?xml version="1.0" encoding="utf-8"?>
<svg version="1.1" xmlns:xlink="http://www.w3.org/1999/xlink" width="20px" height="23px" xmlns="http://www.w3.org/2000/svg">
  <g transform="matrix(1 0 0 1 -1452 -925 )">
    <path d="M 10.471191406250002 21.118896484375  C 15.64453125 20.883056640625004  19.780273437500004 16.65959821428572  19.7802734375 11.504813058035715  C 19.7802734375 6.347621372767859  15.64453125 2.1265694754464297  10.471191406249998 1.8907296316964295  L 10.471191406249998 1.1976492745535714  C 10.471191406249998 0.949776785714286  10.26611328125 0.7476283482142857  10.014648437499998 0.7476283482142857  C 9.763183593749996 0.7476283482142857  9.558105468749998 0.949776785714286  9.558105468749998 1.1976492745535714  L 9.558105468749998 1.8883231026785716  C 4.384765625 2.124162946428571  0.2490234375 6.34521484375  0.2490234375 11.504813058035715  C 0.2490234375 16.66200474330357  4.384765625 20.883056640625004  9.55810546875 21.118896484375  L 9.55810546875 21.860107421875  C 9.55810546875 22.10797991071429  9.763183593749998 22.31012834821429  10.0146484375 22.31012834821429  C 10.26611328125 22.31012834821429  10.471191406250002 22.110386439732146  10.471191406250002 21.860107421875  L 10.471191406250002 21.118896484375  Z M 18.41064453125 11.504813058035715  C 18.4130859375 12.546840122767858  18.212890625 13.543143136160719  17.85400390625 14.46484375  C 17.456054687500004 14.281947544642858  16.782226562500004 14.125523158482142  15.6640625 13.98835100446429  C 15.79833984375 13.19660295758929  15.8740234375 12.363943917410719  15.8740234375 11.504813058035715  C 15.8740234375 10.657714843750002  15.80078125 9.822649274553573  15.66650390625 9.021275111607144  C 16.78466796875 8.884102957589286  17.45849609375 8.727678571428573  17.85400390625 8.54478236607143  C 18.212890625000004 9.46407645089286  18.41064453125 10.462785993303573  18.41064453125 11.504813058035715  Z M 14.57763671875 14.780099051339286  C 14.00634765625 17.13127790178571  12.83447265625 18.948207310267858  11.3916015625 19.667759486607142  C 11.0888671875 19.718296595982142  10.78125 19.751988002232142  10.468750000000002 19.768833705357142  L 10.468750000000002 14.604422433035714  C 12.080078125 14.616455078125  13.46923828125 14.683837890625  14.57763671875 14.780099051339286  Z M 8.63525390625 19.667759486607142  C 7.19482421875 18.948207310267858  6.02294921875 17.13127790178571  5.44921875 14.780099051339286  C 6.56005859375 14.683837890625  7.946777343750001 14.614048549107142  9.558105468750002 14.604422433035714  L 9.558105468750002 19.768833705357142  C 9.24560546875 19.751988002232142  8.937988281250002 19.718296595982142  8.63525390625 19.667759486607142  Z M 5.26611328125 13.89690290178571  C 5.13671875 13.136439732142856  5.065917968750001 12.33265904017857  5.065917968750001 11.504813058035714  C 5.065917968750001 10.686593191964285  5.13671875 9.885219029017856  5.268554687500001 9.11512974330357  C 6.516113281250001 9.228236607142854  7.993164062500001 9.293212890624998  9.558105468750002 9.302839006696427  L 9.558105468750002 13.706787109374998  C 7.993164062500001 13.718819754464281  6.513671875000001 13.783796037946429  5.26611328125 13.89690290178571  Z M 14.763183593749998 13.894496372767856  C 13.513183593749998 13.78138950892857  12.036132812499998 13.716413225446427  10.471191406250002 13.704380580357139  L 10.471191406250002 9.30043247767857  C 12.036132812500002 9.29080636160714  13.513183593750002 9.225830078124998  14.7607421875 9.112723214285712  C 14.892578125 9.882812499999998  14.96337890625 10.686593191964285  14.96337890625 11.502406529017856  C 14.96337890625 12.33265904017857  14.892578125 13.134033203124998  14.763183593749998 13.894496372767856  Z M 2.5439453124999982 7.7265625  C 3.3959960937499982 6.099748883928571  4.777832031249997 4.7833775111607135  6.46484375 4.003662109375  C 6.3671875 4.123988560267858  6.26953125 4.246721540178572  6.1767578125 4.376674107142858  C 6.0302734375 4.578822544642858  6.0791015625 4.860386439732142  6.284179687499999 5.004778180803572  C 6.489257812499999 5.149169921875  6.77490234375 5.101039341517858  6.918945312499999 4.898890904017858  C 7.438964843749999 4.176932198660714  8.034667968749998 3.647495814732143  8.664550781249998 3.3346470424107144  C 8.957519531249998 3.2889229910714275  9.255371093749998 3.2552315848214275  9.55810546875 3.2383858816964284  L 9.55810546875 4.906110491071428  C 9.55810546875 5.153982979910714  9.763183593749998 5.356131417410714  10.0146484375 5.356131417410714  C 10.26611328125 5.356131417410714  10.471191406250002 5.1539829799107135  10.471191406250002 4.906110491071428  L 10.471191406250002 3.2383858816964284  C 10.773925781250002 3.2552315848214275  11.071777343750002 3.2889229910714275  11.364746093750002 3.3346470424107144  C 11.99462890625 3.647495814732143  12.5927734375 4.176932198660714  13.112792968750002 4.898890904017858  C 13.203125000000002 5.02162388392857  13.342285156250002 5.086600167410714  13.486328125000002 5.086600167410714  C 13.576660156250002 5.086600167410714  13.669433593750002 5.060128348214286  13.75 5.002371651785714  C 13.955078125 4.857979910714286  14.00390625 4.578822544642858  13.857421875 4.376674107142858  C 13.7646484375 4.246721540178572  13.6669921875 4.12158203125  13.56689453125 4.003662109375  C 15.25390625 4.783377511160714  16.635742187500004 6.097342354910714  17.4853515625 7.7265625  C 17.24365234375 7.858921595982143  16.552734375 8.008126395089285  15.4931640625 8.133265904017856  C 15.34423828125 7.507568359374999  15.15625 6.9059361049107135  14.9267578125 6.340401785714285  C 14.833984375 6.109374999999999  14.567871093749998 5.998674665178571  14.33349609375 6.090122767857143  C 14.09912109375 6.183977399553569  13.98681640625 6.443882533482143  14.07958984375 6.674909319196429  C 14.279785156250002 7.165841238839286  14.443359375 7.685651506696429  14.5751953125 8.227120535714285  C 13.466796875 8.323381696428571  12.080078124999998 8.393171037946429  10.471191406249998 8.402797154017856  L 10.471191406249998 6.939627511160714  C 10.471191406249998 6.691755022321429  10.26611328125 6.489606584821429  10.014648437499998 6.489606584821429  C 9.763183593749996 6.489606584821429  9.558105468749998 6.691755022321429  9.558105468749998 6.939627511160714  L 9.558105468749998 8.402797154017856  C 7.9492187499999964 8.390764508928571  6.562499999999999 8.323381696428571  5.454101562499999 8.227120535714285  C 5.588378906249999 7.688058035714286  5.751953124999999 7.165841238839286  5.952148437499999 6.674909319196429  C 6.044921874999999 6.443882533482143  5.932617187499999 6.183977399553571  5.698242187499999 6.090122767857143  C 5.463867187499999 5.998674665178571  5.2001953125 6.109375  5.104980468749999 6.340401785714285  C 4.875488281249998 6.9059361049107135  4.685058593749998 7.507568359374999  4.536132812499998 8.133265904017856  C 3.4765624999999982 8.008126395089285  2.7856445312499982 7.858921595982143  2.5439453124999982 7.7265625  Z M 1.6137695312500009 11.502406529017858  C 1.6162109375000009 10.460379464285715  1.8164062500000009 9.461669921875  2.1728515625 8.542375837053571  C 2.568359375 8.725272042410715  3.24462890625 8.88169642857143  4.3603515625 9.018868582589286  C 4.22607421875 9.822649274553571  4.15283203125 10.655308314732144  4.15283203125 11.502406529017858  C 4.15283203125 12.361537388392861  4.22607421875 13.194196428571429  4.36279296875 13.98594447544643  C 3.24462890625 14.12311662946429  2.5708007812500004 14.279541015625002  2.172851562500001 14.462437220982142  C 1.8139648437500013 13.543143136160714  1.6137695312500009 12.54443359375  1.6137695312500009 11.502406529017858  Z M 6.494140625 19.015590122767858  C 4.794921874999998 18.240687779017854  3.40087890625 16.917096819196427  2.5439453125 15.278250558035714  C 2.7880859375 15.145891462053571  3.4790039062499996 14.996686662946429  4.54345703125 14.871547154017858  C 4.94140625 16.52964564732143  5.62255859375 17.96393694196429  6.494140625 19.015590122767858  Z M 17.48291015625 15.280657087053571  C 16.62841796875 16.91709681919643  15.234375 18.240687779017858  13.53271484375 19.01799665178571  C 14.404296875000002 17.96634347098214  15.085449218750002 16.53205217633929  15.4833984375 14.873953683035714  C 16.5478515625 14.99909319196429  17.23876953125 15.148297991071429  17.48291015625 15.280657087053571  Z " fill-rule="nonzero" fill="#000000" stroke="none" transform="matrix(1 0 0 1 1452 925 )" />
  </g>
</svg>