<?xml version="1.0" encoding="utf-8"?>
<svg version="1.1" xmlns:xlink="http://www.w3.org/1999/xlink" width="13px" height="14px" xmlns="http://www.w3.org/2000/svg">
  <g transform="matrix(1 0 0 1 -3193 -2045 )">
    <path d="M 9.197550388541668 2.54767468579852  C 9.159281700546344 1.129047109025738  8.008831527232235 -0.0007021384637816066  6.603193796874999 0  C 5.195888370833333 0  4.050437205208333 1.127488674089821  4.0020651124999995 2.5405118949504075  L 0.7179224812500002 2.540511894950408  C 0.35235448153075527 2.540511712445625  0.05590323058968651 2.8395220155740306  0.055547280208333355 3.2086049086229274  C 0.05590323805825313 3.577687796331552  0.352354486812894 3.8766980911356983  0.7179224812500001 3.8766979086235716  L 1.4493085208333336 3.8766979086235716  L 1.4493085208333336 11.366046569411441  C 1.4493085208333336 12.77223258144755  2.394821704166667 13.92055813662349  3.560589147916667 13.92055813662349  L 9.508099222916666 13.92055813662349  C 10.673866666666667 13.92055813662349  11.619379836458334 12.779069790272029  11.61937985 11.366046569411441  L 11.61937985 3.88418628149532  L 12.281755037500002 3.88418628149532  C 12.647448857745319 3.8841863328001764  12.943952198357655 3.5849777540582686  12.944130238541666 3.2157676994710402  C 12.943774288160315 2.8466848064221435  12.647323037219246 2.5476745032937385  12.2817550375 2.54767468579852  L 9.197550388541668 2.54767468579852  Z M 7.848613946874999 2.421023524697947  L 5.1510635718749995 2.421023524697947  C 5.199113183333332 1.740558421471017  5.782480627083332 1.2105119260544477  6.5032248125 1.2105119260544477  C 7.223968997916666 1.2105119260544477  7.807658922916666 1.7402328394473814  7.848613946874999 2.421023524697947  Z M 3.634437205208333 12.709720955956357  L 3.6344372052083327 12.70288374713188  C 3.2148899249999996 12.70288374713188  2.7530976687499993 12.167627939337137  2.7530976687499993 11.403488433770184  L 2.7530976687499993 3.9340002354084715  L 10.546164335416668 3.9340002354084715  L 10.546164335416668 11.41032564259466  C 10.546164335416668 12.174790743857125  10.084694573958334 12.709720955956357  9.665147280208334 12.709720955956357  L 3.634437205208333 12.709720955956357  Z " fill-rule="nonzero" fill="#e7772d" stroke="none" transform="matrix(1 0 0 1 3193 2045 )" />
  </g>
</svg>