<?xml version="1.0" encoding="utf-8"?>
<svg version="1.1" xmlns:xlink="http://www.w3.org/1999/xlink" width="8px" height="8px" xmlns="http://www.w3.org/2000/svg">
  <g transform="matrix(1 0 0 1 -1066 -1901 )">
    <path d="M 8 1.3333333333333333  C 8 1.0383333333333333  7.77578125 0.8  7.5 0.8  L 6.5078125 0.8  C 6.5078125 0.35833333333333334  6.171875 0  5.7578125 0  L 5.6328125 0  C 5.21875 0  4.8828125 0.35833333333333334  4.8828125 0.8  L 3.125 0.8  C 3.125 0.5791666666666667  3.04140625 0.37916666666666665  2.90546875 0.2341666666666666  C 2.76953125 0.08916666666666669  2.58203125 0  2.375 0  L 2.25 0  C 1.8359375 0  1.5 0.35833333333333334  1.5 0.8  L 0.5 0.8  C 0.22421875000000002 0.8  0 1.0383333333333333  0 1.3333333333333333  L 0 7.466666666666667  C 0 7.760833333333333  0.22421875 8  0.5 8  L 7.5 8  C 7.77578125 8  8 7.760833333333333  8 7.466666666666667  L 8 1.3333333333333333  Z M 5.3828125 1.5333333333333334  L 5.3828125 0.8666666666666667  C 5.3828125 0.6825  5.52265625 0.5333333333333333  5.6953125 0.5333333333333333  C 5.86796875 0.5333333333333333  6.0078125 0.6825  6.0078125 0.8666666666666667  L 6.0078125 1.5333333333333334  C 6.0078125 1.7175  5.86796875 1.8666666666666667  5.6953125 1.8666666666666667  C 5.609375 1.8666666666666667  5.53125 1.8291666666666666  5.47421875 1.7691666666666668  C 5.41796875 1.7083333333333333  5.3828125 1.625  5.3828125 1.5333333333333334  Z M 2 1.5333333333333334  L 2 0.8666666666666667  C 2 0.6825  2.13984375 0.5333333333333333  2.3125 0.5333333333333333  C 2.48515625 0.5333333333333333  2.625 0.6825  2.625 0.8666666666666667  L 2.625 1.5333333333333334  C 2.625 1.7175  2.48515625 1.8666666666666667  2.3125 1.8666666666666667  C 2.2265625 1.8666666666666667  2.1484375 1.8291666666666666  2.09140625 1.7691666666666668  C 2.03515625 1.7083333333333333  2 1.625  2 1.5333333333333334  Z M 7.5 3.466666666666667  L 7.5 7.2  C 7.5 7.3475  7.38828125 7.466666666666667  7.25 7.466666666666667  L 0.75 7.466666666666667  C 0.61171875 7.466666666666667  0.5 7.3475  0.5 7.2  L 0.5 3.466666666666667  L 7.5 3.466666666666667  Z M 0.75 5.333333333333333  L 0.75 4  L 2.75 4  L 2.75 5.333333333333333  L 0.75 5.333333333333333  Z M 0.75 6.933333333333334  L 0.75 5.6  L 2.75 5.6  L 2.75 6.933333333333334  L 0.75 6.933333333333334  Z M 3 5.333333333333333  L 3 4  L 5 4  L 5 5.333333333333333  L 3 5.333333333333333  Z M 3 6.933333333333334  L 3 5.6  L 5 5.6  L 5 6.933333333333334  L 3 6.933333333333334  Z M 5.25 5.333333333333333  L 5.25 4  L 7.25 4  L 7.25 5.333333333333333  L 5.25 5.333333333333333  Z M 5.25 6.933333333333334  L 5.25 5.6  L 7.25 5.6  L 7.25 6.933333333333334  L 5.25 6.933333333333334  Z " fill-rule="nonzero" fill="#ffffff" stroke="none" transform="matrix(1 0 0 1 1066 1901 )" />
  </g>
</svg>