<?xml version="1.0" encoding="utf-8"?>
<svg version="1.1" xmlns:xlink="http://www.w3.org/1999/xlink" width="13px" height="12px" xmlns="http://www.w3.org/2000/svg">
  <g transform="matrix(1 0 0 1 -1114 -916 )">
    <path d="M 12.896 6.016  C 12.896 9.279999999999998  10.053333333333333 11.936  6.482666666666668 11.936  C 2.946666666666668 11.936  0.06933333333333433 9.279999999999998  0.06933333333333433 6.016  C 0.06933333333333433 2.7519999999999993  2.946666666666668 0.09599999999999909  6.482666666666668 0.09599999999999909  C 10.018666666666668 0.09599999999999909  12.896 2.7519999999999993  12.896 6.016  Z M 1.4560000000000008 6.016  C 1.4560000000000008 8.575999999999999  3.709333333333334 10.655999999999999  6.482666666666668 10.655999999999999  C 9.256 10.655999999999999  11.509333333333334 8.575999999999999  11.509333333333334 6.016  C 11.509333333333334 3.455999999999999  9.256 1.3759999999999992  6.482666666666668 1.3759999999999992  C 3.709333333333334 1.3759999999999992  1.4560000000000008 3.455999999999999  1.4560000000000008 6.016  Z " fill-rule="nonzero" fill="#ffffff" stroke="none" transform="matrix(1 0 0 1 1114 916 )" />
  </g>
</svg>