<?xml version="1.0" encoding="utf-8"?>
<svg version="1.1" xmlns:xlink="http://www.w3.org/1999/xlink" width="20px" height="20px" xmlns="http://www.w3.org/2000/svg">
  <g transform="matrix(1 0 0 1 -1682 -1818 )">
    <path d="M 1692 1818  C 1697.6 1818  1702 1822.4  1702 1828  C 1702 1833.6  1697.6 1838  1692 1838  C 1686.4 1838  1682 1833.6  1682 1828  C 1682 1822.4  1686.4 1818  1692 1818  Z " fill-rule="nonzero" fill="#999999" stroke="none" />
    <path d="M 1692 1818.5  C 1697.32 1818.5  1701.5 1822.68  1701.5 1828  C 1701.5 1833.32  1697.32 1837.5  1692 1837.5  C 1686.68 1837.5  1682.5 1833.32  1682.5 1828  C 1682.5 1822.68  1686.68 1818.5  1692 1818.5  Z " stroke-width="1" stroke="#999999" fill="none" />
  </g>
</svg>