<?xml version="1.0" encoding="utf-8"?>
<svg version="1.1" xmlns:xlink="http://www.w3.org/1999/xlink" width="20px" height="20px" xmlns="http://www.w3.org/2000/svg">
  <g transform="matrix(1 0 0 1 -1172 -917 )">
    <path d="M 17.785238559763716 5.617275691001042  C 17.785238559763716 5.43194966790962  17.633662305316417 5.280760868127077  17.444425531914895 5.277333839168099  L 2.5555744680851062 5.277333839168099  C 2.366337694683588 5.280760868127076  2.214761440236284 5.431949667909616  2.214761440236284 5.617275691001038  C 2.214761440236284 5.622630644031882  2.2148906415931684 5.627984849767409  2.215148936170212 5.633333826936812  L 2.976340425531914 16.889333440208222  C 3.1002553191489355 18.64400004658884  4.042553191489361 20.000000000000004  6.38059574468085 20.000000000000004  L 13.61940425531915 20.000000000000004  C 15.957446808510639 20.000000000000004  16.899744680851065 18.644000046588843  17.023659574468088 16.889333440208222  L 17.78485106382979 5.633333826936814  C 17.78510935840683 5.627984849767397  17.785238559763716 5.622630644031899  17.785238559763716 5.617275691001042  Z M 12.314893617021276 10.756000317601197  C 13.483234042553192 11.944000276784426  13.948936170212766 13.600000219888324  13.55131914893617 15.20000016491624  C 13.43606994946873 15.645953179575082  12.975933111939755 15.918185623076086  12.519148936170211 15.810666810601898  C 12.0637075438495 15.697818640000548  11.785682911147298 15.247268002066578  11.895489361702126 14.80000017865926  C 12.153182481858018 13.765218933440451  11.84857178883551 12.673429328720196  11.089361702127658 11.910666944596342  C 10.54830019440744 11.35953124498764  9.804333747229032 11.043558030928311  9.023659574468084 11.033333641406035  L 9.295999999999998 11.300000298910689  C 9.624594225473128 11.626497751154304  9.624594225473128 12.15083613955012  9.296000000000001 12.477333591793734  C 9.137521356562623 12.634643513695403  8.921157241733695 12.723037164524655  8.695489361702128 12.722666916698017  C 8.469349598255508 12.72339536538523  8.252426782076231 12.634973964090669  8.093617021276595 12.477333591793734  L 6.561702127659572 10.977333643330056  C 6.233107902186444 10.65083619108644  6.233107902186443 10.126497802690631  6.561702127659572 9.800000350447014  L 8.093617021276597 8.300000401983343  C 8.427061239279594 7.978251900595393  8.962555781997 7.978251900595393  9.296000000000001 8.300000401983343  C 9.5959166686164 8.595726972834125  9.620556879234142 9.06505207948239  9.353191489361702 9.389333697889853  C 10.475534771549249 9.483563300779332  11.526256416274347 9.96841496261366  12.314893617021276 10.756000317601197  Z M 19.92953191489362 3.333333905959177  C 19.92582828795588 2.8746071592867644  19.54695499142108 2.50362706917574  19.07846808510638 2.5000006012571347  L 14.300255319148933 2.5000006012571347  C 14.18723404255319 2.3000006081286446  14.108255319148935 2.0666672828120736  14.017021276595745 1.8106672916076059  L 13.789617021276593 1.144000647845972  C 13.562466712708884 0.46122080919945374  12.912095071962227 -0.000650243978520394  12.178723404255319 0  L 7.82127659574468 0  C 7.0954893617021275 0  6.436425531914893 0.4560006714839695  6.210382978723405 1.1440006478459743  L 5.982978723404255 1.8106672916076072  C 5.891744680851064 2.066667282812074  5.812765957446809 2.300000608128646  5.6997446808510634 2.5000006012571356  L 0.9215319148936169 2.5000006012571356  C 0.45304500857892066 2.5036270691757414  0.07417171204412049 2.8746071592867652  0.07046808510638278 3.333333905959177  C 0.07417171204411974 3.79206065263159  0.45304500857892066 4.163040742742615  0.9215319148936169 4.166667210661219  L 19.07846808510638 4.166667210661219  C 19.54695499142108 4.163040742742618  19.92582828795588 3.792060652631593  19.92953191489362 3.333333905959177  Z " fill-rule="nonzero" fill="#ffffff" stroke="none" transform="matrix(1 0 0 1 1172 917 )" />
  </g>
</svg>