<?xml version="1.0" encoding="utf-8"?>
<svg version="1.1" xmlns:xlink="http://www.w3.org/1999/xlink" width="20px" height="20px" xmlns="http://www.w3.org/2000/svg">
  <g transform="matrix(1 0 0 1 -1060 -1895 )">
    <path d="M 1070 1895  C 1075.6 1895  1080 1899.4  1080 1905  C 1080 1910.6  1075.6 1915  1070 1915  C 1064.4 1915  1060 1910.6  1060 1905  C 1060 1899.4  1064.4 1895  1070 1895  Z " fill-rule="nonzero" fill="#e7772d" stroke="none" />
    <path d="M 1070 1895.5  C 1075.32 1895.5  1079.5 1899.68  1079.5 1905  C 1079.5 1910.32  1075.32 1914.5  1070 1914.5  C 1064.68 1914.5  1060.5 1910.32  1060.5 1905  C 1060.5 1899.68  1064.68 1895.5  1070 1895.5  Z " stroke-width="1" stroke="#e7772d" fill="none" />
  </g>
</svg>