<?xml version="1.0" encoding="utf-8"?>
<svg version="1.1" xmlns:xlink="http://www.w3.org/1999/xlink" width="7px" height="7px" xmlns="http://www.w3.org/2000/svg">
  <g transform="matrix(1 0 0 1 -1739 -879 )">
    <path d="M 6.979496611097149 5.972625491569531  C 6.979496611097149 6.4233886598792616  6.600818930257435 6.7889429677171655  6.133361111111112 6.789437499999998  C 5.908774491985149 6.789709667572918  5.693332180989242 6.70367752541911  5.5346990740740765 6.550374999999999  L 0.4055787037037088 1.6041562500000008  C 0.24678168295329045 1.451062991313453  0.1575676170514589 1.2434045024266034  0.1575676170514589 1.0268750000000004  C 0.1575676170514589 0.8103454975733992  0.24678168295329045 0.6026870086865461  0.40557870370370697 0.44959374999999824  C 0.5643011920952488 0.2963818426639442  0.7796734999267195 0.21029498817730108  1.0042569444444478 0.21029498817730108  C 1.228840388962176 0.21029498817730108  1.4442126967936468 0.2963818426639442  1.6029351851851885 0.44959374999999824  L 6.732055555555558 5.3956874999999975  C 6.890508148743879 5.54881758064943  6.979496611097149 5.756304671385376  6.979496611097149 5.972625491569531  Z " fill-rule="nonzero" fill="#2c2c2c" stroke="none" transform="matrix(1 0 0 1 1739 879 )" />
  </g>
</svg>