<?xml version="1.0" encoding="utf-8"?>
<svg version="1.1" xmlns:xlink="http://www.w3.org/1999/xlink" width="16px" height="16px" xmlns="http://www.w3.org/2000/svg">
  <g transform="matrix(1 0 0 1 -2161 -197 )">
    <path d="M 10.626953125 4.722656249999999  L 7.962890625 7.294921875  L 5.390625 4.630859375  C 5.1875 4.421875  4.85546875 4.41796875  4.646484374999999 4.62109375  C 4.544921874999999 4.716796875  4.486328124999999 4.849609375  4.484374999999999 4.990234375  C 4.480468749999999 5.130859374999999  4.535156249999999 5.265625  4.630859374999999 5.365234374999999  L 7.203124999999999 8.029296875  L 4.539062499999999 10.6015625  C 4.330078124999999 10.8046875  4.326171875 11.13671875  4.529296874999999 11.345703125000002  C 4.624999999999999 11.447265625000002  4.757812499999999 11.505859375000002  4.898437499999999 11.5078125  C 5.039062499999999 11.511718750000002  5.173828124999999 11.45703125  5.273437499999999 11.361328125  L 7.937499999999999 8.789062500000002  L 10.509765625 11.453125000000002  C 10.712890625 11.662109375000002  11.044921875 11.666015625  11.25390625 11.462890625000002  C 11.355468750000002 11.367187500000002  11.414062500000002 11.234375  11.416015625 11.093750000000002  C 11.419921875 10.953125  11.365234375 10.818359375000002  11.26953125 10.71875  L 8.697265625 8.054687499999998  L 11.361328125 5.482421874999999  C 11.570312500000002 5.279296875  11.57421875 4.947265625  11.37109375 4.738281249999999  C 11.275390625 4.636718749999999  11.142578125 4.578124999999999  11.001953125 4.576171874999999  C 10.861328125 4.572265624999999  10.7265625 4.626953124999999  10.626953125 4.722656249999999  Z M 13.515625 13.6875  C 10.365234374999998 16.728515625000004  5.34765625 16.642578125  2.3046875 13.4921875  C -0.7363281249999997 10.341796875000002  -0.6484374999999997 5.324218750000001  2.5 2.2812500000000013  C 5.650390625000001 -0.7597656249999988  10.66796875 -0.6718749999999988  13.7109375 2.4765625000000013  C 16.751953124999996 5.626953125000001  16.666015625 10.644531250000002  13.515625 13.6875  Z " fill-rule="nonzero" fill="#999999" stroke="none" transform="matrix(1 0 0 1 2161 197 )" />
  </g>
</svg>