<?xml version="1.0" encoding="utf-8"?>
<svg version="1.1" xmlns:xlink="http://www.w3.org/1999/xlink" width="14px" height="14px" xmlns="http://www.w3.org/2000/svg">
  <g transform="matrix(1 0 0 1 -1971 -779 )">
    <path d="M 13.626024675925924 12.691293006172842  L 7.892538003086421 6.940561876543211  L 13.62390624691358 1.2389254629629636  C 13.894911895061728 0.9692949043209884  13.896287006172841 0.5323484660493834  13.626656447530863 0.26134279629629703  C 13.356319753086417 -0.010368987654319959  12.920079450617283 -0.011037962962962184  12.649073780864196 0.25859259567901305  L 6.916330447530864 5.960897984567901  L 1.2333879228395066 0.2606366820987651  C 0.9644635000000001 -0.008993876543210063  0.5268109259259262 -0.01036896604938297  0.2558052561728399 0.25926159259259224  C -0.0145314382716048 0.5288921512345673  -0.015200391975308194 0.9665075648148147  0.254430166666667 1.2375503950617284  L 5.935997601851852 6.936399447530864  L 0.20741671913580279 12.634579524691357  C -0.06358892901234532 12.904210083333332  -0.06496404012345644 13.341156521604939  0.20466651851851875 13.612162191358024  C 0.3394632067901236 13.747665015432096  0.5171480740740746 13.816122574074075  0.694832941358025 13.816122574074075  C 0.871142719135803 13.816122574074075  1.047415314814815 13.749077287037037  1.1822491851851853 13.614949552469136  L 6.912242339506173 7.915394364197532  L 12.647066919753085 13.667500561728396  C 12.78186360802469 13.80300338580247  12.958879521604937 13.870754808641978  13.136564388888889 13.870754808641978  C 13.313543120370369 13.870754808641978  13.489852898148149 13.80300338580247  13.624649586419753 13.668875672839508  C 13.894986280864197 13.399245114197534  13.8956552345679 12.962298675925927  13.626024675925924 12.691293006172842  Z " fill-rule="nonzero" fill="#999999" stroke="none" transform="matrix(1 0 0 1 1971 779 )" />
  </g>
</svg>