<?xml version="1.0" encoding="utf-8"?>
<svg version="1.1" xmlns:xlink="http://www.w3.org/1999/xlink" width="16px" height="16px" xmlns="http://www.w3.org/2000/svg">
  <g transform="matrix(1 0 0 1 -1824 -591 )">
    <path d="M 16 1.8353982300884963  C 15.99646017699115 0.8973451327433636  15.23716814159292 0.13628318584070878  14.297345132743361 0.136283185840708  L 1.8371681415929195 0.136283185840708  C 0.8991150442477868 0.136283185840708  0.13805309734513194 0.8973451327433629  0.13805309734513194 1.8353982300884955  L 0.13805309734513194 14.29557522123894  C 0.13805309734513194 15.233628318584072  0.8991150442477868 15.994690265486726  1.8371681415929195 16  L 14.297345132743361 16  C 15.235398230088494 15.994690265486726  15.99646017699115 15.233628318584072  16 14.29557522123894  L 16 1.8353982300884963  Z M 13.385840707964602 5.95575221238938  C 13.591150442477877 6.196460176991151  13.562831858407081 6.553982300884956  13.325663716814159 6.757522123893805  L 7.442477876106195 11.784070796460176  C 7.235398230088496 11.961061946902655  6.976991150442478 12.054867256637166  6.707964601769912 12.054867256637166  C 6.677876106194691 12.054867256637166  6.64778761061947 12.053097345132741  6.617699115044247 12.051327433628316  C 6.316814159292035 12.028318584070794  6.042477876106195 11.888495575221235  5.846017699115044 11.658407079646015  L 2.7044247787610622 7.982300884955753  C 2.5008849557522126 7.7451327433628325  2.529203539823009 7.387610619469026  2.7663716814159294 7.184070796460176  C 3.00353982300885 6.9805309734513274  3.361061946902655 7.008849557522124  3.564601769911505 7.246017699115044  L 6.704424778761062 10.920353982300885  L 12.587610619469027 5.893805309734513  C 12.824778761061948 5.6902654867256635  13.182300884955753 5.71858407079646  13.385840707964602 5.95575221238938  Z " fill-rule="nonzero" fill="#e7772d" stroke="none" transform="matrix(1 0 0 1 1824 591 )" />
  </g>
</svg>