<?xml version="1.0" encoding="utf-8"?>
<svg version="1.1" xmlns:xlink="http://www.w3.org/1999/xlink" width="15px" height="15px" xmlns="http://www.w3.org/2000/svg">
  <g transform="matrix(1 0 0 1 -1806 -779 )">
    <path d="M 14.9 15  C 14.78 11.175  10.22 12.13125  9.54 10.3875  C 9.48 9.80625  9.5 9.375  9.5 8.83125  C 9.78 8.68125  10.78 7.781250000000001  10.86 7.03125  C 11.08 7.0125  11.44 6.8062499999999995  11.54 5.98125  C 11.6 5.55  11.379999999999999 5.2875  11.239999999999998 5.2124999999999995  C 11.599999999999998 4.1812499999999995  11.759999999999998 0.9562499999999996  9.239999999999998 0.6374999999999997  C 8.98 0.22499999999999998  8.32 0  7.46 0  C 4.02 0.056249999999999994  3 2.475  3.76 5.23125  C 3.62 5.30625  3.4 5.55  3.46 6  C 3.5599999999999996 6.825  3.9199999999999995 7.03125  4.14 7.050000000000001  C 4.22 7.81875  5.22 8.71875  5.5 8.850000000000001  C 5.5 9.39375  5.52 9.80625  5.46 10.406250000000002  C 4.78 12.13125  0.31999999999999995 11.231250000000001  0.09999999999999998 15  L 14.9 15  Z " fill-rule="nonzero" fill="#ffffff" stroke="none" transform="matrix(1 0 0 1 1806 779 )" />
  </g>
</svg>