<?xml version="1.0" encoding="utf-8"?>
<svg version="1.1" xmlns:xlink="http://www.w3.org/1999/xlink" width="12px" height="12px" xmlns="http://www.w3.org/2000/svg">
  <g transform="matrix(1 0 0 1 -676 -1647 )">
    <path d="M 11.933634782608696 7.362477419354837  C 11.931339383556429 8.384523514102737  11.094372682734289 9.212490572980553  10.061217391304348 9.214761290322581  C 9.712672886924176 9.214761290322581  9.430121739130433 8.935248326913719  9.430121739130433 8.590451612903227  C 9.430121739130433 8.245654898892735  9.712672886924176 7.96614193548387  10.061217391304348 7.96614193548387  C 10.398235953079357 7.96614193548387  10.67144347826087 7.69587212562689  10.67144347826087 7.362477419354839  L 10.67144347826087 1.9517935483870963  C 10.67144347826087 1.618398842115049  10.398235953079352 1.3481290322580641  10.061217391304348 1.3481290322580641  L 4.591721739130435 1.3481290322580641  C 4.254703177355428 1.3481290322580641  3.981495652173913 1.6183988421150475  3.981495652173913 1.9517935483870963  C 3.981495652173913 2.2965902623975882  3.69894450438017 2.5761032258064516  3.3504 2.5761032258064516  C 3.0018554956198287 2.5761032258064516  2.7193043478260868 2.2965902623975882  2.719304347826086 1.9517935483870963  C 2.721599746878353 0.9297474536391986  3.558566447700493 0.10178039476138126  4.591721739130435 0.09950967741935443  L 10.061217391304345 0.09950967741935396  C 11.094372682734285 0.10178039476138079  11.931339383556429 0.9297474536391986  11.933634782608696 1.9517935483870963  L 11.933634782608696 7.362477419354837  Z M 9.24062608695652 9.963767741935486  C 9.261495652173911 11.046400000000002  8.357426086956522 11.920929032258066  7.263026086956521 11.920929032258066  L 2.0247652173913044 11.920929032258066  C 2.023929905292941 11.92093008068003  2.023094592608968 11.920930604891169  2.0222592798382744 11.920930604891169  C 0.9314440716855168 11.920930604891169  0.047163627664361246 11.046158552741208  0.047163627664361246 9.96707254037504  C 0.047163627664361246 9.966246209463005  0.04716415757344898 9.965419878634028  0.04716521739130471 9.9645935483871  L 0.047165217391304255 4.762012903225808  C 0.0471633338660427 4.760911304213444  0.047162392102907735 4.7598097038232385  0.047162392102907735 4.758708103235083  C 0.047162392102907735 3.679622090868914  0.9314428361240634 2.804850038718954  2.022258044276821 2.804850038718954  C 2.023093768900684 2.804850038718954  2.023929493440769 2.804850563447151  2.0247652173913044 2.804851612903228  L 7.263026086956521 2.804851612903227  C 7.263861399053501 2.8048505644812627  7.264696711740238 2.8048500402701215  7.26553202450955 2.8048500402701215  C 8.356347232662308 2.8048500402701215  9.240627676683463 3.6796220924200824  9.240627676683463 4.75870810478625  C 9.240627676683463 4.75953443569874  9.240627146774376 4.760360766526808  9.24062608695652 4.761187096774195  L 9.24062608695652 9.963767741935486  Z M 7.263026086956521 4.053470967741935  L 2.0247652173913044 4.053470967741935  C 2.0228093457652636 4.053454967054588  2.02085341561998 4.053446966608328  2.0188974771149417 4.053446966608328  C 1.6270154285393525 4.053446966608328  1.3093322597236372 4.367714187372261  1.3093322597236372 4.755382450479296  C 1.3093322597236372 4.757317357387604  1.3093403471312675 4.759252256025753  1.3093565217391308 4.761187096774194  L 1.3093565217391308 9.963767741935486  C 1.3093403471312683 9.965702582683878  1.3093322597236372 9.967637481322122  1.3093322597236372 9.96957238823038  C 1.3093322597236372 10.357240651337417  1.6270154285393525 10.671507872101348  2.0188974771149417 10.671507872101348  C 2.0208534156200306 10.671507872101348  2.0228093457652125 10.67149987165509  2.0247652173913044 10.671483870967743  L 7.263026086956521 10.671483870967743  C 7.264981958582689 10.671499871655094  7.266937888727719 10.671507872101348  7.268893827232886 10.671507872101348  C 7.660775875808474 10.671507872101348  7.97845904462419 10.357240651337417  7.97845904462419 9.96957238823038  C 7.97845904462419 9.967637481322122  7.978450957216561 9.965702582683878  7.978434782608696 9.963767741935484  L 7.978434782608696 4.7611870967741945  C 7.978450957216561 4.759252256025727  7.97845904462419 4.757317357387631  7.97845904462419 4.755382450479296  C 7.97845904462419 4.367714187372261  7.660775875808474 4.053446966608328  7.268893827232886 4.053446966608328  C 7.2669378887276945 4.053446966608328  7.264981958582715 4.053454967054586  7.263026086956521 4.053470967741935  Z " fill-rule="nonzero" fill="#e7772d" stroke="none" transform="matrix(1 0 0 1 676 1647 )" />
  </g>
</svg>