<?xml version="1.0" encoding="utf-8"?>
<svg version="1.1" xmlns:xlink="http://www.w3.org/1999/xlink" width="5px" height="4px" xmlns="http://www.w3.org/2000/svg">
  <g transform="matrix(1 0 0 1 -1487 -3780 )">
    <path d="M 0.6265116276041665 3.9668217083333333  C 0.9437209244791662 3.9668217083333333  1.2029457421874994 3.741085270833333  1.2029457421874994 3.458294572916666  L 1.2029457421874994 0.5559689895833326  C 1.2029457421874994 0.27317829166666624  0.9437209374999995 0.047441854166666055  0.6265116276041665 0.047441864583332695  C 0.3096124088541667 0.047441864583332695  0.05007751302083345 0.2731783020833329  0.05007751302083345 0.5559689895833326  L 0.05007751302083345 3.458294572916666  C 0.05007751302083345 3.741085270833333  0.3021705338541669 3.9668217083333333  0.6268217057291665 3.9668217083333333  Z M 2.6438759635416664 3.9668217083333333  C 2.9610852604166666 3.9668217083333333  3.2206201432291666 3.741085270833333  3.22062015625 3.458294572916666  L 3.22062015625 0.5559689895833326  C 3.22062015625 0.27317829166666624  2.9610852734375 0.047441854166666055  2.6438759635416664 0.047441864583332695  C 2.3269767447916667 0.047441864583332695  2.0674418489583335 0.2731783020833329  2.067441861979167 0.5559689895833326  L 2.067441861979167 3.458294572916666  C 2.067441861979167 3.741085270833333  2.3269767447916667 3.9668217083333333  2.644186041666667 3.9668217083333333  Z M 3.7967441796875008 3.458294572916666  C 3.7967441796875008 3.741085270833333  4.0488372005208335 3.9668217083333333  4.373178294270834 3.9668217083333333  C 4.690077513020833 3.9668217083333333  4.949612408854167 3.741085270833333  4.949612408854167 3.458294572916666  L 4.949612408854167 0.5559689895833326  C 4.949612408854167 0.27317829166666624  4.690077526041667 0.047441854166666055  4.373178294270834 0.047441864583332695  C 4.056279062500001 0.047441874999999335  3.7967441796875008 0.2731783020833329  3.7967441796875008 0.5559689895833326  L 3.7967441796875008 3.458294572916666  Z " fill-rule="nonzero" fill="#e7772d" stroke="none" transform="matrix(1 0 0 1 1487 3780 )" />
  </g>
</svg>