<?xml version="1.0" encoding="utf-8"?>
<svg version="1.1" xmlns:xlink="http://www.w3.org/1999/xlink" width="12px" height="12px" xmlns="http://www.w3.org/2000/svg">
  <g transform="matrix(1 0 0 1 -1484 -3775 )">
    <path d="M 8.490046512500001 2.1837211592558745  C 8.454721569735087 0.9677546648792039  7.392767563598987 -0.0006018329689556627  6.0952558125 0  C 4.79620465 0  3.7388651124999996 0.9664188635055607  3.694213949999999 2.1775816242432064  L 0.6626976750000002 2.177581624243207  C 0.3252502906437741 2.177581467810536  0.051602982082787546 2.433876013349169  0.05127441250000002 2.750232778819652  C 0.05160298897684905 3.066589539712759  0.32525029551959445 3.3228840781163127  0.6626976750000001 3.322883921677347  L 1.3378232500000002 3.322883921677347  L 1.3378232500000002 9.742325630924093  C 1.3378232500000002 10.947627926955043  2.2106046500000005 11.931906974248705  3.2866976750000005 11.931906974248705  L 8.776706975 11.931906974248705  C 9.8528 11.931906974248705  10.7255813875 10.95348839166174  10.7255814 9.742325630924093  L 10.7255814 3.329302526995989  L 11.337004650000003 3.329302526995989  C 11.674568176380294 3.32930257097158  11.94826356771476 3.072838074907087  11.9484279125 2.75637231383232  C 11.948099342917214 2.4400155483618375  11.674452034356229 2.183721002823204  11.337004649999999 2.1837211592558745  L 8.490046512500001 2.1837211592558745  Z M 7.2448744125 2.0751630211696686  L 4.7548279125 2.0751630211696686  C 4.799181399999998 1.4919072184037288  5.3376744249999994 1.0375816509038123  6.00297675 1.0375816509038123  C 6.668279074999999 1.0375816509038123  7.207069774999999 1.4916281480977553  7.2448744125 2.0751630211696686  Z M 3.3548651124999997 10.894046533676876  L 3.3548651124999993 10.888186068970182  C 2.9675906999999997 10.888186068970182  2.541320924999999 10.42939537657469  2.541320924999999 9.7744186575173  L 2.541320924999999 3.37200020177869  L 9.734920925 3.37200020177869  L 9.734920925 9.780279122223995  C 9.734920925 10.435534923306108  9.308948837500001 10.894046533676876  8.921674412500002 10.894046533676876  L 3.3548651124999997 10.894046533676876  Z " fill-rule="nonzero" fill="#e7772d" stroke="none" transform="matrix(1 0 0 1 1484 3775 )" />
  </g>
</svg>