<?xml version="1.0" encoding="utf-8"?>
<svg version="1.1" xmlns:xlink="http://www.w3.org/1999/xlink" width="10px" height="10px" xmlns="http://www.w3.org/2000/svg">
  <g transform="matrix(1 0 0 1 -476 -4394 )">
    <path d="M 10 5  C 10 2.2352941210937494  7.764705878906249 0  5 0  C 2.23529412109375 0  0 2.23529412109375  0 5  C 0 7.76470587890625  2.23529412109375 10  5 10  C 7.76470587890625 10  10 7.76470587890625  10 5  Z M 5.882352939453125 4.999999999999999  L 7.1764705859374995 6.294117646484375  C 7.411764707031249 6.529411767578125  7.411764707031249 6.941176474609375  7.1764705859374995 7.1764705859374995  C 6.94117646484375 7.411764707031249  6.5294117578125 7.411764707031249  6.294117646484375 7.1764705859374995  L 5 5.882352939453125  L 3.7058823535156247 7.23529412109375  C 3.470588232421875 7.4705882421875  3.0588235253906246 7.4705882421875  2.8235294140625 7.23529412109375  C 2.705882353515625 7.0588235351562485  2.647058828125 6.9411764746093745  2.647058828125 6.76470587890625  C 2.647058828125 6.588235283203126  2.705882353515625 6.41176470703125  2.8235294140625 6.294117646484375  L 4.117647060546875 5  L 2.8235294140625 3.7647058789062497  C 2.705882353515625 3.5882352929687498  2.647058828125 3.470588232421875  2.647058828125 3.2941176464843744  C 2.647058828125 3.117647060546875  2.705882353515625 2.941176474609375  2.8235294140625 2.8235294140624996  C 3.05882353515625 2.5882352929687498  3.4705882421875 2.5882352929687498  3.7058823535156247 2.8235294140624996  L 5 4.117647060546875  L 6.294117646484375 2.8235294140624996  C 6.529411767578125 2.5882352929687498  6.941176474609375 2.5882352929687498  7.1764705859374995 2.8235294140624996  C 7.411764707031249 3.0588235351562494  7.411764707031249 3.4705882421874996  7.1764705859374995 3.7058823535156242  L 5.882352939453125 4.999999999999999  Z " fill-rule="nonzero" fill="#999999" stroke="none" transform="matrix(1 0 0 1 476 4394 )" />
  </g>
</svg>