<?xml version="1.0" encoding="utf-8"?>
<svg version="1.1" xmlns:xlink="http://www.w3.org/1999/xlink" width="92px" height="10px" preserveAspectRatio="xMinYMid meet" viewBox="707 2066  92 8" xmlns="http://www.w3.org/2000/svg">
  <path d="M 712 2037  L 712 2065  A 5 5 0 0 0 717 2070 L 789 2070  A 5 5 0 0 1 794 2075 L 794 2104  " stroke-width="2" stroke="#0066ff" fill="none" />
  <path d="M 712 2035  A 3.5 3.5 0 0 0 708.5 2038.5 A 3.5 3.5 0 0 0 712 2042 A 3.5 3.5 0 0 0 715.5 2038.5 A 3.5 3.5 0 0 0 712 2035 Z M 786 2096.6  L 794 2106  L 802 2096.6  L 794 2100.2  L 786 2096.6  Z " fill-rule="nonzero" fill="#0066ff" stroke="none" />
</svg>