<?xml version="1.0" encoding="utf-8"?>
<svg version="1.1" xmlns:xlink="http://www.w3.org/1999/xlink" width="7px" height="7px" xmlns="http://www.w3.org/2000/svg">
  <g transform="matrix(1 0 0 1 -731 -3397 )">
    <path d="M 0.877116278645833 6.941937989583333  C 1.3212092942708327 6.941937989583333  1.6841240390624992 6.546899223958333  1.6841240390624992 6.052015502604165  L 1.6841240390624992 0.9729457317708321  C 1.6841240390624992 0.4780620104166659  1.3212093124999993 0.08302324479166559  0.877116278645833 0.08302326302083221  C 0.4334573723958334 0.08302326302083221  0.07010851822916683 0.4780620286458325  0.07010851822916683 0.9729457317708321  L 0.07010851822916683 6.052015502604165  C 0.07010851822916683 6.546899223958333  0.4230387473958337 6.941937989583333  0.8775503880208332 6.941937989583333  Z M 3.701426348958333 6.941937989583333  C 4.1455193645833335 6.941937989583333  4.508868200520833 6.546899223958333  4.50886821875 6.052015502604165  L 4.50886821875 0.9729457317708321  C 4.50886821875 0.4780620104166659  4.1455193828125 0.08302324479166559  3.701426348958333 0.08302326302083221  C 3.2577674427083334 0.08302326302083221  2.894418588541667 0.4780620286458325  2.8944186067708335 0.9729457317708321  L 2.8944186067708335 6.052015502604165  C 2.8944186067708335 6.546899223958333  3.2577674427083334 6.941937989583333  3.7018604583333334 6.941937989583333  Z M 5.315441851562501 6.052015502604165  C 5.315441851562501 6.546899223958333  5.668372080729167 6.941937989583333  6.122449611979167 6.941937989583333  C 6.566108518229167 6.941937989583333  6.9294573723958335 6.546899223958333  6.9294573723958335 6.052015502604165  L 6.9294573723958335 0.9729457317708321  C 6.9294573723958335 0.4780620104166659  6.566108536458334 0.08302324479166559  6.122449611979167 0.08302326302083221  C 5.678790687500001 0.08302328124999883  5.315441851562501 0.4780620286458325  5.315441851562501 0.9729457317708321  L 5.315441851562501 6.052015502604165  Z " fill-rule="nonzero" fill="#999999" stroke="none" transform="matrix(1 0 0 1 731 3397 )" />
  </g>
</svg>