<?xml version="1.0" encoding="utf-8"?>
<svg version="1.1" xmlns:xlink="http://www.w3.org/1999/xlink" width="202px" height="10px" preserveAspectRatio="xMinYMid meet" viewBox="205 996  202 8" xmlns="http://www.w3.org/2000/svg">
  <path d="M 227 519  L 215 519  A 5 5 0 0 0 210 524 L 210 995  A 5 5 0 0 0 215 1000 L 397 1000  A 5 5 0 0 1 402 1005 L 402 1010  " stroke-width="2" stroke="#0066ff" fill="none" />
  <path d="M 225.5 515.5  A 3.5 3.5 0 0 0 222 519 A 3.5 3.5 0 0 0 225.5 522.5 A 3.5 3.5 0 0 0 229 519 A 3.5 3.5 0 0 0 225.5 515.5 Z M 394 1002.6  L 402 1012  L 410 1002.6  L 402 1006.2  L 394 1002.6  Z " fill-rule="nonzero" fill="#0066ff" stroke="none" />
</svg>