<?xml version="1.0" encoding="utf-8"?>
<svg version="1.1" xmlns:xlink="http://www.w3.org/1999/xlink" width="590px" height="10px" preserveAspectRatio="xMinYMid meet" viewBox="1040 3877  590 8" xmlns="http://www.w3.org/2000/svg">
  <path d="M 462 3719  L 1040 3719  A 5 5 0 0 1 1045 3724 L 1045 3876  A 5 5 0 0 0 1050 3881 L 1628 3881  " stroke-width="2" stroke="#0066ff" fill="none" />
  <path d="M 463.5 3715.5  A 3.5 3.5 0 0 0 460 3719 A 3.5 3.5 0 0 0 463.5 3722.5 A 3.5 3.5 0 0 0 467 3719 A 3.5 3.5 0 0 0 463.5 3715.5 Z M 1620.6 3889  L 1630 3881  L 1620.6 3873  L 1624.2 3881  L 1620.6 3889  Z " fill-rule="nonzero" fill="#0066ff" stroke="none" />
</svg>