<?xml version="1.0" encoding="utf-8"?>
<svg version="1.1" xmlns:xlink="http://www.w3.org/1999/xlink" width="20px" height="20px" viewBox="811 95  20 20" xmlns="http://www.w3.org/2000/svg">
  <path d="M 811.5 98  A 2.5 2.5 0 0 1 814 95.5 L 828 95.5  A 2.5 2.5 0 0 1 830.5 98 L 830.5 112  A 2.5 2.5 0 0 1 828 114.5 L 814 114.5  A 2.5 2.5 0 0 1 811.5 112 L 811.5 98  Z " fill-rule="nonzero" fill="#ffffff" stroke="none" />
  <path d="M 811.5 98  A 2.5 2.5 0 0 1 814 95.5 L 828 95.5  A 2.5 2.5 0 0 1 830.5 98 L 830.5 112  A 2.5 2.5 0 0 1 828 114.5 L 814 114.5  A 2.5 2.5 0 0 1 811.5 112 L 811.5 98  Z " stroke-width="1" stroke="#797979" fill="none" />
  <path d="M 815.2857142857143 105  L 819.5714285714286 109.28571428571428  L 826.7142857142857 99.28571428571429  " stroke-width="4.285714285714286" stroke="#797979" fill="none" />
</svg>