<?xml version="1.0" encoding="utf-8"?>
<svg version="1.1" xmlns:xlink="http://www.w3.org/1999/xlink" width="11px" height="16px" xmlns="http://www.w3.org/2000/svg">
  <g transform="matrix(1 0 0 1 -2150 -1383 )">
    <path d="M 10.7958984375 9.670454545454547  C 10.931966145833334 9.814393939393938  11 9.984848484848484  11 10.181818181818182  C 11 10.378787878787879  10.931966145833334 10.549242424242422  10.7958984375 10.693181818181818  L 5.9833984375 15.784090909090908  C 5.847330729166667 15.928030303030305  5.686197916666667 16  5.5 16  C 5.313802083333334 16  5.152669270833334 15.928030303030305  5.0166015625 15.784090909090908  L 0.2041015625 10.693181818181818  C 0.06803385416666666 10.549242424242422  0 10.378787878787879  0 10.181818181818182  C 0 9.984848484848484  0.06803385416666666 9.814393939393938  0.2041015625 9.670454545454547  C 0.34016927083333337 9.52651515151515  0.5013020833333334 9.454545454545453  0.6875 9.454545454545453  L 10.3125 9.454545454545453  C 10.498697916666668 9.454545454545453  10.659830729166668 9.52651515151515  10.7958984375 9.670454545454547  Z M 10.7958984375 5.306818181818182  C 10.931966145833334 5.450757575757574  11 5.621212121212119  11 5.818181818181818  C 11 6.015151515151514  10.931966145833334 6.1856060606060606  10.7958984375 6.329545454545455  C 10.659830729166668 6.4734848484848495  10.498697916666668 6.545454545454545  10.3125 6.545454545454545  L 0.6875 6.545454545454545  C 0.5013020833333334 6.545454545454545  0.34016927083333337 6.4734848484848495  0.2041015625 6.329545454545455  C 0.06803385416666666 6.1856060606060606  0 6.015151515151514  0 5.818181818181818  C 0 5.621212121212119  0.06803385416666666 5.450757575757574  0.2041015625 5.306818181818182  L 5.0166015625 0.21590909090909172  C 5.152669270833334 0.07196969696969546  5.313802083333334 0  5.5 0  C 5.686197916666667 0  5.847330729166667 0.07196969696969546  5.9833984375 0.21590909090909172  L 10.7958984375 5.306818181818182  Z " fill-rule="nonzero" fill="#999999" stroke="none" transform="matrix(1 0 0 1 2150 1383 )" />
  </g>
</svg>