<?xml version="1.0" encoding="utf-8"?>
<svg version="1.1" xmlns:xlink="http://www.w3.org/1999/xlink" width="10px" height="10px" xmlns="http://www.w3.org/2000/svg">
  <g transform="matrix(1 0 0 1 -2687 -254 )">
    <path d="M 5 0.04032258064516251  C 7.739153225806453 0.04032258064516251  9.959677419354875 2.2608467741935483  9.959677419354875 5  C 9.959677419354875 7.739153225806453  7.739153225806453 9.959677419354838  5 9.959677419354838  C 2.2608467741935483 9.959677419354838  0.04032258064512462 7.739153225806453  0.04032258064512462 5  C 0.04032258064512462 2.2608467741935483  2.2608467741935483 0.04032258064516251  5 0.04032258064516251  Z M 5.00504032258065 0.8266129032258078  C 2.6973588709677188 0.8266129032258078  0.8266129032257746 2.6973588709677374  0.8266129032257746 5.00504032258065  C 0.8266129032257746 7.312721774193553  2.6973588709677188 9.183467741935488  5.00504032258065 9.183467741935488  C 7.312721774193581 9.183467741935488  9.183467741935448 7.312721774193553  9.183467741935448 5.00504032258065  C 9.183467741935448 2.6973588709677374  7.312721774193581 0.8266129032258078  5.00504032258065 0.8266129032258078  Z M 5.166666666666667 7.988636363636364  C 4.919289122471658 7.988636363636364  4.71875 7.7698664118491365  4.71875 7.5  C 4.71875 7.2301335881508635  4.919289122471658 7.011363636363636  5.166666666666667 7.011363636363636  C 5.414044210861675 7.011363636363636  5.614583333333333 7.2301335881508635  5.614583333333333 7.5  C 5.614583333333333 7.7698664118491365  5.414044210861675 7.988636363636364  5.166666666666667 7.988636363636364  Z M 3.385416666666667 3.820402298850572  C 3.385416666666667 3.8042198275862043  3.3866979166666624 3.7883290229885063  3.3891562499999663 3.772810344827586  C 3.4149583333333644 3.2826997126436765  3.57451041666665 2.8888692528735667  3.867802083333345 2.591339080459771  C 4.194843750000018 2.244054597701151  4.652697916666663 2.070402298850577  5.2413749999999855 2.070402298850577  C 5.770083333333332 2.070402298850577  6.189791666666679 2.209849137931035  6.500479166666688 2.4887327586206895  C 6.80571875000002 2.7570862068965503  6.958333333333333 3.128045977011491  6.958333333333333 3.6016422413793143  C 6.958333333333333 3.954186781609195  6.854770833333305 4.262015804597705  6.647645833333323 4.525119252873566  C 6.55497916666665 4.630350574712641  6.334229166666697 4.832938218390808  5.985385416666683 5.13287212643678  C 5.810968750000029 5.2749439655172425  5.682885416666674 5.419650862068968  5.601114583333356 5.566982758620687  C 5.509718749999971 5.715591954022993  5.458645833333321 5.882646551724141  5.447916666666667 6.068146551724141  L 5.447916666666667 6.289511494252878  C 5.447916666666667 6.464481321839078  5.301010416666637 6.606321839080465  5.119791666666666 6.606321839080465  C 4.950895833333334 6.606321839080465  4.811812500000012 6.483117816091958  4.793666666666695 6.324712643678159  L 4.791666666666667 6.028017241379312  C 4.791666666666667 6.002431034482764  4.794812500000035 5.977558908045978  4.800729166666694 5.953732758620694  C 4.819041666666635 5.7686451149425295  4.865083333333359 5.60289798850575  4.938854166666639 5.456491379310346  C 5.053322916666653 5.219698275862072  5.328583333333351 4.914494252873567  5.764635416666655 4.540899425287355  C 5.917249999999967 4.393557471264368  6.009916666666641 4.298846264367816  6.042624999999968 4.256755747126438  C 6.206135416666636 4.056803160919543  6.287895833333323 3.84895545977012  6.287895833333323 3.6332126436781587  C 6.287895833333323 3.322748563218397  6.195239583333356 3.0780704022988536  6.009916666666641 2.89916810344828  C 5.824593750000001 2.7149956896551735  5.557510416666673 2.6229094827586246  5.208666666666659 2.6229094827586246  C 4.7998645833332985 2.6229094827586246  4.497354166666659 2.7518261494252934  4.301125000000033 3.0096695402298885  C 4.121260416666701 3.2306724137931058  4.031322916666643 3.5332313218390823  4.031322916666643 3.9173563218390846  C 4.031322916666643 4.089540229885055  3.886666666666694 4.242816091954022  3.7083333333333335 4.242816091954022  C 3.5299999999999727 4.242816091954022  3.385416666666667 4.103218390804594  3.385416666666667 3.931034482758624  L 3.385416666666667 3.820402298850572  Z " fill-rule="nonzero" fill="#999999" stroke="none" transform="matrix(1 0 0 1 2687 254 )" />
  </g>
</svg>