<?xml version="1.0" encoding="utf-8"?>
<svg version="1.1" xmlns:xlink="http://www.w3.org/1999/xlink" width="224px" height="185px" xmlns="http://www.w3.org/2000/svg">
  <g transform="matrix(1 0 0 1 -3452 -181 )">
    <path d="M 3453 184  A 2 2 0 0 1 3455 182 L 3673 182  A 2 2 0 0 1 3675 184 L 3675 363  A 2 2 0 0 1 3673 365 L 3455 365  A 2 2 0 0 1 3453 363 L 3453 184  Z " fill-rule="nonzero" fill="#d9001b" stroke="none" fill-opacity="0.09803921568627451" />
    <path d="M 3452.5 184  A 2.5 2.5 0 0 1 3455 181.5 L 3673 181.5  A 2.5 2.5 0 0 1 3675.5 184 L 3675.5 363  A 2.5 2.5 0 0 1 3673 365.5 L 3455 365.5  A 2.5 2.5 0 0 1 3452.5 363 L 3452.5 184  Z " stroke-width="1" stroke-dasharray="9,4" stroke="#d9001b" fill="none" stroke-dashoffset="0.5" />
  </g>
</svg>