<?xml version="1.0" encoding="utf-8"?>
<svg version="1.1" xmlns:xlink="http://www.w3.org/1999/xlink" width="9px" height="8px" xmlns="http://www.w3.org/2000/svg">
  <g transform="matrix(1 0 0 1 -4037 -654 )">
    <path d="M 8.979447115384614 5.475555555555555  C 8.979447115384614 5.2299999999999995  8.786899038461538 5.031111111111111  8.547836538461539 5.031111111111111  L 0.45216346153846165 5.031111111111111  C 0.21310096153846173 5.031111111111111  0.019471153846153968 5.2299999999999995  0.019471153846153968 5.475555555555555  C 0.019471153846153968 5.568888888888888  0.04759615384615391 5.655555555555556  0.09519230769230783 5.726666666666667  C 0.1157451923076925 5.776666666666666  0.1471153846153847 5.823333333333333  0.18605769230769248 5.864444444444444  L 2.0931490384615383 7.822222222222222  C 2.1775240384615384 7.908888888888888  2.287860576923077 7.952222222222223  2.3992788461538463 7.952222222222223  C 2.5106971153846156 7.952222222222223  2.621033653846154 7.90888888888889  2.705408653846154 7.822222222222222  C 2.8741586538461545 7.648888888888889  2.8741586538461545 7.367777777777778  2.705408653846154 7.193333333333333  L 1.463581730769231 5.92  L 8.546754807692306 5.92  C 8.785817307692307 5.92  8.979447115384614 5.721111111111111  8.979447115384614 5.475555555555555  Z M 0.019471153846153968 2.524444444444445  C 0.019471153846153968 2.770000000000001  0.21310096153846173 2.9688888888888894  0.45216346153846165 2.968888888888889  L 8.547836538461539 2.968888888888889  C 8.78689903846154 2.968888888888889  8.980528846153847 2.77  8.980528846153847 2.5244444444444443  C 8.980528846153847 2.4311111111111114  8.952403846153846 2.3444444444444446  8.904807692307692 2.273333333333333  C 8.889663461538463 2.2366666666666664  8.868028846153846 2.2011111111111106  8.842067307692309 2.1677777777777774  L 7.282211538461539 0.21000000000000008  C 7.130769230769231 0.020000000000000125  6.858173076923077 -0.007777777777777652  6.673197115384616 0.1477777777777779  C 6.488221153846155 0.30333333333333345  6.461177884615385 0.5833333333333334  6.612620192307693 0.7733333333333335  L 7.654326923076923 2.0800000000000005  L 0.45216346153846165 2.0800000000000005  C 0.21310096153846173 2.0800000000000005  0.019471153846153968 2.278888888888889  0.019471153846153968 2.524444444444445  Z " fill-rule="nonzero" fill="#e7772d" stroke="none" transform="matrix(1 0 0 1 4037 654 )" />
  </g>
</svg>