<?xml version="1.0" encoding="utf-8"?>
<svg version="1.1" xmlns:xlink="http://www.w3.org/1999/xlink" width="343px" height="40px" xmlns="http://www.w3.org/2000/svg">
  <g transform="matrix(1 0 0 1 -2933 -557 )">
    <path d="M 2934 560  A 2 2 0 0 1 2936 558 L 3273 558  A 2 2 0 0 1 3275 560 L 3275 594  A 2 2 0 0 1 3273 596 L 2936 596  A 2 2 0 0 1 2934 594 L 2934 560  Z " fill-rule="nonzero" fill="#d9001b" stroke="none" fill-opacity="0.09803921568627451" />
    <path d="M 2933.5 560  A 2.5 2.5 0 0 1 2936 557.5 L 3273 557.5  A 2.5 2.5 0 0 1 3275.5 560 L 3275.5 594  A 2.5 2.5 0 0 1 3273 596.5 L 2936 596.5  A 2.5 2.5 0 0 1 2933.5 594 L 2933.5 560  Z " stroke-width="1" stroke-dasharray="9,4" stroke="#d9001b" fill="none" stroke-dashoffset="0.5" />
  </g>
</svg>