<?xml version="1.0" encoding="utf-8"?>
<svg version="1.1" xmlns:xlink="http://www.w3.org/1999/xlink" width="592px" height="85px" xmlns="http://www.w3.org/2000/svg">
  <g transform="matrix(1 0 0 1 -2699 -1740 )">
    <path d="M 2700 1743  A 2 2 0 0 1 2702 1741 L 3288 1741  A 2 2 0 0 1 3290 1743 L 3290 1822  A 2 2 0 0 1 3288 1824 L 2702 1824  A 2 2 0 0 1 2700 1822 L 2700 1743  Z " fill-rule="nonzero" fill="#d9001b" stroke="none" fill-opacity="0.09803921568627451" />
    <path d="M 2699.5 1743  A 2.5 2.5 0 0 1 2702 1740.5 L 3288 1740.5  A 2.5 2.5 0 0 1 3290.5 1743 L 3290.5 1822  A 2.5 2.5 0 0 1 3288 1824.5 L 2702 1824.5  A 2.5 2.5 0 0 1 2699.5 1822 L 2699.5 1743  Z " stroke-width="1" stroke-dasharray="9,4" stroke="#d9001b" fill="none" stroke-dashoffset="0.5" />
  </g>
</svg>