<?xml version="1.0" encoding="utf-8"?>
<svg version="1.1" xmlns:xlink="http://www.w3.org/1999/xlink" width="100px" height="73px" xmlns="http://www.w3.org/2000/svg">
  <g transform="matrix(1 0 0 1 -3999 -703 )">
    <path d="M 4000 706  A 2 2 0 0 1 4002 704 L 4096 704  A 2 2 0 0 1 4098 706 L 4098 773  A 2 2 0 0 1 4096 775 L 4002 775  A 2 2 0 0 1 4000 773 L 4000 706  Z " fill-rule="nonzero" fill="#d9001b" stroke="none" fill-opacity="0.09803921568627451" />
    <path d="M 3999.5 706  A 2.5 2.5 0 0 1 4002 703.5 L 4096 703.5  A 2.5 2.5 0 0 1 4098.5 706 L 4098.5 773  A 2.5 2.5 0 0 1 4096 775.5 L 4002 775.5  A 2.5 2.5 0 0 1 3999.5 773 L 3999.5 706  Z " stroke-width="1" stroke-dasharray="9,4" stroke="#d9001b" fill="none" stroke-dashoffset="0.5" />
  </g>
</svg>