<?xml version="1.0" encoding="utf-8"?>
<svg version="1.1" xmlns:xlink="http://www.w3.org/1999/xlink" width="16px" height="16px" xmlns="http://www.w3.org/2000/svg">
  <g transform="matrix(1 0 0 1 -2956 -1756 )">
    <path d="M 2964 1757  C 2967.92 1757  2971 1760.08  2971 1764  C 2971 1767.92  2967.92 1771  2964 1771  C 2960.08 1771  2957 1767.92  2957 1764  C 2957 1760.08  2960.08 1757  2964 1757  Z " fill-rule="nonzero" fill="#d7d7d7" stroke="none" />
    <path d="M 2964 1757  C 2967.92 1757  2971 1760.08  2971 1764  C 2971 1767.92  2967.92 1771  2964 1771  C 2960.08 1771  2957 1767.92  2957 1764  C 2957 1760.08  2960.08 1757  2964 1757  Z " stroke-width="2" stroke="#999999" fill="none" />
  </g>
</svg>