<?xml version="1.0" encoding="utf-8"?>
<svg version="1.1" xmlns:xlink="http://www.w3.org/1999/xlink" width="166px" height="308px" xmlns="http://www.w3.org/2000/svg">
  <g transform="matrix(1 0 0 1 -3643 -797 )">
    <path d="M 3644 800  A 2 2 0 0 1 3646 798 L 3806 798  A 2 2 0 0 1 3808 800 L 3808 1102  A 2 2 0 0 1 3806 1104 L 3646 1104  A 2 2 0 0 1 3644 1102 L 3644 800  Z " fill-rule="nonzero" fill="#d9001b" stroke="none" fill-opacity="0.09803921568627451" />
    <path d="M 3643.5 800  A 2.5 2.5 0 0 1 3646 797.5 L 3806 797.5  A 2.5 2.5 0 0 1 3808.5 800 L 3808.5 1102  A 2.5 2.5 0 0 1 3806 1104.5 L 3646 1104.5  A 2.5 2.5 0 0 1 3643.5 1102 L 3643.5 800  Z " stroke-width="1" stroke-dasharray="9,4" stroke="#d9001b" fill="none" stroke-dashoffset="0.5" />
  </g>
</svg>