<?xml version="1.0" encoding="utf-8"?>
<svg version="1.1" xmlns:xlink="http://www.w3.org/1999/xlink" width="473px" height="399px" xmlns="http://www.w3.org/2000/svg">
  <g transform="matrix(1 0 0 1 -4530 -2127 )">
    <path d="M 4531 2130  A 2 2 0 0 1 4533 2128 L 5000 2128  A 2 2 0 0 1 5002 2130 L 5002 2523  A 2 2 0 0 1 5000 2525 L 4533 2525  A 2 2 0 0 1 4531 2523 L 4531 2130  Z " fill-rule="nonzero" fill="#d9001b" stroke="none" fill-opacity="0.09803921568627451" />
    <path d="M 4530.5 2130  A 2.5 2.5 0 0 1 4533 2127.5 L 5000 2127.5  A 2.5 2.5 0 0 1 5002.5 2130 L 5002.5 2523  A 2.5 2.5 0 0 1 5000 2525.5 L 4533 2525.5  A 2.5 2.5 0 0 1 4530.5 2523 L 4530.5 2130  Z " stroke-width="1" stroke-dasharray="9,4" stroke="#d9001b" fill="none" stroke-dashoffset="0.5" />
  </g>
</svg>