<?xml version="1.0" encoding="utf-8"?>
<svg version="1.1" xmlns:xlink="http://www.w3.org/1999/xlink" width="20px" height="20px" xmlns="http://www.w3.org/2000/svg">
  <g transform="matrix(1 0 0 1 -3553 -3159 )">
    <path d="M 6.353909475308642 14.650205771604936  L 2.403292191358025 18.600823055555555  L 5.432098765432098 18.600823055555555  L 5.432098765432098 19.91769546296296  L 0.16460904320987685 19.91769546296296  L 0.16460904320987685 14.650205771604936  L 1.4814814814814814 14.650205771604936  L 1.4814814814814814 17.67901234567901  L 5.432098765432098 13.728395061728394  L 6.353909475308642 14.650205771604936  Z M 14.650205771604936 18.600823055555555  L 17.67901234567901 18.600823055555555  L 13.728395061728394 14.650205771604936  L 14.650205771604936 13.728395061728394  L 18.600823055555555 17.67901234567901  L 18.600823055555555 14.650205771604936  L 19.91769546296296 14.650205771604936  L 19.91769546296296 19.91769546296296  L 14.650205771604936 19.91769546296296  L 14.650205771604936 18.600823055555555  Z M 5.432098765432098 1.4814814814814814  L 2.403292191358025 1.4814814814814814  L 6.353909475308642 5.432098765432098  L 5.432098765432098 6.353909475308642  L 1.4814814814814814 2.403292191358025  L 1.4814814814814814 5.432098765432098  L 0.16460904320987685 5.432098765432098  L 0.16460904320987685 0.16460904320987685  L 5.432098765432098 0.16460904320987685  L 5.432098765432098 1.4814814814814814  Z M 13.728395061728394 5.432098765432098  L 17.67901234567901 1.4814814814814814  L 14.650205771604936 1.4814814814814814  L 14.650205771604936 0.16460904320987685  L 19.91769546296296 0.16460904320987685  L 19.91769546296296 5.432098765432098  L 18.600823055555555 5.432098765432098  L 18.600823055555555 2.403292191358025  L 14.650205771604936 6.353909475308642  L 13.728395061728394 5.432098765432098  Z " fill-rule="nonzero" fill="#999999" stroke="none" transform="matrix(1 0 0 1 3553 3159 )" />
  </g>
</svg>