<?xml version="1.0" encoding="utf-8"?>
<svg version="1.1" xmlns:xlink="http://www.w3.org/1999/xlink" width="40px" height="36px" xmlns="http://www.w3.org/2000/svg">
  <g transform="matrix(1 0 0 1 -3827 -3179 )">
    <path d="M 36.33702619469026 17.02653679411765  C 38.41629318584071 16.42441760294118  39.94217597345133 14.511916191176475  39.94217597345133 12.246877014705884  C 39.94217597345133 10.916094794117647  39.422039513274335 9.66468136764706  38.4786328761062 8.724368205882355  C 37.54473441980293 7.78704623724274  36.27340138518022 7.261436159166608  34.9482907079646 7.264810897058825  C 33.6221643447175 7.261046340733072  32.34969344322731 7.786650881695404  31.414751592920357 8.724368205882353  C 30.474808098699413 9.656582676727254  29.948025199168995 10.925017080581593  29.9518478761062 12.246877014705884  C 29.9518478761062 13.576065485294118  30.471344955752215 14.826203911764708  31.415390973451327 15.76747336764706  C 31.610721858407082 15.962548499999999  31.822356991150443 16.134036132352943  32.04230402654867 16.29213626470588  C 30.364568274336282 17.965893750000003  27.70090703539823 18.435412852941177  25.525413230088496 17.266555720588237  C 23.870055840707963 16.37756130882353  22.578825884955755 14.833535205882354  22.076272389380527 13.165196470588235  C 21.858563141592917 12.159539470588236  22.402356681415924 9.668187661764705  22.431448539823005 9.591050073529411  C 23.981308097345128 8.744449455882352  25.034688274336276 7.101929514705882  25.034688274336276 5.218753147058824  C 25.034688274336276 3.8905209264705887  24.51519119469026 2.64070125  23.571145176991152 1.6991130441176494  C 22.63728913787582 0.7621557679279513  21.366264181225052 0.23669265174662046  20.04144238938053 0.23987448529411784  C 18.715390418303983 0.2361679369655367  17.442978898001453 0.7616331696019872  16.507903274336286 1.6991130441176494  C 15.568103193257032 2.6303002315172606  15.04108347699863 3.8977174546578595  15.04436017699115 5.218753147058824  C 15.04057877174082 6.541104694589852  15.567590758939634 7.809995450807301  16.507903274336282 8.742536955882352  C 16.898009548921248 9.129946650414205  17.34976974873916 9.450267856377705  17.844848938053094 9.690500161764707  C 17.855398716814157 9.712175161764707  17.864030353982297 9.734168955882353  17.875539247787607 9.755206455882353  C 17.98231588495575 9.953150338235297  18.408783008849557 12.185995720588236  18.140242964601768 13.167108970588236  C 17.630656327433623 14.852341455882353  16.320884336283182 16.419955102941177  14.643468274336282 17.321062014705884  C 12.3998803539823 18.524981647058823  9.712561991150439 18.058331294117647  8.001258761061944 16.316998764705886  C 9.285135796460175 15.414935602941178  10.127200575221236 13.928603250000004  10.127200619469024 12.247195764705884  C 10.127200619469024 10.91450104411765  9.608982300884954 9.663087617647058  8.667493761061944 8.724686955882355  C 7.724087079646015 7.783417500000002  6.468982212389377 7.265129647058825  5.133954690265484 7.265129647058825  C 3.7989271681415913 7.265129647058825  2.544141946902653 7.783417544117649  1.6004156194690233 8.724686955882355  C 0.6604187054482652 9.656917283661912  0.13343291185435363 10.925285838919534  0.13687247787610352 12.247195764705884  C 0.13375818704819786 13.568605617983968  0.66099497534924 14.836335484979337  1.6010549999999968 15.767792117647058  C 2.196832711576557 16.363241461462998  2.935004841878079 16.797448069827535  3.745858539823007 17.029405544117648  L 7.917499867256634 34.29387445588236  C 8.12470714582706 35.153099764338535  8.89561385055433 35.758706363388576  9.781934867256636 35.758531764705886  L 30.30031053097346 35.75853176470589  C 31.18659116906887 35.75859021497673  31.957434418120528 35.15303345087643  32.164745486725664 34.29387445588236  L 36.33702619469026 17.02653679411765  Z " fill-rule="nonzero" fill="#f1c04d" stroke="none" transform="matrix(1 0 0 1 3827 3179 )" />
  </g>
</svg>