<?xml version="1.0" encoding="utf-8"?>
<svg version="1.1" xmlns:xlink="http://www.w3.org/1999/xlink" width="29px" height="26px" xmlns="http://www.w3.org/2000/svg">
  <g transform="matrix(1 0 0 1 -3663 -3209 )">
    <path d="M 26.344343991150442 12.29694324019608  C 27.851812559734515 11.862079379901964  28.95807758075221 10.48082836029412  28.958077580752214 8.844966732843139  C 28.958077580752214 7.883846240196079  28.580978647123892 6.980047654411766  27.89700883517699 6.300932593137257  C 27.21993245435712 5.623977838008646  26.29821600425566 5.244370559398106  25.337510763274338 5.24680787009804  C 24.376069149920188 5.244089023862775  23.453527746339798 5.62369230344668  22.775694904867258 6.300932593137254  C 22.09423587155707 6.974198599858573  21.712318269397525 7.890290113753373  21.715089710176994 8.844966732843139  C 21.715089710176994 9.804936183823528  22.091725092920356 10.70781393627451  22.776158455752213 11.387619654411765  C 22.917773347345133 11.528507249999999  23.071208818584072 11.65235942892157  23.230670419247787 11.766542857843138  C 22.014311998893803 12.975367708333335  20.083157600663718 13.314464838235295  18.50592459181416 12.47029024264706  C 17.305790484513274 11.828238723039217  16.36964876659292 10.713108759803923  16.005297482300882 9.508197450980392  C 15.847458277654866 8.781889617647058  16.241708594026544 6.982579977941176  16.262800191371678 6.92686949754902  C 17.38644837057522 6.3154357181372545  18.1501489988938 5.12917131617647  18.1501489988938 3.7690994950980397  C 18.1501489988938 2.8098206691176473  17.77351361615044 1.9071731250000001  17.089080253318585 1.2271371985294135  C 16.41203462495997 0.5504458323924093  15.490541531388162 0.1709446929281148  14.530045732300884 0.17324268382352956  C 13.568658053270386 0.17056573225288763  12.646159701051054 0.5500684002681019  11.968229873893806 1.2271371985294135  C 11.286874815111348 1.8996612783180216  10.904785520824007 2.815018161697343  10.907161128318583 3.7690994950980397  C 10.904419609512095 4.724131168314893  11.286503300231233 5.640552270027495  11.968229873893804 6.314054468137255  C 12.251056922967903 6.593850358632482  12.578583067835892 6.825193451828342  12.937515480088495 6.998694561274511  C 12.945164069690264 7.014348727941178  12.951422006637166 7.030233134803922  12.959765954646016 7.0454268848039225  C 13.03717901659292 7.188386355392159  13.346367681415929 8.800996909313726  13.15167614933628 9.509578700980393  C 12.782225837389378 10.726691051470588  11.832641143805308 11.858856463235293  10.616514498893805 12.509655899509804  C 8.989913256637168 13.379153411764706  7.041607443584068 13.042128156862745  5.80091260176991 11.78449910784314  C 6.731723452433626 11.13300904656863  7.342220417035396 10.05954679166667  7.342220449115042 8.845196941176471  C 7.342220449115042 7.882695198529413  6.966512168141592 6.978896612745098  6.2839329767699095 6.30116280147059  C 5.599963132743361 5.6213570833333355  4.690012103982299 5.247038078431373  3.722117150442476 5.247038078431373  C 2.7542221969026537 5.247038078431373  1.8445029115044231 5.62135711519608  1.160301324115042 6.30116280147059  C 0.47880356144999225 6.974440260422492  0.09673886109440638 7.89048421699744  0.09923254646017504 8.845196941176471  C 0.09697468560994345 9.799548501877311  0.479221357128199 10.715131183596187  1.1607648749999977 11.387849862745098  C 1.5927037158930037 11.81789661105661  2.127878510361607 12.131490272653219  2.71574744137168 12.29901511519608  L 5.74018740376106 24.76779821813726  C 5.890412680724618 25.388349829800053  6.449320041651889 25.825732373558413  7.09190277876106 25.825606274509806  L 21.967725134955757 25.82560627450981  C 22.61027859757493 25.8256484885943  23.169139953137385 25.388301936744085  23.319440477876107 24.76779821813726  L 26.344343991150442 12.29694324019608  Z " fill-rule="nonzero" fill="#abbfc5" stroke="none" transform="matrix(1 0 0 1 3663 3209 )" />
  </g>
</svg>