<?xml version="1.0" encoding="utf-8"?>
<svg version="1.1" xmlns:xlink="http://www.w3.org/1999/xlink" width="5px" height="8px" xmlns="http://www.w3.org/2000/svg">
  <g transform="matrix(1 0 0 1 -3879 -3310 )">
    <path d="M 4.941558441558442 1.8240740740740744  C 4.997835497835498 1.8734567901234565  5.008658008658009 1.9274691358024691  4.974025974025974 1.9861111111111107  C 4.935064935064935 2.0447530864197523  4.872294372294372 2.0740740740740744  4.785714285714286 2.0740740740740744  L 3.3311688311688314 2.0740740740740744  L 3.3311688311688314 7.851851851851852  C 3.3311688311688314 7.895061728395062  3.311688311688312 7.930555555555555  3.2727272727272725 7.958333333333333  C 3.2337662337662336 7.986111111111111  3.183982683982684 8  3.1233766233766236 8  L 1.8766233766233766 8  C 1.8160173160173163 8  1.7662337662337664 7.986111111111111  1.7272727272727273 7.958333333333333  C 1.6883116883116882 7.930555555555555  1.6688311688311688 7.895061728395062  1.6688311688311688 7.851851851851852  L 1.6688311688311688 2.0740740740740744  L 0.2142857142857143 2.0740740740740744  C 0.12337662337662339 2.0740740740740744  0.06060606060606061 2.0447530864197523  0.025974025974025976 1.9861111111111107  C -0.008658008658008663 1.9274691358024691  0.0021645021645021597 1.8734567901234565  0.05844155844155845 1.8240740740740744  L 2.331168831168831 0.046296296296296724  C 2.374458874458875 0.015432098765431945  2.4242424242424248 0  2.4805194805194803 0  C 2.5411255411255413 0  2.5930735930735933 0.015432098765431945  2.6363636363636362 0.046296296296296724  L 4.941558441558442 1.8240740740740744  Z " fill-rule="nonzero" fill="#0fc060" stroke="none" transform="matrix(1 0 0 1 3879 3310 )" />
  </g>
</svg>