<?xml version="1.0" encoding="utf-8"?>
<svg version="1.1" xmlns:xlink="http://www.w3.org/1999/xlink" width="18px" height="18px" viewBox="1068 1135  18 18" xmlns="http://www.w3.org/2000/svg">
  <path d="M 1068.5 1138  A 2.5 2.5 0 0 1 1071 1135.5 L 1083 1135.5  A 2.5 2.5 0 0 1 1085.5 1138 L 1085.5 1150  A 2.5 2.5 0 0 1 1083 1152.5 L 1071 1152.5  A 2.5 2.5 0 0 1 1068.5 1150 L 1068.5 1138  Z " fill-rule="nonzero" fill="#f0f0f0" stroke="none" />
  <path d="M 1068.5 1138  A 2.5 2.5 0 0 1 1071 1135.5 L 1083 1135.5  A 2.5 2.5 0 0 1 1085.5 1138 L 1085.5 1150  A 2.5 2.5 0 0 1 1083 1152.5 L 1071 1152.5  A 2.5 2.5 0 0 1 1068.5 1150 L 1068.5 1138  Z " stroke-width="1" stroke="#797979" fill="none" />
</svg>