<?xml version="1.0" encoding="utf-8"?>
<svg version="1.1" xmlns:xlink="http://www.w3.org/1999/xlink" width="14px" height="14px" xmlns="http://www.w3.org/2000/svg">
  <g transform="matrix(1 0 0 1 -391 -118 )">
    <path d="M 10.206600660066007 3.793399339933993  C 9.975577557755777 3.5623762376237624  9.86006600660066 3.283608360836082  9.86006600660066 2.9570957095709574  C 9.86006600660066 2.630583058305829  9.975577557755777 2.351815181518152  10.206600660066007 2.120792079207921  C 10.437623762376237 1.8897689768976904  10.716391639163916 1.7742574257425743  11.042904290429043 1.7742574257425743  C 11.369416941694169 1.7742574257425743  11.648184818481848 1.8897689768976904  11.879207920792078 2.120792079207921  C 12.11023102310231 2.351815181518152  12.225742574257426 2.630583058305829  12.225742574257426 2.9570957095709574  C 12.225742574257426 3.283608360836082  12.11023102310231 3.5623762376237624  11.879207920792078 3.793399339933993  C 11.648184818481848 4.024422442244224  11.369416941694169 4.13993399339934  11.042904290429043 4.13993399339934  C 10.716391639163916 4.13993399339934  10.437623762376237 4.024422442244224  10.206600660066007 3.793399339933993  Z M 0.3419141914191417 7.438943894389439  C 0.11397139713971338 7.67920792079208  0 7.95951595159516  0 8.27986798679868  C 0 8.606380638063804  0.11397139713971338 8.883608360836082  0.3419141914191417 9.111551155115512  L 4.879207920792079 13.658085808580859  C 5.119471947194718 13.886028602860286  5.3997799779978 14  5.7201320132013205 14  C 6.046644664466447 14  6.323872387238723 13.886028602860286  6.551815181518153 13.658085808580859  L 13.15907590759076 7.041584158415842  C 13.393179317931793 6.813641364136413  13.591859185918592 6.502530253025302  13.755115511551155 6.108250825082509  C 13.918371837183718 5.713971397139714  14 5.353575357535753  14 5.027062706270627  L 14 1.1828382838283829  C 14 0.8624862486248626  13.882948294829482 0.5852585258525851  13.64884488448845 0.35115511551155043  C 13.414741474147416 0.11705170517051577  13.137513751375138 0  12.817161716171617 0  L 8.972937293729373 0  C 8.646424642464245 0  8.286028602860284 0.08162816281628049  7.891749174917491 0.24488448844884458  C 7.497469746974697 0.4081408140814071  7.183278327832783 0.6068206820682049  6.949174917491749 0.8409240924092412  L 0.3419141914191417 7.438943894389439  Z " fill-rule="nonzero" fill="#999999" stroke="none" transform="matrix(1 0 0 1 391 118 )" />
  </g>
</svg>