<?xml version="1.0" encoding="utf-8"?>
<svg version="1.1" xmlns:xlink="http://www.w3.org/1999/xlink" width="46px" height="46px" xmlns="http://www.w3.org/2000/svg">
  <g transform="matrix(1 0 0 1 -60 -297 )">
    <path d="M 45.830381571428575 23.038929040178573  C 45.830381571428575 35.63092196205357  35.61106341294643 45.84062606919643  23.004150319196427 45.84062606919643  C 10.398393026785714 45.84062606919643  0.1826998325892825 35.630869441964286  0.1826998325892825 23.038929040178573  C 0.1826998325892825 13.373548477678572  6.198732977678569 5.11596993526786  14.695034167410709 1.7974405022321451  C 17.26214394866071 0.7618546183035735  20.066715587053565 0.18994981250000248  23.004728194196428 0.18994981250000248  C 25.946365765625 0.18994981250000248  28.748520761160716 0.761276743303574  31.318047185267858 1.7974405022321451  C 39.81382307142857 5.115969935267857  45.830381571428575 13.373600997767856  45.830381571428575 23.038929040178573  Z M 14.231983587053572 18.23016882142857  C 14.231983587053572 22.072742986607143  16.200815571428574 25.399625629464285  19.062861386160716 27.028078149553572  C 20.24980292857143 27.703478488839288  21.586261361607146 28.09297902232143  23.004150319196427 28.09297902232143  C 24.372287863839286 28.09297902232143  25.66214706473214 27.728643209821435  26.81798737053571 27.099264176339293  C 29.747646767857145 25.501912892857153  31.779942015625004 22.13436753348215  31.779942015625004 18.230799267857147  C 31.779942015625004 12.795654584821433  27.844064243303574 8.371614082589291  23.004202839285714 8.371614082589291  C 18.167283433035713 8.37103615625  14.231983587053572 12.795129178571427  14.231983587053572 18.23016882142857  Z M 23.096876051339283 44.36300390401786  C 29.764983633928576 44.36300390401786  35.71335067633928 41.29638366517857  39.612138125 36.49723744642857  C 39.151556707589286 32.711507011160705  35.462649752232146 29.488750348214285  30.241798636160716 27.881207138392853  C 28.269972082589288 29.65502617857143  25.750722426339287 30.72234369419643  23.003519924107138 30.72234369419643  C 20.195323321428567 30.72234369419643  17.624693616071426 29.597604573660714  15.633691531249994 27.74661036830357  C 10.555107377232138 29.196125866071426  6.835204328124995 32.152736180803565  5.963004848214282 35.69554097544643  C 9.831846861607143 40.9511708125  16.067427122767857 44.36300390401786  23.096876051339283 44.36300390401786  Z " fill-rule="nonzero" fill="#cccccc" stroke="none" transform="matrix(1 0 0 1 60 297 )" />
  </g>
</svg>