<?xml version="1.0" encoding="utf-8"?>
<svg version="1.1" xmlns:xlink="http://www.w3.org/1999/xlink" width="12px" height="10px" xmlns="http://www.w3.org/2000/svg">
  <g transform="matrix(1 0 0 1 -1378 -1506 )">
    <path d="M 11.972596153846153 6.844444444444444  C 11.972596153846153 6.5375  11.715865384615384 6.288888888888888  11.397115384615384 6.288888888888888  L 0.6028846153846156 6.288888888888888  C 0.2841346153846156 6.288888888888888  0.025961538461538626 6.5375  0.025961538461538626 6.844444444444444  C 0.025961538461538626 6.96111111111111  0.06346153846153854 7.069444444444445  0.12692307692307708 7.158333333333333  C 0.1543269230769233 7.220833333333333  0.1961538461538463 7.279166666666667  0.2480769230769233 7.330555555555555  L 2.7908653846153846 9.777777777777777  C 2.903365384615385 9.88611111111111  3.050480769230769 9.940277777777778  3.1990384615384615 9.940277777777778  C 3.3475961538461543 9.940277777777778  3.494711538461538 9.886111111111113  3.607211538461539 9.777777777777777  C 3.8322115384615394 9.561111111111112  3.8322115384615394 9.209722222222222  3.607211538461539 8.991666666666667  L 1.9514423076923078 7.4  L 11.395673076923075 7.4  C 11.714423076923076 7.4  11.972596153846153 7.151388888888889  11.972596153846153 6.844444444444444  Z M 0.025961538461538626 3.1555555555555563  C 0.025961538461538626 3.4625000000000012  0.2841346153846156 3.7111111111111117  0.6028846153846156 3.7111111111111112  L 11.397115384615384 3.7111111111111112  C 11.715865384615386 3.7111111111111112  11.974038461538463 3.4625  11.974038461538463 3.1555555555555554  C 11.974038461538463 3.038888888888889  11.936538461538461 2.930555555555556  11.873076923076923 2.8416666666666663  C 11.852884615384617 2.795833333333333  11.824038461538462 2.751388888888888  11.789423076923079 2.7097222222222217  L 9.709615384615384 0.26250000000000007  C 9.50769230769231 0.025000000000000158  9.144230769230768 -0.009722222222222065  8.897596153846155 0.18472222222222237  C 8.650961538461539 0.3791666666666668  8.614903846153847 0.7291666666666667  8.816826923076924 0.9666666666666669  L 10.205769230769231 2.6000000000000005  L 0.6028846153846156 2.6000000000000005  C 0.2841346153846156 2.6000000000000005  0.025961538461538626 2.8486111111111114  0.025961538461538626 3.1555555555555563  Z " fill-rule="nonzero" fill="#e7772d" stroke="none" transform="matrix(1 0 0 1 1378 1506 )" />
  </g>
</svg>