<?xml version="1.0" encoding="utf-8"?>
<svg version="1.1" xmlns:xlink="http://www.w3.org/1999/xlink" width="16px" height="16px" xmlns="http://www.w3.org/2000/svg">
  <g transform="matrix(1 0 0 1 -341 -1313 )">
    <path d="M 15.94374596296296 15.367843245283018  C 15.943727037037037 15.250491264150943  15.902283148148149 15.136595358490567  15.819300592592592 15.030905188679245  L 12.190505203703704 11.463428094339623  L 12.224520666666665 11.419985849056603  C 13.201702277777777 10.187191490566038  13.739885537037036 8.635029075471698  13.739885537037036 7.050294603773584  C 13.739885537037036 3.2065827547169805  10.670573351851852 0.07908869811320692  6.8989319999999985 0.07908869811320692  C 3.1261347037037024 0.07908869811320692  0.05623505555555476 3.2065827547169805  0.05623505555555476 7.050294603773584  C 0.05623505555555476 10.893987150943396  3.1261347037037033 14.021191584905658  6.8989319999999985 14.021191584905658  C 8.552007370370369 14.021191584905658  10.14914198148148 13.408926245283016  11.396002685185184 12.298774169811319  L 11.436915981481482 12.2623599245283  L 15.057013259259259 15.789966698113206  L 15.093302722222221 15.789966698113206  L 15.093890166666664 15.82051141509434  C 15.18551396296296 15.886234698113206  15.288659444444443 15.920872660377357  15.40099572222222 15.920872660377357  C 15.700634944444444 15.920872660377357  15.94374596296296 15.671958245283019  15.94374596296296 15.367843245283018  Z M 12.652622703703704 7.050313924528301  C 12.652622703703704 10.283478811320753  10.071332814814816 12.913452981132075  6.898913055555556 12.913452981132075  C 3.72560262962963 12.913452981132075  1.1443506481481482 10.283478811320753  1.1443506481481482 7.050313924528301  C 1.1443506481481482 3.817438641509434  3.72560262962963 1.1880437169811322  6.898913055555556 1.1880437169811322  C 10.071313870370371 1.1880437169811322  12.652622703703704 3.817438641509434  12.652622703703704 7.050313924528301  Z " fill-rule="nonzero" fill="#999999" stroke="none" transform="matrix(1 0 0 1 341 1313 )" />
  </g>
</svg>