<?xml version="1.0" encoding="utf-8"?>
<svg version="1.1" xmlns:xlink="http://www.w3.org/1999/xlink" width="13px" height="14px" xmlns="http://www.w3.org/2000/svg">
  <g transform="matrix(1 0 0 1 -2447 -1375 )">
    <path d="M 3.31640625 10.56076388888889  C 3.5117187500000004 10.763310185185185  3.609375 11.007716049382715  3.609375 11.293981481481483  C 3.609375 11.580246913580245  3.5117187500000004 11.824652777777779  3.31640625 12.027199074074074  C 3.12109375 12.22974537037037  2.885416666666667 12.331018518518517  2.609375 12.331018518518517  C 2.338541666666667 12.331018518518517  2.104166666666667 12.228395061728396  1.90625 12.023148148148149  C 1.7083333333333335 11.817901234567902  1.609375 11.574845679012347  1.609375 11.293981481481483  C 1.609375 11.007716049382715  1.70703125 10.763310185185185  1.90234375 10.56076388888889  C 2.09765625 10.358217592592592  2.3333333333333335 10.256944444444443  2.609375 10.256944444444443  C 2.885416666666667 10.256944444444443  3.12109375 10.358217592592592  3.31640625 10.56076388888889  Z M 7.207031250000001 12.22974537037037  C 7.40234375 12.432291666666668  7.499999999999999 12.676697530864198  7.499999999999999 12.962962962962964  C 7.499999999999999 13.249228395061728  7.40234375 13.49363425925926  7.207031250000001 13.696180555555557  C 7.011718749999999 13.898726851851851  6.776041666666666 14  6.5 14  C 6.223958333333334 14  5.988281250000001 13.898726851851851  5.79296875 13.696180555555557  C 5.59765625 13.49363425925926  5.5 13.249228395061728  5.5 12.962962962962964  C 5.5 12.676697530864198  5.59765625 12.432291666666668  5.79296875 12.22974537037037  C 5.988281250000001 12.027199074074074  6.223958333333334 11.925925925925926  6.5 11.925925925925926  C 6.776041666666666 11.925925925925926  7.011718749999999 12.027199074074074  7.207031250000001 12.22974537037037  Z M 1.70703125 6.526041666666667  C 1.90234375 6.728587962962963  2 6.972993827160494  2 7.25925925925926  C 2 7.545524691358024  1.90234375 7.789930555555556  1.70703125 7.992476851851852  C 1.51171875 8.195023148148149  1.2760416666666667 8.296296296296296  1 8.296296296296296  C 0.7239583333333335 8.296296296296296  0.48828125 8.195023148148149  0.29296875 7.992476851851852  C 0.09765625 7.789930555555556  0 7.545524691358024  0 7.25925925925926  C 0 6.972993827160494  0.09765625 6.728587962962963  0.29296875 6.526041666666667  C 0.48828125 6.32349537037037  0.7239583333333335 6.222222222222221  1 6.222222222222221  C 1.2760416666666667 6.222222222222221  1.51171875 6.32349537037037  1.70703125 6.526041666666667  Z M 11.09765625 10.56076388888889  C 11.29296875 10.763310185185185  11.390625 11.007716049382715  11.390625 11.293981481481483  C 11.390625 11.574845679012347  11.291666666666668 11.817901234567902  11.09375 12.023148148148149  C 10.895833333333334 12.228395061728396  10.661458333333334 12.331018518518517  10.390625 12.331018518518517  C 10.114583333333334 12.331018518518517  9.87890625 12.22974537037037  9.68359375 12.027199074074074  C 9.48828125 11.824652777777779  9.390625 11.580246913580245  9.390625 11.293981481481483  C 9.390625 11.007716049382715  9.48828125 10.763310185185185  9.68359375 10.56076388888889  C 9.87890625 10.358217592592592  10.114583333333334 10.256944444444443  10.390625 10.256944444444443  C 10.666666666666668 10.256944444444443  10.90234375 10.358217592592592  11.09765625 10.56076388888889  Z M 3.4921875 2.309027777777778  C 3.736979166666667 2.5628858024691343  3.859375 2.8680555555555562  3.859375 3.224537037037037  C 3.859375 3.581018518518519  3.736979166666667 3.8861882716049365  3.4921875 4.140046296296296  C 3.2473958333333335 4.393904320987653  2.953125 4.520833333333333  2.609375 4.520833333333333  C 2.265625 4.520833333333333  1.971354166666667 4.393904320987653  1.7265625 4.140046296296296  C 1.4817708333333335 3.8861882716049365  1.359375 3.581018518518519  1.359375 3.224537037037037  C 1.359375 2.8680555555555562  1.4817708333333335 2.5628858024691343  1.7265625 2.309027777777778  C 1.971354166666667 2.0551697530864184  2.265625 1.9282407407407411  2.609375 1.9282407407407411  C 2.953125 1.9282407407407411  3.2473958333333335 2.0551697530864184  3.4921875 2.309027777777778  Z M 12.70703125 6.526041666666667  C 12.902343750000002 6.728587962962963  13.000000000000004 6.972993827160494  13 7.25925925925926  C 13.000000000000004 7.545524691358024  12.902343750000002 7.789930555555556  12.70703125 7.992476851851852  C 12.511718750000002 8.195023148148149  12.276041666666668 8.296296296296296  12 8.296296296296296  C 11.723958333333334 8.296296296296296  11.48828125 8.195023148148149  11.29296875 7.992476851851852  C 11.09765625 7.789930555555556  11 7.545524691358024  11 7.25925925925926  C 11 6.972993827160494  11.09765625 6.728587962962963  11.29296875 6.526041666666667  C 11.48828125 6.32349537037037  11.723958333333334 6.222222222222221  12 6.222222222222221  C 12.276041666666668 6.222222222222221  12.511718750000002 6.32349537037037  12.70703125 6.526041666666667  Z M 7.562500000000001 0.45370370370370416  C 7.854166666666668 0.7561728395061715  8 1.1234567901234556  8 1.5555555555555562  C 8 1.9876543209876538  7.854166666666668 2.3549382716049365  7.562500000000001 2.6574074074074066  C 7.270833333333334 2.9598765432098757  6.916666666666667 3.1111111111111107  6.5 3.1111111111111107  C 6.083333333333334 3.1111111111111107  5.729166666666668 2.9598765432098757  5.4375 2.6574074074074066  C 5.145833333333334 2.3549382716049365  5 1.9876543209876538  5 1.5555555555555562  C 5 1.1234567901234556  5.145833333333334 0.7561728395061715  5.4375 0.45370370370370416  C 5.729166666666668 0.15123456790123524  6.083333333333334 0  6.5 0  C 6.916666666666667 0  7.270833333333334 0.15123456790123524  7.562500000000001 0.45370370370370416  Z M 11.625 1.9444444444444438  C 11.96875 2.300925925925926  12.140625 2.7276234567901225  12.140625 3.224537037037037  C 12.140625 3.726851851851852  11.96875 4.154899691358024  11.625 4.508680555555556  C 11.28125 4.862461419753085  10.869791666666668 5.039351851851852  10.390625 5.039351851851852  C 9.90625 5.039351851851852  9.493489583333334 4.862461419753085  9.15234375 4.508680555555556  C 8.811197916666668 4.154899691358024  8.640625 3.726851851851852  8.640625 3.224537037037037  C 8.640625 2.7276234567901225  8.811197916666668 2.300925925925926  9.15234375 1.9444444444444438  C 9.493489583333334 1.587962962962963  9.90625 1.4097222222222219  10.390625 1.4097222222222219  C 10.869791666666668 1.4097222222222219  11.28125 1.587962962962963  11.625 1.9444444444444438  Z " fill-rule="nonzero" fill="#e7772d" stroke="none" transform="matrix(1 0 0 1 2447 1375 )" />
  </g>
</svg>