<?xml version="1.0" encoding="utf-8"?>
<svg version="1.1" xmlns:xlink="http://www.w3.org/1999/xlink" width="13px" height="12px" xmlns="http://www.w3.org/2000/svg">
  <g transform="matrix(1 0 0 1 -2450 -249 )">
    <path d="M 10.666964285714286 3.0115384615384606  L 9.030357142857142 1.3846153846153846  C 8.9375 1.2923076923076922  8.9375 1.153846153846154  9.030357142857142 1.0615384615384613  L 10.016964285714284 0.08076923076923069  C 10.109821428571427 -0.011538461538461702  10.249107142857142 -0.011538461538461702  10.341964285714285 0.08076923076923069  L 11.978571428571428 1.7076923076923074  C 12.071428571428571 1.7999999999999996  12.071428571428571 1.9384615384615382  11.978571428571428 2.03076923076923  L 10.991964285714284 3.0115384615384606  C 10.899107142857142 3.1038461538461526  10.759821428571428 3.1038461538461526  10.666964285714286 3.0115384615384606  Z M 1.857142857142857 10.153846153846153  L 4.642857142857143 9.346153846153847  L 10.040178571428571 3.980769230769231  C 10.121428571428572 3.8999999999999995  10.109821428571427 3.7615384615384615  10.016964285714284 3.68076923076923  L 8.380357142857143 2.0423076923076926  C 8.287500000000001 1.9500000000000006  8.148214285714285 1.938461538461539  8.078571428571431 2.019230769230769  L 2.669642857142857 7.384615384615385  L 1.857142857142857 10.153846153846153  Z M 13 11  L 0 11  L 0 12  L 13 12  L 13 11  Z " fill-rule="nonzero" fill="#000000" stroke="none" transform="matrix(1 0 0 1 2450 249 )" />
  </g>
</svg>