<?xml version="1.0" encoding="utf-8"?>
<svg version="1.1" xmlns:xlink="http://www.w3.org/1999/xlink" width="17px" height="16px" xmlns="http://www.w3.org/2000/svg">
  <g transform="matrix(1 0 0 1 -288 -1164 )">
    <path d="M 13.949107142857143 4.015384615384614  L 11.80892857142857 1.8461538461538463  C 11.6875 1.723076923076923  11.6875 1.5384615384615385  11.80892857142857 1.4153846153846152  L 13.099107142857141 0.10769230769230759  C 13.220535714285713 -0.015384615384615604  13.40267857142857 -0.015384615384615604  13.524107142857142 0.10769230769230759  L 15.664285714285713 2.2769230769230764  C 15.785714285714285 2.3999999999999995  15.785714285714285 2.5846153846153843  15.664285714285713 2.707692307692307  L 14.374107142857142 4.015384615384614  C 14.25267857142857 4.138461538461537  14.070535714285713 4.138461538461537  13.949107142857143 4.015384615384614  Z M 2.4285714285714284 13.538461538461538  L 6.071428571428571 12.461538461538462  L 13.129464285714286 5.3076923076923075  C 13.235714285714286 5.199999999999999  13.220535714285713 5.015384615384615  13.099107142857141 4.907692307692307  L 10.958928571428572 2.7230769230769236  C 10.8375 2.600000000000001  10.655357142857143 2.584615384615385  10.564285714285717 2.6923076923076925  L 3.4910714285714284 9.846153846153847  L 2.4285714285714284 13.538461538461538  Z M 17 14.76923076923077  L 0 14.76923076923077  L 0 16  L 17 16  L 17 14.76923076923077  Z " fill-rule="nonzero" fill="#000000" stroke="none" transform="matrix(1 0 0 1 288 1164 )" />
  </g>
</svg>