<?xml version="1.0" encoding="utf-8"?>
<svg version="1.1" xmlns:xlink="http://www.w3.org/1999/xlink" width="12px" height="12px" xmlns="http://www.w3.org/2000/svg">
  <g transform="matrix(1 0 0 1 -50 -1166 )">
    <path d="M 1.3784070796460182 0.9521681415929206  L 10.723539823008851 0.9521681415929204  C 10.95813865479538 0.9521681415929204  11.148318584070797 1.1423480708683358  11.148318584070797 1.3769469026548675  L 11.148318584070797 10.722079646017699  C 11.148318584070797 10.956678477804232  10.95813865479538 11.146858407079646  10.723539823008851 11.146858407079646  L 1.3784070796460182 11.146858407079646  C 1.1438082478594864 11.146858407079646  0.9536283185840713 10.956678477804232  0.9536283185840713 10.722079646017699  L 0.9536283185840713 1.3769469026548675  C 0.9536283185840713 1.1423480708683358  1.1438082478594864 0.9521681415929206  1.3784070796460182 0.9521681415929206  Z M 11.997876106194688 1.3769469026548675  C 11.997876106194688 0.6731504072952722  11.427336318368445 0.10261061946902679  10.723539823008851 0.10261061946902679  L 1.3784070796460182 0.10261061946902679  C 0.6746105842864228 0.10261061946902679  0.10407079646017733 0.6731504072952722  0.10407079646017742 1.3769469026548675  L 0.10407079646017733 10.722079646017697  C 0.10407079646017733 11.425876141377293  0.6746105842864228 11.996415929203538  1.3784070796460182 11.99641592920354  L 10.723539823008847 11.996415929203538  C 11.427336318368445 11.996415929203538  11.997876106194688 11.425876141377293  11.99787610619469 10.722079646017699  L 11.997876106194688 1.3769469026548675  Z " fill-rule="nonzero" fill="#999999" stroke="none" transform="matrix(1 0 0 1 50 1166 )" />
  </g>
</svg>