<?xml version="1.0" encoding="utf-8"?>
<svg version="1.1" xmlns:xlink="http://www.w3.org/1999/xlink" width="80px" height="80px" xmlns="http://www.w3.org/2000/svg">
  <g transform="matrix(1 0 0 1 -191 -658 )">
    <path d="M 192 661  A 2 2 0 0 1 194 659 L 268 659  A 2 2 0 0 1 270 661 L 270 735  A 2 2 0 0 1 268 737 L 194 737  A 2 2 0 0 1 192 735 L 192 661  Z " fill-rule="nonzero" fill="#f7f7f7" stroke="none" />
    <path d="M 191.5 661  A 2.5 2.5 0 0 1 194 658.5 L 268 658.5  A 2.5 2.5 0 0 1 270.5 661 L 270.5 735  A 2.5 2.5 0 0 1 268 737.5 L 194 737.5  A 2.5 2.5 0 0 1 191.5 735 L 191.5 661  Z " stroke-width="1" stroke-dasharray="3,1" stroke="#d7d7d7" fill="none" stroke-dashoffset="0.5" />
  </g>
</svg>