<?xml version="1.0" encoding="utf-8"?>
<svg version="1.1" xmlns:xlink="http://www.w3.org/1999/xlink" width="16px" height="16px" xmlns="http://www.w3.org/2000/svg">
  <g transform="matrix(1 0 0 1 -1333 -394 )">
    <path d="M 15.97377049180328 3.853639344262295  C 15.97377049180328 2.6030163934426227  14.958163934426231 1.5958032786885246  13.71593442622951 1.5958032786885246  L 11.777049180327868 1.5958032786885246  L 11.777049180327868 0.6725245901639344  C 11.777049180327868 0.3032131147540984  11.474885245901639 0.0010491803278688534  11.105573770491802 0.0010491803278688534  C 10.736262295081966 0.0010491803278688534  10.434098360655737 0.3032131147540983  10.434098360655737 0.6725245901639344  L 10.434098360655737 1.5958032786885246  L 5.565901639344262 1.5958032786885246  L 5.565901639344262 0.6725245901639344  C 5.565901639344262 0.3032131147540984  5.263737704918032 0.0010491803278688534  4.894426229508197 0.0010491803278688534  C 4.525114754098361 0.0010491803278688534  4.222950819672132 0.3032131147540983  4.222950819672132 0.6725245901639344  L 4.222950819672132 1.5958032786885246  L 2.284065573770492 1.5958032786885246  C 1.0418360655737706 1.5958032786885246  0.026229508196721336 2.6030163934426227  0.026229508196721336 3.853639344262295  L 0.026229508196721336 13.690754098360655  C 0.026229508196721336 14.932983606557375  1.0418360655737704 15.948590163934426  2.284065573770492 16  L 13.71593442622951 16  C 14.95816393442623 15.948590163934426  15.97377049180328 14.932983606557377  15.97377049180328 13.690754098360655  L 15.97377049180328 3.853639344262295  Z M 14.63081967213115 3.853639344262295  L 14.630819672131148 13.690754098360655  C 14.630819672131148 14.194360655737706  14.219540983606558 14.605639344262295  13.71593442622951 14.605639344262295  L 2.284065573770492 14.605639344262295  C 1.7804590163934426 14.605639344262295  1.3691803278688526 14.194360655737706  1.3691803278688526 13.690754098360655  L 1.3691803278688526 3.853639344262295  C 1.3691803278688526 3.350032786885246  1.7804590163934426 2.938754098360656  2.284065573770492 2.938754098360656  L 4.222950819672132 2.938754098360656  L 4.222950819672132 3.862032786885246  C 4.222950819672132 4.2313442622950825  4.525114754098361 4.533508196721312  4.894426229508197 4.533508196721312  C 5.263737704918032 4.533508196721312  5.565901639344262 4.231344262295082  5.565901639344262 3.862032786885246  L 5.565901639344262 2.938754098360656  L 10.434098360655739 2.938754098360656  L 10.434098360655739 3.862032786885246  C 10.434098360655739 4.2313442622950825  10.736262295081968 4.533508196721312  11.105573770491803 4.533508196721312  C 11.47488524590164 4.533508196721312  11.77704918032787 4.231344262295082  11.77704918032787 3.862032786885246  L 11.77704918032787 2.938754098360656  L 13.715934426229511 2.938754098360656  C 14.21954098360656 2.938754098360656  14.63081967213115 3.350032786885246  14.63081967213115 3.853639344262295  Z " fill-rule="nonzero" fill="#999999" stroke="none" transform="matrix(1 0 0 1 1333 394 )" />
  </g>
</svg>