<?xml version="1.0" encoding="utf-8"?>
<svg version="1.1" xmlns:xlink="http://www.w3.org/1999/xlink" width="7px" height="5px" xmlns="http://www.w3.org/2000/svg">
  <g transform="matrix(1 0 0 1 -211 -691 )">
    <path d="M 6.859999999999999 4.800000000000001  C 6.766666666666667 4.914285714285714  6.673333333333334 4.971428571428572  6.533333333333333 4.9714285714285715  C 6.3933333333333335 4.9714285714285715  6.3 4.914285714285714  6.206666666666667 4.799999999999999  L 3.500000000000001 1.4857142857142855  L 0.7933333333333338 4.799999999999999  C 0.6066666666666669 5.028571428571428  0.3266666666666671 5.028571428571428  0.14000000000000032 4.799999999999999  C -0.046666666666666495 4.57142857142857  -0.046666666666666495 4.228571428571428  0.14000000000000032 3.999999999999999  L 3.173333333333334 0.2857142857142857  C 3.360000000000001 0.0571428571428572  3.640000000000001 0.0571428571428572  3.826666666666666 0.2857142857142857  L 6.859999999999999 4  C 7.046666666666666 4.228571428571429  7.046666666666666 4.571428571428571  6.859999999999999 4.800000000000001  Z " fill-rule="nonzero" fill="#999999" stroke="none" transform="matrix(1 0 0 1 211 691 )" />
  </g>
</svg>