<?xml version="1.0" encoding="utf-8"?>
<svg version="1.1" xmlns:xlink="http://www.w3.org/1999/xlink" width="7px" height="14px" xmlns="http://www.w3.org/2000/svg">
  <g transform="matrix(1 0 0 1 -2080 -989 )">
    <path d="M 5.732530295744301 7.004863432372505  C 5.732530295744301 6.971140402701286  5.720249831722915 6.938798676313789  5.698390634146342 6.914953507760532  L 0.23837060162601656 0.9585680177383593  C 0.0563150569105698 0.7599460753880267  0.0563150569105698 0.4379264567627493  0.23837060162601656 0.239304514412417  C 0.4204407154471551 0.04069846563192921  0.7156253658536587 0.04069846563192921  0.8976954796747965 0.239304514412417  L 6.7697880975609745 6.645223733924612  C 6.951858211382113 6.8438456762749444  6.951858211382113 7.1658652949002235  6.7697880975609745 7.364487237250554  L 0.8977100487804874 13.770406456762748  C 0.7156253658536587 13.96902839911308  0.4204407154471543 13.96902839911308  0.23837060162601573 13.770406456762748  C 0.05631505691056896 13.571784514412418  0.05631505691056896 13.249764895787138  0.23837060162601573 13.051142953436806  L 5.698390634146342 7.094773356984478  C 5.720249831722915 7.070928188431219  5.732530295744301 7.0385864620437255  5.732530295744301 7.004863432372505  Z " fill-rule="nonzero" fill="#000000" stroke="none" transform="matrix(1 0 0 1 2080 989 )" />
  </g>
</svg>