<?xml version="1.0" encoding="utf-8"?>
<svg version="1.1" xmlns:xlink="http://www.w3.org/1999/xlink" width="16px" height="16px" xmlns="http://www.w3.org/2000/svg">
  <g transform="matrix(1 0 0 1 -1310 -123 )">
    <path d="M 15.964582339285714 8  C 15.964582339285714 12.392005696428571  12.392005678571428 15.964582339285714  8 15.964582339285714  C 3.6085779642857148 15.964582339285714  0.0354176607142855 12.392005696428571  0.0354176607142855 8  C 0.0354176607142855 3.6085779642857148  3.608547232142857 0.0354176607142855  8 0.0354176607142855  C 12.392005678571428 0.0354176607142855  15.964582339285714 3.6079943035714286  15.964582339285714 8  Z M 14.821725196428572 8  C 14.821725196428572 4.238262892857143  11.76115344642857 1.1782748035714283  8 1.1782748035714283  C 4.238293625 1.1782748035714283  1.1782748035714283 4.238262892857143  1.1782748035714283 8  C 1.1782748035714283 11.76115344642857  4.238262892857143 14.821725196428572  8 14.821725196428572  C 11.76115344642857 14.821725196428572  14.821725196428572 11.761737107142858  14.821725196428572 8  Z M 8 3.4285714285714284  C 7.526607410714285 3.4285714285714284  7.142849464285715 3.8123293750000005  7.142849464285715 4.285721964285714  C 7.142849464285715 4.759114553571428  7.526607410714286 5.1428725  8 5.1428725  C 8.473392589285712 5.1428725  8.857150535714286 4.759114553571428  8.857150535714286 4.285721964285714  C 8.857150535714286 3.8123293750000005  8.473392589285714 3.4285714285714284  8 3.4285714285714284  Z M 8.571443928571428 11.999984642857143  C 8.571443928571428 12.316009750000001  8.315441464285714 12.571428571428571  8 12.571428571428571  C 7.684558535714286 12.571428571428571  7.428556071428572 12.316009750000001  7.428556071428572 11.999984642857143  L 7.428556071428572 6.857142857142857  C 7.428556071428572 6.541701392857143  7.684558535714286 6.285698928571429  8 6.285698928571429  C 8.315441464285714 6.285698928571429  8.571443928571428 6.541701392857143  8.571443928571428 6.857142857142857  L 8.571443928571428 11.999984642857143  Z " fill-rule="nonzero" fill="#999999" stroke="none" transform="matrix(1 0 0 1 1310 123 )" />
  </g>
</svg>