<?xml version="1.0" encoding="utf-8"?>
<svg version="1.1" xmlns:xlink="http://www.w3.org/1999/xlink" width="15px" height="15px" xmlns="http://www.w3.org/2000/svg">
  <g transform="matrix(1 0 0 1 -3492 -1192 )">
    <path d="M 4.299999993749999 2.5387596802325576  L 4.299999993749999 0  L 14.966666662499998 0  L 14.966666662499998 2.5387596802325576  L 4.299999993749999 2.5387596802325576  Z M 0.03333333749999996 2.5387596802325576  L 0.03333333749999996 0.058139542151162564  L 2.166666675 0.058139542151162564  L 2.166666675 2.5387596802325576  L 0.03333333749999996 2.5387596802325576  Z M 0.03333333749999996 8.74031007994186  L 0.03333333749999996 6.25968992005814  L 2.166666675 6.25968992005814  L 2.166666675 8.74031007994186  L 0.03333333749999996 8.74031007994186  Z M 0.03333333749999996 14.941860457848838  L 0.03333333749999996 12.461240319767443  L 2.166666675 12.461240319767443  L 2.166666675 14.941860457848838  L 0.03333333749999996 14.941860457848838  Z M 4.299999993749999 15  L 4.299999993749999 12.461240319767443  L 14.966666662499998 12.461240319767443  L 14.966666662499998 15  L 4.299999993749999 15  Z M 4.299999993749999 8.74031007994186  L 4.299999993749999 6.25968992005814  L 14.966666662499998 6.25968992005814  L 14.966666662499998 8.74031007994186  L 4.299999993749999 8.74031007994186  Z " fill-rule="nonzero" fill="#999999" stroke="none" transform="matrix(1 0 0 1 3492 1192 )" />
  </g>
</svg>