<?xml version="1.0" encoding="utf-8"?>
<svg version="1.1" xmlns:xlink="http://www.w3.org/1999/xlink" width="15px" height="15px" xmlns="http://www.w3.org/2000/svg">
  <g transform="matrix(1 0 0 1 -3459 -1192 )">
    <path d="M 3.75 0  L 3.75 3.75  L 0 3.75  L 0 0  L 3.75 0  Z M 9.375 3.75  L 9.375 0  L 5.625 0  L 5.625 3.75  L 9.375 3.75  Z M 15 3.75  L 15 0  L 11.25 0  L 11.25 3.75  L 15 3.75  Z M 3.75 9.375  L 3.75 5.625  L 0 5.625  L 0 9.375  L 3.75 9.375  Z M 9.375 9.375  L 9.375 5.625  L 5.625 5.625  L 5.625 9.375  L 9.375 9.375  Z M 15 9.375  L 15 5.625  L 11.25 5.625  L 11.25 9.375  L 15 9.375  Z M 3.75 15  L 3.75 11.25  L 0 11.25  L 0 15  L 3.75 15  Z M 9.375 15  L 9.375 11.25  L 5.625 11.25  L 5.625 15  L 9.375 15  Z M 15 15  L 15 11.25  L 11.25 11.25  L 11.25 15  L 15 15  Z " fill-rule="nonzero" fill="#000000" stroke="none" transform="matrix(1 0 0 1 3459 1192 )" />
  </g>
</svg>