<?xml version="1.0" encoding="utf-8"?>
<svg version="1.1" xmlns:xlink="http://www.w3.org/1999/xlink" width="26px" height="26px" xmlns="http://www.w3.org/2000/svg">
  <g transform="matrix(1 0 0 1 -838 -112 )">
    <path d="M 851 112  C 858.28 112  864 117.72  864 125  C 864 132.28  858.28 138  851 138  C 843.72 138  838 132.28  838 125  C 838 117.72  843.72 112  851 112  Z " fill-rule="nonzero" fill="#ffffff" stroke="none" />
    <path d="M 851 112.5  C 858 112.5  863.5 118  863.5 125  C 863.5 132  858 137.5  851 137.5  C 844 137.5  838.5 132  838.5 125  C 838.5 118  844 112.5  851 112.5  Z " stroke-width="1" stroke="#333333" fill="none" />
  </g>
</svg>