<?xml version="1.0" encoding="utf-8"?>
<svg version="1.1" xmlns:xlink="http://www.w3.org/1999/xlink" width="26px" height="26px" xmlns="http://www.w3.org/2000/svg">
  <g transform="matrix(1 0 0 1 -625 -112 )">
    <path d="M 638 112  C 645.28 112  651 117.72  651 125  C 651 132.28  645.28 138  638 138  C 630.72 138  625 132.28  625 125  C 625 117.72  630.72 112  638 112  Z " fill-rule="nonzero" fill="#ffffff" stroke="none" />
    <path d="M 638 112.5  C 645 112.5  650.5 118  650.5 125  C 650.5 132  645 137.5  638 137.5  C 631 137.5  625.5 132  625.5 125  C 625.5 118  631 112.5  638 112.5  Z " stroke-width="1" stroke="#e7772d" fill="none" />
  </g>
</svg>