<?xml version="1.0" encoding="utf-8"?>
<svg version="1.1" xmlns:xlink="http://www.w3.org/1999/xlink" width="14px" height="14px" xmlns="http://www.w3.org/2000/svg">
  <g transform="matrix(1 0 0 1 -2623 -173 )">
    <path d="M 13.913580252314816 7  C 13.913580252314816 10.818197541666667  10.818197541666667 13.913580252314816  7 13.913580252314816  C 3.181802474537037 13.913580252314816  0.08641974768518512 10.818197525462963  0.08641974768518512 7  C 0.08641974768518512 3.181802474537037  3.181802474537037 0.08641974768518512  7 0.08641974768518512  C 10.818197525462963 0.08641974768518512  13.913580252314816 3.1818024583333333  13.913580252314816 7  Z M 1.1234567847222223 7  C 1.1234567847222223 10.245580252314815  3.7544197476851844 12.876543215277778  7 12.876543215277778  C 10.245580252314815 12.876543215277778  12.876543215277778 10.245580252314815  12.876543215277778 6.999999999999999  C 12.876543215277778 3.754419747685183  10.245580252314815 1.1234567847222223  7 1.1234567847222223  C 3.7544197476851844 1.1234567847222223  1.1234567847222223 3.7544197476851844  1.1234567847222223 7  Z M 4.407407407407407 6.481481481481482  L 9.592592592592593 6.481481481481482  C 9.878962462875226 6.481481481481482  10.11111111111111 6.713630129717367  10.11111111111111 7  C 10.11111111111111 7.286369870282634  9.878962462875226 7.518518518518519  9.592592592592593 7.518518518518519  L 4.407407407407407 7.518518518518519  C 4.121037537124774 7.518518518518519  3.8888888888888893 7.286369870282634  3.8888888888888893 7  C 3.8888888888888893 6.713630129717367  4.121037537124774 6.481481481481482  4.407407407407407 6.481481481481482  Z " fill-rule="nonzero" fill="#e7772d" stroke="none" transform="matrix(1 0 0 1 2623 173 )" />
  </g>
</svg>