<?xml version="1.0" encoding="utf-8"?>
<svg version="1.1" xmlns:xlink="http://www.w3.org/1999/xlink" width="17px" height="14px" xmlns="http://www.w3.org/2000/svg">
  <g transform="matrix(1 0 0 1 -894 -475 )">
    <path d="M 16.90838508064516 8.91285294117647  C 16.90838508064516 6.627524509803921  14.790873991935484 4.680220588235294  12.19162197580645 4.477598039215685  C 12.19513508064516 4.449254901960784  12.196780241935482 4.41972794117647  12.190456653225805 4.390235294117646  C 11.669386088709677 1.9575637254901959  9.056321572580645 0.12340931372548992  6.111928427419354 0.12340931372548992  C 2.7847610887096765 0.12340931372548992  0.07763104838709534 2.446225490196078  0.07763104838709534 5.301230392156862  C 0.07763104838709534 6.83297794117647  0.8586370967741921 8.213178921568629  2.3388024193548373 9.301490196078431  L 1.8228729838709663 10.854323529411765  C 1.7896441532258052 10.955291666666668  1.8198397177419343 11.066553921568628  1.9000927419354825 11.136588235294118  C 1.9489848790322568 11.178759803921569  2.01054133064516 11.20077205882353  2.0727661290322565 11.20077205882353  C 2.112781249999999 11.20077205882353  2.153259072580644 11.191404411764706  2.1904465725806435 11.172892156862746  L 4.127555443548386 10.202414215686275  L 4.366206653225805 10.250916666666667  C 4.962611895161289 10.373656862745099  5.477598790322579 10.48001225490196  6.111928427419353 10.48001225490196  C 6.298637096774191 10.48001225490196  6.812458669354837 10.411607843137254  6.85574697580645 10.356791666666666  C 7.554169354838708 12.106620098039215  9.479333669354837 13.369708333333332  11.744497983870966 13.369708333333332  C 12.324760080645161 13.369708333333332  12.912048387096773 13.229639705882352  13.439202620967741 13.097497549019607  L 14.932460685483868 13.914781862745096  C 14.971995967741933 13.936348039215684  15.015524193548384 13.947568627450979  15.058572580645158 13.947568627450979  C 15.117541330645158 13.947568627450979  15.176492943548384 13.92764950980392  15.22375705645161 13.889012254901958  C 15.306820564516126 13.821551470588233  15.340991935483869 13.710512254901957  15.310093749999998 13.608840686274506  L 14.928707661290321 12.339215686274507  C 16.207169354838708 11.327732843137252  16.908402217741934 10.11760784313725  16.908402217741934 8.912852941176467  Z M 6.611457661290323 9.775122549019608  C 6.446495967741936 9.789414215686273  6.279203629032258 9.796448529411766  6.113076612903226 9.796448529411766  C 5.552933467741935 9.796448529411766  5.079127016129033 9.69947794117647  4.53115120967742 9.586105392156863  L 4.212709677419355 9.521681372549022  C 4.157956653225807 9.509963235294117  4.100170362903226 9.517477941176471  4.049855846774194 9.543453431372551  L 2.6499778225806456 10.2450318627451  L 3.0138155241935487 9.150852941176472  C 3.049392137096774 9.043794117647062  3.0103024193548387 8.926904411764708  2.918361895161291 8.862257352941178  C 1.511920362903226 7.880764705882356  0.7992056451612906 6.6851544117647075  0.7992056451612906 5.309191176470591  C 0.7992056451612906 2.835531862745101  3.1827530241935484 0.8223970588235318  6.112853830645162 0.8223970588235318  C 8.702988911290323 0.8223970588235318  10.996223790322581 2.400056372549022  11.469550403225806 4.498443627450984  C 8.753748991935483 4.534061274509807  6.556241935483872 6.445524509803923  6.556241935483872 8.793149509803923  C 6.556241935483872 9.13445098039216  6.607961693548387 9.46520098039216  6.695223790322581 9.784250000000002  C 6.668798387096775 9.777696078431376  6.640933467741935 9.772531862745101  6.611474798387098 9.77512254901961  Z M 14.332970766129032 11.884541666666665  C 14.24942741935484 11.94755882352941  14.214125 12.056230392156861  14.244063508064515 12.156512254901958  L 14.480623991935483 12.944063725490196  L 13.50985887096774 12.412321078431372  C 13.472894153225804 12.391938725490194  13.431233870967741 12.38138725490196  13.38983064516129 12.38138725490196  C 13.369471774193547 12.38138725490196  13.34889012096774 12.383960784313723  13.328754032258063 12.389348039215687  C 12.808146169354837 12.521009803921569  12.269304435483871 12.656874999999998  11.744720766129031 12.656874999999998  C 9.308065524193548 12.656874999999998  7.325800403225805 10.980357843137254  7.325800403225805 8.919921568627448  C 7.325800403225805 6.8594681372549  9.307842741935481 5.183654411764704  11.744720766129031 5.183654411764704  C 14.134814516129032 5.183654411764704  16.154524193548387 6.894605392156861  16.154524193548387 8.919921568627448  C 16.154524193548387 9.947102941176468  15.50780443548387 11.000276960784312  14.33300504032258 11.884575980392155  Z " fill-rule="nonzero" fill="#0fc060" stroke="none" transform="matrix(1 0 0 1 894 475 )" />
  </g>
</svg>