<?xml version="1.0" encoding="utf-8"?>
<svg version="1.1" xmlns:xlink="http://www.w3.org/1999/xlink" width="16px" height="16px" xmlns="http://www.w3.org/2000/svg">
  <g transform="matrix(1 0 0 1 -2755 -1016 )">
    <path d="M 2763 1017  C 2766.92 1017  2770 1020.08  2770 1024  C 2770 1027.92  2766.92 1031  2763 1031  C 2759.08 1031  2756 1027.92  2756 1024  C 2756 1020.08  2759.08 1017  2763 1017  Z " fill-rule="nonzero" fill="#ffffff" stroke="none" />
    <path d="M 2763 1017  C 2766.92 1017  2770 1020.08  2770 1024  C 2770 1027.92  2766.92 1031  2763 1031  C 2759.08 1031  2756 1027.92  2756 1024  C 2756 1020.08  2759.08 1017  2763 1017  Z " stroke-width="2" stroke="#999999" fill="none" />
  </g>
</svg>