<?xml version="1.0" encoding="utf-8"?>
<svg version="1.1" xmlns:xlink="http://www.w3.org/1999/xlink" width="20px" height="20px" xmlns="http://www.w3.org/2000/svg">
  <g transform="matrix(1 0 0 1 -507 -830 )">
    <path d="M 19.369705636160713 10  C 19.369705636160713 8.735379464285714  19.121895926339285 7.508258928571428  18.633140345982145 6.352685546875  C 18.161188616071428 5.236872209821427  17.48568638392857 4.234898158482142  16.62540457589286 3.3746163504464284  C 15.765122767857143 2.514334542410714  14.763148716517858 1.838832310267857  13.647314453125002 1.3668805803571424  C 12.49174107142857 0.8781040736607139  11.264620535714284 0.6302734374999996  10 0.6302734374999996  C 8.735379464285714 0.6302734374999996  7.508258928571428 0.8781040736607142  6.352685546875 1.366859654017857  C 5.236872209821427 1.8388113839285714  4.234898158482142 2.514313616071428  3.3746163504464284 3.3745954241071425  C 2.514334542410714 4.234877232142858  1.838832310267857 5.236851283482142  1.3668805803571424 6.352664620535714  C 0.8781040736607139 7.508258928571428  0.6302734374999996 8.735379464285714  0.6302734374999996 10  C 0.6302734374999996 11.264620535714284  0.8781040736607139 12.49174107142857  1.3668596540178566 13.647314453125002  C 1.8388113839285711 14.763127790178572  2.514313616071428 15.765101841517858  3.3745954241071425 16.62540457589286  C 4.234877232142856 17.48568638392857  5.236851283482142 18.161209542410713  6.352664620535714 18.633140345982145  C 7.508238002232144 19.121895926339285  8.735379464285714 19.3697265625  9.999979073660715 19.3697265625  C 11.264578683035715 19.3697265625  12.491720145089287 19.121895926339285  13.647293526785715 18.633140345982145  C 14.763106863839289 18.161188616071428  15.76508091517857 17.48568638392857  16.625383649553573 16.62540457589286  C 17.48568638392857 15.765122767857143  18.161188616071428 14.763148716517858  18.633119419642856 13.647314453125002  C 19.121875 12.49174107142857  19.369705636160713 11.264620535714284  19.369705636160713 10  Z M 18.040987723214283 10  C 18.040987723214283 14.433809988839283  14.433809988839283 18.040987723214283  10 18.040987723214283  C 5.566190011160714 18.040987723214283  1.959012276785714 14.433809988839283  1.959012276785714 9.999999999999998  C 1.959012276785714 5.566190011160713  5.566190011160714 1.9590122767857143  10 1.9590122767857143  C 14.433809988839283 1.9590122767857143  18.040987723214283 5.566190011160714  18.040987723214283 10  Z M 15.357142857142858 10  C 15.357142857142858 9.63016880580357  15.094810267857143 9.330357142857142  14.771205357142858 9.330357142857142  L 10.669642857142858 9.330357142857142  L 10.669642857142858 5.228794642857143  C 10.669642857142858 4.9051897321428575  10.36983119419643 4.642857142857143  10 4.642857142857143  C 9.63016880580357 4.642857142857143  9.330357142857142 4.9051897321428575  9.330357142857142 5.228794642857143  L 9.330357142857142 9.330357142857142  L 5.228794642857143 9.330357142857142  C 4.9051897321428575 9.330357142857142  4.642857142857143 9.63016880580357  4.642857142857143 10  C 4.642857142857143 10.36983119419643  4.9051897321428575 10.669642857142858  5.228794642857143 10.669642857142858  L 9.330357142857142 10.669642857142858  L 9.330357142857142 14.771205357142858  C 9.330357142857142 15.094810267857143  9.63016880580357 15.357142857142858  10 15.357142857142858  C 10.36983119419643 15.357142857142858  10.669642857142858 15.094810267857143  10.669642857142858 14.771205357142858  L 10.669642857142858 10.669642857142858  L 14.771205357142858 10.669642857142858  C 15.094810267857143 10.669642857142858  15.357142857142858 10.36983119419643  15.357142857142858 10  Z " fill-rule="nonzero" fill="#000000" stroke="none" transform="matrix(1 0 0 1 507 830 )" />
  </g>
</svg>