<?xml version="1.0" encoding="utf-8"?>
<svg version="1.1" xmlns:xlink="http://www.w3.org/1999/xlink" width="15px" height="18px" xmlns="http://www.w3.org/2000/svg">
  <g transform="matrix(1 0 0 1 -1369 -26 )">
    <path d="M 14.970982142857144 13.966071428571427  C 14.973214285714288 13.474744897959182  14.58482142857143 13.07295918367347  14.104910714285714 13.07066326530612  C 14.261160714285715 13.066071428571426  14.417410714285714 13.098214285714285  14.566964285714285 13.19923469387755  C 14.024553571428573 12.841071428571427  13.667410714285717 12.216581632653062  13.667410714285717 11.502551020408164  L 13.667410714285717 7.519132653061225  C 13.667410714285717 4.601020408163264  11.61607142857143 2.1650510204081637  8.875000000000004 1.565816326530612  L 8.875000000000004 1.4234693877551021  C 8.875000000000004 0.6795918367346938  8.290178571428573 0.08035714285714285  7.569196428571431 0.08035714285714285  C 6.84821428571429 0.08035714285714285  6.263392857142859 0.6818877551020405  6.263392857142859 1.4234693877551021  L 6.263392857142859 1.565816326530612  C 3.5223214285714315 2.165051020408163  1.4709821428571461 4.598724489795917  1.4709821428571461 7.519132653061225  L 1.4709821428571461 11.502551020408164  C 1.4709821428571461 12.216581632653062  1.1116071428571461 12.841071428571427  0.5714285714285745 13.19923469387755  C 0.7232142857142889 13.098214285714285  0.8772321428571457 13.063775510204081  1.0334821428571457 13.07066326530612  C 0.5535714285714314 13.07295918367347  0.1651785714285741 13.470153061224488  0.1651785714285741 13.966071428571427  C 0.1651785714285741 14.461989795918367  0.5535714285714314 14.861479591836734  1.0357142857142883 14.861479591836734  L 14.100446428571429 14.861479591836734  C 14.582589285714288 14.861479591836734  14.970982142857144 14.461989795918367  14.970982142857144 13.966071428571427  Z M 5.392857142857144 15.759183673469387  C 5.392857142857144 16.996683673469388  6.366071428571429 18  7.571428571428571 18  C 8.774553571428573 18  9.749999999999998 16.996683673469388  9.749999999999998 15.759183673469387  L 5.392857142857144 15.759183673469387  Z " fill-rule="nonzero" fill="#999999" stroke="none" transform="matrix(1 0 0 1 1369 26 )" />
  </g>
</svg>