<?xml version="1.0" encoding="utf-8"?>
<svg version="1.1" xmlns:xlink="http://www.w3.org/1999/xlink" width="80px" height="10px" preserveAspectRatio="xMinYMid meet" viewBox="2000 990  80 8" xmlns="http://www.w3.org/2000/svg">
  <path d="M 2148 810  L 2080 810  A 5 5 0 0 0 2075 815 L 2075 989  A 5 5 0 0 1 2070 994 L 2002 994  " stroke-width="2" stroke="#0066ff" fill="none" />
  <path d="M 2146.5 806.5  A 3.5 3.5 0 0 0 2143 810 A 3.5 3.5 0 0 0 2146.5 813.5 A 3.5 3.5 0 0 0 2150 810 A 3.5 3.5 0 0 0 2146.5 806.5 Z M 2009.4 986  L 2000 994  L 2009.4 1002  L 2005.8 994  L 2009.4 986  Z " fill-rule="nonzero" fill="#0066ff" stroke="none" />
</svg>