<?xml version="1.0" encoding="utf-8"?>
<svg version="1.1" xmlns:xlink="http://www.w3.org/1999/xlink" width="354px" height="10px" preserveAspectRatio="xMinYMid meet" viewBox="2099 1433  354 8" xmlns="http://www.w3.org/2000/svg">
  <path d="M 2448 1462  L 2448 1442  A 5 5 0 0 0 2443 1437 L 2109 1437  A 5 5 0 0 0 2104 1442 L 2104 2188  A 5 5 0 0 0 2109 2193 L 2119 2193  " stroke-width="2" stroke="#0066ff" fill="none" />
  <path d="M 2448 1457  A 3.5 3.5 0 0 0 2444.5 1460.5 A 3.5 3.5 0 0 0 2448 1464 A 3.5 3.5 0 0 0 2451.5 1460.5 A 3.5 3.5 0 0 0 2448 1457 Z M 2111.6 2201  L 2121 2193  L 2111.6 2185  L 2115.2 2193  L 2111.6 2201  Z " fill-rule="nonzero" fill="#0066ff" stroke="none" />
</svg>