<?xml version="1.0" encoding="utf-8"?>
<svg version="1.1" xmlns:xlink="http://www.w3.org/1999/xlink" width="10px" height="477px" preserveAspectRatio="xMidYMin meet" viewBox="2110 1449  8 477" xmlns="http://www.w3.org/2000/svg">
  <path d="M 2282 1462  L 2282 1459  A 5 5 0 0 0 2277 1454 L 2119 1454  A 5 5 0 0 0 2114 1459 L 2114 1916  A 5 5 0 0 0 2119 1921 L 2122 1921  " stroke-width="2" stroke="#0066ff" fill="none" />
  <path d="M 2282 1457  A 3.5 3.5 0 0 0 2278.5 1460.5 A 3.5 3.5 0 0 0 2282 1464 A 3.5 3.5 0 0 0 2285.5 1460.5 A 3.5 3.5 0 0 0 2282 1457 Z M 2114.6 1929  L 2124 1921  L 2114.6 1913  L 2118.2 1921  L 2114.6 1929  Z " fill-rule="nonzero" fill="#0066ff" stroke="none" />
</svg>