<?xml version="1.0" encoding="utf-8"?>
<svg version="1.1" xmlns:xlink="http://www.w3.org/1999/xlink" width="39px" height="10px" preserveAspectRatio="xMinYMid meet" viewBox="4059 1958  39 8" xmlns="http://www.w3.org/2000/svg">
  <path d="M 4039 1319  L 4059 1319  A 5 5 0 0 1 4064 1324 L 4064 1957  A 5 5 0 0 0 4069 1962 L 4096 1962  " stroke-width="2" stroke="#0066ff" fill="none" />
  <path d="M 4040.5 1315.5  A 3.5 3.5 0 0 0 4037 1319 A 3.5 3.5 0 0 0 4040.5 1322.5 A 3.5 3.5 0 0 0 4044 1319 A 3.5 3.5 0 0 0 4040.5 1315.5 Z M 4088.6 1970  L 4098 1962  L 4088.6 1954  L 4092.2 1962  L 4088.6 1970  Z " fill-rule="nonzero" fill="#0066ff" stroke="none" />
</svg>