<?xml version="1.0" encoding="utf-8"?>
<svg version="1.1" xmlns:xlink="http://www.w3.org/1999/xlink" width="10px" height="10px" xmlns="http://www.w3.org/2000/svg">
  <g transform="matrix(1 0 0 1 -550 -230 )">
    <path d="M 9.983606557377051 2.4085245901639345  C 9.983606557377051 1.6268852459016392  9.348852459016395 0.9973770491803279  8.572459016393443 0.9973770491803279  L 7.360655737704917 0.9973770491803279  L 7.360655737704917 0.420327868852459  C 7.360655737704917 0.1895081967213115  7.171803278688524 0.0006557377049180334  6.940983606557376 0.0006557377049180334  C 6.7101639344262285 0.0006557377049180334  6.521311475409836 0.18950819672131142  6.521311475409836 0.420327868852459  L 6.521311475409836 0.9973770491803279  L 3.4786885245901638 0.9973770491803279  L 3.4786885245901638 0.420327868852459  C 3.4786885245901638 0.1895081967213115  3.28983606557377 0.0006557377049180334  3.059016393442623 0.0006557377049180334  C 2.8281967213114756 0.0006557377049180334  2.6393442622950825 0.18950819672131142  2.6393442622950825 0.420327868852459  L 2.6393442622950825 0.9973770491803279  L 1.4275409836065576 0.9973770491803279  C 0.6511475409836066 0.9973770491803279  0.016393442622950834 1.6268852459016392  0.016393442622950834 2.4085245901639345  L 0.016393442622950834 8.556721311475409  C 0.016393442622950834 9.333114754098359  0.6511475409836065 9.967868852459016  1.4275409836065576 9.967868852459016  L 8.572459016393443 9.967868852459016  C 9.348852459016394 9.967868852459016  9.983606557377051 9.33311475409836  9.983606557377051 8.556721311475409  L 9.983606557377051 2.4085245901639345  Z M 9.144262295081969 2.4085245901639345  L 9.144262295081967 8.556721311475409  C 9.144262295081967 8.871475409836066  8.887213114754099 9.128524590163934  8.572459016393443 9.128524590163934  L 1.4275409836065576 9.128524590163934  C 1.1127868852459017 9.128524590163934  0.8557377049180328 8.871475409836066  0.8557377049180328 8.556721311475409  L 0.8557377049180328 2.4085245901639345  C 0.8557377049180328 2.0937704918032787  1.1127868852459017 1.83672131147541  1.4275409836065576 1.83672131147541  L 2.6393442622950825 1.83672131147541  L 2.6393442622950825 2.4137704918032785  C 2.6393442622950825 2.6445901639344265  2.8281967213114756 2.8334426229508196  3.059016393442623 2.8334426229508196  C 3.28983606557377 2.8334426229508196  3.4786885245901638 2.644590163934426  3.4786885245901638 2.4137704918032785  L 3.4786885245901638 1.83672131147541  L 6.521311475409837 1.83672131147541  L 6.521311475409837 2.4137704918032785  C 6.521311475409837 2.6445901639344265  6.71016393442623 2.8334426229508196  6.940983606557377 2.8334426229508196  C 7.171803278688525 2.8334426229508196  7.360655737704919 2.644590163934426  7.360655737704919 2.4137704918032785  L 7.360655737704919 1.83672131147541  L 8.572459016393445 1.83672131147541  C 8.8872131147541 1.83672131147541  9.144262295081969 2.0937704918032787  9.144262295081969 2.4085245901639345  Z " fill-rule="nonzero" fill="#e7772d" stroke="none" transform="matrix(1 0 0 1 550 230 )" />
  </g>
</svg>