<?xml version="1.0" encoding="utf-8"?>
<svg version="1.1" xmlns:xlink="http://www.w3.org/1999/xlink" width="18px" height="18px" xmlns="http://www.w3.org/2000/svg">
  <g transform="matrix(1 0 0 1 -1157 -196 )">
    <path d="M 17.51917458333333 16.317376722222225  L 10.147548861111112 8.923579555555557  L 17.516450888888887 1.5929041666666675  C 17.86488672222222 1.2462363055555565  17.866654722222222 0.6844480277777787  17.51998686111111 0.3360121666666676  C 17.17241111111111 -0.013331555555554233  16.61153072222222 -0.014191666666665666  16.26309486111111 0.3324761944444453  L 8.892424861111111 7.6640116944444445  L 1.5857844722222225 0.33510430555555515  C 1.2400245000000003 -0.011563555555555797  0.6773283333333338 -0.013331527777778105  0.32889247222222273 0.33333633333333285  C -0.0186832777777776 0.6800041944444438  -0.019543361111110536 1.242652583333333  0.32712450000000043 1.591136222222222  L 7.631996916666667 8.918227861111111  L 0.2666786388888893 16.244459388888888  C -0.08175719444444397 16.59112725  -0.083525194444444 17.15291552777778  0.26314266666666697 17.50135138888889  C 0.4364526944444446 17.675569305555552  0.6649046666666674 17.763586166666666  0.8933566388888892 17.763586166666666  C 1.1200406388888895 17.763586166666666  1.3466768333333334 17.677385083333334  1.5200346666666669 17.50493513888889  L 8.887168722222222 10.176935611111112  L 16.26051461111111 17.572500722222223  C 16.433824638888886 17.74671863888889  16.661416527777774 17.833827611111115  16.8898685 17.833827611111115  C 17.117412583333333 17.833827611111115  17.344096583333332 17.74671863888889  17.51740661111111 17.574268722222225  C 17.86498236111111 17.227600861111114  17.865842444444443 16.665812583333334  17.51917458333333 16.317376722222225  Z " fill-rule="nonzero" fill="#000000" stroke="none" transform="matrix(1 0 0 1 1157 196 )" />
  </g>
</svg>