<?xml version="1.0" encoding="utf-8"?>
<svg version="1.1" xmlns:xlink="http://www.w3.org/1999/xlink" width="28px" height="28px" xmlns="http://www.w3.org/2000/svg">
  <g transform="matrix(1 0 0 1 -448 -3771 )">
    <path d="M 27.896754 14.023695937500001  C 27.896754 21.68838728125  21.676299468750003 27.90298978125  14.002526281249999 27.90298978125  C 6.329456624999999 27.90298978125  0.11120859374999804 21.6883553125  0.11120859374999804 14.023695937500001  C 0.11120859374999804 8.1404208125  3.7731418124999982 3.1140686562500015  8.944803406249997 1.0940942187500013  C 10.507391968749998 0.46373759375000123  12.214522531249997 0.1156216250000015  14.002878031249999 0.1156216250000015  C 15.79344003125 0.1156216250000015  17.49909959375 0.4633858437500015  19.06315915625 1.0940942187500013  C 24.234501 3.1140686562499997  27.896754 8.14045278125  27.896754 14.023695937500001  Z M 8.66294653125 11.0966245  C 8.66294653125 13.4355826875  9.861366 15.460641687499999  11.60348084375 16.45187365625  C 12.325967 16.86298690625  13.139463437500002 17.100074187500002  14.002526281249999 17.100074187500002  C 14.83530565625 17.100074187500002  15.620437343749998 16.878304562500002  16.3239923125 16.495204281250004  C 18.10726325 15.522903500000005  19.34431253125 13.473093281250003  19.34431253125 11.097008250000004  C 19.34431253125 7.788659312500003  16.948560843750002 5.095765093750003  14.00255825 5.095765093750003  C 11.0583464375 5.0954133125  8.66294653125 7.788339499999999  8.66294653125 11.0966245  Z M 14.05896803125 27.00356759375  C 18.117816125 27.00356759375  21.73856128125 25.136929187499998  24.11173625 22.21570975  C 23.83138234375 19.911352093749997  21.58596071875 17.949674124999998  18.40805134375 16.9711695625  C 17.20780909375 18.0508855  15.67435278125 18.70055703125  14.002142562499998 18.70055703125  C 12.292805499999998 18.70055703125  10.728074374999998 18.01593321875  9.516160062499997 16.889241093749998  C 6.424847968749997 17.771554875  4.160559156249997 19.571230718749998  3.6296551249999975 21.72772059375  C 5.9846024375 24.926799625  9.78017303125 27.00356759375  14.05896803125 27.00356759375  Z " fill-rule="nonzero" fill="#cccccc" stroke="none" transform="matrix(1 0 0 1 448 3771 )" />
  </g>
</svg>