<?xml version="1.0" encoding="utf-8"?>
<svg version="1.1" xmlns:xlink="http://www.w3.org/1999/xlink" width="26px" height="26px" xmlns="http://www.w3.org/2000/svg">
  <g transform="matrix(1 0 0 1 -507 -2361 )">
    <path d="M 11.849082568807338 9.213917525773196  C 11.852064220183486 10.637886597938143  10.823394495412844 11.790463917525772  9.556192660550458 11.790463917525772  L 2.504587155963303 11.790463917525772  C 1.2373853211009174 11.790463917525772  0.21169724770642184 10.637886597938143  0.21169724770642184 9.213917525773196  L 0.21169724770642184 4.405927835051546  C 0.21169724770642184 2.0337628865979376  1.923165137614679 0.11056701030927872  4.034174311926605 0.11056701030927872  L 9.556192660550458 0.11056701030927872  C 10.823394495412844 0.11056701030927872  11.849082568807338 1.2631443298969078  11.849082568807338 2.6871134020618563  L 11.849082568807338 9.213917525773196  Z M 25.94036697247706 9.213917525773196  C 25.94334862385321 10.637886597938143  24.91467889908257 11.790463917525772  23.647477064220187 11.790463917525772  L 16.59587155963303 11.790463917525772  C 15.328669724770645 11.790463917525772  14.302981651376149 10.637886597938143  14.302981651376149 9.213917525773196  L 14.302981651376149 2.687113402061855  C 14.302981651376149 1.263144329896907  15.328669724770645 0.11056701030927778  16.59587155963303 0.11056701030927778  L 22.11788990825688 0.11056701030927778  C 24.228899082568805 0.11056701030927778  25.94036697247706 2.0337628865979376  25.94036697247706 4.405927835051546  L 25.94036697247706 9.213917525773196  Z M 11.849082568807338 23.35644329896907  C 11.852064220183486 24.780412371134016  10.823394495412844 25.932989690721648  9.556192660550458 25.932989690721648  L 4.034174311926606 25.932989690721648  C 1.9231651376146792 25.932989690721648  0.2116972477064227 24.009793814432992  0.2116972477064227 21.63762886597938  L 0.2116972477064227 16.82963917525773  C 0.2116972477064227 15.405670103092781  1.2373853211009183 14.253092783505153  2.5045871559633035 14.253092783505153  L 9.556192660550458 14.253092783505153  C 10.823394495412844 14.253092783505153  11.849082568807338 15.405670103092781  11.849082568807338 16.82963917525773  L 11.849082568807338 23.35644329896907  Z M 25.94036697247706 21.63762886597938  C 25.94334862385321 24.009793814432985  24.22889908256881 25.932989690721648  22.11788990825688 25.932989690721648  L 16.59587155963303 25.932989690721648  C 15.328669724770645 25.932989690721648  14.302981651376149 24.780412371134023  14.302981651376149 23.356443298969072  L 14.302981651376149 16.82963917525773  C 14.302981651376149 15.405670103092781  15.328669724770645 14.253092783505153  16.59587155963303 14.253092783505153  L 23.647477064220187 14.253092783505153  C 24.91467889908257 14.253092783505153  25.94036697247706 15.405670103092781  25.94036697247706 16.82963917525773  L 25.94036697247706 21.63762886597938  Z " fill-rule="nonzero" fill="#e7772d" stroke="none" transform="matrix(1 0 0 1 507 2361 )" />
  </g>
</svg>