<?xml version="1.0" encoding="utf-8"?>
<svg version="1.1" xmlns:xlink="http://www.w3.org/1999/xlink" width="14px" height="14px" xmlns="http://www.w3.org/2000/svg">
  <g transform="matrix(1 0 0 1 -493 -1079 )">
    <path d="M 13.125 7  C 13.125 3.5874999999999995  10.4125 0.875  7 0.875  C 3.5874999999999995 0.875  0.875 3.5874999999999995  0.875 7  C 0.875 10.4125  3.5874999999999995 13.125  7 13.125  C 10.4125 13.125  13.125 10.4125  13.125 7  Z M 0 7  C 0 3.1499999999999995  3.15 0  7 0  C 10.85 0  14 3.15  14 7  C 14 10.85  10.85 14  7 14  C 3.1499999999999995 14  0 10.85  0 7  Z M 6.3 3.5  C 6.3 3.15  6.65 2.8000000000000003  7 2.8000000000000003  C 7.3500000000000005 2.8000000000000003  7.700000000000001 3.0625  7.700000000000001 3.5  L 7.700000000000001 8.3125  C 7.700000000000001 8.6625  7.4375 9.012500000000001  7 9.012500000000001  C 6.5625 9.012500000000001  6.3 8.75  6.3 8.3125  L 6.3 3.5  Z M 7.700000000000001 10.5  C 7.700000000000001 10.9375  7.3500000000000005 11.200000000000001  7 11.200000000000001  C 6.6499999999999995 11.200000000000001  6.3 10.9375  6.3 10.5  C 6.3 10.0625  6.5625 9.799999999999999  7 9.799999999999999  C 7.4375 9.799999999999999  7.700000000000001 10.0625  7.700000000000001 10.5  Z " fill-rule="nonzero" fill="#999999" stroke="none" transform="matrix(1 0 0 1 493 1079 )" />
  </g>
</svg>