<?xml version="1.0" encoding="utf-8"?>
<svg version="1.1" xmlns:xlink="http://www.w3.org/1999/xlink" width="8px" height="8px" xmlns="http://www.w3.org/2000/svg">
  <g transform="matrix(1 0 0 1 -746 -3781 )">
    <path d="M 1.9921875 0.536458333333333  C 2.6050347222222223 0.17881944444444375  3.274305555555556 0  4 0  C 4.725694444444445 0  5.394965277777779 0.17881944444444375  6.0078125 0.536458333333333  C 6.620659722222222 0.8940972222222214  7.105902777777779 1.3793402777777777  7.463541666666667 1.9921875  C 7.8211805555555545 2.6050347222222214  8 3.2743055555555545  8 4  C 8 4.725694444444445  7.8211805555555545 5.394965277777777  7.463541666666667 6.0078125  C 7.105902777777779 6.620659722222222  6.620659722222222 7.105902777777778  6.0078125 7.463541666666667  C 5.394965277777779 7.821180555555556  4.725694444444445 8  4 8  C 3.274305555555556 8  2.6050347222222223 7.821180555555556  1.9921875 7.463541666666667  C 1.379340277777778 7.105902777777778  0.8940972222222223 6.620659722222222  0.5364583333333334 6.0078125  C 0.17881944444444442 5.394965277777777  0 4.725694444444445  0 4  C 0 3.2743055555555545  0.17881944444444442 2.6050347222222214  0.5364583333333334 1.9921875  C 0.8940972222222223 1.3793402777777777  1.379340277777778 0.8940972222222214  1.9921875 0.536458333333333  Z M 3.1666666666666665 5.953125  L 6 4.286458333333334  C 6.111111111111112 4.223958333333334  6.166666666666667 4.128472222222221  6.166666666666667 4  C 6.166666666666667 3.8715277777777777  6.111111111111112 3.776041666666667  6 3.713541666666667  L 3.1666666666666665 2.046875  C 3.059027777777778 1.9809027777777777  2.9479166666666665 1.979166666666667  2.8333333333333335 2.041666666666667  C 2.7222222222222228 2.1076388888888884  2.6666666666666665 2.2048611111111107  2.6666666666666665 2.333333333333333  L 2.6666666666666665 5.666666666666666  C 2.6666666666666665 5.7951388888888875  2.7222222222222228 5.892361111111111  2.8333333333333335 5.958333333333334  C 2.8888888888888893 5.986111111111111  2.9444444444444446 6  3 6  C 3.059027777777778 6  3.1145833333333335 5.984375  3.1666666666666665 5.953125  Z " fill-rule="nonzero" fill="#000000" stroke="none" transform="matrix(1 0 0 1 746 3781 )" />
  </g>
</svg>