<?xml version="1.0" encoding="utf-8"?>
<svg version="1.1" xmlns:xlink="http://www.w3.org/1999/xlink" width="33px" height="30px" xmlns="http://www.w3.org/2000/svg">
  <g transform="matrix(1 0 0 1 -4476 -2053 )">
    <path d="M 32.71451369369181 13.374294726562498  C 33.091938268783245 12.899991107536765  33.015273916431184 12.2063220703125  32.537595933759974 11.826879181985293  L 18.631859139170544 0.7756049862132353  C 17.434715572016287 -0.17893104319852918  15.559387172747671 -0.17893104319852918  14.362243605593415 0.7756049862132353  L 0.4624040662400266 11.826879181985293  C -0.01527391643118366 12.206322070312497  -0.09193826878324486 12.899991107536762  0.279589051072141 13.374294726562502  C 0.6511163709275267 13.848598345588234  1.3293011687583114 13.931601459099264  1.8069791514295206 13.558087362132355  L 2.2374790579288555 13.202359639246323  L 2.2374790579288555 26.55993515625  C 2.2374790579288555 28.451220806525736  4.2248553409657585 29.868202872242648  5.964546766954787 29.868202872242648  L 27.902350335563494 29.868202872242648  C 29.62434996156083 29.868202872242648  30.756623686835102 28.540152745863967  30.756623686835102 26.55993515625  L 30.75662368683511 13.249790039062498  L 31.157637317154254 13.558087396599262  C 31.35814413231383 13.71816486672794  31.6058289893617 13.795239188878677  31.84761662545711 13.795239188878677  C 32.17196586914062 13.795239188878677  32.496315112824135 13.652948092830881  32.71451369369181 13.374294726562498  Z M 15.400161178523938 27.66269107306985  L 15.400161178523938 21.544174460018382  C 15.400161178523938 21.241805893841914  15.948606258311171 21.08765721507353  16.497051372381982 21.08765721507353  C 17.04549648645279 21.08765721507353  17.593941566240026 21.241805893841914  17.593941566240026 21.544174460018382  L 17.593941566240026 27.65676228170956  L 15.400161178523938 27.66269107306985  Z M 28 26.55993519071691  L 28.56874058863863 26.55993519071691  C 28.56874058863863 27.28917701056985  28.368233773479055 27.662691107536762  27.908247590799537 27.662691107536762  L 19.81131094061669 27.66269107306985  C 19.81131094061669 27.644904698988974  19.787721919672542 27.63304708180147  19.787721919672542 27.615260707720584  L 19.787721919672542 21.544174460018382  C 19.787721919672542 20.263554698988973  18.761598857214093 18.882145415900737  16.497051372381982 18.882145415900737  C 14.23250388754987 18.882145415900737  13.206380825091422 20.263554698988973  13.206380825091422 21.544174460018382  L 13.206380825091422 27.615260707720584  C 13.206380825091422 27.633047081801468  13.235867135555187 27.644904698988967  13.235867135555187 27.66269107306985  L 5.970444022190825 27.66269107306985  C 5.280464713887966 27.66269107306985  4.437156666597407 27.06388276654412  5 26.55993515625  L 5 11.453365085018383  L 15.706818656499333 2.506813166360294  C 16.11372954205452 2.186658226102941  16.844989637009643 2.186658226102941  17.24600326732879 2.506813166360294  L 28 11.50672424172794  L 28 26.55993519071691  Z " fill-rule="nonzero" fill="#272636" stroke="none" transform="matrix(1 0 0 1 4476 2053 )" />
  </g>
</svg>