<?xml version="1.0" encoding="utf-8"?>
<svg version="1.1" xmlns:xlink="http://www.w3.org/1999/xlink" width="497px" height="333px" xmlns="http://www.w3.org/2000/svg">
  <g transform="matrix(1 0 0 1 -2029 -147 )">
    <path d="M 2029 147  L 2526 147  L 2526 480  L 2029 480  L 2029 147  " fill-rule="nonzero" fill="#cccccc" stroke="none" />
    <path d="M 2052 170  L 2503 170  L 2503 457  L 2052 457  L 2052 170  " fill-rule="nonzero" fill="#ffffff" stroke="none" />
    <path d="M 2312.415 246.89999999999998  C 2298.429 246.89999999999998  2287.44 235.91099999999997  2287.44 221.92499999999998  C 2287.44 207.939  2298.429 196.95  2312.415 196.95  C 2326.401 196.95  2337.39 207.939  2337.39 221.92499999999998  C 2337.39 235.91099999999997  2326.401 246.89999999999998  2312.415 246.89999999999998  " fill-rule="nonzero" fill="#cccccc" stroke="none" />
    <path d="M 2061 449  L 2061 300.5  L 2169.5 233  L 2321.4 340.4567404426559  L 2408.2 273.5  L 2495 340.4567404426559  L 2495 449  L 2061 449  " fill-rule="nonzero" fill="#169bd5" stroke="none" />
  </g>
</svg>