<?xml version="1.0" encoding="utf-8"?>
<svg version="1.1" xmlns:xlink="http://www.w3.org/1999/xlink" width="30px" height="30px" xmlns="http://www.w3.org/2000/svg">
  <g transform="matrix(1 0 0 1 -2570 -80 )">
    <path d="M 29.914772727272727 15  C 29.914772727272727 6.77558536044034  23.22441463955966 0.08522727272727273  15 0.08522727272727273  C 6.7766162109375 0.08522727272727273  0.08522727272727273 6.77558536044034  0.08522727272727273 15  C 0.08522727272727273 23.22441463955966  6.77558536044034 29.914772727272727  15 29.914772727272727  C 23.2233837890625 29.914772727272727  29.914772727272727 23.22441463955966  29.914772727272727 15  Z M 16.50960281649503 15.00423789284446  L 21.084168956409798 19.593751131924716  C 21.499653342507102 20.01135444779829  21.498565229936077 20.684662519975138  21.082050026633524 21.100146906072442  C 20.874336481267758 21.306829634232955  20.60265377530185 21.411230446555393  20.329940252130683 21.411230446555393  C 20.0561386163885 21.411230446555393  19.783425093217332 21.306829600941047  19.575654252485798 21.098027943004254  L 14.994674027876423 16.50318869850852  L 10.398803932883526 21.050094060724426  C 10.19109038751776 21.254657825816757  9.920438532049008 21.35797055886008  9.649843938654122 21.35797055886008  C 9.375011452414775 21.35797055886008  9.10120984996449 21.252481633966617  8.892408158735797 21.041561012961644  C 8.479042702414775 20.622869584517044  8.482249744762075 19.949561512340196  8.900941206498583 19.535165238813917  L 13.491485296075997 14.994673994584515  L 8.917950006658383 10.406248834783378  C 8.50246562056108 9.989676336115057  8.503553733132104 9.315337446732952  8.92006893643466 8.899853060635651  C 9.336641435102985 8.483280561967328  10.009892211914066 8.485456787109372  10.426464710582389 8.90197199041193  L 15.00635682262074 13.495723122336647  L 19.60222691761364 8.948875022194601  C 20.019830233487216 8.534478748668322  20.695257235440344 8.538716608220879  21.10862269176137 8.957408069957385  C 21.523018965287644 9.376099498401985  21.51878110573509 10.050438387784089  21.100089643998587 10.463803844105112  L 16.50960281649503 15.00423789284446  Z " fill-rule="nonzero" fill="#272636" stroke="none" transform="matrix(1 0 0 1 2570 80 )" />
  </g>
</svg>