<?xml version="1.0" encoding="utf-8"?>
<svg version="1.1" xmlns:xlink="http://www.w3.org/1999/xlink" width="11px" height="20px" xmlns="http://www.w3.org/2000/svg">
  <g transform="matrix(1 0 0 1 -4856 -2047 )">
    <path d="M 9.379791666666666 19.72544642857143  C 9.737291666666666 20.073660714285715  10.319374999999999 20.073660714285715  10.676874999999999 19.72544642857143  C 11.034375 19.377232142857142  11.034375 18.8125  10.676874999999999 18.462053571428573  L 1.9891666666666667 10  L 10.676875000000003 1.5379464285714282  C 11.034375000000002 1.1897321428571426  11.034375000000002 0.6249999999999993  10.676875000000003 0.27455357142857106  C 10.319375 -0.07589285714285728  9.739583333333336 -0.0736607142857147  9.37979166666667 0.27455357142857106  L 0.520208333333333 8.904017857142856  C 0.2108333333333331 9.205357142857142  0.05499999999999948 9.602678571428571  0.05499999999999948 10  C 0.05499999999999948 10.397321428571427  0.2108333333333331 10.794642857142858  0.520208333333333 11.095982142857144  L 9.379791666666666 19.72544642857143  Z " fill-rule="nonzero" fill="#000000" stroke="none" transform="matrix(1 0 0 1 4856 2047 )" />
  </g>
</svg>