<?xml version="1.0" encoding="utf-8"?>
<svg version="1.1" xmlns:xlink="http://www.w3.org/1999/xlink" width="16px" height="15px" xmlns="http://www.w3.org/2000/svg">
  <g transform="matrix(1 0 0 1 -4679 -2394 )">
    <path d="M 15.94374596296296 14.40735304245283  C 15.943727037037037 14.297335560141509  15.902283148148149 14.190558148584905  15.819300592592592 14.091473614386793  L 12.190505203703704 10.746963838443396  L 12.224520666666665 10.706236733490565  C 13.201702277777777 9.55049202240566  13.739885537037036 8.095339758254717  13.739885537037036 6.609651191037735  C 13.739885537037036 3.006171332547169  10.670573351851852 0.07414565448113149  6.8989319999999985 0.07414565448113149  C 3.1261347037037024 0.07414565448113149  0.05623505555555476 3.006171332547169  0.05623505555555476 6.609651191037735  C 0.05623505555555476 10.213112954009434  3.1261347037037033 13.144867110849054  6.8989319999999985 13.144867110849054  C 8.552007370370369 13.144867110849054  10.14914198148148 12.570868354952827  11.396002685185184 11.530100784198112  L 11.436915981481482 11.49596242924528  L 15.057013259259259 14.80309377948113  L 15.093302722222221 14.80309377948113  L 15.093890166666664 14.831729451650943  C 15.18551396296296 14.89334502948113  15.288659444444443 14.925818119103772  15.40099572222222 14.925818119103772  C 15.700634944444444 14.925818119103772  15.94374596296296 14.69246085495283  15.94374596296296 14.40735304245283  Z M 12.652622703703704 6.6096693042452825  C 12.652622703703704 9.640761385613207  10.071332814814816 12.10636216981132  6.898913055555556 12.10636216981132  C 3.72560262962963 12.10636216981132  1.1443506481481482 9.640761385613207  1.1443506481481482 6.6096693042452825  C 1.1443506481481482 3.5788487264150945  3.72560262962963 1.1137909846698115  6.898913055555556 1.1137909846698115  C 10.071313870370371 1.1137909846698115  12.652622703703704 3.5788487264150945  12.652622703703704 6.6096693042452825  Z " fill-rule="nonzero" fill="#999999" stroke="none" transform="matrix(1 0 0 1 4679 2394 )" />
  </g>
</svg>