<?xml version="1.0" encoding="utf-8"?>
<svg version="1.1" xmlns:xlink="http://www.w3.org/1999/xlink" width="10px" height="382px" preserveAspectRatio="xMidYMin meet" viewBox="2809 500  8 382" xmlns="http://www.w3.org/2000/svg">
  <path d="M 1539 877  L 2808 877  A 5 5 0 0 0 2813 872 L 2813 510  A 5 5 0 0 1 2818 505 L 2821 505  " stroke-width="2" stroke="#e7772d" fill="none" />
  <path d="M 1540.5 873.5  A 3.5 3.5 0 0 0 1537 877 A 3.5 3.5 0 0 0 1540.5 880.5 A 3.5 3.5 0 0 0 1544 877 A 3.5 3.5 0 0 0 1540.5 873.5 Z M 2813.6 513  L 2823 505  L 2813.6 497  L 2817.2 505  L 2813.6 513  Z " fill-rule="nonzero" fill="#e7772d" stroke="none" />
</svg>