<?xml version="1.0" encoding="utf-8"?>
<svg version="1.1" xmlns:xlink="http://www.w3.org/1999/xlink" width="20px" height="20px" xmlns="http://www.w3.org/2000/svg">
  <g transform="matrix(1 0 0 1 -601 -1426 )">
    <path d="M 19.889391304347825 12.270795698924728  C 19.885565639260715 13.974205856837896  18.49062113789048 15.35415095496759  16.768695652173914 15.357935483870968  C 16.18778814487363 15.357935483870968  15.716869565217388 14.8920805448562  15.716869565217388 14.317419354838712  C 15.716869565217388 13.742758164821225  16.18778814487363 13.276903225806452  16.768695652173914 13.276903225806452  C 17.330393255132265 13.276903225806452  17.78573913043478 12.826453542711482  17.78573913043478 12.270795698924733  L 17.78573913043478 3.2529892473118274  C 17.78573913043478 2.697331403525082  17.330393255132254 2.246881720430107  16.768695652173914 2.246881720430107  L 7.652869565217392 2.246881720430107  C 7.091171962259048 2.246881720430107  6.635826086956521 2.697331403525079  6.635826086956521 3.2529892473118274  C 6.635826086956521 3.8276504373293143  6.164907507300283 4.293505376344085  5.584 4.293505376344085  C 5.0030924926997145 4.293505376344085  4.5321739130434775 3.8276504373293143  4.532173913043477 3.2529892473118274  C 4.535999578130588 1.5495790893986645  5.930944079500822 0.16963399126896875  7.65286956521739 0.1658494623655907  L 16.768695652173907 0.16584946236558995  C 18.490621137890475 0.169633991268968  19.885565639260715 1.5495790893986645  19.889391304347825 3.2529892473118274  L 19.889391304347825 12.270795698924728  Z M 15.401043478260867 16.60627956989248  C 15.435826086956519 18.41066666666667  13.92904347826087 19.868215053763443  12.105043478260868 19.868215053763443  L 3.3746086956521744 19.868215053763443  C 3.373216508821568 19.868216801133386  3.371824321014947 19.868217674818613  3.3704321330637903 19.868217674818613  C 1.5524067861425281 19.868217674818613  0.07860604610726873 18.41026425456868  0.07860604610726873 16.611787567291735  C 0.07860604610726873 16.61041034910501  0.07860692928908163 16.609033131056712  0.07860869565217452 16.607655913978498  L 0.07860869565217377 7.936688172043014  C 0.07860555644340449 7.934852173689073  0.07860398683817957 7.93301617303873  0.07860398683817957 7.931180172058472  C 0.07860398683817957 6.132703484781523  1.552404726873439 4.67475006453159  3.3704300737947017 4.67475006453159  C 3.3718229481678064 4.67475006453159  3.3732158224012814 4.674750939078585  3.3746086956521744 4.674752688172046  L 12.105043478260868 4.6747526881720445  C 12.106435665089169 4.674750940802105  12.107827852900396 4.67475006711687  12.109220040849252 4.67475006711687  C 13.927245387770512 4.67475006711687  15.401046127805774 6.132703487366804  15.401046127805774 7.9311801746437505  C 15.401046127805774 7.932557392831232  15.401045244623962 7.933934610878013  15.401043478260867 7.935311827956992  L 15.401043478260867 16.60627956989248  Z M 12.105043478260868 6.755784946236558  L 3.3746086956521744 6.755784946236558  C 3.371348909608773 6.755758278424313  3.3680890260332994 6.755744944347213  3.3648291285249026 6.755744944347213  C 2.7116923808989206 6.755744944347213  2.1822204328727284 7.279523645620436  2.1822204328727284 7.9256374174654916  C 2.1822204328727284 7.928862262312675  2.1822339118854455 7.932087093376254  2.182260869565218 7.935311827956989  L 2.182260869565218 16.60627956989248  C 2.1822339118854472 16.60950430447313  2.1822204328727284 16.612729135536867  2.1822204328727284 16.615953980383967  C 2.1822204328727284 17.262067752229026  2.7116923808989206 17.78584645350225  3.3648291285249026 17.78584645350225  C 3.3680890260333847 17.78584645350225  3.371348909608688 17.78583311942515  3.3746086956521744 17.785806451612906  L 12.105043478260868 17.785806451612906  C 12.108303264304483 17.785833119425156  12.111563147879531 17.78584645350225  12.114823045388142 17.78584645350225  C 12.767959793014123 17.78584645350225  13.297431741040315 17.262067752229026  13.297431741040315 16.615953980383967  C 13.297431741040315 16.612729135536867  13.2974182620276 16.60950430447313  13.297391304347828 16.60627956989247  L 13.297391304347828 7.935311827956991  C 13.2974182620276 7.932087093376213  13.297431741040315 7.92886226231272  13.297431741040315 7.9256374174654916  C 13.297431741040315 7.279523645620436  12.767959793014123 6.755744944347213  12.114823045388142 6.755744944347213  C 12.111563147879492 6.755744944347213  12.108303264304524 6.755758278424311  12.105043478260868 6.755784946236558  Z " fill-rule="nonzero" fill="#7f7f7f" stroke="none" transform="matrix(1 0 0 1 601 1426 )" />
  </g>
</svg>