<?xml version="1.0" encoding="utf-8"?>
<svg version="1.1" xmlns:xlink="http://www.w3.org/1999/xlink" width="20px" height="20px" xmlns="http://www.w3.org/2000/svg">
  <g transform="matrix(1 0 0 1 -645 -1426 )">
    <path d="M 19.60452052631579 12.065677151162792  C 19.87141081140351 11.061242984496127  19.935732807017544 10.036931298449614  19.795645 9.021299069767442  C 19.660336403508772 8.040055329457363  19.338309846491228 7.091766395348838  18.83855375 6.202800000000001  C 17.834613092105265 4.4170595930232555  16.157637149122806 2.9792918410852716  14.116498684210528 2.1543752131782945  C 13.67606614035088 1.9763688178294574  13.155746293859652 2.147594379844961  12.954318004385964 2.536833217054264  C 12.752911644736841 2.926033294573643  12.946644956140352 3.3858702131782947  13.3870775 3.563895968992248  C 16.879692192982457 4.9754122286821705  18.776445942982456 8.401899593023256  17.897137412280703 11.711388643410851  C 17.223115592105263 14.247747189922482  15.063768464912279 16.233115135658917  12.278980811403509 16.950410368217057  L 12.273215065789474 15.578300387596897  L 7.956471929824561 17.800202945736434  L 12.291783815789472 19.993548527131786  L 12.285733070175437 18.551053565891472  C 13.9392075877193 18.20393335271318  15.461385416666666 17.486521899224808  16.717418355263156 16.457269903100777  C 18.155960043859647 15.278432868217056  19.154310328947368 13.759857034883723  19.60452052631579 12.065677151162792  Z M 12.061044517543863 2.34861684108527  L 7.725864166666666 0.15501937984496122  L 7.73182721491228 1.5975337209302327  C 6.078221162280702 1.9446539341085272  4.55593370614035 2.6621041472868217  3.2998131140350866 3.691453003875969  C 1.8612056578947365 4.870348158914728  0.8628772807017536 6.388962751937984  0.41271094298245525 8.08323949612403  C 0.23754638157894647 8.742820193798448  0.14967910087719205 9.410905988372093  0.14967910087719205 10.079573003875968  C 0.14967910087719205 10.428301240310077  0.1735970614035079 10.777184457364342  0.22143300438596408 11.125040872093024  C 0.3563469736842098 12.105490290697674  0.6776500877192975 13.053120523255814  1.1763758114035077 13.941583178294572  C 2.178102236842104 15.726083662790698  3.8520966666666663 17.16387079457364  5.889902828947369 17.990046705426355  C 6.330072302631579 18.1685180620155  6.850655219298246 17.997834961240308  7.05258774122807 17.608828643410853  C 7.254564100877193 17.21974480620155  7.061378859649122 16.75979164728682  6.621187456140351 16.58132027131783  C 3.1351496491228072 15.167982868217052  1.2422762500000004 11.742967906976743  2.120115964912281 8.437450503875967  C 2.7940720175438596 5.900956337209301  4.953484912280702 3.9154915310077505  7.738447960526317 3.198196298449611  L 7.744147938596493 4.570325639534882  L 12.061044517543863 2.34861684108527  Z " fill-rule="nonzero" fill="#7f7f7f" stroke="none" transform="matrix(1 0 0 1 645 1426 )" />
  </g>
</svg>