<?xml version="1.0" encoding="utf-8"?>
<svg version="1.1" xmlns:xlink="http://www.w3.org/1999/xlink" width="10px" height="240px" preserveAspectRatio="xMidYMin meet" viewBox="791 772  8 240" xmlns="http://www.w3.org/2000/svg">
  <path d="M 857 545  L 857 772  A 5 5 0 0 1 852 777 L 800 777  A 5 5 0 0 0 795 782 L 795 1010  " stroke-width="2" stroke="#e7772d" fill="none" />
  <path d="M 857 543  A 3.5 3.5 0 0 0 853.5 546.5 A 3.5 3.5 0 0 0 857 550 A 3.5 3.5 0 0 0 860.5 546.5 A 3.5 3.5 0 0 0 857 543 Z M 787 1002.6  L 795 1012  L 803 1002.6  L 795 1006.2  L 787 1002.6  Z " fill-rule="nonzero" fill="#e7772d" stroke="none" />
</svg>