<?xml version="1.0" encoding="utf-8"?>
<svg version="1.1" xmlns:xlink="http://www.w3.org/1999/xlink" width="17px" height="17px" xmlns="http://www.w3.org/2000/svg">
  <g transform="matrix(1 0 0 1 -692 -1429 )">
    <path d="M 17 0  L 0 0  L 0 17  L 17 17  L 17 0  Z M 10.243807692307692 9.663727272727272  L 6.320730769230769 9.663727272727272  L 6.320730769230769 5.800090909090909  L 10.243807692307692 5.800090909090909  L 10.243807692307692 9.663727272727272  Z M 6.320730769230771 11.209181818181818  L 10.243807692307692 11.209181818181818  L 10.243807692307692 15.454545454545453  L 6.320730769230771 15.454545454545453  L 6.320730769230771 11.209181818181818  Z M 1.3076923076923077 9.663727272727272  L 1.3076923076923077 5.800090909090909  L 5.013038461538461 5.800090909090909  L 5.013038461538461 9.663727272727272  L 1.3076923076923077 9.663727272727272  Z M 11.551500000000003 9.663727272727272  L 11.551500000000003 5.800090909090909  L 15.692307692307693 5.800090909090909  L 15.692307692307693 9.663727272727272  L 11.551500000000003 9.663727272727272  Z M 1.3076923076923077 1.5454545454545454  L 15.692307692307693 1.5454545454545454  L 15.692307692307693 4.254636363636363  L 1.3076923076923077 4.254636363636363  L 1.3076923076923077 1.5454545454545454  Z M 1.3076923076923077 15.454545454545453  L 1.3076923076923077 11.209181818181818  L 5.013038461538461 11.209181818181818  L 5.013038461538461 15.454545454545453  L 1.3076923076923077 15.454545454545453  Z M 15.692307692307693 15.454545454545453  L 11.551500000000003 15.454545454545453  L 11.551500000000003 11.209181818181818  L 15.692307692307693 11.209181818181818  L 15.692307692307693 15.454545454545453  Z " fill-rule="nonzero" fill="#7f7f7f" stroke="none" transform="matrix(1 0 0 1 692 1429 )" />
  </g>
</svg>