<?xml version="1.0" encoding="utf-8"?>
<svg version="1.1" xmlns:xlink="http://www.w3.org/1999/xlink" width="20px" height="20px" xmlns="http://www.w3.org/2000/svg">
  <g transform="matrix(1 0 0 1 -733 -1428 )">
    <path d="M 16.410714285714285 5.019230769230768  L 13.892857142857142 2.307692307692308  C 13.75 2.1538461538461537  13.75 1.9230769230769231  13.892857142857142 1.7692307692307692  L 15.410714285714285 0.13461538461538447  C 15.553571428571427 -0.019230769230769506  15.767857142857142 -0.019230769230769506  15.910714285714285 0.13461538461538447  L 18.428571428571427 2.8461538461538454  C 18.57142857142857 2.999999999999999  18.57142857142857 3.2307692307692304  18.428571428571427 3.3846153846153837  L 16.910714285714285 5.019230769230768  C 16.767857142857142 5.173076923076922  16.553571428571427 5.173076923076922  16.410714285714285 5.019230769230768  Z M 2.8571428571428568 16.923076923076923  L 7.142857142857143 15.576923076923077  L 15.446428571428573 6.634615384615384  C 15.571428571428571 6.499999999999999  15.553571428571427 6.269230769230769  15.410714285714285 6.134615384615384  L 12.892857142857144 3.4038461538461546  C 12.750000000000002 3.2500000000000013  12.535714285714285 3.2307692307692317  12.42857142857143 3.365384615384616  L 4.107142857142857 12.307692307692308  L 2.8571428571428568 16.923076923076923  Z M 20 18.461538461538463  L 0 18.461538461538463  L 0 20  L 20 20  L 20 18.461538461538463  Z " fill-rule="nonzero" fill="#000000" stroke="none" transform="matrix(1 0 0 1 733 1428 )" />
  </g>
</svg>