<?xml version="1.0" encoding="utf-8"?>
<svg version="1.1" xmlns:xlink="http://www.w3.org/1999/xlink" width="77px" height="10px" preserveAspectRatio="xMinYMid meet" viewBox="1553 42  77 8" xmlns="http://www.w3.org/2000/svg">
  <path d="M 1555 46  L 1620 46  A 5 5 0 0 1 1625 51 L 1625 308  A 5 5 0 0 0 1630 313 L 1695 313  " stroke-width="2" stroke="#e7772d" fill="none" />
  <path d="M 1556.5 42.5  A 3.5 3.5 0 0 0 1553 46 A 3.5 3.5 0 0 0 1556.5 49.5 A 3.5 3.5 0 0 0 1560 46 A 3.5 3.5 0 0 0 1556.5 42.5 Z M 1687.6 321  L 1697 313  L 1687.6 305  L 1691.2 313  L 1687.6 321  Z " fill-rule="nonzero" fill="#e7772d" stroke="none" />
</svg>