<?xml version="1.0" encoding="utf-8"?>
<svg version="1.1" xmlns:xlink="http://www.w3.org/1999/xlink" width="24px" height="20px" xmlns="http://www.w3.org/2000/svg">
  <g transform="matrix(1 0 0 1 -163 -2240 )">
    <path d="M 21.75 17.784090909090907  C 22.019230769230766 17.51893939393939  22.153846153846153 17.196969696969695  22 16.81818181818182  L 22 6.818181818181818  C 22.153846153846153 6.439393939393938  22.019230769230766 6.11742424242424  21.75 5.852272727272727  C 21.480769230769234 5.587121212121211  21.153846153846157 5.454545454545454  20.76923076923077 5.454545454545454  L 10.615384615384615 5.454545454545454  C 10.230769230769232 5.454545454545454  9.903846153846155 5.3219696969696955  9.634615384615385 5.056818181818182  C 9.365384615384615 4.791666666666665  9.230769230769232 4.469696969696968  9.230769230769232 4.090909090909092  L 9.230769230769232 3.181818181818181  C 9.230769230769232 2.8030303030303028  9.096153846153847 2.4810606060606033  8.826923076923077 2.2159090909090917  C 8.557692307692308 1.9507575757575757  8.230769230769232 1.8181818181818188  7.846153846153847 1.8181818181818188  L 3.230769230769231 1.8181818181818188  C 2.8461538461538463 1.8181818181818188  2.5192307692307696 1.9507575757575757  2.25 2.2159090909090917  C 1.980769230769231 2.4810606060606033  1.8461538461538463 2.8030303030303028  2 3.181818181818181  L 2 16.81818181818182  C 1.8461538461538463 17.196969696969695  1.980769230769231 17.51893939393939  2.25 17.784090909090907  C 2.5192307692307696 18.049242424242426  2.8461538461538463 18.18181818181818  3.230769230769231 18  L 20.76923076923077 18  C 21.153846153846157 18.18181818181818  21.480769230769234 18.049242424242426  21.75 17.784090909090907  Z M 23.048076923076923 4.573863636363635  C 23.682692307692307 5.198863636363635  24 5.9469696969696955  24 6.818181818181818  L 24 16.81818181818182  C 24 17.689393939393938  23.682692307692307 18.4375  23.048076923076923 19.0625  C 22.413461538461537 19.6875  21.653846153846157 20  20.76923076923077 20  L 3.230769230769231 20  C 2.3461538461538467 20  1.586538461538462 19.6875  0.9519230769230769 19.0625  C 0.3173076923076923 18.4375  0 17.689393939393938  0 16.81818181818182  L 0 3.181818181818181  C 0 2.3106060606060574  0.3173076923076923 1.5625  0.9519230769230769 0.9375  C 1.586538461538462 0.3125  2.3461538461538467 0  3.230769230769231 0  L 7.846153846153847 0  C 8.730769230769232 0  9.490384615384615 0.3125  10.125 0.9375  C 10.759615384615385 1.5625  11.076923076923077 2.3106060606060574  11.076923076923077 3.181818181818181  L 11.076923076923077 3.6363636363636354  L 20.76923076923077 3.6363636363636354  C 21.653846153846157 3.6363636363636354  22.413461538461537 3.9488636363636354  23.048076923076923 4.573863636363635  Z " fill-rule="nonzero" fill="#000000" stroke="none" transform="matrix(1 0 0 1 163 2240 )" />
  </g>
</svg>