<?xml version="1.0" encoding="utf-8"?>
<svg version="1.1" xmlns:xlink="http://www.w3.org/1999/xlink" width="30px" height="30px" xmlns="http://www.w3.org/2000/svg">
  <g transform="matrix(1 0 0 1 -567 -2436 )">
    <path d="M 30 15  C 30 6.75  23.25 0  15 0  C 6.75 0  0 6.75  0 15  C 0 23.25  6.75 30  15 30  C 23.25 30  30 23.25  30 15  Z M 22.500000000000004 14.999999999999998  C 22.5 15.9  21.9 16.5  21 16.5  L 16.499999999999996 16.5  L 16.499999999999996 21.000000000000004  C 16.499999999999996 21.900000000000002  15.899999999999997 22.500000000000004  14.999999999999998 22.500000000000004  C 14.1 22.500000000000004  13.499999999999998 21.900000000000002  13.499999999999998 21.000000000000004  L 13.499999999999998 16.5  L 9 16.5  C 8.100000000000001 16.5  7.5 15.9  7.5 15  C 7.5 14.1  8.100000000000001 13.5  9 13.5  L 13.499999999999998 13.5  L 13.5 9  C 13.5 8.100000000000001  14.100000000000001 7.5  15 7.5  C 15.9 7.5  16.5 8.100000000000001  16.5 9  L 16.5 13.499999999999998  L 21.000000000000004 13.499999999999998  C 21.900000000000002 13.499999999999998  22.500000000000004 14.1  22.500000000000004 14.999999999999998  Z " fill-rule="nonzero" fill="#000000" stroke="none" transform="matrix(1 0 0 1 567 2436 )" />
  </g>
</svg>