<?xml version="1.0" encoding="utf-8"?>
<svg version="1.1" xmlns:xlink="http://www.w3.org/1999/xlink" width="30px" height="30px" xmlns="http://www.w3.org/2000/svg">
  <g transform="matrix(1 0 0 1 -136 -2054 )">
    <path d="M 136 2054  L 166 2054  L 166 2084  L 136 2084  L 136 2054  " fill-rule="nonzero" fill="#cccccc" stroke="none" />
    <path d="M 138 2056  L 164 2056  L 164 2082  L 138 2082  L 138 2056  " fill-rule="nonzero" fill="#ffffff" stroke="none" />
    <path d="M 153.85 2063  C 152.59 2063  151.6 2062.01  151.6 2060.75  C 151.6 2059.49  152.59 2058.5  153.85 2058.5  C 155.10999999999999 2058.5  156.1 2059.49  156.1 2060.75  C 156.1 2062.01  155.10999999999999 2063  153.85 2063  " fill-rule="nonzero" fill="#cccccc" stroke="none" />
    <path d="M 139 2081  L 139 2067.8  L 145 2061.8  L 153.4 2066.6  L 158.2 2065.4  L 163 2066.6  L 163 2081  L 139 2081  " fill-rule="nonzero" fill="#169bd5" stroke="none" />
  </g>
</svg>