<?xml version="1.0" encoding="utf-8"?>
<svg version="1.1" xmlns:xlink="http://www.w3.org/1999/xlink" width="576px" height="10px" preserveAspectRatio="xMinYMid meet" viewBox="1381 1998  576 8" xmlns="http://www.w3.org/2000/svg">
  <path d="M 1952 1691  L 1952 1997  A 5 5 0 0 1 1947 2002 L 1391 2002  A 5 5 0 0 0 1386 2007 L 1386 2022  " stroke-width="2" stroke="#e7772d" fill="none" />
  <path d="M 1952 1689  A 3.5 3.5 0 0 0 1948.5 1692.5 A 3.5 3.5 0 0 0 1952 1696 A 3.5 3.5 0 0 0 1955.5 1692.5 A 3.5 3.5 0 0 0 1952 1689 Z M 1378 2014.6  L 1386 2024  L 1394 2014.6  L 1386 2018.2  L 1378 2014.6  Z " fill-rule="nonzero" fill="#e7772d" stroke="none" />
</svg>