<?xml version="1.0" encoding="utf-8"?>
<svg version="1.1" xmlns:xlink="http://www.w3.org/1999/xlink" width="26px" height="20px" xmlns="http://www.w3.org/2000/svg">
  <g transform="matrix(1 0 0 1 -1521 -3118 )">
    <path d="M 4.758928571428571 15.340909090909092  C 5.300595238095238 15.87121212121212  5.571428571428571 16.515151515151516  5.571428571428571 17.272727272727273  C 5.571428571428571 18.03030303030303  5.300595238095238 18.674242424242426  4.758928571428571 19.204545454545453  C 4.217261904761905 19.734848484848484  3.5595238095238098 20  2.7857142857142856 20  C 2.0119047619047623 20  1.3541666666666667 19.734848484848484  0.8125 19.204545454545453  C 0.2708333333333333 18.674242424242426  0 18.03030303030303  0 17.272727272727273  C 0 16.515151515151516  0.2708333333333333 15.87121212121212  0.8125 15.340909090909092  C 1.3541666666666667 14.810606060606059  2.0119047619047623 14.545454545454547  2.7857142857142856 14.545454545454547  C 3.5595238095238098 14.545454545454547  4.217261904761905 14.810606060606059  4.758928571428571 15.340909090909092  Z M 4.758928571428571 8.068181818181818  C 5.300595238095238 8.598484848484846  5.571428571428571 9.24242424242424  5.571428571428571 10  C 5.571428571428571 10.757575757575758  5.300595238095238 11.401515151515152  4.758928571428571 11.931818181818183  C 4.217261904761905 12.462121212121211  3.5595238095238098 12.727272727272727  2.7857142857142856 12.727272727272727  C 2.0119047619047623 12.727272727272727  1.3541666666666667 12.462121212121211  0.8125 11.931818181818183  C 0.2708333333333333 11.401515151515152  0 10.757575757575758  0 10  C 0 9.24242424242424  0.2708333333333333 8.598484848484846  0.8125 8.068181818181818  C 1.3541666666666667 7.537878787878787  2.0119047619047623 7.272727272727273  2.7857142857142856 7.272727272727273  C 3.5595238095238098 7.272727272727273  4.217261904761905 7.537878787878787  4.758928571428571 8.068181818181818  Z M 25.862165178571427 15.589488636363637  C 25.95405505952381 15.679450757575758  26 15.785984848484848  26 15.909090909090908  L 26 18.636363636363637  C 26 18.759469696969695  25.95405505952381 18.86600378787879  25.862165178571427 18.955965909090907  C 25.77027529761905 19.04592803030303  25.66145833333334 19.090909090909093  25.535714285714285 19  L 7.892857142857142 19  C 7.767113095238096 19.090909090909093  7.658296130952381 19.04592803030303  7.56640625 18.955965909090907  C 7.4745163690476195 18.86600378787879  7.428571428571428 18.759469696969695  7.428571428571428 18.636363636363637  L 7.428571428571428 15.909090909090908  C 7.428571428571428 15.785984848484848  7.4745163690476195 15.679450757575758  7.56640625 15.589488636363637  C 7.658296130952381 15.499526515151516  7.767113095238096 15.454545454545453  7.892857142857142 15.454545454545453  L 25.535714285714285 15.454545454545453  C 25.66145833333334 15.454545454545453  25.77027529761905 15.499526515151516  25.862165178571427 15.589488636363637  Z M 4.758928571428571 0.7954545454545459  C 5.300595238095238 1.3257575757575757  5.571428571428571 1.969696969696968  5.571428571428571 2.727272727272727  C 5.571428571428571 3.484848484848484  5.300595238095238 4.128787878787876  4.758928571428571 4.659090909090908  C 4.217261904761905 5.189393939393938  3.5595238095238098 5.454545454545454  2.7857142857142856 5.454545454545454  C 2.0119047619047623 5.454545454545454  1.3541666666666667 5.189393939393938  0.8125 4.659090909090908  C 0.2708333333333333 4.128787878787876  0 3.484848484848484  0 2.727272727272727  C 0 1.969696969696968  0.2708333333333333 1.3257575757575757  0.8125 0.7954545454545459  C 1.3541666666666667 0.2651515151515138  2.0119047619047623 0  2.7857142857142856 0  C 3.5595238095238098 0  4.217261904761905 0.2651515151515138  4.758928571428571 0.7954545454545459  Z M 25.862165178571427 8.316761363636365  C 25.95405505952381 8.406723484848484  26 8.513257575757576  26 8.636363636363635  L 26 11.363636363636363  C 26 11.486742424242422  25.95405505952381 11.593276515151514  25.862165178571427 11.683238636363637  C 25.77027529761905 11.773200757575758  25.66145833333334 11.818181818181817  25.535714285714285 11.818181818181817  L 7.892857142857142 11.818181818181817  C 7.767113095238096 11.818181818181817  7.658296130952381 11.773200757575758  7.56640625 11.683238636363637  C 7.4745163690476195 11.593276515151514  7.428571428571428 11.486742424242422  7.428571428571428 11.363636363636363  L 7.428571428571428 8.636363636363635  C 7.428571428571428 8.513257575757576  7.4745163690476195 8.406723484848484  7.56640625 8.316761363636365  C 7.658296130952381 8.226799242424242  7.767113095238096 8.181818181818182  7.892857142857142 8.181818181818182  L 25.535714285714285 8.181818181818182  C 25.66145833333334 8.181818181818182  25.77027529761905 8.226799242424242  25.862165178571427 8.316761363636365  Z M 25.862165178571427 1.0440340909090917  C 25.95405505952381 1.133996212121211  26 1.2405303030303028  26 1.3636363636363646  L 26 4.090909090909092  C 26 4.214015151515149  25.95405505952381 4.32054924242424  25.862165178571427 4.410511363636365  C 25.77027529761905 4.500473484848484  25.66145833333334 4.545454545454546  25.535714285714285 4.545454545454546  L 7.892857142857142 4.545454545454546  C 7.767113095238096 4.545454545454546  7.658296130952381 4.500473484848484  7.56640625 4.410511363636365  C 7.4745163690476195 4.32054924242424  7.428571428571428 4.214015151515149  7.428571428571428 4.090909090909092  L 7.428571428571428 1.3636363636363646  C 7.428571428571428 1.2405303030303028  7.4745163690476195 1.133996212121211  7.56640625 1.0440340909090917  C 7.658296130952381 0.954071969696968  7.767113095238096 0.9090909090909083  7.892857142857142 1  L 25.535714285714285 1  C 25.66145833333334 0.9090909090909083  25.77027529761905 0.954071969696968  25.862165178571427 1.0440340909090917  Z " fill-rule="nonzero" fill="#000000" stroke="none" transform="matrix(1 0 0 1 1521 3118 )" />
  </g>
</svg>