<?xml version="1.0" encoding="utf-8"?>
<svg version="1.1" xmlns:xlink="http://www.w3.org/1999/xlink" width="20px" height="20px" xmlns="http://www.w3.org/2000/svg">
  <g transform="matrix(1 0 0 1 -2475 -2925 )">
    <path d="M 6.083333333333333 4.0625  C 6.472222222222222 4.548611111111109  6.666666666666666 5.138888888888886  6.666666666666666 5.833333333333332  C 6.666666666666666 6.527777777777777  6.472222222222222 7.118055555555555  6.083333333333333 7.604166666666668  C 5.6944444444444455 8.090277777777779  5.222222222222222 8.333333333333332  4.666666666666667 8.333333333333332  C 4.111111111111112 8.333333333333332  3.6388888888888893 8.090277777777779  3.25 7.604166666666668  C 2.8611111111111116 7.118055555555555  2.6666666666666665 6.527777777777777  2.6666666666666665 5.833333333333332  C 2.6666666666666665 5.138888888888886  2.8611111111111116 4.548611111111109  3.25 4.0625  C 3.6388888888888893 3.576388888888886  4.111111111111112 3.3333333333333326  4.666666666666667 3.3333333333333326  C 5.222222222222222 3.3333333333333326  5.6944444444444455 3.576388888888886  6.083333333333333 4.0625  Z M 13 5.416666666666668  L 17.333333333333336 10.833333333333336  L 17.333333333333336 16.666666666666668  L 2.6666666666666665 16.666666666666668  L 2.6666666666666665 14.166666666666664  L 6 10  L 7.666666666666667 12.083333333333336  L 13 5.416666666666668  Z M 18.567708333333332 1.7903645833333326  C 18.501736111111114 1.7078993055555536  18.423611111111114 1.6666666666666674  18.333333333333332 2  L 1.6666666666666665 2  C 1.576388888888889 1.6666666666666674  1.498263888888889 1.7078993055555536  1.4322916666666665 1.7903645833333326  C 1.3663194444444446 1.8728298611111094  1.3333333333333333 1.9704861111111094  1.3333333333333333 2.0833333333333326  L 1.3333333333333333 17.916666666666668  C 1.3333333333333333 18.02951388888889  1.3663194444444446 18.12717013888889  1.4322916666666665 18.209635416666668  C 1.498263888888889 18.292100694444443  1.576388888888889 18.333333333333332  1.6666666666666665 18  L 18.333333333333332 18  C 18.423611111111114 18.333333333333332  18.501736111111114 18.292100694444443  18.567708333333332 18.209635416666668  C 18.633680555555557 18.12717013888889  18.666666666666668 18.02951388888889  18.666666666666668 17.916666666666668  L 18.666666666666668 2.0833333333333326  C 18.666666666666668 1.9704861111111094  18.633680555555557 1.8728298611111094  18.567708333333332 1.7903645833333326  Z M 19.510416666666664 0.6119791666666674  C 19.836805555555557 1.0199652777777768  20.000000000000004 1.5104166666666674  20 2.0833333333333326  L 20 17.916666666666668  C 20.000000000000004 18.489583333333332  19.836805555555557 18.98003472222222  19.510416666666664 19.388020833333332  C 19.18402777777778 19.796006944444443  18.791666666666668 20  18.333333333333332 20  L 1.6666666666666665 20  C 1.2083333333333333 20  0.8159722222222223 19.796006944444443  0.4895833333333333 19.388020833333332  C 0.16319444444444445 18.98003472222222  0 18.489583333333332  0 17.916666666666668  L 0 2.0833333333333326  C 0 1.5104166666666674  0.16319444444444445 1.0199652777777768  0.4895833333333333 0.6119791666666674  C 0.8159722222222223 0.20399305555555358  1.2083333333333333 0  1.6666666666666665 0  L 18.333333333333332 0  C 18.791666666666668 0  19.18402777777778 0.20399305555555358  19.510416666666664 0.6119791666666674  Z " fill-rule="nonzero" fill="#000000" stroke="none" transform="matrix(1 0 0 1 2475 2925 )" />
  </g>
</svg>