<?xml version="1.0" encoding="utf-8"?>
<svg version="1.1" xmlns:xlink="http://www.w3.org/1999/xlink" width="842px" height="10px" preserveAspectRatio="xMinYMid meet" viewBox="491 3036  842 8" xmlns="http://www.w3.org/2000/svg">
  <path d="M 496 3181  L 496 3045  A 5 5 0 0 1 501 3040 L 1323 3040  A 5 5 0 0 0 1328 3035 L 1328 2978  " stroke-width="2" stroke="#e7772d" fill="none" />
  <path d="M 496 3176  A 3.5 3.5 0 0 0 492.5 3179.5 A 3.5 3.5 0 0 0 496 3183 A 3.5 3.5 0 0 0 499.5 3179.5 A 3.5 3.5 0 0 0 496 3176 Z M 1336 2985.4  L 1328 2976  L 1320 2985.4  L 1328 2981.8  L 1336 2985.4  Z " fill-rule="nonzero" fill="#e7772d" stroke="none" />
</svg>