<?xml version="1.0" encoding="utf-8"?>
<svg version="1.1" xmlns:xlink="http://www.w3.org/1999/xlink" width="60px" height="60px" xmlns="http://www.w3.org/2000/svg">
  <g transform="matrix(1 0 0 1 -746 -3260 )">
    <path d="M 58.10911690848214 30  C 58.10911690848214 26.20613839285714  57.365687779017854 22.524776785714284  55.89942103794643 19.058056640625  C 54.48356584821428 15.710616629464282  52.457059151785714 12.704694475446429  49.87621372767857 10.123849051339285  C 47.29536830357143 7.5430036272321415  44.28944614955357 5.516496930803571  40.941943359375 4.100641741071427  C 37.47522321428571 2.6343122209821415  33.79386160714285 1.890820312499999  30 1.890820312499999  C 26.20613839285714 1.890820312499999  22.524776785714284 2.6343122209821423  19.058056640625 4.1005789620535715  C 15.710616629464282 5.516434151785714  12.704694475446429 7.542940848214284  10.123849051339285 10.123786272321427  C 7.5430036272321415 12.704631696428574  5.516496930803571 15.710553850446427  4.100641741071427 19.05799386160714  C 2.6343122209821415 22.524776785714284  1.890820312499999 26.20613839285714  1.890820312499999 30  C 1.890820312499999 33.79386160714285  2.6343122209821415 37.47522321428571  4.10057896205357 40.941943359375  C 5.516434151785713 44.28938337053572  7.542940848214284 47.29530552455357  10.123786272321427 49.87621372767857  C 12.704631696428569 52.457059151785714  15.710553850446427 54.48362862723214  19.05799386160714 55.89942103794643  C 22.52471400669643 57.365687779017854  26.20613839285714 58.109179687499996  29.999937220982147 58.109179687499996  C 33.793736049107146 58.109179687499996  37.47516043526786 57.365687779017854  40.94188058035714 55.89942103794643  C 44.289320591517864 54.48356584821428  47.29524274553571 52.457059151785714  49.87615094866072 49.87621372767857  C 52.457059151785714 47.29536830357143  54.48356584821428 44.28944614955357  55.89935825892857 40.941943359375  C 57.365624999999994 37.47522321428571  58.10911690848214 33.79386160714285  58.10911690848214 30  Z M 54.12296316964285 30  C 54.12296316964285 43.30142996651785  43.30142996651785 54.12296316964285  30 54.12296316964285  C 16.69857003348214 54.12296316964285  5.8770368303571425 43.30142996651785  5.8770368303571425 29.999999999999996  C 5.8770368303571425 16.698570033482138  16.69857003348214 5.877036830357143  30 5.877036830357143  C 43.30142996651785 5.877036830357143  54.12296316964285 16.69857003348214  54.12296316964285 30  Z M 46.07142857142858 30  C 46.07142857142858 28.890506417410712  45.28443080357143 27.99107142857143  44.31361607142858 28  L 32 28  L 32 15.686383928571429  C 32.00892857142858 14.715569196428572  31.109493582589284 13.928571428571429  30 13.928571428571429  C 28.890506417410712 13.928571428571429  27.99107142857143 14.715569196428572  28 15.686383928571429  L 28 28  L 15.686383928571429 28  C 14.715569196428572 27.99107142857143  13.928571428571429 28.890506417410712  13.928571428571429 30  C 13.928571428571429 31.109493582589284  14.715569196428572 32.00892857142858  15.686383928571429 32  L 28 32  L 28 44.31361607142858  C 27.99107142857143 45.28443080357143  28.890506417410712 46.07142857142858  30 46.07142857142858  C 31.109493582589284 46.07142857142858  32.00892857142858 45.28443080357143  32 44.31361607142858  L 32 32  L 44.31361607142858 32  C 45.28443080357143 32.00892857142858  46.07142857142858 31.109493582589284  46.07142857142858 30  Z " fill-rule="nonzero" fill="#000000" stroke="none" transform="matrix(1 0 0 1 746 3260 )" />
  </g>
</svg>