<?xml version="1.0" encoding="utf-8"?>
<svg version="1.1" xmlns:xlink="http://www.w3.org/1999/xlink" width="20px" height="20px" xmlns="http://www.w3.org/2000/svg">
  <g transform="matrix(1 0 0 1 -2435 -2925 )">
    <path d="M 12.096969613636364 11.071515136363637  C 12.46480800757576 10.210101  12.6487271969697 9.329131303030305  12.648727181818183 8.428606068181818  C 12.648727181818183 7.493494962121213  12.417131219696971 6.761858598484849  11.953939295454546 6.233696977272729  C 11.490747371212125 5.705535356060608  10.85220191666667 5.4414545454545475  10.038302931818182 5.4414545454545475  C 9.492686765151516 5.4414545454545475  8.955959492424244 5.573494946969699  8.428121113636365 5.837575750000001  C 7.900282734848486 6.101656553030306  7.424161522727275 6.467393924242427  6.999757477272727 6.934787863636366  C 6.575353431818183 7.402181803030307  6.231272621212121 7.9953131136363655  5.967515045454545 8.714181795454547  C 5.70375746969697 9.43305047727273  5.571717068181817 10.212201992424246  5.57139384090909 11.051636340909091  C 5.571393840909092 12.021333310606064  5.802989803030303 12.770262606060607  6.266181727272727 13.298424227272728  C 6.729373651515152 13.82658584848485  7.380848401515152 14.090666659090909  8.220605977272728 14.090666659090909  C 9.05163628030303 14.090666659090909  9.813494863636363 13.802828272727272  10.506181727272725 13.227151499999998  C 11.198868590909088 12.651474727272724  11.729131219696967 11.932929272727272  12.096969613636364 11.071515136363637  Z M 19.97478779545456 9.999515090909103  L 19.97333325 10  C 19.973333250000003 10.960969696969698  19.81317163636364 11.813818181818181  19.49284840909091 12.558545454545456  C 19.172525181818184 13.303272727272727  18.746181749999998 13.887676765151518  18.213818113636364 14.31175756818182  C 17.68145447727273 14.735838371212125  17.11224235606061 15.05842422727273  16.506181750000003 15.279515136363637  C 15.900121143939396 15.500606045454548  15.272403969696972 15.61971715909091  14.623030227272729 15.636848477272729  C 14.570989818181822 15.636848477272732  14.503919113636368 15.638949484848489  14.421818113636364 15.643151500000002  C 14.339717113636365 15.647353515151519  14.268282772727275 15.649454522727275  14.20751509090909 15.649454522727273  C 13.384888833333337 15.649454522727275  12.770100954545455 15.419959575757577  12.363151454545454 14.960969681818185  C 12.120727212121212 14.675232303030306  11.977858522727274 14.31595957575758  11.934545386363638 13.883151500000002  C 11.484282765151514 14.454626242424244  10.915070643939393 14.93074745454546  10.226909022727273 15.311515136363639  C 9.538747401515154 15.69228281818182  8.787717098484851 15.882828272727274  7.973818113636365 15.8831515  C 6.580040340909093 15.883151500000004  5.499959530303034 15.46973735606061  4.733575681818184 14.642909068181822  C 3.9671918333333367 13.816080780303036  3.58399991666667 12.649373712121214  3.5839999318181848 11.142787863636364  C 3.583999931818185 9.78359593939394  3.869737303030307 8.52816159848485  4.441212045454549 7.376484840909092  C 5.012686787878792 6.224808083333334  5.787636280303035 5.3136161666666695  6.766060522727276 4.642909090909092  C 7.744484765151519 3.9722020151515176  8.809373651515157 3.636686863636365  9.960727181818186 3.6363636363636376  C 10.713858500000004 3.6363636363636376  11.384888803030309 3.790060606060608  11.973818090909097 4.097454545454547  C 12.562747378787885 4.404848484848488  13.021575659090916 4.835555553030306  13.350302931818185 5.389575750000002  L 13.376484750000007 5.142787863636365  L 13.51951504545455 4.415515136363638  C 13.528242318181826 4.36347472727273  13.5519998939394 4.311595939393941  13.590787772727278 4.259878772727274  C 13.629575651515154 4.2081616060606075  13.670626159090913 4.182141401515152  13.71393929545455 4.18181815909091  L 15.246545363636368 4.18181815909091  C 15.289858500000006 4.18181815909091  15.34610092424243 4.229494924242426  15.415272636363639 4.324848454545457  C 15.458585772727279 4.368161590909094  15.471515068181823 4.437494924242427  15.454060522727278 4.532848454545456  L 13.895757500000006 12.50666663636364  C 13.85244436363637 12.714505015151518  13.830787795454553 12.922343401515155  13.830787795454551 13.130181795454547  C 13.830787795454553 13.467959568181822  13.88492921212122 13.693090878787881  13.99321204545455 13.80557572727273  C 14.101494878787884 13.918060575757579  14.294141340909096 13.974303000000006  14.571151431818187 13.974303  C 14.813575674242433 13.965575727272732  15.06036355303031 13.941818151515156  15.311515068181825 13.903030272727275  C 15.562666583333339 13.8642423939394  15.87862618181819 13.76032320454546  16.259393863636372 13.591272704545457  C 16.640161545454554 13.422222204545456  16.97357568939395 13.205818166666667  17.259636295454552 12.942060590909092  C 17.54569690151516 12.678303015151517  17.792484780303038 12.290909075757579  17.999999931818188 11.779878772727274  C 18.207515083333345 11.26884846969697  18.311434272727286 10.675717159090912  18.31175750000001 10.000484840909094  C 18.311757500000013 7.472484840909095  17.55846456818183 5.455191909090913  16.051878704545462 3.9486060454545484  C 14.5452928409091 2.442020181818185  12.52799990909092 1.6887272500000035  9.999999909090919 1.6887272500000035  C 8.874504954545465 1.6887272500000035  7.798787780303041 1.9094949242424275  6.772848386363646 2.351030272727276  C 5.7469089924242525 2.7925656212121246  4.863838287878798 3.3834343106060643  4.123636272727282 4.123636340909095  C 3.383434257575767 4.863838371212125  2.792565568181828 5.74690907575758  2.351030204545464 6.772848454545458  C 1.9094948409091006 7.798787833333338  1.6887271666666768 8.874505007575761  1.6887271818181913 9.999999977272731  C 1.6887271969697057 11.1254949469697  1.9094948712121305 12.201212121212123  2.351030204545464 13.227151500000003  C 2.792565537878798 14.253090878787884  3.3834342272727373 15.136161583333337  4.123636272727282 15.876363613636368  C 4.863838318181828 16.6165656439394  5.746909022727281 17.20743433333334  6.772848386363646 17.648969681818187  C 7.7987877500000105 18.090505030303035  8.874504924242435 18.31127270454546  9.999999909090919 18.31127270454546  C 11.97397971212122 18.31127270454546  13.727191833333343 17.687919166666674  15.259636272727285 16.441212090909097  C 15.354989803030314 16.363313106060616  15.458908992424254 16.328727250000007  15.571393840909103 16.337454522727278  C 15.683878689393953 16.346181795454555  15.774868590909106 16.398060583333343  15.844363545454556 16.493090886363643  L 16.376727181818193 17.129696954545462  C 16.445898893939408 17.233454530303035  16.4762827348485 17.337373719696977  16.467878704545466 17.44145452272728  C 16.45042415909092 17.553939371212127  16.398545371212137 17.649131287878795  16.3122423409091 17.72703027272728  C 15.429171628787891 18.445575727272736  14.444282742424257 18.999757545454557  13.357575681818192 19.389575727272735  C 12.270868621212133 19.77939390909092  11.151838318181827 19.974141386363648  10.000484772727283 19.973818159090918  C 8.649696893939405 19.97381815909092  7.35967668939395 19.70973734848486  6.1304241590909205 19.181575727272737  C 4.90117162878789 18.65341410606062  3.840484757575769 17.943434310606076  2.9483635454545567 17.051636340909102  C 2.056242333333344 16.159838371212135  1.3462625378787993 15.099151500000012  0.81842415909092 13.86957572727274  C 0.2905857803030414 12.639999954545466  0.026504969696980653 11.349979750000012  0.02618172727273818 9.999515113636374  C 0.025858484848496035 8.649050477272741  0.28993929545455643 7.359030272727285  0.81842415909092 6.129454500000011  C 1.3469090227272833 4.899878727272738  2.056888818181829 3.8391918560606166  2.9483635454545567 2.9473938863636473  C 3.8398382727272837 2.055595916666678  4.900525143939404 1.345616121212133  6.1304241590909205 0.8174545000000109  C 7.360323174242436 0.28929287878788945  8.650343378787891 0.02521206818182878  10.000484772727283 0.025212068181829105  C 12.978747393939408 0.025212068181829105  15.385696886363649 0.943030250000011  17.22133325000001 2.778666613636375  C 19.056969613636376 4.614302977272739  19.97478779545456 7.021252469696981  19.97478779545456 9.999515090909103  Z " fill-rule="nonzero" fill="#222222" stroke="none" transform="matrix(1 0 0 1 2435 2925 )" />
  </g>
</svg>