<?xml version="1.0" encoding="utf-8"?>
<svg version="1.1" xmlns:xlink="http://www.w3.org/1999/xlink" width="12px" height="12px" xmlns="http://www.w3.org/2000/svg">
  <g transform="matrix(1 0 0 1 -2203 -2194 )">
    <path d="M 8.013628620102214 10.345982142857142  C 8.054514480408859 10.386160714285714  8.074957410562181 10.4375  8.074957410562181 10.5  L 8.074957410562181 11.785714285714285  C 8.074957410562181 11.848214285714285  8.054514480408859 11.899553571428571  8.013628620102214 11.939732142857142  C 7.972742759795571 11.979910714285715  7.920499716070416 12  7.856899488926746 12  L 6.11243611584327 12  C 6.048835888699603 12  5.996592844974447 11.979910714285715  5.955706984667803 11.939732142857142  C 5.914821124361159 11.899553571428571  5.894378194207836 11.848214285714285  5.894378194207836 11.785714285714285  L 5.894378194207836 10.5  C 5.894378194207836 10.4375  5.914821124361159 10.386160714285714  5.955706984667803 10.345982142857142  C 5.996592844974447 10.305803571428571  6.048835888699603 10.285714285714286  6.11243611584327 10.285714285714286  L 7.856899488926746 10.285714285714286  C 7.920499716070416 10.285714285714286  7.972742759795571 10.305803571428571  8.013628620102214 10.345982142857142  Z M 4.742759795570699 9.488839285714286  C 4.783645655877342 9.529017857142858  4.804088586030664 9.580357142857144  4.804088586030664 9.642857142857142  C 4.804088586030664 9.696428571428571  4.781374219193641 9.75  4.735945485519591 9.803571428571429  L 2.5621805792163546 11.939732142857142  C 2.5167518455423057 11.979910714285715  2.4645088018171495 12  2.4054514480408855 12  C 2.3509369676320273 12  2.298693923906871 11.979910714285715  2.2487223168654173 11.939732142857142  L 0.06814310051107325 9.796875  C 0 9.725446428571429  -0.015900056785917084 9.647321428571429  0.020442930153321978 9.5625  C 0.05678591709256106 9.473214285714286  0.12492901760363431 9.428571428571429  0.22487223168654175 9.428571428571429  L 1.533219761499148 9.428571428571429  L 1.533219761499148 0.21428571428571486  C 1.533219761499148 0.15178571428571308  1.55366269165247 0.10044642857142838  1.594548551959114 0.06026785714285676  C 1.635434412265758 0.020089285714285143  1.6876774559909145 0  1.7512776831345827 0  L 3.059625212947189 0  C 3.1232254400908577 0  3.1754684838160134 0.020089285714285143  3.2163543441226574 0.06026785714285676  C 3.2572402044293014 0.10044642857142838  3.2776831345826234 0.15178571428571308  3.2776831345826234 0.21428571428571486  L 3.2776831345826234 9.428571428571429  L 4.58603066439523 9.428571428571429  C 4.649630891538898 9.428571428571429  4.701873935264055 9.448660714285714  4.742759795570699 9.488839285714286  Z M 9.321976149914821 6.9174107142857135  C 9.362862010221466 6.9575892857142865  9.383304940374789 7.008928571428571  9.383304940374789 7.071428571428571  L 9.383304940374789 8.357142857142858  C 9.383304940374789 8.419642857142856  9.362862010221466 8.470982142857142  9.321976149914821 8.511160714285714  C 9.281090289608178 8.551339285714286  9.228847245883022 8.571428571428571  9.165247018739354 8.571428571428571  L 6.11243611584327 8.571428571428571  C 6.048835888699603 8.571428571428571  5.996592844974447 8.551339285714286  5.955706984667803 8.511160714285714  C 5.914821124361159 8.470982142857142  5.894378194207836 8.419642857142856  5.894378194207836 8.357142857142858  L 5.894378194207836 7.071428571428571  C 5.894378194207836 7.008928571428571  5.914821124361159 6.9575892857142865  5.955706984667803 6.9174107142857135  C 5.996592844974447 6.877232142857143  6.048835888699603 6.857142857142857  6.11243611584327 6.857142857142857  L 9.165247018739354 6.857142857142857  C 9.228847245883022 6.857142857142857  9.281090289608178 6.877232142857143  9.321976149914821 6.9174107142857135  Z M 10.630323679727429 3.488839285714285  C 10.671209540034072 3.5290178571428568  10.691652470187394 3.5803571428571415  10.691652470187394 3.6428571428571432  L 10.691652470187394 4.928571428571429  C 10.691652470187394 4.991071428571427  10.671209540034072 5.042410714285715  10.630323679727429 5.082589285714285  C 10.589437819420784 5.122767857142857  10.537194775695628 5.142857142857143  10.47359454855196 5.142857142857143  L 6.11243611584327 5.142857142857143  C 6.048835888699603 5.142857142857143  5.996592844974447 5.122767857142857  5.955706984667803 5.082589285714285  C 5.914821124361159 5.042410714285715  5.894378194207836 4.991071428571427  5.894378194207836 4.928571428571429  L 5.894378194207836 3.6428571428571432  C 5.894378194207836 3.5803571428571415  5.914821124361159 3.5290178571428568  5.955706984667803 3.488839285714285  C 5.996592844974447 3.448660714285715  6.048835888699603 3.4285714285714284  6.11243611584327 3.4285714285714284  L 10.47359454855196 3.4285714285714284  C 10.537194775695628 3.4285714285714284  10.589437819420784 3.448660714285715  10.630323679727429 3.488839285714285  Z M 11.938671209540034 0.06026785714285676  C 11.979557069846678 0.10044642857142838  12 0.15178571428571308  12 0.21428571428571486  L 12 1.5  C 12 1.5624999999999991  11.979557069846678 1.6138392857142851  11.938671209540034 1.6540178571428568  C 11.89778534923339 1.6941964285714284  11.845542305508236 1.7142857142857149  11.781942078364565 1.7142857142857149  L 6.11243611584327 1.7142857142857149  C 6.048835888699603 1.7142857142857149  5.996592844974447 1.6941964285714284  5.955706984667803 1.6540178571428568  C 5.914821124361159 1.6138392857142851  5.894378194207836 1.5624999999999991  5.894378194207836 1.5  L 5.894378194207836 0.21428571428571486  C 5.894378194207836 0.15178571428571308  5.914821124361159 0.10044642857142838  5.955706984667803 0.06026785714285676  C 5.996592844974447 0.020089285714285143  6.048835888699603 0  6.11243611584327 0  L 11.781942078364565 0  C 11.845542305508236 0  11.89778534923339 0.020089285714285143  11.938671209540034 0.06026785714285676  Z " fill-rule="nonzero" fill="#000000" stroke="none" transform="matrix(1 0 0 1 2203 2194 )" />
  </g>
</svg>