<?xml version="1.0" encoding="utf-8"?>
<svg version="1.1" xmlns:xlink="http://www.w3.org/1999/xlink" width="603px" height="792px" xmlns="http://www.w3.org/2000/svg">
  <g transform="matrix(1 0 0 1 -1548 -2139 )">
    <path d="M 1548 2139  L 2151 2139  L 2151 2931  L 1548 2931  L 1548 2139  " fill-rule="nonzero" fill="#cccccc" stroke="none" />
    <path d="M 1590 2181  L 2109 2181  L 2109 2889  L 1590 2889  L 1590 2181  " fill-rule="nonzero" fill="#ffffff" stroke="none" />
    <path d="M 1906.7849999999999 2348.25  C 1881.4589999999998 2348.25  1861.56 2328.351  1861.56 2303.025  C 1861.56 2277.699  1881.4589999999998 2257.8  1906.7849999999999 2257.8  C 1932.1109999999999 2257.8  1952.01 2277.699  1952.01 2303.025  C 1952.01 2328.351  1932.1109999999999 2348.25  1906.7849999999999 2348.25  " fill-rule="nonzero" fill="#cccccc" stroke="none" />
    <path d="M 1605 2874  L 1605 2501.1  L 1727.25 2331.6  L 1898.4 2467.2  L 1996.2 2433.3  L 2094 2467.2  L 2094 2874  L 1605 2874  " fill-rule="nonzero" fill="#169bd5" stroke="none" />
  </g>
</svg>