<?xml version="1.0" encoding="utf-8"?>
<svg version="1.1" xmlns:xlink="http://www.w3.org/1999/xlink" width="250px" height="213px" xmlns="http://www.w3.org/2000/svg">
  <g transform="matrix(1 0 0 1 -371 -3183 )">
    <path d="M 371 3183  L 621 3183  L 621 3396  L 371 3396  L 371 3183  " fill-rule="nonzero" fill="#cccccc" stroke="none" />
    <path d="M 386 3198  L 606 3198  L 606 3381  L 386 3381  L 386 3198  " fill-rule="nonzero" fill="#ffffff" stroke="none" />
    <path d="M 516.975 3246.8999999999996  C 508.029 3246.8999999999996  501 3239.8709999999996  501 3230.9249999999997  C 501 3221.979  508.029 3214.95  516.975 3214.95  C 525.921 3214.95  532.95 3221.979  532.95 3230.9249999999997  C 532.95 3239.8709999999996  525.921 3246.8999999999996  516.975 3246.8999999999996  " fill-rule="nonzero" fill="#cccccc" stroke="none" />
    <path d="M 392 3376  L 392 3281.4  L 444.25 3238.4  L 517.4 3288.0736  L 559.2 3264.2  L 601 3288.0736  L 601 3376  L 392 3376  " fill-rule="nonzero" fill="#169bd5" stroke="none" />
  </g>
</svg>