<?xml version="1.0" encoding="utf-8"?>
<svg version="1.1" xmlns:xlink="http://www.w3.org/1999/xlink" width="20px" height="20px" xmlns="http://www.w3.org/2000/svg">
  <g transform="matrix(1 0 0 1 -2515 -2925 )">
    <path d="M 15.250729553278688 8.147960307786885  C 15.56597035204918 7.8327195090163935  15.56597035204918 7.320453211065573  15.240878278483606 6.995361137295082  L 12.975085037704918 4.867485746106558  C 12.649992963934427 4.562096222336066  12.137726666188524 4.562096222336066  11.812634592418034 4.867485746106558  L 10.25613314897541 6.423987189754099  C 10.236430599180329 6.443689739549181  10.22657932418033 6.453541014549181  10.216728049180329 6.473243564549182  L 6.020084916393444 10.679737972131147  C 5.980679816598363 10.71914307192623  5.951125991598362 10.778250721721312  5.931423441803281 10.827507096721313  L 4.542393672540984 14.856678554918032  C 4.522691122745902 14.925637479713117  4.512839847745903 15.01429895430328  4.542393672540984 15.08325787909836  C 4.601501322336067 15.280283378278687  4.818229371311477 15.39849867786885  5.015254870491805 15.33939102807377  L 9.251303103073772 14.117832932991803  C 9.310410752868854 14.098130383196722  9.369518402459017 14.068576558196721  9.408923502459016 14.019320183401637  L 13.615417910040986 9.763569400819673  C 13.635120459836067 9.753718125819672  13.644971734836066 9.734015576024591  13.654823009836065 9.714313026229508  L 15.250729553278688 8.147960307786885  Z M 14.009468908401638 7.576586360040981  L 8.66022660532787 12.925828662909836  L 5.970828541598361 13.881402334016393  L 7.0446175122950825 11.438286144057377  C 7.054468787295082 11.408732319262295  8.857252104918032 9.645354101434426  12.462818739959015 6.138300215778687  L 14.009468908401638 7.576586360040981  Z M 10 19.851274959426227  C 4.571947497336065 19.851274959426227  0.1487250405737705 15.428052502663935  0.1487250405737705 10  C 0.1487250405737705 4.571947497336065  4.571947497336065 0.1487250405737705  10 0.1487250405737705  C 15.428052502663935 0.1487250405737705  19.851274959426227 4.571947497336065  19.851274959426227 10  C 19.851274959426227 15.428052502663935  15.428052502663935 19.851274959426227  10 19.851274959426227  Z M 10 1.2914729358606558  C 5.202429094672132 1.2914729358606558  1.2914729358606556 5.202429094672132  1.2914729358606556 10  C 1.2914729358606556 14.797570905327868  5.202429094672132 18.708527064139343  10 18.708527064139343  C 14.797570905327868 18.708527064139343  18.708527064139343 14.797570905327868  18.708527064139343 10  C 18.708527064139343 5.202429094672132  14.797570905327868 1.2914729358606558  10 1.2914729358606558  Z " fill-rule="nonzero" fill="#000000" stroke="none" transform="matrix(1 0 0 1 2515 2925 )" />
  </g>
</svg>