<?xml version="1.0" encoding="utf-8"?>
<svg version="1.1" xmlns:xlink="http://www.w3.org/1999/xlink" width="30px" height="8px" xmlns="http://www.w3.org/2000/svg">
  <g transform="matrix(1 0 0 1 -574 -3421 )">
    <path d="M 7.596612073396379 3.996640351562499  C 7.596612073396379 6.066185117187499  5.9388897255345405 7.746010429687502  3.8965758120888156 7.746010429687502  C 1.8542618986430923 7.746010429687502  0.1965395507812493 6.066185117187501  0.1965395507812493 3.996640351562499  C 0.1965395507812493 1.9270955859374994  1.8542618986430923 0.2472702734374991  3.8965758120888156 0.2472702734374991  C 5.9388897255345405 0.2472702734374991  7.596612073396379 1.9270955859374994  7.596612073396379 3.996640351562499  Z M 18.69672081877056 3.996640351562499  C 18.69672081877056 6.066185117187499  17.038998470908716 7.746010429687502  14.996684557462993 7.746010429687502  C 12.954370644017269 7.746010429687502  11.296648296155427 6.066185117187501  11.296648296155427 3.996640351562499  C 11.296648296155427 1.9270955859374994  12.954370644017269 0.2472702734374991  14.996684557462993 0.2472702734374991  C 17.038998470908716 0.2472702734374991  18.69672081877056 1.9270955859374994  18.69672081877056 3.996640351562499  Z M 29.80346044921875 3.996640351562499  C 29.80346044921875 6.066185117187499  28.1391072162829 7.746010429687502  26.103424187911184 7.746010429687502  C 24.06111027446546 7.746010429687502  22.40338792660362 6.066185117187501  22.40338792660362 3.996640351562499  C 22.40338792660362 1.9270955859374994  24.06111027446546 0.2472702734374991  26.103424187911184 0.2472702734374991  C 28.145738101356912 0.2472702734374991  29.80346044921875 1.9270955859374994  29.80346044921875 3.996640351562499  Z " fill-rule="nonzero" fill="#999999" stroke="none" transform="matrix(1 0 0 1 574 3421 )" />
  </g>
</svg>