<?xml version="1.0" encoding="utf-8"?>
<svg version="1.1" xmlns:xlink="http://www.w3.org/1999/xlink" width="10px" height="48px" preserveAspectRatio="xMidYMin meet" viewBox="1793 2457  8 48" xmlns="http://www.w3.org/2000/svg">
  <path d="M 840 2462  L 1792 2462  A 5 5 0 0 1 1797 2467 L 1797 2495  A 5 5 0 0 0 1802 2500 L 2754 2500  " stroke-width="2" stroke="#e7772d" fill="none" />
  <path d="M 841.5 2458.5  A 3.5 3.5 0 0 0 838 2462 A 3.5 3.5 0 0 0 841.5 2465.5 A 3.5 3.5 0 0 0 845 2462 A 3.5 3.5 0 0 0 841.5 2458.5 Z M 2746.6 2508  L 2756 2500  L 2746.6 2492  L 2750.2 2500  L 2746.6 2508  Z " fill-rule="nonzero" fill="#e7772d" stroke="none" />
</svg>