<?xml version="1.0" encoding="utf-8"?>
<svg version="1.1" xmlns:xlink="http://www.w3.org/1999/xlink" width="15px" height="16px" xmlns="http://www.w3.org/2000/svg">
  <g transform="matrix(1 0 0 1 -2086 -383 )">
    <path d="M 10.612558140625001 2.911628212341166  C 10.568401962168858 1.290339553172272  9.240959454498734 -0.0008024439586075503  7.619069765624999 0  C 5.9952558125 0  4.673581390624999 1.288558484674081  4.6177674374999995 2.9034421656576086  L 0.8283720937500003 2.903442165657609  C 0.4065628633047176 2.9034419570807146  0.06450372760348444 3.245168017798892  0.06409301562500003 3.666977038426203  C 0.06450373622106131 4.088786052950345  0.40656286939949304 4.430512104155084  0.8283720937500001 4.430511895569796  L 1.6722790625000004 4.430511895569796  L 1.6722790625000004 12.98976750789879  C 1.6722790625000004 14.596837235940058  2.7632558125000006 15.909209298998274  4.108372093750001 15.909209298998274  L 10.97088371875 15.909209298998274  C 12.316 15.909209298998274  13.406976734375 14.604651188882318  13.40697675 12.98976750789879  L 13.40697675 4.439070035994652  L 14.171255812500002 4.439070035994652  C 14.593210220475367 4.439070094628773  14.935329459643448 4.0971174332094495  14.935534890625 3.67516308510976  C 14.935124178646516 3.25335406448245  14.593065042945284 2.9116280037642723  14.1712558125 2.911628212341166  L 10.612558140625001 2.911628212341166  Z M 9.056093015624999 2.766884028226225  L 5.943534890624999 2.766884028226225  C 5.998976749999999 1.989209624538305  6.672093031249999 1.383442201205083  7.5037209375 1.383442201205083  C 8.33534884375 1.383442201205083  9.00883721875 1.9888375307970072  9.056093015624999 2.766884028226225  Z M 4.193581390625 14.525395378235835  L 4.193581390624999 14.517581425293576  C 3.7094883749999994 14.517581425293576  3.1766511562499993 13.905860502099586  3.1766511562499993 13.032558210023067  L 3.1766511562499993 4.4960002690382534  L 12.16865115625 4.4960002690382534  L 12.16865115625 13.040372162965326  C 12.16865115625 13.914046564408142  11.636186046875 14.525395378235835  11.152093015625 14.525395378235835  L 4.193581390625 14.525395378235835  Z " fill-rule="nonzero" fill="#000000" stroke="none" transform="matrix(1 0 0 1 2086 383 )" />
  </g>
</svg>