<?xml version="1.0" encoding="utf-8"?>
<svg version="1.1" xmlns:xlink="http://www.w3.org/1999/xlink" width="16px" height="16px" xmlns="http://www.w3.org/2000/svg">
  <g transform="matrix(1 0 0 1 -2009 -146 )">
    <path d="M 16 8  C 16 3.583999999999999  12.416 0  8 0  C 3.5840000000000005 0  0 3.5840000000000005  0 8  C 0 12.416  3.5840000000000005 16  8 16  C 12.416 16  16 12.416  16 8  Z M 14.933333333333334 8  C 14.933333333333334 11.829333333333333  11.829333333333333 14.933333333333334  8 14.933333333333334  C 4.1706666666666665 14.933333333333334  1.0666666666666667 11.829333333333333  1.0666666666666667 8  C 1.0666666666666667 4.1706666666666665  4.1706666666666665 1.0666666666666667  8 1.0666666666666667  C 11.829333333333333 1.0666666666666667  14.933333333333334 4.1706666666666665  14.933333333333334 8  Z M 11.57333333333333 10.805333333333332  L 8.735999999999999 7.946666666666666  L 11.541333333333334 5.173333333333333  C 11.754666666666667 4.959999999999999  11.754666666666667 4.618666666666667  11.541333333333334 4.4159999999999995  C 11.328000000000001 4.2026666666666666  10.986666666666668 4.2026666666666666  10.773333333333333 4.4159999999999995  L 7.968000000000001 7.168  L 5.215999999999999 4.405333333333333  C 5.002666666666666 4.191999999999999  4.661333333333332 4.191999999999999  4.458666666666667 4.405333333333333  C 4.245333333333333 4.618666666666667  4.245333333333333 4.96  4.458666666666667 5.1626666666666665  L 7.2 7.925333333333333  L 4.287999999999999 10.805333333333332  C 4.074666666666666 11.018666666666665  4.074666666666666 11.359999999999998  4.287999999999999 11.562666666666667  C 4.501333333333333 11.776  4.842666666666665 11.776  5.055999999999999 11.562666666666667  L 7.957333333333333 8.693333333333333  L 10.815999999999999 11.562666666666667  C 11.029333333333332 11.776  11.370666666666665 11.776  11.57333333333333 11.562666666666667  C 11.786666666666664 11.349333333333334  11.786666666666664 11.008000000000001  11.57333333333333 10.805333333333332  Z " fill-rule="nonzero" fill="#999999" stroke="none" transform="matrix(1 0 0 1 2009 146 )" />
  </g>
</svg>