<?xml version="1.0" encoding="utf-8"?>
<svg version="1.1" xmlns:xlink="http://www.w3.org/1999/xlink" width="11px" height="10px" xmlns="http://www.w3.org/2000/svg">
  <g transform="matrix(1 0 0 1 -1454 -37 )">
    <path d="M 9.891461878571429 6.474842910156255  C 11.349603826785714 5.02606513671875  11.349603826785714 2.655892109375  9.892527267857142 1.2071143945312501  L 9.829592103571427 1.1445368164062502  C 8.372535639285713 -0.30426089843749976  5.9888589749999985 -0.30426089843749976  4.531782416071427 1.1445368164062502  L 1.1565604285714284 4.50156076171875  C -0.3005161303571434 5.950358476562501  -0.3807579482142862 8.0425  1.0763186107142855 9.492237089843751  L 1.1382487285714284 9.5528759765625  C 1.2044200928571422 9.618651386718751  1.2731040339285713 9.6806693359375  1.3432151267857146 9.74014900390625  C 1.3939692839285716 9.796510781250001  1.4535878303571426 9.844758085937501  1.5198597071428575 9.882912207031252  C 1.520362230357143 9.883311933593752  1.520884848214286 9.883731660156252  1.5213873517857144 9.884131386718751  C 1.6272374053571432 9.944330566406252  1.749630319642857 9.979067031250002  1.880244378571429 9.979067031250002  C 2.2782775910714292 9.979067031250002  2.6009333428571435 9.6582045703125  2.6009333428571435 9.262472890625002  C 2.6009333428571435 9.150768632812502  2.5752045 9.045040312500001  2.5293347946428577 8.950784218750004  C 2.4340576857142855 8.738068437500004  2.25570455 8.608576230468755  2.1323468178571425 8.485899414062503  L 2.070396585714285 8.425300507812503  C 1.2792146124999997 7.638613886718754  1.5796591249999992 6.495688789062504  2.3708411178571427 5.709002148437503  L 5.74805308392857 2.352937558593753  C 6.537285307142856 1.5662109570312528  7.824008794642857 1.5662109570312528  8.615230957142856 2.352937558593753  L 8.678206310714286 2.4145158007812526  C 9.469408398214282 3.2012623828125033  9.469408398214282 4.481674257812502  8.678206310714286 5.267401542968752  L 7.1915013892857145 6.7466586132812525  C 6.989248573214286 6.8956575976562515  6.858091782142858 7.134655546875002  6.858091782142858 7.404132851562503  C 6.858091782142858 7.855766640625003  7.2263157214285725 8.221918398437502  7.680550389285716 8.221918398437502  C 7.838642055357144 8.221918398437502  7.986261289285714 8.177468535156251  8.111608980357143 8.100600644531253  C 8.11255370357143 8.102199550781252  8.113438142857143 8.103678554687503  8.114382866071429 8.105297460937503  L 8.137438316071428 8.084131816406256  C 8.2084740375 8.036843886718755  8.271569998214286 7.978783242187504  8.324615632142859 7.912408242187505  L 9.891461878571429 6.474842910156255  Z " fill-rule="nonzero" fill="#e7772d" stroke="none" transform="matrix(1 0 0 1 1454 37 )" />
  </g>
</svg>