<?xml version="1.0" encoding="utf-8"?>
<svg version="1.1" xmlns:xlink="http://www.w3.org/1999/xlink" width="11px" height="11px" xmlns="http://www.w3.org/2000/svg">
  <g transform="matrix(1 0 0 1 -1449 -42 )">
    <path d="M 9.960702753571427 0.7595265839552285  L 9.898712292857143 0.6948234757462687  C 9.777324425 0.5680423190298505  9.647936492857143 0.4537565876865671  9.514608832142857 0.34778712313432786  C 9.377140437499998 0.2101276231343283  9.190807332142857 0.12520083022388004  8.985378619642857 0.12520083022388004  C 8.563747225 0.12520083022388004  8.221975751785713 0.48229651865671624  8.221975751785713 0.9227859160447757  C 8.221975751785713 1.1176932947761187  8.28899134642857 1.2962201343283581  8.40016807142857 1.4347616660447757  C 8.453655944642856 1.501396833955224  8.51719410535714 1.558770720149253  8.588531344642858 1.604195199626865  C 8.660511789285714 1.666210223880596  8.731165614285715 1.7272802332089543  8.79723646607143 1.796309481343283  L 8.860171630357144 1.8620836324626855  C 9.651373717857144 2.6876836455223874  9.415170875000001 4.1101021623134315  8.62396880714286 4.936752203358207  L 5.247741773214286 8.463103574626867  C 4.4565598 9.288703587686568  3.1702785124999995 9.288703587686568  2.3790563499999995 8.463103574626867  L 2.3156186821428566 8.396783404850748  C 1.5243764053571423 7.570175373134329  1.5243764053571423 6.225312376865674  2.3156186821428566 5.400699408582091  L 3.8072080750000006 3.8428474552238834  C 3.9985864285714294 3.6841452630597047  4.121441657142857 3.439193261194034  4.121441657142857 3.1641262555970178  C 4.121441657142857 2.685688602611944  3.7502227125000003 2.297847914179107  3.292289530357143 2.297847914179107  C 3.119484185714285 2.297847914179107  2.9590809285714283 2.3531217238805993  2.8262557910714277 2.4476038227611965  C 2.8258336857142856 2.4466798022388083  2.8253914660714283 2.44579777052239  2.824949246428571 2.444852735074629  L 2.8090496303571424 2.4603932518656744  C 2.7503356178571416 2.504494694029853  2.697249774999999 2.55621938246269  2.6514001642857137 2.614517289179107  L 1.1013178589285704 4.129926850746272  C -0.3557587000000011 5.653295671641794  -0.3557587000000011 8.144775169776123  1.1013178589285704 9.666022919776124  L 1.1642530232142845 9.731755061567167  C 2.621329582142856 11.253023826492543  5.005006246428571 11.253023826492543  6.462082805357142 9.731755061567167  L 9.8373048125 6.2043536828358254  C 11.292371298214285 4.682118888059706  11.415749144642856 2.2807953488806016  9.960702753571427 0.7595265839552285  Z " fill-rule="nonzero" fill="#e7772d" stroke="none" transform="matrix(1 0 0 1 1449 42 )" />
  </g>
</svg>