<?xml version="1.0" encoding="utf-8"?>
<svg version="1.1" xmlns:xlink="http://www.w3.org/1999/xlink" width="14px" height="14px" viewBox="2640 415  14 14" xmlns="http://www.w3.org/2000/svg">
  <path d="M 2640.5 417  A 1.5 1.5 0 0 1 2642 415.5 L 2652 415.5  A 1.5 1.5 0 0 1 2653.5 417 L 2653.5 427  A 1.5 1.5 0 0 1 2652 428.5 L 2642 428.5  A 1.5 1.5 0 0 1 2640.5 427 L 2640.5 417  Z " fill-rule="nonzero" fill="#f0f0f0" stroke="none" />
  <path d="M 2640.5 417  A 1.5 1.5 0 0 1 2642 415.5 L 2652 415.5  A 1.5 1.5 0 0 1 2653.5 417 L 2653.5 427  A 1.5 1.5 0 0 1 2652 428.5 L 2642 428.5  A 1.5 1.5 0 0 1 2640.5 427 L 2640.5 417  Z " stroke-width="1" stroke="#0066ff" fill="none" />
</svg>