<?xml version="1.0" encoding="utf-8"?>
<svg version="1.1" xmlns:xlink="http://www.w3.org/1999/xlink" width="14px" height="14px" viewBox="2745 321  14 14" xmlns="http://www.w3.org/2000/svg">
  <path d="M 2745.5 323  A 1.5 1.5 0 0 1 2747 321.5 L 2757 321.5  A 1.5 1.5 0 0 1 2758.5 323 L 2758.5 333  A 1.5 1.5 0 0 1 2757 334.5 L 2747 334.5  A 1.5 1.5 0 0 1 2745.5 333 L 2745.5 323  Z " fill-rule="nonzero" fill="#ffffff" stroke="none" />
  <path d="M 2745.5 323  A 1.5 1.5 0 0 1 2747 321.5 L 2757 321.5  A 1.5 1.5 0 0 1 2758.5 323 L 2758.5 333  A 1.5 1.5 0 0 1 2757 334.5 L 2747 334.5  A 1.5 1.5 0 0 1 2745.5 333 L 2745.5 323  Z " stroke-width="1" stroke="#0066ff" fill="none" />
</svg>