<?xml version="1.0" encoding="utf-8"?>
<svg version="1.1" xmlns:xlink="http://www.w3.org/1999/xlink" width="14px" height="14px" viewBox="2535 510  14 14" xmlns="http://www.w3.org/2000/svg">
  <path d="M 2535.5 512  A 1.5 1.5 0 0 1 2537 510.5 L 2547 510.5  A 1.5 1.5 0 0 1 2548.5 512 L 2548.5 522  A 1.5 1.5 0 0 1 2547 523.5 L 2537 523.5  A 1.5 1.5 0 0 1 2535.5 522 L 2535.5 512  Z " fill-rule="nonzero" fill="#f0f0f0" stroke="none" />
  <path d="M 2535.5 512  A 1.5 1.5 0 0 1 2537 510.5 L 2547 510.5  A 1.5 1.5 0 0 1 2548.5 512 L 2548.5 522  A 1.5 1.5 0 0 1 2547 523.5 L 2537 523.5  A 1.5 1.5 0 0 1 2535.5 522 L 2535.5 512  Z " stroke-width="1" stroke="#999999" fill="none" />
  <path d="M 2538 517  L 2541 520  L 2546 513  " stroke-width="3" stroke="#999999" fill="none" />
</svg>