<?xml version="1.0" encoding="utf-8"?>
<svg version="1.1" xmlns:xlink="http://www.w3.org/1999/xlink" width="14px" height="14px" viewBox="2745 346  14 14" xmlns="http://www.w3.org/2000/svg">
  <path d="M 2745.5 348  A 1.5 1.5 0 0 1 2747 346.5 L 2757 346.5  A 1.5 1.5 0 0 1 2758.5 348 L 2758.5 358  A 1.5 1.5 0 0 1 2757 359.5 L 2747 359.5  A 1.5 1.5 0 0 1 2745.5 358 L 2745.5 348  Z " fill-rule="nonzero" fill="#ffffff" stroke="none" />
  <path d="M 2745.5 348  A 1.5 1.5 0 0 1 2747 346.5 L 2757 346.5  A 1.5 1.5 0 0 1 2758.5 348 L 2758.5 358  A 1.5 1.5 0 0 1 2757 359.5 L 2747 359.5  A 1.5 1.5 0 0 1 2745.5 358 L 2745.5 348  Z " stroke-width="1" stroke="#999999" fill="none" />
  <path d="M 2748 353  L 2751 356  L 2756 349  " stroke-width="3" stroke="#999999" fill="none" />
</svg>