<?xml version="1.0" encoding="utf-8"?>
<svg version="1.1" xmlns:xlink="http://www.w3.org/1999/xlink" width="161px" height="71px" xmlns="http://www.w3.org/2000/svg">
  <defs>
    <mask fill="white" id="clip5676">
      <path d="M 19.440299484279713 5.802197802197767  L 19.440299484279713 0  L 150 0  L 150 34  L 138.56383674965303 34  L 138.56383674965303 39.69230769230768  L 129.25731040079572 39.69230769230768  L 129.25731040079572 46.47399199320097  C 129.32624763300964 46.47399199320097  116.77967137010566 45.65865880033789  92.32993301162625 46.47399199320097  C 67.88019465314684 47.28932518606419  56.62044672489968 58.90782318436453  35.709486286726445 59.92698967544348  C 14.798525848553382 60.946156166522464  0 50.95832455394853  0 50.95832455394853  L 0 12  L 10.340584832063584 12  L 10.340584832063584 5.802197802197767  L 19.440299484279713 5.802197802197767  Z " fill-rule="evenodd" />
    </mask>
    <filter x="374px" y="1184px" width="161px" height="71px" filterUnits="userSpaceOnUse" id="filter5677">
      <feOffset dx="3" dy="3" in="SourceAlpha" result="shadowOffsetInner" />
      <feGaussianBlur stdDeviation="2.5" in="shadowOffsetInner" result="shadowGaussian" />
      <feComposite in2="shadowGaussian" operator="atop" in="SourceAlpha" result="shadowComposite" />
      <feColorMatrix type="matrix" values="0 0 0 0 0  0 0 0 0 0  0 0 0 0 0  0 0 0 0.34901960784313724 0  " in="shadowComposite" />
    </filter>
    <g id="widget5678">
      <path d="M 19.440299484279713 5.802197802197767  L 19.440299484279713 0  L 150 0  L 150 34  L 138.56383674965303 34  L 138.56383674965303 39.69230769230768  L 129.25731040079572 39.69230769230768  L 129.25731040079572 46.47399199320097  C 129.32624763300964 46.47399199320097  116.77967137010566 45.65865880033789  92.32993301162625 46.47399199320097  C 67.88019465314684 47.28932518606419  56.62044672489968 58.90782318436453  35.709486286726445 59.92698967544348  C 14.798525848553382 60.946156166522464  0 50.95832455394853  0 50.95832455394853  L 0 12  L 10.340584832063584 12  L 10.340584832063584 5.802197802197767  L 19.440299484279713 5.802197802197767  Z " fill-rule="nonzero" fill="#fbf4f3" stroke="none" transform="matrix(1 0 0 1 376 1186 )" />
      <path d="M 19.440299484279713 5.802197802197767  L 19.440299484279713 0  L 150 0  L 150 34  L 138.56383674965303 34  L 138.56383674965303 39.69230769230768  L 129.25731040079572 39.69230769230768  L 129.25731040079572 46.47399199320097  C 129.32624763300964 46.47399199320097  116.77967137010566 45.65865880033789  92.32993301162625 46.47399199320097  C 67.88019465314684 47.28932518606419  56.62044672489968 58.90782318436453  35.709486286726445 59.92698967544348  C 14.798525848553382 60.946156166522464  0 50.95832455394853  0 50.95832455394853  L 0 12  L 10.340584832063584 12  L 10.340584832063584 5.802197802197767  L 19.440299484279713 5.802197802197767  Z " stroke-width="2" stroke="#333333" fill="none" transform="matrix(1 0 0 1 376 1186 )" mask="url(#clip5676)" />
      <path d="M 129.25731040079572 12.5  L 10.547396528704873 12.5  M 19.440299484279713 6.5  L 138.56383674965303 6.5  M 138.46043090133253 34.021978021977986  L 138.56383674965303 5.802197802197767  M 129.5 11.868131868131854  L 129.5 39.69230769230768  " stroke-width="1" stroke="#333333" fill="none" transform="matrix(1 0 0 1 376 1186 )" />
    </g>
  </defs>
  <g transform="matrix(1 0 0 1 -374 -1184 )">
    <use xlink:href="#widget5678" filter="url(#filter5677)" />
    <use xlink:href="#widget5678" />
  </g>
</svg>