<?xml version="1.0" encoding="utf-8"?>
<svg version="1.1" xmlns:xlink="http://www.w3.org/1999/xlink" width="14px" height="14px" viewBox="2325 415  14 14" xmlns="http://www.w3.org/2000/svg">
  <path d="M 2325.5 417  A 1.5 1.5 0 0 1 2327 415.5 L 2337 415.5  A 1.5 1.5 0 0 1 2338.5 417 L 2338.5 427  A 1.5 1.5 0 0 1 2337 428.5 L 2327 428.5  A 1.5 1.5 0 0 1 2325.5 427 L 2325.5 417  Z " fill-rule="nonzero" fill="#f0f0f0" stroke="none" />
  <path d="M 2325.5 417  A 1.5 1.5 0 0 1 2327 415.5 L 2337 415.5  A 1.5 1.5 0 0 1 2338.5 417 L 2338.5 427  A 1.5 1.5 0 0 1 2337 428.5 L 2327 428.5  A 1.5 1.5 0 0 1 2325.5 427 L 2325.5 417  Z " stroke-width="1" stroke="#999999" fill="none" />
</svg>