<?xml version="1.0" encoding="utf-8"?>
<svg version="1.1" xmlns:xlink="http://www.w3.org/1999/xlink" width="14px" height="14px" viewBox="2430 510  14 14" xmlns="http://www.w3.org/2000/svg">
  <path d="M 2430.5 512  A 1.5 1.5 0 0 1 2432 510.5 L 2442 510.5  A 1.5 1.5 0 0 1 2443.5 512 L 2443.5 522  A 1.5 1.5 0 0 1 2442 523.5 L 2432 523.5  A 1.5 1.5 0 0 1 2430.5 522 L 2430.5 512  Z " fill-rule="nonzero" fill="#ffffff" stroke="none" />
  <path d="M 2430.5 512  A 1.5 1.5 0 0 1 2432 510.5 L 2442 510.5  A 1.5 1.5 0 0 1 2443.5 512 L 2443.5 522  A 1.5 1.5 0 0 1 2442 523.5 L 2432 523.5  A 1.5 1.5 0 0 1 2430.5 522 L 2430.5 512  Z " stroke-width="1" stroke="#0066ff" fill="none" />
</svg>