<?xml version="1.0" encoding="utf-8"?>
<svg version="1.1" xmlns:xlink="http://www.w3.org/1999/xlink" width="14px" height="14px" viewBox="2535 415  14 14" xmlns="http://www.w3.org/2000/svg">
  <path d="M 2535.5 417  A 1.5 1.5 0 0 1 2537 415.5 L 2547 415.5  A 1.5 1.5 0 0 1 2548.5 417 L 2548.5 427  A 1.5 1.5 0 0 1 2547 428.5 L 2537 428.5  A 1.5 1.5 0 0 1 2535.5 427 L 2535.5 417  Z " fill-rule="nonzero" fill="#ffffff" stroke="none" />
  <path d="M 2535.5 417  A 1.5 1.5 0 0 1 2537 415.5 L 2547 415.5  A 1.5 1.5 0 0 1 2548.5 417 L 2548.5 427  A 1.5 1.5 0 0 1 2547 428.5 L 2537 428.5  A 1.5 1.5 0 0 1 2535.5 427 L 2535.5 417  Z " stroke-width="1" stroke="#0066ff" fill="none" />
</svg>