<?xml version="1.0" encoding="utf-8"?>
<svg version="1.1" xmlns:xlink="http://www.w3.org/1999/xlink" width="14px" height="14px" viewBox="2850 415  14 14" xmlns="http://www.w3.org/2000/svg">
  <path d="M 2850.5 417  A 1.5 1.5 0 0 1 2852 415.5 L 2862 415.5  A 1.5 1.5 0 0 1 2863.5 417 L 2863.5 427  A 1.5 1.5 0 0 1 2862 428.5 L 2852 428.5  A 1.5 1.5 0 0 1 2850.5 427 L 2850.5 417  Z " fill-rule="nonzero" fill="#f0f0f0" stroke="none" />
  <path d="M 2850.5 417  A 1.5 1.5 0 0 1 2852 415.5 L 2862 415.5  A 1.5 1.5 0 0 1 2863.5 417 L 2863.5 427  A 1.5 1.5 0 0 1 2862 428.5 L 2852 428.5  A 1.5 1.5 0 0 1 2850.5 427 L 2850.5 417  Z " stroke-width="1" stroke="#0066ff" fill="none" />
  <path d="M 2853 422  L 2856 425  L 2861 418  " stroke-width="3" stroke="#0066ff" fill="none" />
</svg>