<?xml version="1.0" encoding="utf-8"?>
<svg version="1.1" xmlns:xlink="http://www.w3.org/1999/xlink" width="14px" height="14px" viewBox="2430 440  14 14" xmlns="http://www.w3.org/2000/svg">
  <path d="M 2430.5 442  A 1.5 1.5 0 0 1 2432 440.5 L 2442 440.5  A 1.5 1.5 0 0 1 2443.5 442 L 2443.5 452  A 1.5 1.5 0 0 1 2442 453.5 L 2432 453.5  A 1.5 1.5 0 0 1 2430.5 452 L 2430.5 442  Z " fill-rule="nonzero" fill="#ffffff" stroke="none" />
  <path d="M 2430.5 442  A 1.5 1.5 0 0 1 2432 440.5 L 2442 440.5  A 1.5 1.5 0 0 1 2443.5 442 L 2443.5 452  A 1.5 1.5 0 0 1 2442 453.5 L 2432 453.5  A 1.5 1.5 0 0 1 2430.5 452 L 2430.5 442  Z " stroke-width="1" stroke="#0066ff" fill="none" />
  <path d="M 2433 447  L 2436 450  L 2441 443  " stroke-width="3" stroke="#0066ff" fill="none" />
</svg>