<?xml version="1.0" encoding="utf-8"?>
<svg version="1.1" xmlns:xlink="http://www.w3.org/1999/xlink" width="14px" height="14px" viewBox="2850 346  14 14" xmlns="http://www.w3.org/2000/svg">
  <path d="M 2850.5 348  A 1.5 1.5 0 0 1 2852 346.5 L 2862 346.5  A 1.5 1.5 0 0 1 2863.5 348 L 2863.5 358  A 1.5 1.5 0 0 1 2862 359.5 L 2852 359.5  A 1.5 1.5 0 0 1 2850.5 358 L 2850.5 348  Z " fill-rule="nonzero" fill="#f0f0f0" stroke="none" />
  <path d="M 2850.5 348  A 1.5 1.5 0 0 1 2852 346.5 L 2862 346.5  A 1.5 1.5 0 0 1 2863.5 348 L 2863.5 358  A 1.5 1.5 0 0 1 2862 359.5 L 2852 359.5  A 1.5 1.5 0 0 1 2850.5 358 L 2850.5 348  Z " stroke-width="1" stroke="#999999" fill="none" />
  <path d="M 2853 353  L 2856 356  L 2861 349  " stroke-width="3" stroke="#999999" fill="none" />
</svg>