<?xml version="1.0" encoding="utf-8"?>
<svg version="1.1" xmlns:xlink="http://www.w3.org/1999/xlink" width="14px" height="14px" viewBox="2430 346  14 14" xmlns="http://www.w3.org/2000/svg">
  <path d="M 2430.5 348  A 1.5 1.5 0 0 1 2432 346.5 L 2442 346.5  A 1.5 1.5 0 0 1 2443.5 348 L 2443.5 358  A 1.5 1.5 0 0 1 2442 359.5 L 2432 359.5  A 1.5 1.5 0 0 1 2430.5 358 L 2430.5 348  Z " fill-rule="nonzero" fill="#f0f0f0" stroke="none" />
  <path d="M 2430.5 348  A 1.5 1.5 0 0 1 2432 346.5 L 2442 346.5  A 1.5 1.5 0 0 1 2443.5 348 L 2443.5 358  A 1.5 1.5 0 0 1 2442 359.5 L 2432 359.5  A 1.5 1.5 0 0 1 2430.5 358 L 2430.5 348  Z " stroke-width="1" stroke="#0066ff" fill="none" />
  <path d="M 2433 353  L 2436 356  L 2441 349  " stroke-width="3" stroke="#0066ff" fill="none" />
</svg>