<?xml version="1.0" encoding="utf-8"?>
<svg version="1.1" xmlns:xlink="http://www.w3.org/1999/xlink" width="14px" height="14px" viewBox="2325 253  14 14" xmlns="http://www.w3.org/2000/svg">
  <path d="M 2325.5 255  A 1.5 1.5 0 0 1 2327 253.5 L 2337 253.5  A 1.5 1.5 0 0 1 2338.5 255 L 2338.5 265  A 1.5 1.5 0 0 1 2337 266.5 L 2327 266.5  A 1.5 1.5 0 0 1 2325.5 265 L 2325.5 255  Z " fill-rule="nonzero" fill="#ffffff" stroke="none" />
  <path d="M 2325.5 255  A 1.5 1.5 0 0 1 2327 253.5 L 2337 253.5  A 1.5 1.5 0 0 1 2338.5 255 L 2338.5 265  A 1.5 1.5 0 0 1 2337 266.5 L 2327 266.5  A 1.5 1.5 0 0 1 2325.5 265 L 2325.5 255  Z " stroke-width="1" stroke="#797979" fill="none" />
  <path d="M 2328 260  L 2331 263  L 2336 256  " stroke-width="3" stroke="#797979" fill="none" />
</svg>