<?xml version="1.0" encoding="utf-8"?>
<svg version="1.1" xmlns:xlink="http://www.w3.org/1999/xlink" width="14px" height="14px" viewBox="2325 321  14 14" xmlns="http://www.w3.org/2000/svg">
  <path d="M 2325.5 323  A 1.5 1.5 0 0 1 2327 321.5 L 2337 321.5  A 1.5 1.5 0 0 1 2338.5 323 L 2338.5 333  A 1.5 1.5 0 0 1 2337 334.5 L 2327 334.5  A 1.5 1.5 0 0 1 2325.5 333 L 2325.5 323  Z " fill-rule="nonzero" fill="#f0f0f0" stroke="none" />
  <path d="M 2325.5 323  A 1.5 1.5 0 0 1 2327 321.5 L 2337 321.5  A 1.5 1.5 0 0 1 2338.5 323 L 2338.5 333  A 1.5 1.5 0 0 1 2337 334.5 L 2327 334.5  A 1.5 1.5 0 0 1 2325.5 333 L 2325.5 323  Z " stroke-width="1" stroke="#797979" fill="none" />
</svg>