<?xml version="1.0" encoding="utf-8"?>
<svg version="1.1" xmlns:xlink="http://www.w3.org/1999/xlink" width="14px" height="14px" viewBox="2850 321  14 14" xmlns="http://www.w3.org/2000/svg">
  <path d="M 2850.5 323  A 1.5 1.5 0 0 1 2852 321.5 L 2862 321.5  A 1.5 1.5 0 0 1 2863.5 323 L 2863.5 333  A 1.5 1.5 0 0 1 2862 334.5 L 2852 334.5  A 1.5 1.5 0 0 1 2850.5 333 L 2850.5 323  Z " fill-rule="nonzero" fill="#f0f0f0" stroke="none" />
  <path d="M 2850.5 323  A 1.5 1.5 0 0 1 2852 321.5 L 2862 321.5  A 1.5 1.5 0 0 1 2863.5 323 L 2863.5 333  A 1.5 1.5 0 0 1 2862 334.5 L 2852 334.5  A 1.5 1.5 0 0 1 2850.5 333 L 2850.5 323  Z " stroke-width="1" stroke="#0066ff" fill="none" />
  <path d="M 2853 328  L 2856 331  L 2861 324  " stroke-width="3" stroke="#0066ff" fill="none" />
</svg>