<?xml version="1.0" encoding="utf-8"?>
<svg version="1.1" xmlns:xlink="http://www.w3.org/1999/xlink" width="14px" height="14px" viewBox="2430 580  14 14" xmlns="http://www.w3.org/2000/svg">
  <path d="M 2430.5 582  A 1.5 1.5 0 0 1 2432 580.5 L 2442 580.5  A 1.5 1.5 0 0 1 2443.5 582 L 2443.5 592  A 1.5 1.5 0 0 1 2442 593.5 L 2432 593.5  A 1.5 1.5 0 0 1 2430.5 592 L 2430.5 582  Z " fill-rule="nonzero" fill="#f0f0f0" stroke="none" />
  <path d="M 2430.5 582  A 1.5 1.5 0 0 1 2432 580.5 L 2442 580.5  A 1.5 1.5 0 0 1 2443.5 582 L 2443.5 592  A 1.5 1.5 0 0 1 2442 593.5 L 2432 593.5  A 1.5 1.5 0 0 1 2430.5 592 L 2430.5 582  Z " stroke-width="1" stroke="#0066ff" fill="none" />
  <path d="M 2433 587  L 2436 590  L 2441 583  " stroke-width="3" stroke="#0066ff" fill="none" />
</svg>