<?xml version="1.0" encoding="utf-8"?>
<svg version="1.1" xmlns:xlink="http://www.w3.org/1999/xlink" width="14px" height="14px" viewBox="2325 440  14 14" xmlns="http://www.w3.org/2000/svg">
  <path d="M 2325.5 442  A 1.5 1.5 0 0 1 2327 440.5 L 2337 440.5  A 1.5 1.5 0 0 1 2338.5 442 L 2338.5 452  A 1.5 1.5 0 0 1 2337 453.5 L 2327 453.5  A 1.5 1.5 0 0 1 2325.5 452 L 2325.5 442  Z " fill-rule="nonzero" fill="#ffffff" stroke="none" />
  <path d="M 2325.5 442  A 1.5 1.5 0 0 1 2327 440.5 L 2337 440.5  A 1.5 1.5 0 0 1 2338.5 442 L 2338.5 452  A 1.5 1.5 0 0 1 2337 453.5 L 2327 453.5  A 1.5 1.5 0 0 1 2325.5 452 L 2325.5 442  Z " stroke-width="1" stroke="#0066ff" fill="none" />
  <path d="M 2328 447  L 2331 450  L 2336 443  " stroke-width="3" stroke="#0066ff" fill="none" />
</svg>