<?xml version="1.0" encoding="utf-8"?>
<svg version="1.1" xmlns:xlink="http://www.w3.org/1999/xlink" width="14px" height="14px" viewBox="2430 415  14 14" xmlns="http://www.w3.org/2000/svg">
  <path d="M 2430.5 417  A 1.5 1.5 0 0 1 2432 415.5 L 2442 415.5  A 1.5 1.5 0 0 1 2443.5 417 L 2443.5 427  A 1.5 1.5 0 0 1 2442 428.5 L 2432 428.5  A 1.5 1.5 0 0 1 2430.5 427 L 2430.5 417  Z " fill-rule="nonzero" fill="#f0f0f0" stroke="none" />
  <path d="M 2430.5 417  A 1.5 1.5 0 0 1 2432 415.5 L 2442 415.5  A 1.5 1.5 0 0 1 2443.5 417 L 2443.5 427  A 1.5 1.5 0 0 1 2442 428.5 L 2432 428.5  A 1.5 1.5 0 0 1 2430.5 427 L 2430.5 417  Z " stroke-width="1" stroke="#0066ff" fill="none" />
  <path d="M 2433 422  L 2436 425  L 2441 418  " stroke-width="3" stroke="#0066ff" fill="none" />
</svg>