<?xml version="1.0" encoding="utf-8"?>
<svg version="1.1" xmlns:xlink="http://www.w3.org/1999/xlink" width="14px" height="14px" viewBox="2325 510  14 14" xmlns="http://www.w3.org/2000/svg">
  <path d="M 2325.5 512  A 1.5 1.5 0 0 1 2327 510.5 L 2337 510.5  A 1.5 1.5 0 0 1 2338.5 512 L 2338.5 522  A 1.5 1.5 0 0 1 2337 523.5 L 2327 523.5  A 1.5 1.5 0 0 1 2325.5 522 L 2325.5 512  Z " fill-rule="nonzero" fill="#f0f0f0" stroke="none" />
  <path d="M 2325.5 512  A 1.5 1.5 0 0 1 2327 510.5 L 2337 510.5  A 1.5 1.5 0 0 1 2338.5 512 L 2338.5 522  A 1.5 1.5 0 0 1 2337 523.5 L 2327 523.5  A 1.5 1.5 0 0 1 2325.5 522 L 2325.5 512  Z " stroke-width="1" stroke="#0066ff" fill="none" />
  <path d="M 2328 517  L 2331 520  L 2336 513  " stroke-width="3" stroke="#0066ff" fill="none" />
</svg>