<?xml version="1.0" encoding="utf-8"?>
<svg version="1.1" xmlns:xlink="http://www.w3.org/1999/xlink" width="17px" height="16px" xmlns="http://www.w3.org/2000/svg">
  <g transform="matrix(1 0 0 1 -1057 -130 )">
    <path d="M 16.940230085648146 15.367843245283018  C 16.940209976851854 15.250491264150943  16.896175844907408 15.136595358490567  16.80800687962963 15.030905188679245  L 12.952411778935186 11.463428094339623  L 12.988553208333332 11.419985849056603  C 14.026808670138887 10.187191490566038  14.59862838310185 8.635029075471698  14.59862838310185 7.050294603773584  C 14.59862838310185 3.2065827547169805  11.337484186342593 0.07908869811320692  7.330115249999999 0.07908869811320692  C 3.321518122685184 0.07908869811320692  0.05974974652777693 3.2065827547169805  0.05974974652777693 7.050294603773584  C 0.05974974652777693 10.893987150943396  3.321518122685185 14.021191584905658  7.330115249999999 14.021191584905658  C 9.086507831018517 14.021191584905658  10.783463355324072 13.408926245283016  12.108252853009258 12.298774169811319  L 12.151723230324075 12.2623599245283  L 15.998076587962963 15.789966698113206  L 16.03663414236111 15.789966698113206  L 16.03725830208333 15.82051141509434  C 16.134608585648145 15.886234698113206  16.24420065972222 15.920872660377357  16.363557954861108 15.920872660377357  C 16.68192462847222 15.920872660377357  16.940230085648146 15.671958245283019  16.940230085648146 15.367843245283018  Z M 13.443411622685186 7.050313924528301  C 13.443411622685186 10.283478811320753  10.700791115740742 12.913452981132075  7.330095121527778 12.913452981132075  C 3.9584527939814818 12.913452981132075  1.2158725636574075 10.283478811320753  1.2158725636574075 7.050313924528301  C 1.2158725636574075 3.817438641509434  3.9584527939814818 1.1880437169811322  7.330095121527778 1.1880437169811322  C 10.70077098726852 1.1880437169811322  13.443411622685186 3.817438641509434  13.443411622685186 7.050313924528301  Z " fill-rule="nonzero" fill="#999999" stroke="none" transform="matrix(1 0 0 1 1057 130 )" />
  </g>
</svg>