<?xml version="1.0" encoding="utf-8"?>
<svg version="1.1" xmlns:xlink="http://www.w3.org/1999/xlink" width="20px" height="20px" xmlns="http://www.w3.org/2000/svg">
  <g transform="matrix(1 0 0 1 -1373 -730 )">
    <path d="M 0.07280799528301711 9.954273018867925  C 0.07280799528301711 4.484794669811321  4.547835731132074 0.009766910377359269  10.017314103773584 0.009766933962264197  C 15.486792452830189 0.009766933962264197  19.96182021226415 4.435072146226415  19.961820188679244 9.954273018867925  C 19.961820188679244 15.324306320754719  15.735405094339622 19.699889009433964  10.41509433962264 19.89877912735849  L 1.0672586084905642 19.89877912735849  L 3.7522752594339606 17.661265259433964  C 1.514761391509432 15.821531627358494  0.07280799528301711 13.037069929245284  0.07280799528301711 9.954273018867925  Z M 18.47014429245283 9.954273018867923  C 18.47014429245283 5.280355141509432  14.691231981132075 1.5014428301886782  10.017314103773584 1.5014428301886795  C 5.343396226415093 1.5014428301886795  1.5644839150943393 5.280355141509434  1.5147613679245273 9.954273018867925  C 1.5147613679245273 12.539844599056602  2.658379575471698 14.926526061320754  4.647280801886792 16.51764705188679  C 5.209592446014742 16.977695491866548  5.356811370203939 17.77688393889016  4.995338514150943 18.40710320754717  L 10.365371816037737 18.40710320754717  C 14.890122099056605 18.20821308962264  18.47014429245283 14.47902330188679  18.47014429245283 9.954273018867923  Z M 10.126703655660378 4.543041061320754  L 10.126703655660377 4.544461698113208  C 10.538690330188679 4.544461698113208  10.872541603773582 4.878312971698114  10.872541627358487 5.290299669811321  L 10.87112096698113 9.018068820754717  L 14.601731415094335 9.019489457547168  C 15.013646346195141 9.019489457547168  15.347569374999999 9.353412486352022  15.347569374999999 9.765327417452829  C 15.347569374999999 10.177242348553639  15.013646346195147 10.511165377358491  14.601731415094335 10.511165377358491  L 10.871120966981131 10.511165377358491  L 10.87112096698113 14.24035516509434  C 10.87112096698113 14.652270121117073  10.537197943455938 14.986193144642264  10.125283018867922 14.986193144642264  C 9.713368094279907 14.986193144642264  9.379445070754715 14.652270121117073  9.379445070754715 14.240355196529055  L 9.379445070754716 10.509744716981132  L 5.65167591981132 10.511165377358491  C 5.239760988710513 10.511165377358491  4.905837959905658 10.177242348553637  4.905837959905658 9.765327417452829  C 4.905837959905658 9.353412486352022  5.239760988710513 9.019489457547168  5.65167591981132 9.019489457547168  L 9.379445070754716 9.01948945754717  L 9.379445070754716 5.288879033018867  C 9.379445070754716 4.876892358490566  9.713296344339623 4.54304108490566  10.126703655660378 4.543041061320754  Z " fill-rule="nonzero" fill="#333333" stroke="none" transform="matrix(1 0 0 1 1373 730 )" />
  </g>
</svg>