<?xml version="1.0" encoding="utf-8"?>
<svg version="1.1" xmlns:xlink="http://www.w3.org/1999/xlink" width="23px" height="6px" xmlns="http://www.w3.org/2000/svg">
  <g transform="matrix(1 0 0 1 -327 -452 )">
    <path d="M 5.824069256270557 2.997480263671874  C 5.824069256270557 4.549638837890624  4.553148789576481 5.809507822265626  2.9873747892680917 5.809507822265626  C 1.421600788959704 5.809507822265626  0.15068032226562444 4.549638837890626  0.15068032226562444 2.997480263671874  C 0.15068032226562444 1.4453216894531247  1.421600788959704 0.18545270507812434  2.9873747892680917 0.18545270507812434  C 4.553148789576481 0.18545270507812434  5.824069256270557 1.4453216894531247  5.824069256270557 2.997480263671874  Z M 14.334152627724096 2.997480263671874  C 14.334152627724096 4.549638837890624  13.063232161030015 5.809507822265626  11.497458160721628 5.809507822265626  C 9.931684160413239 5.809507822265626  8.660763693719161 4.549638837890626  8.660763693719161 2.997480263671874  C 8.660763693719161 1.4453216894531247  9.931684160413239 0.18545270507812434  11.497458160721628 0.18545270507812434  C 13.063232161030015 0.18545270507812434  14.334152627724096 1.4453216894531247  14.334152627724096 2.997480263671874  Z M 22.849319677734375 2.997480263671874  C 22.849319677734375 4.549638837890624  21.573315532483555 5.809507822265626  20.01262521073191 5.809507822265626  C 18.44685121042352 5.809507822265626  17.17593074372944 4.549638837890626  17.17593074372944 2.997480263671874  C 17.17593074372944 1.4453216894531247  18.44685121042352 0.18545270507812434  20.01262521073191 0.18545270507812434  C 21.5783992110403 0.18545270507812434  22.849319677734375 1.4453216894531247  22.849319677734375 2.997480263671874  Z " fill-rule="nonzero" fill="#272636" stroke="none" transform="matrix(1 0 0 1 327 452 )" />
  </g>
</svg>