<?xml version="1.0" encoding="utf-8"?>
<svg version="1.1" xmlns:xlink="http://www.w3.org/1999/xlink" width="18px" height="18px" xmlns="http://www.w3.org/2000/svg">
  <g transform="matrix(1 0 0 1 -342 -28 )">
    <path d="M 17.86412879651163 15.92307692578125  C 17.863118812487812 17.06970798416003  16.94104834668592 17.998982125476005  15.80330590116279 18  L 2.064486575581394 17.999999999999996  C 0.9269530997200337 17.998474483180242  0.005177371340534939 17.069497381922776  0 15.923076925781249  L 0 2.0769230742187483  C 0.005177371340534811 0.9305026180772225  0.9269530997200357 0.0015255168197574696  2.0644865755813955 0  L 15.80330590116279 0  C 16.94104834668592 0.0010178745239963363  17.863118812487812 0.9302920158399707  17.86412879651163 2.07692307421875  L 17.86412879651163 15.92307692578125  Z M 15.80330590116279 1.3846153886718757  L 2.0644865755813946 1.3846153886718748  C 1.68530875350523 1.3851238942784498  1.378050179981717 1.6947829254076152  1.3775456162790691 2.0769230742187497  L 1.3775456162790691 15.92307692578125  C 1.3780501799817184 16.305217074592385  1.6853087535052307 16.61487610572155  2.0644865755813946 16.615384611328125  L 15.803305901162792 16.615384611328125  C 16.182483730050425 16.614876115402318  16.489742314182486 16.30521708144416  16.490246877906976 15.92307692578125  L 16.490246877906976 2.076923074218751  C 16.490246877906976 1.694572097300559  16.18269293446146 1.3846153886718753  15.80330591860465 1.3846153886718753  Z " fill-rule="nonzero" fill="#999999" stroke="none" transform="matrix(1 0 0 1 342 28 )" />
  </g>
</svg>