<?xml version="1.0" encoding="utf-8"?>
<svg version="1.1" xmlns:xlink="http://www.w3.org/1999/xlink" width="20px" height="20px" xmlns="http://www.w3.org/2000/svg">
  <g transform="matrix(1 0 0 1 -1333 -730 )">
    <path d="M 15.27186440677966 18.461016949152544  C 13.709830508474576 19.458983050847458  11.865762711864408 19.97966101694915  10 19.97966101694915  C 4.489491525423729 19.97966101694915  0.020338983050847477 15.510508474576273  0.020338983050847477 10  C 0.020338983050847477 4.489491525423729  4.489491525423729 0.020338983050847477  10 0.020338983050847477  C 15.510508474576273 0.020338983050847477  19.97966101694915 4.489491525423729  19.97966101694915 10  C 19.97966101694915 12.516610169491525  19.04677966101695 14.924745762711865  17.332881355932205 16.768813559322034  C 17.09423728813559 17.029152542372884  16.682033898305086 17.05084745762712  16.421694915254236 16.812203389830508  C 16.16135593220339 16.5735593220339  16.13966101694915 16.16135593220339  16.37830508474576 15.901016949152542  C 17.8535593220339 14.273898305084744  18.677966101694917 12.191186440677965  18.677966101694917 10  C 18.677966101694917 5.205423728813559  14.794576271186441 1.322033898305084  10 1.322033898305084  C 5.205423728813558 1.322033898305084  1.322033898305085 5.205423728813559  1.322033898305085 10  C 1.322033898305085 14.79457627118644  5.205423728813559 18.677966101694917  10 18.677966101694917  C 11.627118644067796 18.677966101694917  13.21084745762712 18.222372881355934  14.599322033898305 17.35457627118644  C 14.903050847457626 17.159322033898302  15.315254237288137 17.246101694915254  15.488813559322034 17.571525423728815  C 15.68406779661017 17.875254237288136  15.597288135593221 18.287457627118645  15.27186440677966 18.461016949152544  Z M 10.043389830508476 10  C 10.043389830508476 10.368813559322035  9.76135593220339 10.650847457627119  9.392542372881355 10.650847457627119  C 9.023728813559321 10.650847457627119  8.741694915254236 10.368813559322035  8.741694915254236 10  L 8.741694915254236 4.923389830508475  C 8.741694915254236 4.55457627118644  9.023728813559321 4.272542372881356  9.392542372881355 4.272542372881356  C 9.76135593220339 4.272542372881356  10.043389830508476 4.554576271186441  10.043389830508476 4.923389830508475  L 10.043389830508476 10  Z M 14.79457627118644 15.467118644067796  C 14.664406779661016 15.597288135593221  14.512542372881354 15.662372881355932  14.338983050847457 15.662372881355932  C 14.165423728813558 15.662372881355932  14.013559322033897 15.597288135593221  13.883389830508472 15.467118644067796  L 8.936949152542372 10.520677966101694  C 8.676610169491525 10.260338983050847  8.676610169491525 9.848135593220338  8.936949152542372 9.60949152542373  C 9.19728813559322 9.349152542372881  9.60949152542373 9.349152542372881  9.848135593220338 9.60949152542373  L 14.79457627118644 14.55593220338983  C 15.054915254237288 14.816271186440677  15.054915254237288 15.228474576271188  14.79457627118644 15.467118644067796  Z " fill-rule="nonzero" fill="#000000" stroke="none" transform="matrix(1 0 0 1 1333 730 )" />
  </g>
</svg>