<?xml version="1.0" encoding="utf-8"?>
<svg version="1.1" xmlns:xlink="http://www.w3.org/1999/xlink" width="3px" height="5px" xmlns="http://www.w3.org/2000/svg">
  <g transform="matrix(1 0 0 1 -352 -35 )">
    <path d="M 2.7210256406249993 4.685155197368419  C 2.6057347733119958 4.807207178282791  2.4488449527859384 4.875629734735833  2.285333328124999 4.875168684210525  C 2.122105965985684 4.875399070918488  1.965552096535788 4.806994205791423  1.8504615312500015 4.685155197368421  L 0.20943589062500223 2.9577597861842113  C 0.09399340501626519 2.8364143269946442  0.029124662431687653 2.671730729455624  0.029124662431687653 2.5000000000000018  C 0.029124662431687653 2.3282692705443786  0.09399340501626519 2.163585673005358  0.20943589062500223 2.0422402138157905  L 1.8504615312500015 0.31484480263157977  C 1.9658798493935041 0.19327394342612342  2.122465102129155 0.1249695941093857  2.2857435859375013 0.1249695941093857  C 2.4490220697458476 0.1249695941093857  2.6056073224814984 0.19327394342612342  2.721025640625003 0.31484480263157977  C 2.836468126233738 0.43619026182114723  2.9013368688183157 0.6008738593601679  2.9013368688183157 0.7726045888157902  C 2.9013368688183157 0.9443353182714126  2.836468126233738 1.1090189158104342  2.721025640625001 1.2303643750000008  L 1.514871796875001 2.5  L 2.721025640625003 3.7696356250000003  C 2.836468126233738 3.8909810841895673  2.9013368688183157 4.055664681728589  2.9013368688183157 4.227395411184212  C 2.9013368688183157 4.399126140639834  2.836468126233738 4.563809738178854  2.7210256406249993 4.685155197368419  Z " fill-rule="nonzero" fill="#999999" stroke="none" transform="matrix(1 0 0 1 352 35 )" />
  </g>
</svg>