<?xml version="1.0" encoding="utf-8"?>
<svg version="1.1" xmlns:xlink="http://www.w3.org/1999/xlink" width="13px" height="14px" xmlns="http://www.w3.org/2000/svg">
  <g transform="matrix(1 0 0 1 -5297 -1265 )">
    <path d="M 7.026367346938773 0.6580000000000001  L 7.034857142857143 8.971846153846155  L 11.084489795918369 4.862307692307693  C 11.183561686327003 4.761770241390057  11.317932005260701 4.705288889586568  11.458040816326534 4.705288889586568  C 11.749802311682258 4.705288889586568  11.986321735626067 4.945307121576883  11.986321735626067 5.241384615384615  C 11.986321735626067 5.3835660419987565  11.930663727143328 5.519924087543902  11.831591836734695 5.620461538461538  L 6.932979591836736 10.591538461538459  C 6.696141872359179 10.823495224261443  6.3208377194775585 10.823495224261443  6.084000000000001 10.59153846153846  L 1.1684081632653067 5.629076923076924  C 1.0693362728566735 5.528539472159288  1.0136782643739364 5.39218142661414  1.0136782643739364 5.250000000000001  C 1.0136782643739364 4.953922506192269  1.2501976883177452 4.713904274201955  1.5419591836734692 4.713904274201955  C 1.682067994739299 4.713904274201955  1.816438313673 4.770385626005441  1.9155102040816325 4.870923076923077  L 5.965142857142856 8.98046153846154  L 5.965142857142856 0.6580000000000001  C 5.962315738226498 0.6353642625201206  5.960897959183672 0.6125701423801553  5.960897959183672 0.5897533190004369  C 5.960897959183672 0.2899901501692001  6.200361658702746 0.04698408823120617  6.495755102040816 0.04698408823120617  C 6.791148545378886 0.04698408823120617  7.030612244897959 0.2899901501692001  7.030612244897959 0.5897533190004369  C 7.030612244897959 0.6125701423801553  7.029194465855133 0.6353642625201206  7.026367346938773 0.6580000000000001  Z M 12.442857142857141 14  L 0.557142857142857 14  C 0.289889760367072 13.943010857490451  0.0895375457080206 13.712299274235644  0.0895375457080206 13.438923076923079  C 0.0895375457080206 13.165546879610512  0.2898897603670706 12.934835296355702  0.557142857142857 13  L 12.442857142857141 13  C 12.71011023963293 12.934835296355702  12.91046245429198 13.165546879610512  12.91046245429198 13.438923076923079  C 12.91046245429198 13.712299274235644  12.710110239632929 13.943010857490451  12.442857142857141 14  Z " fill-rule="nonzero" fill="#ffffff" stroke="none" transform="matrix(1 0 0 1 5297 1265 )" />
  </g>
</svg>