<?xml version="1.0" encoding="utf-8"?>
<svg version="1.1" xmlns:xlink="http://www.w3.org/1999/xlink" width="15px" height="14px" xmlns="http://www.w3.org/2000/svg">
  <g transform="matrix(1 0 0 1 -5305 -1385 )">
    <path d="M 12.308035714285714 3.5134615384615375  L 10.419642857142858 1.6153846153846154  C 10.3125 1.5076923076923077  10.3125 1.3461538461538463  10.419642857142858 1.2384615384615383  L 11.558035714285714 0.09423076923076915  C 11.66517857142857 -0.013461538461538653  11.825892857142858 -0.013461538461538653  11.933035714285714 0.09423076923076915  L 13.821428571428571 1.992307692307692  C 13.928571428571427 2.0999999999999996  13.928571428571427 2.2615384615384615  13.821428571428571 2.369230769230769  L 12.683035714285712 3.5134615384615375  C 12.575892857142856 3.621153846153845  12.415178571428571 3.621153846153845  12.308035714285714 3.5134615384615375  Z M 2.142857142857143 11.846153846153847  L 5.357142857142858 10.903846153846153  L 11.584821428571429 4.644230769230769  C 11.678571428571429 4.549999999999999  11.66517857142857 4.388461538461538  11.558035714285714 4.294230769230769  L 9.669642857142858 2.382692307692308  C 9.562500000000002 2.275000000000001  9.401785714285714 2.261538461538462  9.321428571428573 2.355769230769231  L 3.080357142857143 8.615384615384617  L 2.142857142857143 11.846153846153847  Z M 15 13  L 0 13  L 0 14  L 15 14  L 15 13  Z " fill-rule="nonzero" fill="#000000" stroke="none" transform="matrix(1 0 0 1 5305 1385 )" />
  </g>
</svg>