<?xml version="1.0" encoding="utf-8"?>
<svg version="1.1" xmlns:xlink="http://www.w3.org/1999/xlink" width="20px" height="20px" xmlns="http://www.w3.org/2000/svg">
  <g transform="matrix(1 0 0 1 -3155 -1433 )">
    <path d="M 2.9058035398230087 12.81371504424779  C 1.8593877876106197 10.177490265486728  2.374321415929204 7.272676106194691  4.085548849557522 5.181633628318586  L 4.068997529203539 6.3503387610619475  L 6.422061776991152 6.399993663716815  L 6.511256520353983 1.214876849557523  L 1.327081299115044 1.1266025132743371  L 1.278346803539823 3.4796667610619476  L 2.4231590159292034 3.4952988513274343  C 0.05364043185840655 6.246633364601771  -0.6838622230088498 10.150006815929205  0.7174399008849557 13.682628054867259  C 2.2512006088495577 17.550220975221244  5.954108927433629 19.98329708141593  9.974239900884955 19.98329708141593  C 10.65284591858407 19.98329708141593  11.340656007079646 19.91341205486726  12.028466095575219 19.770887842477876  L 11.547547511504426 17.466551028318584  C 7.910880254867257 18.224250851327433  4.275860785840707 16.26842111681416  2.905843086725663 12.813669612389383  Z M 19.281516814159293 6.3162530973451325  C 17.488441415929206 1.79778407079646  12.73179646017699 -0.7621716814159295  7.9722796460177 0.22909026548672523  L 8.45228017699115 2.5334270796460165  C 12.088947433628318 1.7757272566371674  15.723966902654869 3.7315569911504416  17.09398460176991 7.184425309734511  C 18.14131840707965 9.822533274336282  17.625466725663717 12.730172212389377  15.912403185840711 14.820979292035396  L 15.92711557522124 13.642152035398228  L 13.573133274336286 13.598014867256634  L 13.493135539823014 18.782190088495575  L 18.67731076106195 18.862187823008846  L 18.721447929203542 16.509123575221235  L 17.584921734513273 16.494411185840704  C 19.948084566371683 13.744959858407075  20.682762442477873 9.846294371681411  19.281436778761062 6.316262513274333  Z " fill-rule="nonzero" fill="#727171" stroke="none" transform="matrix(1 0 0 1 3155 1433 )" />
  </g>
</svg>