<?xml version="1.0" encoding="utf-8"?>
<svg version="1.1" xmlns:xlink="http://www.w3.org/1999/xlink" width="17px" height="17px" xmlns="http://www.w3.org/2000/svg">
  <g transform="matrix(1 0 0 1 -3162 -1393 )">
    <path d="M 2.394085567765567 3.5477445331079176  L 2.3981810402930406 3.5437278196675117  C 1.8903428766788763 3.5437278196675117  1.4480322148962148 3.1741904897154125  1.3825047130647128 2.664068304311074  C 1.2268768937728936 1.451021860805861  1.6487102124542126 0.7521142969850665  2.0254933528693524 0.3785602727528882  C 2.4227538559218558 -0.01507731868131864  3.073933440781441 -0.01507731868131864  3.475289416361415 0.3785602727528882  C 3.876645391941392 0.7681811507466895  3.876645391941392 1.406838051282051  3.475289416361415 1.8004756427162583  C 3.430239257631257 1.8486761656804738  3.3606162832722837 2.029428117216117  3.413857387057388 2.4190489952099186  C 3.4838100283082136 2.969159631638993  3.085998449412178 3.470795659845849  2.525140590964591 3.5397111062271067  C 2.480090432234432 3.5437278196675117  2.4391357460317455 3.5477445331079176  2.394085567765567 3.5477445331079176  Z M 5.351014271062271 9.279589803324882  L 5.346918798534798 9.27958980332488  L 2.6684820122100117 11.914551616793462  C 1.7060467692307686 12.858478489715411  -0.4113107496947501 16.071846559594253  0.2972053919413913 16.766737409974642  C 1.0057215335775331 17.461628260355035  4.273905894993894 15.36892230149338  5.236341137973138 14.420978715131023  L 7.914777924297925 11.786016901662443  C 7.4642763174603175 11.39639602366864  7.017870183150183 10.994725024513949  6.591941411477412 10.57297045815723  C 6.166012639804639 10.151215891800506  5.744179301587302 9.717411204282895  5.351014271062271 9.279589803324882  Z M 7.857441367521366 9.323773612848692  C 8.291561084249082 9.749544873485487  8.750253636141636 10.163266012961397  9.184373352869352 10.532803362073825  L 16.40058990964591 3.431259939137785  C 16.973955575091576 2.8649038230487456  17.096819653235652 2.073611926739927  16.674986334554333 1.659890787264018  L 15.642928117216117 0.651696556776557  C 15.2210947985348 0.23797541730064808  14.410191921855922 0.362493438151592  13.836826256410257 0.9248328408002254  L 6.620609699633699 8.026376263736264  C 7.009679257631258 8.46419766469428  7.423321650793651 8.898002352211892  7.857441367521366 9.323773612848692  Z M 4.622020766788766 5.435598259791491  L 4.617925294261294 5.435598259791491  C 4.351719794871794 5.021877120315582  3.7988314725274726 4.9013758129050435  3.3769981538461535 5.162461975767822  C 2.9551648351648354 5.423548138630598  2.832300757020757 5.969820706677938  3.0985062564102557 6.37952513271344  C 3.7128266275946267 7.331485413355875  4.478679345543345 8.315579382361229  5.346918798534798 9.279589803324882  L 6.620609699633699 8.026376263736264  C 5.846566036630037 7.162783602141449  5.166718163614162 6.287140800225416  4.622020766788766 5.435598259791491  Z " fill-rule="nonzero" fill="#727171" stroke="none" transform="matrix(1 0 0 1 3162 1393 )" />
  </g>
</svg>