<?xml version="1.0" encoding="utf-8"?>
<svg version="1.1" xmlns:xlink="http://www.w3.org/1999/xlink" width="15px" height="12px" xmlns="http://www.w3.org/2000/svg">
  <g transform="matrix(1 0 0 1 -3164 -1398 )">
    <path d="M 5.57734911843712 7.956865149048138  C 8.992970354090355 10.992819093019659  12.879570520146522 12.924034654697419  14.57509473992674 11.20047667667544  C 14.927305084249085 10.84330562327813  14.923209611721612 10.266017520507663  14.57509473992674 9.908846486921531  C 14.22697986813187 9.551675453335397  13.653614183150186 9.555828588763353  13.30140385836386 9.908846486921531  C 12.785374749694752 10.432143611205696  10.086460620268623 9.514297075994431  6.85104001953602 6.661081804055103  L 5.57734911843712 7.956865149048138  Z M 0.6013541587301591 0.12402092555331964  C 0.3679124200244198 0.024345279058968893  0.1098978656898654 0.20708395109116218  0.12218428327228341 0.4645793579941183  L 0.21228460073260122 2.7446596824021046  C 0.22457099877899958 3.0229208456895207  0.5317311843711856 3.1765874706701744  0.756981997557998 3.018767710261569  L 2.7432845128205137 1.6150024082959296  C 2.8364313769115057 1.5490475207459935  2.8919308494493414 1.441106635981043  2.8919308494493414 1.3259002536431002  C 2.8919308494493414 1.1834738054178255  2.8074354376822286 1.0550328728049279  2.6777569914529913 1.0003359479956662  L 0.6013541587301591 0.12402092555331964  Z M 13.27273557020757 6.5946313796625935  C 13.506177308913308 6.694307026156944  13.764191863247865 6.511568354124751  13.751905445665445 6.254072927410618  L 13.661805128205128 3.973992603002632  C 13.654060087206581 3.7855767595749943  13.501180199372174 3.636871561556881  13.315219886466853 3.636871561556881  C 13.244387202877672 3.636871561556881  13.175252151054899 3.658861175253816  13.11710775091575 3.6998845949543426  L 11.130805235653234 5.103649896919983  C 11.03765836732147 5.1696047838781976  10.982158891731418 5.277545671211577  10.982158891731418 5.392752056736786  C 10.982158891731418 5.535178500068504  11.066654297767961 5.663619429275316  11.196332737484736 5.718316357220247  L 13.27273557020757 6.5946313796625935  Z " fill-rule="nonzero" fill="#727171" stroke="none" transform="matrix(1 0 0 1 3164 1398 )" />
  </g>
</svg>