<?xml version="1.0" encoding="utf-8"?>
<svg version="1.1" xmlns:xlink="http://www.w3.org/1999/xlink" width="16px" height="16px" xmlns="http://www.w3.org/2000/svg">
  <g transform="matrix(1 0 0 1 -3163 -1393 )">
    <path d="M 13.94254321095045 15.712683762328899  L 13.946681793715056 15.712683762328899  C 13.590763972084055 15.356765940697898  13.590763972084055 14.781503410217853  13.946681793715056 14.425585608328515  C 14.070839177944858 14.301428224098709  14.14119502571814 13.895847448775784  13.934266045421243 13.155041745903219  C 13.801831515403894 12.670827977019472  14.08325490649701 12.170059877077309  14.567468675380757 12.037625347059956  C 15.051682444264507 11.905190817042605  15.552450544206668 12.186614208135722  15.684885093965683 12.670827977019472  C 16.148405968768074 14.342814012261421  15.693162259494889 15.245024304761902  15.229641364950837 15.712683762328899  C 14.873723543319837 16.0686015839599  14.298461012839791 16.0686015839599  13.94254321095045 15.712683762328899  Z M 0.2852314984384048 2.0967578577212262  L 0.2893700812030075 2.10089644048583  C -0.06654774042799305 1.7449786188548295  -0.06654774042799305 1.169716088374783  0.2893700812030075 0.8137982667437825  C 2.230363778985926 -1.135472576826682  7.006284281781377 1.5918511750144595  10.71858992219009 5.2958796498939655  C 11.918777917100442 6.491929062039714  13.003085693310197 7.779027235781762  13.851494469095815 9.02060103859649  C 14.137056442953536 9.434458959706959  14.029453370040486 10.001444324657797  13.615595448930016 10.282867715750914  C 13.20173752781955 10.568429689608633  12.63475216286871 10.460826616695584  12.35332875203393 10.046968695585115  C 11.566998678234047 8.900582237131289  10.557185332562174 7.700394222479273  9.439768933718913 6.5829778236360115  C 5.595028743551186 2.758930547291305  2.1641465139772507 1.5049410159244263  1.5723296721804516 2.0967578577212262  C 1.216411850549451 2.452675679352227  0.6411493200694047 2.452675679352227  0.2852314984384048 2.0967578577212262  Z " fill-rule="nonzero" fill="#727171" stroke="none" transform="matrix(1 0 0 1 3163 1393 )" />
  </g>
</svg>