<?xml version="1.0" encoding="utf-8"?>
<svg version="1.1" xmlns:xlink="http://www.w3.org/1999/xlink" width="70px" height="70px" xmlns="http://www.w3.org/2000/svg">
  <g transform="matrix(1 0 0 1 -3540 -2820 )">
    <path d="M 0 35.00000000000001  C 0 15.700078125000008  15.700078125000008 0  35.00000000000001 0  C 54.299921875 0  70 15.700078125000008  70 35.00000000000001  C 70 54.299921875  54.299921875 70  35.00000000000001 70  C 15.700078125000008 70  0 54.299921875  0 35.00000000000001  Z M 5.000000000000007 35.00000000000001  C 5.000000000000007 51.542578125000006  18.45742187500001 65  35.00000000000001 65  C 51.542578125000006 65  65 51.542578125000006  65 35.00000000000001  C 65 18.45742187500001  51.542578125000006 5.000000000000007  35.00000000000001 5.000000000000007  C 18.45742187500001 5.000000000000007  5.000000000000007 18.45742187500001  5.000000000000007 35.00000000000001  Z M 22.74750000000001 35.847500000000004  C 22.75007812500001 35.85742187499999  22.76250000000001 35.8675  22.767500000000005 35.87757812500001  C 22.887500000000006 36.160078125000005  23.052578125000004 36.43007812500001  23.282500000000006 36.662578125  C 23.285078125000005 36.66515625000001  23.287500000000005 36.66515625000001  23.290000000000006 36.667578125  C 23.292578125000006 36.67015625  23.292578125000006 36.672578124999994  23.295000000000005 36.675078125  L 35.71 49.12500000000001  C 36.68500000000001 50.10257812500001  38.267500000000005 50.10750000000001  39.24500000000001 49.13  C 40.22257812500001 48.155  40.22500000000001 46.572578125  39.25000000000001 45.595  L 28.602500000000006 34.9175  L 39.337500000000006 24.299921875  C 40.32000000000001 23.327499999999997  40.32757812500001 21.747421874999993  39.3575 20.764921875  C 38.870078125 20.270000000000003  38.224999999999994 20.022421874999996  37.58007812500001 20.022421874999996  C 36.94515625000001 20.022421874999996  36.31007812500001 20.264843749999997  35.82250000000001 20.744921874999996  L 23.30257812500001 33.127421874999996  C 22.560078125000008 33.860156249999996  22.37500000000001 34.940234374999996  22.74757812500001 35.84765624999999  Z " fill-rule="nonzero" fill="#ffffff" stroke="none" transform="matrix(1 0 0 1 3540 2820 )" />
  </g>
</svg>