<?xml version="1.0" encoding="utf-8"?>
<svg version="1.1" xmlns:xlink="http://www.w3.org/1999/xlink" width="15px" height="12px" xmlns="http://www.w3.org/2000/svg">
  <g transform="matrix(1 0 0 1 -5348 -1804 )">
    <path d="M 10.27840909090909 2.945833333333333  C 11.335227272727273 1.5625  12.8203125 0.6291666666666664  14.693181818181818 0.14583333333333334  L 14.693181818181818 2.4270833333333335  C 13.704545454545455 2.7375  12.890625 3.291666666666667  12.25568181818182 4.120833333333334  C 11.618607954545455 4.8812500000000005  11.301136363636365 5.710416666666667  11.337357954545455 6.539583333333333  C 11.514204545454545 6.435416666666667  11.797585227272728 6.402083333333332  12.22159090909091 6.402083333333332  C 12.963068181818182 6.402083333333332  13.600142045454547 6.643749999999999  14.164772727272728 7.1625  C 14.659090909090912 7.681249999999999  14.942471590909092 8.337499999999999  14.942471590909092 9.13125  C 14.942471590909092 9.924999999999999  14.65909090909091 10.583333333333332  14.094460227272727 11.1  C 13.529829545454545 11.583333333333334  12.82244318181818 11.860416666666666  11.974431818181818 11.860416666666666  C 10.985795454545455 11.860416666666666  10.208096590909092 11.445833333333333  9.571022727272728 10.685416666666667  C 8.933948863636365 9.924999999999999  8.652698863636365 8.922916666666666  8.652698863636365 7.747916666666667  C 8.652698863636365 5.881249999999999  9.183238636363637 4.293749999999999  10.27840909090909 2.945833333333333  Z M 1.6896306818181832 2.945833333333333  C 2.7485795454545454 1.5625  4.2336647727272725 0.6291666666666664  6.106534090909092 0.14583333333333334  L 6.106534090909092 2.4270833333333335  C 5.117897727272728 2.7375  4.340198863636365 3.291666666666667  3.703125 4.120833333333334  C 3.0319602272727275 4.8812500000000005  2.714488636363637 5.710416666666667  2.7485795454545454 6.539583333333333  C 2.9254261363636367 6.435416666666667  3.208806818181819 6.402083333333332  3.6328125 6.402083333333332  C 4.3742897727272725 6.402083333333332  5.011363636363636 6.643749999999999  5.54190340909091 7.1625  C 6.072443181818182 7.681249999999999  6.3536931818181825 8.337499999999999  6.3536931818181825 9.13125  C 6.3536931818181825 9.924999999999999  6.070312500000001 10.583333333333332  5.54190340909091 11.1  C 4.9772727272727275 11.583333333333334  4.233664772727273 11.860416666666666  3.38565340909091 11.860416666666666  C 2.3970170454545467 11.860416666666666  1.6193181818181825 11.445833333333333  1.01846590909091 10.685416666666667  C 0.3813920454545462 9.924999999999999  0.06392045454545575 8.922916666666666  0.06392045454545575 7.747916666666667  C 0.06392045454545575 5.881249999999999  0.5944602272727286 4.293749999999999  1.6896306818181832 2.945833333333333  Z " fill-rule="nonzero" fill="#999999" stroke="none" transform="matrix(1 0 0 1 5348 1804 )" />
  </g>
</svg>