<?xml version="1.0" encoding="utf-8"?>
<svg version="1.1" xmlns:xlink="http://www.w3.org/1999/xlink" width="25px" height="30px" xmlns="http://www.w3.org/2000/svg">
  <g transform="matrix(1 0 0 1 -4212 -2094 )">
    <path d="M 6.944444433593751 4.561403519736842  L 10.536111100260415 4.561403519736842  L 7.995833333333333 1.9957894736842106  L 9.961111100260416 0.009824572368421111  L 15.852777766927082 5.964912269736843  L 9.961111100260418 11.920000000000002  L 7.995833333333334 9.934035098684213  L 10.536111100260415 7.368421052631579  L 6.944444433593748 7.368421052631579  C 4.643257975965442 7.368421052631579  2.7777777669270822 9.253537895449291  2.7777777669270822 11.578947368421051  L 2.7777777669270822 17.192982467105264  L 0 17.192982467105264  L 0 11.578947368421055  C 0 7.70326491952387  3.1091336768725797 4.561403519736842  6.944444433593751 4.561403519736842  Z M 8.333333333333332 28.421052631578945  L 8.333333333333332 14.38596490131579  C 8.333333351311351 13.610828417115643  8.955160087249853 12.982456151315787  9.722222233072916 13  L 23.611111100260416 13  C 24.378173246083477 12.982456151315791  24.999999982021983 13.610828417115643  25 14.385964901315788  L 25 28.421052631578952  C 24.999999999999993 29.19618912862529  24.378173258795858 29.82456141447368  23.611111100260416 29.82456141447368  L 9.722222233072918 29.82456141447368  C 8.955160074537476 29.82456141447368  8.333333333333334 29.19618912862529  8.333333333333332 28.421052631578945  Z M 22 15.789473684210526  L 11.111111100260414 15.789473684210526  L 11.111111100260414 27  L 22 27  L 22 15.789473684210526  Z " fill-rule="nonzero" fill="#ffffff" stroke="none" transform="matrix(1 0 0 1 4212 2094 )" />
  </g>
</svg>