<?xml version="1.0" encoding="utf-8"?>
<svg version="1.1" xmlns:xlink="http://www.w3.org/1999/xlink" width="25px" height="30px" xmlns="http://www.w3.org/2000/svg">
  <g transform="matrix(1 0 0 1 -4157 -2094 )">
    <path d="M 18.055555566406248 7.368421052631579  L 14.463888899739583 7.368421052631579  L 17.004166666666663 9.93403509868421  L 15.03888889973958 11.92  L 9.147222233072917 5.964912269736843  L 15.038888899739586 0.009824572368421111  L 17.004166666666666 1.9957894736842106  L 14.463888899739583 4.561403519736842  L 18.05555556640625 4.561403519736842  C 21.890866323127423 4.561403519736843  25 7.703264919523872  25 11.578947368421051  L 25 17.192982467105264  L 22.222222233072916 17.192982467105264  L 22.222222233072916 11.578947368421051  C 22.222222233072916 9.253537895449291  20.356742024034556 7.368421052631579  18.055555566406248 7.368421052631579  Z M 15.277777766927084 13  C 16.044839912750145 12.982456151315791  16.666666648688647 13.610828417115643  16.666666666666664 14.385964901315788  L 16.666666666666664 28.421052631578952  C 16.666666666666664 29.19618912862529  16.044839925462526 29.82456141447368  15.277777766927084 29.82456141447368  L 1.388888899739583 29.82456141447368  C 0.6218267412041438 29.82456141447368  0 29.19618912862529  0 28.421052631578945  L 0 14.38596490131579  C 0 13.610828417115643  0.6218267539165212 12.982456151315791  1.388888899739583 13  L 15.277777766927084 13  Z M 13.888888899739582 27  L 13.888888899739582 15.789473684210526  L 3 15.789473684210526  L 3 27  L 13.888888899739582 27  Z " fill-rule="nonzero" fill="#ffffff" stroke="none" transform="matrix(1 0 0 1 4157 2094 )" />
  </g>
</svg>