<?xml version="1.0" encoding="utf-8"?>
<svg version="1.1" xmlns:xlink="http://www.w3.org/1999/xlink" width="28px" height="30px" xmlns="http://www.w3.org/2000/svg">
  <g transform="matrix(1 0 0 1 -4385 -2094 )">
    <path d="M 15 1.4100000000000004  L 15 19.225384615384616  L 23.87428571428572 10.41923076923077  C 24.087671324396624 10.203793374407265  24.37708431902305 10.082761906256932  24.678857142857147 10.082761906256932  C 25.30726651746948 10.082761906256932  25.81669296904076 10.597086689093322  25.81669296904076 11.231538461538461  C 25.81669296904076 11.536212947140193  25.696814181539477 11.828408759022647  25.483428571428576 12.043846153846152  L 14.932571428571432 22.69615384615384  C 14.422459417389 23.193204051988808  13.614112011182435 23.193204051988808  13.104000000000005 22.696153846153845  L 2.51657142857143 12.062307692307693  C 2.303185818460528 11.846870297484188  2.1833070309592477 11.55467448560173  2.1833070309592477 11.250000000000002  C 2.1833070309592477 10.61554822755486  2.692733482530528 10.101223444718475  3.3211428571428567 10.101223444718475  C 3.622915680976951 10.101223444718475  3.912328675603385 10.222254912868804  4.1257142857142854 10.43769230769231  L 13 19.243846153846157  L 13 1.4100000000000004  C 12.841910820795533 1.3614948482574012  12.83885714285714 1.3126503051003329  12.83885714285714 1.2637571121437934  C 12.83885714285714 0.621407464648286  13.354625111052068 0.10068018906687036  13.990857142857143 0.10068018906687036  C 14.627089174662217 0.10068018906687036  15.142857142857144 0.621407464648286  15.142857142857144 1.2637571121437934  C 15.142857142857144 1.3126503051003329  15.139803464918746 1.3614948482574012  15 1.4100000000000004  Z M 26.799999999999997 30  L 1.1999999999999997 30  C 0.6243779454060012 29.877880408908112  0.19285009844804435 29.383498444790668  0.19285009844804435 28.79769230769231  C 0.19285009844804435 28.211886170593953  0.6243779454059981 27.717504206476505  1.1999999999999997 27.64384615384615  L 26.799999999999997 27.64384615384615  C 27.375622054594004 27.717504206476505  27.807149901551956 28.211886170593953  27.807149901551956 28.79769230769231  C 27.807149901551956 29.383498444790668  27.375622054594 29.877880408908112  26.799999999999997 30  Z " fill-rule="nonzero" fill="#ffffff" stroke="none" transform="matrix(1 0 0 1 4385 2094 )" />
  </g>
</svg>