<?xml version="1.0" encoding="utf-8"?>
<svg version="1.1" xmlns:xlink="http://www.w3.org/1999/xlink" width="29px" height="30px" xmlns="http://www.w3.org/2000/svg">
  <g transform="matrix(1 0 0 1 -4326 -2094 )">
    <path d="M 28.44234862385321 29.443539823008848  C 28.858095011039055 29.02914296196738  28.858571426749048 28.356930135742804  28.4434128440367 27.94194690265487  L 23.823633027522934 23.33203539823009  C 26.200036697247707 20.85132743362832  27.669724770642205 17.499823008849557  27.669724770642205 13.805309734513274  C 27.669724770642205 6.193274336283186  21.463192660550458 0  13.834862385321102 0  C 6.206532110091744 0  0 6.193274336283186  0 13.805309734513274  C 0 21.41734513274336  6.206532110091743 27.61061946902655  13.834862385321102 27.61061946902655  C 16.994532110091743 27.61061946902655  19.901981651376147 26.535929203539823  22.233688073394497 24.749734513274337  L 26.937541284403668 29.443539823008848  C 27.13669426523937 29.643408041776343  27.407490664156875 29.755789222836107  27.689944954128443 29.755789222836107  C 27.97239924410001 29.755789222836107  28.243195643017508 29.643408041776336  28.44234862385321 29.443539823008848  Z M 13.834862385321102 25.486725663716815  C 7.380366972477063 25.486725663716815  2.128440366972477 20.246017699115047  2.128440366972477 13.805309734513274  C 2.128440366972477 7.364601769911505  7.380366972477065 2.1238938053097343  13.834862385321102 2.1238938053097343  C 20.289357798165135 2.1238938053097343  25.541284403669728 7.364601769911503  25.541284403669728 13.805309734513274  C 25.541284403669728 20.246017699115047  20.289357798165142 25.486725663716815  13.834862385321102 25.486725663716815  Z M 18.683449541284403 12.743362831858407  L 14.89908256880734 12.743362831858407  L 14.89908256880734 9.026548672566372  C 14.89908256880734 8.440051593100042  14.422614963122678 7.964601769911505  13.834862385321102 7.964601769911505  C 13.247109807519523 7.964601769911505  12.770642201834864 8.440051593100042  12.770642201834864 9.026548672566372  L 12.770642201834864 12.743362831858407  L 9.045871559633028 12.743362831858407  C 8.458118981831449 12.743362831858407  7.9816513761467895 13.218812655046946  7.9816513761467895 13.805309734513274  C 7.9816513761467895 14.391806813979603  8.458118981831449 14.867256637168142  9.045871559633028 14.867256637168142  L 12.770642201834864 14.867256637168142  L 12.770642201834864 18.584070796460175  C 12.770642201834864 19.170567875926505  13.247109807519523 19.646017699115045  13.834862385321102 19.646017699115045  C 14.422614963122678 19.646017699115045  14.89908256880734 19.170567875926505  14.89908256880734 18.584070796460175  L 14.89908256880734 14.867256637168142  L 18.683449541284403 14.867256637168142  C 19.27120211908598 14.867256637168142  19.747669724770642 14.391806813979603  19.747669724770642 13.805309734513274  C 19.747669724770642 13.218812655046946  19.27120211908598 12.743362831858407  18.683449541284403 12.743362831858407  Z " fill-rule="nonzero" fill="#ffffff" stroke="none" transform="matrix(1 0 0 1 4326 2094 )" />
  </g>
</svg>