<?xml version="1.0" encoding="utf-8"?>
<svg version="1.1" xmlns:xlink="http://www.w3.org/1999/xlink" width="18px" height="18px" xmlns="http://www.w3.org/2000/svg">
  <g transform="matrix(1 0 0 1 -4746 -1782 )">
    <path d="M 0.1456000000000003 9.571090909090909  C 0.1456000000000003 9.119221568320262  0.5037722001353657 8.75290909090909  0.9456000000000002 8.75290909090909  C 1.3319876970502635 8.752777349523274  1.6632502321379512 9.035103373745738  1.7328000000000003 9.42381818181818  L 1.7456000000000005 9.571090909090909  L 1.7456000000000005 16.33418181818182  L 8.1232 16.33418181818182  C 8.509587697050264 16.334050076796  8.840850232137951 16.616376101018464  8.9104 17.005090909090907  L 8.9232 17.152363636363635  C 8.923328813799467 17.547532871983226  8.64727670122639 17.886324101050178  8.267199999999999 17.957454545454546  L 8.1232 17.970545454545455  L 0.9456000000000002 17.970545454545455  C 0.5592123029497372 17.97067719593127  0.2279497678620494 17.68835117170881  0.15840000000000032 17.299636363636363  L 0.1456000000000003 17.152363636363635  L 0.1456000000000003 9.571090909090909  Z M 17.0528 0.02945454545454512  L 17.054399999999998 0.0310909090909093  C 17.44078769705026 0.030959167705091446  17.77205023213795 0.3132851919275543  17.8416 0.7020000000000005  L 17.8544 0.8492727272727275  L 17.8544 8.427272727272728  C 17.854400903709568 8.427774790075127  17.854401355564637 8.428276853620995  17.854401355564637 8.428778917274117  C 17.854401355564637 8.880648258044765  17.49622915542927 9.246960735455938  17.054401355564636 9.246960735455938  C 16.66754970994379 9.246960735455938  16.336121141446505 8.963859553766518  16.267199999999995 8.574545454545454  L 16.2544 8.427272727272728  L 16.2544 1.6658181818181814  L 9.8752 1.6658181818181814  C 9.488812302949736 1.6659499232039994  9.157549767862047 1.3836238989815366  9.088 0.9949090909090904  L 9.0752 0.8476363636363633  C 9.075071186200534 0.45246712801677613  9.351123298773608 0.11367589894982262  9.731200000000001 0.04254545454545422  L 9.8752 0.02945454545454512  L 17.0528 0.02945454545454512  Z " fill-rule="nonzero" fill="#000000" stroke="none" transform="matrix(1 0 0 1 4746 1782 )" />
  </g>
</svg>