<?xml version="1.0" encoding="utf-8"?>
<svg version="1.1" xmlns:xlink="http://www.w3.org/1999/xlink" width="30px" height="30px" xmlns="http://www.w3.org/2000/svg">
  <g transform="matrix(1 0 0 1 -5018 -2094 )">
    <path d="M 29.19862430555555 27.195627870370373  L 16.91258143518519 14.872632592592595  L 29.194084814814815 2.654840277777779  C 29.774811203703702 2.077060509259261  29.777757870370372 1.1407467129629645  29.19997810185185 0.5600202777777794  C 28.62068518518518 -0.022219259259257055  27.685884537037033 -0.02365277777777611  27.10515810185185 0.5541269907407422  L 14.820708101851853 12.773352824074074  L 2.642974120370371 0.5585071759259252  C 2.0667075000000006 -0.019272592592592994  1.128880555555556 -0.02221921296296351  0.5481541203703713 0.5555605555555547  C -0.031138796296295998 1.133340324074073  -0.03257226851851756 2.0710876388888884  0.5452075000000007 2.6518937037037036  L 12.719994861111111 14.863713101851852  L 0.44446439814814886 27.07409898148148  C -0.13626199074073997 27.651878749999998  -0.13920865740740668 28.588192546296295  0.43857111111111163 29.168918981481482  C 0.7274211574074076 29.45928217592592  1.1081744444444457 29.605976944444446  1.488927731481482 29.605976944444446  C 1.8667343981481492 29.605976944444446  2.2444613888888894 29.462308472222222  2.5333911111111114 29.17489189814815  L 14.811947870370371 16.961559351851854  L 27.100857685185183 29.287501203703705  C 27.389707731481476 29.57786439814815  27.769027546296293 29.723046018518524  28.14978083333333 29.723046018518524  C 28.52902097222222 29.723046018518524  28.906827638888892 29.57786439814815  29.195677685185185 29.290447870370375  C 29.77497060185185 28.712668101851857  29.776404074074073 27.77635430555556  29.19862430555555 27.195627870370373  Z " fill-rule="nonzero" fill="#ffffff" stroke="none" transform="matrix(1 0 0 1 5018 2094 )" />
  </g>
</svg>