<?xml version="1.0" encoding="utf-8"?>
<svg version="1.1" xmlns:xlink="http://www.w3.org/1999/xlink" width="18px" height="14px" xmlns="http://www.w3.org/2000/svg">
  <g transform="matrix(1 0 0 1 -5277 -1385 )">
    <path d="M 12.334090909090909 3.436805555555555  C 13.602272727272728 1.8229166666666667  15.384375 0.7340277777777775  17.631818181818183 0.1701388888888889  L 17.631818181818183 2.8315972222222223  C 16.445454545454545 3.1937499999999996  15.46875 3.840277777777778  14.706818181818184 4.807638888888889  C 13.942329545454546 5.694791666666667  13.56136363636364 6.662152777777779  13.604829545454546 7.629513888888888  C 13.817045454545454 7.507986111111111  14.157102272727276 7.469097222222221  14.665909090909091 7.469097222222221  C 15.555681818181817 7.469097222222221  16.320170454545455 7.751041666666666  16.997727272727275 8.35625  C 17.590909090909093 8.961458333333333  17.93096590909091 9.727083333333333  17.93096590909091 10.653125  C 17.93096590909091 11.579166666666666  17.59090909090909 12.347222222222221  16.913352272727273 12.95  C 16.235795454545453 13.51388888888889  15.386931818181816 13.837152777777778  14.369318181818183 13.837152777777778  C 13.182954545454546 13.837152777777778  12.24971590909091 13.353472222222223  11.485227272727276 12.466319444444444  C 10.720738636363638 11.579166666666666  10.383238636363638 10.410069444444442  10.383238636363638 9.039236111111112  C 10.383238636363638 6.861458333333331  11.019886363636363 5.009374999999999  12.334090909090909 3.436805555555555  Z M 2.0275568181818198 3.436805555555555  C 3.298295454545454 1.8229166666666667  5.080397727272727 0.7340277777777775  7.32784090909091 0.1701388888888889  L 7.32784090909091 2.8315972222222223  C 6.141477272727274 3.1937499999999996  5.208238636363638 3.840277777777778  4.4437500000000005 4.807638888888889  C 3.638352272727273 5.694791666666667  3.257386363636365 6.662152777777779  3.298295454545454 7.629513888888888  C 3.510511363636364 7.507986111111111  3.8505681818181823 7.469097222222221  4.359375 7.469097222222221  C 5.249147727272727 7.469097222222221  6.013636363636363 7.751041666666666  6.650284090909092 8.35625  C 7.286931818181818 8.961458333333333  7.62443181818182 9.727083333333333  7.62443181818182 10.653125  C 7.62443181818182 11.579166666666666  7.284375000000001 12.347222222222221  6.650284090909092 12.95  C 5.9727272727272736 13.51388888888889  5.080397727272728 13.837152777777778  4.0627840909090915 13.837152777777778  C 2.876420454545456 13.837152777777778  1.943181818181819 13.353472222222223  1.222159090909092 12.466319444444444  C 0.4576704545454554 11.579166666666666  0.0767045454545469 10.410069444444442  0.0767045454545469 9.039236111111112  C 0.0767045454545469 6.861458333333331  0.7133522727272743 5.009374999999999  2.0275568181818198 3.436805555555555  Z " fill-rule="nonzero" fill="#000000" stroke="none" transform="matrix(1 0 0 1 5277 1385 )" />
  </g>
</svg>