<?xml version="1.0" encoding="utf-8"?>
<svg version="1.1" xmlns:xlink="http://www.w3.org/1999/xlink" width="17px" height="17px" xmlns="http://www.w3.org/2000/svg">
  <g transform="matrix(1 0 0 1 -5701 -1428 )">
    <path d="M 15 2  L 2 2  L 2 15  L 15 15  L 15 2  Z M 0 1.9635658997093017  C 0.06589148110465126 0.9093023255813942  0.9093023255813956 0.0658914811046502  1.9635658997093024 0  L 15.0364341002907 0  C 16.090697674418607 0.0658914811046502  16.93410851889535 0.9093023255813942  17 1.9635658997093017  L 17 15.0364341002907  C 16.93410851889535 16.090697674418607  16.090697674418607 16.93410851889535  15.0364341002907 17  L 1.9635658997093024 17  C 0.9093023255813956 16.93410851889535  0.06589148110465126 16.090697674418607  0 15.0364341002907  L 0 1.9635658997093017  Z M 3.755813953488372 5.2317829375  C 3.755813953488372 6.075193781976744  4.388372093023257 6.60232558139535  5.2317829375 6.602325581395349  C 5.9697674418604665 6.602325581395349  6.60232558139535 5.969767441860464  6.60232558139535 5.2317829375  C 6.60232558139535 4.493798433139537  5.9697674418604665 3.755813953488372  5.2317829375 3.755813953488372  C 4.493798433139536 3.755813953488372  3.755813953488372 4.388372093023257  3.755813953488372 5.2317829375  Z M 3.755813953488372 13.24418604651163  L 3.755813953488372 10.39767441860465  L 5.653488372093023 8.5  L 7.551162790697675 10.39767441860465  L 10.397674418604653 7.551162790697672  L 13.244186046511631 10.39767441860465  L 13.244186046511631 13.24418604651163  L 3.755813953488372 13.24418604651163  Z " fill-rule="nonzero" fill="#ffffff" stroke="none" transform="matrix(1 0 0 1 5701 1428 )" />
  </g>
</svg>