<?xml version="1.0" encoding="utf-8"?>
<svg version="1.1" xmlns:xlink="http://www.w3.org/1999/xlink" width="7px" height="12px" xmlns="http://www.w3.org/2000/svg">
  <g transform="matrix(1 0 0 1 -7752 -1346 )">
    <path d="M 6.678692374131945 11.653121220703124  C 6.536746106770834 11.790930322265623  6.35006271484375 11.859368701171874  6.163405451388888 11.859368701171874  C 5.976748187934027 11.859368701171874  5.790064796006943 11.790930322265623  5.647648155381944 11.653599990234376  L 0.3009093706597219 6.497816147460938  C 0.016049960937499698 6.223609057617186  0.016049960937499698 5.7782807958984375  0.3009093706597219 5.503594936523436  L 5.647648170572916 0.34733235351562497  C 5.932507580295139 0.07264649414062471  6.393832979600695 0.07264649414062471  6.678692389322918 0.34733235351562497  C 6.963551799045138 0.6215394433593748  6.963551799045138 1.066867705078125  6.678692389322918 1.341553564453125  L 1.8477108854166668 6.000453574218751  L 6.678692374131945 10.658900009765624  C 6.963551783854167 10.933585869140625  6.963551783854167 11.378435361328126  6.678692374131945 11.653121220703124  Z " fill-rule="nonzero" fill="#272636" stroke="none" transform="matrix(1 0 0 1 7752 1346 )" />
  </g>
</svg>