<?xml version="1.0" encoding="utf-8"?>
<svg version="1.1" xmlns:xlink="http://www.w3.org/1999/xlink" width="14px" height="14px" xmlns="http://www.w3.org/2000/svg">
  <g transform="matrix(1 0 0 1 -4066 -1560 )">
    <path d="M 13.723164368421052 8.445974005813955  C 13.909987567982457 7.742870089147289  13.955012964912282 7.0258519089147295  13.8569515 6.31490934883721  C 13.76223548245614 5.628038730620155  13.53681689254386 4.964236476744186  13.186987625 4.34196  C 12.484229164473685 3.0919417151162794  11.310346004385966 2.08550428875969  9.88154907894737 1.5080626492248062  C 9.573246298245616 1.3834581724806203  9.209022405701756 1.5033160658914728  9.068022603070176 1.7757832519379848  C 8.92703815131579 2.0482233062015505  9.062651469298245 2.370109149224806  9.37095425 2.4947271782945735  C 11.815784535087719 3.4827885600775192  13.143512160087718 5.881329715116279  12.527996188596491 8.197972050387596  C 12.056180914473684 9.973423032945737  10.544637925438595 11.363180594961241  8.595286567982455 11.865287257751937  L 8.591250546052631 10.904810271317828  L 5.5695303508771925 12.460142062015503  L 8.60424867105263 13.99548396899225  L 8.600013149122805 12.985737496124031  C 9.75744531140351 12.742753346899226  10.822969791666667 12.240565329457365  11.70219284868421 11.520088932170545  C 12.709172030701753 10.69490300775194  13.408017230263157 9.631899924418606  13.723164368421052 8.445974005813955  Z M 8.442731162280703 1.6440317887596891  L 5.408104916666666 0.10851356589147287  L 5.412279050438596 1.1182736046511628  C 4.254754813596491 1.3612577538759691  3.189153594298245 1.8634729031007753  2.3098691798245605 2.584017102713178  C 1.3028439605263156 3.40924371124031  0.6040140964912275 4.472273926356589  0.28889766008771867 5.658267647286822  C 0.16628246710526254 6.119974135658914  0.10477537061403443 6.587634191860465  0.10477537061403443 7.0557011027131775  C 0.10477537061403443 7.299810868217053  0.12151794298245552 7.544029120155039  0.15500310307017484 7.787528610465117  C 0.24944288157894687 8.473843203488372  0.4743550614035082 9.13718436627907  0.8234630679824555 9.7591082248062  C 1.524671565789473 11.008258563953488  2.6964676666666665 12.014709556201549  4.122931980263158 12.593032693798449  C 4.431050611842105 12.717962643410852  4.795458653508772 12.598484472868217  4.936811418859649 12.326180050387597  C 5.078194870614035 12.053821364341085  4.942965201754386 11.731854153100775  4.634831219298246 11.606924189922479  C 2.194604754385965 10.617588007751936  0.8695933750000003 8.22007753488372  1.4840811754385965 5.906215352713177  C 1.9558504122807014 4.130669436046511  3.4674394385964917 2.740844071705425  5.416913572368422 2.238737408914728  L 5.420903557017545 3.1992279476744176  L 8.442731162280703 1.6440317887596891  Z " fill-rule="nonzero" fill="#000000" stroke="none" transform="matrix(1 0 0 1 4066 1560 )" />
  </g>
</svg>