<?xml version="1.0" encoding="utf-8"?>
<svg version="1.1" xmlns:xlink="http://www.w3.org/1999/xlink" width="15px" height="14px" xmlns="http://www.w3.org/2000/svg">
  <g transform="matrix(1 0 0 1 -10513 -1366 )">
    <path d="M 6.808189655172414 0.439090909090909  C 7.091056034482758 -0.12568181818181826  7.908943965517241 -0.12568181818181826  8.191810344827585 0.439090909090909  L 9.887392241379308 3.8197727272727278  C 10.000538793103447 4.04409090909091  10.217133620689653 4.2  10.469288793103447 4.235  L 14.261314655172413 4.777500000000001  C 14.894935344827585 4.868181818181819  15.147090517241379 5.633409090909092  14.689655172413792 6.07409090909091  L 11.945043103448274 8.705454545454545  C 11.762704133300236 8.879928190960364  11.679805997605296 9.131850509526648  11.723599137931034 9.378409090909091  L 12.371767241379311 13.094772727272728  C 12.480064655172413 13.715227272727274  11.817349137931036 14.18931818181818  11.251616379310345 13.896590909090909  L 7.858836206896552 12.141818181818183  C 7.634159482758621 12.02568181818182  7.365840517241381 12.02568181818182  7.139547413793104 12.141818181818183  L 3.75 13.896590909090909  C 3.1842672413793105 14.18931818181818  2.521551724137931 13.716818181818184  2.6298491379310343 13.094772727272728  L 3.27801724137931 9.378409090909091  C 3.32165948275862 9.131818181818181  3.2376077586206895 8.880454545454546  3.0565732758620685 8.705454545454545  L 0.31196120689655166 6.074090909090909  C -0.14709051724137934 5.635  0.10668103448275854 4.868181818181818  0.7403017241379309 4.7775  L 4.532327586206896 4.234999999999999  C 4.78448275862069 4.198409090909091  5.001077586206896 4.044090909090909  5.114224137931034 3.819772727272727  L 6.808189655172414 0.439090909090909  Z " fill-rule="nonzero" fill="#e7772d" stroke="none" transform="matrix(1 0 0 1 10513 1366 )" />
  </g>
</svg>