<?xml version="1.0" encoding="utf-8"?>
<svg version="1.1" xmlns:xlink="http://www.w3.org/1999/xlink" width="60px" height="60px" xmlns="http://www.w3.org/2000/svg">
  <defs>
    <filter x="5187px" y="4127px" width="60px" height="60px" filterUnits="userSpaceOnUse" id="filter6267">
      <feOffset dx="0" dy="0" in="SourceAlpha" result="shadowOffsetInner" />
      <feGaussianBlur stdDeviation="5" in="shadowOffsetInner" result="shadowGaussian" />
      <feComposite in2="shadowGaussian" operator="atop" in="SourceAlpha" result="shadowComposite" />
      <feColorMatrix type="matrix" values="0 0 0 0 0  0 0 0 0 0  0 0 0 0 0  0 0 0 0.3137254901960784 0  " in="shadowComposite" />
    </filter>
    <g id="widget6268">
      <path d="M 39.88636363636364 20  C 39.88636363636364 30.965886186079548  30.965886186079548 39.88636363636364  20 39.88636363636364  C 9.034113813920454 39.88636363636364  0.11363636363636365 30.965886186079548  0.11363636363636365 20  C 0.11363636363636365 9.034113813920454  9.034113813920454 0.11363636363636365  20 0.11363636363636365  C 30.965886186079548 0.11363636363636365  39.88636363636364 9.034113813920454  39.88636363636364 20  Z M 37.04545454545455 20  C 37.04545454545455 10.60083260830966  29.39916739169034 2.9545454545454546  20 2.9545454545454546  C 10.600832608309661 2.9545454545454546  2.9545454545454546 10.600832608309661  2.9545454545454546 20  C 2.9545454545454546 29.39916739169034  10.600832608309661 37.04545454545455  20 37.04545454545455  C 29.39916739169034 37.04545454545455  37.04545454545455 29.39916739169034  37.04545454545455 20  Z M 28.10069517933239 22.470189630681823  C 28.659103116122154 21.913385298295456  28.66047758345171 21.008539905894885  28.103673117897724 20.45028466796875  C 27.546868696732957 19.890654962713064  26.622170143821013 19.8892041459517  26.06391490589488 20.447459428267045  L 21 25.059651100852275  L 21 11.447416637073864  C 21.420416370738636 10.659093971946023  20.789697132457388 10.01982257634943  19.999923650568185 10.01982257634943  C 19.21160098544034 10.01982257634943  18.579430930397727 10.659017578125  19 11.447416637073864  L 19 25.133489479758524  L 13.90897789417614 20.397673783735794  C 13.35499871271307 19.838044078480117  12.457254660866477 19.832317205255684  11.8976249556108 20.38629638671875  C 11.336544433593755 20.94172638494318  11.335093661221594 21.846495427911933  11.889072842684662 22.40620143821023  L 18.962902121803985 29.55531995738636  C 19.24130433238637 29.836547452059662  19.610649236505687 29.980024591619316  19.978543368252843 29.980024591619316  C 20.34078697620739 29.980024591619316  20.705779430042618 29.839372691761366  20.982807217684663 29.566697310014206  C 20.984258034446025 29.563872070312502  20.984258034446025 29.563872070312502  20.985632457386366 29.561046786221592  C 20.98708327414773 29.561046786221592  20.988457697088066 29.561046786221592  20.989908513849432 29.55822154651989  L 28.10069517933239 22.470189630681823  Z " fill-rule="nonzero" fill="#272636" stroke="none" transform="matrix(1 0 0 1 5197 4137 )" />
    </g>
  </defs>
  <g transform="matrix(1 0 0 1 -5187 -4127 )">
    <use xlink:href="#widget6268" filter="url(#filter6267)" />
    <use xlink:href="#widget6268" />
  </g>
</svg>