<?xml version="1.0" encoding="utf-8"?>
<svg version="1.1" xmlns:xlink="http://www.w3.org/1999/xlink" width="14px" height="14px" xmlns="http://www.w3.org/2000/svg">
  <g transform="matrix(1 0 0 1 -8663 -1243 )">
    <path d="M 13.960227272727273 7  C 13.960227272727273 10.838060165127843  10.838060165127843 13.960227272727273  7 13.960227272727273  C 3.161939834872159 13.960227272727273  0.03977272727272727 10.838060165127843  0.03977272727272727 7  C 0.03977272727272727 3.161939834872159  3.161939834872159 0.03977272727272727  7 0.03977272727272727  C 10.838060165127843 0.03977272727272727  13.960227272727273 3.161939834872159  13.960227272727273 7  Z M 12.961445953924006 7  C 12.961445953924006 3.712776882102273  10.286715347567473 1.0385540460759943  7 1.0385540460759943  C 3.712776882102273 1.0385540460759943  1.0385540460759948 3.7127768665660508  1.0385540460759948 7  C 1.0385540460759948 10.286715347567473  3.7127768665660517 12.961445953924006  7 12.961445953924006  C 10.286715347567473 12.961445953924006  12.961445953924006 10.286742069868607  12.961445953924006 7  Z M 10.343453364701702 5.857489521928266  C 10.536784832208808 5.661645862926137  10.534807148881393 5.346954381214488  10.339925601473722 5.154050501598011  C 10.14504405406605 4.960665573952415  9.829844786487925 4.962643241743608  9.63694090687145 5.158032590553978  L 6.0126571466619305 8.822083733575994  L 4.408331906960225 7.173501251775567  C 4.216416876775566 6.976134235174006  3.9017253950639184 6.9726599320845155  3.705347212357953 7.163559406072443  C 3.508461259321731 7.354966665926845  3.5039981223366468 7.670165917968749  3.6954053666548283 7.866544100674716  L 5.6532273592862206 9.878538458806817  C 5.654216193181817 9.880035078568893  5.656220598810369 9.880035078568893  5.6572094482421855 9.881531698330967  C 5.658198282137783 9.882520532226563  5.6587060680042605 9.884524937855115  5.659694901899857 9.885513787286932  C 5.6910170587713065 9.916328158291904  5.729795607688209 9.935223015802556  5.766596473277698 9.956122263405542  C 5.78597237881747 9.966571894975143  5.801392933238635 9.9839701171875  5.821276624644884 9.991907557262076  C 5.881435484730112 10.016762171519888  5.945576418235084 10.029189470880683  6.0092095814098 10.029189470880683  C 6.072361681019173 10.029189470880683  6.1354870583274135 10.016762171519888  6.1951381325461625 9.99289639115767  C 6.214514038085936 9.984932228781961  6.229453528941759 9.969030610795453  6.247840600585935 9.959088765092329  C 6.285122514204543 9.938216239790481  6.323901063121446 9.91980244584517  6.355731005859372 9.88848028897372  C 6.35671983975497 9.887491455078125  6.357227625621447 9.885487049449573  6.358724245383519 9.884498200017754  C 6.359713079279117 9.883001580255682  6.361209699041191 9.88252051669034  6.362706334339485 9.881504960493608  L 10.343453364701702 5.857489521928266  Z " fill-rule="nonzero" fill="#555555" stroke="none" transform="matrix(1 0 0 1 8663 1243 )" />
  </g>
</svg>