<?xml version="1.0" encoding="utf-8"?>
<svg version="1.1" xmlns:xlink="http://www.w3.org/1999/xlink" width="17px" height="20px" xmlns="http://www.w3.org/2000/svg">
  <g transform="matrix(1 0 0 1 -7145 -1223 )">
    <path d="M 16.888888895833333 18.813559322033896  C 16.888200022957392 19.43731948397121  16.391141930084604 19.94280228080472  15.777777770833335 20  L 1.1111111041666661 20  C 0.4977469530513149 19.94280226913161  0.0006888728539138356 19.437319475710527  0 18.8135593220339  L 0 3.898305084745763  C 0.0006888728539144277 3.2745449310691344  0.4977469530513149 2.769062137648049  1.1111111041666668 2.7683615889830504  L 2.2222222291666665 2.7683615889830504  C 2.467682114145042 2.7683615889830504  2.6666666666666665 2.97071876103894  2.6666666666666665 3.220338983050847  C 2.6666666666666665 3.469959205062754  2.467682114145042 3.6723163771186433  2.2222222291666665 3.6723163771186433  L 1.1111111041666668 3.6723163771186433  C 0.9883811640604356 3.6723163888195915  0.8888888958333331 3.7734949761631547  1 3.898305084745762  L 1 18.813559322033903  C 0.8888888958333354 18.938369430616508  0.988381164060438 19.039548017960065  1.1111111041666668 19  L 15.777777770833337 19  C 15.900507719075486 19.03954802966101  15.999999999999998 18.938369438890323  16 18.8135593220339  L 16 3.898305084745763  C 16 3.773494967889336  15.900507719075488 3.672316377118646  15.777777770833335 3.6723163771186447  L 14.666666666666664 3.6723163771186447  C 14.421206781688289 3.6723163771186447  14.222222229166666 3.4699592050627546  14.222222229166666 3.220338983050848  C 14.222222229166666 2.970718761038941  14.421206781688289 2.768361588983051  14.666666666666664 2.768361588983051  L 15.777777770833332 2.768361588983051  C 16.391141930084608 2.7690621259749433  16.888200022957392 3.274544922808451  16.888888895833336 3.8983050847457634  L 16.888888895833333 18.813559322033896  Z M 5.203194437500002 16.195338983050853  C 5.119917053051953 16.280228763018123  5.006800559549893 16.327858726880788  4.888888895833334 16.327683622881356  C 4.7709772248993785 16.327858732521733  4.657860722876433 16.280228768228262  4.574583333333336 16.19533898305085  L 3.685694437500002 15.291384173728817  C 3.602335424044181 15.206612292828654  3.5555048181488935 15.091636950588578  3.5555048181488935 14.971751408898307  C 3.5555048181488935 14.722102686549528  3.754512089690369 14.519722410405652  4.000000000000003 14.519722410405652  C 4.117887454433519 14.519722410405652  4.230946545434579 14.567346759496855  4.314305562500002 14.6521186440678  L 4.888888895833335 15.236581927966107  L 6.352361104166668 13.748163834745766  C 6.435720122189961 13.663391952010214  6.548779212832024 13.615767604186306  6.66666666666667 13.615767604186306  C 6.912154581044263 13.615767604186306  7.111161855883474 13.818147883683809  7.111161855883474 14.067796610169497  C 7.111161855883474 14.187682156442019  7.064331247189964 14.30265750285767  6.980972229166669 14.387429385593224  L 5.203194437500002 16.195338983050853  Z M 12.888888895833336 15.423728813559325  L 8.444444437500001 15.423728813559325  C 8.198984546768662 15.423728813559318  7.999999989583335 15.221371636760688  7.999999989583335 14.971751408898307  C 7.999999989583335 14.722131181035927  8.198984546768662 14.519774004237291  8.444444437500001 14.519774004237291  L 12.888888895833336 14.519774004237291  C 13.134348786564672 14.519774004237291  13.33333334375 14.722131181035927  13.33333334375 14.971751408898307  C 13.33333334375 15.22137163676069  13.134348786564676 15.423728813559318  12.888888895833336 15.423728813559318  Z M 5.2031944375000005 12.579519766949153  C 5.119917053051953 12.664409546916426  5.006800559549893 12.712039510779094  4.888888895833334 12.711864406779661  C 4.7709772248993785 12.71203951642004  4.657860722876433 12.664409552126568  4.574583333333335 12.579519766949153  L 3.6856944375000005 11.67556497881356  C 3.6023354194767068 11.590793096078007  3.5555048107831966 11.475817749662351  3.5555048107831966 11.35593220338983  C 3.5555048107831966 11.106283476904142  3.7545120856224066 10.903903197406642  4 10.903903197406642  C 4.117887453834645 10.903903197406642  4.230946544476708 10.951527545230553  4.3143055625 11.036299427966103  L 4.888888895833334 11.620762711864408  L 6.3523611041666665 10.132344639830508  C 6.435720121232091 10.047572755259564  6.54877921223315 9.999948406168363  6.666666666666667 9.999948406168363  C 6.912154576976299 9.999948406168363  7.111161848517776 10.202328682312238  7.111161848517776 10.451977404661017  C 7.111161848517776 10.571862946351285  7.064331242622486 10.686838288591364  6.980972229166667 10.771610169491526  L 5.2031944375000005 12.579519766949153  Z M 12.888888895833333 11.807909597457629  L 8.444444437500001 11.807909597457629  C 8.198984579012578 11.807909597457629  8.000000026490955 11.605552425401736  8.000000026490955 11.35593220338983  C 8.000000026490955 11.106311981377923  8.198984579012578 10.903954809322034  8.444444463990955 10.903954809322034  L 12.888888895833336 10.903954809322036  C 13.13434875432076 10.903954809322034  13.333333306842382 11.106311981377923  13.333333306842382 11.35593220338983  C 13.333333306842382 11.605552425401736  13.13434875432076 11.807909597457629  12.88888886934238 11.807909597457629  Z M 5.2031944375000005 8.963700572033897  C 5.119917049628542 9.048590344230409  5.006800556550103 9.096220300289845  4.888888895833334 9.096045190677966  C 4.77097722789917 9.096220305930787  4.657860726299845 9.04859034944055  4.574583333333335 8.963700572033899  L 3.6856944375000005 8.059745762711865  C 3.6023354240441825 7.974973881811705  3.5555048181488913 7.859998539571624  3.5555048181488913 7.740112997881355  C 3.5555048181488913 7.4904642755325765  3.7545120896903676 7.288083999388703  4 7.288083999388703  C 4.117887454433515 7.288083999388703  4.230946545434579 7.335708348479901  4.3143055625 7.420480233050847  L 4.888888895833334 8.004943495762712  L 6.3523611041666665 6.516525423728813  C 6.435720121232088 6.431753539157869  6.54877921223315 6.384129190066668  6.666666666666667 6.384129190066668  C 6.912154576976301 6.384129190066668  7.111161848517776 6.586509466210541  7.111161848517776 6.836158188559321  C 7.111161848517776 6.956043730249588  7.064331242622486 7.071019072489672  6.980972229166667 7.15579095338983  L 5.2031944375000005 8.963700572033897  Z M 12.888888895833333 8.192090402542373  L 8.444444437500001 8.192090402542373  C 8.198984546768662 8.192090402542373  7.999999989583334 7.989733225743736  7.999999989583334 7.740112997881355  C 7.999999989583334 7.4904927700189745  8.198984546768662 7.288135593220337  8.444444437500001 7.288135593220337  L 12.888888895833336 7.288135593220337  C 13.134348786564676 7.288135593220337  13.33333334375 7.4904927700189745  13.33333334375 7.740112997881355  C 13.33333334375 7.989733225743736  13.134348786564676 8.192090402542373  12.888888895833336 8.192090402542373  Z M 13.333333333333332 4.124293792372881  C 13.333333333333332 4.3739140143847886  13.13434878081171 4.576271186440678  12.888888895833333 4.576271186440677  L 4 4.576271186440677  C 3.754540115021625 4.576271186440677  3.5555555625000004 4.373914014384788  3.5555555625000004 4.124293792372881  C 3.5555555625000004 3.5724576271186432  3.8320833333333333 3.048305084745762  4.355138895833333 2.608474576271185  C 4.762222229166667 2.266242944915253  5.314583333333334 1.979943495762711  5.963194437500001 1.7741525423728808  C 6.1426251525075735 1.314669491310393  6.44105669563123 0.9131728248383104  6.8268055625 0.6122881355932193  C 7.782066005083367 -0.12896901799729787  9.106822890749967 -0.12896901799729849  10.062083333333334 0.6122881355932193  C 10.44783219254245 0.91317282760216  10.746263728274688 1.3146694938156622  10.925694437500002 1.7741525423728803  C 11.574305541666668 1.979943495762711  12.126805541666668 2.266242944915253  12.533750000000003 2.608474576271185  C 13.056805562500001 3.0483050847457624  13.333333333333334 3.572457627118644  13.333333333333332 4.124293792372881  Z M 4.921666666666667 3.305084745762712  C 4.807916666666667 3.400706207627118  4.682916666666667 3.5255649788135597  4.5893055625 3.6723163771186433  L 12.29958333333333 3.6723163771186433  C 12.205972229166663 3.525564957627118  12.080972229166663 3.400706207627118  11.967222229166664 3.3050847457627115  C 11.609583333333331 3.0043785381355925  11.089305562499996 2.752824851694915  10.462499999999997 2.5779661016949147  C 10.31316306340575 2.5362854609658054  10.1959267994479 2.418560454564736  10.153055562499995 2.267231631355932  C 9.935277770833334 1.497175148305085  9.232638895833333 0.960451970338983  8.444444437500001 0.960451970338983  C 7.656249979166669 0.960451970338983  6.953611104166668 1.497175127118644  6.7361111041666675 2.267090402542373  C 6.693239860991062 2.418419217601408  6.57600359812065 2.5361442148838047  6.426666666666667 2.5778248516949147  C 5.799583333333333 2.752824851694915  5.2793055625 3.004378516949152  4.921666666666667 3.305084745762712  Z " fill-rule="nonzero" fill="#5c5c66" stroke="none" transform="matrix(1 0 0 1 7145 1223 )" />
  </g>
</svg>