<?xml version="1.0" encoding="utf-8"?>
<svg version="1.1" xmlns:xlink="http://www.w3.org/1999/xlink" width="14px" height="14px" xmlns="http://www.w3.org/2000/svg">
  <g transform="matrix(1 0 0 1 -8639 -1243 )">
    <path d="M 13.960227272727273 7  C 13.960227272727273 10.838060165127843  10.838060165127843 13.960227272727273  7 13.960227272727273  C 3.161939834872159 13.960227272727273  0.03977272727272727 10.838060165127843  0.03977272727272727 7  C 0.03977272727272727 3.161939834872159  3.161939834872159 0.03977272727272727  7 0.03977272727272727  C 10.838060165127843 0.03977272727272727  13.960227272727273 3.161939834872159  13.960227272727273 7  Z M 12.961445953924006 7  C 12.961445953924006 3.712776882102273  10.286715347567473 1.0385540460759943  7 1.0385540460759943  C 3.712776882102273 1.0385540460759943  1.0385540460759948 3.7127768665660508  1.0385540460759948 7  C 1.0385540460759948 10.286715347567473  3.7127768665660517 12.961445953924006  7 12.961445953924006  C 10.286715347567473 12.961445953924006  12.961445953924006 10.286742069868607  12.961445953924006 7  Z M 9.851652716619318 9.180043639026989  L 7.699991455078125 7.021380311168325  L 9.849701755593038 4.895028005149149  C 10.045091088867185 4.702124125532671  10.046587708629259 4.387432643821023  9.853683844549003 4.192043310546875  C 9.66077998046875 3.9966539772727274  9.345580712890623 3.995157357510654  9.15069914994673 4.188061221590909  L 6.997995609907669 6.316898981267756  L 4.878110846502129 4.19054667524858  C 4.6837103471235775 3.996146175870029  4.369526651278407 3.995157341974433  4.175126151899857 4.1895578413529835  C 3.9807256525213055 4.383450554865058  3.980244604492185 4.698142036576706  4.174137318004259 4.892542535955256  L 6.291028841885652 7.0159016024502865  L 4.156712373490766 9.127341139914774  C 3.961323040216618 9.32072606756037  3.9598264204545446 9.6349365012429  4.1527302845348 9.830325834517046  C 4.250171058238635 9.9287554576527  4.377945154918323 9.977983622602983  4.506200315163351 9.977983622602983  C 4.632477792080966 9.977983622602983  4.758755268998579 9.92977101384943  4.8557149791370735 9.834307923473013  L 6.99299796475497 7.720382932350852  L 9.14767918812145 9.882039484197444  C 9.244638913796166 9.979480257901278  9.371905224609375 10.028200652521306  9.499679321289062 10.028200652521306  C 9.626945632102272 10.028200652521306  9.753730894886365 9.979480257901278  9.85066388272372 9.883028333629262  C 10.045064382102272 9.689135620117188  10.045545430131392 9.374925201970882  9.851652716619318 9.180043639026989  Z " fill-rule="nonzero" fill="#555555" stroke="none" transform="matrix(1 0 0 1 8639 1243 )" />
  </g>
</svg>