<?xml version="1.0" encoding="utf-8"?>
<svg version="1.1" xmlns:xlink="http://www.w3.org/1999/xlink" width="14px" height="14px" xmlns="http://www.w3.org/2000/svg">
  <g transform="matrix(1 0 0 1 -10467 -1588 )">
    <path d="M 13.400000000000002 9.408533328125  C 13.151466671875003 9.408533328125  12.879466671875003 9.610133328124999  12.879466671875 9.858666671875  L 12.879466671875 12.7632  C 12.879466671875 12.909333328125  12.909333343750001 12.877333328125  12.762133328125001 12.877333328125  L 1.237866671875 12.877333328125  C 1.09173334375 12.877333328125  1.1343999999999999 12.909333328125  1.1343999999999999 12.7632  L 1.1343999999999999 1.2368000000000001  C 1.1343999999999999 1.0906666718750002  1.0917333281249997 1.1194666718750002  1.237866671875 1.1194666718750002  L 4.141333328125 1.1194666718750002  C 4.389866656250001 1.1194666718750002  4.591466656250001 0.8485333437500002  4.591466671875001 0.6000000000000001  C 4.591466671875001 0.35146667187500014  4.388800000000001 0.0666666718750002  4.141333328125 0.0666666718750002  L 1.2368000000000001 0.0666666718750002  C 0.5914666718749999 0.06666667187499997  0.06666667187499997 0.5914666718749999  0 1.2368000000000001  L 0 12.763200000000001  C 0.06666667187499997 13.408533328125  0.5914666718749999 13.933333328125  1.2368000000000001 14  L 12.763200000000001 14  C 13.408533328125001 13.933333328125  13.933333328125002 13.408533328125  13.933333328125002 12.763200000000001  L 13.933333328125002 9.858666671875  C 13.933333328125002 9.61013334375  13.648533328125001 9.40853334375  13.400000000000002 9.408533328125  Z M 12.7632 0.06666667187499997  L 12.762133328125 0.06666667187499997  L 7.798933328125002 0.06666667187499997  C 7.5504000000000016 0.06666667187499997  7.348800000000001 0.3514666718749999  7.348800000000001 0.6000000000000001  C 7.348800000000001 0.848533328125  7.550400000000001 1.133333328125  7.798933328125002 1.133333328125  L 12.268266671875 1.133333328125  L 7.374399999999999 5.869333328125  C 7.1983999999999995 6.0442666562500005  7.241066671875 6.376  7.4159999999999995 6.553066671875  C 7.5088938835205346 6.643982401638619  7.631791642309437 6.697844995922109  7.7616 6.704533328125001  C 7.876799999999999 6.704533328125001  8.019733328125 6.6832  8.107199999999999 6.595733328125001  L 12.881599999999999 1.8085333281250007  L 12.881599999999999 6.203200000000001  C 12.881599999999999 6.450666671875001  13.151466671875 6.652266671875001  13.399999999999999 6.652266671875001  C 13.648533328124998 6.652266671875001  13.933333328124998 6.450666671875001  13.933333328124998 6.202133328125001  L 13.933333328124998 1.2368000000000001  C 13.933333328125 0.5914666718749999  13.408533328125 0.06666667187499997  12.7632 0.06666667187499997  Z " fill-rule="nonzero" fill="#000000" stroke="none" transform="matrix(1 0 0 1 10467 1588 )" />
  </g>
</svg>