<?xml version="1.0" encoding="utf-8"?>
<svg version="1.1" xmlns:xlink="http://www.w3.org/1999/xlink" width="14px" height="14px" xmlns="http://www.w3.org/2000/svg">
  <g transform="matrix(1 0 0 1 -8186 -3514 )">
    <path d="M 5.68 0.11695237499999983  L 5.852571428571429 0.5672380892857147  C 6.0259491145291415 1.0243006481899815  6.463540074500823 1.3268401613542946  6.952380946428572 1.3276190535714285  C 7.41473348536653 1.3262189332930248  7.8336559231866785 1.0548799035880951  8.024 0.6335238035714283  L 8.052571428571428 0.5664761964285714  L 8.225904767857143 0.11695237499999983  L 8.692952375 0.2358095178571428  C 9.278476178571427 0.38476189285714263  9.838857142857142 0.608  10.364571428571429 0.8994285714285715  L 10.538666660714286 0.9992380892857144  L 10.955047625 1.2453333392857142  L 10.758095232142859 1.6872380892857142  C 10.55794541733743 2.1331091052529985  10.653722619101051 2.656246595459529  10.998857142857144 3.002285714285715  C 11.324521726808515 3.3283548532247473  11.810789616103172 3.4338320792114576  12.242285714285714 3.2719999999999994  L 12.313142857142857 3.2430476249999995  L 12.754285714285711 3.0468571428571423  L 13.000380946428571 3.4620952321428566  C 13.307541204439687 3.9794000428849867  13.54659825725552 4.534212147857477  13.711619053571427 5.112761910714285  L 13.764190482142856 5.307047625  L 13.883428571428569 5.774857142857142  L 13.432761910714282 5.947809517857143  C 13.000682052239446 6.1118686933734265  12.704300811298458 6.51324931701902  12.674666660714282 6.97447619642857  L 12.672380946428566 7.047619053571427  L 12.674666660714282 7.120761910714285  C 12.702327138597438 7.554400192401014  12.966476593916019 7.937592602859234  13.361904767857139 8.117714285714285  L 13.43276191071428 8.14742857142857  L 13.883428571428567 8.320380946428571  L 13.764190482142853 8.788190482142856  C 13.61577785714169 9.372141880306991  13.392060938757735 9.934315463960154  13.098666660714283 10.460571428571427  L 12.998476196428568 10.633904767857143  L 12.752380946428572 11.047619053571427  L 12.312380946428572 10.852571428571427  C 11.866235096261558 10.653131105182492  11.343342089248882 10.74898725155927  10.996952375000001 11.093714285714286  C 10.671369298469449 11.419980198611398  10.566244815805046 11.906292620173893  10.728000000000002 12.337904767857141  L 10.756952375000001 12.408761910714285  L 10.95314285714286 12.84990476785714  L 10.537904767857146 13.096  C 10.020594149054084 13.403148857135138  9.465783557917065 13.642205251668576  8.887238089285717 13.807238089285711  L 8.692952375 13.85980951785714  L 8.22514285714286 13.979047624999996  L 8.05219048214286 13.528380946428568  C 7.878812788046526 13.07131838845889  7.441221820385311 12.76877888199541  6.952380946428574 12.767999999999997  C 6.490028418136438 12.769400124088179  6.07110599013605 13.04073914497349  5.8807619107142886 13.462095232142854  L 5.852190482142859 13.529142857142855  L 5.6788571428571455 13.978666660714282  L 5.211809517857145 13.85980951785714  C 4.628306702144305 13.711272950767762  4.0663544851751965 13.48823336443849  3.5398095178571447 13.196190482142855  L 3.3660952321428588 13.09638094642857  L 2.949714285714287 12.850285714285713  L 3.1466666607142884 12.408380946428572  C 3.346816471755732 11.96250993888209  3.251039277681768 11.439372458979657  2.9059047678571455 11.093333339285712  C 2.5802401839057754 10.767264200346677  2.0939722946111172 10.661786974359968  1.662476196428573 10.823619053571425  L 1.5916190535714305 10.852571428571427  L 1.1504761964285717 11.047619053571427  L 0.9043809464285719 10.63238094642857  C 0.597239261941286 10.115201489689976  0.35818233910299874 9.560517719790463  0.1931428571428577 8.982095232142857  L 0.1405714285714291 8.787809517857143  L 0.021333339285714716 8.320000000000002  L 0.4720000000000003 8.147047625  C 0.9289325958875118 7.9737195468972155  1.2314441731681187 7.536320539449221  1.232380946428571 7.047619053571427  C 1.2311299392401887 6.5851283908222955  0.9597671033504663 6.166020253203063  0.5382857142857144 5.975619053571428  L 0.47123808928571415 5.9474285714285715  L 0.02171428571428561 5.774095232142857  L 0.14057142857142857 5.307047625  C 0.29028571428571426 4.719619053571428  0.5139047678571426 4.158857142857142  0.8060952321428573 3.634666660714286  L 0.9062857142857144 3.461333339285715  L 1.1523809464285715 3.0476190535714287  L 1.5923809464285723 3.242666660714286  C 2.0385899470421616 3.4421227158539542  2.561559578442804 3.3461010714471766  2.907809517857143 3.0011428571428582  C 3.233326459512282 2.6749975894752973  3.3384520982159303 2.1888287601097858  3.1767619107142853 1.7573333392857144  L 3.147809517857143 1.686476196428572  L 2.951619053571428 1.2453333392857147  L 3.3668571428571425 0.9992380892857148  C 3.884160012761636 0.6920740398882563  4.438972616369967 0.45301677563645015  5.017523803571428 0.28800000000000076  L 5.211809517857142 0.2354285714285724  L 5.679619053571428 0.11657142857142944  Z M 8.96571428571429 1.4533333392857135  L 8.830857142857143 1.4072380892857141  L 8.807238089285715 1.4426666607142857  C 8.403975205129765 2.023021276555554  7.752544756861414 2.3814348748518435  7.046476196428571 2.411428571428572  L 6.952380946428573 2.4133333392857153  C 6.211894018192065 2.4132805918798366  5.518446008422514 2.050330586766464  5.096380946428572 1.4419047678571435  L 5.073142857142858 1.4072380892857146  L 4.938666660714286 1.453714285714286  C 4.761904750000001 1.5169523750000005  4.588190464285715 1.588952375  4.418285714285715 1.6689523750000004  L 4.293333339285715 1.7302857142857146  L 4.304761910714285 1.789714285714286  C 4.4231847672269735 2.4787641151394038  4.215834001340596 3.1838129752680353  3.743238089285714 3.6990476250000004  L 3.6758095178571413 3.7695238035714294  C 3.156990165174788 4.287984764002034  2.418999646718751 4.522716018701959  1.696 4.399238089285715  L 1.635809517857143 4.387809517857144  L 1.5740952321428572 4.51352380357143  C 1.4940952321428576 4.683047607142858  1.4220952321428573 4.8563809464285725  1.3584761964285714 5.0335238035714305  L 1.312 5.169142857142859  L 1.3474285714285719 5.192761910714288  C 1.927783187269841 5.596024794870237  2.2861967855661294 6.24745524313859  2.316190482142857 6.95352380357143  L 2.318095232142857 7.047619053571429  C 2.318042484736979 7.78810598180794  1.955092479623607 8.481553991577487  1.3466666607142856 8.90361905357143  L 1.312 8.926476196428572  L 1.3584761964285714 9.061333339285715  C 1.4220952500000004 9.238095250000002  1.4937142857142856 9.411809535714287  1.573714285714286 9.581714285714288  L 1.6350476250000001 9.706666660714289  L 1.694476196428571 9.695238089285715  C 2.383790666948144 9.576803749637941  3.0890535003745376 9.784780302974578  3.603809517857143 10.258285714285716  L 3.674285714285714 10.325714285714287  C 4.1930305483380135 10.844799661939826  4.427412284688174 11.583457253066262  4.3028571428571425 12.306666660714288  L 4.291809517857143 12.36419048214286  L 4.417523803571428 12.426285714285717  C 4.587809517857142 12.506285714285719  4.7615238035714285 12.577904767857147  4.938666660714286 12.641523803571431  L 5.07352380357143 12.68761905357143  L 5.09752380357143 12.65257142857143  C 5.50078669147625 12.072216807856359  6.15221714747247 11.713803208943165  6.8582857142857145 11.683809517857144  L 6.952380946428573 11.681904767857146  C 7.6928678746650805 11.681957515263024  8.386315884434632 12.044907520376396  8.808380946428572 12.653333339285716  L 8.831238089285716 12.687238089285716  L 8.966095232142859 12.641523803571431  C 9.143238089285715 12.577904750000002  9.316571428571429 12.506285714285715  9.486476196428573 12.426285714285717  L 9.611428571428574 12.364571428571432  L 9.600000000000003 12.305523803571432  C 9.48173759667321 11.616417365589616  9.689223876674314 10.911386031443532  10.161904767857145 10.396190482142861  L 10.228952375000004 10.325714285714287  C 10.747805875625039 9.807309452488317  11.485766815501915 9.572587607908481  12.208761910714289 9.696000000000002  L 12.268571428571432 9.707047625000001  L 12.33066666071429 9.581714285714286  C 12.410666660714291 9.412190482142858  12.482666660714289 9.238857142857142  12.546285714285718 9.061714285714286  L 12.592000000000002 8.92647619642857  L 12.557714285714288 8.903619053571429  C 11.976722455759738 8.500360723863889  11.618067587803505 7.848325043871144  11.58857142857143 7.141714285714286  L 11.586666660714288 7.047619053571429  L 11.58857142857143 6.95352380357143  C 11.61821444363577 6.246860938762847  11.977004142561544 5.5948364371882295  12.55809523214286 5.19161905357143  L 12.592380946428573 5.168000000000001  L 12.546666660714289 5.033904767857144  C 12.48304760714286 4.857142857142858  12.41104760714286 4.683428571428572  12.331047625000002 4.513523803571429  L 12.269333339285716 4.388190482142857  L 12.209904767857147 4.3996190535714295  C 11.520774339212972 4.518030727116196  10.815688649335234 4.310205626439921  10.300952375000001 3.836952375  L 10.230476196428572 3.7695238035714285  C 9.711731362376273 3.25043842734589  9.477349626026115 2.5117808362194536  9.601904767857143 1.7885714285714278  L 9.61257142857143 1.7306666607142849  L 9.486857142857145 1.6689523749999995  C 9.31657142857143 1.5889523749999996  9.142857142857146 1.5169523749999994  8.96571428571429 1.4533333392857135  Z M 6.952380946428572 4.7786666607142845  C 8.205252843597039 4.779087284924347  9.220742129611631 5.79474710343601  9.220952375 7.047619053571427  C 9.220389511261041 8.267179362324477  8.25602354427578 9.268222195502542  7.0373333392857145 9.314285714285713  L 6.952380946428572 9.316190482142856  L 6.86742857142857 9.314666660714284  C 5.648590907794419 9.268597500541656  4.684167698285507 8.267327006123576  4.683809517857142 7.047619053571427  C 4.684230039194754 5.794895876656568  5.699657769513711 4.779468146337609  6.95238094642857 4.779047624999998  Z M 6.952380946428573 5.864380946428571  C 6.2991324781020435 5.864801417114439  5.769733915561495 6.394370483714972  5.769523803571429 7.047619053571427  C 5.769906681525562 7.674693609367282  6.259288579855159 8.192646446850766  6.885333339285715 8.228571428571428  L 6.952380946428573 8.23047619642857  L 7.019428571428572 8.228571428571428  C 7.619781125159909 8.194139569481797  8.098901480196085 7.7150192144456256  8.133333339285715 7.1146666607142866  L 8.135238089285718 7.047619053571427  C 8.134817815734094 6.394519254560515  7.605480745439485 5.865182184265909  6.952380946428573 5.864761910714285  Z " fill-rule="nonzero" fill="#e7772d" stroke="none" transform="matrix(1 0 0 1 8186 3514 )" />
  </g>
</svg>