<?xml version="1.0" encoding="utf-8"?>
<svg version="1.1" xmlns:xlink="http://www.w3.org/1999/xlink" width="14px" height="14px" xmlns="http://www.w3.org/2000/svg">
  <g transform="matrix(1 0 0 1 -10514 -1588 )">
    <path d="M 7.0006913634259265 0.08641974768518512  C 7.326320993055557 0.08641974768518512  7.626370370370372 0.26133333333333336  7.797827155092593 0.5447901180555554  L 7.844839511574074 0.6332839560185183  L 9.375506178240741 3.8722962962962972  C 9.423291227881515 3.9757765435368158  9.51155076781535 4.055035110360345  9.619555555555557 4.091456784722222  L 9.685234562500002 4.107358030092592  L 13.108839511574075 4.627259259259259  C 13.462814814814816 4.681185185185185  13.756641986111113 4.939753081018518  13.867259259259262 5.295111111111112  C 13.968197525462964 5.617975303240741  13.901135807870373 5.969185185185186  13.69580247453704 6.22637037037037  L 13.630123451388892 6.301037037037037  L 11.152987659722227 8.82311111111111  C 11.072151281758329 8.90581648039174  11.027400531649434 9.017196127049525  11.028543215277782 9.132839511574074  L 11.034074074074079 9.20197530324074  L 11.619654326388893 12.764543215277774  C 11.68176658885474 13.129190259207453  11.538313308905023 13.498449623816065  11.24632099305556 13.725530858796294  C 10.982913585648152 13.925333333333331  10.641382726851855 13.967506162037035  10.343407407407412 13.843753081018518  L 10.255604932870375 13.801580252314814  L 7.191506178240744 12.119506178240739  C 7.093579535206768 12.065235282107  6.977190867750641 12.055180103858673  6.871407407407411 12.09185185185185  L 6.809185185185189 12.119506178240739  L 3.747851851851856 13.796049377314816  C 3.4326169602315346 13.971272446341507  3.043462778361451 13.942758008575193  2.757135807870374 13.72345678472222  C 2.4928346970788526 13.519360164053012  2.3482705492205733 13.196491593565632  2.372049377314819 12.863407407407408  L 2.3838024745370414 12.763160488425926  L 2.9686913634259318 9.202666666666666  C 2.9862538650944743 9.08956856402115  2.959237764073938 8.974068542146936  2.893333333333338 8.880493821759261  L 2.8497777777777826 8.829333333333334  L 0.37125925925926395 6.302419747685187  C 0.11292251388817326 6.03614677831015  0.021349628636064953 5.649682663828287  0.1327407407407455 5.295802474537038  C 0.23298765972222696 4.972246918981483  0.48533333333333817 4.728888888888891  0.7978271550925973 4.6480000000000015  L 0.8925432152777826 4.628641969907409  L 4.314765437500005 4.108740740740743  C 4.426640662897674 4.091716818591496  4.5263567025868925 4.02883057317878  4.589925925925931 3.9352098819444454  L 4.6244938217592635 3.875061733796298  L 6.156543215277782 0.6325925925925943  C 6.315555555555555 0.2986666666666667  6.6425678958333325 0.08641974768518512  7 0.08641974768518512  Z M 7.0006913634259265 2.083061733796296  L 5.873777777777779 4.467555555555556  C 5.636641969907409 4.9680987708333335  5.182419747685186 5.333827155092592  4.647308636574074 5.452740740740741  L 4.52286419212963 5.475555555555556  L 1.8894814814814818 5.875851851851852  L 3.835654326388889 7.860049377314816  C 4.207604949074075 8.237530858796298  4.3921975416666665 8.757432087962965  4.3486419699074075 9.29254321527778  L 4.333432104166667 9.426666666666668  L 3.8861234513888894 12.143012340277778  L 6.142716043981482 10.908246918981483  C 6.635972059358702 10.636163595425732  7.229029350266479 10.614103502026122  7.741135807870372 10.848790118055557  L 7.857283956018519 10.907555555555557  L 10.116641969907409 12.147851851851852  L 9.669333333333334 9.425283956018518  C 9.58282274646844 8.898469640074467  9.73166398475063 8.360215254105121  10.07654321527778 7.9526913634259255  L 10.166419747685186 7.854518518518518  L 12.110518518518518 5.873777777777777  L 9.481283956018519 5.47486419212963  C 8.932885945991675 5.392389228812562  8.453649786890233 5.060472876038127  8.18360493287037 4.576098770833333  L 8.125530858796298 4.46271604398148  L 7 2.083061733796296  Z " fill-rule="nonzero" fill="#000000" stroke="none" transform="matrix(1 0 0 1 10514 1588 )" />
  </g>
</svg>