<?xml version="1.0" encoding="utf-8"?>
<svg version="1.1" xmlns:xlink="http://www.w3.org/1999/xlink" width="760px" height="432px" xmlns="http://www.w3.org/2000/svg">
  <g transform="matrix(1 0 0 1 -6034 -1267 )">
    <path d="M 6035 1277  A 9 9 0 0 1 6044 1268 L 6784 1268  A 9 9 0 0 1 6793 1277 L 6793 1689  A 9 9 0 0 1 6784 1698 L 6044 1698  A 9 9 0 0 1 6035 1689 L 6035 1277  Z " fill-rule="nonzero" fill="#f7f7f7" stroke="none" />
    <path d="M 6034.5 1277  A 9.5 9.5 0 0 1 6044 1267.5 L 6784 1267.5  A 9.5 9.5 0 0 1 6793.5 1277 L 6793.5 1689  A 9.5 9.5 0 0 1 6784 1698.5 L 6044 1698.5  A 9.5 9.5 0 0 1 6034.5 1689 L 6034.5 1277  Z " stroke-width="1" stroke-dasharray="9,4" stroke="#d7d7d7" fill="none" stroke-dashoffset="0.5" />
  </g>
</svg>