<?xml version="1.0" encoding="utf-8"?>
<svg version="1.1" xmlns:xlink="http://www.w3.org/1999/xlink" width="13px" height="412px" xmlns="http://www.w3.org/2000/svg">
  <defs>
    <mask fill="white" id="clip6034">
      <path d="M 12 412  L 12 189.96296296296293  L 0.29629629629607734 181.07407407407408  L 12 168.48148148148147  L 12 0  L 13 0  L 13 412  L 12 412  Z " fill-rule="evenodd" />
    </mask>
  </defs>
  <g transform="matrix(1 0 0 1 -2256 -93 )">
    <path d="M 12 412  L 12 189.96296296296293  L 0.29629629629607734 181.07407407407408  L 12 168.48148148148147  L 12 0  L 13 0  L 13 412  L 12 412  Z " fill-rule="nonzero" fill="#ffffff" stroke="none" transform="matrix(1 0 0 1 2256 93 )" />
    <path d="M 12 412  L 12 189.96296296296293  L 0.29629629629607734 181.07407407407408  L 12 168.48148148148147  L 12 0  L 13 0  L 13 412  L 12 412  Z " stroke-width="2" stroke="#d7d7d7" fill="none" transform="matrix(1 0 0 1 2256 93 )" mask="url(#clip6034)" />
  </g>
</svg>