<?xml version="1.0" encoding="utf-8"?>
<svg version="1.1" xmlns:xlink="http://www.w3.org/1999/xlink" width="68px" height="50px" xmlns="http://www.w3.org/2000/svg">
  <g transform="matrix(1 0 0 1 -760 -346 )">
    <path d="M 62.44115044247788 44.42771084337349  C 59.19911504424779 47.67319277108434  54.88893805309735 49.46536144578313  50.30044247787611 49.46536144578313  C 48.969026548672566 49.46536144578313  47.89336283185841 48.388554216867476  47.89336283185841 47.05572289156626  C 47.89336283185841 45.722891566265055  48.969026548672566 44.64608433734939  50.30044247787611 44.64608433734939  C 57.115486725663715 44.64608433734939  62.65929203539823 39.09638554216867  62.65929203539823 32.27409638554216  C 62.65929203539823 26.031626506024093  58.003097345132744 20.753012048192765  51.82743362831858 19.99246987951806  L 50.11991150442478 19.781626506024086  L 49.76637168141592 18.094879518072283  C 48.20176991150442 10.572289156626494  41.48451327433627 5.1129518072289075  33.789380530973446 5.1129518072289075  C 26.101769911504423 5.1129518072289075  19.38451327433628 10.572289156626494  17.81238938053097 18.094879518072283  L 17.45884955752212 19.781626506024086  L 15.751327433628317 19.99246987951806  C 9.575663716814159 20.753012048192765  4.919469026548671 26.031626506024086  4.919469026548671 32.27409638554216  C 4.919469026548671 39.09638554216867  10.463274336283183 44.64608433734939  17.278318584070796 44.64608433734939  C 18.609734513274336 44.64608433734939  19.685398230088495 45.72289156626505  19.685398230088495 47.055722891566255  C 19.685398230088495 48.38855421686746  18.609734513274336 49.465361445783124  17.278318584070796 49.465361445783124  C 12.689823008849556 49.465361445783124  8.379646017699113 47.67319277108433  5.130088495575221 44.42771084337348  C 1.8880530973451324 41.18222891566264  0.09778761061946774 36.85993975903614  0.09778761061946774 32.266566265060234  C 0.09778761061946774 24.164156626506013  5.754424778761062 17.228915662650596  13.502212389380528 15.489457831325293  C 14.690707964601765 11.438253012048182  17.090265486725663 7.793674698795172  20.369911504424774 5.090361445783124  C 24.13849557522124 1.9879518072289055  28.899999999999995 0.2786144578313159  33.78185840707964 0.2786144578313159  C 38.66371681415928 0.2786144578313159  43.43274336283185 1.9879518072289055  47.1938053097345 5.090361445783124  C 50.47345132743362 7.793674698795172  52.87300884955751 11.438253012048182  54.06150442477875 15.489457831325293  C 61.82433628318584 17.228915662650603  67.47345132743362 24.164156626506024  67.47345132743362 32.26656626506024  C 67.47345132743362 36.859939759036145  65.68318584070796 41.17469879518072  62.44115044247788 44.42771084337349  Z " fill-rule="nonzero" fill="#000000" stroke="none" transform="matrix(1 0 0 1 760 346 )" />
  </g>
</svg>