<?xml version="1.0" encoding="utf-8"?>
<svg version="1.1" xmlns:xlink="http://www.w3.org/1999/xlink" width="22px" height="14px" xmlns="http://www.w3.org/2000/svg">
  <g transform="matrix(1 0 0 1 -782 -376 )">
    <path d="M 4.038157894736847 13.109782608695648  C 3.589473684210532 13.581521739130435  2.996052631578954 13.824999999999994  2.402631578947368 13.825000000000003  C 1.8092105263157896 13.825000000000003  1.2157894736842114 13.58913043478261  0.7671052631578923 13.109782608695658  C -0.13750000000000248 12.158695652173918  -0.13750000000000248 10.614130434782618  0.7671052631578923 9.663043478260878  L 9.111184210526314 0.89021739130436  C 10.124342105263157 -0.1749999999999879  11.781578947368418 -0.1749999999999879  12.794736842105259 0.89021739130436  L 21.138815789473686 9.66304347826087  C 22.043421052631583 10.61413043478261  22.043421052631583 12.15869565217391  21.138815789473686 13.109782608695648  C 20.234210526315792 14.060869565217388  18.765131578947372 14.060869565217388  17.86052631578948 13.109782608695648  L 10.949342105263163 5.843478260869562  L 4.038157894736847 13.109782608695648  Z " fill-rule="nonzero" fill="#000000" stroke="none" transform="matrix(1 0 0 1 782 376 )" />
  </g>
</svg>