<?xml version="1.0" encoding="utf-8"?>
<svg version="1.1" xmlns:xlink="http://www.w3.org/1999/xlink" width="1300px" height="620px" xmlns="http://www.w3.org/2000/svg">
  <g transform="matrix(1 0 0 1 -144 -166 )">
    <path d="M 145 176  A 9 9 0 0 1 154 167 L 1434 167  A 9 9 0 0 1 1443 176 L 1443 776  A 9 9 0 0 1 1434 785 L 154 785  A 9 9 0 0 1 145 776 L 145 176  Z " fill-rule="nonzero" fill="#f2f2f2" stroke="none" />
    <path d="M 144.5 176  A 9.5 9.5 0 0 1 154 166.5 L 1434 166.5  A 9.5 9.5 0 0 1 1443.5 176 L 1443.5 776  A 9.5 9.5 0 0 1 1434 785.5 L 154 785.5  A 9.5 9.5 0 0 1 144.5 776 L 144.5 176  Z " stroke-width="1" stroke-dasharray="9,4" stroke="#d7d7d7" fill="none" stroke-dashoffset="0.5" />
  </g>
</svg>