<?xml version="1.0" encoding="utf-8"?>
<svg version="1.1" xmlns:xlink="http://www.w3.org/1999/xlink" width="14px" height="14px" xmlns="http://www.w3.org/2000/svg">
  <g transform="matrix(1 0 0 1 -83 -863 )">
    <path d="M 9.916666666666668 4.666666666666667  C 10.159722222222223 4.666666666666667  10.332899305555557 4.773003472222221  10.436197916666668 4.985677083333333  C 10.545572916666668 5.198350694444444  10.530381944444445 5.398871527777777  10.390625 5.587239583333333  L 7.473958333333333 9.670572916666666  C 7.3585069444444455 9.834635416666666  7.200520833333334 9.916666666666666  7 9.916666666666666  C 6.799479166666666 9.916666666666666  6.641493055555556 9.834635416666666  6.526041666666666 9.670572916666666  L 3.609375 5.587239583333333  C 3.469618055555556 5.398871527777777  3.454427083333333 5.198350694444444  3.5638020833333335 4.985677083333333  C 3.6671006944444446 4.773003472222221  3.840277777777778 4.666666666666667  4.083333333333334 4.666666666666667  L 9.916666666666668 4.666666666666667  Z M 11.580078125 11.580078125  C 11.637803819444445 11.522352430555557  11.666666666666668 11.453993055555557  11.666666666666668 11.375  L 11.666666666666668 2.625  C 11.666666666666668 2.5460069444444438  11.637803819444445 2.4776475694444438  11.580078125 2.419921875  C 11.522352430555557 2.3621961805555545  11.453993055555557 2.333333333333333  11.375 2.333333333333333  L 2.625 2.333333333333333  C 2.546006944444445 2.333333333333333  2.477647569444445 2.3621961805555545  2.419921875 2.419921875  C 2.362196180555556 2.4776475694444438  2.333333333333333 2.5460069444444438  2.333333333333333 2.625  L 2.333333333333333 11.375  C 2.333333333333333 11.453993055555557  2.362196180555556 11.522352430555557  2.419921875 11.580078125  C 2.477647569444445 11.637803819444443  2.546006944444445 11.666666666666668  2.625 11.666666666666668  L 11.375 11.666666666666668  C 11.453993055555557 11.666666666666668  11.522352430555557 11.637803819444443  11.580078125 11.580078125  Z M 13.229817708333332 0.7701822916666672  C 13.743272569444443 1.2836371527777766  14 1.9019097222222203  14 2.625  L 14 11.375  C 14 12.098090277777777  13.743272569444443 12.716362847222223  13.229817708333332 13.229817708333332  C 12.716362847222223 13.743272569444443  12.09809027777778 14  11.375 14  L 2.625 14  C 1.9019097222222223 14  1.283637152777778 13.743272569444443  0.7701822916666667 13.229817708333332  C 0.2567274305555555 12.716362847222223  0 12.098090277777777  0 11.375  L 0 2.625  C 0 1.9019097222222203  0.2567274305555555 1.2836371527777766  0.7701822916666667 0.7701822916666672  C 1.283637152777778 0.2567274305555547  1.9019097222222223 0  2.625 0  L 11.375 0  C 12.09809027777778 0  12.716362847222223 0.2567274305555547  13.229817708333332 0.7701822916666672  Z " fill-rule="nonzero" fill="#999999" stroke="none" transform="matrix(1 0 0 1 83 863 )" />
  </g>
</svg>