<?xml version="1.0" encoding="utf-8"?>
<svg version="1.1" xmlns:xlink="http://www.w3.org/1999/xlink" width="50px" height="50px" xmlns="http://www.w3.org/2000/svg">
  <g transform="matrix(1 0 0 1 -183 -232 )">
    <path d="M 208 232  C 222 232  233 243  233 257  C 233 271  222 282  208 282  C 194 282  183 271  183 257  C 183 243  194 232  208 232  Z " fill-rule="nonzero" fill="#ffffff" stroke="none" />
    <path d="M 208 232.5  C 221.72 232.5  232.5 243.28  232.5 257  C 232.5 270.72  221.72 281.5  208 281.5  C 194.28 281.5  183.5 270.72  183.5 257  C 183.5 243.28  194.28 232.5  208 232.5  Z " stroke-width="1" stroke="#797979" fill="none" />
  </g>
</svg>