<?xml version="1.0" encoding="utf-8"?>
<svg version="1.1" xmlns:xlink="http://www.w3.org/1999/xlink" width="50px" height="50px" xmlns="http://www.w3.org/2000/svg">
  <g transform="matrix(1 0 0 1 -183 -334 )">
    <path d="M 208 334  C 222 334  233 345  233 359  C 233 373  222 384  208 384  C 194 384  183 373  183 359  C 183 345  194 334  208 334  Z " fill-rule="nonzero" fill="#ffffff" stroke="none" />
    <path d="M 208 334.5  C 221.72 334.5  232.5 345.28  232.5 359  C 232.5 372.72  221.72 383.5  208 383.5  C 194.28 383.5  183.5 372.72  183.5 359  C 183.5 345.28  194.28 334.5  208 334.5  Z " stroke-width="1" stroke="#e7772d" fill="none" />
  </g>
</svg>