<?xml version="1.0" encoding="utf-8"?>
<svg version="1.1" xmlns:xlink="http://www.w3.org/1999/xlink" width="20px" height="21px" preserveAspectRatio="xMidYMin meet" viewBox="171 1347  18 21" xmlns="http://www.w3.org/2000/svg">
  <path d="M 180 1356  L 180 1415  A 5 5 0 0 0 185 1420 L 465 1420  A 5 5 0 0 1 470 1425 L 470 1496  " stroke-width="2" stroke="#aaaaaa" fill="none" />
  <path d="M 180 1354  A 3.5 3.5 0 0 0 176.5 1357.5 A 3.5 3.5 0 0 0 180 1361 A 3.5 3.5 0 0 0 183.5 1357.5 A 3.5 3.5 0 0 0 180 1354 Z M 462 1488.6  L 470 1498  L 478 1488.6  L 470 1492.2  L 462 1488.6  Z " fill-rule="nonzero" fill="#aaaaaa" stroke="none" />
</svg>