<?xml version="1.0" encoding="utf-8"?>
<svg version="1.1" xmlns:xlink="http://www.w3.org/1999/xlink" width="34px" height="34px" preserveAspectRatio="xMinYMid meet" viewBox="163 1236  34 32" xmlns="http://www.w3.org/2000/svg">
  <path d="M 470 1100  L 470 1193  A 5 5 0 0 1 465 1198 L 185 1198  A 5 5 0 0 0 180 1203 L 180 1252  " stroke-width="2" stroke="#aaaaaa" fill="none" />
  <path d="M 470 1098  A 3.5 3.5 0 0 0 466.5 1101.5 A 3.5 3.5 0 0 0 470 1105 A 3.5 3.5 0 0 0 473.5 1101.5 A 3.5 3.5 0 0 0 470 1098 Z M 172 1244.6  L 180 1254  L 188 1244.6  L 180 1248.2  L 172 1244.6  Z " fill-rule="nonzero" fill="#aaaaaa" stroke="none" />
</svg>