<?xml version="1.0" encoding="utf-8"?>
<svg version="1.1" xmlns:xlink="http://www.w3.org/1999/xlink" width="20px" height="20px" viewBox="5284 1071  20 20" xmlns="http://www.w3.org/2000/svg">
  <path d="M 5284.5 1074  A 2.5 2.5 0 0 1 5287 1071.5 L 5301 1071.5  A 2.5 2.5 0 0 1 5303.5 1074 L 5303.5 1088  A 2.5 2.5 0 0 1 5301 1090.5 L 5287 1090.5  A 2.5 2.5 0 0 1 5284.5 1088 L 5284.5 1074  Z " fill-rule="nonzero" fill="#ffffff" stroke="none" />
  <path d="M 5284.5 1074  A 2.5 2.5 0 0 1 5287 1071.5 L 5301 1071.5  A 2.5 2.5 0 0 1 5303.5 1074 L 5303.5 1088  A 2.5 2.5 0 0 1 5301 1090.5 L 5287 1090.5  A 2.5 2.5 0 0 1 5284.5 1088 L 5284.5 1074  Z " stroke-width="1" stroke="#999999" fill="none" />
</svg>