<?xml version="1.0" encoding="utf-8"?>
<svg version="1.1" xmlns:xlink="http://www.w3.org/1999/xlink" width="5px" height="10px" xmlns="http://www.w3.org/2000/svg">
  <g transform="matrix(1 0 0 1 -206 -720 )">
    <path d="M 4.094664496960215 5.003473880266075  C 4.094664496960215 4.97938600192949  4.085892736944939 4.956284768795563  4.070279024390244 4.939252505543237  L 0.17026471544715469 0.6846914412416851  C 0.040225040650406996 0.5428186252771618  0.040225040650406996 0.3128046119733924  0.17026471544715469 0.17093179600886932  C 0.30031479674796796 0.02907033259423515  0.5111609756097562 0.02907033259423515  0.6412110569105689 0.17093179600886932  L 4.835562926829268 4.746588381374723  C 4.965613008130081 4.888461197339246  4.965613008130081 5.118475210643016  4.835562926829268 5.260348026607539  L 0.6412214634146339 9.836004611973392  C 0.5111609756097562 9.977877427937914  0.30031479674796735 9.977877427937914  0.1702647154471541 9.836004611973392  C 0.0402250406504064 9.694131796008868  0.0402250406504064 9.464117782705099  0.1702647154471541 9.322244966740577  L 4.070279024390244 5.067695254988913  C 4.085892736944939 5.050662991736585  4.094664496960215 5.027561758602661  4.094664496960215 5.003473880266075  Z " fill-rule="nonzero" fill="#999999" stroke="none" transform="matrix(1 0 0 1 206 720 )" />
  </g>
</svg>