<?xml version="1.0" encoding="utf-8"?>
<svg version="1.1" xmlns:xlink="http://www.w3.org/1999/xlink" width="63px" height="10px" preserveAspectRatio="xMinYMid meet" viewBox="3000 936  63 8" xmlns="http://www.w3.org/2000/svg">
  <path d="M 3005 958  L 3005 945  A 5 5 0 0 1 3010 940 L 3057 940  " stroke-width="2" stroke="#999999" fill="none" />
  <path d="M 3059.5 936.5  A 3.5 3.5 0 0 0 3056 940 A 3.5 3.5 0 0 0 3059.5 943.5 A 3.5 3.5 0 0 0 3063 940 A 3.5 3.5 0 0 0 3059.5 936.5 Z M 3059.5 938.5  A 1.5 1.5 0 0 1 3061 940 A 1.5 1.5 0 0 1 3059.5 941.5 A 1.5 1.5 0 0 1 3058 940 A 1.5 1.5 0 0 1 3059.5 938.5 Z " fill-rule="nonzero" fill="#999999" stroke="none" />
</svg>