<?xml version="1.0" encoding="utf-8"?>
<svg version="1.1" xmlns:xlink="http://www.w3.org/1999/xlink" width="10px" height="5px" preserveAspectRatio="xMinYMid meet" viewBox="465 1094  10 3" xmlns="http://www.w3.org/2000/svg">
  <path d="M 470 1100  L 470 1193  A 5 5 0 0 0 475 1198 L 755 1198  A 5 5 0 0 1 760 1203 L 760 1252  " stroke-width="2" stroke="#aaaaaa" fill="none" />
  <path d="M 470 1098  A 3.5 3.5 0 0 0 466.5 1101.5 A 3.5 3.5 0 0 0 470 1105 A 3.5 3.5 0 0 0 473.5 1101.5 A 3.5 3.5 0 0 0 470 1098 Z M 752 1244.6  L 760 1254  L 768 1244.6  L 760 1248.2  L 752 1244.6  Z " fill-rule="nonzero" fill="#aaaaaa" stroke="none" />
</svg>