<?xml version="1.0" encoding="utf-8"?>
<svg version="1.1" xmlns:xlink="http://www.w3.org/1999/xlink" width="10px" height="22px" preserveAspectRatio="xMidYMin meet" viewBox="3000 993  8 22" xmlns="http://www.w3.org/2000/svg">
  <path d="M 3004 993  L 3004 1005  A 5 5 0 0 0 3009 1010 L 3056 1010  " stroke-width="2" stroke="#999999" fill="none" />
  <path d="M 3058.5 1006.5  A 3.5 3.5 0 0 0 3055 1010 A 3.5 3.5 0 0 0 3058.5 1013.5 A 3.5 3.5 0 0 0 3062 1010 A 3.5 3.5 0 0 0 3058.5 1006.5 Z M 3058.5 1008.5  A 1.5 1.5 0 0 1 3060 1010 A 1.5 1.5 0 0 1 3058.5 1011.5 A 1.5 1.5 0 0 1 3057 1010 A 1.5 1.5 0 0 1 3058.5 1008.5 Z " fill-rule="nonzero" fill="#999999" stroke="none" />
</svg>