<?xml version="1.0" encoding="utf-8"?>
<svg version="1.1" xmlns:xlink="http://www.w3.org/1999/xlink" width="20px" height="20px" viewBox="5177 1071  20 20" xmlns="http://www.w3.org/2000/svg">
  <path d="M 5177.5 1074  A 2.5 2.5 0 0 1 5180 1071.5 L 5194 1071.5  A 2.5 2.5 0 0 1 5196.5 1074 L 5196.5 1088  A 2.5 2.5 0 0 1 5194 1090.5 L 5180 1090.5  A 2.5 2.5 0 0 1 5177.5 1088 L 5177.5 1074  Z " fill-rule="nonzero" fill="#f0f0f0" stroke="none" />
  <path d="M 5177.5 1074  A 2.5 2.5 0 0 1 5180 1071.5 L 5194 1071.5  A 2.5 2.5 0 0 1 5196.5 1074 L 5196.5 1088  A 2.5 2.5 0 0 1 5194 1090.5 L 5180 1090.5  A 2.5 2.5 0 0 1 5177.5 1088 L 5177.5 1074  Z " stroke-width="1" stroke="#999999" fill="none" />
  <path d="M 5181.285714285715 1081  L 5185.571428571428 1085.2857142857144  L 5192.714285714285 1075.2857142857142  " stroke-width="4.285714285714286" stroke="#999999" fill="none" />
</svg>