<?xml version="1.0" encoding="utf-8"?>
<svg version="1.1" xmlns:xlink="http://www.w3.org/1999/xlink" width="20px" height="20px" xmlns="http://www.w3.org/2000/svg">
  <g transform="matrix(1 0 0 1 -2170 -275 )">
    <path d="M 19.955727924107144 10  C 19.955727924107144 15.490007120535713  15.490007098214285 19.955727924107144  10 19.955727924107144  C 4.5107224553571434 19.955727924107144  0.04427207589285688 15.490007120535713  0.04427207589285688 10  C 0.04427207589285688 4.5107224553571434  4.510684040178571 0.04427207589285688  10 0.04427207589285688  C 15.490007098214285 0.04427207589285688  19.955727924107144 4.509992879464286  19.955727924107144 10  Z M 18.527156495535714 10  C 18.527156495535714 5.2978286160714285  14.701441808035714 1.4728435044642854  10 1.4728435044642854  C 5.29786703125 1.4728435044642854  1.4728435044642854 5.2978286160714285  1.4728435044642854 10  C 1.4728435044642854 14.701441808035714  5.2978286160714285 18.527156495535714  10 18.527156495535714  C 14.701441808035714 18.527156495535714  18.527156495535714 14.702171383928572  18.527156495535714 10  Z M 10 4.285714285714286  C 9.408259263392857 4.285714285714286  8.928561830357143 4.76541171875  8.928561830357143 5.357152455357142  C 8.928561830357143 5.948893191964285  9.408259263392857 6.428590625  10 6.428590625  C 10.59174073660714 6.428590625  11.071438169642857 5.948893191964285  11.071438169642857 5.357152455357142  C 11.071438169642857 4.76541171875  10.591740736607143 4.285714285714286  10 4.285714285714286  Z M 10.714304910714285 14.999980803571429  C 10.714304910714285 15.3950121875  10.394301830357142 15.714285714285714  10 15.714285714285714  C 9.605698169642858 15.714285714285714  9.285695089285715 15.3950121875  9.285695089285715 14.999980803571429  L 9.285695089285715 8.571428571428571  C 9.285695089285715 8.17712674107143  9.605698169642858 7.857123660714286  10 7.857123660714286  C 10.394301830357142 7.857123660714286  10.714304910714285 8.17712674107143  10.714304910714285 8.571428571428571  L 10.714304910714285 14.999980803571429  Z " fill-rule="nonzero" fill="#59c7f9" stroke="none" transform="matrix(1 0 0 1 2170 275 )" />
  </g>
</svg>