<?xml version="1.0" encoding="utf-8"?>
<svg version="1.1" xmlns:xlink="http://www.w3.org/1999/xlink" width="20px" height="21px" preserveAspectRatio="xMidYMin meet" viewBox="441 193  18 21" xmlns="http://www.w3.org/2000/svg">
  <path d="M 450 202  L 450 255  A 5 5 0 0 1 445 260 L 315 260  A 5 5 0 0 0 310 265 L 310 312  " stroke-width="2" stroke="#aaaaaa" fill="none" />
  <path d="M 450 200  A 3.5 3.5 0 0 0 446.5 203.5 A 3.5 3.5 0 0 0 450 207 A 3.5 3.5 0 0 0 453.5 203.5 A 3.5 3.5 0 0 0 450 200 Z M 302 304.6  L 310 314  L 318 304.6  L 310 308.2  L 302 304.6  Z " fill-rule="nonzero" fill="#aaaaaa" stroke="none" />
</svg>