<?xml version="1.0" encoding="utf-8"?>
<svg version="1.1" xmlns:xlink="http://www.w3.org/1999/xlink" width="58px" height="24px" xmlns="http://www.w3.org/2000/svg">
  <defs>
    <mask fill="white" id="clip6532">
      <path d="M 0 20  L 0 0  L 58 0  L 58 20  L 33.6293706293709 20  L 29.958041958042035 23.041958041958083  L 26.461538461538566 20  L 0 20  Z " fill-rule="evenodd" />
    </mask>
  </defs>
  <g transform="matrix(1 0 0 1 -1108 -514 )">
    <path d="M 0 20  L 0 0  L 58 0  L 58 20  L 33.6293706293709 20  L 29.958041958042035 23.041958041958083  L 26.461538461538566 20  L 0 20  Z " fill-rule="nonzero" fill="#000000" stroke="none" transform="matrix(1 0 0 1 1108 514 )" />
    <path d="M 0 20  L 0 0  L 58 0  L 58 20  L 33.6293706293709 20  L 29.958041958042035 23.041958041958083  L 26.461538461538566 20  L 0 20  Z " stroke-width="2" stroke="#000000" fill="none" transform="matrix(1 0 0 1 1108 514 )" mask="url(#clip6532)" />
  </g>
</svg>