<?xml version="1.0" encoding="utf-8"?>
<svg version="1.1" xmlns:xlink="http://www.w3.org/1999/xlink" width="10px" height="84px" preserveAspectRatio="xMidYMin meet" viewBox="596 414  8 84" xmlns="http://www.w3.org/2000/svg">
  <path d="M 600 416  L 600 488  A 5 5 0 0 1 595 493 L 461 493  A 5 5 0 0 0 456 498 L 456 558  " stroke-width="2" stroke="#aaaaaa" fill="none" />
  <path d="M 600 414  A 3.5 3.5 0 0 0 596.5 417.5 A 3.5 3.5 0 0 0 600 421 A 3.5 3.5 0 0 0 603.5 417.5 A 3.5 3.5 0 0 0 600 414 Z M 448 550.6  L 456 560  L 464 550.6  L 456 554.2  L 448 550.6  Z " fill-rule="nonzero" fill="#aaaaaa" stroke="none" />
</svg>