<?xml version="1.0" encoding="utf-8"?>
<svg version="1.1" xmlns:xlink="http://www.w3.org/1999/xlink" width="14px" height="14px" xmlns="http://www.w3.org/2000/svg">
  <g transform="matrix(1 0 0 1 -360 -688 )">
    <path d="M 5.507840913085937 0.1818181884765625  L 12.242159086914064 0.18181818847656261  C 13.112050057578143 0.18275727461570268  13.817054536946115 0.8876092528497046  13.818181811523438 1.7574999999999998  L 13.81818181152344 10.537954550781249  C 13.817054536946115 11.407845297931546  13.112050057578143 12.112697276165546  12.242159086914063 12.113636362304687  L 10.068181811523438 12.113636362304687  L 10.068181811523436 12.2425  C 10.067242359010049 13.112335603936469  9.362335603936465 13.817242359010049  8.4925 13.818181811523438  L 1.7574999999999994 13.818181811523438  C 0.8876643960635342 13.817242359010049  0.18275764098995173 13.112335603936467  0.1818181884765625 12.2425  L 0.1818181884765625 3.462045449218749  C 0.18275764098995262 2.5922098452822837  0.8876643960635335 1.8873030902087025  1.7574999999999998 1.8863636376953123  L 3.931818188476562 1.8863636376953123  L 3.931818188476562 1.7574999999999998  C 3.932945463053888 0.8876092528497048  4.637949942421858 0.18275727461570201  5.507840913085937 0.1818181884765625  Z M 1.20454544921875 12.2425  C 1.20454544921875 12.547613637695312  1.4530681884765624 12.79545455078125  1.7578409130859378 12.79545455078125  L 8.492159086914063 12.79545455078125  C 8.797369553340854 12.794892354613134  9.044704241308462 12.547710061951907  9.04545455078125 12.2425  L 9.04545455078125 3.46204544921875  C 9.04545455078125 3.1572727246093755  8.797272739257812 2.9090908984375  8.4925 2.909090913085938  L 1.7578409130859378 2.909090913085938  C 1.4530681884765624 2.9090909130859375  1.20454544921875 3.157272724609375  1.20454544921875 3.46204544921875  L 1.20454544921875 12.2425  Z M 12.242159086914063 11.090909086914063  C 12.546931811523438 11.090909086914063  12.795454536132814 10.843068173828126  12.79545455078125 10.537954550781249  L 12.79545455078125 1.7574999999999998  C 12.79545455078125 1.452727275390625  12.546931811523436 1.20454544921875  12.242159086914063 1.20454544921875  L 5.507840913085937 1.20454544921875  C 5.203068188476562 1.20454544921875  4.95454544921875 1.452727275390625  4.95454544921875 1.7574999999999998  L 4.95454544921875 1.8863636376953123  L 8.4925 1.8863636376953121  C 9.362335603936465 1.8873030902087007  10.067242359010049 2.5922098452822824  10.068181811523438 3.46204544921875  L 10.068181811523438 11.090909086914063  L 12.242159086914063 11.090909086914063  Z M 3.0795454492187497 4.95454544921875  L 7.170454550781249 4.95454544921875  C 7.452872867946004 4.954545449218749  7.681818166924194 5.183490748196942  7.681818166924194 5.465909086914062  C 7.681818166924194 5.748327425631181  7.452872867946004 5.9772727246093735  7.170454529228882 5.9772727246093735  L 3.0795454492187497 5.9772727246093735  C 2.7971271320539954 5.9772727246093735  2.568181833075803 5.748327425631181  2.568181833075803 5.465909086914062  C 2.568181833075803 5.183490748196942  2.7971271320539954 4.954545449218749  3.0795454707711154 4.954545449218749  Z M 3.0795454492187497 7.340909086914063  L 7.170454550781249 7.340909086914063  C 7.452872867946004 7.3409090869140625  7.681818166924194 7.5698543858922545  7.681818166924194 7.852272724609374  C 7.681818166924194 8.134691063326494  7.452872867946004 8.363636362304685  7.170454529228882 8.363636362304685  L 3.0795454492187497 8.363636362304685  C 2.7971271320539954 8.363636362304685  2.568181833075803 8.134691063326494  2.568181833075803 7.852272724609374  C 2.568181833075803 7.5698543858922545  2.7971271320539954 7.3409090869140625  3.0795454707711154 7.3409090869140625  Z M 3.0795454492187493 9.727272724609374  L 5.806818188476562 9.727272724609374  C 6.089236527193681 9.727272724609374  6.318181826171874 9.956218023587567  6.318181826171874 10.238636362304687  C 6.318181826171874 10.521054701021807  6.089236527193681 10.75  5.806818188476562 10.75  L 3.0795454492187493 10.75  C 2.7971271105016293 10.75  2.5681818115234365 10.521054701021807  2.5681818115234365 10.238636362304687  C 2.5681818115234365 9.956218023587567  2.7971271105016293 9.727272724609374  3.0795454492187493 9.727272724609374  Z " fill-rule="nonzero" fill="#999999" stroke="none" transform="matrix(1 0 0 1 360 688 )" />
  </g>
</svg>