<?xml version="1.0" encoding="utf-8"?>
<svg version="1.1" xmlns:xlink="http://www.w3.org/1999/xlink" width="100px" height="100px" xmlns="http://www.w3.org/2000/svg">
  <g transform="matrix(1 0 0 1 -629 -135 )">
    <path d="M 630 140  A 4 4 0 0 1 634 136 L 724 136  A 4 4 0 0 1 728 140 L 728 230  A 4 4 0 0 1 724 234 L 634 234  A 4 4 0 0 1 630 230 L 630 140  Z " fill-rule="nonzero" fill="#f2f2f2" stroke="none" />
    <path d="M 629.5 140  A 4.5 4.5 0 0 1 634 135.5 L 724 135.5  A 4.5 4.5 0 0 1 728.5 140 L 728.5 230  A 4.5 4.5 0 0 1 724 234.5 L 634 234.5  A 4.5 4.5 0 0 1 629.5 230 L 629.5 140  Z " stroke-width="1" stroke-dasharray="9,4" stroke="#999999" fill="none" stroke-dashoffset="0.5" />
  </g>
</svg>