<?xml version="1.0" encoding="utf-8"?>
<svg version="1.1" xmlns:xlink="http://www.w3.org/1999/xlink" width="21px" height="20px" xmlns="http://www.w3.org/2000/svg">
  <g transform="matrix(1 0 0 1 -3300 -879 )">
    <path d="M 7.1346796875 9.761574074074074  C 7.1346796875 10.415509259259261  6.597117187500001 10.944282407407409  5.933906250000001 10.944282407407409  C 5.271796875 10.944282407407409  4.734234375000001 10.415532407407408  4.734234375000001 9.761550925925926  C 4.734234375000001 9.10761574074074  5.271796875 8.576712962962963  5.933906250000001 8.576712962962963  C 6.597117187500001 8.576712962962963  7.1346796875 9.10761574074074  7.1346796875 9.761550925925926  Z M 10.483546874999996 18.05134259259259  C 16.217531249999997 18.049212962962958  20.882953124999997 14.037013888888888  20.882953125 9.105486111111112  C 20.882953125 4.17175925925926  16.217554687499998 0.1574537037037042  10.4813203125 0.1574537037037042  C 4.745156249999999 0.1574537037037042  0.07973437499999969 4.17175925925926  0.07973437499999969 9.105486111111112  C 0.07973437499999969 12.03638888888889  1.7514140624999994 14.781620370370373  4.555031249999999 16.454212962962963  L 4.555031249999999 19.275046296296296  C 4.555031249999999 19.475833333333334  4.666476562499999 19.659236111111113  4.844578124999998 19.752037037037038  C 4.926515624999999 19.79738425925926  5.012859374999999 19.818935185185186  5.1057187499999985 19.818935185185186  C 5.212781249999998 19.818935185185186  5.317687499999998 19.78872685185185  5.409468749999998 19.72835648148148  L 6.7271484374999995 18.8693287037037  C 6.749709366723145 18.85545663276679  6.770924512039856 18.839555734896273  6.790523437499998 18.8218287037037  L 8.280843749999997 17.841967592592592  C 9.023812499999996 17.98009259259259  9.764578124999998 18.05134259259259  10.483546874999996 18.05134259259259  Z M 5.656359374999998 16.141296296296296  C 5.656359374999998 15.944930555555556  5.548218749999999 15.765740740740739  5.376679687499999 15.66863425925926  C 2.747859374999999 14.205370370370371  1.1799609374999993 11.751435185185187  1.1799609374999993 9.103310185185185  C 1.1799609374999993 4.769560185185185  5.352656250000001 1.2430092592592588  10.481296875 1.2430092592592588  C 15.610007812500001 1.2430092592592588  19.78265625 4.769560185185185  19.78265625 9.103310185185185  C 19.78265625 13.437060185185185  15.60890625 16.96358796296296  10.4813203125 16.96358796296296  C 9.764578125 16.96358796296296  9.0216328125 16.88587962962963  8.27428125 16.73263888888889  C 8.132249999999999 16.700300925925927  7.981453124999998 16.73050925925926  7.856906249999999 16.812546296296297  L 6.113109375 17.960694444444446  C 6.089062499999999 17.973657407407405  6.05409375 18.003865740740743  6.05409375 18.003865740740743  L 5.656359374999998 18.26287037037037  L 5.656359374999998 16.141296296296296  Z M 10.6802109375 8.246481481481482  C 11.344499999999998 8.246481481481482  11.882062499999998 8.775254629629629  11.882062499999998 9.429189814814814  C 11.882062499999998 10.083124999999999  11.344499999999998 10.61622685185185  10.680187499999999 10.61622685185185  C 10.018078124999999 10.61622685185185  9.480515625 10.083124999999999  9.480515625 9.429189814814814  C 9.480515625 8.775254629629629  10.018078124999999 8.246481481481482  10.6802109375 8.246481481481482  Z M 15.374015624999998 8.246481481481482  C 16.036125 8.246481481481482  16.5737109375 8.775254629629629  16.5737109375 9.429189814814814  C 16.5737109375 10.083124999999999  16.036125 10.61622685185185  15.374015624999998 10.61622685185185  C 14.71190625 10.61622685185185  14.174320312499999 10.083124999999999  14.174320312499999 9.429189814814814  C 14.174320312499999 8.775254629629629  14.711882812499999 8.246481481481482  15.374015624999998 8.246481481481482  Z " fill-rule="nonzero" fill="#999999" stroke="none" transform="matrix(1 0 0 1 3300 879 )" />
  </g>
</svg>