<?xml version="1.0" encoding="utf-8"?>
<svg version="1.1" xmlns:xlink="http://www.w3.org/1999/xlink" width="20px" height="20px" xmlns="http://www.w3.org/2000/svg">
  <g transform="matrix(1 0 0 1 -3233 -879 )">
    <path d="M 5.902962962962962 19.543144646226413  C 5.071604930555554 20.06943396226415  3.9844444444444442 19.797232688679244  3.4795061805555556 18.940377358490565  C 3.2401367718827774 18.53354420607021  3.165740508893457 18.047702521638072  3.272098773148148 17.585911957547168  L 4.348148148148148 12.910440259433964  C 4.374257637998443 12.799561519165191  4.33850414918215 12.683030294567972  4.255061736111109 12.607044033018866  L 0.7328395138888878 9.479999999999997  C 0.0012345833333321716 8.830943396226413  -0.08320986111111218 7.6958490566037705  0.542222222222221 6.939119504716979  C 0.8428097327599602 6.574464810597416  1.2739512249294418 6.3473091796161905  1.739753078703702 6.308176108490563  L 6.362222222222222 5.9245283018867925  C 6.462962962962963 5.9159748349056605  6.553086412037038 5.848301886792452  6.59432099537037 5.7454087971698105  L 8.375308634259259 1.307421391509433  C 8.74641974537037 0.38289308962264057  9.778518518518519 -0.05861634433962358  10.679012337962963 0.329559740566037  C 11.10847593663539 0.5155174078760311  11.4482730802211 0.8670618470194257  11.62419752314815 1.307421391509433  L 13.405185185185186 5.745157240566037  C 13.446419745370372 5.848301886792452  13.536543217592595 5.916226415094339  13.637283958333333 5.924528301886792  L 18.260246921296297 6.308427665094339  C 19.22962962962963 6.388930801886792  19.94740740740741 7.26264150943396  19.870617291666665 8.254591202830188  C 19.834545101624958 8.727962824164736  19.617811235682055 9.16807381093381  19.26691358796296 9.48050313679245  L 15.744691365740739 12.607547169811319  C 15.662716064814814 12.680251580188678  15.625679027777776 12.797987429245282  15.651604930555553 12.910691816037737  L 16.727654328703704 17.586163514150943  C 16.95037037037037 18.553459103773584  16.372098773148146 19.528050306603774  15.428148148148145 19.761257853773586  C 14.973570971712022 19.873664580031754  14.493725688334028 19.795157905928793  14.096543217592588 19.543396226415094  L 10.13876543981481 17.037735849056602  C 10.053768843245674 16.98337808618648  9.945737337309877 16.98337808618648  9.860740740740736 17.037735849056602  L 5.902716041666663 19.543396226415094  Z M 9.079259259259258 15.755471698113208  C 9.643046798988207 15.398022822770358  10.357200122308086 15.398022822770358  10.920987662037035 15.755471698113208  L 14.878765439814813 18.2611320754717  C 14.939506180555554 18.299371061320755  15.011111111111111 18.311194976415095  15.079012337962963 18.294339622641512  C 15.227407407407407 18.25761007075472  15.323456782407405 18.095597476415097  15.285679004629628 17.93056603773585  L 14.20962962962963 13.255094339622644  C 14.058079597982116 12.599622854593768  14.274276175294125 11.912470878977096  14.771604930555554 11.468930825471698  L 18.293827152777776 8.342138372641509  C 18.351358009259258 8.291069198113208  18.387654305555554 8.216855353773585  18.394074074074073 8.135849056603773  C 18.40716048611111 7.96754716981132  18.290123449074073 7.825157240566037  18.139999999999997 7.812830188679244  L 13.517037037037037 7.428679245283018  C 12.856471224735843 7.372186115671806  12.283172413707886 6.942122856642329  12.034074074074073 6.316226415094338  L 10.253086412037035 1.8784905660377342  C 10.22523925922464 1.8071950063229836  10.170821330607911 1.7500318075370989  10.101728402777777 1.7194968632075458  C 9.965185185185184 1.6606289386792437  9.807160509259257 1.7283018867924516  9.746913587962961 1.8784905660377342  L 7.965679004629629 6.316226415094338  C 7.716580664995819 6.942122856642329  7.1432818539678555 7.372186115671806  6.482716041666665 7.428679245283018  L 1.859999999999998 7.812830188679244  C 1.7879709991037287 7.819219332747645  1.7214543770096582 7.854736023430117  1.675308634259258 7.911446533018866  C 1.5706429760904324 8.04023659677542  1.5842564181539376 8.23020413014366  1.7061728472222213 8.342138372641507  L 5.228395069444444 11.469182382075472  C 5.725723833119916 11.912722440073718  5.941920411238789 12.599874427328201  5.790370370370369 13.25534591981132  L 4.714320995370367 17.93056603773585  C 4.695926827683527 18.009912872131213  4.70849786612222 18.093436983418535  4.749382708333331 18.16352200471698  C 4.830123449074072 18.300125778301886  4.99432097222222 18.341132075471698  5.121234560185184 18.260880495283022  L 9.079259259259258 15.755471698113208  Z " fill-rule="nonzero" fill="#999999" stroke="none" transform="matrix(1 0 0 1 3233 879 )" />
  </g>
</svg>