<?xml version="1.0" encoding="utf-8"?>
<svg version="1.1" xmlns:xlink="http://www.w3.org/1999/xlink" width="23px" height="20px" xmlns="http://www.w3.org/2000/svg">
  <g transform="matrix(1 0 0 1 -3163 -879 )">
    <path d="M 22.780091751453494 6.749074835526318  C 22.782703488372096 5.841899671052634  22.597270167151166 4.960423519736844  22.234238735465116 4.1303453947368425  C 21.884265988372093 3.331106085526317  21.3828125 2.6166735197368425  20.74816042877907 2.002467105263158  C 20.11350835755814 1.3908305921052633  19.376998546511626 0.912828947368421  18.554301417151162 0.5761718750000004  C 17.705486918604652 0.22923519736842152  16.807049418604652 0.05448190789473731  15.8798828125 0.05448190789473731  C 14.592296511627909 0.05448190789473731  13.336051053779071 0.4014185855263158  12.244345021802324 1.0567434210526316  C 11.983171329941861 1.2135074013157894  11.735056322674419 1.385690789473684  11.5 1.573293585526316  C 11.264943677325581 1.385690789473684  11.016828670058139 1.2135074013157894  10.755654978197674 1.0567434210526316  C 9.66394894622093 0.4014185855263158  8.407703488372093 0.054481907894736836  7.1201171875 0.054481907894736836  C 6.192950581395349 0.054481907894736836  5.294513081395348 0.22923519736842152  4.445698582848837 0.5761718750000004  C 3.6256131904069764 0.9102590460526321  2.8864916424418605 1.3908305921052633  2.25183957122093 2.002467105263158  C 1.6145757630813953 2.6166735197368425  1.115734011627907 3.331106085526316  0.7657612645348837 4.1303453947368425  C 0.40272983284883723 4.9604235197368425  0.21729651162790697 5.841899671052634  0.21729651162790697 6.749074835526315  C 0.21729651162790697 7.604851973684211  0.39489462209302323 8.496607730263158  0.7474791061046512 9.403782894736842  C 1.0426053779069766 10.161903782894735  1.4657067587209303 10.948293585526317  2.006336300872093 11.74239309210526  C 2.8629860101744184 12.999074835526315  4.040879360465116 14.309724506578947  5.50345203488372 15.638363486842106  C 7.927143895348838 17.840768914473685  10.327330123546512 19.362150493421055  10.429187863372093 19.423828125  L 11.048169513081396 19.814453125000004  C 11.322401889534884 19.986636513157897  11.674986373546513 19.986636513157897  11.949218750000002 19.814453125000004  L 12.568200399709305 19.423828125  C 12.670058139534886 19.359580592105264  15.067632630813957 17.840768914473685  17.49393622819768 15.638363486842108  C 18.95650890261628 14.309724506578947  20.13440225290698 12.999074835526319  20.99105196220931 11.742393092105265  C 21.53168150436047 10.948293585526319  21.957394622093027 10.16190378289474  22.24990915697675 9.403782894736844  C 22.602493640988374 8.49660773026316  22.780091751453494 7.604851973684212  22.780091751453494 6.749074835526318  Z M 20.79778343023256 6.749074835526315  C 20.79778343023256 11.91971628289474  11.5 17.781661184210527  11.5 17.781661184210527  C 11.5 17.781661184210527  2.202216569767442 11.91971628289474  2.202216569767442 6.749074835526315  C 2.202216569767442 4.1303453947368425  4.403910792151163 2.0076069078947367  7.1201171875 2.0076069078947367  C 9.029296875 2.0076069078947367  10.68513808139535 3.0561266447368425  11.5 4.587787828947367  C 12.314861918604652 3.0561266447368425  13.970703125 2.0076069078947367  15.8798828125 2.0076069078947367  C 18.596089207848838 2.0076069078947367  20.79778343023256 4.1303453947368425  20.79778343023256 6.749074835526315  Z " fill-rule="nonzero" fill="#999999" stroke="none" transform="matrix(1 0 0 1 3163 879 )" />
  </g>
</svg>