<?xml version="1.0" encoding="utf-8"?>
<svg version="1.1" xmlns:xlink="http://www.w3.org/1999/xlink" width="12px" height="21px" preserveAspectRatio="xMidYMin meet" viewBox="1862 265  10 21" xmlns="http://www.w3.org/2000/svg">
  <path d="M 1867.5 268  L 1867.5 275  A 5 5 0 0 0 1872.5 280.5 L 2222 280.5  A 5 5 0 0 1 2227.5 285.5 L 2227.5 292  " stroke-width="3" stroke="#e7772d" fill="none" />
  <path d="M 1867.5 265  A 4 4 0 0 0 1863.5 269 A 4 4 0 0 0 1867.5 273 A 4 4 0 0 0 1871.5 269 A 4 4 0 0 0 1867.5 265 Z M 2217.5 282.9  L 2227.5 295  L 2237.5 282.9  L 2227.5 287.8  L 2217.5 282.9  Z " fill-rule="nonzero" fill="#e7772d" stroke="none" />
</svg>