<?xml version="1.0" encoding="utf-8"?>
<svg version="1.1" xmlns:xlink="http://www.w3.org/1999/xlink" width="252px" height="12px" preserveAspectRatio="xMinYMid meet" viewBox="1861 335  252 10" xmlns="http://www.w3.org/2000/svg">
  <path d="M 1867.5 328  L 1867.5 335  A 5 5 0 0 0 1872.5 340.5 L 2102 340.5  A 5 5 0 0 1 2107.5 345.5 L 2107.5 352  " stroke-width="3" stroke="#e7772d" fill="none" />
  <path d="M 1867.5 325  A 4 4 0 0 0 1863.5 329 A 4 4 0 0 0 1867.5 333 A 4 4 0 0 0 1871.5 329 A 4 4 0 0 0 1867.5 325 Z M 2097.5 342.9  L 2107.5 355  L 2117.5 342.9  L 2107.5 347.8  L 2097.5 342.9  Z " fill-rule="nonzero" fill="#e7772d" stroke="none" />
</svg>