<?xml version="1.0" encoding="utf-8"?>
<svg version="1.1" xmlns:xlink="http://www.w3.org/1999/xlink" width="22px" height="22px" preserveAspectRatio="xMinYMid meet" viewBox="1856 379  22 20" xmlns="http://www.w3.org/2000/svg">
  <path d="M 1867.5 388  L 1867.5 395  A 5 5 0 0 0 1872.5 400.5 L 1982 400.5  A 5 5 0 0 1 1987.5 405.5 L 1987.5 412  " stroke-width="3" stroke="#e7772d" fill="none" />
  <path d="M 1867.5 385  A 4 4 0 0 0 1863.5 389 A 4 4 0 0 0 1867.5 393 A 4 4 0 0 0 1871.5 389 A 4 4 0 0 0 1867.5 385 Z M 1977.5 402.9  L 1987.5 415  L 1997.5 402.9  L 1987.5 407.8  L 1977.5 402.9  Z " fill-rule="nonzero" fill="#e7772d" stroke="none" />
</svg>