<?xml version="1.0" encoding="utf-8"?>
<svg version="1.1" xmlns:xlink="http://www.w3.org/1999/xlink" width="36px" height="36px" preserveAspectRatio="xMinYMid meet" viewBox="2569 335  36 34" xmlns="http://www.w3.org/2000/svg">
  <path d="M 2347.5 328  L 2347.5 335  A 5 5 0 0 0 2352.5 340.5 L 2582 340.5  A 5 5 0 0 1 2587.5 345.5 L 2587.5 352  " stroke-width="3" stroke="#e7772d" fill="none" />
  <path d="M 2347.5 325  A 4 4 0 0 0 2343.5 329 A 4 4 0 0 0 2347.5 333 A 4 4 0 0 0 2351.5 329 A 4 4 0 0 0 2347.5 325 Z M 2577.5 342.9  L 2587.5 355  L 2597.5 342.9  L 2587.5 347.8  L 2577.5 342.9  Z " fill-rule="nonzero" fill="#e7772d" stroke="none" />
</svg>