<?xml version="1.0" encoding="utf-8"?>
<svg version="1.1" xmlns:xlink="http://www.w3.org/1999/xlink" width="12px" height="21px" preserveAspectRatio="xMidYMin meet" viewBox="2462 385  10 21" xmlns="http://www.w3.org/2000/svg">
  <path d="M 2467.5 388  L 2467.5 395  A 5 5 0 0 1 2462.5 400.5 L 2352 400.5  A 5 5 0 0 0 2347.5 405.5 L 2347.5 412  " stroke-width="3" stroke="#e7772d" fill="none" />
  <path d="M 2467.5 385  A 4 4 0 0 0 2463.5 389 A 4 4 0 0 0 2467.5 393 A 4 4 0 0 0 2471.5 389 A 4 4 0 0 0 2467.5 385 Z M 2337.5 402.9  L 2347.5 415  L 2357.5 402.9  L 2347.5 407.8  L 2337.5 402.9  Z " fill-rule="nonzero" fill="#e7772d" stroke="none" />
</svg>