<?xml version="1.0" encoding="utf-8"?>
<svg version="1.1" xmlns:xlink="http://www.w3.org/1999/xlink" width="40px" height="40px" xmlns="http://www.w3.org/2000/svg">
  <g transform="matrix(1 0 0 1 -714 -572 )">
    <path d="M 9.9609375 2.682291666666665  C 13.02517361111111 0.8940972222222188  16.37152777777778 0  20 0  C 23.62847222222222 0  26.974826388888893 0.8940972222222188  30.0390625 2.682291666666665  C 33.103298611111114 4.470486111111107  35.52951388888889 6.896701388888888  37.317708333333336 9.9609375  C 39.10590277777777 13.025173611111107  40 16.37152777777777  40 20  C 40 23.62847222222222  39.10590277777777 26.974826388888886  37.317708333333336 30.0390625  C 35.52951388888889 33.103298611111114  33.103298611111114 35.529513888888886  30.0390625 37.317708333333336  C 26.974826388888893 39.10590277777778  23.62847222222222 40  20 40  C 16.37152777777778 40  13.02517361111111 39.10590277777778  9.9609375 37.317708333333336  C 6.896701388888889 35.529513888888886  4.470486111111112 33.103298611111114  2.682291666666667 30.0390625  C 0.8940972222222221 26.974826388888886  0 23.62847222222222  0 20  C 0 16.37152777777777  0.8940972222222221 13.025173611111107  2.682291666666667 9.9609375  C 4.470486111111112 6.896701388888888  6.896701388888889 4.470486111111107  9.9609375 2.682291666666665  Z M 15.833333333333332 29.765625  L 30 21.43229166666667  C 30.555555555555557 21.11979166666667  30.833333333333336 20.642361111111107  30.833333333333336 20  C 30.833333333333336 19.35763888888889  30.555555555555557 18.880208333333336  30 18.567708333333336  L 15.833333333333332 10.234375  C 15.295138888888891 9.90451388888889  14.739583333333332 9.895833333333336  14.166666666666668 10.208333333333336  C 13.611111111111114 10.538194444444443  13.333333333333332 11.024305555555554  14 11.666666666666664  L 14 28.33333333333333  C 13.333333333333332 28.975694444444436  13.611111111111114 29.461805555555554  14.166666666666668 29.79166666666667  C 14.444444444444446 29.930555555555554  14.722222222222223 30  15 30  C 15.295138888888891 30  15.572916666666668 29.921875  15.833333333333332 29.765625  Z " fill-rule="nonzero" fill="#000000" stroke="none" transform="matrix(1 0 0 1 714 572 )" />
  </g>
</svg>