<?xml version="1.0" encoding="utf-8"?>
<svg version="1.1" xmlns:xlink="http://www.w3.org/1999/xlink" width="23px" height="20px" xmlns="http://www.w3.org/2000/svg">
  <g transform="matrix(1 0 0 1 -2162 -2483 )">
    <path d="M 11.16305 0.07437837837837835  L 11.498850000000001 0.07207207207207214  L 11.82085 0.07553153153153153  C 18.010486363689658 0.24857855272911483  22.952249769098078 5.304822821437924  23 11.513657657657658  C 23 11.754666666666667  22.99195 11.994522522522523  22.97355 12.199783783783785  C 23.018696957169574 12.386032074504785  23.00380007174189 12.581837464528325  22.930999999999997 12.759063063063063  C 22.6611246545369 15.21086265907867  21.60270885596066 17.50795599981502  19.9157 19.30320720720721  L 19.629350000000002 19.59610810810811  C 19.363786222536675 19.902271561114166  18.930845815585084 20.0003003456254  18.559850000000004 19.838270270270275  C 18.409366646736807 19.794591071085478  18.272438931697046 19.713240936875394  18.16195 19.601873873873874  L 17.348900000000004 18.7865945945946  C 17.19450223494598 18.61497920143464  17.10904205963 18.39205657785989  17.10904205963 18.160925841227108  C 17.10904205963 17.645062031655424  17.526088815162616 17.226871787173053  18.04054205963 17.226871787173053  C 18.271040798154804 17.226871787173053  18.493353867680717 17.31256628337709  18.664500000000004 17.467387387387387  L 18.878400000000003 17.68072072072072  L 19.054350000000007 17.472  C 19.96011674316389 16.340465344100203  20.5961442525144 15.016409288409704  20.9139 13.600864864864866  L 20.9645 13.347171171171173  L 20.447 13.347171171171173  C 19.98022795691261 13.34744998486785  19.586070335102164 12.999640235390928  19.527 12.535351351351352  L 19.518950000000004 12.418882882882885  C 19.518950000000004 11.904576576576577  19.934100000000004 11.488288288288288  20.445850000000004 11.488288288288288  L 21.14505 11.488288288288288  L 21.138150000000003 11.13081081081081  C 21.062701832214024 9.126741316792042  20.364719234121868 7.196381953735163  19.141750000000002 5.609513513513516  L 18.985350000000004 5.415783783783786  L 18.663350000000005 5.738666666666669  C 18.459417118900806 5.942674851584149  18.17282873158078 6.040594941212348  17.8871 6.003891891891894  L 17.7652 5.98082882882883  C 17.35897778929065 5.870685106544532  17.076845596382178 5.501121518550819  17.076845596382178 5.079156741748699  C 17.076845596382178 4.831811550961435  17.174684414287565 4.594564877442254  17.3489 4.419459459459461  L 17.6778 4.087351351351353  L 17.482300000000002 3.9259099099099126  C 16.097018222096693 2.824004188042032  14.435095115455493 2.1272432005608684  12.679900000000004 1.9125045045045064  L 12.426900000000003 1.8859819819819836  L 12.426900000000003 3.447351351351353  C 12.426900000000003 3.9212972972972993  12.073850000000004 4.312216216216218  11.616150000000003 4.369873873873876  L 11.5 4.377945945945946  C 10.98808655198206 4.37794594594622  10.573099286600222 3.9618208384736375  10.573099286600222 3.448504504504779  C 10.573099286600222 3.4481201200094636  10.573099524400194 3.447735735550821  10.5731 3.4473513513513514  L 10.5731 1.8859819819819816  L 10.320100000000002 1.9125045045045044  C 8.56502176857079 2.1269076867348296  6.9031094824507555 2.8232650790367475  5.5177 3.9247567567567563  L 5.32105 4.087351351351351  L 5.6511 4.41945945945946  C 5.979557792503495 4.749181452277857  6.0153782160330485 5.2712318017138395  5.735049999999999 5.642954954954954  L 5.6511 5.738666666666666  C 5.28752653493325 6.102275862803283  4.699073465066749 6.102275862803283  4.3355 5.738666666666666  L 4.013499999999999 5.415783783783783  L 3.858249999999999 5.609513513513513  C 2.635624650870605 7.196485529829787  1.9380405040233006 9.126854889371431  1.863 11.130810810810809  L 1.85495 11.48944144144144  L 2.5553 11.48944144144144  C 3.0267999999999997 11.48944144144144  3.4178 11.844612612612611  3.4753000000000003 12.302414414414413  L 3.4822 12.420036036036034  C 3.4822 12.933352370004892  3.0672127346181624 13.349477477477476  2.5553 13.349477477477476  L 2.0355000000000003 13.348324324324324  L 2.0872500000000005 13.602018018018018  C 2.4050057474856055 15.017562441562859  3.041033256836115 16.34161849725335  3.9468000000000005 17.473153153153152  L 4.121600000000001 17.681873873873876  L 4.336650000000001 17.46854054054054  C 4.6659307683110764 17.138879869792877  5.187308813129084 17.103435286956223  5.557950000000001 17.385513513513512  L 5.652250000000001 17.46854054054054  C 6.014864952240931 17.833110877622754  6.01486495224093 18.423177410665538  5.65225 18.78774774774775  L 4.839200000000001 19.603027027027025  C 4.637736017634322 19.809467150981984  4.350576495313625 19.907873958893447  4.065250000000001 19.86825225225225  L 4.01925 19.870558558558557  C 3.7722759522479055 19.870604756722244  3.535496225931075 19.771814391040902  3.3614500000000005 19.596108108108112  C 1.5295364364033222 17.773428036499404  0.37358403143817187 15.377882363391532  0.08510000000000019 12.80634234234234  C 0.029499160508002525 12.68520551057608  0.0008530681361305692 12.553386974134305  0.0011500000000002025 12.420036036036034  C 0.0011500000000002025 12.339315315315316  0.011500000000000203 12.2609009009009  0.0276000000000002 12.221693693693691  C 0.01232409509684773 11.980556990629587  0.004680376844927356 11.738995058785074  0.004680376844927356 11.497372327571112  C 0.004680376844927356 5.279435148084107  4.963443321064639 0.2030735450628757  11.16305 0.07437837837837835  Z M 17.1488 8.660756756756758  L 17.1488 8.659603603603603  C 17.35695 8.994018018018018  17.332800000000002 9.425297297297297  17.112 9.662846846846845  C 17.111752689425526 9.699878254233083  17.099659690680163 9.735852517637493  17.0775 9.765477477477479  L 16.998150000000003 9.85772972972973  L 16.917650000000002 9.94190990990991  L 16.492150000000006 10.476972972972973  L 15.140900000000006 12.109837837837837  L 14.948850000000006 12.333549549549549  C 14.310697709908846 13.167003762279974  13.580385716409396 13.925237388709306  12.771900000000008 14.59372972972973  C 12.379938401258912 14.839709586003737  11.926870214880614 14.97015346616395  11.464474773408078 14.97015346616395  C 10.525084437621631 14.97015346616395  9.667393401018135 14.434644983552069  9.252900000000006 13.589333333333336  C 8.582674552955275 12.31210499612294  8.983937259723156 10.733527706949102  10.182100000000005 9.933837837837839  C 10.895100000000005 9.587891891891893  11.644900000000005 9.32727927927928  12.413100000000004 9.161225225225227  L 13.229600000000003 8.93981981981982  L 14.208250000000003 8.69765765765766  L 15.899900000000002 8.302126126126128  L 16.159800000000004 8.245621621621623  C 16.54393155402605 8.159377600026684  16.94048894190823 8.325833519953182  17.1488 8.660756756756758  Z M 13.747099999999998 10.91055855855856  L 13.9311 10.686846846846848  L 13.70915 10.742198198198196  L 12.89265 10.963603603603605  C 12.30155 11.103135135135137  11.7231 11.289945945945945  11.1849 11.506738738738738  C 10.801816872307322 11.790540526884252  10.686008255706433 12.314092317469873  10.913500000000003 12.733693693693693  C 11.006533145350888 12.964773339177833  11.230163100619965 13.11607215665239  11.47868140719569 13.11607215665239  C 11.584564206114374 13.11607215665239  11.688620576182132 13.088413154990095  11.7806 13.035819819819817  C 12.41885 12.447711711711712  13.011099999999999 11.811171171171171  13.553899999999999 11.12735135135135  L 13.747099999999998 10.91055855855856  Z " fill-rule="nonzero" fill="#ffffff" stroke="none" transform="matrix(1 0 0 1 2162 2483 )" />
  </g>
</svg>