<?xml version="1.0" encoding="utf-8"?>
<svg version="1.1" xmlns:xlink="http://www.w3.org/1999/xlink" width="13px" height="8px" xmlns="http://www.w3.org/2000/svg">
  <g transform="matrix(1 0 0 1 -2255 -2489 )">
    <path d="M 6.842752688172043 7.725714285714288  C 6.758316605262147 7.822243824081974  6.638408788024993 7.878547435324011  6.5117419354838715 7.881142857142858  C 6.385075082942747 7.878547435324011  6.265167265705595 7.822243824081974  6.1807311827957 7.725714285714288  L 0.14202150537634384 0.8685714285714283  C 0.05627187817546217 0.7826022235454592  0.007958892675776557 0.6649991612514076  0.007958892675776557 0.5422373461365747  C 0.007958892675776557 0.2897643176424976  0.20822721963318488 0.08509448899371819  0.45527072063276564 0.08509448899371819  C 0.5908655137588718 0.08509448899371819  0.7191411182087876 0.14795214239449248  0.804043010752688 0.2560000000000002  L 6.5117419354838715 6.738285714285715  L 12.219440860215053 0.2560000000000012  C 12.303068059606076 0.17215865765395424  12.415541487805651 0.12519122529198512  12.532690075471487 0.12519122529198512  C 12.779733576471068 0.12519122529198512  12.980001903428477 0.32986105394076454  12.980001903428477 0.5823340824348416  C 12.980001903428477 0.6864294266289913  12.945239368675656 0.787407530555961  12.881462365591398 0.8685714285714303  L 6.842752688172043 7.725714285714288  Z " fill-rule="nonzero" fill="#ffffff" stroke="none" transform="matrix(1 0 0 1 2255 2489 )" />
  </g>
</svg>