<?xml version="1.0" encoding="utf-8"?>
<svg version="1.1" xmlns:xlink="http://www.w3.org/1999/xlink" width="20px" height="20px" xmlns="http://www.w3.org/2000/svg">
  <g transform="matrix(1 0 0 1 -2290 -1345 )">
    <path d="M 11 1  L 11 11.85445  L 12.506700000000002 9.891200000000001  C 12.842950000000002 9.453050000000001  13.4707 9.370450000000002  13.908825000000002 9.7067  C 14.346950000000005 10.042950000000001  14.429549999999999 10.6707  14.093325 11.108825000000003  L 10.793325000000003 15.408825000000002  C 10.393025 15.930400000000002  9.606975 15.930400000000002  9.206700000000001 15.408825000000002  L 5.906700000000001 11.108825000000003  C 5.570450000000001 10.670675000000003  5.65305 10.042925000000002  6.091200000000001 9.706700000000003  C 6.529325 9.370450000000002  7.157075000000001 9.453050000000001  7.4933000000000005 9.891200000000001  L 9 11.854424999999999  L 9 1  C 9 0.4477249999999998  9.447725 0  10 0  C 10.552275 0  11 0.4477249999999998  11 1  Z M 18 17.2  L 18 10  C 18 9.447725  18.447725 9  19 9  C 19.552275 9  20 9.447725  20 10  L 20 17.2  C 20 18.7464  18.7464 20  17.2 20  L 2.8000000000000003 20  C 1.2536000000000003 20  0 18.7464  0 17.2  L 0 10  C 0 9.447725  0.4477249999999998 9  1 9  C 1.5522750000000003 9  2 9.447725  2 10  L 2 17.2  C 2 17.641825  2.3581749999999997 18  2.8000000000000003 18  L 17.2 18  C 17.641825 18  18 17.641825  18 17.2  Z " fill-rule="nonzero" fill="#e7772d" stroke="none" transform="matrix(1 0 0 1 2290 1345 )" />
  </g>
</svg>