<?xml version="1.0" encoding="utf-8"?>
<svg version="1.1" xmlns:xlink="http://www.w3.org/1999/xlink" width="20px" height="8px" xmlns="http://www.w3.org/2000/svg">
  <g transform="matrix(1 0 0 1 -2050 -1359 )">
    <path d="M 0.14843750000000266 0.0759999999999991  L 3.324218750000001 0.0759999999999991  C 5.144531250000002 0.0759999999999991  6.050781250000002 0.8679999999999972  6.050781250000002 2.455999999999999  C 6.050781250000002 4.055999999999999  5.12890625 4.855999999999999  3.2968750000000013 4.855999999999999  L 1.3164062500000018 4.855999999999999  L 1.3164062500000018 7.904000000000001  L 0.14843750000000266 7.904000000000001  L 0.14843750000000266 0.0759999999999991  Z M 1.3242187500000013 1.0959999999999992  L 1.3242187500000013 3.835999999999999  L 3.226562500000001 3.835999999999999  C 3.8007812500000004 3.835999999999999  4.222656250000001 3.724000000000001  4.4921875 3.5079999999999973  C 4.750000000000001 3.291999999999998  4.886718750000001 2.9399999999999955  4.886718750000001 2.455999999999999  C 4.886718750000001 1.9719999999999982  4.74609375 1.624000000000001  4.480468750000002 1.4240000000000008  C 4.210937500000003 1.2080000000000017  3.7968750000000018 1.0959999999999992  3.226562500000001 1.0959999999999992  L 1.3242187500000013 1.0959999999999992  Z M 7.128906249999996 0.0759999999999991  L 9.91796875 0.0759999999999991  C 11.1484375 0.0759999999999991  12.082031249999998 0.42799999999999727  12.722656249999996 1.135999999999999  C 13.324218749999996 1.7959999999999992  13.621093749999996 2.744000000000001  13.621093749999996 3.9879999999999973  C 13.621093749999996 5.215999999999999  13.308593749999996 6.171999999999998  12.699218749999996 6.847999999999997  C 12.054687499999996 7.547999999999997  11.128906249999995 7.899999999999995  9.894531249999996 7.899999999999995  L 7.128906249999996 7.899999999999995  L 7.128906249999996 0.0759999999999991  Z M 8.304687499999996 6.884000000000001  L 8.30078125 6.884000000000001  L 9.6796875 6.884000000000001  C 10.64453125 6.884000000000001  11.359374999999998 6.644000000000001  11.8125 6.172000000000002  C 12.253906249999996 5.700000000000005  12.4765625 4.9760000000000035  12.4765625 3.9880000000000018  C 12.4765625 2.98  12.253906249999996 2.256000000000004  11.824218749999996 1.7960000000000036  C 11.374999999999996 1.3240000000000054  10.667968749999996 1.0960000000000036  9.703124999999996 1.0960000000000036  L 8.304687499999996 1.0960000000000036  L 8.304687499999996 6.884000000000001  Z M 14.80859375 0.0759999999999991  L 20 0.0759999999999991  L 20 1.0959999999999992  L 15.9765625 1.0959999999999992  L 15.9765625 3.371999999999998  L 19.77734375 3.371999999999998  L 19.77734375 4.391999999999999  L 15.9765625 4.391999999999999  L 15.9765625 7.9  L 14.80859375 7.9  L 14.80859375 0.0759999999999991  Z " fill-rule="nonzero" fill="#ffffff" stroke="none" transform="matrix(1 0 0 1 2050 1359 )" />
  </g>
</svg>