<?xml version="1.0" encoding="utf-8"?>
<svg version="1.1" xmlns:xlink="http://www.w3.org/1999/xlink" width="13px" height="12px" xmlns="http://www.w3.org/2000/svg">
  <g transform="matrix(1 0 0 1 -1099 -410 )">
    <path d="M 0.3090454545454523 1.0758000000000005  L 6.158454545454546 7.0152  C 6.269057611621214 7.1283101043484685  6.419544457387248 7.1919228475943235  6.576522727272727 7.1919228475943235  C 6.733500997158207 7.1919228475943235  6.883987842924242 7.1283101043484685  6.994590909090908 7.0152  L 12.688590909090909 1.2336000000000005  C 12.799391125368876 1.1210951650100656  12.861638038716869 0.9685058634753139  12.861638038716869 0.8094000000000006  C 12.861638038716869 0.4780791908782241  12.597118978680538 0.20949060684133336  12.27081818181818 0.20949060684133336  C 12.114123013244011 0.20949060684133336  11.96384567082342 0.27269516501006597  11.853045454545454 0.3852000000000007  L 6.5768181818181795 5.742600000000001  L 1.1445909090909072 0.22740000000000082  C 1.033790692812941 0.11489516501006597  0.883513350392352 0.05169060684133395  0.72681818181818 0.05169060684133395  C 0.40051738495582323 0.05169060684133395  0.135998324919493 0.32027919087822365  0.135998324919493 0.6516000000000013  C 0.135998324919493 0.8107058634753139  0.1982452382674867 0.9632951650100657  0.3090454545454523 1.0758000000000005  Z M 12.271113636363637 5.009878437314573  C 12.114290653584836 5.009878437314573  11.963896844382347 5.0731636024712525  11.853045454545455 5.1858  L 6.576818181818183 10.543200000000002  L 1.1451818181818196 5.028000000000002  C 1.034381601903854 4.915495165010068  0.884104259483264 4.8522906068413345  0.7274090909090924 4.8522906068413345  C 0.4011082940467362 4.8522906068413345  0.13658923401040546 5.120879190878226  0.13658923401040546 5.452200000000001  C 0.13658923401040546 5.611305863475314  0.1988361473583991 5.763895165010068  0.3096363636363652 5.876400000000002  L 6.159045454545455 11.8158  C 6.269648520712127 11.928910104348468  6.420135366478158 11.992522847594323  6.577113636363636 11.992522847594323  C 6.734091906249116 11.992522847594323  6.88457875201515 11.928910104348468  6.99518181818182 11.8158  L 12.689181818181819 6.034200000000002  C 12.799930862699883 5.921667595826985  12.862142448099286 5.769088627196842  12.862142448099286 5.610000000000001  C 12.862142448099286 5.278562012884214  12.59752983579585 5.009878437314573  12.271113636363637 5.009878437314573  Z " fill-rule="nonzero" fill="#000000" stroke="none" transform="matrix(1 0 0 1 1099 410 )" />
  </g>
</svg>