<?xml version="1.0" encoding="utf-8"?>
<svg version="1.1" xmlns:xlink="http://www.w3.org/1999/xlink" width="12px" height="12px" xmlns="http://www.w3.org/2000/svg">
  <g transform="matrix(1 0 0 1 -1977 -518 )">
    <path d="M 11.997345132743362 1.3765486725663723  C 11.997345132743362 0.6730088495575227  11.42787610619469 0.1022123893805316  10.723008849557521 0.10221238938053101  L 1.3778761061946896 0.10221238938053101  C 0.67433628318584 0.10221238938053101  0.10353982300884895 0.6730088495575222  0.10353982300884895 1.3765486725663716  L 0.10353982300884895 10.721681415929204  C 0.10353982300884895 11.425221238938054  0.67433628318584 11.996017699115045  1.3778761061946896 11.996017699115045  L 10.723008849557521 11.996017699115045  C 11.426548672566371 11.996017699115045  11.997345132743362 11.425221238938054  11.997345132743362 10.721681415929204  L 11.997345132743362 1.3765486725663723  Z M 10.039380530973451 4.466814159292035  C 10.193362831858408 4.647345132743363  10.172123893805312 4.915486725663717  9.994247787610618 5.0681415929203535  L 5.581858407079646 8.838053097345131  C 5.426548672566372 8.970796460176992  5.232743362831858 9.041150442477875  5.030973451327434 9.041150442477875  C 5.008407079646018 9.041150442477875  4.985840707964602 9.039823008849556  4.9632743362831855 9.038495575221237  C 4.7376106194690255 9.021238938053095  4.531858407079646 8.916371681415926  4.384513274336283 8.743805309734512  L 2.0283185840707967 5.986725663716815  C 1.8756637168141594 5.808849557522125  1.8969026548672567 5.540707964601769  2.074778761061947 5.388053097345132  C 2.2526548672566373 5.235398230088496  2.520796460176991 5.256637168141593  2.6734513274336287 5.434513274336283  L 5.028318584070797 8.190265486725664  L 9.44070796460177 4.420353982300885  C 9.61858407079646 4.267699115044247  9.886725663716815 4.288938053097345  10.039380530973451 4.466814159292035  Z " fill-rule="nonzero" fill="#e7772d" stroke="none" transform="matrix(1 0 0 1 1977 518 )" />
  </g>
</svg>