<?xml version="1.0" encoding="utf-8"?>
<svg version="1.1" xmlns:xlink="http://www.w3.org/1999/xlink" width="10px" height="16px" xmlns="http://www.w3.org/2000/svg">
  <g transform="matrix(1 0 0 1 -1705 -804 )">
    <path d="M 10 2.12091747826087  L 10 13.8648408  C 9.942459118589744 14.15697819130435  9.888619695512821 14.428665971014494  9.780940849358974 14.679904139130434  C 9.673262003205128 14.931142307246375  9.525203589743588 15.153166730434782  9.336765608974357 15.345977408695651  C 9.148327628205129 15.538788086956522  8.927585988247863 15.690699530434783  8.674540689102562 15.801711739130432  C 8.421495389957263 15.912723947826086  8.149606298076922 15.968230052173912  7.858873413461536 15.968230052173912  L 2.124974759615382 15.968230052173912  C 1.8342418749999978 15.968230052173913  1.5623527831196562 15.912723947826088  1.309307483974357 15.801711739130432  C 1.0562621848290585 15.690699530434783  0.8355205448717935 15.538788086956522  0.6470825641025623 15.345977408695651  C 0.4586445833333313 15.153166730434783  0.3105861698717929 14.931142307246377  0.2029073237179469 14.679904139130434  C 0.09522847756410138 14.428665971014492  0.0413890544871784 14.156978191304345  0 13.8648408  L 0 2.12091747826087  C 0.041389054487177494 1.8287800869565223  0.09522847756410094 1.5541709333333338  0.2029073237179469 1.2970900173913047  C 0.3105861698717933 1.0400091014492756  0.4586445833333318 0.8150633043478264  0.6470825641025623 0.6222526260869569  C 0.8355205448717931 0.4294419478260873  1.0562621848290576 0.27753050434782645  1.309307483974357 0.16651829565217424  C 1.5623527831196562 0.055506098550724754  1.8342418749999987 0  2.124974759615383 0  L 7.858873413461538 0  C 8.149606298076923 0  8.421495389957265 0.055506098550724754  8.674540689102564 0.16651829565217424  C 8.927585988247863 0.2775304927536238  9.148327628205129 0.42944193623188465  9.33676560897436 0.6222526260869569  C 9.525203589743592 0.8150633159420291  9.67326200320513 1.0400091130434785  9.780940849358975 1.2970900173913047  C 9.888619695512823 1.5541709217391313  9.942459118589747 1.8287800753623196  10 2.12091747826087  Z M 8.634161121794872 13.005956869565216  L 8.634161121794872 2.9622732000000003  L 1.3335352403846157 2.9622732000000003  L 1.3335352403846157 13.005956869565216  L 8.634161121794872 13.005956869565216  Z M 5.58146578525641 13.759671339130435  C 5.419947516025641 13.584388892753624  5.220741645299145 13.496747675362322  4.983848173076923 13.496747686956521  C 4.757722596153846 13.496747686956525  4.561208696581197 13.584388904347827  4.394306474358975 13.759671339130435  C 4.227404252136752 13.934953773913044  4.143953146367521 14.151135449275362  4.143953157051282 14.408216365217392  C 4.143953157051282 14.653611773913044  4.227404262820513 14.866872075362318  4.394306474358975 15.047997269565219  C 4.561208685897436 15.229122463768118  4.757722585470086 15.319685055072465  4.983848173076923 15.31968504347826  C 5.2207416346153845 15.319685043478263  5.419947505341881 15.229122452173915  5.58146578525641 15.047997269565219  C 5.7429840651709405 14.866872086956525  5.8237431997863265 14.653611785507248  5.823743189102563 14.408216365217392  C 5.823743189102566 14.151135460869565  5.74298405448718 13.934953785507247  5.58146578525641 13.759671339130435  Z M 6.195235208333333 1.6914755130434784  C 6.2490746314102585 1.6388907826086958  6.275994342948719 1.565856434782609  6.275994342948717 1.4723724695652174  C 6.275994342948717 1.378888504347826  6.249074631410255 1.3058541565217394  6.195235208333333 1.2532694260869564  C 6.141395785256412 1.2006846956521737  6.082172419871795 1.1743923304347825  6.017565112179486 1.1743923304347825  L 3.966283060897435 1.1743923304347825  C 3.9124436378205116 1.1743923304347825  3.8559122435897426 1.200684695652174  3.7966888782051273 1.2532694260869564  C 3.737465512820513 1.305854156521739  3.707853830128205 1.378888504347826  3.7078538301282036 1.4723724695652174  C 3.7078538301282036 1.565856434782609  3.7347735416666654 1.6388907826086958  3.788612964743589 1.6914755130434784  C 3.8424523878205137 1.744060243478261  3.901675753205129 1.7703526086956525  3.966283060897435 1.7703526086956523  L 6.017565112179486 1.7703526086956523  C 6.082172419871795 1.7703526086956525  6.141395785256412 1.744060243478261  6.195235208333333 1.6914755130434784  Z " fill-rule="nonzero" fill="#ffffff" stroke="none" transform="matrix(1 0 0 1 1705 804 )" />
  </g>
</svg>