<?xml version="1.0" encoding="utf-8"?>
<svg version="1.1" xmlns:xlink="http://www.w3.org/1999/xlink" width="30px" height="30px" xmlns="http://www.w3.org/2000/svg">
  <g transform="matrix(1 0 0 1 -745 -797 )">
    <path d="M 0 15.000000000000004  C 0 23.284218750000004  6.715781250000004 30  15.000000000000004 30  C 23.284218750000004 30  30 23.284218750000004  30 15.000000000000004  C 30 6.715781250000004  23.284218750000004 0  15.000000000000004 0  C 6.715781250000004 0  0 6.715781250000004  0 15.000000000000004  Z M 14.859375000000005 6.5625000000000036  L 14.919375000000002 6.5625000000000036  C 16.088906250000004 6.5606250000000035  17.215781250000003 7.0185937500000035  18.070781250000003 7.844062500000004  C 18.933750000000003 8.708437500000004  19.411406250000002 9.904687500000005  19.390312500000004 11.146875000000003  L 19.390312500000004 11.385468750000005  C 19.321406250000003 11.704218750000004  19.048125000000006 11.930156250000003  18.732656250000005 11.930156250000003  C 18.417187500000004 11.930156250000003  18.143906250000004 11.703750000000003  18.075000000000003 11.385468750000005  L 18.075000000000003 11.143125000000005  C 18.075000000000003 9.324375000000005  16.699687500000007 7.953750000000005  14.875312500000003 7.953750000000005  C 13.002656250000003 7.953750000000005  11.535468750000003 9.344531250000005  11.535468750000003 11.132812500000005  L 11.535468750000003 12.375000000000004  L 19.121718750000007 12.375000000000004  C 20.727656250000006 12.379687500000005  22.027968750000007 13.725937500000004  22.031250000000007 15.387656250000003  L 22.031250000000007 20.426718750000003  C 22.027968750000007 22.088437500000005  20.727187500000007 23.43421875  19.121718750000007 23.437500000000004  L 10.879687500000003 23.437500000000004  C 9.273750000000003 23.434218750000003  7.972500000000005 22.088437500000005  7.968281250000004 20.426718750000003  L 7.968281250000004 15.387656250000003  C 7.971562500000005 13.994531250000001  8.902968750000005 12.787968750000003  10.215468750000005 12.476718750000002  L 10.215468750000005 11.132812500000004  C 10.209375000000003 9.872343750000002  10.726406250000004 8.670000000000005  11.634843750000005 7.830468750000004  C 12.512709119241904 7.018497524629546  13.663576940987188 6.565946651272809  14.859375000000005 6.5625000000000036  Z M 17.452500000000004 16.987968750000004  C 17.288906250000004 15.708750000000004  16.250625000000003 14.742656250000003  15.003750000000004 14.709843750000003  L 14.994375000000005 14.709843750000003  C 13.740468750000005 14.734687500000003  12.692812500000004 15.703593750000003  12.528750000000004 16.989843750000002  C 12.364687500000004 18.27609375  13.134843750000003 19.49296875  14.339531250000004 19.852500000000003  L 14.339531250000004 20.878125000000004  C 14.377031250000003 21.058593750000004  14.482968750000005 21.215625000000003  14.632968750000005 21.315000000000005  C 14.780952982778143 21.415338393083537  14.963866669346997 21.44995285696113  15.138281250000004 21.410625000000003  C 15.400781250000005 21.353437500000005  15.605625000000003 21.141562500000006  15.660468750000003 20.870156250000004  L 15.660468750000003 19.846875000000004  C 16.85578125 19.479375000000005  17.61609375 18.267187500000006  17.452500000000004 16.987968750000004  Z M 13.79203125000001 17.328750000000003  C 13.78875000000001 16.63734375  14.32781250000001 16.074375  14.996250000000005 16.071093750000003  C 15.664218750000003 16.067812500000002  16.208906250000005 16.625625000000003  16.211718750000006 17.317031250000003  L 16.209843750000008 17.325000000000003  C 16.211266613809247 17.654861975374736  16.084744130823932 17.972428366931503  15.856875000000008 18.210937500000004  C 15.633677943104772 18.444623483899047  15.325021987320165 18.57746061399275  15.001875000000009 18.578906250000003  C 14.334375000000009 18.578906250000003  13.792968750000009 18.019687500000003  13.79203125000001 17.328750000000003  Z " fill-rule="nonzero" fill="#e7772d" stroke="none" transform="matrix(1 0 0 1 745 797 )" />
  </g>
</svg>