<?xml version="1.0" encoding="utf-8"?>
<svg version="1.1" xmlns:xlink="http://www.w3.org/1999/xlink" width="16px" height="16px" xmlns="http://www.w3.org/2000/svg">
  <g transform="matrix(1 0 0 1 -595 -919 )">
    <path d="M 603 919  C 607.48 919  611 922.52  611 927  C 611 931.48  607.48 935  603 935  C 598.52 935  595 931.48  595 927  C 595 922.52  598.52 919  603 919  Z " fill-rule="nonzero" fill="#ffffff" stroke="none" />
    <path d="M 603 919.5  C 607.2 919.5  610.5 922.8  610.5 927  C 610.5 931.2  607.2 934.5  603 934.5  C 598.8 934.5  595.5 931.2  595.5 927  C 595.5 922.8  598.8 919.5  603 919.5  Z " stroke-width="1" stroke="#999999" fill="none" />
  </g>
</svg>