<?xml version="1.0" encoding="utf-8"?>
<svg version="1.1" xmlns:xlink="http://www.w3.org/1999/xlink" width="30px" height="30px" xmlns="http://www.w3.org/2000/svg">
  <g transform="matrix(1 0 0 1 -1695 -797 )">
    <path d="M 1710 797  C 1718.4 797  1725 803.6  1725 812  C 1725 820.4  1718.4 827  1710 827  C 1701.6 827  1695 820.4  1695 812  C 1695 803.6  1701.6 797  1710 797  Z " fill-rule="nonzero" fill="#e7772d" stroke="none" />
    <path d="M 1710 797.5  C 1718.12 797.5  1724.5 803.88  1724.5 812  C 1724.5 820.12  1718.12 826.5  1710 826.5  C 1701.88 826.5  1695.5 820.12  1695.5 812  C 1695.5 803.88  1701.88 797.5  1710 797.5  Z " stroke-width="1" stroke="#e7772d" fill="none" />
  </g>
</svg>