<?xml version="1.0" encoding="utf-8"?>
<svg version="1.1" xmlns:xlink="http://www.w3.org/1999/xlink" width="44px" height="44px" xmlns="http://www.w3.org/2000/svg">
  <g transform="matrix(1 0 0 1 -1220 -737 )">
    <path d="M 43.875 22  C 43.875 34.062474804687504  34.062474804687504 43.875  22 43.875  C 9.9375251953125 43.875  0.125 34.062474804687504  0.125 22  C 0.125 9.9375251953125  9.9375251953125 0.125  22 0.125  C 34.062474804687504 0.125  43.875 9.9375251953125  43.875 22  Z M 40.735972998046876 22  C 40.735972998046876 11.668727343750001  32.32967680664063 3.264027001953125  22 3.264027001953125  C 11.668727343750001 3.264027001953125  3.264027001953126 11.668727294921874  3.264027001953126 22  C 3.264027001953126 32.32967680664063  11.668727294921878 40.735972998046876  22 40.735972998046876  C 32.32967680664063 40.735972998046876  40.735972998046876 32.32976079101562  40.735972998046876 22  Z M 30.962337109375 28.851565722656254  L 24.199973144531253 22.067195263671877  L 30.95620551757812 15.384373730468752  C 31.570286279296866 14.778104394531251  31.57498994140624 13.7890740234375  30.968720654296867 13.17499326171875  C 30.362451367187496 12.5609125  29.37182509765624 12.556208837890626  28.75934018554687 13.162478125  L 21.993700488281245 19.853111083984377  L 15.331205517578121 13.170289550781252  C 14.720232519531244 12.559316552734376  13.732798046874992 12.556208789062504  13.121825048828121 13.167181787109378  C 12.510852050781246 13.776558886718753  12.509340185546868 14.765589257812504  13.118717285156244 15.376562255859376  L 19.77180493164062 22.049976464843756  L 13.063953173828121 28.685929296875003  C 12.449872412109372 29.293710498046877  12.445168749999997 30.281229003906255  13.05143803710937 30.895309765625  C 13.357680468749997 31.204660009765632  13.759256201171873 31.35937709960937  14.162343847656246 31.35937709960937  C 14.55921591796875 31.35937709960937  14.956087988281247 31.2078517578125  15.260818505859373 30.907824902343755  L 21.97799360351562 24.26406064453125  L 28.749848876953124 31.057838378906254  C 29.05457944335938 31.364080810546874  29.454559277343748 31.51720205078125  29.856135009765623 31.51720205078125  C 30.256114843749998 31.51720205078125  30.654582812500006 31.364080810546874  30.959229345703122 31.060946191406252  C 31.570202343749997 30.451569091796877  31.57171420898438 29.464050634765627  30.962337109375 28.851565722656254  Z " fill-rule="nonzero" fill="#ffffff" stroke="none" transform="matrix(1 0 0 1 1220 737 )" />
  </g>
</svg>