<?xml version="1.0" encoding="utf-8"?>
<svg version="1.1" xmlns:xlink="http://www.w3.org/1999/xlink" width="21px" height="20px" preserveAspectRatio="xMinYMid meet" viewBox="928 420  21 18" xmlns="http://www.w3.org/2000/svg">
  <path d="M 937 429  L 987 429  A 5 5 0 0 1 992 434 L 992 556  A 5 5 0 0 0 997 561 L 1048 561  " stroke-width="2" stroke="#0066ff" fill="none" />
  <path d="M 938.5 425.5  A 3.5 3.5 0 0 0 935 429 A 3.5 3.5 0 0 0 938.5 432.5 A 3.5 3.5 0 0 0 942 429 A 3.5 3.5 0 0 0 938.5 425.5 Z M 1040.6 569  L 1050 561  L 1040.6 553  L 1044.2 561  L 1040.6 569  Z " fill-rule="nonzero" fill="#0066ff" stroke="none" />
</svg>