<?xml version="1.0" encoding="utf-8"?>
<svg version="1.1" xmlns:xlink="http://www.w3.org/1999/xlink" width="20px" height="20px" xmlns="http://www.w3.org/2000/svg">
  <g transform="matrix(1 0 0 1 -10100 -564 )">
    <path d="M 19.94318181818182 10  C 19.94318181818182 4.517067649147728  15.482932350852272 0.05681818181818182  10 0.05681818181818182  C 4.517067649147728 0.05681818181818182  0.05681818181818121 4.517067649147728  0.05681818181818121 10  C 0.05681818181818121 15.482932350852272  4.517067649147728 19.94318181818182  10 19.94318181818182  C 15.482932350852272 19.94318181818182  19.94318181818182 15.482932350852272  19.94318181818182 10  Z M 18.522727272727273 10  C 18.522727272727273 14.699596058238635  14.699596058238637 18.522727272727273  10 18.522727272727273  C 5.300403941761365 18.522727272727273  1.477272727272727 14.699596058238635  1.477272727272727 10  C 1.477272727272727 5.300403941761363  5.300403941761365 1.4772727272727273  10 1.4772727272727273  C 14.699596058238637 1.4772727272727273  18.522727272727273 5.300403941761363  18.522727272727273 10  Z M 13.480823863636363 10.240767045454543  C 13.480091441761362 10.243585759943182  13.4765625 10.246448863636362  13.475142045454547 10.249311967329543  C 13.441051136363637 10.329567649147727  13.394153941761363 10.40627219460227  13.328835227272728 10.472323330965907  C 13.32810280539773 10.473055752840907  13.327414772727273 10.473055752840907  13.326704545454547 10.473743785511363  C 13.325972123579547 10.474476207386363  13.325972123579547 10.475164240056817  13.32528409090909 10.475874467329545  L 9.798295454545457 14.012784090909092  C 9.521306818181818 14.290505149147727  9.071732954545455 14.291903409090907  8.79403409090909 14.014204545454545  C 8.516313032670455 13.737215909090907  8.515625 13.287664240056818  8.792613636363635 13.009943181818178  L 11.81747159090909 9.976562499999996  L 8.767755681818182 6.9602050781249964  C 8.488636363636363 6.683948863636361  8.48648348721591 6.235063032670451  8.762073863636363 5.955943714488634  C 8.90054598721591 5.8153409090909065  9.083806818181818 5.745006214488634  9.267023259943182 5.745006214488634  C 9.447398792613635 5.745006214488634  9.627818714488637 5.8138760653409065  9.766335227272727 5.950261896306816  L 13.323131214488635 9.468017578124996  C 13.534068714488637 9.676180752840907  13.586647727272727 9.98302112926136  13.48080166903409 10.240811434659085  Z " fill-rule="nonzero" fill="#ffffff" stroke="none" transform="matrix(1 0 0 1 10100 564 )" />
  </g>
</svg>