<?xml version="1.0" encoding="utf-8"?>
<svg version="1.1" xmlns:xlink="http://www.w3.org/1999/xlink" width="20px" height="20px" xmlns="http://www.w3.org/2000/svg">
  <g transform="matrix(1 0 0 1 -8890 -3338 )">
    <path d="M 9.049479166666666 14.049479166666664  C 9.127604166666666 13.971354166666664  9.166666666666666 13.871527777777777  9.166666666666666 13.75  L 9.166666666666666 6.25  C 9.166666666666666 6.128472222222221  9.127604166666666 6.028645833333332  9.049479166666666 5.950520833333332  C 8.971354166666666 5.872395833333332  8.871527777777779 5.833333333333332  8.75 5.833333333333332  L 5.416666666666666 5.833333333333332  C 5.295138888888889 5.833333333333332  5.195312500000001 5.872395833333332  5.1171875 5.950520833333332  C 5.0390625 6.028645833333332  5 6.128472222222221  5 6.25  L 5 13.75  C 5 13.871527777777777  5.0390625 13.971354166666664  5.1171875 14.049479166666664  C 5.195312500000001 14.127604166666664  5.295138888888889 14.166666666666664  5.416666666666666 14.166666666666664  L 8.75 14.166666666666664  C 8.871527777777779 14.166666666666664  8.971354166666666 14.127604166666664  9.049479166666666 14.049479166666664  Z M 14.8828125 14.049479166666664  C 14.9609375 13.971354166666664  15 13.871527777777777  15 13.75  L 15 6.25  C 15 6.128472222222221  14.9609375 6.028645833333332  14.8828125 5.950520833333332  C 14.8046875 5.872395833333332  14.704861111111114 5.833333333333332  14.583333333333332 5.833333333333332  L 11.25 5.833333333333332  C 11.128472222222223 5.833333333333332  11.028645833333332 5.872395833333332  10.950520833333332 5.950520833333332  C 10.872395833333332 6.028645833333332  10.833333333333332 6.128472222222221  10.833333333333332 6.25  L 10.833333333333332 13.75  C 10.833333333333332 13.871527777777777  10.872395833333332 13.971354166666664  10.950520833333332 14.049479166666664  C 11.028645833333332 14.127604166666664  11.128472222222223 14.166666666666664  11.25 14.166666666666664  L 14.583333333333332 14.166666666666664  C 14.704861111111114 14.166666666666664  14.8046875 14.127604166666664  14.8828125 14.049479166666664  Z M 18.658854166666668 4.98046875  C 19.552951388888886 6.512586805555554  20 8.185763888888886  20 10  C 20 11.81423611111111  19.552951388888886 13.487413194444443  18.658854166666668 15.01953125  C 17.764756944444446 16.551649305555557  16.551649305555557 17.764756944444443  15.01953125 18.658854166666668  C 13.487413194444446 19.55295138888889  11.81423611111111 20  10 20  C 8.18576388888889 20  6.512586805555555 19.55295138888889  4.98046875 18.658854166666668  C 3.4483506944444446 17.764756944444443  2.235243055555556 16.551649305555557  1.3411458333333335 15.01953125  C 0.44704861111111105 13.487413194444443  0 11.81423611111111  0 10  C 0 8.185763888888886  0.44704861111111105 6.512586805555554  1.3411458333333335 4.98046875  C 2.235243055555556 3.448350694444444  3.4483506944444446 2.2352430555555536  4.98046875 1.3411458333333326  C 6.512586805555555 0.4470486111111094  8.18576388888889 0  10 0  C 11.81423611111111 0  13.487413194444446 0.4470486111111094  15.01953125 1.3411458333333326  C 16.551649305555557 2.2352430555555536  17.764756944444446 3.448350694444444  18.658854166666668 4.98046875  Z " fill-rule="nonzero" fill="#000000" stroke="none" transform="matrix(1 0 0 1 8890 3338 )" />
  </g>
</svg>