<?xml version="1.0" encoding="utf-8"?>
<svg version="1.1" xmlns:xlink="http://www.w3.org/1999/xlink" width="8px" height="6px" xmlns="http://www.w3.org/2000/svg">
  <g transform="matrix(1 0 0 1 -8642 -1900 )">
    <path d="M 0 0.2727272727272727  C 0 0.42327272727272713  0.13784615384615384 0.5454545454545454  0.3076923076923077 0.5454545454545454  L 7.6923076923076925 0.5454545454545454  C 7.862153846153846 0.5454545454545454  8 0.42327272727272713  8 0.2727272727272727  C 8 0.1221818181818183  7.862153846153846 0  7.6923076923076925 0  L 0.3076923076923077 0  C 0.13784615384615384 0  0 0.1221818181818183  0 0.2727272727272727  Z M 8 3  C 8 2.8494545454545457  7.862153846153846 2.727272727272727  7.6923076923076925 2.727272727272727  L 0.3076923076923077 2.727272727272727  C 0.13784615384615384 2.727272727272727  0 2.8494545454545457  0 3  C 0 3.1505454545454543  0.13784615384615384 3.2727272727272725  0.3076923076923077 3.2727272727272725  L 7.6923076923076925 3.2727272727272725  C 7.862153846153846 3.2727272727272725  8 3.1505454545454543  8 3  Z M 8 5.7272727272727275  C 8 5.576727272727273  7.862153846153846 5.454545454545454  7.6923076923076925 5.454545454545454  L 0.3076923076923077 5.454545454545454  C 0.13784615384615384 5.454545454545454  0 5.576727272727273  0 5.7272727272727275  C 0 5.877818181818181  0.13784615384615384 6  0.3076923076923077 6  L 7.6923076923076925 6  C 7.862153846153846 6  8 5.877818181818181  8 5.7272727272727275  Z " fill-rule="nonzero" fill="#ffffff" stroke="none" transform="matrix(1 0 0 1 8642 1900 )" />
  </g>
</svg>