<?xml version="1.0" encoding="utf-8"?>
<svg version="1.1" xmlns:xlink="http://www.w3.org/1999/xlink" width="14px" height="12px" xmlns="http://www.w3.org/2000/svg">
  <g transform="matrix(1 0 0 1 -8617 -2174 )">
    <path d="M 13.957575752272728 7.525  C 13.956641049225013 6.867241304594636  13.413960373945935 6.334251348671321  12.744242429545455 6.333333328125001  L 12.116363636363637 6.333333328125001  C 12.049503025 6.333333328125001  11.985018181818182 6.342333328125001  11.921212115909091 6.352666671875001  L 11.921212115909091 4.766666671875  C 11.921212115909091 2.1383333281250003  9.713454545454544 0  7 0  C 4.286545454545455 0  2.078787884090909 2.1383333281250003  2.078787884090909 4.766666671875  L 2.0787878840909095 6.352666671874999  C 2.0142718169394107 6.34098522050482  1.9488891141315534 6.334519107709259  1.8832969750000002 6.333333328125001  L 1.256096975 6.333333328125001  C 0.5862464887485753 6.334067756010684  0.04335937045001401 6.867111360706666  0.04242424772727279 7.525  L 0.04242424772727279 10.808333328125  C 0.04335937045001401 11.466221967418335  0.5862464887485753 11.999265572114314  1.256096975 12  L 1.8836363636363638 12  C 2.553486849887788 11.999265572114314  3.0963739681863496 11.466221967418335  3.0973090909090906 10.808333328125  L 3.0973090909090906 4.766666671875  C 3.0969697022727276 2.689666671875  4.847903024999999 1  7 1  C 9.152096975000001 1  10.903030297727273 2.689666671875  10.903030297727273 4.766666671875  L 10.903030297727273 10.808333328125002  C 10.903778461219893 11.466168051936537  11.446568281210071 11.99926519656975  12.116363636363637 12  L 12.744242429545457 11.999999999999998  C 13.414037778486138 11.999265187960722  13.956827588796834 11.466168045844235  13.957575752272728 10.808333328125  L 13.957575752272728 7.525  Z M 2.0787878840909095 7.524999999999999  L 2.078787884090909 9.166666671875  L 2.0787878840909086 10.808333328124998  C 2.078600674781722 10.914241804038152  1.9911312220716624 11.000000159603774  1.883296975 10.999999999999998  L 1.256096975 10.999999999999996  C 1.148262727928337 11.000000159603774  1.0607932752182774 10.914241804038152  1.0606060659090908 10.808333328124998  L 1.0606060659090908 7.524999999999999  C 1.0606060659090908 7.419333328124999  1.1481697022727269 7.333333328124999  1.256096975 7.333333328124999  L 1.8836363636363638 7.333333328124999  C 1.9912242477272726 7.333333328124999  2.0787878840909095 7.419333328124999  2.0787878840909095 7.524999999999999  Z M 12.939393934090909 7.524999999999999  L 12.939393934090909 10.808333328124998  C 12.939207116609644 10.914111808230603  12.851944154728656 10.999816509921942  12.744242429545453 10.999999999999998  L 12.116363636363635 10.999999999999996  C 12.008661904967548 10.999816518519696  11.921398933416304 10.914111814317584  11.92121211590909 10.808333328124998  L 11.92121211590909 7.524999999999999  C 11.92121211590909 7.419333328124999  12.008775752272728 7.333333328124999  12.116363636363635 7.333333328124999  L 12.744242429545453 7.333333328124999  C 12.851830313636363 7.333333328124999  12.939393949999998 7.419333328124999  12.939393934090909 7.524999999999999  Z " fill-rule="nonzero" fill="#999999" stroke="none" transform="matrix(1 0 0 1 8617 2174 )" />
  </g>
</svg>