<?xml version="1.0" encoding="utf-8"?>
<svg version="1.1" xmlns:xlink="http://www.w3.org/1999/xlink" width="20px" height="20px" xmlns="http://www.w3.org/2000/svg">
  <g transform="matrix(1 0 0 1 -9947 -565 )">
    <path d="M 0.05681818181818182 10  C 0.05681818181818182 4.517067649147728  4.517067649147728 0.05681818181818182  10 0.05681818181818182  C 15.482932350852272 0.05681818181818182  19.94318181818182 4.517067649147728  19.94318181818182 10  C 19.94318181818182 15.482932350852272  15.482932350852272 19.94318181818182  10 19.94318181818182  C 4.517067649147728 19.94318181818182  0.05681818181818182 15.482932350852272  0.05681818181818182 10  Z M 1.4772727272727273 10  C 1.4772727272727273 14.699596058238635  5.300403941761363 18.522727272727273  10 18.522727272727273  C 14.699596058238635 18.522727272727273  18.522727272727273 14.699596058238635  18.522727272727273 10  C 18.522727272727273 5.300403941761363  14.699596058238635 1.4772727272727273  10 1.4772727272727273  C 5.300403941761363 1.4772727272727273  1.4772727272727273 5.300403941761363  1.4772727272727273 10  Z M 6.519176136363637 10.240767045454543  C 6.519908558238638 10.243585759943182  6.5234375 10.246448863636362  6.524857954545453 10.249311967329543  C 6.558948863636363 10.329567649147727  6.605846058238636 10.40627219460227  6.6711647727272725 10.472323330965907  C 6.671897194602271 10.473055752840907  6.672585227272727 10.473055752840907  6.673295454545453 10.473743785511363  C 6.674027876420454 10.474476207386363  6.674027876420454 10.475164240056817  6.674715909090909 10.475874467329545  L 10.201704545454543 14.012784090909092  C 10.478693181818182 14.290505149147727  10.928267045454545 14.291903409090907  11.20596590909091 14.014204545454545  C 11.483686967329545 13.737215909090907  11.484375 13.287664240056818  11.207386363636365 13.009943181818178  L 8.182528409090908 9.976562499999996  L 11.232244318181818 6.9602050781249964  C 11.511363636363637 6.683948863636361  11.51351651278409 6.235063032670451  11.237926136363637 5.955943714488634  C 11.09945401278409 5.8153409090909065  10.916193181818182 5.745006214488634  10.732976740056818 5.745006214488634  C 10.552601207386365 5.745006214488634  10.372181285511363 5.8138760653409065  10.233664772727273 5.950261896306816  L 6.676868785511364 9.468017578124996  C 6.465931285511363 9.676180752840907  6.413352272727273 9.98302112926136  6.51919833096591 10.240811434659085  Z " fill-rule="nonzero" fill="#ffffff" stroke="none" transform="matrix(1 0 0 1 9947 565 )" />
  </g>
</svg>