<?xml version="1.0" encoding="utf-8"?>
<svg version="1.1" xmlns:xlink="http://www.w3.org/1999/xlink" width="7px" height="4px" xmlns="http://www.w3.org/2000/svg">
  <g transform="matrix(1 0 0 1 -8621 -2179 )">
    <path d="M 6.896354340179551 2.222060606060605  C 6.896354340179551 1.9591622935780537  6.663666350388505 1.7441612880087474  6.371794877403845 1.737373742424242  L 4.935897430288461 1.737373742424242  C 4.727333322115383 1.737373742424242  4.537794860576922 1.8459798030303025  4.448769230769229 2.015676772727273  L 4.2893846153846145 2.3208080757575753  L 3.4059487235576915 0.41858586363636274  C 3.3208718004807682 0.2356363636363631  3.1090769230769215 0.12347475757575688  2.8994358918269216 0.12088889393939267  C 2.678753198212571 0.12456837035613882  2.482879280225552 0.2490657727741674  2.40512819951923 0.4350707121212107  L 1.8605641081730764 1.737050499999999  L 0.6282051225961536 1.737050499999999  C 0.3308210265334187 1.737050499999999  0.08974358413461508 1.9541245606880993  0.08974358413461508 2.221898984848484  C 0.08974358413461508 2.4896734090088684  0.3308210265334187 2.706747469696969  0.6282051225961536 2.706747469696969  L 2.233179492788461 2.706747469696969  C 2.457449784593513 2.706747469696969  2.6582363500730826 2.5815818184889245  2.737179492788461 2.3925656515151505  L 2.935333338942307 1.9187070757575746  L 3.763487185096152 3.7019798030303024  C 3.845692307692305 3.878787878787879  4.03558975480769 3.9951515151515142  4.2484615384615365 3.9996767727272724  L 4.2603076923076895 3.9996767727272724  C 4.468832600426721 3.9996661629000085  4.658604281159304 3.8912469954904796  4.747435891826921 3.721373742424241  L 5.277999999999998 2.706747469696969  L 6.371794877403845 2.706747469696969  C 6.663666350388505 2.699959924112463  6.896354340179551 2.484958918543157  6.896354340179551 2.222060606060605  Z " fill-rule="nonzero" fill="#999999" stroke="none" transform="matrix(1 0 0 1 8621 2179 )" />
  </g>
</svg>