<?xml version="1.0" encoding="utf-8"?>
<svg version="1.1" xmlns:xlink="http://www.w3.org/1999/xlink" width="16px" height="16px" xmlns="http://www.w3.org/2000/svg">
  <g transform="matrix(1 0 0 1 -9019 -1878 )">
    <path d="M 16 8  C 16 3.576470593749999  12.42352940625 0  8 0  C 3.57647059375 0  0 3.57647059375  0 8  C 0 12.423529406250001  3.57647059375 16  8 16  C 12.423529406250001 16  16 12.423529406250001  16 8  Z M 9.411764703125 7.999999999999999  L 11.4823529375 10.070588234375  C 11.85882353125 10.447058828125  11.85882353125 11.105882359375  11.4823529375 11.4823529375  C 11.10588234375 11.85882353125  10.4470588125 11.85882353125  10.070588234375 11.4823529375  L 8 9.411764703125  L 5.929411765625 11.576470593749999  C 5.552941171875 11.952941187499999  4.894117640625 11.952941187499999  4.5176470625 11.576470593749999  C 4.329411765625 11.294117656249998  4.235294125 11.105882359374998  4.235294125 10.82352940625  C 4.235294125 10.541176453125  4.329411765625 10.25882353125  4.5176470625 10.070588234375  L 6.588235296875 8  L 4.5176470625 6.02352940625  C 4.329411765625 5.74117646875  4.235294125 5.552941171875  4.235294125 5.2705882343749995  C 4.235294125 4.988235296875  4.329411765625 4.705882359375  4.5176470625 4.517647062499999  C 4.89411765625 4.1411764687499995  5.5529411875 4.1411764687499995  5.929411765625 4.517647062499999  L 8 6.588235296874999  L 10.070588234375 4.517647062499999  C 10.447058828125 4.1411764687499995  11.105882359375 4.1411764687499995  11.4823529375 4.517647062499999  C 11.85882353125 4.894117656249999  11.85882353125 5.552941187499999  11.4823529375 5.929411765624999  L 9.411764703125 7.999999999999999  Z " fill-rule="nonzero" fill="#000000" stroke="none" transform="matrix(1 0 0 1 9019 1878 )" />
  </g>
</svg>