<?xml version="1.0" encoding="utf-8"?>
<svg version="1.1" xmlns:xlink="http://www.w3.org/1999/xlink" width="10px" height="10px" xmlns="http://www.w3.org/2000/svg">
  <g transform="matrix(1 0 0 1 -8969 -3357 )">
    <path d="M 8974 3358  C 8976.24 3358  8978 3359.76  8978 3362  C 8978 3364.24  8976.24 3366  8974 3366  C 8971.76 3366  8970 3364.24  8970 3362  C 8970 3359.76  8971.76 3358  8974 3358  Z " fill-rule="nonzero" fill="#ffffff" stroke="none" />
    <path d="M 8974 3358  C 8976.24 3358  8978 3359.76  8978 3362  C 8978 3364.24  8976.24 3366  8974 3366  C 8971.76 3366  8970 3364.24  8970 3362  C 8970 3359.76  8971.76 3358  8974 3358  Z " stroke-width="2" stroke="#e7772d" fill="none" />
  </g>
</svg>