<?xml version="1.0" encoding="utf-8"?>
<svg version="1.1" xmlns:xlink="http://www.w3.org/1999/xlink" width="14px" height="13px" xmlns="http://www.w3.org/2000/svg">
  <g transform="matrix(1 0 0 1 -912 -681 )">
    <path d="M 11.487499999999999 3.2624999999999993  L 9.725 1.5  C 9.625 1.4  9.625 1.25  9.725 1.15  L 10.7875 0.08749999999999991  C 10.8875 -0.012500000000000178  11.0375 -0.012500000000000178  11.1375 0.08749999999999991  L 12.899999999999999 1.8499999999999996  C 12.999999999999998 1.9499999999999995  12.999999999999998 2.0999999999999996  12.899999999999999 2.1999999999999993  L 11.837499999999999 3.2624999999999993  C 11.737499999999999 3.362499999999999  11.587499999999999 3.362499999999999  11.487499999999999 3.2624999999999993  Z M 2 11  L 5 10.125  L 10.8125 4.3125  C 10.9 4.225  10.8875 4.075  10.7875 3.9874999999999994  L 9.025 2.2125000000000004  C 8.925 2.1125000000000007  8.775 2.1000000000000005  8.700000000000001 2.1875  L 2.875 8  L 2 11  Z M 14 12  L 0 12  L 0 13  L 14 13  L 14 12  Z " fill-rule="nonzero" fill="#555555" stroke="none" transform="matrix(1 0 0 1 912 681 )" />
  </g>
</svg>