<?xml version="1.0" encoding="utf-8"?>
<svg version="1.1" xmlns:xlink="http://www.w3.org/1999/xlink" width="30px" height="30px" xmlns="http://www.w3.org/2000/svg">
  <g transform="matrix(1 0 0 1 -1899 -717 )">
    <path d="M 27.857142857142858 30  L 2.142857142857143 30  C 0.9428571428571623 30  0 29.05714285714284  0 27.857142857142858  L 0 2.142857142857143  C 0 0.9428571428571623  0.9428571428571623 0  2.142857142857143 0  L 27.857142857142858 0  C 29.05714285714284 0  30 0.9428571428571623  30 2.142857142857143  L 30 27.857142857142858  C 30 29.05714285714284  29.05714285714284 30  27.857142857142858 30  Z M 6.428571428571428 20  L 24 20  L 17.198156682027648 9.428571428571429  L 12.663594470046064 17.294117647058833  L 10.963133640553012 13.361344537815105  L 6.428571428571428 20  Z " fill-rule="nonzero" fill="#666666" stroke="none" transform="matrix(1 0 0 1 1899 717 )" />
  </g>
</svg>