<?xml version="1.0" encoding="utf-8"?>
<svg version="1.1" xmlns:xlink="http://www.w3.org/1999/xlink" width="17px" height="12px" xmlns="http://www.w3.org/2000/svg">
  <g transform="matrix(1 0 0 1 -2085 -1208 )">
    <path d="M 16.741309712942023 1.2304797743055549  C 17.00697416349712 0.9520673828124997  16.99231939633018 0.5124983289930548  16.711323817845397 0.24931684027777834  C 16.43032823936061 -0.012483398437499856  15.987153329307157 2.23958333344222E-05  15.72363072060033 0.2798906901041668  L 6.40155142501028 10.140273849826391  L 1.3092485428659542 5.155542122395833  C 1.0338518194901314 4.886089084201387  0.5913532920435856 4.888888888888888  0.32012753649259823 5.162485633680556  C 0.04890178094161131 5.435410416666667  0.05239638800370019 5.875688758680557  0.3278306833367595 6.144432508680556  L 5.930419723992598 11.62775314670139  C 5.932523993883635 11.629843663194444  5.935304646381579 11.630515625  5.937408916272616 11.632606141493056  C 5.93951318616365 11.63469665798611  5.94018956877056 11.637459136284722  5.942293838661595 11.639549652777779  C 5.986333262232731 11.681210720486114  6.039466147974919 11.70484105902778  6.09049476382607 11.732615104166667  C 6.115670880448191 11.747211414930558  6.13731483989515 11.76871388888889  6.163881271844161 11.779129166666667  C 6.246361263877468 11.811084244791667  6.333726156455595 11.827733745659724  6.420414688270972 11.827733745659724  C 6.51198814247533 11.827733745659724  6.6035615748355285 11.809665690104168  6.688822219366777 11.773566883680559  C 6.71749294305099 11.761770377604169  6.739850835217928 11.737468098958336  6.766417289011104 11.722162500000003  C 6.818836220189145 11.691588650173612  6.873359443102387 11.66590512152778  6.918112821237665 11.620772309027782  C 6.920217091128701 11.618681792534725  6.920893473735609 11.61521002604167  6.922997743626646 11.613119509548616  C 6.9243880589535385 11.611028993055562  6.927206283408718 11.610357031250004  6.9292729813425185 11.60826651475695  L 16.741309712942023 1.2304797743055549  Z " fill-rule="nonzero" fill="#e7772d" stroke="none" transform="matrix(1 0 0 1 2085 1208 )" />
  </g>
</svg>