<?xml version="1.0" encoding="utf-8"?>
<svg version="1.1" xmlns:xlink="http://www.w3.org/1999/xlink" width="7px" height="13px" xmlns="http://www.w3.org/2000/svg">
  <g transform="matrix(1 0 0 1 -2076 -1025 )">
    <path d="M 6.765625 12.484933035714286  C 6.671875 12.528459821428571  6.578125 12.571986607142858  6.5078125 12.571986607142858  C 6.414062500000002 12.571986607142858  6.320312500000002 12.550223214285714  6.25 12.484933035714286  L 0.1796875000000009 6.826450892857142  C 0.08593750000000044 6.739397321428572  0.03906250000000089 6.608816964285714  0.03906250000000089 6.5  C 0.03906250000000089 6.391183035714286  0.08593750000000044 6.260602678571429  0.1796875000000009 6.173549107142857  L 6.25 0.5150669642857143  C 6.390625 0.38448660714285715  6.6015625 0.38448660714285715  6.7421875 0.5150669642857143  C 6.882812500000002 0.6456473214285714  6.882812500000002 0.8415178571428572  6.7421875 0.9720982142857143  L 0.8125 6.5  L 6.765625 12.027901785714286  C 6.90625 12.158482142857142  6.90625 12.354352678571429  6.765625 12.484933035714286  Z " fill-rule="nonzero" fill="#555555" stroke="none" transform="matrix(1 0 0 1 2076 1025 )" />
  </g>
</svg>