<?xml version="1.0" encoding="utf-8"?>
<svg version="1.1" xmlns:xlink="http://www.w3.org/1999/xlink" width="21px" height="20px" xmlns="http://www.w3.org/2000/svg">
  <g transform="matrix(1 0 0 1 -192 -3202 )">
    <path d="M 19.071428578124998 16.027210888888888  C 19.071428578124998 15.546309878789552  19.455184509589717 15.156462583333335  19.92857144140625 15.156462583333335  C 20.370069677962654 15.156484116231809  20.739330468653694 15.49718440981938  20.781714296875 15.943619055555555  L 20.78571427734375 16.027210888888888  L 20.78571427734375 16.60770975  C 20.785849791022418 18.32120488222737  19.45450241669555 19.729280168308335  17.76914286328125 19.798131527777777  L 17.6428571484375 19.800453527777776  L 3.3571428515624984 19.800453527777776  C 1.6704210811931675 19.80059117695983  0.28434698369344624 18.448111292532335  0.21657144140624807 16.736  L 0.21428572265625012 16.60770975  L 0.21428572265625012 16.027210888888888  C 0.21452007841143372 15.5464783330158  0.5982073131088032 15.156893808499587  1.071428480826985 15.156893808499587  C 1.5127791177404295 15.156893808499587  1.8819832099418798 15.497355131012338  1.9245714414062505 15.943619055555555  L 1.9285714218749999 16.027210888888888  L 1.9285714218749999 16.60770975  C 1.928455512611552 17.372340134660693  2.5123668086837574 18.00589467642399  3.2634285742187497 18.05605441666667  L 3.3571428515625 18  L 17.6428571484375 18  C 18.395540183337875 18.05907466575969  19.019195435386113 17.465894936416497  19.068571429687502 16.702911555555556  L 19.071428578124998 16.60770975  L 19.071428578124998 16.027210888888888  Z M 10.17714285546875 0.12676644444444443  C 10.279774556030969 0.08484662921008221  10.389383384690854 0.06336520385599678  10.5 0.06349205555555591  C 10.611428570312501 0.06349205555555591  10.717714273437501 0.08497050000000034  10.81542855859375 0.12444444444444495  L 10.82400000390625 0.12734694444444492  C 10.927428585937498 0.1685623611111116  11.02457144140625 0.2306757500000008  11.108571441406252 0.31310658333333347  L 17.677142847656253 6.7450339999999995  C 18.01314284765625 7.07591836111111  18.01314284765625 7.612879805555556  17.677142847656253 7.943764166666666  C 17.336839463197627 8.274746363803075  16.800303376646124 8.274746363803075  16.4599999921875 7.943764166666666  L 11 2.9503129166666664  L 11 15.446712027777778  C 11.35714286328125 15.446712003311578  11.35714286328125 15.44671201554468  11.35714286328125 15.446711991078484  C 11.35714286328125 15.927613001177821  10.973386931816535 16.317460296634035  10.5 16.317460296634035  C 10.026613082291494 16.317460296634035  9.642857156670518 15.927613023545149  10 15.446712027777778  L 10 2.9503129166666664  L 4.541142867187501 7.943764166666666  C 4.200839482728877 8.274746363803075  3.664303396177374 8.274746363803075  3.324000011718751 7.943764166666668  C 3.1630068655212167 7.787277164204516  3.071953957112595 7.5707535049813925  3.071953957112595 7.344399083333334  C 3.071953957112595 7.118044661685275  3.163006865521218 6.901521002462151  3.324000011718751 6.7450339999999995  L 9.89085715625 0.31310658333333347  C 9.9754285859375 0.23067575000000004  10.07314287109375 0.16798186111111116  10.17714285546875 0.12676644444444443  Z " fill-rule="nonzero" fill="#333333" stroke="none" transform="matrix(1 0 0 1 192 3202 )" />
  </g>
</svg>