<?xml version="1.0" encoding="utf-8"?>
<svg version="1.1" xmlns:xlink="http://www.w3.org/1999/xlink" width="10px" height="14px" xmlns="http://www.w3.org/2000/svg">
  <g transform="matrix(1 0 0 1 -587 -301 )">
    <path d="M 9.814453125 8.461647727272728  C 9.938151041666668 8.587594696969695  10 8.736742424242424  10 8.909090909090908  C 10 9.081439393939394  9.938151041666668 9.23058712121212  9.814453125 9.356534090909092  L 5.439453125 13.811079545454545  C 5.315755208333334 13.937026515151516  5.169270833333334 14  5 14  C 4.830729166666668 14  4.684244791666668 13.937026515151516  4.560546875 13.811079545454545  L 0.185546875 9.356534090909092  C 0.06184895833333333 9.23058712121212  0 9.081439393939394  0 8.909090909090908  C 0 8.736742424242424  0.06184895833333333 8.587594696969695  0.185546875 8.461647727272728  C 0.3092447916666667 8.335700757575756  0.45572916666666674 8.272727272727272  0.625 8.272727272727272  L 9.375 8.272727272727272  C 9.544270833333334 8.272727272727272  9.690755208333334 8.335700757575756  9.814453125 8.461647727272728  Z M 9.814453125 4.643465909090909  C 9.938151041666668 4.769412878787877  10 4.918560606060605  10 5.090909090909091  C 10 5.263257575757574  9.938151041666668 5.412405303030303  9.814453125 5.538352272727273  C 9.690755208333334 5.664299242424243  9.544270833333334 5.727272727272727  9.375 5.727272727272727  L 0.625 5.727272727272727  C 0.45572916666666674 5.727272727272727  0.3092447916666667 5.664299242424243  0.185546875 5.538352272727273  C 0.06184895833333333 5.412405303030303  0 5.263257575757574  0 5.090909090909091  C 0 4.918560606060605  0.06184895833333333 4.769412878787877  0.185546875 4.643465909090909  L 4.560546875 0.18892045454545525  C 4.684244791666668 0.06297348484848353  4.830729166666668 0  5 0  C 5.169270833333334 0  5.315755208333334 0.06297348484848353  5.439453125 0.18892045454545525  L 9.814453125 4.643465909090909  Z " fill-rule="nonzero" fill="#999999" stroke="none" transform="matrix(1 0 0 1 587 301 )" />
  </g>
</svg>