<?xml version="1.0" encoding="utf-8"?>
<svg version="1.1" xmlns:xlink="http://www.w3.org/1999/xlink" width="14px" height="14px" xmlns="http://www.w3.org/2000/svg">
  <g transform="matrix(1 0 0 1 -1631 -486 )">
    <path d="M 13.493347251157406 7.19785779007523  C 13.493347251157406 3.4966708326099534  10.493225120081018 0.4981031785300917  6.7935926396122674 0.49810317853009256  C 3.093960159143518 0.49810317853009256  0.09383802806712886 3.4966708478009254  0.09383801287615678 7.197857790075231  C 0.0938379976851845 10.89904473234954  3.09240568214699 13.897612401620371  6.7935926396122674 13.897612416811342  C 10.494779597077548 13.897612432002312  13.493347251157406 10.899044747540508  13.493347251157406 7.19785779007523  Z M 10.842980287181714 4.755789467592593  C 11.08081380931713 4.9889595891203715  11.08081380931713 5.371358575665511  10.846089225983794 5.6060831438078695  L 6.3505694147858796 10.101602955005788  C 6.232429892216436 10.219742477575233  6.0785376114004634 10.278812238859953  5.924645345775463 10.278812238859953  C 5.77075306495949 10.278812238859953  5.616860799334491 10.219742477575233  5.498721261574074 10.101602955005788  L 3.2929319842303246 7.897368139467593  C 3.0566529390914354 7.662643556134259  3.0566529390914354 7.2802445695891205  3.2929319842303246 7.045519986255787  C 3.529211029369214 6.809240941116899  3.9100555541087973 6.809240941116899  4.14478013744213 7.045519986255787  L 5.923090868778935 8.823830732783565  L 9.991132133969908 4.755789467592593  C 10.227411179108795 4.5195104224537035  10.60825570384838 4.5195104224537035  10.842980287181714 4.755789467592593  Z " fill-rule="nonzero" fill="#e7772d" stroke="none" transform="matrix(1 0 0 1 1631 486 )" />
  </g>
</svg>