<?xml version="1.0" encoding="utf-8"?>
<svg version="1.1" xmlns:xlink="http://www.w3.org/1999/xlink" width="36px" height="36px" preserveAspectRatio="xMinYMid meet" viewBox="294 885  36 34" xmlns="http://www.w3.org/2000/svg">
  <path d="M 312 820.5  L 302 820.5  A 5 5 0 0 0 297.5 825.5 L 297.5 897  A 5 5 0 0 0 302.5 902.5 L 312 902.5  " stroke-width="3" stroke="#e7772d" fill="none" />
  <path d="M 311 816.5  A 4 4 0 0 0 307 820.5 A 4 4 0 0 0 311 824.5 A 4 4 0 0 0 315 820.5 A 4 4 0 0 0 311 816.5 Z M 302.9 912.5  L 315 902.5  L 302.9 892.5  L 307.8 902.5  L 302.9 912.5  Z " fill-rule="nonzero" fill="#e7772d" stroke="none" />
</svg>