<?xml version="1.0" encoding="utf-8"?>
<svg version="1.1" xmlns:xlink="http://www.w3.org/1999/xlink" width="446px" height="12px" preserveAspectRatio="xMinYMid meet" viewBox="3370 804  446 10" xmlns="http://www.w3.org/2000/svg">
  <path d="M 3810.5 764  L 3810.5 804  A 5 5 0 0 1 3805.5 809.5 L 3381 809.5  A 5 5 0 0 0 3376.5 814.5 L 3376.5 841  " stroke-width="3" stroke="#e7772d" fill="none" />
  <path d="M 3810.5 761  A 4 4 0 0 0 3806.5 765 A 4 4 0 0 0 3810.5 769 A 4 4 0 0 0 3814.5 765 A 4 4 0 0 0 3810.5 761 Z M 3366.5 831.9  L 3376.5 844  L 3386.5 831.9  L 3376.5 836.8  L 3366.5 831.9  Z " fill-rule="nonzero" fill="#e7772d" stroke="none" />
</svg>