<?xml version="1.0" encoding="utf-8"?>
<svg version="1.1" xmlns:xlink="http://www.w3.org/1999/xlink" width="42px" height="26px" xmlns="http://www.w3.org/2000/svg">
  <g transform="matrix(1 0 0 1 -1148 -224 )">
    <path d="M 1.0458984375 18.04765625  C 0.3486328125 16.442968750000002  0 14.760416666666664  0 13  C 0 11.239583333333332  0.3486328125 9.55703125  1.0458984375 7.952343750000001  C 1.7431640625000002 6.34765625  2.67626953125 4.96640625  3.84521484375 3.80859375  C 5.014160156250001 2.6507812499999996  6.40869140625 1.7265625  8.02880859375 1.0359374999999988  C 9.648925781250002 0.3453125000000006  11.34765625 0  13.125 0  L 28.875 0  C 30.65234375 0  32.35107421875 0.3453125000000006  33.97119140625 1.0359374999999988  C 35.59130859375 1.7265625  36.98583984375 2.6507812499999996  38.15478515625 3.80859375  C 39.32373046875 4.96640625  40.2568359375 6.34765625  40.9541015625 7.952343750000001  C 41.6513671875 9.55703125  42 11.239583333333332  42 13  C 42 14.760416666666664  41.6513671875 16.442968750000002  40.9541015625 18.04765625  C 40.2568359375 19.65234375  39.32373046875 21.033593749999998  38.15478515625 22.19140625  C 36.98583984375 23.349218750000002  35.59130859375 24.2734375  33.97119140625 24.9640625  C 32.35107421875 25.654687499999998  30.65234375 26  28.875 26  L 13.125 26  C 11.34765625 26  9.648925781250002 25.654687499999998  8.02880859375 24.9640625  C 6.40869140625 24.2734375  5.014160156250001 23.349218750000002  3.84521484375 22.19140625  C 2.67626953125 21.033593749999998  1.7431640625000002 19.65234375  1.0458984375 18.04765625  Z M 24.80419921875 22.57734375  C 26.09619140625 23.12578125  27.453125 23.400000000000002  28.875 23.400000000000002  C 30.296875000000004 23.400000000000002  31.65380859375 23.12578125  32.94580078125 22.57734375  C 34.23779296875001 22.028906250000002  35.35546875000001 21.287499999999998  36.298828125 20.353125000000002  C 37.24218750000001 19.41875  37.99072265625001 18.31171875  38.54443359375 17.03203125  C 39.09814453125001 15.75234375  39.37500000000001 14.408333333333331  39.375 13  C 39.37500000000001 11.591666666666665  39.09814453125001 10.24765625  38.54443359375 8.96796875  C 37.99072265625001 7.688281249999999  37.24218750000001 6.581249999999998  36.298828125 5.646875  C 35.35546875000001 4.7125  34.23779296875001 3.9710937499999996  32.94580078125 3.422656249999999  C 31.65380859375 2.874218750000001  30.296875000000004 2.5999999999999996  28.875 2.5999999999999996  C 27.453125 2.5999999999999996  26.09619140625 2.874218750000001  24.80419921875 3.422656249999999  C 23.51220703125 3.9710937499999996  22.39453125 4.7125  21.451171875 5.646875  C 20.5078125 6.581249999999998  19.75927734375 7.688281249999999  19.20556640625 8.96796875  C 18.65185546875 10.24765625  18.375 11.591666666666665  18.375 13  C 18.375 14.408333333333331  18.65185546875 15.75234375  19.20556640625 17.03203125  C 19.75927734375 18.31171875  20.5078125 19.41875  21.451171875 20.353125000000002  C 22.39453125 21.287499999999998  23.51220703125 22.028906250000002  24.80419921875 22.57734375  Z " fill-rule="nonzero" fill="#e7772d" stroke="none" transform="matrix(1 0 0 1 1148 224 )" />
  </g>
</svg>