<?xml version="1.0" encoding="utf-8"?>
<svg version="1.1" xmlns:xlink="http://www.w3.org/1999/xlink" width="14px" height="14px" xmlns="http://www.w3.org/2000/svg">
  <g transform="matrix(1 0 0 1 -1355 -194 )">
    <path d="M 11.083216662109376 4.083333337890625  L 2.93405 4.083333337890625  L 2.93405 12.267499999999998  C 2.934371526730005 12.579867845796405  3.1875154920942155 12.833011811160619  3.499883337890625 12.833333337890625  L 10.517383337890625 12.833333337890625  C 10.83005 12.833333337890625  11.08321667578125 12.579583337890625  11.083216662109376 12.2675  L 11.083216662109376 4.083333337890625  Z M 12.249883337890626 12.267500000000002  C 12.249883337890626 13.223000000000003  11.472883337890625 14  10.517383337890625 14  L 3.499883337890626 14  C 2.544966675781251 14  1.7673833378906258 13.223  1.7673833378906258 12.2675  L 1.7673833378906258 3  L 12.249883337890626 3  L 12.249883337890626 12.267500000000002  Z M 13.999999999999998 3.5  C 13.999999999999998 3.820833337890625  13.737499999999997 4.083333337890625  13.416666662109375 4  L 0.5833333378906249 4  C 0.26249999999999996 4.083333337890625  0 3.820833337890625  0 3.5  C 0 3.179166662109375  0.2625 2.916666662109375  0.5833333378906249 3  L 13.416666662109375 3  C 13.737499999999999 2.916666662109375  13.999999999999998 3.179166662109375  13.999999999999998 3.5  Z M 10.5 1.75  L 10.5 2.916666662109375  L 9.333333337890625 2.916666662109375  L 9.333333337890625 1.75  C 9.333333337890625 1.428583337890625  9.072 1.166666662109375  8.75 1.166666662109375  L 5.25 1.166666662109375  C 4.9285833378906245 1.166666662109375  4.666666662109375 1.42858332421875  4.666666662109375 1.75  L 4.666666662109375 2.9166666621093746  L 3.5 2.9166666621093746  L 3.5 1.75  C 3.5 0.785166662109375  4.285166662109375 0  5.25 0  L 8.75 0  C 9.714833337890624 0  10.5 0.785166662109375  10.5 1.75  Z M 5.833333337890625 10.5  C 5.833333337890625 10.820833337890626  5.570833337890625 11.083333337890625  5.25 11.083333337890625  C 4.929166662109375 11.083333337890625  4.666666662109375 10.820833337890624  4.666666662109375 10.5  L 4.666666662109375 6.416666662109375  C 4.666666662109375 6.09583332421875  4.929166662109375 5.833333324218749  5.25 5.8333333378906245  C 5.570833337890625 5.8333333515625  5.833333337890625 6.095833337890625  5.833333337890625 6.416666662109375  L 5.833333337890625 10.5  Z M 9.333333337890625 10.5  C 9.333333337890625 10.820833337890626  9.070833337890624 11.083333337890625  8.75 11.083333337890625  C 8.429166662109374 11.083333337890625  8.166666662109375 10.820833337890624  8.166666662109375 10.5  L 8.166666662109375 6.416666662109375  C 8.166666662109375 6.09583332421875  8.429166662109376 5.833333324218749  8.75 5.8333333378906245  C 9.070833337890624 5.8333333515625  9.333333337890625 6.095833337890625  9.333333337890625 6.416666662109375  L 9.333333337890625 10.5  Z " fill-rule="nonzero" fill="#0066ff" stroke="none" transform="matrix(1 0 0 1 1355 194 )" />
  </g>
</svg>