<?xml version="1.0" encoding="utf-8"?>
<svg version="1.1" xmlns:xlink="http://www.w3.org/1999/xlink" width="7px" height="14px" xmlns="http://www.w3.org/2000/svg">
  <g transform="matrix(1 0 0 1 -405 -299 )">
    <path d="M 6.765625 13.4453125  C 6.671875 13.4921875  6.578125 13.5390625  6.5078125 13.5390625  C 6.414062500000002 13.5390625  6.320312500000002 13.515625  6.25 13.4453125  L 0.1796875000000009 7.351562499999999  C 0.08593750000000044 7.2578125  0.03906250000000089 7.1171875  0.03906250000000089 7  C 0.03906250000000089 6.8828125  0.08593750000000044 6.7421875  0.1796875000000009 6.6484375  L 6.25 0.5546875  C 6.390625 0.4140625  6.6015625 0.4140625  6.7421875 0.5546875  C 6.882812500000002 0.6953125  6.882812500000002 0.9062500000000001  6.7421875 1.046875  L 0.8125 7  L 6.765625 12.953125  C 6.90625 13.09375  6.90625 13.3046875  6.765625 13.4453125  Z " fill-rule="nonzero" fill="#3e3a39" stroke="none" transform="matrix(1 0 0 1 405 299 )" />
  </g>
</svg>