<?xml version="1.0" encoding="utf-8"?>
<svg version="1.1" xmlns:xlink="http://www.w3.org/1999/xlink" width="18px" height="14px" xmlns="http://www.w3.org/2000/svg">
  <g transform="matrix(1 0 0 1 -1416 -194 )">
    <path d="M 0.021634615384615384 4.784756097560975  C 0.021634615384615384 5.0685975609756095  0.25312500000000004 5.296951219512195  0.5408653846153846 5.296951219512195  L 6.431971153846154 5.296951219512195  C 6.719711538461539 5.296951219512195  6.951201923076923 5.0685975609756095  6.951201923076923 4.784756097560975  C 6.951201923076923 4.5009146341463415  6.719711538461539 4.272560975609756  6.431971153846154 4.272560975609756  L 0.5408653846153846 4.272560975609756  C 0.25312500000000004 4.272560975609756  0.021634615384615384 4.5009146341463415  0.021634615384615384 4.784756097560975  Z M 0.021634615384615384 9.390243902439025  C 0.021634615384615384 9.674085365853657  0.25312500000000004 9.902439024390244  0.5408653846153846 9.902439024390244  L 7.983173076923077 9.902439024390244  C 8.270913461538461 9.902439024390244  8.502403846153847 9.674085365853657  8.502403846153847 9.390243902439025  C 8.502403846153847 9.106402439024391  8.270913461538461 8.878048780487806  7.983173076923077 8.878048780487806  L 0.5408653846153846 8.878048780487806  C 0.25312500000000004 8.878048780487806  0.021634615384615384 9.106402439024391  0.021634615384615384 9.390243902439025  Z M 9.757211538461538 13.359756097560975  C 9.757211538461538 13.075914634146343  9.525721153846153 12.847560975609756  9.23798076923077 12.847560975609756  L 0.5408653846153846 12.847560975609756  C 0.25312500000000004 12.847560975609756  0.021634615384615384 13.075914634146343  0.021634615384615384 13.359756097560975  C 0.021634615384615384 13.643597560975609  0.25312500000000004 13.871951219512194  0.5408653846153846 13.871951219512194  L 9.23798076923077 13.871951219512194  C 9.525721153846153 13.871951219512194  9.757211538461538 13.643597560975609  9.757211538461538 13.359756097560975  Z M 17.818269230769232 4.635365853658536  C 18.021634615384617 4.434756097560975  18.021634615384617 4.110365853658536  17.818269230769232 3.9118902439024392  L 14.081971153846155 0.22621951219512182  C 14.027884615384615 0.17286585365853646  13.962980769230768 0.13231707317073146  13.893749999999997 0.10884146341463402  C 13.891586538461535 0.10884146341463402  13.887259615384615 0.10670731707317073  13.885096153846153 0.10670731707317073  C 13.874278846153846 0.10243902439024413  13.861298076923076 0.09817073170731695  13.848317307692305 0.09603658536585366  L 13.822355769230766 0.08963414634146316  C 13.815865384615382 0.08749999999999988  13.809374999999996 0.08749999999999988  13.802884615384613 0.08536585365853659  C 13.792067307692307 0.0832317073170733  13.779086538461536 0.08109756097561  13.768269230769228 0.08109756097561  L 13.75745192307692 0.08109756097561  C 13.744471153846149 0.0789634146341467  13.729326923076922 0.0789634146341467  13.71418269230769 0.0789634146341467  L 13.712019230769227 0.0789634146341467  L 13.709855769230765 0.0789634146341467  C 13.554086538461533 0.0789634146341467  13.415624999999995 0.14512195121951244  13.320432692307687 0.25182926829268315  L 9.607932692307692 3.914024390243902  C 9.404567307692307 4.114634146341462  9.404567307692307 4.439024390243903  9.607932692307692 4.637499999999999  C 9.709615384615386 4.737804878048779  9.841586538461538 4.786890243902438  9.975721153846154 4.786890243902438  C 10.10985576923077 4.786890243902438  10.241826923076921 4.737804878048779  10.343509615384615 4.637499999999999  L 13 1.8246951219512184  L 13 13.359756097560975  C 13.194951923076925 13.643597560975609  13.42644230769231 13.871951219512194  13.714182692307695 13.871951219512194  C 14.001923076923077 13.871951219512194  14.233413461538465 13.643597560975609  14 13.359756097560975  L 14 1.8225609756097558  L 17.08485576923077 4.635365853658536  C 17.288221153846155 4.8359756097560975  17.61706730769231 4.8359756097560975  17.818269230769232 4.635365853658536  Z " fill-rule="nonzero" fill="#0066ff" stroke="none" transform="matrix(1 0 0 1 1416 194 )" />
  </g>
</svg>