<?xml version="1.0" encoding="utf-8"?>
<svg version="1.1" xmlns:xlink="http://www.w3.org/1999/xlink" width="14px" height="14px" xmlns="http://www.w3.org/2000/svg">
  <g transform="matrix(1 0 0 1 -1294 -194 )">
    <path d="M 13.824978267094016 0.18021930769230868  C 13.990524423076923 0.3466232179487189  13.893598429487179 0.7128833653846164  13.607966974358973 0.9985148205128205  L 6.764820626068376 7.849380942307692  C 6.640087058099482 7.979199795545174  6.484161282870993 8.07488151938098  6.311927506410257 8.127292623931623  C 6.163536391025642 8.165891461538461  6.031442561965813 8.148736420940171  5.948240606837607 8.065534465811966  C 5.782694450854701 7.899988309829061  5.879620444444445 7.533728162393162  6.165251899572651 7.247238952991454  L 13.008398247863248 0.39723058547008644  C 13.29317194871795 0.1115991303418813  13.659432096153845 0.013815397435898335  13.824978267094016 0.18021930769230868  Z M 8.593548130341881 1.128893141025641  L 1.7315312329059829 1.128893141025641  C 0.8849299038461539 1.037113658119658  0.8737791132478632 1.856266925213675  1 1.9866452457264958  L 1 12.279670606837607  C 0.8737791132478632 12.410048927350427  0.958696576923077 13.191461096153846  1.7315312329059829 13  L 12.02455657905983 13  C 12.842852091880342 13.177737057692307  12.88230869871795 12.410048927350427  12.882308683760684 12.279670606837607  L 12.882308683760684 5.417653694444444  L 13.741776311965811 5.178340865384615  L 13.741776311965811 12.69310711965812  C 13.741776311965811 13.411903391025639  13.157647117521368 13.996890324786325  12.438850846153848 14  L 1.3155214572649574 14  C 0.5959929341852117 13.995944359328679  0.013068434026822498 13.412636109466023  0 12.69310711965812  L 0 1.5706354700854699  C 0.012595991452991338 0.8518391987179484  0.5967251858974358 0.2668522649572648  1.3155214572649574 0.2668522649572648  L 8.826856694444444 0.2668522649572648  L 8.593548130341881 1.128893141025641  Z " fill-rule="nonzero" fill="#0066ff" stroke="none" transform="matrix(1 0 0 1 1294 194 )" />
  </g>
</svg>