<?xml version="1.0" encoding="utf-8"?>
<svg version="1.1" xmlns:xlink="http://www.w3.org/1999/xlink" width="40px" height="40px" xmlns="http://www.w3.org/2000/svg">
  <g transform="matrix(1 0 0 1 -195 -623 )">
    <path d="M 39.77061946902655 19.870206504424782  C 39.77061946902655 30.820059026548673  30.867256637168143 39.723421814159295  19.91740411504425 39.723421814159295  C 8.967551637168143 39.723421814159295  0.06418880530973432 30.820058982300882  0.06418880530973432 19.870206504424782  C 0.06418880530973432 8.920354026548678  8.967551637168143 0.01699115044247789  19.91740411504425 0.01699115044247789  C 30.867256592920356 0.01699115044247789  39.77061946902655 8.920353982300886  39.77061946902655 19.870206504424782  Z M 36.749970486725665 19.870206504424782  C 36.749970486725665 10.589262566371684  29.198348097345132 3.0376401327433626  19.91740411504425 3.0376401327433626  C 10.636460176991152 3.0376401327433626  3.0848377433628316 10.58926256637168  3.0848377433628316 19.870206504424782  C 3.0848377433628316 29.15115044247788  10.636460176991152 36.702772876106195  19.91740411504425 36.702772876106195  C 29.19834805309734 36.702772876106195  36.749970486725665 29.151150442477878  36.749970486725665 19.870206504424782  Z " fill-rule="nonzero" fill="#ffffff" stroke="none" transform="matrix(1 0 0 1 195 623 )" />
  </g>
</svg>