<?xml version="1.0" encoding="utf-8"?>
<svg version="1.1" xmlns:xlink="http://www.w3.org/1999/xlink" width="90px" height="90px" xmlns="http://www.w3.org/2000/svg">
  <defs>
    <mask fill="white" id="clip5907">
      <path d="M 83.57142857142857 90  L 6.428571428571428 90  C 2.828571428571487 90  0 87.17142857142852  0 83.57142857142857  L 0 6.428571428571428  C 0 2.828571428571487  2.828571428571487 0  6.428571428571428 0  L 83.57142857142857 0  C 87.17142857142852 0  90 2.828571428571487  90 6.428571428571428  L 90 83.57142857142857  C 90 87.17142857142852  87.17142857142852 90  83.57142857142857 90  Z M 19.285714285714285 61  L 72 61  L 51.59447004608294 28.285714285714285  L 37.99078341013819 51.8823529411765  L 32.88940092165904 40.084033613445314  L 19.285714285714285 61  Z " fill-rule="evenodd" />
    </mask>
  </defs>
  <g transform="matrix(1 0 0 1 -272 -598 )">
    <path d="M 83.57142857142857 90  L 6.428571428571428 90  C 2.828571428571487 90  0 87.17142857142852  0 83.57142857142857  L 0 6.428571428571428  C 0 2.828571428571487  2.828571428571487 0  6.428571428571428 0  L 83.57142857142857 0  C 87.17142857142852 0  90 2.828571428571487  90 6.428571428571428  L 90 83.57142857142857  C 90 87.17142857142852  87.17142857142852 90  83.57142857142857 90  Z M 19.285714285714285 61  L 72 61  L 51.59447004608294 28.285714285714285  L 37.99078341013819 51.8823529411765  L 32.88940092165904 40.084033613445314  L 19.285714285714285 61  Z " fill-rule="nonzero" fill="#666666" stroke="none" transform="matrix(1 0 0 1 272 598 )" />
    <path d="M 83.57142857142857 90  L 6.428571428571428 90  C 2.828571428571487 90  0 87.17142857142852  0 83.57142857142857  L 0 6.428571428571428  C 0 2.828571428571487  2.828571428571487 0  6.428571428571428 0  L 83.57142857142857 0  C 87.17142857142852 0  90 2.828571428571487  90 6.428571428571428  L 90 83.57142857142857  C 90 87.17142857142852  87.17142857142852 90  83.57142857142857 90  Z " stroke-width="2" stroke="#0066ff" fill="none" transform="matrix(1 0 0 1 272 598 )" mask="url(#clip5907)" />
    <path d="M 19.285714285714285 61  L 72 61  L 51.59447004608294 28.285714285714285  L 37.99078341013819 51.8823529411765  L 32.88940092165904 40.084033613445314  L 19.285714285714285 61  Z " stroke-width="2" stroke="#0066ff" fill="none" transform="matrix(1 0 0 1 272 598 )" mask="url(#clip5907)" />
  </g>
</svg>