<?xml version="1.0" encoding="utf-8"?>
<svg version="1.1" xmlns:xlink="http://www.w3.org/1999/xlink" width="12px" height="15px" xmlns="http://www.w3.org/2000/svg">
  <g transform="matrix(1 0 0 1 -210 -635 )">
    <path d="M 4.868571428571425 14.31333334821429  C 4.349257157142852 14.679047633928576  3.771428571428567 14.861904776785718  3.193599985714286 14.861904776785714  C 2.7327999857142853 14.861904776785714  2.2719999857142854 14.7476190625  1.8477714428571428 14.511428571428567  C 0.8964019897686788 13.987806997464048  0.3020944992798101 12.957979157660203  0.3044571428571422 11.837142857142855  L 0.3044571428571422 3.2580952232142857  C 0.3044571428571422 2.138095223214285  0.8969142857142857 1.1095237946428582  1.8477714428571428 0.5838095089285719  C 2.7986286 0.058095223214285695  3.9469714285714286 0.12666665178571432  4.839314271428571 0.7590476339285728  L 10.544457128571429 5.063809508928573  C 11.327085685714287 5.6276190178571435  11.795199985714284 6.557142857142859  11.795199985714284 7.547619062500003  C 11.795199985714284 8.54571428571429  11.319771428571425 9.482857142857144  10.52251427142857 10.046666651785715  L 4.868571428571425 14.31333334821429  Z M 8.840228571428568 7.539999999999999  L 3.1497142714285715 3.2504762053571414  L 3.2228571428571424 11.837142857142855  L 8.840228571428568 7.55523808035714  L 8.825600014285714 7.539999999999999  L 8.840228571428568 7.539999999999999  Z " fill-rule="nonzero" fill="#ffffff" stroke="none" transform="matrix(1 0 0 1 210 635 )" />
  </g>
</svg>