<?xml version="1.0" encoding="utf-8"?>
<svg version="1.1" xmlns:xlink="http://www.w3.org/1999/xlink" width="35px" height="30px" xmlns="http://www.w3.org/2000/svg">
  <g transform="matrix(1 0 0 1 -3448 -20 )">
    <path d="M 35 2.7806122809278353  C 34.97010241150443 1.415289703608247  33.93560659845133 0.30857613402061856  32.6593547511062 0.30857613402061856  L 2.619754142699115 0.30857613402061856  C 1.3435419026548674 0.30857613402061856  0.30900648230088484 1.415289703608247  1 2.7806122422680413  L 1 20.084785979381444  C 0.30900648230088484 21.45006896907217  1.3435418639380527 22.55682208762887  2.619754142699115 22  L 16.484200420353982 22  L 11.862705138274336 30  L 23.416403755530975 30  L 18.79490847345133 22  L 32.6593547511062 22  C 33.93556699115044 22.55682208762887  34.97010241150443 21.45010851804124  35 20.084785979381444  L 35 2.7806122809278353  Z M 32 17.612749909793813  L 32.6593547511062 17.612749909793813  C 32.6593547511062 18.97803289948454  31.624819369469026 20.08478601804124  30.348607090707965 20  L 4.930501803097345 20  C 3.654289563053097 20.08478601804124  2.619754142699114 18.97807244845361  3 17.612749909793813  L 3 5.252608840206186  C 2.619754142699115 3.8873258505154644  3.6542895243362827 2.7805727319587628  4.9305018030973455 3  L 30.34864669800885 3  C 31.624858938053098 2.780572693298969  32.65939435840708 3.8872862628865983  32 5.252608801546391  L 32 17.612749909793813  Z " fill-rule="nonzero" fill="#999999" stroke="none" transform="matrix(1 0 0 1 3448 20 )" />
  </g>
</svg>