<?xml version="1.0" encoding="utf-8"?>
<svg version="1.1" xmlns:xlink="http://www.w3.org/1999/xlink" width="17px" height="30px" xmlns="http://www.w3.org/2000/svg">
  <g transform="matrix(1 0 0 1 -3544 -20 )">
    <path d="M 16.868186990530305 28.256870778688523  C 16.868186926136364 29.10124269467213  16.2081145 29.786456311475412  15.39295899431818 29.786456311475412  L 1.609948810606058 29.786456311475412  C 0.7938240151515131 29.786456311475412  0.1322976704545431 29.10170535860656  0.1322976704545431 28.25687074795082  L 0.13229770265151547 1.7435919159836066  C 0.13229770265151547 0.8987573053278688  0.7938240473484844 0.21446904713114753  1.6099488428030313 0.21446904713114753  L 15.392959026515152 0.21446904713114753  C 16.20811456439394 0.21446904713114753  16.868186990530305 0.8987573053278688  16.868186990530305 1.7435919159836066  L 16.868186990530305 28.256870778688523  Z M 7.52055330681818 27.236684415983607  C 7.520553306818183 27.800215911885243  7.961570880681818 28.256870778688523  8.505815609848485 28.256870778688523  C 9.049575710227272 28.256870778688523  9.490593284090908 27.800215942622952  9.490593284090908 27.236684415983607  C 9.490593284090908 26.67407824795082  9.04957574242424 26.217423381147544  8.505815609848485 26.217423381147544  C 7.961086219696969 26.217423381147544  7.52055330681818 26.674078217213115  7.52055330681818 27.236684415983607  Z M 15.39295899431818 3.272714784836065  L 14.901054785984847 3.272714784836065  L 2.1028222765151523 3.272714784836065  L 1.6099488106060615 3.272714784836065  L 1.6099488106060615 24.688300481557373  L 2.1028222765151523 24.688300481557373  L 14.90153941477273 24.688300481557373  L 15.39344362310606 24.688300481557373  L 15.39344362310606 3.272714784836065  Z " fill-rule="nonzero" fill="#0066ff" stroke="none" transform="matrix(1 0 0 1 3544 20 )" />
  </g>
</svg>