<?xml version="1.0" encoding="utf-8"?>
<svg version="1.1" xmlns:xlink="http://www.w3.org/1999/xlink" width="7px" height="7px" xmlns="http://www.w3.org/2000/svg">
  <g transform="matrix(1 0 0 1 -64 -562 )">
    <path d="M 67.5 562  C 69.46 562  71 563.54  71 565.5  C 71 567.46  69.46 569  67.5 569  C 65.54 569  64 567.46  64 565.5  C 64 563.54  65.54 562  67.5 562  Z " fill-rule="nonzero" fill="#009dd9" stroke="none" fill-opacity="0" />
    <path d="M 67.5 562.5  C 69.18 562.5  70.5 563.82  70.5 565.5  C 70.5 567.18  69.18 568.5  67.5 568.5  C 65.82 568.5  64.5 567.18  64.5 565.5  C 64.5 563.82  65.82 562.5  67.5 562.5  Z " stroke-width="1" stroke="#999999" fill="none" />
  </g>
</svg>