<?xml version="1.0" encoding="utf-8"?>
<svg version="1.1" xmlns:xlink="http://www.w3.org/1999/xlink" width="11px" height="14px" xmlns="http://www.w3.org/2000/svg">
  <g transform="matrix(1 0 0 1 -62 -560 )">
    <path d="M 67.5 573.0665068323476  C 65.5 569.9255426660601  62.5 568.0409641662876  62.5 564.9  C 62.5 563.2657142857142  63.5 560.5  67.5 560.5  C 71.5 560.5  72.5 563.2657142857142  72.5 564.9  C 72.5 568.0409641662876  69.5 569.9255426660601  67.5 573.0665068323476  Z " fill-rule="nonzero" fill="#009dd9" stroke="none" fill-opacity="0" />
    <path d="M 67.5 574  C 65.3 570.5  62 568.4  62 564.9  C 62 563.08  63.1 560  67.5 560  C 71.9 560  73 563.08  73 564.9  C 73 568.4  69.7 570.5  67.5 574  Z M 67.5 572.1330136646953  C 69.3 569.3510853321202  72 567.6819283325751  72 564.9  C 72 563.4514285714286  71.1 561  67.5 561  C 63.9 561  63 563.4514285714286  63 564.9  C 63 567.6819283325751  65.7 569.3510853321202  67.5 572.1330136646953  Z " fill-rule="nonzero" fill="#999999" stroke="none" />
  </g>
</svg>