<?xml version="1.0" encoding="utf-8"?>
<svg version="1.1" xmlns:xlink="http://www.w3.org/1999/xlink" width="7px" height="12px" xmlns="http://www.w3.org/2000/svg">
  <g transform="matrix(1 0 0 1 -343 -500 )">
    <path d="M 5.732530295744301 6.00416865631929  C 5.732530295744301 5.9752632023153875  5.720249831722915 5.947541722554677  5.698390634146342 5.927103006651885  L 0.23837060162601656 0.8216297294900222  C 0.0563150569105698 0.6513823503325943  0.0563150569105698 0.37536553436807085  0.23837060162601656 0.20511815521064317  C 0.4204407154471551 0.03488439911308218  0.7156253658536587 0.03488439911308218  0.8976954796747965 0.20511815521064317  L 6.7697880975609745 5.695906057649667  C 6.951858211382113 5.866153436807095  6.951858211382113 6.14217025277162  6.7697880975609745 6.312417631929046  L 0.8977100487804874 11.80320553436807  C 0.7156253658536587 11.973452913525497  0.4204407154471543 11.973452913525497  0.23837060162601573 11.80320553436807  C 0.05631505691056896 11.632958155210643  0.05631505691056896 11.356941339246118  0.23837060162601573 11.186693960088691  L 5.698390634146342 6.081234305986696  C 5.720249831722915 6.060795590083902  5.732530295744301 6.033074110323193  5.732530295744301 6.00416865631929  Z " fill-rule="nonzero" fill="#000000" stroke="none" transform="matrix(1 0 0 1 343 500 )" />
  </g>
</svg>