<?xml version="1.0" encoding="utf-8"?>
<svg version="1.1" xmlns:xlink="http://www.w3.org/1999/xlink" width="10px" height="10px" xmlns="http://www.w3.org/2000/svg">
  <g transform="matrix(1 0 0 1 -378 -1867 )">
    <path d="M 383 1867  C 385.8 1867  388 1869.2  388 1872  C 388 1874.8  385.8 1877  383 1877  C 380.2 1877  378 1874.8  378 1872  C 378 1869.2  380.2 1867  383 1867  Z " fill-rule="nonzero" fill="#0066ff" stroke="none" />
    <path d="M 383 1867.5  C 385.52 1867.5  387.5 1869.48  387.5 1872  C 387.5 1874.52  385.52 1876.5  383 1876.5  C 380.48 1876.5  378.5 1874.52  378.5 1872  C 378.5 1869.48  380.48 1867.5  383 1867.5  Z " stroke-width="1" stroke="#0066ff" fill="none" />
  </g>
</svg>