<?xml version="1.0" encoding="utf-8"?>
<svg version="1.1" xmlns:xlink="http://www.w3.org/1999/xlink" width="16px" height="16px" xmlns="http://www.w3.org/2000/svg">
  <g transform="matrix(1 0 0 1 -375 -1864 )">
    <path d="M 383 1864  C 387.48 1864  391 1867.52  391 1872  C 391 1876.48  387.48 1880  383 1880  C 378.52 1880  375 1876.48  375 1872  C 375 1867.52  378.52 1864  383 1864  Z " fill-rule="nonzero" fill="#ffffff" stroke="none" />
    <path d="M 383 1864.5  C 387.2 1864.5  390.5 1867.8  390.5 1872  C 390.5 1876.2  387.2 1879.5  383 1879.5  C 378.8 1879.5  375.5 1876.2  375.5 1872  C 375.5 1867.8  378.8 1864.5  383 1864.5  Z " stroke-width="1" stroke="#0066ff" fill="none" />
  </g>
</svg>