<?xml version="1.0" encoding="utf-8"?>
<svg version="1.1" xmlns:xlink="http://www.w3.org/1999/xlink" width="55px" height="55px" xmlns="http://www.w3.org/2000/svg">
  <g transform="matrix(1 0 0 1 -1412 -246 )">
    <path d="M 8.348214285714283 17.1875  L 8.348214285714283 8.348214285714283  L 17.1875 8.348214285714283  L 17.1875 17.1875  L 8.348214285714283 17.1875  Z M 8.348214285714283 46.651785714285715  L 8.348214285714283 37.8125  L 17.1875 37.8125  L 17.1875 46.651785714285715  L 8.348214285714283 46.651785714285715  Z M 37.8125 17.1875  L 37.8125 8.348214285714283  L 46.651785714285715 8.348214285714283  L 46.651785714285715 17.1875  L 37.8125 17.1875  Z M 50.089285714285715 45.66964285714286  L 50.089285714285715 50.089285714285715  L 41.25 50.089285714285715  L 41.25 54.50892857142858  L 50.089285714285715 54.50892857142858  C 52.54464285714286 54.50892857142858  54.50892857142858 52.54464285714286  54.50892857142858 50.089285714285715  L 54.50892857142858 45.66964285714286  L 50.089285714285715 45.66964285714286  Z M 4.910714285714286 1  C 2.455357142857143 0.49107142857142855  0.49107142857142855 2.455357142857143  1 4.910714285714286  L 1 25  L 25 25  L 25 1  L 4.910714285714286 1  Z M 21 5  L 21 21  L 5 21  L 5 5  L 21 5  Z M 1 30  L 1 50.089285714285715  C 0.49107142857142855 52.54464285714286  2.455357142857143 54.50892857142858  4.910714285714286 54  L 25 54  L 25 30  L 1 30  Z M 5 50  L 5 34  L 21 34  L 21 50  L 5 50  Z M 29.95535714285714 34  L 29.95535714285714 30  L 45.66964285714286 30  L 45.66964285714286 34  L 29.95535714285714 34  Z M 45.66964285714286 36.33928571428572  L 41.25 36.33928571428572  L 36.33928571428572 36.33928571428572  L 36.33928571428572 41.25  L 41.25 41.25  L 41.25 45.66964285714286  L 45.66964285714286 45.66964285714286  L 45.66964285714286 41.25  L 54.50892857142858 41.25  L 54.50892857142858 36.33928571428572  L 45.66964285714286 36.33928571428572  Z M 29.95535714285714 54.50892857142858  L 29.95535714285714 45.66964285714286  L 34.375 45.66964285714286  L 34.375 54.50892857142858  L 29.95535714285714 54.50892857142858  Z M 36.33928571428572 50.089285714285715  L 36.33928571428572 45.66964285714286  L 40.75892857142858 45.66964285714286  L 40.75892857142858 50.089285714285715  L 36.33928571428572 50.089285714285715  Z M 29.95535714285714 40.75892857142858  L 29.95535714285714 36.33928571428572  L 34.375 36.33928571428572  L 34.375 40.75892857142858  L 29.95535714285714 40.75892857142858  Z M 50.089285714285715 34.375  L 50.089285714285715 29.95535714285714  L 54.50892857142858 29.95535714285714  L 54.50892857142858 34.375  L 50.089285714285715 34.375  Z M 54 4.910714285714286  C 54.50892857142858 2.455357142857143  52.54464285714286 0.49107142857142855  50.089285714285715 1  L 30 1  L 30 25  L 54 25  L 54 4.910714285714286  Z M 50 5  L 50 21  L 34 21  L 34 5  L 50 5  Z " fill-rule="nonzero" fill="#e7772d" stroke="none" transform="matrix(1 0 0 1 1412 246 )" />
  </g>
</svg>