<?xml version="1.0" encoding="utf-8"?>
<svg version="1.1" xmlns:xlink="http://www.w3.org/1999/xlink" width="30px" height="30px" xmlns="http://www.w3.org/2000/svg">
  <g transform="matrix(1 0 0 1 -1145 -626 )">
    <path d="M 30 15.000000000000004  C 30 6.709090898437504  23.2909091015625 0  15 0  C 6.7090908984375 0  0 6.709090898437504  0 15.000000000000004  C 0 23.2909091015625  6.7090908984375 30  15 30  C 23.2909091015625 30  30 23.2909091015625  30 15.000000000000004  Z M 13.036363623046874 18.436363623046876  C 12.818181796875 18.436363623046876  12.627272724609375 18.463636347656255  12.436363623046876 18.463636376953126  C 11.645454521484377 18.463636376953126  11.018181796875 18.300000000000004  10.227272724609374 18.136363623046876  L 8.018181826171876 19.227272724609378  L 8.64545455078125 17.345454550781252  C 7.063636376953125 16.25454544921875  6.136363652343751 14.836363652343751  6.136363623046875 13.090909101562504  C 6.136363623046875 10.090909101562504  8.97272724609375 7.745454550781254  12.436363623046876 7.745454550781254  C 15.518181796875 7.745454550781254  18.245454521484376 9.627272724609378  18.790909101562498 12.16363637695313  C 18.6 12.136363652343753  18.381818203125 12.136363652343753  18.190909101562497 12.136363623046881  C 15.190909101562498 12.136363623046881  12.845454550781248 14.372727246093755  12.845454550781248 17.12727272460938  C 12.845454550781248 17.590909101562506  12.927272724609374 18.02727272460938  13.036363623046874 18.436363623046876  Z M 23.863636376953128 17.07272727539063  C 23.863636376953128 18.463636376953133  22.936363652343754 19.71818182617188  21.65454544921875 20.672727275390628  L 22.118181826171877 22.254545449218753  L 20.400000000000002 21.300000000000004  C 19.772727275390626 21.46363637695313  19.145454550781253 21.62727272460938  18.518181826171876 21.62727272460938  C 15.518181826171878 21.62727272460938  13.17272727539063 19.581818173828133  13.17272727539063 17.07272727539063  C 13.17272727539063 14.563636376953133  15.518181826171878 12.518181826171881  18.518181826171876 12.518181826171881  C 21.35454544921875 12.518181826171881  23.863636376953128 14.563636376953133  23.863636376953128 17.07272727539063  Z " fill-rule="nonzero" fill="#50b674" stroke="none" transform="matrix(1 0 0 1 1145 626 )" />
  </g>
</svg>