<?xml version="1.0" encoding="utf-8"?>
<svg version="1.1" xmlns:xlink="http://www.w3.org/1999/xlink" width="12px" height="18px" xmlns="http://www.w3.org/2000/svg">
  <g transform="matrix(1 0 0 1 -1950 -569 )">
    <path d="M 5.999353448275863 15.400994318181818  L 6 16.03955965909091  L 6.00064655172414 15.400355113636364  L 5.999353448275863 15.400994318181818  Z M 11.818965517241379 1.3295454545454546  C 11.818965517241379 0.6238636363636362  11.239655172413794 0.05113636363636364  10.525862068965518 0.05113636363636364  L 1.4741379310344827 0.05113636363636364  C 0.760344827586207 0.05113636363636364  0.1810344827586207 0.6238636363636362  0.1810344827586207 1.3295454545454546  L 0.1810344827586207 16.670454545454547  C 0.1810344827586207 17.376136363636363  0.760344827586207 17.948863636363637  1.4741379310344827 17.948863636363637  L 10.525862068965518 17.948863636363637  C 11.239655172413794 17.948863636363637  11.818965517241379 17.376136363636363  11.818965517241379 16.670454545454547  L 11.818965517241379 1.3295454545454546  Z M 7.293103448275861 15.400355113636364  C 7.293103448275861 16.10539772727273  6.713146551724138 16.678764204545455  6 16.678764204545455  C 5.2868534482758625 16.678764204545455  4.706896551724138 16.10539772727273  4.706896551724138 15.400355113636364  C 4.706896551724138 14.6953125  5.2868534482758625 14.121946022727276  6 14.121946022727276  C 6.713146551724138 14.121946022727276  7.293103448275861 14.6953125  7.293103448275861 15.400355113636364  Z M 9.879310344827587 1.96875  L 9.879310344827587 12.835227272727272  L 2.1206896551724137 12.835227272727272  L 2.1206896551724137 1.96875  L 9.879310344827587 1.96875  Z " fill-rule="nonzero" fill="#ffffff" stroke="none" transform="matrix(1 0 0 1 1950 569 )" />
  </g>
</svg>