<?xml version="1.0" encoding="utf-8"?>
<svg version="1.1" xmlns:xlink="http://www.w3.org/1999/xlink" width="71px" height="10px" preserveAspectRatio="xMinYMid meet" viewBox="1579 401  71 8" xmlns="http://www.w3.org/2000/svg">
  <path d="M 1648 405  L 1589 405  A 5 5 0 0 1 1584 400 L 1584 355  A 5 5 0 0 0 1579 350 L 1562 350  " stroke-width="2" stroke="#0066ff" fill="none" />
  <path d="M 1646.5 401.5  A 3.5 3.5 0 0 0 1643 405 A 3.5 3.5 0 0 0 1646.5 408.5 A 3.5 3.5 0 0 0 1650 405 A 3.5 3.5 0 0 0 1646.5 401.5 Z M 1569.4 342  L 1560 350  L 1569.4 358  L 1565.8 350  L 1569.4 342  Z " fill-rule="nonzero" fill="#0066ff" stroke="none" />
</svg>