<?xml version="1.0" encoding="utf-8"?>
<svg version="1.1" xmlns:xlink="http://www.w3.org/1999/xlink" width="73px" height="10px" preserveAspectRatio="xMinYMid meet" viewBox="1827 366  73 8" xmlns="http://www.w3.org/2000/svg">
  <path d="M 1898 370  L 1837 370  A 5 5 0 0 0 1832 375 L 1832 840  A 5 5 0 0 0 1837 845 L 1858 845  " stroke-width="2" stroke="#0066ff" fill="none" />
  <path d="M 1896.5 366.5  A 3.5 3.5 0 0 0 1893 370 A 3.5 3.5 0 0 0 1896.5 373.5 A 3.5 3.5 0 0 0 1900 370 A 3.5 3.5 0 0 0 1896.5 366.5 Z M 1850.6 853  L 1860 845  L 1850.6 837  L 1854.2 845  L 1850.6 853  Z " fill-rule="nonzero" fill="#0066ff" stroke="none" />
</svg>