<?xml version="1.0" encoding="utf-8"?>
<svg version="1.1" xmlns:xlink="http://www.w3.org/1999/xlink" width="10px" height="185px" preserveAspectRatio="xMidYMin meet" viewBox="2096 365  8 185" xmlns="http://www.w3.org/2000/svg">
  <path d="M 2148 370  L 2105 370  A 5 5 0 0 0 2100 375 L 2100 540  A 5 5 0 0 0 2105 545 L 2108 545  " stroke-width="2" stroke="#0066ff" fill="none" />
  <path d="M 2146.5 366.5  A 3.5 3.5 0 0 0 2143 370 A 3.5 3.5 0 0 0 2146.5 373.5 A 3.5 3.5 0 0 0 2150 370 A 3.5 3.5 0 0 0 2146.5 366.5 Z M 2100.6 553  L 2110 545  L 2100.6 537  L 2104.2 545  L 2100.6 553  Z " fill-rule="nonzero" fill="#0066ff" stroke="none" />
</svg>