<?xml version="1.0" encoding="utf-8"?>
<svg version="1.1" xmlns:xlink="http://www.w3.org/1999/xlink" width="10px" height="520px" preserveAspectRatio="xMidYMin meet" viewBox="2082 330  8 520" xmlns="http://www.w3.org/2000/svg">
  <path d="M 2148 335  L 2091 335  A 5 5 0 0 0 2086 340 L 2086 840  A 5 5 0 0 0 2091 845 L 2108 845  " stroke-width="2" stroke="#0066ff" fill="none" />
  <path d="M 2146.5 331.5  A 3.5 3.5 0 0 0 2143 335 A 3.5 3.5 0 0 0 2146.5 338.5 A 3.5 3.5 0 0 0 2150 335 A 3.5 3.5 0 0 0 2146.5 331.5 Z M 2100.6 853  L 2110 845  L 2100.6 837  L 2104.2 845  L 2100.6 853  Z " fill-rule="nonzero" fill="#0066ff" stroke="none" />
</svg>