<?xml version="1.0" encoding="utf-8"?>
<svg version="1.1" xmlns:xlink="http://www.w3.org/1999/xlink" width="55px" height="10px" preserveAspectRatio="xMinYMid meet" viewBox="1595 436  55 8" xmlns="http://www.w3.org/2000/svg">
  <path d="M 1648 440  L 1605 440  A 5 5 0 0 0 1600 445 L 1600 540  A 5 5 0 0 0 1605 545 L 1608 545  " stroke-width="2" stroke="#0066ff" fill="none" />
  <path d="M 1646.5 436.5  A 3.5 3.5 0 0 0 1643 440 A 3.5 3.5 0 0 0 1646.5 443.5 A 3.5 3.5 0 0 0 1650 440 A 3.5 3.5 0 0 0 1646.5 436.5 Z M 1600.6 553  L 1610 545  L 1600.6 537  L 1604.2 545  L 1600.6 553  Z " fill-rule="nonzero" fill="#0066ff" stroke="none" />
</svg>