<?xml version="1.0" encoding="utf-8"?>
<svg version="1.1" xmlns:xlink="http://www.w3.org/1999/xlink" width="21px" height="20px" preserveAspectRatio="xMinYMid meet" viewBox="1886 396  21 18" xmlns="http://www.w3.org/2000/svg">
  <path d="M 1898 405  L 1853 405  A 5 5 0 0 0 1848 410 L 1848 540  A 5 5 0 0 0 1853 545 L 1858 545  " stroke-width="2" stroke="#0066ff" fill="none" />
  <path d="M 1896.5 401.5  A 3.5 3.5 0 0 0 1893 405 A 3.5 3.5 0 0 0 1896.5 408.5 A 3.5 3.5 0 0 0 1900 405 A 3.5 3.5 0 0 0 1896.5 401.5 Z M 1850.6 553  L 1860 545  L 1850.6 537  L 1854.2 545  L 1850.6 553  Z " fill-rule="nonzero" fill="#0066ff" stroke="none" />
</svg>