<?xml version="1.0" encoding="utf-8"?>
<svg version="1.1" xmlns:xlink="http://www.w3.org/1999/xlink" width="21px" height="20px" preserveAspectRatio="xMinYMid meet" viewBox="373 1325  21 18" xmlns="http://www.w3.org/2000/svg">
  <defs>
    <mask fill="white" id="clip6234">
      <path d="M 407.5 1320  L 480.5 1320  L 480.5 1348  L 407.5 1348  Z M 370 1317  L 526 1317  L 526 1351  L 370 1351  Z " fill-rule="evenodd" />
    </mask>
  </defs>
  <path d="M 407.5 1334  L 382 1334  M 480.5 1334  L 507 1334  " stroke-width="2" stroke="#0066ff" fill="none" />
  <path d="M 383.5 1330.5  A 3.5 3.5 0 0 0 380 1334 A 3.5 3.5 0 0 0 383.5 1337.5 A 3.5 3.5 0 0 0 387 1334 A 3.5 3.5 0 0 0 383.5 1330.5 Z M 499.6 1342  L 509 1334  L 499.6 1326  L 503.2 1334  L 499.6 1342  Z " fill-rule="nonzero" fill="#0066ff" stroke="none" mask="url(#clip6234)" />
</svg>