<?xml version="1.0" encoding="utf-8"?>
<svg version="1.1" xmlns:xlink="http://www.w3.org/1999/xlink" width="16px" height="13px" xmlns="http://www.w3.org/2000/svg">
  <g transform="matrix(1 0 0 1 -1779 -119 )">
    <path d="M 15.97377049180328 3.1310819672131145  C 15.97377049180328 2.114950819672131  14.958163934426231 1.2965901639344262  13.71593442622951 1.2965901639344262  L 11.777049180327868 1.2965901639344262  L 11.777049180327868 0.5464262295081967  C 11.777049180327868 0.24636065573770494  11.474885245901639 0.0008524590163934434  11.105573770491802 0.0008524590163934434  C 10.736262295081966 0.0008524590163934434  10.434098360655737 0.24636065573770485  10.434098360655737 0.5464262295081967  L 10.434098360655737 1.2965901639344262  L 5.565901639344262 1.2965901639344262  L 5.565901639344262 0.5464262295081967  C 5.565901639344262 0.24636065573770494  5.263737704918032 0.0008524590163934434  4.894426229508197 0.0008524590163934434  C 4.525114754098361 0.0008524590163934434  4.222950819672132 0.24636065573770485  4.222950819672132 0.5464262295081967  L 4.222950819672132 1.2965901639344262  L 2.284065573770492 1.2965901639344262  C 1.0418360655737706 1.2965901639344262  0.026229508196721336 2.114950819672131  0.026229508196721336 3.1310819672131145  L 0.026229508196721336 11.123737704918032  C 0.026229508196721336 12.133049180327868  1.0418360655737704 12.958229508196721  2.284065573770492 13  L 13.71593442622951 13  C 14.95816393442623 12.958229508196721  15.97377049180328 12.133049180327868  15.97377049180328 11.123737704918032  L 15.97377049180328 3.1310819672131145  Z M 14.63081967213115 3.1310819672131145  L 14.630819672131148 11.123737704918032  C 14.630819672131148 11.532918032786887  14.219540983606558 11.867081967213116  13.71593442622951 11.867081967213116  L 2.284065573770492 11.867081967213116  C 1.7804590163934426 11.867081967213116  1.3691803278688526 11.532918032786887  1.3691803278688526 11.123737704918032  L 1.3691803278688526 3.1310819672131145  C 1.3691803278688526 2.7219016393442623  1.7804590163934426 2.387737704918033  2.284065573770492 2.387737704918033  L 4.222950819672132 2.387737704918033  L 4.222950819672132 3.1379016393442623  C 4.222950819672132 3.4379672131147547  4.525114754098361 3.6834754098360656  4.894426229508197 3.6834754098360656  C 5.263737704918032 3.6834754098360656  5.565901639344262 3.437967213114754  5.565901639344262 3.1379016393442623  L 5.565901639344262 2.387737704918033  L 10.434098360655739 2.387737704918033  L 10.434098360655739 3.1379016393442623  C 10.434098360655739 3.4379672131147547  10.736262295081968 3.6834754098360656  11.105573770491803 3.6834754098360656  C 11.47488524590164 3.6834754098360656  11.77704918032787 3.437967213114754  11.77704918032787 3.1379016393442623  L 11.77704918032787 2.387737704918033  L 13.715934426229511 2.387737704918033  C 14.21954098360656 2.387737704918033  14.63081967213115 2.7219016393442623  14.63081967213115 3.1310819672131145  Z " fill-rule="nonzero" fill="#999999" stroke="none" transform="matrix(1 0 0 1 1779 119 )" />
  </g>
</svg>