<?xml version="1.0" encoding="utf-8"?>
<svg version="1.1" xmlns:xlink="http://www.w3.org/1999/xlink" width="12px" height="12px" xmlns="http://www.w3.org/2000/svg">
  <g transform="matrix(1 0 0 1 -744 -769 )">
    <path d="M 750 769  C 753.36 769  756 771.64  756 775  C 756 778.36  753.36 781  750 781  C 746.64 781  744 778.36  744 775  C 744 771.64  746.64 769  750 769  Z " fill-rule="nonzero" fill="#ffffff" stroke="none" />
    <path d="M 750 769.5  C 753.08 769.5  755.5 771.92  755.5 775  C 755.5 778.08  753.08 780.5  750 780.5  C 746.92 780.5  744.5 778.08  744.5 775  C 744.5 771.92  746.92 769.5  750 769.5  Z " stroke-width="1" stroke="#797979" fill="none" />
  </g>
</svg>