<?xml version="1.0" encoding="utf-8"?>
<svg version="1.1" xmlns:xlink="http://www.w3.org/1999/xlink" width="20px" height="20px" xmlns="http://www.w3.org/2000/svg">
  <g transform="matrix(1 0 0 1 -717 -838 )">
    <path d="M 727 838  C 732.6 838  737 842.4  737 848  C 737 853.6  732.6 858  727 858  C 721.4 858  717 853.6  717 848  C 717 842.4  721.4 838  727 838  Z " fill-rule="nonzero" fill="#d7d7d7" stroke="none" />
    <path d="M 727 838.5  C 732.32 838.5  736.5 842.68  736.5 848  C 736.5 853.32  732.32 857.5  727 857.5  C 721.68 857.5  717.5 853.32  717.5 848  C 717.5 842.68  721.68 838.5  727 838.5  Z " stroke-width="1" stroke="#797979" fill="none" />
  </g>
</svg>