<?xml version="1.0" encoding="utf-8"?>
<svg version="1.1" xmlns:xlink="http://www.w3.org/1999/xlink" width="8px" height="15px" xmlns="http://www.w3.org/2000/svg">
  <g transform="matrix(1 0 0 1 -318 -10 )">
    <path d="M 7.732142857142857 14.405691964285715  C 7.625 14.455915178571429  7.517857142857143 14.506138392857144  7.4375 14.506138392857144  C 7.330357142857145 14.506138392857144  7.223214285714287 14.481026785714285  7.142857142857143 14.405691964285715  L 0.20535714285714388 7.876674107142857  C 0.09821428571428623 7.776227678571429  0.04464285714285816 7.625558035714286  0.04464285714285816 7.5  C 0.04464285714285816 7.374441964285714  0.09821428571428623 7.223772321428572  0.20535714285714388 7.123325892857142  L 7.142857142857143 0.5943080357142857  C 7.303571428571429 0.44363839285714285  7.544642857142857 0.44363839285714285  7.705357142857143 0.5943080357142857  C 7.866071428571431 0.7449776785714285  7.866071428571431 0.9709821428571429  7.705357142857143 1.1216517857142856  L 0.9285714285714286 7.5  L 7.732142857142857 13.878348214285715  C 7.892857142857143 14.029017857142856  7.892857142857143 14.255022321428571  7.732142857142857 14.405691964285715  Z " fill-rule="nonzero" fill="#555555" stroke="none" transform="matrix(1 0 0 1 318 10 )" />
  </g>
</svg>