<?xml version="1.0" encoding="utf-8"?>
<svg version="1.1" xmlns:xlink="http://www.w3.org/1999/xlink" width="140px" height="140px" xmlns="http://www.w3.org/2000/svg">
  <defs>
    <mask fill="white" id="clip5276">
      <path d="M 139.99981524456143 139.76485029316882  C 139.9999383999202 139.84321669889084  140 139.9215999494346  139.99981524456143 139.76485029316882  Z M 106.21518987341733 140  C 106.21518987341733 70.33367590271075  69.52309811682244 15.5246886826518  0 15.003772059499056  L 0 0  C 78.32159994943413 0  124.23561778828935 61.47686152061942  124.3586497890292 140  L 106.21518987341733 140  Z " fill-rule="evenodd" />
    </mask>
  </defs>
  <g transform="matrix(1 0 0 1 -1758 -2212 )">
    <path d="M 139.99981524456143 139.76485029316882  C 139.9999383999202 139.84321669889084  140 139.9215999494346  139.99981524456143 139.76485029316882  Z M 106.21518987341733 140  C 106.21518987341733 70.33367590271075  69.52309811682244 15.5246886826518  0 15.003772059499056  L 0 0  C 78.32159994943413 0  124.23561778828935 61.47686152061942  124.3586497890292 140  L 106.21518987341733 140  Z " fill-rule="nonzero" fill="#ffffff" stroke="none" transform="matrix(1 0 0 1 1758 2212 )" />
    <path d="M 139.99981524456143 139.76485029316882  C 139.9999383999202 139.84321669889084  140 139.9215999494346  139.99981524456143 139.76485029316882  Z " stroke-width="32" stroke="#797979" fill="none" transform="matrix(1 0 0 1 1758 2212 )" mask="url(#clip5276)" />
    <path d="M 106.21518987341733 140  C 106.21518987341733 70.33367590271075  69.52309811682244 15.5246886826518  0 15.003772059499056  L 0 0  C 78.32159994943413 0  124.23561778828935 61.47686152061942  124.3586497890292 140  L 106.21518987341733 140  Z " stroke-width="32" stroke="#797979" fill="none" transform="matrix(1 0 0 1 1758 2212 )" mask="url(#clip5276)" />
  </g>
</svg>