<?xml version="1.0" encoding="utf-8"?>
<svg version="1.1" xmlns:xlink="http://www.w3.org/1999/xlink" width="400px" height="400px" xmlns="http://www.w3.org/2000/svg">
  <defs>
    <mask fill="white" id="clip5274">
      <path d="M 200 400  C 88 400  0 312  0 200  C 0 199.88817912868035  8.771873672230868E-05 199.7763821806526  0.00026309251734346617 199.66460921961027  C 0.1757424353654642 87.82436920666328  88.11182087131965 0  200 0  C 312 0  400 88  400 200  C 400 312  312 400  200 400  Z M 0.0002639363401613082 200  L 14.000245461113082 200  C 14.000081840211351 199.79170205139485  14.000000000000002 199.89583986566868  14.000000000000002 200  C 14.000000000000002 304.1600000000001  95.84000000000015 386  200 386  C 304.15999999999985 386  386 304.1600000000001  386 200  C 386 95.84000000000003  304.15999999999985 14.000000000000002  200 13.999929687064421  L 200 0.0002641163673615665  C 88.1120000722367 0  0.17602411354528158 87.82408788659927  0.0002639363401613082 200  Z " fill-rule="evenodd" />
    </mask>
  </defs>
  <g transform="matrix(1 0 0 1 -1560 -2141 )">
    <path d="M 200 400  C 88 400  0 312  0 200  C 0 199.88817912868035  8.771873672230868E-05 199.7763821806526  0.00026309251734346617 199.66460921961027  C 0.1757424353654642 87.82436920666328  88.11182087131965 0  200 0  C 312 0  400 88  400 200  C 400 312  312 400  200 400  Z M 0.0002639363401613082 200  L 14.000245461113082 200  C 14.000081840211351 199.79170205139485  14.000000000000002 199.89583986566868  14.000000000000002 200  C 14.000000000000002 304.1600000000001  95.84000000000015 386  200 386  C 304.15999999999985 386  386 304.1600000000001  386 200  C 386 95.84000000000003  304.15999999999985 14.000000000000002  200 13.999929687064421  L 200 0.0002641163673615665  C 88.1120000722367 0  0.17602411354528158 87.82408788659927  0.0002639363401613082 200  Z " fill-rule="nonzero" fill="#ffffff" stroke="none" transform="matrix(1 0 0 1 1560 2141 )" />
    <path d="M 200 400  C 88 400  0 312  0 200  C 0 199.88817912868035  8.771873672230868E-05 199.7763821806526  0.00026309251734346617 199.66460921961027  C 0.1757424353654642 87.82436920666328  88.11182087131965 0  200 0  C 312 0  400 88  400 200  C 400 312  312 400  200 400  Z " stroke-width="32" stroke="#797979" fill="none" transform="matrix(1 0 0 1 1560 2141 )" mask="url(#clip5274)" />
    <path d="M 0.0002639363401613082 200  L 14.000245461113082 200  C 14.000081840211351 199.79170205139485  14.000000000000002 199.89583986566868  14.000000000000002 200  C 14.000000000000002 304.1600000000001  95.84000000000015 386  200 386  C 304.15999999999985 386  386 304.1600000000001  386 200  C 386 95.84000000000003  304.15999999999985 14.000000000000002  200 13.999929687064421  L 200 0.0002641163673615665  C 88.1120000722367 0  0.17602411354528158 87.82408788659927  0.0002639363401613082 200  Z " stroke-width="32" stroke="#797979" fill="none" transform="matrix(1 0 0 1 1560 2141 )" mask="url(#clip5274)" />
  </g>
</svg>