<?xml version="1.0" encoding="utf-8"?>
<svg version="1.1" xmlns:xlink="http://www.w3.org/1999/xlink" width="75px" height="75px" xmlns="http://www.w3.org/2000/svg">
  <defs>
    <mask fill="white" id="clip5277">
      <path d="M 0 16  C 33.23220798719285 16  59.42117842525204 41.825204346820094  59.99053540523254 74.89923731835972  L 74.99990102387255 74.87402694276898  C 74.93399095742097 32.934032957474756  41.95799997291124 0  0 9.904363776058744E-05  L 0 16  Z " fill-rule="evenodd" />
    </mask>
  </defs>
  <g transform="matrix(1 0 0 1 -1758 -2245 )">
    <path d="M 0 16  C 33.23220798719285 16  59.42117842525204 41.825204346820094  59.99053540523254 74.89923731835972  L 74.99990102387255 74.87402694276898  C 74.93399095742097 32.934032957474756  41.95799997291124 0  0 9.904363776058744E-05  L 0 16  Z " fill-rule="nonzero" fill="#ffffff" stroke="none" transform="matrix(1 0 0 1 1758 2245 )" />
    <path d="M 0 16  C 33.23220798719285 16  59.42117842525204 41.825204346820094  59.99053540523254 74.89923731835972  L 74.99990102387255 74.87402694276898  C 74.93399095742097 32.934032957474756  41.95799997291124 0  0 9.904363776058744E-05  L 0 16  Z " stroke-width="32" stroke="#797979" fill="none" transform="matrix(1 0 0 1 1758 2245 )" mask="url(#clip5277)" />
  </g>
</svg>