<?xml version="1.0" encoding="utf-8"?>
<svg version="1.1" xmlns:xlink="http://www.w3.org/1999/xlink" width="160px" height="320px" xmlns="http://www.w3.org/2000/svg">
  <defs>
    <mask fill="white" id="clip5275">
      <path d="M 0.26874252209199767 319.99978885092764  C 0.17918091555293358 319.99992959990914  0.08960005778862978 320  0.26874252209199767 319.99978885092764  Z M 144 160  C 144 79.13362927680635  80.7231975252007 15.524568319466994  0 15.003616873153419  L 0 0  C 89.60000000000036 0  160 70.39999999999998  160 160  C 160 249.51039994221105  89.7407296907204 319.8591807091641  0 319.99978853814935  L 0 304.9967720605032  C 80.72319752544536 304.47543168028733  144 240.86637072303745  144 160  Z " fill-rule="evenodd" />
    </mask>
  </defs>
  <g transform="matrix(1 0 0 1 -1758 -2172 )">
    <path d="M 0.26874252209199767 319.99978885092764  C 0.17918091555293358 319.99992959990914  0.08960005778862978 320  0.26874252209199767 319.99978885092764  Z M 144 160  C 144 79.13362927680635  80.7231975252007 15.524568319466994  0 15.003616873153419  L 0 0  C 89.60000000000036 0  160 70.39999999999998  160 160  C 160 249.51039994221105  89.7407296907204 319.8591807091641  0 319.99978853814935  L 0 304.9967720605032  C 80.72319752544536 304.47543168028733  144 240.86637072303745  144 160  Z " fill-rule="nonzero" fill="#ffffff" stroke="none" transform="matrix(1 0 0 1 1758 2172 )" />
    <path d="M 0.26874252209199767 319.99978885092764  C 0.17918091555293358 319.99992959990914  0.08960005778862978 320  0.26874252209199767 319.99978885092764  Z " stroke-width="32" stroke="#797979" fill="none" transform="matrix(1 0 0 1 1758 2172 )" mask="url(#clip5275)" />
    <path d="M 144 160  C 144 79.13362927680635  80.7231975252007 15.524568319466994  0 15.003616873153419  L 0 0  C 89.60000000000036 0  160 70.39999999999998  160 160  C 160 249.51039994221105  89.7407296907204 319.8591807091641  0 319.99978853814935  L 0 304.9967720605032  C 80.72319752544536 304.47543168028733  144 240.86637072303745  144 160  Z " stroke-width="32" stroke="#797979" fill="none" transform="matrix(1 0 0 1 1758 2172 )" mask="url(#clip5275)" />
  </g>
</svg>