<?xml version="1.0" encoding="utf-8"?>
<svg version="1.1" xmlns:xlink="http://www.w3.org/1999/xlink" width="40px" height="40px" xmlns="http://www.w3.org/2000/svg">
  <g transform="matrix(1 0 0 1 -1413 -384 )">
    <path d="M 39.85250571428572 20.033851339285714  C 39.85250571428572 30.983410401785715  30.966142098214288 39.86141397321428  20.003608973214284 39.86141397321428  C 9.042080892857141 39.86141397321428  0.15886941964285434 30.983364732142856  0.15886941964285434 20.033851339285714  C 0.15886941964285434 11.629172589285714  5.390202589285712 4.448669508928574  12.778290580357138 1.5629917410714307  C 15.010559955357138 0.6624822767857161  17.44931790178571 0.16517375000000217  20.004111473214287 0.16517375000000217  C 22.5620571875 0.16517375000000217  24.998713705357144 0.6619797767857165  27.23308450892857 1.5629917410714307  C 34.620715714285716 4.448669508928571  39.85250571428572 11.62921825892857  39.85250571428572 20.033851339285714  Z M 12.375637901785714 15.852320714285714  C 12.375637901785714 19.193689553571428  14.087665714285716 22.086630982142857  16.576401205357143 23.502676651785713  C 17.608524285714285 24.08998129464286  18.77066205357143 24.428677410714286  20.003608973214284 24.428677410714286  C 21.19329379464286 24.428677410714286  22.314910491071423 24.11186366071429  23.31998901785714 23.564577544642866  C 25.867518928571428 22.17557642857144  27.634732187500003 19.247276116071433  27.634732187500003 15.852868928571432  C 27.634732187500003 11.12665616071429  24.212229776785716 7.279664419642861  20.003654642857143 7.279664419642861  C 15.797637767857143 7.279161875  12.375637901785714 11.126199285714284  12.375637901785714 15.852320714285714  Z M 20.084240044642854 38.57652513392857  C 25.882594464285717 38.57652513392857  31.055087544642856 35.90989883928571  34.4453375 31.736728214285712  C 34.04483191964286 28.444788705357137  30.83708674107143 25.642391607142855  26.297216205357145 24.24452794642857  C 24.58258441964286 25.78697928571429  22.39193254464286 26.715081473214287  20.003060803571422 26.715081473214287  C 17.561150714285713 26.715081473214287  15.325820535714282 25.737047455357143  13.594514374999996 24.127487276785715  C 9.178354241071425 25.387935535714284  5.9436559374999955 27.95890102678571  5.185221607142854 31.039600848214285  C 8.54943205357143 35.609713750000004  13.97167575892857 38.57652513392857  20.084240044642854 38.57652513392857  Z " fill-rule="nonzero" fill="#cccccc" stroke="none" transform="matrix(1 0 0 1 1413 384 )" />
  </g>
</svg>