<?xml version="1.0" encoding="utf-8"?>
<svg version="1.1" xmlns:xlink="http://www.w3.org/1999/xlink" width="20px" height="21px" preserveAspectRatio="xMidYMin meet" viewBox="808 167  18 21" xmlns="http://www.w3.org/2000/svg">
  <path d="M 817 179  L 817 154.66666666666674  A 5 5 0 0 1 822 149.66666666666674 L 1897 149.66666666666674  A 5 5 0 0 1 1902 154.66666666666674 L 1902 163  " stroke-width="2" stroke="#e7772d" fill="none" />
  <path d="M 817 174  A 3.5 3.5 0 0 0 813.5 177.5 A 3.5 3.5 0 0 0 817 181 A 3.5 3.5 0 0 0 820.5 177.5 A 3.5 3.5 0 0 0 817 174 Z M 1894 155.6  L 1902 165  L 1910 155.6  L 1902 159.2  L 1894 155.6  Z " fill-rule="nonzero" fill="#e7772d" stroke="none" />
</svg>