<?xml version="1.0" encoding="utf-8"?>
<svg version="1.1" xmlns:xlink="http://www.w3.org/1999/xlink" width="14px" height="6px" xmlns="http://www.w3.org/2000/svg">
  <g transform="matrix(1 0 0 1 -862 -1441 )">
    <path d="M 12.976292184210525 5.350230546875  C 12.489811096491227 5.762511015625  11.86099392763158 5.97275246875  11.130023425438596 5.97275246875  C 10.871647592105264 5.97275246875  10.600547739035088 5.946498265625001  10.31837330263158 5.893622125  C 9.001360267543859 5.646717531250001  7.99561409868421 4.597333015625001  7.04225626754386 3.5142913124999993  C 6.080478603070176 4.602449546874999  5.0605160942982454 5.646765499999999  3.7023621250000005 5.8938939375  C 2.616847440789474 6.0914080156249995  1.6958022850877197 5.8999698125  1.038850934210527 5.34020534375  C 0.4222393859649128 4.8148175625  0.09630064254386021 4.008915953124999  0.09630064254386021 3.009641468750001  C 0.09630064254386021 2.0015089843750005  0.42982664912280766 1.1882683593750007  1.0608430307017547 0.6578599843750013  C 1.7235594649122812 0.10074970312500131  2.6384625350877196 -0.08307765624999863  3.7063992368421053 0.1261884531250015  C 5.054185515350878 0.39028139062500156  6.07370816008772 1.4715482968750013  7.04264897368421 2.5749122187500015  C 7.997232081140351 1.4872016875000016  8.997605903508772 0.4096442656250012  10.31051896491228 0.12729170312500138  C 11.346896995614033 -0.0955492031249987  12.27961366885965 0.08036351562500155  12.936753528508772 0.6226838281250018  C 13.574697423245613 1.1491588750000021  13.926037032894737 1.9968561406250016  13.926037032894737 3.009641468750001  C 13.926037032894737 4.014272328125001  13.597616328947367 4.82362759375  12.976292184210525 5.350230546875  Z M 10.437523403508772 0.7390529374999986  C 9.293996664473685 0.9849661875000004  8.393262807017544 1.972680515625  7.453917087719298 3.044897562499999  C 8.385015763157895 4.105698343749999  9.287179125 5.064472296875  10.429653361842103 5.278647078124999  C 11.324810660087717 5.44653325  12.069510526315787 5.305029187499999  12.583183298245613 4.869708343749998  C 13.05978367105263 4.465742234374998  13.311718967105262 3.8225463124999983  13.311718967105262 3.0096254843749985  C 13.311718967105262 2.177133906249999  13.048269239035085 1.5196756718749986  12.549865263157894 1.108354546874999  C 12.031966855263155 0.6809483281249991  11.301514736842105 0.5532109374999994  10.437523403508772 0.7390529374999986  Z M 3.590249495614036 0.7401561718750003  C 3.3435608837719295 0.6918369374999997  3.1079782938596487 0.667837203125  2.8853867675438596 0.667837203125  C 2.3119897039473685 0.667837203125  1.8242676052631575 0.8270572500000002  1.4520197785087716 1.1399650937499999  C 0.9669838684210521 1.5476726718749996  0.7106187236842102 2.1942103125  0.7106187236842102 3.009641453124999  C 0.7106187236842102 3.8178934531249986  0.9604804692982453 4.4580034687499985  1.4331851118421048 4.860754406249999  C 1.9461981337719292 5.297866046874999  2.693537046052631 5.442280125  3.594270918859649 5.2783912499999985  C 4.77882863377193 5.062841390624998  5.693684561403509 4.108800234374998  6.631113831140351 3.044545796874999  C 5.680882006578948 1.9600011249999998  4.764360953947368 0.970240171875  3.590249495614036 0.7401561718750003  Z " fill-rule="nonzero" fill="#272636" stroke="none" transform="matrix(1 0 0 1 862 1441 )" />
  </g>
</svg>