<?xml version="1.0" encoding="utf-8"?>
<svg version="1.1" xmlns:xlink="http://www.w3.org/1999/xlink" width="17px" height="14px" xmlns="http://www.w3.org/2000/svg">
  <g transform="matrix(1 0 0 1 -862 -1387 )">
    <path d="M 8.53861729050926 8.042533340624997  L 14.933135809027778 1  L 1.7839506238425924 1  C 1.7125925925925924 0.9333333406250004  1.642913586805555 0.9431333406250004  1.5761728460648146 0.9622666593750002  L 7.945086413194444 8.042533340624997  C 8.108999931104709 8.224711592257957  8.374703772598993 8.224711592257957  8.53861729050926 8.042533340624997  Z M 15.841061734953703 1.2436666593750003  L 10.711679005787037 6.9463333406249985  L 15.885135809027776 12.697533340624998  C 15.992172846064815 12.540733340624996  16.055555555555554 12.345199999999997  16 12.133333340624997  L 16 1.866666659375  C 16.055555555555554 1.6272666593749998  15.974543216435185 1.4093333187499997  15.84148148148148 1.2436666593750003  Z M 15.03009877199074 13  L 15.029679005787036 13.066666659375  L 10.118567894675923 7.6062  L 9.132148148148147 8.702866659375  C 8.895985098735379 8.965468878743009  8.575655255035509 9.113001008840603  8.241641978587962 9.113001008840603  C 7.907628702140415 9.113001008840603  7.587298858440545 8.965468878743009  7.351135809027776 8.702866659375  L 6.365135809027776 7.6062  L 1.502716042824074 13.013  C 1.590864190972222 13.047533340625  1.6853086354166666 13.066666659375  1.7843703703703702 13  L 15.03009877199074 13  Z M 1 12.133333340624999  C 0.9444444444444444 12.189333340624998  0.9486419687500002 12.244866681249999  0.9574567835648151 12.298533340625  L 5.771604931712963 6.9458666593750005  L 0.9755061793981474 1.6146666593749994  C 0.9548675464974871 1.6966995941482783  0.9444168057391817 1.7814851566745915  1 1.866666659375  L 1 12.133333340624999  Z M 1.7839506238425924 0  L 15.216049376157407 0  C 16.14334230550724 0  16.895061734953703 0.8357351303845949  16.895061734953703 1.866666659375  L 16.895061734953703 12.133333340624997  C 16.895061734953703 13.164264869615405  16.14334230550724 14  15.216049395833332 14  L 1.7839506238425924 14  C 0.8566576944927575 14  0.10493826504629622 13.164264869615405  0.10493826504629622 12.133333340624999  L 0.10493826504629594 1.866666659375  C 0.10493826504629622 0.8357351303845949  0.8566576944927575 0  1.7839506041666664 0  Z " fill-rule="nonzero" fill="#e7772d" stroke="none" transform="matrix(1 0 0 1 862 1387 )" />
  </g>
</svg>