<?xml version="1.0" encoding="utf-8"?>
<svg version="1.1" xmlns:xlink="http://www.w3.org/1999/xlink" width="14px" height="14px" xmlns="http://www.w3.org/2000/svg">
  <g transform="matrix(1 0 0 1 -862 -1412 )">
    <path d="M 3.28125 4.893938144329896  C 3.329083333333334 4.128989690721649  3.887916666666666 1.2337319587628859  7.4375 1.2337319587628863  C 10.987666666666666 1.2337319587628863  11.167916666666667 4.37261855670103  11.363333333333333 4.990927835051546  C 11.363333333333333 4.990927835051546  11.643333333333333 5.29979381443299  11.709833333333334 5.770886597938144  C 11.753000000000002 6.075134020618555  11.578000000000001 6.420371134020618  11.578000000000001 6.420371134020618  C 11.578000000000001 6.420371134020618  12.712583333333335 7.933525773195874  12.712583333333335 9.122226804123711  C 12.712583333333335 9.864082474226803  12.491500000000002 10.24742268041237  12.234250000000001 10.24742268041237  C 11.974083333333333 10.24742268041237  11.596083333333334 9.462268041237115  11.596083333333334 9.462268041237115  C 11.596083333333334 9.462268041237115  11.003416666666666 10.714474226804123  10.707083333333333 10.894597938144331  C 10.411333333333332 11.072989690721652  11.77575 11.269278350515465  11.77575 11.85294845360825  C 11.77575 12.439505154639178  10.691333333333336 12.698721649484538  9.805250000000001 12.698721649484538  C 8.91625 12.698721649484538  7.503416666666666 12.243216494845361  7.503416666666666 12.243216494845361  L 6.993 12.22762886597938  C 6.993 12.22762886597938  6.599249999999999 12.780123711340206  4.971749999999999 12.780123711340206  C 3.3448333333333333 12.780123711340206  2.638416666666666 12.342515463917527  2.638416666666666 11.82177319587629  C 2.638416666666666 11.120329896907217  3.6755833333333334 11.025072164948455  3.6755833333333334 11.025072164948455  C 3.6755833333333334 11.025072164948455  3.014666666666666 10.842639175257734  2.456416666666667 9.296000000000001  C 2.456416666666667 9.296000000000001  2.0690833333333334 10.130226804123712  1.5219166666666668 10.130226804123712  C 1.5219166666666668 10.130226804123712  1.2920833333333333 9.994556701030929  1.2920833333333333 9.23538144329897  C 1.2920833333333333 7.662762886597938  2.4336666666666664 6.896082474226804  2.925416666666667 6.42498969072165  C 2.925416666666667 6.42498969072165  2.84375 6.219463917525773  2.8869166666666666 5.964865979381443  C 2.9347500000000006 5.680824742268041  3.1056666666666666 5.509360824742268  3.1056666666666666 5.509360824742268  C 3.1056666666666666 5.509360824742268  3.0415000000000005 5.168742268041237  3.28125 4.893938144329896  Z M 12.430250000000001 4.433814432989688  C 11.819500000000001 1.5425979381443298  10.13775 0.07909278350515465  7.4375 0.07909278350515388  C 3.7053333333333334 0.07909278350515388  2.381166666666667 2.7289896907216487  2.1466666666666665 4.505979381443299  C 2.0346666666666664 4.722474226804124  1.971083333333333 4.945319587628865  1.9459999999999997 5.155463917525774  C 1.8136749378032855 5.402900210459023  1.7344351358285275 5.674726942975484  1.7132499999999995 5.953896907216494  C 1.0663333333333331 6.542185567010309  0.12541666666666634 7.545567010309279  0.12541666666666634 9.23480412371134  C 0.12541666666666634 10.407340206185566  0.560583333333333 10.908453608247422  0.9274999999999999 11.122639175257731  L 1.2010833333333333 11.284288659793814  L 1.5516666666666667 11.284288659793814  C 1.499166666666667 11.44940206185567  1.4717499999999997 11.627793814432987  1.4717499999999997 11.821195876288659  C 1.4717499999999997 12.317690721649484  1.7249166666666664 13.937072164948454  4.971749999999999 13.937072164948454  C 6.161749999999999 13.937072164948454  6.904333333333334 13.681896907216494  7.359916666666667 13.409402061855669  C 7.83825 13.551422680412369  8.957083333333333 13.853938144329895  9.802916666666667 13.853938144329895  C 11.710416666666667 13.853938144329895  12.943 13.068783505154636  12.943 11.852948453608246  C 12.943 11.63645360824742  12.899249999999999 11.444783505154636  12.828666666666665 11.273319587628862  C 13.391583333333331 11.021030927835048  13.876916666666666 10.36923711340206  13.876916666666666 9.12222680412371  C 13.876916666666666 8.028206185567008  13.266166666666665 6.880494845360822  12.851416666666667 6.2263917525773165  C 12.883499999999998 6.039340206185564  12.894583333333333 5.829773195876285  12.865416666666668 5.613278350515462  C 12.80714495641172 5.216965381267755  12.663299227971805 4.837725105132711  12.443666666666667 4.501360824742266  L 12.430250000000001 4.433814432989688  Z " fill-rule="nonzero" fill="#000000" stroke="none" transform="matrix(1 0 0 1 862 1412 )" />
  </g>
</svg>