<?xml version="1.0" encoding="utf-8"?>
<svg version="1.1" xmlns:xlink="http://www.w3.org/1999/xlink" width="14px" height="14px" xmlns="http://www.w3.org/2000/svg">
  <g transform="matrix(1 0 0 1 -862 -1337 )">
    <path d="M 13.826800458333333 11.549849622499998  C 14.006195051470588 11.153477055  14.091889428921569 10.576181437499999  13.794934999999999 10.140662315  L 13.578214794117647 9.856589959999999  L 13.570244041666667 9.847958364999998  C 13.499490443627451 9.772243932499999  13.29872931127451 9.5639039125  12.97040100245098 9.276267892499998  C 12.577797544117647 8.9317207  11.87731936519608 8.423549399999999  11.822050796568629 8.385924977499997  L 10.842069583333334 7.782233164999998  C 10.66220094607843 7.690240494999998  10.471394465686275 7.670953727499997  10.342861700980393 7.670953727499997  C 10.203355973039217 7.670953727499997  10.065851713235295 7.693822062499998  9.945781279411765 7.736997904999997  C 9.521821509803923 7.887925342499997  9.126233409313725 8.569390987499999  9.016135178921568 8.775188099999996  C 8.965290901960785 8.870225104999998  8.909513186274511 8.984065352499996  8.86167112009804 9.084170287499996  L 8.8462387622549 9.115688119999996  C 8.786458110294115 9.237139222499998  8.719672345588235 9.373310572499996  8.648936299019608 9.505954079999997  C 8.579165875000001 9.634013182499999  8.429740598039215 9.764113764999998  8.27826118137255 9.764113764999998  C 8.231454960784314 9.764113764999998  8.187615813725492 9.752419932499997  8.145286556372549 9.728029429999998  C 7.4886124044117635 9.343332809999998  6.710937316176469 8.845351077499998  5.917777198529411 8.065786189999997  C 5.022998767156861 7.1856328599999975  4.491890306372548 6.489948359999999  4.19795562254902 5.8110435424999975  C 4.180030200980392 5.764536837499997  4.182014117647058 5.553904597499997  4.298590762254901 5.495202649999998  C 4.459515700980392 5.413381644999998  4.590541529411765 5.359783432499998  4.706117431372548 5.312005264999998  L 4.7330318823529405 5.300060727499997  C 4.899434509803921 5.231205017499998  5.057357237745097 5.166145757499998  5.237208323529411 5.054364909999998  C 5.3149143799019605 5.003291702499998  5.356278031862745 4.979921939999997  5.391654830882352 4.959578609999998  L 5.40958025245098 4.948672732499998  C 5.474347014705882 4.912839102499998  5.535128392156862 4.878527657499998  5.721457892156863 4.750486457499998  C 5.729446196078431 4.744630589999997  5.76331312254902 4.7161749949999985  5.799181517156863 4.684925787499998  L 5.9187428039215675 4.574631284999998  C 6.231129590686274 4.2674577924999975  6.3337661985294105 3.8154097099999973  6.179811286764706 3.4241409124999977  L 6.126017487745099 3.2658533599999977  C 6.125016762254901 3.261770364999997  5.926731107843137 2.791205567499998  5.608866632352941 2.2319789624999977  C 5.4544201249999995 1.961373312499998  5.220248541666666 1.6015686224999979  5.012991426470587 1.315992002499998  C 4.453019718137254 0.545846647499998  3.934885671568627 0.2996314999999981  3.9323926249999985 0.2986465649999979  C 3.926914919117646 0.2955843274999981  3.792395301470587 0.222663524999998  3.70970313480392 0.18430488999999792  C 3.3719117696078427 0.03692321499999778  2.990263705882352 0.042241849999997784  2.6495052499999985 0.19470935749999804  C 2.14034269852941 0.38985129749999814  1.827955911764704 0.6561232474999983  1.4956597867647046 0.939192764999998  L 1.422904720588234 1.0026940349999982  C 0.4364450759803912 1.8427158574999982  -0.09787626470588347 2.9385872599999985  0.028163453431371267 3.8642086524999977  C 0.21724937499999863 5.263994312499998  1.802533764705881 8.121193132499997  3.8601467058823515 10.14374249  C 5.916758904411763 12.164733857499998  8.812828311274508 13.718222664999999  10.227268230392156 13.901688674999997  C 10.334381801470588 13.915925414999998  10.444497583333334 13.923034842499998  10.554595796568627 13.923034842499998  C 11.57641468872549 13.923034842499998  12.37357774264706 13.287305867499997  12.95298474509804 12.733379994999998  C 13.24191575 12.456936379999997  13.623546262254902 12.001073945  13.826800458333333 11.549849622499998  Z M 3.8372176225490207 4.543382042499999  C 3.135756269607843 4.897062275  3.0420735882352945 5.7703748025  3.245345335784313 6.2381280675  C 3.598077480392156 7.051968594999998  4.1999219705882345 7.851841007499999  5.195353110294118 8.8295742675  C 6.0652010073529405 9.6858385225  6.912681622549019 10.230112059999998  7.627608985294117 10.649352944999999  C 7.832864649509804 10.768744629999999  8.05256949754902 10.829219467500002  8.278770328431373 10.829219467500002  C 8.860687946078434 10.829219467500002  9.340934578431373 10.422711075  9.560165382352942 10.019712640000002  C 9.642383522058825 9.866743705  9.715085916666668 9.717857782500003  9.794793441176473 9.554233675  L 9.827694745098041 9.485145162500002  C 9.864563865196082 9.411436422500003  9.897921644607845 9.342831417500001  9.928329884803922 9.284380157500001  C 10.093222639705886 8.9810031325  10.250179745098041 8.797555025000001  10.31844029656863 8.7345372625  C 10.33738399509804 8.733534425  10.364263343137257 8.734053755  10.379713269607844 8.735593825000002  L 11.250087865196079 9.272220720000002  L 11.264519497549019 9.282356562500004  C 11.475726894607844 9.436328335000004  11.998373007352942 9.823066435000001  12.291342051470588 10.080706807500002  C 12.546897725490195 10.304304325000004  12.711808031862743 10.47048926  12.765601830882352 10.524356097500004  C 12.775100024509804 10.534474037500003  12.781069308823527 10.541099940000002  12.78707369607843 10.545147112500002  L 12.946453642156861 10.753522955000001  C 12.957918183823528 10.797218127500003  12.946453642156861 10.960860137500003  12.88170444852941 11.105680985000003  C 12.740723950980392 11.417725427500002  12.449247227941173 11.760213220000002  12.242007647058823 11.958417397500003  C 11.577415414215686 12.592606302500004  11.076680090686272 12.862441917500004  10.566534365196077 12.862441917500004  C 10.499274556372548 12.862441917500004  10.429504132352939 12.857857512500003  10.35925968137255 12.848205177500004  C 9.278134181372547 12.708470162500001  6.5574388799019605 11.320611120000002  4.581534931372548 9.378897850000003  C 2.612126982843137 7.442771805  1.2027082941176468 4.777401964999999  1.0592171813725493 3.719137064999999  C 0.9834950245098041 3.1611461  1.3880370686274512 2.415176347499999  2.089515973039216 1.8175373824999994  L 2.1647465343137258 1.7542689149999993  C 2.4696541642156866 1.4928141899999992  2.6714335906862754 1.3202898799999994  3.0405988186274513 1.1779940374999993  C 3.1043648382352944 1.1505591999999993  3.1556655906862745 1.1365910674999995  3.198521546568627 1.1365910674999995  C 3.2289122352941177 1.1365910674999995  3.261304392156862 1.1431811649999994  3.289202034313725 1.1551436049999995  C 3.326071154411764 1.1729261074999995  3.387853274509803 1.2056795799999993  3.425705568627451 1.2265243374999997  L 3.458589321078431 1.2435547074999995  C 3.4620831102941176 1.2453454999999993  3.794396786764706 1.4226691149999995  4.176009730392156 1.9481214899999995  C 4.366324615196079 2.2083226724999996  4.574582473039214 2.5289628874999996  4.70808381372549 2.7637528099999997  C 4.854559568627451 3.0229332524999997  5.000543727941176 3.3095306124999992  5.141524208333332 3.6159519724999996  C 5.147019465686274 3.6274130024999995  5.1514964289215674 3.6373160424999993  5.155481796568627 3.645195505  L 5.201322394607843 3.785700554999999  C 5.204816183823529 3.7940814274999997  5.205799357843136 3.79866585  5.206800100490195 3.79866585  C 5.204798632352941 3.8011908550000006  5.199320943627451 3.80702882  5.189857870098039 3.8164483525  L 5.159467181372549 3.84717823  C 5.146527870098039 3.8596420975  5.132570281862746 3.8731088024999996  5.124599529411764 3.8819911025  C 4.992572958333333 3.970921535  4.94722393872549 3.9963148749999995  4.9004001666666674 4.02403624  C 4.854559568627452 4.0494474825  4.798764284313726 4.08071461  4.688156924019609 4.1520774225  C 4.585520316176471 4.216115925  4.4823921127450985 4.25880826  4.335933926470589 4.3190323925  C 4.190950492647059 4.378468569999999  4.03253618627451 4.4450679  3.8372176225490207 4.543382042499999  Z " fill-rule="nonzero" fill="#0066ff" stroke="none" transform="matrix(1 0 0 1 862 1337 )" />
  </g>
</svg>