<?xml version="1.0" encoding="utf-8"?>
<svg version="1.1" xmlns:xlink="http://www.w3.org/1999/xlink" width="20px" height="20px" xmlns="http://www.w3.org/2000/svg">
  <g transform="matrix(1 0 0 1 -2854 -797 )">
    <path d="M 2864 798  C 2869.04 798  2873 801.96  2873 807  C 2873 812.04  2869.04 816  2864 816  C 2858.96 816  2855 812.04  2855 807  C 2855 801.96  2858.96 798  2864 798  Z " fill-rule="nonzero" fill="#ffffff" stroke="none" fill-opacity="0" />
    <path d="M 2864 798  C 2869.04 798  2873 801.96  2873 807  C 2873 812.04  2869.04 816  2864 816  C 2858.96 816  2855 812.04  2855 807  C 2855 801.96  2858.96 798  2864 798  Z " stroke-width="2" stroke="#999999" fill="none" />
  </g>
</svg>