<?xml version="1.0" encoding="utf-8"?>
<svg version="1.1" xmlns:xlink="http://www.w3.org/1999/xlink" width="16px" height="16px" xmlns="http://www.w3.org/2000/svg">
  <g transform="matrix(1 0 0 1 -2852 -3193 )">
    <path d="M 15.526137070312496 8  C 15.526137070312496 3.8529444726562496  12.152254941406248 0.47910234375000044  8.0052394140625 0.47910234375000016  C 3.8582238867187493 0.47910234375000016  0.4843417578124993 3.8529444726562496  0.4843417578124993 8  C 0.4843417578124993 12.14705552734375  3.858203886718749 15.52089765625  8.0052394140625 15.52089765625  C 12.15227494140625 15.52089765625  15.526137070312496 12.14705552734375  15.526137070312496 8  Z M 14.821036035156249 8  C 14.821036035156249 11.75823908203125  11.763478476562502 14.81581662109375  8.0052394140625 14.81581662109375  C 4.2470003320312495 14.81581662109375  1.1894227929687489 11.758239062500001  1.1894227929687489 7.999999999999999  C 1.1894227929687489 4.241760917968748  4.246980351562499 1.1841833789062488  8.0052394140625 1.1841833789062488  C 11.763498476562498 1.1841833789062488  14.821036035156249 4.241760917968751  14.821036035156249 8  Z M 11.89244404296875 5.635364843750001  C 12.0301086328125 5.497740253906251  12.25334361328125 5.497740253906251  12.391008203124999 5.635344843749998  C 12.528692773437498 5.773049414062498  12.528692773437498 5.996244414062498  12.391008203124999 6.133949003906248  L 7.7374494140625 10.787507792968752  C 7.73622955078125 10.78874765625  7.73486970703125 10.7897675390625  7.733649824218749 10.790947421875002  C 7.729490292968751 10.794986972656252  7.72515078125 10.798706562500001  7.720871269531249 10.802506113281252  C 7.7157318359375 10.80700560546875  7.710592421874999 10.811505097656251  7.705293007812499 10.815684648437502  C 7.700773515624999 10.819224257812502  7.696174023437499 10.822483886718752  7.69153455078125 10.825783515625005  C 7.6815744273989575 10.832837475546098  7.67126950732364 10.839391508722784  7.6606580078125 10.845421308593751  C 7.6544587109375 10.848860917968752  7.648219394531249 10.852180546875003  7.641880117187498 10.855240214843754  C 7.637360624999999 10.857399980468754  7.6328611328125 10.8596397265625  7.628281640624999 10.861619492187502  C 7.6214424023437495 10.864599160156253  7.614503183593748 10.867398847656252  7.607523964843749 10.869918574218753  C 7.6031844531249995 10.871478398437503  7.59888494140625 10.873458183593753  7.594485410156249 10.874838027343754  C 7.58696625 10.877217753906253  7.579347109374999 10.879937460937503  7.571687968749999 10.881777246093753  C 7.56766841796875 10.882797128906255  7.563668867187499 10.885356835937502  7.559629316406248 10.886176757812501  C 7.551070273437499 10.8879765625  7.542431249999999 10.892156093750003  7.533792207031248 10.89329595703125  C 7.5305325781249985 10.893715917968754  7.527312929687498 10.888556484375002  7.524033300781248 10.888876445312503  C 7.512114628906249 10.890116308593754  7.500135976562498 10.890876230468754  7.488157324218748 10.890876230468754  C 7.47725853515625 10.890876230468754  7.46653974609375 10.890256308593754  7.4558409375000005 10.889236406250001  C 7.452841269531251 10.888956445312502  7.4498616015625005 10.882537148437502  7.446861953125001 10.8821771875  C 7.439142812500001 10.881297285156252  7.431463671875001 10.883217070312499  7.42380453125 10.881797246093752  C 7.42012494140625 10.88109732421875  7.4164853515625 10.881657265625002  7.412805761718751 10.88087734375  C 7.405946523437501 10.879357519531252  7.399107304687501 10.8784776171875  7.392308066406251 10.876597812500002  C 7.388268515625001 10.87545794921875  7.384288964843751 10.874538046875001  7.380309414062501 10.873238203125  C 7.374030117187501 10.8712184375  7.367770820312501 10.869238652343752  7.361591503906252 10.86685890625  C 7.357331972656251 10.865199101562501  7.353112460937502 10.863599277343752  7.34893291015625 10.8617594921875  C 7.3431631412027265 10.859281622299891  7.337461686581707 10.856647612149745  7.331834843750001 10.85386037109375  C 7.327475332031251 10.85170060546875  7.323135820312501 10.849560859374998  7.3188362890625 10.84718111328125  C 7.313490487154183 10.844241925737533  7.308235310527446 10.841140837296429  7.303078046875001 10.837882148437501  C 7.29875853515625 10.835222441406252  7.294419023437501 10.832602734375001  7.290199492187501 10.829703066406251  C 7.285036264699177 10.826108461734217  7.279961978470936 10.82238775960503  7.274981210937501 10.818544316406252  C 7.271061640625001 10.815524648437501  7.267082089843751 10.812664980468751  7.263262519531252 10.80950533203125  C 7.262462617187501 10.808805410156248  7.261622695312501 10.80826546875  7.260822792968752 10.807625546875002  L 4.252479726562499 8.269369824218751  C 4.10365638671875 8.143823886718751  4.08481849609375 7.92136880859375  4.2103644335937505 7.77254546875  C 4.335950371093751 7.62376212890625  4.55836544921875 7.60490423828125  4.70714880859375 7.7304501953125  L 7.467919589843749 10.059849296875  L 11.89244404296875 5.635364843750001  Z " fill-rule="nonzero" fill="#e7772d" stroke="none" transform="matrix(1 0 0 1 2852 3193 )" />
  </g>
</svg>