<?xml version="1.0" encoding="utf-8"?>
<svg version="1.1" xmlns:xlink="http://www.w3.org/1999/xlink" width="24px" height="24px" xmlns="http://www.w3.org/2000/svg">
  <g transform="matrix(1 0 0 1 -2917 -984 )">
    <path d="M 23.91150342857143 12.02031080357143  C 23.91150342857143 18.59004624107143  18.579685258928574 23.91684838392857  12.00216538392857 23.91684838392857  C 5.425248535714285 23.91684838392857  0.09532165178571261 18.590018839285715  0.09532165178571261 12.02031080357143  C 0.09532165178571261 6.977503553571429  3.234121553571427 2.6692017053571444  7.666974348214284 0.9377950446428583  C 9.006335973214284 0.39748936607142965  10.469590741071427 0.0991042500000013  12.002466883928571 0.0991042500000013  C 13.5372343125 0.0991042500000013  14.999228223214285 0.39718786607142986  16.339850705357144 0.9377950446428583  C 20.772429428571428 2.6692017053571426  23.91150342857143 6.9775309553571425  23.91150342857143 12.02031080357143  Z M 7.425382741071429 9.51139242857143  C 7.425382741071429 11.516213732142857  8.452599428571428 13.251978589285713  9.945840723214285 14.101605991071429  C 10.565114571428571 14.453988776785716  11.26239723214286 14.657206446428573  12.00216538392857 14.657206446428573  C 12.715976276785714 14.657206446428573  13.388946294642855 14.467118196428574  13.991993410714285 14.138746526785718  C 15.520511357142858 13.305345857142862  16.5808393125 11.548365669642859  16.5808393125 9.51172135714286  C 16.5808393125 6.6759936964285735  14.52733786607143 4.3677986517857175  12.002192785714286 4.3677986517857175  C 9.478582660714284 4.367497125  7.425382741071429 6.675719571428571  7.425382741071429 9.51139242857143  Z M 12.050544026785714 23.145915080357142  C 15.529556678571431 23.145915080357142  18.633052526785715 21.545939303571426  20.667202500000002 19.042036928571427  C 20.426899151785715 17.066873223214284  18.50225204464286 15.385434964285714  15.778329723214286 14.546716767857141  C 14.749550651785714 15.472187571428572  13.435159526785714 16.02904888392857  12.001836482142854 16.02904888392857  C 10.536690428571427 16.02904888392857  9.19549232142857 15.442228473214286  8.156708624999997 14.476492366071428  C 5.507012544642855 15.232761321428569  3.566193562499997 16.775340616071425  3.111132964285712 18.62376050892857  C 5.129659232142858 21.36582825  8.383005455357143 23.145915080357142  12.050544026785714 23.145915080357142  Z " fill-rule="nonzero" fill="#333333" stroke="none" transform="matrix(1 0 0 1 2917 984 )" />
  </g>
</svg>