<?xml version="1.0" encoding="utf-8"?>
<svg version="1.1" xmlns:xlink="http://www.w3.org/1999/xlink" width="10px" height="12px" xmlns="http://www.w3.org/2000/svg">
  <g transform="matrix(1 0 0 1 -2501 -2009 )">
    <path d="M 9.947584615384615 4.97847  C 9.947584615384615 2.2613849999999998  7.7324923076923096 0.05887500000000001  4.999938461538462 0.05887500000000001  C 2.267461538461539 0.05887500000000001  0.052353846153846154 2.2613849999999998  0.052353846153846154 4.97847  C 0.052353846153846154 5.064705  0.06089230769230778 5.148059999999999  0.0653692307692308 5.23248  C 0.06130769230769239 5.274179999999999  0.052353846153846154 5.314394999999999  0.052353846153846154 5.35719  C 0.052353846153846154 8.38515  4.619415384615385 11.815005  4.619415384615385 11.815005  C 4.619415384615385 11.815005  4.999984615384615 12.098775  5.380569230769231 11.815005  C 5.7611384615384615 11.530919999999998  9.947630769230768 8.38515  9.947630769230768 5.35719  C 9.947630769230768 5.314395  9.938676923076923 5.274179999999999  9.934615384615384 5.23248  C 9.939046153846153 5.14806  9.947584615384615 5.064705  9.947584615384615 4.97847  Z M 4.999938461538462 6.871125  C 3.948876923076923 6.871125  3.0970615384615385 6.02394  3.0970615384615385 4.97847  C 3.0970615384615385 3.933735  3.9488615384615384 3.0865199999999993  4.999938461538461 3.0865199999999993  C 6.051061538461538 3.0865199999999993  6.902923076923076 3.9337349999999995  6.902923076923076 4.97847  C 6.902923076923077 6.02394  6.051061538461538 6.871125  4.999938461538462 6.871125  Z " fill-rule="nonzero" fill="#ffffff" stroke="none" transform="matrix(1 0 0 1 2501 2009 )" />
  </g>
</svg>