<?xml version="1.0" encoding="utf-8"?>
<svg version="1.1" xmlns:xlink="http://www.w3.org/1999/xlink" width="8px" height="4px" xmlns="http://www.w3.org/2000/svg">
  <g transform="matrix(1 0 0 1 -2635 -2761 )">
    <path d="M 0.07333333333333357 1.2880952380952413  C 0.7599999999999995 2.823809523809527  2.2244444444444444 3.8857142857142897  3.9222222222222234 3.885714285714287  C 5.604444444444447 3.885714285714287  7.060000000000001 2.840476190476192  7.7555555555555555 1.3238095238095244  C 7.806666666666666 1.2119047619047614  7.839999999999999 1.0857142857142863  7.839999999999999 0.9523809523809523  C 7.839999999999999 0.5309523809523798  7.52 0.19047619047619047  7.124444444444443 0.18809523809523757  C 6.837777777777776 0.18809523809523757  6.588888888888887 0.3619047619047603  6.475555555555553 0.6190476190476191  C 6.024444444444443 1.6547619047619047  5.0444444444444425 2.371428571428572  3.91111111111111 2.371428571428572  C 2.777777777777777 2.371428571428572  1.8133333333333332 1.6523809523809518  1.3599999999999992 0.621428571428572  C 1.3599999999999992 0.6190476190476191  1.3577777777777766 0.6166666666666661  1.3577777777777766 0.6142857142857159  C 1.2399999999999987 0.361904761904763  0.997777777777777 0.18809523809524026  0.7155555555555551 0.18809523809524026  C 0.3199999999999994 0.18809523809524026  0 0.5309523809523826  0 0.9523809523809551  C 0 1.071428571428574  0.026666666666666405 1.1857142857142873  0.07333333333333357 1.2880952380952413  Z " fill-rule="nonzero" fill="#e7772d" stroke="none" transform="matrix(1 0 0 1 2635 2761 )" />
  </g>
</svg>