<?xml version="1.0" encoding="utf-8"?>
<svg version="1.1" xmlns:xlink="http://www.w3.org/1999/xlink" width="12px" height="12px" xmlns="http://www.w3.org/2000/svg">
  <g transform="matrix(1 0 0 1 -2500 -2195 )">
    <path d="M 9.150437731967212 4.888776184672131  C 9.339582211229507 4.699631705409836  9.339582211229507 4.392271926639344  9.144526967090165 4.197216682377049  L 7.785051022622952 2.9204914476639345  C 7.589995778360656 2.7372577334016395  7.282635999713115 2.7372577334016395  7.087580755450821 2.9204914476639345  L 6.153679889385247 3.8543923138524594  C 6.141858359508197 3.8662138437295086  6.135947594508197 3.872124608729509  6.130036829508197 3.8839461387295087  L 3.612050949836066 6.407842783278689  C 3.5884078899590173 6.431485843155738  3.5706755949590168 6.466950433032787  3.5588540650819684 6.496504258032787  L 2.7254362035245907 8.91400713295082  C 2.7136146736475415 8.955382487827869  2.7077039086475416 9.008579372581968  2.7254362035245907 9.049954727459015  C 2.76090079340164 9.168170026967212  2.890937622786886 9.23909920672131  3.0091529222950832 9.203634616844262  L 5.550781861844262 8.470699759795082  C 5.586246451721312 8.458878229918032  5.62171104147541 8.441145934918033  5.6453541014754105 8.411592110040983  L 8.169250746024591 5.858141640491803  C 8.181072275901641 5.852230875491803  8.18698304090164 5.840409345614754  8.19289380590164 5.828587815737706  L 9.150437731967212 4.888776184672131  Z M 8.405681345040984 4.545951816024589  L 5.196135963196721 7.755497197745902  L 3.5824971249590165 8.328841400409836  L 4.22677050737705 6.862971686434426  C 4.23268127237705 6.845239391557378  5.31435126295082 5.787212460860656  7.47769124397541 3.682980129467212  L 8.405681345040984 4.545951816024589  Z M 6 11.910764975655738  C 2.7431684984016393 11.910764975655738  0.08923502434426231 9.25683150159836  0.08923502434426231 6  C 0.08923502434426231 2.743168498401639  2.743168498401639 0.08923502434426231  6 0.08923502434426231  C 9.25683150159836 0.08923502434426231  11.910764975655738 2.7431684984016393  11.910764975655738 6  C 11.910764975655738 9.25683150159836  9.25683150159836 11.910764975655738  6 11.910764975655738  Z M 6 0.7748837615163935  C 3.121457456803279 0.7748837615163935  0.7748837615163933 3.121457456803279  0.7748837615163933 6  C 0.7748837615163933 8.87854254319672  3.121457456803279 11.225116238483606  6 11.225116238483606  C 8.87854254319672 11.225116238483606  11.225116238483606 8.87854254319672  11.225116238483606 6  C 11.225116238483606 3.121457456803279  8.87854254319672 0.7748837615163935  6 0.7748837615163935  Z " fill-rule="nonzero" fill="#ffffff" stroke="none" transform="matrix(1 0 0 1 2500 2195 )" />
  </g>
</svg>