<?xml version="1.0" encoding="utf-8"?>
<svg version="1.1" xmlns:xlink="http://www.w3.org/1999/xlink" width="20px" height="20px" xmlns="http://www.w3.org/2000/svg">
  <g transform="matrix(1 0 0 1 -3748 -1242 )">
    <path d="M 19.40767133789062 10  C 19.40767133789062 4.816180590820312  15.19031867675781 0.5988779296875005  10.006549267578125 0.5988779296875002  C 4.8227798583984365 0.5988779296875002  0.6054271972656241 4.816180590820312  0.6054271972656241 10  C 0.6054271972656241 15.183819409179689  4.8227548583984365 19.4011220703125  10.006549267578125 19.4011220703125  C 15.190343676757811 19.4011220703125  19.40767133789062 15.183819409179689  19.40767133789062 10  Z M 18.52629504394531 10  C 18.52629504394531 14.697798852539064  14.704348095703129 18.51977077636719  10.006549267578125 18.51977077636719  C 5.308750415039062 18.51977077636719  1.486778491210936 14.697798828125002  1.486778491210936 9.999999999999998  C 1.486778491210936 5.302201147460935  5.308725439453124 1.480229223632811  10.006549267578125 1.480229223632811  C 14.704373095703122 1.480229223632811  18.52629504394531 5.302201147460939  18.52629504394531 10  Z M 14.865555053710937 7.044206054687501  C 15.037635791015624 6.872175317382814  15.316679516601564 6.872175317382814  15.488760253906248 7.044181054687497  C 15.660865966796873 7.216311767578123  15.660865966796873 7.495305517578123  15.488760253906248 7.66743625488281  L 9.671811767578124 13.48438474121094  C 9.670286938476561 13.485934570312502  9.668587133789062 13.487209423828126  9.667062280273436 13.488684277343753  C 9.661862866210939 13.493733715820316  9.6564384765625 13.498383203125002  9.65108908691406 13.503132641601566  C 9.644664794921875 13.508757006835939  9.638240527343749 13.514381372070314  9.631616259765623 13.519605810546878  C 9.625966894531249 13.524030322265627  9.620217529296873 13.52810485839844  9.614418188476563 13.532229394531257  C 9.601968034248697 13.541046844432623  9.58908688415455 13.54923938590348  9.575822509765624 13.556776635742189  C 9.568073388671875 13.56107614746094  9.560274243164061 13.565225683593754  9.552350146484374 13.569050268554692  C 9.546700781249998 13.571749975585943  9.541076416015624 13.574549658203125  9.535352050781249 13.577024365234378  C 9.526803002929686 13.580748950195316  9.518128979492186 13.584248559570316  9.509404956054686 13.58739821777344  C 9.503980566406248 13.589347998046879  9.498606176757812 13.591822729492192  9.493106762695312 13.593547534179693  C 9.4837078125 13.596522192382816  9.474183886718748 13.59992182617188  9.4646099609375 13.602221557617192  C 9.459585522460937 13.603496411132818  9.454586083984374 13.606696044921877  9.44953664550781 13.607720947265626  C 9.438837841796873 13.609970703125  9.428039062499998 13.615195117187504  9.417240258789061 13.616619946289063  C 9.413165722656249 13.617144897460943  9.409141162109373 13.610695605468752  9.40504162597656 13.61109555664063  C 9.390143286132812 13.612645385742193  9.375169970703123 13.613595288085943  9.360196655273436 13.613595288085943  C 9.346573168945312 13.613595288085943  9.333174682617187 13.612820385742193  9.319801171875001 13.611545507812501  C 9.316051586914064 13.611195556640627  9.312327001953125 13.603171435546876  9.308577441406252 13.602721484375  C 9.298928515625 13.601621606445315  9.289329589843751 13.604021337890623  9.2797556640625 13.60224655761719  C 9.275156176757813 13.601371655273438  9.270606689453125 13.602071582031252  9.266007202148439 13.601096679687501  C 9.257433154296876 13.599196899414066  9.248884130859377 13.598097021484374  9.240385083007814 13.595747265625002  C 9.235335644531252 13.594322436523438  9.230361206054688 13.593172558593752  9.225386767578126 13.59154775390625  C 9.217537646484375 13.589023046874999  9.209713525390626 13.58654831542969  9.201989379882814 13.5835736328125  C 9.196664965820315 13.581498876953127  9.191390576171877 13.57949909667969  9.186166137695313 13.577199365234376  C 9.178953926503407 13.574102027874863  9.171827108227134 13.57080951518718  9.1647935546875 13.567325463867189  C 9.159344165039064 13.564625756835937  9.153919775390627 13.561951074218747  9.148545361328125 13.558976391601563  C 9.141863108942728 13.555302407171917  9.135294138159308 13.551426046620536  9.128847558593751 13.547352685546876  C 9.123448168945313 13.544028051757815  9.118023779296877 13.540753417968752  9.112749365234375 13.537128833007815  C 9.106295330873971 13.53263557716777  9.09995247308867 13.527984699506288  9.093726513671875 13.523180395507815  C 9.088827050781251 13.519405810546877  9.083852612304689 13.51583122558594  9.079078149414064 13.511881665039063  C 9.078078271484376 13.51100676269531  9.077028369140626 13.5103318359375  9.07602849121094 13.509531933593752  L 5.315599658203124 10.336712280273439  C 5.129570483398438 10.179779858398438  5.106023120117188 9.901711010742188  5.262955541992188 9.715681835937499  C 5.419937963867189 9.529702661132813  5.697956811523438 9.506130297851563  5.883936010742188 9.663062744140625  L 9.334899487304686 12.574811621093751  L 14.865555053710937 7.044206054687501  Z " fill-rule="nonzero" fill="#272636" stroke="none" transform="matrix(1 0 0 1 3748 1242 )" />
  </g>
</svg>