<?xml version="1.0" encoding="utf-8"?>
<svg version="1.1" xmlns:xlink="http://www.w3.org/1999/xlink" width="21px" height="20px" xmlns="http://www.w3.org/2000/svg">
  <g transform="matrix(1 0 0 1 -3707 -1242 )">
    <path d="M 10.51212548638132 0.6427439112264013  C 5.068591926070038 0.6427439112264013  0.6566877431906611 4.974326271797089  0.6566877431906611 10.31844646202623  C 0.6566877431906611 15.662566652255368  5.068832684824902 19.994062545035305  10.51210359922179 19.994062545035305  C 15.954871108949416 19.994062545035305  20.36703793774319 15.662566652255368  20.36703793774319 10.31844646202623  C 20.367059824902725 4.974499207378585  15.954871108949419 0.6427439112264013  10.512103599221792 0.6427439112264013  Z M 19.023604085603115 10.32890906470673  C 19.023604085603115 14.972532065139072  15.21213035019455 18.7369289522986  10.510483949416344 18.7369289522986  C 5.808815661478601 18.7369289522986  1.9973638132295732 14.972510448191382  1.9973638132295732 10.32890906470673  C 1.9973638132295732 5.685286064274392  5.808837548638134 1.9208891771148593  10.510483949416344 1.9208891771148593  C 15.212130350194553 1.9208891771148593  19.023604085603115 5.6853076812220795  19.023604085603115 10.32890906470673  Z M 6.624199902723735 9.046375558437816  C 5.9388691634241235 9.046375558437816  5.383307392996109 9.595100158524284  5.383307392996109 10.271948407551521  C 5.383307392996109 10.948818273526445  5.938891050583658 11.497521256665227  6.624199902723735 11.497521256665227  C 7.309508754863813 11.497521256665227  7.865092412451361 10.94879665657876  7.865092412451361 10.271948407551521  C 7.865092412451361 9.595078541576598  7.309508754863813 9.046375558437816  6.624199902723735 9.046375558437816  Z M 10.77973978599222 9.046375558437816  C 10.094409046692608 9.046375558437816  9.538847276264594 9.595100158524284  9.538847276264592 10.271948407551521  C 9.538847276264592 10.948818273526445  10.09443093385214 11.497521256665227  10.77973978599222 11.497521256665227  C 11.465048638132298 11.497521256665227  12.020632295719848 10.94879665657876  12.020632295719848 10.271948407551521  C 12.020632295719848 9.595078541576598  11.465048638132298 9.046375558437816  10.77973978599222 9.046375558437816  Z M 14.531286478599226 9.046375558437816  C 13.845955739299614 9.046375558437816  13.290393968871594 9.595100158524284  13.290393968871594 10.271948407551521  C 13.290393968871594 10.948818273526445  13.845977626459144 11.497521256665227  14.531286478599226 11.497521256665227  C 15.2165953307393 11.497521256665227  15.77217898832685 10.94879665657876  15.77217898832685 10.271948407551521  C 15.77217898832685 9.595078541576598  15.2165953307393 9.046375558437816  14.531286478599226 9.046375558437816  Z " fill-rule="nonzero" fill="#000000" stroke="none" transform="matrix(1 0 0 1 3707 1242 )" />
  </g>
</svg>