<?xml version="1.0" encoding="utf-8"?>
<svg version="1.1" xmlns:xlink="http://www.w3.org/1999/xlink" width="17px" height="20px" xmlns="http://www.w3.org/2000/svg">
  <g transform="matrix(1 0 0 1 -3346 -3412 )">
    <path d="M 0 2.5  C 0 1.1192857142857144  1.0787916666666666 0  2.4097500000000003 0  L 12.878916666666665 0  L 17 4.4  L 17 17.5  C 17 18.880714285714287  15.78875 20  14.457791666666669 20  L 2.4090416666666665 20  C 1.0795 20  0 18.880714285714287  0 17.5  L 0 2.5  Z M 15.583333333333332 5  L 12.041666666666668 1.4285714285714284  L 12.041666666666668 4.416428571428571  C 12.041666666666668 4.738726171865543  12.300763212900005 5  12.620375 5  L 15.583333333333332 5  Z M 2.597458333333333 18.571428571428573  L 14.402541666666664 18.571428571428573  C 15.054208333333333 18.571428571428573  15.583333333333332 18.02285714285714  15.583333333333332 17.34714285714286  L 15.583333333333332 6.32642857142857  L 12.041666666666668 6.32642857142857  C 11.389999999999999 6.32642857142857  10.860875 5.7785714285714285  10.860875 5.102142857142856  L 10.860875 1.4285714285714284  L 2.597458333333333 1.4285714285714284  C 1.9457916666666666 1.4285714285714284  1.4166666666666665 1.977142857142857  1.4166666666666665 2.652857142857143  L 1.4166666666666665 17.34714285714286  C 1.4166666666666665 18.02285714285714  1.9450833333333335 18.571428571428573  2.597458333333333 18.571428571428573  Z " fill-rule="nonzero" fill="#e7772d" stroke="none" transform="matrix(1 0 0 1 3346 3412 )" />
  </g>
</svg>