<?xml version="1.0" encoding="utf-8"?>
<svg version="1.1" xmlns:xlink="http://www.w3.org/1999/xlink" width="11px" height="10px" xmlns="http://www.w3.org/2000/svg">
  <g transform="matrix(1 0 0 1 -1335 -120 )">
    <path d="M 3.0366346153846155 0.44986979166666685  L 3.0366346153846155 1.2296875  L 0.033978365384615294 1.2296875  L 0.033978365384615294 0.44986979166666685  L 3.0366346153846155 0.44986979166666685  Z M 0.778858173076923 1.160677083333333  L 0.778858173076923 9.9640625  L 0.033978365384615294 9.9640625  L 0.033978365384615294 1.160677083333333  L 0.778858173076923 1.160677083333333  Z M 10.462560096153846 9.23046875  L 10.462560096153846 9.9640625  L 0.778858173076923 9.9640625  L 0.778858173076923 9.23046875  L 10.462560096153846 9.23046875  Z M 10.462560096153846 5.562369791666667  L 10.462560096153846 9.23046875  L 9.717680288461539 9.23046875  L 9.717680288461539 5.562369791666667  L 10.462560096153846 5.562369791666667  Z M 7.265420673076923 6.529296875  L 10.992067307692308 3.3108072916666664  L 7.265420673076923 0.09231770833333339  L 7.265420673076923 6.529296875  Z M 3.9787740384615384 7.917968750000001  C 4.454074519230769 6.270833333333333  5.707439903846155 4.986197916666668  7.283665865384616 4.542057291666667  L 7.283665865384616 1.6002604166666667  C 5.262151442307692 2.16953125  3.771995192307693 4.123697916666666  3.771995192307693 6.447786458333335  C 3.771995192307693 6.959375  3.844579326923077 7.452864583333335  3.9787740384615384 7.917968750000001  Z " fill-rule="nonzero" fill="#e7772d" stroke="none" transform="matrix(1 0 0 1 1335 120 )" />
  </g>
</svg>