<?xml version="1.0" encoding="utf-8"?>
<svg version="1.1" xmlns:xlink="http://www.w3.org/1999/xlink" width="24px" height="24px" xmlns="http://www.w3.org/2000/svg">
  <g transform="matrix(1 0 0 1 -107 -513 )">
    <path d="M 119 513  C 125.72 513  131 518.28  131 525  C 131 531.72  125.72 537  119 537  C 112.28 537  107 531.72  107 525  C 107 518.28  112.28 513  119 513  Z " fill-rule="nonzero" fill="#fbf4f3" stroke="none" />
    <path d="M 119 513.5  C 125.44 513.5  130.5 518.56  130.5 525  C 130.5 531.44  125.44 536.5  119 536.5  C 112.56 536.5  107.5 531.44  107.5 525  C 107.5 518.56  112.56 513.5  119 513.5  Z " stroke-width="1" stroke="#e7772d" fill="none" />
  </g>
</svg>