<?xml version="1.0" encoding="utf-8"?>
<svg version="1.1" xmlns:xlink="http://www.w3.org/1999/xlink" width="30px" height="30px" xmlns="http://www.w3.org/2000/svg">
  <g transform="matrix(1 0 0 1 -92 -854 )">
    <path d="M 29.889379285714288 15.025388504464287  C 29.889379285714288 23.237557801339285  23.224606573660715 29.896060479910716  15.002706729910713 29.896060479910716  C 6.7815606696428565 29.896060479910716  0.11915206473214075 23.23752354910714  0.11915206473214075 15.025388504464287  C 0.11915206473214075 8.721879441964285  4.042651941964284 3.3365021316964305  9.583717935267854 1.172243805803573  C 11.257919966517854 0.49686170758928705  13.086988426339282 0.12388031250000162  15.003083604910714 0.12388031250000162  C 16.921542890625 0.12388031250000162  18.749035279017857 0.4964848325892874  20.424813381696428 1.172243805803573  C 25.965536785714285 3.3365021316964283  29.889379285714288 8.721913694196427  29.889379285714288 15.025388504464287  Z M 9.281728426339285 11.889240535714286  C 9.281728426339285 14.395267165178572  10.565749285714286 16.56497323660714  12.432300904017858 17.627007488839286  C 13.206393214285715 18.067485970982144  14.077996540178574 18.321508058035715  15.002706729910713 18.321508058035715  C 15.894970345982143 18.321508058035715  16.73618286830357 18.08389774553572  17.489991763392855 17.673433158482148  C 19.40063919642857 16.631682321428578  20.726049140625 14.435457087053575  20.726049140625 11.889651696428574  C 20.726049140625 8.344992120535718  18.159172332589286 5.459748314732146  15.002740982142857 5.459748314732146  C 11.848228325892856 5.45937140625  9.281728426339285 8.344649464285713  9.281728426339285 11.889240535714286  Z M 15.063180033482142 28.932393850446427  C 19.411945848214287 28.932393850446427  23.29131565848214 26.932424129464284  25.834003125000002 23.802546160714286  C 25.53362393973214 21.333591529017852  23.127815055803573 19.23179370535714  19.72291215401786 18.183395959821425  C 18.436938314732146 19.340234464285714  16.793949408482145 20.036311104910716  15.002295602678569 20.036311104910716  C 13.170863035714284 20.036311104910716  11.494365401785712 19.302785591517857  10.195885781249997 18.095615457589286  C 6.8837656808035685 19.04095165178571  4.457741953124996 20.969175770089283  3.88891620535714 23.27970063616071  C 6.412074040178572 26.7072853125  10.478756819196427 28.932393850446427  15.063180033482142 28.932393850446427  Z " fill-rule="nonzero" fill="#aaaaaa" stroke="none" transform="matrix(1 0 0 1 92 854 )" />
  </g>
</svg>