<?xml version="1.0" encoding="utf-8"?>
<svg version="1.1" xmlns:xlink="http://www.w3.org/1999/xlink" width="18px" height="18px" viewBox="2749 768  18 18" xmlns="http://www.w3.org/2000/svg">
  <path d="M 2749.5 771  A 2.5 2.5 0 0 1 2752 768.5 L 2764 768.5  A 2.5 2.5 0 0 1 2766.5 771 L 2766.5 783  A 2.5 2.5 0 0 1 2764 785.5 L 2752 785.5  A 2.5 2.5 0 0 1 2749.5 783 L 2749.5 771  Z " fill-rule="nonzero" fill="#f0f0f0" stroke="none" />
  <path d="M 2749.5 771  A 2.5 2.5 0 0 1 2752 768.5 L 2764 768.5  A 2.5 2.5 0 0 1 2766.5 771 L 2766.5 783  A 2.5 2.5 0 0 1 2764 785.5 L 2752 785.5  A 2.5 2.5 0 0 1 2749.5 783 L 2749.5 771  Z " stroke-width="1" stroke="#0066ff" fill="none" />
  <path d="M 2752.8571428571427 777  L 2756.714285714286 780.8571428571428  L 2763.1428571428573 771.8571428571429  " stroke-width="3.8571428571428577" stroke="#0066ff" fill="none" />
</svg>