<?xml version="1.0" encoding="utf-8"?>
<svg version="1.1" xmlns:xlink="http://www.w3.org/1999/xlink" width="18px" height="18px" viewBox="2878 928  18 18" xmlns="http://www.w3.org/2000/svg">
  <path d="M 2878.5 931  A 2.5 2.5 0 0 1 2881 928.5 L 2893 928.5  A 2.5 2.5 0 0 1 2895.5 931 L 2895.5 943  A 2.5 2.5 0 0 1 2893 945.5 L 2881 945.5  A 2.5 2.5 0 0 1 2878.5 943 L 2878.5 931  Z " fill-rule="nonzero" fill="#f0f0f0" stroke="none" />
  <path d="M 2878.5 931  A 2.5 2.5 0 0 1 2881 928.5 L 2893 928.5  A 2.5 2.5 0 0 1 2895.5 931 L 2895.5 943  A 2.5 2.5 0 0 1 2893 945.5 L 2881 945.5  A 2.5 2.5 0 0 1 2878.5 943 L 2878.5 931  Z " stroke-width="1" stroke="#797979" fill="none" />
  <path d="M 2881.8571428571427 937  L 2885.714285714286 940.8571428571428  L 2892.1428571428573 931.8571428571429  " stroke-width="3.8571428571428577" stroke="#797979" fill="none" />
</svg>