<?xml version="1.0" encoding="utf-8"?>
<svg version="1.1" xmlns:xlink="http://www.w3.org/1999/xlink" width="18px" height="18px" viewBox="2749 832  18 18" xmlns="http://www.w3.org/2000/svg">
  <path d="M 2749.5 835  A 2.5 2.5 0 0 1 2752 832.5 L 2764 832.5  A 2.5 2.5 0 0 1 2766.5 835 L 2766.5 847  A 2.5 2.5 0 0 1 2764 849.5 L 2752 849.5  A 2.5 2.5 0 0 1 2749.5 847 L 2749.5 835  Z " fill-rule="nonzero" fill="#f0f0f0" stroke="none" />
  <path d="M 2749.5 835  A 2.5 2.5 0 0 1 2752 832.5 L 2764 832.5  A 2.5 2.5 0 0 1 2766.5 835 L 2766.5 847  A 2.5 2.5 0 0 1 2764 849.5 L 2752 849.5  A 2.5 2.5 0 0 1 2749.5 847 L 2749.5 835  Z " stroke-width="1" stroke="#0066ff" fill="none" />
</svg>