<?xml version="1.0" encoding="utf-8"?>
<svg version="1.1" xmlns:xlink="http://www.w3.org/1999/xlink" width="18px" height="18px" viewBox="2749 929  18 18" xmlns="http://www.w3.org/2000/svg">
  <path d="M 2749.5 932  A 2.5 2.5 0 0 1 2752 929.5 L 2764 929.5  A 2.5 2.5 0 0 1 2766.5 932 L 2766.5 944  A 2.5 2.5 0 0 1 2764 946.5 L 2752 946.5  A 2.5 2.5 0 0 1 2749.5 944 L 2749.5 932  Z " fill-rule="nonzero" fill="#f0f0f0" stroke="none" />
  <path d="M 2749.5 932  A 2.5 2.5 0 0 1 2752 929.5 L 2764 929.5  A 2.5 2.5 0 0 1 2766.5 932 L 2766.5 944  A 2.5 2.5 0 0 1 2764 946.5 L 2752 946.5  A 2.5 2.5 0 0 1 2749.5 944 L 2749.5 932  Z " stroke-width="1" stroke="#0066ff" fill="none" />
  <path d="M 2752.8571428571427 938  L 2756.714285714286 941.8571428571428  L 2763.1428571428573 932.8571428571429  " stroke-width="3.8571428571428577" stroke="#0066ff" fill="none" />
</svg>