<?xml version="1.0" encoding="utf-8"?>
<svg version="1.1" xmlns:xlink="http://www.w3.org/1999/xlink" width="18px" height="18px" viewBox="2878 862  18 18" xmlns="http://www.w3.org/2000/svg">
  <path d="M 2878.5 865  A 2.5 2.5 0 0 1 2881 862.5 L 2893 862.5  A 2.5 2.5 0 0 1 2895.5 865 L 2895.5 877  A 2.5 2.5 0 0 1 2893 879.5 L 2881 879.5  A 2.5 2.5 0 0 1 2878.5 877 L 2878.5 865  Z " fill-rule="nonzero" fill="#f0f0f0" stroke="none" />
  <path d="M 2878.5 865  A 2.5 2.5 0 0 1 2881 862.5 L 2893 862.5  A 2.5 2.5 0 0 1 2895.5 865 L 2895.5 877  A 2.5 2.5 0 0 1 2893 879.5 L 2881 879.5  A 2.5 2.5 0 0 1 2878.5 877 L 2878.5 865  Z " stroke-width="1" stroke="#797979" fill="none" />
  <path d="M 2881.8571428571427 871  L 2885.714285714286 874.8571428571428  L 2892.1428571428573 865.8571428571429  " stroke-width="3.8571428571428577" stroke="#797979" fill="none" />
</svg>