<?xml version="1.0" encoding="utf-8"?>
<svg version="1.1" xmlns:xlink="http://www.w3.org/1999/xlink" width="18px" height="18px" viewBox="2620 800  18 18" xmlns="http://www.w3.org/2000/svg">
  <path d="M 2620.5 803  A 2.5 2.5 0 0 1 2623 800.5 L 2635 800.5  A 2.5 2.5 0 0 1 2637.5 803 L 2637.5 815  A 2.5 2.5 0 0 1 2635 817.5 L 2623 817.5  A 2.5 2.5 0 0 1 2620.5 815 L 2620.5 803  Z " fill-rule="nonzero" fill="#f0f0f0" stroke="none" />
  <path d="M 2620.5 803  A 2.5 2.5 0 0 1 2623 800.5 L 2635 800.5  A 2.5 2.5 0 0 1 2637.5 803 L 2637.5 815  A 2.5 2.5 0 0 1 2635 817.5 L 2623 817.5  A 2.5 2.5 0 0 1 2620.5 815 L 2620.5 803  Z " stroke-width="1" stroke="#0066ff" fill="none" />
  <path d="M 2623.8571428571427 809  L 2627.714285714286 812.8571428571428  L 2634.1428571428573 803.8571428571429  " stroke-width="3.8571428571428577" stroke="#0066ff" fill="none" />
</svg>