<?xml version="1.0" encoding="utf-8"?>
<svg version="1.1" xmlns:xlink="http://www.w3.org/1999/xlink" width="18px" height="18px" viewBox="2620 998  18 18" xmlns="http://www.w3.org/2000/svg">
  <path d="M 2620.5 1001  A 2.5 2.5 0 0 1 2623 998.5 L 2635 998.5  A 2.5 2.5 0 0 1 2637.5 1001 L 2637.5 1013  A 2.5 2.5 0 0 1 2635 1015.5 L 2623 1015.5  A 2.5 2.5 0 0 1 2620.5 1013 L 2620.5 1001  Z " fill-rule="nonzero" fill="#f0f0f0" stroke="none" />
  <path d="M 2620.5 1001  A 2.5 2.5 0 0 1 2623 998.5 L 2635 998.5  A 2.5 2.5 0 0 1 2637.5 1001 L 2637.5 1013  A 2.5 2.5 0 0 1 2635 1015.5 L 2623 1015.5  A 2.5 2.5 0 0 1 2620.5 1013 L 2620.5 1001  Z " stroke-width="1" stroke="#797979" fill="none" />
</svg>