<?xml version="1.0" encoding="utf-8"?>
<svg version="1.1" xmlns:xlink="http://www.w3.org/1999/xlink" width="18px" height="18px" viewBox="2620 862  18 18" xmlns="http://www.w3.org/2000/svg">
  <path d="M 2620.5 865  A 2.5 2.5 0 0 1 2623 862.5 L 2635 862.5  A 2.5 2.5 0 0 1 2637.5 865 L 2637.5 877  A 2.5 2.5 0 0 1 2635 879.5 L 2623 879.5  A 2.5 2.5 0 0 1 2620.5 877 L 2620.5 865  Z " fill-rule="nonzero" fill="#ffffff" stroke="none" />
  <path d="M 2620.5 865  A 2.5 2.5 0 0 1 2623 862.5 L 2635 862.5  A 2.5 2.5 0 0 1 2637.5 865 L 2637.5 877  A 2.5 2.5 0 0 1 2635 879.5 L 2623 879.5  A 2.5 2.5 0 0 1 2620.5 877 L 2620.5 865  Z " stroke-width="1" stroke="#0066ff" fill="none" />
</svg>