<?xml version="1.0" encoding="utf-8"?>
<svg version="1.1" xmlns:xlink="http://www.w3.org/1999/xlink" width="18px" height="18px" viewBox="2878 896  18 18" xmlns="http://www.w3.org/2000/svg">
  <path d="M 2878.5 899  A 2.5 2.5 0 0 1 2881 896.5 L 2893 896.5  A 2.5 2.5 0 0 1 2895.5 899 L 2895.5 911  A 2.5 2.5 0 0 1 2893 913.5 L 2881 913.5  A 2.5 2.5 0 0 1 2878.5 911 L 2878.5 899  Z " fill-rule="nonzero" fill="#ffffff" stroke="none" />
  <path d="M 2878.5 899  A 2.5 2.5 0 0 1 2881 896.5 L 2893 896.5  A 2.5 2.5 0 0 1 2895.5 899 L 2895.5 911  A 2.5 2.5 0 0 1 2893 913.5 L 2881 913.5  A 2.5 2.5 0 0 1 2878.5 911 L 2878.5 899  Z " stroke-width="1" stroke="#797979" fill="none" />
</svg>