<?xml version="1.0" encoding="utf-8"?>
<svg version="1.1" xmlns:xlink="http://www.w3.org/1999/xlink" width="10px" height="10px" xmlns="http://www.w3.org/2000/svg">
  <g transform="matrix(1 0 0 1 -3248 -801 )">
    <path d="M 9.732874768518517 9.065209290123459  L 5.637527145061729 4.957544197530865  L 9.731361604938272 0.8849467592592597  C 9.924937067901233 0.6923535030864203  9.925919290123456 0.3802489043209881  9.733326033950616 0.18667342592592645  C 9.540228395061728 -0.007406419753085685  9.228628179012345 -0.007884259259258702  9.035052700617284 0.18470899691358073  L 4.940236033950617 4.257784274691358  L 0.8809913734567903 0.18616905864197508  C 0.6889025000000002 -0.006424197530864331  0.3762935185185187 -0.007406404320987836  0.18271804012345708 0.18518685185185157  C -0.010379598765432 0.377780108024691  -0.010857422839505852 0.6903625462962961  0.18173583333333357 0.8839645679012345  L 4.239998287037038 4.954571033950617  L 0.14815479938271628 9.024699660493827  C -0.045420663580246656 9.217292916666667  -0.04640288580246889 9.529397515432098  0.14619037037037053 9.72297299382716  C 0.24247371913580257 9.81976072530864  0.3693914814814819 9.868658981481481  0.4963092438271607 9.868658981481481  C 0.6222447993827164 9.868658981481481  0.7481537962962964 9.82076949074074  0.8444637037037038 9.724963966049383  L 4.9373159567901235 5.653853117283951  L 9.033619228395061 9.762500401234568  C 9.129902577160493 9.859288132716049  9.256342515432097 9.907682006172841  9.383260277777778 9.907682006172841  C 9.509673657407408 9.907682006172841  9.635609212962963 9.859288132716049  9.731892561728394 9.763482623456792  C 9.924990200617284 9.570889367283952  9.925468024691357 9.25878476851852  9.732874768518517 9.065209290123459  Z " fill-rule="nonzero" fill="#555555" stroke="none" transform="matrix(1 0 0 1 3248 801 )" />
  </g>
</svg>