<?xml version="1.0" encoding="utf-8"?>
<svg version="1.1" xmlns:xlink="http://www.w3.org/1999/xlink" width="18px" height="18px" viewBox="2620 832  18 18" xmlns="http://www.w3.org/2000/svg">
  <path d="M 2620.5 835  A 2.5 2.5 0 0 1 2623 832.5 L 2635 832.5  A 2.5 2.5 0 0 1 2637.5 835 L 2637.5 847  A 2.5 2.5 0 0 1 2635 849.5 L 2623 849.5  A 2.5 2.5 0 0 1 2620.5 847 L 2620.5 835  Z " fill-rule="nonzero" fill="#f0f0f0" stroke="none" />
  <path d="M 2620.5 835  A 2.5 2.5 0 0 1 2623 832.5 L 2635 832.5  A 2.5 2.5 0 0 1 2637.5 835 L 2637.5 847  A 2.5 2.5 0 0 1 2635 849.5 L 2623 849.5  A 2.5 2.5 0 0 1 2620.5 847 L 2620.5 835  Z " stroke-width="1" stroke="#797979" fill="none" />
  <path d="M 2623.8571428571427 841  L 2627.714285714286 844.8571428571428  L 2634.1428571428573 835.8571428571429  " stroke-width="3.8571428571428577" stroke="#797979" fill="none" />
</svg>