<?xml version="1.0" encoding="utf-8"?>
<svg version="1.1" xmlns:xlink="http://www.w3.org/1999/xlink" width="18px" height="18px" viewBox="2878 832  18 18" xmlns="http://www.w3.org/2000/svg">
  <path d="M 2878.5 835  A 2.5 2.5 0 0 1 2881 832.5 L 2893 832.5  A 2.5 2.5 0 0 1 2895.5 835 L 2895.5 847  A 2.5 2.5 0 0 1 2893 849.5 L 2881 849.5  A 2.5 2.5 0 0 1 2878.5 847 L 2878.5 835  Z " fill-rule="nonzero" fill="#ffffff" stroke="none" />
  <path d="M 2878.5 835  A 2.5 2.5 0 0 1 2881 832.5 L 2893 832.5  A 2.5 2.5 0 0 1 2895.5 835 L 2895.5 847  A 2.5 2.5 0 0 1 2893 849.5 L 2881 849.5  A 2.5 2.5 0 0 1 2878.5 847 L 2878.5 835  Z " stroke-width="1" stroke="#0066ff" fill="none" />
</svg>