<?xml version="1.0" encoding="utf-8"?>
<svg version="1.1" xmlns:xlink="http://www.w3.org/1999/xlink" width="18px" height="18px" viewBox="2620 768  18 18" xmlns="http://www.w3.org/2000/svg">
  <path d="M 2620.5 771  A 2.5 2.5 0 0 1 2623 768.5 L 2635 768.5  A 2.5 2.5 0 0 1 2637.5 771 L 2637.5 783  A 2.5 2.5 0 0 1 2635 785.5 L 2623 785.5  A 2.5 2.5 0 0 1 2620.5 783 L 2620.5 771  Z " fill-rule="nonzero" fill="#ffffff" stroke="none" />
  <path d="M 2620.5 771  A 2.5 2.5 0 0 1 2623 768.5 L 2635 768.5  A 2.5 2.5 0 0 1 2637.5 771 L 2637.5 783  A 2.5 2.5 0 0 1 2635 785.5 L 2623 785.5  A 2.5 2.5 0 0 1 2620.5 783 L 2620.5 771  Z " stroke-width="1" stroke="#999999" fill="none" />
  <path d="M 2623.8571428571427 777  L 2627.714285714286 780.8571428571428  L 2634.1428571428573 771.8571428571429  " stroke-width="3.8571428571428577" stroke="#999999" fill="none" />
</svg>