<?xml version="1.0" encoding="utf-8"?>
<svg version="1.1" xmlns:xlink="http://www.w3.org/1999/xlink" width="18px" height="18px" viewBox="2749 800  18 18" xmlns="http://www.w3.org/2000/svg">
  <path d="M 2749.5 803  A 2.5 2.5 0 0 1 2752 800.5 L 2764 800.5  A 2.5 2.5 0 0 1 2766.5 803 L 2766.5 815  A 2.5 2.5 0 0 1 2764 817.5 L 2752 817.5  A 2.5 2.5 0 0 1 2749.5 815 L 2749.5 803  Z " fill-rule="nonzero" fill="#ffffff" stroke="none" />
  <path d="M 2749.5 803  A 2.5 2.5 0 0 1 2752 800.5 L 2764 800.5  A 2.5 2.5 0 0 1 2766.5 803 L 2766.5 815  A 2.5 2.5 0 0 1 2764 817.5 L 2752 817.5  A 2.5 2.5 0 0 1 2749.5 815 L 2749.5 803  Z " stroke-width="1" stroke="#797979" fill="none" />
</svg>