<?xml version="1.0" encoding="utf-8"?>
<svg version="1.1" xmlns:xlink="http://www.w3.org/1999/xlink" width="18px" height="18px" viewBox="2620 897  18 18" xmlns="http://www.w3.org/2000/svg">
  <path d="M 2620.5 900  A 2.5 2.5 0 0 1 2623 897.5 L 2635 897.5  A 2.5 2.5 0 0 1 2637.5 900 L 2637.5 912  A 2.5 2.5 0 0 1 2635 914.5 L 2623 914.5  A 2.5 2.5 0 0 1 2620.5 912 L 2620.5 900  Z " fill-rule="nonzero" fill="#ffffff" stroke="none" />
  <path d="M 2620.5 900  A 2.5 2.5 0 0 1 2623 897.5 L 2635 897.5  A 2.5 2.5 0 0 1 2637.5 900 L 2637.5 912  A 2.5 2.5 0 0 1 2635 914.5 L 2623 914.5  A 2.5 2.5 0 0 1 2620.5 912 L 2620.5 900  Z " stroke-width="1" stroke="#797979" fill="none" />
</svg>