<?xml version="1.0" encoding="utf-8"?>
<svg version="1.1" xmlns:xlink="http://www.w3.org/1999/xlink" width="18px" height="18px" viewBox="2878 964  18 18" xmlns="http://www.w3.org/2000/svg">
  <path d="M 2878.5 967  A 2.5 2.5 0 0 1 2881 964.5 L 2893 964.5  A 2.5 2.5 0 0 1 2895.5 967 L 2895.5 979  A 2.5 2.5 0 0 1 2893 981.5 L 2881 981.5  A 2.5 2.5 0 0 1 2878.5 979 L 2878.5 967  Z " fill-rule="nonzero" fill="#ffffff" stroke="none" />
  <path d="M 2878.5 967  A 2.5 2.5 0 0 1 2881 964.5 L 2893 964.5  A 2.5 2.5 0 0 1 2895.5 967 L 2895.5 979  A 2.5 2.5 0 0 1 2893 981.5 L 2881 981.5  A 2.5 2.5 0 0 1 2878.5 979 L 2878.5 967  Z " stroke-width="1" stroke="#797979" fill="none" />
  <path d="M 2881.8571428571427 973  L 2885.714285714286 976.8571428571428  L 2892.1428571428573 967.8571428571429  " stroke-width="3.8571428571428577" stroke="#797979" fill="none" />
</svg>