<?xml version="1.0" encoding="utf-8"?>
<svg version="1.1" xmlns:xlink="http://www.w3.org/1999/xlink" width="10px" height="12px" xmlns="http://www.w3.org/2000/svg">
  <g transform="matrix(1 0 0 1 -3223 -799 )">
    <path d="M 9.884470142045455 0.6693838274336282  C 9.884470142045455 0.9806817212389378  9.614427769886365 1.233053482300885  9.281300909090909 1.233053482300885  L 0.6169789630681817 1.233053482300885  C 0.2838666335227271 1.233053482300885  0.013809730113636398 0.9806953008849557  0.013809730113636398 0.6693838274336285  C 0.013809730113636398 0.35808593362831864  0.28385210227272745 0.10571417256637183  0.6169789630681817 0.10571417256637183  L 9.281300923295454 0.10571417256637183  C 9.61442778409091 0.10571417256637164  9.884470142045455 0.3580723407079646  9.884470142045455 0.6693838274336282  Z M 4.997528948863636 2.765717123893805  C 4.664416619318182 2.765717123893805  4.39435971590909 3.0180753053097344  4.39435971590909 3.3293867787610623  L 4.39435971590909 11.426310663716814  C 4.39435971590909 11.737608557522124  4.664402088068181 11.98998031858407  4.997528948863636 11.98998031858407  C 5.33064127840909 11.98998031858407  5.600698181818181 11.737622137168142  5.600698181818181 11.426310663716814  L 5.600698181818181 3.329373199115044  C 5.6006836505681825 3.0180753053097344  5.33064127840909 2.765717123893805  4.997528948863636 2.765717123893805  Z M 5.425587812499999 2.349865407079646  C 5.190038423295454 2.1297413761061947  4.821648196022727 2.1171085221238934  4.602756605113635 2.3216656194690266  L 0.1598488920454547 6.473608274336284  C -0.05902816761363606 6.678151792035399  -0.04552458806818164 7.0224173495575215  0.19002480113636366 7.242541380530973  C 0.42557419034090893 7.462665411504425  0.7939644176136363 7.475298265486726  1.012841477272727 7.270741168141592  L 5.455763721590909 3.118798513274336  C 5.674640781250001 2.9142550088495573  5.661137201704545 2.5699894380530974  5.425587812499999 2.349865407079646  Z M 4.5695573011363635 2.349865407079646  C 4.334007911931819 2.569989438053097  4.320489801136364 2.914254995575221  4.539381392045454 3.118798513274336  L 8.982289105113637 7.270754747787611  C 9.201166164772728 7.475298265486726  9.569556392045456 7.462678991150442  9.805105781249999 7.242554960176992  C 10.040655170454544 7.022430929203541  10.054173281250002 6.678165371681416  9.83528169034091 6.473621853982301  L 5.392373977272726 2.3216520398230087  C 5.173496917613637 2.11710853539823  4.805106676136363 2.1297413761061947  4.5695573011363635 2.349865407079646  Z " fill-rule="nonzero" fill="#999999" stroke="none" transform="matrix(1 0 0 1 3223 799 )" />
  </g>
</svg>