<?xml version="1.0" encoding="utf-8"?>
<svg version="1.1" xmlns:xlink="http://www.w3.org/1999/xlink" width="13px" height="10px" xmlns="http://www.w3.org/2000/svg">
  <g transform="matrix(1 0 0 1 -3026 -801 )">
    <path d="M 0 0.4545454545454546  C 0 0.7054545454545452  0.22399999999999998 0.9090909090909092  0.5 1  L 12.5 1  C 12.776 0.9090909090909092  13 0.7054545454545452  13 0.4545454545454546  C 13 0.20363636363636384  12.776 0  12.5 0  L 0.5 0  C 0.22399999999999998 0  0 0.20363636363636384  0 0.4545454545454546  Z M 13 5  C 13 4.74909090909091  12.776 4.545454545454545  12.5 4.545454545454545  L 0.5 4.545454545454545  C 0.22399999999999998 4.545454545454545  0 4.74909090909091  0 5  C 0 5.25090909090909  0.22399999999999998 5.454545454545454  0.5 5.454545454545454  L 12.5 5.454545454545454  C 12.776 5.454545454545454  13 5.25090909090909  13 5  Z M 13 9.545454545454547  C 13 9.294545454545455  12.776 9.09090909090909  12.5 9  L 0.5 9  C 0.22399999999999998 9.09090909090909  0 9.294545454545455  0 9.545454545454547  C 0 9.796363636363637  0.22399999999999998 10  0.5 10  L 12.5 10  C 12.776 10  13 9.796363636363637  13 9.545454545454547  Z " fill-rule="nonzero" fill="#999999" stroke="none" transform="matrix(1 0 0 1 3026 801 )" />
  </g>
</svg>