<?xml version="1.0" encoding="utf-8"?>
<svg version="1.1" xmlns:xlink="http://www.w3.org/1999/xlink" width="18px" height="18px" viewBox="2749 964  18 18" xmlns="http://www.w3.org/2000/svg">
  <path d="M 2749.5 967  A 2.5 2.5 0 0 1 2752 964.5 L 2764 964.5  A 2.5 2.5 0 0 1 2766.5 967 L 2766.5 979  A 2.5 2.5 0 0 1 2764 981.5 L 2752 981.5  A 2.5 2.5 0 0 1 2749.5 979 L 2749.5 967  Z " fill-rule="nonzero" fill="#ffffff" stroke="none" />
  <path d="M 2749.5 967  A 2.5 2.5 0 0 1 2752 964.5 L 2764 964.5  A 2.5 2.5 0 0 1 2766.5 967 L 2766.5 979  A 2.5 2.5 0 0 1 2764 981.5 L 2752 981.5  A 2.5 2.5 0 0 1 2749.5 979 L 2749.5 967  Z " stroke-width="1" stroke="#797979" fill="none" />
</svg>