<?xml version="1.0" encoding="utf-8"?>
<svg version="1.1" xmlns:xlink="http://www.w3.org/1999/xlink" width="10px" height="450px" preserveAspectRatio="xMidYMin meet" viewBox="1550 400  8 450" xmlns="http://www.w3.org/2000/svg">
  <path d="M 1618 405  L 1559 405  A 5 5 0 0 0 1554 410 L 1554 840  A 5 5 0 0 0 1559 845 L 1578 845  " stroke-width="2" stroke="#0066ff" fill="none" />
  <path d="M 1616.5 401.5  A 3.5 3.5 0 0 0 1613 405 A 3.5 3.5 0 0 0 1616.5 408.5 A 3.5 3.5 0 0 0 1620 405 A 3.5 3.5 0 0 0 1616.5 401.5 Z M 1570.6 853  L 1580 845  L 1570.6 837  L 1574.2 845  L 1570.6 853  Z " fill-rule="nonzero" fill="#0066ff" stroke="none" />
</svg>