<?xml version="1.0" encoding="utf-8"?>
<svg version="1.1" xmlns:xlink="http://www.w3.org/1999/xlink" width="20px" height="21px" preserveAspectRatio="xMidYMin meet" viewBox="771 1645  18 21" xmlns="http://www.w3.org/2000/svg">
  <defs>
    <mask fill="white" id="clip6186">
      <path d="M 606.3705 1711  L 691.6295 1711  L 691.6295 1739  L 606.3705 1739  Z M 428 1642  L 790 1642  L 790 1742  L 428 1742  Z " fill-rule="evenodd" />
    </mask>
  </defs>
  <path d="M 780 1654  L 780 1720  A 5 5 0 0 1 775 1725 L 447 1725  " stroke-width="2" stroke="#0066ff" fill="none" mask="url(#clip6186)" />
  <path d="M 780 1652  A 3.5 3.5 0 0 0 776.5 1655.5 A 3.5 3.5 0 0 0 780 1659 A 3.5 3.5 0 0 0 783.5 1655.5 A 3.5 3.5 0 0 0 780 1652 Z M 454.4 1717  L 445 1725  L 454.4 1733  L 450.8 1725  L 454.4 1717  Z " fill-rule="nonzero" fill="#0066ff" stroke="none" mask="url(#clip6186)" />
</svg>