<?xml version="1.0" encoding="utf-8"?>
<svg version="1.1" xmlns:xlink="http://www.w3.org/1999/xlink" width="320px" height="86px" xmlns="http://www.w3.org/2000/svg">
  <g transform="matrix(1 0 0 1 -220 -668 )">
    <path d="M 221 673  A 4 4 0 0 1 225 669 L 535 669  A 4 4 0 0 1 539 673 L 539 749  A 4 4 0 0 1 535 753 L 225 753  A 4 4 0 0 1 221 749 L 221 673  Z " fill-rule="nonzero" fill="#ffffff" stroke="none" />
    <path d="M 220.5 673  A 4.5 4.5 0 0 1 225 668.5 L 535 668.5  A 4.5 4.5 0 0 1 539.5 673 L 539.5 749  A 4.5 4.5 0 0 1 535 753.5 L 225 753.5  A 4.5 4.5 0 0 1 220.5 749 L 220.5 673  Z " stroke-width="1" stroke-dasharray="9,4" stroke="#797979" fill="none" stroke-dashoffset="0.5" />
  </g>
</svg>