<?xml version="1.0" encoding="utf-8"?>
<svg version="1.1" xmlns:xlink="http://www.w3.org/1999/xlink" width="21px" height="20px" preserveAspectRatio="xMinYMid meet" viewBox="1606 431  21 18" xmlns="http://www.w3.org/2000/svg">
  <path d="M 1618 440  L 1575 440  A 5 5 0 0 0 1570 445 L 1570 540  A 5 5 0 0 0 1575 545 L 1578 545  " stroke-width="2" stroke="#0066ff" fill="none" />
  <path d="M 1616.5 436.5  A 3.5 3.5 0 0 0 1613 440 A 3.5 3.5 0 0 0 1616.5 443.5 A 3.5 3.5 0 0 0 1620 440 A 3.5 3.5 0 0 0 1616.5 436.5 Z M 1570.6 553  L 1580 545  L 1570.6 537  L 1574.2 545  L 1570.6 553  Z " fill-rule="nonzero" fill="#0066ff" stroke="none" />
</svg>