<?xml version="1.0" encoding="utf-8"?>
<svg version="1.1" xmlns:xlink="http://www.w3.org/1999/xlink" width="34px" height="34px" preserveAspectRatio="xMinYMid meet" viewBox="696 1613  34 32" xmlns="http://www.w3.org/2000/svg">
  <defs>
    <mask fill="white" id="clip6183">
      <path d="M 530.5 1615  L 629.5 1615  L 629.5 1643  L 530.5 1643  Z M 435 1612  L 732 1612  L 732 1646  L 435 1646  Z " fill-rule="evenodd" />
    </mask>
  </defs>
  <path d="M 530.5 1629  L 447 1629  M 629.5 1629  L 713 1629  " stroke-width="2" stroke="#0066ff" fill="none" />
  <path d="M 448.5 1625.5  A 3.5 3.5 0 0 0 445 1629 A 3.5 3.5 0 0 0 448.5 1632.5 A 3.5 3.5 0 0 0 452 1629 A 3.5 3.5 0 0 0 448.5 1625.5 Z M 705.6 1637  L 715 1629  L 705.6 1621  L 709.2 1629  L 705.6 1637  Z " fill-rule="nonzero" fill="#0066ff" stroke="none" mask="url(#clip6183)" />
</svg>