<?xml version="1.0" encoding="utf-8"?>
<svg version="1.1" xmlns:xlink="http://www.w3.org/1999/xlink" width="170px" height="314px" xmlns="http://www.w3.org/2000/svg">
  <g transform="matrix(1 0 0 1 -295 -1867 )">
    <path d="M 296 1872  A 4 4 0 0 1 300 1868 L 460 1868  A 4 4 0 0 1 464 1872 L 464 2176  A 4 4 0 0 1 460 2180 L 300 2180  A 4 4 0 0 1 296 2176 L 296 1872  Z " fill-rule="nonzero" fill="#ffffff" stroke="none" />
    <path d="M 295.5 1872  A 4.5 4.5 0 0 1 300 1867.5 L 460 1867.5  A 4.5 4.5 0 0 1 464.5 1872 L 464.5 2176  A 4.5 4.5 0 0 1 460 2180.5 L 300 2180.5  A 4.5 4.5 0 0 1 295.5 2176 L 295.5 1872  Z " stroke-width="1" stroke-dasharray="9,4" stroke="#797979" fill="none" stroke-dashoffset="0.5" />
  </g>
</svg>