<?xml version="1.0" encoding="utf-8"?>
<svg version="1.1" xmlns:xlink="http://www.w3.org/1999/xlink" width="34px" height="34px" preserveAspectRatio="xMinYMid meet" viewBox="1811 829  34 32" xmlns="http://www.w3.org/2000/svg">
  <path d="M 1868 405  L 1811 405  A 5 5 0 0 0 1806 410 L 1806 840  A 5 5 0 0 0 1811 845 L 1828 845  " stroke-width="2" stroke="#0066ff" fill="none" />
  <path d="M 1866.5 401.5  A 3.5 3.5 0 0 0 1863 405 A 3.5 3.5 0 0 0 1866.5 408.5 A 3.5 3.5 0 0 0 1870 405 A 3.5 3.5 0 0 0 1866.5 401.5 Z M 1820.6 853  L 1830 845  L 1820.6 837  L 1824.2 845  L 1820.6 853  Z " fill-rule="nonzero" fill="#0066ff" stroke="none" />
</svg>