<?xml version="1.0" encoding="utf-8"?>
<svg version="1.1" xmlns:xlink="http://www.w3.org/1999/xlink" width="10px" height="115px" preserveAspectRatio="xMidYMin meet" viewBox="1816 435  8 115" xmlns="http://www.w3.org/2000/svg">
  <path d="M 1868 440  L 1825 440  A 5 5 0 0 0 1820 445 L 1820 540  A 5 5 0 0 0 1825 545 L 1828 545  " stroke-width="2" stroke="#0066ff" fill="none" />
  <path d="M 1866.5 436.5  A 3.5 3.5 0 0 0 1863 440 A 3.5 3.5 0 0 0 1866.5 443.5 A 3.5 3.5 0 0 0 1870 440 A 3.5 3.5 0 0 0 1866.5 436.5 Z M 1820.6 553  L 1830 545  L 1820.6 537  L 1824.2 545  L 1820.6 553  Z " fill-rule="nonzero" fill="#0066ff" stroke="none" />
</svg>