<?xml version="1.0" encoding="utf-8"?>
<svg version="1.1" xmlns:xlink="http://www.w3.org/1999/xlink" width="10px" height="185px" preserveAspectRatio="xMidYMin meet" viewBox="2316 365  8 185" xmlns="http://www.w3.org/2000/svg">
  <path d="M 2368 370  L 2325 370  A 5 5 0 0 0 2320 375 L 2320 540  A 5 5 0 0 0 2325 545 L 2328 545  " stroke-width="2" stroke="#0066ff" fill="none" />
  <path d="M 2366.5 366.5  A 3.5 3.5 0 0 0 2363 370 A 3.5 3.5 0 0 0 2366.5 373.5 A 3.5 3.5 0 0 0 2370 370 A 3.5 3.5 0 0 0 2366.5 366.5 Z M 2320.6 553  L 2330 545  L 2320.6 537  L 2324.2 545  L 2320.6 553  Z " fill-rule="nonzero" fill="#0066ff" stroke="none" />
</svg>