<?xml version="1.0" encoding="utf-8"?>
<svg version="1.1" xmlns:xlink="http://www.w3.org/1999/xlink" width="15px" height="10px" preserveAspectRatio="xMinYMid meet" viewBox="2315 841  15 8" xmlns="http://www.w3.org/2000/svg">
  <path d="M 2368 705  L 2325 705  A 5 5 0 0 0 2320 710 L 2320 840  A 5 5 0 0 0 2325 845 L 2328 845  " stroke-width="2" stroke="#0066ff" fill="none" />
  <path d="M 2366.5 701.5  A 3.5 3.5 0 0 0 2363 705 A 3.5 3.5 0 0 0 2366.5 708.5 A 3.5 3.5 0 0 0 2370 705 A 3.5 3.5 0 0 0 2366.5 701.5 Z M 2320.6 853  L 2330 845  L 2320.6 837  L 2324.2 845  L 2320.6 853  Z " fill-rule="nonzero" fill="#0066ff" stroke="none" />
</svg>