<?xml version="1.0" encoding="utf-8"?>
<svg version="1.1" xmlns:xlink="http://www.w3.org/1999/xlink" width="34px" height="34px" preserveAspectRatio="xMinYMid meet" viewBox="2061 529  34 32" xmlns="http://www.w3.org/2000/svg">
  <path d="M 2118 370  L 2075 370  A 5 5 0 0 0 2070 375 L 2070 540  A 5 5 0 0 0 2075 545 L 2078 545  " stroke-width="2" stroke="#0066ff" fill="none" />
  <path d="M 2116.5 366.5  A 3.5 3.5 0 0 0 2113 370 A 3.5 3.5 0 0 0 2116.5 373.5 A 3.5 3.5 0 0 0 2120 370 A 3.5 3.5 0 0 0 2116.5 366.5 Z M 2070.6 553  L 2080 545  L 2070.6 537  L 2074.2 545  L 2070.6 553  Z " fill-rule="nonzero" fill="#0066ff" stroke="none" />
</svg>