<?xml version="1.0" encoding="utf-8"?>
<svg version="1.1" xmlns:xlink="http://www.w3.org/1999/xlink" width="70px" height="10px" preserveAspectRatio="xMinYMid meet" viewBox="2300 331  70 8" xmlns="http://www.w3.org/2000/svg">
  <path d="M 2368 335  L 2310 335  A 5 5 0 0 0 2305 340 L 2305 1140  A 5 5 0 0 0 2310 1145 L 2328 1145  " stroke-width="2" stroke="#0066ff" fill="none" />
  <path d="M 2366.5 331.5  A 3.5 3.5 0 0 0 2363 335 A 3.5 3.5 0 0 0 2366.5 338.5 A 3.5 3.5 0 0 0 2370 335 A 3.5 3.5 0 0 0 2366.5 331.5 Z M 2320.6 1153  L 2330 1145  L 2320.6 1137  L 2324.2 1145  L 2320.6 1153  Z " fill-rule="nonzero" fill="#0066ff" stroke="none" />
</svg>