<?xml version="1.0" encoding="utf-8"?>
<svg version="1.1" xmlns:xlink="http://www.w3.org/1999/xlink" width="34px" height="34px" preserveAspectRatio="xMinYMid meet" viewBox="2061 829  34 32" xmlns="http://www.w3.org/2000/svg">
  <path d="M 2118 335  L 2061 335  A 5 5 0 0 0 2056 340 L 2056 840  A 5 5 0 0 0 2061 845 L 2078 845  " stroke-width="2" stroke="#0066ff" fill="none" />
  <path d="M 2116.5 331.5  A 3.5 3.5 0 0 0 2113 335 A 3.5 3.5 0 0 0 2116.5 338.5 A 3.5 3.5 0 0 0 2120 335 A 3.5 3.5 0 0 0 2116.5 331.5 Z M 2070.6 853  L 2080 845  L 2070.6 837  L 2074.2 845  L 2070.6 853  Z " fill-rule="nonzero" fill="#0066ff" stroke="none" />
</svg>