<?xml version="1.0" encoding="utf-8"?>
<svg version="1.1" xmlns:xlink="http://www.w3.org/1999/xlink" width="34px" height="34px" preserveAspectRatio="xMinYMid meet" viewBox="2561 529  34 32" xmlns="http://www.w3.org/2000/svg">
  <path d="M 2618 370  L 2575 370  A 5 5 0 0 0 2570 375 L 2570 540  A 5 5 0 0 0 2575 545 L 2578 545  " stroke-width="2" stroke="#0066ff" fill="none" />
  <path d="M 2616.5 366.5  A 3.5 3.5 0 0 0 2613 370 A 3.5 3.5 0 0 0 2616.5 373.5 A 3.5 3.5 0 0 0 2620 370 A 3.5 3.5 0 0 0 2616.5 366.5 Z M 2570.6 553  L 2580 545  L 2570.6 537  L 2574.2 545  L 2570.6 553  Z " fill-rule="nonzero" fill="#0066ff" stroke="none" />
</svg>