<?xml version="1.0" encoding="utf-8"?>
<svg version="1.1" xmlns:xlink="http://www.w3.org/1999/xlink" width="40px" height="40px" xmlns="http://www.w3.org/2000/svg">
  <g transform="matrix(1 0 0 1 -1495 -65 )">
    <path d="M 6.071428571428569 12.5  L 6.071428571428569 6.071428571428569  L 12.5 6.071428571428569  L 12.5 12.5  L 6.071428571428569 12.5  Z M 6.071428571428569 33.92857142857143  L 6.071428571428569 27.5  L 12.5 27.5  L 12.5 33.92857142857143  L 6.071428571428569 33.92857142857143  Z M 27.5 12.5  L 27.5 6.071428571428569  L 33.92857142857143 6.071428571428569  L 33.92857142857143 12.5  L 27.5 12.5  Z M 36.42857142857143 33.214285714285715  L 36.42857142857143 36.42857142857143  L 30 36.42857142857143  L 30 39.642857142857146  L 36.42857142857143 39.642857142857146  C 38.214285714285715 39.642857142857146  39.642857142857146 38.214285714285715  39.642857142857146 36.42857142857143  L 39.642857142857146 33.214285714285715  L 36.42857142857143 33.214285714285715  Z M 3.5714285714285716 1  C 1.7857142857142858 0.3571428571428571  0.3571428571428571 1.7857142857142858  1 3.5714285714285716  L 1 19  L 19 19  L 19 1  L 3.5714285714285716 1  Z M 15 4  L 15 15  L 4 15  L 4 4  L 15 4  Z M 1 21  L 1 36.42857142857143  C 0.3571428571428571 38.214285714285715  1.7857142857142858 39.642857142857146  3.5714285714285716 39  L 19 39  L 19 21  L 1 21  Z M 4 36  L 4 25  L 15 25  L 15 36  L 4 36  Z M 21.785714285714285 25  L 21.785714285714285 21  L 33.214285714285715 21  L 33.214285714285715 25  L 21.785714285714285 25  Z M 33.214285714285715 26.42857142857143  L 30 26.42857142857143  L 26.42857142857143 26.42857142857143  L 26.42857142857143 30  L 30 30  L 30 33.214285714285715  L 33.214285714285715 33.214285714285715  L 33.214285714285715 30  L 39.642857142857146 30  L 39.642857142857146 26.42857142857143  L 33.214285714285715 26.42857142857143  Z M 21.785714285714285 39.642857142857146  L 21.785714285714285 33.214285714285715  L 25 33.214285714285715  L 25 39.642857142857146  L 21.785714285714285 39.642857142857146  Z M 26.42857142857143 36.42857142857143  L 26.42857142857143 33.214285714285715  L 29.642857142857146 33.214285714285715  L 29.642857142857146 36.42857142857143  L 26.42857142857143 36.42857142857143  Z M 21.785714285714285 29.642857142857146  L 21.785714285714285 26.42857142857143  L 25 26.42857142857143  L 25 29.642857142857146  L 21.785714285714285 29.642857142857146  Z M 36.42857142857143 25  L 36.42857142857143 21.785714285714285  L 39.642857142857146 21.785714285714285  L 39.642857142857146 25  L 36.42857142857143 25  Z M 39 3.5714285714285716  C 39.642857142857146 1.7857142857142858  38.214285714285715 0.3571428571428571  36.42857142857143 1  L 21 1  L 21 19  L 39 19  L 39 3.5714285714285716  Z M 36 4  L 36 15  L 25 15  L 25 4  L 36 4  Z " fill-rule="nonzero" fill="#999999" stroke="none" transform="matrix(1 0 0 1 1495 65 )" />
  </g>
</svg>