<?xml version="1.0" encoding="utf-8"?>
<svg version="1.1" xmlns:xlink="http://www.w3.org/1999/xlink" width="16px" height="16px" xmlns="http://www.w3.org/2000/svg">
  <g transform="matrix(1 0 0 1 -291 -97 )">
    <path d="M 15.91151304347826 9.816636559139782  C 15.908452511408571 11.179364685470317  14.792496910312384 12.283320763974071  13.41495652173913 12.286348387096774  C 12.950230515898902 12.286348387096774  12.57349565217391 11.913664435884959  12.57349565217391 11.45393548387097  C 12.57349565217391 10.99420653185698  12.950230515898902 10.621522580645161  13.41495652173913 10.621522580645161  C 13.864314604105811 10.621522580645161  14.228591304347825 10.261162834169186  14.228591304347825 9.816636559139786  L 14.228591304347825 2.6023913978494617  C 14.228591304347825 2.1578651228200654  13.864314604105802 1.7975053763440856  13.41495652173913 1.7975053763440856  L 6.122295652173913 1.7975053763440856  C 5.672937569807238 1.7975053763440856  5.308660869565217 2.157865122820063  5.308660869565217 2.6023913978494617  C 5.308660869565217 3.0621203498634513  4.931926005840227 3.4348043010752685  4.4672 3.4348043010752685  C 4.002473994159772 3.4348043010752685  3.6257391304347824 3.0621203498634513  3.625739130434781 2.6023913978494617  C 3.6287996625044703 1.2396632715189315  4.744755263600657 0.135707193015175  6.1222956521739125 0.13267956989247257  L 13.414956521739127 0.13267956989247195  C 14.79249691031238 0.1357071930151744  15.908452511408571 1.2396632715189315  15.91151304347826 2.6023913978494617  L 15.91151304347826 9.816636559139782  Z M 12.320834782608694 13.285023655913982  C 12.348660869565215 14.728533333333337  11.143234782608696 15.894572043010754  9.684034782608695 15.894572043010754  L 2.6996869565217394 15.894572043010754  C 2.6985732070572546 15.894573440906708  2.6974594568119574 15.89457413985489  2.6963457064510323 15.89457413985489  C 1.2419254289140225 15.89457413985489  0.06288483688581499 14.728211403654944  0.06288483688581499 13.289430053833387  C 0.06288483688581499 13.288328279284007  0.0628855434312653 13.287226504845371  0.06288695652173962 13.286124731182799  L 0.06288695652173901 6.349350537634411  C 0.06288444515472359 6.3478817389512585  0.06288318947054365 6.346412938430984  0.06288318947054365 6.3449441376467774  C 0.06288318947054365 4.9061627878252185  1.2419237814987512 3.739800051625272  2.6963440590357615 3.739800051625272  C 2.697458358534245 3.739800051625272  2.698572657921025 3.7398007512628677  2.6996869565217394 3.739802150537637  L 9.684034782608695 3.7398021505376358  C 9.685148532071334 3.739800752641684  9.686262282320317 3.7398000536934957  9.687376032679401 3.7398000536934957  C 11.14179631021641 3.7398000536934957  12.320836902244618 4.906162789893443  12.320836902244618 6.344944139715  C 12.320836902244618 6.346045914264986  12.320836195699169 6.34714768870241  12.320834782608694 6.348249462365594  L 12.320834782608694 13.285023655913982  Z M 9.684034782608695 5.404627956989247  L 2.6996869565217394 5.404627956989247  C 2.6970791276870183 5.4046066227394505  2.6944712208266397 5.40459595547777  2.691863302819922 5.40459595547777  C 2.1693539047191366 5.40459595547777  1.7457763462981828 5.823618916496349  1.7457763462981828 6.340509933972394  C 1.7457763462981828 6.34308980985014  1.7457871295083565 6.3456696747010035  1.7458086956521743 6.348249462365591  L 1.7458086956521743 13.285023655913982  C 1.7457871295083578 13.287603443578504  1.7457763462981828 13.290183308429494  1.7457763462981828 13.292763184307175  C 1.7457763462981828 13.809654201783221  2.1693539047191366 14.228677162801798  2.691863302819922 14.228677162801798  C 2.6944712208267076 14.228677162801798  2.6970791276869504 14.22866649554012  2.6996869565217394 14.228645161290324  L 9.684034782608695 14.228645161290324  C 9.686642611443586 14.228666495540125  9.689250518303625 14.228677162801798  9.691858436310515 14.228677162801798  C 10.214367834411298 14.228677162801798  10.637945392832252 13.809654201783221  10.637945392832252 13.292763184307175  C 10.637945392832252 13.290183308429494  10.63793460962208 13.287603443578504  10.637913043478262 13.285023655913978  L 10.637913043478262 6.348249462365593  C 10.63793460962208 6.34566967470097  10.637945392832252 6.343089809850175  10.637945392832252 6.340509933972394  C 10.637945392832252 5.823618916496349  10.214367834411298 5.40459595547777  9.691858436310515 5.40459595547777  C 9.689250518303593 5.40459595547777  9.68664261144362 5.404606622739449  9.684034782608695 5.404627956989247  Z " fill-rule="nonzero" fill="#999999" stroke="none" transform="matrix(1 0 0 1 291 97 )" />
  </g>
</svg>