<?xml version="1.0" encoding="utf-8"?>
<svg version="1.1" xmlns:xlink="http://www.w3.org/1999/xlink" width="70px" height="70px" xmlns="http://www.w3.org/2000/svg">
  <g transform="matrix(1 0 0 1 -50 -50 )">
    <path d="M 69.74188500000001 35.05923984375  C 69.74188500000001 54.220968203125004  54.190748671875006 69.757474453125  35.006315703125 69.757474453125  C 15.823641562499997 69.757474453125  0.2780214843749951 54.22088828125  0.2780214843749951 35.05923984375  C 0.2780214843749951 20.35105203125  9.432854531249996 7.785171640625004  22.362008515624993 2.7352355468750034  C 26.26847992187499 1.159343984375003  30.536306328124994 0.28905406250000376  35.007195078125 0.28905406250000376  C 39.483600078125 0.28905406250000376  43.747748984375 1.158464609375004  47.657897890625 2.7352355468750034  C 60.5862525 7.785171640624999  69.74188500000001 20.351131953124998  69.74188500000001 35.05923984375  Z M 21.657366328125 27.74156125  C 21.657366328125 33.58895671875  24.653415000000003 38.65160421875  29.008702109375 41.129684140625  C 30.8149175 42.157467265625  32.84865859375 42.750185468750004  35.006315703125 42.750185468750004  C 37.088264140625 42.750185468750004  39.051093359374995 42.19576140625001  40.80998078125 41.23801070312501  C 45.268158125 38.80725875000002  48.360781328125 33.682733203125004  48.360781328125 27.742520625000008  C 48.360781328125 19.47164828125001  42.371402109375005 12.739412734375009  35.006395624999996 12.739412734375009  C 27.645866093749998 12.73853328125  21.657366328125 19.47084875  21.657366328125 27.74156125  Z M 35.147420078124995 67.508918984375  C 45.294540312500004 67.508918984375  54.346403203125 62.84232296875  60.279340625 55.539274375  C 59.578455859375 49.77838023437499  53.964901796875004 44.874185312499996  46.020128359375 42.427923906249994  C 43.019522734375 45.12721375  39.185881953125005 46.751392578125  35.005356406249994 46.751392578125  C 30.732013749999997 46.751392578125  26.820185937499996 45.039833046875  23.79040015624999 42.223102734375  C 16.062119921874995 44.428887187499996  10.401397890624992 48.92807679687499  9.074137812499995 54.319301484374996  C 14.961506093750002 62.3169990625  24.450432578124996 67.508918984375  35.147420078124995 67.508918984375  Z " fill-rule="nonzero" fill="#cccccc" stroke="none" transform="matrix(1 0 0 1 50 50 )" />
  </g>
</svg>