<?xml version="1.0" encoding="utf-8"?>
<svg version="1.1" xmlns:xlink="http://www.w3.org/1999/xlink" width="26px" height="26px" xmlns="http://www.w3.org/2000/svg">
  <g transform="matrix(1 0 0 1 -61 -1925 )">
    <path d="M 74 1925  C 81.28 1925  87 1930.72  87 1938  C 87 1945.28  81.28 1951  74 1951  C 66.72 1951  61 1945.28  61 1938  C 61 1930.72  66.72 1925  74 1925  Z " fill-rule="nonzero" fill="#e7772d" stroke="none" />
    <path d="M 74 1925.5  C 81 1925.5  86.5 1931  86.5 1938  C 86.5 1945  81 1950.5  74 1950.5  C 67 1950.5  61.5 1945  61.5 1938  C 61.5 1931  67 1925.5  74 1925.5  Z " stroke-width="1" stroke="#e7772d" fill="none" />
  </g>
</svg>