<?xml version="1.0" encoding="utf-8"?>
<svg version="1.1" xmlns:xlink="http://www.w3.org/1999/xlink" width="10px" height="10px" xmlns="http://www.w3.org/2000/svg">
  <g transform="matrix(1 0 0 1 -69 -1933 )">
    <path d="M 10 1.6666666666666665  C 10 1.2979166666666666  9.7197265625 1  9.375 1  L 8.134765625 1  C 8.134765625 0.4479166666666667  7.71484375 0  7.197265625 0  L 7.041015625 0  C 6.5234375 0  6.103515625 0.4479166666666667  6.103515625 1  L 3.90625 1  C 3.90625 0.7239583333333334  3.8017578125 0.4739583333333333  3.6318359375 0.29270833333333324  C 3.4619140625 0.11145833333333335  3.2275390625 0  2.96875 0  L 2.8125 0  C 2.294921875 0  1.875 0.4479166666666667  1.875 1  L 0.625 1  C 0.2802734375 1  0 1.2979166666666666  0 1.6666666666666665  L 0 9.333333333333334  C 0 9.701041666666667  0.2802734375 10  0.625 10  L 9.375 10  C 9.7197265625 10  10 9.701041666666667  10 9.333333333333334  L 10 1.6666666666666665  Z M 6.728515625 1.9166666666666667  L 6.728515625 1.0833333333333335  C 6.728515625 0.853125  6.9033203125 0.6666666666666666  7.119140625 0.6666666666666666  C 7.3349609375 0.6666666666666666  7.509765625 0.853125  7.509765625 1.0833333333333335  L 7.509765625 1.9166666666666667  C 7.509765625 2.146875  7.3349609375 2.3333333333333335  7.119140625 2.3333333333333335  C 7.01171875 2.3333333333333335  6.9140625 2.286458333333333  6.8427734375 2.2114583333333333  C 6.7724609375 2.1354166666666665  6.728515625 2.03125  6.728515625 1.9166666666666667  Z M 2.5 1.9166666666666667  L 2.5 1.0833333333333335  C 2.5 0.853125  2.6748046875 0.6666666666666666  2.890625 0.6666666666666666  C 3.1064453125 0.6666666666666666  3.28125 0.853125  3.28125 1.0833333333333335  L 3.28125 1.9166666666666667  C 3.28125 2.146875  3.1064453125 2.3333333333333335  2.890625 2.3333333333333335  C 2.783203125 2.3333333333333335  2.685546875 2.286458333333333  2.6142578125 2.2114583333333333  C 2.5439453125 2.1354166666666665  2.5 2.03125  2.5 1.9166666666666667  Z M 9.375 4.333333333333334  L 9.375 9  C 9.375 9.184375  9.2353515625 9.333333333333334  9.0625 9.333333333333334  L 0.9375 9.333333333333334  C 0.7646484375 9.333333333333334  0.625 9.184375  0.625 9  L 0.625 4.333333333333334  L 9.375 4.333333333333334  Z M 0.9375 6.666666666666666  L 0.9375 5  L 3.4375 5  L 3.4375 6.666666666666666  L 0.9375 6.666666666666666  Z M 0.9375 8.666666666666668  L 0.9375 7  L 3.4375 7  L 3.4375 8.666666666666668  L 0.9375 8.666666666666668  Z M 3.75 6.666666666666666  L 3.75 5  L 6.25 5  L 6.25 6.666666666666666  L 3.75 6.666666666666666  Z M 3.75 8.666666666666668  L 3.75 7  L 6.25 7  L 6.25 8.666666666666668  L 3.75 8.666666666666668  Z M 6.5625 6.666666666666666  L 6.5625 5  L 9.0625 5  L 9.0625 6.666666666666666  L 6.5625 6.666666666666666  Z M 6.5625 8.666666666666668  L 6.5625 7  L 9.0625 7  L 9.0625 8.666666666666668  L 6.5625 8.666666666666668  Z " fill-rule="nonzero" fill="#ffffff" stroke="none" transform="matrix(1 0 0 1 69 1933 )" />
  </g>
</svg>