<?xml version="1.0" encoding="utf-8"?>
<svg version="1.1" xmlns:xlink="http://www.w3.org/1999/xlink" width="10px" height="10px" xmlns="http://www.w3.org/2000/svg">
  <g transform="matrix(1 0 0 1 -68 -1979 )">
    <path d="M 73 1979  C 75.8 1979  78 1981.2  78 1984  C 78 1986.8  75.8 1989  73 1989  C 70.2 1989  68 1986.8  68 1984  C 68 1981.2  70.2 1979  73 1979  Z " fill-rule="nonzero" fill="#e7772d" stroke="none" />
    <path d="M 73 1979.5  C 75.52 1979.5  77.5 1981.48  77.5 1984  C 77.5 1986.52  75.52 1988.5  73 1988.5  C 70.48 1988.5  68.5 1986.52  68.5 1984  C 68.5 1981.48  70.48 1979.5  73 1979.5  Z " stroke-width="1" stroke="#e7772d" fill="none" />
  </g>
</svg>