<?xml version="1.0" encoding="utf-8"?>
<svg version="1.1" xmlns:xlink="http://www.w3.org/1999/xlink" width="8px" height="8px" xmlns="http://www.w3.org/2000/svg">
  <g transform="matrix(1 0 0 1 -2952 -1120 )">
    <path d="M 0.34203539823008844 0.06964601769911509  L 7.607964601769912 0.06964601769911502  C 7.790265486725664 0.06964601769911502  7.938230088495576 0.21628318584070794  7.939557522123894 0.39858407079646013  C 7.940619469026549 0.5791150442477876  7.795132743362832 0.7264601769911502  7.614601769911505 0.7275221238938051  L 6.947522123893806 0.7275221238938051  L 6.947522123893806 1.631150442477876  C 6.947522123893806 2.6820353982300884  6.2869911504424785 3.5810619469026546  5.329203539823009 4.0328318584070795  C 6.2869911504424785 4.48  6.947522123893806 5.38362831858407  6.947522123893806 6.4345132743362825  L 6.947522123893806 7.338141592920353  L 7.608053097345133 7.338141592920353  C 7.789734513274336 7.338141592920353  7.936991150442478 7.485398230088495  7.936991150442478 7.667079646017698  C 7.936991150442478 7.8487610619469015  7.789734513274336 7.9960176991150425  7.608053097345133 7.9960176991150425  L 0.3407079646017699 7.9960176991150425  L 0.28123893805309735 7.990707964601769  C 0.1020353982300885 7.963274336283184  -0.021061946902654827 7.795752212389379  0.0063716814159291936 7.6165486725663705  C 0.03150442477876108 7.452123893805308  0.17575221238938052 7.332477876106193  0.34203539823008855 7.3380530973451314  L 1.0078761061946901 7.3380530973451314  L 1.0078761061946901 6.434601769911504  C 1.0078761061946901 5.383716814159293  1.667787610619469 4.484690265486726  2.6261946902654865 4.032920353982301  C 1.667787610619469 3.585752212389381  1.0078761061946901 2.68212389380531  1.0078761061946901 1.6312389380530976  L 1.0078761061946901 0.7275221238938053  L 0.34203539823008844 0.7275221238938053  C 0.16035398230088488 0.7275221238938053  0.013097345132743273 0.5802654867256638  0.013097345132743273 0.39858407079646024  C 0.013097345132743273 0.21690265486725668  0.16035398230088488 0.06964601769911509  0.34203539823008844 0.06964601769911509  Z M 6.286814159292036 0.7275221238938053  L 1.6663716814159293 0.7275221238938053  L 1.6663716814159293 1.6265486725663718  C 1.6663716814159293 2.40929203539823  2.1598230088495574 3.12929203539823  2.9193805309734513 3.4912389380530975  C 3.14929203539823 3.6121238938053097  3.2807079646017696 3.82283185840708  3.2807079646017696 4.0329203539823  C 3.2873451327433627 4.271858407079646  3.1424778761061942 4.488938053097345  2.9193805309734513 4.574601769911504  C 2.1644247787610618 4.936548672566371  1.6663716814159288 5.656548672566371  1.666991150442478 6.43929203539823  L 1.666991150442478 7.346902654867257  L 2.034867256637168 7.346902654867257  L 2.034867256637168 6.963805309734514  C 2.034867256637168 6.256991150442478  2.295132743362832 5.482212389380532  3.1023008849557523 5.011238938053098  L 3.234424778761062 4.939203539823009  C 3.5356637168141596 4.809115044247788  3.782654867256637 4.533628318584071  3.9748672566371677 4.113539823008851  C 4.126814159292035 4.502566371681418  4.384424778761061 4.7780530973451345  4.749026548672567 4.939203539823009  C 5.739823008849558 5.451150442477878  5.896371681415929 6.220619469026549  5.896371681415929 6.963716814159293  L 5.896371681415929 7.346814159292036  L 6.286725663716814 7.346814159292036  L 6.286725663716814 6.443805309734513  C 6.286725663716814 5.661061946902654  5.793982300884956 4.941061946902654  5.034336283185841 4.578407079646018  C 4.804513274336283 4.457522123893805  4.6730088495575215 4.247433628318585  4.6730088495575215 4.036725663716814  C 4.6730088495575215 3.795663716814159  4.804424778761062 3.585575221238938  5.034336283185841 3.4957522123893803  C 5.789292035398231 3.134424778761062  6.286725663716814 2.4144247787610618  6.286725663716814 1.6310619469026546  L 6.286725663716814 0.7275221238938051  Z M 5.8277876106194695 2.0512389380530975  C 5.8277876106194695 2.4806194690265486  5.299380530973452 2.961504424778761  4.806637168141593 3.1655752212389383  C 4.51203539823009 3.2877876106194694  4.234601769911506 3.5176106194690266  3.9750442477876113 3.8552212389380536  C 3.7292920353982306 3.5176991150442483  3.4598230088495576 3.2877876106194694  3.1684955752212396 3.1656637168141595  C 2.6420353982300893 2.9450442477876106  2.1915929203539832 2.503185840707965  2.1915929203539832 2.0513274336283187  L 5.8277876106194695 2.0513274336283187  Z " fill-rule="nonzero" fill="#999999" stroke="none" transform="matrix(1 0 0 1 2952 1120 )" />
  </g>
</svg>