<?xml version="1.0" encoding="utf-8"?>
<svg version="1.1" xmlns:xlink="http://www.w3.org/1999/xlink" width="8px" height="10px" xmlns="http://www.w3.org/2000/svg">
  <g transform="matrix(1 0 0 1 -2952 -1201 )">
    <path d="M 8 4.583333333333333  C 8 4.354166666666666  7.82 4.166666666666667  7.6 4.166666666666667  L 6.4 4.166666666666667  L 6.4 2.5  C 6.4 1.1145833333333333  5.33 0  4 0  C 2.6700000000000004 0  1.6 1.1145833333333333  1.6 2.5  L 1.6 4.166666666666667  L 0.4 4.166666666666667  C 0.18000000000000008 4.166666666666667  0 4.354166666666666  0 4.583333333333333  L 0 9.583333333333334  C 0 9.8125  0.18000000000000008 10  0.4 10  L 7.6 10  C 7.82 10  8 9.8125  8 9.583333333333334  L 8 4.583333333333333  Z M 4.8 7.083333333333334  C 4.8 7.541666666666668  4.44 7.916666666666666  4 7.916666666666666  C 3.56 7.916666666666666  3.2 7.541666666666668  3.2 7.083333333333334  C 3.2 6.625  3.56 6.25  4 6.25  C 4.44 6.25  4.8 6.625  4.8 7.083333333333334  Z M 5.6 2.5  L 5.6 4.166666666666667  L 2.4 4.166666666666667  L 2.4 2.5  C 2.4 1.5833333333333333  3.12 0.8333333333333333  4 0.8333333333333333  C 4.88 0.8333333333333333  5.6 1.5833333333333333  5.6 2.5  Z " fill-rule="nonzero" fill="#999999" stroke="none" transform="matrix(1 0 0 1 2952 1201 )" />
  </g>
</svg>