<?xml version="1.0" encoding="utf-8"?>
<svg version="1.1" xmlns:xlink="http://www.w3.org/1999/xlink" width="8px" height="8px" xmlns="http://www.w3.org/2000/svg">
  <g transform="matrix(1 0 0 1 -2952 -1033 )">
    <path d="M 5.509035670588236 7.618748530232559  C 5.022784254117648 7.8246916  4.506848875294118 7.927694883720931  3.9709314541176477 7.927631376744186  C 3.419051655391225 7.9282889165570625  2.873150263445546 7.814697527211611  2.368383501176471 7.594172530232559  C 1.8821320847058827 7.378449860465117  1.445546672941177 7.079346604651163  1.0784165647058825 6.691845953488373  C 0.9841603764705884 6.593795972093024  0.98910769882353 6.436877888372093  1.08831121882353 6.343717702325582  C 1.187514729411765 6.250557516279071  1.3462789082352944 6.255447311627908  1.4405350870588243 6.353497302325582  C 1.7630750117647067 6.691845953488373  2.140099764705883 6.956720623255816  2.566790522352942 7.143104493023258  C 3.0083875105882365 7.339204465116279  3.4796684517647063 7.437317953488373  3.9659198776470594 7.437317953488373  C 4.893639783529412 7.437317953488373  5.761927529411766 7.079346604651164  6.421849345882353 6.4320516  C 7.076759585882353 5.784756595348838  7.439006616470589 4.921738920930233  7.439006616470589 4.004679441860466  C 7.439006616470589 3.087683469767442  7.076759585882353 2.2294920930232567  6.421849345882353 1.577307283720931  C 5.7670033505882365 0.9349020744186051  4.893704028235295 0.5769307255813957  3.9709314541176477 0.5769307255813957  C 3.0431472941176465 0.5769307255813957  2.1748595482352946 0.9349020744186051  1.515001976470589 1.5821970883720937  C 0.8600917364705889 2.2294920930232567  0.49790896000000057 3.0925732744186054  0.49790896000000057 4.009569237209303  C 0.49790896000000057 4.146864613953489  0.3887465411764715 4.254757702325581  0.24983592470588326 4.254757702325581  C 0.110925308235295 4.254757702325581  0.001762889411765614 4.146801116279071  0.001762889411765614 4.009569237209303  C 0.001762889411765614 3.4799469116279083  0.10597797647058924 2.965057488372094  0.31434390588235367 2.4844601581395356  C 0.5128751151133646 2.0188840270913073  0.8010238021132449 1.5958601449679934  1.16277809882353 1.2388951348837212  C 1.5239426964305567 0.8813472801467102  1.9519433301641698 0.5965491560782407  2.422996828235295 0.40032644651162874  C 2.91419557647059 0.19438337674418646  3.430195200000001 0.09138009302325649  3.966048376470589 0.09138009302325649  C 4.5018372988235305 0.09138009302325649  5.022848498823531 0.19438337674418646  5.509035670588236 0.40032644651162874  C 5.9803808658823545 0.5964899162790707  6.407071623529413 0.8808602790697682  6.769254400000001 1.2388951348837212  C 7.131437176470589 1.596929990697675  7.41921731764706 2.0185957209302328  7.617624348235296 2.4844601581395356  C 7.826054531764705 2.969947293023256  7.930205364705885 3.4798834139534893  7.930205364705885 4.009569237209303  C 7.930205364705885 4.539191562790698  7.826054522352943 5.054017488372094  7.617624348235296 5.534678325581396  C 7.41921731764706 6.000542762790698  7.131501430588236 6.422272000000001  6.769254400000001 6.780179841860466  C 6.407007369411766 7.138087683720931  5.9803808658823545 7.422585051162792  5.509035670588236 7.618748530232559  Z " fill-rule="nonzero" fill="#999999" stroke="none" transform="matrix(1 0 0 1 2952 1033 )" />
  </g>
</svg>