<?xml version="1.0" encoding="utf-8"?>
<svg version="1.1" xmlns:xlink="http://www.w3.org/1999/xlink" width="8px" height="7px" xmlns="http://www.w3.org/2000/svg">
  <g transform="matrix(1 0 0 1 -2952 -1863 )">
    <path d="M 0.17878406603773644 6.84771930131579  C -0.9160586981132077 1.691789473684211  4.343480084905661 1.4402807078947368  4.343480084905661 1.4402806986842105  L 4.343480084905661 0.28753216578947377  C 4.450817613207547 -0.1945263157894736  4.8587002075471695 0.09890058684210545  4.8587002075471695 0.09890058684210545  L 7.6924109056603776 2.467274857894737  C 8.314968556603773 2.8864561434210523  7.7353459150943396 3.200842105263158  7.7353459150943396 3.200842105263158  L 4.944570226415094 5.548257307894737  C 4.386415094339622 5.946479534210526  4.343480075471698 5.338666660526316  4.343480084905661 5.338666669736843  L 4.343480084905661 4.269754382894737  C 1.5097693962264156 3.4104327526315794  0.3505241132075474 6.84771930131579  0.3505241132075474 6.84771930131579  C 0.24318658490566047 7.036350880263157  0.1787840754716985 6.84771930131579  0.17878406603773644 6.84771930131579  Z " fill-rule="nonzero" fill="#999999" stroke="none" transform="matrix(1 0 0 1 2952 1863 )" />
  </g>
</svg>