<?xml version="1.0" encoding="utf-8"?>
<svg version="1.1" xmlns:xlink="http://www.w3.org/1999/xlink" width="24px" height="20px" xmlns="http://www.w3.org/2000/svg">
  <g transform="matrix(1 0 0 1 -2256 -877 )">
    <path d="M 9.621266636163927 3.160979611533357  L 1.6781108146352546 3.160979611533357  L 1.6781108146352546 1.8267776571359629  L 9.204250955533672 1.8267776571359629  L 9.621266636163927 3.160979611533357  Z M 22.15159494462541 3.160979611533357  L 22.161523889402318 3.160979611533357  L 11.378689861677145 3.160979611533357  L 10.802811064616314 1.3029798528169856  C 10.589241588677279 0.6012622007418217  9.94086506127682 0.12023751685259274  9.204250955533672 0.11702256001930225  L 1.678110814635255 0.11702256001930225  C 0.748177292290087 0.12778530279760997  0 0.881206627285675  0 1.8068974716233601  C 0 1.8135243720770944  4.082921685402477E-05 1.8201512152130286  0 1.8267776571359629  L 0 18.173222342864037  C 4.0829216854024766E-05 18.179848784786973  0 18.18647562792291  0 18.19310252837664  C 0 19.118793372714332  0.748177292290087 19.87221469720239  1.6781108146352546 19.882977439980696  L 12.599950069237181 19.882977439980696  C 13.038692412818925 19.83595416271783  13.371290390851893 19.467335362236785  13.371290390851893 19.028099891422368  C 13.371290390851893 18.588864420607948  13.038692412818925 18.220245620126903  12.599950069237181 18  L 2 18  L 2 5  L 22.151594944625405 5  L 22.151594944625405 8.389074677283146  C 22.151594944625405 8.850294074878601  22.527226174178473 9.224186270961516  22.990590778274374 9.224186270961516  C 23.453955382370268 9.224186270961516  23.829586611923336 8.8502940748786  23.829586611923336 8.389074677283146  L 23.829586611923343 4.870734708650018  C 23.829664930043812 4.864108266727126  23.82970409012014 4.857481423591107  23.82970409012014 4.850854523137416  C 23.82970409012014 3.92516367879973  23.08152846697058 3.1717423543116645  22.15159494462541 3.160979611533357  Z M 23.766895572277544 14.659823862950901  C 23.766895572277544 14.220588392136488  23.434297594244576 13.851969591655442  22.99555525066283 13.80494631439257  L 19.36156146231346 13.80494631439257  L 19.36156146231346 10.098829774399807  C 19.36156146231346 9.637610376804354  18.985930232760396 9.263718180721437  18.522565628664495 9.263718180721437  C 18.0592010245686 9.263718180721437  17.683569795015533 9.637610376804352  17.683569795015533 10.098829774399807  L 17.68356979501553 13.80494631439257  L 14.238225957427469 13.80494631439257  C 13.799483613845725 13.851969591655442  13.466885635812762 14.220588392136488  13.466885635812762 14.659823862950901  C 13.466885635812762 15.099059333765313  13.799483613845725 15.46767813424636  14.238225957427469 15.51470141150923  L 17.68356979501553 15.51470141150923  L 17.683569795015526 19.033041380142354  C 17.683569795015526 19.494260777737814  18.0592010245686 19.868152973820724  18.522565628664495 19.868152973820724  C 18.985930232760396 19.868152973820724  19.36156146231346 19.494260777737814  19.36156146231346 19.033041380142354  L 19.36156146231346 15.51470141150923  L 22.99555525066283 15.514701411509236  C 23.434297594244576 15.467678134246366  23.766895572277544 15.099059333765316  23.766895572277544 14.659823862950901  Z " fill-rule="nonzero" fill="#5e5c5c" stroke="none" transform="matrix(1 0 0 1 2256 877 )" />
  </g>
</svg>