<?xml version="1.0" encoding="utf-8"?>
<svg version="1.1" xmlns:xlink="http://www.w3.org/1999/xlink" width="548px" height="328px" xmlns="http://www.w3.org/2000/svg">
  <g transform="matrix(1 0 0 1 -411 -1469 )">
    <path d="M 411 1469  L 959 1469  L 959 1797  L 411 1797  L 411 1469  " fill-rule="nonzero" fill="#cccccc" stroke="none" />
    <path d="M 434 1492  L 936 1492  L 936 1774  L 434 1774  L 434 1492  " fill-rule="nonzero" fill="#ffffff" stroke="none" />
    <path d="M 720.5600000000001 1567.4  C 706.784 1567.4  695.96 1556.576  695.96 1542.8000000000002  C 695.96 1529.0240000000001  706.784 1518.2  720.5600000000001 1518.2  C 734.3360000000001 1518.2  745.1600000000001 1529.0240000000001  745.1600000000001 1542.8000000000002  C 745.1600000000001 1556.576  734.3360000000001 1567.4  720.5600000000001 1567.4  " fill-rule="nonzero" fill="#cccccc" stroke="none" />
    <path d="M 442 1766  L 442 1619.7  L 563.5 1553.2  L 733.5999999999999 1670.47299270073  L 830.8 1593.1  L 928 1670.47299270073  L 928 1766  L 442 1766  " fill-rule="nonzero" fill="#169bd5" stroke="none" />
  </g>
</svg>