<?xml version="1.0" encoding="utf-8"?>
<svg version="1.1" xmlns:xlink="http://www.w3.org/1999/xlink" width="1126px" height="328px" xmlns="http://www.w3.org/2000/svg">
  <g transform="matrix(1 0 0 1 -411 -1121 )">
    <path d="M 411 1121  L 1537 1121  L 1537 1449  L 411 1449  L 411 1121  " fill-rule="nonzero" fill="#cccccc" stroke="none" />
    <path d="M 434 1144  L 1514 1144  L 1514 1426  L 434 1426  L 434 1144  " fill-rule="nonzero" fill="#ffffff" stroke="none" />
    <path d="M 1021.12 1219.4  C 1007.3439999999999 1219.4  996.52 1208.576  996.52 1194.8000000000002  C 996.52 1181.0240000000001  1007.3439999999999 1170.2  1021.12 1170.2  C 1034.896 1170.2  1045.72 1181.0240000000001  1045.72 1194.8000000000002  C 1045.72 1208.576  1034.896 1219.4  1021.12 1219.4  " fill-rule="nonzero" fill="#cccccc" stroke="none" />
    <path d="M 442 1418  L 442 1271.7  L 708 1205.2  L 1080.4 1371.5090586145648  L 1293.2 1245.1  L 1506 1371.5090586145648  L 1506 1418  L 442 1418  " fill-rule="nonzero" fill="#169bd5" stroke="none" />
  </g>
</svg>