<?xml version="1.0" encoding="utf-8"?>
<svg version="1.1" xmlns:xlink="http://www.w3.org/1999/xlink" width="35px" height="30px" xmlns="http://www.w3.org/2000/svg">
  <g transform="matrix(1 0 0 1 -1735 -811 )">
    <path d="M 0.2383512419354802 14.457309091022728  C 0.23835124193548385 6.463903018295454  8.005290322580645 0.06545454545454552  17.5 0.06545454545454552  C 26.99470967741935 0.06545454545454552  34.76164875806452 6.463903018295454  34.76164875806452 14.457309091022731  C 34.76164875806452 15.099967709039033  34.22246480084517 15.620945454715912  33.55734768273689 15.620945454715912  C 32.892230564628626 15.620945454715912  32.35304660740927 15.099967709039033  32.35304660740927 14.457309091022728  C 32.35304660740927 7.8385454546590925  25.742236559022178 2.3927272728409097  17.499999999999996 2.3927272728409097  C 9.25776344097782 2.3927272728409097  2.6469533925907243 7.8385454546590925  2.6469533925907243 14.457309091022728  C 2.6469533925907243 17.004896981931815  3.6216344087197565 19.43456970920455  5.418451612903226 21.470157563522726  C 5.604245250777831 21.68095756313048  5.706156697008865 21.94886275586529  5.705878123538306 22.225745454545457  L 5.704272413860886 27.37677574534091  L 10.062236559022177 25.18448483625  C 10.3290691881659 25.049832973267932  10.638418159713302 25.016621482031375  10.929333333215725 25.091393927386363  L 11.097935483870968 25.148799999886364  C 11.421567672335128 25.28369363923733  11.74539115069893 25.41815840817383  12.06940500549395 25.552193927386362  C 13.694408602268144 26.203830291136367  15.051254467741934 26.523442400113638  16.735670263558468 26.52344243625  C 17.40078738166674 26.52344243625  17.939971338886085 27.04442018192688  17.939971338886085 27.687078799943187  C 17.939971338886085 28.329737417959482  17.400787381666735 28.850715163636366  16.735670263558468 28.850715163636366  C 14.694781387096773 28.850715163636362  13.042480311945564 28.462836363749997  11.147713274193547 27.70259392738636  C 10.971019400254486 27.631555986683694  10.794918146378302 27.55914962065941  10.619426510635078 27.485381818295455  L 10.66438709677419 27.503999999999998  L 6.232559139667336 29.736630290795453  C 5.323837167888416 30.194961789723088  4.203696866229533 29.918027677137847  3.634480274193545 29.094303018068185  L 3.523684575151206 28.91277574534091  C 3.374617744481718 28.635813823400802  3.2969483776043207 28.32817531596963  3.2972759732358834 28.01600000011364  L 3.295670263558464 22.64155152715909  L 3.2330466074092703 22.56863029090909  C 1.4121433816028188 20.34375756375  0.36681004838709313 17.72790301806818  0.24959139773185116 14.97551516352273  L 0.2383512419354802 14.457309091022728  Z M 27.107111123538303 16.357915163522726  L 27.134408602268145 16.35636363647727  C 27.889103930342742 16.35636363647727  28.499283166784277 16.945939382045452  28.499283166784277 17.67515152738636  L 28.499283166784277 21.63151516363636  L 32.59390682258065 21.63151516363636  C 33.219772936863585 21.632873782072313  33.764483524379315 22.045358549162465  33.91542651063508 22.632242436477274  L 33.949146940977826 22.798254545454544  L 33.95878134934476 22.95030301806818  C 33.95878134934476 23.67951512727273  33.348602150302426 24.269090908977276  32.59390682258065 24.269090908977276  L 28.49928316678428 24.269090908977276  L 28.499283166784284 28.225454545568187  C 28.497877087036496 28.830187531940823  28.070977526032536 29.35650531397873  27.46358424193549 29.50235152738636  L 27.2917705967742 29.534933345454544  L 27.13440860226815 29.544242436477273  C 26.380609194853946 29.544242436477273  25.76953403775202 28.95380098597879  25.76953403775202 28.225454545568184  L 25.76953403775202 24.269090908977276  L 21.67491038160282 24.269090908977276  C 21.049044267422683 24.26773229058042  20.504333679941226 23.855247523656733  20.353390693548388 23.26836363647727  L 20.319670263558468 23.10235152715909  L 20.310035854838706 22.950303018068183  C 20.310035854838706 22.221090908863637  20.920215053881044 21.63151512715909  21.674910381602817 21.631515163636365  L 25.769534037752013 21.631515163636365  L 25.769534037752013 17.67515152738636  C 25.770940117459332 17.070418541113057  26.197839678291025 16.54410075910825  26.805232962247977 16.398254545568182  L 26.977046607409267 16.365672727159087  L 27.107111123538303 16.357915163522726  Z M 9.1919283280746 16.744242436363635  L 20.037060919354843 16.744242436363635  C 20.702178037463113 16.74424243636363  21.241361994682457 17.265220182040512  21.241361994682457 17.907878800056814  C 21.241361994682457 18.550537418073112  20.702178037463106 19.071515163749996  20.037060919354843 19.071515163749996  C 20.037060919354843 19.071515163749996  20.037060919354843 19.071515163749996  20.037060919354843 19  L 9.1919283280746 19  C 9.1919283280746 19.071515163749996  9.1919283280746 19.071515163749996  9.1919283280746 19.071515163749996  C 8.526811209966326 19.071515163749996  7.987627252746978 18.550537418073116  7.987627252746978 17.907878800056814  C 7.987627252746978 17.265220182040515  8.526811209966327 16.74424243636363  9.1919283280746 16.74424243636363  Z M 9.1919283280746 11  L 26.46 11  C 26.46 10.538181818181817  26.46 10.538181818181817  26.46 10.538181818181817  C 27.12511711810827 10.538181818181817  27.664301075327625 11.059159563858698  27.664301075327625 11.701818181875  C 27.664301075327625 12.344476799891304  27.12511711810827 12.865454545568184  26.46 12.865454545568184  L 26.46 13  L 9.1919283280746 13  L 9.1919283280746 12.865454545568184  C 8.526811209966326 12.865454545568184  7.987627252746976 12.344476799891304  7.987627252746976 11.701818181875  C 7.987627252746976 11.0591595638587  8.526811209966327 10.538181818181817  9.1919283280746 10.538181818181817  C 9.1919283280746 10.538181818181817  9.1919283280746 10.538181818181817  9.1919283280746 11  Z " fill-rule="nonzero" fill="#2c2c2c" stroke="none" transform="matrix(1 0 0 1 1735 811 )" />
  </g>
</svg>