<?xml version="1.0" encoding="utf-8"?>
<svg version="1.1" xmlns:xlink="http://www.w3.org/1999/xlink" width="19px" height="13px" xmlns="http://www.w3.org/2000/svg">
  <g transform="matrix(1 0 0 1 -305 -1240 )">
    <path d="M 18.968852459016396 3.1310819672131145  C 18.968852459016396 2.114950819672131  17.76281967213115 1.2965901639344262  16.28767213114754 1.2965901639344262  L 13.985245901639344 1.2965901639344262  L 13.985245901639344 0.5464262295081967  C 13.985245901639344 0.24636065573770494  13.626426229508196 0.0008524590163934434  13.187868852459015 0.0008524590163934434  C 12.749311475409835 0.0008524590163934434  12.390491803278687 0.24636065573770485  12.390491803278687 0.5464262295081967  L 12.390491803278687 1.2965901639344262  L 6.609508196721311 1.2965901639344262  L 6.609508196721311 0.5464262295081967  C 6.609508196721311 0.24636065573770494  6.2506885245901636 0.0008524590163934434  5.812131147540984 0.0008524590163934434  C 5.373573770491804 0.0008524590163934434  5.014754098360656 0.24636065573770485  5.014754098360656 0.5464262295081967  L 5.014754098360656 1.2965901639344262  L 2.7123278688524595 1.2965901639344262  C 1.2371803278688527 1.2965901639344262  0.031147540983606586 2.114950819672131  0.031147540983606586 3.1310819672131145  L 0.031147540983606586 11.123737704918032  C 0.031147540983606586 12.133049180327868  1.2371803278688525 12.958229508196721  2.7123278688524595 13  L 16.28767213114754 13  C 17.762819672131148 12.958229508196721  18.968852459016396 12.133049180327868  18.968852459016396 11.123737704918032  L 18.968852459016396 3.1310819672131145  Z M 17.37409836065574 3.1310819672131145  L 17.374098360655736 11.123737704918032  C 17.374098360655736 11.532918032786887  16.885704918032786 11.867081967213116  16.28767213114754 11.867081967213116  L 2.7123278688524595 11.867081967213116  C 2.1142950819672133 11.867081967213116  1.6259016393442625 11.532918032786887  1.6259016393442625 11.123737704918032  L 1.6259016393442625 3.1310819672131145  C 1.6259016393442625 2.7219016393442623  2.1142950819672133 2.387737704918033  2.7123278688524595 2.387737704918033  L 5.014754098360656 2.387737704918033  L 5.014754098360656 3.1379016393442623  C 5.014754098360656 3.4379672131147547  5.373573770491804 3.6834754098360656  5.812131147540984 3.6834754098360656  C 6.2506885245901636 3.6834754098360656  6.609508196721311 3.437967213114754  6.609508196721311 3.1379016393442623  L 6.609508196721311 2.387737704918033  L 12.390491803278689 2.387737704918033  L 12.390491803278689 3.1379016393442623  C 12.390491803278689 3.4379672131147547  12.749311475409836 3.6834754098360656  13.187868852459017 3.6834754098360656  C 13.626426229508198 3.6834754098360656  13.985245901639345 3.437967213114754  13.985245901639345 3.1379016393442623  L 13.985245901639345 2.387737704918033  L 16.287672131147545 2.387737704918033  C 16.88570491803279 2.387737704918033  17.37409836065574 2.7219016393442623  17.37409836065574 3.1310819672131145  Z " fill-rule="nonzero" fill="#999999" stroke="none" transform="matrix(1 0 0 1 305 1240 )" />
  </g>
</svg>