<?xml version="1.0" encoding="utf-8"?>
<svg version="1.1" xmlns:xlink="http://www.w3.org/1999/xlink" width="24px" height="20px" xmlns="http://www.w3.org/2000/svg">
  <g transform="matrix(1 0 0 1 -2293 -877 )">
    <path d="M 23.94946794642857 1.1629065159574465  C 24.141002571428572 0.3059854787234043  23.630863982142856 -0.13372744680851079  22.8084448125 0.18136662234042583  L 0.916420875 8.569125585106383  C -0.3172899910714285 9.041807446808509  -0.2863849285714284 9.72874675531915  0.9793259196428572 10.101652021276594  L 6.268906767857143 11.660026329787232  L 8.41958598214286 18.01403829787234  C 8.701153125000001 18.845899680851062  9.436715142857144 19.021317367021275  10.06590249107143 18.402435957446805  L 12.840485892857146 15.673405505319147  L 18.317495303571427 19.65851784574468  C 19.02907786607143 20.17626364361702  19.760670669642856 19.903787313829785  19.95275279464286 19.044420079787233  L 23.94946794642857 1.1629065159574465  Z M 19.29912064285714 3.986250452127655  C 20.053789553571427 3.5368344148936175  20.13413172321429 3.6429710904255312  19.476995732142857 4.224317313829788  L 10.138963232142856 12.485228670212766  C 9.971052187499998 12.633765638297872  9.819100098214285 12.928121595744681  9.795777616071428 13.14604829787234  L 9.38352782142857 16.994392473404254  C 9.337238678571428 17.426522260638293  9.18717538392857 17.444352127659574  9.048773330357141 17.03016093085106  L 7.241881982142855 11.622219361702124  C 7.17120275892857 11.410652712765954  7.268023982142855 11.151331356382975  7.456766491071426 11.038943351063825  L 19.29912064285714 3.986250452127655  Z " fill-rule="nonzero" fill="#999999" stroke="none" transform="matrix(1 0 0 1 2293 877 )" />
  </g>
</svg>