<?xml version="1.0" encoding="utf-8"?>
<svg version="1.1" xmlns:xlink="http://www.w3.org/1999/xlink" width="8px" height="12px" xmlns="http://www.w3.org/2000/svg">
  <g transform="matrix(1 0 0 1 -3002 -399 )">
    <path d="M 2.700953135593221 3.5260504285714287  C 2.710652033898305 2.3934117678571427  2.700953135593221 1.260773125  2.710652050847458 0.12813444642857114  L 4.882695915254238 0.12813444642857114  C 4.872997016949153 0.32820167857142835  4.9015832542372895 0.528806714285714  4.929659016949152 0.719731089285714  L 3.3308713898305076 0.719731089285714  L 3.3308713898305093 9.921747892857143  C 3.3388866305750193 10.313785734853063  3.248179172172933 10.701063188021719  3.0679800677966096 11.044168071428572  C 2.7856909322033894 11.56584875  2.25888733898305 11.926184875  1.6948195423728802 11.976739500000003  C 1.332749199542378 12.011012562302103  0.9692197541499632 11.93047866519003  0.6509112711864391 11.745479  C 0.40742475876389483 11.604366004951403  0.19827961028760305 11.405738640994484  0.03988035593220317 11.165176464285713  C 0.5947597118644068 11.495932767857141  1.3186041864406777 11.465815124999999  1.8545962033898304 11.095260499999998  C 2.371700881355933 10.754285714285711  2.710652033898305 10.11267226785714  2.710652050847458 9.451159660714284  C 2.700953152542373 7.4763025178571425  2.700953152542373 5.501445374999999  2.700953135593221 3.5265882321428554  Z M 7.9010967118644055 3.9073613392857127  C 7.272862253826417 3.7496743012393727  6.707314806715126 3.3885563452354166  6.283932203389831 2.8747563035714285  C 6.585108677966103 3.0748235357142852  6.923038881355934 3.2350924464285717  7.271178457627119 3.315764714285714  C 7.477918237288136 3.365781517857143  7.684658016949154 3.385680678571428  7.901096711864407 3.385680678571428  L 7.9010967118644055 3.9073613392857127  Z " fill-rule="nonzero" fill="#25f4ee" stroke="none" transform="matrix(1 0 0 1 3002 399 )" />
  </g>
</svg>