<?xml version="1.0" encoding="utf-8"?>
<svg version="1.1" xmlns:xlink="http://www.w3.org/1999/xlink" width="10px" height="14px" xmlns="http://www.w3.org/2000/svg">
  <g transform="matrix(1 0 0 1 -3001 -399 )">
    <path d="M 6.6574053253424665 0.9703235208333333  C 6.511770028419686 0.6642295054992753  6.404281623724502 0.3392103754678325  6.337663167808221 0.0035000000000001328  C 6.52589845890411 0.013382359374999913  6.71413375 0.0035000000000001328  6.9111361815068495 0.0035000000000001328  C 6.911314978534449 0.6970054058858532  7.107938127562539 1.3743353101106968  7.475326352739727 1.9470294192708333  C 7.522256250000002 2.0195  7.5691861472602735 2.0809902057291665  7.616631746575344 2.1430294192708335  C 7.203029811643837 1.8652255052083333  6.874004828767125 1.4435784453125005  6.6574053253424665 0.9703235208333333  Z M 9.308686541095891 5.136284307291666  C 9.299403698630137 4.5191862734375  9.308686541095891 3.891656854166666  9.299403698630137 3.2745588203125  C 9.505688955479453 3.3256176406250004  9.713005633561645 3.3459313671875006  9.929089452054795 3.3459313671875006  L 9.929089452054795 5.742950973958334  C 8.857437551369863 5.7539313671875005  7.785785667808219 5.362480393229167  6.9111361815068495 4.673460786458334  L 6.911136181506849 9.425774513020833  C 6.922336174360448 9.785058427388854  6.890799243425715 10.144407585895477  6.817276386986302 10.495264700520835  C 6.610991130136988 11.565303914062502  6.02771957191781 12.532127453125002  5.219081386986302 13.15965685416667  C 4.793004186438503 13.494636393361489  4.306750847292124 13.732721334703701  3.790556010273973 13.859107846354165  C 3.1709560680840108 14.01364347235134  2.52511550208339 14.003083171725223  1.9102659075342465 13.828362752604168  C 1.1733332241763206 13.6155408757754  0.5102830666800592 13.179544183520543  0.00161160958904076 12.5733039140625  C 0.43088424687160254 12.907206531649889  0.9209775135238151 13.141898334951396  1.4404512499999997 13.262323520833334  C 1.8066075684931504 13.355107828125  2.183078167808219 13.375421554687502  2.558517328767124 13.365539213541666  C 3.303924895873483 13.34414225403903  4.024209764198492 13.074138396184113  4.617759863013697 12.593617640624998  C 5.078291695205477 12.223578427083332  5.454246575342464 11.739892153645833  5.745624503424657 11.19471569270833  C 6.078804025004506 10.562588290233286  6.2777274336935065 9.860372147390297  6.328380342465754 9.137539213541665  C 6.337663184931506 8.942088239583333  6.337663184931506 8.746637247395832  6.328380342465754 8.54075490625  C 6.319097500000001 7.060049026041665  6.319097500000001 5.578794119791666  6.319097499999998 4.097539213541665  C 7.1846887721484185 4.777202871420972  8.233131204916907 5.141488536824121  9.308686541095891 5.136284307291666  Z " fill-rule="nonzero" fill="#fe2c55" stroke="none" transform="matrix(1 0 0 1 3001 399 )" />
  </g>
</svg>