<?xml version="1.0" encoding="utf-8"?>
<svg version="1.1" xmlns:xlink="http://www.w3.org/1999/xlink" width="11px" height="13px" xmlns="http://www.w3.org/2000/svg">
  <g transform="matrix(1 0 0 1 -2999 -400 )">
    <path d="M 6.133188540064103 9.176537076086957  C 6.152832583333335 6.1113299211956535  6.143276016025642 3.066337589673914  6.143276016025642 0.021345275815217443  L 7.814081440705129 0.021345275815217443  C 7.872482644230771 0.3495703355978264  7.990346903846156 0.6581125475543479  8.136880847756412 0.9565473125  C 8.371547514423078 1.4140409103260867  8.703372544871796 1.8225933410326087  9.13341779166667 2.091237846467392  C 9.16108918220155 2.1090867627312195  9.184623686135119 2.1326677775421254  9.202437397435899 2.1603938546195653  C 9.643733058633476 2.6725066659628824  10.23547409537114 3.031530351908672  10.892886883012823 3.186030691576087  C 10.902443450320515 3.7829002567934777  10.892886883012823 4.3898772336956515  10.892886883012826 4.987278774456525  C 9.776397018555535 4.992738409332418  8.68739880207757 4.640453777980817  7.784880847756411 3.9818567785326096  C 7.784880847756411 5.414982095108695  7.784880847756411 6.848107411684783  7.794437397435898 8.280700770380435  C 7.794437397435898 8.470081838315219  7.804524873397437 8.658930948369566  7.794437397435897 8.857887470108693  C 7.741787321269992 9.558056383954831  7.535092467970921 10.237864028842074  7.189188540064104 10.848516620923913  C 6.897156726666987 11.377103737604205  6.4973846235573065 11.838203353056745  6.015855206730771 12.201846542119565  C 5.3970273415172825 12.667070350028379  4.6490972666145955 12.927903817689883  3.8757164487179514 12.948199486413042  C 3.4849592884615412 12.958306898097824  3.0936712019230796 12.93809207472826  2.713001500000002 12.848721225543478  C 2.175252292489319 12.72820942565671  1.6668338143566568 12.501618246503885  1.2173997035256434 12.182163676630436  L 1.1881990929487203 12.151841423913044  C 0.963088993589746 11.923094625  0.7772669631410278 11.644342707880435  0.6211764695512842 11.35601533695652  C 0.2888205128205151 10.738930930706521  0.09344193269231003 10.03247569293478  0.09344193269231055 9.315913043478261  C 0.08373605981963436 8.663548979161243  0.2207383397833615 8.01736569308956  0.49428656891025874 7.425294111413043  C 0.7772669631410278 6.808209705163045  1.1977556426282077 6.250705870923913  1.7260211233974376 5.8426854157608705  C 2.223403164444981 5.467134987129236  2.7970382777521268 5.205628817324611  3.406383115384618 5.076649623641304  C 3.6506063493589758 5.026644505434783  3.90544796794872 4.99685422826087  4.1592277516025655 4.987278774456521  C 4.168784318910259 5.216025573369564  4.1592277516025655 5.444772372282609  4.168784318910259 5.663943735054348  L 4.168784318910259 6.827892588315217  C 3.885272998397438 6.728414327445654  3.5725610849358995 6.728414327445654  3.2794932147435922 6.7981022934782604  C 2.9256905412673406 6.875446034984075  2.5965868259480587 7.039591938420228  2.3217134310897456 7.27581075  C 2.1555354439102588 7.424762153532608  2.0084705913461565 7.604035809782608  1.9113122099359 7.803524289402174  C 1.7350467467948747 8.141856778532608  1.6766455432692333 8.539769822010868  1.7159336298076944 8.918  C 1.754690790064104 9.286122766304347  1.9113122099359 9.644138103260868  2.145978876602566 9.923421995923912  C 2.302069370192309 10.121846542119565  2.507004517628207 10.271329921195653  2.712470591346156 10.410705888586957  C 2.8786485785256435 10.649560116847827  3.0936712019230796 10.848516638586958  3.347981894230772 10.987892588315217  C 3.680251736033675 11.16654641647863  4.056699776663434 11.245935824607175  4.432651578525642 11.21663938722826  C 5.019318245192308 11.176741680706522  5.566165899038463 10.808618932065217  5.859764713141027 10.291012786684782  C 6.045586725961538 9.952680297554348  6.143276033653847 9.564874683423913  6.133188540064103 9.176537076086957  Z " fill-rule="nonzero" fill="#ffffff" stroke="none" transform="matrix(1 0 0 1 2999 400 )" />
  </g>
</svg>