<?xml version="1.0" encoding="utf-8"?>
<svg version="1.1" xmlns:xlink="http://www.w3.org/1999/xlink" width="5px" height="8px" xmlns="http://www.w3.org/2000/svg">
  <g transform="matrix(1 0 0 1 -2999 -404 )">
    <path d="M 0.7128027757352944 2.1769246666666673  C 1.0585634541166948 1.6048011904074528  1.5425991560413057 1.119837046794433  2.1245674816176474 0.7624520175438597  C 2.9598057575442622 0.24595996920296975  3.9633313055611823 0.036944964933909114  4.948096893382353 0.17436533333333354  L 4.948096893382353 0.7222951578947365  C 4.68709504015625 0.7325322683857524  4.427360019078008 0.7625685248399668  4.171349485294117 0.8121197192982463  C 3.540914148697669 0.9420240838453617  2.9486296738533353 1.204083186016445  2.4373702389705882 1.5793271403508777  C 1.8826297610294116 1.9877647017543862  1.4591003492647059 2.546262122807017  1.1667820036764704 3.1639380877193  C 0.8832170920580438 3.7578237298169634  0.7419360945350337 4.404570112196205  0.7532179963235291 5.057122807017543  C 0.7532179963235291 5.774662543859649  0.9547404963235294 6.472123842105264  1.2974394485294116 7.09983901754386  C 1.4591003492647059 7.388862754385965  1.6406920404411764 7.667847280701755  1.8826297610294116 7.8971640877192995  C 1.3882352941176468 7.557944280701756  0.9746712867647055 7.099310631578947  0.6723875367647058 6.581498456140352  C 0.2588235294117644 5.894076368421055  0.05785466911764684 5.086712070175441  0.07723183823529421 4.279876157894737  C 0.1043019803307764 3.539621289322598  0.322631000796502 2.8172230296212337  0.7128027757352944 2.1769246666666673  Z " fill-rule="nonzero" fill="#25f4ee" stroke="none" transform="matrix(1 0 0 1 2999 404 )" />
  </g>
</svg>