<?xml version="1.0" encoding="utf-8"?>
<svg version="1.1" xmlns:xlink="http://www.w3.org/1999/xlink" width="3px" height="5px" xmlns="http://www.w3.org/2000/svg">
  <g transform="matrix(1 0 0 1 -3001 -404 )">
    <path d="M 2.372685423913043 0.6220814423076914  C 2.3540255706521735 0.4410859615384602  2.3633555054347823 0.2330618269230756  2.3540255706521744 0.025037708333332905  C 2.5602659836956523 0.025037708333332905  2.7753452608695652 0.03469080128205075  2.9815856739130435 0.06123679487179455  L 2.9815856739130435 2.2225641025641023  C 2.6757934739968063 2.124823998017149  2.3484251109295897 2.112293920485451  2.035826086956522 2.186365  C 1.4417689145822423 2.3195868218002254  0.955815315884649 2.737731769324739  0.7428951358695652 3.298883862179488  C 0.5366547228260872 3.841387628205128  0.6211150923913042 4.474630464743591  0.9771253206521743 4.93556560897436  C 0.7703091657945087 4.82138759649613  0.586293734158558 4.671262336361267  0.4340255706521736 4.492488685897435  C 0.20607747865181442 4.235888223245611  0.062304732291383336 3.9175927950959237  0.02154476086956537 3.5793061858974355  C -0.015774929347826303 3.235656105769231  0.04069565217391273 2.8736651602564094  0.20912532065217365 2.5662141826923075  C 0.3024245543478258 2.3857013621794865  0.44335550543478186 2.2225641025641023  0.6024552391304345 2.0869381570512813  C 0.8646751956521739 1.8697435897435883  1.192695652173913 1.7346003044871794  1.5207161086956518 1.653031666666665  C 1.801595902173913 1.5898039102564083  2.101135548913043 1.5898039102564083  2.372685423913043 1.6800603365384603  L 2.372685423913043 0.6220814423076914  Z " fill-rule="nonzero" fill="#fe2c55" stroke="none" transform="matrix(1 0 0 1 3001 404 )" />
  </g>
</svg>