<?xml version="1.0" encoding="utf-8"?>
<svg version="1.1" xmlns:xlink="http://www.w3.org/1999/xlink" width="26px" height="26px" xmlns="http://www.w3.org/2000/svg">
  <g transform="matrix(1 0 0 1 -2421 -1751 )">
    <path d="M 25.904128714285715 13.022003370535716  C 25.904128714285715 20.139216761160714  20.127992363839287 25.909919082589287  13.002345832589285 25.909919082589287  C 5.877352580357142 25.909919082589287  0.10326512276785532 20.139187075892856  0.10326512276785532 13.022003370535716  C 0.10326512276785532 7.558962183035715  3.503631683035713 2.891635180803573  8.30588887723214 1.0159446316964298  C 9.75686397098214 0.43061347991071547  11.342056636160711 0.1073629375000014  13.002672457589286 0.1073629375000014  C 14.665337171875 0.1073629375000014  16.249163908482142 0.4302868549107157  17.701504930803573 1.0159446316964298  C 22.503465214285715 2.891635180803571  25.904128714285715 7.558991868303571  25.904128714285715 13.022003370535716  Z M 8.044164636160714 10.304008464285715  C 8.044164636160714 12.475898209821429  9.156982714285714 14.356310138392857  10.774660783482142 15.276739823660714  C 11.445540785714286 15.658487841517859  12.20093033482143 15.878640316964287  13.002345832589285 15.878640316964287  C 13.775640966517857 15.878640316964287  14.504691819196426 15.672711379464289  15.157992861607141 15.316975404017862  C 16.81388730357143 14.414124678571435  17.962575921875 12.51072947544643  17.962575921875 10.304364803571431  C 17.962575921875 7.232326504464289  15.737949354910716 4.73178187276786  13.002375517857143 4.73178187276786  C 10.268464549107142 4.73145521875  8.044164636160714 7.232029535714285  8.044164636160714 10.304008464285715  Z M 13.054756029017856 25.07474133705357  C 16.823686401785718 25.07474133705357  20.185806904017856 23.341434245535712  22.389469375 20.62887333928571  C 22.129140747767856 18.48911265848214  20.04410638169643 16.667554544642858  17.093190533482144 15.75894316517857  C 15.978679872767858 16.761536535714285  14.554756154017857 17.364802957589287  13.001989522321425 17.364802957589287  C 11.414747964285713 17.364802957589287  9.961783348214285 16.729080845982143  8.836434343749996 15.682866729910714  C 5.965930256696426 16.502158098214284  3.863376359374997 18.17328566741071  3.370394044642855 20.175740551339285  C 5.55713083482143 23.1463139375  9.08158924330357 25.07474133705357  13.054756029017856 25.07474133705357  Z " fill-rule="nonzero" fill="#cccccc" stroke="none" transform="matrix(1 0 0 1 2421 1751 )" />
  </g>
</svg>