<?xml version="1.0" encoding="utf-8"?>
<svg version="1.1" xmlns:xlink="http://www.w3.org/1999/xlink" width="15px" height="16px" xmlns="http://www.w3.org/2000/svg">
  <g transform="matrix(1 0 0 1 -4542 -302 )">
    <path d="M 10.305742574257424 8.809688073394494  C 10.362712656918916 8.469574506681496  10.660312478247068 8.220150485837129  11.009108910891088 8.220183486238533  C 11.402816851364527 8.220183486238533  11.721980198019802 8.535637901036651  11.721980198019802 8.924770642201834  L 11.721980198019802 9.500183486238532  C 11.92158415841584 9.554201834862385  12.11049504950495 9.631706422018349  12.288712871287128 9.726825688073394  L 12.930297029702968 9.093871559633028  L 13.028910891089108 9.011669724770641  C 13.147845115046977 8.930706804070914  13.288853533421639 8.887355627326558  13.433267487119611 8.887355627326558  C 13.826975427593048 8.887355627326558  14.146138774248325 9.20281004212468  14.146138774248325 9.591942783289861  C 14.146138774248325 9.778579207612454  14.071218530428556 9.957591001725872  13.937821782178217 10.089688073394495  L 13.317623762376238 10.703853211009173  C 13.437623762376237 10.904660550458713  13.53148514851485 11.120733944954127  13.594455445544554 11.350899082568805  L 14.176633663366337 11.350899082568805  L 14.291881188118811 11.360293577981649  C 14.6361588963622 11.41642217113429  14.888732306810361 11.710611593289947  14.888732306810361 12.05548665238036  C 14.888732306810361 12.444321197234224  14.570039670435294 12.75965195718843  14.176633663366337 12.76007339449541  L 13.595643564356434 12.76007339449541  C 13.536237623762375 12.973798165137612  13.450693069306931 13.175779816513758  13.34138613861386 13.364844036697246  L 13.937821782178217 13.95434862385321  C 14.060780082462324 14.084771632940578  14.129148558953952 14.256413156025644  14.129148558953952 14.434681389155712  C 14.129148558953952 14.823814130320894  13.809985212298677 15.139268545119014  13.41627727182524 15.139268545119014  C 13.235913063181886 15.139268545119014  13.062253477634805 15.071694564684474  12.930297029702968 14.950165137614679  L 12.33386138613861 14.360660550458713  C 12.14138848065934 14.469494338168053  11.935809268199879 14.553926778498898  11.7219801980198 14.611963302752294  L 11.7219801980198 15.18737614678899  L 11.71247524752475 15.301284403669722  C 11.655686726606088 15.641561331205702  11.35803839416518 15.891199637801567  11.00910849217704 15.891199637801567  C 10.615702254035906 15.891199637801567  10.296664016087188 15.576210463255928  10.296237623762375 15.18737614678899  L 10.296237623762373 14.611963302752294  C 10.067067658981383 14.54936575774103  9.847324572035054 14.456961498780526  9.642772277227719 14.337174311926605  L 9.136633663366334 14.835082568807339  C 9.003280461389616 14.967606048924246  8.821976961246472 15.042117785389227  8.63287128712871 15.042117785389227  C 8.443765613010951 15.042117785389227  8.262462112867803 14.967606048924242  8.129108910891086 14.835082568807339  C 7.995027295797556 14.703279037067658  7.919639493124139 14.524082427751864  7.919639493124139 14.337174311926603  C 7.919639493124139 14.150266196101342  7.995027295797556 13.971069586785548  8.129108910891086 13.83926605504587  L 8.653069306930691 13.320220183486237  C 8.55579295999235 13.142515292149524  8.478881503914375 12.954637389687205  8.42376237623762 12.76007339449541  L 7.841584158415841 12.76007339449541  L 7.725148514851484 12.750678899082567  C 7.380871637754347 12.69454954156506  7.128299206961459 12.400360492863792  7.128299206961459 12.055486119906448  C 7.128299206961459 11.666353378741263  7.4474625536167345 11.350898963943145  7.841170494090171 11.350898963943145  L 8.423762376237622 11.350899082568805  C 8.484356435643564 11.137174311926604  8.568712871287127 10.936366972477062  8.678019801980199 10.747302752293576  L 8.12910891089109 10.204770642201835  C 7.995027295797559 10.072967110462155  7.919639493124141 9.89377050114636  7.919639493124141 9.706862385321099  C 7.919639493124141 9.519954269495837  7.995027295797559 9.340757660180044  8.12910891089109 9.208954128440366  C 8.262462112867809 9.07643064832346  8.443765613010951 9.001918911858478  8.632871287128712 9.001918911858478  C 8.821976961246474 9.001918911858478  9.003280461389618 9.07643064832346  9.136633663366338 9.208954128440366  L 9.685544554455447 9.751486238532108  C 9.876831683168318 9.6434495412844  10.080000000000002 9.560073394495411  10.296237623762377 9.50018348623853  L 10.296237623762377 8.924770642201834  L 10.305742574257424 8.809688073394494  Z M 0 0.7045871559633023  C 0 0.31545441479811925  0.3191633466552759 0  0.712871287128713 0  C 1.10657922760215 0  1.425742574257426 0.31545441479812003  1.425742574257426 0.7045871559633029  L 1.425742574257426 14.796330275229357  C 1.425742574257426 15.18546301639454  1.10657922760215 15.50091743119266  0.712871287128713 15.50091743119266  C 0.3191633466552764 15.50091743119266  0 15.18546301639454  0 14.796330275229357  L 0 0.7045871559633023  Z M 11.01029702970297 10.803669724770641  L 11.009108910891088 10.803669724770641  C 10.309293046699553 10.803669724770641  9.741980198019803 11.364389947074299  9.741980198019803 12.056073394495412  C 9.741980198019803 12.747756841916523  10.309293046699553 13.308477064220181  11.009108910891088 13.308477064220181  C 11.68308396259401 13.273448878130594  12.211387968741926 12.72310548754572  12.211387968741926 12.056042243687012  C 12.211387968741926 11.38943332148822  11.683779548620855 10.839298219613903  11.01029702970297 10.803669724770641  Z M 5.940594059405939 0.7045871559633023  C 5.940594059405939 0.3154544147981208  6.2597574060612144 0  6.653465346534652 0  C 7.047173287008089 0  7.366336633663366 0.31545441479812003  7.366336633663366 0.7045871559633029  L 7.366336633663366 7.75045871559633  C 7.366336633663366 8.139591456761513  7.047173287008089 8.455045871559632  6.653465346534652 8.455045871559632  C 6.259757406061215 8.455045871559632  5.940594059405939 8.139591456761513  5.940594059405939 7.75045871559633  L 5.940594059405939 0.7045871559633023  Z M 11.881188118811881 0.7045871559633023  C 11.881188118811881 0.31545441479811925  12.200351465467156 0  12.594059405940593 0  C 12.987767346414032 0  13.306930693069305 0.31545441479812003  13.306930693069305 0.7045871559633029  L 13.306930693069305 6.576146788990826  C 13.306930693069305 6.965279530156009  12.987767346414032 7.280733944954129  12.594059405940593 7.280733944954129  C 12.200351465467156 7.280733944954129  11.881188118811881 6.965279530156009  11.881188118811881 6.576146788990825  L 11.881188118811881 0.7045871559633023  Z " fill-rule="nonzero" fill="#000000" stroke="none" transform="matrix(1 0 0 1 4542 302 )" />
  </g>
</svg>