<?xml version="1.0" encoding="utf-8"?>
<svg version="1.1" xmlns:xlink="http://www.w3.org/1999/xlink" width="10px" height="10px" xmlns="http://www.w3.org/2000/svg">
  <g transform="matrix(1 0 0 1 -1235 -1282 )">
    <path d="M 1240 1282  C 1242.8 1282  1245 1284.2  1245 1287  C 1245 1289.8  1242.8 1292  1240 1292  C 1237.2 1292  1235 1289.8  1235 1287  C 1235 1284.2  1237.2 1282  1240 1282  Z " fill-rule="nonzero" fill="#e7772d" stroke="none" />
    <path d="M 1240 1282.5  C 1242.52 1282.5  1244.5 1284.48  1244.5 1287  C 1244.5 1289.52  1242.52 1291.5  1240 1291.5  C 1237.48 1291.5  1235.5 1289.52  1235.5 1287  C 1235.5 1284.48  1237.48 1282.5  1240 1282.5  Z " stroke-width="1" stroke="#e7772d" fill="none" />
  </g>
</svg>