<?xml version="1.0" encoding="utf-8"?>
<svg version="1.1" xmlns:xlink="http://www.w3.org/1999/xlink" width="12px" height="14px" xmlns="http://www.w3.org/2000/svg">
  <g transform="matrix(1 0 0 1 -567 -37 )">
    <path d="M 11.762712315789473 8.445974005813955  C 11.922846486842106 7.742870089147289  11.961439684210527 7.0258519089147295  11.877386999999999 6.31490934883721  C 11.796201842105262 5.628038730620155  11.602985907894737 4.964236476744186  11.30313225 4.34196  C 10.700767855263159 3.0919417151162794  9.694582289473685 2.08550428875969  8.469899210526316 1.5080626492248062  C 8.205639684210528 1.3834581724806203  7.89344777631579 1.5033160658914728  7.772590802631579 1.7757832519379848  C 7.651746986842105 2.0482233062015505  7.767986973684211 2.370109149224806  8.0322465 2.4947271782945735  C 10.127815315789473 3.4827885600775192  11.265867565789474 5.881329715116279  10.738282447368421 8.197972050387596  C 10.333869355263158 9.973423032945737  9.038261078947368 11.363180594961241  7.3673884868421045 11.865287257751937  L 7.363929039473684 10.904810271317828  L 4.773883157894737 12.460142062015503  L 7.375070289473683 13.99548396899225  L 7.3714398421052625 12.985737496124031  C 8.36352455263158 12.742753346899226  9.27683125 12.240565329457365  10.030451013157894 11.520088932170545  C 10.893576026315788 10.69490300775194  11.492586197368421 9.631899924418606  11.762712315789473 8.445974005813955  Z M 7.236626710526317 1.6440317887596891  L 4.6355185 0.10851356589147287  L 4.639096328947368 1.1182736046511628  C 3.646932697368421 1.3612577538759691  2.73356022368421 1.8634729031007753  1.9798878684210521 2.584017102713178  C 1.1167233947368418 3.40924371124031  0.5177263684210521 4.472273926356589  0.24762656578947317 5.658267647286822  C 0.14252782894736787 6.119974135658914  0.08980746052631522 6.587634191860465  0.08980746052631522 7.0557011027131775  C 0.08980746052631522 7.299810868217053  0.10415823684210473 7.544029120155039  0.13285980263157843 7.787528610465117  C 0.2138081842105259 8.473843203488372  0.40659005263157844 9.13718436627907  0.7058254868421047 9.7591082248062  C 1.3068613421052624 11.008258563953488  2.3112579999999996 12.014709556201549  3.5339416973684212 12.593032693798449  C 3.798043381578947 12.717962643410852  4.110393131578948 12.598484472868217  4.231552644736842 12.326180050387597  C 4.352738460526316 12.053821364341085  4.236827315789474 11.731854153100775  3.972712473684211 11.606924189922479  C 1.8810897894736842 10.617588007751936  0.7453657500000003 8.22007753488372  1.2720695789473684 5.906215352713177  C 1.6764432105263156 4.130669436046511  2.9720909473684216 2.740844071705425  4.64306877631579 2.238737408914728  L 4.646488763157896 3.1992279476744176  L 7.236626710526317 1.6440317887596891  Z " fill-rule="nonzero" fill="#999999" stroke="none" transform="matrix(1 0 0 1 567 37 )" />
  </g>
</svg>