<?xml version="1.0" encoding="utf-8"?>
<svg version="1.1" xmlns:xlink="http://www.w3.org/1999/xlink" width="17px" height="16px" xmlns="http://www.w3.org/2000/svg">
  <g transform="matrix(1 0 0 1 -858 -936 )">
    <path d="M 0 16  L 0 0.15576923076923066  C 0 0.13076923076923072  0.009402654867256638 0.10576923076923077  0.02820796460176991 0.08653846153846154  C 0.04701327433628318 0.0673076923076923  0.07146017699115038 0.057692307692307696  0.09590707964601759 0.057692307692307696  L 0.6957964601769911 0.057692307692307696  C 0.7202433628318583 0.057692307692307696  0.7446902654867256 0.0673076923076923  0.7634955752212388 0.08653846153846154  C 0.7823008849557521 0.10576923076923077  0.7917035398230088 0.13076923076923072  1 0.15576923076923066  L 1 15  L 16.755530973451325 15  C 16.779977876106194 15.134615384615385  16.804424778761064 15.14423076923077  16.823230088495578 15.163461538461538  C 16.842035398230088 15.182692307692308  16.851438053097347 15.207692307692307  16.851438053097347 15.232692307692307  L 16.851438053097347 15.846153846153847  C 16.851438053097347 15.871153846153845  16.842035398230088 15.896153846153847  16.823230088495578 15.915384615384616  C 16.804424778761064 15.934615384615386  16.779977876106194 15.944230769230769  16.755530973451325 16  L 0 16  Z M 1.842920353982301 7  L 15.249225663716814 7  C 15.322566371681416 6.790384615384616  15.394026548672567 6.81923076923077  15.450442477876107 6.875  C 15.506858407079646 6.9326923076923075  15.533185840707965 7.005769230769231  15.533185840707965 7.0807692307692305  L 15.533185840707965 9.728846153846153  C 15.533185840707965 9.803846153846154  15.504977876106194 9.876923076923077  15.450442477876107 9.934615384615386  C 15.394026548672567 9.992307692307692  15.322566371681418 10.01923076923077  15.249225663716814 10  L 1.842920353982301 10  L 1.842920353982301 7  Z M 1.842920353982301 2.751923076923077  L 11.300110619469026 2.751923076923077  C 11.373451327433626 2.751923076923077  11.444911504424779 2.7807692307692307  11.501327433628319 2.8365384615384617  C 11.557743362831859 2.894230769230769  11.584070796460177 2.9673076923076924  11.584070796460177 3.042307692307692  L 11.584070796460177 5.690384615384615  C 11.584070796460177 5.765384615384614  11.555862831858407 5.838461538461538  11.501327433628319 5.896153846153846  C 11.444911504424779 5.953846153846153  11.37345132743363 5.98076923076923  11.300110619469026 5.98076923076923  L 1.842920353982301 5.98076923076923  L 1.842920353982301 2.751923076923077  Z M 1.842920353982301 10.828846153846154  L 7.350995575221238 10.828846153846154  C 7.4243362831858395 10.828846153846154  7.49579646017699 10.857692307692307  7.55221238938053 10.913461538461538  C 7.60862831858407 10.971153846153847  7.634955752212388 11.044230769230769  7.634955752212388 11.11923076923077  L 7.634955752212388 13.767307692307694  C 7.634955752212388 13.842307692307694  7.606747787610618 13.915384615384617  7.55221238938053 13.973076923076926  C 7.49579646017699 14.030769230769234  7.4243362831858395 14.05769230769231  7.350995575221238 14.05769230769231  L 1.842920353982301 14.05769230769231  L 1.842920353982301 10.828846153846154  Z " fill-rule="nonzero" fill="#999999" stroke="none" transform="matrix(1 0 0 1 858 936 )" />
  </g>
</svg>