<?xml version="1.0" encoding="utf-8"?>
<svg version="1.1" xmlns:xlink="http://www.w3.org/1999/xlink" width="16px" height="16px" xmlns="http://www.w3.org/2000/svg">
  <g transform="matrix(1 0 0 1 -892 -936 )">
    <path d="M 11.428070175438597 10.557142857142853  L 14.070175438596491 13.096428571428572  C 15.164912280701754 11.74642857142857  15.796491228070176 10.053571428571429  15.864912280701754 8.305357142857142  L 12.231578947368419 8.40892857142857  C 12.157894736842103 9.207142857142856  11.871929824561402 9.94642857142857  11.428070175438597 10.557142857142853  Z M 8.521052631578947 3.7089285714285714  C 10.412280701754383 3.9464285714285716  11.914035087719297 5.442857142857142  12.198245614035088 7.346428571428571  L 15.83157894736842 7.242857142857142  C 15.808771929824562 6.991071428571428  15.771929824561404 6.735714285714286  15.72456140350877 6.489285714285714  C 15.429824561403509 4.910714285714286  14.680701754385964 3.4732142857142856  13.56315789473684 2.3339285714285714  C 12.210526315789473 0.9589285714285712  10.426315789473684 0.1374999999999998  8.521052631578947 0.0035714285714283684  L 8.521052631578947 3.7089285714285714  Z M 7.996491228070175 12.321428571428571  C 5.65438596491228 12.323214285714286  3.752631578947368 10.389285714285714  3.752631578947368 8  C 3.752631578947368 5.791071428571429  5.378947368421052 3.9678571428571425  7.478947368421052 3.7071428571428577  L 7.478947368421052 0.0017857142857141842  C 5.575438596491227 0.12857142857142836  3.7877192982456136 0.9535714285714284  2.4350877192982447 2.330357142857143  C -0.631578947368421 5.451785714285714  -0.631578947368421 10.535714285714286  2.436842105263158 13.658928571428572  C 5.357894736842105 16.632142857142856  10.075438596491228 16.79285714285714  13.175438596491228 14.025  C 13.235087719298246 13.975  13.292982456140352 13.921428571428573  13.352631578947369 13.866071428571429  L 10.708771929824561 11.328571428571427  C 9.973684210526315 11.95  9.026315789473685 12.321428571428571  7.996491228070175 12.321428571428571  Z " fill-rule="nonzero" fill="#ffffff" stroke="none" transform="matrix(1 0 0 1 892 936 )" />
  </g>
</svg>