<?xml version="1.0" encoding="utf-8"?>
<svg version="1.1" xmlns:xlink="http://www.w3.org/1999/xlink" width="55px" height="10px" preserveAspectRatio="xMinYMid meet" viewBox="1470 545  55 8" xmlns="http://www.w3.org/2000/svg">
  <path d="M 464 933  L 1470 933  A 5 5 0 0 0 1475 928 L 1475 554  A 5 5 0 0 1 1480 549 L 1523 549  " stroke-width="2" stroke="#0066ff" fill="none" />
  <path d="M 465.5 929.5  A 3.5 3.5 0 0 0 462 933 A 3.5 3.5 0 0 0 465.5 936.5 A 3.5 3.5 0 0 0 469 933 A 3.5 3.5 0 0 0 465.5 929.5 Z M 1515.6 557  L 1525 549  L 1515.6 541  L 1519.2 549  L 1515.6 557  Z " fill-rule="nonzero" fill="#0066ff" stroke="none" />
</svg>