<?xml version="1.0" encoding="utf-8"?>
<svg version="1.1" xmlns:xlink="http://www.w3.org/1999/xlink" width="6px" height="6px" xmlns="http://www.w3.org/2000/svg">
  <g transform="matrix(1 0 0 1 -1745 -263 )">
    <path d="M 1748 263  C 1749.68 263  1751 264.32  1751 266  C 1751 267.68  1749.68 269  1748 269  C 1746.32 269  1745 267.68  1745 266  C 1745 264.32  1746.32 263  1748 263  Z " fill-rule="nonzero" fill="#e7772d" stroke="none" />
    <path d="M 1748 263.5  C 1749.4 263.5  1750.5 264.6  1750.5 266  C 1750.5 267.4  1749.4 268.5  1748 268.5  C 1746.6 268.5  1745.5 267.4  1745.5 266  C 1745.5 264.6  1746.6 263.5  1748 263.5  Z " stroke-width="1" stroke="#e7772d" fill="none" />
  </g>
</svg>