<?xml version="1.0" encoding="utf-8"?>
<svg version="1.1" xmlns:xlink="http://www.w3.org/1999/xlink" width="14px" height="14px" xmlns="http://www.w3.org/2000/svg">
  <g transform="matrix(1 0 0 1 -1741 -259 )">
    <path d="M 1748 260  C 1751.36 260  1754 262.64  1754 266  C 1754 269.36  1751.36 272  1748 272  C 1744.64 272  1742 269.36  1742 266  C 1742 262.64  1744.64 260  1748 260  Z " fill-rule="nonzero" fill="#ffffff" stroke="none" fill-opacity="0" />
    <path d="M 1748 260  C 1751.36 260  1754 262.64  1754 266  C 1754 269.36  1751.36 272  1748 272  C 1744.64 272  1742 269.36  1742 266  C 1742 262.64  1744.64 260  1748 260  Z " stroke-width="2" stroke="#e7772d" fill="none" />
  </g>
</svg>