<?xml version="1.0" encoding="utf-8"?>
<svg version="1.1" xmlns:xlink="http://www.w3.org/1999/xlink" width="14px" height="14px" xmlns="http://www.w3.org/2000/svg">
  <g transform="matrix(1 0 0 1 -1809 -259 )">
    <path d="M 1816 260  C 1819.36 260  1822 262.64  1822 266  C 1822 269.36  1819.36 272  1816 272  C 1812.64 272  1810 269.36  1810 266  C 1810 262.64  1812.64 260  1816 260  Z " fill-rule="nonzero" fill="#ffffff" stroke="none" fill-opacity="0" />
    <path d="M 1816 260  C 1819.36 260  1822 262.64  1822 266  C 1822 269.36  1819.36 272  1816 272  C 1812.64 272  1810 269.36  1810 266  C 1810 262.64  1812.64 260  1816 260  Z " stroke-width="2" stroke="#000000" fill="none" />
  </g>
</svg>