<?xml version="1.0" encoding="utf-8"?>
<svg version="1.1" xmlns:xlink="http://www.w3.org/1999/xlink" width="34px" height="34px" preserveAspectRatio="xMinYMid meet" viewBox="1981 545  34 32" xmlns="http://www.w3.org/2000/svg">
  <path d="M 1610 564  L 1802.5 564  A 1.5 1.5 0 0 0 1804 562.5 A 1.5 1.5 0 0 1 1805.5 561 L 1998 561  " stroke-width="2" stroke="#0066ff" fill="none" />
  <path d="M 1611.5 560.5  A 3.5 3.5 0 0 0 1608 564 A 3.5 3.5 0 0 0 1611.5 567.5 A 3.5 3.5 0 0 0 1615 564 A 3.5 3.5 0 0 0 1611.5 560.5 Z M 1990.6 569  L 2000 561  L 1990.6 553  L 1994.2 561  L 1990.6 569  Z " fill-rule="nonzero" fill="#0066ff" stroke="none" />
</svg>