<?xml version="1.0" encoding="utf-8"?>
<svg version="1.1" xmlns:xlink="http://www.w3.org/1999/xlink" width="14px" height="14px" xmlns="http://www.w3.org/2000/svg">
  <g transform="matrix(1 0 0 1 -3533 -454 )">
    <path d="M 9.331944444444442 5.331944444444444  C 9.331944444444442 5.593055555555555  9.279166666666665 5.823611111111111  9.170833333333334 6.022222222222222  C 9.063888888888888 6.220833333333334  8.93611111111111 6.3916666666666675  8.788888888888888 6.536111111111111  C 8.641666666666666 6.680555555555556  8.377777777777778 6.9222222222222225  7.995833333333333 7.262499999999999  C 7.890277777777776 7.3583333333333325  7.8055555555555545 7.4430555555555555  7.7430555555555545 7.5152777777777775  C 7.6791666666666645 7.587500000000001  7.631944444444442 7.654166666666668  7.601388888888887 7.715277777777779  C 7.570833333333329 7.774999999999999  7.545833333333332 7.836111111111111  7.529166666666663 7.895833333333333  C 7.512499999999997 7.955555555555556  7.486111111111108 8.0625  7.452777777777775 8.213888888888889  C 7.394444444444441 8.536111111111111  7.20972222222222 8.697222222222221  6.899999999999997 8.697222222222221  C 6.738888888888886 8.697222222222221  6.602777777777775 8.644444444444446  6.493055555555553 8.538888888888888  C 6.383333333333331 8.433333333333334  6.327777777777775 8.277777777777779  6.327777777777775 8.069444444444443  C 6.327777777777775 7.809722222222221  6.368055555555553 7.584722222222223  6.448611111111108 7.393055555555554  C 6.529166666666663 7.2027777777777775  6.6361111111111075 7.03611111111111  6.769444444444441 6.891666666666666  C 6.902777777777776 6.747222222222222  7.081944444444442 6.576388888888888  7.308333333333331 6.3791666666666655  C 7.506944444444441 6.205555555555556  7.649999999999998 6.074999999999999  7.738888888888886 5.98611111111111  C 7.827777777777775 5.897222222222221  7.901388888888887 5.8  7.962499999999999 5.6916666666666655  C 8.02222222222222 5.583333333333333  8.052777777777775 5.466666666666666  8.052777777777775 5.338888888888889  C 8.052777777777775 5.091666666666667  7.9611111111111095 4.881944444444445  7.776388888888888 4.7124999999999995  C 7.591666666666666 4.543055555555555  7.354166666666665 4.456944444444444  7.062499999999998 4.456944444444444  C 6.720833333333331 4.456944444444444  6.470833333333331 4.543055555555555  6.309722222222221 4.715277777777779  C 6.1486111111111095 4.887499999999999  6.012499999999999 5.140277777777778  5.899999999999999 5.475  C 5.7944444444444425 5.824999999999999  5.594444444444443 6  5.299999999999999 6  C 5.126388888888888 6  4.980555555555554 5.93888888888889  4.861111111111109 5.816666666666667  C 4.7416666666666645 5.694444444444445  4.681944444444444 5.5625  4.681944444444444 5.419444444444444  C 4.681944444444444 5.125  4.776388888888888 4.827777777777777  4.965277777777777 4.5249999999999995  C 5.154166666666665 4.2236111111111105  5.4305555555555545 3.973611111111111  5.793055555555554 3.774999999999999  C 6.155555555555555 3.576388888888888  6.579166666666666 3.4777777777777774  7.062499999999998 3.4777777777777774  C 7.512499999999998 3.4777777777777774  7.908333333333331 3.561111111111111  8.252777777777776 3.726388888888888  C 8.597222222222221 3.891666666666666  8.862499999999997 4.116666666666666  9.049999999999999 4.402777777777777  C 9.237499999999999 4.687499999999999  9.331944444444442 4.997222222222222  9.331944444444442 5.331944444444444  Z M 7.644444444444444 9.813888888888888  C 7.644444444444444 10.029166666666665  7.573611111111111 10.199999999999998  7.434722222222222 10.32361111111111  C 7.294444444444443 10.447222222222221  7.133333333333331 10.509722222222221  6.951388888888888 10.509722222222221  C 6.762499999999998 10.509722222222221  6.597222222222221 10.44861111111111  6.455555555555555 10.326388888888888  C 6.313888888888888 10.204166666666666  6.244444444444444 10.033333333333331  6.244444444444444 9.813888888888888  C 6.244444444444444 9.619444444444444  6.312499999999999 9.454166666666666  6.448611111111111 9.320833333333331  C 6.584722222222221 9.187499999999998  6.752777777777777 9.120833333333332  6.951388888888888 9.120833333333332  C 7.147222222222222 9.120833333333332  7.311111111111112 9.187499999999998  7.444444444444445 9.320833333333331  C 7.577777777777779 9.454166666666666  7.644444444444444 9.618055555555554  7.644444444444444 9.813888888888888  Z M 13.95138888888889 6.993055555555555  C 13.95138888888889 3.1625  10.841666666666667 0.05694444444444476  7.006944444444445 0.056944444444444436  C 3.1722222222222216 0.056944444444444436  0.0625 3.1625  0.0625 6.993055555555555  C 0.0625 10.82361111111111  3.172222222222222 13.929166666666667  7.006944444444445 13.929166666666667  C 10.841666666666667 13.929166666666667  13.95138888888889 10.82361111111111  13.95138888888889 6.993055555555555  Z " fill-rule="nonzero" fill="#595757" stroke="none" transform="matrix(1 0 0 1 3533 454 )" />
  </g>
</svg>