<?xml version="1.0" encoding="utf-8"?>
<svg version="1.1" xmlns:xlink="http://www.w3.org/1999/xlink" width="14px" height="14px" xmlns="http://www.w3.org/2000/svg">
  <g transform="matrix(1 0 0 1 -2787 -1090 )">
    <path d="M 2794 1090  C 2797.92 1090  2801 1093.08  2801 1097  C 2801 1100.92  2797.92 1104  2794 1104  C 2790.08 1104  2787 1100.92  2787 1097  C 2787 1093.08  2790.08 1090  2794 1090  Z " fill-rule="nonzero" fill="#ffffff" stroke="none" />
    <path d="M 2794 1090.5  C 2797.64 1090.5  2800.5 1093.36  2800.5 1097  C 2800.5 1100.64  2797.64 1103.5  2794 1103.5  C 2790.36 1103.5  2787.5 1100.64  2787.5 1097  C 2787.5 1093.36  2790.36 1090.5  2794 1090.5  Z " stroke-width="1" stroke="#0066ff" fill="none" />
  </g>
</svg>