<?xml version="1.0" encoding="utf-8"?>
<svg version="1.1" xmlns:xlink="http://www.w3.org/1999/xlink" width="30px" height="30px" xmlns="http://www.w3.org/2000/svg">
  <g transform="matrix(1 0 0 1 -5539 -368 )">
    <path d="M 28.125 15  C 28.125 7.687499999999999  22.3125 1.875  15 1.875  C 7.687499999999999 1.875  1.875 7.687499999999999  1.875 15  C 1.875 22.3125  7.687499999999999 28.125  15 28.125  C 22.3125 28.125  28.125 22.3125  28.125 15  Z M 0 15  C 0 6.749999999999999  6.75 0  15 0  C 23.25 0  30 6.75  30 15  C 30 23.25  23.25 30  15 30  C 6.749999999999999 30  0 23.25  0 15  Z M 14 7.5  C 13.5 6.75  14.250000000000002 6  15 6  C 15.75 6  16.5 6.5625  16 7.5  L 16 17.8125  C 16.5 18.5625  15.9375 19.3125  15 19.3125  C 14.0625 19.3125  13.5 18.75  14 17.8125  L 14 7.5  Z M 16.5 22.5  C 16.5 23.4375  15.75 24  15 24  C 14.25 24  13.5 23.4375  13.5 22.5  C 13.5 21.5625  14.0625 21  15 21  C 15.9375 21  16.5 21.5625  16.5 22.5  Z " fill-rule="nonzero" fill="#ff6666" stroke="none" transform="matrix(1 0 0 1 5539 368 )" />
  </g>
</svg>