<?xml version="1.0" encoding="utf-8"?>
<svg version="1.1" xmlns:xlink="http://www.w3.org/1999/xlink" width="5px" height="10px" xmlns="http://www.w3.org/2000/svg">
  <g transform="matrix(1 0 0 1 -1256 -5430 )">
    <path d="M 4.832589285714286 9.603794642857142  C 4.765625 9.637276785714286  4.698660714285714 9.670758928571429  4.6484375 9.670758928571429  C 4.581473214285715 9.670758928571429  4.51450892857143 9.654017857142858  4.464285714285714 9.603794642857142  L 0.1283482142857149 5.251116071428571  C 0.061383928571428895 5.1841517857142865  0.027901785714286347 5.083705357142857  0.027901785714286347 5  C 0.027901785714286347 4.916294642857143  0.061383928571428895 4.815848214285714  0.1283482142857149 4.748883928571429  L 4.464285714285714 0.3962053571428571  C 4.564732142857143 0.29575892857142855  4.715401785714286 0.29575892857142855  4.815848214285714 0.3962053571428571  C 4.916294642857144 0.4966517857142857  4.916294642857144 0.6473214285714286  4.815848214285714 0.7477678571428571  L 0.5803571428571429 5  L 4.832589285714286 9.252232142857142  C 4.933035714285714 9.352678571428571  4.933035714285714 9.503348214285714  4.832589285714286 9.603794642857142  Z " fill-rule="nonzero" fill="#555555" stroke="none" transform="matrix(1 0 0 1 1256 5430 )" />
  </g>
</svg>