<?xml version="1.0" encoding="utf-8"?>
<svg version="1.1" xmlns:xlink="http://www.w3.org/1999/xlink" width="14px" height="14px" xmlns="http://www.w3.org/2000/svg">
  <g transform="matrix(1 0 0 1 -46 -5358 )">
    <path d="M 6.380275229357798 4.961340206185567  C 6.381880733944954 5.728092783505154  5.827981651376146 6.348711340206185  5.145642201834862 6.348711340206185  L 1.3486238532110093 6.348711340206185  C 0.6662844036697247 6.348711340206185  0.11399082568807331 5.728092783505154  0.11399082568807331 4.961340206185567  L 0.11399082568807331 2.372422680412371  C 0.11399082568807331 1.095103092783505  1.0355504587155964 0.05953608247422701  2.1722477064220183 0.05953608247422701  L 5.145642201834862 0.05953608247422701  C 5.827981651376146 0.05953608247422701  6.380275229357798 0.680154639175258  6.380275229357798 1.4469072164948455  L 6.380275229357798 4.961340206185567  Z M 13.96788990825688 4.961340206185567  C 13.969495412844038 5.728092783505154  13.41559633027523 6.348711340206185  12.733256880733945 6.348711340206185  L 8.936238532110092 6.348711340206185  C 8.253899082568807 6.348711340206185  7.701605504587157 5.728092783505154  7.701605504587157 4.961340206185567  L 7.701605504587157 1.446907216494845  C 7.701605504587157 0.6801546391752575  8.253899082568807 0.059536082474226495  8.936238532110092 0.059536082474226495  L 11.909633027522935 0.059536082474226495  C 13.046330275229357 0.059536082474226495  13.96788990825688 1.095103092783505  13.96788990825688 2.372422680412371  L 13.96788990825688 4.961340206185567  Z M 6.380275229357798 12.576546391752576  C 6.381880733944954 13.343298969072162  5.827981651376146 13.963917525773194  5.145642201834862 13.963917525773196  L 2.1722477064220183 13.963917525773196  C 1.0355504587155966 13.963917525773196  0.11399082568807377 12.928350515463919  0.11399082568807377 11.65103092783505  L 0.11399082568807377 9.062113402061854  C 0.11399082568807377 8.295360824742266  0.6662844036697253 7.6747422680412365  1.3486238532110097 7.6747422680412365  L 5.145642201834862 7.6747422680412365  C 5.827981651376146 7.6747422680412365  6.380275229357798 8.295360824742266  6.380275229357798 9.062113402061854  L 6.380275229357798 12.576546391752576  Z M 13.96788990825688 11.65103092783505  C 13.969495412844038 12.928350515463915  13.046330275229359 13.963917525773196  11.909633027522935 13.963917525773196  L 8.936238532110092 13.963917525773196  C 8.253899082568807 13.963917525773196  7.701605504587157 13.343298969072166  7.701605504587157 12.576546391752577  L 7.701605504587157 9.062113402061854  C 7.701605504587157 8.295360824742266  8.253899082568807 7.6747422680412365  8.936238532110092 7.6747422680412365  L 12.733256880733945 7.6747422680412365  C 13.41559633027523 7.6747422680412365  13.96788990825688 8.295360824742266  13.96788990825688 9.062113402061854  L 13.96788990825688 11.65103092783505  Z " fill-rule="nonzero" fill="#ffffff" stroke="none" transform="matrix(1 0 0 1 46 5358 )" />
  </g>
</svg>