<?xml version="1.0" encoding="utf-8"?>
<svg version="1.1" xmlns:xlink="http://www.w3.org/1999/xlink" width="16px" height="16px" xmlns="http://www.w3.org/2000/svg">
  <defs>
    <mask fill="white" id="clip5360">
      <path d="M 0 8  C 0 12.418277998646348  3.5817220013536524 16  8 16  C 12.418277998646348 16  16 12.418277998646348  16 8  C 16 3.5817220013536524  12.418277998646348 0  8 0  C 3.5817220013536524 0  0 3.5817220013536524  0 8  Z " fill-rule="evenodd" />
    </mask>
  </defs>
  <g transform="matrix(1 0 0 1 -372 -5967 )">
    <path d="M 0 8  C 0 12.418277998646348  3.5817220013536524 16  8 16  C 12.418277998646348 16  16 12.418277998646348  16 8  C 16 3.5817220013536524  12.418277998646348 0  8 0  C 3.5817220013536524 0  0 3.5817220013536524  0 8  Z " fill-rule="nonzero" fill="#333333" stroke="none" transform="matrix(1 0 0 1 372 5967 )" />
    <path d="M 0 8  C 0 12.418277998646348  3.5817220013536524 16  8 16  C 12.418277998646348 16  16 12.418277998646348  16 8  C 16 3.5817220013536524  12.418277998646348 0  8 0  C 3.5817220013536524 0  0 3.5817220013536524  0 8  Z " stroke-width="2" stroke="#ffffff" fill="none" transform="matrix(1 0 0 1 372 5967 )" mask="url(#clip5360)" />
  </g>
</svg>