<?xml version="1.0" encoding="utf-8"?>
<svg version="1.1" xmlns:xlink="http://www.w3.org/1999/xlink" width="8px" height="9px" xmlns="http://www.w3.org/2000/svg">
  <g transform="matrix(1 0 0 1 -376 -5970 )">
    <path d="M 7.996952380952381 3.72768  L 7.988825396825398 3.72768  C 7.212698412698414 3.72768  6.460952380952382 3.4896  5.8392380952380964 3.0518400000000003  L 5.8392380952380964 6.123840000000001  C 5.8392380952380964 7.6905600000000005  4.559238095238096 8.9616  2.9826031746031765 8.9616  C 1.405968253968256 8.9616  0.12596825396825634 7.6905600000000005  0.12596825396825634 6.123840000000001  C 0.12596825396825634 4.557120000000001  1.405968253968256 3.2860800000000014  2.9826031746031765 3.2860800000000014  C 3.1410793650793667 3.2860800000000014  3.2954920634920652 3.2976000000000014  3.4417777777777796 3.3244800000000017  L 3.4417777777777796 4.948799999999999  C 3.299555555555558 4.89504  3.1451428571428592 4.86816  2.994793650793652 4.86816  C 2.291809523809525 4.86816  1.718857142857144 5.432639999999999  1.718857142857144 6.13536  C 1.718857142857144 6.8380800000000015  2.291809523809525 7.40256  2.994793650793652 7.40256  C 3.6977777777777794 7.40256  4.2666666666666675 6.8380800000000015  4.2666666666666675 6.13536  L 4.2666666666666675 0.03360000000000014  L 5.8595555555555565 0.03360000000000014  C 5.8595555555555565 1.2086400000000004  6.818539682539682 2.15712  7.996952380952381 2.15712  L 7.996952380952381 3.72768  Z " fill-rule="nonzero" fill="#ffffff" stroke="none" transform="matrix(1 0 0 1 376 5970 )" />
  </g>
</svg>