<?xml version="1.0" encoding="utf-8"?>
<svg version="1.1" xmlns:xlink="http://www.w3.org/1999/xlink" width="10px" height="10px" xmlns="http://www.w3.org/2000/svg">
  <g transform="matrix(1 0 0 1 -1207 -5720 )">
    <path d="M 9.973809523809523 1.352722772277228  C 9.973809523809523 0.6274752475247527  9.40595238095238 0.03712871287128731  8.708333333333334 0.03712871287128713  L 1.3250000000000002 0.03712871287128713  C 0.6273809523809522 0.03712871287128713  0.05952380952380952 0.6274752475247524  0.05952380952380952 1.352722772277228  L 0.05952380952380952 5.7586633663366324  C 0.05952380952380952 5.9764851485148505  0.22976190476190472 6.153465346534652  0.43928571428571433 6.153465346534652  C 0.6488095238095238 6.153465346534652  0.8190476190476192 5.9764851485148505  0.8190476190476192 5.7586633663366324  L 0.8190476190476192 1.3527227722772273  C 0.8190476190476192 1.0631188118811876  1.0464285714285715 0.8267326732673262  1.3250000000000002 0.8267326732673262  L 8.708333333333334 0.8267326732673262  C 8.98690476190476 0.8267326732673262  9.214285714285714 1.0631188118811876  9.214285714285714 1.3527227722772273  L 9.214285714285714 8.586633663366337  C 9.214285714285714 8.876237623762375  8.98690476190476 9.112623762376238  8.708333333333334 9.112623762376238  L 3.7916666666666665 9.112623762376238  C 3.5821428571428573 9.112623762376238  3.411904761904762 9.28960396039604  3.411904761904762 9.507425742574258  C 3.411904761904762 9.725247524752476  3.5821428571428577 9.902227722772277  3.7916666666666665 9.902227722772277  L 8.708333333333334 9.902227722772277  C 9.405952380952382 9.902227722772277  9.973809523809523 9.31188118811881  9.973809523809523 8.586633663366337  L 9.973809523809523 1.352722772277228  Z M 5.010714285714285 6.74381188118812  C 5.1607142857142865 6.752475247524754  5.277380952380952 6.873762376237625  5.276190476190477 7.028465346534654  L 5.276190476190477 7.788366336633663  C 5.275 8.027227722772277  5.541666666666667 8.159653465346533  5.720238095238095 8.009900990099009  L 8.447619047619048 5.71658415841584  C 8.583333333333332 5.602722772277225  8.582142857142857 5.388613861386137  8.446428571428571 5.2747524752475226  L 5.732142857142857 2.7363861386138586  C 5.553571428571429 2.58787128712871  5.276190476190477 2.719059405940592  5.275 2.9566831683168293  L 5.275 3.7252475247524752  C 5.275 3.870049504950495  5.179761904761905 3.974009900990099  5.044047619047619 4.006188118811881  C 1.4226190476190474 4.8638613861386135  0.507142857142857 9.277227722772277  0.538095238095238 9.580445544554456  C 1.7166666666666666 8.42079207920792  2.907142857142857 6.627475247524752  5.010714285714285 6.74381188118812  Z " fill-rule="nonzero" fill="#e7772d" stroke="none" transform="matrix(1 0 0 1 1207 5720 )" />
  </g>
</svg>