<?xml version="1.0" encoding="utf-8"?>
<svg version="1.1" xmlns:xlink="http://www.w3.org/1999/xlink" width="220px" height="116px" xmlns="http://www.w3.org/2000/svg">
  <defs>
    <mask fill="white" id="clip6194">
      <path d="M 0 103  L 0 5  C 0 2.2000000000000455  2.1999999999999886 0  5 0  L 215 0  C 217.79999999999995 0  220 2.2000000000000455  220 5  L 220 103  C 220 105.79999999999995  217.79999999999995 108  215 108  L 116.5577889447236 108  L 109.80769230769226 115.51282051282055  L 103.39743589743586 108  L 5 108  C 2.1999999999999886 108  0 105.79999999999995  0 103  Z " fill-rule="evenodd" />
    </mask>
  </defs>
  <g transform="matrix(1 0 0 1 -4640 -2176 )">
    <path d="M 0 103  L 0 5  C 0 2.2000000000000455  2.1999999999999886 0  5 0  L 215 0  C 217.79999999999995 0  220 2.2000000000000455  220 5  L 220 103  C 220 105.79999999999995  217.79999999999995 108  215 108  L 116.5577889447236 108  L 109.80769230769226 115.51282051282055  L 103.39743589743586 108  L 5 108  C 2.1999999999999886 108  0 105.79999999999995  0 103  Z " fill-rule="nonzero" fill="#ffffff" stroke="none" transform="matrix(1 0 0 1 4640 2176 )" />
    <path d="M 0 103  L 0 5  C 0 2.2000000000000455  2.1999999999999886 0  5 0  L 215 0  C 217.79999999999995 0  220 2.2000000000000455  220 5  L 220 103  C 220 105.79999999999995  217.79999999999995 108  215 108  L 116.5577889447236 108  L 109.80769230769226 115.51282051282055  L 103.39743589743586 108  L 5 108  C 2.1999999999999886 108  0 105.79999999999995  0 103  Z " stroke-width="2" stroke="#d7d7d7" fill="none" transform="matrix(1 0 0 1 4640 2176 )" mask="url(#clip6194)" />
  </g>
</svg>