<?xml version="1.0" encoding="utf-8"?>
<svg version="1.1" xmlns:xlink="http://www.w3.org/1999/xlink" width="16px" height="16px" xmlns="http://www.w3.org/2000/svg">
  <g transform="matrix(1 0 0 1 -3884 -1659 )">
    <path d="M 11.320062016666668 2.911628212341166  C 11.272962092980116 1.290339553172272  9.857023418131982 -0.0008024439586075503  8.127007749999999 0  C 6.394939533333333 0  4.985153483333333 1.288558484674081  4.925618599999999 2.9034421656576086  L 0.8835969000000004 2.903442165657609  C 0.43366705419169876 2.9034419570807146  0.0688039761103834 3.245168017798892  0.06836588333333336 3.666977038426203  C 0.0688039853024654 4.088786052950345  0.4336670606927926 4.430512104155084  0.8835969000000001 4.430511895569796  L 1.7837643333333337 4.430511895569796  L 1.7837643333333337 12.98976750789879  C 1.7837643333333337 14.596837235940058  2.947472866666667 15.909209298998274  4.382263566666667 15.909209298998274  L 11.702275966666667 15.909209298998274  C 13.137066666666668 15.909209298998274  14.300775183333334 14.604651188882318  14.3007752 12.98976750789879  L 14.3007752 4.439070035994652  L 15.116006200000003 4.439070035994652  C 15.566090901840392 4.439070094628773  15.931018090286345 4.0971174332094495  15.931237216666666 3.67516308510976  C 15.930799123889617 3.25335406448245  15.565936045808304 2.9116280037642723  15.1160062 2.911628212341166  L 11.320062016666668 2.911628212341166  Z M 9.659832549999999 2.766884028226225  L 6.339770549999999 2.766884028226225  C 6.398908533333332 1.989209624538305  7.116899233333332 1.383442201205083  8.003969 1.383442201205083  C 8.891038766666666 1.383442201205083  9.609426366666666 1.9888375307970072  9.659832549999999 2.766884028226225  Z M 4.473153483333333 14.525395378235835  L 4.473153483333332 14.517581425293576  C 3.9567875999999993 14.517581425293576  3.388427899999999 13.905860502099586  3.388427899999999 13.032558210023067  L 3.388427899999999 4.4960002690382534  L 12.979894566666667 4.4960002690382534  L 12.979894566666667 13.040372162965326  C 12.979894566666667 13.914046564408142  12.411931783333333 14.525395378235835  11.895565883333335 14.525395378235835  L 4.473153483333333 14.525395378235835  Z " fill-rule="nonzero" fill="#e7772d" stroke="none" transform="matrix(1 0 0 1 3884 1659 )" />
  </g>
</svg>