<?xml version="1.0" encoding="utf-8"?>
<svg version="1.1" xmlns:xlink="http://www.w3.org/1999/xlink" width="20px" height="20px" xmlns="http://www.w3.org/2000/svg">
  <g transform="matrix(1 0 0 1 -5340 -2224 )">
    <path d="M 19.94318181818182 10  C 19.94318181818182 15.482943093039774  15.482943093039774 19.94318181818182  10 19.94318181818182  C 4.517056906960227 19.94318181818182  0.05681818181818182 15.482943093039774  0.05681818181818182 10  C 0.05681818181818182 4.517056906960227  4.517056906960227 0.05681818181818182  10 0.05681818181818182  C 15.482943093039774 0.05681818181818182  19.94318181818182 4.517056906960227  19.94318181818182 10  Z M 18.522727272727273 10  C 18.522727272727273 5.30041630415483  14.69958369584517 1.4772727272727273  10 1.4772727272727273  C 5.3004163041548304 1.4772727272727273  1.4772727272727273 5.3004163041548304  1.4772727272727273 10  C 1.4772727272727273 14.69958369584517  5.3004163041548304 18.522727272727273  10 18.522727272727273  C 14.69958369584517 18.522727272727273  18.522727272727273 14.69958369584517  18.522727272727273 10  Z M 13.323149702592332 10.532026234019886  C 13.534089377663355 10.32387355735085  13.586662042791191 10.017027898615057  13.480829501065344 9.759242409446022  C 13.480104092684657 9.756417147549715  13.476553444602272 9.753553710937501  13.475140802556817 9.750728471235796  C 13.441046830610794 9.670475941051137  13.394162863991477 9.593774058948863  13.32883837890625 9.527724165482955  C 13.328112970525567 9.526998757102273  13.3274257590554 9.526998757102273  13.326700350674718 9.526311545632101  C 13.325974942294037 9.52558613725142  13.325974942294037 9.52489892578125  13.325287730823867 9.524173517400566  L 9.798299671519889 5.987258877840907  C 9.521310080788354 5.7095438787286925  9.071750821200286 5.70813125887784  8.794035822088071 5.985846257990055  C 8.516320822975857 6.26283584872159  8.515633611505685 6.712395108309658  8.792623202237218 6.990110107421873  L 11.817479336825285 10.023480202414772  L 8.767768576882101 13.03982239879261  C 8.488640957919035 13.316086581143464  8.4865029296875 13.764958629261363  8.76207987837358 14.04408624822443  C 8.900555575284093 14.18469999556108  9.0838154074929 14.255025945490054  9.267037064985796 14.255025945490054  C 9.447433460582388 14.255025945490054  9.627829856178977 14.186150790127838  9.766343727805399 14.049774946732953  L 13.323149702592332 10.532026234019886  Z " fill-rule="nonzero" fill="#272636" stroke="none" transform="matrix(1 0 0 1 5340 2224 )" />
  </g>
</svg>