<?xml version="1.0" encoding="utf-8"?>
<svg version="1.1" xmlns:xlink="http://www.w3.org/1999/xlink" width="34px" height="25px" xmlns="http://www.w3.org/2000/svg">
  <g transform="matrix(1 0 0 1 -2973 -1465 )">
    <path d="M 26.662349196428575 21.749019623655915  C 26.662349196428575 17.056293514784947  23.31250793253969 13.129158770161292  18.870603162698412 12.214800772849463  C 20.86831745039683 11.425932963709679  22.286984113095244 9.485895026881721  22.286984113095244 7.218469321236559  C 22.286984113095244 4.253763440860214  19.8656507718254 1.8421252352150534  16.889650807539685 1.8421252352150534  C 13.913650843253972 1.8421252352150534  11.492825410714289 4.253763440860214  11.492825410714289 7.218469321236559  C 11.492825410714289 9.48589499327957  12.910984130952386 11.425932963709675  14.908698418650797 12.214800772849463  C 10.466793648809526 13.129664784946238  7.116952384920638 17.05679949596774  7.116952384920638 21.74901962365591  C 7.116952384920638 22.89006959005376  7.920507946428575 23.26805819892473  8.566095224206352 23.571663508064518  L 8.603174619047621 23.586843783602152  C 11.206349236111114 24.50221381048387  14.97117463293651 24.746110080645163  16.78552381746032 24.74611004704301  C 18.76393652777778 24.74611004704301  22.636952386904767 24.426312466397853  25.20914285119048 23.54130295698925  C 26.173206341269843 23.17292849462366  26.662349196428575 22.569765961021506  26.662349196428575 21.749019623655915  Z M 5.98171427579365 21.606831115591397  C 5.98171427579365 17.223782426075267  8.60520635515873 13.453510416666663  12.37155554563492 11.761922849462367  C 11.09307934920635 10.574320060483872  10.289015878968254 8.886780544354838  10.289015878968254 7.007969623655915  C 10.289015878968254 4.707147345430109  11.491301583333332 2.689690053763442  13.300571444444445 1.5329538306451618  C 13.289396845238096 1.5167615255376343  13.27314288888889 1.5076533938172039  13.26044442857143 1.4944971438172043  C 13.24723809325397 1.4803288978494622  13.239111081349208 1.4626185819892479  13.223365067460318 1.4499683803763432  C 12.26545545534703 0.6836392724649594  11.074135593541103 0.26513656471970504  9.84558730555556 0.2633776209677422  C 6.869587307539685 0.2633776209677422  4.448253966269844 2.6750158266129036  4.448253966269844 5.639721706989247  C 4.448253966269844 7.907147379032259  5.8669206289682565 9.847185349462366  7.864634916666669 10.636053125000002  C 3.4222222380952383 11.550917137096773  0.07288888293650798 15.47805188172043  0.07288888293650798 20.17027197580645  C 0.07288888293650798 20.99152436155914  0.562031738095238 21.594180880376346  1.5387936547619048 21.967615423387095  C 2.9853968154761903 22.465528125  4.780444456349206 22.75243514784946  6.062984125 22.90828588709677  C 6.009687683782215 22.476486744941727  5.982548587640523 22.04188145758273  5.98171427579365 21.606831115591397  Z M 33.79174601984128 20.170777990591397  C 33.79174601984128 15.478051881720429  30.441904755952383 11.550917137096771  25.999492077380953 10.636559139784946  C 27.997206365079368 9.847691330645162  29.41587302777778 7.907653393817203  29.41587302777778 5.640227688172042  C 29.41587302777778 2.6755218077956977  26.99453968650794 0.26388360215053636  24.018539688492066 0.26388360215053636  C 22.77257143849207 0.26388360215053636  21.556063513888894 0.6975331989247303  20.5945396686508 1.4843769825268809  L 20.451301581349213 1.6012650201612906  C 22.263640494241145 2.8078334805872553  23.3512793682898 4.836450487388859  23.350095236111116 7.007969623655913  C 23.350095236111116 8.886780510752686  22.54603173214286 10.57432002688172  21.26755556944445 11.761922849462364  C 25.033904759920638 13.453510450268816  27.657396839285717 17.223782426075267  27.657396839285717 21.606831115591397  C 27.657396839285717 22.05717899865591  27.626412720238097 22.499936760752686  27.573079369047623 22.935610383064517  L 27.60000001587302 22.932574327956985  C 28.92012698809524 22.7797596438172  30.81168254960318 22.48880456989247  32.338539674603176 21.96306135752688  C 33.302603164682544 21.59468689516129  33.79174601984128 20.991524361559136  33.79174601984128 20.170777990591397  Z " fill-rule="nonzero" fill="#ffffff" stroke="none" transform="matrix(1 0 0 1 2973 1465 )" />
  </g>
</svg>