<?xml version="1.0" encoding="utf-8"?>
<svg version="1.1" xmlns:xlink="http://www.w3.org/1999/xlink" width="60px" height="60px" xmlns="http://www.w3.org/2000/svg">
  <g transform="matrix(1 0 0 1 -1975 -1724 )">
    <path d="M 57.82863107638889 30.84796195746527  C 57.82863107638889 14.985732139756943  44.97096480034722 2.1347279079861075  29.11539702690972 2.134727907986111  C 13.25982925347222 2.134727907986111  0.4021629774305523 14.98573220486111  0.40216291232638623 30.847961957465277  C 0.4021628472222193 46.71019171006945  13.253167209201385 59.56119600694445  29.11539702690972 59.5611960720486  C 44.97762684461806 59.56119613715277  57.82863107638889 46.710191775173605  57.82863107638889 30.84796195746527  Z M 46.46991551649306 20.38195486111111  C 47.48920203993056 21.38125538194445  47.48920203993056 23.020108181423616  46.48323953993055 24.02607061631944  L 27.216726063368057 43.29258409288195  C 26.710413823784723 43.79889633246528  26.050875477430555 44.052052452256945  25.391337196180555 44.052052452256945  C 24.731798849826387 44.052052452256945  24.07226056857639 43.79889633246528  23.565948263888888 43.29258409288195  L 14.112565646701391 33.84586345486112  C 13.099941167534723 32.83990095486111  13.099941167534723 31.201048155381944  14.112565646701391 30.195085655381945  C 15.125190125868059 29.18246117621528  16.75738094618056 29.18246117621528  17.763343446180553 30.195085655381945  L 25.384675151909722 37.81641742621528  L 42.81913771701389 20.38195486111111  C 43.831762196180556 19.369330381944444  45.46395301649306 19.369330381944444  46.46991551649306 20.38195486111111  Z " fill-rule="nonzero" fill="#0fc060" stroke="none" transform="matrix(1 0 0 1 1975 1724 )" />
  </g>
</svg>