<?xml version="1.0" encoding="utf-8"?>
<svg version="1.1" xmlns:xlink="http://www.w3.org/1999/xlink" width="16px" height="16px" xmlns="http://www.w3.org/2000/svg">
  <g transform="matrix(1 0 0 1 -1323 -2895 )">
    <path d="M 7.239583333333333 11.239583333333332  C 7.302083333333333 11.177083333333332  7.333333333333333 11.097222222222221  7.333333333333333 11  L 7.333333333333333 5  C 7.333333333333333 4.902777777777777  7.302083333333333 4.822916666666666  7.239583333333333 4.760416666666666  C 7.177083333333333 4.697916666666666  7.097222222222222 4.666666666666666  7 4.666666666666666  L 4.333333333333333 4.666666666666666  C 4.236111111111112 4.666666666666666  4.156250000000001 4.697916666666666  4.09375 4.760416666666666  C 4.03125 4.822916666666666  4 4.902777777777777  4 5  L 4 11  C 4 11.097222222222221  4.03125 11.177083333333332  4.09375 11.239583333333332  C 4.156250000000001 11.302083333333332  4.236111111111112 11.333333333333332  4.333333333333333 11.333333333333332  L 7 11.333333333333332  C 7.097222222222222 11.333333333333332  7.177083333333333 11.302083333333332  7.239583333333333 11.239583333333332  Z M 11.90625 11.239583333333332  C 11.96875 11.177083333333332  12 11.097222222222221  12 11  L 12 5  C 12 4.902777777777777  11.96875 4.822916666666666  11.90625 4.760416666666666  C 11.84375 4.697916666666666  11.763888888888891 4.666666666666666  11.666666666666666 4.666666666666666  L 9 4.666666666666666  C 8.902777777777779 4.666666666666666  8.822916666666666 4.697916666666666  8.760416666666666 4.760416666666666  C 8.697916666666666 4.822916666666666  8.666666666666666 4.902777777777777  8.666666666666666 5  L 8.666666666666666 11  C 8.666666666666666 11.097222222222221  8.697916666666666 11.177083333333332  8.760416666666666 11.239583333333332  C 8.822916666666666 11.302083333333332  8.902777777777779 11.333333333333332  9 11.333333333333332  L 11.666666666666666 11.333333333333332  C 11.763888888888891 11.333333333333332  11.84375 11.302083333333332  11.90625 11.239583333333332  Z M 14.927083333333334 3.984375  C 15.642361111111109 5.210069444444443  16 6.548611111111109  16 8  C 16 9.45138888888889  15.642361111111109 10.789930555555554  14.927083333333334 12.015625  C 14.211805555555557 13.241319444444445  13.241319444444445 14.211805555555555  12.015625 14.927083333333334  C 10.789930555555557 15.642361111111112  9.45138888888889 16  8 16  C 6.548611111111112 16  5.210069444444445 15.642361111111112  3.984375 14.927083333333334  C 2.758680555555556 14.211805555555555  1.7881944444444446 13.241319444444445  1.0729166666666667 12.015625  C 0.35763888888888884 10.789930555555554  0 9.45138888888889  0 8  C 0 6.548611111111109  0.35763888888888884 5.210069444444443  1.0729166666666667 3.984375  C 1.7881944444444446 2.7586805555555554  2.758680555555556 1.7881944444444429  3.984375 1.072916666666666  C 5.210069444444445 0.3576388888888875  6.548611111111112 0  8 0  C 9.45138888888889 0  10.789930555555557 0.3576388888888875  12.015625 1.072916666666666  C 13.241319444444445 1.7881944444444429  14.211805555555557 2.7586805555555554  14.927083333333334 3.984375  Z " fill-rule="nonzero" fill="#000000" stroke="none" transform="matrix(1 0 0 1 1323 2895 )" />
  </g>
</svg>