<?xml version="1.0" encoding="utf-8"?>
<svg version="1.1" xmlns:xlink="http://www.w3.org/1999/xlink" width="17px" height="16px" xmlns="http://www.w3.org/2000/svg">
  <g transform="matrix(1 0 0 1 -2915 -3368 )">
    <path d="M 16.951907386363636 7.998361147103658  C 16.951907386363636 8.335965072408536  16.682562655362215 8.608014824695124  16.348315587269173 8.608014824695124  L 0.6516844127308238 8.608014824695124  C 0.31743736350319623 8.608014824695124  0.04809263250177557 8.33596507240854  0.04809263250177557 7.998361147103659  C 0.04809263250177557 7.660757221798781  0.31743734463778406 7.3887074695121955  0.6516844127308238 7.3887074695121955  L 16.348315606134587 7.3887074695121955  C 16.682562655362215 7.3887074695121955  16.951907386363636 7.660757221798781  16.951907386363636 7.998361147103658  Z M 16.34507049116655 14.098175514481703  C 16.348315587269173 15.104431878810976  15.533791220925071 15.927136547256096  14.537540284312852 15.927136547256096  L 10.91274452570135 15.927136547256096  C 10.578497476473721 15.927136547256096  10.3091527454723 15.655086794969511  10.3091527454723 15.317482869664634  C 10.3091527454723 14.979878944359752  10.578497457608307 14.707829192073168  10.91274452570135 14.707829192073168  L 14.534295150479402 14.707829192073168  C 14.86854219970703 14.707829192073168  15.137886930708452 14.435779439786584  15.137886930708452 14.098175514481703  L 15.137886930708452 11.049907164634144  C 15.137886930708452 10.712303258384145  15.40723164284446 10.44025348704268  15.741478710937503 10.44025348704268  C 16.07572577903054 10.44025348704268  16.34507049116655 10.712303239329264  16.34507049116655 11.049907164634144  L 16.34507049116655 14.098175514481703  Z M 6.08401037819602 15.317482907774393  C 6.084010359330612 15.655086794969511  5.814665647194602 15.927136547256096  5.4804185791015625 15.927136547256096  L 2.4624597156871455 15.927136547256096  C 1.4629636641068897 15.927136547256096  0.6516843938654127 15.107709565548781  0.6516843938654127 14.098175533536585  L 0.6516843938654127 11.049907183689024  C 0.6516843938654127 10.712303277439025  0.9210291060014208 10.44025350609756  1.255276174094461 10.44025350609756  C 1.5895232421875005 10.44025350609756  1.8588679543235083 10.712303277439025  1.8588679543235083 11.049907202743903  L 1.8588679543235083 14.098175552591462  C 1.8588679543235083 14.435779458841463  2.1314577814275566 14.707829230182927  2.462459734552556 14.707829230182927  L 5.480418597966974 14.707829230182927  C 5.814665647194601 14.707829230182927  6.08401037819602 14.979878982469511  6.08401037819602 15.317482907774393  Z M 1.8588679354580975 4.950092816310975  C 1.8588679543235083 5.287696722560976  1.5895232421875 5.559746474847561  1.2552761740944602 5.559746474847561  C 0.9210291248668323 5.559746474847561  0.651684393865412 5.287696722560976  0.651684393865412 4.950092797256097  L 0.651684393865412 1.9018244474085368  C 0.651684393865412 0.892290415396342  1.4629636641068895 0.07286343368902515  2.4624597156871455 0.07286343368902515  L 5.4804185791015625 0.07286343368902515  C 5.81466562832919 0.07286343368902515  6.084010359330612 0.34491318597561016  6.084010359330612 0.6825171112804885  C 6.084010359330612 1.0201210365853666  5.814665647194602 1.2921707888719507  5.4804185791015625 1.2921707888719507  L 2.4624597156871455 1.2921707888719507  C 2.1314577814275575 1.2921707888719507  1.8588679354580975 1.567498246951219  1.8588679354580975 1.9018244664634139  L 1.8588679354580975 4.950092816310975  Z M 16.34507047230114 4.950092797256097  C 16.348315587269173 5.287696722560976  16.078970875133166 5.559746474847561  15.744723825905542 5.559746474847561  C 15.410476776677912 5.559746474847561  15.14113204567649 5.287696722560976  15.14113204567649 4.950092797256097  L 15.14113204567649 1.9018244474085368  C 15.14113204567649 1.5674982469512204  14.871787333540482 1.292170769817074  14.537540265447443 1.292170769817074  L 10.91274452570135 1.2921707888719507  C 10.578497476473721 1.2921707888719507  10.3091527454723 1.0201210365853655  10.3091527454723 0.6825171112804874  C 10.3091527454723 0.34491318597560977  10.578497457608307 0.0728634336890241  10.91274452570135 0.0728634336890241  L 14.534295150479402 0.0728634336890241  C 15.53379120205966 0.0728634336890241  16.34507047230114 0.8922904153963409  16.34507047230114 1.9018244474085362  L 16.34507047230114 4.950092797256097  Z " fill-rule="nonzero" fill="#272636" stroke="none" transform="matrix(1 0 0 1 2915 3368 )" />
  </g>
</svg>