<?xml version="1.0" encoding="utf-8"?>
<svg version="1.1" xmlns:xlink="http://www.w3.org/1999/xlink" width="18px" height="18px" xmlns="http://www.w3.org/2000/svg">
  <g transform="matrix(1 0 0 1 -4585 -106 )">
    <path d="M 17.75 9  C 17.75 4.175010078125  13.824989921875 0.25  9 0.25  C 4.175614843750001 0.25  0.25 4.175010078125  0.25 9  C 0.25 13.824989921875  4.175010078125 17.75  9 17.75  C 13.824385156249999 17.75  17.75 13.824989921875  17.75 9  Z M 9.88563365234375 9.002486230468751  L 12.56937912109375 11.695000664062498  C 12.813129960937498 11.939994609374999  12.812491601562499 12.335002011718748  12.568136015625 12.578752851562498  C 12.446277402343751 12.70000671875  12.286890214843751 12.761255195312499  12.126898281250002 12.761255195312499  C 11.96626798828125 12.761255195312499  11.806276054687501 12.700006699218747  11.684383828125 12.5775097265625  L 8.996875429687503 9.881870703125  L 6.300631640625001 12.549388515624997  C 6.17877302734375 12.669399257812497  6.019990605468751 12.730009394531248  5.861241777343752 12.730009394531248  C 5.700006718750001 12.730009394531248  5.539376445312501 12.66812255859375  5.416879453125002 12.544382460937499  C 5.174371718750002 12.298750156249998  5.176253183593752 11.903742753906249  5.421885507812501 11.660630273437498  L 8.11500470703125 8.996875410156248  L 5.431864003906251 6.304999316406249  C 5.188113164062501 6.060610117187499  5.188751523437501 5.664997968749999  5.433107109375001 5.4212471289062485  C 5.677496308593751 5.1768579296874995  6.072470097656252 5.178134648437499  6.316859296875001 5.422490234374999  L 9.003729335937502 8.117490898437499  L 11.699973125000001 5.450006679687499  C 11.9449670703125 5.206894199218748  12.341217578125002 5.209380410156249  12.5837253125 5.455012734374998  C 12.826837792968751 5.700645039062499  12.824351582031252 6.096257187499999  12.578719257812502 6.338764921874999  L 9.88563365234375 9.002486230468751  Z " fill-rule="nonzero" fill="#ff6666" stroke="none" transform="matrix(1 0 0 1 4585 106 )" />
  </g>
</svg>