<?xml version="1.0" encoding="utf-8"?>
<svg version="1.1" xmlns:xlink="http://www.w3.org/1999/xlink" width="96px" height="12px" preserveAspectRatio="xMinYMid meet" viewBox="1614 1327  96 10" xmlns="http://www.w3.org/2000/svg">
  <path d="M 1546 1956.5  L 1615 1956.5  A 5 5 0 0 0 1620.5 1951.5 L 1620.5 1337  A 5 5 0 0 1 1625.5 1332.5 L 1707 1332.5  " stroke-width="3" stroke="#e7772d" fill="none" />
  <path d="M 1547 1952.5  A 4 4 0 0 0 1543 1956.5 A 4 4 0 0 0 1547 1960.5 A 4 4 0 0 0 1551 1956.5 A 4 4 0 0 0 1547 1952.5 Z M 1697.9 1342.5  L 1710 1332.5  L 1697.9 1322.5  L 1702.8 1332.5  L 1697.9 1342.5  Z " fill-rule="nonzero" fill="#e7772d" stroke="none" />
</svg>