<?xml version="1.0" encoding="utf-8"?>
<svg version="1.1" xmlns:xlink="http://www.w3.org/1999/xlink" width="19px" height="16px" xmlns="http://www.w3.org/2000/svg">
  <g transform="matrix(1 0 0 1 -3025 -3368 )">
    <path d="M 8.433438840491883 10.886620050669565  C 8.345212836115127 10.929508730127399  8.248453148530347 10.951677323917128  8.150463914349922 10.951452382675834  C 7.926847271305252 10.953453102352817  7.718580327876742 10.837306042060462  7.601806974219125 10.645475401134032  L 7.560146776759337 10.559295837857404  L 4.272135343282075 6.189438532995537  C 4.252338477762407 6.1504654289237575  4.241588224252048 6.107483274976202  4.240693684821857 6.06372705995898  C 4.245829662718426 5.894029989983016  4.386379170287959 5.760433984366926  4.555110269424033 5.764865822173966  C 4.6258540009595235 5.764865822173966  4.691095442264475 5.787003691639523  4.74376022018534 5.824163686813849  L 8.342258030957252 7.984977874291229  C 8.593771356428174 8.139503842100808  8.900702694429349 8.173130364110525  9.179392187460548 8.07669190493425  L 17.13727594374164 3.2561708288092652  C 15.428421806428807 1.3428263964290024  12.615965457162336 0.0936180480154418  9.432497538065299 0.0936180480154418  C 4.222614731207233 0.0936180480154418  0 3.4380176137049108  0 7.561986439860055  C 0 9.812142743394862  1.2702430017927933 11.837757799493303  3.2589278994015607 13.20635251538183  C 3.4218836075256616 13.314164689560265  3.5208780975820297 13.496419583011996  3.5230378304673886 13.692595005428883  C 3.521094796008888 13.757623663373305  3.5099792130972047 13.822045136934413  3.490024089084161 13.883929448666912  L 3.0647756584097174 15.389304572324768  C 3.0443385804105763 15.460462009892627  3.0136829634118634 15.533991362046086  3.0136829634118634 15.607520714199541  C 3.0136829634118634 15.773554735191219  3.155170426482843 15.906381951984557  3.3280995480140403 15.906381951984557  C 3.3956991137035075 15.906381951984557  3.451508057470394 15.882662806128607  3.508889084160292 15.851037278320666  L 5.5746060449965915 14.718843382796477  C 5.730242254374669 14.633454457715045  5.8937388783678015 14.580481698636747  6.075314455975558 14.580481698636747  C 6.171997555740727 14.580481698636747  6.263964406736864 14.59471318615032  6.352787091886978 14.619222970201472  C 7.3156878822311455 14.88250548920256  8.355620735802844 15.02956419350947  9.431711496603793 15.02956419350947  C 14.64159430346186 15.028773555314274  18.864995076130597 11.684373989624802  18.864995076130597 7.561986439860055  C 18.864995076130597 6.311987453251297  18.47433246976239 5.135517818795994  17.78969035679115 4.101363059476415  L 8.501824447642855 10.849460055495237  L 8.433438840491883 10.886620050669565  Z " fill-rule="nonzero" fill="#15ba11" stroke="none" transform="matrix(1 0 0 1 3025 3368 )" />
  </g>
</svg>