<?xml version="1.0" encoding="utf-8"?>
<svg version="1.1" xmlns:xlink="http://www.w3.org/1999/xlink" width="50px" height="50px" xmlns="http://www.w3.org/2000/svg">
  <g transform="matrix(1 0 0 1 -6181 -3502 )">
    <path d="M 48.190525896990735 25.706634964554393  C 48.190525896990735 12.488110116464119  37.47580400028935 1.778939923321756  24.2628308557581 1.778939923321759  C 11.04985771122685 1.778939923321759  0.3351358145254602 12.48811017071759  0.33513576027198855 25.706634964554397  C 0.33513570601851606 38.92515975839121  11.04430600766782 49.63433000578704  24.2628308557581 49.634330060040504  C 37.481355703848386 49.634330114293974  48.190525896990735 38.92515981264467  48.190525896990735 25.706634964554393  Z M 38.72492959707755 16.984962384259262  C 39.57433503327547 17.817712818287042  39.57433503327547 19.18342348451968  38.73603294994212 20.021725513599534  L 22.680605052806712 36.07715341073496  C 22.25867818648727 36.499080277054404  21.709062897858797 36.710043710214116  21.159447663483796 36.710043710214116  C 20.609832374855323 36.710043710214116  20.060217140480326 36.499080277054404  19.638290219907407 36.07715341073496  L 11.760471372251159 28.20488621238426  C 10.91661763961227 27.366584129050924  10.91661763961227 26.000873462818287  11.760471372251159 25.162571379484955  C 12.60432510489005 24.318717646846068  13.964484121817133 24.318717646846068  14.802786205150461 25.162571379484955  L 21.153895959924768 31.51368118851273  L 35.68261476417824 16.984962384259262  C 36.526468496817124 16.14110865162037  37.886627513744216 16.14110865162037  38.72492959707755 16.984962384259262  Z " fill-rule="nonzero" fill="#0fc060" stroke="none" transform="matrix(1 0 0 1 6181 3502 )" />
  </g>
</svg>