<?xml version="1.0" encoding="utf-8"?>
<svg version="1.1" xmlns:xlink="http://www.w3.org/1999/xlink" width="36px" height="36px" preserveAspectRatio="xMinYMid meet" viewBox="2549 2563  36 34" xmlns="http://www.w3.org/2000/svg">
  <path d="M 1546 3008.5  L 2051 3008.5  A 5 5 0 0 0 2056.5 3003.5 L 2056.5 2585  A 5 5 0 0 1 2061.5 2580.5 L 2567 2580.5  " stroke-width="3" stroke="#e7772d" fill="none" />
  <path d="M 1547 3004.5  A 4 4 0 0 0 1543 3008.5 A 4 4 0 0 0 1547 3012.5 A 4 4 0 0 0 1551 3008.5 A 4 4 0 0 0 1547 3004.5 Z M 2557.9 2590.5  L 2570 2580.5  L 2557.9 2570.5  L 2562.8 2580.5  L 2557.9 2590.5  Z " fill-rule="nonzero" fill="#e7772d" stroke="none" />
</svg>