<?xml version="1.0" encoding="utf-8"?>
<svg version="1.1" xmlns:xlink="http://www.w3.org/1999/xlink" width="20px" height="20px" xmlns="http://www.w3.org/2000/svg">
  <g transform="matrix(1 0 0 1 -5032 -3654 )">
    <path d="M 19.99828765625 8.73925169921875  L 19.91954439453125 8.73925169921875  L 19.92079427734375 8.74925083984375  L 17.3335158203125 8.74925083984375  L 17.33226591796875 8.73925169921875  L 11.1865421484375 8.73925169921875  L 15.251194121093752 4.70834685546875  C 13.844075934579472 3.296503782372136  11.932776049917202 2.502940203600792  9.939466627406455 2.502940203600792  C 5.797685641677851 2.502940203600792  2.440108756312704 5.860517088965938  2.440108756312704 10.002298074694542  C 2.440108756312704 14.144079060423147  5.797685641677851 17.501655945788293  9.939466627406455 17.501655945788293  C 13.118794754901383 17.501655945788293  15.952604627470388 15.496901537475393  17.0110434375 12.49892978515625  L 19.683314609374996 12.49892978515625  C 18.54403234096334 16.91457460614633  14.561493967034671 19.999998642931004  10.001243615107295 19.999998642931004  C 4.478868967469159 19.999998642931004  0.00209978698229697 15.523229462444144  0.00209978698229697 10.000854814806006  C 0.00209978698229697 4.478480167167868  4.478868967469159 0.0017109866810068215  10.001243615107295 0.0017109866810068215  C 12.646735625243915 0.0017109866810068215  15.1844169611636 1.0500884042711787  17.058539355468746 2.9172502148437496  L 19.99828765625 0  L 19.99828765625 8.73925169921875  Z " fill-rule="nonzero" fill="#262626" stroke="none" transform="matrix(1 0 0 1 5032 3654 )" />
  </g>
</svg>