<?xml version="1.0" encoding="utf-8"?>
<svg version="1.1" xmlns:xlink="http://www.w3.org/1999/xlink" width="146px" height="12px" preserveAspectRatio="xMinYMid meet" viewBox="2424 1523  146 10" xmlns="http://www.w3.org/2000/svg">
  <path d="M 2293 1427.5  L 2425 1427.5  A 5 5 0 0 1 2430.5 1432.5 L 2430.5 1523  A 5 5 0 0 0 2435.5 1528.5 L 2567 1528.5  " stroke-width="3" stroke="#e7772d" fill="none" />
  <path d="M 2294 1423.5  A 4 4 0 0 0 2290 1427.5 A 4 4 0 0 0 2294 1431.5 A 4 4 0 0 0 2298 1427.5 A 4 4 0 0 0 2294 1423.5 Z M 2557.9 1538.5  L 2570 1528.5  L 2557.9 1518.5  L 2562.8 1528.5  L 2557.9 1538.5  Z " fill-rule="nonzero" fill="#e7772d" stroke="none" />
</svg>