<?xml version="1.0" encoding="utf-8"?>
<svg version="1.1" xmlns:xlink="http://www.w3.org/1999/xlink" width="16px" height="20px" xmlns="http://www.w3.org/2000/svg">
  <g transform="matrix(1 0 0 1 -1036 -145 )">
    <path d="M 0.4156005859375016 8.47586495535714  C 0.11091308593750249 8.824999999999998  0.11091308593750249 9.389285714285712  0.41635742187499947 9.738364955357142  C 0.7218505859375002 10.0875  1.2155517578124995 10.0875  1.5210449218749993 9.738364955357142  L 7.218701171874999 3.226757812499999  L 7.218701171874999 18.928543526785713  C 7.218701171874999 19.42142857142857  7.568701171875 19.82142857142857  7.999975585937499 19.82142857142857  C 8.43125 19.82142857142857  8.78125 19.42142857142857  8.78125 18.928543526785713  L 8.78125 3.226757812499999  L 14.478906249999998 9.738364955357142  C 14.784399414062499 10.0875  15.278100585937501 10.0875  15.583593750000002 9.738364955357142  C 15.889086914062503 9.389229910714285  15.889086914062503 8.824999999999998  15.583593750000002 8.47586495535714  L 8.5523193359375 0.4410156249999986  C 8.480468750000002 0.3579799107142847  8.39375 0.29280133928571267  8.29765625 0.24726562499999868  C 8.203125000000002 0.2017299107142847  8.1015625 0.17854352678571317  7.9999755859375 0.17854352678571317  C 7.8984375 0.17854352678571317  7.796826171875001 0.20178571428571349  7.7015380859375 0.24726562499999868  C 7.605444335937502 0.29280133928571367  7.519531250000002 0.3579799107142847  7.446875000000002 0.4410156249999986  L 0.4156005859375016 8.47586495535714  Z " fill-rule="nonzero" fill="#0066ff" stroke="none" transform="matrix(1 0 0 1 1036 145 )" />
  </g>
</svg>