<?xml version="1.0" encoding="utf-8"?>
<svg version="1.1" xmlns:xlink="http://www.w3.org/1999/xlink" width="16px" height="20px" xmlns="http://www.w3.org/2000/svg">
  <g transform="matrix(1 0 0 1 -1072 -145 )">
    <path d="M 15.815152227272728 1.1156397123893804  C 15.815152227272728 1.6344695353982297  15.383084431818183 2.0550891371681415  14.850081454545455 2  L 0.9871663409090907 2  C 0.45418661363636337 2.0550891371681415  0.022095568181818237 1.6344921681415927  0.022095568181818237 1.1156397123893806  C 0.022095568181818237 0.596809889380531  0.45416336363636395 0.17619028761061972  0.9871663409090907 0.17619028761061972  L 14.850081477272727 0.17619028761061972  C 15.383084454545456 0.17619028761061942  15.815152227272728 0.5967872345132743  15.815152227272728 1.1156397123893804  Z M 7.9960463181818175 4.609528539823009  C 7.463066590909091 4.609528539823009  7.030975545454544 5.030125508849558  7 5.54897796460177  L 7 19.04385110619469  C 7.030975545454544 19.56268092920354  7.46304334090909 19.98330053097345  7.9960463181818175 19.98330053097345  C 8.529026045454545 19.98330053097345  8.96111709090909 19.5627035619469  9 19.04385110619469  L 9 5.548955331858406  C 8.961093840909092 5.030125508849558  8.529026045454545 4.609528539823009  7.9960463181818175 4.609528539823009  Z M 8.680940499999998 3.916442345132743  C 8.304061477272727 3.5495689601769915  7.714637113636362 3.5285142035398227  7.364410568181817 3.8694426991150443  L 0.2557582272727275 10.789347123893807  C -0.09444506818181769 11.130252986725663  -0.07283934090909062 11.704028915929204  0.30403968181818186 12.070902300884956  C 0.6809187045454543 12.437775685840709  1.2703430681818182 12.458830442477877  1.6205463636363633 12.117901946902654  L 8.729221954545455 5.1979975221238925  C 9.079425250000002 4.8570916814159295  9.057819522727272 4.283315730088495  8.680940499999998 3.916442345132743  Z M 7.311291681818182 3.916442345132743  C 6.93441265909091 4.2833157300884945  6.9127836818181825 4.857091659292036  7.263010227272727 5.1979975221238925  L 14.371662568181819 12.117924579646019  C 14.721865863636365 12.458830442477877  15.311290227272728 12.43779831858407  15.68816925 12.07092493362832  C 16.06504827272727 11.704051548672567  16.08667725 11.130275619469028  15.736450704545454 10.789369756637168  L 8.627798363636362 3.869420066371681  C 8.27759506818182 3.528514225663717  7.688170681818182 3.5495689601769915  7.311291681818182 3.916442345132743  Z " fill-rule="nonzero" fill="#0066ff" stroke="none" transform="matrix(1 0 0 1 1072 145 )" />
  </g>
</svg>