<?xml version="1.0" encoding="utf-8"?>
<svg version="1.1" xmlns:xlink="http://www.w3.org/1999/xlink" width="13px" height="13px" xmlns="http://www.w3.org/2000/svg">
  <g transform="matrix(1 0 0 1 -1468 -113 )">
    <path d="M 10.444444444444443 11.006780957142857  C 10.444454325293497 11.007797010272675  10.444459265810696 11.008813107876298  10.444459265810696 11.009829211833782  C 10.444459265810696 11.17814456153324  10.311802897462947 11.314591111833781  10.14816297414403 11.314591111833781  L 1.8524444444444441 11.31459047142857  C 1.6877744074855734 11.313750815434428  1.5548994252228838 11.17585181758918  1.5555555555555554 11.006476185714288  L 1.5555555555555554 7.961904757142857  L 0.9629629583333335 7.961904757142857  L 0.9629629583333339 11.006476185714288  C 0.962471581583614 11.512362859648757  1.3606106121701866 11.922968604178283  1.8524444444444446 11.923809528571429  L 10.147555555555556 11.923809528571429  C 10.639072869390832 11.923809735150105  11.037041980652349 11.514470077852543  11.037041980652349 11.009524020864388  C 11.037041980652349 11.008508073697618  11.037040334321501 11.007492127236091  11.037037041666666 11.006476185714288  L 11.037037041666666 7.961904757142857  L 10.444444444444445 7.961904757142857  L 10.444444444444445 11.006476185714288  Z M 11.234370375 4.4769523857142834  C 11.534222222222223 5.332114285714284  11.130666666666666 6.301561914285712  10.333333333333334 6.6767238142857135  C 9.620068260242713 6.934953618152053  8.82787648247227 6.653282307105414  8.421925930555556 5.997104757142855  L 7.858666666666666 5.084647614285712  L 7.390814819444444 6.0519618999999985  C 7.1302491383544755 6.596546657586929  6.590690989849812 6.940744146548983  6.000592597222221 6.938819042857142  C 5.410420926842986 6.9404682575417285  4.870818381810635 6.596389114383771  4.609777777777777 6.0519618999999985  L 4.141629624999999 5.084647614285713  L 3.578962958333333 5.997104757142855  C 3.173823590771794 6.655073005769417  2.3799757463043636 6.937158238282219  1.6663703749999992 6.6767238142857135  C 0.8687407499999991 6.3039999999999985  0.4654814861111104 5.3357714285714275  0.7653333333333323 4.481219042857141  L 1.3277037083333325 2.8772571428571414  L 1.847407402777777 0.7768380999999984  C 1.8604444444444437 0.7225904857142841  1.9540740694444434 0.6476190571428556  2.008592597222221 0.6476190428571413  L 10.014222222222223 0.6476190428571413  C 10.069925930555556 0.6476190428571413  10.162074069444445 0.7210666571428557  10.175407402777777 0.7768380999999984  L 10.707555555555555 2.966247614285713  L 11.234370375 4.4769523857142834  Z M 11.791703708333332 4.270019042857141  L 11.282370374999998 2.818438099999999  L 10.75022222222222 0.6290285714285704  C 10.671111111111111 0.30232381428571425  10.341333333333333 0.038095242857142914  10.014222222222223 0.038095242857142914  L 2.0082962916666673 0.038095242857142914  C 1.6811851805555564 0.038095242857142914  1.3514074027777785 0.3041523857142857  1.2722962916666676 0.6293333285714288  L 0.7881481527777778 2.6209523857142853  L 0.7703703749999999 2.670019042857142  L 0.20770370833333335 4.274285714285714  C -0.1997036944444444 5.4366476142857145  0.35585186111111117 6.748342857142857  1.449481486111111 7.241752385714286  C 2.435259263888889 7.612952385714287  3.529481486111111 7.214933342857144  4.079407402777779 6.323504757142859  C 4.442138090004308 7.073467448077034  5.186218853296561 7.547732868747964  6.000592597222221 7.548038100000001  C 6.8150183284717105 7.5481905955713025  7.559226913476825 7.07377053324983  7.92148148611111 6.323504757142859  C 8.480841116743845 7.225173967888512  9.573662470508506 7.606779273444278  10.55111111111111 7.241752385714287  C 11.644444444444444 6.745600000000001  12.200296291666668 5.434514285714288  11.791703708333333 4.2703238142857165  Z " fill-rule="nonzero" fill="#3d3d3d" stroke="none" transform="matrix(1 0 0 1 1468 113 )" />
  </g>
</svg>