<?xml version="1.0" encoding="utf-8"?>
<svg version="1.1" xmlns:xlink="http://www.w3.org/1999/xlink" width="40px" height="40px" xmlns="http://www.w3.org/2000/svg">
  <g transform="matrix(1 0 0 1 -1680 -3806 )">
    <path d="M 1680 3806  L 1720 3806  L 1720 3846  L 1680 3846  L 1680 3806  " fill-rule="nonzero" fill="#cccccc" stroke="none" />
    <path d="M 1683 3809  L 1717 3809  L 1717 3843  L 1683 3843  L 1683 3809  " fill-rule="nonzero" fill="#ffffff" stroke="none" />
    <path d="M 1703.8 3818  C 1702.12 3818  1700.8 3816.68  1700.8 3815  C 1700.8 3813.32  1702.12 3812  1703.8 3812  C 1705.48 3812  1706.8 3813.32  1706.8 3815  C 1706.8 3816.68  1705.48 3818  1703.8 3818  " fill-rule="nonzero" fill="#cccccc" stroke="none" />
    <path d="M 1684 3842  L 1684 3824.4  L 1692 3816.4  L 1703.2 3822.8  L 1709.6 3821.2  L 1716 3822.8  L 1716 3842  L 1684 3842  " fill-rule="nonzero" fill="#169bd5" stroke="none" />
  </g>
</svg>