<?xml version="1.0" encoding="utf-8"?>
<svg version="1.1" xmlns:xlink="http://www.w3.org/1999/xlink" width="6px" height="12px" xmlns="http://www.w3.org/2000/svg">
  <g transform="matrix(1 0 0 1 -1002 -429 )">
    <path d="M 4.913597396352258 6.00416865631929  C 4.913597396352258 5.9752632023153875  4.903071284333928 5.947541722554677  4.884334829268293 5.927103006651885  L 0.20431765853658562 0.8216297294900222  C 0.0482700487804884 0.6513823503325943  0.0482700487804884 0.37536553436807085  0.20431765853658562 0.20511815521064317  C 0.3603777560975615 0.03488439911308218  0.6133931707317074 0.03488439911308218  0.7694532682926827 0.20511815521064317  L 5.802675512195121 5.695906057649667  C 5.958735609756097 5.866153436807095  5.958735609756097 6.14217025277162  5.802675512195121 6.312417631929046  L 0.7694657560975606 11.80320553436807  C 0.6133931707317074 11.973452913525497  0.36037775609756084 11.973452913525497  0.2043176585365849 11.80320553436807  C 0.048270048780487684 11.632958155210643  0.048270048780487684 11.356941339246118  0.2043176585365849 11.186693960088691  L 4.884334829268293 6.081234305986696  C 4.903071284333928 6.060795590083902  4.913597396352258 6.033074110323193  4.913597396352258 6.00416865631929  Z " fill-rule="nonzero" fill="#333333" stroke="none" transform="matrix(1 0 0 1 1002 429 )" />
  </g>
</svg>