<?xml version="1.0" encoding="utf-8"?>
<svg version="1.1" xmlns:xlink="http://www.w3.org/1999/xlink" width="14px" height="14px" xmlns="http://www.w3.org/2000/svg">
  <g transform="matrix(1 0 0 1 -1001 -380 )">
    <path d="M 13.403133337890626 1.2595333310546872  L 7.661266662109375 7.001400006835938  L 13.418066655273439 12.757733344726564  C 13.600533317382814 12.939733351562502  13.600533317382814 13.235133337890627  13.418066655273439 13.417600020507813  C 13.235599993164064 13.600066703124996  12.940666662109376 13.600066682617188  12.75819997949219 13.417600020507813  L 7.001400006835938 7.661733337890626  L 1.2684000068359376 13.394733337890624  C 1.0864000000000005 13.576733344726563  0.7919333447265625 13.576733344726563  0.6104000136718751 13.394733337890624  C 0.42886668261718736 13.213200006835939  0.42886668261718736 12.918733331054687  0.6104000136718751 12.737200000000001  L 6.343866689453124 7.00373332421875  L 0.58193332421875 1.2418  C 0.3994666621093748 1.059333337890625  0.3994666621093748 0.7639333310546871  0.58193332421875 0.58193332421875  C 0.7639333310546871 0.3994666621093748  1.0593333173828123 0.3994666621093748  1.2418 0.58193332421875  L 7.00373332421875 6.3438666484375  L 12.74606667578125 0.601533337890625  C 12.927600006835936 0.4200000068359377  13.222066682617188 0.4200000068359377  13.403133337890626 0.601533337890625  C 13.585133344726565 0.7830666689453128  13.585133344726565 1.078  13.403133337890626 1.2595333310546872  Z " fill-rule="nonzero" fill="#ffffff" stroke="none" transform="matrix(1 0 0 1 1001 380 )" />
  </g>
</svg>