<?xml version="1.0" encoding="utf-8"?>
<svg version="1.1" xmlns:xlink="http://www.w3.org/1999/xlink" width="18px" height="18px" xmlns="http://www.w3.org/2000/svg">
  <g transform="matrix(1 0 0 1 -906 -311 )">
    <path d="M 17.4375 9  C 17.4375 9.77625  16.8075 10.40625  16.03125 10.40625  L 10.40625 10.40625  L 10.40625 16.03125  C 10.40625 16.8075  9.77625 17.4375  9 17.4375  C 8.22234375 17.4375  7.59375 16.8075  7.59375 16.03125  L 7.59375 10.40625  L 1.96875 10.40625  C 1.1910937499999998 10.40625  0.5625 9.77625  0.5625 9  C 0.5625 8.223749999999999  1.1910937499999998 7.59375  1.96875 7.59375  L 7.59375 7.59375  L 7.59375 1.96875  C 7.59375 1.1925  8.22234375 0.5625  9 0.5625  C 9.77625 0.5625  10.40625 1.1925  10.40625 1.96875  L 10.40625 7.59375  L 16.03125 7.59375  C 16.8075 7.59375  17.4375 8.223749999999999  17.4375 9  Z " fill-rule="nonzero" fill="#ffffff" stroke="none" transform="matrix(1 0 0 1 906 311 )" />
  </g>
</svg>