<?xml version="1.0" encoding="utf-8"?>
<svg version="1.1" xmlns:xlink="http://www.w3.org/1999/xlink" width="14px" height="16px" xmlns="http://www.w3.org/2000/svg">
  <g transform="matrix(1 0 0 1 -824 -379 )">
    <path d="M 2.006100490196079 9.599999999999998  L 5.46272794117647 9.6  L 5.46272794117647 7.666482142857142  C 4.10543137254902 7.048232142857143  3.156845588235295 5.636928571428571  3.156845588235295 4  C 3.156845588235295 1.7908749999999998  4.881796568627451 0  6.999982843137255 0  C 9.122475490196079 0  10.843120098039215 1.7954464285714289  10.843120098039215 4  C 10.843120098039215 5.639535714285714  9.892990196078431 7.048660714285715  8.53723774509804 7.666303571428571  L 8.53723774509804 9.6  L 11.993865196078431 9.6  C 13.056303921568627 9.6  13.917629901960787 10.487785714285716  13.917629901960787 11.600053571428573  L 13.917629901960787 13.6  L 0.08237009803921573 13.6  L 0.08237009803921573 11.599964285714284  C 0.08237009803921573 10.495410714285713  0.9478308823529412 9.599999999999998  2.006100490196079 9.599999999999998  Z M 0.8509975490196078 14.4  L 13.148916666666667 14.4  L 13.148916666666667 16  L 0.8509803921568626 16  L 0.8509803921568626 14.4  Z " fill-rule="nonzero" fill="#ffffff" stroke="none" transform="matrix(1 0 0 1 824 379 )" />
  </g>
</svg>