<?xml version="1.0" encoding="utf-8"?>
<svg version="1.1" xmlns:xlink="http://www.w3.org/1999/xlink" width="14px" height="12px" xmlns="http://www.w3.org/2000/svg">
  <g transform="matrix(1 0 0 1 -824 -586 )">
    <path d="M 5.033720588235292 8.620232673267324  L 5.033720588235293 8.621242574257426  C 4.900385696495182 8.729240629401092  4.725404273147875 8.769590944614595  4.558867647058823 8.730742574257427  L 4.558867647058823 8.733787128712873  L 0.46889705882352933 7.481658415841586  C 0.22472397047118498 7.406864508369473  0.05776642774424602 7.179526988784359  0.05776642774424602 6.921842930009415  C 0.05776642774424602 6.697994850777409  0.18425211695457885 6.493772320468528  0.3835588235294117 6.395821782178219  L 13.062088235294118 0.15752970297029745  C 13.141072600010085 0.11870278454945857  13.227766547312843 0.0985260596527408  13.315610983442157 0.0985260596527408  C 13.6355300466162 0.0985260596527408  13.89487568932451 0.3604394810017266  13.89487568932451 0.683526059652741  C 13.89487568932451 0.7317944495634705  13.88896040125513 0.7798772983211524  13.877264705882354 0.8266782178217824  L 11.51805882352941 10.223138613861385  C 11.452815551583496 10.482511157625993  11.221613458296522 10.664104005808143  10.956626351348918 10.664104005808143  C 10.899560026435493 10.664104005808143  10.842806910556824 10.655587920656192  10.78820588235294 10.638831683168316  L 6.441220588235293 9.308643564356432  C 6.33871550600198 9.285666442119552  6.265213539479282 9.194659332490149  6.263529411764704 9.088633663366338  C 6.263529411764704 9.022737623762376  6.292647058823528 8.963925742574256  6.338823529411764 8.922356435643565  L 11.585323529411763 2.9649059405940585  L 5.034735294117646 8.620232673267324  L 5.033720588235292 8.620232673267324  Z M 6.475352941176471 10.015306930693068  L 7.269470588235295 10.280940594059404  C 7.3620745564541155 10.312153524180179  7.424525017094444 10.399691689185872  7.424525017094444 10.498283749564822  C 7.424525017094444 10.54321376418876  7.411444908055634 10.587152284380931  7.386911764705883 10.624633663366335  L 6.5938235294117655 11.841267326732671  C 6.551891858415051 11.905856219697457  6.480561726651585 11.944765275565485  6.404085635165927 11.944765275565485  C 6.278781971630788 11.944765275565485  6.177203282224751 11.842180856561368  6.177203282224751 11.715636562694197  C 6.177203282224751 11.715270908211469  6.177204148936631 11.714905254252631  6.1772058823529425 11.714539603960393  L 6.1772058823529425 10.23227227722772  C 6.1775071035512905 10.105943767362186  6.2789972197546575 10.00369531292215  6.40408757749279 10.00369531292215  C 6.428303286590996 10.00369531292215  6.4523628485247455 10.007610442267762  6.475352941176471 10.015292079207919  Z " fill-rule="nonzero" fill="#ffffff" stroke="none" transform="matrix(1 0 0 1 824 586 )" />
  </g>
</svg>