<?xml version="1.0" encoding="utf-8"?>
<svg version="1.1" xmlns:xlink="http://www.w3.org/1999/xlink" width="35px" height="35px" xmlns="http://www.w3.org/2000/svg">
  <g transform="matrix(1 0 0 1 -897 -302 )">
    <path d="M 914.5 302  C 924.3 302  932 309.7  932 319.5  C 932 329.3  924.3 337  914.5 337  C 904.7 337  897 329.3  897 319.5  C 897 309.7  904.7 302  914.5 302  Z " fill-rule="nonzero" fill="#0066ff" stroke="none" />
    <path d="M 914.5 302.5  C 924.02 302.5  931.5 309.98  931.5 319.5  C 931.5 329.02  924.02 336.5  914.5 336.5  C 904.98 336.5  897.5 329.02  897.5 319.5  C 897.5 309.98  904.98 302.5  914.5 302.5  Z " stroke-width="1" stroke="#0066ff" fill="none" />
  </g>
</svg>