<?xml version="1.0" encoding="utf-8"?>
<svg version="1.1" xmlns:xlink="http://www.w3.org/1999/xlink" width="14px" height="16px" xmlns="http://www.w3.org/2000/svg">
  <g transform="matrix(1 0 0 1 -4370 -177 )">
    <path d="M 13.261911915239022 15.890370095638664  L 0.6731150395837397 15.890370095638664  C 0.3325984028357719 15.890370095638664  0.06431256770081259 15.607343280679313  0.06431256788292669 15.271904092641012  C 0.06431256788292669 14.925982429912919  0.34291708885853645 14.653438089458358  0.6731150395837397 14.653438089273354  L 13.261911915239022 14.653438089273354  C 13.602428551986991 14.653438089273354  13.870714387121948 14.936464904232706  13.870714387121948 15.271904092641012  C 13.870714387121948 15.617825755369108  13.59210986614634 15.890370095823668  13.261911915239022 15.890370095638664  Z M 12.900757906263415 2.8921015548531157  C 13.12776899748943 2.661487112972719  13.12776899748943 2.294600501050044  12.900757906263415 2.0535035842948512  L 11.084669177001626 0.20858804962168007  C 10.85765808577561 -0.02202639225871729  10.486185391141461 -0.02202639225871729  10.259174299733333 0.20858804962168007  L 8.4224481982439 2.074468533674435  L 11.064031804956095 4.757982038905872  L 12.900757906263415 2.8921015548531157  Z M 10.517141448845528 5.313553194319782  L 7.875557842133337 2.6300396890883473  L 1.7565770655999997 8.846147144429269  C 1.5914780903284549 9.013866738355917  1.4470164867382116 9.3807533506486  1.4470164867382116 9.3807533506486  L 0.4976973782894309 12.441635942492503  C 0.42546657649430863 12.6722503843729  0.6421589816975608 12.881899876873714  0.869170072923577 12.819005029104968  L 3.8615890022243904 11.854617363194219  C 3.8615890022243904 11.854617363194219  4.222743011017886 11.718345192966936  4.398160672494309 11.529660649845708  L 10.517141448845528 5.313553194319782  Z " fill-rule="nonzero" fill="#2c2c2c" stroke="none" transform="matrix(1 0 0 1 4370 177 )" />
  </g>
</svg>