<?xml version="1.0" encoding="utf-8"?>
<svg version="1.1" xmlns:xlink="http://www.w3.org/1999/xlink" width="20px" height="20px" xmlns="http://www.w3.org/2000/svg">
  <g transform="matrix(1 0 0 1 -3459 -1666 )">
    <path d="M 20 10  C 20 4.4799999999999995  15.520000000000003 0  10.000000000000002 0  C 4.480000000000002 0  0 4.48  0 10  C 0 15.52  4.480000000000002 20  10.000000000000002 20  C 15.520000000000003 20  20 15.52  20 10  Z M 18.67 10  C 18.67 14.78  14.780000000000001 18.67  10.000000000000002 18.67  C 5.220000000000002 18.67  1.3300000000000023 14.78  1.3300000000000023 10  C 1.3300000000000023 5.220000000000001  5.220000000000002 1.33  10.000000000000002 1.33  C 14.780000000000001 1.33  18.67 5.220000000000001  18.67 10  Z M 10.000000000000002 12.14  C 9.629969217613372 12.14  9.330000000000002 11.84003078238663  9.330000000000002 11.47  L 9.330000000000002 5.8999999999999995  C 9.330000000000002 5.529969217613368  9.62996921761337 5.229999999999999  10.000000000000002 5.229999999999999  C 10.370030782386635 5.229999999999999  10.670000000000002 5.529969217613368  10.670000000000002 5.8999999999999995  L 10.670000000000003 11.47  C 10.670000000000003 11.84003078238663  10.370030782386635 12.14  10.000000000000002 12.14  Z M 10.000000000000002 13.46  C 10.480000000000002 13.46  10.870000000000001 13.85  10.870000000000001 14.33  C 10.870000000000001 14.81  10.480000000000002 15.2  10.000000000000002 15.2  C 9.520000000000001 15.2  9.130000000000003 14.81  9.130000000000003 14.33  C 9.130000000000003 13.85  9.520000000000003 13.46  10.000000000000002 13.46  Z " fill-rule="nonzero" fill="#d9001b" stroke="none" transform="matrix(1 0 0 1 3459 1666 )" />
  </g>
</svg>