<?xml version="1.0" encoding="utf-8"?>
<svg version="1.1" xmlns:xlink="http://www.w3.org/1999/xlink" width="9px" height="9px" xmlns="http://www.w3.org/2000/svg">
  <g transform="matrix(1 0 0 1 -3182 -1308 )">
    <path d="M 5.5044642857142865 0.6026785714285714  L 3.4955357142857144 0.6026785714285714  C 3.4400591517857144 0.6026785714285714  3.3950892857142856 0.6476484375  3.3950892857142856 0.703125  L 3.3950892857142856 2.712053571428571  C 3.3950892857142856 2.767530133928572  3.4400591517857144 2.8125  3.4955357142857144 2.8125  L 5.5044642857142865 2.8125  C 5.5599408482142865 2.8125  5.6049107142857135 2.767530133928572  5.6049107142857135 2.712053571428571  L 5.6049107142857135 0.703125  C 5.6049107142857135 0.6476484375  5.5599408482142865 0.6026785714285714  5.5044642857142865 0.6026785714285714  Z M 3.4955357142857144 0  L 5.5044642857142865 0  C 5.8927901785714285 0  6.2075892857142865 0.3147991071428572  6.2075892857142865 0.703125  L 6.2075892857142865 2.712053571428571  C 6.2075892857142865 3.100379464285714  5.8927901785714285 3.415178571428571  5.5044642857142865 3.415178571428571  L 4.8013392857142865 3.415178571428571  L 4.8013392857142865 4.409598214285714  L 7.513392857142858 4.409598214285714  C 7.790765625000001 4.409598214285714  8.015625 4.634457589285715  8.015625 4.911830357142858  L 8.015625 6.388392857142858  L 8.497767857142858 6.388392857142858  C 8.775140625 6.388392857142858  9 6.613252232142857  9 6.890625  L 9 8.497767857142858  C 9 8.775140625  8.775140625 9  8.497767857142858 9  L 6.890625 9  C 6.613252232142857 9  6.388392857142858 8.775140625  6.388392857142858 8.497767857142858  L 6.388392857142858 6.890625  C 6.388392857142858 6.613252232142857  6.613252232142857 6.388392857142858  6.890625 6.388392857142858  L 7.412946428571429 6.388392857142858  L 7.412946428571429 5.0122767857142865  L 4.8013392857142865 5.0122767857142865  L 4.8013392857142865 6.388392857142858  L 5.303571428571429 6.388392857142858  C 5.580944196428572 6.388392857142858  5.805803571428571 6.613252232142857  5.805803571428571 6.890625  L 5.805803571428571 8.497767857142858  C 5.805803571428571 8.775140625  5.580944196428572 9  5.303571428571429 9  L 3.696428571428571 9  C 3.4190558035714287 9  3.194196428571429 8.775140625  3.194196428571429 8.497767857142858  L 3.194196428571429 6.890625  C 3.194196428571429 6.613252232142857  3.4190558035714287 6.388392857142858  3.696428571428571 6.388392857142858  L 4.198660714285714 6.388392857142858  L 4.198660714285714 5.0122767857142865  L 1.5870535714285716 5.0122767857142865  L 1.5870535714285716 6.388392857142858  L 2.109375 6.388392857142858  C 2.3867477678571425 6.388392857142858  2.6116071428571432 6.613252232142857  2.6116071428571432 6.890625  L 2.6116071428571432 8.497767857142858  C 2.6116071428571432 8.775140625  2.3867477678571425 9  2.109375 9  L 0.5022321428571429 9  C 0.22485937499999997 9  0 8.775140625  0 8.497767857142858  L 0 6.890625  C 0 6.613252232142857  0.22485937499999997 6.388392857142858  0.5022321428571429 6.388392857142858  L 0.984375 6.388392857142858  L 0.984375 4.911830357142858  C 0.984375 4.634457589285715  1.209234375 4.409598214285714  1.4866071428571428 4.409598214285714  L 4.198660714285714 4.409598214285714  L 4.198660714285714 3.415178571428571  L 3.4955357142857144 3.415178571428571  C 3.1072098214285715 3.415178571428571  2.7924107142857144 3.1003794642857145  2.7924107142857144 2.712053571428571  L 2.7924107142857144 0.703125  C 2.7924107142857144 0.3147991071428572  3.107209821428571 0  3.4955357142857144 0  Z M 2.0089285714285716 8.397321428571429  L 2.0089285714285716 6.991071428571429  L 0.6026785714285714 6.991071428571429  L 0.6026785714285714 8.397321428571429  L 2.0089285714285716 8.397321428571429  Z M 5.203125 8.397321428571429  L 5.203125 6.991071428571429  L 3.796875 6.991071428571429  L 3.796875 8.397321428571429  L 5.203125 8.397321428571429  Z M 8.397321428571429 8.397321428571429  L 8.397321428571429 6.991071428571429  L 6.991071428571429 6.991071428571429  L 6.991071428571429 8.397321428571429  L 8.397321428571429 8.397321428571429  Z " fill-rule="nonzero" fill="#ffffff" stroke="none" transform="matrix(1 0 0 1 3182 1308 )" />
  </g>
</svg>