<?xml version="1.0" encoding="utf-8"?>
<svg version="1.1" xmlns:xlink="http://www.w3.org/1999/xlink" width="14px" height="14px" xmlns="http://www.w3.org/2000/svg">
  <g transform="matrix(1 0 0 1 -5316 -397 )">
    <path d="M 13.969009546875 7  C 13.969009546875 10.843004984375  10.84300496875 13.969009546875  7 13.969009546875  C 3.1575057187500004 13.969009546875  0.030990453124999814 10.843004984375  0.030990453124999814 7  C 0.030990453124999814 3.1575057187500004  3.157478828125 0.030990453124999814  7 0.030990453124999814  C 10.84300496875 0.030990453124999814  13.969009546875 3.156995015625  13.969009546875 7  Z M 12.969009546875 7  C 12.969009546875 3.7084800312499997  10.291009265625 1.0309904531249998  7 1.0309904531249998  C 3.7085069218749998 1.0309904531249998  1.0309904531249998 3.7084800312499997  1.0309904531249998 7  C 1.0309904531249998 10.291009265625  3.7084800312499997 12.969009546875  7 12.969009546875  C 10.291009265625 12.969009546875  12.969009546875 10.29151996875  12.969009546875 7  Z M 7 3  C 6.5857814843749996 3  6.24999328125 3.3357882031250004  6.24999328125 3.75000671875  C 6.24999328125 4.1642252343749995  6.585781484375 4.5000134375  7 4.5000134375  C 7.414218515624999 4.5000134375  7.750006718750001 4.1642252343749995  7.750006718750001 3.75000671875  C 7.750006718750001 3.3357882031250004  7.414218515625 3  7 3  Z M 7.5000134375 10.4999865625  C 7.5000134375 10.77650853125  7.27601128125 11  7 11  C 6.72398871875 11  6.4999865625 10.77650853125  6.4999865625 10.4999865625  L 6.4999865625 6  C 6.4999865625 5.72398871875  6.72398871875 5.4999865625  7 5.4999865625  C 7.27601128125 5.4999865625  7.5000134375 5.72398871875  7.5000134375 6  L 7.5000134375 10.4999865625  Z " fill-rule="nonzero" fill="#000000" stroke="none" transform="matrix(1 0 0 1 5316 397 )" />
  </g>
</svg>