<?xml version="1.0" encoding="utf-8"?>
<svg version="1.1" xmlns:xlink="http://www.w3.org/1999/xlink" width="8px" height="8px" xmlns="http://www.w3.org/2000/svg">
  <g transform="matrix(1 0 0 1 -5207 -1794 )">
    <path d="M 7.849763368932039 7.884159333333334  C 7.958233834951456 7.774093715686274  7.958502077669904 7.597192166666666  7.849773310679612 7.487658274509804  L 4.383884893203884 3.9873792254901956  L 7.849773310679613 0.48737105882352916  C 7.958233834951457 0.3777067450980391  7.958233834951457 0.20053431372548988  7.849773310679613 0.0908699999999998  C 7.741024669902914 -0.018794313725490414  7.56557236893204 -0.018794313725490414  7.457111844660195 0.0908699999999998  L 3.9912234271844658 3.590858107843137  L 0.5252058543689321 0.09085996078431366  C 0.41658636893203893 -0.018543509803921648  0.24114399999999991 -0.018543509803921648  0.1325443883495146 0.09085996078431366  C 0.02393484466019416 0.20053430392156862  0.02393484466019416 0.37797760784313733  0.1325443883495146 0.4876419215686274  L 3.598283776699029 3.9873792254901956  L 0.13226620388349514 7.487658274509804  C 0.023924902912621334 7.597192166666666  0.023924902912621334 7.774093715686274  0.13226620388349514 7.884159333333334  C 0.2408658155339806 7.993703254901962  0.41658636893203893 7.993703254901962  0.5251959126213592 7.884159333333334  L 3.991223417475728 4.383890323529412  L 7.457101902912622 7.884159333333334  C 7.565562427184466 7.993703254901962  7.74101472815534 7.993703254901962  7.849763368932039 7.884159333333334  Z " fill-rule="nonzero" fill="#e7772d" stroke="none" transform="matrix(1 0 0 1 5207 1794 )" />
  </g>
</svg>