<?xml version="1.0" encoding="utf-8"?>
<svg version="1.1" xmlns:xlink="http://www.w3.org/1999/xlink" width="9px" height="10px" xmlns="http://www.w3.org/2000/svg">
  <g transform="matrix(1 0 0 1 -3181 -1258 )">
    <path d="M 0.8823529411764705 9.29378530720339  C 0.8173782670025839 9.29378530720339  0.7647058847678465 9.243196018274356  0.7647058786764706 9.180790963983052  L 0.7647058786764706 0.8192090360169484  C 0.7647058847678461 0.7568039817256443  0.8173782670025833 0.7062146927966093  0.8823529411764705 0.7062146927966094  L 8.176470584558825 0.7062146927966094  C 8.241445258732712 0.7062146927966094  8.294117640967446 0.7568039817256449  8.294117647058822 0.8192090360169484  L 8.294117647058822 2.023728813559321  C 8.294117647058822 2.2109439829934883  8.452134794177367 2.3627118644067786  8.647058823529411 2.3627118644067786  C 8.841982852881454 2.3627118644067786  8.999999999999998 2.2109439829934883  8.999999999999998 2.023728813559321  L 9 0.8192090360169492  C 8.999999993908624 0.3823736428573108  8.6312933174368 0.028248591101694958  8.176470584558823 0.028248591101694878  L 0.8823529411764705 0.028248591101694958  C 0.42753020829849414 0.028248591101694958  0.058823531826669946 0.3823736428573108  0.05882352573529406 0.819209036016949  L 0.05882352573529422 9.180790963983052  C 0.05882353182666978 9.617626357142692  0.42753020829849386 9.971751408898307  0.8823529411764705 9.971751408898305  L 6.157647055147059 9.971751408898305  C 6.352571084499104 9.971751408898305  6.510588231617647 9.819983527485016  6.510588231617647 9.632768358050848  C 6.510588231617647 9.445553188616682  6.352571084499104 9.29378530720339  6.157647055147059 9.29378530720339  L 0.8823529411764705 9.29378530720339  Z " fill-rule="nonzero" fill="#ffffff" stroke="none" transform="matrix(1 0 0 1 3181 1258 )" />
  </g>
</svg>