<?xml version="1.0" encoding="utf-8"?>
<svg version="1.1" xmlns:xlink="http://www.w3.org/1999/xlink" width="16px" height="16px" xmlns="http://www.w3.org/2000/svg">
  <g transform="matrix(1 0 0 1 -4498 -287 )">
    <path d="M 4506 287  C 4510.48 287  4514 290.52  4514 295  C 4514 299.48  4510.48 303  4506 303  C 4501.52 303  4498 299.48  4498 295  C 4498 290.52  4501.52 287  4506 287  Z " fill-rule="nonzero" fill="#f2f2f2" stroke="none" />
    <path d="M 4506 287.5  C 4510.2 287.5  4513.5 290.8  4513.5 295  C 4513.5 299.2  4510.2 302.5  4506 302.5  C 4501.8 302.5  4498.5 299.2  4498.5 295  C 4498.5 290.8  4501.8 287.5  4506 287.5  Z " stroke-width="1" stroke="#d7d7d7" fill="none" />
  </g>
</svg>