<?xml version="1.0" encoding="utf-8"?>
<svg version="1.1" xmlns:xlink="http://www.w3.org/1999/xlink" width="5px" height="5px" xmlns="http://www.w3.org/2000/svg">
  <g transform="matrix(1 0 0 1 -3183 -1260 )">
    <path d="M 4.567901238425925 0  L 0.37037037037037035 0  C 0.1658204630256321 0  0 0.15989830363185958  0 0.3571428571428571  C 0 0.5543874106538548  0.1658204630256321 0.7142857142857142  0.37037037037037035 0.7142857142857142  L 4.567901238425925 0.7142857142857142  C 4.772451145770663 0.7142857142857142  4.9382716087962955 0.5543874106538548  4.9382716087962955 0.3571428571428571  C 4.9382716087962955 0.15989830363185958  4.772451145770663 0  4.567901238425925 0  Z M 3.0864197569444443 2.8571428571428568  C 3.2909696642891824 2.8571428571428568  3.4567901273148145 2.6972445535109975  3.4567901273148145 2.5  C 3.4567901273148145 2.3027554464890025  3.2909696642891824 2.142857142857143  3.0864197569444443 2.142857142857143  L 0.37037037037037096 2.142857142857143  C 0.16582046302563275 2.142857142857143  0 2.3027554464890025  0 2.5  C 0 2.6972445535109975  0.16582046302563275 2.8571428571428568  0.37037037037037096 2.8571428571428568  L 3.0864197569444443 2.8571428571428568  Z M 1.6049382754629637 4.285714285714286  L 0.37037037037037096 4.285714285714286  C 0.16582046302563275 4.285714285714286  0 4.445612589346145  0 4.642857142857143  C 0 4.840101696368141  0.16582046302563275 5  0.37037037037037096 5  L 1.6049382754629637 5  C 1.8094881828077019 5  1.9753086458333338 4.840101696368141  1.9753086458333338 4.642857142857143  C 1.9753086458333338 4.445612589346145  1.8094881828077019 4.285714285714286  1.6049382754629637 4.285714285714286  Z " fill-rule="nonzero" fill="#ffffff" stroke="none" transform="matrix(1 0 0 1 3183 1260 )" />
  </g>
</svg>