<?xml version="1.0" encoding="utf-8"?>
<svg version="1.1" xmlns:xlink="http://www.w3.org/1999/xlink" width="98px" height="35px" xmlns="http://www.w3.org/2000/svg">
  <defs>
    <mask fill="white" id="clip6485">
      <path d="M 0 27  L 0 3  C 0 1.3199999999999932  1.3200000000001637 0  3 0  L 95 0  C 96.67999999999984 0  98 1.3199999999999932  98 3  L 98 27  C 98 28.680000000000007  96.67999999999984 30  95 30  L 54.25531914893645 30  L 49.14893617021289 34.801418439716315  L 44.326241134751854 30  L 3 30  C 1.3200000000001637 30  0 28.680000000000007  0 27  Z " fill-rule="evenodd" />
    </mask>
  </defs>
  <g transform="matrix(1 0 0 1 -3420 -1626 )">
    <path d="M 0 27  L 0 3  C 0 1.3199999999999932  1.3200000000001637 0  3 0  L 95 0  C 96.67999999999984 0  98 1.3199999999999932  98 3  L 98 27  C 98 28.680000000000007  96.67999999999984 30  95 30  L 54.25531914893645 30  L 49.14893617021289 34.801418439716315  L 44.326241134751854 30  L 3 30  C 1.3200000000001637 30  0 28.680000000000007  0 27  Z " fill-rule="nonzero" fill="#000000" stroke="none" transform="matrix(1 0 0 1 3420 1626 )" />
    <path d="M 0 27  L 0 3  C 0 1.3199999999999932  1.3200000000001637 0  3 0  L 95 0  C 96.67999999999984 0  98 1.3199999999999932  98 3  L 98 27  C 98 28.680000000000007  96.67999999999984 30  95 30  L 54.25531914893645 30  L 49.14893617021289 34.801418439716315  L 44.326241134751854 30  L 3 30  C 1.3200000000001637 30  0 28.680000000000007  0 27  Z " stroke-width="2" stroke="#000000" fill="none" transform="matrix(1 0 0 1 3420 1626 )" mask="url(#clip6485)" />
  </g>
</svg>