<?xml version="1.0" encoding="utf-8"?>
<svg version="1.1" xmlns:xlink="http://www.w3.org/1999/xlink" width="8px" height="10px" xmlns="http://www.w3.org/2000/svg">
  <g transform="matrix(1 0 0 1 -3182 -1158 )">
    <path d="M 1.1463431372549022 5.999999999999998  L 3.1215588235294116 6  L 3.1215588235294116 4.791551339285714  C 2.345960784313726 4.405145089285714  1.8039117647058827 3.523080357142857  1.8039117647058827 2.5  C 1.8039117647058827 1.1192968749999999  2.7895980392156865 0  3.9999901960784316 0  C 5.212843137254902 0  6.19606862745098 1.122154017857143  6.19606862745098 2.5  C 6.19606862745098 3.524709821428571  5.653137254901961 4.405412946428572  4.878421568627451 4.791439732142857  L 4.878421568627451 6  L 6.853637254901961 6  C 7.460745098039215 6  7.9529313725490205 6.554866071428572  7.9529313725490205 7.250033482142858  L 7.9529313725490205 8.5  L 0.047068627450980415 8.5  L 0.047068627450980415 7.249977678571428  C 0.047068627450980415 6.55963169642857  0.5416176470588235 5.999999999999998  1.1463431372549022 5.999999999999998  Z M 0.4862843137254902 9  L 7.5136666666666665 9  L 7.5136666666666665 10  L 0.4862745098039215 10  L 0.4862745098039215 9  Z " fill-rule="nonzero" fill="#ffffff" stroke="none" transform="matrix(1 0 0 1 3182 1158 )" />
  </g>
</svg>