<?xml version="1.0" encoding="utf-8"?>
<svg version="1.1" xmlns:xlink="http://www.w3.org/1999/xlink" width="3px" height="6px" xmlns="http://www.w3.org/2000/svg">
  <g transform="matrix(1 0 0 1 -3188 -1261 )">
    <path d="M 2.933333337500001 0.7368421085526323  C 2.933333337500001 0.32989544896584894  2.5154657688099293 0  2 0  L 0.9333333374999995 0  C 0.4178675686900732 0  0 0.3298954489658484  0 0.7368421085526318  L 0 4.663157891447369  C 0.0002695238702841607 4.782598720699438  0.05199095679133734 4.89841513837749  0.1466666625000002 4.991578944078948  L 0.9466666625000002 5.781052628289473  C 1.0731978305918615 5.905563835381547  1.2644689770330175 5.978010780842665  1.466666662499999 5.978010780842665  C 1.6688643479669836 5.978010780842665  1.8601354944081367 5.905563835381547  1.9866666625000007 5.7810526282894745  L 2.7866666625000005 4.991578944078947  C 2.881342372697657 4.8984151396917675  2.9330638100833526 4.7825987218870525  2.933333337500001 4.663157891447369  L 2.933333337500001 0.7368421085526323  Z M 2.133333337499998 2.2105263157894735  L 2.1333333374999994 4.631578944078948  L 1.466666662499999 5.2842105296052635  L 0.7999999999999987 4.625263154605264  L 0.7999999999999987 2.2105263157894735  L 2.133333337499998 2.2105263157894735  Z M 2.133333337500001 0.7368421085526323  L 2.1333333374999994 1.5789473684210527  L 0.8 1.5789473684210527  L 0.7999999999999987 0.7368421085526323  C 0.7999999999999987 0.6787068699116126  0.8596953685547077 0.631578947368421  0.9333333374999995 0.631578947368421  L 2 0.631578947368421  C 2.0736379689452944 0.631578947368421  2.133333337500001 0.6787068699116114  2.133333337500001 0.7368421085526323  Z " fill-rule="nonzero" fill="#ffffff" stroke="none" transform="matrix(1 0 0 1 3188 1261 )" />
  </g>
</svg>