<?xml version="1.0" encoding="utf-8"?>
<svg version="1.1" xmlns:xlink="http://www.w3.org/1999/xlink" width="9px" height="8px" xmlns="http://www.w3.org/2000/svg">
  <g transform="matrix(1 0 0 1 -3181 -1209 )">
    <path d="M 3.235963235294117 5.74749504950495  C 3.150247947746903 5.819493752934061  3.0377598898807774 5.846393963076396  2.9307006302521006 5.820495049504951  L 2.9307006302521006 5.822524752475248  L 0.3014338235294117 4.987772277227724  C 0.14446540958861892 4.937909672246316  0.03713556069272959 4.78635132585624  0.03713556069272959 4.61456195333961  C 0.03713556069272959 4.465329900518273  0.11844778947080069 4.329181546979019  0.24657352941176466 4.263881188118813  L 8.397056722689076 0.1050198019801983  C 8.447832385720769 0.07913518969963905  8.503564208986829 0.06568403976849387  8.560035632212816 0.06568403976849387  C 8.765697887110415 0.06568403976849387  8.932420085994327 0.24029298733448443  8.932420085994327 0.45568403976849403  C 8.932420085994327 0.487862966375647  8.92861740080687 0.5199181988807683  8.921098739495799 0.5511188118811883  L 7.404466386554621 6.815425742574257  C 7.362524283160819 6.9883407717506625  7.2138943660477635 7.1094026705387625  7.0435455115814465 7.1094026705387625  C 7.006860016994245 7.1094026705387625  6.970375871072244 7.1037252804374615  6.935275210084033 7.092554455445544  L 4.140784663865546 6.2057623762376215  C 4.074888539572702 6.190444294746368  4.027637275379538 6.129772888326766  4.026554621848739 6.059089108910891  C 4.026554621848739 6.015158415841584  4.045273109243697 5.975950495049504  4.0749579831932765 5.948237623762376  L 7.447707983193277 1.976603960396039  L 3.2366155462184865 5.746821782178216  Z M 4.162726890756303 6.676871287128712  L 4.673231092436976 6.853960396039603  C 4.73276221486336 6.874769016120119  4.772908939560714 6.9331277927905814  4.772908939560714 6.998855833043215  C 4.772908939560714 7.02880917612584  4.764500298035764 7.058101522920621  4.748728991596639 7.08308910891089  L 4.23888655462185 7.894178217821781  C 4.211930480409676 7.937237479798305  4.16607539570459 7.96317685037699  4.116912194035239 7.96317685037699  C 4.036359838905506 7.96317685037699  3.971059252858768 7.894787237707579  3.971059252858768 7.810424375129465  L 3.971060924369749 6.821514851485147  C 3.971254566568687 6.737295844908124  4.036498212699422 6.669130208614767  4.116913442673936 6.669130208614767  C 4.132480684237069 6.669130208614767  4.147947545480194 6.671740294845175  4.162726890756303 6.676861386138612  Z " fill-rule="nonzero" fill="#ffffff" stroke="none" transform="matrix(1 0 0 1 3181 1209 )" />
  </g>
</svg>