<?xml version="1.0" encoding="utf-8"?>
<svg version="1.1" xmlns:xlink="http://www.w3.org/1999/xlink" width="21px" height="18px" xmlns="http://www.w3.org/2000/svg">
  <g transform="matrix(1 0 0 1 -3184 -497 )">
    <path d="M 11.165774336283187 1.3164843749999997  C 11.165774336283187 0.90234375  10.833119469026549 0.5664843749999997  10.422643805309734 0.5664843749999997  L 0.9161946902654866 0.5664843749999997  C 0.5057190265486725 0.5664843749999997  0.17283185840707957 0.90234375  0.17283185840707957 1.3164843749999997  C 0.17283185840707957 1.7306249999999994  0.5057190265486725 2.066484375  0.9161946902654866 2.066484375  L 10.42241150442478 2.066484375  C 10.832887168141594 2.066484375  11.165774336283187 1.7306249999999994  11.165774336283187 1.3164843749999997  Z M 11.177621681415932 8.969296875000001  C 11.177621681415932 8.555156250000001  10.844734513274338 8.219296875000001  10.434258849557523 8.219296875  L 0.9161946902654866 8.219296875  C 0.5057190265486725 8.219296875  0.17283185840707957 8.55515625  0.17283185840707957 8.969296875  C 0.17283185840707957 9.383437500000001  0.5057190265486725 9.719296875000001  0.9161946902654866 9.719296875000001  L 10.434258849557523 9.719296875000001  C 10.844734513274338 9.719296875000001  11.177621681415932 9.383437500000001  11.177621681415932 8.969296875000001  Z M 11.177389380530975 16.669218750000002  C 11.177621681415932 16.254843750000003  10.844734513274338 15.91921875  10.434258849557523 15.91921875  L 0.9278097345132742 15.91921875  C 0.5173340707964601 15.91921875  0.1844469026548672 16.255078125  0.1844469026548672 16.669218750000002  C 0.1844469026548672 17.083359375  0.5173340707964601 17.41921875  0.9278097345132742 17.41921875  L 10.434026548672568 17.41921875  C 10.844502212389383 17.41921875  11.177389380530975 17.083359375  11.177389380530975 16.669218750000002  Z M 17.782632743362832 2.765625  C 17.782632743362832 2.3514843749999996  17.44974557522124 2.015625  17.039269911504423 2.015625  C 16.628794247787614 2.015625  16.295907079646017 2.351484375  16 2.765625  L 16 17.18484375  C 16.295907079646017 17.598984375  16.628794247787614 17.934843750000002  17.039269911504423 17.934843750000002  C 17.44974557522124 17.934843750000002  17.782632743362832 17.598984375  17.782632743362832 17.18484375  L 17.782632743362832 2.765625  Z M 16.695 0.18398437499999987  C 16.8929203539823 -0.030468750000000266  17.209314159292035 -0.030000000000000027  17.40653761061947 0.184921875  L 20.71125 3.78796875  C 21.03066371681416 4.13625  21.034612831858404 4.705078125  20.719612831858406 5.058750000000001  C 20.404845132743365 5.412187500000001  19.890530973451327 5.4164062500000005  19.57111725663717 5.068125  L 17.04786504424779 2.3170312500000003  L 14.505331858407079 5.0718749999999995  C 14.184988938053097 5.419218749999999  13.670674778761061 5.413125  13.35683628318584 5.05875  C 13.042997787610618 4.704140624999999  13.048340707964602 4.1353124999999995  13.368683628318585 3.788203125  L 16.695 0.18398437499999987  Z " fill-rule="nonzero" fill="#000000" stroke="none" transform="matrix(1 0 0 1 3184 497 )" />
  </g>
</svg>