<?xml version="1.0" encoding="utf-8"?>
<svg version="1.1" xmlns:xlink="http://www.w3.org/1999/xlink" width="14px" height="14px" xmlns="http://www.w3.org/2000/svg">
  <g transform="matrix(1 0 0 1 -531 -1458 )">
    <path d="M 7 0.05645161290322752  C 10.834814516129033 0.05645161290322752  13.943548387096826 3.1651854838709674  13.943548387096826 7  C 13.943548387096826 10.834814516129033  10.834814516129033 13.943548387096772  7 13.943548387096772  C 3.1651854838709674 13.943548387096772  0.056451612903174464 10.834814516129033  0.056451612903174464 7  C 0.056451612903174464 3.1651854838709674  3.1651854838709674 0.05645161290322752  7 0.05645161290322752  Z M 7.007056451612911 1.157258064516131  C 3.7763024193548063 1.157258064516131  1.1572580645160846 3.776302419354833  1.1572580645160846 7.007056451612911  C 1.1572580645160846 10.237810483870973  3.7763024193548063 12.856854838709681  7.007056451612911 12.856854838709681  C 10.237810483871014 12.856854838709681  12.85685483870963 10.237810483870973  12.85685483870963 7.007056451612911  C 12.85685483870963 3.776302419354833  10.237810483871014 1.157258064516131  7.007056451612911 1.157258064516131  Z M 7.233333333333334 11.18409090909091  C 6.887004771460321 11.18409090909091  6.60625 10.87781297658879  6.60625 10.5  C 6.60625 10.12218702341121  6.887004771460321 9.81590909090909  7.233333333333334 9.81590909090909  C 7.579661895206344 9.81590909090909  7.860416666666666 10.12218702341121  7.860416666666666 10.5  C 7.860416666666666 10.87781297658879  7.579661895206344 11.18409090909091  7.233333333333334 11.18409090909091  Z M 4.739583333333334 5.348563218390801  C 4.739583333333334 5.325907758620686  4.741377083333327 5.303660632183909  4.744818749999952 5.28193448275862  C 4.78094166666671 4.595779597701147  5.0043145833333105 4.044416954022993  5.414922916666683 3.627874712643679  C 5.872781250000025 3.1416764367816117  6.513777083333329 2.898563218390807  7.337924999999981 2.898563218390807  C 8.078116666666665 2.898563218390807  8.66570833333335 3.093788793103449  9.100670833333364 3.484225862068966  C 9.528006250000029 3.85992068965517  9.741666666666667 4.379264367816088  9.741666666666667 5.04229913793104  C 9.741666666666667 5.535861494252873  9.596679166666627 5.966822126436787  9.306704166666652 6.335166954022992  C 9.17697083333331 6.482490804597697  8.867920833333375 6.766113505747131  8.379539583333356 7.186020977011493  C 8.135356250000042 7.3849215517241396  7.956039583333344 7.587511206896554  7.841560416666697 7.793775862068961  C 7.71360624999996 8.00182873563219  7.642104166666649 8.235705172413798  7.627083333333333 8.495405172413797  L 7.627083333333333 8.805316091954028  C 7.627083333333333 9.05027385057471  7.421414583333292 9.24885057471265  7.167708333333334 9.24885057471265  C 6.931254166666668 9.24885057471265  6.736537500000017 9.076364942528741  6.711133333333373 8.854597701149423  L 6.708333333333334 8.439224137931037  C 6.708333333333334 8.403403448275869  6.712737500000048 8.36858247126437  6.721020833333371 8.33522586206897  C 6.746658333333289 8.076103160919542  6.811116666666703 7.844057183908049  6.914395833333295 7.639087931034483  C 7.074652083333316 7.307577586206902  7.460016666666691 6.880291954022994  8.070489583333316 6.357259195402296  C 8.284149999999954 6.150980459770116  8.413883333333297 6.018384770114942  8.459674999999955 5.959458045977014  C 8.68858958333329 5.679524425287361  8.803054166666653 5.388537643678168  8.803054166666653 5.086497701149423  C 8.803054166666653 4.651847988505756  8.6733354166667 4.309298563218395  8.413883333333297 4.0588353448275925  C 8.154431250000002 3.800993965517243  7.780514583333343 3.6720732758620747  7.292133333333323 3.6720732758620747  C 6.7198104166666175 3.6720732758620747  6.296295833333321 3.8525566091954104  6.021575000000045 4.213537356321844  C 5.769764583333381 4.522941379310348  5.643852083333301 4.946523850574715  5.643852083333301 5.484298850574718  C 5.643852083333301 5.725356321839078  5.441333333333372 5.93994252873563  5.191666666666666 5.93994252873563  C 4.941999999999962 5.93994252873563  4.739583333333334 5.744505747126432  4.739583333333334 5.503448275862073  L 4.739583333333334 5.348563218390801  Z " fill-rule="nonzero" fill="#333333" stroke="none" transform="matrix(1 0 0 1 531 1458 )" />
  </g>
</svg>