<?xml version="1.0" encoding="utf-8"?>
<svg version="1.1" xmlns:xlink="http://www.w3.org/1999/xlink" width="11px" height="10px" xmlns="http://www.w3.org/2000/svg">
  <g transform="matrix(1 0 0 1 -1345 -1245 )">
    <path d="M 9.025892857142857 2.509615384615384  L 7.641071428571428 1.153846153846154  C 7.5625 1.0769230769230769  7.5625 0.9615384615384616  7.641071428571428 0.8846153846153846  L 8.475892857142856 0.06730769230769224  C 8.554464285714285 -0.009615384615384753  8.67232142857143 -0.009615384615384753  8.750892857142857 0.06730769230769224  L 10.135714285714284 1.4230769230769227  C 10.214285714285714 1.4999999999999996  10.214285714285714 1.6153846153846152  10.135714285714284 1.6923076923076918  L 9.300892857142856 2.509615384615384  C 9.222321428571428 2.586538461538461  9.104464285714284 2.586538461538461  9.025892857142857 2.509615384615384  Z M 1.5714285714285714 8.461538461538462  L 3.928571428571429 7.788461538461538  L 8.495535714285715 3.317307692307692  C 8.564285714285715 3.2499999999999996  8.554464285714285 3.1346153846153846  8.475892857142856 3.067307692307692  L 7.091071428571429 1.7019230769230773  C 7.012500000000001 1.6250000000000007  6.894642857142857 1.6153846153846159  6.835714285714287 1.682692307692308  L 2.258928571428571 6.153846153846154  L 1.5714285714285714 8.461538461538462  Z M 11 9.230769230769232  L 0 9.230769230769232  L 0 10  L 11 10  L 11 9.230769230769232  Z " fill-rule="nonzero" fill="#e7772d" stroke="none" transform="matrix(1 0 0 1 1345 1245 )" />
  </g>
</svg>