<?xml version="1.0" encoding="utf-8"?>
<svg version="1.1" xmlns:xlink="http://www.w3.org/1999/xlink" width="10px" height="10px" xmlns="http://www.w3.org/2000/svg">
  <g transform="matrix(1 0 0 1 -1455 -1285 )">
    <path d="M 4.157894736842104 0.7142857142857142  L 5.842105263157894 0.7142857142857142  L 5.973684210526315 1.6428571428571428  L 6.026315789473683 2.0267857142857144  L 6.368421052631579 2.1875  C 6.508771929824561 2.258928571428571  6.657894736842104 2.3392857142857144  6.789473684210526 2.428571428571429  L 7.096491228070175 2.6339285714285716  L 7.43859649122807 2.5  L 8.333333333333334 2.142857142857143  L 9.166666666666666 3.5625  L 8.429824561403509 4.133928571428571  L 8.12280701754386 4.375  L 8.157894736842104 4.767857142857142  C 8.166666666666666 4.848214285714286  8.166666666666666 4.928571428571428  8.166666666666666 5  C 8.166666666666666 5.071428571428572  8.166666666666666 5.151785714285715  8.157894736842104 5.232142857142856  L 8.12280701754386 5.625  L 8.429824561403509 5.866071428571429  L 9.166666666666666 6.4375  L 8.342105263157894 7.857142857142858  L 7.43859649122807 7.500000000000001  L 7.096491228070175 7.366071428571431  L 6.789473684210526 7.571428571428572  C 6.649122807017544 7.669642857142858  6.508771929824561 7.750000000000002  6.368421052631579 7.812500000000001  L 6.026315789473683 7.9732142857142865  L 5.973684210526315 8.348214285714286  L 5.842105263157894 9.285714285714286  L 4.157894736842104 9.285714285714286  L 4.026315789473684 8.357142857142858  L 3.9736842105263155 7.9732142857142865  L 3.631578947368421 7.812500000000001  C 3.4912280701754383 7.74107142857143  3.342105263157895 7.6607142857142865  3.2105263157894735 7.571428571428572  L 2.9035087719298245 7.366071428571431  L 2.56140350877193 7.500000000000001  L 1.6666666666666665 7.857142857142857  L 0.8333333333333333 6.437499999999999  L 1.570175438596491 5.866071428571428  L 1.8771929824561404 5.624999999999999  L 1.8421052631578947 5.232142857142855  C 1.8333333333333333 5.151785714285712  1.8333333333333333 5.07142857142857  1.8333333333333333 4.999999999999998  C 1.8333333333333333 4.928571428571426  1.8333333333333333 4.848214285714284  1.8421052631578947 4.767857142857141  L 1.8771929824561404 4.374999999999998  L 1.570175438596491 4.133928571428569  L 0.8333333333333333 3.562499999999998  L 1.657894736842105 2.142857142857143  L 2.56140350877193 2.5  L 2.9035087719298245 2.6339285714285716  L 3.2105263157894735 2.428571428571429  C 3.3508771929824563 2.330357142857143  3.491228070175439 2.2500000000000004  3.631578947368421 2.1875  L 3.9736842105263155 2.0267857142857144  L 4.026315789473684 1.6517857142857142  L 4.157894736842104 0.7142857142857142  Z M 6.526315789473683 0.5089285714285714  C 6.482456140350877 0.21428571428571414  6.2368421052631575 0  5.938596491228068 0  L 4.06140350877193 0  C 3.763157894736842 0  3.517543859649122 0.21428571428571433  3.4736842105263155 0.49999999999999994  L 3.333333333333333 1.5357142857142856  C 3.1578947368421053 1.6160714285714284  2.9912280701754383 1.7142857142857144  2.8157894736842106 1.8303571428571428  L 1.824561403508772 1.4375000000000002  C 1.7543859649122806 1.4107142857142856  1.6842105263157894 1.4017857142857146  1.6140350877192986 1.4017857142857146  C 1.4035087719298247 1.4017857142857146  1.2017543859649125 1.5089285714285716  1.105263157894737 1.6964285714285718  L 0.16666666666666669 3.3035714285714284  C 0.017543859649122823 3.553571428571428  0.07894736842105267 3.8839285714285716  0.3070175438596491 4.0625  L 1.1403508771929824 4.705357142857143  C 1.131578947368421 4.812500000000001  1.1228070175438596 4.910714285714286  1.1228070175438596 5  C 1.1228070175438596 5.0892857142857135  1.1228070175438596 5.187499999999999  1.1403508771929824 5.294642857142858  L 0.3070175438596491 5.9375  C 0.07894736842105267 6.116071428571429  0.017543859649122823 6.428571428571429  0.16666666666666669 6.696428571428571  L 1.0964912280701753 8.294642857142858  C 1.2017543859649122 8.482142857142858  1.4035087719298245 8.598214285714286  1.614035087719298 8.598214285714286  C 1.6842105263157894 8.598214285714286  1.7456140350877192 8.589285714285715  1.8157894736842104 8.5625  L 2.807017543859649 8.169642857142858  C 2.9736842105263155 8.285714285714285  3.1491228070175437 8.383928571428571  3.324561403508772 8.464285714285714  L 3.473684210526316 9.491071428571429  C 3.508771929824561 9.776785714285714  3.763157894736842 10  4.06140350877193 10  L 5.938596491228071 10  C 6.236842105263158 10  6.482456140350878 9.785714285714285  6.526315789473685 9.5  L 6.675438596491229 8.464285714285715  C 6.850877192982456 8.383928571428571  7.017543859649123 8.285714285714286  7.192982456140352 8.169642857142858  L 8.184210526315791 8.562500000000002  C 8.254385964912283 8.589285714285715  8.324561403508772 8.598214285714288  8.394736842105265 8.598214285714288  C 8.60526315789474 8.598214285714288  8.80701754385965 8.49107142857143  8.903508771929825 8.30357142857143  L 9.842105263157897 6.687500000000003  C 9.982456140350878 6.4285714285714315  9.921052631578949 6.1160714285714315  9.692982456140353 5.937500000000002  L 8.859649122807019 5.294642857142859  C 8.86842105263158 5.205357142857146  8.87719298245614 5.10714285714286  8.87719298245614 5.000000000000002  C 8.87719298245614 4.892857142857145  8.86842105263158 4.79464285714286  8.859649122807019 4.705357142857146  L 9.692982456140353 4.062500000000003  C 9.921052631578949 3.883928571428574  9.982456140350878 3.571428571428574  9.833333333333334 3.3035714285714315  L 8.903508771929825 1.7053571428571455  C 8.798245614035089 1.5178571428571455  8.596491228070176 1.401785714285717  8.385964912280702 1.401785714285717  C 8.315789473684212 1.401785714285717  8.254385964912283 1.4107142857142887  8.184210526315791 1.4375000000000027  L 7.192982456140351 1.8303571428571428  C 7.026315789473684 1.7142857142857144  6.8508771929824555 1.6160714285714286  6.675438596491228 1.5357142857142856  L 6.526315789473683 0.5089285714285714  Z M 3.5964912280701755 5  C 3.5964912280701755 4.214285714285714  4.228070175438597 3.5714285714285716  5 3.5714285714285716  C 5.771929824561404 3.5714285714285716  6.4035087719298245 4.214285714285714  6.4035087719298245 5  C 6.4035087719298245 5.785714285714285  5.771929824561404 6.428571428571429  5 6.428571428571429  C 4.228070175438597 6.428571428571429  3.5964912280701755 5.785714285714285  3.5964912280701755 5  Z M 7.105263157894736 5  C 7.105263157894736 3.821428571428571  6.157894736842105 2.8571428571428568  5 2.8571428571428568  C 3.8421052631578947 2.8571428571428568  2.8947368421052633 3.821428571428571  2.8947368421052633 5  C 2.8947368421052633 6.178571428571429  3.8421052631578947 7.142857142857143  5 7.142857142857143  C 6.157894736842105 7.142857142857143  7.105263157894736 6.178571428571429  7.105263157894736 5  Z " fill-rule="nonzero" fill="#e7772d" stroke="none" transform="matrix(1 0 0 1 1455 1285 )" />
  </g>
</svg>