<?xml version="1.0" encoding="utf-8"?>
<svg version="1.1" xmlns:xlink="http://www.w3.org/1999/xlink" width="12px" height="10px" xmlns="http://www.w3.org/2000/svg">
  <g transform="matrix(1 0 0 1 -1455 -1245 )">
    <path d="M 4.88265306122449 9.14453125  C 4.877551020408164 9.173177083333334  4.88265306122449 9.208333333333334  4.8979591836734695 9.25  C 4.8979591836734695 9.270833333333334  4.900510204081633 9.322916666666666  4.905612244897959 9.40625  C 4.9107142857142865 9.489583333333334  4.911989795918368 9.55859375  4.909438775510204 9.61328125  C 4.906887755102042 9.66796875  4.899234693877552 9.729166666666666  4.886479591836735 9.796875  C 4.873724489795919 9.864583333333334  4.848214285714286 9.915364583333334  4.809948979591837 9.94921875  C 4.771683673469388 9.983072916666666  4.719387755102042 10  4.653061224489796 10  L 2.2040816326530615 10  C 1.5969387755102042 10  1.0778061224489797 9.779947916666666  0.6466836734693877 9.33984375  C 0.21556122448979592 8.899739583333334  0 8.369791666666666  0 7.75  L 0 2.25  C 0 1.6302083333333317  0.21556122448979592 1.1002604166666663  0.6466836734693877 0.6601562500000002  C 1.0778061224489797 0.22005208333333193  1.5969387755102042 0  2.2040816326530615 0  L 4.653061224489796 0  C 4.719387755102042 0  4.776785714285714 0.024739583333331927  4.825255102040816 0.07421875000000022  C 4.873724489795919 0.1236979166666663  4.8979591836734695 0.1822916666666663  4.8979591836734695 0.2500000000000002  C 4.8979591836734695 0.27083333333333237  4.900510204081633 0.3229166666666661  4.905612244897959 0.4062500000000002  C 4.9107142857142865 0.48958333333333215  4.911989795918368 0.5585937500000004  4.909438775510204 0.6132812499999996  C 4.906887755102042 0.6679687499999998  4.899234693877552 0.7291666666666663  4.886479591836735 0.7968750000000002  C 4.873724489795919 0.8645833333333319  4.848214285714286 0.9153645833333324  4.809948979591837 0.9492187500000004  C 4.771683673469388 0.9830729166666663  4.719387755102042 0.9999999999999998  4.653061224489796 0.9999999999999998  L 2.2040816326530615 0.9999999999999998  C 1.8673469387755102 0.9999999999999998  1.5790816326530615 1.1223958333333317  1.3392857142857144 1.3671875  C 1.0994897959183674 1.611979166666666  0.9795918367346939 1.9062500000000004  0.9795918367346939 2.25  L 0.9795918367346939 7.75  C 0.9795918367346939 8.09375  1.0994897959183674 8.388020833333332  1.3392857142857144 8.6328125  C 1.5790816326530615 8.877604166666666  1.8673469387755102 9  2.2040816326530615 9  L 4.408163265306123 9  L 4.49234693877551 9  L 4.591836734693877 9  C 4.591836734693877 9  4.621173469387756 9.002604166666666  4.67984693877551 9.0078125  C 4.738520408163266 9.013020833333334  4.767857142857142 9.020833333333334  4.767857142857142 9.03125  C 4.767857142857142 9.041666666666666  4.788265306122449 9.055989583333334  4.829081632653061 9.07421875  C 4.869897959183674 9.092447916666666  4.887755102040817 9.115885416666666  4.88265306122449 9.14453125  Z M 11.854591836734693 4.6484375  C 11.951530612244898 4.747395833333333  12 4.864583333333333  12 5  C 12 5.135416666666666  11.951530612244898 5.252604166666666  11.854591836734693 5.3515625  L 7.691326530612246 9.6015625  C 7.594387755102041 9.700520833333334  7.479591836734695 9.75  7.346938775510204 9.75  C 7.214285714285715 9.75  7.099489795918368 9.700520833333334  7.002551020408163 9.6015625  C 6.905612244897959 9.502604166666666  6.857142857142857 9.385416666666666  6.857142857142857 9.25  L 6.857142857142857 7  L 3.4285714285714284 7  C 3.295918367346939 7  3.181122448979592 6.950520833333334  3.084183673469388 6.8515625  C 2.9872448979591835 6.752604166666666  2.9387755102040813 6.635416666666666  2.9387755102040813 6.5  L 2.9387755102040813 3.5  C 2.9387755102040813 3.364583333333332  2.9872448979591835 3.247395833333332  3.084183673469388 3.1484375  C 3.181122448979592 3.0494791666666665  3.295918367346939 3.0000000000000004  3.4285714285714284 3.0000000000000004  L 6.857142857142857 3.0000000000000004  L 6.857142857142857 0.7499999999999996  C 6.857142857142857 0.6145833333333317  6.905612244897959 0.4973958333333317  7.002551020408163 0.39843749999999956  C 7.099489795918368 0.2994791666666663  7.214285714285715 0.2500000000000002  7.346938775510204 0.2500000000000002  C 7.479591836734695 0.2500000000000002  7.594387755102041 0.2994791666666663  7.691326530612246 0.39843749999999956  L 11.854591836734693 4.6484375  Z " fill-rule="nonzero" fill="#e7772d" stroke="none" transform="matrix(1 0 0 1 1455 1245 )" />
  </g>
</svg>