<?xml version="1.0" encoding="utf-8"?>
<svg version="1.1" xmlns:xlink="http://www.w3.org/1999/xlink" width="11px" height="10px" xmlns="http://www.w3.org/2000/svg">
  <g transform="matrix(1 0 0 1 -1355 -1286 )">
    <path d="M 10.5666625 3.616356132075471  L 0.43333750000000004 3.616356132075471  C 0.21242360006768274 3.616356132075471  0.03333750000000002 3.4474069810682235  0.03333750000000002 3.2389976415094335  C 0.03333750000000002 3.0305883019506434  0.21242360006768274 2.861639150943396  0.43333750000000004 2.861639150943396  C 0.43333750000000004 2.861639150943396  0.43333750000000004 2.861639150943396  0.43333750000000004 3  L 10.566662500000001 3  C 10.566662500000001 2.861639150943396  10.566662500000001 2.861639150943396  10.566662500000001 2.861639150943396  C 10.787576399932318 2.861639150943396  10.966662500000002 3.0305883019506434  10.966662500000002 3.2389976415094335  C 10.966662500000002 3.4474069810682235  10.787576399932318 3.616356132075471  10.566662500000001 3.616356132075471  Z M 10.566662500000001 7.138360849056603  C 10.566662500000001 7.138360849056603  10.566662500000001 7.138360849056603  10.5666625 7  L 0.43333750000000004 7  C 0.43333750000000004 7.138360849056603  0.43333750000000004 7.138360849056603  0.43333750000000004 7.138360849056603  C 0.21242360006768274 7.138360849056603  0.03333750000000002 6.969411698049356  0.03333750000000002 6.761002358490566  C 0.03333750000000002 6.552593018931776  0.21242360006768274 6.383643867924528  0.43333750000000004 6.383643867924528  L 10.566662500000001 6.383643867924528  C 10.787576399932318 6.383643867924528  10.966662500000002 6.552593018931776  10.966662500000002 6.761002358490566  C 10.966662500000002 6.969411698049356  10.787576399932318 7.138360849056603  10.566662500000001 7.138360849056603  Z M 0.716 3.5056603773584905  C 0.6410591121133798 3.5764495294766463  0.5393875073676629 3.6162659714192946  0.43333750000000004 3.616356132075471  C 0.21255456424124616 3.616181596181962  0.03367268529234106 3.4472836355756957  0.03367268529234106 3.238997773996698  C 0.03367268529234106 3.13899352593223  0.07575040560544437 3.043078665144413  0.15066249999999998 2.972323113207547  L 3.1666624999999997 0.1270400943396226  C 3.2407114390988 0.061918869517453186  3.3381794031905283 0.025707365116938333  3.439412692976046 0.025707365116938333  C 3.660326592908363 0.025707365116938333  3.8394126929760453 0.19465651612418616  3.8394126929760453 0.4030658556829761  C 3.8394126929760453 0.49856895925421857  3.8010284983114992 0.5905198687747167  3.732 0.660377358490566  L 0.716 3.5056603773584905  Z M 7.833337500000001 9.872959905660377  C 7.758391502525074 9.943747620168821  7.656715045735519 9.98355995980426  7.5506625000000005 9.98364386792453  C 7.329889323113079 9.983456341720137  7.151022648273241 9.814562196704987  7.151022648273241 9.60628553031463  C 7.151022648273241 9.50628704729072  7.193095530834746 9.410377230231267  7.268000000000001 9.339622641509434  L 10.284 6.49433962264151  C 10.35965876401112 6.41777224165967  10.465630444723569 6.374292634883055  10.576587307023962 6.374292634883055  C 10.797501206956278 6.374292634883055  10.97658730702396 6.543241785890302  10.97658730702396 6.751651125449093  C 10.97658730702396 6.856327410638142  10.930498923840752 6.956300694329133  10.8493375 7.027676886792453  L 7.833337500000001 9.872959905660377  Z M 10.5666625 3.616356132075471  L 0.43333750000000004 3.616356132075471  C 0.21242360006768274 3.616356132075471  0.03333750000000002 3.4474069810682235  0.03333750000000002 3.2389976415094335  C 0.03333750000000002 3.0305883019506434  0.21242360006768274 2.861639150943396  0.43333750000000004 2.861639150943396  C 0.43333750000000004 2.861639150943396  0.43333750000000004 2.861639150943396  0.43333750000000004 3  L 10.566662500000001 3  C 10.566662500000001 2.861639150943396  10.566662500000001 2.861639150943396  10.566662500000001 2.861639150943396  C 10.787576399932318 2.861639150943396  10.966662500000002 3.0305883019506434  10.966662500000002 3.2389976415094335  C 10.966662500000002 3.4474069810682235  10.787576399932318 3.616356132075471  10.566662500000001 3.616356132075471  Z M 10.566662500000001 7.138360849056603  C 10.566662500000001 7.138360849056603  10.566662500000001 7.138360849056603  10.5666625 7  L 0.43333750000000004 7  C 0.43333750000000004 7.138360849056603  0.43333750000000004 7.138360849056603  0.43333750000000004 7.138360849056603  C 0.21242360006768274 7.138360849056603  0.03333750000000002 6.969411698049356  0.03333750000000002 6.761002358490566  C 0.03333750000000002 6.552593018931776  0.21242360006768274 6.383643867924528  0.43333750000000004 6.383643867924528  L 10.566662500000001 6.383643867924528  C 10.787576399932318 6.383643867924528  10.966662500000002 6.552593018931776  10.966662500000002 6.761002358490566  C 10.966662500000002 6.969411698049356  10.787576399932318 7.138360849056603  10.566662500000001 7.138360849056603  Z M 0.716 3.5056603773584905  C 0.6410591121133798 3.5764495294766463  0.5393875073676629 3.6162659714192946  0.43333750000000004 3.616356132075471  C 0.21255456424124616 3.616181596181962  0.03367268529234106 3.4472836355756957  0.03367268529234106 3.238997773996698  C 0.03367268529234106 3.13899352593223  0.07575040560544437 3.043078665144413  0.15066249999999998 2.972323113207547  L 3.1666624999999997 0.1270400943396226  C 3.2407114390988 0.061918869517453186  3.3381794031905283 0.025707365116938333  3.439412692976046 0.025707365116938333  C 3.660326592908363 0.025707365116938333  3.8394126929760453 0.19465651612418616  3.8394126929760453 0.4030658556829761  C 3.8394126929760453 0.49856895925421857  3.8010284983114992 0.5905198687747167  3.732 0.660377358490566  L 0.716 3.5056603773584905  Z M 7.833337500000001 9.872959905660377  C 7.758391502525074 9.943747620168821  7.656715045735519 9.98355995980426  7.5506625000000005 9.98364386792453  C 7.329889323113079 9.983456341720137  7.151022648273241 9.814562196704987  7.151022648273241 9.60628553031463  C 7.151022648273241 9.50628704729072  7.193095530834746 9.410377230231267  7.268000000000001 9.339622641509434  L 10.284 6.49433962264151  C 10.35965876401112 6.41777224165967  10.465630444723569 6.374292634883055  10.576587307023962 6.374292634883055  C 10.797501206956278 6.374292634883055  10.97658730702396 6.543241785890302  10.97658730702396 6.751651125449093  C 10.97658730702396 6.856327410638142  10.930498923840752 6.956300694329133  10.8493375 7.027676886792453  L 7.833337500000001 9.872959905660377  Z " fill-rule="nonzero" fill="#e7772d" stroke="none" transform="matrix(1 0 0 1 1355 1286 )" />
  </g>
</svg>