<?xml version="1.0" encoding="utf-8"?>
<svg version="1.1" xmlns:xlink="http://www.w3.org/1999/xlink" width="14px" height="14px" xmlns="http://www.w3.org/2000/svg">
  <g transform="matrix(1 0 0 1 -1288 -123 )">
    <path d="M 10.499920292968751 5.24989026953125  C 10.016927498046876 5.24989026953125  9.624931763671876 5.641886003906251  9.624931763671876 6.124878798828125  C 9.624931763671876 6.6078715937500005  10.016927498046876 6.999867328125001  10.499920292968751 6.999867328125001  C 10.982913087890624 6.999867328125001  11.374908822265626 6.6078715937500005  11.374908822265626 6.124878798828125  C 11.374908822265626 5.641886003906251  10.982913087890624 5.24989026953125  10.499920292968751 5.24989026953125  Z M 6.999993451171875 11.3747690546875  C 6.48900680859375 11.3747690546875  5.99551801953125 11.315273607421876  5.521274158203125 11.214203669921876  L 3.46156313671875 12.45230691796875  L 3.4891202226562497 10.4227872109375  C 1.91021816015625 9.473425951171876  0.8751146523437501 7.903709597656251  0.8751146523437501 6.124878798828124  C 0.8751146523437501 3.225625375  3.61731045703125 0.8749885292968744  6.999993451171875 0.8749885292968744  C 10.382676445312498 0.8749885292968744  13.124858605468749 3.2256253613281247  13.124858605468749 6.124878798828124  C 13.124858591796874 9.024568998046876  10.3826764453125 11.3747690546875  6.999993451171875 11.3747690546875  Z M 6.999993451171875 0  C 3.134317662109375 0  0.000139767578125 2.74263256640625  0.000139767578125 6.124878798828124  C 0.000139767578125 8.0581466328125  1.026057580078125 9.779679437499999  2.625091724609375 10.9018354921875  L 2.625091724609375 13.999707380859375  L 5.6914620000000005 12.139051572265625  C 6.11583287109375 12.209056658203126  6.552446783203126 12.249730308593751  6.999993451171875 12.249730308593751  C 10.865655595703124 12.249730308593751  13.999847134765625 9.507534503906252  13.999847134765625 6.124851509765627  C 13.999847134765625 2.74263256640625  10.865669240234375 0  6.999993451171875 0  Z M 3.5000666093749997 5.24989026953125  C 3.017073814453125 5.24989026953125  2.6250917246093746 5.641886003906251  2.6250917246093746 6.124878798828125  C 2.6250917246093746 6.6078715937500005  3.0170874589843746 6.999867328125001  3.5000666093749997 6.999867328125001  C 3.983045759765625 6.999867328125001  4.375055138671875 6.6078715937500005  4.375055138671875 6.124878798828125  C 4.375055138671875 5.641886003906251  3.9830594042968746 5.24989026953125  3.5000666093749997 5.24989026953125  Z M 6.999993451171875 5.24989026953125  C 6.5170006562500005 5.24989026953125  6.125004921875 5.641886003906251  6.125004921875 6.124878798828125  C 6.125004921875 6.6078715937500005  6.5170006562500005 6.999867328125001  6.999993451171875 6.999867328125001  C 7.48298624609375 6.999867328125001  7.874981980468751 6.6078715937500005  7.874981980468751 6.124878798828125  C 7.874981980468751 5.641886003906251  7.48298624609375 5.24989026953125  6.999993451171875 5.24989026953125  Z " fill-rule="nonzero" fill="#999999" stroke="none" transform="matrix(1 0 0 1 1288 123 )" />
  </g>
</svg>