<?xml version="1.0" encoding="utf-8"?>
<svg version="1.1" xmlns:xlink="http://www.w3.org/1999/xlink" width="12px" height="14px" xmlns="http://www.w3.org/2000/svg">
  <g transform="matrix(1 0 0 1 -1419 -123 )">
    <path d="M 5.3666055 0.587926542492787  C 5.3666055 0.2632236956063107  5.629484181052173 0  5.953761467889908 0  C 6.261027454316881 -9.733338522024452E-05  6.516404606713872 0.23702935586994708  6.539449541284405 0.5438320543982104  L 6.5412110091743125 0.5879265424927871  L 6.540917435779817 1.2758005567681825  C 8.924770651376148 1.490393727568613  10.77372477522936 3.7089344098269206  10.77372477522936 6.384881906066618  L 10.77372477522936 8.131023634611852  C 10.77372477522936 8.888272981415891  11.023853215596333 9.61553806253609  11.470091738532112 10.166719163718298  L 11.709651371559636 10.462740165053065  C 12.228990825688074 11.104167980608995  11.823559623853214 12.139800533509971  10.971889912844038 12.139800533509971  L 8.381944954128443 12.13980053350997  C 8.068620537573741 13.191090116541995  7.103006768732265 13.911562545381724  6.007339451834863 13.911562545381724  C 4.91167213493746 13.911562545381724  3.9460583660959845 13.191090116541995  3.6327339495412856 12.139800533509971  L 1.0422018302752292 12.139800533509971  C 0.19053210550458693 12.139800533509971  -0.21489908256880755 11.103874021948208  0.30473394495412814 10.462740165053065  L 0.5442935779816511 10.166425205057509  C 0.9905321146788987 9.61553806253609  1.2403669678899083 8.888272981415891  1.2403669678899083 8.131023634611852  L 1.2403669678899083 6.384881906066618  C 1.2403669678899083 3.748913407772828  3.034715587155963 1.5571233908115816  5.3666054999999995 1.2869711512324566  L 5.3666055 0.587926542492787  Z M 7.101651371559633 12.13980053350997  L 4.912440371559631 12.13980053350997  C 5.152288217337474 12.512257802536894  5.564600283393612 12.737286486247076  6.007192665137612 12.737286486247076  C 6.449785046881614 12.737286486247076  6.862097112937754 12.512257802536894  7.101944958715595 12.13980053350997  Z M 6.161908252293579 2.434897662554444  L 5.953761467889908 2.434897662554444  L 5.947302756880734 2.4346037038936563  L 5.852477064220183 2.4346037038936563  C 3.9982385366972473 2.4346037038936563  2.4604770688073394 4.137826792766994  2.415853211009174 6.288461963359652  L 2.4146789036697243 6.3851758647274055  L 2.4146789036697243 8.13102363461185  C 2.4146789036697243 9.154309717066816  2.074715600917431 10.143496071248327  1.4567339449541281 10.906624673945291  L 1.4100550458715593 10.963653549807454  L 10.60374312385321 10.963653549807454  L 10.557944958715595 10.906918646385607  C 9.963449545871558 10.172892405831066  9.626128444954128 9.230152250369017  9.600880733944955 8.24890290404453  L 9.599412839449542 8.131023634611852  L 9.599412839449542 6.384881906066618  C 9.599412839449542 4.188976398956702  8.043743119266054 2.434897662554444  6.161614678899081 2.434897662554444  Z " fill-rule="nonzero" fill="#999999" stroke="none" transform="matrix(1 0 0 1 1419 123 )" />
  </g>
</svg>