<?xml version="1.0" encoding="utf-8"?>
<svg version="1.1" xmlns:xlink="http://www.w3.org/1999/xlink" width="18px" height="18px" xmlns="http://www.w3.org/2000/svg">
  <g transform="matrix(1 0 0 1 -2841 -1742 )">
    <path d="M 2850 1742  C 2855.04 1742  2859 1745.96  2859 1751  C 2859 1756.04  2855.04 1760  2850 1760  C 2844.96 1760  2841 1756.04  2841 1751  C 2841 1745.96  2844.96 1742  2850 1742  Z " fill-rule="nonzero" fill="#ffffff" stroke="none" />
    <path d="M 2850 1742.5  C 2854.76 1742.5  2858.5 1746.24  2858.5 1751  C 2858.5 1755.76  2854.76 1759.5  2850 1759.5  C 2845.24 1759.5  2841.5 1755.76  2841.5 1751  C 2841.5 1746.24  2845.24 1742.5  2850 1742.5  Z " stroke-width="1" stroke="#ffffff" fill="none" />
  </g>
</svg>