<?xml version="1.0" encoding="utf-8"?>
<svg version="1.1" xmlns:xlink="http://www.w3.org/1999/xlink" width="17px" height="18px" xmlns="http://www.w3.org/2000/svg">
  <g transform="matrix(1 0 0 1 -365 -143 )">
    <path d="M 4.2333984375 1.2070312499999993  C 5.535698784722222 0.40234374999999845  6.957899305555556 0  8.5 0  C 10.042100694444445 0  11.464301215277779 0.40234374999999845  12.7666015625 1.2070312499999993  C 14.068901909722223 2.0117187499999982  15.100043402777779 3.103515625  15.860026041666668 4.482421875  C 16.620008680555554 5.861328124999998  17 7.367187499999997  17 9  C 17 10.6328125  16.620008680555554 12.138671874999998  15.860026041666668 13.517578125  C 15.100043402777779 14.896484375  14.068901909722223 15.98828125  12.7666015625 16.79296875  C 11.464301215277779 17.59765625  10.042100694444445 18  8.5 18  C 6.957899305555556 18  5.535698784722222 17.59765625  4.2333984375 16.79296875  C 2.931098090277778 15.98828125  1.8999565972222223 14.896484375  1.1399739583333335 13.517578125  C 0.3799913194444444 12.138671874999998  0 10.6328125  0 9  C 0 7.367187499999997  0.3799913194444444 5.861328124999998  1.1399739583333335 4.482421875  C 1.8999565972222223 3.103515625  2.931098090277778 2.0117187499999982  4.2333984375 1.2070312499999993  Z M 6.729166666666666 13.39453125  L 12.75 9.644531250000002  C 12.986111111111112 9.503906250000002  13.104166666666668 9.289062499999998  13.104166666666668 9  C 13.104166666666668 8.7109375  12.986111111111112 8.49609375  12.75 8.35546875  L 6.729166666666666 4.60546875  C 6.500434027777779 4.45703125  6.264322916666666 4.453125000000001  6.020833333333334 4.593750000000001  C 5.784722222222223 4.742187499999999  5.666666666666666 4.960937499999999  5.666666666666666 5.249999999999999  L 5.666666666666666 12.749999999999998  C 5.666666666666666 13.039062499999996  5.784722222222223 13.2578125  6.020833333333334 13.406250000000002  C 6.138888888888889 13.46875  6.256944444444445 13.5  6.375 13.5  C 6.500434027777779 13.5  6.618489583333334 13.46484375  6.729166666666666 13.39453125  Z " fill-rule="nonzero" fill="#000000" stroke="none" transform="matrix(1 0 0 1 365 143 )" />
  </g>
</svg>