<?xml version="1.0" encoding="utf-8"?>
<svg version="1.1" xmlns:xlink="http://www.w3.org/1999/xlink" width="400px" height="205px" xmlns="http://www.w3.org/2000/svg">
  <defs>
    <mask fill="white" id="clip6237">
      <path d="M 0 198.38709677419357  L 0 15.870967741935484  C 0 12.167741935483932  2.199999999999818 9.258064516129032  5 10  L 37.54179566563471 10  L 44.04334365325121 0.028662738440017724  L 49.925696594427336 10  L 395 10  C 397.8000000000002 9.258064516129032  400 12.167741935483932  400 15.870967741935484  L 400 198.38709677419357  C 400 202.0903225806451  397.8000000000002 205  395 205  L 5 205  C 2.199999999999818 205  0 202.0903225806451  0 198.38709677419357  Z " fill-rule="evenodd" />
    </mask>
  </defs>
  <g transform="matrix(1 0 0 1 -2385 -1693 )">
    <path d="M 0 198.38709677419357  L 0 15.870967741935484  C 0 12.167741935483932  2.199999999999818 9.258064516129032  5 10  L 37.54179566563471 10  L 44.04334365325121 0.028662738440017724  L 49.925696594427336 10  L 395 10  C 397.8000000000002 9.258064516129032  400 12.167741935483932  400 15.870967741935484  L 400 198.38709677419357  C 400 202.0903225806451  397.8000000000002 205  395 205  L 5 205  C 2.199999999999818 205  0 202.0903225806451  0 198.38709677419357  Z " fill-rule="nonzero" fill="#ffffff" stroke="none" transform="matrix(1 0 0 1 2385 1693 )" />
    <path d="M 0 198.38709677419357  L 0 15.870967741935484  C 0 12.167741935483932  2.199999999999818 9.258064516129032  5 10  L 37.54179566563471 10  L 44.04334365325121 0.028662738440017724  L 49.925696594427336 10  L 395 10  C 397.8000000000002 9.258064516129032  400 12.167741935483932  400 15.870967741935484  L 400 198.38709677419357  C 400 202.0903225806451  397.8000000000002 205  395 205  L 5 205  C 2.199999999999818 205  0 202.0903225806451  0 198.38709677419357  Z " stroke-width="2" stroke="#d7d7d7" fill="none" transform="matrix(1 0 0 1 2385 1693 )" mask="url(#clip6237)" />
  </g>
</svg>