<?xml version="1.0" encoding="utf-8"?>
<svg version="1.1" xmlns:xlink="http://www.w3.org/1999/xlink" width="34px" height="34px" preserveAspectRatio="xMinYMid meet" viewBox="728 982  34 32" xmlns="http://www.w3.org/2000/svg">
  <defs>
    <mask fill="white" id="clip5731">
      <path d="M 624 933  L 720 933  L 720 964  L 624 964  Z M 587 888  L 764 888  L 764 1015  L 587 1015  Z " fill-rule="evenodd" />
    </mask>
  </defs>
  <path d="M 599 898  L 667 898  A 5 5 0 0 1 672 903 L 672 993  A 5 5 0 0 0 677 998 L 745 998  " stroke-width="2" stroke="#e7772d" fill="none" mask="url(#clip5731)" />
  <path d="M 600.5 894.5  A 3.5 3.5 0 0 0 597 898 A 3.5 3.5 0 0 0 600.5 901.5 A 3.5 3.5 0 0 0 604 898 A 3.5 3.5 0 0 0 600.5 894.5 Z M 737.6 1006  L 747 998  L 737.6 990  L 741.2 998  L 737.6 1006  Z " fill-rule="nonzero" fill="#e7772d" stroke="none" mask="url(#clip5731)" />
</svg>