<?xml version="1.0" encoding="utf-8"?>
<svg version="1.1" xmlns:xlink="http://www.w3.org/1999/xlink" width="62px" height="10px" preserveAspectRatio="xMinYMid meet" viewBox="1257 1494  62 8" xmlns="http://www.w3.org/2000/svg">
  <path d="M 1259 1498  L 1309 1498  A 5 5 0 0 0 1314 1493 L 1314 1403  A 5 5 0 0 1 1319 1398 L 1384 1398  " stroke-width="2" stroke="#e7772d" fill="none" />
  <path d="M 1260.5 1494.5  A 3.5 3.5 0 0 0 1257 1498 A 3.5 3.5 0 0 0 1260.5 1501.5 A 3.5 3.5 0 0 0 1264 1498 A 3.5 3.5 0 0 0 1260.5 1494.5 Z M 1376.6 1406  L 1386 1398  L 1376.6 1390  L 1380.2 1398  L 1376.6 1406  Z " fill-rule="nonzero" fill="#e7772d" stroke="none" />
</svg>