<?xml version="1.0" encoding="utf-8"?>
<svg version="1.1" xmlns:xlink="http://www.w3.org/1999/xlink" width="155px" height="10px" preserveAspectRatio="xMinYMid meet" viewBox="927 1394  155 8" xmlns="http://www.w3.org/2000/svg">
  <defs>
    <mask fill="white" id="clip5719">
      <path d="M 986.083740234375 1385  L 1017.916259765625 1385  L 1017.916259765625 1412  L 986.083740234375 1412  Z M 917 1381  L 1094 1381  L 1094 1415  L 917 1415  Z " fill-rule="evenodd" />
    </mask>
  </defs>
  <path d="M 986.083740234375 1398  L 929 1398  M 1017.916259765625 1398  L 1075 1398  " stroke-width="2" stroke="#e7772d" fill="none" />
  <path d="M 930.5 1394.5  A 3.5 3.5 0 0 0 927 1398 A 3.5 3.5 0 0 0 930.5 1401.5 A 3.5 3.5 0 0 0 934 1398 A 3.5 3.5 0 0 0 930.5 1394.5 Z M 1067.6 1406  L 1077 1398  L 1067.6 1390  L 1071.2 1398  L 1067.6 1406  Z " fill-rule="nonzero" fill="#e7772d" stroke="none" mask="url(#clip5719)" />
</svg>