<?xml version="1.0" encoding="utf-8"?>
<svg version="1.1" xmlns:xlink="http://www.w3.org/1999/xlink" width="34px" height="34px" preserveAspectRatio="xMinYMid meet" viewBox="2027 1382  34 32" xmlns="http://www.w3.org/2000/svg">
  <path d="M 1259 1698  L 1973 1698  A 5 5 0 0 0 1978 1693 L 1978 1403  A 5 5 0 0 1 1983 1398 L 2044 1398  " stroke-width="2" stroke="#e7772d" fill="none" />
  <path d="M 1260.5 1694.5  A 3.5 3.5 0 0 0 1257 1698 A 3.5 3.5 0 0 0 1260.5 1701.5 A 3.5 3.5 0 0 0 1264 1698 A 3.5 3.5 0 0 0 1260.5 1694.5 Z M 2036.6 1406  L 2046 1398  L 2036.6 1390  L 2040.2 1398  L 2036.6 1406  Z " fill-rule="nonzero" fill="#e7772d" stroke="none" />
</svg>