<?xml version="1.0" encoding="utf-8"?>
<svg version="1.1" xmlns:xlink="http://www.w3.org/1999/xlink" width="34px" height="34px" preserveAspectRatio="xMinYMid meet" viewBox="1459 1555  34 32" xmlns="http://www.w3.org/2000/svg">
  <defs>
    <mask fill="white" id="clip5743">
      <path d="M 1460.49755859375 1534  L 1491.50244140625 1534  L 1491.50244140625 1561  L 1460.49755859375 1561  Z M 1459 1513  L 1493 1513  L 1493 1590  L 1459 1590  Z " fill-rule="evenodd" />
    </mask>
  </defs>
  <path d="M 1476 1534  L 1476 1525  M 1476 1561  L 1476 1571  " stroke-width="2" stroke="#e7772d" fill="none" />
  <path d="M 1476 1523  A 3.5 3.5 0 0 0 1472.5 1526.5 A 3.5 3.5 0 0 0 1476 1530 A 3.5 3.5 0 0 0 1479.5 1526.5 A 3.5 3.5 0 0 0 1476 1523 Z M 1468 1563.6  L 1476 1573  L 1484 1563.6  L 1476 1567.2  L 1468 1563.6  Z " fill-rule="nonzero" fill="#e7772d" stroke="none" mask="url(#clip5743)" />
</svg>