<?xml version="1.0" encoding="utf-8"?>
<svg version="1.1" xmlns:xlink="http://www.w3.org/1999/xlink" width="191px" height="61px" xmlns="http://www.w3.org/2000/svg">
  <defs>
    <mask fill="white" id="clip5738">
      <path d="M 23.328359381135655 5  L 23.328359381135655 0  L 180 0  L 180 28  L 166.27660409958366 28  L 166.27660409958366 33  L 155.10877248095485 33  L 155.10877248095485 38.72832666100081  C 155.19149715961157 38.72832666100081  140.1356056441268 38.048882333614905  110.79591961395151 38.72832666100081  C 81.45623358377621 39.40777098838682  67.94453606987962 49.08985265363711  42.85138354407173 49.939158062869566  C 17.75823101826406 50.78846347210205  0 42.465270461623774  0 42.465270461623774  L 0 10  L 12.408701798476299 10  L 12.408701798476299 5  L 23.328359381135655 5  Z " fill-rule="evenodd" />
    </mask>
    <filter x="1075px" y="771px" width="191px" height="61px" filterUnits="userSpaceOnUse" id="filter5739">
      <feOffset dx="3" dy="3" in="SourceAlpha" result="shadowOffsetInner" />
      <feGaussianBlur stdDeviation="2.5" in="shadowOffsetInner" result="shadowGaussian" />
      <feComposite in2="shadowGaussian" operator="atop" in="SourceAlpha" result="shadowComposite" />
      <feColorMatrix type="matrix" values="0 0 0 0 0  0 0 0 0 0  0 0 0 0 0  0 0 0 0.34901960784313724 0  " in="shadowComposite" />
    </filter>
    <g id="widget5740">
      <path d="M 23.328359381135655 5  L 23.328359381135655 0  L 180 0  L 180 28  L 166.27660409958366 28  L 166.27660409958366 33  L 155.10877248095485 33  L 155.10877248095485 38.72832666100081  C 155.19149715961157 38.72832666100081  140.1356056441268 38.048882333614905  110.79591961395151 38.72832666100081  C 81.45623358377621 39.40777098838682  67.94453606987962 49.08985265363711  42.85138354407173 49.939158062869566  C 17.75823101826406 50.78846347210205  0 42.465270461623774  0 42.465270461623774  L 0 10  L 12.408701798476299 10  L 12.408701798476299 5  L 23.328359381135655 5  Z " fill-rule="nonzero" fill="#ffffff" stroke="none" transform="matrix(1 0 0 1 1077 773 )" />
      <path d="M 23.328359381135655 5  L 23.328359381135655 0  L 180 0  L 180 28  L 166.27660409958366 28  L 166.27660409958366 33  L 155.10877248095485 33  L 155.10877248095485 38.72832666100081  C 155.19149715961157 38.72832666100081  140.1356056441268 38.048882333614905  110.79591961395151 38.72832666100081  C 81.45623358377621 39.40777098838682  67.94453606987962 49.08985265363711  42.85138354407173 49.939158062869566  C 17.75823101826406 50.78846347210205  0 42.465270461623774  0 42.465270461623774  L 0 10  L 12.408701798476299 10  L 12.408701798476299 5  L 23.328359381135655 5  Z " stroke-width="2" stroke="#333333" fill="none" transform="matrix(1 0 0 1 1077 773 )" mask="url(#clip5738)" />
      <path d="M 155.10877248095485 10.5  L 12.656875834445847 10.5  M 23.328359381135655 5.5  L 166.27660409958366 5.5  M 166.15251708159906 28.351648351648322  L 166.27660409958366 4.835164835164806  M 155.5 9.890109890109878  L 155.5 33.076923076923066  " stroke-width="1" stroke="#333333" fill="none" transform="matrix(1 0 0 1 1077 773 )" />
    </g>
  </defs>
  <g transform="matrix(1 0 0 1 -1075 -771 )">
    <use xlink:href="#widget5740" filter="url(#filter5739)" />
    <use xlink:href="#widget5740" />
  </g>
</svg>