<?xml version="1.0" encoding="utf-8"?>
<svg version="1.1" xmlns:xlink="http://www.w3.org/1999/xlink" width="155px" height="10px" preserveAspectRatio="xMinYMid meet" viewBox="927 794  155 8" xmlns="http://www.w3.org/2000/svg">
  <defs>
    <mask fill="white" id="clip5732">
      <path d="M 946.5 783  L 1057.5 783  L 1057.5 814  L 946.5 814  Z M 910 781  L 1087 781  L 1087 815  L 910 815  Z " fill-rule="evenodd" />
    </mask>
  </defs>
  <path d="M 946.5 798  L 929 798  M 1057.5 798  L 1075 798  " stroke-width="2" stroke="#e7772d" fill="none" />
  <path d="M 1073.5 794.5  A 3.5 3.5 0 0 0 1070 798 A 3.5 3.5 0 0 0 1073.5 801.5 A 3.5 3.5 0 0 0 1077 798 A 3.5 3.5 0 0 0 1073.5 794.5 Z M 936.4 790  L 927 798  L 936.4 806  L 932.8 798  L 936.4 790  Z " fill-rule="nonzero" fill="#e7772d" stroke="none" mask="url(#clip5732)" />
</svg>