<?xml version="1.0" encoding="utf-8"?>
<svg version="1.1" xmlns:xlink="http://www.w3.org/1999/xlink" width="34px" height="34px" preserveAspectRatio="xMinYMid meet" viewBox="1058 1382  34 32" xmlns="http://www.w3.org/2000/svg">
  <path d="M 964 1578  L 1009 1578  A 5 5 0 0 0 1014 1573 L 1014 1403  A 5 5 0 0 1 1019 1398 L 1075 1398  " stroke-width="2" stroke="#e7772d" fill="none" />
  <path d="M 965.5 1574.5  A 3.5 3.5 0 0 0 962 1578 A 3.5 3.5 0 0 0 965.5 1581.5 A 3.5 3.5 0 0 0 969 1578 A 3.5 3.5 0 0 0 965.5 1574.5 Z M 1067.6 1406  L 1077 1398  L 1067.6 1390  L 1071.2 1398  L 1067.6 1406  Z " fill-rule="nonzero" fill="#e7772d" stroke="none" />
</svg>