<?xml version="1.0" encoding="utf-8"?>
<svg version="1.1" xmlns:xlink="http://www.w3.org/1999/xlink" width="155px" height="10px" preserveAspectRatio="xMinYMid meet" viewBox="927 694  155 8" xmlns="http://www.w3.org/2000/svg">
  <defs>
    <mask fill="white" id="clip5735">
      <path d="M 961.5 683  L 1042.5 683  L 1042.5 714  L 961.5 714  Z M 910 681  L 1087 681  L 1087 715  L 910 715  Z " fill-rule="evenodd" />
    </mask>
  </defs>
  <path d="M 961.5 698  L 929 698  M 1042.5 698  L 1075 698  " stroke-width="2" stroke="#e7772d" fill="none" />
  <path d="M 1073.5 694.5  A 3.5 3.5 0 0 0 1070 698 A 3.5 3.5 0 0 0 1073.5 701.5 A 3.5 3.5 0 0 0 1077 698 A 3.5 3.5 0 0 0 1073.5 694.5 Z M 936.4 690  L 927 698  L 936.4 706  L 932.8 698  L 936.4 690  Z " fill-rule="nonzero" fill="#e7772d" stroke="none" mask="url(#clip5735)" />
</svg>