<?xml version="1.0" encoding="utf-8"?>
<svg version="1.1" xmlns:xlink="http://www.w3.org/1999/xlink" width="21px" height="20px" preserveAspectRatio="xMinYMid meet" viewBox="1559 1489  21 18" xmlns="http://www.w3.org/2000/svg">
  <defs>
    <mask fill="white" id="clip5725">
      <path d="M 1624.083740234375 1433  L 1655.916259765625 1433  L 1655.916259765625 1460  L 1624.083740234375 1460  Z M 1556 1381  L 1733 1381  L 1733 1508  L 1556 1508  Z " fill-rule="evenodd" />
    </mask>
  </defs>
  <path d="M 1568 1498  L 1635 1498  A 5 5 0 0 0 1640 1493 L 1640 1403  A 5 5 0 0 1 1645 1398 L 1714 1398  " stroke-width="2" stroke="#e7772d" fill="none" mask="url(#clip5725)" />
  <path d="M 1569.5 1494.5  A 3.5 3.5 0 0 0 1566 1498 A 3.5 3.5 0 0 0 1569.5 1501.5 A 3.5 3.5 0 0 0 1573 1498 A 3.5 3.5 0 0 0 1569.5 1494.5 Z M 1706.6 1406  L 1716 1398  L 1706.6 1390  L 1710.2 1398  L 1706.6 1406  Z " fill-rule="nonzero" fill="#e7772d" stroke="none" mask="url(#clip5725)" />
</svg>