<?xml version="1.0" encoding="utf-8"?>
<svg version="1.1" xmlns:xlink="http://www.w3.org/1999/xlink" width="34px" height="34px" preserveAspectRatio="xMinYMid meet" viewBox="820 1455  34 32" xmlns="http://www.w3.org/2000/svg">
  <defs>
    <mask fill="white" id="clip5715">
      <path d="M 821.49755859375 1434  L 852.50244140625 1434  L 852.50244140625 1461  L 821.49755859375 1461  Z M 820 1413  L 854 1413  L 854 1490  L 820 1490  Z " fill-rule="evenodd" />
    </mask>
  </defs>
  <path d="M 837 1434  L 837 1425  M 837 1461  L 837 1471  " stroke-width="2" stroke="#e7772d" fill="none" />
  <path d="M 837 1423  A 3.5 3.5 0 0 0 833.5 1426.5 A 3.5 3.5 0 0 0 837 1430 A 3.5 3.5 0 0 0 840.5 1426.5 A 3.5 3.5 0 0 0 837 1423 Z M 829 1463.6  L 837 1473  L 845 1463.6  L 837 1467.2  L 829 1463.6  Z " fill-rule="nonzero" fill="#e7772d" stroke="none" mask="url(#clip5715)" />
</svg>