<?xml version="1.0" encoding="utf-8"?>
<svg version="1.1" xmlns:xlink="http://www.w3.org/1999/xlink" width="34px" height="34px" preserveAspectRatio="xMinYMid meet" viewBox="2707 548  34 32" xmlns="http://www.w3.org/2000/svg">
  <defs>
    <mask fill="white" id="clip5746">
      <path d="M 2708.083740234375 527  L 2739.916259765625 527  L 2739.916259765625 554  L 2708.083740234375 554  Z M 2707 506  L 2741 506  L 2741 583  L 2707 583  Z " fill-rule="evenodd" />
    </mask>
  </defs>
  <path d="M 2724 527  L 2724 518  M 2724 554  L 2724 564  " stroke-width="2" stroke="#e7772d" fill="none" />
  <path d="M 2724 516  A 3.5 3.5 0 0 0 2720.5 519.5 A 3.5 3.5 0 0 0 2724 523 A 3.5 3.5 0 0 0 2727.5 519.5 A 3.5 3.5 0 0 0 2724 516 Z M 2716 556.6  L 2724 566  L 2732 556.6  L 2724 560.2  L 2716 556.6  Z " fill-rule="nonzero" fill="#e7772d" stroke="none" mask="url(#clip5746)" />
</svg>