<?xml version="1.0" encoding="utf-8"?>
<svg version="1.1" xmlns:xlink="http://www.w3.org/1999/xlink" width="20px" height="21px" preserveAspectRatio="xMidYMin meet" viewBox="2715 1009  18 21" xmlns="http://www.w3.org/2000/svg">
  <defs>
    <mask fill="white" id="clip5760">
      <path d="M 2708.083740234375 1027  L 2739.916259765625 1027  L 2739.916259765625 1054  L 2708.083740234375 1054  Z M 2707 1006  L 2741 1006  L 2741 1083  L 2707 1083  Z " fill-rule="evenodd" />
    </mask>
  </defs>
  <path d="M 2724 1027  L 2724 1018  M 2724 1054  L 2724 1064  " stroke-width="2" stroke="#e7772d" fill="none" />
  <path d="M 2724 1016  A 3.5 3.5 0 0 0 2720.5 1019.5 A 3.5 3.5 0 0 0 2724 1023 A 3.5 3.5 0 0 0 2727.5 1019.5 A 3.5 3.5 0 0 0 2724 1016 Z M 2716 1056.6  L 2724 1066  L 2732 1056.6  L 2724 1060.2  L 2716 1056.6  Z " fill-rule="nonzero" fill="#e7772d" stroke="none" mask="url(#clip5760)" />
</svg>