<?xml version="1.0" encoding="utf-8"?>
<svg version="1.1" xmlns:xlink="http://www.w3.org/1999/xlink" width="10px" height="55px" preserveAspectRatio="xMidYMin meet" viewBox="2720 1216  8 55" xmlns="http://www.w3.org/2000/svg">
  <defs>
    <mask fill="white" id="clip5753">
      <path d="M 2708.083740234375 1227  L 2739.916259765625 1227  L 2739.916259765625 1254  L 2708.083740234375 1254  Z M 2707 1206  L 2741 1206  L 2741 1283  L 2707 1283  Z " fill-rule="evenodd" />
    </mask>
  </defs>
  <path d="M 2724 1227  L 2724 1218  M 2724 1254  L 2724 1264  " stroke-width="2" stroke="#e7772d" fill="none" />
  <path d="M 2724 1216  A 3.5 3.5 0 0 0 2720.5 1219.5 A 3.5 3.5 0 0 0 2724 1223 A 3.5 3.5 0 0 0 2727.5 1219.5 A 3.5 3.5 0 0 0 2724 1216 Z M 2716 1256.6  L 2724 1266  L 2732 1256.6  L 2724 1260.2  L 2716 1256.6  Z " fill-rule="nonzero" fill="#e7772d" stroke="none" mask="url(#clip5753)" />
</svg>