<?xml version="1.0" encoding="utf-8"?>
<svg version="1.1" xmlns:xlink="http://www.w3.org/1999/xlink" width="200px" height="100px" xmlns="http://www.w3.org/2000/svg">
  <g transform="matrix(1 0 0 1 -2964 -1102 )">
    <path d="M 3163.5 1122  C 3163.5 1122  3163.5 1182  3163.5 1182  C 3163.5 1193.144  3118.6 1201.5  3064 1201.5  C 3009.4 1201.5  2964.5 1193.144  2964.5 1182  C 2964.5 1182  2964.5 1122  2964.5 1122  C 2964.5 1110.856  3009.4 1102.5  3064 1102.5  C 3118.6 1102.5  3163.5 1110.856  3163.5 1122  Z " fill-rule="nonzero" fill="#fbf4f3" stroke="none" />
    <path d="M 2964.5 1122.3  C 2964.5 1111.212  3008.28 1102.5  3064 1102.5  C 3119.72 1102.5  3163.5 1111.212  3163.5 1122.3  C 3163.5 1122.3  3163.5 1181.7  3163.5 1181.7  C 3163.5 1192.788  3119.72 1201.5  3064 1201.5  C 3008.28 1201.5  2964.5 1192.788  2964.5 1181.7  C 2964.5 1181.7  2964.5 1122.3  2964.5 1122.3  Z " stroke-width="1" stroke="#797979" fill="none" />
    <path d="M 3163.5 1122  C 3163.5 1132.92  3119.7200000000003 1141.5  3064 1141.5  C 3008.28 1141.5  2964.5 1132.92  2964.5 1122  " stroke-width="1" stroke="#797979" fill="none" />
  </g>
</svg>