<?xml version="1.0" encoding="utf-8"?>
<svg version="1.1" xmlns:xlink="http://www.w3.org/1999/xlink" width="10px" height="110px" preserveAspectRatio="xMidYMin meet" viewBox="2913 586  8 110" xmlns="http://www.w3.org/2000/svg">
  <defs>
    <mask fill="white" id="clip5779">
      <path d="M 2857 587  L 2977 587  L 2977 639  L 2857 639  Z M 2797 574  L 2977 574  L 2977 701  L 2797 701  Z " fill-rule="evenodd" />
    </mask>
  </defs>
  <path d="M 2962 691  L 2922 691  A 5 5 0 0 1 2917 686 L 2917 596  A 5 5 0 0 0 2912 591 L 2887 591  A 3 3 0 0 0 2884 588 A 3 3 0 0 0 2881 591 L 2816 591  " stroke-width="2" stroke="#e7772d" fill="none" mask="url(#clip5779)" />
  <path d="M 2960.5 687.5  A 3.5 3.5 0 0 0 2957 691 A 3.5 3.5 0 0 0 2960.5 694.5 A 3.5 3.5 0 0 0 2964 691 A 3.5 3.5 0 0 0 2960.5 687.5 Z M 2823.4 583  L 2814 591  L 2823.4 599  L 2819.8 591  L 2823.4 583  Z " fill-rule="nonzero" fill="#e7772d" stroke="none" mask="url(#clip5779)" />
</svg>