<?xml version="1.0" encoding="utf-8"?>
<svg version="1.1" xmlns:xlink="http://www.w3.org/1999/xlink" width="34px" height="34px" preserveAspectRatio="xMinYMid meet" viewBox="3129 675  34 32" xmlns="http://www.w3.org/2000/svg">
  <path d="M 3146 391  L 3195 391  A 5 5 0 0 1 3200 396 L 3200 686  A 5 5 0 0 1 3195 691 L 3146 691  " stroke-width="2" stroke="#e7772d" fill="none" />
  <path d="M 3147.5 387.5  A 3.5 3.5 0 0 0 3144 391 A 3.5 3.5 0 0 0 3147.5 394.5 A 3.5 3.5 0 0 0 3151 391 A 3.5 3.5 0 0 0 3147.5 387.5 Z M 3153.4 683  L 3144 691  L 3153.4 699  L 3149.8 691  L 3153.4 683  Z " fill-rule="nonzero" fill="#e7772d" stroke="none" />
</svg>