<?xml version="1.0" encoding="utf-8"?>
<svg version="1.1" xmlns:xlink="http://www.w3.org/1999/xlink" width="34px" height="34px" preserveAspectRatio="xMinYMid meet" viewBox="2707 948  34 32" xmlns="http://www.w3.org/2000/svg">
  <defs>
    <mask fill="white" id="clip5752">
      <path d="M 2708.083740234375 927  L 2739.916259765625 927  L 2739.916259765625 954  L 2708.083740234375 954  Z M 2707 906  L 2741 906  L 2741 983  L 2707 983  Z " fill-rule="evenodd" />
    </mask>
  </defs>
  <path d="M 2724 927  L 2724 918  M 2724 954  L 2724 964  " stroke-width="2" stroke="#e7772d" fill="none" />
  <path d="M 2724 916  A 3.5 3.5 0 0 0 2720.5 919.5 A 3.5 3.5 0 0 0 2724 923 A 3.5 3.5 0 0 0 2727.5 919.5 A 3.5 3.5 0 0 0 2724 916 Z M 2716 956.6  L 2724 966  L 2732 956.6  L 2724 960.2  L 2716 956.6  Z " fill-rule="nonzero" fill="#e7772d" stroke="none" mask="url(#clip5752)" />
</svg>