<?xml version="1.0" encoding="utf-8"?>
<svg version="1.1" xmlns:xlink="http://www.w3.org/1999/xlink" width="75px" height="10px" preserveAspectRatio="xMinYMid meet" viewBox="2814 687  75 8" xmlns="http://www.w3.org/2000/svg">
  <path d="M 2816 691  L 2879 691  A 5 5 0 0 0 2884 686 L 2884 496  A 5 5 0 0 1 2889 491 L 2962 491  " stroke-width="2" stroke="#e7772d" fill="none" />
  <path d="M 2817.5 687.5  A 3.5 3.5 0 0 0 2814 691 A 3.5 3.5 0 0 0 2817.5 694.5 A 3.5 3.5 0 0 0 2821 691 A 3.5 3.5 0 0 0 2817.5 687.5 Z M 2954.6 499  L 2964 491  L 2954.6 483  L 2958.2 491  L 2954.6 499  Z " fill-rule="nonzero" fill="#e7772d" stroke="none" />
</svg>