<?xml version="1.0" encoding="utf-8"?>
<svg version="1.1" xmlns:xlink="http://www.w3.org/1999/xlink" width="10px" height="55px" preserveAspectRatio="xMidYMin meet" viewBox="2720 1416  8 55" xmlns="http://www.w3.org/2000/svg">
  <defs>
    <mask fill="white" id="clip5756">
      <path d="M 2708.49755859375 1427  L 2739.50244140625 1427  L 2739.50244140625 1454  L 2708.49755859375 1454  Z M 2707 1406  L 2741 1406  L 2741 1483  L 2707 1483  Z " fill-rule="evenodd" />
    </mask>
  </defs>
  <path d="M 2724 1427  L 2724 1418  M 2724 1454  L 2724 1464  " stroke-width="2" stroke="#e7772d" fill="none" />
  <path d="M 2724 1416  A 3.5 3.5 0 0 0 2720.5 1419.5 A 3.5 3.5 0 0 0 2724 1423 A 3.5 3.5 0 0 0 2727.5 1419.5 A 3.5 3.5 0 0 0 2724 1416 Z M 2716 1456.6  L 2724 1466  L 2732 1456.6  L 2724 1460.2  L 2716 1456.6  Z " fill-rule="nonzero" fill="#e7772d" stroke="none" mask="url(#clip5756)" />
</svg>