<?xml version="1.0" encoding="utf-8"?>
<svg version="1.1" xmlns:xlink="http://www.w3.org/1999/xlink" width="20px" height="21px" preserveAspectRatio="xMidYMin meet" viewBox="2715 1509  18 21" xmlns="http://www.w3.org/2000/svg">
  <defs>
    <mask fill="white" id="clip5768">
      <path d="M 2708.49755859375 1527  L 2739.50244140625 1527  L 2739.50244140625 1554  L 2708.49755859375 1554  Z M 2707 1506  L 2741 1506  L 2741 1583  L 2707 1583  Z " fill-rule="evenodd" />
    </mask>
  </defs>
  <path d="M 2724 1527  L 2724 1518  M 2724 1554  L 2724 1564  " stroke-width="2" stroke="#e7772d" fill="none" />
  <path d="M 2724 1516  A 3.5 3.5 0 0 0 2720.5 1519.5 A 3.5 3.5 0 0 0 2724 1523 A 3.5 3.5 0 0 0 2727.5 1519.5 A 3.5 3.5 0 0 0 2724 1516 Z M 2716 1556.6  L 2724 1566  L 2732 1556.6  L 2724 1560.2  L 2716 1556.6  Z " fill-rule="nonzero" fill="#e7772d" stroke="none" mask="url(#clip5768)" />
</svg>