<?xml version="1.0" encoding="utf-8"?>
<svg version="1.1" xmlns:xlink="http://www.w3.org/1999/xlink" width="85px" height="10px" preserveAspectRatio="xMinYMid meet" viewBox="2879 487  85 8" xmlns="http://www.w3.org/2000/svg">
  <path d="M 2816 891  L 2879 891  A 5 5 0 0 0 2884 886 L 2884 496  A 5 5 0 0 1 2889 491 L 2962 491  " stroke-width="2" stroke="#e7772d" fill="none" />
  <path d="M 2817.5 887.5  A 3.5 3.5 0 0 0 2814 891 A 3.5 3.5 0 0 0 2817.5 894.5 A 3.5 3.5 0 0 0 2821 891 A 3.5 3.5 0 0 0 2817.5 887.5 Z M 2954.6 499  L 2964 491  L 2954.6 483  L 2958.2 491  L 2954.6 499  Z " fill-rule="nonzero" fill="#e7772d" stroke="none" />
</svg>