<?xml version="1.0" encoding="utf-8"?>
<svg version="1.1" xmlns:xlink="http://www.w3.org/1999/xlink" width="108px" height="10px" preserveAspectRatio="xMinYMid meet" viewBox="2814 587  108 8" xmlns="http://www.w3.org/2000/svg">
  <path d="M 3384 718  L 3384 753  A 5 5 0 0 1 3379 758 L 2922 758  A 5 5 0 0 1 2917 753 L 2917 596  A 5 5 0 0 0 2912 591 L 2887 591  A 3 3 0 0 0 2884 588 A 3 3 0 0 0 2881 591 L 2816 591  " stroke-width="2" stroke="#e7772d" fill="none" />
  <path d="M 3384 716  A 3.5 3.5 0 0 0 3380.5 719.5 A 3.5 3.5 0 0 0 3384 723 A 3.5 3.5 0 0 0 3387.5 719.5 A 3.5 3.5 0 0 0 3384 716 Z M 2823.4 583  L 2814 591  L 2823.4 599  L 2819.8 591  L 2823.4 583  Z " fill-rule="nonzero" fill="#e7772d" stroke="none" />
</svg>