<?xml version="1.0" encoding="utf-8"?>
<svg version="1.1" xmlns:xlink="http://www.w3.org/1999/xlink" width="40px" height="10px" preserveAspectRatio="xMinYMid meet" viewBox="3144 587  40 8" xmlns="http://www.w3.org/2000/svg">
  <defs>
    <mask fill="white" id="clip5773">
      <path d="M 3163.083740234375 528  L 3194.916259765625 528  L 3194.916259765625 555  L 3163.083740234375 555  Z M 3127 474  L 3194.916259765625 474  L 3194.916259765625 601  L 3127 601  Z " fill-rule="evenodd" />
    </mask>
  </defs>
  <path d="M 3146 591  L 3174 591  A 5 5 0 0 0 3179 586 L 3179 496  A 5 5 0 0 0 3174 491 L 3146 491  " stroke-width="2" stroke="#e7772d" fill="none" mask="url(#clip5773)" />
  <path d="M 3147.5 587.5  A 3.5 3.5 0 0 0 3144 591 A 3.5 3.5 0 0 0 3147.5 594.5 A 3.5 3.5 0 0 0 3151 591 A 3.5 3.5 0 0 0 3147.5 587.5 Z M 3153.4 483  L 3144 491  L 3153.4 499  L 3149.8 491  L 3153.4 483  Z " fill-rule="nonzero" fill="#e7772d" stroke="none" mask="url(#clip5773)" />
</svg>