<?xml version="1.0" encoding="utf-8"?>
<svg version="1.1" xmlns:xlink="http://www.w3.org/1999/xlink" width="200px" height="100px" xmlns="http://www.w3.org/2000/svg">
  <g transform="matrix(1 0 0 1 -3139 -1307 )">
    <path d="M 3338.5 1327  C 3338.5 1327  3338.5 1387  3338.5 1387  C 3338.5 1398.144  3293.6 1406.5  3239 1406.5  C 3184.4 1406.5  3139.5 1398.144  3139.5 1387  C 3139.5 1387  3139.5 1327  3139.5 1327  C 3139.5 1315.856  3184.4 1307.5  3239 1307.5  C 3293.6 1307.5  3338.5 1315.856  3338.5 1327  Z " fill-rule="nonzero" fill="#fedc5e" stroke="none" />
    <path d="M 3139.5 1327.3  C 3139.5 1316.212  3183.28 1307.5  3239 1307.5  C 3294.72 1307.5  3338.5 1316.212  3338.5 1327.3  C 3338.5 1327.3  3338.5 1386.7  3338.5 1386.7  C 3338.5 1397.788  3294.72 1406.5  3239 1406.5  C 3183.28 1406.5  3139.5 1397.788  3139.5 1386.7  C 3139.5 1386.7  3139.5 1327.3  3139.5 1327.3  Z " stroke-width="1" stroke="#797979" fill="none" />
    <path d="M 3338.5 1327  C 3338.5 1337.92  3294.7200000000003 1346.5  3239 1346.5  C 3183.28 1346.5  3139.5 1337.92  3139.5 1327  " stroke-width="1" stroke="#797979" fill="none" />
  </g>
</svg>