<?xml version="1.0" encoding="utf-8"?>
<svg version="1.1" xmlns:xlink="http://www.w3.org/1999/xlink" width="31px" height="10px" preserveAspectRatio="xMinYMid meet" viewBox="3474 387  31 8" xmlns="http://www.w3.org/2000/svg">
  <path d="M 3476 391  L 3495 391  A 5 5 0 0 1 3500 396 L 3500 586  A 5 5 0 0 1 3495 591 L 3476 591  " stroke-width="2" stroke="#e7772d" fill="none" />
  <path d="M 3477.5 387.5  A 3.5 3.5 0 0 0 3474 391 A 3.5 3.5 0 0 0 3477.5 394.5 A 3.5 3.5 0 0 0 3481 391 A 3.5 3.5 0 0 0 3477.5 387.5 Z M 3483.4 583  L 3474 591  L 3483.4 599  L 3479.8 591  L 3483.4 583  Z " fill-rule="nonzero" fill="#e7772d" stroke="none" />
</svg>