<?xml version="1.0" encoding="utf-8"?>
<svg version="1.1" xmlns:xlink="http://www.w3.org/1999/xlink" width="41px" height="10px" preserveAspectRatio="xMinYMid meet" viewBox="2593 987  41 8" xmlns="http://www.w3.org/2000/svg">
  <defs>
    <mask fill="white" id="clip5762">
      <path d="M 2582.49755859375 1078  L 2613.50244140625 1078  L 2613.50244140625 1105  L 2582.49755859375 1105  Z M 2582.49755859375 981  L 2651 981  L 2651 1208  L 2582.49755859375 1208  Z " fill-rule="evenodd" />
    </mask>
  </defs>
  <path d="M 2632 991  L 2603 991  A 5 5 0 0 0 2598 996 L 2598 1186  A 5 5 0 0 0 2603 1191 L 2632 1191  " stroke-width="2" stroke="#e7772d" fill="none" mask="url(#clip5762)" />
  <path d="M 2630.5 987.5  A 3.5 3.5 0 0 0 2627 991 A 3.5 3.5 0 0 0 2630.5 994.5 A 3.5 3.5 0 0 0 2634 991 A 3.5 3.5 0 0 0 2630.5 987.5 Z M 2624.6 1199  L 2634 1191  L 2624.6 1183  L 2628.2 1191  L 2624.6 1199  Z " fill-rule="nonzero" fill="#e7772d" stroke="none" mask="url(#clip5762)" />
</svg>