<?xml version="1.0" encoding="utf-8"?>
<svg version="1.1" xmlns:xlink="http://www.w3.org/1999/xlink" width="200px" height="100px" xmlns="http://www.w3.org/2000/svg">
  <g transform="matrix(1 0 0 1 -3314 -1102 )">
    <path d="M 3513.5 1122  C 3513.5 1122  3513.5 1182  3513.5 1182  C 3513.5 1193.144  3468.6 1201.5  3414 1201.5  C 3359.4 1201.5  3314.5 1193.144  3314.5 1182  C 3314.5 1182  3314.5 1122  3314.5 1122  C 3314.5 1110.856  3359.4 1102.5  3414 1102.5  C 3468.6 1102.5  3513.5 1110.856  3513.5 1122  Z " fill-rule="nonzero" fill="#d1ebec" stroke="none" />
    <path d="M 3314.5 1122.3  C 3314.5 1111.212  3358.28 1102.5  3414 1102.5  C 3469.72 1102.5  3513.5 1111.212  3513.5 1122.3  C 3513.5 1122.3  3513.5 1181.7  3513.5 1181.7  C 3513.5 1192.788  3469.72 1201.5  3414 1201.5  C 3358.28 1201.5  3314.5 1192.788  3314.5 1181.7  C 3314.5 1181.7  3314.5 1122.3  3314.5 1122.3  Z " stroke-width="1" stroke="#797979" fill="none" />
    <path d="M 3513.5 1122  C 3513.5 1132.92  3469.7200000000003 1141.5  3414 1141.5  C 3358.28 1141.5  3314.5 1132.92  3314.5 1122  " stroke-width="1" stroke="#797979" fill="none" />
  </g>
</svg>