<?xml version="1.0" encoding="utf-8"?>
<svg version="1.1" xmlns:xlink="http://www.w3.org/1999/xlink" width="34px" height="34px" preserveAspectRatio="xMinYMid meet" viewBox="2707 748  34 32" xmlns="http://www.w3.org/2000/svg">
  <defs>
    <mask fill="white" id="clip5749">
      <path d="M 2708.083740234375 727  L 2739.916259765625 727  L 2739.916259765625 754  L 2708.083740234375 754  Z M 2707 706  L 2741 706  L 2741 783  L 2707 783  Z " fill-rule="evenodd" />
    </mask>
  </defs>
  <path d="M 2724 727  L 2724 718  M 2724 754  L 2724 764  " stroke-width="2" stroke="#e7772d" fill="none" />
  <path d="M 2724 716  A 3.5 3.5 0 0 0 2720.5 719.5 A 3.5 3.5 0 0 0 2724 723 A 3.5 3.5 0 0 0 2727.5 719.5 A 3.5 3.5 0 0 0 2724 716 Z M 2716 756.6  L 2724 766  L 2732 756.6  L 2724 760.2  L 2716 756.6  Z " fill-rule="nonzero" fill="#e7772d" stroke="none" mask="url(#clip5749)" />
</svg>