<?xml version="1.0" encoding="utf-8"?>
<svg version="1.1" xmlns:xlink="http://www.w3.org/1999/xlink" width="200px" height="100px" xmlns="http://www.w3.org/2000/svg">
  <g transform="matrix(1 0 0 1 -3139 -886 )">
    <path d="M 3338.5 906  C 3338.5 906  3338.5 966  3338.5 966  C 3338.5 977.144  3293.6 985.5  3239 985.5  C 3184.4 985.5  3139.5 977.144  3139.5 966  C 3139.5 966  3139.5 906  3139.5 906  C 3139.5 894.856  3184.4 886.5  3239 886.5  C 3293.6 886.5  3338.5 894.856  3338.5 906  Z " fill-rule="nonzero" fill="#f2f2f2" stroke="none" />
    <path d="M 3139.5 906.3  C 3139.5 895.212  3183.28 886.5  3239 886.5  C 3294.72 886.5  3338.5 895.212  3338.5 906.3  C 3338.5 906.3  3338.5 965.7  3338.5 965.7  C 3338.5 976.788  3294.72 985.5  3239 985.5  C 3183.28 985.5  3139.5 976.788  3139.5 965.7  C 3139.5 965.7  3139.5 906.3  3139.5 906.3  Z " stroke-width="1" stroke="#797979" fill="none" />
    <path d="M 3338.5 906  C 3338.5 916.92  3294.7200000000003 925.5  3239 925.5  C 3183.28 925.5  3139.5 916.92  3139.5 906  " stroke-width="1" stroke="#797979" fill="none" />
  </g>
</svg>