<?xml version="1.0" encoding="utf-8"?>
<svg version="1.1" xmlns:xlink="http://www.w3.org/1999/xlink" width="20px" height="21px" preserveAspectRatio="xMidYMin meet" viewBox="3045 609  18 21" xmlns="http://www.w3.org/2000/svg">
  <defs>
    <mask fill="white" id="clip5771">
      <path d="M 3038.49755859375 627  L 3069.50244140625 627  L 3069.50244140625 654  L 3038.49755859375 654  Z M 3037 606  L 3071 606  L 3071 683  L 3037 683  Z " fill-rule="evenodd" />
    </mask>
  </defs>
  <path d="M 3054 627  L 3054 618  M 3054 654  L 3054 664  " stroke-width="2" stroke="#e7772d" fill="none" />
  <path d="M 3054 616  A 3.5 3.5 0 0 0 3050.5 619.5 A 3.5 3.5 0 0 0 3054 623 A 3.5 3.5 0 0 0 3057.5 619.5 A 3.5 3.5 0 0 0 3054 616 Z M 3046 656.6  L 3054 666  L 3062 656.6  L 3054 660.2  L 3046 656.6  Z " fill-rule="nonzero" fill="#e7772d" stroke="none" mask="url(#clip5771)" />
</svg>