<?xml version="1.0" encoding="utf-8"?>
<svg version="1.1" xmlns:xlink="http://www.w3.org/1999/xlink" width="10px" height="27px" preserveAspectRatio="xMidYMin meet" viewBox="3050 339  8 27" xmlns="http://www.w3.org/2000/svg">
  <path d="M 3292 491  L 3246 491  A 5 5 0 0 1 3241 486 L 3241 349  A 5 5 0 0 0 3236 344 L 3059 344  A 5 5 0 0 0 3054 349 L 3054 364  " stroke-width="2" stroke="#e7772d" fill="none" />
  <path d="M 3290.5 487.5  A 3.5 3.5 0 0 0 3287 491 A 3.5 3.5 0 0 0 3290.5 494.5 A 3.5 3.5 0 0 0 3294 491 A 3.5 3.5 0 0 0 3290.5 487.5 Z M 3046 356.6  L 3054 366  L 3062 356.6  L 3054 360.2  L 3046 356.6  Z " fill-rule="nonzero" fill="#e7772d" stroke="none" />
</svg>