<?xml version="1.0" encoding="utf-8"?>
<svg version="1.1" xmlns:xlink="http://www.w3.org/1999/xlink" width="67px" height="10px" preserveAspectRatio="xMinYMid meet" viewBox="4091 1287  67 8" xmlns="http://www.w3.org/2000/svg">
  <path d="M 4156 1291  L 4101 1291  A 5 5 0 0 0 4096 1296 L 4096 1486  A 5 5 0 0 0 4101 1491 L 4156 1491  " stroke-width="2" stroke="#e7772d" fill="none" />
  <path d="M 4154.5 1287.5  A 3.5 3.5 0 0 0 4151 1291 A 3.5 3.5 0 0 0 4154.5 1294.5 A 3.5 3.5 0 0 0 4158 1291 A 3.5 3.5 0 0 0 4154.5 1287.5 Z M 4148.6 1499  L 4158 1491  L 4148.6 1483  L 4152.2 1491  L 4148.6 1499  Z " fill-rule="nonzero" fill="#e7772d" stroke="none" />
</svg>