<?xml version="1.0" encoding="utf-8"?>
<svg version="1.1" xmlns:xlink="http://www.w3.org/1999/xlink" width="155px" height="10px" preserveAspectRatio="xMinYMid meet" viewBox="6859 487  155 8" xmlns="http://www.w3.org/2000/svg">
  <defs>
    <mask fill="white" id="clip5788">
      <path d="M 6878.5 476  L 6989.5 476  L 6989.5 507  L 6878.5 507  Z M 6842 474  L 7019 474  L 7019 508  L 6842 508  Z " fill-rule="evenodd" />
    </mask>
  </defs>
  <path d="M 6878.5 491  L 6861 491  M 6989.5 491  L 7007 491  " stroke-width="2" stroke="#e7772d" fill="none" />
  <path d="M 7005.5 487.5  A 3.5 3.5 0 0 0 7002 491 A 3.5 3.5 0 0 0 7005.5 494.5 A 3.5 3.5 0 0 0 7009 491 A 3.5 3.5 0 0 0 7005.5 487.5 Z M 6868.4 483  L 6859 491  L 6868.4 499  L 6864.8 491  L 6868.4 483  Z " fill-rule="nonzero" fill="#e7772d" stroke="none" mask="url(#clip5788)" />
</svg>