<?xml version="1.0" encoding="utf-8"?>
<svg version="1.1" xmlns:xlink="http://www.w3.org/1999/xlink" width="20px" height="21px" preserveAspectRatio="xMidYMin meet" viewBox="5479 1109  18 21" xmlns="http://www.w3.org/2000/svg">
  <defs>
    <mask fill="white" id="clip5826">
      <path d="M 5472.083740234375 1127  L 5503.916259765625 1127  L 5503.916259765625 1154  L 5472.083740234375 1154  Z M 5471 1106  L 5505 1106  L 5505 1183  L 5471 1183  Z " fill-rule="evenodd" />
    </mask>
  </defs>
  <path d="M 5488 1127  L 5488 1118  M 5488 1154  L 5488 1164  " stroke-width="2" stroke="#e7772d" fill="none" />
  <path d="M 5488 1116  A 3.5 3.5 0 0 0 5484.5 1119.5 A 3.5 3.5 0 0 0 5488 1123 A 3.5 3.5 0 0 0 5491.5 1119.5 A 3.5 3.5 0 0 0 5488 1116 Z M 5480 1156.6  L 5488 1166  L 5496 1156.6  L 5488 1160.2  L 5480 1156.6  Z " fill-rule="nonzero" fill="#e7772d" stroke="none" mask="url(#clip5826)" />
</svg>