<?xml version="1.0" encoding="utf-8"?>
<svg version="1.1" xmlns:xlink="http://www.w3.org/1999/xlink" width="34px" height="34px" preserveAspectRatio="xMinYMid meet" viewBox="4323 475  34 32" xmlns="http://www.w3.org/2000/svg">
  <defs>
    <mask fill="white" id="clip5796">
      <path d="M 4372.5 476  L 4453.5 476  L 4453.5 507  L 4372.5 507  Z M 4321 474  L 4498 474  L 4498 508  L 4321 508  Z " fill-rule="evenodd" />
    </mask>
  </defs>
  <path d="M 4372.5 491  L 4340 491  M 4453.5 491  L 4486 491  " stroke-width="2" stroke="#e7772d" fill="none" />
  <path d="M 4484.5 487.5  A 3.5 3.5 0 0 0 4481 491 A 3.5 3.5 0 0 0 4484.5 494.5 A 3.5 3.5 0 0 0 4488 491 A 3.5 3.5 0 0 0 4484.5 487.5 Z M 4347.4 483  L 4338 491  L 4347.4 499  L 4343.8 491  L 4347.4 483  Z " fill-rule="nonzero" fill="#e7772d" stroke="none" mask="url(#clip5796)" />
</svg>