<?xml version="1.0" encoding="utf-8"?>
<svg version="1.1" xmlns:xlink="http://www.w3.org/1999/xlink" width="21px" height="20px" preserveAspectRatio="xMinYMid meet" viewBox="6522 982  21 18" xmlns="http://www.w3.org/2000/svg">
  <defs>
    <mask fill="white" id="clip5786">
      <path d="M 6556 876  L 6652 876  L 6652 907  L 6556 907  Z M 6519 774  L 6696 774  L 6696 1001  L 6519 1001  Z " fill-rule="evenodd" />
    </mask>
  </defs>
  <path d="M 6531 991  L 6599 991  A 5 5 0 0 0 6604 986 L 6604 796  A 5 5 0 0 1 6609 791 L 6677 791  " stroke-width="2" stroke="#e7772d" fill="none" mask="url(#clip5786)" />
  <path d="M 6532.5 987.5  A 3.5 3.5 0 0 0 6529 991 A 3.5 3.5 0 0 0 6532.5 994.5 A 3.5 3.5 0 0 0 6536 991 A 3.5 3.5 0 0 0 6532.5 987.5 Z M 6669.6 799  L 6679 791  L 6669.6 783  L 6673.2 791  L 6669.6 799  Z " fill-rule="nonzero" fill="#e7772d" stroke="none" mask="url(#clip5786)" />
</svg>