<?xml version="1.0" encoding="utf-8"?>
<svg version="1.1" xmlns:xlink="http://www.w3.org/1999/xlink" width="34px" height="34px" preserveAspectRatio="xMinYMid meet" viewBox="4323 675  34 32" xmlns="http://www.w3.org/2000/svg">
  <defs>
    <mask fill="white" id="clip5802">
      <path d="M 4365 676  L 4461 676  L 4461 707  L 4365 707  Z M 4321 674  L 4498 674  L 4498 708  L 4321 708  Z " fill-rule="evenodd" />
    </mask>
  </defs>
  <path d="M 4365 691  L 4340 691  M 4461 691  L 4486 691  " stroke-width="2" stroke="#e7772d" fill="none" />
  <path d="M 4484.5 687.5  A 3.5 3.5 0 0 0 4481 691 A 3.5 3.5 0 0 0 4484.5 694.5 A 3.5 3.5 0 0 0 4488 691 A 3.5 3.5 0 0 0 4484.5 687.5 Z M 4347.4 683  L 4338 691  L 4347.4 699  L 4343.8 691  L 4347.4 683  Z " fill-rule="nonzero" fill="#e7772d" stroke="none" mask="url(#clip5802)" />
</svg>