<?xml version="1.0" encoding="utf-8"?>
<svg version="1.1" xmlns:xlink="http://www.w3.org/1999/xlink" width="34px" height="34px" preserveAspectRatio="xMinYMid meet" viewBox="4323 575  34 32" xmlns="http://www.w3.org/2000/svg">
  <defs>
    <mask fill="white" id="clip5799">
      <path d="M 4357.5 576  L 4468.5 576  L 4468.5 607  L 4357.5 607  Z M 4321 574  L 4498 574  L 4498 608  L 4321 608  Z " fill-rule="evenodd" />
    </mask>
  </defs>
  <path d="M 4357.5 591  L 4340 591  M 4468.5 591  L 4486 591  " stroke-width="2" stroke="#e7772d" fill="none" />
  <path d="M 4484.5 587.5  A 3.5 3.5 0 0 0 4481 591 A 3.5 3.5 0 0 0 4484.5 594.5 A 3.5 3.5 0 0 0 4488 591 A 3.5 3.5 0 0 0 4484.5 587.5 Z M 4347.4 583  L 4338 591  L 4347.4 599  L 4343.8 591  L 4347.4 583  Z " fill-rule="nonzero" fill="#e7772d" stroke="none" mask="url(#clip5799)" />
</svg>