<?xml version="1.0" encoding="utf-8"?>
<svg version="1.1" xmlns:xlink="http://www.w3.org/1999/xlink" width="34px" height="34px" preserveAspectRatio="xMinYMid meet" viewBox="4231 1348  34 32" xmlns="http://www.w3.org/2000/svg">
  <defs>
    <mask fill="white" id="clip5808">
      <path d="M 4232.49755859375 1327  L 4263.50244140625 1327  L 4263.50244140625 1354  L 4232.49755859375 1354  Z M 4231 1306  L 4265 1306  L 4265 1383  L 4231 1383  Z " fill-rule="evenodd" />
    </mask>
  </defs>
  <path d="M 4248 1327  L 4248 1318  M 4248 1354  L 4248 1364  " stroke-width="2" stroke="#e7772d" fill="none" />
  <path d="M 4248 1316  A 3.5 3.5 0 0 0 4244.5 1319.5 A 3.5 3.5 0 0 0 4248 1323 A 3.5 3.5 0 0 0 4251.5 1319.5 A 3.5 3.5 0 0 0 4248 1316 Z M 4240 1356.6  L 4248 1366  L 4256 1356.6  L 4248 1360.2  L 4240 1356.6  Z " fill-rule="nonzero" fill="#e7772d" stroke="none" mask="url(#clip5808)" />
</svg>