<?xml version="1.0" encoding="utf-8"?>
<svg version="1.1" xmlns:xlink="http://www.w3.org/1999/xlink" width="34px" height="34px" preserveAspectRatio="xMinYMid meet" viewBox="4139 1475  34 32" xmlns="http://www.w3.org/2000/svg">
  <defs>
    <mask fill="white" id="clip5816">
      <path d="M 4080.083740234375 1228  L 4111.916259765625 1228  L 4111.916259765625 1255  L 4080.083740234375 1255  Z M 4080.083740234375 981  L 4175 981  L 4175 1508  L 4080.083740234375 1508  Z " fill-rule="evenodd" />
    </mask>
  </defs>
  <path d="M 4156 991  L 4101 991  A 5 5 0 0 0 4096 996 L 4096 1486  A 5 5 0 0 0 4101 1491 L 4156 1491  " stroke-width="2" stroke="#e7772d" fill="none" mask="url(#clip5816)" />
  <path d="M 4154.5 987.5  A 3.5 3.5 0 0 0 4151 991 A 3.5 3.5 0 0 0 4154.5 994.5 A 3.5 3.5 0 0 0 4158 991 A 3.5 3.5 0 0 0 4154.5 987.5 Z M 4148.6 1499  L 4158 1491  L 4148.6 1483  L 4152.2 1491  L 4148.6 1499  Z " fill-rule="nonzero" fill="#e7772d" stroke="none" mask="url(#clip5816)" />
</svg>