<?xml version="1.0" encoding="utf-8"?>
<svg version="1.1" xmlns:xlink="http://www.w3.org/1999/xlink" width="34px" height="34px" preserveAspectRatio="xMinYMid meet" viewBox="5563 675  34 32" xmlns="http://www.w3.org/2000/svg">
  <defs>
    <mask fill="white" id="clip5824">
      <path d="M 5605 676  L 5701 676  L 5701 707  L 5605 707  Z M 5561 674  L 5738 674  L 5738 708  L 5561 708  Z " fill-rule="evenodd" />
    </mask>
  </defs>
  <path d="M 5605 691  L 5580 691  M 5701 691  L 5726 691  " stroke-width="2" stroke="#e7772d" fill="none" />
  <path d="M 5724.5 687.5  A 3.5 3.5 0 0 0 5721 691 A 3.5 3.5 0 0 0 5724.5 694.5 A 3.5 3.5 0 0 0 5728 691 A 3.5 3.5 0 0 0 5724.5 687.5 Z M 5587.4 683  L 5578 691  L 5587.4 699  L 5583.8 691  L 5587.4 683  Z " fill-rule="nonzero" fill="#e7772d" stroke="none" mask="url(#clip5824)" />
</svg>