<?xml version="1.0" encoding="utf-8"?>
<svg version="1.1" xmlns:xlink="http://www.w3.org/1999/xlink" width="21px" height="20px" preserveAspectRatio="xMinYMid meet" viewBox="5714 582  21 18" xmlns="http://www.w3.org/2000/svg">
  <defs>
    <mask fill="white" id="clip5820">
      <path d="M 5597.5 576  L 5708.5 576  L 5708.5 607  L 5597.5 607  Z M 5561 574  L 5738 574  L 5738 608  L 5561 608  Z " fill-rule="evenodd" />
    </mask>
  </defs>
  <path d="M 5597.5 591  L 5580 591  M 5708.5 591  L 5726 591  " stroke-width="2" stroke="#e7772d" fill="none" />
  <path d="M 5724.5 587.5  A 3.5 3.5 0 0 0 5721 591 A 3.5 3.5 0 0 0 5724.5 594.5 A 3.5 3.5 0 0 0 5728 591 A 3.5 3.5 0 0 0 5724.5 587.5 Z M 5587.4 583  L 5578 591  L 5587.4 599  L 5583.8 591  L 5587.4 583  Z " fill-rule="nonzero" fill="#e7772d" stroke="none" mask="url(#clip5820)" />
</svg>