<?xml version="1.0" encoding="utf-8"?>
<svg version="1.1" xmlns:xlink="http://www.w3.org/1999/xlink" width="155px" height="10px" preserveAspectRatio="xMinYMid meet" viewBox="6859 587  155 8" xmlns="http://www.w3.org/2000/svg">
  <defs>
    <mask fill="white" id="clip5791">
      <path d="M 6893.5 576  L 6974.5 576  L 6974.5 607  L 6893.5 607  Z M 6842 574  L 7019 574  L 7019 608  L 6842 608  Z " fill-rule="evenodd" />
    </mask>
  </defs>
  <path d="M 6893.5 591  L 6861 591  M 6974.5 591  L 7007 591  " stroke-width="2" stroke="#e7772d" fill="none" />
  <path d="M 7005.5 587.5  A 3.5 3.5 0 0 0 7002 591 A 3.5 3.5 0 0 0 7005.5 594.5 A 3.5 3.5 0 0 0 7009 591 A 3.5 3.5 0 0 0 7005.5 587.5 Z M 6868.4 583  L 6859 591  L 6868.4 599  L 6864.8 591  L 6868.4 583  Z " fill-rule="nonzero" fill="#e7772d" stroke="none" mask="url(#clip5791)" />
</svg>