<?xml version="1.0" encoding="utf-8"?>
<svg version="1.1" xmlns:xlink="http://www.w3.org/1999/xlink" width="34px" height="34px" preserveAspectRatio="xMinYMid meet" viewBox="4231 1248  34 32" xmlns="http://www.w3.org/2000/svg">
  <defs>
    <mask fill="white" id="clip5811">
      <path d="M 4232.49755859375 1227  L 4263.50244140625 1227  L 4263.50244140625 1254  L 4232.49755859375 1254  Z M 4231 1206  L 4265 1206  L 4265 1283  L 4231 1283  Z " fill-rule="evenodd" />
    </mask>
  </defs>
  <path d="M 4248 1227  L 4248 1218  M 4248 1254  L 4248 1264  " stroke-width="2" stroke="#e7772d" fill="none" />
  <path d="M 4248 1216  A 3.5 3.5 0 0 0 4244.5 1219.5 A 3.5 3.5 0 0 0 4248 1223 A 3.5 3.5 0 0 0 4251.5 1219.5 A 3.5 3.5 0 0 0 4248 1216 Z M 4240 1256.6  L 4248 1266  L 4256 1256.6  L 4248 1260.2  L 4240 1256.6  Z " fill-rule="nonzero" fill="#e7772d" stroke="none" mask="url(#clip5811)" />
</svg>