<?xml version="1.0" encoding="utf-8"?>
<svg version="1.1" xmlns:xlink="http://www.w3.org/1999/xlink" width="10px" height="55px" preserveAspectRatio="xMidYMin meet" viewBox="4244 1016  8 55" xmlns="http://www.w3.org/2000/svg">
  <defs>
    <mask fill="white" id="clip5803">
      <path d="M 4232.49755859375 1027  L 4263.50244140625 1027  L 4263.50244140625 1054  L 4232.49755859375 1054  Z M 4231 1006  L 4265 1006  L 4265 1083  L 4231 1083  Z " fill-rule="evenodd" />
    </mask>
  </defs>
  <path d="M 4248 1027  L 4248 1018  M 4248 1054  L 4248 1064  " stroke-width="2" stroke="#e7772d" fill="none" />
  <path d="M 4248 1016  A 3.5 3.5 0 0 0 4244.5 1019.5 A 3.5 3.5 0 0 0 4248 1023 A 3.5 3.5 0 0 0 4251.5 1019.5 A 3.5 3.5 0 0 0 4248 1016 Z M 4240 1056.6  L 4248 1066  L 4256 1056.6  L 4248 1060.2  L 4240 1056.6  Z " fill-rule="nonzero" fill="#e7772d" stroke="none" mask="url(#clip5803)" />
</svg>