<?xml version="1.0" encoding="utf-8"?>
<svg version="1.1" xmlns:xlink="http://www.w3.org/1999/xlink" width="10px" height="30px" preserveAspectRatio="xMidYMin meet" viewBox="5484 1416  8 30" xmlns="http://www.w3.org/2000/svg">
  <defs>
    <mask fill="white" id="clip5828">
      <path d="M 5474.49755859375 1427  L 5505.50244140625 1427  L 5505.50244140625 1454  L 5474.49755859375 1454  Z M 5474.49755859375 1406  L 5509 1406  L 5509 1483  L 5474.49755859375 1483  Z " fill-rule="evenodd" />
    </mask>
  </defs>
  <path d="M 5488 1418  L 5488 1439  A 2 2 0 0 0 5490 1441 A 2 2 0 0 1 5492 1443 L 5492 1464  " stroke-width="2" stroke="#e7772d" fill="none" mask="url(#clip5828)" />
  <path d="M 5488 1416  A 3.5 3.5 0 0 0 5484.5 1419.5 A 3.5 3.5 0 0 0 5488 1423 A 3.5 3.5 0 0 0 5491.5 1419.5 A 3.5 3.5 0 0 0 5488 1416 Z M 5484 1456.6  L 5492 1466  L 5500 1456.6  L 5492 1460.2  L 5484 1456.6  Z " fill-rule="nonzero" fill="#e7772d" stroke="none" mask="url(#clip5828)" />
</svg>