<?xml version="1.0" encoding="utf-8"?>
<svg version="1.1" xmlns:xlink="http://www.w3.org/1999/xlink" width="54px" height="10px" preserveAspectRatio="xMinYMid meet" viewBox="5578 1387  54 8" xmlns="http://www.w3.org/2000/svg">
  <defs>
    <mask fill="white" id="clip5841">
      <path d="M 5611.083740234375 1228  L 5642.916259765625 1228  L 5642.916259765625 1255  L 5611.083740234375 1255  Z M 5561 1074  L 5642.916259765625 1074  L 5642.916259765625 1401  L 5561 1401  Z " fill-rule="evenodd" />
    </mask>
  </defs>
  <path d="M 5580 1391  L 5622 1391  A 5 5 0 0 0 5627 1386 L 5627 1294  A 3 3 0 0 0 5630 1291 A 3 3 0 0 0 5627 1288 L 5627 1096  A 5 5 0 0 0 5622 1091 L 5580 1091  " stroke-width="2" stroke="#e7772d" fill="none" mask="url(#clip5841)" />
  <path d="M 5581.5 1387.5  A 3.5 3.5 0 0 0 5578 1391 A 3.5 3.5 0 0 0 5581.5 1394.5 A 3.5 3.5 0 0 0 5585 1391 A 3.5 3.5 0 0 0 5581.5 1387.5 Z M 5587.4 1083  L 5578 1091  L 5587.4 1099  L 5583.8 1091  L 5587.4 1083  Z " fill-rule="nonzero" fill="#e7772d" stroke="none" mask="url(#clip5841)" />
</svg>