<?xml version="1.0" encoding="utf-8"?>
<svg version="1.1" xmlns:xlink="http://www.w3.org/1999/xlink" width="54px" height="10px" preserveAspectRatio="xMinYMid meet" viewBox="5578 1087  54 8" xmlns="http://www.w3.org/2000/svg">
  <path d="M 5580 1191  L 5622 1191  A 5 5 0 0 0 5627 1186 L 5627 1096  A 5 5 0 0 0 5622 1091 L 5580 1091  " stroke-width="2" stroke="#e7772d" fill="none" />
  <path d="M 5581.5 1187.5  A 3.5 3.5 0 0 0 5578 1191 A 3.5 3.5 0 0 0 5581.5 1194.5 A 3.5 3.5 0 0 0 5585 1191 A 3.5 3.5 0 0 0 5581.5 1187.5 Z M 5587.4 1083  L 5578 1091  L 5587.4 1099  L 5583.8 1091  L 5587.4 1083  Z " fill-rule="nonzero" fill="#e7772d" stroke="none" />
</svg>