<?xml version="1.0" encoding="utf-8"?>
<svg version="1.1" xmlns:xlink="http://www.w3.org/1999/xlink" width="10px" height="55px" preserveAspectRatio="xMidYMin meet" viewBox="5484 1216  8 55" xmlns="http://www.w3.org/2000/svg">
  <defs>
    <mask fill="white" id="clip5833">
      <path d="M 5472.49755859375 1227  L 5503.50244140625 1227  L 5503.50244140625 1254  L 5472.49755859375 1254  Z M 5471 1206  L 5505 1206  L 5505 1283  L 5471 1283  Z " fill-rule="evenodd" />
    </mask>
  </defs>
  <path d="M 5488 1227  L 5488 1218  M 5488 1254  L 5488 1264  " stroke-width="2" stroke="#e7772d" fill="none" />
  <path d="M 5488 1216  A 3.5 3.5 0 0 0 5484.5 1219.5 A 3.5 3.5 0 0 0 5488 1223 A 3.5 3.5 0 0 0 5491.5 1219.5 A 3.5 3.5 0 0 0 5488 1216 Z M 5480 1256.6  L 5488 1266  L 5496 1256.6  L 5488 1260.2  L 5480 1256.6  Z " fill-rule="nonzero" fill="#e7772d" stroke="none" mask="url(#clip5833)" />
</svg>