<?xml version="1.0" encoding="utf-8"?>
<svg version="1.1" xmlns:xlink="http://www.w3.org/1999/xlink" width="77px" height="10px" preserveAspectRatio="xMinYMid meet" viewBox="5321 1387  77 8" xmlns="http://www.w3.org/2000/svg">
  <defs>
    <mask fill="white" id="clip5838">
      <path d="M 5310.49755859375 1228  L 5341.50244140625 1228  L 5341.50244140625 1255  L 5310.49755859375 1255  Z M 5310.49755859375 1081  L 5415 1081  L 5415 1408  L 5310.49755859375 1408  Z " fill-rule="evenodd" />
    </mask>
  </defs>
  <path d="M 5396 1091  L 5331 1091  A 5 5 0 0 0 5326 1096 L 5326 1386  A 5 5 0 0 0 5331 1391 L 5396 1391  " stroke-width="2" stroke="#e7772d" fill="none" mask="url(#clip5838)" />
  <path d="M 5394.5 1087.5  A 3.5 3.5 0 0 0 5391 1091 A 3.5 3.5 0 0 0 5394.5 1094.5 A 3.5 3.5 0 0 0 5398 1091 A 3.5 3.5 0 0 0 5394.5 1087.5 Z M 5388.6 1399  L 5398 1391  L 5388.6 1383  L 5392.2 1391  L 5388.6 1399  Z " fill-rule="nonzero" fill="#e7772d" stroke="none" mask="url(#clip5838)" />
</svg>