<?xml version="1.0" encoding="utf-8"?>
<svg version="1.1" xmlns:xlink="http://www.w3.org/1999/xlink" width="17px" height="20px" xmlns="http://www.w3.org/2000/svg">
  <g transform="matrix(1 0 0 1 -342 -170 )">
    <path d="M 16.66384244736842 12.065677151162792  C 16.890699189692985 11.061242984496127  16.945372885964915 10.036931298449614  16.82629825 9.021299069767442  C 16.711285942982457 8.040055329457363  16.437563369517544 7.091766395348838  16.0127706875 6.202800000000001  C 15.159421128289475 4.4170595930232555  13.733991576754386 2.9792918410852716  11.999023881578948 2.1543752131782945  C 11.624656219298249 1.9763688178294574  11.182384349780703 2.147594379844961  11.01117030372807 2.536833217054264  C 10.839974898026316 2.926033294573643  11.0046482127193 3.3858702131782947  11.379015875 3.563895968992248  C 14.347738364035088 4.9754122286821705  15.959979051535088 8.401899593023256  15.212566800438596 11.711388643410851  C 14.639648253289472 14.247747189922482  12.804203195175438 16.233115135658917  10.437133689692981 16.950410368217057  L 10.432232805921052 15.578300387596897  L 6.763001140350877 17.800202945736434  L 10.448016243421051 19.993548527131786  L 10.442873109649122 18.551053565891472  C 11.848326449561405 18.20393335271318  13.142177604166667 17.486521899224808  14.209805601973683 16.457269903100777  C 15.4325660372807 15.278432868217056  16.28116377960526 13.759857034883723  16.66384244736842 12.065677151162792  Z M 10.251887839912282 2.34861684108527  L 6.566984541666666 0.15501937984496122  L 6.572053132675438 1.5975337209302327  C 5.166487987938596 1.9446539341085272  3.8725436502192974 2.6621041472868217  2.8048411469298236 3.691453003875969  C 1.582024809210526 4.870348158914728  0.7334456885964905 6.388962751937984  0.35080430153508696 8.08323949612403  C 0.2019144243421045 8.742820193798448  0.12722723574561323 9.410905988372093  0.12722723574561323 10.079573003875968  C 0.12722723574561323 10.428301240310077  0.1475575021929817 10.777184457364342  0.18821805372806946 11.125040872093024  C 0.3028949276315783 12.105490290697674  0.5760025745614028 13.053120523255814  0.9999194396929816 13.941583178294572  C 1.8513869013157884 15.726083662790698  3.274282166666666 17.16387079457364  5.006417404605264 17.990046705426355  C 5.380561457236841 18.1685180620155  5.82305693640351 17.997834961240308  5.99469958004386 17.608828643410853  C 6.1663794857456145 17.21974480620155  6.002172030701754 16.75979164728682  5.628009337719299 16.58132027131783  C 2.664877201754386 15.167982868217052  1.0559348125000003 11.742967906976743  1.8020985701754386 8.437450503875967  C 2.3749612149122803 5.900956337209301  4.210462175438597 3.9154915310077505  6.5776807664473695 3.198196298449611  L 6.5825257478070185 4.570325639534882  L 10.251887839912282 2.34861684108527  Z " fill-rule="nonzero" fill="#000000" stroke="none" transform="matrix(1 0 0 1 342 170 )" />
  </g>
</svg>