<?xml version="1.0" encoding="utf-8"?>
<svg version="1.1" xmlns:xlink="http://www.w3.org/1999/xlink" width="554px" height="12px" preserveAspectRatio="xMinYMid meet" viewBox="939 903  554 10" xmlns="http://www.w3.org/2000/svg">
  <path d="M 1487.5 788  L 1487.5 903  A 5 5 0 0 1 1482.5 908.5 L 950 908.5  A 5 5 0 0 0 945.5 913.5 L 945.5 1029  " stroke-width="3" stroke="#e7772d" fill="none" />
  <path d="M 1487.5 785  A 4 4 0 0 0 1483.5 789 A 4 4 0 0 0 1487.5 793 A 4 4 0 0 0 1491.5 789 A 4 4 0 0 0 1487.5 785 Z M 935.5 1019.9  L 945.5 1032  L 955.5 1019.9  L 945.5 1024.8  L 935.5 1019.9  Z " fill-rule="nonzero" fill="#e7772d" stroke="none" />
</svg>