<?xml version="1.0" encoding="utf-8"?>
<svg version="1.1" xmlns:xlink="http://www.w3.org/1999/xlink" width="12px" height="60px" preserveAspectRatio="xMidYMin meet" viewBox="1271 388  10 60" xmlns="http://www.w3.org/2000/svg">
  <path d="M 920 394.5  L 1271 394.5  A 5 5 0 0 1 1276.5 399.5 L 1276.5 437  A 5 5 0 0 0 1281.5 442.5 L 1632 442.5  " stroke-width="3" stroke="#e7772d" fill="none" />
  <path d="M 921 390.5  A 4 4 0 0 0 917 394.5 A 4 4 0 0 0 921 398.5 A 4 4 0 0 0 925 394.5 A 4 4 0 0 0 921 390.5 Z M 1622.9 452.5  L 1635 442.5  L 1622.9 432.5  L 1627.8 442.5  L 1622.9 452.5  Z " fill-rule="nonzero" fill="#e7772d" stroke="none" />
</svg>