<?xml version="1.0" encoding="utf-8"?>
<svg version="1.1" xmlns:xlink="http://www.w3.org/1999/xlink" width="9px" height="11px" xmlns="http://www.w3.org/2000/svg">
  <g transform="matrix(1 0 0 1 -185 -25 )">
    <path d="M 2.059776 6.100000000000001  L 3.792384 7.911199999999999  C 3.900275838311644 8.023703895267166  3.960879443895947 8.176221977948755  3.960879443895947 8.335244110838335  C 3.960879443895947 8.666614960736812  3.702995459798484 8.935244110838335  3.3848794438959473 8.935244110838335  C 3.2611041815852744 8.935244110838335  3.140621177497058 8.8937117319481  3.04128 8.816799999999999  L 2.9759999999999995 8.7584  L 0.263424 5.9232  C 0.24223101719230783 5.9010733908835915  0.22271655846384078 5.877268746875456  0.20505599999999957 5.852  L 0.26188799999999973 5.9224  C 0.08593074384319294 5.7366626506773  0.0449863043820018 5.453941813173025  0.1605119999999998 5.2224  C 0.18805695598069164 5.168163038887475  0.22326564546329067 5.1185429495431265  0.2649599999999998 5.0752  L 0.2695679999999997 5.070399999999999  L 2.9783040000000005 2.273599999999999  C 3.0863061473443696 2.161225065045766  3.2327151632556235 2.0981041744990643  3.3853668738850664 2.0981041744990643  C 3.703482889787603 2.0981041744990643  3.961366873885066 2.366733324600589  3.961366873885066 2.698104174499065  C 3.961366873885066 2.8283953663752692  3.920652168777662 2.9551459421606836  3.8453759999999995 3.059199999999999  L 3.7893119999999993 3.1255999999999986  L 2.0705279999999995 4.9  L 7.776 4.9  L 7.776 0.7000000000000002  C 7.77609748206558 0.3687009812721924  8.033952900026357 0.10018390120308897  8.351999972944277 0.10018390120308897  C 8.639776940907254 0.10018390120308897  8.88339812813932 0.32143014259092784  8.922623999999999 0.6184000000000003  L 8.928 0.7000000000000002  L 8.928 10.3  C 8.927902517934418 10.63129901872781  8.670047099973644 10.899816098796911  8.352000027055723 10.899816098796911  C 8.064223059092747 10.899816098796911  7.820601871860681 10.678569857409073  7.781376000000001 10.3816  L 7.776 10.3  L 7.776 6.100000000000001  L 2.059776 6.100000000000001  Z " fill-rule="nonzero" fill="#747677" stroke="none" transform="matrix(1 0 0 1 185 25 )" />
  </g>
</svg>