<?xml version="1.0" encoding="utf-8"?>
<svg version="1.1" xmlns:xlink="http://www.w3.org/1999/xlink" width="14px" height="14px" xmlns="http://www.w3.org/2000/svg">
  <g transform="matrix(1 0 0 1 -153 -23 )">
    <path d="M 6.284956140350877 5.075  C 6.284956140350877 5.7530088495575225  5.738311403508772 6.304491150442478  5.06640350877193 6.304491150442478  L 1.3385964912280701 6.304491150442478  C 0.666535087719298 6.304491150442478  0.11989035087719281 5.753008849557522  0.11989035087719281 5.075  L 0.11989035087719281 1.3143584070796461  C 0.11989035087719281 0.6365044247787609  0.666535087719298 0.0848672566371682  1.3385964912280701 0.0848672566371682  L 5.066249999999999 0.0848672566371682  C 5.738311403508772 0.0848672566371682  6.284956140350877 0.636349557522124  6.284956140350877 1.3143584070796461  L 6.284956140350877 5.075  Z M 1.6970394736842107 1.6759734513274336  L 1.6970394736842107 4.713539823008849  L 4.7078070175438596 4.713539823008849  L 4.7078070175438596 1.6759734513274336  L 1.6970394736842107 1.6759734513274336  Z M 13.900526315789474 5.075  C 13.900679824561404 5.7530088495575225  13.353881578947368 6.304491150442478  12.681973684210528 6.304491150442478  L 8.954166666666666 6.304491150442478  C 8.282105263157893 6.304491150442478  7.735460526315789 5.753008849557522  7.735460526315789 5.075  L 7.735460526315789 1.3143584070796461  C 7.735460526315789 0.6365044247787609  8.282105263157893 0.0848672566371682  8.954166666666666 0.0848672566371682  L 12.681820175438597 0.0848672566371682  C 13.353881578947368 0.0848672566371682  13.900526315789474 0.636349557522124  13.900526315789474 1.3143584070796461  L 13.900526315789474 5.075  Z M 9.312609649122807 1.6759734513274336  L 9.312609649122807 4.713539823008849  L 12.323377192982456 4.713539823008849  L 12.323377192982456 1.6759734513274336  L 9.312609649122807 1.6759734513274336  Z M 6.284956140350877 12.763694690265488  C 6.284956140350877 13.441548672566373  5.738311403508772 13.993185840707966  5.06640350877193 13.993185840707964  L 1.3385964912280701 13.993185840707964  C 0.666535087719298 13.993185840707964  0.11989035087719281 13.441703539823008  0.11989035087719281 12.763694690265487  L 0.11989035087719281 9.003053097345134  C 0.11989035087719281 8.32519911504425  0.666535087719298 7.773561946902655  1.3385964912280701 7.773561946902655  L 5.066249999999999 7.773561946902655  C 5.738311403508772 7.773561946902655  6.284956140350877 8.325044247787611  6.284956140350877 9.003053097345134  L 6.284956140350877 12.763694690265488  Z M 1.6970394736842107 9.36466814159292  L 1.6970394736842107 12.402079646017699  L 4.7078070175438596 12.402079646017699  L 4.7078070175438596 9.36466814159292  L 1.6970394736842107 9.36466814159292  Z M 13.900526315789474 12.763694690265488  C 13.900679824561404 13.441548672566373  13.353881578947368 13.993185840707966  12.681973684210528 13.993185840707964  L 8.954166666666666 13.993185840707964  C 8.282105263157893 13.993185840707964  7.735460526315789 13.441703539823008  7.735460526315789 12.763694690265487  L 7.735460526315789 9.003053097345134  C 7.735460526315789 8.32519911504425  8.282105263157893 7.773561946902655  8.954166666666666 7.773561946902655  L 12.681820175438597 7.773561946902655  C 13.353881578947368 7.773561946902655  13.900526315789474 8.325044247787611  13.900526315789474 9.003053097345134  L 13.900526315789474 12.763694690265488  Z M 9.312609649122807 9.36466814159292  L 9.312609649122807 12.402079646017699  L 12.323377192982456 12.402079646017699  L 12.323377192982456 9.36466814159292  L 9.312609649122807 9.36466814159292  Z " fill-rule="nonzero" fill="#747677" stroke="none" transform="matrix(1 0 0 1 153 23 )" />
  </g>
</svg>