<?xml version="1.0" encoding="utf-8"?>
<svg version="1.1" xmlns:xlink="http://www.w3.org/1999/xlink" width="18px" height="18px" xmlns="http://www.w3.org/2000/svg">
  <g transform="matrix(1 0 0 1 -1964 -1137 )">
    <path d="M 17.43273507254464 9  C 17.43273507254464 7.861841517857143  17.209706333705356 6.7574330357142856  16.76982631138393 5.7174169921875  C 16.345069754464287 4.713184988839284  15.737117745535715 3.8114083426339285  14.962864118303571 3.0371547154017855  C 14.188610491071428 2.2629010881696425  13.286833844866072 1.6549490792410713  12.282583007812502 1.230192522321428  C 11.242566964285713 0.7902936662946425  10.138158482142856 0.5672460937499997  9 0.5672460937499997  C 7.861841517857143 0.5672460937499997  6.7574330357142856 0.7902936662946427  5.7174169921875 1.2301736886160715  C 4.713184988839284 1.6549302455357142  3.8114083426339285 2.262882254464285  3.0371547154017855 3.037135881696428  C 2.2629010881696425 3.8113895089285723  1.6549490792410713 4.713166155133928  1.230192522321428 5.717398158482142  C 0.7902936662946425 6.7574330357142856  0.5672460937499997 7.861841517857143  0.5672460937499997 9  C 0.5672460937499997 10.138158482142856  0.7902936662946425 11.242566964285713  1.2301736886160708 12.282583007812502  C 1.654930245535714 13.286815011160714  2.262882254464285 14.188591657366072  3.037135881696428 14.962864118303571  C 3.8113895089285705 15.737117745535715  4.713166155133928 16.34508858816964  5.717398158482142 16.76982631138393  C 6.757414202008929 17.209706333705356  7.861841517857143 17.43275390625  8.999981166294644 17.43275390625  C 10.138120814732144 17.43275390625  11.242548130580358 17.209706333705356  12.282564174107144 16.76982631138393  C 13.28679617745536 16.345069754464287  14.188572823660714 15.737117745535715  14.962845284598217 14.962864118303571  C 15.737117745535715 14.188610491071428  16.345069754464287 13.286833844866072  16.76980747767857 12.282583007812502  C 17.2096875 11.242566964285713  17.43273507254464 10.138158482142856  17.43273507254464 9  Z M 16.236888950892855 9  C 16.236888950892855 12.990428989955355  12.990428989955355 16.236888950892855  9 16.236888950892855  C 5.009571010044643 16.236888950892855  1.7631110491071427 12.990428989955355  1.7631110491071427 8.999999999999998  C 1.7631110491071427 5.009571010044642  5.009571010044643 1.763111049107143  9 1.763111049107143  C 12.990428989955355 1.763111049107143  16.236888950892855 5.009571010044643  16.236888950892855 9  Z M 13.821428571428573 9  C 13.821428571428573 8.667151925223214  13.58532924107143 8.397321428571429  13.294084821428573 8.397321428571429  L 9.602678571428573 8.397321428571429  L 9.602678571428573 4.705915178571429  C 9.602678571428573 4.414670758928572  9.332848074776786 4.178571428571429  9 4.178571428571429  C 8.667151925223214 4.178571428571429  8.397321428571429 4.414670758928572  8.397321428571429 4.705915178571429  L 8.397321428571429 8.397321428571429  L 4.705915178571429 8.397321428571429  C 4.414670758928572 8.397321428571429  4.178571428571429 8.667151925223214  4.178571428571429 9  C 4.178571428571429 9.332848074776786  4.414670758928572 9.602678571428573  4.705915178571429 9.602678571428573  L 8.397321428571429 9.602678571428573  L 8.397321428571429 13.294084821428573  C 8.397321428571429 13.58532924107143  8.667151925223214 13.821428571428573  9 13.821428571428573  C 9.332848074776786 13.821428571428573  9.602678571428573 13.58532924107143  9.602678571428573 13.294084821428573  L 9.602678571428573 9.602678571428573  L 13.294084821428573 9.602678571428573  C 13.58532924107143 9.602678571428573  13.821428571428573 9.332848074776786  13.821428571428573 9  Z " fill-rule="nonzero" fill="#e7772d" stroke="none" transform="matrix(1 0 0 1 1964 1137 )" />
  </g>
</svg>