<?xml version="1.0" encoding="utf-8"?>
<svg version="1.1" xmlns:xlink="http://www.w3.org/1999/xlink" width="18px" height="18px" xmlns="http://www.w3.org/2000/svg">
  <g transform="matrix(1 0 0 1 -2329 -1091 )">
    <path d="M 17.888888895833333 9  C 17.888888895833333 13.909111124999999  13.909111124999999 17.888888895833333  9 17.888888895833333  C 4.090888895833333 17.888888895833333  0.11111110416666659 13.909111104166666  0.11111110416666659 9  C 0.11111110416666659 4.090888895833333  4.090888895833333 0.11111110416666659  9 0.11111110416666659  C 13.909111104166666 0.11111110416666659  17.888888895833333 4.090888875  17.888888895833333 9  Z M 1.4444444375 9  C 1.4444444375 13.172888895833333  4.827111104166666 16.5555555625  9 16.5555555625  C 13.172888895833333 16.5555555625  16.5555555625 13.172888895833333  16.5555555625 8.999999999999998  C 16.5555555625 4.827111104166664  13.172888895833333 1.4444444375  9 1.4444444375  C 4.827111104166666 1.4444444375  1.4444444375 4.827111104166666  1.4444444375 9  Z M 5.666666666666667 8.333333333333334  L 12.333333333333334 8.333333333333334  C 12.701523166553862 8.333333333333334  13 8.631810166779472  13 9  C 13 9.36818983322053  12.701523166553862 9.666666666666668  12.333333333333334 9.666666666666668  L 5.666666666666667 9.666666666666668  C 5.298476833446138 9.666666666666668  5 9.36818983322053  5 9  C 5 8.631810166779472  5.298476833446138 8.333333333333334  5.666666666666667 8.333333333333334  Z " fill-rule="nonzero" fill="#999999" stroke="none" transform="matrix(1 0 0 1 2329 1091 )" />
  </g>
</svg>