<?xml version="1.0" encoding="utf-8"?>
<svg version="1.1" xmlns:xlink="http://www.w3.org/1999/xlink" width="16px" height="16px" xmlns="http://www.w3.org/2000/svg">
  <g transform="matrix(1 0 0 1 -441 -1019 )">
    <path d="M 13.128571428571428 4.015384615384614  L 11.114285714285714 1.8461538461538463  C 11 1.723076923076923  11 1.5384615384615385  11.114285714285714 1.4153846153846152  L 12.328571428571427 0.10769230769230759  C 12.442857142857141 -0.015384615384615604  12.614285714285714 -0.015384615384615604  12.728571428571428 0.10769230769230759  L 14.742857142857142 2.2769230769230764  C 14.857142857142856 2.3999999999999995  14.857142857142856 2.5846153846153843  14.742857142857142 2.707692307692307  L 13.528571428571427 4.015384615384614  C 13.414285714285713 4.138461538461537  13.242857142857142 4.138461538461537  13.128571428571428 4.015384615384614  Z M 2.2857142857142856 13.538461538461538  L 5.714285714285714 12.461538461538462  L 12.357142857142858 5.3076923076923075  C 12.457142857142857 5.199999999999999  12.442857142857141 5.015384615384615  12.328571428571427 4.907692307692307  L 10.314285714285715 2.7230769230769236  C 10.200000000000001 2.600000000000001  10.028571428571428 2.584615384615385  9.942857142857145 2.6923076923076925  L 3.2857142857142856 9.846153846153847  L 2.2857142857142856 13.538461538461538  Z M 16 14.76923076923077  L 0 14.76923076923077  L 0 16  L 16 16  L 16 14.76923076923077  Z " fill-rule="nonzero" fill="#7f7f7f" stroke="none" transform="matrix(1 0 0 1 441 1019 )" />
  </g>
</svg>