<?xml version="1.0" encoding="utf-8"?>
<svg version="1.1" xmlns:xlink="http://www.w3.org/1999/xlink" width="21px" height="18px" xmlns="http://www.w3.org/2000/svg">
  <g transform="matrix(1 0 0 1 -2398 -1091 )">
    <path d="M 11.165774336283187 1.3164843749999997  C 11.165774336283187 0.90234375  10.833119469026549 0.5664843749999997  10.422643805309734 0.5664843749999997  L 0.9161946902654866 0.5664843749999997  C 0.5057190265486725 0.5664843749999997  0.17283185840707957 0.90234375  0.17283185840707957 1.3164843749999997  C 0.17283185840707957 1.7306249999999994  0.5057190265486725 2.066484375  0.9161946902654866 2.066484375  L 10.42241150442478 2.066484375  C 10.832887168141594 2.066484375  11.165774336283187 1.7306249999999994  11.165774336283187 1.3164843749999997  Z M 17.782632743362832 0.7734375  C 17.782632743362832 0.3592968749999996  17.44974557522124 0.0234375  17.039269911504423 0.0234375  C 16.628794247787614 0.0234375  16.295907079646017 0.3592968750000003  16 0.7734375  L 16 15.19265625  C 16.295907079646017 15.606796875  16.628794247787614 15.94265625  17.039269911504423 15.94265625  C 17.44974557522124 15.94265625  17.782632743362832 15.606796875  17.782632743362832 15.19265625  L 17.782632743362832 0.7734375  Z M 11.177621681415932 8.969296875000001  C 11.177621681415932 8.555156250000001  10.844734513274338 8.219296875000001  10.434258849557523 8.219296875  L 0.9161946902654866 8.219296875  C 0.5057190265486725 8.219296875  0.17283185840707957 8.55515625  0.17283185840707957 8.969296875  C 0.17283185840707957 9.383437500000001  0.5057190265486725 9.719296875000001  0.9161946902654866 9.719296875000001  L 10.434258849557523 9.719296875000001  C 10.844734513274338 9.719296875000001  11.177621681415932 9.383437500000001  11.177621681415932 8.969296875000001  Z M 11.177389380530975 16.669218750000002  C 11.177621681415932 16.254843750000003  10.844734513274338 15.91921875  10.434258849557523 15.91921875  L 0.9278097345132742 15.91921875  C 0.5173340707964601 15.91921875  0.1844469026548672 16.255078125  0.1844469026548672 16.669218750000002  C 0.1844469026548672 17.083359375  0.5173340707964601 17.41921875  0.9278097345132742 17.41921875  L 10.434026548672568 17.41921875  C 10.844502212389383 17.41921875  11.177389380530975 17.083359375  11.177389380530975 16.669218750000002  Z M 17.383307522123893 17.774296874999997  C 17.18561946902655 17.988749999999996  16.86899336283186 17.988046875  16.671769911504423 17.773125  L 13.367057522123892 14.170078125  C 13.047643805309733 13.821796875  13.043694690265486 13.25296875  13.358694690265486 12.899296875000001  C 13.673462389380528 12.545859375  14.187776548672566 12.541640625  14.507190265486726 12.889921875  L 17.03067477876106 15.641015625000001  L 19.57320796460177 12.885937499999999  C 19.89355088495575 12.538593749999997  20.407865044247785 12.5446875  20.721703539823007 12.899062499999998  C 21.035542035398233 13.253671874999998  21.030199115044244 13.822499999999996  20.709856194690264 14.169609374999999  L 17.383307522123893 17.774296874999997  Z " fill-rule="nonzero" fill="#999999" stroke="none" transform="matrix(1 0 0 1 2398 1091 )" />
  </g>
</svg>