<?xml version="1.0" encoding="utf-8"?>
<svg version="1.1" xmlns:xlink="http://www.w3.org/1999/xlink" width="12px" height="12px" xmlns="http://www.w3.org/2000/svg">
  <g transform="matrix(1 0 0 1 -687 -1838 )">
    <path d="M 693 1838  C 696.36 1838  699 1840.64  699 1844  C 699 1847.36  696.36 1850  693 1850  C 689.64 1850  687 1847.36  687 1844  C 687 1840.64  689.64 1838  693 1838  Z " fill-rule="nonzero" fill="#999999" stroke="none" />
    <path d="M 693 1838.5  C 696.08 1838.5  698.5 1840.92  698.5 1844  C 698.5 1847.08  696.08 1849.5  693 1849.5  C 689.92 1849.5  687.5 1847.08  687.5 1844  C 687.5 1840.92  689.92 1838.5  693 1838.5  Z " stroke-width="1" stroke="#797979" fill="none" />
  </g>
</svg>