<?xml version="1.0" encoding="utf-8"?>
<svg version="1.1" xmlns:xlink="http://www.w3.org/1999/xlink" width="171px" height="10px" preserveAspectRatio="xMinYMid meet" viewBox="628 822  171 8" xmlns="http://www.w3.org/2000/svg">
  <path d="M 633 302  L 633 821  A 5 5 0 0 0 638 826 L 789 826  A 5 5 0 0 1 794 831 L 794 990  " stroke-width="2" stroke="#0066ff" fill="none" />
  <path d="M 633 300  A 3.5 3.5 0 0 0 629.5 303.5 A 3.5 3.5 0 0 0 633 307 A 3.5 3.5 0 0 0 636.5 303.5 A 3.5 3.5 0 0 0 633 300 Z M 786 982.6  L 794 992  L 802 982.6  L 794 986.2  L 786 982.6  Z " fill-rule="nonzero" fill="#0066ff" stroke="none" />
</svg>