<?xml version="1.0" encoding="utf-8"?>
<svg version="1.1" xmlns:xlink="http://www.w3.org/1999/xlink" width="34px" height="34px" preserveAspectRatio="xMinYMid meet" viewBox="4171 1541  34 32" xmlns="http://www.w3.org/2000/svg">
  <path d="M 3137 2197  L 4153 2197  A 5 5 0 0 0 4158 2192 L 4158 1562  A 5 5 0 0 1 4163 1557 L 4188 1557  " stroke-width="2" stroke="#0066ff" fill="none" />
  <path d="M 3138.5 2193.5  A 3.5 3.5 0 0 0 3135 2197 A 3.5 3.5 0 0 0 3138.5 2200.5 A 3.5 3.5 0 0 0 3142 2197 A 3.5 3.5 0 0 0 3138.5 2193.5 Z M 4180.6 1565  L 4190 1557  L 4180.6 1549  L 4184.2 1557  L 4180.6 1565  Z " fill-rule="nonzero" fill="#0066ff" stroke="none" />
</svg>