<?xml version="1.0" encoding="utf-8"?>
<svg version="1.1" xmlns:xlink="http://www.w3.org/1999/xlink" width="71px" height="101px" xmlns="http://www.w3.org/2000/svg">
  <defs>
    <linearGradient gradientUnits="userSpaceOnUse" x1="281" y1="303" x2="281" y2="403" id="LinearGradient6134">
      <stop id="Stop6135" stop-color="#ffffff" offset="0" />
      <stop id="Stop6136" stop-color="#f2f2f2" offset="0" />
      <stop id="Stop6137" stop-color="#e4e4e4" offset="1" />
      <stop id="Stop6138" stop-color="#ffffff" offset="1" />
    </linearGradient>
  </defs>
  <g transform="matrix(1 0 0 1 -246 -303 )">
    <path d="M 281 303.5  C 288.56 303.5  294.5 309.44  294.5 317  C 294.5 324.56  288.56 330.5  281 330.5  C 273.44 330.5  267.5 324.56  267.5 317  C 267.5 309.44  273.44 303.5  281 303.5  Z " fill-rule="nonzero" fill="url(#LinearGradient6134)" stroke="none" />
    <path d="M 281 303.5  C 288.56 303.5  294.5 309.44  294.5 317  C 294.5 324.56  288.56 330.5  281 330.5  C 273.44 330.5  267.5 324.56  267.5 317  C 267.5 309.44  273.44 303.5  281 303.5  Z " stroke-width="1" stroke="#797979" fill="none" />
    <path d="M 246 345  L 316 345  M 281 331  L 281 368  M 253 403  L 281 368  M 281 368  L 309 403  " stroke-width="1" stroke="#797979" fill="none" />
  </g>
</svg>