<?xml version="1.0" encoding="utf-8"?>
<svg version="1.1" xmlns:xlink="http://www.w3.org/1999/xlink" width="120px" height="60px" xmlns="http://www.w3.org/2000/svg">
  <g transform="matrix(1 0 0 1 -470 -153 )">
    <path d="M 530 153  C 563.6 153  590 166.2  590 183  C 590 199.8  563.6 213  530 213  C 496.4 213  470 199.8  470 183  C 470 166.2  496.4 153  530 153  Z " fill-rule="nonzero" fill="#ffffff" stroke="none" />
    <path d="M 530 153.5  C 563.32 153.5  589.5 166.48  589.5 183  C 589.5 199.52  563.32 212.5  530 212.5  C 496.68 212.5  470.5 199.52  470.5 183  C 470.5 166.48  496.68 153.5  530 153.5  Z " stroke-width="1" stroke="#797979" fill="none" />
  </g>
</svg>