<?xml version="1.0" encoding="utf-8"?>
<svg version="1.1" xmlns:xlink="http://www.w3.org/1999/xlink" width="14px" height="14px" xmlns="http://www.w3.org/2000/svg">
  <g transform="matrix(1 0 0 1 -200 -482 )">
    <path d="M 14 2.0999999999999996  C 14 0.9402020253553334  13.059797974644665 0  11.9 0  L 2.0999999999999996 0  C 0.940202025355334 0  0 0.940202025355334  0 2.1  L 0 11.9  C 0 13.059797974644665  0.9402020253553338 14  2.1 14  L 11.9 14  C 13.059797974644665 14  14 13.059797974644665  14 11.9  L 14 2.0999999999999996  Z M 1.5940000000000003 10.497  L 1.5939999999999999 11.431  L 0.006000000000000005 11.431  L 0.006000000000000005 10.497  L 1.5940000000000003 10.497  Z M 1.5939999999999999 8.6295  L 1.5939999999999999 9.5635  L 0.6599999999999999 9.5635  L 0.6599999999999999 8.6295  L 1.5939999999999999 8.6295  Z M 1.5940000000000003 6.761499999999999  L 1.5939999999999999 7.695499999999999  L 0.006000000000000005 7.695499999999999  L 0.006000000000000005 6.761499999999999  L 1.5940000000000003 6.761499999999999  Z M 1.5939999999999999 4.893499999999999  L 1.5939999999999999 5.827499999999999  L 0.6599999999999999 5.827499999999999  L 0.6599999999999999 4.893499999999999  L 1.5939999999999999 4.893499999999999  Z M 1.5940000000000003 3.026  L 1.5939999999999999 3.959999999999999  L 0.006000000000000005 3.959999999999999  L 0.006000000000000005 3.026  L 1.5940000000000003 3.026  Z M 11.989999999999998 9.991499999999998  C 11.989499999999998 10.572  10.519499999999999 11.424  10.519499999999999 11.424  C 9.3585 11.424  7.005 10.2315  5.875999999999999 9.1025  C 4.746999999999998 7.972999999999999  3.553999999999998 5.619499999999999  3.553999999999998 4.458999999999999  C 3.553999999999998 4.458999999999999  4.4434999999999985 3.025999999999999  5.023999999999998 3.025999999999999  C 5.604499999999998 3.025999999999999  7.345999999999998 4.767499999999999  6.7654999999999985 5.347999999999999  C 6.184999999999999 5.927999999999999  5.604499999999998 5.927999999999999  5.604499999999998 6.508499999999999  C 5.604499999999998 7.088999999999999  6.184999999999998 7.668999999999999  6.765499999999998 8.249999999999998  C 7.345999999999998 8.830499999999999  7.926499999999997 9.410999999999998  8.506999999999998 9.410999999999998  C 9.087499999999999 9.410999999999998  9.087499999999999 8.830499999999997  9.667999999999997 8.249999999999998  C 10.248499999999996 7.6695  11.989999999999998 9.410999999999998  11.989999999999998 9.991499999999998  Z " fill-rule="nonzero" fill="#0066ff" stroke="none" transform="matrix(1 0 0 1 200 482 )" />
  </g>
</svg>