<?xml version="1.0" encoding="utf-8"?>
<svg version="1.1" xmlns:xlink="http://www.w3.org/1999/xlink" width="198px" height="50px" xmlns="http://www.w3.org/2000/svg">
  <defs>
    <mask fill="white" id="clip5315">
      <path d="M 0 50  L 19.44467924528306 24  L 0 0  L 178.57358490566037 0  L 197.75670193041773 24  L 178.57358490566037 50  L 0 50  Z " fill-rule="evenodd" />
    </mask>
  </defs>
  <g transform="matrix(1 0 0 1 -415 -292 )">
    <path d="M 0 50  L 19.44467924528306 24  L 0 0  L 178.57358490566037 0  L 197.75670193041773 24  L 178.57358490566037 50  L 0 50  Z " fill-rule="nonzero" fill="#f2f2f2" stroke="none" transform="matrix(1 0 0 1 415 292 )" />
    <path d="M 0 50  L 19.44467924528306 24  L 0 0  L 178.57358490566037 0  L 197.75670193041773 24  L 178.57358490566037 50  L 0 50  Z " stroke-width="2" stroke="#f2f2f2" fill="none" transform="matrix(1 0 0 1 415 292 )" mask="url(#clip5315)" />
  </g>
</svg>