<?xml version="1.0" encoding="utf-8"?>
<svg version="1.1" xmlns:xlink="http://www.w3.org/1999/xlink" width="44px" height="38px" xmlns="http://www.w3.org/2000/svg">
  <g transform="matrix(1 0 0 1 -2068 -1568 )">
    <path d="M 43.30078125 7.702343749999997  C 43.30078125 6.9218749999999964  42.66796875 6.278515624999997  41.876953125 7  L 21.4265625 7  L 17.450390624999997 0.751953125  C 17.344921874999997 0.6042968749999993  17.165625 0.5093750000000004  16.986328124999996 1  L 1.7039062500000002 1  C 0.90234375 0.5093750000000004  0.2800781250000002 1.1527343749999996  1 1.9332031250000004  L 1 37.4234375  C 0.2800781250000002 37.476171875  0.2800781250000002 37.539453125  0.3328125000000002 37.55  L 8.728124999999999 14.663281249999997  C 8.87578125 14.093749999999996  9.403125 13.703515624999998  9.972656249999998 14  L 43.30078125 14  L 43.30078125 7.702343749999997  Z " fill-rule="nonzero" fill="#e7772d" stroke="none" fill-opacity="0.6980392156862745" transform="matrix(1 0 0 1 2068 1568 )" />
  </g>
</svg>