<?xml version="1.0" encoding="utf-8"?>
<svg version="1.1" xmlns:xlink="http://www.w3.org/1999/xlink" width="12px" height="12px" xmlns="http://www.w3.org/2000/svg">
  <g transform="matrix(1 0 0 1 -3628 -1423 )">
    <path d="M 11.48840000390625 1.079599998046875  L 6.56679999609375 6.001200005859376  L 11.501199990234376 10.935200009765627  C 11.657599986328126 11.091200015625002  11.657599986328126 11.344400003906252  11.501199990234376 11.500800017578126  C 11.344799994140626 11.657200031249996  11.091999996093751 11.657200013671876  10.935599982421877 11.500800017578126  L 6.001200005859376 6.56720000390625  L 1.087200005859375 11.481200003906249  C 0.9312000000000004 11.637200009765625  0.678800009765625 11.637200009765625  0.5232000117187501 11.481200003906249  C 0.3676000136718749 11.325600005859375  0.3676000136718749 11.073199998046874  0.5232000117187501 10.9176  L 5.437600019531249 6.0031999921875  L 0.49879999218749993 1.0644  C 0.3423999960937498 0.9080000039062499  0.3423999960937498 0.6547999980468746  0.49879999218749993 0.49879999218749993  C 0.6547999980468746 0.3423999960937498  0.9079999863281247 0.3423999960937498  1.0644 0.49879999218749993  L 6.0031999921875 5.437599984375  L 10.9252000078125 0.51560000390625  C 11.080800005859373 0.3600000058593752  11.333200013671874 0.3600000058593752  11.48840000390625 0.51560000390625  C 11.644400009765626 0.6712000019531252  11.644400009765626 0.9239999999999999  11.48840000390625 1.079599998046875  Z " fill-rule="nonzero" fill="#000000" stroke="none" transform="matrix(1 0 0 1 3628 1423 )" />
  </g>
</svg>