<?xml version="1.0" encoding="utf-8"?>
<svg version="1.1" xmlns:xlink="http://www.w3.org/1999/xlink" width="14px" height="20px" xmlns="http://www.w3.org/2000/svg">
  <g transform="matrix(1 0 0 1 -313 -30 )">
    <path d="M 0 1.0416666666666667  C 0.07515789473684234 0.4893819168358745  0.4710324317285617 0.04166666666666652  0.9593684210526312 0.04166666666666652  C 1.392471533930008 0.04175422619620968  1.7617711429035106 0.3966243559983096  1.8317894736842097 0.8800000000000001  L 2 1.0416666666666667  L 2 18.936666666666667  C 1.8430500712743099 19.488527871027294  1.4473307129765107 19.935582819275663  0.9593689404049638 19.935582819275663  C 0.5265734303951161 19.935582819275663  0.15738506015700876 19.581278451841428  0.08694736842105287 19.098333333333333  L 0 18.936666666666667  L 0 1.0416666666666667  Z M 5.613263157894737 5.831666666666666  L 13.05978947368421 5.831666666666666  C 13.547750959645187 5.832264800344528  13.94304165072796 6.279804550800373  13.94304165072796 6.8316660793039095  C 13.94304165072796 7.32113719181505  13.629761999522946 7.7386716581557655  13.202736842105264 7.8183333333333325  L 13.05978947368421 7.831666666666667  L 5.613263157894735 7.831666666666668  C 5.125301671933761 7.831068532988802  4.730010980850994 7.383528782532958  4.730010980850994 6.831667254029422  C 4.730010980850994 6.342196141518285  5.043290632056004 5.9246616751775685  5.470315789473683 5.844999999999999  L 5.613263157894737 5.831666666666666  Z M 5.613263157894737 11.094999999999999  L 11.198526315789474 11.094999999999999  C 11.686487801750447 11.095598133677866  12.081778492833218 11.54313788413371  12.081778492833218 12.094999412637241  C 12.081778492833218 12.58447052514838  11.76849884162821 13.0020049914891  11.341473684210525 13.081666666666667  L 11.198526315789474 13.094999999999999  L 5.613263157894735 13.095  C 5.6104150116630125 13.095031129160894  5.607566749059003 13.095046694013883  5.604718469829689 13.095046694013883  C 5.116382480505619 13.095046694013883  4.7205079435138995 12.647331443844676  4.7205079435138995 12.095046694013883  C 4.7205079435138995 11.601454846774033  5.038948092928885 11.18169412369924  5.470315789473683 11.106666666666667  L 5.613263157894737 11.094999999999999  Z M 9.337263157894737 16.356666666666666  L 9.335789473684212 16.358333333333334  C 9.824638551917507 16.358333164971388  10.220513088909227 16.806048415140598  10.220513088909227 17.358333164971388  C 10.220513088909227 17.847803303673885  9.907234652820497 18.265337239981672  9.480210526315792 18.345  L 9.33726315789474 18.356666666666666  L 5.613263157894735 18.35666666666667  C 5.125301671933761 18.3560685329888  4.730010980850994 17.90852878253296  4.730010980850994 17.356667254029425  C 4.730010980850994 16.867196141518285  5.043290632056004 16.44966167517757  5.470315789473683 16.369999999999997  L 5.613263157894737 16.356666666666666  L 9.337263157894737 16.356666666666666  Z " fill-rule="nonzero" fill="#000000" stroke="none" transform="matrix(1 0 0 1 313 30 )" />
  </g>
</svg>