<?xml version="1.0" encoding="utf-8"?>
<svg version="1.1" xmlns:xlink="http://www.w3.org/1999/xlink" width="14px" height="10px" xmlns="http://www.w3.org/2000/svg">
  <g transform="matrix(1 0 0 1 -1966 -1349 )">
    <path d="M 13.859427799528303 5.186064631410257  C 13.868381724056604 5.142967676282052  13.881829516509436 5.0785190705128205  13.881829516509436 5.00145951923077  C 13.881829516509436 4.921234935897437  13.867858011792453 4.854129663461539  13.86388787264151 4.846143285256411  C 13.860880695754716 4.806391778846154  13.846909191037737 4.733940384615385  13.833917554245282 4.6959107852564115  C 13.830437349056606 4.686448477564103  13.825926591981133 4.67652700320513  13.82195645283019 4.6670646955128205  C 13.814945358490565 4.645253846153847  13.807478125 4.623934967948718  13.798997228773585 4.606978253205129  C 12.529887570754715 1.912468717948719  9.797503146226415 0.10146274038461636  7.00070112264151 0.10146274038461636  C 4.204405922169811 0.10146274038461636  1.4722580117924524 1.9107960096153858  0.208909271226415 4.590726714743591  C 0.19368758962264143 4.619818782051283  0.18294287028301875 4.6476809134615396  0.17620208490566028 4.671918846153847  C 0.17321181367924526 4.679905224358976  0.16971470283018858 4.687416025641026  0.1669778514150943 4.694451266025642  C 0.14200820754716986 4.7654595352564115  0.1415182900943395 4.814870128205129  0.1435118042452829 4.802029615384616  C 0.13178721698113186 4.854129679487181  0.1210425141509433 4.957837820512822  0.1210425141509433 4.957837820512822  C 0.11805224292452832 4.9890781730769245  0.11805224292452832 5.014037660256411  0.12154933726415083 5.045064839743592  C 0.12154933726415083 5.045064839743592  0.13227715094339615 5.135686474358977  0.13753126179245265 5.154086314102566  C 0.13901795283018856 5.179767371794873  0.14550533490566023 5.217091794871798  0.15324287735849032 5.251021618589746  C 0.15947683962264128 5.280097291666669  0.1687179787735846 5.308205416666669  0.18143930660377333 5.3358215544871825  C 0.18794357783018847 5.35714043269231  0.19568112028301854 5.37701618589744  0.20242190566037702 5.392037804487182  C 1.4732547688679245 8.087006506410257  4.204912745283019 9.89850447115385  7.00070112264151 9.89850447115385  C 9.798009985849058 9.89850447115385  12.530394410377358 8.088482435897438  13.785025724056602 5.422081025641027  C 13.804470948113206 5.387183653846156  13.81697266745283 5.35423778846154  13.825453563679245 5.325637692307694  C 13.829440591981133 5.316929743589745  13.832954591981132 5.309172964743593  13.83543804009434 5.301416169871796  C 13.857417396226415 5.239361826923078  13.861894375 5.185589054487181  13.859900844339624 5.185589054487181  Z M 12.961230443396225 5.007281217948718  C 12.958240155660379 5.016481137820512  12.956753464622643 5.02520548076923  12.955249884433963 5.0344053846153844  C 12.954759950471699 5.036356874999999  12.953746304245282 5.0387675480769225  12.952749547169812 5.0407190544871785  C 12.951262856132075 5.046524342948717  12.948779408018867 5.0533135897435875  12.947258922169812 5.060102836538461  C 11.817948823113209 7.4226118269230765  9.433551254716981 9.007818076923078  7.000701106132076 9.007818076923078  C 4.573848405660378 9.007818076923078  2.193674379716981 7.4270067948717955  1.0531296273584903 5.05623264423077  C 1.0503758702830186 5.048000272435898  1.048382356132075 5.040227083333334  1.0453920849056602 5.032486698717948  C 1.0448852617924524 5.024729903846153  1.0433985707547169 5.018432644230768  1.0429086367924523 5.0140540705128185  C 1.0419118797169808 5.009232724358973  1.0409151226415094 5.0024434775641  1.0401548797169808 4.996605384615383  L 1.0401548797169808 4.990554102564102  C 1.0429086367924523 4.980616217948717  1.0448852617924524 4.970694743589743  1.0458989080188676 4.959789326923076  C 1.047892422169811 4.953984038461537  1.0493960023584905 4.948408317307692  1.0516429363207547 4.9421110576923075  C 2.1814260801886793 2.5783721153846155  4.567834068396227 0.9924442948717946  7.000684216981132 0.9924442948717946  C 9.434514233490566 0.9924442948717946  11.820449176886793 2.579815240384615  12.946752099056603 4.939913557692307  C 12.947748856132076 4.94452171474359  12.94876250235849 4.948408317307692  12.950266099056604 4.951556939102563  C 12.951262856132075 4.955427131410255  12.952242724056603 4.959313733974358  12.954236238207548 4.963429919871794  C 12.956736575471698 4.981124583333333  12.958730089622641 4.998573269230769  12.961230443396225 5.007281217948718  Z " fill-rule="nonzero" fill="#999999" stroke="none" transform="matrix(1 0 0 1 1966 1349 )" />
  </g>
</svg>