<?xml version="1.0" encoding="utf-8"?>
<svg version="1.1" xmlns:xlink="http://www.w3.org/1999/xlink" width="20px" height="20px" xmlns="http://www.w3.org/2000/svg">
  <g transform="matrix(1 0 0 1 -129 -30 )">
    <path d="M 5 0  L 5 5  L 0 5  L 0 0  L 5 0  Z M 12.5 5  L 12.5 0  L 7.5 0  L 7.5 5  L 12.5 5  Z M 20 5  L 20 0  L 15 0  L 15 5  L 20 5  Z M 5 12.5  L 5 7.5  L 0 7.5  L 0 12.5  L 5 12.5  Z M 12.5 12.5  L 12.5 7.5  L 7.5 7.5  L 7.5 12.5  L 12.5 12.5  Z M 20 12.5  L 20 7.5  L 15 7.5  L 15 12.5  L 20 12.5  Z M 5 20  L 5 15  L 0 15  L 0 20  L 5 20  Z M 12.5 20  L 12.5 15  L 7.5 15  L 7.5 20  L 12.5 20  Z M 20 20  L 20 15  L 15 15  L 15 20  L 20 20  Z " fill-rule="nonzero" fill="#000000" stroke="none" transform="matrix(1 0 0 1 129 30 )" />
  </g>
</svg>