<?xml version="1.0" encoding="utf-8"?>
<svg version="1.1" xmlns:xlink="http://www.w3.org/1999/xlink" width="9px" height="17px" xmlns="http://www.w3.org/2000/svg">
  <g transform="matrix(1 0 0 1 -3212 -1204 )">
    <path d="M 2.25 0  C 1.0092187499999987 0  0 1.14378125  0 2.55  C 0 3.95621875  1.0092187499999987 5.1  2.25 5.1  C 3.4907812500000013 5.1  4.5 3.95621875  4.5 2.55  C 4.5 1.14378125  3.4907812500000013 0  2.25 0  Z M 2.25 1.7000000000000002  C 2.6634374999999997 1.7000000000000002  3 2.0814375000000003  3 2.55  C 3 3.0185625  2.6634374999999997 3.4000000000000004  2.25 3.4000000000000004  C 1.8365625000000003 3.4000000000000004  1.5 3.0185625  1.5 2.55  C 1.5 2.0814375000000003  1.8365625000000003 1.7000000000000002  2.25 1.7000000000000002  Z M 9 13.600000000000001  C 9 13.130640625000002  8.664140624999998 12.75  8.25 12.75  L 6.75 12.75  L 6.75 11.05  C 6.75 10.580640625000001  6.414140624999999 10.2  6 10.2  C 5.585859375000001 10.2  5.25 10.580640625000001  5.25 11.05  L 5.25 12.75  L 3.75 12.75  C 3.335859375000001 12.75  3 13.130640625000002  3 13.600000000000001  C 3 14.069359375  3.335859375000001 14.45  3.75 14.45  L 5.25 14.45  L 5.25 16.15  C 5.25 16.619359375  5.585859375000001 17  6 17  C 6.414140624999999 17  6.75 16.619359375  6.75 16.15  L 6.75 14.45  L 8.25 14.45  C 8.664140624999998 14.45  9 14.069359375  9 13.600000000000001  Z " fill-rule="nonzero" fill="#333333" stroke="none" transform="matrix(1 0 0 1 3212 1204 )" />
  </g>
</svg>