<?xml version="1.0" encoding="utf-8"?>
<svg version="1.1" xmlns:xlink="http://www.w3.org/1999/xlink" width="8px" height="10px" xmlns="http://www.w3.org/2000/svg">
  <g transform="matrix(1 0 0 1 -236 -35 )">
    <path d="M 5.025176470588235 10  L 5.041019607843138 10  C 4.97428862311553 9.999927906336906  4.90873107046086 9.982515303431367  4.850823529411764 9.949482421874997  L 2.739647058823529 8.490693359374998  C 2.6358742733240748 8.418520915806232  2.573338897898885 8.300990407669026  2.5716372549019604 8.174931640624997  L 2.5716372549019604 3.5838476562499992  L 0.01983333333333333 0.40734374999999995  L 0.10225490196078431 0.19578125  C 0.16106091354464552 0.07499190048071835  0.28448122462542297 -0.0012280347877359139  0.41924509803921567 1.9531249999999997E-05  L 7.783019607843138 1.9531249999999997E-05  L 7.982725490196079 0.37576171875  L 7.852754901960785 0.562060546875  L 5.4087352941176485 3.5838378906249995  L 5.408735294117649 9.617939453125  C 5.40873529411765 9.828945666676074  5.237010159486572 10  5.025176470588239 10  Z M 3.189774509803921 3.3628124999999995  L 3.1897745098039216 8.045468749999998  L 4.774745098039216 9.156933593749997  L 4.774745098039216 3.362812499999999  L 6.99370588235294 0.6315234375  L 1.012029411764706 0.6315234375  L 3.189774509803921 3.3628124999999995  Z " fill-rule="nonzero" fill="#000000" stroke="none" transform="matrix(1 0 0 1 236 35 )" />
  </g>
</svg>