<?xml version="1.0" encoding="utf-8"?>
<svg version="1.1" xmlns:xlink="http://www.w3.org/1999/xlink" width="14px" height="14px" xmlns="http://www.w3.org/2000/svg">
  <g transform="matrix(1 0 0 1 -3160 -657 )">
    <path d="M 3167 658  C 3170.36 658  3173 660.64  3173 664  C 3173 667.36  3170.36 670  3167 670  C 3163.64 670  3161 667.36  3161 664  C 3161 660.64  3163.64 658  3167 658  Z " fill-rule="nonzero" fill="#ffffff" stroke="none" fill-opacity="0" />
    <path d="M 3167 658  C 3170.36 658  3173 660.64  3173 664  C 3173 667.36  3170.36 670  3167 670  C 3163.64 670  3161 667.36  3161 664  C 3161 660.64  3163.64 658  3167 658  Z " stroke-width="2" stroke="#999999" fill="none" />
  </g>
</svg>