<?xml version="1.0" encoding="utf-8"?>
<svg version="1.1" xmlns:xlink="http://www.w3.org/1999/xlink" width="50px" height="50px" xmlns="http://www.w3.org/2000/svg">
  <g transform="matrix(1 0 0 1 -746 -253 )">
    <path d="M 50 25  C 50 11.25  38.75 0  25 0  C 11.25 0  0 11.25  0 25  C 0 38.75  11.25 50  25 50  C 38.75 50  50 38.75  50 25  Z M 37.50000000000001 24.999999999999996  C 37.5 26.5  36.5 27.500000000000004  35 27.500000000000004  L 27.499999999999996 27.500000000000004  L 27.499999999999996 35  C 27.499999999999996 36.50000000000001  26.499999999999996 37.50000000000001  24.999999999999996 37.50000000000001  C 23.5 37.50000000000001  22.499999999999996 36.50000000000001  22.499999999999996 35  L 22.499999999999996 27.500000000000004  L 15 27.500000000000004  C 13.500000000000004 27.500000000000004  12.5 26.5  12.5 25  C 12.5 23.5  13.500000000000004 22.5  15 22.5  L 22.499999999999996 22.5  L 22.5 15  C 22.5 13.500000000000004  23.5 12.5  25 12.5  C 26.5 12.5  27.500000000000004 13.500000000000004  27.500000000000004 15  L 27.500000000000004 22.499999999999996  L 35 22.499999999999996  C 36.50000000000001 22.499999999999996  37.50000000000001 23.5  37.50000000000001 24.999999999999996  Z " fill-rule="nonzero" fill="#000000" stroke="none" transform="matrix(1 0 0 1 746 253 )" />
  </g>
</svg>