<?xml version="1.0" encoding="utf-8"?>
<svg version="1.1" xmlns:xlink="http://www.w3.org/1999/xlink" width="19px" height="18px" xmlns="http://www.w3.org/2000/svg">
  <g transform="matrix(1 0 0 1 -3201 -1201 )">
    <path d="M 15.05338942307692 12.640653409090909  C 15.295456730769232 12.279119318181817  15.230144230769229 11.766221590909089  14.907235576923075 11.495198863636364  L 12.349999999999998 9.347982954545456  C 11.96246394230769 9.02275568181818  11.422379807692307 9.02275568181818  11.034843749999999 9.347982954545456  L 8.783617788461537 11.237982954545453  L 5.782211538461538 8.549744318181817  C 5.405865384615384 8.2125  4.885192307692307 8.186931818181819  4.484867788461538 8.488636363636363  L 1.4615384615384617 10.764715909090908  L 1.4615384615384617 1.6363636363636365  L 17.53846153846154 1.6363636363636365  L 17.53846153846154 10.636363636363637  C 17.53846153846154 11.088153409090909  17.865709134615386 11.454545454545455  18.26923076923077 11.454545454545455  C 18.672752403846154 11.454545454545455  19 11.088153409090909  19 10.636363636363637  L 19 1.5675852272727275  C 19 0.703125  18.371995192307693 0  17.599891826923077 0  L 1.400108173076923 0  C 0.6280048076923077 0  0 0.703125  0 1.5675852272727275  L 0 16.432414772727274  C 0 17.296875  0.6280048076923077 18  1.400108173076923 18  L 12.423076923076923 18  C 12.826598557692305 18  13.153846153846153 17.633607954545454  13.153846153846153 17.181818181818183  C 13.153846153846153 16.73002840909091  12.826598557692305 16.363636363636363  12.423076923076923 16.363636363636363  L 1.4615384615384617 16.363636363636363  L 1.4615384615384617 12.737045454545452  L 5.077932692307693 10.014545454545454  L 8.755072115384616 13.307727272727274  L 11.692307692307693 10.840909090909092  L 14.030312499999999 12.80403409090909  C 14.354362980769233 13.07684659090909  14.812007211538463 13.001676136363637  15.05338942307692 12.640653409090909  Z " fill-rule="nonzero" fill="#333333" stroke="none" transform="matrix(1 0 0 1 3201 1201 )" />
  </g>
</svg>