<?xml version="1.0" encoding="utf-8"?>
<svg version="1.1" xmlns:xlink="http://www.w3.org/1999/xlink" width="4px" height="4px" xmlns="http://www.w3.org/2000/svg">
  <g transform="matrix(1 0 0 1 -1971 -1352 )">
    <path d="M 3.9305026805555547 2  C 3.9305026805555547 0.9359178888888885  3.0644445277777774 0.07028612500000027  2.0005756111111106 0.07028612500000027  C 0.9367066944444437 0.07028612500000027  0.07064854166666616 0.9359178888888893  0.07064854166666616 2  C 0.07064854166666616 3.063868916666667  0.9367066944444437 3.929927069444444  2.0005756111111106 3.929927069444444  C 3.0644445277777774 3.929927069444444  3.9305026805555547 3.063868916666667  3.9305026805555547 2  Z M 3.158546069444444 2.000014208333334  C 3.158531847222223 2.6384151527777786  2.6389765555555553 3.1579562361111106  2.0005756111111106 3.1579562361111106  C 1.3625868333333324 3.1579562361111106  0.8426335833333327 2.638415152777777  0.8426335833333327 2.000014208333334  C 0.8426335833333327 1.3618122361111118  1.3625868333333324 0.8422853750000007  2.0005756111111106 0.8422853750000007  C 2.6389765555555553 0.8422853750000007  3.158546069444444 1.3618264583333337  3.158546069444444 2.000014208333334  Z " fill-rule="nonzero" fill="#999999" stroke="none" transform="matrix(1 0 0 1 1971 1352 )" />
  </g>
</svg>