<?xml version="1.0" encoding="utf-8"?>
<svg version="1.1" xmlns:xlink="http://www.w3.org/1999/xlink" width="20px" height="20px" xmlns="http://www.w3.org/2000/svg">
  <g transform="matrix(1 0 0 1 -230 -30 )">
    <path d="M 240 30  C 245.6 30  250 34.4  250 40  C 250 45.6  245.6 50  240 50  C 234.4 50  230 45.6  230 40  C 230 34.4  234.4 30  240 30  Z " fill-rule="nonzero" fill="#ffffff" stroke="none" />
    <path d="M 240 30.5  C 245.32 30.5  249.5 34.68  249.5 40  C 249.5 45.32  245.32 49.5  240 49.5  C 234.68 49.5  230.5 45.32  230.5 40  C 230.5 34.68  234.68 30.5  240 30.5  Z " stroke-width="1" stroke="#000000" fill="none" />
  </g>
</svg>