<?xml version="1.0" encoding="utf-8"?>
<svg version="1.1" xmlns:xlink="http://www.w3.org/1999/xlink" width="20px" height="6px" xmlns="http://www.w3.org/2000/svg">
  <g transform="matrix(1 0 0 1 -309 -30 )">
    <path d="M 9.52301886792453 0.5280000000000002  L 19.056603773584907 0.5280000000000002  C 19.556402600175662 0.5285556854813757  19.961282553306255 0.9443345504209977  19.961282553306255 1.4570317123855696  C 19.961282553306255 1.911766165299141  19.640403126196006 2.2996691533834195  19.203018867924527 2.3736774193548396  L 19.056603773584907 2.386064516129032  L 9.523018867924527 2.3860645161290313  C 9.023220041333776 2.3855088306476526  8.618340088203189 1.9697299657080312  8.618340088203189 1.4570328037434628  C 8.618340088203189 1.002298350829895  8.93921951531343 0.6143953627456185  9.376603773584906 0.5403870967741938  L 9.52301886792453 0.5280000000000002  Z M 0.3033962264150948 4.222451612903226  L 4.11622641509434 0.311225806451613  C 4.286021000140093 0.13737972163505238  4.516118707196252 0.03974172646348709  4.756016941290145 0.03974172646348709  C 5.256199356231241 0.03974172646348709  5.661677318648637 0.4556836362981047  5.661677318648637 0.9687739845280028  C 5.661677318648637 1.1569779757989047  5.605954697597523 1.340743785551687  5.501886792452831 1.4957419354838712  L 5.39622641509434 1.6242580645161295  L 1.583396226415095 5.537032258064516  C 1.4133265968934527 5.713047031124645  1.1817502418515977 5.812062979345165  0.9401603325683994 5.812062979345165  C 0.4399779176273036 5.812062979345165  0.034499955209908735 5.396121069510546  0.034499955209908735 4.883030721280648  C 0.034499955209908735 4.692711526004059  0.09148083951248717 4.506983875342713  0.19773584905660413 4.350967741935484  L 0.3033962264150948 4.222451612903226  Z " fill-rule="nonzero" fill="#000000" stroke="none" transform="matrix(1 0 0 1 309 30 )" />
  </g>
</svg>