<?xml version="1.0" encoding="utf-8"?>
<svg version="1.1" xmlns:xlink="http://www.w3.org/1999/xlink" width="20px" height="20px" xmlns="http://www.w3.org/2000/svg">
  <g transform="matrix(1 0 0 1 -172 -30 )">
    <path d="M 5.733333324999999 3.3850129069767436  L 5.733333324999999 0  L 19.955555549999996 0  L 19.955555549999996 3.3850129069767436  L 5.733333324999999 3.3850129069767436  Z M 0.04444444999999995 3.3850129069767436  L 0.04444444999999995 0.07751938953488342  L 2.8888889 0.07751938953488342  L 2.8888889 3.3850129069767436  L 0.04444444999999995 3.3850129069767436  Z M 0.04444444999999995 11.653746773255813  L 0.04444444999999995 8.346253226744185  L 2.8888889 8.346253226744185  L 2.8888889 11.653746773255813  L 0.04444444999999995 11.653746773255813  Z M 0.04444444999999995 19.922480610465115  L 0.04444444999999995 16.614987093023256  L 2.8888889 16.614987093023256  L 2.8888889 19.922480610465115  L 0.04444444999999995 19.922480610465115  Z M 5.733333324999999 20  L 5.733333324999999 16.614987093023256  L 19.955555549999996 16.614987093023256  L 19.955555549999996 20  L 5.733333324999999 20  Z M 5.733333324999999 11.653746773255813  L 5.733333324999999 8.346253226744185  L 19.955555549999996 8.346253226744185  L 19.955555549999996 11.653746773255813  L 5.733333324999999 11.653746773255813  Z " fill-rule="nonzero" fill="#999999" stroke="none" transform="matrix(1 0 0 1 172 30 )" />
  </g>
</svg>