<?xml version="1.0" encoding="utf-8"?>
<svg version="1.1" xmlns:xlink="http://www.w3.org/1999/xlink" width="20px" height="20px" xmlns="http://www.w3.org/2000/svg">
  <g transform="matrix(1 0 0 1 -2560 -175 )">
    <path d="M 19.929682453703702 19.209804056603772  C 19.929658796296298 19.06311408018868  19.877853935185186 18.92074419811321  19.77412574074074 18.788631485849056  L 15.238131504629632 14.329285117924528  L 15.28065083333333 14.274982311320754  C 16.50212784722222 12.733989363207547  17.174856921296296 10.793786344339622  17.174856921296296 8.81286825471698  C 17.174856921296296 4.008228443396225  13.338216689814814 0.09886087264150864  8.623664999999999 0.09886087264150864  C 3.907668379629628 0.09886087264150864  0.07029381944444345 4.008228443396225  0.07029381944444345 8.81286825471698  C 0.07029381944444345 13.617483938679245  3.907668379629629 17.526489481132074  8.623664999999999 17.526489481132074  C 10.690009212962961 17.526489481132074  12.686427476851849 16.76115780660377  14.24500335648148 15.373467712264148  L 14.296144976851853 15.327949905660374  L 18.821266574074073 19.73745837264151  L 18.866628402777778 19.73745837264151  L 18.86736270833333 19.775639268867923  C 18.9818924537037 19.85779337264151  19.110824305555553 19.901090825471698  19.251244652777775 19.901090825471698  C 19.625793680555553 19.901090825471698  19.929682453703702 19.589947806603774  19.929682453703702 19.209804056603772  Z M 15.81577837962963 8.812892405660376  C 15.81577837962963 12.854348514150942  12.58916601851852 16.141816226415095  8.623641319444445 16.141816226415095  C 4.657003287037037 16.141816226415095  1.4304383101851852 12.854348514150942  1.4304383101851852 8.812892405660376  C 1.4304383101851852 4.771798301886792  4.657003287037037 1.4850546462264154  8.623641319444445 1.4850546462264154  C 12.589142337962965 1.4850546462264154  15.81577837962963 4.771798301886792  15.81577837962963 8.812892405660376  Z " fill-rule="nonzero" fill="#999999" stroke="none" transform="matrix(1 0 0 1 2560 175 )" />
  </g>
</svg>