<?xml version="1.0" encoding="utf-8"?>
<svg version="1.1" xmlns:xlink="http://www.w3.org/1999/xlink" width="100px" height="100px" xmlns="http://www.w3.org/2000/svg">
  <g transform="matrix(1 0 0 1 -3161 -1161 )">
    <path d="M 3162 1171  A 9 9 0 0 1 3171 1162 L 3251 1162  A 9 9 0 0 1 3260 1171 L 3260 1251  A 9 9 0 0 1 3251 1260 L 3171 1260  A 9 9 0 0 1 3162 1251 L 3162 1171  Z " fill-rule="nonzero" fill="#f7f7f7" stroke="none" />
    <path d="M 3161.5 1171  A 9.5 9.5 0 0 1 3171 1161.5 L 3251 1161.5  A 9.5 9.5 0 0 1 3260.5 1171 L 3260.5 1251  A 9.5 9.5 0 0 1 3251 1260.5 L 3171 1260.5  A 9.5 9.5 0 0 1 3161.5 1251 L 3161.5 1171  Z " stroke-width="1" stroke-dasharray="9,4" stroke="#d7d7d7" fill="none" stroke-dashoffset="0.5" />
  </g>
</svg>