<?xml version="1.0" encoding="utf-8"?>
<svg version="1.1" xmlns:xlink="http://www.w3.org/1999/xlink" width="3px" height="4px" xmlns="http://www.w3.org/2000/svg">
  <g transform="matrix(1 0 0 1 -242 -39 )">
    <path d="M 0.024155487804878747 0.3426111111111112  C 0.024155487804878747 0.14302469135802462  0.12273475609756185 0.04323148148148132  0.31989329268292704 0.04323148148148132  L 2.6857500000000005 0.04323148148148132  C 2.882902439024392 0.04323148148148132  2.9814786585365867 0.14302469135802462  2.9814786585365853 0.3426111111111107  C 2.9814786585365867 0.5422037037037042  2.882902439024392 0.6420000000000001  2.6857500000000005 0.6420000000000001  L 0.31989329268292704 0.6420000000000001  C 0.12273475609756185 0.6420000000000001  0.024155487804878747 0.5422037037037042  0.024155487804878747 0.3426111111111112  Z M 0.024155487804878747 1.9892222222222224  C 0.024155487804878747 1.7896358024691368  0.12273475609756185 1.689842592592593  0.31989329268292704 1.689842592592593  L 2.6857500000000005 1.689842592592593  C 2.882902439024392 1.689842592592593  2.9814786585365867 1.7896358024691368  2.9814786585365853 1.9892222222222224  C 2.9814786585365867 2.1888086419753088  2.882902439024392 2.2886018518518516  2.6857500000000005 2.2886018518518516  L 0.31989329268292704 2.2886018518518516  C 0.12273475609756185 2.2886018518518516  0.024155487804878747 2.1888086419753088  0.024155487804878747 1.9892222222222224  Z M 0.024155487804878747 3.635833333333334  C 0.024155487804878747 3.4362407407407423  0.12273475609756185 3.3364444444444454  0.31989329268292704 3.3364444444444445  L 2.6857500000000005 3.3364444444444445  C 2.882902439024392 3.3364444444444454  2.9814786585365867 3.4362407407407423  2.9814786585365853 3.635833333333334  C 2.9814786585365867 3.8354197530864207  2.882902439024392 3.9352129629629635  2.6857500000000005 3.9352129629629635  L 0.31989329268292704 3.9352129629629635  C 0.12273475609756185 3.9352129629629635  0.024155487804878747 3.8354197530864207  0.024155487804878747 3.635833333333334  Z " fill-rule="nonzero" fill="#000000" stroke="none" transform="matrix(1 0 0 1 242 39 )" />
  </g>
</svg>