<?xml version="1.0" encoding="utf-8"?>
<svg version="1.1" xmlns:xlink="http://www.w3.org/1999/xlink" width="36px" height="36px" xmlns="http://www.w3.org/2000/svg">
  <g transform="matrix(1 0 0 1 -1219 -1277 )">
    <path d="M 35.86725514285715 18.030466205357143  C 35.86725514285715 27.885069361607144  27.86952788839286 35.87527257589286  18.003248075892856 35.87527257589286  C 8.137872803571428 35.87527257589286  0.14298247767856892 27.88502825892857  0.14298247767856892 18.030466205357143  C 0.14298247767856892 10.466255330357143  4.85118233035714 4.003802558035717  11.500461522321425 1.4066925669642876  C 13.509503959821425 0.5962340491071445  15.704386111607139 0.14865637500000195  18.003700325892858 0.14865637500000195  C 20.30585146875 0.14865637500000195  22.49884233482143 0.5957817991071448  24.509776058035715 1.4066925669642876  C 31.158644142857142 4.003802558035714  35.86725514285715 10.466296433035714  35.86725514285715 18.030466205357143  Z M 11.138074111607143 14.267088642857143  C 11.138074111607143 17.274320598214285  12.678899142857144 19.87796788392857  14.918761084821428 21.152408986607142  C 15.847671857142858 21.680983165178574  16.89359584821429 21.985809669642858  18.003248075892856 21.985809669642858  C 19.073964415178573 21.985809669642858  20.08341944196428 21.700677294642862  20.987990116071426 21.20811979017858  C 23.280767035714288 19.958018785714295  24.871258968750002 17.32254850446429  24.871258968750002 14.26758203571429  C 24.871258968750002 10.01399054464286  21.791006799107144 6.551697977678575  18.00328917857143 6.551697977678575  C 14.217873991071428 6.5512456875  11.138074111607143 10.013579357142856  11.138074111607143 14.267088642857143  Z M 18.07581604017857 34.71887262053571  C 23.294335017857147 34.71887262053571  27.94957879017857 32.31890895535714  31.000803750000003 28.56305539285714  C 30.64034872767857 25.600309834821424  27.753378066964288 23.07815244642857  23.66749458482143 21.820075151785712  C 22.124325977678573 23.20828135714286  20.152739290178573 24.043573325892858  18.00275472321428 24.043573325892858  C 15.80503564285714 24.043573325892858  13.793238482142854 23.16334270982143  12.235062937499995 21.714738549107143  C 8.260518816964282 22.849141982142854  5.3492903437499955 25.163010924107137  4.666699446428568 27.935640763392854  C 7.694488848214287 32.048742375  12.574508183035713 34.71887262053571  18.07581604017857 34.71887262053571  Z " fill-rule="nonzero" fill="#cccccc" stroke="none" transform="matrix(1 0 0 1 1219 1277 )" />
  </g>
</svg>