<?xml version="1.0" encoding="utf-8"?>
<svg version="1.1" xmlns:xlink="http://www.w3.org/1999/xlink" width="20px" height="19px" xmlns="http://www.w3.org/2000/svg">
  <g transform="matrix(1 0 0 1 -4924 -595 )">
    <path d="M 16.410714285714285 4.76826923076923  L 13.892857142857142 2.1923076923076925  C 13.75 2.046153846153846  13.75 1.826923076923077  13.892857142857142 1.6807692307692306  L 15.410714285714285 0.12788461538461526  C 15.553571428571427 -0.01826923076923103  15.767857142857142 -0.01826923076923103  15.910714285714285 0.12788461538461526  L 18.428571428571427 2.703846153846153  C 18.57142857142857 2.849999999999999  18.57142857142857 3.069230769230769  18.428571428571427 3.2153846153846146  L 16.910714285714285 4.76826923076923  C 16.767857142857142 4.914423076923075  16.553571428571427 4.914423076923075  16.410714285714285 4.76826923076923  Z M 2.8571428571428568 16.076923076923077  L 7.142857142857143 14.798076923076923  L 15.446428571428573 6.302884615384615  C 15.571428571428571 6.174999999999999  15.553571428571427 5.9557692307692305  15.410714285714285 5.827884615384614  L 12.892857142857144 3.233653846153847  C 12.750000000000002 3.0875000000000012  12.535714285714285 3.06923076923077  12.42857142857143 3.197115384615385  L 4.107142857142857 11.692307692307693  L 2.8571428571428568 16.076923076923077  Z M 20 17.53846153846154  L 0 17.53846153846154  L 0 19  L 20 19  L 20 17.53846153846154  Z " fill-rule="nonzero" fill="#ffffff" stroke="none" transform="matrix(1 0 0 1 4924 595 )" />
  </g>
</svg>