<?xml version="1.0" encoding="utf-8"?>
<svg version="1.1" xmlns:xlink="http://www.w3.org/1999/xlink" width="14px" height="14px" xmlns="http://www.w3.org/2000/svg">
  <g transform="matrix(1 0 0 1 -408 -1288 )">
    <path d="M 13.892809441817436 10.732326322115382  C 13.929942452199835 10.595355934495194  13.89590387284128 10.453216871995192  13.796882601768091 10.339505618990385  C 13.775221692537006 10.316246499399035  11.652452983655426 7.843026787860577  11.652452983655426 6.021062424879807  C 11.652452983655426 3.4909870943509604  10.281627127878288 2.1936450871394224  8.72513636410362 1.7103722806490373  L 8.725136382092929 1.4803654296874997  C 8.725136382092929 0.6843866736778844  7.948438206722863 0.03830001502403833  6.99845279348273 0.03830001502403833  C 6.048467380242598 0.03830001502403833  5.271769204872532 0.6869710186298075  5.271769204872532 1.4803654296874997  L 5.271769204872532 1.7310470552884616  C 5.076821057771382 1.8499269981971151  4.98089419973273 2.0592590745192307  5.058254561574836 2.2608381159855764  C 5.154181419613487 2.5141040865384614  5.479095004111842 2.651074459134615  5.782347679379113 2.5709597055288462  C 6.101072419819078 2.4856762620192305  6.447646913548519 2.4443267277644227  6.806599059416119 2.4443267277644227  L 7.1903065275493425 2.4443267277644227  C 9.263564591899671 2.4443267277644227  10.501330597245067 3.78301826923077  10.501330597245067 6.023646784855768  C 10.501330597245067 7.646616451322115  11.813362569387337 9.559032947716345  12.484850629625823 10.432542112379807  C 11.451316010485197 10.825362800480772  9.192393038137338 11.577407662259617  7.001547206517271 11.577407662259617  C 4.816890200966285 11.577407662259617  2.551778402549344 10.820194110576926  1.5182437834087186 10.427373422475961  C 2.189731843647206 9.556448617788462  3.498669402754937 7.649200811298078  3.498669402754937 6.023646799879808  C 3.498669402754937 5.085528981370193  3.705995201994246 4.307640655048076  4.120646818462174 3.7106565805288465  C 4.278461991159541 3.480649729567308  4.185629528166121 3.1860342247596156  3.9102265881990164 3.0542325420673087  C 3.631729235197371 2.9198465144230776  3.2820603464227 2.999961268028847  3.124245173725332 3.229968118990385  C 2.610572286184213 3.9742599459134627  2.347546998355266 4.914962109375001  2.347546998355266 6.023646799879808  C 2.347546998355266 7.845611162860576  0.224778289473687 10.308493479567307  0.2031173802426014 10.334336944110577  C 0.10719052220395023 10.448048197115384  0.0700575298108579 10.58760291466346  0.10719052220395023 10.724573287259613  C 0.14432349660773283 10.858959314903844  0.24953361173931177 10.975254912860576  0.3949711143092131 11.039863566706728  C 0.4970868164062525 11.086381805889422  2.3258860891241797 11.900450991586538  4.594092300575661 12.308777749399038  C 4.977799768708884 13.306335546875001  5.924690768914478 13.980850015024037  6.998452775493424 13.980850015024037  C 8.07221478207237 13.980850015024037  9.019105782277965 13.306335546875001  9.402813250411187 12.308777749399038  C 11.671019461862668 11.900450991586538  13.499818734580595 11.091550495793268  13.601934436677634 11.047616601562499  C 13.747371939247534 10.980423587740384  13.852582054379113 10.866712334735574  13.892809441817436 10.732326322115382  Z M 7.1903065275493425 1.4803654296874997  L 6.806599059416119 1.4803654296874997  C 6.676633622018914 1.4803654296874997  6.549762615645559 1.4958715144230768  6.422891591282895 1.5036245492788458  L 6.422891591282895 1.4803654296874997  C 6.422891591282895 1.2167620793269232  6.682822448087994 0.9996769531249997  6.99845279348273 0.9996769531249997  C 7.314083120888157 0.9996769531249997  7.574013995682567 1.2167620643028847  7.574013995682567 1.4803654296874997  L 7.574013995682567 1.4932871694711536  C 7.444048558285362 1.4855341346153843  7.3171775519120095 1.4803654296874997  7.1903065275493425 1.4803654296874997  Z M 8.041270651726974 12.489681986177885  C 7.775150968852795 12.817894020432693  7.400726739823192 13.019473046875  6.99845279348273 13.019473046875  C 6.59617884714227 13.019473046875  6.221754618112664 12.817894005408654  5.955634935238487 12.489681986177885  C 6.302209410978619 12.520694140625  6.6487839047080595 12.538784570312501  6.99845279348273 12.538784570312501  C 7.348121682257402 12.538784570312501  7.697790589021382 12.518109795673078  8.041270651726974 12.489681986177885  Z " fill-rule="nonzero" fill="#333333" stroke="none" transform="matrix(1 0 0 1 408 1288 )" />
  </g>
</svg>