<?xml version="1.0" encoding="utf-8"?>
<svg version="1.1" xmlns:xlink="http://www.w3.org/1999/xlink" width="17px" height="16px" xmlns="http://www.w3.org/2000/svg">
  <g transform="matrix(1 0 0 1 -4521 -1665 )">
    <path d="M 4529.5 1665  C 4534.26 1665  4538 1668.52  4538 1673  C 4538 1677.48  4534.26 1681  4529.5 1681  C 4524.74 1681  4521 1677.48  4521 1673  C 4521 1668.52  4524.74 1665  4529.5 1665  Z " fill-rule="nonzero" fill="#ffffff" stroke="none" />
    <path d="M 4529.5 1665.5  C 4533.98 1665.5  4537.5 1668.8  4537.5 1673  C 4537.5 1677.2  4533.98 1680.5  4529.5 1680.5  C 4525.02 1680.5  4521.5 1677.2  4521.5 1673  C 4521.5 1668.8  4525.02 1665.5  4529.5 1665.5  Z " stroke-width="1" stroke="#ff6666" fill="none" />
  </g>
</svg>