<?xml version="1.0" encoding="utf-8"?>
<svg version="1.1" xmlns:xlink="http://www.w3.org/1999/xlink" width="36px" height="36px" xmlns="http://www.w3.org/2000/svg">
  <g transform="matrix(1 0 0 1 -1307 -1277 )">
    <path d="M 1325 1277  C 1335.08 1277  1343 1284.92  1343 1295  C 1343 1305.08  1335.08 1313  1325 1313  C 1314.92 1313  1307 1305.08  1307 1295  C 1307 1284.92  1314.92 1277  1325 1277  Z " fill-rule="nonzero" fill="#ffffff" stroke="none" />
    <path d="M 1325 1277.5  C 1334.8 1277.5  1342.5 1285.2  1342.5 1295  C 1342.5 1304.8  1334.8 1312.5  1325 1312.5  C 1315.2 1312.5  1307.5 1304.8  1307.5 1295  C 1307.5 1285.2  1315.2 1277.5  1325 1277.5  Z " stroke-width="1" stroke="#d7d7d7" fill="none" />
  </g>
</svg>