<?xml version="1.0" encoding="utf-8"?>
<svg version="1.1" xmlns:xlink="http://www.w3.org/1999/xlink" width="30px" height="30px" xmlns="http://www.w3.org/2000/svg">
  <g transform="matrix(1 0 0 1 -605 -714 )">
    <path d="M 10.387168141592921 3.6969026548672588  C 11.880530973451327 3.063053097345135  13.47013274336283 2.744469026548675  15.109513274336285 2.744469026548672  C 16.748893805309734 2.744469026548672  18.338495575221238 3.0663716814159288  19.831858407079647 3.6969026548672557  C 21.27544247787611 4.307522123893805  22.576327433628318 5.18362831858407  23.691371681415927 6.298672566371681  C 24.806415929203535 7.413716814159292  25.682522123893808 8.711283185840708  26.293141592920353 10.158185840707963  C 26.923672566371682 11.65154867256637  27.245575221238937 13.241150442477876  27.245575221238937 14.880530973451327  C 27.245575221238937 16.519911504424776  26.923672566371682 18.10951327433628  26.293141592920353 19.602876106194692  C 25.682522123893808 21.046460176991154  24.806415929203542 22.347345132743364  23.691371681415927 23.462389380530972  C 22.576327433628315 24.57743362831858  21.278761061946902 25.45353982300885  19.831858407079647 26.064159292035395  C 18.338495575221238 26.694690265486724  16.748893805309734 27.016592920353983  15.109513274336285 27.016592920353983  C 13.47013274336283 27.016592920353983  11.880530973451327 26.694690265486724  10.387168141592921 26.064159292035395  C 8.94358407079646 25.45353982300885  7.642699115044248 24.577433628318584  6.527654867256636 23.462389380530972  C 5.412610619469025 22.34734513274336  4.5365044247787605 21.049778761061948  3.9258849557522115 19.602876106194692  C 3.2953539823008846 18.109513274336283  2.9734513274336285 16.51991150442478  2.9734513274336285 14.88053097345133  C 2.9734513274336285 13.24115044247788  3.2953539823008846 11.651548672566374  3.9258849557522115 10.158185840707969  C 4.5365044247787605 8.714601769911507  5.412610619469025 7.413716814159295  6.527654867256636 6.298672566371684  C 7.642699115044248 5.183628318584072  8.940265486725663 4.307522123893807  10.387168141592921 3.6969026548672588  Z M 29.966814159292035 14.880530973451327  C 29.966814159292035 6.6769911504424755  23.31637168141593 0.023230088495575316  15.109513274336285 0.023230088495577672  C 6.902654867256637 0.023230088495575316  0.25221238938053103 6.673672566371683  0.25221238938053103 14.880530973451327  C 0.25221238938053103 23.087389380530972  6.902654867256637 29.73783185840708  15.109513274336285 29.73783185840708  C 23.31637168141593 29.73783185840708  29.966814159292035 23.084070796460175  29.966814159292035 14.880530973451327  Z M 20.42920353982301 20.200221238938052  C 20.956858407079643 19.67256637168142  20.956858407079643 18.819690265486724  20.42920353982301 18.29203539823009  L 17.01769911504425 14.880530973451327  L 20.429203539823003 11.469026548672565  C 20.956858407079643 10.941371681415928  20.956858407079643 10.088495575221236  20.429203539823003 9.560840707964601  C 19.90154867256637 9.033185840707963  19.048672566371675 9.033185840707963  18.521017699115042 9.560840707964601  L 15.109513274336285 12.972345132743362  L 11.698008849557523 9.560840707964603  C 11.170353982300885 9.033185840707967  10.317477876106194 9.033185840707967  9.789823008849558 9.560840707964603  C 9.262168141592921 10.08849557522124  9.262168141592921 10.94137168141593  9.789823008849558 11.469026548672568  L 13.20132743362832 14.880530973451327  L 9.789823008849558 18.29203539823009  C 9.262168141592921 18.819690265486724  9.262168141592921 19.67256637168142  9.789823008849558 20.200221238938052  C 10.317477876106194 20.72787610619469  11.170353982300885 20.72787610619469  11.698008849557523 20.200221238938052  L 15.109513274336285 16.788716814159297  L 18.521017699115045 20.200221238938052  C 19.048672566371682 20.72787610619469  19.901548672566374 20.72787610619469  20.42920353982301 20.200221238938052  Z " fill-rule="nonzero" fill="#d7d7d7" stroke="none" transform="matrix(1 0 0 1 605 714 )" />
  </g>
</svg>