<?xml version="1.0" encoding="utf-8"?>
<svg version="1.1" xmlns:xlink="http://www.w3.org/1999/xlink" width="16px" height="16px" xmlns="http://www.w3.org/2000/svg">
  <g transform="matrix(1 0 0 1 -65 -189 )">
    <path d="M 10.441578224489794 15.957768714285711  L 1.680108836734694 15.957768714285717  C 0.8392699834199641 15.956329466077232  0.15812868881957023 15.274798722296724  0.1571700612244899 14.433959183673469  L 0.1571700612244899 1.5660408163265305  C 0.15764982404191333 0.7250027656618835  0.8390711976936666 0.04319178269208829  1.680108836734694 0  L 12.25621769387755 0  C 13.097255332918575 0.04319178269208829  13.77867670657033 0.7250027656618846  13.779156469387756 1.5660408163265305  L 13.779156469387758 9.033578224489794  C 13.451364371515847 8.944100646495736  13.113224897701963 8.89813710354738  12.77344218367347 8.89687075510204  C 10.612773388631254 8.901645067604804  8.86373301914006 10.654554466489435  8.86373301914006 12.815228536294747  C 8.86373301914006 14.053176458822374  9.448740968472231 15.218316726693557  10.441578224489794 15.957768714285711  Z M 2.482068020408163 11.27140136734694  L 2.4794557755102042 11.270530612244897  C 2.479455455632516 11.63134749408849  2.7717004380339523 11.923982139510684  3.132517 11.924462591836734  L 6.716517 11.924462591836734  C 7.077192754991538 11.924462591836734  7.369578224489795 11.632077122338478  7.369578224489795 11.27140136734694  C 7.369578224489795 10.910725612355401  7.077192754991538 10.618340142857143  6.716517 10.618340142857143  L 3.132517 10.618340142857143  C 2.7728618094270834 10.61977877511703  2.482065143132157 10.911743299509524  2.482068020408163 11.27140136734694  Z M 2.482068020408163 7.608163265306123  L 2.4794557755102042 7.607292510204081  C 2.4794557755102042 7.96796826519562  2.7718412450084617 8.260353734693878  3.132517 8.260353734693878  L 8.201142857142857 8.260353734693878  C 8.561818612134395 8.260353734693878  8.854204081632654 7.96796826519562  8.854204081632654 7.607292510204082  C 8.854204081632654 7.246616755212544  8.561818612134395 6.954231285714286  8.201142857142857 6.954231285714286  L 3.132517 6.954231285714286  C 2.7725217651825877 6.955670954315083  2.481585140472341 7.248165475640837  2.482068020408163 7.608163265306123  Z M 2.4820680204081635 3.944925163265305  L 2.4794557755102042 3.9440544285714276  C 2.4794557755102042 4.304730183562966  2.7718412450084617 4.597115653061223  3.132517 4.597115653061223  L 10.52517006122449 4.597115653061223  C 10.885845816216028 4.597115653061223  11.178231285714286 4.304730183562966  11.178231285714286 3.9440544285714276  C 11.178231285714286 3.583378673579889  10.885845816216028 3.2909932040816314  10.52517006122449 3.2909932040816314  L 3.132517 3.2909932040816314  C 2.7727212869054982 3.2929095902809724  2.482062928032499 3.5851243466023726  2.4820680204081635 3.944925163265305  Z M 9.64919728571429 12.8161088367347  L 9.646585040816328 12.814367346938775  C 9.647066107482955 11.08875392010402  11.046087078547501 9.690122913867055  12.77170057243816 9.690122913867055  C 14.497654289081373 9.690122913867055  15.896816225499386 11.089284850285068  15.896816225499386 12.81523856692828  C 15.896816225499386 14.540512181286271  14.4987155301157 15.939392248386063  12.773442183673472 15.940353734693879  C 11.049162139251576 15.937477531790327  9.652073488617845 14.540388881156591  9.64919728571429 12.8161088367347  Z M 11.954938775510204 11.096380959183673  L 11.949714285714286 11.092027204081631  L 11.949714285714286 13.118258510204083  C 11.949713614867775 13.431375857491357  12.20258438428581 13.68463565231325  12.514829938775511 13.685115653061224  L 14.069115653061225 13.685115653061224  C 14.381701309265743 13.685115653061224  14.635102051020409 13.43171491130656  14.635102051020409 13.11912925510204  C 14.635102051020409 12.806543598897521  14.381701309265743 12.553142857142857  14.069115653061225 12.553142857142857  L 13.08691157142857 12.553142857142856  L 13.08691157142857 11.096380959183673  C 13.08691157142857 10.783795302979154  12.833510829673907 10.530394561224488  12.520925173469388 10.530394561224488  C 12.208339517264868 10.530394561224488  11.954938775510204 10.783795302979154  11.954938775510204 11.096380959183673  Z " fill-rule="nonzero" fill="#ffffff" stroke="none" transform="matrix(1 0 0 1 65 189 )" />
  </g>
</svg>