<?xml version="1.0" encoding="utf-8"?>
<svg version="1.1" xmlns:xlink="http://www.w3.org/1999/xlink" width="17px" height="18px" xmlns="http://www.w3.org/2000/svg">
  <g transform="matrix(1 0 0 1 -1556 -99 )">
    <path d="M 12.027565892708335 3.2755817388838118  C 11.977522223791373 1.4516319973188059  10.47308738176523 -0.0009027494534334941  8.634945734374998 0  C 6.794623254166666 0  5.296725576041666 1.449628295258341  5.233469762499999 3.2663724363648097  L 0.9388217062500004 3.26637243636481  C 0.46077124507867995 3.266372201715804  0.07310422461728236 3.6508140200237538  0.0726387510416667 4.125349168229478  C 0.07310423438386948 4.599884309569139  0.46077125198609215 4.9843261171744695  0.9388217062500002 4.98432588251602  L 1.895249604166667 4.98432588251602  L 1.895249604166667 14.613488446386139  C 1.895249604166667 16.421441890432565  3.1316899208333338 17.897860461373057  4.656155039583334 17.897860461373057  L 12.433668214583333 17.897860461373057  C 13.958133333333334 17.897860461373057  15.194573632291668 16.430232587492608  15.19457365 14.613488446386139  L 15.19457365 4.9939537904939835  L 16.060756587500002 4.9939537904939835  C 16.538971583205416 4.99395385645737  16.926706720929243 4.6092571123606305  16.926939542708332 4.13455847074848  C 16.92647406913272 3.6600233225427563  16.538807048671323 3.275581504234806  16.0607565875 3.2755817388838118  L 12.027565892708335 3.2755817388838118  Z M 10.263572084375 3.1127445317545033  L 6.736006209374999 3.1127445317545033  C 6.798840316666665 2.2378608276055934  7.561705435416665 1.5563724763557185  8.5042170625 1.5563724763557185  C 9.446728689583333 1.5563724763557185  10.210015514583333 2.2374422221466332  10.263572084375 3.1127445317545033  Z M 4.752725576041667 16.341069800515314  L 4.752725576041666 16.332279103455274  C 4.204086824999999 16.332279103455274  3.600204643749999 15.644093064862034  3.600204643749999 14.66162798627595  L 3.600204643749999 5  L 13.791137977083334 5  L 13.791137977083334 14.670418683335992  C 13.791137977083334 15.65330238495916  13.187677519791666 16.341069800515314  12.639038751041669 16.341069800515314  L 4.752725576041667 16.341069800515314  Z " fill-rule="nonzero" fill="#e7772d" stroke="none" transform="matrix(1 0 0 1 1556 99 )" />
  </g>
</svg>