<?xml version="1.0" encoding="utf-8"?>
<svg version="1.1" xmlns:xlink="http://www.w3.org/1999/xlink" width="16px" height="4px" xmlns="http://www.w3.org/2000/svg">
  <g transform="matrix(1 0 0 1 -1554 -258 )">
    <path d="M 4.1807492102272725 1.9984321640624998  C 4.1807492102272725 2.9642197213541657  3.3255654147727274 3.7481382005208346  2.2719789886363633 3.7481382005208346  C 1.2183925625 3.7481382005208346  0.3632087670454544 2.964219721354168  0.3632087670454544 1.9984321640624998  C 0.3632087670454544 1.0326446067708328  1.2183925625 0.2487261276041662  2.2719789886363633 0.2487261276041662  C 3.3255654147727274 0.2487261276041662  4.1807492102272725 1.032644606770834  4.1807492102272725 1.9984321640624998  Z M 9.907059855113637 1.9984321640624998  C 9.907059855113637 2.9642197213541657  9.05187605965909 3.7481382005208346  7.998289633522727 3.7481382005208346  C 6.944703207386365 3.7481382005208346  6.089519411931818 2.964219721354168  6.089519411931818 1.9984321640624998  C 6.089519411931818 1.0326446067708328  6.944703207386365 0.2487261276041662  7.998289633522727 0.2487261276041662  C 9.05187605965909 0.2487261276041662  9.907059855113637 1.032644606770834  9.907059855113637 1.9984321640624998  Z M 15.636791232954549 1.9984321640624998  C 15.636791232954549 2.9642197213541657  14.778186704545455 3.7481382005208346  13.728021011363637 3.7481382005208346  C 12.674434585227273 3.7481382005208346  11.819250789772726 2.964219721354168  11.819250789772726 1.9984321640624998  C 11.819250789772726 1.0326446067708328  12.674434585227273 0.2487261276041662  13.728021011363637 0.2487261276041662  C 14.781607437500002 0.2487261276041662  15.636791232954549 1.032644606770834  15.636791232954549 1.9984321640624998  Z " fill-rule="nonzero" fill="#7f7f7f" stroke="none" transform="matrix(1 0 0 1 1554 258 )" />
  </g>
</svg>