<?xml version="1.0" encoding="utf-8"?>
<svg version="1.1" xmlns:xlink="http://www.w3.org/1999/xlink" width="20px" height="20px" xmlns="http://www.w3.org/2000/svg">
  <g transform="matrix(1 0 0 1 -60 -1250 )">
    <path d="M 70 1251  C 75.04 1251  79 1254.96  79 1260  C 79 1265.04  75.04 1269  70 1269  C 64.96 1269  61 1265.04  61 1260  C 61 1254.96  64.96 1251  70 1251  Z " fill-rule="nonzero" fill="#ffffff" stroke="none" fill-opacity="0" />
    <path d="M 70 1251  C 75.04 1251  79 1254.96  79 1260  C 79 1265.04  75.04 1269  70 1269  C 64.96 1269  61 1265.04  61 1260  C 61 1254.96  64.96 1251  70 1251  Z " stroke-width="2" stroke="#e7772d" fill="none" />
  </g>
</svg>