<?xml version="1.0" encoding="utf-8"?>
<svg version="1.1" xmlns:xlink="http://www.w3.org/1999/xlink" width="10px" height="18px" xmlns="http://www.w3.org/2000/svg">
  <g transform="matrix(1 0 0 1 -30 -21 )">
    <path d="M 9.540989105902778 17.479681831054688  C 9.338208723958335 17.686395483398435  9.0715181640625 17.78905305175781  8.804864930555555 17.78905305175781  C 8.53821169704861 17.78905305175781  8.271521137152776 17.686395483398435  8.068068793402777 17.480399985351564  L 0.4298705295138884 9.746724221191407  C 0.02292851562499957 9.33541358642578  0.02292851562499957 8.667421193847655  0.4298705295138884 8.255392404785155  L 8.068068815104166 0.5209985302734375  C 8.475010828993057 0.10896974121093707  9.13404711371528 0.10896974121093707  9.540989127604169 0.5209985302734375  C 9.947931141493054 0.9323091650390622  9.947931141493054 1.6003015576171875  9.540989127604169 2.0123303466796876  L 2.6395869791666673 9.000680361328126  L 9.540989105902778 15.988350014648438  C 9.947931119791667 16.40037880371094  9.947931119791667 17.067653041992187  9.540989105902778 17.479681831054688  Z " fill-rule="nonzero" fill="#272636" stroke="none" transform="matrix(1 0 0 1 30 21 )" />
  </g>
</svg>