<?xml version="1.0" encoding="utf-8"?>
<svg version="1.1" xmlns:xlink="http://www.w3.org/1999/xlink" width="18px" height="18px" xmlns="http://www.w3.org/2000/svg">
  <g transform="matrix(1 0 0 1 -422 -1595 )">
    <path d="M 12.730666666666664 1.4915229357798163  L 12.729333333333335 1.4915229357798165  L 11.798666666666666 0.09115596330275223  L 10.869333333333335 1.4915229357798165  L 9.237333333333336 1.935412844036697  L 10.294666666666668 3.243302752293578  L 10.216000000000001 4.91845871559633  L 11.8 4.326605504587156  L 13.382666666666665 4.91845871559633  L 13.305333333333333 3.2446238532110088  L 14.361333333333333 1.935412844036697  L 12.730666666666664 1.4915229357798163  Z M 2.7093333333333334 5.7745321100917435  L 2.706666666666666 5.775853211009174  L 5.753333333333333 2.757137614678899  L 8.040000000000001 5.018862385321102  L 8.042666666666667 5.01622018348624  L 17.944000000000003 14.826715596330276  L 17.94 14.82935779816514  L 17.942666666666668 14.830678899082569  L 14.896 17.849394495412845  L 2.7093333333333334 5.7745321100917435  Z M 4.591999999999999 5.7758532110091725  L 5.753333333333333 4.625174311926605  L 7.094666666666667 5.952880733944953  L 5.933333333333332 7.103559633027522  L 4.591999999999999 5.7758532110091725  Z M 2.642666666666667 9.400954128440366  L 2.642666666666667 9.402275229357798  L 1.9800000000000004 8.403522935779817  L 1.317333333333334 9.402275229357798  L 0.1546666666666674 9.719339449541284  L 0.9080000000000006 10.650715596330274  L 0.8520000000000005 11.844990825688074  L 1.9800000000000004 11.42223853211009  L 3.1080000000000005 11.844990825688074  L 3.0533333333333337 10.650715596330274  L 3.8053333333333335 9.718018348623854  L 2.642666666666667 9.400954128440366  Z M 7.217333333333333 12.578201834862384  L 6.528000000000001 12.390605504587157  L 6.133333333333335 11.798752293577982  L 5.740000000000001 12.390605504587157  L 5.049333333333334 12.578201834862384  L 5.497333333333335 13.133064220183485  L 5.464000000000001 13.841174311926602  L 6.133333333333335 13.590165137614676  L 6.804000000000001 13.841174311926602  L 6.770666666666667 13.133064220183485  L 7.217333333333333 12.578201834862384  Z " fill-rule="nonzero" fill="#999999" stroke="none" transform="matrix(1 0 0 1 422 1595 )" />
  </g>
</svg>