<?xml version="1.0" encoding="utf-8"?>
<svg version="1.1" xmlns:xlink="http://www.w3.org/1999/xlink" width="20px" height="20px" xmlns="http://www.w3.org/2000/svg">
  <g transform="matrix(1 0 0 1 -370 -80 )">
    <path d="M 6.80909090909091 2.326859504132231  C 7.826859504132232 1.8962809917355368  8.908884297520663 1.6780991735537185  10.025413223140497 1.678099173553719  C 11.141735537190083 1.678099173553719  12.22396694214876 1.8962809917355372  13.241735537190083 2.3268595041322317  C 14.225619834710743 2.74297520661157  15.109504132231404 3.33904958677686  15.86900826446281 4.098553719008264  C 16.628512396694212 4.8580578512396695  17.224586776859503 5.74194214876033  17.64070247933884 6.725826446280991  C 18.071280991735538 7.743595041322314  18.289462809917353 8.825619834710743  18.289462809917353 9.942148760330577  C 18.289462809917353 11.05867768595041  18.071280991735538 12.140702479338842  17.64070247933884 13.158471074380163  C 17.224586776859503 14.142355371900823  16.628512396694212 15.026239669421484  15.86900826446281 15.78574380165289  C 15.109504132231404 16.545247933884294  14.225619834710743 17.141322314049585  13.241735537190083 17.557438016528923  C 12.22396694214876 17.988016528925616  11.14194214876033 18.206198347107435  10.025413223140497 18.206198347107435  C 8.908884297520663 18.206198347107435  7.826859504132232 17.988016528925616  6.80909090909091 17.557438016528923  C 5.825206611570249 17.141322314049585  4.9413223140495885 16.545247933884294  4.181818181818183 15.78574380165289  C 3.4223140495867783 15.026239669421484  2.826239669421489 14.142355371900823  2.41012396694215 13.158471074380163  C 1.9795454545454558 12.140702479338842  1.7613636363636376 11.05867768595041  1.7613636363636376 9.942148760330577  C 1.7613636363636376 8.825619834710743  1.9795454545454558 7.743595041322314  2.41012396694215 6.725826446280991  C 2.826239669421489 5.741942148760329  3.4223140495867783 4.8580578512396695  4.181818181818183 4.0985537190082635  C 4.9413223140495885 3.3390495867768593  5.825206611570249 2.74297520661157  6.80909090909091 2.326859504132231  Z M 19.942561983471073 9.942355371900828  C 19.942355371900828 4.465289256198348  15.502272727272729 0.025206611570248498  10.025413223140497 0.025206611570247322  C 4.704545454545456 0.025206611570247322  0.36239669421487647 4.215702479338842  0.11921487603305865 9.476652892561983  C -0.15537190082644547 15.418595041322314  4.549173553719009 20.12314049586777  10.49111570247934 19.848553719008265  C 15.75185950413223 19.605371900826444  19.942561983471073 15.263223140495867  19.942561983471073 9.942355371900828  Z " fill-rule="nonzero" fill="#ffffff" stroke="none" transform="matrix(1 0 0 1 370 80 )" />
  </g>
</svg>