<?xml version="1.0" encoding="utf-8"?>
<svg version="1.1" xmlns:xlink="http://www.w3.org/1999/xlink" width="14px" height="12px" xmlns="http://www.w3.org/2000/svg">
  <g transform="matrix(1 0 0 1 -326 -387 )">
    <path d="M 13.968028846153846 8.213333333333333  C 13.968028846153846 7.844999999999999  13.668509615384615 7.546666666666666  13.296634615384615 7.546666666666666  L 0.7033653846153849 7.546666666666666  C 0.3314903846153849 7.546666666666666  0.03028846153846173 7.844999999999999  0.03028846153846173 8.213333333333333  C 0.03028846153846173 8.353333333333332  0.07403846153846164 8.483333333333334  0.14807692307692327 8.59  C 0.1800480769230772 8.665  0.228846153846154 8.735  0.2894230769230772 8.796666666666665  L 3.2560096153846154 11.733333333333333  C 3.3872596153846155 11.863333333333332  3.558894230769231 11.928333333333335  3.7322115384615384 11.928333333333335  C 3.905528846153847 11.928333333333335  4.077163461538461 11.863333333333335  4.208413461538462 11.733333333333333  C 4.470913461538462 11.473333333333333  4.470913461538462 11.051666666666668  4.208413461538462 10.79  L 2.276682692307692 8.879999999999999  L 13.29495192307692 8.879999999999999  C 13.666826923076922 8.879999999999999  13.968028846153846 8.581666666666667  13.968028846153846 8.213333333333333  Z M 0.03028846153846173 3.786666666666668  C 0.03028846153846173 4.155000000000001  0.3314903846153849 4.453333333333334  0.7033653846153849 4.453333333333333  L 13.296634615384615 4.453333333333333  C 13.668509615384616 4.453333333333333  13.969711538461539 4.155  13.969711538461539 3.786666666666666  C 13.969711538461539 3.6466666666666674  13.92596153846154 3.5166666666666666  13.851923076923077 3.4099999999999993  C 13.828365384615386 3.3549999999999995  13.79471153846154 3.301666666666666  13.754326923076924 3.251666666666666  L 11.327884615384615 0.3150000000000001  C 11.092307692307694 0.030000000000000186  10.66826923076923 -0.011666666666666478  10.380528846153847 0.22166666666666685  C 10.092788461538461 0.4550000000000002  10.050721153846155 0.875  10.286298076923078 1.1600000000000004  L 11.90673076923077 3.120000000000001  L 0.7033653846153849 3.120000000000001  C 0.3314903846153849 3.120000000000001  0.03028846153846173 3.4183333333333334  0.03028846153846173 3.786666666666668  Z " fill-rule="nonzero" fill="#333333" stroke="none" transform="matrix(1 0 0 1 326 387 )" />
  </g>
</svg>