<?xml version="1.0" encoding="utf-8"?>
<svg version="1.1" xmlns:xlink="http://www.w3.org/1999/xlink" width="10px" height="6px" xmlns="http://www.w3.org/2000/svg">
  <g transform="matrix(1 0 0 1 -375 -87 )">
    <path d="M 9.68156779661017 4.525000000000001  L 5.3254237288135595 0.2635416666666662  C 5.152966101694916 0.09500000000000006  4.8743644067796605 0.09562499999999949  4.702754237288136 0.26499999999999935  L 0.3665254237288138 4.548750000000001  C 0.03644067796610227 4.875  0.03750000000000082 5.402500000000002  0.3692796610169493 5.727291666666669  C 0.701059322033899 6.051875000000003  1.2375000000000005 6.050625000000002  1.5677966101694916 5.724583333333335  L 4.708474576271186 2.6218750000000015  C 4.880084745762713 2.4525000000000015  5.1586864406779664 2.451666666666668  5.33114406779661 2.6204166666666686  L 8.486228813559322 5.706666666666668  C 8.81800847457627 6.031250000000002  9.354661016949152 6.029791666666668  9.684745762711865 5.703541666666669  C 10.014830508474578 5.377291666666669  10.013347457627118 4.849583333333335  9.68156779661017 4.525000000000001  Z " fill-rule="nonzero" fill="#999999" stroke="none" transform="matrix(1 0 0 1 375 87 )" />
  </g>
</svg>