<?xml version="1.0" encoding="utf-8"?>
<svg version="1.1" xmlns:xlink="http://www.w3.org/1999/xlink" width="18px" height="18px" xmlns="http://www.w3.org/2000/svg">
  <g transform="matrix(1 0 0 1 -3750 -1999 )">
    <path d="M 18 9  C 18 4.023529417968749  13.976470582031249 0  9 0  C 4.02352941796875 0  0 4.02352941796875  0 9  C 0 13.97647058203125  4.02352941796875 18  9 18  C 13.97647058203125 18  18 13.97647058203125  18 9  Z M 10.588235291015625 8.999999999999998  L 12.9176470546875 11.329411763671875  C 13.34117647265625 11.752941181640624  13.34117647265625 12.494117654296875  12.9176470546875 12.9176470546875  C 12.49411763671875 13.34117647265625  11.7529411640625 13.34117647265625  11.329411763671875 12.9176470546875  L 9 10.588235291015625  L 6.670588236328125 13.02352941796875  C 6.247058818359375 13.447058835937499  5.5058823457031245 13.447058835937499  5.0823529453125005 13.02352941796875  C 4.870588236328125 12.705882363281248  4.764705890625001 12.494117654296874  4.764705890625001 12.17647058203125  C 4.764705890625001 11.858823509765626  4.870588236328125 11.54117647265625  5.0823529453125005 11.329411763671875  L 7.411764708984375 9  L 5.0823529453125005 6.77647058203125  C 4.870588236328125 6.45882352734375  4.764705890625001 6.247058818359375  4.764705890625001 5.929411763671874  C 4.764705890625001 5.611764708984374  4.870588236328125 5.294117654296874  5.0823529453125005 5.082352945312499  C 5.50588236328125 4.658823527343749  6.2470588359375 4.658823527343749  6.670588236328125 5.082352945312499  L 9 7.411764708984374  L 11.329411763671875 5.082352945312499  C 11.752941181640624 4.658823527343749  12.494117654296875 4.658823527343749  12.9176470546875 5.082352945312499  C 13.34117647265625 5.505882363281248  13.34117647265625 6.247058835937499  12.9176470546875 6.670588236328124  L 10.588235291015625 8.999999999999998  Z " fill-rule="nonzero" fill="#000000" stroke="none" transform="matrix(1 0 0 1 3750 1999 )" />
  </g>
</svg>