<?xml version="1.0" encoding="utf-8"?>
<svg version="1.1" xmlns:xlink="http://www.w3.org/1999/xlink" width="10px" height="75px" preserveAspectRatio="xMidYMin meet" viewBox="186 1979  8 75" xmlns="http://www.w3.org/2000/svg">
  <path d="M 182 1916  L 182 1980  A 4 4 0 0 0 186 1984 A 4 4 0 0 1 190 1988 L 190 2052  " stroke-width="2" stroke="#e7772d" fill="none" />
  <path d="M 182 1914  A 3.5 3.5 0 0 0 178.5 1917.5 A 3.5 3.5 0 0 0 182 1921 A 3.5 3.5 0 0 0 185.5 1917.5 A 3.5 3.5 0 0 0 182 1914 Z M 182 2044.6  L 190 2054  L 198 2044.6  L 190 2048.2  L 182 2044.6  Z " fill-rule="nonzero" fill="#e7772d" stroke="none" />
</svg>