<?xml version="1.0" encoding="utf-8"?>
<svg version="1.1" xmlns:xlink="http://www.w3.org/1999/xlink" width="654px" height="234px" xmlns="http://www.w3.org/2000/svg">
  <g transform="matrix(1 0 0 1 -4816 -931 )">
    <path d="M 4817 936  A 4 4 0 0 1 4821 932 L 5465 932  A 4 4 0 0 1 5469 936 L 5469 1160  A 4 4 0 0 1 5465 1164 L 4821 1164  A 4 4 0 0 1 4817 1160 L 4817 936  Z " fill-rule="nonzero" fill="#f2f2f2" stroke="none" />
    <path d="M 4816.5 936  A 4.5 4.5 0 0 1 4821 931.5 L 5465 931.5  A 4.5 4.5 0 0 1 5469.5 936 L 5469.5 1160  A 4.5 4.5 0 0 1 5465 1164.5 L 4821 1164.5  A 4.5 4.5 0 0 1 4816.5 1160 L 4816.5 936  Z " stroke-width="1" stroke-dasharray="9,4" stroke="#999999" fill="none" stroke-dashoffset="0.5" />
  </g>
</svg>