<?xml version="1.0" encoding="utf-8"?>
<svg version="1.1" xmlns:xlink="http://www.w3.org/1999/xlink" width="12px" height="12px" xmlns="http://www.w3.org/2000/svg">
  <g transform="matrix(1 0 0 1 -4172 -2969 )">
    <path d="M 11.25 6  C 11.25 3.0749999999999997  8.925 0.75  6 0.75  C 3.0749999999999997 0.75  0.75 3.0749999999999997  0.75 6  C 0.75 8.925  3.0749999999999997 11.25  6 11.25  C 8.925 11.25  11.25 8.925  11.25 6  Z M 0 6  C 0 2.6999999999999997  2.7 0  6 0  C 9.3 0  12 2.7  12 6  C 12 9.3  9.3 12  6 12  C 2.6999999999999997 12  0 9.3  0 6  Z M 5.4 3  C 5.4 2.7  5.7 2.4000000000000004  6 2.4000000000000004  C 6.300000000000001 2.4000000000000004  6.6000000000000005 2.625  6.6000000000000005 3  L 6.6000000000000005 7.125  C 6.6000000000000005 7.425000000000001  6.375 7.7250000000000005  6 7.7250000000000005  C 5.625 7.7250000000000005  5.4 7.5  5.4 7.125  L 5.4 3  Z M 6.6000000000000005 9  C 6.6000000000000005 9.375  6.300000000000001 9.600000000000001  6 9.600000000000001  C 5.699999999999999 9.600000000000001  5.4 9.375  5.4 9  C 5.4 8.625  5.625 8.399999999999999  6 8.399999999999999  C 6.375 8.399999999999999  6.6000000000000005 8.625  6.6000000000000005 9  Z " fill-rule="nonzero" fill="#999999" stroke="none" transform="matrix(1 0 0 1 4172 2969 )" />
  </g>
</svg>