<?xml version="1.0" encoding="utf-8"?>
<svg version="1.1" xmlns:xlink="http://www.w3.org/1999/xlink" width="8px" height="14px" xmlns="http://www.w3.org/2000/svg">
  <g transform="matrix(1 0 0 1 -3992 -2703 )">
    <path d="M 7.632791284722223 13.595308090820312  C 7.470566979166668 13.75608537597656  7.25721453125 13.835930151367187  7.043891944444444 13.835930151367187  C 6.830569357638888 13.835930151367187  6.617216909722221 13.75608537597656  6.454455034722222 13.595866655273438  L 0.3438964236111107 7.580785505371094  C 0.018342812499999656 7.260877233886717  0.018342812499999656 6.741327595214844  0.3438964236111107 6.420860759277343  L 6.454455052083333 0.40522107910156246  C 6.780008663194445 0.08475424316406217  7.307237690972223 0.08475424316406217  7.6327913020833345 0.40522107910156246  C 7.958344913194444 0.7251293505859373  7.958344913194444 1.2446789892578125  7.6327913020833345 1.5651458251953125  L 2.1116695833333337 7.000529169921876  L 7.632791284722223 12.435383344726562  C 7.958344895833334 12.755850180664064  7.958344895833334 13.274841254882814  7.632791284722223 13.595308090820312  Z " fill-rule="nonzero" fill="#272636" stroke="none" transform="matrix(1 0 0 1 3992 2703 )" />
  </g>
</svg>