<?xml version="1.0" encoding="utf-8"?>
<svg version="1.1" xmlns:xlink="http://www.w3.org/1999/xlink" width="14px" height="14px" xmlns="http://www.w3.org/2000/svg">
  <g transform="matrix(1 0 0 1 -1515 -67 )">
    <path d="M 13.95077771759259 13.446862839622641  C 13.950761157407408 13.344179856132076  13.91449775462963 13.244520938679246  13.841888018518517 13.15204204009434  L 10.666692053240741 10.03049958254717  L 10.696455583333332 9.992487617924528  C 11.551489493055556 8.913792554245283  12.022399844907406 7.555650441037735  12.022399844907406 6.169007778301886  C 12.022399844907406 2.805759910377358  9.33675168287037 0.06920261084905605  6.036565499999998 0.06920261084905605  C 2.7353678657407396 0.06920261084905605  0.04920567361111042 2.805759910377358  0.04920567361111042 6.169007778301886  C 0.04920567361111042 9.532238757075472  2.7353678657407405 12.26854263679245  6.036565499999998 12.26854263679245  C 7.483006449074073 12.26854263679245  8.880499233796295 11.73281046462264  9.971502349537037 10.761427398584903  L 10.007301483796297 10.729564933962262  L 13.174886601851851 13.816220860849056  L 13.206639881944444 13.816220860849056  L 13.207153895833331 13.842947488207546  C 13.28732471759259 13.900455360849055  13.377577013888887 13.930763577830188  13.475871256944442 13.930763577830188  C 13.738055576388888 13.930763577830188  13.95077771759259 13.712963464622641  13.95077771759259 13.446862839622641  Z M 11.071044865740742 6.169024683962263  C 11.071044865740742 8.99804395990566  8.812416212962965 11.299271358490564  6.036548923611112 11.299271358490564  C 3.2599023009259263 11.299271358490564  1.0013068171296298 8.99804395990566  1.0013068171296298 6.169024683962263  C 1.0013068171296298 3.340258811320755  3.2599023009259263 1.0395382523584906  6.036548923611112 1.0395382523584906  C 8.812399636574074 1.0395382523584906  11.071044865740742 3.340258811320755  11.071044865740742 6.169024683962263  Z " fill-rule="nonzero" fill="#999999" stroke="none" transform="matrix(1 0 0 1 1515 67 )" />
  </g>
</svg>