<?xml version="1.0" encoding="utf-8"?>
<svg version="1.1" xmlns:xlink="http://www.w3.org/1999/xlink" width="1590px" height="520px" xmlns="http://www.w3.org/2000/svg">
  <g transform="matrix(1 0 0 1 0 -117 )">
    <path d="M 0 117  L 1590 117  L 1590 637  L 0 637  L 0 117  " fill-rule="nonzero" fill="#cccccc" stroke="none" />
    <path d="M 36 153  L 1554 153  L 1554 601  L 36 601  L 36 153  " fill-rule="nonzero" fill="#ffffff" stroke="none" />
    <path d="M 865.8000000000001 273  C 843.96 273  826.8000000000001 255.84  826.8000000000001 234  C 826.8000000000001 212.16  843.96 195  865.8000000000001 195  C 887.6400000000001 195  904.8000000000001 212.16  904.8000000000001 234  C 904.8000000000001 255.84  887.6400000000001 273  865.8000000000001 273  " fill-rule="nonzero" fill="#cccccc" stroke="none" />
    <path d="M 49 588  L 49 355.9  L 422 250.39999999999998  L 944.1999999999999 505.1924528301887  L 1242.6000000000001 313.7  L 1541 505.1924528301887  L 1541 588  L 49 588  " fill-rule="nonzero" fill="#169bd5" stroke="none" />
  </g>
</svg>