<?xml version="1.0" encoding="utf-8"?>
<svg version="1.1" xmlns:xlink="http://www.w3.org/1999/xlink" width="500px" height="500px" xmlns="http://www.w3.org/2000/svg">
  <g transform="matrix(1 0 0 1 -922 -1385 )">
    <path d="M 498.15632142857146 250.42314174107145  C 498.15632142857146 387.2926300223215  387.07677622767864 498.26767466517856  250.04511216517855 498.26767466517856  C 113.02601116071428 498.26767466517856  1.9858677455356792 387.29205915178574  1.9858677455356792 250.42314174107145  C 1.9858677455356792 145.36465736607144  67.37753236607139 55.608368861607175  159.72863225446423 19.53739676339288  C 187.63199944196424 8.281028459821451  218.11647377232137 2.064671875000027  250.05139341517858 2.064671875000027  C 282.02571484375 2.064671875000027  312.4839213169643 8.274747209821456  340.41355636160716 19.53739676339288  C 432.75894642857145 55.60836886160714  498.15632142857146 145.36522823660712  498.15632142857146 250.42314174107145  Z M 154.69547377232144 198.15400892857144  C 154.69547377232144 239.92111941964288  176.09582142857144 276.0828872767857  207.20501506696428 293.7834581473214  C 220.10655357142858 301.1247661830357  234.6332756696429 305.3584676339286  250.04511216517855 305.3584676339286  C 264.91617243303574 305.3584676339286  278.9363811383928 301.3982957589286  291.4998627232143 294.5572193080358  C 323.3439866071429 277.194705357143  345.43415234375004 240.5909514508929  345.43415234375004 198.16086160714292  C 345.43415234375004 139.08320200892862  302.65287220982145 90.99580524553578  250.0456830357143 90.99580524553578  C 197.4704720982143 90.9895234375  154.69547377232144 139.07749107142857  154.69547377232144 198.15400892857144  Z M 251.0530005580357 482.20656417410714  C 323.53243080357146 482.20656417410714  388.1885943080357 448.8737354910714  430.56671875 396.7091026785714  C 425.5603989955357 355.5598588169642  385.4635842633929 320.5298950892857  328.7152025669643 303.05659933035713  C 307.2823052455357 322.3372410714286  279.89915680803574 333.9385184151786  250.0382600446428 333.9385184151786  C 219.5143839285714 333.9385184151786  191.57275669642854 321.7130931919643  169.93142968749993 301.5935909598214  C 114.7294280133928 317.3491941964285  74.29569921874995 349.4862628348214  64.81527008928568 387.9950106026785  C 106.86790066964286 445.121421875  174.64594698660713 482.20656417410714  251.0530005580357 482.20656417410714  Z " fill-rule="nonzero" fill="#cccccc" stroke="none" transform="matrix(1 0 0 1 922 1385 )" />
  </g>
</svg>