<?xml version="1.0" encoding="utf-8"?>
<svg version="1.1" xmlns:xlink="http://www.w3.org/1999/xlink" width="9px" height="10px" xmlns="http://www.w3.org/2000/svg">
  <g transform="matrix(1 0 0 1 -2022 -696 )">
    <path d="M 1.289636029411765 5.999999999999998  L 3.511753676470588 6  L 3.511753676470588 4.791551339285714  C 2.6392058823529414 4.405145089285714  2.029400735294118 3.523080357142857  2.029400735294118 2.5  C 2.029400735294118 1.1192968749999999  3.1382977941176473 0  4.499988970588236 0  C 5.8644485294117645 0  6.970577205882353 1.122154017857143  6.970577205882353 2.5  C 6.970577205882353 3.524709821428571  6.359779411764706 4.405412946428572  5.488224264705883 4.791439732142857  L 5.488224264705883 6  L 7.710341911764706 6  C 8.393338235294117 6  8.947047794117648 6.554866071428572  8.947047794117648 7.250033482142858  L 8.947047794117648 8.5  L 0.052952205882352964 8.5  L 0.052952205882352964 7.249977678571428  C 0.052952205882352964 6.55963169642857  0.6093198529411765 5.999999999999998  1.289636029411765 5.999999999999998  Z M 0.5470698529411765 9  L 8.452875 9  L 8.452875 10  L 0.5470588235294117 10  L 0.5470588235294117 9  Z " fill-rule="nonzero" fill="#ffffff" stroke="none" transform="matrix(1 0 0 1 2022 696 )" />
  </g>
</svg>