<?xml version="1.0" encoding="utf-8"?>
<svg version="1.1" xmlns:xlink="http://www.w3.org/1999/xlink" width="4px" height="8px" xmlns="http://www.w3.org/2000/svg">
  <g transform="matrix(1 0 0 1 -2138 -729 )">
    <path d="M 3.275731597568172 4.00277910421286  C 3.275731597568172 3.983508801543592  3.2687141895559515 3.965027815036451  3.2562232195121954 3.95140200443459  L 0.13621177235772375 0.5477531529933481  C 0.0321800325203256 0.4342549002217295  0.0321800325203256 0.2502436895787139  0.13621177235772375 0.13674543680709544  C 0.24025183739837436 0.02325626607538812  0.40892878048780495 0.02325626607538812  0.5129688455284551 0.13674543680709544  L 3.868450341463414 3.7972707050997783  C 3.9724904065040647 3.910768957871397  3.9724904065040647 4.094780168514413  3.868450341463414 4.208278421286031  L 0.5129771707317071 7.868803689578713  C 0.40892878048780495 7.982301942350332  0.24025183739837389 7.982301942350332  0.13621177235772328 7.868803689578713  C 0.03218003252032512 7.755305436807095  0.03218003252032512 7.5712942261640785  0.13621177235772328 7.457795973392461  L 3.2562232195121954 4.0541562039911305  C 3.2687141895559515 4.040530393389268  3.275731597568172 4.022049406882129  3.275731597568172 4.00277910421286  Z " fill-rule="nonzero" fill="#333333" stroke="none" transform="matrix(1 0 0 1 2138 729 )" />
  </g>
</svg>