<?xml version="1.0" encoding="utf-8"?>
<svg version="1.1" xmlns:xlink="http://www.w3.org/1999/xlink" width="20px" height="20px" xmlns="http://www.w3.org/2000/svg">
  <g transform="matrix(1 0 0 1 -2220 -2365 )">
    <path d="M 9.055245535714285 1.00953125  C 9.055245535714285 0.504575892857143  9.464575892857143 0.09524553571428562  9.96953125 0.09524553571428562  C 10.474464285714284 0.09524553571428562  10.883816964285716 0.5045758928571427  10.883816964285716 1.00953125  L 10.883816964285716 9.055223214285714  L 18.92953125 9.055223214285714  C 19.434464285714284 9.055223214285714  19.843816964285715 9.464598214285713  19.843816964285715 9.969508928571427  C 19.843816964285715 10.474464285714284  19.434464285714284 10.88379464285714  18.92953125 10.88379464285714  L 10.883816964285716 10.88379464285714  L 10.883816964285716 18.929531249999997  C 10.883816964285716 19.434464285714284  10.474464285714287 19.84381696428571  9.969531250000001 19.84381696428571  C 9.464575892857143 19.84381696428571  9.055245535714286 19.434464285714284  9.055245535714286 18.929531249999997  L 9.055245535714286 10.883816964285716  L 1.00953125 10.883816964285716  C 0.504575892857143 10.883816964285716  0.09524553571428562 10.474464285714287  0.09524553571428562 9.969531250000001  C 0.09524553571428562 9.464575892857143  0.5045758928571427 9.055245535714286  1.00953125 9.055245535714286  L 9.055245535714285 9.055223214285716  L 9.055245535714285 1.00953125  Z " fill-rule="nonzero" fill="#999999" stroke="none" transform="matrix(1 0 0 1 2220 2365 )" />
  </g>
</svg>