<?xml version="1.0" encoding="utf-8"?>
<svg version="1.1" xmlns:xlink="http://www.w3.org/1999/xlink" width="30px" height="30px" xmlns="http://www.w3.org/2000/svg">
  <g transform="matrix(1 0 0 1 -2481 -2747 )">
    <path d="M 19.925537109375 8.854980468749998  L 14.930419921875 13.677978515625  L 10.107421875 8.682861328125  C 9.7265625 8.291015625  9.10400390625 8.28369140625  8.712158203124998 8.66455078125  C 8.521728515624998 8.843994140625  8.411865234374998 9.093017578125  8.408203124999998 9.356689453125  C 8.400878906249998 9.620361328124998  8.503417968749998 9.873046875  8.682861328124998 10.059814453124998  L 13.505859374999998 15.054931640625  L 8.510742187499998 19.8779296875  C 8.118896484374998 20.2587890625  8.111572265625 20.88134765625  8.492431640624998 21.273193359375004  C 8.671874999999998 21.463623046875004  8.920898437499998 21.573486328125004  9.184570312499998 21.5771484375  C 9.448242187499998 21.584472656250004  9.700927734374998 21.48193359375  9.887695312499998 21.302490234375  L 14.882812499999998 16.479492187500004  L 19.705810546875 21.474609375000004  C 20.086669921875 21.866455078125004  20.709228515625 21.873779296875  21.10107421875 21.492919921875004  C 21.291503906250004 21.313476562500004  21.401367187500004 21.064453125  21.405029296875 20.800781250000004  C 21.412353515625 20.537109375  21.309814453125 20.284423828125004  21.13037109375 20.09765625  L 16.307373046875 15.102539062499996  L 21.302490234375 10.279541015624998  C 21.694335937500004 9.898681640625  21.70166015625 9.276123046875  21.32080078125 8.884277343749998  C 21.141357421875 8.693847656249998  20.892333984375 8.583984374999998  20.628662109375 8.580322265624998  C 20.364990234375 8.572998046874998  20.1123046875 8.675537109374998  19.925537109375 8.854980468749998  Z M 25.341796875 25.6640625  C 19.434814453124996 31.365966796875007  10.02685546875 31.204833984375  4.3212890625 25.2978515625  C -1.3806152343749993 19.390869140625004  -1.2158203124999993 9.982910156250002  4.6875 4.277343750000003  C 10.594482421875002 -1.4245605468749978  20.00244140625 -1.2597656249999978  25.7080078125 4.643554687500003  C 31.409912109374993 10.550537109375002  31.248779296875 19.958496093750004  25.341796875 25.6640625  Z " fill-rule="nonzero" fill="#ff6666" stroke="none" transform="matrix(1 0 0 1 2481 2747 )" />
  </g>
</svg>