<?xml version="1.0" encoding="utf-8"?>
<svg version="1.1" xmlns:xlink="http://www.w3.org/1999/xlink" width="6px" height="7px" xmlns="http://www.w3.org/2000/svg">
  <g transform="matrix(1 0 0 1 -2517 -3762 )">
    <path d="M 0.9295299057407405 3.0626469895744695  C 0.9295299057407405 1.8669524488031932  1.567619766018518 0.8729235051994697  2.659876585277778 0.6880222907845743  L 2.659876585277778 0.4252160263563831  C 2.659876585277778 0.21812666312500006  2.8281047346296297 0.04851061222074473  3.0345888490740744 0.04851061231382991  C 3.2405825013888885 0.04851061231382991  3.409301112870371 0.21812666321808524  3.4093011127777784 0.42521602644946827  L 3.4093011127777784 0.6880222908776598  C 4.500577008148149 0.8729235051994683  5.134252723425926 1.86645938481383  5.134252716944445 3.062153918603724  L 5.134252716944445 4.511779461409575  L 5.899372002870371 5.170520863617022  C 6.024930035740741 5.381061716196809  6.028363263240741 5.542788646555852  5.907709837314815 5.7557948469148945  C 5.787546873425926 5.969787189029256  5.569782152407408 5.996412962247342  5.326023003796297 5.996412969042554  L 0.7431546945370371 5.996412969042554  C 0.4993955392592593 5.996412969042554  0.2816308182407407 5.969787195545215  0.16097739888888896 5.756780988670215  C 0.04081443500000016 5.543774788311172  0.04424766250000018 5.381061716382981  0.1693152400925926 5.171507005372342  L 0.18255768824074076 5.151784204055852  L 0.9295299057407405 4.5122725323803206  L 0.9295299057407405 3.0626469895744695  Z M 2.4097414369444436 6.202516190611703  L 3.6584553372222217 6.202516190611703  C 3.6584553372222217 6.5491443419946815  3.3788925204629625 6.95148938768617  3.034098387129629 6.95148938768617  C 2.689304253796296 6.95148938768617  2.409741437129629 6.549144341901596  2.4097414369444436 6.202516190611703  Z " fill-rule="nonzero" fill="#ffffff" stroke="none" transform="matrix(1 0 0 1 2517 3762 )" />
  </g>
</svg>