<?xml version="1.0" encoding="utf-8"?>
<svg version="1.1" xmlns:xlink="http://www.w3.org/1999/xlink" width="16px" height="16px" xmlns="http://www.w3.org/2000/svg">
  <g transform="matrix(1 0 0 1 -3601 -310 )">
    <path d="M 3609 310  C 3613.48 310  3617 313.52  3617 318  C 3617 322.48  3613.48 326  3609 326  C 3604.52 326  3601 322.48  3601 318  C 3601 313.52  3604.52 310  3609 310  Z " fill-rule="nonzero" fill="#f2f2f2" stroke="none" fill-opacity="0" />
    <path d="M 3609 310.5  C 3613.2 310.5  3616.5 313.8  3616.5 318  C 3616.5 322.2  3613.2 325.5  3609 325.5  C 3604.8 325.5  3601.5 322.2  3601.5 318  C 3601.5 313.8  3604.8 310.5  3609 310.5  Z " stroke-width="1" stroke="#d7d7d7" fill="none" />
  </g>
</svg>