<?xml version="1.0" encoding="utf-8"?>
<svg version="1.1" xmlns:xlink="http://www.w3.org/1999/xlink" width="32px" height="32px" xmlns="http://www.w3.org/2000/svg">
  <g transform="matrix(1 0 0 1 -672 -200 )">
    <path d="M 29.714285714285715 32  L 2.2857142857142856 32  C 1.0057142857143064 32  0 30.994285714285695  0 29.714285714285715  L 0 2.2857142857142856  C 0 1.0057142857143064  1.0057142857143064 0  2.2857142857142856 0  L 29.714285714285715 0  C 30.994285714285695 0  32 1.0057142857143064  32 2.2857142857142856  L 32 29.714285714285715  C 32 30.994285714285695  30.994285714285695 32  29.714285714285715 32  Z M 6.857142857142857 22  L 25.6 22  L 18.34470046082949 10.057142857142857  L 13.507834101382468 18.44705882352942  L 11.69400921658988 14.252100840336112  L 6.857142857142857 22  Z " fill-rule="nonzero" fill="#666666" stroke="none" transform="matrix(1 0 0 1 672 200 )" />
  </g>
</svg>