<?xml version="1.0" encoding="utf-8"?>
<svg version="1.1" xmlns:xlink="http://www.w3.org/1999/xlink" width="14px" height="17px" xmlns="http://www.w3.org/2000/svg">
  <g transform="matrix(1 0 0 1 -1998 -2754 )">
    <path d="M 2.168903113395061 7.437856974680855  C 2.168903113395061 4.534027375664897  3.657779454043209 2.119957084055855  6.206378698981482 1.6709112776196806  L 6.206378698981482 1.0326674925797876  C 6.206378698981482 0.5297361818750002  6.5989110474691355 0.11781148682180863  7.080707314506173 0.11781148704787264  C 7.561359169907407 0.11781148704787264  7.955035930030865 0.5297361821010642  7.955035929814816 1.0326674928058515  L 7.955035929814816 1.6709112778457451  C 10.50134635234568 2.1199570840558515  11.979923021327162 4.532829934547873  11.979923006203705 7.436659516609044  L 11.979923006203705 10.957178691994683  L 13.765201340030867 12.556979240212769  C 14.058170083395064 13.068292739335108  14.06618094756173 13.46105814163564  13.784656287067904 13.978358913936171  C 13.504276037993828 14.498054601928194  12.996158355617284 14.56271719402926  12.427387008858027 14.562717210531916  L 1.73402762058642 14.562717210531916  C 1.1652562582716048 14.562717210531916  0.6571385758950616 14.498054617752665  0.3756139307407409 13.980753829627664  C 0.09523368166666706 13.463453057327131  0.10324454583333376 13.068292739787239  0.39506889354938274 12.559374155904258  L 0.4259679392283951 12.51147592413564  L 2.168903113395061 10.958376150066492  L 2.168903113395061 7.437856974680855  Z M 5.622730019537036 15.063253605771278  L 8.536395786851852 15.063253605771278  C 8.536395786851852 15.905064830558514  7.884082547746912 16.882188512952126  7.079562903302468 16.882188512952126  C 6.275043258858023 16.882188512952126  5.622730019969135 15.905064830332448  5.622730019537036 15.063253605771278  Z " fill-rule="nonzero" fill="#ffffff" stroke="none" transform="matrix(1 0 0 1 1998 2754 )" />
  </g>
</svg>