<?xml version="1.0" encoding="utf-8"?>
<svg version="1.1" xmlns:xlink="http://www.w3.org/1999/xlink" width="20px" height="20px" xmlns="http://www.w3.org/2000/svg">
  <g transform="matrix(1 0 0 1 -2175 -698 )">
    <path d="M 2185 698  C 2190.6 698  2195 702.4  2195 708  C 2195 713.6  2190.6 718  2185 718  C 2179.4 718  2175 713.6  2175 708  C 2175 702.4  2179.4 698  2185 698  Z " fill-rule="nonzero" fill="#0066ff" stroke="none" />
    <path d="M 2185 698.5  C 2190.32 698.5  2194.5 702.68  2194.5 708  C 2194.5 713.32  2190.32 717.5  2185 717.5  C 2179.68 717.5  2175.5 713.32  2175.5 708  C 2175.5 702.68  2179.68 698.5  2185 698.5  Z " stroke-width="1" stroke="#0066ff" fill="none" />
  </g>
</svg>