<?xml version="1.0" encoding="utf-8"?>
<svg version="1.1" xmlns:xlink="http://www.w3.org/1999/xlink" width="18px" height="16px" xmlns="http://www.w3.org/2000/svg">
  <g transform="matrix(1 0 0 1 -2160 -2754 )">
    <path d="M 3.651315789473684 10.54141414141414  C 2.964473684210526 11.054545454545453  1.0894736842105261 12.81212121212121  0.3138157894736843 15.793939393939393  C 0.2703947368421053 15.963636363636363  0.06710526315789485 15.913131313131311  0.07894736842105277 15.735353535353536  C 0.3375000000000002 11.957575757575757  1.482236842105263 9.995959595959595  2.607236842105263 8.608080808080807  C 4.316447368421052 6.503030303030303  8.167105263157895 4.539393939393939  10.81578947368421 4.3090909090909095  C 11.025 4.290909090909092  11.188815789473683 4.072727272727273  11.188815789473683 3.808080808080808  L 11.188815789473683 0.6040404040404042  C 11.188815789473683 0.165656565656566  11.605263157894736 -0.06060606060606061  11.861842105263158 0.23636363636363672  L 17.773026315789473 7.094949494949496  C 17.950657894736842 7.301010101010101  17.942763157894735 7.652525252525254  17.757236842105264 7.846464646464648  L 11.960526315789474 13.931313131313132  C 11.7 14.204040404040404  11.30328947368421 13.971717171717172  11.30328947368421 13.547474747474748  L 11.30328947368421 9.622222222222222  C 11.30328947368421 9.361616161616162  11.14342105263158 9.143434343434341  10.936184210526315 9.12323232323232  C 9.244736842105263 8.95151515151515  5.261842105263159 9.331313131313129  3.651315789473684 10.54141414141414  Z " fill-rule="nonzero" fill="#ffffff" stroke="none" transform="matrix(1 0 0 1 2160 2754 )" />
  </g>
</svg>