<?xml version="1.0" encoding="utf-8"?>
<svg version="1.1" xmlns:xlink="http://www.w3.org/1999/xlink" width="10px" height="10px" xmlns="http://www.w3.org/2000/svg">
  <g transform="matrix(1 0 0 1 -2180 -703 )">
    <path d="M 9.6875 5  C 9.6875 5.4312499999999995  9.3375 5.78125  8.90625 5.78125  L 5.78125 5.78125  L 5.78125 8.90625  C 5.78125 9.3375  5.4312499999999995 9.6875  5 9.6875  C 4.56796875 9.6875  4.21875 9.3375  4.21875 8.90625  L 4.21875 5.78125  L 1.09375 5.78125  C 0.6617187499999999 5.78125  0.3125 5.4312499999999995  0.3125 5  C 0.3125 4.56875  0.6617187499999999 4.21875  1.09375 4.21875  L 4.21875 4.21875  L 4.21875 1.09375  C 4.21875 0.6624999999999999  4.56796875 0.3125  5 0.3125  C 5.4312499999999995 0.3125  5.78125 0.6624999999999999  5.78125 1.09375  L 5.78125 4.21875  L 8.90625 4.21875  C 9.3375 4.21875  9.6875 4.56875  9.6875 5  Z " fill-rule="nonzero" fill="#ffffff" stroke="none" transform="matrix(1 0 0 1 2180 703 )" />
  </g>
</svg>