<?xml version="1.0" encoding="utf-8"?>
<svg version="1.1" xmlns:xlink="http://www.w3.org/1999/xlink" width="22px" height="20px" xmlns="http://www.w3.org/2000/svg">
  <g transform="matrix(1 0 0 1 -1464 -510 )">
    <path d="M 21 0.08322115384615358  L 21.057265625 0.08322115384615393  L 21.882683035714283 0.08322115384615393  L 21.882683035714283 20  L 0.15048883928571477 20  L 0.15048883928571477 19  L 21 19  L 21 0.08322115384615358  Z M 10.180696428571428 0.9093749999999999  C 10.180696428571428 0.45307692307692304  10.55499107142857 0.08322115384615358  11.016549107142858 0.08322115384615358  L 13.524131696428569 0.08322115384615358  C 13.985861607142853 0.08322115384615358  14.360082589285714 0.4531009615384613  14 0.9093749999999996  L 14 17.431971153846156  L 10.180745535714287 17.431971153846156  L 10.180745535714287 0.909375000000001  Z M 15 5.866249999999999  L 15.195910714285716 5.866249999999999  C 15.195910714285716 5.409951923076922  15.570033482142856 5.040024038461539  16.03168973214286 5.040024038461539  L 18.53927232142857 5.040024038461539  C 19.001002232142856 5.040024038461539  19.375223214285715 5.4099759615384615  19 5.866249999999999  L 19 17.43204326923077  L 15 17.43204326923077  L 15 5.866249999999999  Z M 5.165629464285716 17.43201923076923  L 5.165629464285714 10.822956730769231  C 5.165629464285714 10.366658653846155  5.539825892857143 9.996802884615386  6.001408482142857 9.996802884615386  L 8.508991071428571 9.996802884615386  C 8.970647321428572 9.996802884615386  9.34484375 10.366682692307695  9.34484375 10.822956730769231  L 9.34484375 17.43201923076923  L 5.165629464285716 17.43201923076923  Z M 0.15046428571428538 15.779783653846152  C 0.15046428571428538 15.323437499999999  0.5246852678571425 14.953557692307694  0.9862433035714285 14.953557692307694  L 3.493825892857142 14.953557692307694  C 3.9554821428571425 14.953557692307694  4.3296785714285715 15.323437499999999  4.3296785714285715 15.779783653846152  L 4.3296785714285715 17.431971153846153  L 0.15046428571428538 17.431971153846153  L 0.15046428571428538 15.779783653846152  Z " fill-rule="nonzero" fill="#ffffff" stroke="none" transform="matrix(1 0 0 1 1464 510 )" />
  </g>
</svg>