<?xml version="1.0" encoding="utf-8"?>
<svg version="1.1" xmlns:xlink="http://www.w3.org/1999/xlink" width="21px" height="20px" xmlns="http://www.w3.org/2000/svg">
  <g transform="matrix(1 0 0 1 -1515 -510 )">
    <path d="M 1.62 0.1584761904761906  L 2.892 0.1584761904761906  C 3.3400000000000007 0.1584761904761906  3.720000000000001 0.31288888888888894  4.031999999999999 0.6217142857142859  C 4.343999999999999 0.9305396825396829  4.499999999999999 1.3125079365079366  4.499999999999999 1.7676190476190479  L 4.499999999999999 3.011047619047619  C 4.499999999999999 3.466158730158731  4.343999999999999 3.8521904761904766  4.031999999999999 4.169142857142857  C 3.720000000000001 4.486095238095238  3.3400000000000007 4.644571428571428  2.892 4.644571428571428  L 1.62 4.644571428571428  C 1.1880000000000004 4.644571428571428  0.8160000000000004 4.486095238095238  0.5040000000000001 4.169142857142857  C 0.19200000000000017 3.8521904761904766  0.03600000000000003 3.466158730158731  0.03600000000000003 3.011047619047619  L 0.03600000000000003 1.7676190476190479  C 0.03600000000000003 1.3125079365079366  0.19200000000000017 0.9305396825396829  0.5040000000000001 0.6217142857142859  C 0.8160000000000004 0.31288888888888894  1.1880000000000004 0.1584761904761906  1.62 0.1584761904761906  Z M 9.108 0.1584761904761906  L 19.356 0.1584761904761906  C 19.788 0.1584761904761906  20.16 0.31288888888888894  20.472 0.6217142857142859  C 20.784000000000002 0.9305396825396829  20.94 1.3125079365079366  20.939999999999998 1.7676190476190479  L 20.939999999999998 3.011047619047619  C 20.94 3.466158730158731  20.784000000000002 3.8521904761904766  20.472 4.169142857142857  C 20.16 4.486095238095238  19.788 4.644571428571428  19.356 5  L 9.108 5  C 8.66 4.644571428571428  8.28 4.486095238095238  7.968 4.169142857142857  C 7.6560000000000015 3.8521904761904766  7.500000000000002 3.466158730158731  7.5 3.011047619047619  L 7.5 1.7676190476190479  C 7.5 1.3125079365079366  7.656000000000001 0.9305396825396829  7.968 0.6217142857142859  C 8.280000000000003 0.31288888888888894  8.660000000000002 0.1584761904761906  9.108 0.1584761904761906  Z M 1.62 7.740952380952381  L 2.892 7.740952380952381  C 3.3400000000000007 7.740952380952381  3.720000000000001 7.8994285714285715  4.031999999999999 8.216380952380952  C 4.343999999999999 8.533333333333333  4.499999999999999 8.919365079365079  4.499999999999999 9.37447619047619  L 4.499999999999999 10.61790476190476  C 4.499999999999999 11.056761904761904  4.343999999999999 11.434666666666669  4.031999999999999 11.751619047619046  C 3.720000000000001 12.068571428571428  3.3400000000000007 12.227047619047617  2.892 12.227047619047617  L 1.62 12.227047619047617  C 1.1880000000000004 12.227047619047617  0.8160000000000004 12.068571428571428  0.5040000000000001 11.751619047619046  C 0.19200000000000017 11.434666666666669  0.03600000000000003 11.056761904761904  0.03600000000000003 10.61790476190476  L 0.03600000000000003 9.37447619047619  C 0.03600000000000003 8.919365079365079  0.19200000000000017 8.533333333333333  0.5040000000000001 8.216380952380952  C 0.8160000000000004 7.899428571428572  1.1880000000000004 7.740952380952383  1.62 7.740952380952381  Z M 9.108 8  L 19.356 8  C 19.788 7.740952380952381  20.16 7.8994285714285715  20.472 8.216380952380952  C 20.784000000000002 8.533333333333333  20.94 8.919365079365079  20.939999999999998 9.37447619047619  L 20.939999999999998 10.61790476190476  C 20.94 11.056761904761904  20.784000000000002 11.434666666666669  20.472 11.751619047619046  C 20.16 12.068571428571428  19.788 12.227047619047617  19.356 12  L 9.108 12  C 8.66 12.227047619047617  8.28 12.068571428571428  7.968 11.751619047619046  C 7.6560000000000015 11.434666666666669  7.500000000000002 11.056761904761904  7.5 10.61790476190476  L 7.5 9.37447619047619  C 7.5 8.919365079365079  7.656000000000001 8.533333333333333  7.968 8.216380952380952  C 8.280000000000003 7.899428571428572  8.660000000000002 7.740952380952383  9.108 8  Z M 1.62 15.347809523809524  L 2.892 15.347809523809524  C 3.3400000000000007 15.347809523809524  3.720000000000001 15.506285714285715  4.031999999999999 15.823238095238093  C 4.343999999999999 16.140190476190476  4.499999999999999 16.518095238095235  4.499999999999999 16.95695238095238  L 4.499999999999999 18.20038095238095  C 4.499999999999999 18.655492063492062  4.343999999999999 19.04152380952381  4.031999999999999 19.35847619047619  C 3.720000000000001 19.67542857142857  3.3400000000000007 19.83390476190476  2.892 19.83390476190476  L 1.62 19.83390476190476  C 1.1880000000000004 19.83390476190476  0.8160000000000004 19.67542857142857  0.5040000000000001 19.35847619047619  C 0.19200000000000017 19.04152380952381  0.03600000000000003 18.655492063492062  0.03600000000000003 18.20038095238095  L 0.03600000000000003 16.95695238095238  C 0.03600000000000003 16.518095238095235  0.19200000000000017 16.140190476190476  0.5040000000000001 15.823238095238093  C 0.8160000000000004 15.506285714285715  1.1880000000000004 15.347809523809524  1.62 15.347809523809524  Z M 9.108 15  L 19.356 15  C 19.788 15.347809523809524  20.16 15.506285714285715  20.472 15.823238095238093  C 20.784000000000002 16.140190476190476  20.94 16.518095238095235  20.939999999999998 16.95695238095238  L 20.939999999999998 18.20038095238095  C 20.94 18.655492063492062  20.784000000000002 19.04152380952381  20.472 19.35847619047619  C 20.16 19.67542857142857  19.788 19.83390476190476  19.356 19.83390476190476  L 9.108 19.83390476190476  C 8.66 19.83390476190476  8.28 19.67542857142857  7.968 19.35847619047619  C 7.6560000000000015 19.04152380952381  7.500000000000002 18.655492063492062  7.5 18.20038095238095  L 7.5 16.95695238095238  C 7.5 16.518095238095235  7.656000000000001 16.140190476190476  7.968 15.823238095238093  C 8.280000000000003 15.506285714285715  8.660000000000002 15.347809523809524  9.108 15  Z " fill-rule="nonzero" fill="#999999" stroke="none" transform="matrix(1 0 0 1 1515 510 )" />
  </g>
</svg>