<?xml version="1.0" encoding="utf-8"?>
<svg version="1.1" xmlns:xlink="http://www.w3.org/1999/xlink" width="15px" height="15px" xmlns="http://www.w3.org/2000/svg">
  <g transform="matrix(1 0 0 1 -1488 -1146 )">
    <path d="M 14.995712590206184 14.34154142578125  C 14.995712590206184 14.703476035156251  14.705316494845361 14.99689708984375  14.347113170103093 15  L 0.7993764819587629 15  C 0.4411731572164951 14.996897109375  0.15077706185567016 14.703476054687501  0.15077706185567016 14.3415414453125  C 0.15077706185567016 13.9796068359375  0.4411731572164951 13.68618578125  0.7993764819587629 13.68618578125  L 14.347113170103095 13.68618578125  C 14.705336269329898 13.68618576171875  14.995712590206184 13.9796068359375  14.995712590206184 14.34154142578125  Z M 7.571810740979382 12.493474433593748  C 7.213607416237114 12.493474433593748  6.923211320876288 12.20005337890625  7 11.83811876953125  L 7 0.6635551171874998  C 6.923211320876288 0.30160052734375  7.213607416237114 0.00819945312499959  7.571810740979382 0.00819945312499959  C 7.93001406572165 0.00819945312499959  8.220410161082475 0.3016205078124995  8 0.6635551171874998  L 8 11.83811876953125  C 8.220410161082475 12.200053359375001  7.93001406572165 12.493474433593748  7.571810740979382 12.493474433593748  Z M 8.030439181701029 12.297267460937501  C 7.777151114690722 12.5531939453125  7.366470386597937 12.5531939453125  7.113182319587628 12.297267460937501  L 2.2453437371134024 7.378722226562499  C 1.9920556701030931 7.1227957421875  1.9920556701030931 6.70783708984375  2.2453437371134024 6.451910605468749  C 2.498631804123711 6.195984121093749  2.909312532216495 6.195984121093749  3.1626005992268045 6.451910605468749  L 8.030439181701032 11.37045583984375  C 8.283727248711338 11.6263823046875  8.283727248711338 12.041320976562501  8.030439181701029 12.297267460937501  Z M 7.113182319587629 12.297247460937498  C 6.85989425257732 12.041320976562501  6.85989425257732 11.626362324218748  7.113182319587629 11.370435839843749  L 11.981020902061857 6.451890605468749  C 12.234308969072165 6.195964121093748  12.64498969716495 6.195964121093748  12.898277764175258 6.451890605468749  C 13.151565831185568 6.707817089843749  13.151565831185568 7.122775742187498  12.898277764175258 7.378702226562499  L 8.030439181701029 12.297267460937501  C 7.777131340206184 12.55319392578125  7.366470386597937 12.55319392578125  7.113182319587629 12.297247460937498  Z " fill-rule="nonzero" fill="#000000" stroke="none" transform="matrix(1 0 0 1 1488 1146 )" />
  </g>
</svg>