<?xml version="1.0" encoding="utf-8"?>
<svg version="1.1" xmlns:xlink="http://www.w3.org/1999/xlink" width="16px" height="16px" xmlns="http://www.w3.org/2000/svg">
  <g transform="matrix(1 0 0 1 -72 -1261 )">
    <path d="M 3.984375 1.072916666666666  C 5.210069444444445 0.3576388888888875  6.548611111111112 0  8 0  C 9.45138888888889 0  10.789930555555557 0.3576388888888875  12.015625 1.072916666666666  C 13.241319444444445 1.7881944444444429  14.211805555555557 2.7586805555555554  14.927083333333334 3.984375  C 15.642361111111109 5.210069444444443  16 6.548611111111109  16 8  C 16 9.45138888888889  15.642361111111109 10.789930555555554  14.927083333333334 12.015625  C 14.211805555555557 13.241319444444445  13.241319444444445 14.211805555555555  12.015625 14.927083333333334  C 10.789930555555557 15.642361111111112  9.45138888888889 16  8 16  C 6.548611111111112 16  5.210069444444445 15.642361111111112  3.984375 14.927083333333334  C 2.758680555555556 14.211805555555555  1.7881944444444446 13.241319444444445  1.0729166666666667 12.015625  C 0.35763888888888884 10.789930555555554  0 9.45138888888889  0 8  C 0 6.548611111111109  0.35763888888888884 5.210069444444443  1.0729166666666667 3.984375  C 1.7881944444444446 2.7586805555555554  2.758680555555556 1.7881944444444429  3.984375 1.072916666666666  Z M 6.333333333333333 11.90625  L 12 8.572916666666668  C 12.222222222222223 8.447916666666668  12.333333333333334 8.256944444444443  12.333333333333334 8  C 12.333333333333334 7.743055555555555  12.222222222222223 7.552083333333334  12 7.427083333333334  L 6.333333333333333 4.09375  C 6.118055555555556 3.9618055555555554  5.895833333333333 3.958333333333334  5.666666666666667 4.083333333333334  C 5.4444444444444455 4.215277777777777  5.333333333333333 4.409722222222221  5.333333333333333 4.666666666666666  L 5.333333333333333 11.333333333333332  C 5.333333333333333 11.590277777777775  5.4444444444444455 11.784722222222221  5.666666666666667 11.916666666666668  C 5.777777777777779 11.972222222222221  5.888888888888889 12  6 12  C 6.118055555555556 12  6.229166666666667 11.96875  6.333333333333333 11.90625  Z " fill-rule="nonzero" fill="#000000" stroke="none" transform="matrix(1 0 0 1 72 1261 )" />
  </g>
</svg>