<?xml version="1.0" encoding="utf-8"?>
<svg version="1.1" xmlns:xlink="http://www.w3.org/1999/xlink" width="14px" height="14px" xmlns="http://www.w3.org/2000/svg">
  <g transform="matrix(1 0 0 1 -40 -2125 )">
    <path d="M 47 2125  C 50.92 2125  54 2128.08  54 2132  C 54 2135.92  50.92 2139  47 2139  C 43.08 2139  40 2135.92  40 2132  C 40 2128.08  43.08 2125  47 2125  Z " fill-rule="nonzero" fill="#ffffff" stroke="none" />
    <path d="M 47 2125.5  C 50.64 2125.5  53.5 2128.36  53.5 2132  C 53.5 2135.64  50.64 2138.5  47 2138.5  C 43.36 2138.5  40.5 2135.64  40.5 2132  C 40.5 2128.36  43.36 2125.5  47 2125.5  Z " stroke-width="1" stroke="#797979" fill="none" />
  </g>
</svg>