<?xml version="1.0" encoding="utf-8"?>
<svg version="1.1" xmlns:xlink="http://www.w3.org/1999/xlink" width="10px" height="10px" xmlns="http://www.w3.org/2000/svg">
  <g transform="matrix(1 0 0 1 -82 -2128 )">
    <path d="M 2.490234375 0.6705729166666663  C 3.2562934027777777 0.2235243055555547  4.092881944444445 0  5 0  C 5.907118055555555 0  6.743706597222223 0.2235243055555547  7.509765625 0.6705729166666663  C 8.275824652777779 1.1176215277777768  8.882378472222223 1.724175347222222  9.329427083333334 2.490234375  C 9.776475694444443 3.256293402777777  10 4.092881944444443  10 5  C 10 5.907118055555555  9.776475694444443 6.743706597222221  9.329427083333334 7.509765625  C 8.882378472222223 8.275824652777779  8.275824652777779 8.882378472222221  7.509765625 9.329427083333334  C 6.743706597222223 9.776475694444445  5.907118055555555 10  5 10  C 4.092881944444445 10  3.2562934027777777 9.776475694444445  2.490234375 9.329427083333334  C 1.7241753472222223 8.882378472222221  1.117621527777778 8.275824652777779  0.6705729166666667 7.509765625  C 0.22352430555555552 6.743706597222221  0 5.907118055555555  0 5  C 0 4.092881944444443  0.22352430555555552 3.256293402777777  0.6705729166666667 2.490234375  C 1.117621527777778 1.724175347222222  1.7241753472222223 1.1176215277777768  2.490234375 0.6705729166666663  Z M 3.958333333333333 7.44140625  L 7.5 5.358072916666668  C 7.638888888888889 5.279947916666668  7.708333333333334 5.160590277777777  7.708333333333334 5  C 7.708333333333334 4.839409722222222  7.638888888888889 4.720052083333334  7.5 4.641927083333334  L 3.958333333333333 2.55859375  C 3.8237847222222228 2.4761284722222223  3.684895833333333 2.473958333333334  3.541666666666667 2.552083333333334  C 3.4027777777777786 2.6345486111111107  3.333333333333333 2.7560763888888884  3.333333333333333 2.916666666666666  L 3.333333333333333 7.083333333333332  C 3.333333333333333 7.243923611111109  3.4027777777777786 7.365451388888888  3.541666666666667 7.447916666666668  C 3.6111111111111116 7.482638888888888  3.680555555555556 7.5  3.75 7.5  C 3.8237847222222228 7.5  3.893229166666667 7.48046875  3.958333333333333 7.44140625  Z " fill-rule="nonzero" fill="#000000" stroke="none" transform="matrix(1 0 0 1 82 2128 )" />
  </g>
</svg>