<?xml version="1.0" encoding="utf-8"?>
<svg version="1.1" xmlns:xlink="http://www.w3.org/1999/xlink" width="20px" height="21px" preserveAspectRatio="xMidYMin meet" viewBox="338 890  18 21" xmlns="http://www.w3.org/2000/svg">
  <path d="M 347 899  L 347 915  A 5 5 0 0 0 352 920 L 645 920  A 5 5 0 0 1 650 925 L 650 945  " stroke-width="2" stroke="#0066ff" fill="none" />
  <path d="M 347 897  A 3.5 3.5 0 0 0 343.5 900.5 A 3.5 3.5 0 0 0 347 904 A 3.5 3.5 0 0 0 350.5 900.5 A 3.5 3.5 0 0 0 347 897 Z M 642 937.6  L 650 947  L 658 937.6  L 650 941.2  L 642 937.6  Z " fill-rule="nonzero" fill="#0066ff" stroke="none" />
</svg>