<?xml version="1.0" encoding="utf-8"?>
<svg version="1.1" xmlns:xlink="http://www.w3.org/1999/xlink" width="10px" height="32px" preserveAspectRatio="xMidYMin meet" viewBox="948 1515  8 32" xmlns="http://www.w3.org/2000/svg">
  <path d="M 1253 1499  L 1253 1515  A 5 5 0 0 1 1248 1520 L 957 1520  A 5 5 0 0 0 952 1525 L 952 1545  " stroke-width="2" stroke="#0066ff" fill="none" />
  <path d="M 1253 1497  A 3.5 3.5 0 0 0 1249.5 1500.5 A 3.5 3.5 0 0 0 1253 1504 A 3.5 3.5 0 0 0 1256.5 1500.5 A 3.5 3.5 0 0 0 1253 1497 Z M 944 1537.6  L 952 1547  L 960 1537.6  L 952 1541.2  L 944 1537.6  Z " fill-rule="nonzero" fill="#0066ff" stroke="none" />
</svg>