<?xml version="1.0" encoding="utf-8"?>
<svg version="1.1" xmlns:xlink="http://www.w3.org/1999/xlink" width="4px" height="4px" xmlns="http://www.w3.org/2000/svg">
  <g transform="matrix(1 0 0 1 -753 -1321 )">
    <path d="M 0.5012093020833331 3.9668217083333333  C 0.754976739583333 3.9668217083333333  0.9623565937499995 3.741085270833333  0.9623565937499995 3.458294572916666  L 0.9623565937499995 0.5559689895833326  C 0.9623565937499995 0.27317829166666624  0.7549767499999996 0.047441854166666055  0.5012093020833331 0.047441864583332695  C 0.24768992708333334 0.047441864583332695  0.04006201041666676 0.2731783020833329  0.04006201041666676 0.5559689895833326  L 0.04006201041666676 3.458294572916666  C 0.04006201041666676 3.741085270833333  0.24173642708333354 3.9668217083333333  0.5014573645833332 3.9668217083333333  Z M 2.115100770833333 3.9668217083333333  C 2.3688682083333332 3.9668217083333333  2.576496114583333 3.741085270833333  2.576496125 3.458294572916666  L 2.576496125 0.5559689895833326  C 2.576496125 0.27317829166666624  2.36886821875 0.047441854166666055  2.115100770833333 0.047441864583332695  C 1.8615813958333334 0.047441864583332695  1.6539534791666668 0.2731783020833329  1.6539534895833334 0.5559689895833326  L 1.6539534895833334 3.458294572916666  C 1.6539534895833334 3.741085270833333  1.8615813958333334 3.9668217083333333  2.1153488333333335 3.9668217083333333  Z M 3.0373953437500005 3.458294572916666  C 3.0373953437500005 3.741085270833333  3.2390697604166667 3.9668217083333333  3.498542635416667 3.9668217083333333  C 3.7520620104166666 3.9668217083333333  3.9596899270833332 3.741085270833333  3.9596899270833332 3.458294572916666  L 3.9596899270833332 0.5559689895833326  C 3.9596899270833332 0.27317829166666624  3.7520620208333333 0.047441854166666055  3.498542635416667 0.047441864583332695  C 3.2450232500000005 0.047441874999999335  3.0373953437500005 0.2731783020833329  3.0373953437500005 0.5559689895833326  L 3.0373953437500005 3.458294572916666  Z " fill-rule="nonzero" fill="#000000" stroke="none" transform="matrix(1 0 0 1 753 1321 )" />
  </g>
</svg>