<?xml version="1.0" encoding="utf-8"?>
<svg version="1.1" xmlns:xlink="http://www.w3.org/1999/xlink" width="36px" height="36px" xmlns="http://www.w3.org/2000/svg">
  <g transform="matrix(1 0 0 1 -70 -2565 )">
    <path d="M 0.5 18  C 0.5 8.3500390625  8.3500390625 0.5  18 0.5  C 27.649960937499998 0.5  35.5 8.3500390625  35.5 18  C 35.5 27.649960937499998  27.649960937499998 35.5  18 35.5  C 8.3500390625 35.5  0.5 27.649960937499998  0.5 18  Z M 3 18  C 3 26.2712890625  9.7287109375 33  18 33  C 26.2712890625 33  33 26.2712890625  33 18  C 33 9.7287109375  26.2712890625 3  18 3  C 9.7287109375 3  3 9.7287109375  3 18  Z M 11.873750000000001 18.42375  C 11.8750390625 18.428710937499996  11.881250000000001 18.433749999999996  11.88375 18.4387890625  C 11.943750000000001 18.5800390625  12.026289062499998 18.715039062499997  12.14125 18.831289062499998  C 12.1425390625 18.832578124999998  12.14375 18.832578124999998  12.145 18.833789062499996  C 12.1462890625 18.835078124999995  12.1462890625 18.836289062499993  12.147499999999999 18.8375390625  L 18.354999999999997 25.0625  C 18.8425 25.5512890625  19.63375 25.55375  20.122500000000002 25.064999999999998  C 20.611289062500003 24.577499999999997  20.6125 23.786289062499996  20.125 23.297499999999996  L 14.80125 17.958749999999995  L 20.16875 12.649960937499994  C 20.66 12.163749999999995  20.6637890625 11.373710937499993  20.178749999999997 10.882460937499996  C 19.935039062499996 10.634999999999996  19.612499999999997 10.511210937499994  19.2900390625 10.511210937499994  C 18.972578125000002 10.511210937499994  18.655039062500002 10.632421874999995  18.411250000000003 10.872460937499994  L 12.151289062500002 17.063710937499994  C 11.7800390625 17.430078124999994  11.687500000000002 17.970117187499994  11.873789062500002 18.423828124999993  Z " fill-rule="nonzero" fill="#ffffff" stroke="none" transform="matrix(1 0 0 1 70 2565 )" />
  </g>
</svg>