<?xml version="1.0" encoding="utf-8"?>
<svg version="1.1" xmlns:xlink="http://www.w3.org/1999/xlink" width="11px" height="12px" xmlns="http://www.w3.org/2000/svg">
  <g transform="matrix(1 0 0 1 -750 -1316 )">
    <path d="M 7.782542636458334 2.1837211592558745  C 7.750161438923829 0.9677546648792039  6.776703599965738 -0.0006018329689556627  5.587317828124999 0  C 4.396520929166666 0  3.4272930197916662 0.9664188635055607  3.3863627874999995 2.1775816242432064  L 0.6074728687500003 2.177581624243207  C 0.2981460997567929 2.177581467810536  0.047302733575888586 2.433876013349169  0.04700154479166669 2.750232778819652  C 0.047302739895444965 3.066589539712759  0.2981461042262949 3.3228840781163127  0.6074728687500001 3.322883921677347  L 1.2263379791666669 3.322883921677347  L 1.2263379791666669 9.742325630924093  C 1.2263379791666669 10.947627926955043  2.0263875958333335 11.931906974248705  3.012806202083334 11.931906974248705  L 8.045314727083333 11.931906974248705  C 9.031733333333333 11.931906974248705  9.831782938541668 10.95348839166174  9.831782950000001 9.742325630924093  L 9.831782950000001 3.329302526995989  L 10.392254262500002 3.329302526995989  C 10.70168749501527 3.32930257097158  10.952574937071862 3.072838074907087  10.952725586458333 2.75637231383232  C 10.952424397674111 2.4400155483618375  10.701581031493209 2.183721002823204  10.3922542625 2.1837211592558745  L 7.782542636458334 2.1837211592558745  Z M 6.6411348781249995 2.0751630211696686  L 4.358592253124999 2.0751630211696686  C 4.3992496166666655 1.4919072184037288  4.892868222916666 1.0375816509038123  5.502728687499999 1.0375816509038123  C 6.112589152083333 1.0375816509038123  6.606480627083333 1.4916281480977553  6.6411348781249995 2.0751630211696686  Z M 3.075293019791667 10.894046533676876  L 3.075293019791666 10.888186068970182  C 2.7202914749999993 10.888186068970182  2.3295441812499993 10.42939537657469  2.3295441812499993 9.7744186575173  L 2.3295441812499993 3.37200020177869  L 8.923677514583334 3.37200020177869  L 8.923677514583334 9.780279122223995  C 8.923677514583334 10.435534923306108  8.533203101041666 10.894046533676876  8.178201544791667 10.894046533676876  L 3.075293019791667 10.894046533676876  Z " fill-rule="nonzero" fill="#000000" stroke="none" transform="matrix(1 0 0 1 750 1316 )" />
  </g>
</svg>