<?xml version="1.0" encoding="utf-8"?>
<svg version="1.1" xmlns:xlink="http://www.w3.org/1999/xlink" width="40px" height="40px" xmlns="http://www.w3.org/2000/svg">
  <g transform="matrix(1 0 0 1 -1495 -2157 )">
    <path d="M 39.88636363636364 20  C 39.88636363636364 30.965886186079548  30.965886186079548 39.88636363636364  20 39.88636363636364  C 9.034113813920454 39.88636363636364  0.11363636363636365 30.965886186079548  0.11363636363636365 20  C 0.11363636363636365 9.034113813920454  9.034113813920454 0.11363636363636365  20 0.11363636363636365  C 30.965886186079548 0.11363636363636365  39.88636363636364 9.034113813920454  39.88636363636364 20  Z M 37.03270272549716 20  C 37.03270272549716 10.607933948863637  29.390615278764205 2.9672972745028408  20 2.9672972745028408  C 10.607933948863637 2.9672972745028408  2.967297274502842 10.607933904474432  2.967297274502842 20  C 2.967297274502842 29.390615278764205  10.607933904474434 37.03270272549716  20 37.03270272549716  C 29.390615278764205 37.03270272549716  37.03270272549716 29.390691628196024  37.03270272549716 20  Z M 28.147579190340906 26.228696111505684  L 21.999975585937502 20.06108660333807  L 28.142005015980107 13.985794300426138  C 28.70026025390624 13.434640358664772  28.70453631036931 12.535521839488638  28.15338241299715 11.9772666015625  C 27.602228515624997 11.419011363636365  26.701659179687493 11.414735307173295  26.144854714133515 11.965889204545455  L 19.99427317116477 18.04828280362216  L 13.937459561434656 11.97299050071023  C 13.382029563210223 11.417560502485797  12.484361860795447 11.414735262784095  11.92893186257102 11.970165261008525  C 11.373501864346586 12.524144442471595  11.372127441406244 13.42326296164773  11.926106622869312 13.978692959872161  L 17.974368119673294 20.04543314985796  L 11.876321067116473 26.07811754261364  C 11.318065829190338 26.63064590731534  11.313789772727269 27.528390003551138  11.864943670099429 28.08664524147727  C 12.143345880681816 28.367872736150574  12.508414728338067 28.50852463600852  12.87485804332386 28.50852463600852  C 13.235650834517045 28.50852463600852  13.596443625710224 28.37077432528409  13.873471368963067 28.098022638494324  L 19.9799941850142 22.058236949573864  L 26.136226251775568 28.23439852627841  C 26.41325403941762 28.512800736860797  26.776872070312496 28.65200186434659  27.14194091796875 28.65200186434659  C 27.505558948863637 28.65200186434659  27.867802556818187 28.512800736860797  28.1447539506392 28.23722381036932  C 28.700183948863636 27.68324462890625  28.70155837180398 26.78550057705966  28.147579190340906 26.228696111505684  Z " fill-rule="nonzero" fill="#ffffff" stroke="none" transform="matrix(1 0 0 1 1495 2157 )" />
  </g>
</svg>