<?xml version="1.0" encoding="utf-8"?>
<svg version="1.1" xmlns:xlink="http://www.w3.org/1999/xlink" width="12px" height="12px" xmlns="http://www.w3.org/2000/svg">
  <g transform="matrix(1 0 0 1 -719 -1316 )">
    <path d="M 9.846428571428572 3.0115384615384606  L 8.335714285714285 1.3846153846153846  C 8.25 1.2923076923076922  8.25 1.153846153846154  8.335714285714285 1.0615384615384613  L 9.24642857142857 0.08076923076923069  C 9.332142857142856 -0.011538461538461702  9.460714285714285 -0.011538461538461702  9.54642857142857 0.08076923076923069  L 11.057142857142857 1.7076923076923074  C 11.142857142857142 1.7999999999999996  11.142857142857142 1.9384615384615382  11.057142857142857 2.03076923076923  L 10.14642857142857 3.0115384615384606  C 10.060714285714285 3.1038461538461526  9.932142857142857 3.1038461538461526  9.846428571428572 3.0115384615384606  Z M 1.7142857142857142 10.153846153846153  L 4.285714285714286 9.346153846153847  L 9.267857142857142 3.980769230769231  C 9.342857142857143 3.8999999999999995  9.332142857142856 3.7615384615384615  9.24642857142857 3.68076923076923  L 7.735714285714286 2.0423076923076926  C 7.65 1.9500000000000006  7.521428571428571 1.938461538461539  7.457142857142859 2.019230769230769  L 2.4642857142857144 7.384615384615385  L 1.7142857142857142 10.153846153846153  Z M 12 11  L 0 11  L 0 12  L 12 12  L 12 11  Z " fill-rule="nonzero" fill="#000000" stroke="none" transform="matrix(1 0 0 1 719 1316 )" />
  </g>
</svg>