<?xml version="1.0" encoding="utf-8"?>
<svg version="1.1" xmlns:xlink="http://www.w3.org/1999/xlink" width="12px" height="12px" xmlns="http://www.w3.org/2000/svg">
  <g transform="matrix(1 0 0 1 -1369 -2221 )">
    <path d="M 11.696838216101694 0.014545448717948665  L 11.698021576271188 0.014545448717948708  L 11.928776580508476 0.24727273076923073  L 11.77967333898305 0.6303776282051282  L 11.480283508474576 1.3977808846153845  L 10.882687207627118 2.93258741025641  L 9.687494605932203 6.002200461538462  L 8.488751923728813 9.073006987179486  L 7.891155622881357 10.607813525641026  L 7.591765792372882 11.375216782051282  L 7.442662563559322 11.75832167948718  L 7.368110936440678 11.949277384615383  L 7.241491525423728 11.961212115384615  L 7.19060708898305 11.779804192307694  L 7.087654855932202 11.418181820512821  L 6.881750389830508 10.69374358974359  L 6.471124805084744 9.246060602564103  L 5.6475069279661 6.349501166666668  L 2.78141140677966 5.526004666666667  L 1.3483636398305072 5.113062935897437  L 0.6312480762711851 4.9065920769230775  L 0.27387364830508343 4.803953384615386  L 0.09400308050847331 4.752634038461539  L 0.10583666949152414 4.624932397435899  L 0.29517411864406656 4.54974358974359  L 0.6750323516949142 4.398172500000001  L 1.434748843220338 4.096223782051283  L 2.956548533898305 3.4911328717948713  L 9.03901386864407 1.0731561794871793  L 10.55726347881356 0.4680652692307692  L 11.316979970338982 0.16611655128205124  L 11.696838216101694 0.014545448717948665  Z M 9.932449919491521 2.0279347307692293  L 9.933633279661017 2.0279347307692306  L 9.481590139830509 2.2081491794871795  L 6.440357478813558 3.4171375256410252  L 3.685497686440677 4.513939397435897  L 5.9812141779661 5.173930064102564  L 6.628511555084744 5.35891841025641  L 6.81311556355932 6.0117482564102565  L 7.473429889830507 8.340214448717948  L 8.55975347033898 5.555841487179485  L 9.754946072033896 2.4862284358974343  L 9.932449919491521 2.0279347307692293  Z " fill-rule="nonzero" fill="#000000" stroke="none" transform="matrix(1 0 0 1 1369 2221 )" />
  </g>
</svg>