<?xml version="1.0" encoding="utf-8"?>
<svg version="1.1" xmlns:xlink="http://www.w3.org/1999/xlink" width="15px" height="12px" xmlns="http://www.w3.org/2000/svg">
  <g transform="matrix(1 0 0 1 -688 -1316 )">
    <path d="M 10.356198347107439 10.564897959183673  L 8.816528925619837 8.53959183673469  C 9.731355437724847 7.6009609187032545  10.24242207449357 6.348728968676192  10.24242207449357 5.04582247304912  C 10.24242207449357 2.2636598679831392  7.959074298630617 0.008271452640956956  5.142422074493569 0.008271452640956956  C 2.3257698503565236 0.008271452640956956  0.04242207449356989 2.2636598679831392  0.04242207449356989 5.04582247304912  C 0.04242207449356989 7.827985078115102  2.3257698503565236 10.083373493457284  5.142422074493569 10.083373493457284  C 5.909890388462572 10.083373493457284  6.66746278125763 9.912284307084983  7.358677685950414 9.582857142857142  L 8.905785123966943 11.632653061224492  C 9.077499410085318 11.845227903062035  9.337845985611855 11.969028512650466  9.61316610667036 11.969028512650466  C 10.11296098358335 11.969028512650466  10.51812478435631 11.568825901274726  10.51812478435631 11.075150961630058  C 10.51812478435631 10.892730707718716  10.461620362050915 10.714677317409667  10.356198347107439 10.564897959183673  Z M 5.154545454545454 8.88734693877551  C 2.9986171552477336 8.888711842635075  1.247866426342064 7.167065243022272  1.2396694214876032 5.037551020408163  C 1.2396610431747062 5.034288059611773  1.2396568540132054 5.031025089632923  1.2396568540132054 5.027762118341855  C 1.2396568540132054 2.8961684063418613  2.9890764431041212 1.1681702816071606  5.147094870542131 1.1681702816071606  C 7.30511329798014 1.1681702816071606  9.054532887071057 2.8961684063418613  9.054532887071057 5.027762118341855  C 9.054532887071057 7.156482389881779  7.309650902615805 8.88328795968599  5.154545454545454 8.88734693877551  Z M 11.020661157024794 2.1648979591836737  L 14.097520661157025 2.1648979591836737  C 14.403816899598684 2.131195138177719  14.63550276367319 1.8754374969493468  14.63550276367319 1.5710204081632655  C 14.63550276367319 1.2666033193771844  14.403816899598684 1.0108456781488115  14.097520661157025 0.9771428571428572  L 11.020661157024794 0.9771428571428572  C 10.714364918583135 1.0108456781488115  10.482679054508628 1.2666033193771844  10.482679054508628 1.5710204081632655  C 10.482679054508628 1.8754374969493468  10.714364918583135 2.131195138177719  11.020661157024794 2.1648979591836737  Z M 14.744628099173553 4.954285714285715  L 14.744628099173553 4.946938775510204  C 14.631214435080052 4.836055000184271  14.477753920486062 4.774364892988681  14.318181818181818 4.775510204081632  L 11.754545454545454 4.775510204081632  C 11.448249216103797 4.809213025087587  11.21656335202929 5.0649706663159595  11.21656335202929 5.369387755102041  C 11.21656335202929 5.6738048438881235  11.448249216103793 5.929562485116495  11.754545454545454 5.963265306122449  L 14.318181818181818 5.963265306122449  C 14.319009967478024 5.963268707391475  14.319838123038359 5.9632704080315015  14.320666279493413 5.9632704080315015  C 14.64970201445591 5.9632704080315015  14.916819368963763 5.700514143803272  14.91818181818182 5.375510204081634  C 14.918264687589081 5.218098010292201  14.855970190176205 5.066905814355547  14.744628099173553 4.954285714285715  Z M 14.236363636363635 8.56408163265306  L 12.959504132231404 8.56408163265306  C 12.653207893789741 8.597784453659012  12.421522029715229 8.853542094887386  12.421522029715229 9.157959183673471  C 12.421522029715229 9.462376272459553  12.653207893789741 9.718133913687927  12.959504132231404 9.751836734693878  L 14.236363636363636 9.75183673469388  C 14.265767477911224 9.756147426146555  14.295452991818529 9.758311565554473  14.325178932114198 9.758311565554473  C 14.65928838407795 9.758311565554473  14.930137609800148 9.490778860963566  14.930137609800148 9.160760545146308  C 14.930137609800148 8.843282054905142  14.678796319260979 8.581227853143696  14.35785123966942 8.56408163265306  C 14.317508445379906 8.559163110762093  14.27670643065315 8.559163110762093  14.236363636363635 8.56408163265306  Z " fill-rule="nonzero" fill="#000000" stroke="none" transform="matrix(1 0 0 1 688 1316 )" />
  </g>
</svg>