<?xml version="1.0" encoding="utf-8"?>
<svg version="1.1" xmlns:xlink="http://www.w3.org/1999/xlink" width="16px" height="20px" xmlns="http://www.w3.org/2000/svg">
  <g transform="matrix(1 0 0 1 -60 -1462 )">
    <path d="M 10.895454545454548 0.2098214285714287  L 15.786363636363637 5.015625  C 15.922727272727274 5.149553571428571  16 5.330357142857142  16 5.520089285714286  L 16 19.285714285714285  C 16 19.680803571428573  15.675 20  15.272727272727273 20  L 0.7272727272727273 20  C 0.32500000000000023 20  0 19.680803571428573  0 19.285714285714285  L 0 0.7142857142857142  C 0 0.3191964285714285  0.32500000000000023 0  0.7272727272727273 0  L 10.379545454545456 0  C 10.572727272727274 0  10.759090909090911 0.07589285714285728  10.895454545454548 0.2098214285714287  Z M 10.045454545454545 5.8482142857142865  L 14.322727272727274 5.8482142857142865  L 10.045454545454545 1.6473214285714288  L 10.045454545454545 5.8482142857142865  Z M 6.799681818181818 15.605066964285715  L 8 11.20747767857143  L 9.200318181818178 15.605066964285715  C 9.232273920265005 15.722150419912492  9.34030633169848 15.803563388170659  9.463727272727272 15.803571428571427  L 10.186 15.803571428571427  C 10.309298442535813 15.803573803162141  10.417262764308713 15.722328351549974  10.449340909090909 15.605401785714285  L 12.139681818181817 9.444687499999997  C 12.145913967924798 9.421964160753353  12.149069925636267 9.398533276170317  12.149068181818182 9.374999999999998  C 12.149068181818182 9.227075892857142  12.026954545454544 9.107142857142856  11.876340909090908 9.107142857142856  L 11.067795454545454 9.107142857142856  C 10.940722528389296 9.107138799678449  10.8304855142279 9.193327743520971  10.801999999999998 9.314955357142855  L 9.761318181818181 13.759263392857141  L 8.63040909090909 9.310133928571426  C 8.60009733234217 9.19085925385054  8.491009909723273 9.10716146130189  8.365840909090908 9.107142857142858  L 7.634204545454545 9.107142857142856  C 7.509018597336378 9.107140971725357  7.399906772849035 9.190843106137565  7.369590909090908 9.310133928571428  L 6.240954545454545 13.75046875  L 5.1933181818181815 9.314486607142857  C 5.1646519628968575 9.193085922011754  5.054524828148515 9.107140360317915  4.927636363636363 9.107142857142858  L 4.123522727272726 9.107142857142856  C 4.099616844529937 9.10714029880625  4.07581437898126 9.110224767584787  4.052727272727271 9.116316964285714  C 3.9072727272727263 9.154709821428572  3.8210454545454526 9.301651785714286  3.8601363636363626 9.444508928571429  L 5.545886363636361 15.605223214285715  C 5.577895749519985 15.722220633673302  5.6858770336153635 15.803552071885976  5.809227272727273 15.803571428571427  L 6.536272727272728 15.803571428571427  C 6.659693668301517 15.803563388170659  6.7677260797349925 15.722150419912492  6.799681818181818 15.605066964285715  Z " fill-rule="nonzero" fill="#0066ff" stroke="none" transform="matrix(1 0 0 1 60 1462 )" />
  </g>
</svg>