<?xml version="1.0" encoding="utf-8"?>
<svg version="1.1" xmlns:xlink="http://www.w3.org/1999/xlink" width="11px" height="16px" xmlns="http://www.w3.org/2000/svg">
  <g transform="matrix(1 0 0 1 -1749 -252 )">
    <path d="M 10.655135135135136 1.1398095238095238  L 5.961405405405405 5.968457142857143  C 5.937621621621622 6.012342857142857  5.916216216216216 6.057447619047619  5.88054054054054 6.095238095238095  C 5.763999999999999 6.214704761904762  5.610594594594594 6.263466666666667  5.457189189189189 6.257371428571428  C 5.3049729729729735 6.263466666666667  5.151567567567567 6.214704761904762  5.035027027027027 6.095238095238095  C 4.9993513513513514 6.057447619047619  4.977945945945946 6.012342857142857  4.952972972972973 5.968457142857143  L 0.2604324324324323 1.1398095238095238  C 0.038054054054054084 0.9118476190476194  0.038054054054054084 0.5424761904761906  0.2604324324324323 0.31451428571428575  C 0.48162162162162137 0.0865523809523809  0.8419459459459462 0.0865523809523809  1.0631351351351352 0.31451428571428575  L 5.457189189189189 4.8347428571428575  L 9.852432432432433 0.31451428571428575  C 10.073621621621621 0.0865523809523809  10.433945945945945 0.0865523809523809  10.655135135135136 0.31451428571428575  C 10.877513513513515 0.5424761904761906  10.877513513513515 0.9118476190476194  10.655135135135136 1.1398095238095238  Z M 0.2604324324324323 14.98575238095238  L 4.970810810810811 10.157104761904764  C 4.995783783783783 10.113219047619047  5.016 10.068114285714286  5.052864864864865 10.030323809523809  C 5.1694054054054055 9.910857142857143  5.322810810810811 9.862095238095238  5.4762162162162165 9.868190476190478  C 5.629621621621621 9.862095238095238  5.7830270270270265 9.910857142857143  5.899567567567567 10.030323809523809  C 5.936432432432433 10.068114285714286  5.956648648648649 10.113219047619047  5.9816216216216205 10.157104761904764  L 10.692 14.98575238095238  C 10.914378378378379 15.213714285714286  10.914378378378379 15.583085714285714  10.692 15.81104761904762  C 10.469621621621622 16.039009523809526  10.109297297297298 16.039009523809526  9.88691891891892 15.81104761904762  L 5.4762162162162165 11.290819047619047  L 1.0655135135135134 15.81104761904762  C 0.8431351351351347 16.039009523809526  0.482810810810811 16.039009523809526  0.2604324324324323 15.81104761904762  C 0.038054054054054084 15.583085714285714  0.038054054054054084 15.213714285714286  0.2604324324324323 14.98575238095238  Z " fill-rule="nonzero" fill="#999999" stroke="none" transform="matrix(1 0 0 1 1749 252 )" />
  </g>
</svg>