<?xml version="1.0" encoding="utf-8"?>
<svg version="1.1" xmlns:xlink="http://www.w3.org/1999/xlink" width="17px" height="14px" xmlns="http://www.w3.org/2000/svg">
  <g transform="matrix(1 0 0 1 -75 -193 )">
    <path d="M 15.40625 12.448863636363637  C 15.596955128205128 12.263257575757574  15.692307692307693 12.037878787878789  15.692307692307693 11.772727272727273  L 15.692307692307693 4.772727272727273  C 15.692307692307693 4.507575757575757  15.596955128205128 4.282196969696969  15.40625 4.096590909090909  C 15.215544871794872 3.9109848484848477  14.983974358974361 3.818181818181818  14.711538461538462 3.818181818181818  L 7.519230769230769 3.818181818181818  C 7.246794871794872 3.818181818181818  7.0152243589743595 3.7253787878787863  6.824519230769231 3.5397727272727266  C 6.633814102564102 3.3541666666666656  6.538461538461539 3.1287878787878776  6.538461538461539 2.863636363636364  L 6.538461538461539 2.2272727272727266  C 6.538461538461539 1.962121212121212  6.443108974358975 1.7367424242424223  6.252403846153847 1.5511363636363642  C 6.061698717948718 1.365530303030303  5.830128205128206 1.2727272727272732  5.5576923076923075 1.2727272727272732  L 2.2884615384615383 1.2727272727272732  C 2.016025641025641 1.2727272727272732  1.7844551282051284 1.365530303030303  1.59375 1.5511363636363642  C 1.403044871794872 1.7367424242424223  1.3076923076923077 1.962121212121212  1.3076923076923077 2.2272727272727266  L 1.3076923076923077 11.772727272727273  C 1.3076923076923077 12.037878787878789  1.403044871794872 12.263257575757574  1.59375 12.448863636363637  C 1.7844551282051284 12.634469696969699  2.016025641025641 12.727272727272727  2.2884615384615383 12.727272727272727  L 14.711538461538462 12.727272727272727  C 14.983974358974361 12.727272727272727  15.215544871794872 12.634469696969699  15.40625 12.448863636363637  Z M 16.325721153846153 3.201704545454545  C 16.775240384615383 3.639204545454545  17 4.162878787878786  17 4.772727272727273  L 17 11.772727272727273  C 17 12.382575757575756  16.775240384615383 12.90625  16.325721153846153 13.34375  C 15.876201923076922 13.78125  15.338141025641027 14  14.711538461538462 14  L 2.2884615384615383 14  C 1.6618589743589747 14  1.123798076923077 13.78125  0.6742788461538461 13.34375  C 0.2247596153846154 12.90625  0 12.382575757575756  0 11.772727272727273  L 0 2.2272727272727266  C 0 1.6174242424242402  0.2247596153846154 1.09375  0.6742788461538461 0.65625  C 1.123798076923077 0.21875  1.6618589743589747 0  2.2884615384615383 0  L 5.5576923076923075 0  C 6.184294871794872 0  6.722355769230769 0.21875  7.171875 0.65625  C 7.621394230769231 1.09375  7.846153846153847 1.6174242424242402  7.846153846153847 2.2272727272727266  L 7.846153846153847 2.545454545454545  L 14.711538461538462 2.545454545454545  C 15.338141025641027 2.545454545454545  15.876201923076922 2.764204545454545  16.325721153846153 3.201704545454545  Z " fill-rule="nonzero" fill="#000000" stroke="none" transform="matrix(1 0 0 1 75 193 )" />
  </g>
</svg>