<?xml version="1.0" encoding="utf-8"?>
<svg version="1.1" xmlns:xlink="http://www.w3.org/1999/xlink" width="20px" height="20px" xmlns="http://www.w3.org/2000/svg">
  <g transform="matrix(1 0 0 1 -1730 -2203 )">
    <path d="M 19.276210358796295 10.282653985821756  C 19.276210358796295 4.995244046585647  14.990321600115738 0.7115759693287025  9.70513234230324 0.7115759693287037  C 4.41994308449074 0.7115759693287037  0.1340543258101841 4.995244068287036  0.13405430410879543 10.28265398582176  C 0.13405428240740644 15.570063903356484  4.417722403067128 19.853732002314818  9.70513234230324 19.853732024016203  C 14.992542281539354 19.85373204571759  19.276210358796295 15.57006392505787  19.276210358796295 10.282653985821756  Z M 15.489971838831021 6.7939849537037045  C 15.829734013310187 7.127085127314816  15.829734013310187 7.673369393807872  15.49441317997685 8.008690205439814  L 9.072242021122685 14.430861364293984  C 8.903471274594907 14.59963211082176  8.683625159143519 14.684017484085647  8.463779065393519 14.684017484085647  C 8.24393294994213 14.684017484085647  8.02408685619213 14.59963211082176  7.855316087962962 14.430861364293984  L 4.704188548900464 11.281954484953705  C 4.366647055844908 10.94663365162037  4.366647055844908 10.400349385127313  4.704188548900464 10.065028551793983  C 5.041730041956019 9.727487058738426  5.585793648726853 9.727487058738426  5.921114482060185 10.065028551793983  L 8.461558383969907 12.605472475405094  L 14.273045905671296 6.7939849537037045  C 14.610587398726851 6.456443460648148  15.154651005497685 6.456443460648148  15.489971838831021 6.7939849537037045  Z " fill-rule="nonzero" fill="#0fc060" stroke="none" transform="matrix(1 0 0 1 1730 2203 )" />
  </g>
</svg>