<?xml version="1.0" encoding="utf-8"?>
<svg version="1.1" xmlns:xlink="http://www.w3.org/1999/xlink" width="20px" height="20px" xmlns="http://www.w3.org/2000/svg">
  <g transform="matrix(1 0 0 1 -420 -2204 )">
    <path d="M 19.899161288174717 10  C 19.899161288174717 4.54118612393466  15.45881387606534 0.10083871182528424  10 0.10083871182528424  C 4.54118612393466 0.10083871182528424  0.10083871182528382 4.541186101740057  0.10083871182528382 10  C 0.10083871182528382 15.458813898259942  4.54118612393466 19.899161288174717  10 19.899161288174717  C 15.45881387606534 19.899161288174717  19.899161288174717 15.45881387606534  19.899161288174717 10  Z M 10.710246360085227 8.579545454545453  L 10.710246360085227 14.971609996448862  C 10.710246360085227 15.364358709161932  10.392786887428977 15.68185635653409  10 15.68185635653409  C 9.607213112571024 15.68185635653409  9.289753639914775 15.36439688387784  9.289753639914775 14.971609996448862  L 9.289753639914775 8.579545454545453  C 9.289753639914775 8.186796741832387  9.607213112571024 7.869299094460228  10 7.869299094460228  C 10.392748712713066 7.869299094460228  10.710246360085227 8.186758567116478  10.710246360085227 8.579545454545453  Z M 11.065350452769886 5.383532270951704  C 11.065350452769886 5.970880015980114  10.58807315340909 6.4488827237215895  10 6.4488827237215895  C 9.411926846590909 6.4488827237215895  8.934649547230114 5.970880015980114  8.934649547230114 5.383532270951704  C 8.934649547230114 4.794771906072443  9.411926846590909 4.318181818181818  10 4.318181818181818  C 10.58807315340909 4.318181818181818  11.065350452769886 4.7947337313565335  11.065350452769886 5.383532270951704  Z " fill-rule="nonzero" fill="#e7772d" stroke="none" transform="matrix(1 0 0 1 420 2204 )" />
  </g>
</svg>