<?xml version="1.0" encoding="utf-8"?>
<svg version="1.1" xmlns:xlink="http://www.w3.org/1999/xlink" width="8px" height="16px" xmlns="http://www.w3.org/2000/svg">
  <g transform="matrix(1 0 0 1 -2052 -1390 )">
    <path d="M 6.821666666666666 15.780357142857143  C 7.081666666666666 16.058928571428574  7.504999999999999 16.058928571428574  7.765 15.780357142857143  C 8.025 15.501785714285715  8.025 15.05  7.765 14.769642857142857  L 1.4466666666666668 8  L 7.7650000000000015 1.2303571428571425  C 8.025000000000002 0.951785714285714  8.025000000000002 0.4999999999999995  7.7650000000000015 0.21964285714285683  C 7.505000000000001 -0.06071428571428582  7.083333333333335 -0.05892857142857176  6.821666666666668 0.21964285714285683  L 0.37833333333333313 7.123214285714285  C 0.15333333333333315 7.364285714285714  0.03999999999999962 7.682142857142857  0.03999999999999962 8  C 0.03999999999999962 8.317857142857141  0.15333333333333315 8.635714285714286  0.37833333333333313 8.876785714285715  L 6.821666666666666 15.780357142857143  Z " fill-rule="nonzero" fill="#000000" stroke="none" transform="matrix(1 0 0 1 2052 1390 )" />
  </g>
</svg>