<?xml version="1.0" encoding="utf-8"?>
<svg version="1.1" xmlns:xlink="http://www.w3.org/1999/xlink" width="16px" height="16px" xmlns="http://www.w3.org/2000/svg">
  <g transform="matrix(1 0 0 1 -2014 -205 )">
    <path d="M 16 1.9024717987804876  C 15.926845655487805 0.8938871951219514  15.10611280487805 0.07318711890243924  14.097560975609756 0  L 1.9024390243902438 0  C 0.8938871951219514 0.07318711890243924  0.07315434451219491 0.8939199695121953  0 1.9024717987804882  L 0 14.097593749999998  C 0.07315434451219491 15.10611280487805  0.8938871951219514 15.926845655487805  1.9024390243902438 16  L 14.097560975609756 16  C 15.106080030487805 15.926845655487805  15.926812881097561 15.10611280487805  16 14.097593749999998  L 16 1.9024717987804876  Z M 12.096879173018296 5.735978315548782  C 12.335373227896342 5.973161223323171  12.337798818597562 6.359157069359756  12.101205907012194 6.598175571646342  L 7.2188959603658525 11.533520598323172  C 7.217683174542683 11.53473338414634  7.215224809451219 11.535356173780487  7.2140120045731715 11.537191749237804  C 7.2121764291158525 11.538404535060977  7.2121764291158525 11.540862900152442  7.210340853658537 11.54207570503049  C 7.171302038871951 11.57986894054878  7.1231508955792675 11.603043121189025  7.0780153391768295 11.628675647865853  C 7.055463948170732 11.641491920731706  7.037173723323171 11.66099493140244  7.01337677210366 11.67014005335366  C 6.940215872713416 11.699410975609759  6.862761032774391 11.714652820121952  6.785338967225611 11.714652820121952  C 6.707294112042684 11.714652820121952  6.62862648628049 11.699410975609759  6.554842797256099 11.66892726753049  C 6.530455830792685 11.658569359756099  6.510952820121954 11.637820769817075  6.487778639481709 11.625037290396344  C 6.442643083079271 11.599437538109758  6.3957047256097574 11.576853372713417  6.356665910823173 11.538437347560977  C 6.355453125000002 11.537224561737808  6.354830335365856 11.534766196646343  6.353617549542686 11.533553391768296  C 6.352404763719513 11.53171781631098  6.3499463986280515 11.53171781631098  6.348733593750002 11.52988224085366  L 3.9475024390243925 9.062209717987805  C 3.712745102896344 8.820732869664637  3.7182190739329295 8.434769798018293  3.9596959222560995 8.200012461890244  C 4.20117277057927 7.965877915396342  4.586513071646342 7.970139081554879  4.82189317835366 8.212205945121951  L 6.789567339939026 10.234160766006099  L 11.234681916920735 5.740862271341465  C 11.4712748285061 5.5012209984756115  11.85786067073171 5.499385423018293  12.096879173018296 5.735978315548782  Z " fill-rule="nonzero" fill="#e7772d" stroke="none" transform="matrix(1 0 0 1 2014 205 )" />
  </g>
</svg>