<?xml version="1.0" encoding="utf-8"?>
<svg version="1.1" xmlns:xlink="http://www.w3.org/1999/xlink" width="6px" height="6px" xmlns="http://www.w3.org/2000/svg">
  <g transform="matrix(1 0 0 1 -501 -227 )">
    <path d="M 504 227  C 505.68 227  507 228.32  507 230  C 507 231.68  505.68 233  504 233  C 502.32 233  501 231.68  501 230  C 501 228.32  502.32 227  504 227  Z " fill-rule="nonzero" fill="#0fc060" stroke="none" />
    <path d="M 504 227.5  C 505.4 227.5  506.5 228.6  506.5 230  C 506.5 231.4  505.4 232.5  504 232.5  C 502.6 232.5  501.5 231.4  501.5 230  C 501.5 228.6  502.6 227.5  504 227.5  Z " stroke-width="1" stroke="#0fc060" fill="none" />
  </g>
</svg>