<?xml version="1.0" encoding="utf-8"?>
<svg version="1.1" xmlns:xlink="http://www.w3.org/1999/xlink" width="22px" height="22px" preserveAspectRatio="xMinYMid meet" viewBox="1486 2016  22 20" xmlns="http://www.w3.org/2000/svg">
  <path d="M 1496 2026.5  L 1601 2026.5  A 5 5 0 0 0 1606.5 2021.5 L 1606.5 1766  A 5 5 0 0 1 1611.5 1761.5 L 1763 1761.5  " stroke-width="3" stroke="#e7772d" fill="none" />
  <path d="M 1497 2022.5  A 4 4 0 0 0 1493 2026.5 A 4 4 0 0 0 1497 2030.5 A 4 4 0 0 0 1501 2026.5 A 4 4 0 0 0 1497 2022.5 Z M 1753.9 1771.5  L 1766 1761.5  L 1753.9 1751.5  L 1758.8 1761.5  L 1753.9 1771.5  Z " fill-rule="nonzero" fill="#e7772d" stroke="none" />
</svg>