<?xml version="1.0" encoding="utf-8"?>
<svg version="1.1" xmlns:xlink="http://www.w3.org/1999/xlink" width="90px" height="30px" xmlns="http://www.w3.org/2000/svg">
  <defs>
    <mask fill="white" id="clip5414">
      <path d="M 0 27  L 0 3  C 0 1.3199999999999998  1.3200000000000045 0  2.999999999999999 0  L 90 0  L 90 30  L 2.999999999999999 30  C 1.3200000000000045 30  0 28.68  0 27  Z " fill-rule="evenodd" />
    </mask>
  </defs>
  <g transform="matrix(1 0 0 1 -3530 -293 )">
    <path d="M 0 27  L 0 3  C 0 1.3199999999999998  1.3200000000000045 0  2.999999999999999 0  L 90 0  L 90 30  L 2.999999999999999 30  C 1.3200000000000045 30  0 28.68  0 27  Z " fill-rule="nonzero" fill="#e7772d" stroke="none" transform="matrix(1 0 0 1 3530 293 )" />
    <path d="M 0 27  L 0 3  C 0 1.3199999999999998  1.3200000000000045 0  2.999999999999999 0  L 90 0  L 90 30  L 2.999999999999999 30  C 1.3200000000000045 30  0 28.68  0 27  Z " stroke-width="2" stroke="#e7772d" fill="none" transform="matrix(1 0 0 1 3530 293 )" mask="url(#clip5414)" />
  </g>
</svg>