<?xml version="1.0" encoding="utf-8"?>
<svg version="1.1" xmlns:xlink="http://www.w3.org/1999/xlink" width="90px" height="30px" xmlns="http://www.w3.org/2000/svg">
  <defs>
    <mask fill="white" id="clip5411">
      <path d="M 90 27  L 90 3  C 90 1.3199999999999998  88.67999999999999 0  87 0  L 0 0  L 0 30  L 87 30  C 88.67999999999999 30  90 28.68  90 27  Z " fill-rule="evenodd" />
    </mask>
  </defs>
  <g transform="matrix(1 0 0 1 -3619 -293 )">
    <path d="M 90 27  L 90 3  C 90 1.3199999999999998  88.67999999999999 0  87 0  L 0 0  L 0 30  L 87 30  C 88.67999999999999 30  90 28.68  90 27  Z " fill-rule="nonzero" fill="#ffffff" stroke="none" transform="matrix(1 0 0 1 3619 293 )" />
    <path d="M 90 27  L 90 3  C 90 1.3199999999999998  88.67999999999999 0  87 0  L 0 0  L 0 30  L 87 30  C 88.67999999999999 30  90 28.68  90 27  Z " stroke-width="2" stroke="#e7772d" fill="none" transform="matrix(1 0 0 1 3619 293 )" mask="url(#clip5411)" />
  </g>
</svg>