<?xml version="1.0" encoding="utf-8"?>
<svg version="1.1" xmlns:xlink="http://www.w3.org/1999/xlink" width="16px" height="16px" xmlns="http://www.w3.org/2000/svg">
  <g transform="matrix(1 0 0 1 -134 -726 )">
    <path d="M 15.420968287037036 8.226123188657406  C 15.420968287037036 3.996195237268518  11.992257280092591 0.5692607754629619  7.764105873842592 0.5692607754629629  C 3.535954467592592 0.5692607754629629  0.10724346064814727 3.996195254629629  0.10724344328703633 8.226123188657407  C 0.10724342592592515 12.456051122685187  3.5341779224537024 15.882985601851853  7.764105873842592 15.882985619212961  C 11.994033825231483 15.882985636574071  15.420968287037036 12.456051140046295  15.420968287037036 8.226123188657406  Z M 12.391977471064816 5.435187962962964  C 12.663787210648149 5.701668101851853  12.663787210648149 6.138695515046297  12.39553054398148 6.406952164351851  L 7.257793616898148 11.544689091435187  C 7.122777019675926 11.679705688657409  6.946900127314815 11.747213987268518  6.771023252314815 11.747213987268518  C 6.595146359953703 11.747213987268518  6.419269484953704 11.679705688657409  6.28425287037037 11.544689091435187  L 3.763350839120371 9.025563587962964  C 3.493317644675926 8.757306921296296  3.493317644675926 8.320279508101851  3.763350839120371 8.052022841435186  C 4.033384033564816 7.781989646990741  4.468634918981483 7.781989646990741  4.736891585648148 8.052022841435186  L 6.769246707175926 10.084377980324074  L 11.418436724537036 5.435187962962964  C 11.68846991898148 5.165154768518518  12.123720804398149 5.165154768518518  12.391977471064816 5.435187962962964  Z " fill-rule="nonzero" fill="#0fc060" stroke="none" transform="matrix(1 0 0 1 134 726 )" />
  </g>
</svg>