<?xml version="1.0" encoding="utf-8"?>
<svg version="1.1" xmlns:xlink="http://www.w3.org/1999/xlink" width="60px" height="60px" xmlns="http://www.w3.org/2000/svg">
  <g transform="matrix(1 0 0 1 -1811 -1685 )">
    <path d="M 55.714285714285715 60  L 4.285714285714286 60  C 1.8857142857143245 60  0 58.11428571428568  0 55.714285714285715  L 0 4.285714285714286  C 0 1.8857142857143245  1.8857142857143245 0  4.285714285714286 0  L 55.714285714285715 0  C 58.11428571428568 0  60 1.8857142857143245  60 4.285714285714286  L 60 55.714285714285715  C 60 58.11428571428568  58.11428571428568 60  55.714285714285715 60  Z M 12.857142857142856 41  L 48 41  L 34.396313364055295 18.857142857142858  L 25.327188940092128 34.588235294117666  L 21.926267281106025 26.72268907563021  L 12.857142857142856 41  Z " fill-rule="nonzero" fill="#666666" stroke="none" transform="matrix(1 0 0 1 1811 1685 )" />
  </g>
</svg>