<?xml version="1.0" encoding="utf-8"?>
<svg version="1.1" xmlns:xlink="http://www.w3.org/1999/xlink" width="9px" height="8px" xmlns="http://www.w3.org/2000/svg">
  <g transform="matrix(1 0 0 1 -2207 -1262 )">
    <path d="M 1.825657894736842 5.27070707070707  C 1.482236842105263 5.5272727272727264  0.5447368421052631 6.406060606060605  0.15690789473684216 7.8969696969696965  C 0.13519736842105265 7.9818181818181815  0.033552631578947424 7.9565656565656555  0.03947368421052638 7.867676767676768  C 0.1687500000000001 5.9787878787878785  0.7411184210526315 4.997979797979798  1.3036184210526316 4.3040404040404034  C 2.158223684210526 3.2515151515151515  4.083552631578947 2.2696969696969695  5.407894736842105 2.1545454545454548  C 5.5125 2.145454545454546  5.594407894736841 2.0363636363636366  5.594407894736841 1.904040404040404  L 5.594407894736841 0.3020202020202021  C 5.594407894736841 0.082828282828283  5.802631578947368 -0.030303030303030304  5.930921052631579 0.11818181818181836  L 8.886513157894736 3.547474747474748  C 8.975328947368421 3.6505050505050507  8.971381578947367 3.826262626262627  8.878618421052632 3.923232323232324  L 5.980263157894737 6.965656565656566  C 5.85 7.102020202020202  5.651644736842105 6.985858585858586  5.651644736842105 6.773737373737374  L 5.651644736842105 4.811111111111111  C 5.651644736842105 4.680808080808081  5.57171052631579 4.571717171717171  5.468092105263158 4.56161616161616  C 4.622368421052632 4.475757575757575  2.6309210526315794 4.6656565656565645  1.825657894736842 5.27070707070707  Z " fill-rule="nonzero" fill="#ffffff" stroke="none" transform="matrix(1 0 0 1 2207 1262 )" />
  </g>
</svg>