<?xml version="1.0" encoding="utf-8"?>
<svg version="1.1" xmlns:xlink="http://www.w3.org/1999/xlink" width="8px" height="8px" xmlns="http://www.w3.org/2000/svg">
  <g transform="matrix(1 0 0 1 -2723 -1338 )">
    <path d="M 7.710484143518518 4.113061594328703  C 7.710484143518518 1.998097618634259  5.996128640046296 0.28463038773148097  3.882052936921296 0.28463038773148147  C 1.767977233796296 0.28463038773148147  0.053621730324073635 1.9980976273148146  0.053621721643518167 4.113061594328704  C 0.05362171296296257 6.228025561342593  1.7670889612268512 7.941492800925927  3.882052936921296 7.941492809606481  C 5.9970169126157415 7.941492818287036  7.710484143518518 6.2280255700231475  7.710484143518518 4.113061594328703  Z M 6.195988735532408 2.717593981481482  C 6.331893605324074 2.8508340509259265  6.331893605324074 3.0693477575231487  6.19776527199074 3.2034760821759254  L 3.628896808449074 5.772344545717593  C 3.561388509837963 5.839852844328704  3.4734500636574075 5.873606993634259  3.3855116261574074 5.873606993634259  C 3.2975731799768515 5.873606993634259  3.209634742476852 5.839852844328704  3.142126435185185 5.772344545717593  L 1.8816754195601855 4.512781793981482  C 1.746658822337963 4.378653460648148  1.746658822337963 4.160139754050926  1.8816754195601855 4.026011420717593  C 2.016692016782408 3.8909948234953706  2.2343174594907413 3.8909948234953706  2.368445792824074 4.026011420717593  L 3.384623353587963 5.042188990162037  L 5.709218362268518 2.717593981481482  C 5.84423495949074 2.582577384259259  6.061860402199074 2.582577384259259  6.195988735532408 2.717593981481482  Z " fill-rule="nonzero" fill="#0fc060" stroke="none" transform="matrix(1 0 0 1 2723 1338 )" />
  </g>
</svg>