<?xml version="1.0" encoding="utf-8"?>
<svg version="1.1" xmlns:xlink="http://www.w3.org/1999/xlink" width="32px" height="40px" xmlns="http://www.w3.org/2000/svg">
  <g transform="matrix(1 0 0 1 -1811 -1770 )">
    <path d="M 23.111111125 8.700564957627119  L 23.111111124999994 0.6533898305084747  C 23.15555558333333 0.6920903813559323  23.19944445833333 0.7322033898305086  23.241388874999995 0.7748587711864408  L 31.34916666666666 9.020056483050848  C 31.391111124999995 9.06271186440678  31.430555541666664 9.107344618644067  31.468611124999995 9.152542372881356  L 23.555555541666664 9.152542372881356  C 23.310095661454206 9.15254234947946  23.111111125 8.950185174792335  23.111111125 8.700564957627119  Z M 23.55555554166667 10.960451991525424  C 22.328827223189954 10.959050894150632  21.334711056084057 9.948085281528012  21.33333333333333 8.700564957627119  L 21.33333333333333 0.11299436440677951  L 2.2222222083333323 0.11299436440677951  C 0.9954939061026308 0.11439546173677617  0.0013777457078300395 1.1253610485789456  0 2.3728813559322033  L 0 37.62711864406779  C 0.001377745707827671 38.874638951421055  0.9954939061026272 39.88560453826322  2.2222222083333336 39.88700563559322  L 29.777777791666665 39.88700563559322  C 31.004506093897373 39.88560453826322  31.998622254292172 38.874638951421055  32 37.6271186440678  L 32 10.960451991525424  L 23.55555554166667 10.960451991525424  Z " fill-rule="nonzero" fill="#666666" stroke="none" transform="matrix(1 0 0 1 1811 1770 )" />
  </g>
</svg>