<?xml version="1.0" encoding="utf-8"?>
<svg version="1.1" xmlns:xlink="http://www.w3.org/1999/xlink" width="68px" height="68px" xmlns="http://www.w3.org/2000/svg">
  <g transform="matrix(1 0 0 1 -1989 -59 )">
    <path d="M 2023 60  C 2041.48 60  2056 74.52  2056 93  C 2056 111.48  2041.48 126  2023 126  C 2004.52 126  1990 111.48  1990 93  C 1990 74.52  2004.52 60  2023 60  Z " fill-rule="nonzero" fill="#ffffff" stroke="none" fill-opacity="0" />
    <path d="M 2023 60  C 2041.48 60  2056 74.52  2056 93  C 2056 111.48  2041.48 126  2023 126  C 2004.52 126  1990 111.48  1990 93  C 1990 74.52  2004.52 60  2023 60  Z " stroke-width="2" stroke="#f59a23" fill="none" />
  </g>
</svg>