<?xml version="1.0" encoding="utf-8"?>
<svg version="1.1" xmlns:xlink="http://www.w3.org/1999/xlink" width="60px" height="60px" xmlns="http://www.w3.org/2000/svg">
  <g transform="matrix(1 0 0 1 -1993 -63 )">
    <path d="M 2023 64.5  C 2038.96 64.5  2051.5 77.03999999999999  2051.5 93  C 2051.5 108.96000000000001  2038.96 121.5  2023 121.5  C 2007.04 121.5  1994.5 108.96000000000001  1994.5 93  C 1994.5 77.03999999999999  2007.04 64.5  2023 64.5  Z " fill-rule="nonzero" fill="#ffffff" stroke="none" />
    <path d="M 2023 64  C 2039.24 64  2052 76.75999999999999  2052 93  C 2052 109.24000000000001  2039.24 122  2023 122  C 2006.76 122  1994 109.24000000000001  1994 93  C 1994 76.75999999999999  2006.76 64  2023 64  Z " stroke-width="2" stroke-dasharray="18,8,4,8" stroke="#f59a23" fill="none" />
  </g>
</svg>