<?xml version="1.0" encoding="utf-8"?>
<svg version="1.1" xmlns:xlink="http://www.w3.org/1999/xlink" width="68px" height="68px" xmlns="http://www.w3.org/2000/svg">
  <g transform="matrix(1 0 0 1 -2130 -59 )">
    <path d="M 2164 60  C 2182.48 60  2197 74.52  2197 93  C 2197 111.48  2182.48 126  2164 126  C 2145.52 126  2131 111.48  2131 93  C 2131 74.52  2145.52 60  2164 60  Z " fill-rule="nonzero" fill="#ffffff" stroke="none" fill-opacity="0" />
    <path d="M 2164 60  C 2182.48 60  2197 74.52  2197 93  C 2197 111.48  2182.48 126  2164 126  C 2145.52 126  2131 111.48  2131 93  C 2131 74.52  2145.52 60  2164 60  Z " stroke-width="2" stroke="#0fc060" fill="none" />
  </g>
</svg>