<?xml version="1.0" encoding="utf-8"?>
<svg version="1.1" xmlns:xlink="http://www.w3.org/1999/xlink" width="60px" height="60px" xmlns="http://www.w3.org/2000/svg">
  <g transform="matrix(1 0 0 1 -2134 -63 )">
    <path d="M 2164 64.5  C 2179.96 64.5  2192.5 77.03999999999999  2192.5 93  C 2192.5 108.96000000000001  2179.96 121.5  2164 121.5  C 2148.04 121.5  2135.5 108.96000000000001  2135.5 93  C 2135.5 77.03999999999999  2148.04 64.5  2164 64.5  Z " fill-rule="nonzero" fill="#ffffff" stroke="none" />
    <path d="M 2164 64  C 2180.24 64  2193 76.75999999999999  2193 93  C 2193 109.24000000000001  2180.24 122  2164 122  C 2147.76 122  2135 109.24000000000001  2135 93  C 2135 76.75999999999999  2147.76 64  2164 64  Z " stroke-width="2" stroke-dasharray="18,8,4,8" stroke="#0fc060" fill="none" />
  </g>
</svg>