<?xml version="1.0" encoding="utf-8"?>
<svg version="1.1" xmlns:xlink="http://www.w3.org/1999/xlink" width="18px" height="18px" xmlns="http://www.w3.org/2000/svg">
  <g transform="matrix(1 0 0 1 -60 -451 )">
    <path d="M 2.0676106194690274 1.4282522123893808  L 16.085309734513277 1.4282522123893806  C 16.437207982193073 1.4282522123893806  16.722477876106197 1.7135221063025037  16.722477876106197 2.0654203539823013  L 16.722477876106197 16.08311946902655  C 16.722477876106197 16.435017716706348  16.437207982193073 16.72028761061947  16.085309734513277 16.72028761061947  L 2.0676106194690274 16.72028761061947  C 1.7157123717892298 16.72028761061947  1.430442477876107 16.435017716706348  1.430442477876107 16.08311946902655  L 1.430442477876107 2.0654203539823013  C 1.430442477876107 1.7135221063025037  1.7157123717892298 1.4282522123893808  2.0676106194690274 1.4282522123893808  Z M 18 2.0654203539823013  C 17.996814159292033 1.0097256109429082  17.141004477552666 0.1539159292035402  16.085309734513277 0.1539159292035402  L 2.0676106194690274 0.1539159292035402  C 1.0119158764296343 0.1539159292035402  0.156106194690266 1.0097256109429082  0.15610619469026613 2.0654203539823013  L 0.156106194690266 16.083119469026546  C 0.156106194690266 17.138814212065938  1.0119158764296343 17.994623893805308  2.0676106194690274 18  L 16.08530973451327 18  C 17.141004477552666 17.994623893805308  17.996814159292033 17.138814212065938  18 16.08311946902655  L 18 2.0654203539823013  Z " fill-rule="nonzero" fill="#999999" stroke="none" transform="matrix(1 0 0 1 60 451 )" />
  </g>
</svg>