<?xml version="1.0" encoding="utf-8"?>
<svg version="1.1" xmlns:xlink="http://www.w3.org/1999/xlink" width="34px" height="34px" preserveAspectRatio="xMinYMid meet" viewBox="2455 1593  34 32" xmlns="http://www.w3.org/2000/svg">
  <path d="M 2452 1094  L 2476 1094  A 5 5 0 0 1 2481 1099 L 2481 1604  A 5 5 0 0 1 2476 1609 L 2472 1609  " stroke-width="2" stroke="#0066ff" fill="none" />
  <path d="M 2453.5 1090.5  A 3.5 3.5 0 0 0 2450 1094 A 3.5 3.5 0 0 0 2453.5 1097.5 A 3.5 3.5 0 0 0 2457 1094 A 3.5 3.5 0 0 0 2453.5 1090.5 Z M 2479.4 1601  L 2470 1609  L 2479.4 1617  L 2475.8 1609  L 2479.4 1601  Z " fill-rule="nonzero" fill="#0066ff" stroke="none" />
</svg>