<?xml version="1.0" encoding="utf-8"?>
<svg version="1.1" xmlns:xlink="http://www.w3.org/1999/xlink" width="20px" height="20px" xmlns="http://www.w3.org/2000/svg">
  <g transform="matrix(1 0 0 1 -420 -1504 )">
    <path d="M 9.92268907563025 0.16399999999999845  C 15.402096361682585 0.16399999999999845  19.844033613445376 4.568921107998102  19.844033613445376 10.002666666666665  C 19.844033613445376 15.436412225335232  15.402096361682585 19.84133333333333  9.92268907563025 19.84133333333333  C 4.443281789577917 19.84133333333333  0.0013445378151242604 15.436412225335232  0.0013445378151242604 10.002666666666665  C 0.0013445378151242604 4.568921107998102  4.443281789577917 0.16399999999999845  9.92268907563025 0.16399999999999845  Z M 9.922689075630252 1.4826666666666672  L 9.922689075630252 1.484  C 9.886865208966508 1.4835555599027106  9.851038889391587 1.4833333333333332  9.815212219389029 1.4833333333333332  C 5.070204419162112 1.4833333333333332  1.223615580733568 5.297867264774973  1.223615580733568 10.003333333333334  C 1.223615580733568 14.708799401891694  5.070204419162112 18.523333333333333  9.815212219389029 18.523333333333333  C 9.851038889391587 18.523333333333333  9.886865208966508 18.523111106763956  9.922689075630252 18.522666666666666  C 14.667696875857171 18.522666666666666  18.514285714285712 14.708132735225025  18.514285714285712 10.002666666666666  C 18.514285714285712 5.297200598108306  14.667696875857171 1.4826666666666664  9.922689075630252 1.4826666666666664  Z M 5.577142857142857 11.646666666666665  L 14.730756302521009 11.646666666666665  L 14.730756302521009 11.650666666666666  C 14.730756302521009 14.157303051232027  12.681650135696163 16.189333333333334  10.15394957983193 16.189333333333334  C 7.626249023967703 16.189333333333334  5.577142857142857 14.157303051232027  5.577142857142857 11.650666666666666  L 5.577142857142857 11.646666666666665  Z M 7.111260504201681 6.198666666666668  C 7.958530285118568 6.198666666666668  8.645378151260504 6.879790800590754  8.645378151260504 7.7200000000000015  C 8.645378151260504 8.560209199409247  7.958530285118568 9.241333333333335  7.111260504201681 9.241333333333335  C 6.263990723284793 9.241333333333335  5.577142857142857 8.560209199409247  5.577142857142857 7.7200000000000015  C 5.577142857142857 6.879790800590754  6.263990723284793 6.198666666666668  7.111260504201681 6.198666666666668  Z M 13.196638655462188 6.198666666666668  C 14.043908436379073 6.198666666666668  14.73075630252101 6.879790800590754  14.73075630252101 7.7200000000000015  C 14.73075630252101 8.560209199409247  14.043908436379073 9.241333333333335  13.196638655462188 9.241333333333335  C 12.349368874545299 9.241333333333335  11.662521008403363 8.560209199409247  11.662521008403363 7.7200000000000015  C 11.662521008403363 6.879790800590754  12.349368874545299 6.198666666666668  13.196638655462188 6.198666666666668  Z " fill-rule="nonzero" fill="#74838e" stroke="none" transform="matrix(1 0 0 1 420 1504 )" />
  </g>
</svg>