<?xml version="1.0" encoding="utf-8"?>
<svg version="1.1" xmlns:xlink="http://www.w3.org/1999/xlink" width="28px" height="28px" xmlns="http://www.w3.org/2000/svg">
  <g transform="matrix(1 0 0 1 -354 -1165 )">
    <path d="M 6.97265625 1.8776041666666656  C 9.117621527777779 0.6258680555555531  11.460069444444445 0  14 0  C 16.539930555555557 0  18.882378472222225 0.6258680555555531  21.02734375 1.8776041666666656  C 23.17230902777778 3.129340277777775  24.870659722222225 4.827690972222221  26.122395833333336 6.97265625  C 27.37413194444444 9.117621527777775  28 11.460069444444441  28 14  C 28 16.539930555555557  27.37413194444444 18.882378472222218  26.122395833333336 21.02734375  C 24.870659722222225 23.17230902777778  23.17230902777778 24.87065972222222  21.02734375 26.122395833333336  C 18.882378472222225 27.374131944444446  16.539930555555557 28  14 28  C 11.460069444444445 28  9.117621527777779 27.374131944444446  6.97265625 26.122395833333336  C 4.827690972222222 24.87065972222222  3.129340277777778 23.17230902777778  1.8776041666666667 21.02734375  C 0.6258680555555555 18.882378472222218  0 16.539930555555557  0 14  C 0 11.460069444444441  0.6258680555555555 9.117621527777775  1.8776041666666667 6.97265625  C 3.129340277777778 4.827690972222221  4.827690972222222 3.129340277777775  6.97265625 1.8776041666666656  Z M 11.083333333333332 20.8359375  L 21 15.002604166666668  C 21.38888888888889 14.783854166666668  21.583333333333336 14.449652777777775  21.583333333333336 14  C 21.583333333333336 13.550347222222221  21.38888888888889 13.216145833333334  21 12.997395833333334  L 11.083333333333332 7.1640625  C 10.706597222222223 6.933159722222221  10.317708333333332 6.927083333333334  9.916666666666668 7.145833333333334  C 9.52777777777778 7.376736111111109  9.333333333333332 7.7170138888888875  9.333333333333332 8.166666666666666  L 9.333333333333332 19.833333333333332  C 9.333333333333332 20.282986111111107  9.52777777777778 20.623263888888886  9.916666666666668 20.854166666666668  C 10.111111111111112 20.951388888888886  10.305555555555557 21  10.5 21  C 10.706597222222223 21  10.901041666666668 20.9453125  11.083333333333332 20.8359375  Z " fill-rule="nonzero" fill="#000000" stroke="none" transform="matrix(1 0 0 1 354 1165 )" />
  </g>
</svg>