<?xml version="1.0" encoding="utf-8"?>
<svg version="1.1" xmlns:xlink="http://www.w3.org/1999/xlink" width="40px" height="39px" xmlns="http://www.w3.org/2000/svg">
  <g transform="matrix(1 0 0 1 -3055 -1832 )">
    <path d="M 23.07061363433274 11.252870204735883  C 23.07061363433274 12.879064821857922  22.839907480305698 14.737572934061928  22.609201363903587 16.828394579234974  C 24.685556599647263 15.899140523132967  26.761911797766018 14.969886467030964  28.60756087948266 14.040632410928959  C 30.453209961199295 13.111378354826957  32.06815292651382 12.414437793806922  32.99097746737213 11.94981076575592  C 34.144508162257495 11.485183737704919  35.06733270311581 11.252870204735881  35.75945112757202 11.252870204735881  C 36.912981822457375 11.252870204735881  37.8358063633157 11.717497232786883  38.75863090417401 12.414437793806918  C 39.68145544503234 13.111378354826957  39.91216159905938 14.040632410928959  39.91216156143445 15.20219996211293  C 39.91216156143445 15.899140523132967  39.68145540740741 16.596081046265937  39.22004317460317 17.293021607285976  C 38.75863090417401 17.98996216830601  38.297218633744855 18.454589196357013  38.066512479717815 18.68690269143898  C 33.91380204585538 20.313097308561016  29.530385457965906 21.474664859744987  24.454850445620224 22.171605420765026  C 25.377674986478542 23.100859476867026  26.531205681363904 24.030113532969033  27.684736338624344 25.42399461712204  C 29.06897314991182 26.817875701275046  29.76109157436802 27.51481626229508  29.76109157436802 27.74712979526411  C 30.22250384479718 28.444070356284158  30.91462226925338 29.141010879417124  31.8374468101117 30.302578468488164  C 32.760271350970015 31.231832524590164  33.22168362139918 32.16108658069217  33.68309589182834 32.625713608743176  C 33.913802045855384 33.090340636794174  34.144508162257495 33.78728119781421  34.144508162257495 34.71653525391621  C 34.144508162257495 35.645789310018216  33.68309589182834 36.57504336612022  32.99097746737213 37.50429742222222  C 32.29885904291593 38.20123798324226  31.145328385655496 38.665865011293256  29.99179772839506 38.665864973406194  C 28.838267071134624 38.665864935519124  27.454030222222222 37.73661091730419  25.839087256907703 35.878102805100184  C 24.224144291593177 34.01959469289617  22.37849520987654 30.534891963570125  20.071433857730746 25.65630815009107  C 17.764372505584948 30.07026493551912  15.918723423868311 33.09034063679417  15.226604999412107 34.484221720947176  C 14.303780458553788 35.878102805100184  13.611662034097588 37.03967039417122  12.919543647266313 37.73661091730418  C 12.227425222810107 38.433551478324226  11.30460068195179 38.898178506375224  10.381776141093471 38.898178506375224  C 9.22824544620811 38.898178506375224  8.305420905349791 38.433551478324226  7.382596364491473 37.73661091730418  C 6.69047794003527 36.80735686120219  6.229065669606111 36.110416300182145  6.229065669606111 35.18116228196721  C 6.229065669606111 34.25190822586521  6.459771823633154 33.554967664845165  6.69047794003527 33.322654131876135  C 9.689657716637269 29.373324374499084  12.68883749323927 25.88862164517304  15.918723386243386 22.868545981785058  C 12.919543609641384 21.47466489763205  10.381776103468546 21.010037869581048  8.305420905349791 20.545410803642984  C 6.229065669606111 20.080783775591982  3.9220043174603143 19.383843214571947  1.6149429653145178 18.222275663387972  C 1.3842368112874748 17.98996213041894  0.9228245408583156 17.525335102367936  0.46141227042915617 16.828394579234967  C 0.23070615402704292 16.363767551183972  0 15.666826990163933  0 14.969886467030964  C 0 13.808318877959929  0.46141227042915933 12.879064821857922  1.1535306948853616 12.182124260837886  C 2.07635523574368 11.485183699817847  2.999179776601999 11.020556671766846  3.9220043174603174 11.020556709653913  C 4.844828858318636 11.020556709653913  5.767653399176954 11.252870242622949  6.9211840940623155 11.717497232786885  C 8.074714788947677 12.182124260837886  9.458951600235155 12.879064821857922  11.304600681951793 13.808318877959929  L 17.302960235155787 16.828394579234974  C 16.841547964726633 14.737572934061928  16.610841810699586 12.414437793806922  16.380135656672543 9.858989120582876  C 15.918723386243386 7.303540447358833  15.918723386243386 5.445032335154824  15.918723386243386 4.515778279052822  C 15.918723386243386 3.354210689981783  16.380135656672543 2.4249566338797788  17.072254081128747 1.495702577777775  C 17.76437250558495 0.5664485216757713  18.68719704644327 0.10182149362477158  19.840727703703706 0.10182149362477158  C 20.994258360964135 0.10182149362477158  21.917082939447386 0.5664485216757735  22.609201363903587 1.2633890826958099  C 23.301319788359788 2.192643138797813  23.76273205878895 3.354210727868852  23.76273202116402 4.748091812021857  C 23.76273202116402 5.212718840072859  23.76273202116402 5.909659401092896  23.532025904761905 7.0712269522768665  C 23.532025904761905 8.232794541347905  23.301319750734862 9.626675625500912  23.07061363433274 11.252870204735883  Z " fill-rule="nonzero" fill="#999999" stroke="none" transform="matrix(1 0 0 1 3055 1832 )" />
  </g>
</svg>