<?xml version="1.0" encoding="utf-8"?>
<svg version="1.1" xmlns:xlink="http://www.w3.org/1999/xlink" width="40px" height="40px" xmlns="http://www.w3.org/2000/svg">
  <g transform="matrix(1 0 0 1 -2688 -1074 )">
    <path d="M 40 20  C 40 31.200000000000006  31.200000000000006 40  20 40  C 8.799999999999994 40  0 31.200000000000006  0 20  C 0 8.799999999999994  8.799999999999994 0  20 0  C 31.200000000000006 0  40 8.799999999999994  40 20  Z M 2.3529411764705883 20  C 2.3529411764705883 29.88235294117647  10.117647058823529 37.64705882352941  20 37.64705882352941  C 29.88235294117647 37.64705882352941  37.64705882352941 29.88235294117647  37.64705882352941 20  C 37.64705882352941 10.117647058823529  29.88235294117647 2.3529411764705883  20 2.3529411764705883  C 10.117647058823529 2.3529411764705883  2.3529411764705883 10.117647058823529  2.3529411764705883 20  Z " fill-rule="nonzero" fill="#f2f2f2" stroke="none" transform="matrix(1 0 0 1 2688 1074 )" />
  </g>
</svg>