<?xml version="1.0" encoding="utf-8"?>
<svg version="1.1" xmlns:xlink="http://www.w3.org/1999/xlink" width="40px" height="40px" xmlns="http://www.w3.org/2000/svg">
  <g transform="matrix(1 0 0 1 -1978 -667 )">
    <path d="M 1998 668  C 2008.64 668  2017 676.36  2017 687  C 2017 697.64  2008.64 706  1998 706  C 1987.36 706  1979 697.64  1979 687  C 1979 676.36  1987.36 668  1998 668  Z " fill-rule="nonzero" fill="#ffffff" stroke="none" fill-opacity="0" />
    <path d="M 1998 668  C 2008.64 668  2017 676.36  2017 687  C 2017 697.64  2008.64 706  1998 706  C 1987.36 706  1979 697.64  1979 687  C 1979 676.36  1987.36 668  1998 668  Z " stroke-width="2" stroke="#ffffff" fill="none" />
  </g>
</svg>