<?xml version="1.0" encoding="utf-8"?>
<svg version="1.1" xmlns:xlink="http://www.w3.org/1999/xlink" width="12px" height="10px" xmlns="http://www.w3.org/2000/svg">
  <g transform="matrix(1 0 0 1 -415 -1684 )">
    <path d="M 4.034598214285714 3.577473958333334  C 4.202008928571429 3.740234375  4.285714285714286 3.936631944444444  4.285714285714286 4.166666666666666  C 4.285714285714286 4.396701388888888  4.202008928571429 4.593098958333334  4.034598214285714 4.755859375  C 3.8671875 4.918619791666666  3.665178571428571 5  3.4285714285714284 5  C 3.191964285714286 5  2.9899553571428577 4.918619791666666  2.822544642857143 4.755859375  C 2.655133928571429 4.593098958333334  2.571428571428571 4.396701388888888  2.571428571428571 4.166666666666666  C 2.571428571428571 3.936631944444444  2.655133928571429 3.740234375  2.822544642857143 3.577473958333334  C 2.9899553571428577 3.414713541666666  3.191964285714286 3.333333333333334  3.4285714285714284 3.333333333333334  C 3.665178571428571 3.333333333333334  3.8671875 3.414713541666666  4.034598214285714 3.577473958333334  Z M 6.606026785714285 3.577473958333334  C 6.7734375 3.740234375  6.857142857142857 3.936631944444444  6.857142857142857 4.166666666666666  C 6.857142857142857 4.396701388888888  6.7734375 4.593098958333334  6.606026785714285 4.755859375  C 6.438616071428571 4.918619791666666  6.236607142857144 5  6 5  C 5.763392857142858 5  5.561383928571429 4.918619791666666  5.393973214285714 4.755859375  C 5.2265625 4.593098958333334  5.142857142857142 4.396701388888888  5.142857142857142 4.166666666666666  C 5.142857142857142 3.936631944444444  5.2265625 3.740234375  5.393973214285714 3.577473958333334  C 5.561383928571429 3.414713541666666  5.763392857142858 3.333333333333334  6 3.333333333333334  C 6.236607142857144 3.333333333333334  6.438616071428571 3.414713541666666  6.606026785714285 3.577473958333334  Z M 9.177455357142858 3.577473958333334  C 9.344866071428571 3.740234375  9.428571428571429 3.936631944444444  9.428571428571429 4.166666666666666  C 9.428571428571429 4.396701388888888  9.344866071428571 4.593098958333334  9.177455357142858 4.755859375  C 9.010044642857142 4.918619791666666  8.808035714285715 5  8.571428571428571 5  C 8.334821428571429 5  8.1328125 4.918619791666666  7.965401785714285 4.755859375  C 7.797991071428571 4.593098958333334  7.714285714285715 4.396701388888888  7.714285714285715 4.166666666666666  C 7.714285714285715 3.936631944444444  7.797991071428571 3.740234375  7.965401785714285 3.577473958333334  C 8.1328125 3.414713541666666  8.334821428571429 3.333333333333334  8.571428571428571 3.333333333333334  C 8.808035714285715 3.333333333333334  9.010044642857142 3.414713541666666  9.177455357142858 3.577473958333334  Z M 8.5546875 1.2858072916666663  C 7.7622767857142865 0.9841579861111105  6.910714285714285 0.8333333333333337  6 0.8333333333333337  C 5.089285714285714 0.8333333333333337  4.237723214285714 0.9841579861111105  3.4453125 1.2858072916666663  C 2.6529017857142856 1.587456597222222  2.0234375 1.9943576388888884  1.5569196428571428 2.506510416666666  C 1.0904017857142858 3.018663194444443  0.8571428571428571 3.5720486111111107  0.8571428571428571 4.166666666666666  C 0.8571428571428571 4.652777777777778  1.0167410714285716 5.116102430555555  1.3359375 5.556640625  C 1.6551339285714286 5.997178819444445  2.1049107142857144 6.378038194444445  2.685267857142857 6.69921875  L 3.2678571428571423 7.024739583333332  L 3.0870535714285716 7.649739583333334  C 2.9799107142857144 8.04470486111111  2.8236607142857144 8.41796875  2.618303571428571 8.76953125  C 3.2968750000000004 8.49609375  3.9107142857142856 8.125  4.459821428571429 7.65625  L 4.747767857142858 7.408854166666668  L 5.129464285714286 7.447916666666668  C 5.4375 7.482638888888888  5.727678571428571 7.5  6 7.5  C 6.910714285714285 7.5  7.7622767857142865 7.349175347222221  8.5546875 7.047526041666668  C 9.347098214285715 6.745876736111109  9.9765625 6.338975694444445  10.443080357142858 5.826822916666668  C 10.909598214285715 5.314670138888888  11.142857142857142 4.761284722222222  11.142857142857142 4.166666666666666  C 11.142857142857142 3.5720486111111107  10.909598214285715 3.018663194444443  10.443080357142858 2.506510416666666  C 9.9765625 1.9943576388888884  9.347098214285715 1.587456597222222  8.5546875 1.2858072916666663  Z M 11.524553571428571 2.548828125  C 11.841517857142858 3.063151041666666  12 3.6024305555555545  12 4.166666666666666  C 12 4.921875  11.732142857142858 5.619574652777777  11.196428571428571 6.259765625  C 10.660714285714285 6.899956597222221  9.933035714285715 7.405598958333332  9.013392857142858 7.776692708333334  C 8.09375 8.147786458333334  7.089285714285714 8.333333333333334  6 8.333333333333334  C 5.6875 8.333333333333334  5.363839285714286 8.315972222222221  5.029017857142858 8.28125  C 4.145089285714286 9.04079861111111  3.118303571428572 9.565972222222221  1.9486607142857142 9.856770833333334  C 1.7299107142857146 9.917534722222221  1.4754464285714286 9.965277777777779  1.1852678571428572 10  L 1.1517857142857144 10  C 1.0848214285714286 10  1.0245535714285714 9.977213541666666  0.9709821428571429 9.931640625  C 0.9174107142857144 9.886067708333334  0.8816964285714288 9.82638888888889  0.8638392857142856 9.752604166666666  L 0.8638392857142856 9.74609375  C 0.8504464285714287 9.72873263888889  0.8493303571428572 9.702690972222223  0.8604910714285714 9.66796875  C 0.8716517857142858 9.633246527777779  0.8761160714285716 9.61154513888889  0.8738839285714286 9.602864583333334  C 0.8716517857142858 9.594184027777779  0.8816964285714288 9.573567708333334  0.9040178571428571 9.541015625  L 0.9441964285714286 9.482421875  C 0.9441964285714286 9.482421875  0.9598214285714286 9.463975694444445  0.9910714285714286 9.427083333333334  C 1.0223214285714288 9.390190972222221  1.0401785714285716 9.370659722222221  1.0446428571428572 9.368489583333334  C 1.0758928571428572 9.33376736111111  1.1450892857142856 9.258897569444445  1.2522321428571428 9.143880208333334  C 1.359375 9.028862847222221  1.4363839285714286 8.946397569444445  1.4832589285714286 8.896484375  C 1.5301339285714288 8.846571180555555  1.5993303571428572 8.760850694444445  1.6908482142857142 8.639322916666666  C 1.7823660714285716 8.51779513888889  1.8549107142857142 8.407118055555555  1.9084821428571428 8.307291666666666  C 1.9620535714285712 8.207465277777779  2.022321428571429 8.079427083333334  2.0892857142857144 7.923177083333334  C 2.15625 7.766927083333334  2.2142857142857144 7.601996527777778  2.263392857142857 7.428385416666668  C 1.5625 7.042100694444445  1.0100446428571428 6.564670138888888  0.6060267857142857 5.99609375  C 0.20200892857142855 5.427517361111109  0 4.817708333333334  0 4.166666666666666  C 0 3.6024305555555545  0.15848214285714285 3.063151041666666  0.47544642857142855 2.548828125  C 0.7924107142857143 2.034505208333334  1.21875 1.5907118055555547  1.7544642857142858 1.2174479166666663  C 2.290178571428571 0.8441840277777768  2.928571428571429 0.5479600694444431  3.6696428571428577 0.3287760416666663  C 4.4107142857142865 0.1095920138888884  5.1875 0  6 0  C 6.8125 0  7.589285714285715 0.1095920138888884  8.330357142857142 0.3287760416666663  C 9.071428571428573 0.5479600694444431  9.709821428571429 0.8441840277777768  10.245535714285715 1.2174479166666663  C 10.781250000000002 1.5907118055555547  11.207589285714288 2.034505208333334  11.524553571428571 2.548828125  Z " fill-rule="nonzero" fill="#ffffff" stroke="none" transform="matrix(1 0 0 1 415 1684 )" />
  </g>
</svg>