<?xml version="1.0" encoding="utf-8"?>
<svg version="1.1" xmlns:xlink="http://www.w3.org/1999/xlink" width="40px" height="40px" xmlns="http://www.w3.org/2000/svg">
  <g transform="matrix(1 0 0 1 -3505 -1762 )">
    <path d="M 3525 1762  C 3536.2 1762  3545 1770.8  3545 1782  C 3545 1793.2  3536.2 1802  3525 1802  C 3513.8 1802  3505 1793.2  3505 1782  C 3505 1770.8  3513.8 1762  3525 1762  Z " fill-rule="nonzero" fill="#ffffff" stroke="none" />
    <path d="M 3525 1762.5  C 3535.92 1762.5  3544.5 1771.08  3544.5 1782  C 3544.5 1792.92  3535.92 1801.5  3525 1801.5  C 3514.08 1801.5  3505.5 1792.92  3505.5 1782  C 3505.5 1771.08  3514.08 1762.5  3525 1762.5  Z " stroke-width="1" stroke="#ff6666" fill="none" />
  </g>
</svg>